<?xml version="1.0" encoding="UTF-8" standalone="no"?>
<!DOCTYPE svg PUBLIC "-//W3C//DTD SVG 1.1//EN"
 "http://www.w3.org/Graphics/SVG/1.1/DTD/svg11.dtd">
<!-- Generated by graphviz version 2.44.1 (20200629.0846)
 -->
<!-- Title: conditionChecker Pages: 1 -->
<svg width="729pt" height="378pt"
 viewBox="0.00 0.00 729.00 377.96" xmlns="http://www.w3.org/2000/svg" xmlns:xlink="http://www.w3.org/1999/xlink">
<g id="graph0" class="graph" transform="scale(1 1) rotate(0) translate(4 373.96)">
<title>conditionChecker</title>
<polygon fill="white" stroke="transparent" points="-4,4 -4,-373.96 725,-373.96 725,4 -4,4"/>
<!-- check -->
<g id="node1" class="node">
<title>check</title>
<path fill="none" stroke="#1c2123" d="M42,-144C42,-144 12,-144 12,-144 6,-144 0,-138 0,-132 0,-132 0,-120 0,-120 0,-114 6,-108 12,-108 12,-108 42,-108 42,-108 48,-108 54,-114 54,-120 54,-120 54,-132 54,-132 54,-138 48,-144 42,-144"/>
<text text-anchor="middle" x="27" y="-122.3" font-family="Times,serif" font-size="14.00" fill="#2f3638">check</text>
</g>
<!-- checkScalarFunction -->
<g id="node2" class="node">
<title>checkScalarFunction</title>
<path fill="none" stroke="#1c2123" d="M208,-198C208,-198 102,-198 102,-198 96,-198 90,-192 90,-186 90,-186 90,-174 90,-174 90,-168 96,-162 102,-162 102,-162 208,-162 208,-162 214,-162 220,-168 220,-174 220,-174 220,-186 220,-186 220,-192 214,-198 208,-198"/>
<text text-anchor="middle" x="155" y="-176.3" font-family="Times,serif" font-size="14.00" fill="#2f3638">checkScalarFunction</text>
</g>
<!-- check&#45;&gt;checkScalarFunction -->
<g id="edge1" class="edge">
<title>check&#45;&gt;checkScalarFunction</title>
<path fill="none" stroke="#666666" d="M54.11,-137.19C67.97,-143.13 85.5,-150.64 102,-157.71"/>
<polygon fill="#666666" stroke="#666666" points="100.99,-161.09 111.56,-161.81 103.75,-154.65 100.99,-161.09"/>
</g>
<!-- checkColumn -->
<g id="node3" class="node">
<title>checkColumn</title>
<path fill="none" stroke="#1c2123" d="M502,-277C502,-277 709,-277 709,-277 715,-277 721,-283 721,-289 721,-289 721,-311 721,-311 721,-317 715,-323 709,-323 709,-323 502,-323 502,-323 496,-323 490,-317 490,-311 490,-311 490,-289 490,-289 490,-283 496,-277 502,-277"/>
<text text-anchor="middle" x="605.5" y="-307.8" font-family="Times,serif" font-size="14.00" fill="#2f3638">checkColumn</text>
<polyline fill="none" stroke="#1c2123" points="490,-300 721,-300 "/>
<text text-anchor="start" x="498" y="-284.8" font-family="Times,serif" font-size="14.00" fill="#2f3638">return c.colUniqueID == col.UniqueID</text>
</g>
<!-- check&#45;&gt;checkColumn -->
<g id="edge2" class="edge">
<title>check&#45;&gt;checkColumn</title>
<path fill="none" stroke="#666666" d="M38.36,-144.02C66.24,-190.4 148.17,-313.12 256,-354 352.92,-390.74 474.05,-355.28 544.99,-327.04"/>
<polygon fill="#666666" stroke="#666666" points="546.72,-330.11 554.66,-323.11 544.08,-323.63 546.72,-330.11"/>
</g>
<!-- Constant -->
<g id="node4" class="node">
<title>Constant</title>
<path fill="#9adebe" stroke="#729c88" d="M159.47,-6.06C159.47,-6.06 161.61,-6.14 161.61,-6.14 161.76,-6.14 162.07,-6.16 162.23,-6.16 162.23,-6.16 164.34,-6.28 164.34,-6.28 164.49,-6.29 164.8,-6.31 164.95,-6.32 164.95,-6.32 167.03,-6.47 167.03,-6.47 167.18,-6.48 167.49,-6.51 167.64,-6.52 167.64,-6.52 169.66,-6.71 169.66,-6.71 169.82,-6.72 170.12,-6.75 170.28,-6.77 170.28,-6.77 172.24,-6.99 172.24,-6.99 172.39,-7.01 172.7,-7.05 172.85,-7.07 172.85,-7.07 174.75,-7.32 174.75,-7.32 174.9,-7.34 175.2,-7.39 175.35,-7.41 175.35,-7.41 177.17,-7.7 177.17,-7.7 177.32,-7.72 177.63,-7.78 177.78,-7.8 177.78,-7.8 179.5,-8.12 179.5,-8.12 179.66,-8.15 179.96,-8.21 180.11,-8.24 180.11,-8.24 181.74,-8.58 181.74,-8.58 181.89,-8.62 182.19,-8.68 182.34,-8.72 182.34,-8.72 183.87,-9.09 183.87,-9.09 184.02,-9.12 184.32,-9.2 184.47,-9.24 184.47,-9.24 185.89,-9.63 185.89,-9.63 186.04,-9.67 186.33,-9.76 186.48,-9.81 186.48,-9.81 187.78,-10.22 187.78,-10.22 187.93,-10.26 188.22,-10.36 188.37,-10.41 188.37,-10.41 189.55,-10.84 189.55,-10.84 189.7,-10.89 189.98,-11 190.13,-11.06 190.13,-11.06 191.19,-11.49 191.19,-11.49 191.33,-11.55 191.61,-11.67 191.75,-11.74 191.75,-11.74 192.69,-12.18 192.69,-12.18 192.83,-12.24 193.11,-12.38 193.24,-12.45 193.24,-12.45 194.06,-12.89 194.06,-12.89 194.19,-12.97 194.46,-13.12 194.59,-13.2 194.59,-13.2 195.28,-13.64 195.28,-13.64 195.41,-13.72 195.66,-13.89 195.79,-13.98 195.79,-13.98 196.36,-14.41 196.36,-14.41 196.48,-14.5 196.72,-14.69 196.84,-14.8 196.84,-14.8 197.3,-15.2 197.3,-15.2 197.41,-15.31 197.63,-15.52 197.73,-15.63 197.73,-15.63 198.09,-16.02 198.09,-16.02 198.19,-16.13 198.39,-16.37 198.48,-16.5 198.48,-16.5 198.74,-16.86 198.74,-16.86 198.83,-16.98 199,-17.24 199.07,-17.38 199.07,-17.38 199.26,-17.72 199.26,-17.72 199.33,-17.85 199.46,-18.13 199.51,-18.28 199.51,-18.28 199.63,-18.6 199.63,-18.6 199.68,-18.74 199.77,-19.04 199.8,-19.19 199.8,-19.19 199.86,-19.5 199.86,-19.5 199.9,-19.65 199.94,-19.95 199.94,-20.1 199.94,-20.1 199.96,-20.41 199.96,-20.41 199.97,-20.56 199.97,-20.87 199.95,-21.03 199.95,-21.03 199.92,-21.34 199.92,-21.34 199.91,-21.5 199.86,-21.8 199.82,-21.95 199.82,-21.95 199.75,-22.29 199.75,-22.29 199.71,-22.44 199.62,-22.73 199.57,-22.88 199.57,-22.88 199.44,-23.24 199.44,-23.24 199.38,-23.38 199.26,-23.67 199.19,-23.8 199.19,-23.8 199,-24.2 199,-24.2 198.93,-24.33 198.78,-24.6 198.7,-24.73 198.7,-24.73 198.44,-25.15 198.44,-25.15 198.36,-25.28 198.18,-25.54 198.09,-25.66 198.09,-25.66 197.76,-26.1 197.76,-26.1 197.67,-26.23 197.47,-26.47 197.37,-26.58 197.37,-26.58 196.97,-27.05 196.97,-27.05 196.87,-27.17 196.66,-27.39 196.55,-27.5 196.55,-27.5 196.07,-27.98 196.07,-27.98 195.97,-28.09 195.74,-28.31 195.63,-28.41 195.63,-28.41 195.08,-28.91 195.08,-28.91 194.97,-29.01 194.73,-29.21 194.62,-29.31 194.62,-29.31 194,-29.82 194,-29.82 193.88,-29.91 193.64,-30.1 193.51,-30.19 193.51,-30.19 192.83,-30.71 192.83,-30.71 192.71,-30.8 192.46,-30.98 192.33,-31.07 192.33,-31.07 191.58,-31.58 191.58,-31.58 191.46,-31.66 191.2,-31.83 191.07,-31.92 191.07,-31.92 190.27,-32.43 190.27,-32.43 190.14,-32.51 189.87,-32.67 189.74,-32.75 189.74,-32.75 188.88,-33.25 188.88,-33.25 188.75,-33.33 188.48,-33.48 188.35,-33.56 188.35,-33.56 187.44,-34.05 187.44,-34.05 187.3,-34.13 187.03,-34.27 186.89,-34.34 186.89,-34.34 185.94,-34.82 185.94,-34.82 185.8,-34.89 185.53,-35.03 185.39,-35.09 185.39,-35.09 184.39,-35.56 184.39,-35.56 184.25,-35.63 183.97,-35.76 183.83,-35.82 183.83,-35.82 182.8,-36.27 182.8,-36.27 182.66,-36.33 182.38,-36.45 182.24,-36.51 182.24,-36.51 181.17,-36.94 181.17,-36.94 181.03,-37 180.74,-37.12 180.6,-37.17 180.6,-37.17 179.51,-37.58 179.51,-37.58 179.36,-37.64 179.07,-37.74 178.93,-37.79 178.93,-37.79 177.81,-38.18 177.81,-38.18 177.67,-38.23 177.38,-38.33 177.23,-38.38 177.23,-38.38 176.09,-38.75 176.09,-38.75 175.95,-38.79 175.65,-38.88 175.5,-38.93 175.5,-38.93 174.35,-39.27 174.35,-39.27 174.2,-39.31 173.91,-39.39 173.76,-39.43 173.76,-39.43 172.59,-39.74 172.59,-39.74 172.44,-39.78 172.14,-39.86 171.99,-39.9 171.99,-39.9 170.81,-40.18 170.81,-40.18 170.66,-40.22 170.36,-40.28 170.21,-40.32 170.21,-40.32 169.01,-40.57 169.01,-40.57 168.86,-40.6 168.56,-40.66 168.41,-40.69 168.41,-40.69 167.21,-40.92 167.21,-40.92 167.05,-40.95 166.75,-41 166.6,-41.02 166.6,-41.02 165.39,-41.22 165.39,-41.22 165.24,-41.24 164.93,-41.29 164.78,-41.31 164.78,-41.31 163.57,-41.47 163.57,-41.47 163.41,-41.49 163.11,-41.53 162.96,-41.54 162.96,-41.54 161.74,-41.67 161.74,-41.67 161.59,-41.69 161.28,-41.72 161.13,-41.73 161.13,-41.73 159.9,-41.83 159.9,-41.83 159.75,-41.84 159.44,-41.86 159.29,-41.87 159.29,-41.87 158.07,-41.93 158.07,-41.93 157.91,-41.94 157.61,-41.95 157.45,-41.96 157.45,-41.96 156.23,-41.99 156.23,-41.99 156.07,-42 155.77,-42 155.61,-42 155.61,-42 154.39,-42 154.39,-42 154.23,-42 153.93,-42 153.77,-41.99 153.77,-41.99 152.55,-41.96 152.55,-41.96 152.39,-41.95 152.09,-41.94 151.93,-41.93 151.93,-41.93 150.71,-41.87 150.71,-41.87 150.56,-41.86 150.25,-41.84 150.1,-41.83 150.1,-41.83 148.87,-41.73 148.87,-41.73 148.72,-41.72 148.41,-41.69 148.26,-41.67 148.26,-41.67 147.04,-41.54 147.04,-41.54 146.89,-41.53 146.59,-41.49 146.43,-41.47 146.43,-41.47 145.22,-41.31 145.22,-41.31 145.07,-41.29 144.76,-41.24 144.61,-41.22 144.61,-41.22 143.4,-41.02 143.4,-41.02 143.25,-41 142.95,-40.95 142.79,-40.92 142.79,-40.92 141.59,-40.69 141.59,-40.69 141.44,-40.66 141.14,-40.6 140.99,-40.57 140.99,-40.57 139.79,-40.32 139.79,-40.32 139.64,-40.28 139.34,-40.22 139.19,-40.18 139.19,-40.18 138.01,-39.9 138.01,-39.9 137.86,-39.86 137.56,-39.78 137.41,-39.74 137.41,-39.74 136.24,-39.43 136.24,-39.43 136.09,-39.39 135.8,-39.31 135.65,-39.27 135.65,-39.27 134.5,-38.93 134.5,-38.93 134.35,-38.88 134.05,-38.79 133.91,-38.75 133.91,-38.75 132.77,-38.38 132.77,-38.38 132.62,-38.33 132.33,-38.23 132.19,-38.18 132.19,-38.18 131.07,-37.79 131.07,-37.79 130.93,-37.74 130.64,-37.64 130.49,-37.58 130.49,-37.58 129.4,-37.17 129.4,-37.17 129.26,-37.12 128.97,-37 128.83,-36.94 128.83,-36.94 127.76,-36.51 127.76,-36.51 127.62,-36.45 127.34,-36.33 127.2,-36.27 127.2,-36.27 126.17,-35.82 126.17,-35.82 126.03,-35.76 125.75,-35.63 125.61,-35.56 125.61,-35.56 124.61,-35.09 124.61,-35.09 124.47,-35.03 124.2,-34.89 124.06,-34.82 124.06,-34.82 123.11,-34.34 123.11,-34.34 122.97,-34.27 122.7,-34.13 122.56,-34.05 122.56,-34.05 121.65,-33.56 121.65,-33.56 121.52,-33.48 121.25,-33.33 121.12,-33.25 121.12,-33.25 120.26,-32.75 120.26,-32.75 120.13,-32.67 119.86,-32.51 119.73,-32.43 119.73,-32.43 118.93,-31.92 118.93,-31.92 118.8,-31.83 118.54,-31.66 118.42,-31.58 118.42,-31.58 117.67,-31.07 117.67,-31.07 117.54,-30.98 117.29,-30.8 117.17,-30.71 117.17,-30.71 116.49,-30.19 116.49,-30.19 116.36,-30.1 116.12,-29.91 116,-29.82 116,-29.82 115.38,-29.31 115.38,-29.31 115.27,-29.21 115.03,-29.01 114.92,-28.91 114.92,-28.91 114.37,-28.41 114.37,-28.41 114.26,-28.31 114.03,-28.09 113.93,-27.98 113.93,-27.98 113.45,-27.5 113.45,-27.5 113.34,-27.39 113.13,-27.17 113.03,-27.05 113.03,-27.05 112.63,-26.58 112.63,-26.58 112.53,-26.47 112.33,-26.23 112.24,-26.1 112.24,-26.1 111.91,-25.66 111.91,-25.66 111.82,-25.54 111.64,-25.28 111.56,-25.15 111.56,-25.15 111.3,-24.73 111.3,-24.73 111.22,-24.6 111.07,-24.33 111,-24.2 111,-24.2 110.81,-23.8 110.81,-23.8 110.74,-23.67 110.62,-23.38 110.56,-23.24 110.56,-23.24 110.43,-22.88 110.43,-22.88 110.38,-22.73 110.29,-22.44 110.25,-22.29 110.25,-22.29 110.18,-21.95 110.18,-21.95 110.14,-21.8 110.09,-21.5 110.08,-21.34 110.08,-21.34 110.05,-21.03 110.05,-21.03 110.03,-20.87 110.03,-20.56 110.04,-20.41 110.04,-20.41 110.06,-20.1 110.06,-20.1 110.06,-19.95 110.1,-19.65 110.14,-19.5 110.14,-19.5 110.2,-19.19 110.2,-19.19 110.23,-19.04 110.32,-18.74 110.37,-18.6 110.37,-18.6 110.49,-18.28 110.49,-18.28 110.54,-18.13 110.67,-17.85 110.74,-17.72 110.74,-17.72 110.93,-17.38 110.93,-17.38 111,-17.24 111.17,-16.98 111.26,-16.86 111.26,-16.86 111.52,-16.5 111.52,-16.5 111.61,-16.37 111.81,-16.13 111.91,-16.02 111.91,-16.02 112.27,-15.63 112.27,-15.63 112.37,-15.52 112.59,-15.31 112.7,-15.2 112.7,-15.2 113.16,-14.8 113.16,-14.8 113.28,-14.69 113.52,-14.5 113.64,-14.41 113.64,-14.41 114.21,-13.98 114.21,-13.98 114.34,-13.89 114.59,-13.72 114.72,-13.64 114.72,-13.64 115.41,-13.2 115.41,-13.2 115.54,-13.12 115.81,-12.97 115.94,-12.89 115.94,-12.89 116.76,-12.45 116.76,-12.45 116.89,-12.38 117.17,-12.24 117.31,-12.18 117.31,-12.18 118.25,-11.74 118.25,-11.74 118.39,-11.67 118.67,-11.55 118.81,-11.49 118.81,-11.49 119.87,-11.06 119.87,-11.06 120.02,-11 120.3,-10.89 120.45,-10.84 120.45,-10.84 121.63,-10.41 121.63,-10.41 121.78,-10.36 122.07,-10.26 122.22,-10.22 122.22,-10.22 123.52,-9.81 123.52,-9.81 123.67,-9.76 123.96,-9.67 124.11,-9.63 124.11,-9.63 125.53,-9.24 125.53,-9.24 125.68,-9.2 125.98,-9.12 126.13,-9.09 126.13,-9.09 127.66,-8.72 127.66,-8.72 127.81,-8.68 128.11,-8.62 128.26,-8.58 128.26,-8.58 129.89,-8.24 129.89,-8.24 130.04,-8.21 130.34,-8.15 130.5,-8.12 130.5,-8.12 132.22,-7.8 132.22,-7.8 132.37,-7.78 132.68,-7.72 132.83,-7.7 132.83,-7.7 134.65,-7.41 134.65,-7.41 134.8,-7.39 135.1,-7.34 135.25,-7.32 135.25,-7.32 137.15,-7.07 137.15,-7.07 137.3,-7.05 137.61,-7.01 137.76,-6.99 137.76,-6.99 139.72,-6.77 139.72,-6.77 139.88,-6.75 140.18,-6.72 140.34,-6.71 140.34,-6.71 142.36,-6.52 142.36,-6.52 142.51,-6.51 142.82,-6.48 142.97,-6.47 142.97,-6.47 145.05,-6.32 145.05,-6.32 145.2,-6.31 145.51,-6.29 145.66,-6.28 145.66,-6.28 147.77,-6.16 147.77,-6.16 147.93,-6.16 148.24,-6.14 148.39,-6.14 148.39,-6.14 150.53,-6.06 150.53,-6.06 150.68,-6.05 150.99,-6.05 151.15,-6.04 151.15,-6.04 153.3,-6.01 153.3,-6.01 153.46,-6 153.76,-6 153.92,-6 153.92,-6 156.08,-6 156.08,-6 156.24,-6 156.54,-6 156.7,-6.01 156.7,-6.01 158.85,-6.04 158.85,-6.04 159.01,-6.05 159.32,-6.05 159.47,-6.06"/>
<text text-anchor="middle" x="155" y="-20.3" font-family="Times,serif" font-size="14.00" fill="#40575d">Constant</text>
</g>
<!-- check&#45;&gt;Constant -->
<g id="edge3" class="edge">
<title>check&#45;&gt;Constant</title>
<path fill="none" stroke="#666666" d="M45.8,-107.99C57.86,-96.14 74.38,-80.56 90,-68 100.53,-59.53 112.62,-50.95 123.44,-43.65"/>
<polygon fill="#666666" stroke="#666666" points="125.41,-46.54 131.79,-38.08 121.53,-40.71 125.41,-46.54"/>
</g>
<!-- checkScalarFunction&#45;&gt;checkColumn -->
<g id="edge15" class="edge">
<title>checkScalarFunction&#45;&gt;checkColumn</title>
<path fill="none" stroke="#666666" d="M161.9,-198.03C173.72,-230.81 203.76,-299.35 256,-327 343.78,-373.45 461.75,-349.48 535.44,-326.14"/>
<polygon fill="#666666" stroke="#666666" points="536.66,-329.42 545.09,-323.01 534.5,-322.77 536.66,-329.42"/>
</g>
<!-- ast_IsNull -->
<g id="node6" class="node">
<title>ast_IsNull</title>
<path fill="#9adebe" stroke="#729c88" d="M359.9,-282.06C359.9,-282.06 362.33,-282.14 362.33,-282.14 362.49,-282.14 362.79,-282.16 362.95,-282.16 362.95,-282.16 365.34,-282.28 365.34,-282.28 365.5,-282.29 365.8,-282.31 365.96,-282.32 365.96,-282.32 368.31,-282.47 368.31,-282.47 368.47,-282.48 368.77,-282.5 368.93,-282.52 368.93,-282.52 371.22,-282.71 371.22,-282.71 371.38,-282.72 371.68,-282.75 371.84,-282.77 371.84,-282.77 374.07,-283 374.07,-283 374.22,-283.01 374.53,-283.05 374.68,-283.06 374.68,-283.06 376.84,-283.33 376.84,-283.33 376.99,-283.35 377.29,-283.39 377.45,-283.41 377.45,-283.41 379.51,-283.7 379.51,-283.7 379.67,-283.73 379.97,-283.77 380.12,-283.8 380.12,-283.8 382.09,-284.13 382.09,-284.13 382.24,-284.15 382.55,-284.2 382.7,-284.23 382.7,-284.23 384.56,-284.59 384.56,-284.59 384.71,-284.62 385.01,-284.68 385.16,-284.71 385.16,-284.71 386.91,-285.09 386.91,-285.09 387.06,-285.13 387.36,-285.2 387.51,-285.24 387.51,-285.24 389.14,-285.64 389.14,-285.64 389.29,-285.68 389.58,-285.76 389.73,-285.8 389.73,-285.8 391.23,-286.22 391.23,-286.22 391.38,-286.27 391.67,-286.36 391.82,-286.4 391.82,-286.4 393.18,-286.84 393.18,-286.84 393.33,-286.89 393.62,-286.99 393.76,-287.05 393.76,-287.05 394.99,-287.5 394.99,-287.5 395.13,-287.55 395.42,-287.67 395.56,-287.73 395.56,-287.73 396.65,-288.19 396.65,-288.19 396.79,-288.25 397.07,-288.37 397.21,-288.44 397.21,-288.44 398.15,-288.9 398.15,-288.9 398.29,-288.97 398.56,-289.11 398.69,-289.19 398.69,-289.19 399.5,-289.65 399.5,-289.65 399.63,-289.72 399.89,-289.89 400.02,-289.97 400.02,-289.97 400.69,-290.42 400.69,-290.42 400.82,-290.51 401.06,-290.69 401.18,-290.78 401.18,-290.78 401.72,-291.22 401.72,-291.22 401.84,-291.31 402.07,-291.52 402.18,-291.62 402.18,-291.62 402.59,-292.03 402.59,-292.03 402.7,-292.14 402.91,-292.37 403.01,-292.49 403.01,-292.49 403.31,-292.87 403.31,-292.87 403.41,-292.99 403.58,-293.24 403.66,-293.37 403.66,-293.37 403.87,-293.73 403.87,-293.73 403.95,-293.86 404.09,-294.13 404.15,-294.27 404.15,-294.27 404.28,-294.6 404.28,-294.6 404.34,-294.74 404.44,-295.04 404.47,-295.19 404.47,-295.19 404.54,-295.5 404.54,-295.5 404.58,-295.65 404.62,-295.95 404.63,-296.1 404.63,-296.1 404.65,-296.41 404.65,-296.41 404.66,-296.56 404.65,-296.87 404.64,-297.03 404.64,-297.03 404.61,-297.34 404.61,-297.34 404.59,-297.5 404.54,-297.8 404.5,-297.95 404.5,-297.95 404.41,-298.29 404.41,-298.29 404.37,-298.44 404.28,-298.73 404.22,-298.87 404.22,-298.87 404.07,-299.24 404.07,-299.24 404.01,-299.39 403.88,-299.66 403.81,-299.8 403.81,-299.8 403.58,-300.2 403.58,-300.2 403.51,-300.34 403.35,-300.6 403.26,-300.72 403.26,-300.72 402.96,-301.16 402.96,-301.16 402.87,-301.29 402.69,-301.53 402.59,-301.65 402.59,-301.65 402.21,-302.11 402.21,-302.11 402.11,-302.23 401.91,-302.46 401.8,-302.57 401.8,-302.57 401.33,-303.06 401.33,-303.06 401.23,-303.17 401.01,-303.39 400.89,-303.49 400.89,-303.49 400.34,-304 400.34,-304 400.23,-304.1 400,-304.3 399.88,-304.4 399.88,-304.4 399.25,-304.92 399.25,-304.92 399.13,-305.02 398.89,-305.21 398.76,-305.3 398.76,-305.3 398.05,-305.83 398.05,-305.83 397.93,-305.92 397.67,-306.1 397.55,-306.18 397.55,-306.18 396.76,-306.72 396.76,-306.72 396.63,-306.8 396.37,-306.97 396.24,-307.05 396.24,-307.05 395.38,-307.59 395.38,-307.59 395.25,-307.67 394.99,-307.83 394.85,-307.91 394.85,-307.91 393.92,-308.44 393.92,-308.44 393.79,-308.52 393.52,-308.66 393.38,-308.74 393.38,-308.74 392.39,-309.26 392.39,-309.26 392.26,-309.34 391.98,-309.48 391.85,-309.54 391.85,-309.54 390.8,-310.06 390.8,-310.06 390.66,-310.13 390.38,-310.26 390.24,-310.33 390.24,-310.33 389.14,-310.83 389.14,-310.83 389,-310.9 388.72,-311.02 388.58,-311.08 388.58,-311.08 387.43,-311.57 387.43,-311.57 387.29,-311.63 387.01,-311.75 386.86,-311.81 386.86,-311.81 385.68,-312.28 385.68,-312.28 385.53,-312.34 385.25,-312.45 385.1,-312.5 385.1,-312.5 383.88,-312.95 383.88,-312.95 383.73,-313.01 383.44,-313.11 383.3,-313.16 383.3,-313.16 382.04,-313.59 382.04,-313.59 381.89,-313.64 381.6,-313.74 381.45,-313.78 381.45,-313.78 380.17,-314.19 380.17,-314.19 380.02,-314.24 379.72,-314.33 379.58,-314.37 379.58,-314.37 378.26,-314.75 378.26,-314.75 378.12,-314.8 377.82,-314.88 377.67,-314.92 377.67,-314.92 376.34,-315.27 376.34,-315.27 376.19,-315.31 375.89,-315.39 375.74,-315.43 375.74,-315.43 374.39,-315.75 374.39,-315.75 374.24,-315.79 373.94,-315.86 373.79,-315.89 373.79,-315.89 372.42,-316.19 372.42,-316.19 372.27,-316.22 371.97,-316.28 371.82,-316.31 371.82,-316.31 370.44,-316.58 370.44,-316.58 370.29,-316.61 369.99,-316.66 369.84,-316.69 369.84,-316.69 368.45,-316.92 368.45,-316.92 368.3,-316.95 367.99,-317 367.84,-317.02 367.84,-317.02 366.44,-317.22 366.44,-317.22 366.29,-317.24 365.99,-317.28 365.83,-317.3 365.83,-317.3 364.43,-317.47 364.43,-317.47 364.28,-317.49 363.97,-317.52 363.82,-317.54 363.82,-317.54 362.41,-317.67 362.41,-317.67 362.26,-317.69 361.95,-317.72 361.8,-317.73 361.8,-317.73 360.38,-317.83 360.38,-317.83 360.23,-317.84 359.92,-317.86 359.77,-317.87 359.77,-317.87 358.36,-317.94 358.36,-317.94 358.2,-317.94 357.89,-317.95 357.74,-317.96 357.74,-317.96 356.32,-317.99 356.32,-317.99 356.17,-318 355.86,-318 355.71,-318 355.71,-318 354.29,-318 354.29,-318 354.14,-318 353.83,-318 353.68,-317.99 353.68,-317.99 352.26,-317.96 352.26,-317.96 352.11,-317.95 351.8,-317.94 351.64,-317.94 351.64,-317.94 350.23,-317.87 350.23,-317.87 350.08,-317.86 349.77,-317.84 349.62,-317.83 349.62,-317.83 348.2,-317.73 348.2,-317.73 348.05,-317.72 347.74,-317.69 347.59,-317.67 347.59,-317.67 346.18,-317.54 346.18,-317.54 346.03,-317.52 345.72,-317.49 345.57,-317.47 345.57,-317.47 344.17,-317.3 344.17,-317.3 344.01,-317.28 343.71,-317.24 343.56,-317.22 343.56,-317.22 342.16,-317.02 342.16,-317.02 342.01,-317 341.7,-316.95 341.55,-316.92 341.55,-316.92 340.16,-316.69 340.16,-316.69 340.01,-316.66 339.71,-316.61 339.56,-316.58 339.56,-316.58 338.18,-316.31 338.18,-316.31 338.03,-316.28 337.73,-316.22 337.58,-316.19 337.58,-316.19 336.21,-315.89 336.21,-315.89 336.06,-315.86 335.76,-315.79 335.61,-315.75 335.61,-315.75 334.26,-315.43 334.26,-315.43 334.11,-315.39 333.81,-315.31 333.66,-315.27 333.66,-315.27 332.33,-314.92 332.33,-314.92 332.18,-314.88 331.88,-314.8 331.74,-314.75 331.74,-314.75 330.42,-314.37 330.42,-314.37 330.28,-314.33 329.98,-314.24 329.83,-314.19 329.83,-314.19 328.55,-313.78 328.55,-313.78 328.4,-313.74 328.11,-313.64 327.96,-313.59 327.96,-313.59 326.7,-313.16 326.7,-313.16 326.56,-313.11 326.27,-313.01 326.12,-312.95 326.12,-312.95 324.9,-312.5 324.9,-312.5 324.75,-312.45 324.47,-312.34 324.32,-312.28 324.32,-312.28 323.14,-311.81 323.14,-311.81 322.99,-311.75 322.71,-311.63 322.57,-311.57 322.57,-311.57 321.42,-311.08 321.42,-311.08 321.28,-311.02 321,-310.9 320.86,-310.83 320.86,-310.83 319.76,-310.33 319.76,-310.33 319.62,-310.26 319.34,-310.13 319.2,-310.06 319.2,-310.06 318.15,-309.54 318.15,-309.54 318.02,-309.48 317.74,-309.34 317.61,-309.26 317.61,-309.26 316.62,-308.74 316.62,-308.74 316.48,-308.66 316.21,-308.52 316.08,-308.44 316.08,-308.44 315.15,-307.91 315.15,-307.91 315.01,-307.83 314.75,-307.67 314.62,-307.59 314.62,-307.59 313.76,-307.05 313.76,-307.05 313.63,-306.97 313.37,-306.8 313.24,-306.72 313.24,-306.72 312.45,-306.18 312.45,-306.18 312.33,-306.1 312.07,-305.92 311.95,-305.83 311.95,-305.83 311.24,-305.3 311.24,-305.3 311.11,-305.21 310.87,-305.02 310.75,-304.92 310.75,-304.92 310.12,-304.4 310.12,-304.4 310,-304.3 309.77,-304.1 309.66,-304 309.66,-304 309.11,-303.49 309.11,-303.49 308.99,-303.39 308.77,-303.17 308.67,-303.06 308.67,-303.06 308.2,-302.57 308.2,-302.57 308.09,-302.46 307.89,-302.23 307.79,-302.11 307.79,-302.11 307.41,-301.65 307.41,-301.65 307.31,-301.53 307.13,-301.29 307.04,-301.16 307.04,-301.16 306.74,-300.72 306.74,-300.72 306.65,-300.6 306.49,-300.34 306.42,-300.2 306.42,-300.2 306.19,-299.8 306.19,-299.8 306.12,-299.66 305.99,-299.39 305.93,-299.24 305.93,-299.24 305.78,-298.87 305.78,-298.87 305.72,-298.73 305.63,-298.44 305.59,-298.29 305.59,-298.29 305.5,-297.95 305.5,-297.95 305.46,-297.8 305.41,-297.5 305.39,-297.34 305.39,-297.34 305.36,-297.03 305.36,-297.03 305.35,-296.87 305.34,-296.56 305.35,-296.41 305.35,-296.41 305.37,-296.1 305.37,-296.1 305.38,-295.95 305.42,-295.65 305.46,-295.5 305.46,-295.5 305.53,-295.19 305.53,-295.19 305.56,-295.04 305.66,-294.74 305.72,-294.6 305.72,-294.6 305.85,-294.27 305.85,-294.27 305.91,-294.13 306.05,-293.86 306.13,-293.73 306.13,-293.73 306.34,-293.37 306.34,-293.37 306.42,-293.24 306.59,-292.99 306.69,-292.87 306.69,-292.87 306.99,-292.49 306.99,-292.49 307.09,-292.37 307.3,-292.14 307.41,-292.03 307.41,-292.03 307.82,-291.62 307.82,-291.62 307.93,-291.52 308.16,-291.31 308.28,-291.22 308.28,-291.22 308.82,-290.78 308.82,-290.78 308.94,-290.69 309.18,-290.51 309.31,-290.42 309.31,-290.42 309.98,-289.97 309.98,-289.97 310.11,-289.89 310.37,-289.72 310.5,-289.65 310.5,-289.65 311.31,-289.19 311.31,-289.19 311.44,-289.11 311.71,-288.97 311.85,-288.9 311.85,-288.9 312.79,-288.44 312.79,-288.44 312.93,-288.37 313.21,-288.25 313.35,-288.19 313.35,-288.19 314.44,-287.73 314.44,-287.73 314.58,-287.67 314.87,-287.55 315.01,-287.5 315.01,-287.5 316.24,-287.05 316.24,-287.05 316.38,-286.99 316.67,-286.89 316.82,-286.84 316.82,-286.84 318.18,-286.4 318.18,-286.4 318.33,-286.36 318.62,-286.27 318.77,-286.22 318.77,-286.22 320.27,-285.8 320.27,-285.8 320.42,-285.76 320.71,-285.68 320.86,-285.64 320.86,-285.64 322.49,-285.24 322.49,-285.24 322.64,-285.2 322.94,-285.13 323.09,-285.09 323.09,-285.09 324.84,-284.71 324.84,-284.71 324.99,-284.68 325.29,-284.62 325.44,-284.59 325.44,-284.59 327.3,-284.23 327.3,-284.23 327.45,-284.2 327.76,-284.15 327.91,-284.13 327.91,-284.13 329.88,-283.8 329.88,-283.8 330.03,-283.77 330.33,-283.73 330.49,-283.7 330.49,-283.7 332.55,-283.41 332.55,-283.41 332.71,-283.39 333.01,-283.35 333.16,-283.33 333.16,-283.33 335.32,-283.06 335.32,-283.06 335.47,-283.05 335.78,-283.01 335.93,-283 335.93,-283 338.16,-282.77 338.16,-282.77 338.32,-282.75 338.62,-282.72 338.78,-282.71 338.78,-282.71 341.07,-282.52 341.07,-282.52 341.23,-282.5 341.53,-282.48 341.69,-282.47 341.69,-282.47 344.04,-282.32 344.04,-282.32 344.2,-282.31 344.5,-282.29 344.66,-282.28 344.66,-282.28 347.05,-282.16 347.05,-282.16 347.21,-282.16 347.51,-282.14 347.67,-282.14 347.67,-282.14 350.1,-282.06 350.1,-282.06 350.25,-282.05 350.56,-282.05 350.71,-282.04 350.71,-282.04 353.16,-282 353.16,-282 353.31,-282 353.62,-282 353.77,-282 353.77,-282 356.23,-282 356.23,-282 356.38,-282 356.69,-282 356.84,-282 356.84,-282 359.29,-282.04 359.29,-282.04 359.44,-282.05 359.75,-282.05 359.9,-282.06"/>
<text text-anchor="middle" x="355" y="-296.3" font-family="Times,serif" font-size="14.00" fill="#40575d">ast_IsNull</text>
</g>
<!-- checkScalarFunction&#45;&gt;ast_IsNull -->
<g id="edge6" class="edge">
<title>checkScalarFunction&#45;&gt;ast_IsNull</title>
<path fill="none" stroke="#666666" d="M170.68,-198.16C188.64,-219.2 221.01,-253.48 256,-273 268.65,-280.06 283.26,-285.37 297.28,-289.32"/>
<polygon fill="#666666" stroke="#666666" points="296.78,-292.81 307.34,-291.97 298.56,-286.04 296.78,-292.81"/>
</g>
<!-- ast_LogicOr -->
<g id="node7" class="node">
<title>ast_LogicOr</title>
<path fill="#9adebe" stroke="#729c88" d="M360.7,-108.06C360.7,-108.06 363.66,-108.14 363.66,-108.14 363.81,-108.14 364.12,-108.15 364.27,-108.16 364.27,-108.16 367.19,-108.28 367.19,-108.28 367.34,-108.29 367.65,-108.3 367.81,-108.31 367.81,-108.31 370.67,-108.47 370.67,-108.47 370.83,-108.48 371.13,-108.5 371.29,-108.51 371.29,-108.51 374.09,-108.71 374.09,-108.71 374.24,-108.72 374.55,-108.75 374.7,-108.76 374.7,-108.76 377.43,-109 377.43,-109 377.58,-109.01 377.89,-109.04 378.04,-109.06 378.04,-109.06 380.67,-109.33 380.67,-109.33 380.83,-109.35 381.13,-109.38 381.29,-109.4 381.29,-109.4 383.81,-109.71 383.81,-109.71 383.97,-109.73 384.27,-109.77 384.43,-109.79 384.43,-109.79 386.84,-110.13 386.84,-110.13 386.99,-110.15 387.3,-110.2 387.45,-110.23 387.45,-110.23 389.74,-110.6 389.74,-110.6 389.89,-110.62 390.19,-110.68 390.34,-110.7 390.34,-110.7 392.49,-111.1 392.49,-111.1 392.65,-111.13 392.95,-111.19 393.1,-111.22 393.1,-111.22 395.1,-111.65 395.1,-111.65 395.25,-111.68 395.56,-111.75 395.71,-111.79 395.71,-111.79 397.56,-112.24 397.56,-112.24 397.71,-112.27 398.01,-112.35 398.15,-112.39 398.15,-112.39 399.85,-112.86 399.85,-112.86 400,-112.9 400.29,-112.99 400.44,-113.03 400.44,-113.03 401.97,-113.51 401.97,-113.51 402.11,-113.56 402.41,-113.66 402.55,-113.71 402.55,-113.71 403.91,-114.2 403.91,-114.2 404.05,-114.25 404.34,-114.37 404.48,-114.42 404.48,-114.42 405.67,-114.92 405.67,-114.92 405.81,-114.98 406.09,-115.11 406.23,-115.17 406.23,-115.17 407.25,-115.67 407.25,-115.67 407.39,-115.73 407.66,-115.88 407.79,-115.95 407.79,-115.95 408.64,-116.44 408.64,-116.44 408.78,-116.52 409.04,-116.68 409.16,-116.77 409.16,-116.77 409.85,-117.23 409.85,-117.23 409.97,-117.32 410.22,-117.51 410.34,-117.61 410.34,-117.61 410.87,-118.05 410.87,-118.05 410.98,-118.15 411.21,-118.36 411.31,-118.47 411.31,-118.47 411.7,-118.88 411.7,-118.88 411.81,-119 412,-119.24 412.09,-119.36 412.09,-119.36 412.36,-119.74 412.36,-119.74 412.44,-119.86 412.6,-120.13 412.67,-120.27 412.67,-120.27 412.83,-120.61 412.83,-120.61 412.9,-120.75 413.01,-121.03 413.05,-121.18 413.05,-121.18 413.13,-121.5 413.13,-121.5 413.17,-121.65 413.23,-121.95 413.24,-122.1 413.24,-122.1 413.26,-122.41 413.26,-122.41 413.27,-122.56 413.26,-122.87 413.24,-123.02 413.24,-123.02 413.21,-123.34 413.21,-123.34 413.19,-123.5 413.13,-123.8 413.08,-123.94 413.08,-123.94 412.98,-124.29 412.98,-124.29 412.93,-124.44 412.82,-124.73 412.76,-124.87 412.76,-124.87 412.57,-125.25 412.57,-125.25 412.51,-125.39 412.36,-125.66 412.27,-125.79 412.27,-125.79 412,-126.21 412,-126.21 411.92,-126.34 411.74,-126.59 411.64,-126.71 411.64,-126.71 411.27,-127.17 411.27,-127.17 411.17,-127.29 410.96,-127.52 410.86,-127.63 410.86,-127.63 410.38,-128.13 410.38,-128.13 410.27,-128.24 410.05,-128.45 409.93,-128.56 409.93,-128.56 409.35,-129.08 409.35,-129.08 409.23,-129.18 409,-129.38 408.88,-129.47 408.88,-129.47 408.18,-130.01 408.18,-130.01 408.06,-130.11 407.81,-130.29 407.69,-130.38 407.69,-130.38 406.89,-130.94 406.89,-130.94 406.77,-131.03 406.51,-131.2 406.38,-131.28 406.38,-131.28 405.48,-131.85 405.48,-131.85 405.35,-131.93 405.09,-132.09 404.96,-132.16 404.96,-132.16 403.97,-132.74 403.97,-132.74 403.83,-132.81 403.56,-132.96 403.43,-133.04 403.43,-133.04 402.35,-133.61 402.35,-133.61 402.21,-133.68 401.94,-133.82 401.8,-133.89 401.8,-133.89 400.64,-134.46 400.64,-134.46 400.5,-134.52 400.22,-134.66 400.08,-134.72 400.08,-134.72 398.84,-135.28 398.84,-135.28 398.7,-135.34 398.42,-135.47 398.27,-135.53 398.27,-135.53 396.97,-136.08 396.97,-136.08 396.82,-136.14 396.54,-136.26 396.39,-136.31 396.39,-136.31 395.02,-136.85 395.02,-136.85 394.88,-136.91 394.59,-137.01 394.45,-137.07 394.45,-137.07 393.01,-137.59 393.01,-137.59 392.87,-137.64 392.58,-137.74 392.43,-137.79 392.43,-137.79 390.95,-138.3 390.95,-138.3 390.81,-138.35 390.51,-138.44 390.37,-138.49 390.37,-138.49 388.84,-138.97 388.84,-138.97 388.69,-139.01 388.4,-139.1 388.25,-139.15 388.25,-139.15 386.68,-139.61 386.68,-139.61 386.53,-139.65 386.23,-139.73 386.09,-139.77 386.09,-139.77 384.48,-140.2 384.48,-140.2 384.33,-140.25 384.03,-140.32 383.88,-140.36 383.88,-140.36 382.25,-140.77 382.25,-140.77 382.1,-140.8 381.8,-140.87 381.65,-140.91 381.65,-140.91 379.99,-141.28 379.99,-141.28 379.84,-141.32 379.54,-141.38 379.39,-141.41 379.39,-141.41 377.7,-141.76 377.7,-141.76 377.55,-141.79 377.25,-141.85 377.1,-141.88 377.1,-141.88 375.4,-142.2 375.4,-142.2 375.24,-142.22 374.94,-142.28 374.79,-142.3 374.79,-142.3 373.07,-142.59 373.07,-142.59 372.92,-142.61 372.61,-142.66 372.46,-142.68 372.46,-142.68 370.73,-142.93 370.73,-142.93 370.58,-142.95 370.27,-142.99 370.12,-143.01 370.12,-143.01 368.38,-143.23 368.38,-143.23 368.22,-143.25 367.92,-143.28 367.76,-143.3 367.76,-143.3 366.01,-143.48 366.01,-143.48 365.86,-143.49 365.55,-143.52 365.4,-143.53 365.4,-143.53 363.64,-143.68 363.64,-143.68 363.49,-143.69 363.18,-143.71 363.03,-143.72 363.03,-143.72 361.26,-143.83 361.26,-143.83 361.11,-143.84 360.8,-143.86 360.65,-143.86 360.65,-143.86 358.88,-143.94 358.88,-143.94 358.73,-143.94 358.42,-143.95 358.27,-143.96 358.27,-143.96 356.5,-143.99 356.5,-143.99 356.35,-144 356.04,-144 355.88,-144 355.88,-144 354.12,-144 354.12,-144 353.96,-144 353.65,-144 353.5,-143.99 353.5,-143.99 351.73,-143.96 351.73,-143.96 351.58,-143.95 351.27,-143.94 351.12,-143.94 351.12,-143.94 349.35,-143.86 349.35,-143.86 349.2,-143.86 348.89,-143.84 348.74,-143.83 348.74,-143.83 346.97,-143.72 346.97,-143.72 346.82,-143.71 346.51,-143.69 346.36,-143.68 346.36,-143.68 344.6,-143.53 344.6,-143.53 344.45,-143.52 344.14,-143.49 343.99,-143.48 343.99,-143.48 342.24,-143.3 342.24,-143.3 342.08,-143.28 341.78,-143.25 341.62,-143.23 341.62,-143.23 339.88,-143.01 339.88,-143.01 339.73,-142.99 339.42,-142.95 339.27,-142.93 339.27,-142.93 337.54,-142.68 337.54,-142.68 337.39,-142.66 337.08,-142.61 336.93,-142.59 336.93,-142.59 335.21,-142.3 335.21,-142.3 335.06,-142.28 334.76,-142.22 334.6,-142.2 334.6,-142.2 332.9,-141.88 332.9,-141.88 332.75,-141.85 332.45,-141.79 332.3,-141.76 332.3,-141.76 330.61,-141.41 330.61,-141.41 330.46,-141.38 330.16,-141.32 330.01,-141.28 330.01,-141.28 328.35,-140.91 328.35,-140.91 328.2,-140.87 327.9,-140.8 327.75,-140.77 327.75,-140.77 326.12,-140.36 326.12,-140.36 325.97,-140.32 325.67,-140.25 325.52,-140.2 325.52,-140.2 323.91,-139.77 323.91,-139.77 323.77,-139.73 323.47,-139.65 323.32,-139.61 323.32,-139.61 321.75,-139.15 321.75,-139.15 321.6,-139.1 321.31,-139.01 321.16,-138.97 321.16,-138.97 319.63,-138.49 319.63,-138.49 319.49,-138.44 319.19,-138.35 319.05,-138.3 319.05,-138.3 317.57,-137.79 317.57,-137.79 317.42,-137.74 317.13,-137.64 316.99,-137.59 316.99,-137.59 315.55,-137.07 315.55,-137.07 315.41,-137.01 315.12,-136.91 314.98,-136.85 314.98,-136.85 313.61,-136.31 313.61,-136.31 313.46,-136.26 313.18,-136.14 313.03,-136.08 313.03,-136.08 311.73,-135.53 311.73,-135.53 311.58,-135.47 311.3,-135.34 311.16,-135.28 311.16,-135.28 309.92,-134.72 309.92,-134.72 309.78,-134.66 309.5,-134.52 309.36,-134.46 309.36,-134.46 308.2,-133.89 308.2,-133.89 308.06,-133.82 307.79,-133.68 307.65,-133.61 307.65,-133.61 306.57,-133.04 306.57,-133.04 306.44,-132.96 306.17,-132.81 306.03,-132.74 306.03,-132.74 305.04,-132.16 305.04,-132.16 304.91,-132.09 304.65,-131.93 304.52,-131.85 304.52,-131.85 303.62,-131.28 303.62,-131.28 303.49,-131.2 303.23,-131.03 303.11,-130.94 303.11,-130.94 302.31,-130.38 302.31,-130.38 302.19,-130.29 301.94,-130.11 301.82,-130.01 301.82,-130.01 301.12,-129.47 301.12,-129.47 301,-129.38 300.77,-129.18 300.65,-129.08 300.65,-129.08 300.07,-128.56 300.07,-128.56 299.95,-128.45 299.73,-128.24 299.62,-128.13 299.62,-128.13 299.14,-127.63 299.14,-127.63 299.04,-127.52 298.83,-127.29 298.73,-127.17 298.73,-127.17 298.36,-126.71 298.36,-126.71 298.26,-126.59 298.08,-126.34 298,-126.21 298,-126.21 297.73,-125.79 297.73,-125.79 297.64,-125.66 297.49,-125.39 297.43,-125.25 297.43,-125.25 297.24,-124.87 297.24,-124.87 297.18,-124.73 297.07,-124.44 297.02,-124.29 297.02,-124.29 296.92,-123.94 296.92,-123.94 296.87,-123.8 296.81,-123.5 296.79,-123.34 296.79,-123.34 296.76,-123.02 296.76,-123.02 296.74,-122.87 296.73,-122.56 296.74,-122.41 296.74,-122.41 296.76,-122.1 296.76,-122.1 296.77,-121.95 296.83,-121.65 296.87,-121.5 296.87,-121.5 296.95,-121.18 296.95,-121.18 296.99,-121.03 297.1,-120.75 297.17,-120.61 297.17,-120.61 297.33,-120.27 297.33,-120.27 297.4,-120.13 297.56,-119.86 297.64,-119.74 297.64,-119.74 297.91,-119.36 297.91,-119.36 298,-119.24 298.19,-119 298.3,-118.88 298.3,-118.88 298.69,-118.47 298.69,-118.47 298.79,-118.36 299.02,-118.15 299.13,-118.05 299.13,-118.05 299.66,-117.61 299.66,-117.61 299.78,-117.51 300.03,-117.32 300.15,-117.23 300.15,-117.23 300.84,-116.77 300.84,-116.77 300.96,-116.68 301.22,-116.52 301.36,-116.44 301.36,-116.44 302.21,-115.95 302.21,-115.95 302.34,-115.88 302.61,-115.73 302.75,-115.67 302.75,-115.67 303.77,-115.17 303.77,-115.17 303.91,-115.11 304.19,-114.98 304.33,-114.92 304.33,-114.92 305.52,-114.42 305.52,-114.42 305.66,-114.37 305.95,-114.25 306.09,-114.2 306.09,-114.2 307.45,-113.71 307.45,-113.71 307.59,-113.66 307.89,-113.56 308.03,-113.51 308.03,-113.51 309.56,-113.03 309.56,-113.03 309.71,-112.99 310,-112.9 310.15,-112.86 310.15,-112.86 311.85,-112.39 311.85,-112.39 311.99,-112.35 312.29,-112.27 312.44,-112.24 312.44,-112.24 314.29,-111.79 314.29,-111.79 314.44,-111.75 314.75,-111.68 314.9,-111.65 314.9,-111.65 316.9,-111.22 316.9,-111.22 317.05,-111.19 317.35,-111.13 317.51,-111.1 317.51,-111.1 319.66,-110.7 319.66,-110.7 319.81,-110.68 320.11,-110.62 320.26,-110.6 320.26,-110.6 322.55,-110.23 322.55,-110.23 322.7,-110.2 323.01,-110.15 323.16,-110.13 323.16,-110.13 325.57,-109.79 325.57,-109.79 325.73,-109.77 326.03,-109.73 326.19,-109.71 326.19,-109.71 328.71,-109.4 328.71,-109.4 328.87,-109.38 329.17,-109.35 329.33,-109.33 329.33,-109.33 331.96,-109.06 331.96,-109.06 332.11,-109.04 332.42,-109.01 332.57,-109 332.57,-109 335.3,-108.76 335.3,-108.76 335.45,-108.75 335.76,-108.72 335.91,-108.71 335.91,-108.71 338.71,-108.51 338.71,-108.51 338.87,-108.5 339.17,-108.48 339.33,-108.47 339.33,-108.47 342.19,-108.31 342.19,-108.31 342.35,-108.3 342.66,-108.29 342.81,-108.28 342.81,-108.28 345.73,-108.16 345.73,-108.16 345.88,-108.15 346.19,-108.14 346.34,-108.14 346.34,-108.14 349.3,-108.06 349.3,-108.06 349.45,-108.05 349.76,-108.05 349.92,-108.05 349.92,-108.05 352.89,-108 352.89,-108 353.05,-108 353.35,-108 353.51,-108 353.51,-108 356.49,-108 356.49,-108 356.65,-108 356.95,-108 357.11,-108 357.11,-108 360.08,-108.05 360.08,-108.05 360.24,-108.05 360.55,-108.05 360.7,-108.06"/>
<text text-anchor="middle" x="355" y="-122.3" font-family="Times,serif" font-size="14.00" fill="#40575d">ast_LogicOr</text>
</g>
<!-- checkScalarFunction&#45;&gt;ast_LogicOr -->
<g id="edge9" class="edge">
<title>checkScalarFunction&#45;&gt;ast_LogicOr</title>
<path fill="none" stroke="#666666" d="M220.01,-162.54C247.44,-155.06 278.98,-146.46 304.57,-139.48"/>
<polygon fill="#666666" stroke="#666666" points="305.7,-142.8 314.42,-136.79 303.85,-136.05 305.7,-142.8"/>
</g>
<!-- ast_LogicAnd -->
<g id="node8" class="node">
<title>ast_LogicAnd</title>
<path fill="#9adebe" stroke="#729c88" d="M361.25,-54.06C361.25,-54.06 364.57,-54.14 364.57,-54.14 364.73,-54.14 365.03,-54.15 365.19,-54.16 365.19,-54.16 368.47,-54.28 368.47,-54.28 368.62,-54.29 368.93,-54.3 369.08,-54.31 369.08,-54.31 372.31,-54.48 372.31,-54.48 372.46,-54.48 372.77,-54.5 372.92,-54.51 372.92,-54.51 376.07,-54.72 376.07,-54.72 376.23,-54.73 376.53,-54.75 376.69,-54.76 376.69,-54.76 379.75,-55 379.75,-55 379.91,-55.01 380.21,-55.04 380.37,-55.06 380.37,-55.06 383.33,-55.34 383.33,-55.34 383.48,-55.35 383.79,-55.38 383.94,-55.4 383.94,-55.4 386.79,-55.71 386.79,-55.71 386.94,-55.73 387.25,-55.77 387.4,-55.79 387.4,-55.79 390.12,-56.14 390.12,-56.14 390.28,-56.16 390.58,-56.2 390.74,-56.22 390.74,-56.22 393.32,-56.6 393.32,-56.6 393.47,-56.62 393.77,-56.67 393.93,-56.7 393.93,-56.7 396.36,-57.11 396.36,-57.11 396.51,-57.13 396.81,-57.19 396.96,-57.22 396.96,-57.22 399.23,-57.66 399.23,-57.66 399.39,-57.69 399.69,-57.75 399.84,-57.78 399.84,-57.78 401.94,-58.24 401.94,-58.24 402.09,-58.27 402.39,-58.35 402.54,-58.38 402.54,-58.38 404.46,-58.86 404.46,-58.86 404.61,-58.9 404.91,-58.98 405.06,-59.02 405.06,-59.02 406.8,-59.52 406.8,-59.52 406.94,-59.56 407.24,-59.65 407.39,-59.7 407.39,-59.7 408.94,-60.21 408.94,-60.21 409.08,-60.26 409.37,-60.36 409.52,-60.42 409.52,-60.42 410.88,-60.93 410.88,-60.93 411.02,-60.98 411.31,-61.1 411.45,-61.16 411.45,-61.16 412.62,-61.68 412.62,-61.68 412.76,-61.74 413.03,-61.87 413.17,-61.94 413.17,-61.94 414.15,-62.45 414.15,-62.45 414.28,-62.52 414.55,-62.67 414.68,-62.75 414.68,-62.75 415.47,-63.25 415.47,-63.25 415.6,-63.33 415.86,-63.5 415.98,-63.59 415.98,-63.59 416.59,-64.06 416.59,-64.06 416.72,-64.15 416.95,-64.36 417.06,-64.46 417.06,-64.46 417.51,-64.9 417.51,-64.9 417.62,-65 417.83,-65.23 417.92,-65.35 417.92,-65.35 418.23,-65.75 418.23,-65.75 418.32,-65.87 418.49,-66.13 418.56,-66.26 418.56,-66.26 418.75,-66.61 418.75,-66.61 418.82,-66.75 418.94,-67.03 418.98,-67.18 418.98,-67.18 419.08,-67.5 419.08,-67.5 419.12,-67.65 419.18,-67.95 419.19,-68.1 419.19,-68.1 419.22,-68.41 419.22,-68.41 419.23,-68.56 419.22,-68.87 419.2,-69.02 419.2,-69.02 419.16,-69.34 419.16,-69.34 419.14,-69.5 419.07,-69.8 419.02,-69.94 419.02,-69.94 418.9,-70.29 418.9,-70.29 418.86,-70.44 418.74,-70.72 418.66,-70.86 418.66,-70.86 418.46,-71.26 418.46,-71.26 418.39,-71.39 418.22,-71.65 418.14,-71.78 418.14,-71.78 417.82,-72.22 417.82,-72.22 417.73,-72.35 417.54,-72.59 417.44,-72.7 417.44,-72.7 417.01,-73.18 417.01,-73.18 416.91,-73.3 416.69,-73.52 416.58,-73.62 416.58,-73.62 416.03,-74.14 416.03,-74.14 415.92,-74.24 415.68,-74.45 415.56,-74.54 415.56,-74.54 414.89,-75.09 414.89,-75.09 414.77,-75.18 414.53,-75.37 414.4,-75.46 414.4,-75.46 413.6,-76.02 413.6,-76.02 413.48,-76.11 413.22,-76.29 413.09,-76.37 413.09,-76.37 412.18,-76.95 412.18,-76.95 412.05,-77.03 411.79,-77.19 411.65,-77.27 411.65,-77.27 410.62,-77.86 410.62,-77.86 410.49,-77.93 410.22,-78.08 410.08,-78.15 410.08,-78.15 408.95,-78.75 408.95,-78.75 408.81,-78.82 408.54,-78.96 408.4,-79.02 408.4,-79.02 407.17,-79.62 407.17,-79.62 407.03,-79.69 406.75,-79.81 406.61,-79.88 406.61,-79.88 405.28,-80.47 405.28,-80.47 405.14,-80.53 404.85,-80.65 404.71,-80.71 404.71,-80.71 403.3,-81.29 403.3,-81.29 403.15,-81.35 402.87,-81.46 402.72,-81.52 402.72,-81.52 401.23,-82.09 401.23,-82.09 401.09,-82.14 400.8,-82.25 400.65,-82.3 400.65,-82.3 399.09,-82.86 399.09,-82.86 398.94,-82.91 398.65,-83.01 398.5,-83.06 398.5,-83.06 396.87,-83.6 396.87,-83.6 396.73,-83.65 396.43,-83.74 396.29,-83.78 396.29,-83.78 394.6,-84.3 394.6,-84.3 394.45,-84.35 394.16,-84.44 394.01,-84.48 394.01,-84.48 392.27,-84.98 392.27,-84.98 392.12,-85.02 391.82,-85.1 391.67,-85.14 391.67,-85.14 389.89,-85.61 389.89,-85.61 389.74,-85.65 389.44,-85.73 389.29,-85.77 389.29,-85.77 387.47,-86.21 387.47,-86.21 387.32,-86.25 387.02,-86.32 386.87,-86.35 386.87,-86.35 385.01,-86.77 385.01,-86.77 384.86,-86.81 384.56,-86.87 384.4,-86.9 384.4,-86.9 382.51,-87.29 382.51,-87.29 382.36,-87.32 382.06,-87.38 381.91,-87.41 381.91,-87.41 379.99,-87.77 379.99,-87.77 379.84,-87.8 379.54,-87.85 379.39,-87.88 379.39,-87.88 377.45,-88.2 377.45,-88.2 377.3,-88.23 376.99,-88.27 376.84,-88.3 376.84,-88.3 374.89,-88.59 374.89,-88.59 374.73,-88.61 374.43,-88.66 374.28,-88.68 374.28,-88.68 372.31,-88.93 372.31,-88.93 372.15,-88.95 371.85,-88.99 371.69,-89.01 371.69,-89.01 369.71,-89.23 369.71,-89.23 369.56,-89.25 369.25,-89.28 369.1,-89.29 369.1,-89.29 367.11,-89.48 367.11,-89.48 366.95,-89.49 366.65,-89.52 366.49,-89.53 366.49,-89.53 364.49,-89.68 364.49,-89.68 364.34,-89.69 364.03,-89.71 363.88,-89.72 363.88,-89.72 361.87,-89.83 361.87,-89.83 361.72,-89.84 361.41,-89.86 361.26,-89.86 361.26,-89.86 359.25,-89.94 359.25,-89.94 359.1,-89.94 358.79,-89.95 358.63,-89.96 358.63,-89.96 356.62,-89.99 356.62,-89.99 356.47,-90 356.16,-90 356.01,-90 356.01,-90 353.99,-90 353.99,-90 353.84,-90 353.53,-90 353.38,-89.99 353.38,-89.99 351.37,-89.96 351.37,-89.96 351.21,-89.95 350.9,-89.94 350.75,-89.94 350.75,-89.94 348.74,-89.86 348.74,-89.86 348.59,-89.86 348.28,-89.84 348.13,-89.83 348.13,-89.83 346.12,-89.72 346.12,-89.72 345.97,-89.71 345.66,-89.69 345.51,-89.68 345.51,-89.68 343.51,-89.53 343.51,-89.53 343.35,-89.52 343.05,-89.49 342.89,-89.48 342.89,-89.48 340.9,-89.29 340.9,-89.29 340.75,-89.28 340.44,-89.25 340.29,-89.23 340.29,-89.23 338.31,-89.01 338.31,-89.01 338.15,-88.99 337.85,-88.95 337.69,-88.93 337.69,-88.93 335.72,-88.68 335.72,-88.68 335.57,-88.66 335.27,-88.61 335.11,-88.59 335.11,-88.59 333.16,-88.3 333.16,-88.3 333.01,-88.27 332.7,-88.23 332.55,-88.2 332.55,-88.2 330.61,-87.88 330.61,-87.88 330.46,-87.85 330.16,-87.8 330.01,-87.77 330.01,-87.77 328.09,-87.41 328.09,-87.41 327.94,-87.38 327.64,-87.32 327.49,-87.29 327.49,-87.29 325.6,-86.9 325.6,-86.9 325.44,-86.87 325.14,-86.81 324.99,-86.77 324.99,-86.77 323.13,-86.35 323.13,-86.35 322.98,-86.32 322.68,-86.25 322.53,-86.21 322.53,-86.21 320.71,-85.77 320.71,-85.77 320.56,-85.73 320.26,-85.65 320.11,-85.61 320.11,-85.61 318.33,-85.14 318.33,-85.14 318.18,-85.1 317.88,-85.02 317.73,-84.98 317.73,-84.98 315.99,-84.48 315.99,-84.48 315.84,-84.44 315.55,-84.35 315.4,-84.3 315.4,-84.3 313.71,-83.78 313.71,-83.78 313.57,-83.74 313.27,-83.65 313.13,-83.6 313.13,-83.6 311.5,-83.06 311.5,-83.06 311.35,-83.01 311.06,-82.91 310.91,-82.86 310.91,-82.86 309.35,-82.3 309.35,-82.3 309.2,-82.25 308.91,-82.14 308.77,-82.09 308.77,-82.09 307.28,-81.52 307.28,-81.52 307.13,-81.46 306.85,-81.35 306.7,-81.29 306.7,-81.29 305.29,-80.71 305.29,-80.71 305.15,-80.65 304.86,-80.53 304.72,-80.47 304.72,-80.47 303.39,-79.88 303.39,-79.88 303.25,-79.81 302.97,-79.69 302.83,-79.62 302.83,-79.62 301.6,-79.02 301.6,-79.02 301.46,-78.96 301.19,-78.82 301.05,-78.75 301.05,-78.75 299.92,-78.15 299.92,-78.15 299.78,-78.08 299.51,-77.93 299.38,-77.86 299.38,-77.86 298.35,-77.27 298.35,-77.27 298.21,-77.19 297.95,-77.03 297.82,-76.95 297.82,-76.95 296.91,-76.37 296.91,-76.37 296.78,-76.29 296.52,-76.11 296.4,-76.02 296.4,-76.02 295.6,-75.46 295.6,-75.46 295.47,-75.37 295.23,-75.18 295.11,-75.09 295.11,-75.09 294.44,-74.54 294.44,-74.54 294.32,-74.45 294.08,-74.24 293.97,-74.14 293.97,-74.14 293.42,-73.62 293.42,-73.62 293.31,-73.52 293.09,-73.3 292.99,-73.18 292.99,-73.18 292.56,-72.7 292.56,-72.7 292.46,-72.59 292.27,-72.35 292.18,-72.22 292.18,-72.22 291.86,-71.78 291.86,-71.78 291.78,-71.65 291.61,-71.39 291.54,-71.26 291.54,-71.26 291.34,-70.86 291.34,-70.86 291.26,-70.72 291.14,-70.44 291.1,-70.29 291.1,-70.29 290.98,-69.94 290.98,-69.94 290.93,-69.8 290.86,-69.5 290.84,-69.34 290.84,-69.34 290.8,-69.02 290.8,-69.02 290.78,-68.87 290.77,-68.56 290.78,-68.41 290.78,-68.41 290.81,-68.1 290.81,-68.1 290.82,-67.95 290.88,-67.65 290.92,-67.5 290.92,-67.5 291.02,-67.18 291.02,-67.18 291.06,-67.03 291.18,-66.75 291.25,-66.61 291.25,-66.61 291.44,-66.26 291.44,-66.26 291.51,-66.13 291.68,-65.87 291.77,-65.75 291.77,-65.75 292.08,-65.35 292.08,-65.35 292.17,-65.23 292.38,-65 292.49,-64.9 292.49,-64.9 292.94,-64.46 292.94,-64.46 293.05,-64.36 293.28,-64.15 293.41,-64.06 293.41,-64.06 294.02,-63.59 294.02,-63.59 294.14,-63.5 294.4,-63.33 294.53,-63.25 294.53,-63.25 295.32,-62.75 295.32,-62.75 295.45,-62.67 295.72,-62.52 295.85,-62.45 295.85,-62.45 296.83,-61.94 296.83,-61.94 296.97,-61.87 297.24,-61.74 297.38,-61.68 297.38,-61.68 298.55,-61.16 298.55,-61.16 298.69,-61.1 298.98,-60.98 299.12,-60.93 299.12,-60.93 300.48,-60.42 300.48,-60.42 300.63,-60.36 300.92,-60.26 301.06,-60.21 301.06,-60.21 302.61,-59.7 302.61,-59.7 302.76,-59.65 303.06,-59.56 303.2,-59.52 303.2,-59.52 304.94,-59.02 304.94,-59.02 305.09,-58.98 305.39,-58.9 305.54,-58.86 305.54,-58.86 307.46,-58.38 307.46,-58.38 307.61,-58.35 307.91,-58.27 308.06,-58.24 308.06,-58.24 310.16,-57.78 310.16,-57.78 310.31,-57.75 310.61,-57.69 310.77,-57.66 310.77,-57.66 313.04,-57.22 313.04,-57.22 313.19,-57.19 313.49,-57.13 313.64,-57.11 313.64,-57.11 316.07,-56.7 316.07,-56.7 316.23,-56.67 316.53,-56.62 316.68,-56.6 316.68,-56.6 319.26,-56.22 319.26,-56.22 319.42,-56.2 319.72,-56.16 319.88,-56.14 319.88,-56.14 322.6,-55.79 322.6,-55.79 322.75,-55.77 323.06,-55.73 323.21,-55.71 323.21,-55.71 326.06,-55.4 326.06,-55.4 326.21,-55.38 326.52,-55.35 326.67,-55.34 326.67,-55.34 329.63,-55.06 329.63,-55.06 329.79,-55.04 330.09,-55.01 330.25,-55 330.25,-55 333.31,-54.76 333.31,-54.76 333.47,-54.75 333.77,-54.73 333.93,-54.72 333.93,-54.72 337.08,-54.51 337.08,-54.51 337.23,-54.5 337.54,-54.48 337.69,-54.48 337.69,-54.48 340.92,-54.31 340.92,-54.31 341.07,-54.3 341.38,-54.29 341.53,-54.28 341.53,-54.28 344.81,-54.16 344.81,-54.16 344.97,-54.15 345.27,-54.14 345.43,-54.14 345.43,-54.14 348.75,-54.06 348.75,-54.06 348.9,-54.05 349.21,-54.05 349.36,-54.05 349.36,-54.05 352.71,-54 352.71,-54 352.86,-54 353.17,-54 353.32,-54 353.32,-54 356.68,-54 356.68,-54 356.83,-54 357.14,-54 357.29,-54 357.29,-54 360.64,-54.05 360.64,-54.05 360.79,-54.05 361.1,-54.05 361.25,-54.06"/>
<text text-anchor="middle" x="355" y="-68.3" font-family="Times,serif" font-size="14.00" fill="#40575d">ast_LogicAnd</text>
</g>
<!-- checkScalarFunction&#45;&gt;ast_LogicAnd -->
<g id="edge10" class="edge">
<title>checkScalarFunction&#45;&gt;ast_LogicAnd</title>
<path fill="none" stroke="#666666" d="M173.53,-161.95C192.32,-143.59 223.81,-115.55 256,-99 268.38,-92.64 282.43,-87.63 295.95,-83.75"/>
<polygon fill="#666666" stroke="#666666" points="296.93,-87.11 305.67,-81.12 295.1,-80.36 296.93,-87.11"/>
</g>
<!-- ast_Compare -->
<g id="node9" class="node">
<title>ast_Compare</title>
<path fill="none" stroke="#1c2123" d="M268,-217C268,-217 442,-217 442,-217 448,-217 454,-223 454,-229 454,-229 454,-251 454,-251 454,-257 448,-263 442,-263 442,-263 268,-263 268,-263 262,-263 256,-257 256,-251 256,-251 256,-229 256,-229 256,-223 262,-217 268,-217"/>
<text text-anchor="middle" x="355" y="-247.8" font-family="Times,serif" font-size="14.00" fill="#2f3638">ast_Compare</text>
<polyline fill="none" stroke="#1c2123" points="256,-240 454,-240 "/>
<text text-anchor="middle" x="355" y="-224.8" font-family="Times,serif" font-size="14.00" fill="#2f3638">EQ/NE/GE/GT/LE/LT/NULLEQ</text>
</g>
<!-- checkScalarFunction&#45;&gt;ast_Compare -->
<g id="edge7" class="edge">
<title>checkScalarFunction&#45;&gt;ast_Compare</title>
<path fill="none" stroke="#666666" d="M215.41,-198C231.94,-203.01 250.23,-208.56 267.96,-213.93"/>
<polygon fill="#666666" stroke="#666666" points="267.15,-217.34 277.74,-216.89 269.18,-210.64 267.15,-217.34"/>
</g>
<!-- checkLikeFunc -->
<g id="node11" class="node">
<title>checkLikeFunc</title>
<path fill="none" stroke="#1c2123" d="M393,-198C393,-198 317,-198 317,-198 311,-198 305,-192 305,-186 305,-186 305,-174 305,-174 305,-168 311,-162 317,-162 317,-162 393,-162 393,-162 399,-162 405,-168 405,-174 405,-174 405,-186 405,-186 405,-192 399,-198 393,-198"/>
<text text-anchor="middle" x="355" y="-176.3" font-family="Times,serif" font-size="14.00" fill="#2f3638">checkLikeFunc</text>
</g>
<!-- checkScalarFunction&#45;&gt;checkLikeFunc -->
<g id="edge16" class="edge">
<title>checkScalarFunction&#45;&gt;checkLikeFunc</title>
<path fill="none" stroke="#666666" d="M220.01,-180C244.03,-180 271.19,-180 294.76,-180"/>
<polygon fill="#666666" stroke="#666666" points="294.96,-183.5 304.96,-180 294.96,-176.5 294.96,-183.5"/>
</g>
<!-- true -->
<g id="node5" class="node">
<title>true</title>
<path fill="none" stroke="#1c2123" d="M370,-36C370,-36 340,-36 340,-36 334,-36 328,-30 328,-24 328,-24 328,-12 328,-12 328,-6 334,0 340,0 340,0 370,0 370,0 376,0 382,-6 382,-12 382,-12 382,-24 382,-24 382,-30 376,-36 370,-36"/>
<text text-anchor="middle" x="355" y="-14.3" font-family="Times,serif" font-size="14.00" fill="#2f3638">true</text>
</g>
<!-- Constant&#45;&gt;true -->
<g id="edge4" class="edge">
<title>Constant&#45;&gt;true</title>
<path fill="none" stroke="#666666" d="M199.94,-22.67C235.31,-21.6 284.42,-20.11 317.61,-19.1"/>
<polygon fill="#666666" stroke="#666666" points="317.89,-22.6 327.78,-18.79 317.68,-15.6 317.89,-22.6"/>
</g>
<!-- ast_IsNull&#45;&gt;checkColumn -->
<g id="edge5" class="edge">
<title>ast_IsNull&#45;&gt;checkColumn</title>
<path fill="none" stroke="#666666" d="M403.91,-300C425.67,-300 452.53,-300 479.45,-300"/>
<polygon fill="#666666" stroke="#666666" points="479.75,-303.5 489.75,-300 479.75,-296.5 479.75,-303.5"/>
</g>
<!-- ast_LogicOr&#45;&gt;check -->
<g id="edge11" class="edge">
<title>ast_LogicOr&#45;&gt;check</title>
<path fill="none" stroke="#666666" d="M297.59,-126C230.66,-126 121.02,-126 64.39,-126"/>
<polygon fill="#666666" stroke="#666666" points="64.13,-122.5 54.13,-126 64.13,-129.5 64.13,-122.5"/>
</g>
<!-- GetArgs -->
<g id="node10" class="node">
<title>GetArgs</title>
<path fill="none" stroke="#1c2123" d="M624.5,-144C624.5,-144 586.5,-144 586.5,-144 580.5,-144 574.5,-138 574.5,-132 574.5,-132 574.5,-120 574.5,-120 574.5,-114 580.5,-108 586.5,-108 586.5,-108 624.5,-108 624.5,-108 630.5,-108 636.5,-114 636.5,-120 636.5,-120 636.5,-132 636.5,-132 636.5,-138 630.5,-144 624.5,-144"/>
<text text-anchor="middle" x="605.5" y="-122.3" font-family="Times,serif" font-size="14.00" fill="#2f3638">GetArgs</text>
</g>
<!-- ast_LogicOr&#45;&gt;GetArgs -->
<g id="edge12" class="edge">
<title>ast_LogicOr&#45;&gt;GetArgs</title>
<path fill="none" stroke="#666666" d="M412.39,-126C458.63,-126 522.95,-126 564.16,-126"/>
<polygon fill="#666666" stroke="#666666" points="564.37,-129.5 574.37,-126 564.37,-122.5 564.37,-129.5"/>
</g>
<!-- ast_LogicAnd&#45;&gt;check -->
<g id="edge13" class="edge">
<title>ast_LogicAnd&#45;&gt;check</title>
<path fill="none" stroke="#666666" d="M304.2,-80.25C237.95,-91.22 122.42,-110.36 64.01,-120.04"/>
<polygon fill="#666666" stroke="#666666" points="63.42,-116.59 54.13,-121.67 64.56,-123.49 63.42,-116.59"/>
</g>
<!-- ast_LogicAnd&#45;&gt;GetArgs -->
<g id="edge14" class="edge">
<title>ast_LogicAnd&#45;&gt;GetArgs</title>
<path fill="none" stroke="#666666" d="M401.87,-81.97C448.45,-92.09 519.86,-107.61 564.29,-117.26"/>
<polygon fill="#666666" stroke="#666666" points="563.64,-120.7 574.16,-119.41 565.13,-113.86 563.64,-120.7"/>
</g>
<!-- ast_Compare&#45;&gt;checkColumn -->
<g id="edge8" class="edge">
<title>ast_Compare&#45;&gt;checkColumn</title>
<path fill="none" stroke="#666666" d="M451.37,-263.03C467.01,-266.8 483.3,-270.74 499.16,-274.57"/>
<polygon fill="#666666" stroke="#666666" points="498.44,-277.99 508.98,-276.94 500.08,-271.19 498.44,-277.99"/>
</g>
<!-- checkLikeFunc&#45;&gt;checkColumn -->
<g id="edge17" class="edge">
<title>checkLikeFunc&#45;&gt;checkColumn</title>
<path fill="none" stroke="#666666" d="M405.01,-191.21C420.96,-195.59 438.53,-201.21 454,-208 493.31,-225.25 534.69,-251.19 564.09,-271.13"/>
<polygon fill="#666666" stroke="#666666" points="562.2,-274.08 572.43,-276.85 566.16,-268.31 562.2,-274.08"/>
</g>
<!-- checkLikeFunc&#45;&gt;GetArgs -->
<g id="edge18" class="edge">
<title>checkLikeFunc&#45;&gt;GetArgs</title>
<path fill="none" stroke="#666666" d="M405.1,-169.33C451.71,-159.2 520.94,-144.16 564.35,-134.72"/>
<polygon fill="#666666" stroke="#666666" points="565.24,-138.11 574.27,-132.57 563.75,-131.27 565.24,-138.11"/>
</g>
</g>
</svg>
