<?xml version="1.0" encoding="UTF-8" standalone="no"?>
<!DOCTYPE svg PUBLIC "-//W3C//DTD SVG 1.1//EN"
 "http://www.w3.org/Graphics/SVG/1.1/DTD/svg11.dtd">
<!-- Generated by graphviz version 2.44.1 (20200629.0846)
 -->
<!-- Title: convertToIndexMergeScan Pages: 1 -->
<svg width="376pt" height="322pt"
 viewBox="0.00 0.00 376.00 322.00" xmlns="http://www.w3.org/2000/svg" xmlns:xlink="http://www.w3.org/1999/xlink">
<g id="graph0" class="graph" transform="scale(1 1) rotate(0) translate(4 318)">
<title>convertToIndexMergeScan</title>
<polygon fill="white" stroke="transparent" points="-4,4 -4,-318 372,-318 372,4 -4,4"/>
<g id="clust1" class="cluster">
<title>cluster_convertToPartialTableScan</title>
<path fill="none" stroke="slategrey" stroke-dasharray="5,2" d="M18.5,-188C18.5,-188 224.5,-188 224.5,-188 230.5,-188 236.5,-194 236.5,-200 236.5,-200 236.5,-258 236.5,-258 236.5,-264 230.5,-270 224.5,-270 224.5,-270 18.5,-270 18.5,-270 12.5,-270 6.5,-264 6.5,-258 6.5,-258 6.5,-200 6.5,-200 6.5,-194 12.5,-188 18.5,-188"/>
<text text-anchor="middle" x="121.5" y="-250" font-family="Times,serif" font-size="20.00">convertToPartialTableScan</text>
</g>
<g id="clust2" class="cluster">
<title>cluster_convertToPartialIndexScan</title>
<path fill="none" stroke="slategrey" stroke-dasharray="5,2" d="M43.5,-98C43.5,-98 199.5,-98 199.5,-98 205.5,-98 211.5,-104 211.5,-110 211.5,-110 211.5,-168 211.5,-168 211.5,-174 205.5,-180 199.5,-180 199.5,-180 43.5,-180 43.5,-180 37.5,-180 31.5,-174 31.5,-168 31.5,-168 31.5,-110 31.5,-110 31.5,-104 37.5,-98 43.5,-98"/>
<text text-anchor="middle" x="121.5" y="-160" font-family="Times,serif" font-size="20.00">convertToIndexScan</text>
</g>
<g id="clust3" class="cluster">
<title>cluster_buildIndexMergeTableScan</title>
<path fill="none" stroke="slategrey" stroke-dasharray="5,2" d="M12,-8C12,-8 230,-8 230,-8 236,-8 242,-14 242,-20 242,-20 242,-78 242,-78 242,-84 236,-90 230,-90 230,-90 12,-90 12,-90 6,-90 0,-84 0,-78 0,-78 0,-20 0,-20 0,-14 6,-8 12,-8"/>
<text text-anchor="middle" x="121" y="-70" font-family="Times,serif" font-size="20.00"> buildIndexMergeTableScan</text>
</g>
<!-- partialTableScanCost -->
<g id="node1" class="node">
<title>partialTableScanCost</title>
<polygon fill="none" stroke="black" points="187.5,-232 54.5,-232 54.5,-196 187.5,-196 187.5,-232"/>
<text text-anchor="middle" x="121" y="-210.3" font-family="Times,serif" font-size="14.00">partialTableScanCost</text>
</g>
<!-- totalCost -->
<g id="node6" class="node">
<title>totalCost</title>
<polygon fill="none" stroke="black" points="351,-142 286,-142 286,-106 351,-106 351,-142"/>
<text text-anchor="middle" x="318.5" y="-120.3" font-family="Times,serif" font-size="14.00">totalCost</text>
</g>
<!-- partialTableScanCost&#45;&gt;totalCost -->
<g id="edge2" class="edge">
<title>partialTableScanCost&#45;&gt;totalCost</title>
<path fill="none" stroke="#666666" d="M187.62,-202.92C205.8,-198.45 225.15,-192.31 242,-184 260.2,-175.02 278.09,-161.1 291.89,-148.92"/>
<polygon fill="#666666" stroke="#666666" points="294.45,-151.31 299.51,-142 289.75,-146.13 294.45,-151.31"/>
</g>
<!-- partialIndexScanCost -->
<g id="node2" class="node">
<title>partialIndexScanCost</title>
<polygon fill="none" stroke="black" points="187.5,-142 54.5,-142 54.5,-106 187.5,-106 187.5,-142"/>
<text text-anchor="middle" x="121" y="-120.3" font-family="Times,serif" font-size="14.00">partialIndexScanCost</text>
</g>
<!-- partialIndexScanCost&#45;&gt;totalCost -->
<g id="edge3" class="edge">
<title>partialIndexScanCost&#45;&gt;totalCost</title>
<path fill="none" stroke="#666666" d="M187.64,-124C216.79,-124 250.23,-124 275.87,-124"/>
<polygon fill="#666666" stroke="#666666" points="276,-127.5 286,-124 276,-120.5 276,-127.5"/>
</g>
<!-- indexMergeTableScanCost -->
<g id="node3" class="node">
<title>indexMergeTableScanCost</title>
<polygon fill="none" stroke="black" points="203,-52 39,-52 39,-16 203,-16 203,-52"/>
<text text-anchor="middle" x="121" y="-30.3" font-family="Times,serif" font-size="14.00">indexMergeTableScanCost</text>
</g>
<!-- indexMergeTableScanCost&#45;&gt;totalCost -->
<g id="edge4" class="edge">
<title>indexMergeTableScanCost&#45;&gt;totalCost</title>
<path fill="none" stroke="#666666" d="M161.56,-52.21C195.01,-67.61 242.76,-89.59 276.59,-105.17"/>
<polygon fill="#666666" stroke="#666666" points="275.19,-108.37 285.74,-109.38 278.12,-102.02 275.19,-108.37"/>
</g>
<!-- CountAfterAccess -->
<g id="node4" class="node">
<title>CountAfterAccess</title>
<polygon fill="none" stroke="black" points="179,-314 63,-314 63,-278 179,-278 179,-314"/>
<text text-anchor="middle" x="121" y="-292.3" font-family="Times,serif" font-size="14.00">CountAfterAccess</text>
</g>
<!-- totalRowCount -->
<g id="node5" class="node">
<title>totalRowCount</title>
<polygon fill="none" stroke="black" points="368,-314 269,-314 269,-278 368,-278 368,-314"/>
<text text-anchor="middle" x="318.5" y="-292.3" font-family="Times,serif" font-size="14.00">totalRowCount</text>
</g>
<!-- CountAfterAccess&#45;&gt;totalRowCount -->
<g id="edge1" class="edge">
<title>CountAfterAccess&#45;&gt;totalRowCount</title>
<path fill="none" stroke="#666666" d="M179.07,-296C204.13,-296 233.54,-296 258.78,-296"/>
<polygon fill="#666666" stroke="#666666" points="258.96,-299.5 268.96,-296 258.96,-292.5 258.96,-299.5"/>
</g>
</g>
</svg>
