<?xml version="1.0" encoding="UTF-8" standalone="no"?>
<!DOCTYPE svg PUBLIC "-//W3C//DTD SVG 1.1//EN"
 "http://www.w3.org/Graphics/SVG/1.1/DTD/svg11.dtd">
<!-- Generated by graphviz version 2.44.1 (20200629.0846)
 -->
<!-- Title: allconds Pages: 1 -->
<svg width="1069pt" height="234pt"
 viewBox="0.00 0.00 1069.00 234.00" xmlns="http://www.w3.org/2000/svg" xmlns:xlink="http://www.w3.org/1999/xlink">
<g id="graph0" class="graph" transform="scale(1 1) rotate(0) translate(4 230)">
<title>allconds</title>
<polygon fill="white" stroke="transparent" points="-4,4 -4,-230 1065,-230 1065,4 -4,4"/>
<g id="clust1" class="cluster">
<title>cluster_DataSource</title>
<path fill="none" stroke="slategrey" stroke-dasharray="5,2" d="M220.5,-46C220.5,-46 313.5,-46 313.5,-46 319.5,-46 325.5,-52 325.5,-58 325.5,-58 325.5,-170 325.5,-170 325.5,-176 319.5,-182 313.5,-182 313.5,-182 220.5,-182 220.5,-182 214.5,-182 208.5,-176 208.5,-170 208.5,-170 208.5,-58 208.5,-58 208.5,-52 214.5,-46 220.5,-46"/>
<text text-anchor="middle" x="267" y="-162" font-family="Times,serif" font-size="20.00">DataSource</text>
</g>
<g id="clust2" class="cluster">
<title>cluster_TableInfo</title>
<path fill="none" stroke="slategrey" stroke-dasharray="5,2" d="M20,-46C20,-46 158,-46 158,-46 164,-46 170,-52 170,-58 170,-58 170,-174 170,-174 170,-180 164,-186 158,-186 158,-186 20,-186 20,-186 14,-186 8,-180 8,-174 8,-174 8,-58 8,-58 8,-52 14,-46 20,-46"/>
<text text-anchor="middle" x="89" y="-166" font-family="Times,serif" font-size="20.00">TableInfo</text>
</g>
<!-- partitionNames -->
<g id="node1" class="node">
<title>partitionNames</title>
<polygon fill="none" stroke="black" points="317.5,-90 216.5,-90 216.5,-54 317.5,-54 317.5,-90"/>
<text text-anchor="middle" x="267" y="-68.3" font-family="Times,serif" font-size="14.00">partitionNames</text>
</g>
<!-- pruneHashPartition -->
<g id="node4" class="node">
<title>pruneHashPartition</title>
<polygon fill="none" stroke="black" points="494,-56 372,-56 372,-20 494,-20 494,-56"/>
<text text-anchor="middle" x="433" y="-34.3" font-family="Times,serif" font-size="14.00">pruneHashPartition</text>
</g>
<!-- partitionNames&#45;&gt;pruneHashPartition -->
<g id="edge6" class="edge">
<title>partitionNames&#45;&gt;pruneHashPartition</title>
<path fill="none" stroke="#666666" d="M317.65,-61.71C331.51,-58.83 346.85,-55.65 361.66,-52.58"/>
<polygon fill="#666666" stroke="#666666" points="362.73,-55.93 371.81,-50.48 361.31,-49.08 362.73,-55.93"/>
</g>
<!-- findUsedPartitions -->
<g id="node8" class="node">
<title>findUsedPartitions</title>
<polygon fill="none" stroke="black" points="647,-98 530,-98 530,-62 647,-62 647,-98"/>
<text text-anchor="middle" x="588.5" y="-76.3" font-family="Times,serif" font-size="14.00">findUsedPartitions</text>
</g>
<!-- partitionNames&#45;&gt;findUsedPartitions -->
<g id="edge7" class="edge">
<title>partitionNames&#45;&gt;findUsedPartitions</title>
<path fill="none" stroke="#666666" d="M317.57,-73.24C371.84,-74.6 459.17,-76.79 519.74,-78.3"/>
<polygon fill="#666666" stroke="#666666" points="519.89,-81.81 529.97,-78.56 520.06,-74.81 519.89,-81.81"/>
</g>
<!-- allconds -->
<g id="node2" class="node">
<title>allconds</title>
<polygon fill="none" stroke="black" points="298,-144 236,-144 236,-108 298,-108 298,-144"/>
<text text-anchor="middle" x="267" y="-122.3" font-family="Times,serif" font-size="14.00">allconds</text>
</g>
<!-- allconds&#45;&gt;pruneHashPartition -->
<g id="edge1" class="edge">
<title>allconds&#45;&gt;pruneHashPartition</title>
<path fill="none" stroke="#666666" d="M298.33,-115.36C310.29,-110.8 324.01,-105.12 336,-99 357.31,-88.12 379.96,-73.87 397.9,-61.88"/>
<polygon fill="#666666" stroke="#666666" points="399.97,-64.71 406.3,-56.21 396.06,-58.91 399.97,-64.71"/>
</g>
<!-- DetachCondAndBuildRangeForPartition -->
<g id="node5" class="node">
<title>DetachCondAndBuildRangeForPartition</title>
<polygon fill="none" stroke="black" points="920,-144 683,-144 683,-108 920,-108 920,-144"/>
<text text-anchor="middle" x="801.5" y="-122.3" font-family="Times,serif" font-size="14.00">DetachCondAndBuildRangeForPartition</text>
</g>
<!-- allconds&#45;&gt;DetachCondAndBuildRangeForPartition -->
<g id="edge2" class="edge">
<title>allconds&#45;&gt;DetachCondAndBuildRangeForPartition</title>
<path fill="none" stroke="#666666" d="M298.16,-126C368.77,-126 548.28,-126 672.39,-126"/>
<polygon fill="#666666" stroke="#666666" points="672.72,-129.5 682.72,-126 672.72,-122.5 672.72,-129.5"/>
</g>
<!-- Partition -->
<g id="node3" class="node">
<title>Partition</title>
<polygon fill="none" stroke="black" points="16,-55 16,-147 162,-147 162,-55 16,-55"/>
<text text-anchor="middle" x="89" y="-131.8" font-family="Times,serif" font-size="14.00">Partition * PartitionInfo</text>
<polyline fill="none" stroke="black" points="16,-124 162,-124 "/>
<text text-anchor="start" x="24" y="-108.8" font-family="Times,serif" font-size="14.00">Type PartitionType</text>
<polyline fill="none" stroke="black" points="16,-101 162,-101 "/>
<text text-anchor="start" x="24" y="-85.8" font-family="Times,serif" font-size="14.00">Expr string</text>
<polyline fill="none" stroke="black" points="16,-78 162,-78 "/>
<text text-anchor="start" x="24" y="-62.8" font-family="Times,serif" font-size="14.00">Columns []CIStr</text>
</g>
<!-- pruneHashPartition&#45;&gt;findUsedPartitions -->
<g id="edge11" class="edge">
<title>pruneHashPartition&#45;&gt;findUsedPartitions</title>
<path fill="none" stroke="#666666" d="M494.23,-54.48C502.77,-56.82 511.6,-59.23 520.27,-61.6"/>
<polygon fill="#666666" stroke="#666666" points="519.39,-64.99 529.96,-64.26 521.24,-58.24 519.39,-64.99"/>
</g>
<!-- PartitionInfo -->
<g id="node6" class="node">
<title>PartitionInfo</title>
<polygon fill="none" stroke="black" points="631.5,-44 545.5,-44 545.5,-8 631.5,-8 631.5,-44"/>
<text text-anchor="middle" x="588.5" y="-22.3" font-family="Times,serif" font-size="14.00">PartitionInfo</text>
</g>
<!-- generateHashPartitionExpr -->
<g id="node7" class="node">
<title>generateHashPartitionExpr</title>
<polygon fill="none" stroke="black" points="883,-52 720,-52 720,-16 883,-16 883,-52"/>
<text text-anchor="middle" x="801.5" y="-30.3" font-family="Times,serif" font-size="14.00">generateHashPartitionExpr</text>
</g>
<!-- PartitionInfo&#45;&gt;generateHashPartitionExpr -->
<g id="edge3" class="edge">
<title>PartitionInfo&#45;&gt;generateHashPartitionExpr</title>
<path fill="none" stroke="#666666" d="M631.69,-27.6C654.09,-28.45 682.52,-29.53 709.64,-30.55"/>
<polygon fill="#666666" stroke="#666666" points="709.83,-34.06 719.95,-30.95 710.09,-27.07 709.83,-34.06"/>
</g>
<!-- ExtractColumns -->
<g id="node9" class="node">
<title>ExtractColumns</title>
<polygon fill="none" stroke="black" points="1061,-75 956,-75 956,-39 1061,-39 1061,-75"/>
<text text-anchor="middle" x="1008.5" y="-53.3" font-family="Times,serif" font-size="14.00">ExtractColumns</text>
</g>
<!-- generateHashPartitionExpr&#45;&gt;ExtractColumns -->
<g id="edge13" class="edge">
<title>generateHashPartitionExpr&#45;&gt;ExtractColumns</title>
<path fill="none" stroke="darkblue" stroke-dasharray="5,2" d="M883.23,-43.06C904.03,-45.39 926.08,-47.87 945.75,-50.07"/>
<polygon fill="darkblue" stroke="darkblue" points="945.46,-53.56 955.79,-51.2 946.24,-46.61 945.46,-53.56"/>
</g>
<!-- findUsedPartitions&#45;&gt;DetachCondAndBuildRangeForPartition -->
<g id="edge12" class="edge">
<title>findUsedPartitions&#45;&gt;DetachCondAndBuildRangeForPartition</title>
<path fill="none" stroke="#666666" d="M647.16,-92.57C665.82,-96.64 687.02,-101.26 707.58,-105.74"/>
<polygon fill="#666666" stroke="#666666" points="707.08,-109.22 717.6,-107.93 708.57,-102.38 707.08,-109.22"/>
</g>
<!-- findUsedPartitions&#45;&gt;generateHashPartitionExpr -->
<g id="edge4" class="edge">
<title>findUsedPartitions&#45;&gt;generateHashPartitionExpr</title>
<path fill="none" stroke="#666666" d="M647.16,-67.43C666.54,-63.2 688.65,-58.38 709.94,-53.74"/>
<polygon fill="#666666" stroke="#666666" points="710.95,-57.1 719.98,-51.55 709.46,-50.27 710.95,-57.1"/>
</g>
<!-- findUsedPartitions&#45;&gt;ExtractColumns -->
<g id="edge5" class="edge">
<title>findUsedPartitions&#45;&gt;ExtractColumns</title>
<path fill="none" stroke="#666666" d="M647.18,-76.83C725.52,-72.52 865,-64.84 945.51,-60.41"/>
<polygon fill="#666666" stroke="#666666" points="946.2,-63.88 955.99,-59.83 945.81,-56.89 946.2,-63.88"/>
</g>
<!-- prune -->
<g id="node10" class="node">
<title>prune</title>
<polygon fill="none" stroke="black" points="116,-36 62,-36 62,0 116,0 116,-36"/>
<text text-anchor="middle" x="89" y="-14.3" font-family="Times,serif" font-size="14.00">prune</text>
</g>
<!-- processHashPartition -->
<g id="node11" class="node">
<title>processHashPartition</title>
<polygon fill="none" stroke="black" points="332.5,-36 201.5,-36 201.5,0 332.5,0 332.5,-36"/>
<text text-anchor="middle" x="267" y="-14.3" font-family="Times,serif" font-size="14.00">processHashPartition</text>
</g>
<!-- prune&#45;&gt;processHashPartition -->
<g id="edge8" class="edge">
<title>prune&#45;&gt;processHashPartition</title>
<path fill="none" stroke="#666666" d="M116.35,-18C136.25,-18 164.59,-18 191.28,-18"/>
<polygon fill="#666666" stroke="#666666" points="191.4,-21.5 201.4,-18 191.4,-14.5 191.4,-21.5"/>
</g>
<!-- processRangePartition -->
<g id="node12" class="node">
<title>processRangePartition</title>
<polygon fill="none" stroke="black" points="336,-226 198,-226 198,-190 336,-190 336,-226"/>
<text text-anchor="middle" x="267" y="-204.3" font-family="Times,serif" font-size="14.00">processRangePartition</text>
</g>
<!-- prune&#45;&gt;processRangePartition -->
<g id="edge9" class="edge">
<title>prune&#45;&gt;processRangePartition</title>
<path fill="none" stroke="#666666" d="M116.38,-19.09C134.05,-21.27 156.47,-27.06 170,-42 211.53,-87.88 160.49,-132.43 195.56,-181.93"/>
<polygon fill="#666666" stroke="#666666" points="192.97,-184.3 201.95,-189.92 198.44,-179.93 192.97,-184.3"/>
</g>
<!-- processHashPartition&#45;&gt;pruneHashPartition -->
<g id="edge10" class="edge">
<title>processHashPartition&#45;&gt;pruneHashPartition</title>
<path fill="none" stroke="#666666" d="M332.82,-25.9C342.39,-27.07 352.28,-28.28 361.95,-29.46"/>
<polygon fill="#666666" stroke="#666666" points="361.57,-32.94 371.92,-30.67 362.42,-25.99 361.57,-32.94"/>
</g>
</g>
</svg>
