<?xml version="1.0" encoding="UTF-8" standalone="no"?>
<!DOCTYPE svg PUBLIC "-//W3C//DTD SVG 1.1//EN"
 "http://www.w3.org/Graphics/SVG/1.1/DTD/svg11.dtd">
<!-- Generated by graphviz version 2.44.1 (20200629.0846)
 -->
<!-- Title: decorrelateSolver Pages: 1 -->
<svg width="560pt" height="638pt"
 viewBox="0.00 0.00 560.00 638.00" xmlns="http://www.w3.org/2000/svg" xmlns:xlink="http://www.w3.org/1999/xlink">
<g id="graph0" class="graph" transform="scale(1 1) rotate(0) translate(4 634)">
<title>decorrelateSolver</title>
<polygon fill="white" stroke="transparent" points="-4,4 -4,-634 556,-634 556,4 -4,4"/>
<!-- optimize -->
<g id="node1" class="node">
<title>optimize</title>
<polygon fill="none" stroke="black" points="65,-397 0,-397 0,-361 65,-361 65,-397"/>
<text text-anchor="middle" x="32.5" y="-375.3" font-family="Times,serif" font-size="14.00">optimize</text>
</g>
<!-- extractCorColumnsBySchema4LogicalPlan -->
<g id="node2" class="node">
<title>extractCorColumnsBySchema4LogicalPlan</title>
<polygon fill="none" stroke="black" points="552,-414 298,-414 298,-378 552,-378 552,-414"/>
<text text-anchor="middle" x="425" y="-392.3" font-family="Times,serif" font-size="14.00">extractCorColumnsBySchema4LogicalPlan</text>
</g>
<!-- optimize&#45;&gt;extractCorColumnsBySchema4LogicalPlan -->
<g id="edge1" class="edge">
<title>optimize&#45;&gt;extractCorColumnsBySchema4LogicalPlan</title>
<path fill="none" stroke="#666666" d="M65.13,-380.38C113.27,-382.47 207.8,-386.59 287.76,-390.07"/>
<polygon fill="#666666" stroke="#666666" points="287.79,-393.57 297.93,-390.51 288.1,-386.58 287.79,-393.57"/>
</g>
<!-- case_LogicalSelection -->
<g id="node3" class="node">
<title>case_LogicalSelection</title>
<polygon fill="none" stroke="black" points="250.5,-576 112.5,-576 112.5,-540 250.5,-540 250.5,-576"/>
<text text-anchor="middle" x="181.5" y="-554.3" font-family="Times,serif" font-size="14.00">case_LogicalSelection</text>
</g>
<!-- optimize&#45;&gt;case_LogicalSelection -->
<g id="edge2" class="edge">
<title>optimize&#45;&gt;case_LogicalSelection</title>
<path fill="none" stroke="#666666" d="M39.8,-397.16C49.63,-423.51 70.69,-472.81 101,-506 110.93,-516.88 123.61,-526.5 135.91,-534.41"/>
<polygon fill="#666666" stroke="#666666" points="134.41,-537.59 144.76,-539.86 138.08,-531.63 134.41,-537.59"/>
</g>
<!-- case_LogicalMaxOneRow -->
<g id="node4" class="node">
<title>case_LogicalMaxOneRow</title>
<polygon fill="none" stroke="black" points="262,-497 101,-497 101,-461 262,-461 262,-497"/>
<text text-anchor="middle" x="181.5" y="-475.3" font-family="Times,serif" font-size="14.00">case_LogicalMaxOneRow</text>
</g>
<!-- optimize&#45;&gt;case_LogicalMaxOneRow -->
<g id="edge3" class="edge">
<title>optimize&#45;&gt;case_LogicalMaxOneRow</title>
<path fill="none" stroke="#666666" d="M52.22,-397.29C64.54,-411.57 81.89,-430.59 101,-443 109.89,-448.78 120.15,-453.45 130.28,-457.39"/>
<polygon fill="#666666" stroke="#666666" points="129.31,-460.76 139.91,-460.95 131.74,-454.2 129.31,-460.76"/>
</g>
<!-- case_LogicalProjection -->
<g id="node5" class="node">
<title>case_LogicalProjection</title>
<polygon fill="none" stroke="black" points="253,-443 110,-443 110,-407 253,-407 253,-443"/>
<text text-anchor="middle" x="181.5" y="-421.3" font-family="Times,serif" font-size="14.00">case_LogicalProjection</text>
</g>
<!-- optimize&#45;&gt;case_LogicalProjection -->
<g id="edge4" class="edge">
<title>optimize&#45;&gt;case_LogicalProjection</title>
<path fill="none" stroke="#666666" d="M65.04,-388.87C79.14,-393.28 96.34,-398.67 113.12,-403.92"/>
<polygon fill="#666666" stroke="#666666" points="112.33,-407.34 122.92,-406.98 114.42,-400.66 112.33,-407.34"/>
</g>
<!-- case_LogicalAggregation -->
<g id="node6" class="node">
<title>case_LogicalAggregation</title>
<polygon fill="none" stroke="black" points="259,-333 104,-333 104,-297 259,-297 259,-333"/>
<text text-anchor="middle" x="181.5" y="-311.3" font-family="Times,serif" font-size="14.00">case_LogicalAggregation</text>
</g>
<!-- optimize&#45;&gt;case_LogicalAggregation -->
<g id="edge5" class="edge">
<title>optimize&#45;&gt;case_LogicalAggregation</title>
<path fill="none" stroke="#666666" d="M62.54,-360.85C77.43,-353.41 96.23,-344.82 114.41,-337.06"/>
<polygon fill="#666666" stroke="#666666" points="115.98,-340.19 123.84,-333.08 113.26,-333.74 115.98,-340.19"/>
</g>
<!-- case_LogicalSort -->
<g id="node7" class="node">
<title>case_LogicalSort</title>
<polygon fill="none" stroke="black" points="236.5,-279 126.5,-279 126.5,-243 236.5,-243 236.5,-279"/>
<text text-anchor="middle" x="181.5" y="-257.3" font-family="Times,serif" font-size="14.00">case_LogicalSort</text>
</g>
<!-- optimize&#45;&gt;case_LogicalSort -->
<g id="edge6" class="edge">
<title>optimize&#45;&gt;case_LogicalSort</title>
<path fill="none" stroke="#666666" d="M39.57,-360.86C49.68,-338 71.75,-300.32 101,-279 105.83,-275.48 111.15,-272.39 116.68,-269.73"/>
<polygon fill="#666666" stroke="#666666" points="118.35,-272.82 126.14,-265.65 115.57,-266.4 118.35,-272.82"/>
</g>
<!-- AttachOnConds -->
<g id="node8" class="node">
<title>AttachOnConds</title>
<polygon fill="none" stroke="black" points="477,-630 373,-630 373,-594 477,-594 477,-630"/>
<text text-anchor="middle" x="425" y="-608.3" font-family="Times,serif" font-size="14.00">AttachOnConds</text>
</g>
<!-- case_LogicalSelection&#45;&gt;AttachOnConds -->
<g id="edge7" class="edge">
<title>case_LogicalSelection&#45;&gt;AttachOnConds</title>
<path fill="none" stroke="#666666" d="M250.55,-574.13C266.13,-577.76 282.63,-581.56 298,-585 319.11,-589.73 342.24,-594.74 362.86,-599.14"/>
<polygon fill="#666666" stroke="#666666" points="362.25,-602.59 372.76,-601.25 363.71,-595.74 362.25,-602.59"/>
</g>
<!-- newConds -->
<g id="node9" class="node">
<title>newConds</title>
<polygon fill="none" stroke="black" points="462,-576 388,-576 388,-540 462,-540 462,-576"/>
<text text-anchor="middle" x="425" y="-554.3" font-family="Times,serif" font-size="14.00">newConds</text>
</g>
<!-- case_LogicalSelection&#45;&gt;newConds -->
<g id="edge8" class="edge">
<title>case_LogicalSelection&#45;&gt;newConds</title>
<path fill="none" stroke="#666666" d="M250.74,-558C291.23,-558 341.52,-558 377.47,-558"/>
<polygon fill="#666666" stroke="#666666" points="377.67,-561.5 387.67,-558 377.67,-554.5 377.67,-561.5"/>
</g>
<!-- case_LogicalMaxOneRow&#45;&gt;optimize -->
<g id="edge9" class="edge">
<title>case_LogicalMaxOneRow&#45;&gt;optimize</title>
<path fill="none" stroke="#666666" d="M100.7,-460.81C78.91,-446.56 59.44,-423.77 47.13,-405.63"/>
<polygon fill="#666666" stroke="#666666" points="50.04,-403.68 41.69,-397.16 44.15,-407.46 50.04,-403.68"/>
</g>
<!-- MaxOneRow -->
<g id="node10" class="node">
<title>MaxOneRow</title>
<polygon fill="none" stroke="black" points="470,-522 380,-522 380,-486 470,-486 470,-522"/>
<text text-anchor="middle" x="425" y="-500.3" font-family="Times,serif" font-size="14.00">MaxOneRow</text>
</g>
<!-- case_LogicalMaxOneRow&#45;&gt;MaxOneRow -->
<g id="edge10" class="edge">
<title>case_LogicalMaxOneRow&#45;&gt;MaxOneRow</title>
<path fill="none" stroke="#666666" d="M262.25,-487.26C297.58,-490.91 338.22,-495.12 369.93,-498.4"/>
<polygon fill="#666666" stroke="#666666" points="369.59,-501.89 379.9,-499.43 370.31,-494.92 369.59,-501.89"/>
</g>
<!-- MergeSchema -->
<g id="node11" class="node">
<title>MergeSchema</title>
<polygon fill="none" stroke="black" points="473,-468 377,-468 377,-432 473,-432 473,-468"/>
<text text-anchor="middle" x="425" y="-446.3" font-family="Times,serif" font-size="14.00">MergeSchema</text>
</g>
<!-- case_LogicalProjection&#45;&gt;MergeSchema -->
<g id="edge11" class="edge">
<title>case_LogicalProjection&#45;&gt;MergeSchema</title>
<path fill="none" stroke="#666666" d="M253,-432.3C289.09,-436.03 332.46,-440.52 366.49,-444.05"/>
<polygon fill="#666666" stroke="#666666" points="366.43,-447.56 376.74,-445.11 367.15,-440.6 366.43,-447.56"/>
</g>
<!-- case_LogicalAggregation&#45;&gt;optimize -->
<g id="edge12" class="edge">
<title>case_LogicalAggregation&#45;&gt;optimize</title>
<path fill="none" stroke="#666666" d="M151.51,-333.12C129.5,-344.13 98.94,-357.64 74.44,-367.3"/>
<polygon fill="#666666" stroke="#666666" points="73.1,-364.06 65.04,-370.93 75.62,-370.59 73.1,-364.06"/>
</g>
<!-- case_LogicalAggregation&#45;&gt;extractCorColumnsBySchema4LogicalPlan -->
<g id="edge13" class="edge">
<title>case_LogicalAggregation&#45;&gt;extractCorColumnsBySchema4LogicalPlan</title>
<path fill="none" stroke="#666666" d="M216.03,-333.15C238.65,-344.77 269.46,-359.41 298,-369 304.71,-371.25 311.68,-373.36 318.75,-375.33"/>
<polygon fill="#666666" stroke="#666666" points="317.87,-378.72 328.44,-377.92 319.68,-371.95 317.87,-378.72"/>
</g>
<!-- canPullUpAgg -->
<g id="node12" class="node">
<title>canPullUpAgg</title>
<polygon fill="none" stroke="black" points="473.5,-360 376.5,-360 376.5,-324 473.5,-324 473.5,-360"/>
<text text-anchor="middle" x="425" y="-338.3" font-family="Times,serif" font-size="14.00">canPullUpAgg</text>
</g>
<!-- case_LogicalAggregation&#45;&gt;canPullUpAgg -->
<g id="edge14" class="edge">
<title>case_LogicalAggregation&#45;&gt;canPullUpAgg</title>
<path fill="none" stroke="#666666" d="M259.24,-323.58C293.89,-327.45 334.14,-331.95 366.18,-335.54"/>
<polygon fill="#666666" stroke="#666666" points="365.95,-339.03 376.27,-336.66 366.73,-332.07 365.95,-339.03"/>
</g>
<!-- canPullUp -->
<g id="node13" class="node">
<title>canPullUp</title>
<polygon fill="none" stroke="black" points="462,-306 388,-306 388,-270 462,-270 462,-306"/>
<text text-anchor="middle" x="425" y="-284.3" font-family="Times,serif" font-size="14.00">canPullUp</text>
</g>
<!-- case_LogicalAggregation&#45;&gt;canPullUp -->
<g id="edge15" class="edge">
<title>case_LogicalAggregation&#45;&gt;canPullUp</title>
<path fill="none" stroke="#666666" d="M259.24,-306.42C298.3,-302.05 344.46,-296.89 377.97,-293.15"/>
<polygon fill="#666666" stroke="#666666" points="378.4,-296.62 387.95,-292.03 377.62,-289.66 378.4,-296.62"/>
</g>
<!-- Column2Exprs -->
<g id="node14" class="node">
<title>Column2Exprs</title>
<polygon fill="none" stroke="black" points="474.5,-252 375.5,-252 375.5,-216 474.5,-216 474.5,-252"/>
<text text-anchor="middle" x="425" y="-230.3" font-family="Times,serif" font-size="14.00">Column2Exprs</text>
</g>
<!-- case_LogicalAggregation&#45;&gt;Column2Exprs -->
<g id="edge16" class="edge">
<title>case_LogicalAggregation&#45;&gt;Column2Exprs</title>
<path fill="none" stroke="#666666" d="M242.41,-296.96C249.15,-294.25 255.81,-291.26 262,-288 279.69,-278.67 279.8,-269.29 298,-261 319,-251.44 343.54,-245.2 365.35,-241.15"/>
<polygon fill="#666666" stroke="#666666" points="366.23,-244.55 375.49,-239.39 365.03,-237.66 366.23,-244.55"/>
</g>
<!-- AggFuncs -->
<g id="node15" class="node">
<title>AggFuncs</title>
<polygon fill="none" stroke="black" points="461,-198 389,-198 389,-162 461,-162 461,-198"/>
<text text-anchor="middle" x="425" y="-176.3" font-family="Times,serif" font-size="14.00">AggFuncs</text>
</g>
<!-- case_LogicalAggregation&#45;&gt;AggFuncs -->
<g id="edge17" class="edge">
<title>case_LogicalAggregation&#45;&gt;AggFuncs</title>
<path fill="none" stroke="#666666" d="M249.91,-296.84C254.25,-294.27 258.34,-291.34 262,-288 291.09,-261.44 267.41,-231.83 298,-207 320.54,-188.7 352.61,-182.02 378.75,-179.87"/>
<polygon fill="#666666" stroke="#666666" points="379.05,-183.36 388.81,-179.24 378.61,-176.38 379.05,-183.36"/>
</g>
<!-- aggDefaultValueMap -->
<g id="node16" class="node">
<title>aggDefaultValueMap</title>
<polygon fill="none" stroke="black" points="491.5,-144 358.5,-144 358.5,-108 491.5,-108 491.5,-144"/>
<text text-anchor="middle" x="425" y="-122.3" font-family="Times,serif" font-size="14.00">aggDefaultValueMap</text>
</g>
<!-- case_LogicalAggregation&#45;&gt;aggDefaultValueMap -->
<g id="edge18" class="edge">
<title>case_LogicalAggregation&#45;&gt;aggDefaultValueMap</title>
<path fill="none" stroke="#666666" d="M251.27,-296.98C255.18,-294.38 258.81,-291.41 262,-288 304.42,-242.65 253.02,-195.81 298,-153 311.67,-139.99 330.01,-132.62 348.45,-128.59"/>
<polygon fill="#666666" stroke="#666666" points="349.2,-132.01 358.39,-126.73 347.91,-125.13 349.2,-132.01"/>
</g>
<!-- resetNotNullFlag -->
<g id="node17" class="node">
<title>resetNotNullFlag</title>
<polygon fill="none" stroke="black" points="480,-90 370,-90 370,-54 480,-54 480,-90"/>
<text text-anchor="middle" x="425" y="-68.3" font-family="Times,serif" font-size="14.00">resetNotNullFlag</text>
</g>
<!-- case_LogicalAggregation&#45;&gt;resetNotNullFlag -->
<g id="edge19" class="edge">
<title>case_LogicalAggregation&#45;&gt;resetNotNullFlag</title>
<path fill="none" stroke="#666666" d="M251.91,-296.99C255.62,-294.39 259.03,-291.41 262,-288 318.11,-223.48 238.23,-160.15 298,-99 314,-82.63 337.34,-75.03 359.6,-71.81"/>
<polygon fill="#666666" stroke="#666666" points="360.19,-75.26 369.72,-70.62 359.38,-68.31 360.19,-75.26"/>
</g>
<!-- case_LogicalSort&#45;&gt;optimize -->
<g id="edge20" class="edge">
<title>case_LogicalSort&#45;&gt;optimize</title>
<path fill="none" stroke="#666666" d="M137.35,-279.05C124.86,-283.51 111.72,-289.19 101,-297 80.83,-311.7 64.08,-334.19 52.3,-352.03"/>
<polygon fill="#666666" stroke="#666666" points="49.08,-350.57 46.61,-360.87 54.96,-354.36 49.08,-350.57"/>
</g>
<!-- SetChild -->
<g id="node18" class="node">
<title>SetChild</title>
<polygon fill="none" stroke="black" points="457,-36 393,-36 393,0 457,0 457,-36"/>
<text text-anchor="middle" x="425" y="-14.3" font-family="Times,serif" font-size="14.00">SetChild</text>
</g>
<!-- case_LogicalSort&#45;&gt;SetChild -->
<g id="edge21" class="edge">
<title>case_LogicalSort&#45;&gt;SetChild</title>
<path fill="none" stroke="#666666" d="M186.67,-242.81C197.3,-200.77 229.55,-96.54 298,-45 322.22,-26.76 356.1,-20.27 382.63,-18.19"/>
<polygon fill="#666666" stroke="#666666" points="383,-21.68 392.77,-17.58 382.58,-14.69 383,-21.68"/>
</g>
</g>
</svg>
