<?xml version="1.0" encoding="UTF-8" standalone="no"?>
<!DOCTYPE svg PUBLIC "-//W3C//DTD SVG 1.1//EN"
 "http://www.w3.org/Graphics/SVG/1.1/DTD/svg11.dtd">
<!-- Generated by graphviz version 2.44.1 (20200629.0846)
 -->
<!-- Title: extractTaskHandles Pages: 1 -->
<svg width="577pt" height="260pt"
 viewBox="0.00 0.00 577.00 260.00" xmlns="http://www.w3.org/2000/svg" xmlns:xlink="http://www.w3.org/1999/xlink">
<g id="graph0" class="graph" transform="scale(1 1) rotate(0) translate(4 256)">
<title>extractTaskHandles</title>
<polygon fill="white" stroke="transparent" points="-4,4 -4,-256 573,-256 573,4 -4,4"/>
<!-- fetchHandles -->
<g id="node1" class="node">
<title>fetchHandles</title>
<path fill="none" stroke="#1c2123" d="M76,-117C76,-117 12,-117 12,-117 6,-117 0,-111 0,-105 0,-105 0,-93 0,-93 0,-87 6,-81 12,-81 12,-81 76,-81 76,-81 82,-81 88,-87 88,-93 88,-93 88,-105 88,-105 88,-111 82,-117 76,-117"/>
<text text-anchor="middle" x="44" y="-95.3" font-family="Times,serif" font-size="14.00" fill="#2f3638">fetchHandles</text>
</g>
<!-- extractTaskHandles -->
<g id="node2" class="node">
<title>extractTaskHandles</title>
<path fill="none" stroke="#1c2123" d="M236,-117C236,-117 136,-117 136,-117 130,-117 124,-111 124,-105 124,-105 124,-93 124,-93 124,-87 130,-81 136,-81 136,-81 236,-81 236,-81 242,-81 248,-87 248,-93 248,-93 248,-105 248,-105 248,-111 242,-117 236,-117"/>
<text text-anchor="middle" x="186" y="-95.3" font-family="Times,serif" font-size="14.00" fill="#2f3638">extractTaskHandles</text>
</g>
<!-- fetchHandles&#45;&gt;extractTaskHandles -->
<g id="edge1" class="edge">
<title>fetchHandles&#45;&gt;extractTaskHandles</title>
<path fill="none" stroke="#666666" d="M88.15,-99C96.29,-99 105,-99 113.74,-99"/>
<polygon fill="#666666" stroke="#666666" points="113.98,-102.5 123.98,-99 113.98,-95.5 113.98,-102.5"/>
</g>
<!-- getHandle -->
<g id="node3" class="node">
<title>getHandle</title>
<path fill="none" stroke="#1c2123" d="M366,-144C366,-144 318,-144 318,-144 312,-144 306,-138 306,-132 306,-132 306,-120 306,-120 306,-114 312,-108 318,-108 318,-108 366,-108 366,-108 372,-108 378,-114 378,-120 378,-120 378,-132 378,-132 378,-138 372,-144 366,-144"/>
<text text-anchor="middle" x="342" y="-122.3" font-family="Times,serif" font-size="14.00" fill="#2f3638">getHandle</text>
</g>
<!-- extractTaskHandles&#45;&gt;getHandle -->
<g id="edge2" class="edge">
<title>extractTaskHandles&#45;&gt;getHandle</title>
<path fill="none" stroke="#666666" d="M248.31,-109.75C264.12,-112.52 280.85,-115.45 295.68,-118.06"/>
<polygon fill="#666666" stroke="#666666" points="295.16,-121.52 305.61,-119.8 296.37,-114.62 295.16,-121.52"/>
</g>
<!-- isCommonHandle -->
<g id="node4" class="node">
<title>isCommonHandle</title>
<path fill="none" stroke="#1c2123" d="M388,-90C388,-90 296,-90 296,-90 290,-90 284,-84 284,-78 284,-78 284,-66 284,-66 284,-60 290,-54 296,-54 296,-54 388,-54 388,-54 394,-54 400,-60 400,-66 400,-66 400,-78 400,-78 400,-84 394,-90 388,-90"/>
<text text-anchor="middle" x="342" y="-68.3" font-family="Times,serif" font-size="14.00" fill="#2f3638">isCommonHandle</text>
</g>
<!-- extractTaskHandles&#45;&gt;isCommonHandle -->
<g id="edge3" class="edge">
<title>extractTaskHandles&#45;&gt;isCommonHandle</title>
<path fill="none" stroke="#666666" d="M248.31,-88.25C256.75,-86.77 265.45,-85.25 273.99,-83.75"/>
<polygon fill="#666666" stroke="#666666" points="274.66,-87.18 283.91,-82.01 273.45,-80.29 274.66,-87.18"/>
</g>
<!-- TruncateIndexValues -->
<g id="node5" class="node">
<title>TruncateIndexValues</title>
<path fill="none" stroke="#1c2123" d="M556,-252C556,-252 449,-252 449,-252 443,-252 437,-246 437,-240 437,-240 437,-228 437,-228 437,-222 443,-216 449,-216 449,-216 556,-216 556,-216 562,-216 568,-222 568,-228 568,-228 568,-240 568,-240 568,-246 562,-252 556,-252"/>
<text text-anchor="middle" x="502.5" y="-230.3" font-family="Times,serif" font-size="14.00" fill="#2f3638">TruncateIndexValues</text>
</g>
<!-- getHandle&#45;&gt;TruncateIndexValues -->
<g id="edge4" class="edge">
<title>getHandle&#45;&gt;TruncateIndexValues</title>
<path fill="none" stroke="#666666" d="M360.13,-144.03C377.82,-161.85 406.86,-188.98 436,-207 438.45,-208.52 441,-209.98 443.62,-211.39"/>
<polygon fill="#666666" stroke="#666666" points="442.18,-214.58 452.68,-215.97 445.33,-208.34 442.18,-214.58"/>
</g>
<!-- EncodeKey -->
<g id="node6" class="node">
<title>EncodeKey</title>
<path fill="none" stroke="#1c2123" d="M530.5,-198C530.5,-198 474.5,-198 474.5,-198 468.5,-198 462.5,-192 462.5,-186 462.5,-186 462.5,-174 462.5,-174 462.5,-168 468.5,-162 474.5,-162 474.5,-162 530.5,-162 530.5,-162 536.5,-162 542.5,-168 542.5,-174 542.5,-174 542.5,-186 542.5,-186 542.5,-192 536.5,-198 530.5,-198"/>
<text text-anchor="middle" x="502.5" y="-176.3" font-family="Times,serif" font-size="14.00" fill="#2f3638">EncodeKey</text>
</g>
<!-- getHandle&#45;&gt;EncodeKey -->
<g id="edge5" class="edge">
<title>getHandle&#45;&gt;EncodeKey</title>
<path fill="none" stroke="#666666" d="M378.18,-137.98C400.06,-145.44 428.52,-155.13 452.58,-163.33"/>
<polygon fill="#666666" stroke="#666666" points="451.65,-166.71 462.25,-166.63 453.91,-160.09 451.65,-166.71"/>
</g>
<!-- NewCommonHandle -->
<g id="node7" class="node">
<title>NewCommonHandle</title>
<path fill="none" stroke="#1c2123" d="M557,-144C557,-144 448,-144 448,-144 442,-144 436,-138 436,-132 436,-132 436,-120 436,-120 436,-114 442,-108 448,-108 448,-108 557,-108 557,-108 563,-108 569,-114 569,-120 569,-120 569,-132 569,-132 569,-138 563,-144 557,-144"/>
<text text-anchor="middle" x="502.5" y="-122.3" font-family="Times,serif" font-size="14.00" fill="#2f3638">NewCommonHandle</text>
</g>
<!-- getHandle&#45;&gt;NewCommonHandle -->
<g id="edge6" class="edge">
<title>getHandle&#45;&gt;NewCommonHandle</title>
<path fill="none" stroke="#666666" d="M378.18,-126C392.22,-126 408.98,-126 425.55,-126"/>
<polygon fill="#666666" stroke="#666666" points="425.81,-129.5 435.81,-126 425.81,-122.5 425.81,-129.5"/>
</g>
<!-- IntHandle -->
<g id="node8" class="node">
<title>IntHandle</title>
<path fill="none" stroke="#1c2123" d="M526,-90C526,-90 479,-90 479,-90 473,-90 467,-84 467,-78 467,-78 467,-66 467,-66 467,-60 473,-54 479,-54 479,-54 526,-54 526,-54 532,-54 538,-60 538,-66 538,-66 538,-78 538,-78 538,-84 532,-90 526,-90"/>
<text text-anchor="middle" x="502.5" y="-68.3" font-family="Times,serif" font-size="14.00" fill="#2f3638">IntHandle</text>
</g>
<!-- getHandle&#45;&gt;IntHandle -->
<g id="edge7" class="edge">
<title>getHandle&#45;&gt;IntHandle</title>
<path fill="none" stroke="#666666" d="M378.18,-114.02C401.53,-106.06 432.36,-95.56 457.35,-87.04"/>
<polygon fill="#666666" stroke="#666666" points="458.63,-90.3 466.97,-83.77 456.37,-83.68 458.63,-90.3"/>
</g>
<!-- NewPartitionHandle -->
<g id="node9" class="node">
<title>NewPartitionHandle</title>
<path fill="none" stroke="#1c2123" d="M554.5,-36C554.5,-36 450.5,-36 450.5,-36 444.5,-36 438.5,-30 438.5,-24 438.5,-24 438.5,-12 438.5,-12 438.5,-6 444.5,0 450.5,0 450.5,0 554.5,0 554.5,0 560.5,0 566.5,-6 566.5,-12 566.5,-12 566.5,-24 566.5,-24 566.5,-30 560.5,-36 554.5,-36"/>
<text text-anchor="middle" x="502.5" y="-14.3" font-family="Times,serif" font-size="14.00" fill="#2f3638">NewPartitionHandle</text>
</g>
<!-- getHandle&#45;&gt;NewPartitionHandle -->
<g id="edge8" class="edge">
<title>getHandle&#45;&gt;NewPartitionHandle</title>
<path fill="none" stroke="#666666" d="M378.27,-112.94C385.92,-109.15 393.62,-104.51 400,-99 421.83,-80.14 413.7,-63.29 436,-45 437.53,-43.74 439.13,-42.54 440.79,-41.38"/>
<polygon fill="#666666" stroke="#666666" points="442.78,-44.26 449.42,-36.01 439.08,-38.32 442.78,-44.26"/>
</g>
</g>
</svg>
