<?xml version="1.0" encoding="UTF-8" standalone="no"?>
<!DOCTYPE svg PUBLIC "-//W3C//DTD SVG 1.1//EN"
 "http://www.w3.org/Graphics/SVG/1.1/DTD/svg11.dtd">
<!-- Generated by graphviz version 2.44.1 (20200629.0846)
 -->
<!-- Title: GenIndexValue Pages: 1 -->
<svg width="1479pt" height="360pt"
 viewBox="0.00 0.00 1479.00 359.50" xmlns="http://www.w3.org/2000/svg" xmlns:xlink="http://www.w3.org/1999/xlink">
<g id="graph0" class="graph" transform="scale(1 1) rotate(0) translate(4 355.5)">
<title>GenIndexValue</title>
<polygon fill="white" stroke="transparent" points="-4,4 -4,-355.5 1475,-355.5 1475,4 -4,4"/>
<!-- Create -->
<g id="node1" class="node">
<title>Create</title>
<path fill="none" stroke="#1c2123" d="M12,-156.5C12,-156.5 221,-156.5 221,-156.5 227,-156.5 233,-162.5 233,-168.5 233,-168.5 233,-205.5 233,-205.5 233,-211.5 227,-217.5 221,-217.5 221,-217.5 12,-217.5 12,-217.5 6,-217.5 0,-211.5 0,-205.5 0,-205.5 0,-168.5 0,-168.5 0,-162.5 6,-156.5 12,-156.5"/>
<text text-anchor="middle" x="116.5" y="-202.3" font-family="Times,serif" font-size="14.00" fill="#2f3638">Create</text>
<polyline fill="none" stroke="#1c2123" points="0,-194.5 233,-194.5 "/>
<text text-anchor="start" x="8" y="-179.3" font-family="Times,serif" font-size="14.00" fill="#2f3638">index.Create</text>
<text text-anchor="start" x="8" y="-164.3" font-family="Times,serif" font-size="14.00" fill="#2f3638"> creates a new entry in the kvIndexData</text>
</g>
<!-- GenIndexKey -->
<g id="node2" class="node">
<title>GenIndexKey</title>
<path fill="none" stroke="#1c2123" d="M281,-223.5C281,-223.5 475,-223.5 475,-223.5 481,-223.5 487,-229.5 487,-235.5 487,-235.5 487,-272.5 487,-272.5 487,-278.5 481,-284.5 475,-284.5 475,-284.5 281,-284.5 281,-284.5 275,-284.5 269,-278.5 269,-272.5 269,-272.5 269,-235.5 269,-235.5 269,-229.5 275,-223.5 281,-223.5"/>
<text text-anchor="middle" x="378" y="-269.3" font-family="Times,serif" font-size="14.00" fill="#2f3638">GenIndexKey</text>
<polyline fill="none" stroke="#1c2123" points="269,-261.5 487,-261.5 "/>
<text text-anchor="start" x="277" y="-246.3" font-family="Times,serif" font-size="14.00" fill="#2f3638">tablePrefix phyTblID indexPrefixSep</text>
<text text-anchor="middle" x="378" y="-231.3" font-family="Times,serif" font-size="14.00" fill="#2f3638"> idxInfo.ID indexedValues</text>
</g>
<!-- Create&#45;&gt;GenIndexKey -->
<g id="edge1" class="edge">
<title>Create&#45;&gt;GenIndexKey</title>
<path fill="none" stroke="#666666" d="M233.21,-216.87C241.85,-219.11 250.58,-221.36 259.23,-223.59"/>
<polygon fill="#666666" stroke="#666666" points="258.41,-226.99 268.96,-226.11 260.16,-220.22 258.41,-226.99"/>
</g>
<!-- GenIndexValue -->
<g id="node3" class="node">
<title>GenIndexValue</title>
<path fill="none" stroke="#1c2123" d="M416.5,-205C416.5,-205 339.5,-205 339.5,-205 333.5,-205 327.5,-199 327.5,-193 327.5,-193 327.5,-181 327.5,-181 327.5,-175 333.5,-169 339.5,-169 339.5,-169 416.5,-169 416.5,-169 422.5,-169 428.5,-175 428.5,-181 428.5,-181 428.5,-193 428.5,-193 428.5,-199 422.5,-205 416.5,-205"/>
<text text-anchor="middle" x="378" y="-183.3" font-family="Times,serif" font-size="14.00" fill="#2f3638">GenIndexValue</text>
</g>
<!-- Create&#45;&gt;GenIndexValue -->
<g id="edge2" class="edge">
<title>Create&#45;&gt;GenIndexValue</title>
<path fill="none" stroke="#666666" d="M233.21,-187C262.31,-187 292.37,-187 317.43,-187"/>
<polygon fill="#666666" stroke="#666666" points="317.49,-190.5 327.49,-187 317.49,-183.5 317.49,-190.5"/>
</g>
<!-- GenIndexValueNew -->
<g id="node4" class="node">
<title>GenIndexValueNew</title>
<path fill="none" stroke="#1c2123" d="M648.5,-183C648.5,-183 546.5,-183 546.5,-183 540.5,-183 534.5,-177 534.5,-171 534.5,-171 534.5,-159 534.5,-159 534.5,-153 540.5,-147 546.5,-147 546.5,-147 648.5,-147 648.5,-147 654.5,-147 660.5,-153 660.5,-159 660.5,-159 660.5,-171 660.5,-171 660.5,-177 654.5,-183 648.5,-183"/>
<text text-anchor="middle" x="597.5" y="-161.3" font-family="Times,serif" font-size="14.00" fill="#2f3638">GenIndexValueNew</text>
</g>
<!-- Create&#45;&gt;GenIndexValueNew -->
<g id="edge3" class="edge">
<title>Create&#45;&gt;GenIndexValueNew</title>
<path fill="none" stroke="#666666" d="M233.02,-164.25C245.13,-162.51 257.29,-161.04 269,-160 365.51,-151.47 390.14,-157.79 487,-160 498.97,-160.27 511.66,-160.71 524,-161.22"/>
<polygon fill="#666666" stroke="#666666" points="524.12,-164.73 534.27,-161.67 524.43,-157.74 524.12,-164.73"/>
</g>
<!-- appendTableIndexPrefix -->
<g id="node5" class="node">
<title>appendTableIndexPrefix</title>
<path fill="none" stroke="#1c2123" d="M660,-293C660,-293 535,-293 535,-293 529,-293 523,-287 523,-281 523,-281 523,-269 523,-269 523,-263 529,-257 535,-257 535,-257 660,-257 660,-257 666,-257 672,-263 672,-269 672,-269 672,-281 672,-281 672,-287 666,-293 660,-293"/>
<text text-anchor="middle" x="597.5" y="-271.3" font-family="Times,serif" font-size="14.00" fill="#2f3638">appendTableIndexPrefix</text>
</g>
<!-- GenIndexKey&#45;&gt;appendTableIndexPrefix -->
<g id="edge4" class="edge">
<title>GenIndexKey&#45;&gt;appendTableIndexPrefix</title>
<path fill="none" stroke="#666666" d="M487.11,-264.44C495.75,-265.27 504.4,-266.11 512.83,-266.92"/>
<polygon fill="#666666" stroke="#666666" points="512.71,-270.43 523,-267.9 513.38,-263.46 512.71,-270.43"/>
</g>
<!-- TruncateIndexValues -->
<g id="node6" class="node">
<title>TruncateIndexValues</title>
<path fill="none" stroke="#1c2123" d="M651,-239C651,-239 544,-239 544,-239 538,-239 532,-233 532,-227 532,-227 532,-215 532,-215 532,-209 538,-203 544,-203 544,-203 651,-203 651,-203 657,-203 663,-209 663,-215 663,-215 663,-227 663,-227 663,-233 657,-239 651,-239"/>
<text text-anchor="middle" x="597.5" y="-217.3" font-family="Times,serif" font-size="14.00" fill="#2f3638">TruncateIndexValues</text>
</g>
<!-- GenIndexKey&#45;&gt;TruncateIndexValues -->
<g id="edge5" class="edge">
<title>GenIndexKey&#45;&gt;TruncateIndexValues</title>
<path fill="none" stroke="#666666" d="M487.11,-237.6C498.87,-235.81 510.63,-234.03 521.86,-232.33"/>
<polygon fill="#666666" stroke="#666666" points="522.64,-235.75 532,-230.79 521.59,-228.83 522.64,-235.75"/>
</g>
<!-- GenIndexValue&#45;&gt;GenIndexValueNew -->
<g id="edge6" class="edge">
<title>GenIndexValue&#45;&gt;GenIndexValueNew</title>
<path fill="none" stroke="#666666" d="M428.63,-181.98C456.91,-179.12 492.86,-175.48 524.23,-172.31"/>
<polygon fill="#666666" stroke="#666666" points="524.64,-175.79 534.24,-171.3 523.93,-168.82 524.64,-175.79"/>
</g>
<!-- encodePartitionID -->
<g id="node7" class="node">
<title>encodePartitionID</title>
<path fill="none" stroke="#1c2123" d="M720,-267C720,-267 933,-267 933,-267 939,-267 945,-273 945,-279 945,-279 945,-339 945,-339 945,-345 939,-351 933,-351 933,-351 720,-351 720,-351 714,-351 708,-345 708,-339 708,-339 708,-279 708,-279 708,-273 714,-267 720,-267"/>
<text text-anchor="middle" x="826.5" y="-335.8" font-family="Times,serif" font-size="14.00" fill="#2f3638">encodePartitionID</text>
<polyline fill="none" stroke="#1c2123" points="708,-328 945,-328 "/>
<text text-anchor="start" x="716" y="-312.8" font-family="Times,serif" font-size="14.00" fill="#2f3638">如果是全局索引</text>
<text text-anchor="start" x="716" y="-297.8" font-family="Times,serif" font-size="14.00" fill="#2f3638"> idxInfo.Global 为true layout 如下</text>
<polyline fill="none" stroke="#1c2123" points="708,-290 945,-290 "/>
<text text-anchor="middle" x="737.5" y="-274.8" font-family="Times,serif" font-size="14.00" fill="#2f3638">indxVal</text>
<polyline fill="none" stroke="#1c2123" points="767,-267 767,-290 "/>
<text text-anchor="middle" x="817.5" y="-274.8" font-family="Times,serif" font-size="14.00" fill="#2f3638">PartitionIDFlag</text>
<polyline fill="none" stroke="#1c2123" points="868,-267 868,-290 "/>
<text text-anchor="middle" x="906.5" y="-274.8" font-family="Times,serif" font-size="14.00" fill="#2f3638">partitionID</text>
</g>
<!-- GenIndexValueNew&#45;&gt;encodePartitionID -->
<g id="edge7" class="edge">
<title>GenIndexValueNew&#45;&gt;encodePartitionID</title>
<path fill="none" stroke="#666666" d="M655.58,-183.17C661.44,-186.28 667.05,-189.87 672,-194 695.29,-213.44 685.46,-231.69 708,-252 711.55,-255.2 715.31,-258.26 719.23,-261.18"/>
<polygon fill="#666666" stroke="#666666" points="717.27,-264.08 727.46,-266.98 721.3,-258.36 717.27,-264.08"/>
</g>
<!-- encodeCommonHandle -->
<g id="node8" class="node">
<title>encodeCommonHandle</title>
<path fill="none" stroke="#1c2123" d="M993,-192C993,-192 1292,-192 1292,-192 1298,-192 1304,-198 1304,-204 1304,-204 1304,-226 1304,-226 1304,-232 1298,-238 1292,-238 1292,-238 993,-238 993,-238 987,-238 981,-232 981,-226 981,-226 981,-204 981,-204 981,-198 987,-192 993,-192"/>
<text text-anchor="middle" x="1142.5" y="-222.8" font-family="Times,serif" font-size="14.00" fill="#2f3638">encodeCommonHandle</text>
<polyline fill="none" stroke="#1c2123" points="981,-215 1304,-215 "/>
<text text-anchor="middle" x="1007" y="-199.8" font-family="Times,serif" font-size="14.00" fill="#2f3638">idxVal</text>
<polyline fill="none" stroke="#1c2123" points="1033,-192 1033,-215 "/>
<text text-anchor="middle" x="1098.5" y="-199.8" font-family="Times,serif" font-size="14.00" fill="#2f3638">CommonHandleFlag</text>
<polyline fill="none" stroke="#1c2123" points="1164,-192 1164,-215 "/>
<text text-anchor="middle" x="1184" y="-199.8" font-family="Times,serif" font-size="14.00" fill="#2f3638">hlen</text>
<polyline fill="none" stroke="#1c2123" points="1204,-192 1204,-215 "/>
<text text-anchor="middle" x="1254" y="-199.8" font-family="Times,serif" font-size="14.00" fill="#2f3638">handle_Encode</text>
</g>
<!-- GenIndexValueNew&#45;&gt;encodeCommonHandle -->
<g id="edge8" class="edge">
<title>GenIndexValueNew&#45;&gt;encodeCommonHandle</title>
<path fill="none" stroke="#666666" d="M649.02,-183.14C656.85,-186.46 664.74,-190.12 672,-194 689.17,-203.19 689.41,-213.18 708,-219 798.51,-247.34 904.95,-246.81 989.7,-238.97"/>
<polygon fill="#666666" stroke="#666666" points="990.05,-242.45 999.67,-238.01 989.38,-235.49 990.05,-242.45"/>
</g>
<!-- EncodeHandleInUniqueIndexValue -->
<g id="node9" class="node">
<title>EncodeHandleInUniqueIndexValue</title>
<path fill="none" stroke="#1c2123" d="M919,-210C919,-210 734,-210 734,-210 728,-210 722,-204 722,-198 722,-198 722,-186 722,-186 722,-180 728,-174 734,-174 734,-174 919,-174 919,-174 925,-174 931,-180 931,-186 931,-186 931,-198 931,-198 931,-204 925,-210 919,-210"/>
<text text-anchor="middle" x="826.5" y="-188.3" font-family="Times,serif" font-size="14.00" fill="#2f3638">EncodeHandleInUniqueIndexValue</text>
</g>
<!-- GenIndexValueNew&#45;&gt;EncodeHandleInUniqueIndexValue -->
<g id="edge9" class="edge">
<title>GenIndexValueNew&#45;&gt;EncodeHandleInUniqueIndexValue</title>
<path fill="none" stroke="#666666" d="M660.53,-172.38C676.33,-174.26 693.82,-176.34 711.33,-178.42"/>
<polygon fill="#666666" stroke="#666666" points="711.29,-181.94 721.63,-179.65 712.12,-174.99 711.29,-181.94"/>
</g>
<!-- UnCommitIndexKVFlag -->
<g id="node10" class="node">
<title>UnCommitIndexKVFlag</title>
<path fill="none" stroke="#1c2123" d="M891,-156C891,-156 762,-156 762,-156 756,-156 750,-150 750,-144 750,-144 750,-132 750,-132 750,-126 756,-120 762,-120 762,-120 891,-120 891,-120 897,-120 903,-126 903,-132 903,-132 903,-144 903,-144 903,-150 897,-156 891,-156"/>
<text text-anchor="middle" x="826.5" y="-134.3" font-family="Times,serif" font-size="14.00" fill="#2f3638">UnCommitIndexKVFlag</text>
</g>
<!-- GenIndexValueNew&#45;&gt;UnCommitIndexKVFlag -->
<g id="edge10" class="edge">
<title>GenIndexValueNew&#45;&gt;UnCommitIndexKVFlag</title>
<path fill="none" stroke="#666666" d="M660.53,-157.62C684.97,-154.71 713.46,-151.33 739.81,-148.19"/>
<polygon fill="#666666" stroke="#666666" points="740.28,-151.66 749.79,-147 739.45,-144.71 740.28,-151.66"/>
</g>
<!-- rowcodec_Encode -->
<g id="node11" class="node">
<title>rowcodec_Encode</title>
<path fill="none" stroke="#1c2123" d="M759.5,-55C759.5,-55 893.5,-55 893.5,-55 899.5,-55 905.5,-61 905.5,-67 905.5,-67 905.5,-89 905.5,-89 905.5,-95 899.5,-101 893.5,-101 893.5,-101 759.5,-101 759.5,-101 753.5,-101 747.5,-95 747.5,-89 747.5,-89 747.5,-67 747.5,-67 747.5,-61 753.5,-55 759.5,-55"/>
<text text-anchor="middle" x="826.5" y="-85.8" font-family="Times,serif" font-size="14.00" fill="#2f3638">rowcodec_Encode</text>
<polyline fill="none" stroke="#1c2123" points="747.5,-78 905.5,-78 "/>
<text text-anchor="middle" x="826.5" y="-62.8" font-family="Times,serif" font-size="14.00" fill="#2f3638">encode rowRestoredValue</text>
</g>
<!-- GenIndexValueNew&#45;&gt;rowcodec_Encode -->
<g id="edge11" class="edge">
<title>GenIndexValueNew&#45;&gt;rowcodec_Encode</title>
<path fill="none" stroke="#666666" d="M631.33,-146.82C652.72,-135.48 681.48,-121.16 708,-111 717.52,-107.35 727.61,-103.91 737.73,-100.72"/>
<polygon fill="#666666" stroke="#666666" points="738.88,-104.03 747.41,-97.75 736.83,-97.34 738.88,-104.03"/>
</g>
<!-- NewCollationEnabled -->
<g id="node12" class="node">
<title>NewCollationEnabled</title>
<path fill="none" stroke="#1c2123" d="M883,-36C883,-36 770,-36 770,-36 764,-36 758,-30 758,-24 758,-24 758,-12 758,-12 758,-6 764,0 770,0 770,0 883,0 883,0 889,0 895,-6 895,-12 895,-12 895,-24 895,-24 895,-30 889,-36 883,-36"/>
<text text-anchor="middle" x="826.5" y="-14.3" font-family="Times,serif" font-size="14.00" fill="#2f3638">NewCollationEnabled</text>
</g>
<!-- GenIndexValueNew&#45;&gt;NewCollationEnabled -->
<g id="edge12" class="edge">
<title>GenIndexValueNew&#45;&gt;NewCollationEnabled</title>
<path fill="none" stroke="#666666" d="M609.84,-146.76C627.43,-120.07 663.92,-70.74 708,-45 720.15,-37.91 734.01,-32.68 747.85,-28.82"/>
<polygon fill="#666666" stroke="#666666" points="749.09,-32.12 757.91,-26.25 747.35,-25.34 749.09,-32.12"/>
</g>
<!-- PartitionIDFlag -->
<g id="node13" class="node">
<title>PartitionIDFlag</title>
<path fill="none" stroke="#1c2123" d="M1181,-327C1181,-327 1104,-327 1104,-327 1098,-327 1092,-321 1092,-315 1092,-315 1092,-303 1092,-303 1092,-297 1098,-291 1104,-291 1104,-291 1181,-291 1181,-291 1187,-291 1193,-297 1193,-303 1193,-303 1193,-315 1193,-315 1193,-321 1187,-327 1181,-327"/>
<text text-anchor="middle" x="1142.5" y="-305.3" font-family="Times,serif" font-size="14.00" fill="#2f3638">PartitionIDFlag</text>
</g>
<!-- encodePartitionID&#45;&gt;PartitionIDFlag -->
<g id="edge13" class="edge">
<title>encodePartitionID&#45;&gt;PartitionIDFlag</title>
<path fill="none" stroke="#666666" d="M945.32,-309C991.8,-309 1043.18,-309 1081.7,-309"/>
<polygon fill="#666666" stroke="#666666" points="1081.7,-312.5 1091.7,-309 1081.7,-305.5 1081.7,-312.5"/>
</g>
<!-- CommonHandleFlag -->
<g id="node14" class="node">
<title>CommonHandleFlag</title>
<path fill="none" stroke="#1c2123" d="M1459,-233C1459,-233 1352,-233 1352,-233 1346,-233 1340,-227 1340,-221 1340,-221 1340,-209 1340,-209 1340,-203 1346,-197 1352,-197 1352,-197 1459,-197 1459,-197 1465,-197 1471,-203 1471,-209 1471,-209 1471,-221 1471,-221 1471,-227 1465,-233 1459,-233"/>
<text text-anchor="middle" x="1405.5" y="-211.3" font-family="Times,serif" font-size="14.00" fill="#2f3638">CommonHandleFlag</text>
</g>
<!-- encodeCommonHandle&#45;&gt;CommonHandleFlag -->
<g id="edge14" class="edge">
<title>encodeCommonHandle&#45;&gt;CommonHandleFlag</title>
<path fill="none" stroke="#666666" d="M1304.34,-215C1313.04,-215 1321.55,-215 1329.71,-215"/>
<polygon fill="#666666" stroke="#666666" points="1329.84,-218.5 1339.84,-215 1329.84,-211.5 1329.84,-218.5"/>
</g>
<!-- EncodeHandleInUniqueIndexValue&#45;&gt;encodeCommonHandle -->
<g id="edge15" class="edge">
<title>EncodeHandleInUniqueIndexValue&#45;&gt;encodeCommonHandle</title>
<path fill="none" stroke="#666666" d="M931.19,-199.59C943.93,-200.53 957.2,-201.5 970.61,-202.48"/>
<polygon fill="#666666" stroke="#666666" points="970.65,-205.99 980.88,-203.23 971.16,-199.01 970.65,-205.99"/>
</g>
</g>
</svg>
