<?xml version="1.0" encoding="UTF-8" standalone="no"?>
<!DOCTYPE svg PUBLIC "-//W3C//DTD SVG 1.1//EN"
 "http://www.w3.org/Graphics/SVG/1.1/DTD/svg11.dtd">
<!-- Generated by graphviz version 2.44.1 (20200629.0846)
 -->
<!-- Title: HashAggExec_Next Pages: 1 -->
<svg width="2378pt" height="1127pt"
 viewBox="0.00 0.00 2378.00 1126.50" xmlns="http://www.w3.org/2000/svg" xmlns:xlink="http://www.w3.org/1999/xlink">
<g id="graph0" class="graph" transform="scale(1 1) rotate(0) translate(4 1122.5)">
<title>HashAggExec_Next</title>
<polygon fill="white" stroke="transparent" points="-4,4 -4,-1122.5 2374,-1122.5 2374,4 -4,4"/>
<g id="clust1" class="cluster">
<title>cluster_AggFunc</title>
<path fill="none" stroke="slategrey" stroke-dasharray="5,2" d="M1382,-628C1382,-628 2300.5,-628 2300.5,-628 2306.5,-628 2312.5,-634 2312.5,-640 2312.5,-640 2312.5,-752 2312.5,-752 2312.5,-758 2306.5,-764 2300.5,-764 2300.5,-764 1382,-764 1382,-764 1376,-764 1370,-758 1370,-752 1370,-752 1370,-640 1370,-640 1370,-634 1376,-628 1382,-628"/>
<text text-anchor="middle" x="1841.25" y="-744" font-family="Times,serif" font-size="20.00">AggFunc</text>
</g>
<g id="clust9" class="cluster">
<title>cluster_baseHashAggWorker</title>
<path fill="none" stroke="slategrey" stroke-dasharray="5,2" d="M1937,-499C1937,-499 2098,-499 2098,-499 2104,-499 2110,-505 2110,-511 2110,-511 2110,-569 2110,-569 2110,-575 2104,-581 2098,-581 2098,-581 1937,-581 1937,-581 1931,-581 1925,-575 1925,-569 1925,-569 1925,-511 1925,-511 1925,-505 1931,-499 1937,-499"/>
<text text-anchor="middle" x="2017.5" y="-561" font-family="Times,serif" font-size="20.00">baseHashAggWorker</text>
</g>
<g id="clust10" class="cluster">
<title>cluster_HashAggFinalWorker</title>
<path fill="none" stroke="slategrey" stroke-dasharray="5,2" d="M1007,-772C1007,-772 1871,-772 1871,-772 1877,-772 1883,-778 1883,-784 1883,-784 1883,-1006 1883,-1006 1883,-1012 1877,-1018 1871,-1018 1871,-1018 1007,-1018 1007,-1018 1001,-1018 995,-1012 995,-1006 995,-1006 995,-784 995,-784 995,-778 1001,-772 1007,-772"/>
<text text-anchor="middle" x="1439" y="-998" font-family="Times,serif" font-size="20.00">HashAggFinalWorker</text>
</g>
<g id="clust17" class="cluster">
<title>cluster_HashAggPartialWorker</title>
<path fill="none" stroke="slategrey" stroke-dasharray="5,2" d="M783,-230C783,-230 2350,-230 2350,-230 2356,-230 2362,-236 2362,-242 2362,-242 2362,-440 2362,-440 2362,-446 2356,-452 2350,-452 2350,-452 783,-452 783,-452 777,-452 771,-446 771,-440 771,-440 771,-242 771,-242 771,-236 777,-230 783,-230"/>
<text text-anchor="middle" x="1566.5" y="-432" font-family="Times,serif" font-size="20.00">HashAggPartialWorker</text>
</g>
<!-- af_UpdatePartialResult -->
<g id="node1" class="node">
<title>af_UpdatePartialResult</title>
<polygon fill="none" stroke="black" points="1706,-637 1706,-673 1831,-673 1831,-637 1706,-637"/>
<text text-anchor="middle" x="1768.5" y="-651.3" font-family="Times,serif" font-size="14.00">UpdatePartialResult</text>
</g>
<!-- AllocPartialResult -->
<g id="node2" class="node">
<title>AllocPartialResult</title>
<polygon fill="none" stroke="black" points="2304.5,-672 2188.5,-672 2188.5,-636 2304.5,-636 2304.5,-672"/>
<text text-anchor="middle" x="2246.5" y="-650.3" font-family="Times,serif" font-size="14.00">AllocPartialResult</text>
</g>
<!-- MergePartialResult -->
<g id="node3" class="node">
<title>MergePartialResult</title>
<polygon fill="none" stroke="black" points="1521,-726 1399,-726 1399,-690 1521,-690 1521,-726"/>
<text text-anchor="middle" x="1460" y="-704.3" font-family="Times,serif" font-size="14.00">MergePartialResult</text>
</g>
<!-- AppendFinalResult2Chunk -->
<g id="node4" class="node">
<title>AppendFinalResult2Chunk</title>
<polygon fill="none" stroke="black" points="1542,-672 1378,-672 1378,-636 1542,-636 1542,-672"/>
<text text-anchor="middle" x="1460" y="-650.3" font-family="Times,serif" font-size="14.00">AppendFinalResult2Chunk</text>
</g>
<!-- Open -->
<g id="node5" class="node">
<title>Open</title>
<polygon fill="none" stroke="black" points="305,-124 251,-124 251,-88 305,-88 305,-124"/>
<text text-anchor="middle" x="278" y="-102.3" font-family="Times,serif" font-size="14.00">Open</text>
</g>
<!-- isUnparallelExec -->
<g id="node6" class="node">
<title>isUnparallelExec</title>
<polygon fill="none" stroke="black" points="605.5,-178 495.5,-178 495.5,-142 605.5,-142 605.5,-178"/>
<text text-anchor="middle" x="550.5" y="-156.3" font-family="Times,serif" font-size="14.00">isUnparallelExec</text>
</g>
<!-- Open&#45;&gt;isUnparallelExec -->
<g id="edge1" class="edge">
<title>Open&#45;&gt;isUnparallelExec</title>
<path fill="none" stroke="#666666" d="M305.43,-111.28C346.75,-119.53 427.86,-135.72 485.21,-147.17"/>
<polygon fill="#666666" stroke="#666666" points="484.78,-150.65 495.27,-149.17 486.15,-143.78 484.78,-150.65"/>
</g>
<!-- initForParallelExec -->
<g id="node7" class="node">
<title>initForParallelExec</title>
<polygon fill="none" stroke="black" points="611.5,-124 489.5,-124 489.5,-88 611.5,-88 611.5,-124"/>
<text text-anchor="middle" x="550.5" y="-102.3" font-family="Times,serif" font-size="14.00">initForParallelExec</text>
</g>
<!-- Open&#45;&gt;initForParallelExec -->
<g id="edge2" class="edge">
<title>Open&#45;&gt;initForParallelExec</title>
<path fill="none" stroke="#666666" d="M305.43,-106C345.37,-106 422.49,-106 479.39,-106"/>
<polygon fill="#666666" stroke="#666666" points="479.41,-109.5 489.41,-106 479.41,-102.5 479.41,-109.5"/>
</g>
<!-- initForUnparallelExec -->
<g id="node8" class="node">
<title>initForUnparallelExec</title>
<polygon fill="none" stroke="black" points="619,-70 482,-70 482,-34 619,-34 619,-70"/>
<text text-anchor="middle" x="550.5" y="-48.3" font-family="Times,serif" font-size="14.00">initForUnparallelExec</text>
</g>
<!-- Open&#45;&gt;initForUnparallelExec -->
<g id="edge3" class="edge">
<title>Open&#45;&gt;initForUnparallelExec</title>
<path fill="none" stroke="#666666" d="M305.43,-100.72C343.68,-93.09 416.02,-78.65 472.05,-67.46"/>
<polygon fill="#666666" stroke="#666666" points="472.84,-70.87 481.96,-65.48 471.47,-64.01 472.84,-70.87"/>
</g>
<!-- inputCh -->
<g id="node31" class="node">
<title>inputCh</title>
<polygon fill="none" stroke="black" points="757,-75 757,-167 966,-167 966,-75 757,-75"/>
<text text-anchor="middle" x="861.5" y="-151.8" font-family="Times,serif" font-size="14.00">inputCh</text>
<polyline fill="none" stroke="black" points="757,-144 966,-144 "/>
<text text-anchor="middle" x="861.5" y="-128.8" font-family="Times,serif" font-size="14.00">[] chan *HashAggInput</text>
<polyline fill="none" stroke="black" points="757,-121 966,-121 "/>
<text text-anchor="start" x="765" y="-105.8" font-family="Times,serif" font-size="14.00">chk *chunk.Chunk</text>
<polyline fill="none" stroke="black" points="757,-98 966,-98 "/>
<text text-anchor="start" x="765" y="-82.8" font-family="Times,serif" font-size="14.00">giveBackCh chan&lt;&#45; *chunk.Chunk</text>
</g>
<!-- initForParallelExec&#45;&gt;inputCh -->
<g id="edge33" class="edge">
<title>initForParallelExec&#45;&gt;inputCh</title>
<path fill="none" stroke="#666666" d="M611.81,-108.93C650.1,-110.79 700.87,-113.25 746.55,-115.47"/>
<polygon fill="#666666" stroke="#666666" points="746.67,-118.98 756.82,-115.97 747.01,-111.99 746.67,-118.98"/>
</g>
<!-- Next -->
<g id="node9" class="node">
<title>Next</title>
<polygon fill="none" stroke="black" points="54,-36 0,-36 0,0 54,0 54,-36"/>
<text text-anchor="middle" x="27" y="-14.3" font-family="Times,serif" font-size="14.00">Next</text>
</g>
<!-- unparallelExec -->
<g id="node10" class="node">
<title>unparallelExec</title>
<polygon fill="none" stroke="black" points="1311,-188 1213,-188 1213,-152 1311,-152 1311,-188"/>
<text text-anchor="middle" x="1262" y="-166.3" font-family="Times,serif" font-size="14.00">unparallelExec</text>
</g>
<!-- Next&#45;&gt;unparallelExec -->
<g id="edge4" class="edge">
<title>Next&#45;&gt;unparallelExec</title>
<path fill="none" stroke="#666666" d="M54.41,-13.26C75.37,-9.9 105.46,-6 132,-6 132,-6 132,-6 1083,-6 1162.8,-6 1222.16,-96.26 1247.49,-142.86"/>
<polygon fill="#666666" stroke="#666666" points="1244.47,-144.62 1252.24,-151.82 1250.65,-141.35 1244.47,-144.62"/>
</g>
<!-- parallelExec -->
<g id="node11" class="node">
<title>parallelExec</title>
<polygon fill="none" stroke="black" points="175,-340 91,-340 91,-304 175,-304 175,-340"/>
<text text-anchor="middle" x="133" y="-318.3" font-family="Times,serif" font-size="14.00">parallelExec</text>
</g>
<!-- Next&#45;&gt;parallelExec -->
<g id="edge5" class="edge">
<title>Next&#45;&gt;parallelExec</title>
<path fill="none" stroke="#666666" d="M34.19,-36.11C51.68,-87.22 101.51,-232.87 122.5,-294.22"/>
<polygon fill="#666666" stroke="#666666" points="119.29,-295.66 125.84,-303.99 125.91,-293.39 119.29,-295.66"/>
</g>
<!-- unparallelExec&#45;&gt;AppendFinalResult2Chunk -->
<g id="edge6" class="edge">
<title>unparallelExec&#45;&gt;AppendFinalResult2Chunk</title>
<path fill="none" stroke="#666666" d="M1290.94,-188.08C1303.66,-197.78 1317.69,-210.86 1326,-226 1375.8,-316.77 1331.86,-357.26 1363,-456 1383.28,-520.32 1421.24,-590.09 1442.86,-627.2"/>
<polygon fill="#666666" stroke="#666666" points="1439.89,-629.07 1447.98,-635.91 1445.93,-625.52 1439.89,-629.07"/>
</g>
<!-- execute -->
<g id="node12" class="node">
<title>execute</title>
<polygon fill="none" stroke="black" points="1489,-222 1431,-222 1431,-186 1489,-186 1489,-222"/>
<text text-anchor="middle" x="1460" y="-200.3" font-family="Times,serif" font-size="14.00">execute</text>
</g>
<!-- unparallelExec&#45;&gt;execute -->
<g id="edge7" class="edge">
<title>unparallelExec&#45;&gt;execute</title>
<path fill="none" stroke="#666666" d="M1311.2,-178.36C1345.01,-184.23 1389.59,-191.96 1420.91,-197.39"/>
<polygon fill="#666666" stroke="#666666" points="1420.54,-200.88 1430.99,-199.14 1421.74,-193.98 1420.54,-200.88"/>
</g>
<!-- getPartialResults -->
<g id="node13" class="node">
<title>getPartialResults</title>
<polygon fill="none" stroke="black" points="1822.5,-188 1714.5,-188 1714.5,-152 1822.5,-152 1822.5,-188"/>
<text text-anchor="middle" x="1768.5" y="-166.3" font-family="Times,serif" font-size="14.00">getPartialResults</text>
</g>
<!-- unparallelExec&#45;&gt;getPartialResults -->
<g id="edge8" class="edge">
<title>unparallelExec&#45;&gt;getPartialResults</title>
<path fill="none" stroke="#666666" d="M1311.37,-170C1403.05,-170 1602.05,-170 1704.2,-170"/>
<polygon fill="#666666" stroke="#666666" points="1704.37,-173.5 1714.37,-170 1704.37,-166.5 1704.37,-173.5"/>
</g>
<!-- prepare4ParallelExec -->
<g id="node15" class="node">
<title>prepare4ParallelExec</title>
<polygon fill="none" stroke="black" points="344,-340 212,-340 212,-304 344,-304 344,-340"/>
<text text-anchor="middle" x="278" y="-318.3" font-family="Times,serif" font-size="14.00">prepare4ParallelExec</text>
</g>
<!-- parallelExec&#45;&gt;prepare4ParallelExec -->
<g id="edge12" class="edge">
<title>parallelExec&#45;&gt;prepare4ParallelExec</title>
<path fill="none" stroke="#666666" d="M175.36,-322C183.63,-322 192.56,-322 201.57,-322"/>
<polygon fill="#666666" stroke="#666666" points="201.75,-325.5 211.75,-322 201.75,-318.5 201.75,-325.5"/>
</g>
<!-- finalOutputCh -->
<g id="node16" class="node">
<title>finalOutputCh</title>
<polygon fill="#95e1d3" stroke="black" points="1721.5,-1082 1721.5,-1118 1815.5,-1118 1815.5,-1082 1721.5,-1082"/>
<text text-anchor="middle" x="1768.5" y="-1096.3" font-family="Times,serif" font-size="14.00">finalOutputCh</text>
</g>
<!-- parallelExec&#45;&gt;finalOutputCh -->
<g id="edge13" class="edge">
<title>parallelExec&#45;&gt;finalOutputCh</title>
<path fill="none" stroke="#666666" d="M135.35,-340.09C144.28,-456.9 197.09,-1100 277,-1100 277,-1100 277,-1100 1461,-1100 1548.27,-1100 1649.53,-1100 1711.02,-1100"/>
<polygon fill="#666666" stroke="#666666" points="1711.29,-1103.5 1721.29,-1100 1711.29,-1096.5 1711.29,-1103.5"/>
</g>
<!-- execute&#45;&gt;af_UpdatePartialResult -->
<g id="edge9" class="edge">
<title>execute&#45;&gt;af_UpdatePartialResult</title>
<path fill="none" stroke="#666666" d="M1489.02,-202.21C1510.97,-202.48 1540.47,-206.84 1557,-226 1590.49,-264.82 1547.75,-412.57 1575,-456 1588.13,-476.92 1604.09,-468.12 1623,-484 1675.4,-528.02 1724.08,-592.38 1749.37,-628.28"/>
<polygon fill="#666666" stroke="#666666" points="1746.69,-630.56 1755.28,-636.76 1752.43,-626.56 1746.69,-630.56"/>
</g>
<!-- execute&#45;&gt;getPartialResults -->
<g id="edge10" class="edge">
<title>execute&#45;&gt;getPartialResults</title>
<path fill="none" stroke="#666666" d="M1489.01,-200.89C1537.41,-195.52 1637.82,-184.38 1703.92,-177.05"/>
<polygon fill="#666666" stroke="#666666" points="1704.66,-180.49 1714.22,-175.91 1703.89,-173.53 1704.66,-180.49"/>
</g>
<!-- getGroupKey -->
<g id="node14" class="node">
<title>getGroupKey</title>
<polygon fill="none" stroke="black" points="1675.5,-309.5 1675.5,-370.5 1861.5,-370.5 1861.5,-309.5 1675.5,-309.5"/>
<text text-anchor="middle" x="1768.5" y="-355.3" font-family="Times,serif" font-size="14.00">getGroupKey</text>
<polyline fill="none" stroke="black" points="1675.5,-347.5 1861.5,-347.5 "/>
<text text-anchor="start" x="1683.5" y="-332.3" font-family="Times,serif" font-size="14.00">evaluates the group items </text>
<text text-anchor="start" x="1683.5" y="-317.3" font-family="Times,serif" font-size="14.00"> and args of aggregate function</text>
</g>
<!-- execute&#45;&gt;getGroupKey -->
<g id="edge11" class="edge">
<title>execute&#45;&gt;getGroupKey</title>
<path fill="none" stroke="#666666" d="M1489.31,-208.4C1508.75,-211.93 1534.92,-217.67 1557,-226 1611.82,-246.68 1670.09,-279.16 1711.4,-304.16"/>
<polygon fill="#666666" stroke="#666666" points="1709.59,-307.16 1719.95,-309.38 1713.23,-301.18 1709.59,-307.16"/>
</g>
<!-- getPartialResult -->
<g id="node22" class="node">
<title>getPartialResult</title>
<polygon fill="none" stroke="black" points="2069,-543 1966,-543 1966,-507 2069,-507 2069,-543"/>
<text text-anchor="middle" x="2017.5" y="-521.3" font-family="Times,serif" font-size="14.00">getPartialResult</text>
</g>
<!-- getGroupKey&#45;&gt;getPartialResult -->
<g id="edge47" class="edge">
<title>getGroupKey&#45;&gt;getPartialResult</title>
<path fill="none" stroke="blue" stroke-dasharray="5,2" d="M1861.62,-367.43C1881.76,-377.31 1901.16,-390.51 1915,-408 1928.52,-425.09 1913.33,-437.6 1925,-456 1936.7,-474.46 1955.21,-489.78 1972.53,-501.26"/>
<polygon fill="blue" stroke="blue" points="1971.11,-504.51 1981.43,-506.91 1974.86,-498.6 1971.11,-504.51"/>
</g>
<!-- HashAggPartialWorker_run -->
<g id="node17" class="node">
<title>HashAggPartialWorker_run</title>
<polygon fill="none" stroke="black" points="779,-334 779,-380 944,-380 944,-334 779,-334"/>
<text text-anchor="start" x="787" y="-364.8" font-family="Times,serif" font-size="14.00">HashAggPartialWorker.run</text>
<polyline fill="none" stroke="black" points="779,-357 944,-357 "/>
<text text-anchor="start" x="787" y="-341.8" font-family="Times,serif" font-size="14.00">读取child数据</text>
</g>
<!-- prepare4ParallelExec&#45;&gt;HashAggPartialWorker_run -->
<g id="edge14" class="edge">
<title>prepare4ParallelExec&#45;&gt;HashAggPartialWorker_run</title>
<path fill="none" stroke="#666666" d="M344.01,-335.45C372.16,-340.69 405.58,-346.11 436,-349 550.35,-359.85 682.78,-360.45 768.9,-359.27"/>
<polygon fill="#666666" stroke="#666666" points="768.97,-362.77 778.91,-359.12 768.86,-355.77 768.97,-362.77"/>
<text text-anchor="middle" x="550.5" y="-362.8" font-family="Times,serif" font-size="14.00">go routine</text>
</g>
<!-- HashAggFinalWorker_run -->
<g id="node18" class="node">
<title>HashAggFinalWorker_run</title>
<polygon fill="none" stroke="black" points="1003,-807 1003,-843 1161,-843 1161,-807 1003,-807"/>
<text text-anchor="middle" x="1082" y="-821.3" font-family="Times,serif" font-size="14.00">HashAggFinalWorker.run</text>
</g>
<!-- prepare4ParallelExec&#45;&gt;HashAggFinalWorker_run -->
<g id="edge15" class="edge">
<title>prepare4ParallelExec&#45;&gt;HashAggFinalWorker_run</title>
<path fill="none" stroke="#666666" d="M308.02,-340.2C430.57,-417.06 905.81,-715.13 1043.45,-801.45"/>
<polygon fill="#666666" stroke="#666666" points="1041.69,-804.48 1052.02,-806.83 1045.41,-798.55 1041.69,-804.48"/>
<text text-anchor="middle" x="711" y="-613.8" font-family="Times,serif" font-size="14.00">go routine</text>
</g>
<!-- fetchChildData -->
<g id="node19" class="node">
<title>fetchChildData</title>
<polygon fill="none" stroke="black" points="600,-232 501,-232 501,-196 600,-196 600,-232"/>
<text text-anchor="middle" x="550.5" y="-210.3" font-family="Times,serif" font-size="14.00">fetchChildData</text>
</g>
<!-- prepare4ParallelExec&#45;&gt;fetchChildData -->
<g id="edge16" class="edge">
<title>prepare4ParallelExec&#45;&gt;fetchChildData</title>
<path fill="none" stroke="#666666" d="M310.67,-303.82C326.04,-295.16 344.85,-284.8 362,-276 394.37,-259.4 401.67,-253.05 436,-241 453.41,-234.89 472.81,-229.7 490.57,-225.56"/>
<polygon fill="#666666" stroke="#666666" points="491.83,-228.87 500.81,-223.25 490.29,-222.04 491.83,-228.87"/>
<text text-anchor="middle" x="390" y="-279.8" font-family="Times,serif" font-size="14.00">go routine</text>
</g>
<!-- waitFinalWorkerAndCloseFinalOutput -->
<g id="node20" class="node">
<title>waitFinalWorkerAndCloseFinalOutput</title>
<polygon fill="none" stroke="black" points="664.5,-286 436.5,-286 436.5,-250 664.5,-250 664.5,-286"/>
<text text-anchor="middle" x="550.5" y="-264.3" font-family="Times,serif" font-size="14.00">waitFinalWorkerAndCloseFinalOutput</text>
</g>
<!-- prepare4ParallelExec&#45;&gt;waitFinalWorkerAndCloseFinalOutput -->
<g id="edge17" class="edge">
<title>prepare4ParallelExec&#45;&gt;waitFinalWorkerAndCloseFinalOutput</title>
<path fill="none" stroke="#666666" d="M344.14,-309C375.64,-302.71 414.17,-295.02 449.3,-288"/>
<polygon fill="#666666" stroke="#666666" points="450,-291.43 459.12,-286.04 448.62,-284.57 450,-291.43"/>
</g>
<!-- waitPartialWorkerAndCloseOutputChs -->
<g id="node21" class="node">
<title>waitPartialWorkerAndCloseOutputChs</title>
<polygon fill="none" stroke="black" points="665,-340 436,-340 436,-304 665,-304 665,-340"/>
<text text-anchor="middle" x="550.5" y="-318.3" font-family="Times,serif" font-size="14.00">waitPartialWorkerAndCloseOutputChs</text>
</g>
<!-- prepare4ParallelExec&#45;&gt;waitPartialWorkerAndCloseOutputChs -->
<g id="edge18" class="edge">
<title>prepare4ParallelExec&#45;&gt;waitPartialWorkerAndCloseOutputChs</title>
<path fill="none" stroke="#666666" d="M344.14,-322C368.64,-322 397.39,-322 425.49,-322"/>
<polygon fill="#666666" stroke="#666666" points="425.8,-325.5 435.8,-322 425.8,-318.5 425.8,-325.5"/>
</g>
<!-- shuffleIntermData -->
<g id="node33" class="node">
<title>shuffleIntermData</title>
<polygon fill="none" stroke="black" points="1320,-274 1204,-274 1204,-238 1320,-238 1320,-274"/>
<text text-anchor="middle" x="1262" y="-252.3" font-family="Times,serif" font-size="14.00">shuffleIntermData</text>
</g>
<!-- HashAggPartialWorker_run&#45;&gt;shuffleIntermData -->
<g id="edge35" class="edge">
<title>HashAggPartialWorker_run&#45;&gt;shuffleIntermData</title>
<path fill="none" stroke="#666666" d="M898.09,-333.95C923.94,-318.36 960.31,-298.73 995,-288 1060.65,-267.7 1139.11,-260.17 1193.73,-257.44"/>
<polygon fill="#666666" stroke="#666666" points="1194.16,-260.92 1203.99,-256.96 1193.84,-253.93 1194.16,-260.92"/>
</g>
<!-- getChildInput -->
<g id="node34" class="node">
<title>getChildInput</title>
<polygon fill="none" stroke="black" points="1128,-333 1036,-333 1036,-297 1128,-297 1128,-333"/>
<text text-anchor="middle" x="1082" y="-311.3" font-family="Times,serif" font-size="14.00">getChildInput</text>
</g>
<!-- HashAggPartialWorker_run&#45;&gt;getChildInput -->
<g id="edge36" class="edge">
<title>HashAggPartialWorker_run&#45;&gt;getChildInput</title>
<path fill="none" stroke="#666666" d="M944.17,-341.3C971.45,-336.06 1001.17,-330.34 1025.93,-325.59"/>
<polygon fill="#666666" stroke="#666666" points="1026.7,-329 1035.86,-323.68 1025.38,-322.13 1026.7,-329"/>
</g>
<!-- updatePartialResult -->
<g id="node35" class="node">
<title>updatePartialResult</title>
<polygon fill="none" stroke="black" points="1521,-358 1399,-358 1399,-322 1521,-322 1521,-358"/>
<text text-anchor="middle" x="1460" y="-336.3" font-family="Times,serif" font-size="14.00">updatePartialResult</text>
</g>
<!-- HashAggPartialWorker_run&#45;&gt;updatePartialResult -->
<g id="edge37" class="edge">
<title>HashAggPartialWorker_run&#45;&gt;updatePartialResult</title>
<path fill="none" stroke="#666666" d="M944.34,-353.62C1019.03,-351.68 1123.34,-352.2 1161,-368 1181.87,-376.76 1176.97,-394.63 1198,-403 1250.86,-424.04 1273.14,-424.04 1326,-403 1347.03,-394.63 1343.36,-379.26 1363,-368 1371.16,-363.32 1380.17,-359.37 1389.29,-356.04"/>
<polygon fill="#666666" stroke="#666666" points="1390.48,-359.34 1398.82,-352.8 1388.23,-352.71 1390.48,-359.34"/>
</g>
<!-- globalOutputCh -->
<g id="node36" class="node">
<title>globalOutputCh</title>
<polygon fill="#95e1d3" stroke="black" points="1030,-377 1030,-413 1134,-413 1134,-377 1030,-377"/>
<text text-anchor="middle" x="1082" y="-391.3" font-family="Times,serif" font-size="14.00">globalOutputCh</text>
</g>
<!-- HashAggPartialWorker_run&#45;&gt;globalOutputCh -->
<g id="edge38" class="edge">
<title>HashAggPartialWorker_run&#45;&gt;globalOutputCh</title>
<path fill="none" stroke="#666666" d="M944.17,-371.2C969.2,-375.56 996.29,-380.27 1019.71,-384.34"/>
<polygon fill="#666666" stroke="#666666" points="1019.39,-387.84 1029.85,-386.1 1020.59,-380.94 1019.39,-387.84"/>
</g>
<!-- HashAggFinalWorker_outputCh -->
<g id="node23" class="node">
<title>HashAggFinalWorker_outputCh</title>
<polygon fill="#95e1d3" stroke="black" points="1363,-943 1363,-979 1557,-979 1557,-943 1363,-943"/>
<text text-anchor="middle" x="1460" y="-957.3" font-family="Times,serif" font-size="14.00">HashAggFinalWorker_outputCh</text>
</g>
<!-- HashAggFinalWorker_run&#45;&gt;HashAggFinalWorker_outputCh -->
<g id="edge19" class="edge">
<title>HashAggFinalWorker_run&#45;&gt;HashAggFinalWorker_outputCh</title>
<path fill="none" stroke="#666666" d="M1118.5,-843.05C1140.98,-854.14 1170.83,-868.22 1198,-879 1269.72,-907.45 1289.29,-910.19 1363,-933 1370.61,-935.35 1378.57,-937.76 1386.51,-940.13"/>
<polygon fill="#666666" stroke="#666666" points="1385.59,-943.51 1396.17,-942.99 1387.58,-936.8 1385.59,-943.51"/>
</g>
<!-- consumeIntermData -->
<g id="node24" class="node">
<title>consumeIntermData</title>
<polygon fill="none" stroke="black" points="1326,-816 1198,-816 1198,-780 1326,-780 1326,-816"/>
<text text-anchor="middle" x="1262" y="-794.3" font-family="Times,serif" font-size="14.00">consumeIntermData</text>
</g>
<!-- HashAggFinalWorker_run&#45;&gt;consumeIntermData -->
<g id="edge20" class="edge">
<title>HashAggFinalWorker_run&#45;&gt;consumeIntermData</title>
<path fill="none" stroke="#666666" d="M1161.07,-813.16C1170.03,-811.8 1179.14,-810.42 1188.03,-809.07"/>
<polygon fill="#666666" stroke="#666666" points="1188.59,-812.52 1197.95,-807.56 1187.54,-805.6 1188.59,-812.52"/>
</g>
<!-- getFinalResult -->
<g id="node25" class="node">
<title>getFinalResult</title>
<polygon fill="none" stroke="black" points="1309.5,-870 1214.5,-870 1214.5,-834 1309.5,-834 1309.5,-870"/>
<text text-anchor="middle" x="1262" y="-848.3" font-family="Times,serif" font-size="14.00">getFinalResult</text>
</g>
<!-- HashAggFinalWorker_run&#45;&gt;getFinalResult -->
<g id="edge21" class="edge">
<title>HashAggFinalWorker_run&#45;&gt;getFinalResult</title>
<path fill="none" stroke="#666666" d="M1161.07,-836.84C1175.59,-839.04 1190.5,-841.31 1204.22,-843.39"/>
<polygon fill="#666666" stroke="#666666" points="1204.05,-846.9 1214.46,-844.94 1205.1,-839.98 1204.05,-846.9"/>
</g>
<!-- fetchChildData&#45;&gt;inputCh -->
<g id="edge54" class="edge">
<title>fetchChildData&#45;&gt;inputCh:giveBackCh</title>
<path fill="none" stroke="blue" stroke-dasharray="5,2" d="M600.1,-210.11C621.43,-206.55 645.9,-199.79 665,-187 676.38,-179.38 674.2,-172.49 683,-162 710.93,-128.7 710.19,-92.21 746.84,-86.71"/>
<polygon fill="blue" stroke="blue" points="747.27,-90.19 757,-86 746.78,-83.2 747.27,-90.19"/>
</g>
<!-- Next_children -->
<g id="node32" class="node">
<title>Next_children</title>
<polygon fill="none" stroke="black" points="908.5,-222 814.5,-222 814.5,-186 908.5,-186 908.5,-222"/>
<text text-anchor="middle" x="861.5" y="-200.3" font-family="Times,serif" font-size="14.00">Next_children</text>
</g>
<!-- fetchChildData&#45;&gt;Next_children -->
<g id="edge34" class="edge">
<title>fetchChildData&#45;&gt;Next_children</title>
<path fill="none" stroke="#666666" d="M600.12,-212.43C655.44,-210.64 745.64,-207.72 804.02,-205.83"/>
<polygon fill="#666666" stroke="#666666" points="804.3,-209.32 814.18,-205.5 804.07,-202.32 804.3,-209.32"/>
</g>
<!-- getPartialResult&#45;&gt;AllocPartialResult -->
<g id="edge50" class="edge">
<title>getPartialResult&#45;&gt;AllocPartialResult</title>
<path fill="none" stroke="#666666" d="M2050.54,-543.21C2091.02,-566.21 2160.7,-605.81 2204.87,-630.91"/>
<polygon fill="#666666" stroke="#666666" points="2203.2,-633.99 2213.62,-635.88 2206.66,-627.9 2203.2,-633.99"/>
</g>
<!-- partialResultMap -->
<g id="node37" class="node">
<title>partialResultMap</title>
<polygon fill="none" stroke="black" points="2139,-239.5 2139,-338.5 2354,-338.5 2354,-239.5 2139,-239.5"/>
<text text-anchor="middle" x="2246.5" y="-323.3" font-family="Times,serif" font-size="14.00">PartialResultMap</text>
<polyline fill="none" stroke="black" points="2139,-315.5 2354,-315.5 "/>
<text text-anchor="start" x="2147" y="-300.3" font-family="Times,serif" font-size="14.00">aggPartialResultMapper</text>
<text text-anchor="start" x="2147" y="-285.3" font-family="Times,serif" font-size="14.00"> type aggPartialResultMapper</text>
<text text-anchor="middle" x="2246.5" y="-270.3" font-family="Times,serif" font-size="14.00"> map[string][]aggfuncs.PartialResult</text>
<polyline fill="none" stroke="black" points="2139,-262.5 2354,-262.5 "/>
<text text-anchor="middle" x="2246.5" y="-247.3" font-family="Times,serif" font-size="14.00"> </text>
</g>
<!-- getPartialResult&#45;&gt;partialResultMap -->
<g id="edge51" class="edge">
<title>getPartialResult&#45;&gt;partialResultMap</title>
<path fill="none" stroke="#666666" d="M2045.9,-506.97C2064.84,-493.9 2090.1,-475.2 2110,-456 2144.55,-422.66 2178.58,-380.67 2203.9,-347.14"/>
<polygon fill="#666666" stroke="#666666" points="2206.94,-348.91 2210.14,-338.81 2201.34,-344.71 2206.94,-348.91"/>
</g>
<!-- HashAggFinalWorker_outputCh&#45;&gt;finalOutputCh -->
<g id="edge31" class="edge">
<title>HashAggFinalWorker_outputCh&#45;&gt;finalOutputCh</title>
<path fill="none" stroke="#666666" d="M1481.16,-979.3C1503.01,-998.41 1539.52,-1028.3 1575,-1048 1617.46,-1071.58 1671.19,-1084.93 1711.09,-1092.19"/>
<polygon fill="#666666" stroke="#666666" points="1710.73,-1095.67 1721.18,-1093.94 1711.93,-1088.78 1710.73,-1095.67"/>
<text text-anchor="middle" x="1599" y="-1071.8" font-family="Times,serif" font-size="14.00">same ref</text>
</g>
<!-- consumeIntermData&#45;&gt;MergePartialResult -->
<g id="edge22" class="edge">
<title>consumeIntermData&#45;&gt;MergePartialResult</title>
<path fill="none" stroke="#3f72af" d="M1302.66,-779.79C1333.72,-765.53 1377.05,-745.63 1410.23,-730.4"/>
<polygon fill="#3f72af" stroke="#3f72af" points="1412.1,-733.39 1419.73,-726.03 1409.18,-727.02 1412.1,-733.39"/>
</g>
<!-- consumeIntermData&#45;&gt;getPartialResult -->
<g id="edge23" class="edge">
<title>consumeIntermData&#45;&gt;getPartialResult</title>
<path fill="none" stroke="#3f72af" d="M1265.92,-779.78C1273.56,-738.78 1298.18,-639.31 1363,-594 1546.26,-465.89 1831.95,-493.5 1955.82,-513.48"/>
<polygon fill="#3f72af" stroke="#3f72af" points="1955.44,-516.96 1965.87,-515.14 1956.58,-510.06 1955.44,-516.96"/>
</g>
<!-- getPartialInput -->
<g id="node26" class="node">
<title>getPartialInput</title>
<polygon fill="none" stroke="black" points="1508.5,-816 1411.5,-816 1411.5,-780 1508.5,-780 1508.5,-816"/>
<text text-anchor="middle" x="1460" y="-794.3" font-family="Times,serif" font-size="14.00">getPartialInput</text>
</g>
<!-- consumeIntermData&#45;&gt;getPartialInput -->
<g id="edge24" class="edge">
<title>consumeIntermData&#45;&gt;getPartialInput</title>
<path fill="none" stroke="#3f72af" d="M1326.09,-798C1350.17,-798 1377.48,-798 1401.06,-798"/>
<polygon fill="#3f72af" stroke="#3f72af" points="1401.26,-801.5 1411.26,-798 1401.26,-794.5 1401.26,-801.5"/>
</g>
<!-- getPartialResultBatch -->
<g id="node27" class="node">
<title>getPartialResultBatch</title>
<polygon fill="none" stroke="black" points="1527,-870 1393,-870 1393,-834 1527,-834 1527,-870"/>
<text text-anchor="middle" x="1460" y="-848.3" font-family="Times,serif" font-size="14.00">getPartialResultBatch</text>
</g>
<!-- consumeIntermData&#45;&gt;getPartialResultBatch -->
<g id="edge25" class="edge">
<title>consumeIntermData&#45;&gt;getPartialResultBatch</title>
<path fill="none" stroke="#3f72af" d="M1326.09,-815.38C1344.49,-820.45 1364.77,-826.04 1383.83,-831.29"/>
<polygon fill="#3f72af" stroke="#3f72af" points="1383.09,-834.72 1393.66,-834 1384.95,-827.97 1383.09,-834.72"/>
</g>
<!-- getFinalResult&#45;&gt;AppendFinalResult2Chunk -->
<g id="edge26" class="edge">
<title>getFinalResult&#45;&gt;AppendFinalResult2Chunk</title>
<path fill="none" stroke="#666666" d="M1309.7,-837.93C1315.82,-834.49 1321.51,-830.24 1326,-825 1369.01,-774.83 1316.81,-728.25 1363,-681 1364.91,-679.05 1366.94,-677.24 1369.08,-675.55"/>
<polygon fill="#666666" stroke="#666666" points="1371.47,-678.16 1377.81,-669.67 1367.56,-672.36 1371.47,-678.16"/>
</g>
<!-- getFinalResult&#45;&gt;getPartialResult -->
<g id="edge27" class="edge">
<title>getFinalResult&#45;&gt;getPartialResult</title>
<path fill="none" stroke="#666666" d="M1309.55,-838.68C1315.84,-835.12 1321.63,-830.64 1326,-825 1353.82,-789.1 1329.75,-654.94 1363,-624 1406.19,-583.81 1801.71,-544.31 1955.62,-530.32"/>
<polygon fill="#666666" stroke="#666666" points="1956.19,-533.78 1965.84,-529.4 1955.56,-526.81 1956.19,-533.78"/>
</g>
<!-- getFinalResult&#45;&gt;HashAggFinalWorker_outputCh -->
<g id="edge28" class="edge">
<title>getFinalResult&#45;&gt;HashAggFinalWorker_outputCh</title>
<path fill="none" stroke="#666666" d="M1284.56,-870.22C1311.29,-892.69 1354.39,-928.49 1363,-933 1367.25,-935.22 1371.69,-937.29 1376.25,-939.22"/>
<polygon fill="#666666" stroke="#666666" points="1375.13,-942.54 1385.72,-942.96 1377.71,-936.03 1375.13,-942.54"/>
</g>
<!-- receiveFinalResultHolder -->
<g id="node28" class="node">
<title>receiveFinalResultHolder</title>
<polygon fill="none" stroke="black" points="1537.5,-924 1382.5,-924 1382.5,-888 1537.5,-888 1537.5,-924"/>
<text text-anchor="middle" x="1460" y="-902.3" font-family="Times,serif" font-size="14.00">receiveFinalResultHolder</text>
</g>
<!-- getFinalResult&#45;&gt;receiveFinalResultHolder -->
<g id="edge29" class="edge">
<title>getFinalResult&#45;&gt;receiveFinalResultHolder</title>
<path fill="none" stroke="#666666" d="M1309.95,-864.93C1332.04,-871.02 1358.94,-878.43 1383.78,-885.27"/>
<polygon fill="#666666" stroke="#666666" points="1382.97,-888.68 1393.54,-887.97 1384.83,-881.93 1382.97,-888.68"/>
</g>
<!-- HashAggFinalWorker_inputCh -->
<g id="node29" class="node">
<title>HashAggFinalWorker_inputCh</title>
<polygon fill="none" stroke="black" points="1662,-781 1662,-827 1875,-827 1875,-781 1662,-781"/>
<text text-anchor="middle" x="1768.5" y="-811.8" font-family="Times,serif" font-size="14.00">inputCh</text>
<polyline fill="none" stroke="black" points="1662,-804 1875,-804 "/>
<text text-anchor="middle" x="1768.5" y="-788.8" font-family="Times,serif" font-size="14.00">inputCh chan *HashAggIntermData</text>
</g>
<!-- getPartialInput&#45;&gt;HashAggFinalWorker_inputCh -->
<g id="edge30" class="edge">
<title>getPartialInput&#45;&gt;HashAggFinalWorker_inputCh</title>
<path fill="none" stroke="#666666" d="M1508.55,-798.93C1546.7,-799.68 1601.88,-800.76 1651.52,-801.73"/>
<polygon fill="#666666" stroke="#666666" points="1651.62,-805.23 1661.69,-801.93 1651.76,-798.23 1651.62,-805.23"/>
</g>
<!-- HashAggFinalWorker_finalResultHolderCh -->
<g id="node30" class="node">
<title>HashAggFinalWorker_finalResultHolderCh</title>
<polygon fill="#95e1d3" stroke="black" points="1641,-1027 1641,-1063 1896,-1063 1896,-1027 1641,-1027"/>
<text text-anchor="middle" x="1768.5" y="-1041.3" font-family="Times,serif" font-size="14.00">HashAggFinalWorker_finalResultHolderCh</text>
</g>
<!-- receiveFinalResultHolder&#45;&gt;HashAggFinalWorker_finalResultHolderCh -->
<g id="edge32" class="edge">
<title>receiveFinalResultHolder&#45;&gt;HashAggFinalWorker_finalResultHolderCh</title>
<path fill="none" stroke="#666666" d="M1537.91,-919.74C1545.03,-923.45 1551.6,-928.12 1557,-934 1584.31,-963.71 1545.27,-995.71 1575,-1023 1590.62,-1037.33 1610.21,-1045.94 1630.88,-1050.78"/>
<polygon fill="#666666" stroke="#666666" points="1630.27,-1054.23 1640.77,-1052.8 1631.67,-1047.37 1630.27,-1054.23"/>
</g>
<!-- inputCh&#45;&gt;fetchChildData -->
<g id="edge53" class="edge">
<title>inputCh&#45;&gt;fetchChildData</title>
<path fill="none" stroke="blue" stroke-dasharray="5,2" d="M756.81,-157.98C727.32,-167.96 695.04,-178.38 665,-187 647.34,-192.07 627.95,-196.94 610.27,-201.11"/>
<polygon fill="blue" stroke="blue" points="609.03,-197.8 600.08,-203.48 610.61,-204.62 609.03,-197.8"/>
</g>
<!-- inputCh&#45;&gt;getChildInput -->
<g id="edge52" class="edge">
<title>inputCh:giveBackCh&#45;&gt;getChildInput</title>
<path fill="none" stroke="blue" stroke-dasharray="5,2" d="M966,-86C1054.76,-86 1075.02,-225.1 1079.64,-286.48"/>
<polygon fill="blue" stroke="blue" points="1076.16,-286.9 1080.31,-296.65 1083.14,-286.44 1076.16,-286.9"/>
</g>
<!-- shuffleIntermData&#45;&gt;partialResultMap -->
<g id="edge39" class="edge">
<title>shuffleIntermData&#45;&gt;partialResultMap</title>
<path fill="none" stroke="#666666" d="M1320.32,-264.5C1359.32,-269.56 1412.16,-275 1459,-275 1459,-275 1459,-275 2018.5,-275 2054.26,-275 2093.12,-276.75 2128.42,-279.02"/>
<polygon fill="#666666" stroke="#666666" points="2128.56,-282.53 2138.77,-279.7 2129.02,-275.55 2128.56,-282.53"/>
</g>
<!-- HashAggPartialWorker_outputChs -->
<g id="node38" class="node">
<title>HashAggPartialWorker_outputChs</title>
<polygon fill="#95e1d3" stroke="black" points="1424,-377 1424,-413 1496,-413 1496,-377 1424,-377"/>
<text text-anchor="middle" x="1460" y="-391.3" font-family="Times,serif" font-size="14.00">outputChs</text>
</g>
<!-- shuffleIntermData&#45;&gt;HashAggPartialWorker_outputChs -->
<g id="edge40" class="edge">
<title>shuffleIntermData&#45;&gt;HashAggPartialWorker_outputChs</title>
<path fill="none" stroke="#666666" d="M1314.64,-274.08C1318.75,-276.69 1322.62,-279.65 1326,-283 1354.99,-311.7 1332.33,-340.11 1363,-367 1377.08,-379.34 1396.33,-386.26 1413.9,-390.12"/>
<polygon fill="#666666" stroke="#666666" points="1413.51,-393.61 1424,-392.07 1414.84,-386.74 1413.51,-393.61"/>
</g>
<!-- chk -->
<g id="node39" class="node">
<title>chk</title>
<polygon fill="#f6d887" stroke="black" points="1202.5,-347 1202.5,-393 1321.5,-393 1321.5,-347 1202.5,-347"/>
<text text-anchor="middle" x="1262" y="-377.8" font-family="Times,serif" font-size="14.00">chk</text>
<polyline fill="none" stroke="black" points="1202.5,-370 1321.5,-370 "/>
<text text-anchor="start" x="1210.5" y="-354.8" font-family="Times,serif" font-size="14.00">chk *chunk.Chunk</text>
</g>
<!-- getChildInput&#45;&gt;chk -->
<g id="edge42" class="edge">
<title>getChildInput&#45;&gt;chk</title>
<path fill="none" stroke="#666666" d="M1128.38,-329.02C1147.85,-335.04 1171.02,-342.2 1192.51,-348.84"/>
<polygon fill="#666666" stroke="#666666" points="1191.66,-352.24 1202.24,-351.85 1193.72,-345.55 1191.66,-352.24"/>
</g>
<!-- giveBackCh -->
<g id="node40" class="node">
<title>giveBackCh</title>
<polygon fill="none" stroke="black" points="1303.5,-328 1220.5,-328 1220.5,-292 1303.5,-292 1303.5,-328"/>
<text text-anchor="middle" x="1262" y="-306.3" font-family="Times,serif" font-size="14.00">giveBackCh</text>
</g>
<!-- getChildInput&#45;&gt;giveBackCh -->
<g id="edge43" class="edge">
<title>getChildInput&#45;&gt;giveBackCh</title>
<path fill="none" stroke="#666666" d="M1128.38,-313.73C1153.27,-313.03 1184.22,-312.16 1209.95,-311.43"/>
<polygon fill="#666666" stroke="#666666" points="1210.37,-314.92 1220.27,-311.14 1210.17,-307.93 1210.37,-314.92"/>
</g>
<!-- updatePartialResult&#45;&gt;af_UpdatePartialResult -->
<g id="edge44" class="edge">
<title>updatePartialResult&#45;&gt;af_UpdatePartialResult</title>
<path fill="none" stroke="#666666" d="M1521.21,-346.58C1534.68,-350.77 1547.7,-357.45 1557,-368 1590.63,-406.15 1546.27,-439.04 1575,-481 1588.95,-501.38 1603.48,-493.87 1623,-509 1670.87,-546.1 1718.82,-598.23 1745.67,-629.12"/>
<polygon fill="#666666" stroke="#666666" points="1743.17,-631.58 1752.35,-636.86 1748.47,-627.01 1743.17,-631.58"/>
</g>
<!-- updatePartialResult&#45;&gt;getGroupKey -->
<g id="edge45" class="edge">
<title>updatePartialResult&#45;&gt;getGroupKey</title>
<path fill="none" stroke="#666666" d="M1521.19,-340C1562.2,-340 1617.53,-340 1665.36,-340"/>
<polygon fill="#666666" stroke="#666666" points="1665.45,-343.5 1675.45,-340 1665.45,-336.5 1665.45,-343.5"/>
</g>
<!-- updatePartialResult&#45;&gt;getPartialResult -->
<g id="edge46" class="edge">
<title>updatePartialResult&#45;&gt;getPartialResult</title>
<path fill="none" stroke="#666666" d="M1521.04,-357.06C1532.99,-360.58 1545.41,-364.33 1557,-368 1701.29,-413.67 1869.17,-472.49 1956.6,-503.56"/>
<polygon fill="#666666" stroke="#666666" points="1955.5,-506.88 1966.09,-506.94 1957.84,-500.29 1955.5,-506.88"/>
</g>
<!-- HashAggPartialWorker_outputChs&#45;&gt;HashAggFinalWorker_inputCh -->
<g id="edge41" class="edge">
<title>HashAggPartialWorker_outputChs&#45;&gt;HashAggFinalWorker_inputCh</title>
<path fill="none" stroke="#666666" d="M1468.67,-413.06C1499.05,-484.2 1610.66,-742.49 1641,-768 1644.74,-771.14 1648.73,-774.01 1652.91,-776.63"/>
<polygon fill="#666666" stroke="#666666" points="1651.32,-779.75 1661.74,-781.66 1654.78,-773.67 1651.32,-779.75"/>
</g>
<!-- chk&#45;&gt;af_UpdatePartialResult -->
<g id="edge49" class="edge">
<title>chk&#45;&gt;af_UpdatePartialResult</title>
<path fill="none" stroke="blue" stroke-dasharray="5,2" d="M1303.86,-393.08C1398.51,-446.55 1631.91,-578.41 1726.6,-631.9"/>
<polygon fill="blue" stroke="blue" points="1724.89,-634.95 1735.32,-636.82 1728.34,-628.86 1724.89,-634.95"/>
</g>
<!-- chk&#45;&gt;updatePartialResult -->
<g id="edge48" class="edge">
<title>chk&#45;&gt;updatePartialResult</title>
<path fill="none" stroke="blue" stroke-dasharray="5,2" d="M1321.54,-361.04C1342.67,-357.81 1366.74,-354.12 1388.76,-350.75"/>
<polygon fill="blue" stroke="blue" points="1389.37,-354.2 1398.72,-349.23 1388.31,-347.28 1389.37,-354.2"/>
</g>
</g>
</svg>
