<?xml version="1.0" encoding="UTF-8" standalone="no"?>
<!DOCTYPE svg PUBLIC "-//W3C//DTD SVG 1.1//EN"
 "http://www.w3.org/Graphics/SVG/1.1/DTD/svg11.dtd">
<!-- Generated by graphviz version 2.44.1 (20200629.0846)
 -->
<!-- Title: HashAggExec Pages: 1 -->
<svg width="1143pt" height="780pt"
 viewBox="0.00 0.00 1143.00 779.52" xmlns="http://www.w3.org/2000/svg" xmlns:xlink="http://www.w3.org/1999/xlink">
<g id="graph0" class="graph" transform="scale(1 1) rotate(0) translate(4 775.52)">
<title>HashAggExec</title>
<polygon fill="white" stroke="transparent" points="-4,4 -4,-775.52 1139,-775.52 1139,4 -4,4"/>
<!-- HashAggExec -->
<g id="node1" class="node">
<title>HashAggExec</title>
<polygon fill="none" stroke="black" points="0,-110.65 0,-685.65 272,-685.65 272,-110.65 0,-110.65"/>
<text text-anchor="middle" x="136" y="-670.45" font-family="Times,serif" font-size="14.00">HashAggExec</text>
<polyline fill="none" stroke="black" points="0,-662.65 272,-662.65 "/>
<text text-anchor="start" x="8" y="-647.45" font-family="Times,serif" font-size="14.00">sc *stmtctx.StatementContext</text>
<polyline fill="none" stroke="black" points="0,-639.65 272,-639.65 "/>
<text text-anchor="start" x="8" y="-624.45" font-family="Times,serif" font-size="14.00">PartialAggFuncs []aggfuncs.AggFunc</text>
<polyline fill="none" stroke="black" points="0,-616.65 272,-616.65 "/>
<text text-anchor="start" x="8" y="-601.45" font-family="Times,serif" font-size="14.00">FinalAggFuncs []aggfuncs.AggFunc</text>
<polyline fill="none" stroke="black" points="0,-593.65 272,-593.65 "/>
<text text-anchor="start" x="8" y="-578.45" font-family="Times,serif" font-size="14.00">partialResultMap aggPartialResultMapper</text>
<polyline fill="none" stroke="black" points="0,-570.65 272,-570.65 "/>
<text text-anchor="start" x="8" y="-555.45" font-family="Times,serif" font-size="14.00">groupSet set.StringSet</text>
<polyline fill="none" stroke="black" points="0,-547.65 272,-547.65 "/>
<text text-anchor="start" x="8" y="-532.45" font-family="Times,serif" font-size="14.00">groupKeys []string</text>
<polyline fill="none" stroke="black" points="0,-524.65 272,-524.65 "/>
<text text-anchor="start" x="8" y="-509.45" font-family="Times,serif" font-size="14.00">cursor4GroupKey int</text>
<polyline fill="none" stroke="black" points="0,-501.65 272,-501.65 "/>
<text text-anchor="start" x="8" y="-486.45" font-family="Times,serif" font-size="14.00">GroupByItems []expression.Expression</text>
<polyline fill="none" stroke="black" points="0,-478.65 272,-478.65 "/>
<text text-anchor="start" x="8" y="-463.45" font-family="Times,serif" font-size="14.00">groupKeyBuffer [][]byte</text>
<polyline fill="none" stroke="black" points="0,-455.65 272,-455.65 "/>
<text text-anchor="start" x="8" y="-440.45" font-family="Times,serif" font-size="14.00">finishCh chan struct{}</text>
<polyline fill="none" stroke="black" points="0,-432.65 272,-432.65 "/>
<text text-anchor="start" x="8" y="-417.45" font-family="Times,serif" font-size="14.00">finalOutputCh chan *AfFinalResult</text>
<polyline fill="none" stroke="black" points="0,-409.65 272,-409.65 "/>
<text text-anchor="start" x="8" y="-394.45" font-family="Times,serif" font-size="14.00">partialOutputChs []chan *HashAggIntermData</text>
<polyline fill="none" stroke="black" points="0,-386.65 272,-386.65 "/>
<text text-anchor="start" x="8" y="-371.45" font-family="Times,serif" font-size="14.00">inputCh chan *HashAggInput</text>
<polyline fill="none" stroke="black" points="0,-363.65 272,-363.65 "/>
<text text-anchor="start" x="8" y="-348.45" font-family="Times,serif" font-size="14.00">partialInputChs []chan *chunk.Chunk</text>
<polyline fill="none" stroke="black" points="0,-340.65 272,-340.65 "/>
<text text-anchor="start" x="8" y="-325.45" font-family="Times,serif" font-size="14.00">partialWorkers []HashAggPartialWorker</text>
<polyline fill="none" stroke="black" points="0,-317.65 272,-317.65 "/>
<text text-anchor="start" x="8" y="-302.45" font-family="Times,serif" font-size="14.00">finalWorkers []HashAggFinalWorker</text>
<polyline fill="none" stroke="black" points="0,-294.65 272,-294.65 "/>
<text text-anchor="start" x="8" y="-279.45" font-family="Times,serif" font-size="14.00">defaultVal *chunk.Chunk</text>
<polyline fill="none" stroke="black" points="0,-271.65 272,-271.65 "/>
<text text-anchor="start" x="8" y="-256.45" font-family="Times,serif" font-size="14.00">childResult *chunk.Chunk</text>
<polyline fill="none" stroke="black" points="0,-248.65 272,-248.65 "/>
<text text-anchor="start" x="8" y="-233.45" font-family="Times,serif" font-size="14.00">isChildReturnEmpty bool</text>
<polyline fill="none" stroke="black" points="0,-225.65 272,-225.65 "/>
<text text-anchor="start" x="8" y="-210.45" font-family="Times,serif" font-size="14.00">isUnparallelExec bool</text>
<polyline fill="none" stroke="black" points="0,-202.65 272,-202.65 "/>
<text text-anchor="start" x="8" y="-187.45" font-family="Times,serif" font-size="14.00">prepared bool</text>
<polyline fill="none" stroke="black" points="0,-179.65 272,-179.65 "/>
<text text-anchor="start" x="8" y="-164.45" font-family="Times,serif" font-size="14.00">executed bool</text>
<polyline fill="none" stroke="black" points="0,-156.65 272,-156.65 "/>
<text text-anchor="start" x="8" y="-141.45" font-family="Times,serif" font-size="14.00">memTracker *memory.Tracker</text>
<polyline fill="none" stroke="black" points="0,-133.65 272,-133.65 "/>
<text text-anchor="start" x="8" y="-118.45" font-family="Times,serif" font-size="14.00">stats *HashAggRuntimeStats</text>
</g>
<!-- AggFunc -->
<g id="node2" class="node">
<title>AggFunc</title>
<polygon fill="none" stroke="black" points="945.5,-482.15 945.5,-620.15 1109.5,-620.15 1109.5,-482.15 945.5,-482.15"/>
<text text-anchor="middle" x="1027.5" y="-604.95" font-family="Times,serif" font-size="14.00">AggFunc</text>
<polyline fill="none" stroke="black" points="945.5,-597.15 1109.5,-597.15 "/>
<text text-anchor="start" x="953.5" y="-581.95" font-family="Times,serif" font-size="14.00">AllocPartialResult</text>
<polyline fill="none" stroke="black" points="945.5,-574.15 1109.5,-574.15 "/>
<text text-anchor="start" x="953.5" y="-558.95" font-family="Times,serif" font-size="14.00">ResetPartialResult</text>
<polyline fill="none" stroke="black" points="945.5,-551.15 1109.5,-551.15 "/>
<text text-anchor="start" x="953.5" y="-535.95" font-family="Times,serif" font-size="14.00">UpdatePartialResult</text>
<polyline fill="none" stroke="black" points="945.5,-528.15 1109.5,-528.15 "/>
<text text-anchor="start" x="953.5" y="-512.95" font-family="Times,serif" font-size="14.00">MergePartialResult</text>
<polyline fill="none" stroke="black" points="945.5,-505.15 1109.5,-505.15 "/>
<text text-anchor="start" x="953.5" y="-489.95" font-family="Times,serif" font-size="14.00">AppendFinalResult2Chunk</text>
</g>
<!-- HashAggExec&#45;&gt;AggFunc -->
<g id="edge1" class="edge">
<title>HashAggExec&#45;&gt;AggFunc</title>
<path fill="none" stroke="#666666" d="M260.57,-685.66C274.79,-700.4 290.55,-713.49 308,-724.15 417.23,-790.88 768.47,-782.26 884,-727.15 927.03,-706.62 961.28,-666.05 985.4,-629.02"/>
<polygon fill="#666666" stroke="#666666" points="988.6,-630.52 991,-620.2 982.69,-626.76 988.6,-630.52"/>
</g>
<!-- AfFinalResult -->
<g id="node3" class="node">
<title>AfFinalResult</title>
<polygon fill="none" stroke="black" points="662.5,-445.15 662.5,-537.15 858.5,-537.15 858.5,-445.15 662.5,-445.15"/>
<text text-anchor="middle" x="760.5" y="-521.95" font-family="Times,serif" font-size="14.00">AfFinalResult</text>
<polyline fill="none" stroke="black" points="662.5,-514.15 858.5,-514.15 "/>
<text text-anchor="start" x="670.5" y="-498.95" font-family="Times,serif" font-size="14.00">chk *chunk.Chunk</text>
<polyline fill="none" stroke="black" points="662.5,-491.15 858.5,-491.15 "/>
<text text-anchor="start" x="670.5" y="-475.95" font-family="Times,serif" font-size="14.00">err error</text>
<polyline fill="none" stroke="black" points="662.5,-468.15 858.5,-468.15 "/>
<text text-anchor="start" x="670.5" y="-452.95" font-family="Times,serif" font-size="14.00">giveBackCh chan *chunk.Chunk</text>
</g>
<!-- HashAggExec&#45;&gt;AfFinalResult -->
<g id="edge2" class="edge">
<title>HashAggExec&#45;&gt;AfFinalResult</title>
<path fill="none" stroke="#666666" d="M272.12,-388.13C365.99,-384.91 493.09,-388.07 601,-417.15 618.47,-421.86 620.74,-428.22 637,-436.15 642.23,-438.71 647.61,-441.29 653.06,-443.86"/>
<polygon fill="#666666" stroke="#666666" points="651.74,-447.11 662.28,-448.19 654.71,-440.77 651.74,-447.11"/>
</g>
<!-- HashAggIntermData -->
<g id="node4" class="node">
<title>HashAggIntermData</title>
<polygon fill="none" stroke="black" points="637,-84.15 637,-176.15 884,-176.15 884,-84.15 637,-84.15"/>
<text text-anchor="middle" x="760.5" y="-160.95" font-family="Times,serif" font-size="14.00">HashAggIntermData</text>
<polyline fill="none" stroke="black" points="637,-153.15 884,-153.15 "/>
<text text-anchor="start" x="645" y="-137.95" font-family="Times,serif" font-size="14.00">groupKeys []string</text>
<polyline fill="none" stroke="black" points="637,-130.15 884,-130.15 "/>
<text text-anchor="start" x="645" y="-114.95" font-family="Times,serif" font-size="14.00">cursor int</text>
<polyline fill="none" stroke="black" points="637,-107.15 884,-107.15 "/>
<text text-anchor="start" x="645" y="-91.95" font-family="Times,serif" font-size="14.00">partialResultMap aggPartialResultMapper</text>
</g>
<!-- HashAggExec&#45;&gt;HashAggIntermData -->
<g id="edge3" class="edge">
<title>HashAggExec&#45;&gt;HashAggIntermData</title>
<path fill="none" stroke="#666666" d="M272.28,-154.86C283.4,-145.47 295.3,-137.12 308,-130.15 404.92,-77.02 532.06,-82.42 626.72,-97.99"/>
<polygon fill="#666666" stroke="#666666" points="626.2,-101.46 636.64,-99.68 627.37,-94.55 626.2,-101.46"/>
</g>
<!-- HashAggPartialWorker -->
<g id="node5" class="node">
<title>HashAggPartialWorker</title>
<polygon fill="none" stroke="black" points="308,-426.65 308,-679.65 601,-679.65 601,-426.65 308,-426.65"/>
<text text-anchor="middle" x="454.5" y="-664.45" font-family="Times,serif" font-size="14.00">HashAggPartialWorker</text>
<polyline fill="none" stroke="black" points="308,-656.65 601,-656.65 "/>
<text text-anchor="start" x="316" y="-641.45" font-family="Times,serif" font-size="14.00">baseHashAggWorker inputCh chan *chunk.Chunk</text>
<polyline fill="none" stroke="black" points="308,-633.65 601,-633.65 "/>
<text text-anchor="start" x="316" y="-618.45" font-family="Times,serif" font-size="14.00">outputChs []chan *HashAggIntermData</text>
<polyline fill="none" stroke="black" points="308,-610.65 601,-610.65 "/>
<text text-anchor="start" x="316" y="-595.45" font-family="Times,serif" font-size="14.00">globalOutputCh chan *AfFinalResult</text>
<polyline fill="none" stroke="black" points="308,-587.65 601,-587.65 "/>
<text text-anchor="start" x="316" y="-572.45" font-family="Times,serif" font-size="14.00">giveBackCh chan&lt;&#45; *HashAggInput</text>
<polyline fill="none" stroke="black" points="308,-564.65 601,-564.65 "/>
<text text-anchor="start" x="316" y="-549.45" font-family="Times,serif" font-size="14.00">partialResultsMap aggPartialResultMapper</text>
<polyline fill="none" stroke="black" points="308,-541.65 601,-541.65 "/>
<text text-anchor="start" x="316" y="-526.45" font-family="Times,serif" font-size="14.00">groupByItems []expression.Expression</text>
<polyline fill="none" stroke="black" points="308,-518.65 601,-518.65 "/>
<text text-anchor="start" x="316" y="-503.45" font-family="Times,serif" font-size="14.00">groupKey [][]byte</text>
<polyline fill="none" stroke="black" points="308,-495.65 601,-495.65 "/>
<text text-anchor="start" x="316" y="-480.45" font-family="Times,serif" font-size="14.00">chk *chunk.Chunk</text>
<polyline fill="none" stroke="black" points="308,-472.65 601,-472.65 "/>
<text text-anchor="start" x="316" y="-457.45" font-family="Times,serif" font-size="14.00">memTracker *memory.Tracker</text>
<polyline fill="none" stroke="black" points="308,-449.65 601,-449.65 "/>
<text text-anchor="middle" x="454.5" y="-434.45" font-family="Times,serif" font-size="14.00"> </text>
</g>
<!-- HashAggExec&#45;&gt;HashAggPartialWorker -->
<g id="edge4" class="edge">
<title>HashAggExec&#45;&gt;HashAggPartialWorker</title>
<path fill="none" stroke="#666666" d="M272.14,-464.34C280.93,-468.64 289.82,-473 298.7,-477.34"/>
<polygon fill="#666666" stroke="#666666" points="297.41,-480.61 307.93,-481.86 300.49,-474.32 297.41,-480.61"/>
</g>
<!-- HashAggFinalWorker -->
<g id="node6" class="node">
<title>HashAggFinalWorker</title>
<polygon fill="none" stroke="black" points="331,-139.15 331,-369.15 578,-369.15 578,-139.15 331,-139.15"/>
<text text-anchor="middle" x="454.5" y="-353.95" font-family="Times,serif" font-size="14.00">HashAggFinalWorker</text>
<polyline fill="none" stroke="black" points="331,-346.15 578,-346.15 "/>
<text text-anchor="start" x="339" y="-330.95" font-family="Times,serif" font-size="14.00">baseHashAggWorker</text>
<polyline fill="none" stroke="black" points="331,-323.15 578,-323.15 "/>
<text text-anchor="start" x="339" y="-307.95" font-family="Times,serif" font-size="14.00">rowBuffer []types.Datum</text>
<polyline fill="none" stroke="black" points="331,-300.15 578,-300.15 "/>
<text text-anchor="start" x="339" y="-284.95" font-family="Times,serif" font-size="14.00">mutableRow chunk.MutRow</text>
<polyline fill="none" stroke="black" points="331,-277.15 578,-277.15 "/>
<text text-anchor="start" x="339" y="-261.95" font-family="Times,serif" font-size="14.00">partialResultMap aggPartialResultMapper</text>
<polyline fill="none" stroke="black" points="331,-254.15 578,-254.15 "/>
<text text-anchor="start" x="339" y="-238.95" font-family="Times,serif" font-size="14.00">groupSet set.StringSet</text>
<polyline fill="none" stroke="black" points="331,-231.15 578,-231.15 "/>
<text text-anchor="start" x="339" y="-215.95" font-family="Times,serif" font-size="14.00">inputCh chan *HashAggIntermData</text>
<polyline fill="none" stroke="black" points="331,-208.15 578,-208.15 "/>
<text text-anchor="start" x="339" y="-192.95" font-family="Times,serif" font-size="14.00">outputCh chan *AfFinalResult</text>
<polyline fill="none" stroke="black" points="331,-185.15 578,-185.15 "/>
<text text-anchor="start" x="339" y="-169.95" font-family="Times,serif" font-size="14.00">finalResultHolderCh chan *chunk.Chunk</text>
<polyline fill="none" stroke="black" points="331,-162.15 578,-162.15 "/>
<text text-anchor="start" x="339" y="-146.95" font-family="Times,serif" font-size="14.00">groupKeys [][]byte</text>
</g>
<!-- HashAggExec&#45;&gt;HashAggFinalWorker -->
<g id="edge5" class="edge">
<title>HashAggExec&#45;&gt;HashAggFinalWorker</title>
<path fill="none" stroke="#666666" d="M272.14,-336.67C288.43,-329.25 305.06,-321.69 321.31,-314.3"/>
<polygon fill="#666666" stroke="#666666" points="323.18,-317.29 330.83,-309.97 320.28,-310.92 323.18,-317.29"/>
</g>
<!-- HashAggInput -->
<g id="node7" class="node">
<title>HashAggInput</title>
<polygon fill="none" stroke="black" points="656,-648.65 656,-717.65 865,-717.65 865,-648.65 656,-648.65"/>
<text text-anchor="middle" x="760.5" y="-702.45" font-family="Times,serif" font-size="14.00">HashAggInput</text>
<polyline fill="none" stroke="black" points="656,-694.65 865,-694.65 "/>
<text text-anchor="start" x="664" y="-679.45" font-family="Times,serif" font-size="14.00">chk *chunk.Chunk</text>
<polyline fill="none" stroke="black" points="656,-671.65 865,-671.65 "/>
<text text-anchor="start" x="664" y="-656.45" font-family="Times,serif" font-size="14.00">giveBackCh chan&lt;&#45; *chunk.Chunk</text>
</g>
<!-- HashAggExec&#45;&gt;HashAggInput -->
<g id="edge6" class="edge">
<title>HashAggExec&#45;&gt;HashAggInput</title>
<path fill="none" stroke="#666666" d="M272.04,-663.31C283.19,-673.07 295.16,-681.8 308,-689.15 410.78,-747.97 549.48,-735.28 645.91,-715"/>
<polygon fill="#666666" stroke="#666666" points="646.66,-718.42 655.69,-712.89 645.18,-711.58 646.66,-718.42"/>
</g>
<!-- aggPartialResultMapper -->
<g id="node8" class="node">
<title>aggPartialResultMapper</title>
<polygon fill="none" stroke="black" points="920,-137.65 920,-198.65 1135,-198.65 1135,-137.65 920,-137.65"/>
<text text-anchor="middle" x="1027.5" y="-183.45" font-family="Times,serif" font-size="14.00">aggPartialResultMapper</text>
<polyline fill="none" stroke="black" points="920,-175.65 1135,-175.65 "/>
<text text-anchor="start" x="928" y="-160.45" font-family="Times,serif" font-size="14.00">type aggPartialResultMapper</text>
<text text-anchor="start" x="928" y="-145.45" font-family="Times,serif" font-size="14.00"> map[string][]aggfuncs.PartialResult</text>
</g>
<!-- HashAggExec&#45;&gt;aggPartialResultMapper -->
<g id="edge7" class="edge">
<title>HashAggExec&#45;&gt;aggPartialResultMapper</title>
<path fill="none" stroke="#666666" d="M272.16,-111.46C283.25,-101.25 295.18,-92.04 308,-84.15 526.11,49.95 638.77,-0.55 884,-74.15 921.3,-85.35 957.86,-109.82 984.6,-130.98"/>
<polygon fill="#666666" stroke="#666666" points="982.6,-133.87 992.58,-137.43 987,-128.42 982.6,-133.87"/>
</g>
<!-- HashAggIntermData&#45;&gt;aggPartialResultMapper -->
<g id="edge19" class="edge">
<title>HashAggIntermData&#45;&gt;aggPartialResultMapper</title>
<path fill="none" stroke="#666666" d="M884.3,-147.76C892.87,-148.99 901.48,-150.23 910.01,-151.45"/>
<polygon fill="#666666" stroke="#666666" points="909.58,-154.92 919.97,-152.88 910.57,-147.99 909.58,-154.92"/>
</g>
<!-- HashAggPartialWorker&#45;&gt;AfFinalResult -->
<g id="edge8" class="edge">
<title>HashAggPartialWorker&#45;&gt;AfFinalResult</title>
<path fill="none" stroke="#666666" d="M601.27,-523.42C618.43,-519.92 635.7,-516.4 652.19,-513.04"/>
<polygon fill="#666666" stroke="#666666" points="653.26,-516.39 662.36,-510.96 651.86,-509.53 653.26,-516.39"/>
</g>
<!-- HashAggPartialWorker&#45;&gt;HashAggInput -->
<g id="edge9" class="edge">
<title>HashAggPartialWorker&#45;&gt;HashAggInput</title>
<path fill="none" stroke="#666666" d="M601.06,-623.64C613.15,-629.03 625.25,-634.27 637,-639.15 641.64,-641.08 646.4,-643.01 651.22,-644.91"/>
<polygon fill="#666666" stroke="#666666" points="649.97,-648.18 660.56,-648.56 652.52,-641.66 649.97,-648.18"/>
</g>
<!-- HashAggPartialWorker&#45;&gt;aggPartialResultMapper -->
<g id="edge10" class="edge">
<title>HashAggPartialWorker&#45;&gt;aggPartialResultMapper</title>
<path fill="none" stroke="#666666" d="M601.06,-568.14C707.12,-575.95 839.68,-578.3 884,-547.15 898.62,-536.88 979.89,-303.89 1012.73,-208.41"/>
<polygon fill="#666666" stroke="#666666" points="1016.09,-209.4 1016.03,-198.81 1009.47,-207.13 1016.09,-209.4"/>
</g>
<!-- baseHashAggWorker -->
<g id="node9" class="node">
<title>baseHashAggWorker</title>
<polygon fill="none" stroke="black" points="668.5,-288.15 668.5,-426.15 852.5,-426.15 852.5,-288.15 668.5,-288.15"/>
<text text-anchor="middle" x="760.5" y="-410.95" font-family="Times,serif" font-size="14.00">baseHashAggWorker</text>
<polyline fill="none" stroke="black" points="668.5,-403.15 852.5,-403.15 "/>
<text text-anchor="start" x="676.5" y="-387.95" font-family="Times,serif" font-size="14.00">ctx sessionctx.Context</text>
<polyline fill="none" stroke="black" points="668.5,-380.15 852.5,-380.15 "/>
<text text-anchor="start" x="676.5" y="-364.95" font-family="Times,serif" font-size="14.00">finishCh &lt;&#45;chan struct{}</text>
<polyline fill="none" stroke="black" points="668.5,-357.15 852.5,-357.15 "/>
<text text-anchor="start" x="676.5" y="-341.95" font-family="Times,serif" font-size="14.00">aggFuncs []aggfuncs.AggFunc</text>
<polyline fill="none" stroke="black" points="668.5,-334.15 852.5,-334.15 "/>
<text text-anchor="start" x="676.5" y="-318.95" font-family="Times,serif" font-size="14.00">maxChunkSize int</text>
<polyline fill="none" stroke="black" points="668.5,-311.15 852.5,-311.15 "/>
<text text-anchor="start" x="676.5" y="-295.95" font-family="Times,serif" font-size="14.00">stats *AggWorkerStat</text>
</g>
<!-- HashAggPartialWorker&#45;&gt;baseHashAggWorker -->
<g id="edge11" class="edge">
<title>HashAggPartialWorker&#45;&gt;baseHashAggWorker</title>
<path fill="none" stroke="#666666" d="M601.27,-459.17C621.09,-446.39 641.05,-433.52 659.81,-421.43"/>
<polygon fill="#666666" stroke="#666666" points="661.82,-424.29 668.33,-415.93 658.03,-418.41 661.82,-424.29"/>
</g>
<!-- Expression -->
<g id="node10" class="node">
<title>Expression</title>
<polygon fill="none" stroke="black" points="799,-630.15 722,-630.15 722,-594.15 799,-594.15 799,-630.15"/>
<text text-anchor="middle" x="760.5" y="-608.45" font-family="Times,serif" font-size="14.00">Expression</text>
</g>
<!-- HashAggPartialWorker&#45;&gt;Expression -->
<g id="edge12" class="edge">
<title>HashAggPartialWorker&#45;&gt;Expression</title>
<path fill="none" stroke="#666666" d="M601.27,-581.44C641.21,-589.19 681.72,-597.06 711.75,-602.89"/>
<polygon fill="#666666" stroke="#666666" points="711.44,-606.39 721.92,-604.86 712.77,-599.52 711.44,-606.39"/>
</g>
<!-- HashAggFinalWorker&#45;&gt;AfFinalResult -->
<g id="edge13" class="edge">
<title>HashAggFinalWorker&#45;&gt;AfFinalResult</title>
<path fill="none" stroke="#666666" d="M578.26,-359.91C586.17,-367.91 593.82,-376.03 601,-384.15 619.61,-405.22 615.39,-418.18 637,-436.15 642.18,-440.46 647.75,-444.49 653.56,-448.26"/>
<polygon fill="#666666" stroke="#666666" points="651.87,-451.33 662.22,-453.6 655.54,-445.37 651.87,-451.33"/>
</g>
<!-- HashAggFinalWorker&#45;&gt;HashAggIntermData -->
<g id="edge14" class="edge">
<title>HashAggFinalWorker&#45;&gt;HashAggIntermData</title>
<path fill="none" stroke="#666666" d="M578.27,-204.08C597.67,-196.16 617.73,-187.98 637.13,-180.07"/>
<polygon fill="#666666" stroke="#666666" points="638.65,-183.23 646.59,-176.21 636.01,-176.75 638.65,-183.23"/>
</g>
<!-- HashAggFinalWorker&#45;&gt;aggPartialResultMapper -->
<g id="edge15" class="edge">
<title>HashAggFinalWorker&#45;&gt;aggPartialResultMapper</title>
<path fill="none" stroke="#666666" d="M578.46,-233.47C598.03,-230.28 618.06,-227.08 637,-224.15 728.43,-210.03 832.12,-195.17 909.52,-184.32"/>
<polygon fill="#666666" stroke="#666666" points="910.36,-187.73 919.78,-182.88 909.39,-180.8 910.36,-187.73"/>
</g>
<!-- HashAggFinalWorker&#45;&gt;baseHashAggWorker -->
<g id="edge16" class="edge">
<title>HashAggFinalWorker&#45;&gt;baseHashAggWorker</title>
<path fill="none" stroke="#666666" d="M578.27,-295.75C604.87,-304.76 632.7,-314.19 658.35,-322.88"/>
<polygon fill="#666666" stroke="#666666" points="657.47,-326.28 668.07,-326.17 659.72,-319.65 657.47,-326.28"/>
</g>
<!-- MutRow -->
<g id="node11" class="node">
<title>MutRow</title>
<polygon fill="none" stroke="black" points="793,-269.15 728,-269.15 728,-233.15 793,-233.15 793,-269.15"/>
<text text-anchor="middle" x="760.5" y="-247.45" font-family="Times,serif" font-size="14.00">MutRow</text>
</g>
<!-- HashAggFinalWorker&#45;&gt;MutRow -->
<g id="edge17" class="edge">
<title>HashAggFinalWorker&#45;&gt;MutRow</title>
<path fill="none" stroke="#666666" d="M578.27,-252.94C627.77,-252.45 681.56,-251.92 717.57,-251.57"/>
<polygon fill="#666666" stroke="#666666" points="717.73,-255.07 727.7,-251.47 717.66,-248.07 717.73,-255.07"/>
</g>
<!-- baseHashAggWorker&#45;&gt;AggFunc -->
<g id="edge18" class="edge">
<title>baseHashAggWorker&#45;&gt;AggFunc</title>
<path fill="none" stroke="#666666" d="M852.54,-414.33C863.26,-421.51 873.95,-428.89 884,-436.15 901.54,-448.83 919.83,-462.9 937.22,-476.72"/>
<polygon fill="#666666" stroke="#666666" points="935.15,-479.54 945.15,-483.05 939.52,-474.07 935.15,-479.54"/>
</g>
</g>
</svg>
