<?xml version="1.0" encoding="UTF-8" standalone="no"?>
<!DOCTYPE svg PUBLIC "-//W3C//DTD SVG 1.1//EN"
 "http://www.w3.org/Graphics/SVG/1.1/DTD/svg11.dtd">
<!-- Generated by graphviz version 2.44.1 (20200629.0846)
 -->
<!-- Title: IndexValueLayout Pages: 1 -->
<svg width="484pt" height="320pt"
 viewBox="0.00 0.00 484.00 320.00" xmlns="http://www.w3.org/2000/svg" xmlns:xlink="http://www.w3.org/1999/xlink">
<g id="graph0" class="graph" transform="scale(1 1) rotate(0) translate(4 316)">
<title>IndexValueLayout</title>
<polygon fill="white" stroke="transparent" points="-4,4 -4,-316 480,-316 480,4 -4,4"/>
<!-- ValueLayout -->
<g id="node1" class="node">
<title>ValueLayout</title>
<path fill="#79d8ce" stroke="#60b5ac" d="M12,-69.5C12,-69.5 122,-69.5 122,-69.5 128,-69.5 134,-75.5 134,-81.5 134,-81.5 134,-195.5 134,-195.5 134,-201.5 128,-207.5 122,-207.5 122,-207.5 12,-207.5 12,-207.5 6,-207.5 0,-201.5 0,-195.5 0,-195.5 0,-81.5 0,-81.5 0,-75.5 6,-69.5 12,-69.5"/>
<text text-anchor="middle" x="67" y="-192.3" font-family="Times,serif" font-size="14.00" fill="#5d6179">IndexValueLayout</text>
<polyline fill="none" stroke="#60b5ac" points="0,-184.5 134,-184.5 "/>
<text text-anchor="start" x="8" y="-169.3" font-family="Times,serif" font-size="14.00" fill="#5d6179">TaiLen 1</text>
<polyline fill="none" stroke="#60b5ac" points="0,-161.5 134,-161.5 "/>
<text text-anchor="start" x="8" y="-146.3" font-family="Times,serif" font-size="14.00" fill="#5d6179">Options len(options)</text>
<polyline fill="none" stroke="#60b5ac" points="0,-138.5 134,-138.5 "/>
<text text-anchor="start" x="8" y="-123.3" font-family="Times,serif" font-size="14.00" fill="#5d6179">Padding len(padding)</text>
<polyline fill="none" stroke="#60b5ac" points="0,-115.5 134,-115.5 "/>
<text text-anchor="start" x="8" y="-100.3" font-family="Times,serif" font-size="14.00" fill="#5d6179">[IntHandle] 8</text>
<polyline fill="none" stroke="#60b5ac" points="0,-92.5 134,-92.5 "/>
<text text-anchor="start" x="8" y="-77.3" font-family="Times,serif" font-size="14.00" fill="#5d6179">[UntouchedFlag] 1</text>
</g>
<!-- TailLen -->
<g id="node2" class="node">
<title>TailLen</title>
<path fill="#79d8ce" stroke="#60b5ac" d="M182,-265.5C182,-265.5 464,-265.5 464,-265.5 470,-265.5 476,-271.5 476,-277.5 476,-277.5 476,-299.5 476,-299.5 476,-305.5 470,-311.5 464,-311.5 464,-311.5 182,-311.5 182,-311.5 176,-311.5 170,-305.5 170,-299.5 170,-299.5 170,-277.5 170,-277.5 170,-271.5 176,-265.5 182,-265.5"/>
<text text-anchor="middle" x="323" y="-296.3" font-family="Times,serif" font-size="14.00" fill="#5d6179">TailLen</text>
<polyline fill="none" stroke="#60b5ac" points="170,-288.5 476,-288.5 "/>
<text text-anchor="start" x="178" y="-273.3" font-family="Times,serif" font-size="14.00" fill="#5d6179">len(Padding) + len(IntHandle) + len(UntouchedFlag)</text>
</g>
<!-- ValueLayout&#45;&gt;TailLen -->
<g id="edge1" class="edge">
<title>ValueLayout:TailLen&#45;&gt;TailLen</title>
<path fill="none" stroke="#666666" d="M134,-173.5C174.21,-173.5 138.85,-231.08 170,-256.5 171.36,-257.61 172.76,-258.69 174.18,-259.73"/>
<polygon fill="#666666" stroke="#666666" points="172.33,-262.71 182.59,-265.33 176.21,-256.88 172.33,-262.71"/>
</g>
<!-- CommonHandle -->
<g id="node3" class="node">
<title>CommonHandle</title>
<path fill="#79d8ce" stroke="#60b5ac" d="M267,-154.5C267,-154.5 379,-154.5 379,-154.5 385,-154.5 391,-160.5 391,-166.5 391,-166.5 391,-234.5 391,-234.5 391,-240.5 385,-246.5 379,-246.5 379,-246.5 267,-246.5 267,-246.5 261,-246.5 255,-240.5 255,-234.5 255,-234.5 255,-166.5 255,-166.5 255,-160.5 261,-154.5 267,-154.5"/>
<text text-anchor="middle" x="323" y="-231.3" font-family="Times,serif" font-size="14.00" fill="#5d6179">CommonHandle</text>
<polyline fill="none" stroke="#60b5ac" points="255,-223.5 391,-223.5 "/>
<text text-anchor="middle" x="323" y="-208.3" font-family="Times,serif" font-size="14.00" fill="#5d6179">CHandle Flag 1</text>
<polyline fill="none" stroke="#60b5ac" points="255,-200.5 391,-200.5 "/>
<text text-anchor="middle" x="323" y="-185.3" font-family="Times,serif" font-size="14.00" fill="#5d6179">CHandle Len 2</text>
<polyline fill="none" stroke="#60b5ac" points="255,-177.5 391,-177.5 "/>
<text text-anchor="middle" x="323" y="-162.3" font-family="Times,serif" font-size="14.00" fill="#5d6179">Chandle len(Chandle)</text>
</g>
<!-- ValueLayout&#45;&gt;CommonHandle -->
<g id="edge2" class="edge">
<title>ValueLayout:Options&#45;&gt;CommonHandle</title>
<path fill="none" stroke="#666666" d="M134,-150.5C171.35,-150.5 211.51,-159.83 245.09,-170.43"/>
<polygon fill="#666666" stroke="#666666" points="244.23,-173.83 254.83,-173.6 246.4,-167.18 244.23,-173.83"/>
</g>
<!-- GlobalIndex -->
<g id="node4" class="node">
<title>GlobalIndex</title>
<path fill="#79d8ce" stroke="#60b5ac" d="M291,-66C291,-66 355,-66 355,-66 361,-66 367,-72 367,-78 367,-78 367,-123 367,-123 367,-129 361,-135 355,-135 355,-135 291,-135 291,-135 285,-135 279,-129 279,-123 279,-123 279,-78 279,-78 279,-72 285,-66 291,-66"/>
<text text-anchor="middle" x="323" y="-119.8" font-family="Times,serif" font-size="14.00" fill="#5d6179">GlobalIndex</text>
<polyline fill="none" stroke="#60b5ac" points="279,-112 367,-112 "/>
<text text-anchor="middle" x="323" y="-96.8" font-family="Times,serif" font-size="14.00" fill="#5d6179">PidFloag 1</text>
<polyline fill="none" stroke="#60b5ac" points="279,-89 367,-89 "/>
<text text-anchor="middle" x="323" y="-73.8" font-family="Times,serif" font-size="14.00" fill="#5d6179">PartitionID 8</text>
</g>
<!-- ValueLayout&#45;&gt;GlobalIndex -->
<g id="edge3" class="edge">
<title>ValueLayout:Options&#45;&gt;GlobalIndex</title>
<path fill="none" stroke="#666666" d="M134,-150.5C160.04,-150.5 222.91,-132.36 268.8,-117.94"/>
<polygon fill="#666666" stroke="#666666" points="270.13,-121.19 278.6,-114.83 268.01,-114.51 270.13,-121.19"/>
</g>
<!-- NewCollation -->
<g id="node5" class="node">
<title>NewCollation</title>
<path fill="#79d8ce" stroke="#60b5ac" d="M250,-0.5C250,-0.5 396,-0.5 396,-0.5 402,-0.5 408,-6.5 408,-12.5 408,-12.5 408,-34.5 408,-34.5 408,-40.5 402,-46.5 396,-46.5 396,-46.5 250,-46.5 250,-46.5 244,-46.5 238,-40.5 238,-34.5 238,-34.5 238,-12.5 238,-12.5 238,-6.5 244,-0.5 250,-0.5"/>
<text text-anchor="middle" x="323" y="-31.3" font-family="Times,serif" font-size="14.00" fill="#5d6179">NewCollation</text>
<polyline fill="none" stroke="#60b5ac" points="238,-23.5 408,-23.5 "/>
<text text-anchor="middle" x="323" y="-8.3" font-family="Times,serif" font-size="14.00" fill="#5d6179">restoreData len(restoreData)</text>
</g>
<!-- ValueLayout&#45;&gt;NewCollation -->
<g id="edge4" class="edge">
<title>ValueLayout:Options&#45;&gt;NewCollation</title>
<path fill="none" stroke="#666666" d="M134,-150.5C178.74,-150.5 136.06,-85.64 170,-56.5 186.27,-42.53 207.08,-34.05 228.04,-29"/>
<polygon fill="#666666" stroke="#666666" points="228.95,-32.39 237.99,-26.85 227.48,-25.54 228.95,-32.39"/>
</g>
</g>
</svg>
