<?xml version="1.0" encoding="UTF-8" standalone="no"?>
<!DOCTYPE svg PUBLIC "-//W3C//DTD SVG 1.1//EN"
 "http://www.w3.org/Graphics/SVG/1.1/DTD/svg11.dtd">
<!-- Generated by graphviz version 2.44.1 (20200629.0846)
 -->
<!-- Title: indexKey Pages: 1 -->
<svg width="781pt" height="352pt"
 viewBox="0.00 0.00 781.00 351.50" xmlns="http://www.w3.org/2000/svg" xmlns:xlink="http://www.w3.org/1999/xlink">
<g id="graph0" class="graph" transform="scale(1 1) rotate(0) translate(4 347.5)">
<title>indexKey</title>
<polygon fill="white" stroke="transparent" points="-4,4 -4,-347.5 777,-347.5 777,4 -4,4"/>
<!-- DBInfo -->
<g id="node1" class="node">
<title>DBInfo</title>
<path fill="#79d8ce" stroke="#60b5ac" d="M12,-104C12,-104 117,-104 117,-104 123,-104 129,-110 129,-116 129,-116 129,-253 129,-253 129,-259 123,-265 117,-265 117,-265 12,-265 12,-265 6,-265 0,-259 0,-253 0,-253 0,-116 0,-116 0,-110 6,-104 12,-104"/>
<text text-anchor="middle" x="64.5" y="-249.8" font-family="Times,serif" font-size="14.00" fill="#5d6179">DBInfo</text>
<polyline fill="none" stroke="#60b5ac" points="0,-242 129,-242 "/>
<text text-anchor="start" x="8" y="-226.8" font-family="Times,serif" font-size="14.00" fill="#5d6179">ID int64 </text>
<polyline fill="none" stroke="#60b5ac" points="0,-219 129,-219 "/>
<text text-anchor="start" x="8" y="-203.8" font-family="Times,serif" font-size="14.00" fill="#5d6179">Name CIStr </text>
<polyline fill="none" stroke="#60b5ac" points="0,-196 129,-196 "/>
<text text-anchor="start" x="8" y="-180.8" font-family="Times,serif" font-size="14.00" fill="#5d6179">Charset string </text>
<polyline fill="none" stroke="#60b5ac" points="0,-173 129,-173 "/>
<text text-anchor="start" x="8" y="-157.8" font-family="Times,serif" font-size="14.00" fill="#5d6179">Collate string </text>
<polyline fill="none" stroke="#60b5ac" points="0,-150 129,-150 "/>
<text text-anchor="start" x="8" y="-134.8" font-family="Times,serif" font-size="14.00" fill="#5d6179">Tables []*TableInfo </text>
<polyline fill="none" stroke="#60b5ac" points="0,-127 129,-127 "/>
<text text-anchor="start" x="8" y="-111.8" font-family="Times,serif" font-size="14.00" fill="#5d6179">State SchemaState </text>
</g>
<!-- TableInfo -->
<g id="node2" class="node">
<title>TableInfo</title>
<path fill="#79d8ce" stroke="#60b5ac" d="M177,-0.5C177,-0.5 333,-0.5 333,-0.5 339,-0.5 345,-6.5 345,-12.5 345,-12.5 345,-264.5 345,-264.5 345,-270.5 339,-276.5 333,-276.5 333,-276.5 177,-276.5 177,-276.5 171,-276.5 165,-270.5 165,-264.5 165,-264.5 165,-12.5 165,-12.5 165,-6.5 171,-0.5 177,-0.5"/>
<text text-anchor="middle" x="255" y="-261.3" font-family="Times,serif" font-size="14.00" fill="#5d6179">TableInfo</text>
<polyline fill="none" stroke="#60b5ac" points="165,-253.5 345,-253.5 "/>
<text text-anchor="start" x="173" y="-238.3" font-family="Times,serif" font-size="14.00" fill="#5d6179">ID int64 </text>
<polyline fill="none" stroke="#60b5ac" points="165,-230.5 345,-230.5 "/>
<text text-anchor="start" x="173" y="-215.3" font-family="Times,serif" font-size="14.00" fill="#5d6179">Name CIStr </text>
<polyline fill="none" stroke="#60b5ac" points="165,-207.5 345,-207.5 "/>
<text text-anchor="start" x="173" y="-192.3" font-family="Times,serif" font-size="14.00" fill="#5d6179">Charset string </text>
<polyline fill="none" stroke="#60b5ac" points="165,-184.5 345,-184.5 "/>
<text text-anchor="start" x="173" y="-169.3" font-family="Times,serif" font-size="14.00" fill="#5d6179">Collate string </text>
<polyline fill="none" stroke="#60b5ac" points="165,-161.5 345,-161.5 "/>
<text text-anchor="start" x="173" y="-146.3" font-family="Times,serif" font-size="14.00" fill="#5d6179">Columns []*ColumnInfo </text>
<polyline fill="none" stroke="#60b5ac" points="165,-138.5 345,-138.5 "/>
<text text-anchor="start" x="173" y="-123.3" font-family="Times,serif" font-size="14.00" fill="#5d6179">Indices []*IndexInfo </text>
<polyline fill="none" stroke="#60b5ac" points="165,-115.5 345,-115.5 "/>
<text text-anchor="start" x="173" y="-100.3" font-family="Times,serif" font-size="14.00" fill="#5d6179">Constraints []*ConstraintInfo </text>
<polyline fill="none" stroke="#60b5ac" points="165,-92.5 345,-92.5 "/>
<text text-anchor="start" x="173" y="-77.3" font-family="Times,serif" font-size="14.00" fill="#5d6179">ForeignKeys []*FKInfo </text>
<polyline fill="none" stroke="#60b5ac" points="165,-69.5 345,-69.5 "/>
<text text-anchor="start" x="173" y="-54.3" font-family="Times,serif" font-size="14.00" fill="#5d6179">State SchemaState </text>
<polyline fill="none" stroke="#60b5ac" points="165,-46.5 345,-46.5 "/>
<text text-anchor="start" x="173" y="-31.3" font-family="Times,serif" font-size="14.00" fill="#5d6179">PKIsHandle bool </text>
<polyline fill="none" stroke="#60b5ac" points="165,-23.5 345,-23.5 "/>
<text text-anchor="middle" x="255" y="-8.3" font-family="Times,serif" font-size="14.00" fill="#5d6179">...</text>
</g>
<!-- DBInfo&#45;&gt;TableInfo -->
<g id="edge1" class="edge">
<title>DBInfo:Tables&#45;&gt;TableInfo</title>
<path fill="none" stroke="#666666" d="M129,-138.5C137.34,-138.5 146,-138.5 154.69,-138.5"/>
<polygon fill="#666666" stroke="#666666" points="154.89,-142 164.89,-138.5 154.89,-135 154.89,-142"/>
</g>
<!-- IndexInfo -->
<g id="node3" class="node">
<title>IndexInfo</title>
<path fill="#79d8ce" stroke="#60b5ac" d="M393,-90C393,-90 539,-90 539,-90 545,-90 551,-96 551,-102 551,-102 551,-331 551,-331 551,-337 545,-343 539,-343 539,-343 393,-343 393,-343 387,-343 381,-337 381,-331 381,-331 381,-102 381,-102 381,-96 387,-90 393,-90"/>
<text text-anchor="middle" x="466" y="-327.8" font-family="Times,serif" font-size="14.00" fill="#5d6179">IndexInfo</text>
<polyline fill="none" stroke="#60b5ac" points="381,-320 551,-320 "/>
<text text-anchor="start" x="389" y="-304.8" font-family="Times,serif" font-size="14.00" fill="#5d6179">ID int64</text>
<polyline fill="none" stroke="#60b5ac" points="381,-297 551,-297 "/>
<text text-anchor="start" x="389" y="-281.8" font-family="Times,serif" font-size="14.00" fill="#5d6179">Name CIStr</text>
<polyline fill="none" stroke="#60b5ac" points="381,-274 551,-274 "/>
<text text-anchor="start" x="389" y="-258.8" font-family="Times,serif" font-size="14.00" fill="#5d6179">Table CIStr</text>
<polyline fill="none" stroke="#60b5ac" points="381,-251 551,-251 "/>
<text text-anchor="start" x="389" y="-235.8" font-family="Times,serif" font-size="14.00" fill="#5d6179">Columns []*IndexColumn</text>
<polyline fill="none" stroke="#60b5ac" points="381,-228 551,-228 "/>
<text text-anchor="start" x="389" y="-212.8" font-family="Times,serif" font-size="14.00" fill="#5d6179">State SchemaState</text>
<polyline fill="none" stroke="#60b5ac" points="381,-205 551,-205 "/>
<text text-anchor="start" x="389" y="-189.8" font-family="Times,serif" font-size="14.00" fill="#5d6179">Comment string</text>
<polyline fill="none" stroke="#60b5ac" points="381,-182 551,-182 "/>
<text text-anchor="start" x="389" y="-166.8" font-family="Times,serif" font-size="14.00" fill="#5d6179">Tp IndexType</text>
<polyline fill="none" stroke="#60b5ac" points="381,-159 551,-159 "/>
<text text-anchor="start" x="389" y="-143.8" font-family="Times,serif" font-size="14.00" fill="#5d6179">Unique bool</text>
<polyline fill="none" stroke="#60b5ac" points="381,-136 551,-136 "/>
<text text-anchor="start" x="389" y="-120.8" font-family="Times,serif" font-size="14.00" fill="#5d6179">Primary bool| Invisible bool</text>
<polyline fill="none" stroke="#60b5ac" points="381,-113 551,-113 "/>
<text text-anchor="start" x="389" y="-97.8" font-family="Times,serif" font-size="14.00" fill="#5d6179">Global bool</text>
</g>
<!-- TableInfo&#45;&gt;IndexInfo -->
<g id="edge2" class="edge">
<title>TableInfo:Indices&#45;&gt;IndexInfo</title>
<path fill="none" stroke="#666666" d="M345,-126.5C354.08,-126.5 362.92,-128.17 371.4,-131.06"/>
<polygon fill="#666666" stroke="#666666" points="370.24,-134.36 380.83,-134.81 372.83,-127.86 370.24,-134.36"/>
</g>
<!-- IndexColumn -->
<g id="node4" class="node">
<title>IndexColumn</title>
<path fill="#79d8ce" stroke="#60b5ac" d="M599,-103C599,-103 761,-103 761,-103 767,-103 773,-109 773,-115 773,-115 773,-198 773,-198 773,-204 767,-210 761,-210 761,-210 599,-210 599,-210 593,-210 587,-204 587,-198 587,-198 587,-115 587,-115 587,-109 593,-103 599,-103"/>
<text text-anchor="middle" x="680" y="-194.8" font-family="Times,serif" font-size="14.00" fill="#5d6179">IndexColumn</text>
<polyline fill="none" stroke="#60b5ac" points="587,-187 773,-187 "/>
<text text-anchor="start" x="595" y="-171.8" font-family="Times,serif" font-size="14.00" fill="#5d6179">Name CIStr</text>
<polyline fill="none" stroke="#60b5ac" points="587,-164 773,-164 "/>
<text text-anchor="start" x="595" y="-148.8" font-family="Times,serif" font-size="14.00" fill="#5d6179">Offset int</text>
<text text-anchor="middle" x="680" y="-133.8" font-family="Times,serif" font-size="14.00" fill="#5d6179"> Offset为在columns中的下标</text>
<polyline fill="none" stroke="#60b5ac" points="587,-126 773,-126 "/>
<text text-anchor="start" x="595" y="-110.8" font-family="Times,serif" font-size="14.00" fill="#5d6179">Length int</text>
</g>
<!-- IndexInfo&#45;&gt;IndexColumn -->
<g id="edge3" class="edge">
<title>IndexInfo:Columns&#45;&gt;IndexColumn</title>
<path fill="none" stroke="#666666" d="M551,-239.5C574.87,-239.5 597.8,-229.21 617.49,-215.88"/>
<polygon fill="#666666" stroke="#666666" points="619.62,-218.66 625.72,-210 615.55,-212.97 619.62,-218.66"/>
</g>
<!-- IndexColumn&#45;&gt;TableInfo -->
<g id="edge4" class="edge">
<title>IndexColumn:Offset&#45;&gt;TableInfo:Columns</title>
<path fill="none" stroke="green" stroke-dasharray="5,2" d="M587,-144.5C554.36,-144.5 579.17,-96.98 551,-80.5 485.78,-42.36 445.5,-41.14 381,-80.5 354.64,-96.59 374.03,-138.83 354.87,-148.5"/>
<polygon fill="green" stroke="green" points="354.11,-145.09 345,-150.5 355.5,-151.95 354.11,-145.09"/>
</g>
</g>
</svg>
