<?xml version="1.0" encoding="UTF-8" standalone="no"?>
<!DOCTYPE svg PUBLIC "-//W3C//DTD SVG 1.1//EN"
 "http://www.w3.org/Graphics/SVG/1.1/DTD/svg11.dtd">
<!-- Generated by graphviz version 2.44.1 (20200629.0846)
 -->
<!-- Title: index_lookup_join_buildtask Pages: 1 -->
<svg width="1085pt" height="267pt"
 viewBox="0.00 0.00 1085.00 266.50" xmlns="http://www.w3.org/2000/svg" xmlns:xlink="http://www.w3.org/1999/xlink">
<g id="graph0" class="graph" transform="scale(1 1) rotate(0) translate(4 262.5)">
<title>index_lookup_join_buildtask</title>
<polygon fill="white" stroke="transparent" points="-4,4 -4,-262.5 1081,-262.5 1081,4 -4,4"/>
<g id="clust1" class="cluster">
<title>cluster_task</title>
<path fill="none" stroke="slategrey" stroke-dasharray="5,2" d="M559,-44C559,-44 1057,-44 1057,-44 1063,-44 1069,-50 1069,-56 1069,-56 1069,-191 1069,-191 1069,-197 1063,-203 1057,-203 1057,-203 559,-203 559,-203 553,-203 547,-197 547,-191 547,-191 547,-56 547,-56 547,-50 553,-44 559,-44"/>
<text text-anchor="middle" x="808" y="-183" font-family="Times,serif" font-size="20.00">task</text>
</g>
<!-- outerResult -->
<g id="node1" class="node">
<title>outerResult</title>
<polygon fill="#f6d887" stroke="black" points="555,-70 555,-116 702,-116 702,-70 555,-70"/>
<text text-anchor="middle" x="628.5" y="-100.8" font-family="Times,serif" font-size="14.00">outerResult</text>
<polyline fill="none" stroke="black" points="555,-93 702,-93 "/>
<text text-anchor="start" x="563" y="-77.8" font-family="Times,serif" font-size="14.00">outerResult *chunk.List</text>
</g>
<!-- VectorizedFilter -->
<g id="node7" class="node">
<title>VectorizedFilter</title>
<polygon fill="none" stroke="black" points="740,-212 740,-258 889,-258 889,-212 740,-212"/>
<text text-anchor="middle" x="814.5" y="-242.8" font-family="Times,serif" font-size="14.00">VectorizedFilter</text>
<polyline fill="none" stroke="black" points="740,-235 889,-235 "/>
<text text-anchor="start" x="748" y="-219.8" font-family="Times,serif" font-size="14.00">根据out filter过滤数据</text>
</g>
<!-- outerResult&#45;&gt;VectorizedFilter -->
<g id="edge9" class="edge">
<title>outerResult&#45;&gt;VectorizedFilter</title>
<path fill="none" stroke="blue" stroke-dasharray="5,2" d="M646.16,-116.4C664.31,-140.46 695.5,-177.85 736,-206.21"/>
<polygon fill="blue" stroke="blue" points="734.26,-209.25 744.51,-211.94 738.17,-203.45 734.26,-209.25"/>
</g>
<!-- NewChunkWithCapacity -->
<g id="node8" class="node">
<title>NewChunkWithCapacity</title>
<polygon fill="none" stroke="black" points="891,-36 738,-36 738,0 891,0 891,-36"/>
<text text-anchor="middle" x="814.5" y="-14.3" font-family="Times,serif" font-size="14.00">NewChunkWithCapacity</text>
</g>
<!-- outerResult&#45;&gt;NewChunkWithCapacity -->
<g id="edge11" class="edge">
<title>outerResult&#45;&gt;NewChunkWithCapacity</title>
<path fill="none" stroke="blue" stroke-dasharray="5,2" d="M672.3,-69.99C691.97,-59.97 715.81,-48.58 738,-40 738.32,-39.88 738.65,-39.75 738.97,-39.63"/>
<polygon fill="blue" stroke="blue" points="740.39,-42.83 748.6,-36.13 738,-36.25 740.39,-42.83"/>
</g>
<!-- outerMatch -->
<g id="node2" class="node">
<title>outerMatch</title>
<polygon fill="none" stroke="black" points="931.5,-118 931.5,-164 1056.5,-164 1056.5,-118 931.5,-118"/>
<text text-anchor="middle" x="994" y="-148.8" font-family="Times,serif" font-size="14.00">outerMatch</text>
<polyline fill="none" stroke="black" points="931.5,-141 1056.5,-141 "/>
<text text-anchor="middle" x="994" y="-125.8" font-family="Times,serif" font-size="14.00">outerMatch [][]bool</text>
</g>
<!-- encodedLookUpKeys -->
<g id="node3" class="node">
<title>encodedLookUpKeys</title>
<polygon fill="none" stroke="black" points="927,-53 927,-99 1061,-99 1061,-53 927,-53"/>
<text text-anchor="middle" x="994" y="-83.8" font-family="Times,serif" font-size="14.00">encodedLookUpKeys</text>
<polyline fill="none" stroke="black" points="927,-76 1061,-76 "/>
<text text-anchor="start" x="935" y="-60.8" font-family="Times,serif" font-size="14.00">[]*chunk.Chunk</text>
</g>
<!-- outerResult_Add -->
<g id="node4" class="node">
<title>outerResult_Add</title>
<polygon fill="none" stroke="black" points="413,-75 413,-111 519,-111 519,-75 413,-75"/>
<text text-anchor="middle" x="466" y="-89.3" font-family="Times,serif" font-size="14.00">outerResult.Add</text>
</g>
<!-- outerResult_Add&#45;&gt;outerResult -->
<g id="edge8" class="edge">
<title>outerResult_Add&#45;&gt;outerResult</title>
<path fill="none" stroke="blue" stroke-dasharray="5,2" d="M519.11,-93C527.33,-93 536.01,-93 544.72,-93"/>
<polygon fill="blue" stroke="blue" points="544.95,-96.5 554.95,-93 544.95,-89.5 544.95,-96.5"/>
</g>
<!-- ow_executor_Next -->
<g id="node5" class="node">
<title>ow_executor_Next</title>
<polygon fill="none" stroke="black" points="107,-84.5 107,-145.5 287,-145.5 287,-84.5 107,-84.5"/>
<text text-anchor="middle" x="197" y="-130.3" font-family="Times,serif" font-size="14.00">ow_executor_Next</text>
<polyline fill="none" stroke="black" points="107,-122.5 287,-122.5 "/>
<text text-anchor="start" x="115" y="-107.3" font-family="Times,serif" font-size="14.00">从outer executor中读取数据</text>
<text text-anchor="start" x="115" y="-92.3" font-family="Times,serif" font-size="14.00"> 放入task的outerResult中</text>
</g>
<!-- Chunk -->
<g id="node9" class="node">
<title>Chunk</title>
<polygon fill="none" stroke="black" points="377,-127 323,-127 323,-91 377,-91 377,-127"/>
<text text-anchor="middle" x="350" y="-105.3" font-family="Times,serif" font-size="14.00">Chunk</text>
</g>
<!-- ow_executor_Next&#45;&gt;Chunk -->
<g id="edge6" class="edge">
<title>ow_executor_Next&#45;&gt;Chunk</title>
<path fill="none" stroke="blue" stroke-dasharray="5,2" d="M287.15,-111.46C296.1,-111.1 304.79,-110.76 312.69,-110.44"/>
<polygon fill="blue" stroke="blue" points="313.07,-113.93 322.92,-110.04 312.79,-106.94 313.07,-113.93"/>
</g>
<!-- buildTask -->
<g id="node6" class="node">
<title>buildTask</title>
<polygon fill="none" stroke="black" points="71,-133 0,-133 0,-97 71,-97 71,-133"/>
<text text-anchor="middle" x="35.5" y="-111.3" font-family="Times,serif" font-size="14.00">buildTask</text>
</g>
<!-- buildTask&#45;&gt;encodedLookUpKeys -->
<g id="edge1" class="edge">
<title>buildTask&#45;&gt;encodedLookUpKeys</title>
<path fill="none" stroke="#b83b5e" d="M62.03,-133.1C74.9,-141.26 91.12,-150.14 107,-155 210.16,-186.6 241.11,-174 349,-174 349,-174 349,-174 629.5,-174 745.89,-174 789.13,-216.29 891,-160 915.28,-146.58 905.96,-127.08 927,-109 928.7,-107.54 930.47,-106.13 932.3,-104.76"/>
<polygon fill="#b83b5e" stroke="#b83b5e" points="934.36,-107.6 940.64,-99.06 930.41,-101.82 934.36,-107.6"/>
</g>
<!-- buildTask&#45;&gt;outerResult_Add -->
<g id="edge2" class="edge">
<title>buildTask&#45;&gt;outerResult_Add</title>
<path fill="none" stroke="#b83b5e" d="M60.9,-96.99C73.89,-88.52 90.54,-79.35 107,-75 208.14,-48.31 330.81,-64.43 403.13,-78.65"/>
<polygon fill="#b83b5e" stroke="#b83b5e" points="402.5,-82.09 412.99,-80.64 403.88,-75.23 402.5,-82.09"/>
</g>
<!-- buildTask&#45;&gt;ow_executor_Next -->
<g id="edge3" class="edge">
<title>buildTask&#45;&gt;ow_executor_Next</title>
<path fill="none" stroke="#b83b5e" d="M71.11,-115C78.9,-115 87.54,-115 96.55,-115"/>
<polygon fill="#b83b5e" stroke="#b83b5e" points="96.83,-118.5 106.83,-115 96.83,-111.5 96.83,-118.5"/>
</g>
<!-- buildTask&#45;&gt;VectorizedFilter -->
<g id="edge4" class="edge">
<title>buildTask&#45;&gt;VectorizedFilter</title>
<path fill="none" stroke="#b83b5e" d="M48.75,-133.22C61.27,-150.29 82.35,-175.06 107,-188 203.53,-238.66 239.99,-228 349,-228 349,-228 349,-228 467,-228 556.75,-228 659.55,-230.38 729.72,-232.36"/>
<polygon fill="#b83b5e" stroke="#b83b5e" points="729.74,-235.86 739.83,-232.65 729.94,-228.86 729.74,-235.86"/>
</g>
<!-- buildTask&#45;&gt;NewChunkWithCapacity -->
<g id="edge5" class="edge">
<title>buildTask&#45;&gt;NewChunkWithCapacity</title>
<path fill="none" stroke="#b83b5e" d="M52.88,-96.74C66.11,-83.23 85.93,-65.57 107,-56 206.13,-10.98 240.13,-18 349,-18 349,-18 349,-18 467,-18 555.87,-18 657.56,-18 727.68,-18"/>
<polygon fill="#b83b5e" stroke="#b83b5e" points="727.8,-21.5 737.8,-18 727.8,-14.5 727.8,-21.5"/>
</g>
<!-- VectorizedFilter&#45;&gt;outerMatch -->
<g id="edge10" class="edge">
<title>VectorizedFilter&#45;&gt;outerMatch</title>
<path fill="none" stroke="blue" stroke-dasharray="5,2" d="M882.55,-211.99C885.43,-210.7 888.26,-209.37 891,-208 912.51,-197.28 934.99,-182.91 953.35,-170.22"/>
<polygon fill="blue" stroke="blue" points="955.83,-172.76 962.01,-164.15 951.81,-167.02 955.83,-172.76"/>
</g>
<!-- NewChunkWithCapacity&#45;&gt;encodedLookUpKeys -->
<g id="edge12" class="edge">
<title>NewChunkWithCapacity&#45;&gt;encodedLookUpKeys</title>
<path fill="none" stroke="blue" stroke-dasharray="5,2" d="M878.61,-36.11C882.81,-37.4 886.97,-38.7 891,-40 900.38,-43.02 910.21,-46.32 919.9,-49.65"/>
<polygon fill="blue" stroke="blue" points="918.93,-53.02 929.52,-52.98 921.22,-46.4 918.93,-53.02"/>
</g>
<!-- Chunk&#45;&gt;outerResult_Add -->
<g id="edge7" class="edge">
<title>Chunk&#45;&gt;outerResult_Add</title>
<path fill="none" stroke="blue" stroke-dasharray="5,2" d="M377.15,-105.33C384.89,-104.24 393.71,-103.01 402.71,-101.74"/>
<polygon fill="blue" stroke="blue" points="403.48,-105.17 412.9,-100.31 402.51,-98.24 403.48,-105.17"/>
</g>
</g>
</svg>
