<?xml version="1.0" encoding="UTF-8" standalone="no"?>
<!DOCTYPE svg PUBLIC "-//W3C//DTD SVG 1.1//EN"
 "http://www.w3.org/Graphics/SVG/1.1/DTD/svg11.dtd">
<!-- Generated by graphviz version 2.44.1 (20200629.0846)
 -->
<!-- Title: insert_exec Pages: 1 -->
<svg width="1077pt" height="193pt"
 viewBox="0.00 0.00 1077.00 193.00" xmlns="http://www.w3.org/2000/svg" xmlns:xlink="http://www.w3.org/1999/xlink">
<g id="graph0" class="graph" transform="scale(1 1) rotate(0) translate(4 189)">
<title>insert_exec</title>
<polygon fill="white" stroke="transparent" points="-4,4 -4,-189 1073,-189 1073,4 -4,4"/>
<!-- InsertExec -->
<g id="node1" class="node">
<title>InsertExec</title>
<polygon fill="none" stroke="black" points="0,-23.5 0,-161.5 232,-161.5 232,-23.5 0,-23.5"/>
<text text-anchor="start" x="8" y="-146.3" font-family="Times,serif" font-size="14.00">InsertExec</text>
<polyline fill="none" stroke="black" points="0,-138.5 232,-138.5 "/>
<text text-anchor="start" x="8" y="-123.3" font-family="Times,serif" font-size="14.00">InsertValues</text>
<polyline fill="none" stroke="black" points="0,-115.5 232,-115.5 "/>
<text text-anchor="start" x="8" y="-100.3" font-family="Times,serif" font-size="14.00">OnDuplicate []*expression.Assignment</text>
<polyline fill="none" stroke="black" points="0,-92.5 232,-92.5 "/>
<text text-anchor="start" x="8" y="-77.3" font-family="Times,serif" font-size="14.00">evalBuffer4Dup chunk.MutRow</text>
<polyline fill="none" stroke="black" points="0,-69.5 232,-69.5 "/>
<text text-anchor="start" x="8" y="-54.3" font-family="Times,serif" font-size="14.00">curInsertVals chunk.MutRow</text>
<polyline fill="none" stroke="black" points="0,-46.5 232,-46.5 "/>
<text text-anchor="start" x="8" y="-31.3" font-family="Times,serif" font-size="14.00">row4Update []types.Datum</text>
</g>
<!-- InsertValues -->
<g id="node2" class="node">
<title>InsertValues</title>
<polygon fill="none" stroke="black" points="268,-50.5 268,-134.5 401,-134.5 401,-50.5 268,-50.5"/>
<text text-anchor="middle" x="334.5" y="-119.3" font-family="Times,serif" font-size="14.00">InsertValues</text>
<polyline fill="none" stroke="black" points="268,-111.5 401,-111.5 "/>
<text text-anchor="start" x="276" y="-96.3" font-family="Times,serif" font-size="14.00">baseExecutor</text>
<polyline fill="none" stroke="black" points="268,-88.5 401,-88.5 "/>
<text text-anchor="start" x="276" y="-73.3" font-family="Times,serif" font-size="14.00">...</text>
<text text-anchor="start" x="276" y="-58.3" font-family="Times,serif" font-size="14.00"> SelectExec Executor</text>
</g>
<!-- InsertExec&#45;&gt;InsertValues -->
<g id="edge1" class="edge">
<title>InsertExec&#45;&gt;InsertValues</title>
<path fill="none" stroke="#666666" d="M232.22,-92.5C240.91,-92.5 249.54,-92.5 257.88,-92.5"/>
<polygon fill="#666666" stroke="#666666" points="257.9,-96 267.9,-92.5 257.9,-89 257.9,-96"/>
</g>
<!-- baseExecutor -->
<g id="node3" class="node">
<title>baseExecutor</title>
<polygon fill="none" stroke="black" points="437,-0.5 437,-184.5 737,-184.5 737,-0.5 437,-0.5"/>
<text text-anchor="middle" x="587" y="-169.3" font-family="Times,serif" font-size="14.00">baseExecutor</text>
<polyline fill="none" stroke="black" points="437,-161.5 737,-161.5 "/>
<text text-anchor="start" x="445" y="-146.3" font-family="Times,serif" font-size="14.00">ctx sessionctx.Context</text>
<polyline fill="none" stroke="black" points="437,-138.5 737,-138.5 "/>
<text text-anchor="start" x="445" y="-123.3" font-family="Times,serif" font-size="14.00">id int schema *expression.Schema // output schema</text>
<polyline fill="none" stroke="black" points="437,-115.5 737,-115.5 "/>
<text text-anchor="start" x="445" y="-100.3" font-family="Times,serif" font-size="14.00">initCap int</text>
<polyline fill="none" stroke="black" points="437,-92.5 737,-92.5 "/>
<text text-anchor="start" x="445" y="-77.3" font-family="Times,serif" font-size="14.00">maxChunkSize int</text>
<polyline fill="none" stroke="black" points="437,-69.5 737,-69.5 "/>
<text text-anchor="start" x="445" y="-54.3" font-family="Times,serif" font-size="14.00">children []Executor</text>
<polyline fill="none" stroke="black" points="437,-46.5 737,-46.5 "/>
<text text-anchor="start" x="445" y="-31.3" font-family="Times,serif" font-size="14.00">retFieldTypes []*types.FieldType</text>
<polyline fill="none" stroke="black" points="437,-23.5 737,-23.5 "/>
<text text-anchor="start" x="445" y="-8.3" font-family="Times,serif" font-size="14.00">runtimeStats *execdetails.BasicRuntimeStats</text>
</g>
<!-- InsertValues&#45;&gt;baseExecutor -->
<g id="edge2" class="edge">
<title>InsertValues&#45;&gt;baseExecutor</title>
<path fill="none" stroke="#666666" d="M401.32,-92.5C409.43,-92.5 417.97,-92.5 426.75,-92.5"/>
<polygon fill="#666666" stroke="#666666" points="426.76,-96 436.76,-92.5 426.76,-89 426.76,-96"/>
</g>
<!-- Executor -->
<g id="node4" class="node">
<title>Executor</title>
<polygon fill="none" stroke="black" points="773,-23.5 773,-161.5 1069,-161.5 1069,-23.5 773,-23.5"/>
<text text-anchor="middle" x="921" y="-146.3" font-family="Times,serif" font-size="14.00">Executor</text>
<polyline fill="none" stroke="black" points="773,-138.5 1069,-138.5 "/>
<text text-anchor="start" x="781" y="-123.3" font-family="Times,serif" font-size="14.00">base() *baseExecutor</text>
<polyline fill="none" stroke="black" points="773,-115.5 1069,-115.5 "/>
<text text-anchor="start" x="781" y="-100.3" font-family="Times,serif" font-size="14.00">Open(context.Context) error</text>
<polyline fill="none" stroke="black" points="773,-92.5 1069,-92.5 "/>
<text text-anchor="start" x="781" y="-77.3" font-family="Times,serif" font-size="14.00">Next(ctx context.Context, req *chunk.Chunk) error</text>
<polyline fill="none" stroke="black" points="773,-69.5 1069,-69.5 "/>
<text text-anchor="start" x="781" y="-54.3" font-family="Times,serif" font-size="14.00">Close() error</text>
<polyline fill="none" stroke="black" points="773,-46.5 1069,-46.5 "/>
<text text-anchor="start" x="781" y="-31.3" font-family="Times,serif" font-size="14.00">Schema() *expression.Schema</text>
</g>
<!-- baseExecutor&#45;&gt;Executor -->
<g id="edge3" class="edge">
<title>baseExecutor&#45;&gt;Executor</title>
<path fill="none" stroke="#666666" d="M737.01,-92.5C745.55,-92.5 754.16,-92.5 762.74,-92.5"/>
<polygon fill="#666666" stroke="#666666" points="762.79,-96 772.79,-92.5 762.79,-89 762.79,-96"/>
</g>
</g>
</svg>
