<?xml version="1.0" encoding="UTF-8" standalone="no"?>
<!DOCTYPE svg PUBLIC "-//W3C//DTD SVG 1.1//EN"
 "http://www.w3.org/Graphics/SVG/1.1/DTD/svg11.dtd">
<!-- Generated by graphviz version 2.40.1 (20161225.0304)
 -->
<!-- Title: model Pages: 1 -->
<svg width="1264pt" height="802pt"
 viewBox="0.00 0.00 1264.03 802.00" xmlns="http://www.w3.org/2000/svg" xmlns:xlink="http://www.w3.org/1999/xlink">
<g id="graph0" class="graph" transform="scale(1 1) rotate(0) translate(4 798)">
<title>model</title>
<polygon fill="#ffffff" stroke="transparent" points="-4,4 -4,-798 1260.0342,-798 1260.0342,4 -4,4"/>
<!-- FKInfo -->
<g id="node1" class="node">
<title>FKInfo</title>
<polygon fill="none" stroke="#000000" points="924.0713,-239.5 924.0713,-437.5 1047.375,-437.5 1047.375,-239.5 924.0713,-239.5"/>
<text text-anchor="middle" x="985.7231" y="-422.3" font-family="Times,serif" font-size="14.00" fill="#000000">FKInfo</text>
<polyline fill="none" stroke="#000000" points="924.0713,-415.5 1047.375,-415.5 "/>
<text text-anchor="start" x="932.0713" y="-400.3" font-family="Times,serif" font-size="14.00" fill="#000000">ID int64</text>
<polyline fill="none" stroke="#000000" points="924.0713,-393.5 1047.375,-393.5 "/>
<text text-anchor="start" x="932.0713" y="-378.3" font-family="Times,serif" font-size="14.00" fill="#000000">Name CIStr</text>
<polyline fill="none" stroke="#000000" points="924.0713,-371.5 1047.375,-371.5 "/>
<text text-anchor="start" x="932.0713" y="-356.3" font-family="Times,serif" font-size="14.00" fill="#000000">RefTable CIStr</text>
<polyline fill="none" stroke="#000000" points="924.0713,-349.5 1047.375,-349.5 "/>
<text text-anchor="start" x="932.0713" y="-334.3" font-family="Times,serif" font-size="14.00" fill="#000000">RefCols []CIStr</text>
<polyline fill="none" stroke="#000000" points="924.0713,-327.5 1047.375,-327.5 "/>
<text text-anchor="start" x="932.0713" y="-312.3" font-family="Times,serif" font-size="14.00" fill="#000000">Cols []CIStr</text>
<polyline fill="none" stroke="#000000" points="924.0713,-305.5 1047.375,-305.5 "/>
<text text-anchor="start" x="932.0713" y="-290.3" font-family="Times,serif" font-size="14.00" fill="#000000">OnDelete int</text>
<polyline fill="none" stroke="#000000" points="924.0713,-283.5 1047.375,-283.5 "/>
<text text-anchor="start" x="932.0713" y="-268.3" font-family="Times,serif" font-size="14.00" fill="#000000">OnUpdate int</text>
<polyline fill="none" stroke="#000000" points="924.0713,-261.5 1047.375,-261.5 "/>
<text text-anchor="start" x="932.0713" y="-246.3" font-family="Times,serif" font-size="14.00" fill="#000000">State SchemaState </text>
</g>
<!-- ColumnInfo -->
<g id="node2" class="node">
<title>ColumnInfo</title>
<polygon fill="none" stroke="#000000" points="1112.1338,-617.5 1112.1338,-793.5 1256.0342,-793.5 1256.0342,-617.5 1112.1338,-617.5"/>
<text text-anchor="middle" x="1184.084" y="-778.3" font-family="Times,serif" font-size="14.00" fill="#000000">ColumnInfo</text>
<polyline fill="none" stroke="#000000" points="1112.1338,-771.5 1256.0342,-771.5 "/>
<text text-anchor="start" x="1120.1338" y="-756.3" font-family="Times,serif" font-size="14.00" fill="#000000">ID int64</text>
<polyline fill="none" stroke="#000000" points="1112.1338,-749.5 1256.0342,-749.5 "/>
<text text-anchor="start" x="1120.1338" y="-734.3" font-family="Times,serif" font-size="14.00" fill="#000000">Name CIStr</text>
<polyline fill="none" stroke="#000000" points="1112.1338,-727.5 1256.0342,-727.5 "/>
<text text-anchor="start" x="1120.1338" y="-712.3" font-family="Times,serif" font-size="14.00" fill="#000000">types.FieldType </text>
<polyline fill="none" stroke="#000000" points="1112.1338,-705.5 1256.0342,-705.5 "/>
<text text-anchor="start" x="1120.1338" y="-690.3" font-family="Times,serif" font-size="14.00" fill="#000000">DefaultValueBit []byte</text>
<polyline fill="none" stroke="#000000" points="1112.1338,-683.5 1256.0342,-683.5 "/>
<text text-anchor="start" x="1120.1338" y="-668.3" font-family="Times,serif" font-size="14.00" fill="#000000">State SchemaState</text>
<polyline fill="none" stroke="#000000" points="1112.1338,-661.5 1256.0342,-661.5 "/>
<text text-anchor="start" x="1120.1338" y="-646.3" font-family="Times,serif" font-size="14.00" fill="#000000">Comment string </text>
<polyline fill="none" stroke="#000000" points="1112.1338,-639.5 1256.0342,-639.5 "/>
<text text-anchor="start" x="1120.1338" y="-624.3" font-family="Times,serif" font-size="14.00" fill="#000000">Version uint64 </text>
</g>
<!-- tableCommon -->
<g id="node3" class="node">
<title>tableCommon</title>
<polygon fill="none" stroke="#000000" points="651.2295,-.5 651.2295,-264.5 859.3125,-264.5 859.3125,-.5 651.2295,-.5"/>
<text text-anchor="middle" x="755.271" y="-249.3" font-family="Times,serif" font-size="14.00" fill="#000000">tableCommon</text>
<polyline fill="none" stroke="#000000" points="651.2295,-242.5 859.3125,-242.5 "/>
<text text-anchor="start" x="659.2295" y="-227.3" font-family="Times,serif" font-size="14.00" fill="#000000">tableID int64</text>
<polyline fill="none" stroke="#000000" points="651.2295,-220.5 859.3125,-220.5 "/>
<text text-anchor="start" x="659.2295" y="-205.3" font-family="Times,serif" font-size="14.00" fill="#000000">physicalTableID int64</text>
<polyline fill="none" stroke="#000000" points="651.2295,-198.5 859.3125,-198.5 "/>
<text text-anchor="start" x="659.2295" y="-183.3" font-family="Times,serif" font-size="14.00" fill="#000000">Columns []*table.Column</text>
<polyline fill="none" stroke="#000000" points="651.2295,-176.5 859.3125,-176.5 "/>
<text text-anchor="start" x="659.2295" y="-161.3" font-family="Times,serif" font-size="14.00" fill="#000000">publicColumns []*table.Column</text>
<polyline fill="none" stroke="#000000" points="651.2295,-154.5 859.3125,-154.5 "/>
<text text-anchor="start" x="659.2295" y="-139.3" font-family="Times,serif" font-size="14.00" fill="#000000">writableColumns []*table.Column</text>
<polyline fill="none" stroke="#000000" points="651.2295,-132.5 859.3125,-132.5 "/>
<text text-anchor="start" x="659.2295" y="-117.3" font-family="Times,serif" font-size="14.00" fill="#000000">writableIndices []table.Index</text>
<polyline fill="none" stroke="#000000" points="651.2295,-110.5 859.3125,-110.5 "/>
<text text-anchor="start" x="659.2295" y="-95.3" font-family="Times,serif" font-size="14.00" fill="#000000">indices []table.Index</text>
<polyline fill="none" stroke="#000000" points="651.2295,-88.5 859.3125,-88.5 "/>
<text text-anchor="start" x="659.2295" y="-73.3" font-family="Times,serif" font-size="14.00" fill="#000000">meta *model.TableInfo</text>
<polyline fill="none" stroke="#000000" points="651.2295,-66.5 859.3125,-66.5 "/>
<text text-anchor="start" x="659.2295" y="-51.3" font-family="Times,serif" font-size="14.00" fill="#000000">alloc autoid.Allocator</text>
<polyline fill="none" stroke="#000000" points="651.2295,-44.5 859.3125,-44.5 "/>
<text text-anchor="start" x="659.2295" y="-29.3" font-family="Times,serif" font-size="14.00" fill="#000000">recordPrefix kv.Key</text>
<polyline fill="none" stroke="#000000" points="651.2295,-22.5 859.3125,-22.5 "/>
<text text-anchor="start" x="659.2295" y="-7.3" font-family="Times,serif" font-size="14.00" fill="#000000">indexPrefix kv.Key</text>
</g>
<!-- index -->
<g id="node5" class="node">
<title>index</title>
<polygon fill="none" stroke="#000000" points="905.0195,-47.5 905.0195,-135.5 1066.4268,-135.5 1066.4268,-47.5 905.0195,-47.5"/>
<text text-anchor="middle" x="985.7231" y="-120.3" font-family="Times,serif" font-size="14.00" fill="#000000">index</text>
<polyline fill="none" stroke="#000000" points="905.0195,-113.5 1066.4268,-113.5 "/>
<text text-anchor="start" x="913.0195" y="-98.3" font-family="Times,serif" font-size="14.00" fill="#000000">idxInfo *model.IndexInfo</text>
<polyline fill="none" stroke="#000000" points="905.0195,-91.5 1066.4268,-91.5 "/>
<text text-anchor="start" x="913.0195" y="-76.3" font-family="Times,serif" font-size="14.00" fill="#000000">tblInfo *model.TableInfo</text>
<polyline fill="none" stroke="#000000" points="905.0195,-69.5 1066.4268,-69.5 "/>
<text text-anchor="start" x="913.0195" y="-54.3" font-family="Times,serif" font-size="14.00" fill="#000000">prefix kv.Key</text>
</g>
<!-- tableCommon&#45;&gt;index -->
<g id="edge2" class="edge">
<title>tableCommon:index&#45;&gt;index</title>
<path fill="none" stroke="#000000" d="M859.271,-99.5C870.7853,-99.5 882.8775,-99.1655 894.83,-98.6334"/>
<polygon fill="#000000" stroke="#000000" points="895.0052,-102.1291 904.8215,-98.1429 894.6619,-95.1375 895.0052,-102.1291"/>
</g>
<!-- Column -->
<g id="node6" class="node">
<title>Column</title>
<polygon fill="none" stroke="#000000" points="895.3125,-154.5 895.3125,-220.5 1076.1338,-220.5 1076.1338,-154.5 895.3125,-154.5"/>
<text text-anchor="middle" x="985.7231" y="-205.3" font-family="Times,serif" font-size="14.00" fill="#000000">Column</text>
<polyline fill="none" stroke="#000000" points="895.3125,-198.5 1076.1338,-198.5 "/>
<text text-anchor="start" x="903.3125" y="-183.3" font-family="Times,serif" font-size="14.00" fill="#000000">*model.ColumnInfo</text>
<polyline fill="none" stroke="#000000" points="895.3125,-176.5 1076.1338,-176.5 "/>
<text text-anchor="start" x="903.3125" y="-161.3" font-family="Times,serif" font-size="14.00" fill="#000000">GeneratedExpr ast.ExprNode</text>
</g>
<!-- tableCommon&#45;&gt;Column -->
<g id="edge4" class="edge">
<title>tableCommon:columns&#45;&gt;Column</title>
<path fill="none" stroke="#000000" d="M859.271,-187.5C867.6339,-187.5 876.3079,-187.5 885.0153,-187.5"/>
<polygon fill="#000000" stroke="#000000" points="885.2357,-191.0001 895.2356,-187.5 885.2356,-184.0001 885.2357,-191.0001"/>
</g>
<!-- Table -->
<g id="node4" class="node">
<title>Table</title>
<polygon fill="none" stroke="#000000" points="502.6274,-198.5 502.6274,-242.5 601.4517,-242.5 601.4517,-198.5 502.6274,-198.5"/>
<text text-anchor="middle" x="552.0396" y="-227.3" font-family="Times,serif" font-size="14.00" fill="#000000">Table</text>
<polyline fill="none" stroke="#000000" points="502.6274,-220.5 601.4517,-220.5 "/>
<text text-anchor="start" x="510.6274" y="-205.3" font-family="Times,serif" font-size="14.00" fill="#000000">tableCommon </text>
</g>
<!-- Table&#45;&gt;tableCommon -->
<g id="edge3" class="edge">
<title>Table:tableCommon&#45;&gt;tableCommon</title>
<path fill="none" stroke="#000000" d="M601.0396,-209.5C614.6462,-209.5 628.2844,-207.0714 641.5138,-203.0767"/>
<polygon fill="#000000" stroke="#000000" points="642.6812,-206.3771 651.0683,-199.9036 640.4748,-199.7339 642.6812,-206.3771"/>
</g>
<!-- Column&#45;&gt;ColumnInfo -->
<g id="edge1" class="edge">
<title>Column:columenInfo&#45;&gt;ColumnInfo</title>
<path fill="none" stroke="#000000" d="M1075.7231,-187.5C1122.5648,-187.5 1095.6375,-563.6592 1112.1338,-607.5 1112.1721,-607.6019 1112.2106,-607.7037 1112.2492,-607.8055"/>
<polygon fill="#000000" stroke="#000000" points="1109.1088,-609.3669 1116.2124,-617.2276 1115.5613,-606.6528 1109.1088,-609.3669"/>
</g>
<!-- TableInfo -->
<g id="node7" class="node">
<title>TableInfo</title>
<polygon fill="none" stroke="#000000" points="676.1055,-408.5 676.1055,-540.5 834.4365,-540.5 834.4365,-408.5 676.1055,-408.5"/>
<text text-anchor="middle" x="755.271" y="-525.3" font-family="Times,serif" font-size="14.00" fill="#000000">TableInfo</text>
<polyline fill="none" stroke="#000000" points="676.1055,-518.5 834.4365,-518.5 "/>
<text text-anchor="start" x="684.1055" y="-503.3" font-family="Times,serif" font-size="14.00" fill="#000000">ID int64</text>
<polyline fill="none" stroke="#000000" points="676.1055,-496.5 834.4365,-496.5 "/>
<text text-anchor="start" x="684.1055" y="-481.3" font-family="Times,serif" font-size="14.00" fill="#000000">Columns []*ColumnInfo </text>
<polyline fill="none" stroke="#000000" points="676.1055,-474.5 834.4365,-474.5 "/>
<text text-anchor="start" x="684.1055" y="-459.3" font-family="Times,serif" font-size="14.00" fill="#000000">Indices []*IndexInfo </text>
<polyline fill="none" stroke="#000000" points="676.1055,-452.5 834.4365,-452.5 "/>
<text text-anchor="start" x="684.1055" y="-437.3" font-family="Times,serif" font-size="14.00" fill="#000000">ForeignKeys []*FKInfo</text>
<polyline fill="none" stroke="#000000" points="676.1055,-430.5 834.4365,-430.5 "/>
<text text-anchor="start" x="684.1055" y="-415.3" font-family="Times,serif" font-size="14.00" fill="#000000">State SchemaState </text>
</g>
<!-- TableInfo&#45;&gt;FKInfo -->
<g id="edge12" class="edge">
<title>TableInfo:ForeignKeys&#45;&gt;FKInfo</title>
<path fill="none" stroke="#000000" d="M834.271,-441.5C863.8533,-441.5 891.936,-427.8976 915.7024,-410.5792"/>
<polygon fill="#000000" stroke="#000000" points="918.0913,-413.1592 923.9243,-404.3146 913.8488,-407.5913 918.0913,-413.1592"/>
</g>
<!-- TableInfo&#45;&gt;ColumnInfo -->
<g id="edge10" class="edge">
<title>TableInfo:Columns&#45;&gt;ColumnInfo</title>
<path fill="none" stroke="#000000" d="M834.271,-485.5C927.633,-485.5 822.1815,-628.4628 895.3125,-686.5 952.8417,-732.1555 1038.827,-731.8662 1102.0129,-723.2161"/>
<polygon fill="#000000" stroke="#000000" points="1102.5625,-726.673 1111.9502,-721.7617 1101.5488,-719.7468 1102.5625,-726.673"/>
</g>
<!-- IndexInfo -->
<g id="node8" class="node">
<title>IndexInfo</title>
<polygon fill="none" stroke="#000000" points="904.0317,-456.5 904.0317,-676.5 1067.4146,-676.5 1067.4146,-456.5 904.0317,-456.5"/>
<text text-anchor="middle" x="985.7231" y="-661.3" font-family="Times,serif" font-size="14.00" fill="#000000">IndexInfo</text>
<polyline fill="none" stroke="#000000" points="904.0317,-654.5 1067.4146,-654.5 "/>
<text text-anchor="start" x="912.0317" y="-639.3" font-family="Times,serif" font-size="14.00" fill="#000000">ID int64</text>
<polyline fill="none" stroke="#000000" points="904.0317,-632.5 1067.4146,-632.5 "/>
<text text-anchor="start" x="912.0317" y="-617.3" font-family="Times,serif" font-size="14.00" fill="#000000">Name CIStr</text>
<polyline fill="none" stroke="#000000" points="904.0317,-610.5 1067.4146,-610.5 "/>
<text text-anchor="start" x="912.0317" y="-595.3" font-family="Times,serif" font-size="14.00" fill="#000000">Table CIStr</text>
<polyline fill="none" stroke="#000000" points="904.0317,-588.5 1067.4146,-588.5 "/>
<text text-anchor="start" x="912.0317" y="-573.3" font-family="Times,serif" font-size="14.00" fill="#000000">Columns []*IndexColumn</text>
<polyline fill="none" stroke="#000000" points="904.0317,-566.5 1067.4146,-566.5 "/>
<text text-anchor="start" x="912.0317" y="-551.3" font-family="Times,serif" font-size="14.00" fill="#000000">Unique bool </text>
<polyline fill="none" stroke="#000000" points="904.0317,-544.5 1067.4146,-544.5 "/>
<text text-anchor="start" x="912.0317" y="-529.3" font-family="Times,serif" font-size="14.00" fill="#000000">Primary bool</text>
<polyline fill="none" stroke="#000000" points="904.0317,-522.5 1067.4146,-522.5 "/>
<text text-anchor="start" x="912.0317" y="-507.3" font-family="Times,serif" font-size="14.00" fill="#000000">State SchemaState </text>
<polyline fill="none" stroke="#000000" points="904.0317,-500.5 1067.4146,-500.5 "/>
<text text-anchor="start" x="912.0317" y="-485.3" font-family="Times,serif" font-size="14.00" fill="#000000">Comment string</text>
<polyline fill="none" stroke="#000000" points="904.0317,-478.5 1067.4146,-478.5 "/>
<text text-anchor="start" x="912.0317" y="-463.3" font-family="Times,serif" font-size="14.00" fill="#000000">Tp IndexType </text>
</g>
<!-- TableInfo&#45;&gt;IndexInfo -->
<g id="edge11" class="edge">
<title>TableInfo:Indices&#45;&gt;IndexInfo</title>
<path fill="none" stroke="#000000" d="M834.271,-463.5C855.6826,-463.5 876.3087,-470.6261 895.081,-481.1295"/>
<polygon fill="#000000" stroke="#000000" points="893.4742,-484.2463 903.8563,-486.359 897.0578,-478.2331 893.4742,-484.2463"/>
</g>
<!-- IndexColumn -->
<g id="node9" class="node">
<title>IndexColumn</title>
<polygon fill="none" stroke="#000000" points="1137.5874,-510.5 1137.5874,-598.5 1230.5806,-598.5 1230.5806,-510.5 1137.5874,-510.5"/>
<text text-anchor="middle" x="1184.084" y="-583.3" font-family="Times,serif" font-size="14.00" fill="#000000">IndexColumn</text>
<polyline fill="none" stroke="#000000" points="1137.5874,-576.5 1230.5806,-576.5 "/>
<text text-anchor="start" x="1145.5874" y="-561.3" font-family="Times,serif" font-size="14.00" fill="#000000">Name CIStr </text>
<polyline fill="none" stroke="#000000" points="1137.5874,-554.5 1230.5806,-554.5 "/>
<text text-anchor="start" x="1145.5874" y="-539.3" font-family="Times,serif" font-size="14.00" fill="#000000">Offset int </text>
<polyline fill="none" stroke="#000000" points="1137.5874,-532.5 1230.5806,-532.5 "/>
<text text-anchor="start" x="1145.5874" y="-517.3" font-family="Times,serif" font-size="14.00" fill="#000000">Length int </text>
</g>
<!-- IndexInfo&#45;&gt;IndexColumn -->
<g id="edge9" class="edge">
<title>IndexInfo:Columns&#45;&gt;IndexColumn</title>
<path fill="none" stroke="#000000" d="M1067.7231,-577.5C1087.4476,-577.5 1108.7019,-574.2801 1127.5799,-570.2498"/>
<polygon fill="#000000" stroke="#000000" points="1128.5199,-573.6258 1137.5054,-568.0122 1126.9805,-566.7972 1128.5199,-573.6258"/>
</g>
<!-- DBInfo -->
<g id="node10" class="node">
<title>DBInfo</title>
<polygon fill="none" stroke="#000000" points="488.8496,-299.5 488.8496,-453.5 615.2295,-453.5 615.2295,-299.5 488.8496,-299.5"/>
<text text-anchor="middle" x="552.0396" y="-438.3" font-family="Times,serif" font-size="14.00" fill="#000000">DBInfo</text>
<polyline fill="none" stroke="#000000" points="488.8496,-431.5 615.2295,-431.5 "/>
<text text-anchor="start" x="496.8496" y="-416.3" font-family="Times,serif" font-size="14.00" fill="#000000">ID int64</text>
<polyline fill="none" stroke="#000000" points="488.8496,-409.5 615.2295,-409.5 "/>
<text text-anchor="start" x="496.8496" y="-394.3" font-family="Times,serif" font-size="14.00" fill="#000000">Name CIStr</text>
<polyline fill="none" stroke="#000000" points="488.8496,-387.5 615.2295,-387.5 "/>
<text text-anchor="start" x="496.8496" y="-372.3" font-family="Times,serif" font-size="14.00" fill="#000000">Charset string </text>
<polyline fill="none" stroke="#000000" points="488.8496,-365.5 615.2295,-365.5 "/>
<text text-anchor="start" x="496.8496" y="-350.3" font-family="Times,serif" font-size="14.00" fill="#000000">Collate string </text>
<polyline fill="none" stroke="#000000" points="488.8496,-343.5 615.2295,-343.5 "/>
<text text-anchor="start" x="496.8496" y="-328.3" font-family="Times,serif" font-size="14.00" fill="#000000">Tables []*TableInfo</text>
<polyline fill="none" stroke="#000000" points="488.8496,-321.5 615.2295,-321.5 "/>
<text text-anchor="start" x="496.8496" y="-306.3" font-family="Times,serif" font-size="14.00" fill="#000000">State SchemaState </text>
</g>
<!-- DBInfo&#45;&gt;TableInfo -->
<g id="edge8" class="edge">
<title>DBInfo:Tables&#45;&gt;TableInfo</title>
<path fill="none" stroke="#000000" d="M615.0396,-332.5C657.8405,-332.5 691.9875,-365.5645 715.8662,-399.7834"/>
<polygon fill="#000000" stroke="#000000" points="713.2328,-402.1399 721.7148,-408.4885 719.0432,-398.2361 713.2328,-402.1399"/>
</g>
<!-- schemaTables -->
<g id="node11" class="node">
<title>schemaTables</title>
<polygon fill="none" stroke="#000000" points="273.7783,-235.5 273.7783,-323.5 452.8496,-323.5 452.8496,-235.5 273.7783,-235.5"/>
<text text-anchor="middle" x="363.314" y="-308.3" font-family="Times,serif" font-size="14.00" fill="#000000">schemaTables</text>
<polyline fill="none" stroke="#000000" points="273.7783,-301.5 452.8496,-301.5 "/>
<text text-anchor="start" x="281.7783" y="-286.3" font-family="Times,serif" font-size="14.00" fill="#000000">dbInfo *model.DBInfo</text>
<polyline fill="none" stroke="#000000" points="273.7783,-279.5 452.8496,-279.5 "/>
<text text-anchor="start" x="281.7783" y="-264.3" font-family="Times,serif" font-size="14.00" fill="#000000">tables map[string]table.Table</text>
<polyline fill="none" stroke="#000000" points="273.7783,-257.5 452.8496,-257.5 "/>
<text text-anchor="middle" x="363.314" y="-242.3" font-family="Times,serif" font-size="14.00" fill="#000000"> </text>
</g>
<!-- schemaTables&#45;&gt;Table -->
<g id="edge6" class="edge">
<title>schemaTables:tables&#45;&gt;Table</title>
<path fill="none" stroke="#000000" d="M452.8496,-268.5C474.8426,-268.5 497.0857,-258.8203 514.9191,-248.1546"/>
<polygon fill="#000000" stroke="#000000" points="517.2328,-250.8329 523.8182,-242.5332 513.4945,-244.9147 517.2328,-250.8329"/>
</g>
<!-- schemaTables&#45;&gt;DBInfo -->
<g id="edge7" class="edge">
<title>schemaTables:dbInfo&#45;&gt;DBInfo</title>
<path fill="none" stroke="#000000" d="M452.8496,-290.5C462.3064,-290.5 471.3034,-292.7592 479.7412,-296.5452"/>
<polygon fill="#000000" stroke="#000000" points="478.1898,-299.6836 488.6729,-301.2181 481.4348,-293.4811 478.1898,-299.6836"/>
</g>
<!-- infoSchema -->
<g id="node12" class="node">
<title>infoSchema</title>
<polygon fill="none" stroke="#000000" points="0,-224.5 0,-312.5 237.7783,-312.5 237.7783,-224.5 0,-224.5"/>
<text text-anchor="middle" x="118.8892" y="-297.3" font-family="Times,serif" font-size="14.00" fill="#000000">infoSchema</text>
<polyline fill="none" stroke="#000000" points="0,-290.5 237.7783,-290.5 "/>
<text text-anchor="start" x="8" y="-275.3" font-family="Times,serif" font-size="14.00" fill="#000000">schemaMap map[string]*schemaTables</text>
<polyline fill="none" stroke="#000000" points="0,-268.5 237.7783,-268.5 "/>
<text text-anchor="start" x="8" y="-253.3" font-family="Times,serif" font-size="14.00" fill="#000000">sortedTablesBuckets []sortedTables</text>
<polyline fill="none" stroke="#000000" points="0,-246.5 237.7783,-246.5 "/>
<text text-anchor="start" x="8" y="-231.3" font-family="Times,serif" font-size="14.00" fill="#000000">schemaMetaVersion int64</text>
</g>
<!-- infoSchema&#45;&gt;schemaTables -->
<g id="edge5" class="edge">
<title>infoSchema:schemaMap&#45;&gt;schemaTables</title>
<path fill="none" stroke="#000000" d="M237.7783,-279.5C246.0806,-279.5 254.6918,-279.5 263.336,-279.5"/>
<polygon fill="#000000" stroke="#000000" points="263.4823,-283.0001 273.4823,-279.5 263.4823,-276.0001 263.4823,-283.0001"/>
</g>
</g>
</svg>
