<?xml version="1.0" encoding="UTF-8" standalone="no"?>
<!DOCTYPE svg PUBLIC "-//W3C//DTD SVG 1.1//EN"
 "http://www.w3.org/Graphics/SVG/1.1/DTD/svg11.dtd">
<!-- Generated by graphviz version 2.44.1 (20200629.0846)
 -->
<!-- Title: outerJoinEliminator Pages: 1 -->
<svg width="1124pt" height="216pt"
 viewBox="0.00 0.00 1124.00 216.00" xmlns="http://www.w3.org/2000/svg" xmlns:xlink="http://www.w3.org/1999/xlink">
<g id="graph0" class="graph" transform="scale(1 1) rotate(0) translate(4 212)">
<title>outerJoinEliminator</title>
<polygon fill="white" stroke="transparent" points="-4,4 -4,-212 1120,-212 1120,4 -4,4"/>
<!-- IsColsAllFromOuterTable -->
<g id="node1" class="node">
<title>IsColsAllFromOuterTable</title>
<polygon fill="none" stroke="black" points="442,-146.5 442,-207.5 602,-207.5 602,-146.5 442,-146.5"/>
<text text-anchor="middle" x="522" y="-192.3" font-family="Times,serif" font-size="14.00">IsColsAllFromOuterTable</text>
<polyline fill="none" stroke="black" points="442,-184.5 602,-184.5 "/>
<text text-anchor="start" x="450" y="-169.3" font-family="Times,serif" font-size="14.00">check whether the cols</text>
<text text-anchor="start" x="450" y="-154.3" font-family="Times,serif" font-size="14.00"> all from outer plan</text>
</g>
<!-- outerUniqueIDs -->
<g id="node9" class="node">
<title>outerUniqueIDs</title>
<polygon fill="none" stroke="black" points="763,-195 659,-195 659,-159 763,-159 763,-195"/>
<text text-anchor="middle" x="711" y="-173.3" font-family="Times,serif" font-size="14.00">outerUniqueIDs</text>
</g>
<!-- IsColsAllFromOuterTable&#45;&gt;outerUniqueIDs -->
<g id="edge9" class="edge">
<title>IsColsAllFromOuterTable&#45;&gt;outerUniqueIDs</title>
<path fill="none" stroke="#666666" d="M602.03,-177C617.66,-177 633.85,-177 648.78,-177"/>
<polygon fill="#666666" stroke="#666666" points="648.9,-180.5 658.9,-177 648.9,-173.5 648.9,-180.5"/>
</g>
<!-- GetDupAgnosticAggCols -->
<g id="node2" class="node">
<title>GetDupAgnosticAggCols</title>
<polygon fill="none" stroke="black" points="218,-123.5 218,-184.5 397,-184.5 397,-123.5 218,-123.5"/>
<text text-anchor="middle" x="307.5" y="-169.3" font-family="Times,serif" font-size="14.00">GetDupAgnosticAggCols</text>
<polyline fill="none" stroke="black" points="218,-161.5 397,-161.5 "/>
<text text-anchor="start" x="226" y="-146.3" font-family="Times,serif" font-size="14.00">checks whether a LogicalPlan</text>
<text text-anchor="start" x="226" y="-131.3" font-family="Times,serif" font-size="14.00"> is LogicalAggregation</text>
</g>
<!-- optimize -->
<g id="node3" class="node">
<title>optimize</title>
<polygon fill="none" stroke="black" points="65,-138 0,-138 0,-102 65,-102 65,-138"/>
<text text-anchor="middle" x="32.5" y="-116.3" font-family="Times,serif" font-size="14.00">optimize</text>
</g>
<!-- doOptimize -->
<g id="node4" class="node">
<title>doOptimize</title>
<polygon fill="none" stroke="black" points="182,-138 101,-138 101,-102 182,-102 182,-138"/>
<text text-anchor="middle" x="141.5" y="-116.3" font-family="Times,serif" font-size="14.00">doOptimize</text>
</g>
<!-- optimize&#45;&gt;doOptimize -->
<g id="edge1" class="edge">
<title>optimize&#45;&gt;doOptimize</title>
<path fill="none" stroke="#666666" d="M65.02,-120C73.09,-120 81.96,-120 90.7,-120"/>
<polygon fill="#666666" stroke="#666666" points="90.84,-123.5 100.84,-120 90.84,-116.5 90.84,-123.5"/>
</g>
<!-- doOptimize&#45;&gt;GetDupAgnosticAggCols -->
<g id="edge2" class="edge">
<title>doOptimize&#45;&gt;GetDupAgnosticAggCols</title>
<path fill="none" stroke="#666666" d="M182.2,-128.23C190.21,-129.89 198.95,-131.7 207.98,-133.57"/>
<polygon fill="#666666" stroke="#666666" points="207.36,-137.02 217.86,-135.62 208.78,-130.17 207.36,-137.02"/>
</g>
<!-- doOptimize&#45;&gt;doOptimize -->
<g id="edge3" class="edge">
<title>doOptimize&#45;&gt;doOptimize</title>
<path fill="none" stroke="#666666" d="M121.96,-138.15C118.96,-147.54 125.47,-156 141.5,-156 151.27,-156 157.5,-152.86 160.2,-148.28"/>
<polygon fill="#666666" stroke="#666666" points="163.7,-148.41 161.04,-138.15 156.73,-147.83 163.7,-148.41"/>
</g>
<!-- tryToEliminateOuterJoin -->
<g id="node5" class="node">
<title>tryToEliminateOuterJoin</title>
<polygon fill="none" stroke="black" points="384,-105 231,-105 231,-69 384,-69 384,-105"/>
<text text-anchor="middle" x="307.5" y="-83.3" font-family="Times,serif" font-size="14.00">tryToEliminateOuterJoin</text>
</g>
<!-- doOptimize&#45;&gt;tryToEliminateOuterJoin -->
<g id="edge4" class="edge">
<title>doOptimize&#45;&gt;tryToEliminateOuterJoin</title>
<path fill="none" stroke="#666666" d="M182.2,-112.01C194.02,-109.63 207.46,-106.93 221.03,-104.2"/>
<polygon fill="#666666" stroke="#666666" points="221.8,-107.61 230.91,-102.21 220.42,-100.75 221.8,-107.61"/>
</g>
<!-- tryToEliminateOuterJoin&#45;&gt;IsColsAllFromOuterTable -->
<g id="edge5" class="edge">
<title>tryToEliminateOuterJoin&#45;&gt;IsColsAllFromOuterTable</title>
<path fill="none" stroke="#666666" d="M374.97,-105.11C382.51,-107.8 390,-110.77 397,-114 414.24,-121.96 416.32,-127.94 433,-137 436.04,-138.65 439.16,-140.3 442.34,-141.93"/>
<polygon fill="#666666" stroke="#666666" points="440.87,-145.11 451.37,-146.47 444.01,-138.85 440.87,-145.11"/>
</g>
<!-- extractInnerJoinKeys -->
<g id="node6" class="node">
<title>extractInnerJoinKeys</title>
<polygon fill="none" stroke="black" points="588,-128 456,-128 456,-92 588,-92 588,-128"/>
<text text-anchor="middle" x="522" y="-106.3" font-family="Times,serif" font-size="14.00">extractInnerJoinKeys</text>
</g>
<!-- tryToEliminateOuterJoin&#45;&gt;extractInnerJoinKeys -->
<g id="edge6" class="edge">
<title>tryToEliminateOuterJoin&#45;&gt;extractInnerJoinKeys</title>
<path fill="none" stroke="#666666" d="M384.02,-95.17C404.12,-97.35 425.83,-99.7 445.91,-101.87"/>
<polygon fill="#666666" stroke="#666666" points="445.62,-105.36 455.94,-102.96 446.37,-98.4 445.62,-105.36"/>
</g>
<!-- isInnerJoinKeysContainUniqueKey -->
<g id="node7" class="node">
<title>isInnerJoinKeysContainUniqueKey</title>
<polygon fill="none" stroke="black" points="1020,-105 811,-105 811,-69 1020,-69 1020,-105"/>
<text text-anchor="middle" x="915.5" y="-83.3" font-family="Times,serif" font-size="14.00">isInnerJoinKeysContainUniqueKey</text>
</g>
<!-- tryToEliminateOuterJoin&#45;&gt;isInnerJoinKeysContainUniqueKey -->
<g id="edge7" class="edge">
<title>tryToEliminateOuterJoin&#45;&gt;isInnerJoinKeysContainUniqueKey</title>
<path fill="none" stroke="#666666" d="M384.2,-84.18C400.31,-83.69 417.22,-83.25 433,-83 584.98,-80.56 623.02,-80.82 775,-83 783.36,-83.12 792,-83.28 800.69,-83.47"/>
<polygon fill="#666666" stroke="#666666" points="800.83,-86.97 810.9,-83.7 800.99,-79.97 800.83,-86.97"/>
</g>
<!-- isInnerJoinKeysContainIndex -->
<g id="node8" class="node">
<title>isInnerJoinKeysContainIndex</title>
<polygon fill="none" stroke="black" points="611,-36 433,-36 433,0 611,0 611,-36"/>
<text text-anchor="middle" x="522" y="-14.3" font-family="Times,serif" font-size="14.00">isInnerJoinKeysContainIndex</text>
</g>
<!-- tryToEliminateOuterJoin&#45;&gt;isInnerJoinKeysContainIndex -->
<g id="edge8" class="edge">
<title>tryToEliminateOuterJoin&#45;&gt;isInnerJoinKeysContainIndex</title>
<path fill="none" stroke="#666666" d="M364.05,-68.96C392.12,-59.85 426.34,-48.74 455.66,-39.22"/>
<polygon fill="#666666" stroke="#666666" points="456.97,-42.47 465.4,-36.05 454.81,-35.81 456.97,-42.47"/>
</g>
<!-- innerJoinKeys -->
<g id="node12" class="node">
<title>innerJoinKeys</title>
<polygon fill="none" stroke="black" points="758.5,-128 663.5,-128 663.5,-92 758.5,-92 758.5,-128"/>
<text text-anchor="middle" x="711" y="-106.3" font-family="Times,serif" font-size="14.00">innerJoinKeys</text>
</g>
<!-- extractInnerJoinKeys&#45;&gt;innerJoinKeys -->
<g id="edge12" class="edge">
<title>extractInnerJoinKeys&#45;&gt;innerJoinKeys</title>
<path fill="none" stroke="#666666" stroke-dasharray="5,2" d="M588.14,-110C609.33,-110 632.67,-110 653.2,-110"/>
<polygon fill="#666666" stroke="#666666" points="653.34,-113.5 663.34,-110 653.34,-106.5 653.34,-113.5"/>
</g>
<!-- Schema -->
<g id="node10" class="node">
<title>Schema</title>
<polygon fill="none" stroke="black" points="1116,-105 1056,-105 1056,-69 1116,-69 1116,-105"/>
<text text-anchor="middle" x="1086" y="-83.3" font-family="Times,serif" font-size="14.00">Schema</text>
</g>
<!-- isInnerJoinKeysContainUniqueKey&#45;&gt;Schema -->
<g id="edge10" class="edge">
<title>isInnerJoinKeysContainUniqueKey&#45;&gt;Schema</title>
<path fill="none" stroke="#666666" d="M1020.34,-87C1029.18,-87 1037.72,-87 1045.54,-87"/>
<polygon fill="#666666" stroke="#666666" points="1045.71,-90.5 1055.71,-87 1045.71,-83.5 1045.71,-90.5"/>
</g>
<!-- possibleAccessPaths -->
<g id="node11" class="node">
<title>possibleAccessPaths</title>
<polygon fill="none" stroke="black" points="775,-36 647,-36 647,0 775,0 775,-36"/>
<text text-anchor="middle" x="711" y="-14.3" font-family="Times,serif" font-size="14.00">possibleAccessPaths</text>
</g>
<!-- isInnerJoinKeysContainIndex&#45;&gt;possibleAccessPaths -->
<g id="edge11" class="edge">
<title>isInnerJoinKeysContainIndex&#45;&gt;possibleAccessPaths</title>
<path fill="none" stroke="#666666" d="M611.02,-18C619.64,-18 628.33,-18 636.78,-18"/>
<polygon fill="#666666" stroke="#666666" points="636.95,-21.5 646.95,-18 636.95,-14.5 636.95,-21.5"/>
</g>
<!-- innerJoinKeys&#45;&gt;isInnerJoinKeysContainUniqueKey -->
<g id="edge13" class="edge">
<title>innerJoinKeys&#45;&gt;isInnerJoinKeysContainUniqueKey</title>
<path fill="none" stroke="#666666" stroke-dasharray="5,2" d="M758.71,-104.69C771.43,-103.25 785.78,-101.62 800.5,-99.95"/>
<polygon fill="#666666" stroke="#666666" points="801.19,-103.39 810.73,-98.79 800.4,-96.44 801.19,-103.39"/>
</g>
</g>
</svg>
