<?xml version="1.0" encoding="UTF-8" standalone="no"?>
<!DOCTYPE svg PUBLIC "-//W3C//DTD SVG 1.1//EN"
 "http://www.w3.org/Graphics/SVG/1.1/DTD/svg11.dtd">
<!-- Generated by graphviz version 2.44.1 (20200629.0846)
 -->
<!-- Title: pruneListPartition Pages: 1 -->
<svg width="1166pt" height="206pt"
 viewBox="0.00 0.00 1166.00 206.00" xmlns="http://www.w3.org/2000/svg" xmlns:xlink="http://www.w3.org/1999/xlink">
<g id="graph0" class="graph" transform="scale(1 1) rotate(0) translate(4 202)">
<title>pruneListPartition</title>
<polygon fill="white" stroke="transparent" points="-4,4 -4,-202 1162,-202 1162,4 -4,4"/>
<!-- pruneListPartition -->
<g id="node1" class="node">
<title>pruneListPartition</title>
<path fill="none" stroke="#1c2123" d="M103,-117C103,-117 12,-117 12,-117 6,-117 0,-111 0,-105 0,-105 0,-93 0,-93 0,-87 6,-81 12,-81 12,-81 103,-81 103,-81 109,-81 115,-87 115,-93 115,-93 115,-105 115,-105 115,-111 109,-117 103,-117"/>
<text text-anchor="middle" x="57.5" y="-95.3" font-family="Times,serif" font-size="14.00" fill="#2f3638">pruneListPartition</text>
</g>
<!-- findUsedListPartitions -->
<g id="node2" class="node">
<title>findUsedListPartitions</title>
<path fill="none" stroke="#1c2123" d="M277,-117C277,-117 163,-117 163,-117 157,-117 151,-111 151,-105 151,-105 151,-93 151,-93 151,-87 157,-81 163,-81 163,-81 277,-81 277,-81 283,-81 289,-87 289,-93 289,-93 289,-105 289,-105 289,-111 283,-117 277,-117"/>
<text text-anchor="middle" x="220" y="-95.3" font-family="Times,serif" font-size="14.00" fill="#2f3638">findUsedListPartitions</text>
</g>
<!-- pruneListPartition&#45;&gt;findUsedListPartitions -->
<g id="edge1" class="edge">
<title>pruneListPartition&#45;&gt;findUsedListPartitions</title>
<path fill="none" stroke="#666666" d="M115.09,-99C123.39,-99 132.06,-99 140.71,-99"/>
<polygon fill="#666666" stroke="#666666" points="140.82,-102.5 150.82,-99 140.82,-95.5 140.82,-102.5"/>
</g>
<!-- listPruner_findUsedListPartitions -->
<g id="node3" class="node">
<title>listPruner_findUsedListPartitions</title>
<path fill="none" stroke="#1c2123" d="M535,-144C535,-144 362,-144 362,-144 356,-144 350,-138 350,-132 350,-132 350,-120 350,-120 350,-114 356,-108 362,-108 362,-108 535,-108 535,-108 541,-108 547,-114 547,-120 547,-120 547,-132 547,-132 547,-138 541,-144 535,-144"/>
<text text-anchor="middle" x="448.5" y="-122.3" font-family="Times,serif" font-size="14.00" fill="#2f3638">listPruner_findUsedListPartitions</text>
</g>
<!-- findUsedListPartitions&#45;&gt;listPruner_findUsedListPartitions -->
<g id="edge2" class="edge">
<title>findUsedListPartitions&#45;&gt;listPruner_findUsedListPartitions</title>
<path fill="none" stroke="#666666" d="M289.26,-107.14C305.16,-109.03 322.47,-111.1 339.62,-113.14"/>
<polygon fill="#666666" stroke="#666666" points="339.34,-116.63 349.68,-114.34 340.17,-109.68 339.34,-116.63"/>
</g>
<!-- listPruner_findUsedListColumnsPartitions -->
<g id="node4" class="node">
<title>listPruner_findUsedListColumnsPartitions</title>
<path fill="none" stroke="#1c2123" d="M560,-90C560,-90 337,-90 337,-90 331,-90 325,-84 325,-78 325,-78 325,-66 325,-66 325,-60 331,-54 337,-54 337,-54 560,-54 560,-54 566,-54 572,-60 572,-66 572,-66 572,-78 572,-78 572,-84 566,-90 560,-90"/>
<text text-anchor="middle" x="448.5" y="-68.3" font-family="Times,serif" font-size="14.00" fill="#2f3638">listPruner_findUsedListColumnsPartitions</text>
</g>
<!-- findUsedListPartitions&#45;&gt;listPruner_findUsedListColumnsPartitions -->
<g id="edge3" class="edge">
<title>findUsedListPartitions&#45;&gt;listPruner_findUsedListColumnsPartitions</title>
<path fill="none" stroke="#666666" d="M289.26,-90.86C297.5,-89.88 306.11,-88.85 314.88,-87.81"/>
<polygon fill="#666666" stroke="#666666" points="315.33,-91.28 324.84,-86.62 314.5,-84.33 315.33,-91.28"/>
</g>
<!-- detachCondAndBuildRange -->
<g id="node5" class="node">
<title>detachCondAndBuildRange</title>
<path fill="none" stroke="#1c2123" d="M776,-198C776,-198 631,-198 631,-198 625,-198 619,-192 619,-186 619,-186 619,-174 619,-174 619,-168 625,-162 631,-162 631,-162 776,-162 776,-162 782,-162 788,-168 788,-174 788,-174 788,-186 788,-186 788,-192 782,-198 776,-198"/>
<text text-anchor="middle" x="703.5" y="-176.3" font-family="Times,serif" font-size="14.00" fill="#2f3638">detachCondAndBuildRange</text>
</g>
<!-- listPruner_findUsedListPartitions&#45;&gt;detachCondAndBuildRange -->
<g id="edge4" class="edge">
<title>listPruner_findUsedListPartitions&#45;&gt;detachCondAndBuildRange</title>
<path fill="none" stroke="#666666" d="M534.1,-144.06C558.09,-149.18 584.34,-154.78 608.83,-160.01"/>
<polygon fill="#666666" stroke="#666666" points="608.33,-163.48 618.84,-162.14 609.79,-156.63 608.33,-163.48"/>
</g>
<!-- LocatePartition -->
<g id="node6" class="node">
<title>LocatePartition</title>
<path fill="none" stroke="#1c2123" d="M741.5,-144C741.5,-144 665.5,-144 665.5,-144 659.5,-144 653.5,-138 653.5,-132 653.5,-132 653.5,-120 653.5,-120 653.5,-114 659.5,-108 665.5,-108 665.5,-108 741.5,-108 741.5,-108 747.5,-108 753.5,-114 753.5,-120 753.5,-120 753.5,-132 753.5,-132 753.5,-138 747.5,-144 741.5,-144"/>
<text text-anchor="middle" x="703.5" y="-122.3" font-family="Times,serif" font-size="14.00" fill="#2f3638">LocatePartition</text>
</g>
<!-- listPruner_findUsedListPartitions&#45;&gt;LocatePartition -->
<g id="edge5" class="edge">
<title>listPruner_findUsedListPartitions&#45;&gt;LocatePartition</title>
<path fill="none" stroke="#666666" d="M547.32,-126C579.64,-126 614.6,-126 643.14,-126"/>
<polygon fill="#666666" stroke="#666666" points="643.35,-129.5 653.35,-126 643.35,-122.5 643.35,-129.5"/>
</g>
<!-- locatePartitionByCNFCondition -->
<g id="node7" class="node">
<title>locatePartitionByCNFCondition</title>
<path fill="none" stroke="#1c2123" d="M787,-90C787,-90 620,-90 620,-90 614,-90 608,-84 608,-78 608,-78 608,-66 608,-66 608,-60 614,-54 620,-54 620,-54 787,-54 787,-54 793,-54 799,-60 799,-66 799,-66 799,-78 799,-78 799,-84 793,-90 787,-90"/>
<text text-anchor="middle" x="703.5" y="-68.3" font-family="Times,serif" font-size="14.00" fill="#2f3638">locatePartitionByCNFCondition</text>
</g>
<!-- listPruner_findUsedListColumnsPartitions&#45;&gt;locatePartitionByCNFCondition -->
<g id="edge6" class="edge">
<title>listPruner_findUsedListColumnsPartitions&#45;&gt;locatePartitionByCNFCondition</title>
<path fill="none" stroke="#666666" d="M572.29,-72C580.8,-72 589.32,-72 597.72,-72"/>
<polygon fill="#666666" stroke="#666666" points="597.88,-75.5 607.88,-72 597.88,-68.5 597.88,-75.5"/>
</g>
<!-- locatePartition -->
<g id="node8" class="node">
<title>locatePartition</title>
<path fill="none" stroke="#1c2123" d="M918,-90C918,-90 847,-90 847,-90 841,-90 835,-84 835,-78 835,-78 835,-66 835,-66 835,-60 841,-54 847,-54 847,-54 918,-54 918,-54 924,-54 930,-60 930,-66 930,-66 930,-78 930,-78 930,-84 924,-90 918,-90"/>
<text text-anchor="middle" x="882.5" y="-68.3" font-family="Times,serif" font-size="14.00" fill="#2f3638">locatePartition</text>
</g>
<!-- locatePartitionByCNFCondition&#45;&gt;locatePartition -->
<g id="edge7" class="edge">
<title>locatePartitionByCNFCondition&#45;&gt;locatePartition</title>
<path fill="none" stroke="#666666" d="M799.22,-65.26C807.89,-65.31 816.48,-65.43 824.65,-65.65"/>
<polygon fill="#666666" stroke="#666666" points="824.65,-69.15 834.76,-65.97 824.87,-62.15 824.65,-69.15"/>
</g>
<!-- GetLocation -->
<g id="node9" class="node">
<title>GetLocation</title>
<path fill="none" stroke="#1c2123" d="M912.5,-36C912.5,-36 852.5,-36 852.5,-36 846.5,-36 840.5,-30 840.5,-24 840.5,-24 840.5,-12 840.5,-12 840.5,-6 846.5,0 852.5,0 852.5,0 912.5,0 912.5,0 918.5,0 924.5,-6 924.5,-12 924.5,-12 924.5,-24 924.5,-24 924.5,-30 918.5,-36 912.5,-36"/>
<text text-anchor="middle" x="882.5" y="-14.3" font-family="Times,serif" font-size="14.00" fill="#2f3638">GetLocation</text>
</g>
<!-- locatePartitionByCNFCondition&#45;&gt;GetLocation -->
<g id="edge8" class="edge">
<title>locatePartitionByCNFCondition&#45;&gt;GetLocation</title>
<path fill="none" stroke="#666666" d="M763.93,-53.87C785.61,-47.26 809.9,-39.84 830.75,-33.48"/>
<polygon fill="#666666" stroke="#666666" points="831.83,-36.81 840.37,-30.55 829.79,-30.12 831.83,-36.81"/>
</g>
<!-- locatePartition&#45;&gt;locatePartitionByCNFCondition -->
<g id="edge9" class="edge">
<title>locatePartition&#45;&gt;locatePartitionByCNFCondition</title>
<path fill="none" stroke="#666666" d="M834.76,-78.03C826.73,-78.33 818.12,-78.53 809.28,-78.65"/>
<polygon fill="#666666" stroke="#666666" points="809.19,-75.15 799.22,-78.74 809.25,-82.15 809.19,-75.15"/>
</g>
<!-- locatePartitionByColumn -->
<g id="node10" class="node">
<title>locatePartitionByColumn</title>
<path fill="none" stroke="#1c2123" d="M1127.5,-117C1127.5,-117 996.5,-117 996.5,-117 990.5,-117 984.5,-111 984.5,-105 984.5,-105 984.5,-93 984.5,-93 984.5,-87 990.5,-81 996.5,-81 996.5,-81 1127.5,-81 1127.5,-81 1133.5,-81 1139.5,-87 1139.5,-93 1139.5,-93 1139.5,-105 1139.5,-105 1139.5,-111 1133.5,-117 1127.5,-117"/>
<text text-anchor="middle" x="1062" y="-95.3" font-family="Times,serif" font-size="14.00" fill="#2f3638">locatePartitionByColumn</text>
</g>
<!-- locatePartition&#45;&gt;locatePartitionByColumn -->
<g id="edge10" class="edge">
<title>locatePartition&#45;&gt;locatePartitionByColumn</title>
<path fill="none" stroke="#666666" d="M930.14,-79.09C943.79,-81.17 959.17,-83.51 974.46,-85.84"/>
<polygon fill="#666666" stroke="#666666" points="974.06,-89.32 984.48,-87.36 975.12,-82.4 974.06,-89.32"/>
</g>
<!-- locatePartitionByDNFCondition -->
<g id="node11" class="node">
<title>locatePartitionByDNFCondition</title>
<path fill="none" stroke="#1c2123" d="M1146,-63C1146,-63 978,-63 978,-63 972,-63 966,-57 966,-51 966,-51 966,-39 966,-39 966,-33 972,-27 978,-27 978,-27 1146,-27 1146,-27 1152,-27 1158,-33 1158,-39 1158,-39 1158,-51 1158,-51 1158,-57 1152,-63 1146,-63"/>
<text text-anchor="middle" x="1062" y="-41.3" font-family="Times,serif" font-size="14.00" fill="#2f3638">locatePartitionByDNFCondition</text>
</g>
<!-- locatePartition&#45;&gt;locatePartitionByDNFCondition -->
<g id="edge11" class="edge">
<title>locatePartition&#45;&gt;locatePartitionByDNFCondition</title>
<path fill="none" stroke="#666666" d="M930.14,-64.91C938.2,-63.68 946.86,-62.36 955.75,-61.01"/>
<polygon fill="#666666" stroke="#666666" points="956.51,-64.43 965.87,-59.47 955.46,-57.51 956.51,-64.43"/>
</g>
</g>
</svg>
