<?xml version="1.0" encoding="UTF-8" standalone="no"?>
<!DOCTYPE svg PUBLIC "-//W3C//DTD SVG 1.1//EN"
 "http://www.w3.org/Graphics/SVG/1.1/DTD/svg11.dtd">
<!-- Generated by graphviz version 2.44.1 (20200629.0846)
 -->
<!-- Title: pruneRangePartition Pages: 1 -->
<svg width="1711pt" height="606pt"
 viewBox="0.00 0.00 1711.00 606.17" xmlns="http://www.w3.org/2000/svg" xmlns:xlink="http://www.w3.org/1999/xlink">
<g id="graph0" class="graph" transform="scale(1 1) rotate(0) translate(4 602.17)">
<title>pruneRangePartition</title>
<polygon fill="white" stroke="transparent" points="-4,4 -4,-602.17 1707,-602.17 1707,4 -4,4"/>
<g id="clust9" class="cluster">
<title>cluster_partitionRangeOR</title>
<path fill="none" stroke="slategrey" stroke-dasharray="5,2" d="M1159,-214.17C1159,-214.17 1676.5,-214.17 1676.5,-214.17 1682.5,-214.17 1688.5,-220.17 1688.5,-226.17 1688.5,-226.17 1688.5,-372.17 1688.5,-372.17 1688.5,-378.17 1682.5,-384.17 1676.5,-384.17 1676.5,-384.17 1159,-384.17 1159,-384.17 1153,-384.17 1147,-378.17 1147,-372.17 1147,-372.17 1147,-226.17 1147,-226.17 1147,-220.17 1153,-214.17 1159,-214.17"/>
<text text-anchor="middle" x="1417.75" y="-364.17" font-family="Times,serif" font-size="20.00">partitionRangeOR</text>
</g>
<!-- pruneRangePartition -->
<g id="node1" class="node">
<title>pruneRangePartition</title>
<path fill="none" stroke="#1c2123" d="M116,-364.17C116,-364.17 12,-364.17 12,-364.17 6,-364.17 0,-358.17 0,-352.17 0,-352.17 0,-340.17 0,-340.17 0,-334.17 6,-328.17 12,-328.17 12,-328.17 116,-328.17 116,-328.17 122,-328.17 128,-334.17 128,-340.17 128,-340.17 128,-352.17 128,-352.17 128,-358.17 122,-364.17 116,-364.17"/>
<text text-anchor="middle" x="64" y="-342.47" font-family="Times,serif" font-size="14.00" fill="#2f3638">pruneRangePartition</text>
</g>
<!-- pruneRangeColumnsPartition -->
<g id="node2" class="node">
<title>pruneRangeColumnsPartition</title>
<path fill="none" stroke="#1c2123" d="M354,-480.17C354,-480.17 200,-480.17 200,-480.17 194,-480.17 188,-474.17 188,-468.17 188,-468.17 188,-456.17 188,-456.17 188,-450.17 194,-444.17 200,-444.17 200,-444.17 354,-444.17 354,-444.17 360,-444.17 366,-450.17 366,-456.17 366,-456.17 366,-468.17 366,-468.17 366,-474.17 360,-480.17 354,-480.17"/>
<text text-anchor="middle" x="277" y="-458.47" font-family="Times,serif" font-size="14.00" fill="#2f3638">pruneRangeColumnsPartition</text>
</g>
<!-- pruneRangePartition&#45;&gt;pruneRangeColumnsPartition -->
<g id="edge1" class="edge">
<title>pruneRangePartition&#45;&gt;pruneRangeColumnsPartition</title>
<path fill="none" stroke="#666666" d="M97.97,-364.29C134.64,-384.45 193.96,-417.06 233.94,-439.05"/>
<polygon fill="#666666" stroke="#666666" points="232.47,-442.23 242.92,-443.98 235.84,-436.09 232.47,-442.23"/>
</g>
<!-- makePartitionByFnCol -->
<g id="node3" class="node">
<title>makePartitionByFnCol</title>
<path fill="none" stroke="#1c2123" d="M336.5,-364.17C336.5,-364.17 217.5,-364.17 217.5,-364.17 211.5,-364.17 205.5,-358.17 205.5,-352.17 205.5,-352.17 205.5,-340.17 205.5,-340.17 205.5,-334.17 211.5,-328.17 217.5,-328.17 217.5,-328.17 336.5,-328.17 336.5,-328.17 342.5,-328.17 348.5,-334.17 348.5,-340.17 348.5,-340.17 348.5,-352.17 348.5,-352.17 348.5,-358.17 342.5,-364.17 336.5,-364.17"/>
<text text-anchor="middle" x="277" y="-342.47" font-family="Times,serif" font-size="14.00" fill="#2f3638">makePartitionByFnCol</text>
</g>
<!-- pruneRangePartition&#45;&gt;makePartitionByFnCol -->
<g id="edge2" class="edge">
<title>pruneRangePartition&#45;&gt;makePartitionByFnCol</title>
<path fill="none" stroke="#666666" d="M128.02,-346.17C149.08,-346.17 172.86,-346.17 195.09,-346.17"/>
<polygon fill="#666666" stroke="#666666" points="195.18,-349.67 205.18,-346.17 195.18,-342.67 195.18,-349.67"/>
</g>
<!-- fullRange -->
<g id="node4" class="node">
<title>fullRange</title>
<path fill="none" stroke="#1c2123" d="M1655,-578.17C1655,-578.17 1609,-578.17 1609,-578.17 1603,-578.17 1597,-572.17 1597,-566.17 1597,-566.17 1597,-554.17 1597,-554.17 1597,-548.17 1603,-542.17 1609,-542.17 1609,-542.17 1655,-542.17 1655,-542.17 1661,-542.17 1667,-548.17 1667,-554.17 1667,-554.17 1667,-566.17 1667,-566.17 1667,-572.17 1661,-578.17 1655,-578.17"/>
<text text-anchor="middle" x="1632" y="-556.47" font-family="Times,serif" font-size="14.00" fill="#2f3638">fullRange</text>
</g>
<!-- pruneRangePartition&#45;&gt;fullRange -->
<g id="edge3" class="edge">
<title>pruneRangePartition&#45;&gt;fullRange</title>
<path fill="none" stroke="#666666" d="M72.75,-364.5C86.56,-394.96 118.33,-455.96 164,-489.17 300.07,-588.1 358.26,-598.17 526.5,-598.17 526.5,-598.17 526.5,-598.17 1183,-598.17 1331.29,-598.17 1506.19,-577.24 1586.56,-566.45"/>
<polygon fill="#666666" stroke="#666666" points="1587.36,-569.87 1596.8,-565.06 1586.42,-562.93 1587.36,-569.87"/>
</g>
<!-- PartitionExpr -->
<g id="node5" class="node">
<title>PartitionExpr</title>
<path fill="#79d8ce" stroke="#60b5ac" d="M176,-110.67C176,-110.67 378,-110.67 378,-110.67 384,-110.67 390,-116.67 390,-122.67 390,-122.67 390,-297.67 390,-297.67 390,-303.67 384,-309.67 378,-309.67 378,-309.67 176,-309.67 176,-309.67 170,-309.67 164,-303.67 164,-297.67 164,-297.67 164,-122.67 164,-122.67 164,-116.67 170,-110.67 176,-110.67"/>
<text text-anchor="middle" x="277" y="-294.47" font-family="Times,serif" font-size="14.00" fill="#5d6179">PartitionExpr</text>
<polyline fill="none" stroke="#60b5ac" points="164,-286.67 390,-286.67 "/>
<text text-anchor="start" x="172" y="-271.47" font-family="Times,serif" font-size="14.00" fill="#5d6179">UpperBounds []expression.Expression</text>
<polyline fill="none" stroke="#60b5ac" points="164,-263.67 390,-263.67 "/>
<text text-anchor="start" x="172" y="-248.47" font-family="Times,serif" font-size="14.00" fill="#5d6179">OrigExpr ast.ExprNode</text>
<polyline fill="none" stroke="#60b5ac" points="164,-240.67 390,-240.67 "/>
<text text-anchor="start" x="172" y="-225.47" font-family="Times,serif" font-size="14.00" fill="#5d6179">Expr expression.Expression</text>
<polyline fill="none" stroke="#60b5ac" points="164,-217.67 390,-217.67 "/>
<text text-anchor="start" x="172" y="-202.47" font-family="Times,serif" font-size="14.00" fill="#5d6179">*ForRangePruning</text>
<polyline fill="none" stroke="#60b5ac" points="164,-194.67 390,-194.67 "/>
<text text-anchor="start" x="172" y="-179.47" font-family="Times,serif" font-size="14.00" fill="#5d6179">*ForRangeColumnsPruning</text>
<polyline fill="none" stroke="#60b5ac" points="164,-171.67 390,-171.67 "/>
<text text-anchor="start" x="172" y="-156.47" font-family="Times,serif" font-size="14.00" fill="#5d6179">ColumnOffset []int</text>
<polyline fill="none" stroke="#60b5ac" points="164,-148.67 390,-148.67 "/>
<text text-anchor="start" x="172" y="-133.47" font-family="Times,serif" font-size="14.00" fill="#5d6179">InValues []expression.Expression</text>
<text text-anchor="start" x="172" y="-118.47" font-family="Times,serif" font-size="14.00" fill="#5d6179"> *ForListPruning</text>
</g>
<!-- pruneRangePartition&#45;&gt;PartitionExpr -->
<g id="edge4" class="edge">
<title>pruneRangePartition&#45;&gt;PartitionExpr</title>
<path fill="none" stroke="#666666" d="M93.02,-328.11C109.59,-317.42 131.85,-303.08 155.13,-288.07"/>
<polygon fill="#666666" stroke="#666666" points="157.24,-290.88 163.75,-282.52 153.44,-285 157.24,-290.88"/>
</g>
<!-- partitionRangeForOrExpr -->
<g id="node6" class="node">
<title>partitionRangeForOrExpr</title>
<path fill="none" stroke="#1c2123" d="M1057,-360.17C1057,-360.17 925,-360.17 925,-360.17 919,-360.17 913,-354.17 913,-348.17 913,-348.17 913,-336.17 913,-336.17 913,-330.17 919,-324.17 925,-324.17 925,-324.17 1057,-324.17 1057,-324.17 1063,-324.17 1069,-330.17 1069,-336.17 1069,-336.17 1069,-348.17 1069,-348.17 1069,-354.17 1063,-360.17 1057,-360.17"/>
<text text-anchor="middle" x="991" y="-338.47" font-family="Times,serif" font-size="14.00" fill="#2f3638">partitionRangeForOrExpr</text>
</g>
<!-- pruneRangePartition&#45;&gt;partitionRangeForOrExpr -->
<g id="edge5" class="edge">
<title>pruneRangePartition&#45;&gt;partitionRangeForOrExpr</title>
<path fill="none" stroke="#666666" d="M66.57,-327.98C71.56,-282.06 91.33,-160.86 164,-101.17 324.62,30.77 432.63,16.99 629,-51.17 782.62,-104.49 918.57,-254.84 969.09,-315.9"/>
<polygon fill="#666666" stroke="#666666" points="966.6,-318.39 975.65,-323.91 972.02,-313.95 966.6,-318.39"/>
</g>
<!-- pruneRangeColumnsPartition&#45;&gt;fullRange -->
<g id="edge8" class="edge">
<title>pruneRangeColumnsPartition&#45;&gt;fullRange</title>
<path fill="none" stroke="#666666" d="M324.01,-480.18C352.91,-490.87 391.17,-503.91 426,-512.17 574.92,-547.48 613.95,-560.17 767,-560.17 767,-560.17 767,-560.17 1183,-560.17 1330.94,-560.17 1506.36,-560.17 1586.76,-560.17"/>
<polygon fill="#666666" stroke="#666666" points="1587,-563.67 1597,-560.17 1587,-556.67 1587,-563.67"/>
</g>
<!-- makeRangeColumnPruner -->
<g id="node9" class="node">
<title>makeRangeColumnPruner</title>
<path fill="none" stroke="#1c2123" d="M596,-503.17C596,-503.17 459,-503.17 459,-503.17 453,-503.17 447,-497.17 447,-491.17 447,-491.17 447,-479.17 447,-479.17 447,-473.17 453,-467.17 459,-467.17 459,-467.17 596,-467.17 596,-467.17 602,-467.17 608,-473.17 608,-479.17 608,-479.17 608,-491.17 608,-491.17 608,-497.17 602,-503.17 596,-503.17"/>
<text text-anchor="middle" x="527.5" y="-481.47" font-family="Times,serif" font-size="14.00" fill="#2f3638">makeRangeColumnPruner</text>
</g>
<!-- pruneRangeColumnsPartition&#45;&gt;makeRangeColumnPruner -->
<g id="edge9" class="edge">
<title>pruneRangeColumnsPartition&#45;&gt;makeRangeColumnPruner</title>
<path fill="none" stroke="#666666" d="M366.31,-470.34C389.16,-472.45 413.78,-474.73 436.7,-476.85"/>
<polygon fill="#666666" stroke="#666666" points="436.47,-480.35 446.75,-477.79 437.12,-473.38 436.47,-480.35"/>
</g>
<!-- partitionRangeForCNFExpr -->
<g id="node10" class="node">
<title>partitionRangeForCNFExpr</title>
<path fill="none" stroke="#1c2123" d="M1063,-428.17C1063,-428.17 919,-428.17 919,-428.17 913,-428.17 907,-422.17 907,-416.17 907,-416.17 907,-404.17 907,-404.17 907,-398.17 913,-392.17 919,-392.17 919,-392.17 1063,-392.17 1063,-392.17 1069,-392.17 1075,-398.17 1075,-404.17 1075,-404.17 1075,-416.17 1075,-416.17 1075,-422.17 1069,-428.17 1063,-428.17"/>
<text text-anchor="middle" x="991" y="-406.47" font-family="Times,serif" font-size="14.00" fill="#2f3638">partitionRangeForCNFExpr</text>
</g>
<!-- pruneRangeColumnsPartition&#45;&gt;partitionRangeForCNFExpr -->
<g id="edge10" class="edge">
<title>pruneRangeColumnsPartition&#45;&gt;partitionRangeForCNFExpr</title>
<path fill="none" stroke="#666666" d="M366.34,-454.33C444.75,-447.5 562.46,-437.56 665,-430.17 743.01,-424.54 831.62,-419.16 896.59,-415.39"/>
<polygon fill="#666666" stroke="#666666" points="897.03,-418.87 906.81,-414.8 896.63,-411.88 897.03,-418.87"/>
</g>
<!-- ParseSimpleExprsWithNames -->
<g id="node18" class="node">
<title>ParseSimpleExprsWithNames</title>
<path fill="none" stroke="#1c2123" d="M606.5,-411.17C606.5,-411.17 448.5,-411.17 448.5,-411.17 442.5,-411.17 436.5,-405.17 436.5,-399.17 436.5,-399.17 436.5,-387.17 436.5,-387.17 436.5,-381.17 442.5,-375.17 448.5,-375.17 448.5,-375.17 606.5,-375.17 606.5,-375.17 612.5,-375.17 618.5,-381.17 618.5,-387.17 618.5,-387.17 618.5,-399.17 618.5,-399.17 618.5,-405.17 612.5,-411.17 606.5,-411.17"/>
<text text-anchor="middle" x="527.5" y="-389.47" font-family="Times,serif" font-size="14.00" fill="#2f3638">ParseSimpleExprsWithNames</text>
</g>
<!-- makePartitionByFnCol&#45;&gt;ParseSimpleExprsWithNames -->
<g id="edge22" class="edge">
<title>makePartitionByFnCol&#45;&gt;ParseSimpleExprsWithNames</title>
<path fill="none" stroke="#666666" d="M348.55,-359.51C372.72,-364.08 400.25,-369.29 426.32,-374.22"/>
<polygon fill="#666666" stroke="#666666" points="425.75,-377.67 436.23,-376.09 427.05,-370.79 425.75,-377.67"/>
</g>
<!-- getMonotoneMode -->
<g id="node19" class="node">
<title>getMonotoneMode</title>
<path fill="none" stroke="#1c2123" d="M576.5,-357.17C576.5,-357.17 478.5,-357.17 478.5,-357.17 472.5,-357.17 466.5,-351.17 466.5,-345.17 466.5,-345.17 466.5,-333.17 466.5,-333.17 466.5,-327.17 472.5,-321.17 478.5,-321.17 478.5,-321.17 576.5,-321.17 576.5,-321.17 582.5,-321.17 588.5,-327.17 588.5,-333.17 588.5,-333.17 588.5,-345.17 588.5,-345.17 588.5,-351.17 582.5,-357.17 576.5,-357.17"/>
<text text-anchor="middle" x="527.5" y="-335.47" font-family="Times,serif" font-size="14.00" fill="#2f3638">getMonotoneMode</text>
</g>
<!-- makePartitionByFnCol&#45;&gt;getMonotoneMode -->
<g id="edge23" class="edge">
<title>makePartitionByFnCol&#45;&gt;getMonotoneMode</title>
<path fill="none" stroke="#666666" d="M348.55,-344.18C382.23,-343.23 422.42,-342.1 456.09,-341.15"/>
<polygon fill="#666666" stroke="#666666" points="456.41,-344.64 466.31,-340.86 456.22,-337.65 456.41,-344.64"/>
</g>
<!-- rangePruner -->
<g id="node21" class="node">
<title>rangePruner</title>
<path fill="#79d8ce" stroke="#60b5ac" d="M677,-251.67C677,-251.67 859,-251.67 859,-251.67 865,-251.67 871,-257.67 871,-263.67 871,-263.67 871,-354.67 871,-354.67 871,-360.67 865,-366.67 859,-366.67 859,-366.67 677,-366.67 677,-366.67 671,-366.67 665,-360.67 665,-354.67 665,-354.67 665,-263.67 665,-263.67 665,-257.67 671,-251.67 677,-251.67"/>
<text text-anchor="middle" x="768" y="-351.47" font-family="Times,serif" font-size="14.00" fill="#5d6179">rangePruner</text>
<polyline fill="none" stroke="#60b5ac" points="665,-343.67 871,-343.67 "/>
<text text-anchor="start" x="673" y="-328.47" font-family="Times,serif" font-size="14.00" fill="#5d6179">lessThan lessThanDataInt</text>
<polyline fill="none" stroke="#60b5ac" points="665,-320.67 871,-320.67 "/>
<text text-anchor="start" x="673" y="-305.47" font-family="Times,serif" font-size="14.00" fill="#5d6179">col *expression.Column</text>
<polyline fill="none" stroke="#60b5ac" points="665,-297.67 871,-297.67 "/>
<text text-anchor="start" x="673" y="-282.47" font-family="Times,serif" font-size="14.00" fill="#5d6179">partFn *expression.ScalarFunction</text>
<polyline fill="none" stroke="#60b5ac" points="665,-274.67 871,-274.67 "/>
<text text-anchor="start" x="673" y="-259.47" font-family="Times,serif" font-size="14.00" fill="#5d6179">monotonous monotoneMode</text>
</g>
<!-- makePartitionByFnCol&#45;&gt;rangePruner -->
<g id="edge24" class="edge">
<title>makePartitionByFnCol&#45;&gt;rangePruner</title>
<path fill="none" stroke="green" stroke-dasharray="5,2" d="M348.58,-329.23C382.62,-321.19 417.85,-313.13 426,-312.17 501.92,-303.22 588,-302.53 654.69,-304.05"/>
<polygon fill="green" stroke="green" points="654.72,-307.56 664.8,-304.3 654.89,-300.56 654.72,-307.56"/>
</g>
<!-- ForRangePruning -->
<g id="node7" class="node">
<title>ForRangePruning</title>
<path fill="#79d8ce" stroke="#60b5ac" d="M483,-172.17C483,-172.17 572,-172.17 572,-172.17 578,-172.17 584,-178.17 584,-184.17 584,-184.17 584,-252.17 584,-252.17 584,-258.17 578,-264.17 572,-264.17 572,-264.17 483,-264.17 483,-264.17 477,-264.17 471,-258.17 471,-252.17 471,-252.17 471,-184.17 471,-184.17 471,-178.17 477,-172.17 483,-172.17"/>
<text text-anchor="middle" x="527.5" y="-248.97" font-family="Times,serif" font-size="14.00" fill="#5d6179">ForRangePruning</text>
<polyline fill="none" stroke="#60b5ac" points="471,-241.17 584,-241.17 "/>
<text text-anchor="start" x="479" y="-225.97" font-family="Times,serif" font-size="14.00" fill="#5d6179">LessThan []int64</text>
<polyline fill="none" stroke="#60b5ac" points="471,-218.17 584,-218.17 "/>
<text text-anchor="start" x="479" y="-202.97" font-family="Times,serif" font-size="14.00" fill="#5d6179">MaxValue bool</text>
<polyline fill="none" stroke="#60b5ac" points="471,-195.17 584,-195.17 "/>
<text text-anchor="start" x="479" y="-179.97" font-family="Times,serif" font-size="14.00" fill="#5d6179">Unsigned bool</text>
</g>
<!-- PartitionExpr&#45;&gt;ForRangePruning -->
<g id="edge6" class="edge">
<title>PartitionExpr&#45;&gt;ForRangePruning</title>
<path fill="none" stroke="#666666" d="M390.25,-213.78C414.35,-214.56 439.05,-215.35 460.69,-216.05"/>
<polygon fill="#666666" stroke="#666666" points="460.62,-219.55 470.73,-216.37 460.85,-212.55 460.62,-219.55"/>
</g>
<!-- ForRangeColumnsPruning -->
<g id="node8" class="node">
<title>ForRangeColumnsPruning</title>
<path fill="#79d8ce" stroke="#60b5ac" d="M438,-61.17C438,-61.17 617,-61.17 617,-61.17 623,-61.17 629,-67.17 629,-73.17 629,-73.17 629,-141.17 629,-141.17 629,-147.17 623,-153.17 617,-153.17 617,-153.17 438,-153.17 438,-153.17 432,-153.17 426,-147.17 426,-141.17 426,-141.17 426,-73.17 426,-73.17 426,-67.17 432,-61.17 438,-61.17"/>
<text text-anchor="middle" x="527.5" y="-137.97" font-family="Times,serif" font-size="14.00" fill="#5d6179">ForRangeColumnsPruning</text>
<polyline fill="none" stroke="#60b5ac" points="426,-130.17 629,-130.17 "/>
<text text-anchor="middle" x="527.5" y="-114.97" font-family="Times,serif" font-size="14.00" fill="#5d6179">LessThan []expression.Expression</text>
<polyline fill="none" stroke="#60b5ac" points="426,-107.17 629,-107.17 "/>
<text text-anchor="middle" x="527.5" y="-91.97" font-family="Times,serif" font-size="14.00" fill="#5d6179">MaxValue bool</text>
<polyline fill="none" stroke="#60b5ac" points="426,-84.17 629,-84.17 "/>
<text text-anchor="middle" x="527.5" y="-68.97" font-family="Times,serif" font-size="14.00" fill="#5d6179"> </text>
</g>
<!-- PartitionExpr&#45;&gt;ForRangeColumnsPruning -->
<g id="edge7" class="edge">
<title>PartitionExpr&#45;&gt;ForRangeColumnsPruning</title>
<path fill="none" stroke="#666666" d="M390.25,-163.64C398.94,-160.04 407.71,-156.4 416.39,-152.81"/>
<polygon fill="#666666" stroke="#666666" points="417.86,-155.98 425.76,-148.92 415.18,-149.52 417.86,-155.98"/>
</g>
<!-- partitionRangeForExpr -->
<g id="node11" class="node">
<title>partitionRangeForExpr</title>
<path fill="none" stroke="#1c2123" d="M1241,-428.17C1241,-428.17 1123,-428.17 1123,-428.17 1117,-428.17 1111,-422.17 1111,-416.17 1111,-416.17 1111,-404.17 1111,-404.17 1111,-398.17 1117,-392.17 1123,-392.17 1123,-392.17 1241,-392.17 1241,-392.17 1247,-392.17 1253,-398.17 1253,-404.17 1253,-404.17 1253,-416.17 1253,-416.17 1253,-422.17 1247,-428.17 1241,-428.17"/>
<text text-anchor="middle" x="1182" y="-406.47" font-family="Times,serif" font-size="14.00" fill="#2f3638">partitionRangeForExpr</text>
</g>
<!-- partitionRangeForOrExpr&#45;&gt;partitionRangeForExpr -->
<g id="edge17" class="edge">
<title>partitionRangeForOrExpr&#45;&gt;partitionRangeForExpr</title>
<path fill="none" stroke="#666666" d="M1059.06,-360.24C1075.93,-366.46 1094.07,-373.24 1111,-379.17 1120.1,-382.35 1129.94,-385.58 1139.29,-388.77"/>
<polygon fill="#666666" stroke="#666666" points="1138.2,-392.1 1148.8,-392.09 1140.51,-385.49 1138.2,-392.1"/>
</g>
<!-- union -->
<g id="node15" class="node">
<title>union</title>
<path fill="none" stroke="#1c2123" d="M1197,-346.17C1197,-346.17 1167,-346.17 1167,-346.17 1161,-346.17 1155,-340.17 1155,-334.17 1155,-334.17 1155,-322.17 1155,-322.17 1155,-316.17 1161,-310.17 1167,-310.17 1167,-310.17 1197,-310.17 1197,-310.17 1203,-310.17 1209,-316.17 1209,-322.17 1209,-322.17 1209,-334.17 1209,-334.17 1209,-340.17 1203,-346.17 1197,-346.17"/>
<text text-anchor="middle" x="1182" y="-324.47" font-family="Times,serif" font-size="14.00" fill="#2f3638">union</text>
</g>
<!-- partitionRangeForOrExpr&#45;&gt;union -->
<g id="edge18" class="edge">
<title>partitionRangeForOrExpr&#45;&gt;union</title>
<path fill="none" stroke="#666666" d="M1069.15,-336.45C1095.17,-334.52 1123.01,-332.46 1144.4,-330.88"/>
<polygon fill="#666666" stroke="#666666" points="1144.94,-334.35 1154.65,-330.12 1144.42,-327.37 1144.94,-334.35"/>
</g>
<!-- rangeColumnsPruner -->
<g id="node20" class="node">
<title>rangeColumnsPruner</title>
<path fill="#79d8ce" stroke="#60b5ac" d="M693.5,-439.17C693.5,-439.17 842.5,-439.17 842.5,-439.17 848.5,-439.17 854.5,-445.17 854.5,-451.17 854.5,-451.17 854.5,-519.17 854.5,-519.17 854.5,-525.17 848.5,-531.17 842.5,-531.17 842.5,-531.17 693.5,-531.17 693.5,-531.17 687.5,-531.17 681.5,-525.17 681.5,-519.17 681.5,-519.17 681.5,-451.17 681.5,-451.17 681.5,-445.17 687.5,-439.17 693.5,-439.17"/>
<text text-anchor="middle" x="768" y="-515.97" font-family="Times,serif" font-size="14.00" fill="#5d6179">rangeColumnsPruner</text>
<polyline fill="none" stroke="#60b5ac" points="681.5,-508.17 854.5,-508.17 "/>
<text text-anchor="start" x="689.5" y="-492.97" font-family="Times,serif" font-size="14.00" fill="#5d6179">data []expression.Expression</text>
<polyline fill="none" stroke="#60b5ac" points="681.5,-485.17 854.5,-485.17 "/>
<text text-anchor="start" x="689.5" y="-469.97" font-family="Times,serif" font-size="14.00" fill="#5d6179">partCol *expression.Column</text>
<polyline fill="none" stroke="#60b5ac" points="681.5,-462.17 854.5,-462.17 "/>
<text text-anchor="start" x="689.5" y="-446.97" font-family="Times,serif" font-size="14.00" fill="#5d6179">maxvalue bool</text>
</g>
<!-- makeRangeColumnPruner&#45;&gt;rangeColumnsPruner -->
<g id="edge26" class="edge">
<title>makeRangeColumnPruner&#45;&gt;rangeColumnsPruner</title>
<path fill="none" stroke="green" stroke-dasharray="5,2" d="M608.25,-485.17C628.38,-485.17 650.21,-485.17 671.05,-485.17"/>
<polygon fill="green" stroke="green" points="671.18,-488.67 681.18,-485.17 671.18,-481.67 671.18,-488.67"/>
</g>
<!-- partitionRangeForCNFExpr&#45;&gt;partitionRangeForExpr -->
<g id="edge11" class="edge">
<title>partitionRangeForCNFExpr&#45;&gt;partitionRangeForExpr</title>
<path fill="none" stroke="#666666" d="M1075.17,-403.46C1083.62,-403.39 1092.19,-403.4 1100.61,-403.48"/>
<polygon fill="#666666" stroke="#666666" points="1100.74,-406.99 1110.79,-403.62 1100.83,-399.99 1100.74,-406.99"/>
</g>
<!-- partitionRangeForExpr&#45;&gt;partitionRangeForOrExpr -->
<g id="edge12" class="edge">
<title>partitionRangeForExpr&#45;&gt;partitionRangeForOrExpr</title>
<path fill="none" stroke="#666666" d="M1110.63,-397.04C1082.78,-387.28 1051.75,-375.23 1028.41,-364.66"/>
<polygon fill="#666666" stroke="#666666" points="1029.77,-361.43 1019.23,-360.38 1026.82,-367.78 1029.77,-361.43"/>
</g>
<!-- partitionRangeForExpr&#45;&gt;partitionRangeForCNFExpr -->
<g id="edge13" class="edge">
<title>partitionRangeForExpr&#45;&gt;partitionRangeForCNFExpr</title>
<path fill="none" stroke="#666666" d="M1110.79,-416.71C1102.45,-416.86 1093.84,-416.92 1085.24,-416.92"/>
<polygon fill="#666666" stroke="#666666" points="1085.19,-413.42 1075.17,-416.87 1085.16,-420.42 1085.19,-413.42"/>
</g>
<!-- partitionRangeForInExpr -->
<g id="node12" class="node">
<title>partitionRangeForInExpr</title>
<path fill="none" stroke="#1c2123" d="M1471.5,-428.17C1471.5,-428.17 1342.5,-428.17 1342.5,-428.17 1336.5,-428.17 1330.5,-422.17 1330.5,-416.17 1330.5,-416.17 1330.5,-404.17 1330.5,-404.17 1330.5,-398.17 1336.5,-392.17 1342.5,-392.17 1342.5,-392.17 1471.5,-392.17 1471.5,-392.17 1477.5,-392.17 1483.5,-398.17 1483.5,-404.17 1483.5,-404.17 1483.5,-416.17 1483.5,-416.17 1483.5,-422.17 1477.5,-428.17 1471.5,-428.17"/>
<text text-anchor="middle" x="1407" y="-406.47" font-family="Times,serif" font-size="14.00" fill="#2f3638">partitionRangeForInExpr</text>
</g>
<!-- partitionRangeForExpr&#45;&gt;partitionRangeForInExpr -->
<g id="edge14" class="edge">
<title>partitionRangeForExpr&#45;&gt;partitionRangeForInExpr</title>
<path fill="none" stroke="#666666" d="M1253.25,-410.17C1274.51,-410.17 1298.09,-410.17 1320.24,-410.17"/>
<polygon fill="#666666" stroke="#666666" points="1320.31,-413.67 1330.31,-410.17 1320.31,-406.67 1320.31,-413.67"/>
</g>
<!-- intersection -->
<g id="node13" class="node">
<title>intersection</title>
<path fill="none" stroke="#1c2123" d="M1435,-346.17C1435,-346.17 1379,-346.17 1379,-346.17 1373,-346.17 1367,-340.17 1367,-334.17 1367,-334.17 1367,-322.17 1367,-322.17 1367,-316.17 1373,-310.17 1379,-310.17 1379,-310.17 1435,-310.17 1435,-310.17 1441,-310.17 1447,-316.17 1447,-322.17 1447,-322.17 1447,-334.17 1447,-334.17 1447,-340.17 1441,-346.17 1435,-346.17"/>
<text text-anchor="middle" x="1407" y="-324.47" font-family="Times,serif" font-size="14.00" fill="#2f3638">intersection</text>
</g>
<!-- partitionRangeForExpr&#45;&gt;intersection -->
<g id="edge15" class="edge">
<title>partitionRangeForExpr&#45;&gt;intersection</title>
<path fill="none" stroke="#666666" d="M1241.54,-392.1C1245.43,-390.8 1249.28,-389.48 1253,-388.17 1288.33,-375.71 1327.66,-360.24 1357.6,-348.14"/>
<polygon fill="#666666" stroke="#666666" points="1359.02,-351.34 1366.97,-344.33 1356.39,-344.85 1359.02,-351.34"/>
</g>
<!-- result -->
<g id="node14" class="node">
<title>result</title>
<path fill="#feed9b" stroke="#f7e495" d="M1301,-239.17C1301,-239.17 1513,-239.17 1513,-239.17 1519,-239.17 1525,-245.17 1525,-251.17 1525,-251.17 1525,-273.17 1525,-273.17 1525,-279.17 1519,-285.17 1513,-285.17 1513,-285.17 1301,-285.17 1301,-285.17 1295,-285.17 1289,-279.17 1289,-273.17 1289,-273.17 1289,-251.17 1289,-251.17 1289,-245.17 1295,-239.17 1301,-239.17"/>
<text text-anchor="middle" x="1407" y="-269.97" font-family="Times,serif" font-size="14.00" fill="#40575d">result</text>
<polyline fill="none" stroke="#f7e495" points="1289,-262.17 1525,-262.17 "/>
<text text-anchor="start" x="1297" y="-246.97" font-family="Times,serif" font-size="14.00" fill="#40575d">type partitionRangeOR []partitionRange</text>
</g>
<!-- partitionRangeForExpr&#45;&gt;result -->
<g id="edge16" class="edge">
<title>partitionRangeForExpr&#45;&gt;result</title>
<path fill="none" stroke="#666666" d="M1248.25,-392.04C1249.91,-390.83 1251.5,-389.54 1253,-388.17 1283.86,-359.9 1258.38,-329.69 1289,-301.17 1293.32,-297.15 1298.06,-293.54 1303.08,-290.3"/>
<polygon fill="#666666" stroke="#666666" points="1304.93,-293.28 1311.78,-285.2 1301.39,-287.24 1304.93,-293.28"/>
</g>
<!-- partitionRangeForInExpr&#45;&gt;fullRange -->
<g id="edge19" class="edge">
<title>partitionRangeForInExpr&#45;&gt;fullRange</title>
<path fill="none" stroke="#666666" d="M1434.9,-428.26C1475.08,-455.29 1550.83,-506.24 1595.5,-536.29"/>
<polygon fill="#666666" stroke="#666666" points="1593.75,-539.33 1604.01,-542.01 1597.66,-533.52 1593.75,-539.33"/>
</g>
<!-- pruneUseBinarySearch -->
<g id="node16" class="node">
<title>pruneUseBinarySearch</title>
<path fill="none" stroke="#1c2123" d="M1691,-428.17C1691,-428.17 1573,-428.17 1573,-428.17 1567,-428.17 1561,-422.17 1561,-416.17 1561,-416.17 1561,-404.17 1561,-404.17 1561,-398.17 1567,-392.17 1573,-392.17 1573,-392.17 1691,-392.17 1691,-392.17 1697,-392.17 1703,-398.17 1703,-404.17 1703,-404.17 1703,-416.17 1703,-416.17 1703,-422.17 1697,-428.17 1691,-428.17"/>
<text text-anchor="middle" x="1632" y="-406.47" font-family="Times,serif" font-size="14.00" fill="#2f3638">pruneUseBinarySearch</text>
</g>
<!-- partitionRangeForInExpr&#45;&gt;pruneUseBinarySearch -->
<g id="edge20" class="edge">
<title>partitionRangeForInExpr&#45;&gt;pruneUseBinarySearch</title>
<path fill="none" stroke="#666666" d="M1483.81,-410.17C1505.28,-410.17 1528.73,-410.17 1550.47,-410.17"/>
<polygon fill="#666666" stroke="#666666" points="1550.66,-413.67 1560.66,-410.17 1550.66,-406.67 1550.66,-413.67"/>
</g>
<!-- simplify -->
<g id="node17" class="node">
<title>simplify</title>
<path fill="none" stroke="#1c2123" d="M1651,-346.17C1651,-346.17 1613,-346.17 1613,-346.17 1607,-346.17 1601,-340.17 1601,-334.17 1601,-334.17 1601,-322.17 1601,-322.17 1601,-316.17 1607,-310.17 1613,-310.17 1613,-310.17 1651,-310.17 1651,-310.17 1657,-310.17 1663,-316.17 1663,-322.17 1663,-322.17 1663,-334.17 1663,-334.17 1663,-340.17 1657,-346.17 1651,-346.17"/>
<text text-anchor="middle" x="1632" y="-324.47" font-family="Times,serif" font-size="14.00" fill="#2f3638">simplify</text>
</g>
<!-- partitionRangeForInExpr&#45;&gt;simplify -->
<g id="edge21" class="edge">
<title>partitionRangeForInExpr&#45;&gt;simplify</title>
<path fill="none" stroke="#666666" d="M1483.57,-399.74C1497.57,-396.75 1511.9,-392.96 1525,-388.17 1550.09,-379 1576.22,-364.27 1596.26,-351.7"/>
<polygon fill="#666666" stroke="#666666" points="1598.2,-354.62 1604.74,-346.29 1594.43,-348.72 1598.2,-354.62"/>
</g>
<!-- partitionRange -->
<g id="node22" class="node">
<title>partitionRange</title>
<path fill="#79d8ce" stroke="#60b5ac" d="M1595.5,-222.67C1595.5,-222.67 1668.5,-222.67 1668.5,-222.67 1674.5,-222.67 1680.5,-228.67 1680.5,-234.67 1680.5,-234.67 1680.5,-279.67 1680.5,-279.67 1680.5,-285.67 1674.5,-291.67 1668.5,-291.67 1668.5,-291.67 1595.5,-291.67 1595.5,-291.67 1589.5,-291.67 1583.5,-285.67 1583.5,-279.67 1583.5,-279.67 1583.5,-234.67 1583.5,-234.67 1583.5,-228.67 1589.5,-222.67 1595.5,-222.67"/>
<text text-anchor="middle" x="1632" y="-276.47" font-family="Times,serif" font-size="14.00" fill="#5d6179">partitionRange</text>
<polyline fill="none" stroke="#60b5ac" points="1583.5,-268.67 1680.5,-268.67 "/>
<text text-anchor="start" x="1591.5" y="-253.47" font-family="Times,serif" font-size="14.00" fill="#5d6179">start int</text>
<polyline fill="none" stroke="#60b5ac" points="1583.5,-245.67 1680.5,-245.67 "/>
<text text-anchor="start" x="1591.5" y="-230.47" font-family="Times,serif" font-size="14.00" fill="#5d6179">end int </text>
</g>
<!-- result&#45;&gt;partitionRange -->
<g id="edge28" class="edge">
<title>result&#45;&gt;partitionRange</title>
<path fill="none" stroke="#666666" d="M1525.05,-259.54C1541.8,-259.17 1558.38,-258.79 1573.27,-258.46"/>
<polygon fill="#666666" stroke="#666666" points="1573.38,-261.96 1583.3,-258.24 1573.22,-254.96 1573.38,-261.96"/>
</g>
<!-- rangeColumnsPruner&#45;&gt;partitionRangeForCNFExpr -->
<g id="edge27" class="edge">
<title>rangeColumnsPruner&#45;&gt;partitionRangeForCNFExpr</title>
<path fill="none" stroke="green" stroke-dasharray="5,2" d="M854.76,-456.06C878.86,-447.88 904.61,-439.14 927.11,-431.51"/>
<polygon fill="green" stroke="green" points="928.52,-434.73 936.87,-428.2 926.27,-428.1 928.52,-434.73"/>
</g>
<!-- rangePruner&#45;&gt;partitionRangeForCNFExpr -->
<g id="edge25" class="edge">
<title>rangePruner&#45;&gt;partitionRangeForCNFExpr</title>
<path fill="none" stroke="green" stroke-dasharray="5,2" d="M871.09,-355.82C895.51,-366.98 920.48,-378.4 941.2,-387.86"/>
<polygon fill="green" stroke="green" points="939.85,-391.09 950.4,-392.07 942.76,-384.73 939.85,-391.09"/>
</g>
</g>
</svg>
