<?xml version="1.0" encoding="UTF-8" standalone="no"?>
<!DOCTYPE svg PUBLIC "-//W3C//DTD SVG 1.1//EN"
 "http://www.w3.org/Graphics/SVG/1.1/DTD/svg11.dtd">
<!-- Generated by graphviz version 2.44.1 (20200629.0846)
 -->
<!-- Title: QueryFeedback Pages: 1 -->
<svg width="3050pt" height="816pt"
 viewBox="0.00 0.00 3050.00 815.50" xmlns="http://www.w3.org/2000/svg" xmlns:xlink="http://www.w3.org/1999/xlink">
<g id="graph0" class="graph" transform="scale(1 1) rotate(0) translate(4 811.5)">
<title>QueryFeedback</title>
<polygon fill="white" stroke="transparent" points="-4,4 -4,-811.5 3046,-811.5 3046,4 -4,4"/>
<g id="clust1" class="cluster">
<title>cluster_go</title>
<path fill="none" stroke="slategrey" stroke-dasharray="5,2" d="M69.5,-668C69.5,-668 1259.5,-668 1259.5,-668 1265.5,-668 1271.5,-674 1271.5,-680 1271.5,-680 1271.5,-740 1271.5,-740 1271.5,-746 1265.5,-752 1259.5,-752 1259.5,-752 69.5,-752 69.5,-752 63.5,-752 57.5,-746 57.5,-740 57.5,-740 57.5,-680 57.5,-680 57.5,-674 63.5,-668 69.5,-668"/>
<text text-anchor="middle" x="664.5" y="-732" font-family="Times,serif" font-size="20.00">start updateStatsWorker goroutine</text>
</g>
<!-- Feedbacks -->
<g id="node1" class="node">
<title>Feedbacks</title>
<polygon fill="none" stroke="black" points="2203.5,-111.5 2203.5,-318.5 2336.5,-318.5 2336.5,-111.5 2203.5,-111.5"/>
<text text-anchor="middle" x="2270" y="-303.3" font-family="Times,serif" font-size="14.00">QueryFeedback</text>
<polyline fill="none" stroke="black" points="2203.5,-295.5 2336.5,-295.5 "/>
<text text-anchor="start" x="2211.5" y="-280.3" font-family="Times,serif" font-size="14.00">PhysicalID int64</text>
<polyline fill="none" stroke="black" points="2203.5,-272.5 2336.5,-272.5 "/>
<text text-anchor="start" x="2211.5" y="-257.3" font-family="Times,serif" font-size="14.00">Hist *Histogram</text>
<polyline fill="none" stroke="black" points="2203.5,-249.5 2336.5,-249.5 "/>
<text text-anchor="start" x="2211.5" y="-234.3" font-family="Times,serif" font-size="14.00">Tp int</text>
<polyline fill="none" stroke="black" points="2203.5,-226.5 2336.5,-226.5 "/>
<text text-anchor="start" x="2211.5" y="-211.3" font-family="Times,serif" font-size="14.00">Feedback []Feedback</text>
<polyline fill="none" stroke="black" points="2203.5,-203.5 2336.5,-203.5 "/>
<text text-anchor="start" x="2211.5" y="-188.3" font-family="Times,serif" font-size="14.00">Expected int64</text>
<polyline fill="none" stroke="black" points="2203.5,-180.5 2336.5,-180.5 "/>
<text text-anchor="start" x="2211.5" y="-165.3" font-family="Times,serif" font-size="14.00">actual int64</text>
<polyline fill="none" stroke="black" points="2203.5,-157.5 2336.5,-157.5 "/>
<text text-anchor="start" x="2211.5" y="-142.3" font-family="Times,serif" font-size="14.00">Valid bool</text>
<polyline fill="none" stroke="black" points="2203.5,-134.5 2336.5,-134.5 "/>
<text text-anchor="start" x="2211.5" y="-119.3" font-family="Times,serif" font-size="14.00">desc bool</text>
</g>
<!-- Feedback -->
<g id="node2" class="node">
<title>Feedback</title>
<polygon fill="none" stroke="black" points="2429.5,-198.5 2429.5,-313.5 2561.5,-313.5 2561.5,-198.5 2429.5,-198.5"/>
<text text-anchor="middle" x="2495.5" y="-298.3" font-family="Times,serif" font-size="14.00">Feedback</text>
<polyline fill="none" stroke="black" points="2429.5,-290.5 2561.5,-290.5 "/>
<text text-anchor="start" x="2437.5" y="-275.3" font-family="Times,serif" font-size="14.00">Lower *types.Datum</text>
<polyline fill="none" stroke="black" points="2429.5,-267.5 2561.5,-267.5 "/>
<text text-anchor="start" x="2437.5" y="-252.3" font-family="Times,serif" font-size="14.00">Upper *types.Datum</text>
<polyline fill="none" stroke="black" points="2429.5,-244.5 2561.5,-244.5 "/>
<text text-anchor="start" x="2437.5" y="-229.3" font-family="Times,serif" font-size="14.00">Count int64</text>
<polyline fill="none" stroke="black" points="2429.5,-221.5 2561.5,-221.5 "/>
<text text-anchor="start" x="2437.5" y="-206.3" font-family="Times,serif" font-size="14.00">Repeat int64</text>
</g>
<!-- Feedbacks&#45;&gt;Feedback -->
<g id="edge1" class="edge">
<title>Feedbacks:Feedback&#45;&gt;Feedback</title>
<path fill="none" stroke="#666666" d="M2338,-215C2365.15,-215 2394.1,-220.84 2419.63,-228.12"/>
<polygon fill="#666666" stroke="#666666" points="2418.66,-231.48 2429.24,-230.97 2420.65,-224.77 2418.66,-231.48"/>
</g>
<!-- getTableByPhysicalID -->
<g id="node19" class="node">
<title>getTableByPhysicalID</title>
<polygon fill="none" stroke="black" points="2399,-79 2399,-125 2592,-125 2592,-79 2399,-79"/>
<text text-anchor="middle" x="2495.5" y="-109.8" font-family="Times,serif" font-size="14.00">getTableByPhysicalID</text>
<polyline fill="none" stroke="black" points="2399,-102 2592,-102 "/>
<text text-anchor="start" x="2407" y="-86.8" font-family="Times,serif" font-size="14.00">根据PhysicalID获取Talbe信息</text>
</g>
<!-- Feedbacks&#45;&gt;getTableByPhysicalID -->
<g id="edge50" class="edge">
<title>Feedbacks&#45;&gt;getTableByPhysicalID</title>
<path fill="none" stroke="darkblue" stroke-dasharray="5,2" d="M2336.81,-169.91C2356.32,-157.64 2378.07,-145 2399,-135 2403.37,-132.91 2407.91,-130.89 2412.53,-128.95"/>
<polygon fill="darkblue" stroke="darkblue" points="2414.14,-132.07 2422.1,-125.07 2411.51,-125.58 2414.14,-132.07"/>
</g>
<!-- UpdateHistogram -->
<g id="node24" class="node">
<title>UpdateHistogram</title>
<polygon fill="none" stroke="black" points="2811,-188 2698,-188 2698,-152 2811,-152 2811,-188"/>
<text text-anchor="middle" x="2754.5" y="-166.3" font-family="Times,serif" font-size="14.00">UpdateHistogram</text>
</g>
<!-- Feedback&#45;&gt;UpdateHistogram -->
<g id="edge53" class="edge">
<title>Feedback&#45;&gt;UpdateHistogram</title>
<path fill="none" stroke="darkblue" stroke-dasharray="5,2" d="M2561.84,-223.71C2582.92,-214.17 2606.62,-204.32 2629,-197 2647.88,-190.82 2668.85,-185.65 2688.1,-181.55"/>
<polygon fill="darkblue" stroke="darkblue" points="2688.92,-184.95 2698,-179.5 2687.5,-178.1 2688.92,-184.95"/>
</g>
<!-- SplitFeedbackByQueryType -->
<g id="node26" class="node">
<title>SplitFeedbackByQueryType</title>
<polygon fill="none" stroke="black" points="2629,-206.5 2629,-305.5 2880,-305.5 2880,-206.5 2629,-206.5"/>
<text text-anchor="middle" x="2754.5" y="-290.3" font-family="Times,serif" font-size="14.00">SplitFeedbackByQueryType</text>
<polyline fill="none" stroke="black" points="2629,-282.5 2880,-282.5 "/>
<text text-anchor="start" x="2637" y="-267.3" font-family="Times,serif" font-size="14.00">splits the feedbacks into equality</text>
<text text-anchor="start" x="2637" y="-252.3" font-family="Times,serif" font-size="14.00"> feedbacks and range feedbacks</text>
<polyline fill="none" stroke="black" points="2629,-244.5 2880,-244.5 "/>
<text text-anchor="start" x="2637" y="-229.3" font-family="Times,serif" font-size="14.00">equality feedbacks 传给UpdateCMSKetch</text>
<text text-anchor="start" x="2637" y="-214.3" font-family="Times,serif" font-size="14.00"> range feedbacks 传给UpdateHistogram</text>
</g>
<!-- Feedback&#45;&gt;SplitFeedbackByQueryType -->
<g id="edge52" class="edge">
<title>Feedback&#45;&gt;SplitFeedbackByQueryType</title>
<path fill="none" stroke="darkblue" stroke-dasharray="5,2" d="M2561.68,-256C2579.24,-256 2598.9,-256 2618.75,-256"/>
<polygon fill="darkblue" stroke="darkblue" points="2618.83,-259.5 2628.83,-256 2618.83,-252.5 2618.83,-259.5"/>
</g>
<!-- UpdateCMSketch -->
<g id="node43" class="node">
<title>UpdateCMSketch</title>
<polygon fill="none" stroke="black" points="2811.5,-360 2697.5,-360 2697.5,-324 2811.5,-324 2811.5,-360"/>
<text text-anchor="middle" x="2754.5" y="-338.3" font-family="Times,serif" font-size="14.00">UpdateCMSketch</text>
</g>
<!-- Feedback&#45;&gt;UpdateCMSketch -->
<g id="edge54" class="edge">
<title>Feedback&#45;&gt;UpdateCMSketch</title>
<path fill="none" stroke="darkblue" stroke-dasharray="5,2" d="M2561.84,-288.29C2582.92,-297.83 2606.62,-307.68 2629,-315 2647.71,-321.12 2668.45,-326.25 2687.56,-330.33"/>
<polygon fill="darkblue" stroke="darkblue" points="2686.88,-333.77 2697.38,-332.38 2688.3,-326.91 2686.88,-333.77"/>
</g>
<!-- main -->
<g id="node3" class="node">
<title>main</title>
<polygon fill="none" stroke="black" points="119.5,-713 65.5,-713 65.5,-677 119.5,-677 119.5,-713"/>
<text text-anchor="middle" x="92.5" y="-691.3" font-family="Times,serif" font-size="14.00">main</text>
</g>
<!-- createStoreAndDomain -->
<g id="node4" class="node">
<title>createStoreAndDomain</title>
<polygon fill="none" stroke="black" points="367,-713 222,-713 222,-677 367,-677 367,-713"/>
<text text-anchor="middle" x="294.5" y="-691.3" font-family="Times,serif" font-size="14.00">createStoreAndDomain</text>
</g>
<!-- main&#45;&gt;createStoreAndDomain -->
<g id="edge2" class="edge">
<title>main&#45;&gt;createStoreAndDomain</title>
<path fill="none" stroke="#666666" d="M119.65,-695C143.06,-695 178.68,-695 211.59,-695"/>
<polygon fill="#666666" stroke="#666666" points="211.7,-698.5 221.7,-695 211.7,-691.5 211.7,-698.5"/>
</g>
<!-- BootstrapSession -->
<g id="node5" class="node">
<title>BootstrapSession</title>
<polygon fill="none" stroke="black" points="561.5,-713 451.5,-713 451.5,-677 561.5,-677 561.5,-713"/>
<text text-anchor="middle" x="506.5" y="-691.3" font-family="Times,serif" font-size="14.00">BootstrapSession</text>
</g>
<!-- createStoreAndDomain&#45;&gt;BootstrapSession -->
<g id="edge3" class="edge">
<title>createStoreAndDomain&#45;&gt;BootstrapSession</title>
<path fill="none" stroke="#666666" d="M367.18,-695C391.2,-695 417.8,-695 441.21,-695"/>
<polygon fill="#666666" stroke="#666666" points="441.38,-698.5 451.38,-695 441.38,-691.5 441.38,-698.5"/>
</g>
<!-- UpdateTableStatsLoop -->
<g id="node6" class="node">
<title>UpdateTableStatsLoop</title>
<polygon fill="none" stroke="black" points="970,-713 829,-713 829,-677 970,-677 970,-713"/>
<text text-anchor="middle" x="899.5" y="-691.3" font-family="Times,serif" font-size="14.00">UpdateTableStatsLoop</text>
</g>
<!-- BootstrapSession&#45;&gt;UpdateTableStatsLoop -->
<g id="edge4" class="edge">
<title>BootstrapSession&#45;&gt;UpdateTableStatsLoop</title>
<path fill="none" stroke="#666666" d="M561.87,-695C628.54,-695 742.1,-695 818.68,-695"/>
<polygon fill="#666666" stroke="#666666" points="818.77,-698.5 828.77,-695 818.77,-691.5 818.77,-698.5"/>
</g>
<!-- updateStatsWorker1 -->
<g id="node7" class="node">
<title>updateStatsWorker1</title>
<polygon fill="none" stroke="black" points="1143.5,-677 1143.5,-713 1263.5,-713 1263.5,-677 1143.5,-677"/>
<text text-anchor="middle" x="1203.5" y="-691.3" font-family="Times,serif" font-size="14.00">updateStatsWorker</text>
</g>
<!-- UpdateTableStatsLoop&#45;&gt;updateStatsWorker1 -->
<g id="edge5" class="edge">
<title>UpdateTableStatsLoop&#45;&gt;updateStatsWorker1</title>
<path fill="none" stroke="#666666" d="M970.16,-695C1019.11,-695 1084.32,-695 1133.19,-695"/>
<polygon fill="#666666" stroke="#666666" points="1133.36,-698.5 1143.36,-695 1133.36,-691.5 1133.36,-698.5"/>
<text text-anchor="middle" x="1013" y="-698.8" font-family="Times,serif" font-size="14.00">go</text>
</g>
<!-- updateStatsWorker -->
<g id="node8" class="node">
<title>updateStatsWorker</title>
<polygon fill="none" stroke="black" points="152.5,-207 32.5,-207 32.5,-171 152.5,-171 152.5,-207"/>
<text text-anchor="middle" x="92.5" y="-185.3" font-family="Times,serif" font-size="14.00">updateStatsWorker</text>
</g>
<!-- DumpStatsDeltaToKV -->
<g id="node9" class="node">
<title>DumpStatsDeltaToKV</title>
<polygon fill="none" stroke="black" points="577,-474 436,-474 436,-438 577,-438 577,-474"/>
<text text-anchor="middle" x="506.5" y="-452.3" font-family="Times,serif" font-size="14.00">DumpStatsDeltaToKV</text>
</g>
<!-- updateStatsWorker&#45;&gt;DumpStatsDeltaToKV -->
<g id="edge6" class="edge">
<title>updateStatsWorker&#45;&gt;DumpStatsDeltaToKV</title>
<path fill="none" stroke="#3f72af" d="M111.56,-207.25C135.48,-230.84 179.61,-272.41 222,-302 299.66,-356.21 398.41,-405.99 456.51,-433.55"/>
<polygon fill="#3f72af" stroke="#3f72af" points="455.29,-436.84 465.82,-437.94 458.27,-430.51 455.29,-436.84"/>
</g>
<!-- HandleDDLEvent -->
<g id="node10" class="node">
<title>HandleDDLEvent</title>
<polygon fill="none" stroke="black" points="404,-169.5 404,-230.5 609,-230.5 609,-169.5 404,-169.5"/>
<text text-anchor="middle" x="506.5" y="-215.3" font-family="Times,serif" font-size="14.00">HandleDDLEvent</text>
<polyline fill="none" stroke="black" points="404,-207.5 609,-207.5 "/>
<text text-anchor="start" x="412" y="-192.3" font-family="Times,serif" font-size="14.00">处理DDL owner发送到</text>
<text text-anchor="start" x="412" y="-177.3" font-family="Times,serif" font-size="14.00"> statsHandle.DDLEventCh的事件</text>
</g>
<!-- updateStatsWorker&#45;&gt;HandleDDLEvent -->
<g id="edge7" class="edge">
<title>updateStatsWorker&#45;&gt;HandleDDLEvent</title>
<path fill="none" stroke="#3f72af" d="M152.53,-190.58C215.13,-192.25 315.53,-194.93 393.27,-197"/>
<polygon fill="#3f72af" stroke="#3f72af" points="393.51,-200.51 403.6,-197.28 393.7,-193.51 393.51,-200.51"/>
</g>
<!-- FlushStats -->
<g id="node11" class="node">
<title>FlushStats</title>
<polygon fill="none" stroke="black" points="331,-293 258,-293 258,-257 331,-257 331,-293"/>
<text text-anchor="middle" x="294.5" y="-271.3" font-family="Times,serif" font-size="14.00">FlushStats</text>
</g>
<!-- updateStatsWorker&#45;&gt;FlushStats -->
<g id="edge8" class="edge">
<title>updateStatsWorker&#45;&gt;FlushStats</title>
<path fill="none" stroke="#3f72af" d="M129.65,-207.11C150.83,-217.48 178.2,-230.48 203,-241 217.56,-247.18 233.67,-253.42 248.21,-258.83"/>
<polygon fill="#3f72af" stroke="#3f72af" points="247.39,-262.26 257.99,-262.44 249.81,-255.7 247.39,-262.26"/>
</g>
<!-- HandleUpdateStats -->
<g id="node12" class="node">
<title>HandleUpdateStats</title>
<polygon fill="none" stroke="black" points="627,-72 627,-118 793,-118 793,-72 627,-72"/>
<text text-anchor="middle" x="710" y="-102.8" font-family="Times,serif" font-size="14.00">HandleUpdateStats</text>
<polyline fill="none" stroke="black" points="627,-95 793,-95 "/>
<text text-anchor="middle" x="710" y="-79.8" font-family="Times,serif" font-size="14.00">update stats using feedback</text>
</g>
<!-- updateStatsWorker&#45;&gt;HandleUpdateStats -->
<g id="edge9" class="edge">
<title>updateStatsWorker&#45;&gt;HandleUpdateStats</title>
<path fill="none" stroke="#3f72af" d="M152.52,-179.99C260.03,-163.57 488.52,-128.67 616.76,-109.09"/>
<polygon fill="#3f72af" stroke="#3f72af" points="617.6,-112.5 626.95,-107.53 616.54,-105.58 617.6,-112.5"/>
</g>
<!-- DumpStatsFeedbackToKV -->
<g id="node13" class="node">
<title>DumpStatsFeedbackToKV</title>
<polygon fill="none" stroke="black" points="588.5,-295 424.5,-295 424.5,-259 588.5,-259 588.5,-295"/>
<text text-anchor="middle" x="506.5" y="-273.3" font-family="Times,serif" font-size="14.00">DumpStatsFeedbackToKV</text>
</g>
<!-- updateStatsWorker&#45;&gt;DumpStatsFeedbackToKV -->
<g id="edge10" class="edge">
<title>updateStatsWorker&#45;&gt;DumpStatsFeedbackToKV</title>
<path fill="none" stroke="#3f72af" d="M152.53,-201.61C220.92,-216.22 334.4,-240.45 414.18,-257.5"/>
<polygon fill="#3f72af" stroke="#3f72af" points="413.72,-260.98 424.23,-259.64 415.18,-254.13 413.72,-260.98"/>
</g>
<!-- GCStats -->
<g id="node14" class="node">
<title>GCStats</title>
<polygon fill="none" stroke="black" points="537.5,-68 475.5,-68 475.5,-32 537.5,-32 537.5,-68"/>
<text text-anchor="middle" x="506.5" y="-46.3" font-family="Times,serif" font-size="14.00">GCStats</text>
</g>
<!-- updateStatsWorker&#45;&gt;GCStats -->
<g id="edge11" class="edge">
<title>updateStatsWorker&#45;&gt;GCStats</title>
<path fill="none" stroke="#3f72af" d="M106,-171C126.52,-143.13 170.28,-90.44 222,-68 302.71,-32.98 408.61,-38.03 465.39,-44.31"/>
<polygon fill="#3f72af" stroke="#3f72af" points="465.06,-47.79 475.4,-45.48 465.88,-40.84 465.06,-47.79"/>
</g>
<!-- onwer_ISowner -->
<g id="node15" class="node">
<title>onwer_ISowner</title>
<polygon fill="none" stroke="black" points="346,-113 243,-113 243,-77 346,-77 346,-113"/>
<text text-anchor="middle" x="294.5" y="-91.3" font-family="Times,serif" font-size="14.00">onwer_ISowner</text>
</g>
<!-- updateStatsWorker&#45;&gt;onwer_ISowner -->
<g id="edge12" class="edge">
<title>updateStatsWorker&#45;&gt;onwer_ISowner</title>
<path fill="none" stroke="#3f72af" d="M122.05,-171C143.74,-157.78 174.57,-139.95 203,-127 212.54,-122.65 222.85,-118.51 232.99,-114.74"/>
<polygon fill="#3f72af" stroke="#3f72af" points="234.41,-117.94 242.62,-111.23 232.02,-111.36 234.41,-117.94"/>
</g>
<!-- globalMap -->
<g id="node27" class="node">
<title>globalMap</title>
<polygon fill="none" stroke="black" points="937.5,-488 861.5,-488 861.5,-452 937.5,-452 937.5,-488"/>
<text text-anchor="middle" x="899.5" y="-466.3" font-family="Times,serif" font-size="14.00">globalMap</text>
</g>
<!-- DumpStatsDeltaToKV&#45;&gt;globalMap -->
<g id="edge26" class="edge">
<title>DumpStatsDeltaToKV&#45;&gt;globalMap</title>
<path fill="none" stroke="#666666" d="M577.4,-458.5C656.48,-461.33 783.11,-465.87 851.32,-468.31"/>
<polygon fill="#666666" stroke="#666666" points="851.23,-471.81 861.35,-468.67 851.48,-464.81 851.23,-471.81"/>
</g>
<!-- needDumpStatsDelta -->
<g id="node28" class="node">
<title>needDumpStatsDelta</title>
<polygon fill="none" stroke="black" points="965.5,-434 833.5,-434 833.5,-398 965.5,-398 965.5,-434"/>
<text text-anchor="middle" x="899.5" y="-412.3" font-family="Times,serif" font-size="14.00">needDumpStatsDelta</text>
</g>
<!-- DumpStatsDeltaToKV&#45;&gt;needDumpStatsDelta -->
<g id="edge27" class="edge">
<title>DumpStatsDeltaToKV&#45;&gt;needDumpStatsDelta</title>
<path fill="none" stroke="#666666" d="M577.4,-448.85C646.6,-441.77 752.19,-430.97 823.21,-423.7"/>
<polygon fill="#666666" stroke="#666666" points="823.83,-427.16 833.42,-422.66 823.12,-420.19 823.83,-427.16"/>
</g>
<!-- dumpTableStatCountToKV -->
<g id="node29" class="node">
<title>dumpTableStatCountToKV</title>
<polygon fill="none" stroke="black" points="983,-604 816,-604 816,-568 983,-568 983,-604"/>
<text text-anchor="middle" x="899.5" y="-582.3" font-family="Times,serif" font-size="14.00">dumpTableStatCountToKV</text>
</g>
<!-- DumpStatsDeltaToKV&#45;&gt;dumpTableStatCountToKV -->
<g id="edge28" class="edge">
<title>DumpStatsDeltaToKV&#45;&gt;dumpTableStatCountToKV</title>
<path fill="none" stroke="#666666" d="M547.45,-474.01C570.47,-484.06 600.09,-496.44 627,-506 691.08,-528.77 765.21,-550.3 819.81,-565.28"/>
<polygon fill="#666666" stroke="#666666" points="819.2,-568.74 829.77,-567.99 821.05,-561.98 819.2,-568.74"/>
</g>
<!-- dumpTableStatColSizeToKV -->
<g id="node30" class="node">
<title>dumpTableStatColSizeToKV</title>
<polygon fill="none" stroke="black" points="988,-542 811,-542 811,-506 988,-506 988,-542"/>
<text text-anchor="middle" x="899.5" y="-520.3" font-family="Times,serif" font-size="14.00">dumpTableStatColSizeToKV</text>
</g>
<!-- DumpStatsDeltaToKV&#45;&gt;dumpTableStatColSizeToKV -->
<g id="edge29" class="edge">
<title>DumpStatsDeltaToKV&#45;&gt;dumpTableStatColSizeToKV</title>
<path fill="none" stroke="#666666" d="M577.29,-469.02C593.6,-472.02 610.9,-475.15 627,-478 684.49,-488.16 748.9,-499.09 800.56,-507.75"/>
<polygon fill="#666666" stroke="#666666" points="800.27,-511.25 810.72,-509.45 801.43,-504.35 800.27,-511.25"/>
</g>
<!-- insertTableStats2KV -->
<g id="node39" class="node">
<title>insertTableStats2KV</title>
<polygon fill="none" stroke="black" points="964.5,-218 834.5,-218 834.5,-182 964.5,-182 964.5,-218"/>
<text text-anchor="middle" x="899.5" y="-196.3" font-family="Times,serif" font-size="14.00">insertTableStats2KV</text>
</g>
<!-- HandleDDLEvent&#45;&gt;insertTableStats2KV -->
<g id="edge44" class="edge">
<title>HandleDDLEvent&#45;&gt;insertTableStats2KV</title>
<path fill="none" stroke="#666666" d="M609.21,-200C676.48,-200 763.17,-200 824.04,-200"/>
<polygon fill="#666666" stroke="#666666" points="824.34,-203.5 834.34,-200 824.34,-196.5 824.34,-203.5"/>
</g>
<!-- insertColStats2KV -->
<g id="node40" class="node">
<title>insertColStats2KV</title>
<polygon fill="none" stroke="black" points="959,-164 840,-164 840,-128 959,-128 959,-164"/>
<text text-anchor="middle" x="899.5" y="-142.3" font-family="Times,serif" font-size="14.00">insertColStats2KV</text>
</g>
<!-- HandleDDLEvent&#45;&gt;insertColStats2KV -->
<g id="edge45" class="edge">
<title>HandleDDLEvent&#45;&gt;insertColStats2KV</title>
<path fill="none" stroke="#666666" d="M609.21,-185.95C678.66,-176.36 768.8,-163.91 829.86,-155.48"/>
<polygon fill="#666666" stroke="#666666" points="830.36,-158.94 839.78,-154.11 829.4,-152.01 830.36,-158.94"/>
</g>
<!-- FlushStats&#45;&gt;DumpStatsDeltaToKV -->
<g id="edge41" class="edge">
<title>FlushStats&#45;&gt;DumpStatsDeltaToKV</title>
<path fill="none" stroke="#666666" d="M316.4,-293.02C354.12,-325.53 433.62,-394.05 476.55,-431.05"/>
<polygon fill="#666666" stroke="#666666" points="474.51,-433.91 484.37,-437.79 479.08,-428.61 474.51,-433.91"/>
</g>
<!-- FlushStats&#45;&gt;HandleDDLEvent -->
<g id="edge42" class="edge">
<title>FlushStats&#45;&gt;HandleDDLEvent</title>
<path fill="none" stroke="#666666" d="M331.12,-262.28C352.99,-254.47 382.13,-244.06 410.31,-234"/>
<polygon fill="#666666" stroke="#666666" points="411.58,-237.26 419.82,-230.6 409.23,-230.67 411.58,-237.26"/>
</g>
<!-- FlushStats&#45;&gt;DumpStatsFeedbackToKV -->
<g id="edge43" class="edge">
<title>FlushStats&#45;&gt;DumpStatsFeedbackToKV</title>
<path fill="none" stroke="#666666" d="M331.12,-275.34C353.94,-275.56 384.68,-275.85 413.98,-276.13"/>
<polygon fill="#666666" stroke="#666666" points="414.24,-279.63 424.28,-276.23 414.31,-272.63 414.24,-279.63"/>
</g>
<!-- sql1 -->
<g id="node16" class="node">
<title>sql1</title>
<polygon fill="none" stroke="black" points="1712,-201 1712,-239 1880,-239 1880,-201 1712,-201"/>
<text text-anchor="start" x="1720" y="-223.8" font-family="Times,serif" font-size="14.00">SELECT distinct table_id </text>
<text text-anchor="start" x="1720" y="-208.8" font-family="Times,serif" font-size="14.00"> from mysql.stats_feedback</text>
</g>
<!-- HandleUpdateStats&#45;&gt;sql1 -->
<g id="edge15" class="edge">
<title>HandleUpdateStats&#45;&gt;sql1</title>
<path fill="none" stroke="#666666" d="M793.07,-92.48C853.58,-90.84 937.91,-89 1012,-89 1012,-89 1012,-89 1541.5,-89 1632.21,-89 1722.84,-156.02 1767.11,-194.18"/>
<polygon fill="#666666" stroke="#666666" points="1765,-196.99 1774.82,-200.95 1769.61,-191.73 1765,-196.99"/>
</g>
<!-- handleSingleHistogramUpdate -->
<g id="node17" class="node">
<title>handleSingleHistogramUpdate</title>
<polygon fill="none" stroke="black" points="2362,-81 2178,-81 2178,-45 2362,-45 2362,-81"/>
<text text-anchor="middle" x="2270" y="-59.3" font-family="Times,serif" font-size="14.00">handleSingleHistogramUpdate</text>
</g>
<!-- HandleUpdateStats&#45;&gt;handleSingleHistogramUpdate -->
<g id="edge16" class="edge">
<title>HandleUpdateStats&#45;&gt;handleSingleHistogramUpdate</title>
<path fill="none" stroke="#666666" d="M793.25,-76.4C853.49,-64.4 937.4,-51 1012,-51 1012,-51 1012,-51 2030,-51 2075.29,-51 2125.34,-53.18 2167.9,-55.67"/>
<polygon fill="#666666" stroke="#666666" points="2167.79,-59.17 2177.98,-56.28 2168.21,-52.19 2167.79,-59.17"/>
</g>
<!-- DumpFeedbackToKV -->
<g id="node34" class="node">
<title>DumpFeedbackToKV</title>
<polygon fill="none" stroke="black" points="968,-272 831,-272 831,-236 968,-236 968,-272"/>
<text text-anchor="middle" x="899.5" y="-250.3" font-family="Times,serif" font-size="14.00">DumpFeedbackToKV</text>
</g>
<!-- DumpStatsFeedbackToKV&#45;&gt;DumpFeedbackToKV -->
<g id="edge33" class="edge">
<title>DumpStatsFeedbackToKV&#45;&gt;DumpFeedbackToKV</title>
<path fill="none" stroke="#666666" d="M588.52,-272.23C656.71,-268.22 753.59,-262.52 820.82,-258.57"/>
<polygon fill="#666666" stroke="#666666" points="821.15,-262.06 830.93,-257.97 820.74,-255.07 821.15,-262.06"/>
</g>
<!-- DumpFeedbackForIndex -->
<g id="node35" class="node">
<title>DumpFeedbackForIndex</title>
<polygon fill="none" stroke="black" points="975.5,-326 823.5,-326 823.5,-290 975.5,-290 975.5,-326"/>
<text text-anchor="middle" x="899.5" y="-304.3" font-family="Times,serif" font-size="14.00">DumpFeedbackForIndex</text>
</g>
<!-- DumpStatsFeedbackToKV&#45;&gt;DumpFeedbackForIndex -->
<g id="edge34" class="edge">
<title>DumpStatsFeedbackToKV&#45;&gt;DumpFeedbackForIndex</title>
<path fill="none" stroke="#666666" d="M588.52,-283.42C654.15,-288.63 746.37,-295.94 813.15,-301.23"/>
<polygon fill="#666666" stroke="#666666" points="812.98,-304.73 823.22,-302.03 813.53,-297.75 812.98,-304.73"/>
</g>
<!-- NewQueryFeedbackMap -->
<g id="node36" class="node">
<title>NewQueryFeedbackMap</title>
<polygon fill="none" stroke="black" points="976,-380 823,-380 823,-344 976,-344 976,-380"/>
<text text-anchor="middle" x="899.5" y="-358.3" font-family="Times,serif" font-size="14.00">NewQueryFeedbackMap</text>
</g>
<!-- DumpStatsFeedbackToKV&#45;&gt;NewQueryFeedbackMap -->
<g id="edge35" class="edge">
<title>DumpStatsFeedbackToKV&#45;&gt;NewQueryFeedbackMap</title>
<path fill="none" stroke="#666666" d="M577.19,-295.07C593.5,-299.14 610.83,-303.34 627,-307 688.91,-321.03 759.15,-335.22 812.68,-345.67"/>
<polygon fill="#666666" stroke="#666666" points="812.33,-349.16 822.81,-347.64 813.67,-342.29 812.33,-349.16"/>
</g>
<!-- onwer_ISowner&#45;&gt;HandleUpdateStats -->
<g id="edge13" class="edge">
<title>onwer_ISowner&#45;&gt;HandleUpdateStats</title>
<path fill="none" stroke="darkgreen" stroke-dasharray="5,2" d="M346.2,-95C413.38,-95 533.11,-95 616.58,-95"/>
<polygon fill="darkgreen" stroke="darkgreen" points="616.83,-98.5 626.83,-95 616.83,-91.5 616.83,-98.5"/>
</g>
<!-- onwer_ISowner&#45;&gt;GCStats -->
<g id="edge14" class="edge">
<title>onwer_ISowner&#45;&gt;GCStats</title>
<path fill="none" stroke="#666666" d="M346.07,-84.16C382.69,-76.32 431.53,-65.85 465.46,-58.58"/>
<polygon fill="#666666" stroke="#666666" points="466.44,-61.95 475.48,-56.43 464.97,-55.11 466.44,-61.95"/>
</g>
<!-- sql2 -->
<g id="node18" class="node">
<title>sql2</title>
<polygon fill="none" stroke="black" points="1917,-115.5 1917,-228.5 2141,-228.5 2141,-115.5 1917,-115.5"/>
<text text-anchor="start" x="1925" y="-213.3" font-family="Times,serif" font-size="14.00">select </text>
<text text-anchor="start" x="1925" y="-198.3" font-family="Times,serif" font-size="14.00"> table_id,</text>
<text text-anchor="start" x="1925" y="-183.3" font-family="Times,serif" font-size="14.00"> hist_id,</text>
<text text-anchor="start" x="1925" y="-168.3" font-family="Times,serif" font-size="14.00"> is_index,</text>
<text text-anchor="start" x="1925" y="-153.3" font-family="Times,serif" font-size="14.00"> feedback from mysql.stats_feedback </text>
<text text-anchor="start" x="1925" y="-138.3" font-family="Times,serif" font-size="14.00"> where table_id=%d </text>
<text text-anchor="start" x="1925" y="-123.3" font-family="Times,serif" font-size="14.00"> order by hist_id, is_index</text>
</g>
<!-- sql1&#45;&gt;sql2 -->
<g id="edge17" class="edge">
<title>sql1&#45;&gt;sql2</title>
<path fill="none" stroke="darkgreen" stroke-dasharray="5,2" d="M1880.07,-202.74C1888.81,-200.92 1897.82,-199.05 1906.87,-197.17"/>
<polygon fill="darkgreen" stroke="darkgreen" points="1907.63,-200.59 1916.71,-195.13 1906.2,-193.73 1907.63,-200.59"/>
</g>
<!-- handleSingleHistogramUpdate&#45;&gt;getTableByPhysicalID -->
<g id="edge19" class="edge">
<title>handleSingleHistogramUpdate&#45;&gt;getTableByPhysicalID</title>
<path fill="none" stroke="#666666" d="M2362.23,-78.92C2371,-80.45 2379.94,-82.01 2388.84,-83.56"/>
<polygon fill="#666666" stroke="#666666" points="2388.39,-87.04 2398.84,-85.31 2389.59,-80.14 2388.39,-87.04"/>
</g>
<!-- GetPartitionStats -->
<g id="node20" class="node">
<title>GetPartitionStats</title>
<polygon fill="none" stroke="black" points="2671.5,-0.5 2671.5,-61.5 2837.5,-61.5 2837.5,-0.5 2671.5,-0.5"/>
<text text-anchor="middle" x="2754.5" y="-46.3" font-family="Times,serif" font-size="14.00">GetPartitionStats</text>
<polyline fill="none" stroke="black" points="2671.5,-38.5 2837.5,-38.5 "/>
<text text-anchor="start" x="2679.5" y="-23.3" font-family="Times,serif" font-size="14.00">根据TableInfo获取Partion</text>
<text text-anchor="start" x="2679.5" y="-8.3" font-family="Times,serif" font-size="14.00"> stats from cache</text>
</g>
<!-- handleSingleHistogramUpdate&#45;&gt;GetPartitionStats -->
<g id="edge20" class="edge">
<title>handleSingleHistogramUpdate&#45;&gt;GetPartitionStats</title>
<path fill="none" stroke="#666666" d="M2308.35,-44.92C2333.35,-33.85 2367.36,-20.74 2399,-15 2487.15,0.98 2589.53,-6.35 2661.54,-15.67"/>
<polygon fill="#666666" stroke="#666666" points="2661.12,-19.15 2671.49,-17 2662.04,-12.21 2661.12,-19.15"/>
</g>
<!-- DecodeFeedback -->
<g id="node21" class="node">
<title>DecodeFeedback</title>
<polygon fill="none" stroke="black" points="2550.5,-60 2440.5,-60 2440.5,-24 2550.5,-24 2550.5,-60"/>
<text text-anchor="middle" x="2495.5" y="-38.3" font-family="Times,serif" font-size="14.00">DecodeFeedback</text>
</g>
<!-- handleSingleHistogramUpdate&#45;&gt;DecodeFeedback -->
<g id="edge21" class="edge">
<title>handleSingleHistogramUpdate&#45;&gt;DecodeFeedback</title>
<path fill="none" stroke="#666666" d="M2362.23,-54.43C2385.05,-52.28 2409.05,-50.03 2430.25,-48.04"/>
<polygon fill="#666666" stroke="#666666" points="2430.79,-51.5 2440.42,-47.08 2430.13,-44.53 2430.79,-51.5"/>
</g>
<!-- dumpStatsUpdateToKV -->
<g id="node22" class="node">
<title>dumpStatsUpdateToKV</title>
<polygon fill="none" stroke="black" points="2569.5,-180 2421.5,-180 2421.5,-144 2569.5,-144 2569.5,-180"/>
<text text-anchor="middle" x="2495.5" y="-158.3" font-family="Times,serif" font-size="14.00">dumpStatsUpdateToKV</text>
</g>
<!-- handleSingleHistogramUpdate&#45;&gt;dumpStatsUpdateToKV -->
<g id="edge22" class="edge">
<title>handleSingleHistogramUpdate&#45;&gt;dumpStatsUpdateToKV</title>
<path fill="none" stroke="#666666" d="M2321.04,-81.18C2334.75,-87.03 2349.32,-94.07 2362,-102 2380.43,-113.53 2379.91,-123.59 2399,-134 2403.19,-136.28 2407.58,-138.4 2412.09,-140.36"/>
<polygon fill="#666666" stroke="#666666" points="2410.9,-143.65 2421.48,-144.16 2413.53,-137.16 2410.9,-143.65"/>
</g>
<!-- sql2&#45;&gt;handleSingleHistogramUpdate -->
<g id="edge18" class="edge">
<title>sql2&#45;&gt;handleSingleHistogramUpdate</title>
<path fill="none" stroke="darkgreen" stroke-dasharray="5,2" d="M2141.32,-118.81C2153.66,-113.07 2166.08,-107.37 2178,-102 2190.36,-96.43 2203.75,-90.59 2216.35,-85.17"/>
<polygon fill="darkgreen" stroke="darkgreen" points="2217.99,-88.28 2225.81,-81.13 2215.24,-81.84 2217.99,-88.28"/>
</g>
<!-- getTableByPhysicalID&#45;&gt;GetPartitionStats -->
<g id="edge51" class="edge">
<title>getTableByPhysicalID&#45;&gt;GetPartitionStats</title>
<path fill="none" stroke="darkblue" stroke-dasharray="5,2" d="M2579.94,-78.95C2606.05,-71.74 2635,-63.74 2661.65,-56.38"/>
<polygon fill="darkblue" stroke="darkblue" points="2662.65,-59.73 2671.36,-53.69 2660.78,-52.98 2662.65,-59.73"/>
</g>
<!-- SaveStatsToStorage -->
<g id="node23" class="node">
<title>SaveStatsToStorage</title>
<polygon fill="none" stroke="black" points="3042,-154 2917,-154 2917,-118 3042,-118 3042,-154"/>
<text text-anchor="middle" x="2979.5" y="-132.3" font-family="Times,serif" font-size="14.00">SaveStatsToStorage</text>
</g>
<!-- dumpStatsUpdateToKV&#45;&gt;SaveStatsToStorage -->
<g id="edge23" class="edge">
<title>dumpStatsUpdateToKV&#45;&gt;SaveStatsToStorage</title>
<path fill="none" stroke="#666666" d="M2569.56,-149.89C2588.84,-147.14 2609.66,-144.57 2629,-143 2724.85,-135.2 2835.95,-134.37 2906.69,-134.88"/>
<polygon fill="#666666" stroke="#666666" points="2906.8,-138.38 2916.83,-134.96 2906.86,-131.38 2906.8,-138.38"/>
</g>
<!-- dumpStatsUpdateToKV&#45;&gt;UpdateHistogram -->
<g id="edge24" class="edge">
<title>dumpStatsUpdateToKV&#45;&gt;UpdateHistogram</title>
<path fill="none" stroke="#666666" d="M2569.8,-164.28C2606.8,-165.43 2651.34,-166.82 2687.29,-167.94"/>
<polygon fill="#666666" stroke="#666666" points="2687.57,-171.45 2697.67,-168.26 2687.79,-164.45 2687.57,-171.45"/>
</g>
<!-- UpdateHistogram&#45;&gt;SaveStatsToStorage -->
<g id="edge25" class="edge">
<title>UpdateHistogram&#45;&gt;SaveStatsToStorage</title>
<path fill="none" stroke="darkgreen" stroke-dasharray="5,2" d="M2811.2,-161.51C2840.18,-157.09 2875.95,-151.64 2906.96,-146.91"/>
<polygon fill="darkgreen" stroke="darkgreen" points="2907.49,-150.37 2916.85,-145.4 2906.43,-143.45 2907.49,-150.37"/>
</g>
<!-- handle_statsCache_Update -->
<g id="node25" class="node">
<title>handle_statsCache_Update</title>
<polygon fill="none" stroke="black" points="0,-761 0,-807 185,-807 185,-761 0,-761"/>
<text text-anchor="middle" x="92.5" y="-791.8" font-family="Times,serif" font-size="14.00">handle.statsCache.Update</text>
<polyline fill="none" stroke="black" points="0,-784 185,-784 "/>
<text text-anchor="middle" x="92.5" y="-768.8" font-family="Times,serif" font-size="14.00">更新本地缓存中的Stats信息</text>
</g>
<!-- update_mysql_stats_meta -->
<g id="node31" class="node">
<title>update_mysql_stats_meta</title>
<polygon fill="none" stroke="black" points="1282.5,-604 1124.5,-604 1124.5,-568 1282.5,-568 1282.5,-604"/>
<text text-anchor="middle" x="1203.5" y="-582.3" font-family="Times,serif" font-size="14.00">update_mysql_stats_meta</text>
</g>
<!-- dumpTableStatCountToKV&#45;&gt;update_mysql_stats_meta -->
<g id="edge30" class="edge">
<title>dumpTableStatCountToKV&#45;&gt;update_mysql_stats_meta</title>
<path fill="none" stroke="#666666" d="M983.02,-586C1023.76,-586 1072.94,-586 1114.4,-586"/>
<polygon fill="#666666" stroke="#666666" points="1114.49,-589.5 1124.49,-586 1114.49,-582.5 1114.49,-589.5"/>
</g>
<!-- execSQL -->
<g id="node32" class="node">
<title>execSQL</title>
<polygon fill="none" stroke="black" points="1237,-658 1170,-658 1170,-622 1237,-622 1237,-658"/>
<text text-anchor="middle" x="1203.5" y="-636.3" font-family="Times,serif" font-size="14.00">execSQL</text>
</g>
<!-- dumpTableStatCountToKV&#45;&gt;execSQL -->
<g id="edge31" class="edge">
<title>dumpTableStatCountToKV&#45;&gt;execSQL</title>
<path fill="none" stroke="#666666" d="M983.31,-602.7C1001.32,-606.2 1020.28,-609.81 1038,-613 1079.25,-620.43 1126.48,-628.1 1159.71,-633.35"/>
<polygon fill="#666666" stroke="#666666" points="1159.57,-636.87 1169.99,-634.97 1160.65,-629.96 1159.57,-636.87"/>
</g>
<!-- insert_into_mysql_stats_histograms -->
<g id="node33" class="node">
<title>insert_into_mysql_stats_histograms</title>
<polygon fill="none" stroke="black" points="1038,-481 1038,-549 1369,-549 1369,-481 1038,-481"/>
<text text-anchor="start" x="1046" y="-533.8" font-family="Times,serif" font-size="14.00">insert into mysql.stats_histograms</text>
<text text-anchor="start" x="1046" y="-518.8" font-family="Times,serif" font-size="14.00"> (table_id, is_index, hist_id, distinct_count, tot_col_size) </text>
<text text-anchor="start" x="1046" y="-503.8" font-family="Times,serif" font-size="14.00"> ...</text>
<text text-anchor="start" x="1046" y="-488.8" font-family="Times,serif" font-size="14.00"> on duplicate key update ...</text>
</g>
<!-- dumpTableStatColSizeToKV&#45;&gt;insert_into_mysql_stats_histograms -->
<g id="edge32" class="edge">
<title>dumpTableStatColSizeToKV&#45;&gt;insert_into_mysql_stats_histograms</title>
<path fill="none" stroke="#666666" d="M988.26,-521.38C1000.75,-521.01 1013.94,-520.62 1027.4,-520.22"/>
<polygon fill="#666666" stroke="#666666" points="1027.84,-523.71 1037.73,-519.91 1027.63,-516.71 1027.84,-523.71"/>
</g>
<!-- EncodeFeedback -->
<g id="node37" class="node">
<title>EncodeFeedback</title>
<polygon fill="none" stroke="black" points="1258,-321 1149,-321 1149,-285 1258,-285 1258,-321"/>
<text text-anchor="middle" x="1203.5" y="-299.3" font-family="Times,serif" font-size="14.00">EncodeFeedback</text>
</g>
<!-- DumpFeedbackToKV&#45;&gt;EncodeFeedback -->
<g id="edge36" class="edge">
<title>DumpFeedbackToKV&#45;&gt;EncodeFeedback</title>
<path fill="none" stroke="#666666" d="M968.27,-265C1019.2,-273.26 1088.49,-284.5 1138.48,-292.61"/>
<polygon fill="#666666" stroke="#666666" points="1138.09,-296.1 1148.52,-294.24 1139.21,-289.19 1138.09,-296.1"/>
</g>
<!-- insert_into_mysql_stats_feedback -->
<g id="node38" class="node">
<title>insert_into_mysql_stats_feedback</title>
<polygon fill="none" stroke="black" points="1406,-221.5 1406,-274.5 1675,-274.5 1675,-221.5 1406,-221.5"/>
<text text-anchor="start" x="1414" y="-259.3" font-family="Times,serif" font-size="14.00">insert into mysql.stats_feedback</text>
<text text-anchor="start" x="1414" y="-244.3" font-family="Times,serif" font-size="14.00"> (table_id, hist_id, is_index, feedback) values </text>
<text text-anchor="start" x="1414" y="-229.3" font-family="Times,serif" font-size="14.00"> ...</text>
</g>
<!-- DumpFeedbackToKV&#45;&gt;insert_into_mysql_stats_feedback -->
<g id="edge37" class="edge">
<title>DumpFeedbackToKV&#45;&gt;insert_into_mysql_stats_feedback</title>
<path fill="none" stroke="#666666" d="M968.28,-253.36C1069.39,-252.41 1262.11,-250.6 1395.56,-249.35"/>
<polygon fill="#666666" stroke="#666666" points="1395.9,-252.85 1405.87,-249.25 1395.83,-245.85 1395.9,-252.85"/>
</g>
<!-- EncodeFeedback&#45;&gt;insert_into_mysql_stats_feedback -->
<g id="edge38" class="edge">
<title>EncodeFeedback&#45;&gt;insert_into_mysql_stats_feedback</title>
<path fill="none" stroke="darkred" stroke-dasharray="5,2" d="M1258.32,-294.16C1295.61,-288.04 1347.13,-279.58 1395.89,-271.58"/>
<polygon fill="darkred" stroke="darkred" points="1396.63,-275 1405.93,-269.93 1395.49,-268.1 1396.63,-275"/>
</g>
<!-- insert_into_mysql_stats_feedback&#45;&gt;sql1 -->
<g id="edge39" class="edge">
<title>insert_into_mysql_stats_feedback&#45;&gt;sql1</title>
<path fill="none" stroke="darkred" stroke-dasharray="5,2" d="M1675.3,-233.22C1684.2,-232.24 1693.05,-231.26 1701.68,-230.31"/>
<polygon fill="darkred" stroke="darkred" points="1702.14,-233.78 1711.69,-229.2 1701.37,-226.82 1702.14,-233.78"/>
</g>
<!-- insert_into_mysql_stats_feedback&#45;&gt;sql2 -->
<g id="edge40" class="edge">
<title>insert_into_mysql_stats_feedback&#45;&gt;sql2</title>
<path fill="none" stroke="darkred" stroke-dasharray="5,2" d="M1607.62,-221.39C1638.78,-210.02 1676.76,-197.83 1712,-191 1775.5,-178.7 1847.4,-173.69 1906.56,-171.87"/>
<polygon fill="darkred" stroke="darkred" points="1906.8,-175.37 1916.7,-171.59 1906.6,-168.37 1906.8,-175.37"/>
</g>
<!-- mysql_stats_meta -->
<g id="node41" class="node">
<title>mysql_stats_meta</title>
<polygon fill="none" stroke="black" points="1097.5,-118 1097.5,-156 1309.5,-156 1309.5,-118 1097.5,-118"/>
<text text-anchor="start" x="1105.5" y="-140.8" font-family="Times,serif" font-size="14.00">insert into mysql.stats_meta</text>
<text text-anchor="start" x="1105.5" y="-125.8" font-family="Times,serif" font-size="14.00"> (version, table_id) values(%d, %d)</text>
</g>
<!-- insertTableStats2KV&#45;&gt;mysql_stats_meta -->
<g id="edge46" class="edge">
<title>insertTableStats2KV&#45;&gt;mysql_stats_meta</title>
<path fill="none" stroke="#666666" d="M964.65,-183.18C987.7,-177.39 1013.94,-171.09 1038,-166 1053.86,-162.65 1070.64,-159.37 1087.17,-156.31"/>
<polygon fill="#666666" stroke="#666666" points="1088.22,-159.67 1097.43,-154.43 1086.96,-152.79 1088.22,-159.67"/>
</g>
<!-- mysql_stats_histograms -->
<g id="node42" class="node">
<title>mysql_stats_histograms</title>
<polygon fill="none" stroke="black" points="1052.5,-175.5 1052.5,-228.5 1354.5,-228.5 1354.5,-175.5 1052.5,-175.5"/>
<text text-anchor="start" x="1060.5" y="-213.3" font-family="Times,serif" font-size="14.00">insert into mysql.stats_histograms </text>
<text text-anchor="start" x="1060.5" y="-198.3" font-family="Times,serif" font-size="14.00"> (table_id, is_index, hist_id, distinct_count, version)</text>
<text text-anchor="start" x="1060.5" y="-183.3" font-family="Times,serif" font-size="14.00"> values(%d, 1, %d, 0, %d)</text>
</g>
<!-- insertTableStats2KV&#45;&gt;mysql_stats_histograms -->
<g id="edge47" class="edge">
<title>insertTableStats2KV&#45;&gt;mysql_stats_histograms</title>
<path fill="none" stroke="#666666" d="M964.55,-200.42C987.6,-200.58 1014.76,-200.76 1042.32,-200.94"/>
<polygon fill="#666666" stroke="#666666" points="1042.47,-204.44 1052.49,-201.01 1042.51,-197.44 1042.47,-204.44"/>
</g>
<!-- insertColStats2KV&#45;&gt;mysql_stats_meta -->
<g id="edge48" class="edge">
<title>insertColStats2KV&#45;&gt;mysql_stats_meta</title>
<path fill="none" stroke="#666666" d="M959.09,-144.25C995.45,-143.17 1043.43,-141.74 1087.17,-140.44"/>
<polygon fill="#666666" stroke="#666666" points="1087.42,-143.93 1097.31,-140.13 1087.21,-136.93 1087.42,-143.93"/>
</g>
<!-- insertColStats2KV&#45;&gt;mysql_stats_histograms -->
<g id="edge49" class="edge">
<title>insertColStats2KV&#45;&gt;mysql_stats_histograms</title>
<path fill="none" stroke="#666666" d="M959.09,-156.86C985.2,-161.71 1017.31,-167.66 1049.54,-173.64"/>
<polygon fill="#666666" stroke="#666666" points="1049.07,-177.11 1059.54,-175.49 1050.34,-170.23 1049.07,-177.11"/>
</g>
</g>
</svg>
