<?xml version="1.0" encoding="UTF-8" standalone="no"?>
<!DOCTYPE svg PUBLIC "-//W3C//DTD SVG 1.1//EN"
 "http://www.w3.org/Graphics/SVG/1.1/DTD/svg11.dtd">
<!-- Generated by graphviz version 2.44.1 (20200629.0846)
 -->
<!-- Title: sum4Float64 Pages: 1 -->
<svg width="1549pt" height="315pt"
 viewBox="0.00 0.00 1549.00 314.75" xmlns="http://www.w3.org/2000/svg" xmlns:xlink="http://www.w3.org/1999/xlink">
<g id="graph0" class="graph" transform="scale(1 1) rotate(0) translate(4 310.75)">
<title>sum4Float64</title>
<polygon fill="white" stroke="transparent" points="-4,4 -4,-310.75 1545,-310.75 1545,4 -4,4"/>
<g id="clust1" class="cluster">
<title>cluster_expression</title>
<path fill="none" stroke="slategrey" stroke-dasharray="5,2" d="M710,-131.25C710,-131.25 787,-131.25 787,-131.25 793,-131.25 799,-137.25 799,-143.25 799,-143.25 799,-201.25 799,-201.25 799,-207.25 793,-213.25 787,-213.25 787,-213.25 710,-213.25 710,-213.25 704,-213.25 698,-207.25 698,-201.25 698,-201.25 698,-143.25 698,-143.25 698,-137.25 704,-131.25 710,-131.25"/>
<text text-anchor="middle" x="748.5" y="-193.25" font-family="Times,serif" font-size="20.00">expression</text>
</g>
<g id="clust2" class="cluster">
<title>cluster_chunk</title>
<path fill="none" stroke="slategrey" stroke-dasharray="5,2" d="M1127,-27.25C1127,-27.25 1521,-27.25 1521,-27.25 1527,-27.25 1533,-33.25 1533,-39.25 1533,-39.25 1533,-266.25 1533,-266.25 1533,-272.25 1527,-278.25 1521,-278.25 1521,-278.25 1127,-278.25 1127,-278.25 1121,-278.25 1115,-272.25 1115,-266.25 1115,-266.25 1115,-39.25 1115,-39.25 1115,-33.25 1121,-27.25 1127,-27.25"/>
<text text-anchor="middle" x="1324" y="-258.25" font-family="Times,serif" font-size="20.00">chunk</text>
</g>
<g id="clust5" class="cluster">
<title>cluster_Column</title>
<path fill="none" stroke="slategrey" stroke-dasharray="5,2" d="M1264,-101.25C1264,-101.25 1357,-101.25 1357,-101.25 1363,-101.25 1369,-107.25 1369,-113.25 1369,-113.25 1369,-228.25 1369,-228.25 1369,-234.25 1363,-240.25 1357,-240.25 1357,-240.25 1264,-240.25 1264,-240.25 1258,-240.25 1252,-234.25 1252,-228.25 1252,-228.25 1252,-113.25 1252,-113.25 1252,-107.25 1258,-101.25 1264,-101.25"/>
<text text-anchor="middle" x="1310.5" y="-220.25" font-family="Times,serif" font-size="20.00">Column</text>
</g>
<!-- EvalReal -->
<g id="node1" class="node">
<title>EvalReal</title>
<polygon fill="none" stroke="black" points="781,-175.25 715,-175.25 715,-139.25 781,-139.25 781,-175.25"/>
<text text-anchor="middle" x="748" y="-153.55" font-family="Times,serif" font-size="14.00">EvalReal</text>
</g>
<!-- Chunk -->
<g id="node2" class="node">
<title>Chunk</title>
<polygon fill="none" stroke="black" points="1397,-36.25 1397,-174.25 1525,-174.25 1525,-36.25 1397,-36.25"/>
<text text-anchor="middle" x="1461" y="-159.05" font-family="Times,serif" font-size="14.00">Chunk</text>
<polyline fill="none" stroke="black" points="1397,-151.25 1525,-151.25 "/>
<text text-anchor="start" x="1405" y="-136.05" font-family="Times,serif" font-size="14.00">sel []int</text>
<polyline fill="none" stroke="black" points="1397,-128.25 1525,-128.25 "/>
<text text-anchor="start" x="1405" y="-113.05" font-family="Times,serif" font-size="14.00">columns []*Column</text>
<polyline fill="none" stroke="black" points="1397,-105.25 1525,-105.25 "/>
<text text-anchor="start" x="1405" y="-90.05" font-family="Times,serif" font-size="14.00">numVirtualRows int</text>
<polyline fill="none" stroke="black" points="1397,-82.25 1525,-82.25 "/>
<text text-anchor="start" x="1405" y="-67.05" font-family="Times,serif" font-size="14.00">capacity int</text>
<polyline fill="none" stroke="black" points="1397,-59.25 1525,-59.25 "/>
<text text-anchor="middle" x="1461" y="-44.05" font-family="Times,serif" font-size="14.00">requiredRows int</text>
</g>
<!-- AppendNull -->
<g id="node3" class="node">
<title>AppendNull</title>
<polygon fill="none" stroke="black" points="1215,-91.25 1132,-91.25 1132,-55.25 1215,-55.25 1215,-91.25"/>
<text text-anchor="middle" x="1173.5" y="-69.55" font-family="Times,serif" font-size="14.00">AppendNull</text>
</g>
<!-- AppendNull&#45;&gt;Chunk -->
<g id="edge1" class="edge">
<title>AppendNull&#45;&gt;Chunk</title>
<path fill="none" stroke="#666666" d="M1215.25,-56.19C1226.91,-52.1 1239.78,-48.32 1252,-46.25 1303.27,-37.57 1319.14,-31.5 1369,-46.25 1375.37,-48.13 1381.71,-50.62 1387.91,-53.5"/>
<polygon fill="#666666" stroke="#666666" points="1386.37,-56.65 1396.88,-57.99 1389.5,-50.39 1386.37,-56.65"/>
</g>
<!-- appendSel -->
<g id="node4" class="node">
<title>appendSel</title>
<polygon fill="none" stroke="black" points="1347,-91.25 1274,-91.25 1274,-55.25 1347,-55.25 1347,-91.25"/>
<text text-anchor="middle" x="1310.5" y="-69.55" font-family="Times,serif" font-size="14.00">appendSel</text>
</g>
<!-- AppendNull&#45;&gt;appendSel -->
<g id="edge2" class="edge">
<title>AppendNull&#45;&gt;appendSel</title>
<path fill="none" stroke="#666666" d="M1215,-73.25C1230.29,-73.25 1247.8,-73.25 1263.55,-73.25"/>
<polygon fill="#666666" stroke="#666666" points="1263.61,-76.75 1273.61,-73.25 1263.61,-69.75 1263.61,-76.75"/>
</g>
<!-- Column_AppendNull -->
<g id="node5" class="node">
<title>Column_AppendNull</title>
<polygon fill="none" stroke="black" points="1269,-110.25 1269,-146.25 1352,-146.25 1352,-110.25 1269,-110.25"/>
<text text-anchor="middle" x="1310.5" y="-124.55" font-family="Times,serif" font-size="14.00">AppendNull</text>
</g>
<!-- AppendNull&#45;&gt;Column_AppendNull -->
<g id="edge3" class="edge">
<title>AppendNull&#45;&gt;Column_AppendNull</title>
<path fill="none" stroke="#666666" d="M1215.01,-90.83C1226.89,-95.9 1239.93,-101.37 1252,-106.25 1254.47,-107.25 1257,-108.26 1259.57,-109.27"/>
<polygon fill="#666666" stroke="#666666" points="1258.31,-112.54 1268.9,-112.93 1260.87,-106.02 1258.31,-112.54"/>
</g>
<!-- appendSel&#45;&gt;Chunk -->
<g id="edge4" class="edge">
<title>appendSel&#45;&gt;Chunk:sel</title>
<path fill="none" stroke="#666666" d="M1347.14,-84.22C1354.85,-87.62 1362.6,-91.92 1369,-97.25 1383.1,-108.99 1377.87,-129.68 1387.17,-137.31"/>
<polygon fill="#666666" stroke="#666666" points="1386.42,-140.74 1397,-140.25 1388.42,-134.03 1386.42,-140.74"/>
</g>
<!-- AppendFloat64 -->
<g id="node6" class="node">
<title>AppendFloat64</title>
<polygon fill="none" stroke="black" points="1224,-145.25 1123,-145.25 1123,-109.25 1224,-109.25 1224,-145.25"/>
<text text-anchor="middle" x="1173.5" y="-123.55" font-family="Times,serif" font-size="14.00">AppendFloat64</text>
</g>
<!-- AppendFloat64&#45;&gt;appendSel -->
<g id="edge5" class="edge">
<title>AppendFloat64&#45;&gt;appendSel</title>
<path fill="none" stroke="#666666" d="M1219.83,-109.12C1234.14,-103.39 1249.95,-97.07 1264.26,-91.34"/>
<polygon fill="#666666" stroke="#666666" points="1265.91,-94.46 1273.89,-87.49 1263.31,-87.96 1265.91,-94.46"/>
</g>
<!-- Column_AppendFloat64 -->
<g id="node7" class="node">
<title>Column_AppendFloat64</title>
<polygon fill="none" stroke="black" points="1260,-165.25 1260,-201.25 1361,-201.25 1361,-165.25 1260,-165.25"/>
<text text-anchor="middle" x="1310.5" y="-179.55" font-family="Times,serif" font-size="14.00">AppendFloat64</text>
</g>
<!-- AppendFloat64&#45;&gt;Column_AppendFloat64 -->
<g id="edge6" class="edge">
<title>AppendFloat64&#45;&gt;Column_AppendFloat64</title>
<path fill="none" stroke="#666666" d="M1217.96,-145.28C1230.12,-150.32 1243.48,-155.86 1256.14,-161.12"/>
<polygon fill="#666666" stroke="#666666" points="1255.08,-164.46 1265.66,-165.06 1257.76,-158 1255.08,-164.46"/>
</g>
<!-- baseSum4Float64 -->
<g id="node8" class="node">
<title>baseSum4Float64</title>
<polygon fill="none" stroke="black" points="114,-140.25 0,-140.25 0,-104.25 114,-104.25 114,-140.25"/>
<text text-anchor="middle" x="57" y="-118.55" font-family="Times,serif" font-size="14.00">baseSum4Float64</text>
</g>
<!-- sum4Float64 -->
<g id="node9" class="node">
<title>sum4Float64</title>
<polygon fill="none" stroke="black" points="238,-140.25 150,-140.25 150,-104.25 238,-104.25 238,-140.25"/>
<text text-anchor="middle" x="194" y="-118.55" font-family="Times,serif" font-size="14.00">sum4Float64</text>
</g>
<!-- baseSum4Float64&#45;&gt;sum4Float64 -->
<g id="edge7" class="edge">
<title>baseSum4Float64&#45;&gt;sum4Float64</title>
<path fill="none" stroke="#b83b5e" d="M114.08,-122.25C122.53,-122.25 131.22,-122.25 139.61,-122.25"/>
<polygon fill="#b83b5e" stroke="#b83b5e" points="139.65,-125.75 149.65,-122.25 139.65,-118.75 139.65,-125.75"/>
</g>
<!-- AllocPartialResult -->
<g id="node10" class="node">
<title>AllocPartialResult</title>
<polygon fill="none" stroke="black" points="390,-117.25 274,-117.25 274,-81.25 390,-81.25 390,-117.25"/>
<text text-anchor="middle" x="332" y="-95.55" font-family="Times,serif" font-size="14.00">AllocPartialResult</text>
</g>
<!-- sum4Float64&#45;&gt;AllocPartialResult -->
<g id="edge8" class="edge">
<title>sum4Float64&#45;&gt;AllocPartialResult</title>
<path fill="none" stroke="#b83b5e" d="M238.03,-114.97C246.29,-113.58 255.11,-112.08 263.92,-110.59"/>
<polygon fill="#b83b5e" stroke="#b83b5e" points="264.54,-114.04 273.82,-108.92 263.37,-107.14 264.54,-114.04"/>
</g>
<!-- UpdatePartialResult -->
<g id="node11" class="node">
<title>UpdatePartialResult</title>
<polygon fill="none" stroke="black" points="426,-115.25 426,-199.25 573,-199.25 573,-115.25 426,-115.25"/>
<text text-anchor="middle" x="499.5" y="-184.05" font-family="Times,serif" font-size="14.00">UpdatePartialResult</text>
<polyline fill="none" stroke="black" points="426,-176.25 573,-176.25 "/>
<text text-anchor="start" x="434" y="-161.05" font-family="Times,serif" font-size="14.00">对结果进行累加</text>
<polyline fill="none" stroke="black" points="426,-153.25 573,-153.25 "/>
<text text-anchor="start" x="434" y="-138.05" font-family="Times,serif" font-size="14.00">p.val += input</text>
<text text-anchor="start" x="434" y="-123.05" font-family="Times,serif" font-size="14.00"> p.notNullRowCount++</text>
</g>
<!-- sum4Float64&#45;&gt;UpdatePartialResult -->
<g id="edge9" class="edge">
<title>sum4Float64&#45;&gt;UpdatePartialResult</title>
<path fill="none" stroke="#b83b5e" d="M238.16,-127.23C284.25,-132.54 358.39,-141.09 415.78,-147.71"/>
<polygon fill="#b83b5e" stroke="#b83b5e" points="415.6,-151.21 425.93,-148.88 416.4,-144.26 415.6,-151.21"/>
</g>
<!-- MergePartialResult -->
<g id="node12" class="node">
<title>MergePartialResult</title>
<polygon fill="none" stroke="black" points="609,-222.25 609,-306.25 887,-306.25 887,-222.25 609,-222.25"/>
<text text-anchor="middle" x="748" y="-291.05" font-family="Times,serif" font-size="14.00">MergePartialResult</text>
<polyline fill="none" stroke="black" points="609,-283.25 887,-283.25 "/>
<text text-anchor="start" x="617" y="-268.05" font-family="Times,serif" font-size="14.00">partialResult合并</text>
<polyline fill="none" stroke="black" points="609,-260.25 887,-260.25 "/>
<text text-anchor="start" x="617" y="-245.05" font-family="Times,serif" font-size="14.00">p2.val += p1.val</text>
<text text-anchor="start" x="617" y="-230.05" font-family="Times,serif" font-size="14.00"> p2.notNullRowCount += p1.notNullRowCount</text>
</g>
<!-- sum4Float64&#45;&gt;MergePartialResult -->
<g id="edge10" class="edge">
<title>sum4Float64&#45;&gt;MergePartialResult</title>
<path fill="none" stroke="#b83b5e" d="M204.14,-140.44C216.55,-163.02 241.05,-200.69 274,-218.25 373.25,-271.13 500.89,-280.74 598.57,-278.17"/>
<polygon fill="#b83b5e" stroke="#b83b5e" points="598.93,-281.66 608.82,-277.85 598.72,-274.66 598.93,-281.66"/>
</g>
<!-- AppendFinalResult2Chunk -->
<g id="node13" class="node">
<title>AppendFinalResult2Chunk</title>
<polygon fill="none" stroke="black" points="1087,-118.25 923,-118.25 923,-82.25 1087,-82.25 1087,-118.25"/>
<text text-anchor="middle" x="1005" y="-96.55" font-family="Times,serif" font-size="14.00">AppendFinalResult2Chunk</text>
</g>
<!-- sum4Float64&#45;&gt;AppendFinalResult2Chunk -->
<g id="edge11" class="edge">
<title>sum4Float64&#45;&gt;AppendFinalResult2Chunk</title>
<path fill="none" stroke="#b83b5e" d="M217.35,-104.01C232.41,-92.8 253.25,-79.28 274,-72.25 532.33,15.31 621.42,19.97 887,-42.25 915.71,-48.98 945.45,-63.84 967.77,-76.84"/>
<polygon fill="#b83b5e" stroke="#b83b5e" points="966.16,-79.96 976.54,-82.08 969.75,-73.95 966.16,-79.96"/>
</g>
<!-- AllocPartialResult&#45;&gt;UpdatePartialResult -->
<g id="edge18" class="edge">
<title>AllocPartialResult&#45;&gt;UpdatePartialResult</title>
<path fill="none" stroke="#666666" stroke-dasharray="5,2" d="M384.46,-117.28C394.59,-120.83 405.45,-124.64 416.3,-128.44"/>
<polygon fill="#666666" stroke="#666666" points="415.21,-131.77 425.81,-131.77 417.53,-125.16 415.21,-131.77"/>
</g>
<!-- partialResult4SumFloat64 -->
<g id="node14" class="node">
<title>partialResult4SumFloat64</title>
<polygon fill="none" stroke="black" points="668.5,-51.75 668.5,-120.75 827.5,-120.75 827.5,-51.75 668.5,-51.75"/>
<text text-anchor="middle" x="748" y="-105.55" font-family="Times,serif" font-size="14.00">partialResult4SumFloat64</text>
<polyline fill="none" stroke="black" points="668.5,-97.75 827.5,-97.75 "/>
<text text-anchor="start" x="676.5" y="-82.55" font-family="Times,serif" font-size="14.00">val float64</text>
<polyline fill="none" stroke="black" points="668.5,-74.75 827.5,-74.75 "/>
<text text-anchor="start" x="676.5" y="-59.55" font-family="Times,serif" font-size="14.00">notNullRowCount int64</text>
</g>
<!-- AllocPartialResult&#45;&gt;partialResult4SumFloat64 -->
<g id="edge12" class="edge">
<title>AllocPartialResult&#45;&gt;partialResult4SumFloat64</title>
<path fill="none" stroke="#666666" d="M390.13,-97.46C459.37,-95.28 576.83,-91.59 657.98,-89.04"/>
<polygon fill="#666666" stroke="#666666" points="658.3,-92.54 668.18,-88.72 658.08,-85.54 658.3,-92.54"/>
</g>
<!-- UpdatePartialResult&#45;&gt;EvalReal -->
<g id="edge13" class="edge">
<title>UpdatePartialResult&#45;&gt;EvalReal</title>
<path fill="none" stroke="#666666" d="M573.12,-157.25C615.91,-157.25 668.54,-157.25 704.62,-157.25"/>
<polygon fill="#666666" stroke="#666666" points="704.8,-160.75 714.8,-157.25 704.8,-153.75 704.8,-160.75"/>
</g>
<!-- UpdatePartialResult&#45;&gt;MergePartialResult -->
<g id="edge19" class="edge">
<title>UpdatePartialResult&#45;&gt;MergePartialResult</title>
<path fill="none" stroke="#666666" stroke-dasharray="5,2" d="M572.56,-199.4C584.55,-205.75 596.99,-211.93 609,-217.25 609.72,-217.57 610.43,-217.88 611.16,-218.2"/>
<polygon fill="#666666" stroke="#666666" points="610.1,-221.55 620.67,-222.25 612.84,-215.11 610.1,-221.55"/>
</g>
<!-- UpdatePartialResult&#45;&gt;partialResult4SumFloat64 -->
<g id="edge14" class="edge">
<title>UpdatePartialResult&#45;&gt;partialResult4SumFloat64</title>
<path fill="none" stroke="#666666" d="M573.12,-136.33C599.93,-128.61 630.6,-119.78 658.65,-111.7"/>
<polygon fill="#666666" stroke="#666666" points="659.8,-115.01 668.44,-108.88 657.87,-108.28 659.8,-115.01"/>
</g>
<!-- MergePartialResult&#45;&gt;AppendFinalResult2Chunk -->
<g id="edge20" class="edge">
<title>MergePartialResult&#45;&gt;AppendFinalResult2Chunk</title>
<path fill="none" stroke="#666666" stroke-dasharray="5,2" d="M878.76,-222.11C881.56,-220.54 884.31,-218.92 887,-217.25 926.39,-192.73 962.65,-152.57 984.05,-126.27"/>
<polygon fill="#666666" stroke="#666666" points="986.95,-128.26 990.46,-118.26 981.48,-123.88 986.95,-128.26"/>
</g>
<!-- AppendFinalResult2Chunk&#45;&gt;AppendNull -->
<g id="edge15" class="edge">
<title>AppendFinalResult2Chunk&#45;&gt;AppendNull</title>
<path fill="none" stroke="#666666" d="M1087.3,-87.07C1099.06,-85.16 1110.87,-83.24 1121.8,-81.47"/>
<polygon fill="#666666" stroke="#666666" points="1122.66,-84.88 1131.97,-79.82 1121.54,-77.97 1122.66,-84.88"/>
</g>
<!-- AppendFinalResult2Chunk&#45;&gt;AppendFloat64 -->
<g id="edge16" class="edge">
<title>AppendFinalResult2Chunk&#45;&gt;AppendFloat64</title>
<path fill="none" stroke="#666666" d="M1087.3,-113.43C1095.87,-114.82 1104.46,-116.22 1112.72,-117.56"/>
<polygon fill="#666666" stroke="#666666" points="1112.18,-121.01 1122.61,-119.16 1113.3,-114.1 1112.18,-121.01"/>
</g>
<!-- rowsInGroup -->
<g id="node15" class="node">
<title>rowsInGroup</title>
<polygon fill="none" stroke="black" points="376.5,-209.25 287.5,-209.25 287.5,-173.25 376.5,-173.25 376.5,-209.25"/>
<text text-anchor="middle" x="332" y="-187.55" font-family="Times,serif" font-size="14.00">rowsInGroup</text>
</g>
<!-- rowsInGroup&#45;&gt;UpdatePartialResult -->
<g id="edge17" class="edge">
<title>rowsInGroup&#45;&gt;UpdatePartialResult</title>
<path fill="none" stroke="blue" stroke-dasharray="5,2" d="M376.92,-182.23C389.01,-179.74 402.55,-176.96 416.06,-174.18"/>
<polygon fill="blue" stroke="blue" points="416.79,-177.61 425.89,-172.17 415.39,-170.75 416.79,-177.61"/>
</g>
</g>
</svg>
