<?xml version="1.0" encoding="UTF-8" standalone="no"?>
<!DOCTYPE svg PUBLIC "-//W3C//DTD SVG 1.1//EN"
 "http://www.w3.org/Graphics/SVG/1.1/DTD/svg11.dtd">
<!-- Generated by graphviz version 2.44.1 (20200629.0846)
 -->
<!-- Title: SendRequest Pages: 1 -->
<svg width="774pt" height="535pt"
 viewBox="0.00 0.00 774.00 534.50" xmlns="http://www.w3.org/2000/svg" xmlns:xlink="http://www.w3.org/1999/xlink">
<g id="graph0" class="graph" transform="scale(1 1) rotate(0) translate(4 530.5)">
<title>SendRequest</title>
<polygon fill="white" stroke="transparent" points="-4,4 -4,-530.5 770,-530.5 770,4 -4,4"/>
<!-- rpcClient -->
<g id="node1" class="node">
<title>rpcClient</title>
<path fill="#79d8ce" stroke="#60b5ac" d="M349,-315C349,-315 505,-315 505,-315 511,-315 517,-321 517,-327 517,-327 517,-487 517,-487 517,-493 511,-499 505,-499 505,-499 349,-499 349,-499 343,-499 337,-493 337,-487 337,-487 337,-327 337,-327 337,-321 343,-315 349,-315"/>
<text text-anchor="middle" x="427" y="-483.8" font-family="Times,serif" font-size="14.00" fill="#5d6179">rpcClient</text>
<polyline fill="none" stroke="#60b5ac" points="337,-476 517,-476 "/>
<text text-anchor="start" x="345" y="-460.8" font-family="Times,serif" font-size="14.00" fill="#5d6179">sync.RWMutex</text>
<polyline fill="none" stroke="#60b5ac" points="337,-453 517,-453 "/>
<text text-anchor="start" x="345" y="-437.8" font-family="Times,serif" font-size="14.00" fill="#5d6179">conns map[string]*connArray</text>
<polyline fill="none" stroke="#60b5ac" points="337,-430 517,-430 "/>
<text text-anchor="start" x="345" y="-414.8" font-family="Times,serif" font-size="14.00" fill="#5d6179">security config.Security</text>
<polyline fill="none" stroke="#60b5ac" points="337,-407 517,-407 "/>
<text text-anchor="start" x="345" y="-391.8" font-family="Times,serif" font-size="14.00" fill="#5d6179">idleNotify uint32</text>
<polyline fill="none" stroke="#60b5ac" points="337,-384 517,-384 "/>
<text text-anchor="start" x="345" y="-368.8" font-family="Times,serif" font-size="14.00" fill="#5d6179">recycleMu sync.RWMutex</text>
<polyline fill="none" stroke="#60b5ac" points="337,-361 517,-361 "/>
<text text-anchor="start" x="345" y="-345.8" font-family="Times,serif" font-size="14.00" fill="#5d6179">isClosed bool</text>
<polyline fill="none" stroke="#60b5ac" points="337,-338 517,-338 "/>
<text text-anchor="start" x="345" y="-322.8" font-family="Times,serif" font-size="14.00" fill="#5d6179">dialTimeout time.Duration</text>
</g>
<!-- connArray -->
<g id="node2" class="node">
<title>connArray</title>
<path fill="#79d8ce" stroke="#60b5ac" d="M565,-342C565,-342 754,-342 754,-342 760,-342 766,-348 766,-354 766,-354 766,-514 766,-514 766,-520 760,-526 754,-526 754,-526 565,-526 565,-526 559,-526 553,-520 553,-514 553,-514 553,-354 553,-354 553,-348 559,-342 565,-342"/>
<text text-anchor="middle" x="659.5" y="-510.8" font-family="Times,serif" font-size="14.00" fill="#5d6179">connArray</text>
<polyline fill="none" stroke="#60b5ac" points="553,-503 766,-503 "/>
<text text-anchor="start" x="561" y="-487.8" font-family="Times,serif" font-size="14.00" fill="#5d6179">target string</text>
<polyline fill="none" stroke="#60b5ac" points="553,-480 766,-480 "/>
<text text-anchor="start" x="561" y="-464.8" font-family="Times,serif" font-size="14.00" fill="#5d6179">index uint32</text>
<polyline fill="none" stroke="#60b5ac" points="553,-457 766,-457 "/>
<text text-anchor="start" x="561" y="-441.8" font-family="Times,serif" font-size="14.00" fill="#5d6179">v []*grpc.ClientConn</text>
<polyline fill="none" stroke="#60b5ac" points="553,-434 766,-434 "/>
<text text-anchor="start" x="561" y="-418.8" font-family="Times,serif" font-size="14.00" fill="#5d6179">streamTimeout chan *tikvrpc.Lease</text>
<polyline fill="none" stroke="#60b5ac" points="553,-411 766,-411 "/>
<text text-anchor="start" x="561" y="-395.8" font-family="Times,serif" font-size="14.00" fill="#5d6179">dialTimeout time.Duration</text>
<polyline fill="none" stroke="#60b5ac" points="553,-388 766,-388 "/>
<text text-anchor="start" x="561" y="-372.8" font-family="Times,serif" font-size="14.00" fill="#5d6179">*batchConn</text>
<polyline fill="none" stroke="#60b5ac" points="553,-365 766,-365 "/>
<text text-anchor="start" x="561" y="-349.8" font-family="Times,serif" font-size="14.00" fill="#5d6179">done chan struct{}</text>
</g>
<!-- rpcClient&#45;&gt;connArray -->
<g id="edge1" class="edge">
<title>rpcClient:conns&#45;&gt;connArray</title>
<path fill="none" stroke="#666666" d="M517,-442C525.31,-442 533.89,-441.86 542.53,-441.62"/>
<polygon fill="#666666" stroke="#666666" points="542.8,-445.11 552.68,-441.29 542.57,-438.12 542.8,-445.11"/>
</g>
<!-- createConnArray -->
<g id="node3" class="node">
<title>createConnArray</title>
<path fill="none" stroke="#1c2123" d="M470,-296C470,-296 384,-296 384,-296 378,-296 372,-290 372,-284 372,-284 372,-272 372,-272 372,-266 378,-260 384,-260 384,-260 470,-260 470,-260 476,-260 482,-266 482,-272 482,-272 482,-284 482,-284 482,-290 476,-296 470,-296"/>
<text text-anchor="middle" x="427" y="-274.3" font-family="Times,serif" font-size="14.00" fill="#2f3638">createConnArray</text>
</g>
<!-- createConnArray&#45;&gt;connArray -->
<g id="edge2" class="edge">
<title>createConnArray&#45;&gt;connArray</title>
<path fill="none" stroke="green" stroke-dasharray="5,2" d="M482.28,-290.99C494.13,-294.93 506.32,-299.88 517,-306 531.66,-314.39 546.09,-324.52 559.81,-335.36"/>
<polygon fill="green" stroke="green" points="557.82,-338.25 567.8,-341.82 562.22,-332.81 557.82,-338.25"/>
</g>
<!-- SendRequest -->
<g id="node4" class="node">
<title>SendRequest</title>
<path fill="none" stroke="#1c2123" d="M75,-241C75,-241 12,-241 12,-241 6,-241 0,-235 0,-229 0,-229 0,-217 0,-217 0,-211 6,-205 12,-205 12,-205 75,-205 75,-205 81,-205 87,-211 87,-217 87,-217 87,-229 87,-229 87,-235 81,-241 75,-241"/>
<text text-anchor="middle" x="43.5" y="-219.3" font-family="Times,serif" font-size="14.00" fill="#2f3638">SendRequest</text>
</g>
<!-- getConnArray -->
<g id="node5" class="node">
<title>getConnArray</title>
<path fill="none" stroke="#1c2123" d="M247,-403C247,-403 177,-403 177,-403 171,-403 165,-397 165,-391 165,-391 165,-379 165,-379 165,-373 171,-367 177,-367 177,-367 247,-367 247,-367 253,-367 259,-373 259,-379 259,-379 259,-391 259,-391 259,-397 253,-403 247,-403"/>
<text text-anchor="middle" x="212" y="-381.3" font-family="Times,serif" font-size="14.00" fill="#2f3638">getConnArray</text>
</g>
<!-- SendRequest&#45;&gt;getConnArray -->
<g id="edge3" class="edge">
<title>SendRequest&#45;&gt;getConnArray</title>
<path fill="none" stroke="#666666" d="M50.2,-241.2C60.21,-270.2 83.71,-326.82 123,-358 132.39,-365.45 143.83,-370.85 155.31,-374.77"/>
<polygon fill="#666666" stroke="#666666" points="154.34,-378.13 164.93,-377.72 156.39,-371.44 154.34,-378.13"/>
</g>
<!-- connArray_Get -->
<g id="node6" class="node">
<title>connArray_Get</title>
<path fill="none" stroke="#1c2123" d="M250.5,-349C250.5,-349 173.5,-349 173.5,-349 167.5,-349 161.5,-343 161.5,-337 161.5,-337 161.5,-325 161.5,-325 161.5,-319 167.5,-313 173.5,-313 173.5,-313 250.5,-313 250.5,-313 256.5,-313 262.5,-319 262.5,-325 262.5,-325 262.5,-337 262.5,-337 262.5,-343 256.5,-349 250.5,-349"/>
<text text-anchor="middle" x="212" y="-327.3" font-family="Times,serif" font-size="14.00" fill="#2f3638">connArray_Get</text>
</g>
<!-- SendRequest&#45;&gt;connArray_Get -->
<g id="edge4" class="edge">
<title>SendRequest&#45;&gt;connArray_Get</title>
<path fill="none" stroke="#666666" d="M57.54,-241.04C71.7,-259.4 95.94,-287.43 123,-304 131.78,-309.38 141.71,-313.75 151.66,-317.3"/>
<polygon fill="#666666" stroke="#666666" points="150.58,-320.63 161.17,-320.45 152.78,-313.98 150.58,-320.63"/>
</g>
<!-- NewTikvClient -->
<g id="node7" class="node">
<title>NewTikvClient</title>
<path fill="none" stroke="#1c2123" d="M250.5,-295C250.5,-295 173.5,-295 173.5,-295 167.5,-295 161.5,-289 161.5,-283 161.5,-283 161.5,-271 161.5,-271 161.5,-265 167.5,-259 173.5,-259 173.5,-259 250.5,-259 250.5,-259 256.5,-259 262.5,-265 262.5,-271 262.5,-271 262.5,-283 262.5,-283 262.5,-289 256.5,-295 250.5,-295"/>
<text text-anchor="middle" x="212" y="-273.3" font-family="Times,serif" font-size="14.00" fill="#2f3638">NewTikvClient</text>
</g>
<!-- SendRequest&#45;&gt;NewTikvClient -->
<g id="edge5" class="edge">
<title>SendRequest&#45;&gt;NewTikvClient</title>
<path fill="none" stroke="#666666" d="M87.19,-237.97C98.78,-241.96 111.35,-246.21 123,-250 132.14,-252.97 141.83,-256.04 151.33,-258.99"/>
<polygon fill="#666666" stroke="#666666" points="150.52,-262.4 161.11,-262.01 152.59,-255.71 150.52,-262.4"/>
</g>
<!-- getBatchCopStreamResponse -->
<g id="node8" class="node">
<title>getBatchCopStreamResponse</title>
<path fill="none" stroke="#1c2123" d="M289,-241C289,-241 135,-241 135,-241 129,-241 123,-235 123,-229 123,-229 123,-217 123,-217 123,-211 129,-205 135,-205 135,-205 289,-205 289,-205 295,-205 301,-211 301,-217 301,-217 301,-229 301,-229 301,-235 295,-241 289,-241"/>
<text text-anchor="middle" x="212" y="-219.3" font-family="Times,serif" font-size="14.00" fill="#2f3638">getBatchCopStreamResponse</text>
</g>
<!-- SendRequest&#45;&gt;getBatchCopStreamResponse -->
<g id="edge6" class="edge">
<title>SendRequest&#45;&gt;getBatchCopStreamResponse</title>
<path fill="none" stroke="#666666" d="M87.38,-223C95.36,-223 103.99,-223 112.86,-223"/>
<polygon fill="#666666" stroke="#666666" points="112.95,-226.5 122.95,-223 112.95,-219.5 112.95,-226.5"/>
</g>
<!-- getCopStreamResponse -->
<g id="node9" class="node">
<title>getCopStreamResponse</title>
<path fill="none" stroke="#1c2123" d="M273,-187C273,-187 151,-187 151,-187 145,-187 139,-181 139,-175 139,-175 139,-163 139,-163 139,-157 145,-151 151,-151 151,-151 273,-151 273,-151 279,-151 285,-157 285,-163 285,-163 285,-175 285,-175 285,-181 279,-187 273,-187"/>
<text text-anchor="middle" x="212" y="-165.3" font-family="Times,serif" font-size="14.00" fill="#2f3638">getCopStreamResponse</text>
</g>
<!-- SendRequest&#45;&gt;getCopStreamResponse -->
<g id="edge7" class="edge">
<title>SendRequest&#45;&gt;getCopStreamResponse</title>
<path fill="none" stroke="#666666" d="M87.19,-208.03C98.78,-204.04 111.35,-199.79 123,-196 128.98,-194.05 135.21,-192.07 141.46,-190.1"/>
<polygon fill="#666666" stroke="#666666" points="142.77,-193.36 151.27,-187.03 140.68,-186.68 142.77,-193.36"/>
</g>
<!-- getMPPStreamResponse -->
<g id="node10" class="node">
<title>getMPPStreamResponse</title>
<path fill="none" stroke="#1c2123" d="M276,-133C276,-133 148,-133 148,-133 142,-133 136,-127 136,-121 136,-121 136,-109 136,-109 136,-103 142,-97 148,-97 148,-97 276,-97 276,-97 282,-97 288,-103 288,-109 288,-109 288,-121 288,-121 288,-127 282,-133 276,-133"/>
<text text-anchor="middle" x="212" y="-111.3" font-family="Times,serif" font-size="14.00" fill="#2f3638">getMPPStreamResponse</text>
</g>
<!-- SendRequest&#45;&gt;getMPPStreamResponse -->
<g id="edge8" class="edge">
<title>SendRequest&#45;&gt;getMPPStreamResponse</title>
<path fill="none" stroke="#666666" d="M57.54,-204.96C71.7,-186.6 95.94,-158.57 123,-142 125.64,-140.38 128.39,-138.86 131.2,-137.42"/>
<polygon fill="#666666" stroke="#666666" points="132.85,-140.51 140.42,-133.1 129.88,-134.17 132.85,-140.51"/>
</g>
<!-- CallRPC -->
<g id="node11" class="node">
<title>CallRPC</title>
<path fill="none" stroke="#1c2123" d="M447.5,-164C447.5,-164 406.5,-164 406.5,-164 400.5,-164 394.5,-158 394.5,-152 394.5,-152 394.5,-140 394.5,-140 394.5,-134 400.5,-128 406.5,-128 406.5,-128 447.5,-128 447.5,-128 453.5,-128 459.5,-134 459.5,-140 459.5,-140 459.5,-152 459.5,-152 459.5,-158 453.5,-164 447.5,-164"/>
<text text-anchor="middle" x="427" y="-142.3" font-family="Times,serif" font-size="14.00" fill="#2f3638">CallRPC</text>
</g>
<!-- SendRequest&#45;&gt;CallRPC -->
<g id="edge9" class="edge">
<title>SendRequest&#45;&gt;CallRPC</title>
<path fill="none" stroke="#666666" d="M48.82,-204.86C57.19,-174.31 78.82,-113.42 123,-88 208.23,-38.97 327.03,-90.08 387.43,-122.93"/>
<polygon fill="#666666" stroke="#666666" points="385.82,-126.03 396.26,-127.83 389.21,-119.91 385.82,-126.03"/>
</g>
<!-- getConnArray&#45;&gt;rpcClient -->
<g id="edge19" class="edge">
<title>getConnArray&#45;&gt;rpcClient</title>
<path fill="none" stroke="#666666" d="M259.22,-389.77C279.13,-391.83 303.24,-394.32 326.86,-396.76"/>
<polygon fill="#666666" stroke="#666666" points="326.63,-400.25 336.94,-397.8 327.35,-393.29 326.63,-400.25"/>
</g>
<!-- getConnArray&#45;&gt;createConnArray -->
<g id="edge20" class="edge">
<title>getConnArray&#45;&gt;createConnArray</title>
<path fill="none" stroke="#666666" d="M259.1,-377.03C273.47,-372.99 288.75,-366.96 301,-358 323.69,-341.41 314.37,-322.67 337,-306 344.65,-300.37 353.46,-295.84 362.5,-292.22"/>
<polygon fill="#666666" stroke="#666666" points="363.78,-295.48 371.97,-288.76 361.38,-288.91 363.78,-295.48"/>
</g>
<!-- getBatchCopStreamResponse&#45;&gt;CallRPC -->
<g id="edge10" class="edge">
<title>getBatchCopStreamResponse&#45;&gt;CallRPC</title>
<path fill="none" stroke="#666666" d="M274.28,-204.91C283.28,-202.05 292.41,-199.03 301,-196 329.41,-185.98 360.9,-173.37 385.16,-163.33"/>
<polygon fill="#666666" stroke="#666666" points="386.53,-166.55 394.42,-159.47 383.84,-160.09 386.53,-166.55"/>
</g>
<!-- getCopStreamResponse&#45;&gt;CallRPC -->
<g id="edge12" class="edge">
<title>getCopStreamResponse&#45;&gt;CallRPC</title>
<path fill="none" stroke="#666666" d="M285.11,-161.21C318.07,-157.65 355.96,-153.56 384.13,-150.52"/>
<polygon fill="#666666" stroke="#666666" points="384.86,-153.96 394.43,-149.41 384.11,-147 384.86,-153.96"/>
</g>
<!-- getMPPStreamResponse&#45;&gt;CallRPC -->
<g id="edge11" class="edge">
<title>getMPPStreamResponse&#45;&gt;CallRPC</title>
<path fill="none" stroke="#666666" d="M288.1,-125.93C320.38,-130.63 356.9,-135.94 384.24,-139.92"/>
<polygon fill="#666666" stroke="#666666" points="383.84,-143.4 394.24,-141.38 384.85,-136.47 383.84,-143.4"/>
</g>
<!-- KvGet -->
<g id="node12" class="node">
<title>KvGet</title>
<path fill="none" stroke="#1c2123" d="M674.5,-306C674.5,-306 644.5,-306 644.5,-306 638.5,-306 632.5,-300 632.5,-294 632.5,-294 632.5,-282 632.5,-282 632.5,-276 638.5,-270 644.5,-270 644.5,-270 674.5,-270 674.5,-270 680.5,-270 686.5,-276 686.5,-282 686.5,-282 686.5,-294 686.5,-294 686.5,-300 680.5,-306 674.5,-306"/>
<text text-anchor="middle" x="659.5" y="-284.3" font-family="Times,serif" font-size="14.00" fill="#2f3638">KvGet</text>
</g>
<!-- CallRPC&#45;&gt;KvGet -->
<g id="edge13" class="edge">
<title>CallRPC&#45;&gt;KvGet</title>
<path fill="none" stroke="#666666" d="M442.53,-164.12C463.98,-189.63 506.61,-235.83 553,-261 574.56,-272.7 601.37,-279.48 622.57,-283.31"/>
<polygon fill="#666666" stroke="#666666" points="622.04,-286.77 632.48,-284.97 623.19,-279.87 622.04,-286.77"/>
</g>
<!-- KvScan -->
<g id="node13" class="node">
<title>KvScan</title>
<path fill="none" stroke="#1c2123" d="M677,-252C677,-252 642,-252 642,-252 636,-252 630,-246 630,-240 630,-240 630,-228 630,-228 630,-222 636,-216 642,-216 642,-216 677,-216 677,-216 683,-216 689,-222 689,-228 689,-228 689,-240 689,-240 689,-246 683,-252 677,-252"/>
<text text-anchor="middle" x="659.5" y="-230.3" font-family="Times,serif" font-size="14.00" fill="#2f3638">KvScan</text>
</g>
<!-- CallRPC&#45;&gt;KvScan -->
<g id="edge14" class="edge">
<title>CallRPC&#45;&gt;KvScan</title>
<path fill="none" stroke="#666666" d="M459.59,-163.65C484.4,-176.95 520.14,-194.92 553,-207 574.71,-214.98 599.76,-221.5 620,-226.13"/>
<polygon fill="#666666" stroke="#666666" points="619.29,-229.56 629.81,-228.31 620.81,-222.73 619.29,-229.56"/>
</g>
<!-- KvPrewrite -->
<g id="node14" class="node">
<title>KvPrewrite</title>
<path fill="none" stroke="#1c2123" d="M687,-198C687,-198 632,-198 632,-198 626,-198 620,-192 620,-186 620,-186 620,-174 620,-174 620,-168 626,-162 632,-162 632,-162 687,-162 687,-162 693,-162 699,-168 699,-174 699,-174 699,-186 699,-186 699,-192 693,-198 687,-198"/>
<text text-anchor="middle" x="659.5" y="-176.3" font-family="Times,serif" font-size="14.00" fill="#2f3638">KvPrewrite</text>
</g>
<!-- CallRPC&#45;&gt;KvPrewrite -->
<g id="edge15" class="edge">
<title>CallRPC&#45;&gt;KvPrewrite</title>
<path fill="none" stroke="#666666" d="M459.57,-150.66C498.31,-156.37 564.43,-166.12 609.73,-172.81"/>
<polygon fill="#666666" stroke="#666666" points="609.23,-176.27 619.63,-174.27 610.25,-169.34 609.23,-176.27"/>
</g>
<!-- KVPessimisticRollback -->
<g id="node15" class="node">
<title>KVPessimisticRollback</title>
<path fill="none" stroke="#1c2123" d="M720.5,-144C720.5,-144 598.5,-144 598.5,-144 592.5,-144 586.5,-138 586.5,-132 586.5,-132 586.5,-120 586.5,-120 586.5,-114 592.5,-108 598.5,-108 598.5,-108 720.5,-108 720.5,-108 726.5,-108 732.5,-114 732.5,-120 732.5,-120 732.5,-132 732.5,-132 732.5,-138 726.5,-144 720.5,-144"/>
<text text-anchor="middle" x="659.5" y="-122.3" font-family="Times,serif" font-size="14.00" fill="#2f3638">KVPessimisticRollback</text>
</g>
<!-- CallRPC&#45;&gt;KVPessimisticRollback -->
<g id="edge16" class="edge">
<title>CallRPC&#45;&gt;KVPessimisticRollback</title>
<path fill="none" stroke="#666666" d="M459.57,-143.26C489.46,-140.67 535.65,-136.66 576,-133.16"/>
<polygon fill="#666666" stroke="#666666" points="576.46,-136.63 586.12,-132.28 575.86,-129.66 576.46,-136.63"/>
</g>
<!-- KvPessimisticLock -->
<g id="node16" class="node">
<title>KvPessimisticLock</title>
<path fill="none" stroke="#1c2123" d="M708.5,-90C708.5,-90 610.5,-90 610.5,-90 604.5,-90 598.5,-84 598.5,-78 598.5,-78 598.5,-66 598.5,-66 598.5,-60 604.5,-54 610.5,-54 610.5,-54 708.5,-54 708.5,-54 714.5,-54 720.5,-60 720.5,-66 720.5,-66 720.5,-78 720.5,-78 720.5,-84 714.5,-90 708.5,-90"/>
<text text-anchor="middle" x="659.5" y="-68.3" font-family="Times,serif" font-size="14.00" fill="#2f3638">KvPessimisticLock</text>
</g>
<!-- CallRPC&#45;&gt;KvPessimisticLock -->
<g id="edge17" class="edge">
<title>CallRPC&#45;&gt;KvPessimisticLock</title>
<path fill="none" stroke="#666666" d="M459.52,-133.06C484.6,-123.03 520.71,-109.17 553,-99 564.41,-95.41 576.63,-91.94 588.55,-88.76"/>
<polygon fill="#666666" stroke="#666666" points="589.69,-92.08 598.48,-86.15 587.92,-85.3 589.69,-92.08"/>
</g>
<!-- KvGc -->
<g id="node17" class="node">
<title>KvGc</title>
<path fill="none" stroke="#1c2123" d="M674.5,-36C674.5,-36 644.5,-36 644.5,-36 638.5,-36 632.5,-30 632.5,-24 632.5,-24 632.5,-12 632.5,-12 632.5,-6 638.5,0 644.5,0 644.5,0 674.5,0 674.5,0 680.5,0 686.5,-6 686.5,-12 686.5,-12 686.5,-24 686.5,-24 686.5,-30 680.5,-36 674.5,-36"/>
<text text-anchor="middle" x="659.5" y="-14.3" font-family="Times,serif" font-size="14.00" fill="#2f3638">KvGc</text>
</g>
<!-- CallRPC&#45;&gt;KvGc -->
<g id="edge18" class="edge">
<title>CallRPC&#45;&gt;KvGc</title>
<path fill="none" stroke="#666666" d="M445.29,-127.86C467.94,-105.16 509.86,-66.65 553,-45 574.68,-34.12 601.14,-27.36 622.13,-23.33"/>
<polygon fill="#666666" stroke="#666666" points="623.03,-26.72 632.25,-21.51 621.79,-19.83 623.03,-26.72"/>
</g>
</g>
</svg>
