<?xml version="1.0" encoding="UTF-8" standalone="no"?>
<!DOCTYPE svg PUBLIC "-//W3C//DTD SVG 1.1//EN"
 "http://www.w3.org/Graphics/SVG/1.1/DTD/svg11.dtd">
<!-- Generated by graphviz version 2.44.1 (20200629.0846)
 -->
<!-- Title: StoreHeartbeat Pages: 1 -->
<svg width="1322pt" height="563pt"
 viewBox="0.00 0.00 1322.00 563.00" xmlns="http://www.w3.org/2000/svg" xmlns:xlink="http://www.w3.org/1999/xlink">
<g id="graph0" class="graph" transform="scale(1 1) rotate(0) translate(4 559)">
<title>StoreHeartbeat</title>
<polygon fill="white" stroke="transparent" points="-4,4 -4,-559 1318,-559 1318,4 -4,4"/>
<!-- StoreHeartbeatRequest -->
<g id="node1" class="node">
<title>StoreHeartbeatRequest</title>
<path fill="#79d8ce" stroke="#60b5ac" d="M12,-350.5C12,-350.5 137,-350.5 137,-350.5 143,-350.5 149,-356.5 149,-362.5 149,-362.5 149,-407.5 149,-407.5 149,-413.5 143,-419.5 137,-419.5 137,-419.5 12,-419.5 12,-419.5 6,-419.5 0,-413.5 0,-407.5 0,-407.5 0,-362.5 0,-362.5 0,-356.5 6,-350.5 12,-350.5"/>
<text text-anchor="middle" x="74.5" y="-404.3" font-family="Times,serif" font-size="14.00" fill="#5d6179">StoreHeartbeatRequest</text>
<polyline fill="none" stroke="#60b5ac" points="0,-396.5 149,-396.5 "/>
<text text-anchor="start" x="8" y="-381.3" font-family="Times,serif" font-size="14.00" fill="#5d6179">Header *RequestHeader</text>
<polyline fill="none" stroke="#60b5ac" points="0,-373.5 149,-373.5 "/>
<text text-anchor="start" x="8" y="-358.3" font-family="Times,serif" font-size="14.00" fill="#5d6179">Stats *StoreStats</text>
</g>
<!-- StoreHeartbeat -->
<g id="node2" class="node">
<title>StoreHeartbeat</title>
<path fill="none" stroke="#1c2123" d="M111.5,-474C111.5,-474 37.5,-474 37.5,-474 31.5,-474 25.5,-468 25.5,-462 25.5,-462 25.5,-450 25.5,-450 25.5,-444 31.5,-438 37.5,-438 37.5,-438 111.5,-438 111.5,-438 117.5,-438 123.5,-444 123.5,-450 123.5,-450 123.5,-462 123.5,-462 123.5,-468 117.5,-474 111.5,-474"/>
<text text-anchor="middle" x="74.5" y="-452.3" font-family="Times,serif" font-size="14.00" fill="#2f3638">StoreHeartbeat</text>
</g>
<!-- checkStore -->
<g id="node3" class="node">
<title>checkStore</title>
<path fill="none" stroke="#1c2123" d="M280,-501C280,-501 227,-501 227,-501 221,-501 215,-495 215,-489 215,-489 215,-477 215,-477 215,-471 221,-465 227,-465 227,-465 280,-465 280,-465 286,-465 292,-471 292,-477 292,-477 292,-489 292,-489 292,-495 286,-501 280,-501"/>
<text text-anchor="middle" x="253.5" y="-479.3" font-family="Times,serif" font-size="14.00" fill="#2f3638">checkStore</text>
</g>
<!-- StoreHeartbeat&#45;&gt;checkStore -->
<g id="edge1" class="edge">
<title>StoreHeartbeat&#45;&gt;checkStore</title>
<path fill="none" stroke="#666666" d="M123.87,-463.38C149.06,-467.22 179.75,-471.9 204.83,-475.73"/>
<polygon fill="#666666" stroke="#666666" points="204.44,-479.21 214.85,-477.26 205.5,-472.29 204.44,-479.21"/>
</g>
<!-- HandleStoreHeartbeat -->
<g id="node4" class="node">
<title>HandleStoreHeartbeat</title>
<path fill="none" stroke="#1c2123" d="M310,-447C310,-447 197,-447 197,-447 191,-447 185,-441 185,-435 185,-435 185,-423 185,-423 185,-417 191,-411 197,-411 197,-411 310,-411 310,-411 316,-411 322,-417 322,-423 322,-423 322,-435 322,-435 322,-441 316,-447 310,-447"/>
<text text-anchor="middle" x="253.5" y="-425.3" font-family="Times,serif" font-size="14.00" fill="#2f3638">HandleStoreHeartbeat</text>
</g>
<!-- StoreHeartbeat&#45;&gt;HandleStoreHeartbeat -->
<g id="edge2" class="edge">
<title>StoreHeartbeat&#45;&gt;HandleStoreHeartbeat</title>
<path fill="none" stroke="#666666" d="M123.87,-448.62C139.61,-446.22 157.5,-443.49 174.83,-440.85"/>
<polygon fill="#666666" stroke="#666666" points="175.59,-444.27 184.95,-439.3 174.54,-437.35 175.59,-444.27"/>
</g>
<!-- GetStoreId -->
<g id="node5" class="node">
<title>GetStoreId</title>
<path fill="none" stroke="#1c2123" d="M456.5,-555C456.5,-555 404.5,-555 404.5,-555 398.5,-555 392.5,-549 392.5,-543 392.5,-543 392.5,-531 392.5,-531 392.5,-525 398.5,-519 404.5,-519 404.5,-519 456.5,-519 456.5,-519 462.5,-519 468.5,-525 468.5,-531 468.5,-531 468.5,-543 468.5,-543 468.5,-549 462.5,-555 456.5,-555"/>
<text text-anchor="middle" x="430.5" y="-533.3" font-family="Times,serif" font-size="14.00" fill="#2f3638">GetStoreId</text>
</g>
<!-- HandleStoreHeartbeat&#45;&gt;GetStoreId -->
<g id="edge3" class="edge">
<title>HandleStoreHeartbeat&#45;&gt;GetStoreId</title>
<path fill="none" stroke="#666666" d="M308.52,-447.06C313.3,-449.69 317.88,-452.66 322,-456 344.4,-474.17 335.43,-492.04 358,-510 365.32,-515.82 374.03,-520.49 382.81,-524.19"/>
<polygon fill="#666666" stroke="#666666" points="381.72,-527.52 392.31,-527.84 384.23,-520.98 381.72,-527.52"/>
</g>
<!-- GetStore -->
<g id="node6" class="node">
<title>GetStore</title>
<path fill="none" stroke="#1c2123" d="M451,-501C451,-501 410,-501 410,-501 404,-501 398,-495 398,-489 398,-489 398,-477 398,-477 398,-471 404,-465 410,-465 410,-465 451,-465 451,-465 457,-465 463,-471 463,-477 463,-477 463,-489 463,-489 463,-495 457,-501 451,-501"/>
<text text-anchor="middle" x="430.5" y="-479.3" font-family="Times,serif" font-size="14.00" fill="#2f3638">GetStore</text>
</g>
<!-- HandleStoreHeartbeat&#45;&gt;GetStore -->
<g id="edge4" class="edge">
<title>HandleStoreHeartbeat&#45;&gt;GetStore</title>
<path fill="none" stroke="#666666" d="M313.26,-447.13C337.71,-454.68 365.54,-463.26 387.83,-470.14"/>
<polygon fill="#666666" stroke="#666666" points="387.07,-473.57 397.65,-473.17 389.13,-466.88 387.07,-473.57"/>
</g>
<!-- SetLastHeartbeatTS -->
<g id="node7" class="node">
<title>SetLastHeartbeatTS</title>
<path fill="none" stroke="#1c2123" d="M481,-447C481,-447 380,-447 380,-447 374,-447 368,-441 368,-435 368,-435 368,-423 368,-423 368,-417 374,-411 380,-411 380,-411 481,-411 481,-411 487,-411 493,-417 493,-423 493,-423 493,-435 493,-435 493,-441 487,-447 481,-447"/>
<text text-anchor="middle" x="430.5" y="-425.3" font-family="Times,serif" font-size="14.00" fill="#2f3638">SetLastHeartbeatTS</text>
</g>
<!-- HandleStoreHeartbeat&#45;&gt;SetLastHeartbeatTS -->
<g id="edge5" class="edge">
<title>HandleStoreHeartbeat&#45;&gt;SetLastHeartbeatTS</title>
<path fill="none" stroke="#666666" d="M322.16,-429C333.76,-429 345.86,-429 357.57,-429"/>
<polygon fill="#666666" stroke="#666666" points="357.74,-432.5 367.74,-429 357.74,-425.5 357.74,-432.5"/>
</g>
<!-- SaveStore -->
<g id="node8" class="node">
<title>SaveStore</title>
<path fill="none" stroke="#1c2123" d="M370,-346C370,-346 491,-346 491,-346 497,-346 503,-352 503,-358 503,-358 503,-380 503,-380 503,-386 497,-392 491,-392 491,-392 370,-392 370,-392 364,-392 358,-386 358,-380 358,-380 358,-358 358,-358 358,-352 364,-346 370,-346"/>
<text text-anchor="middle" x="430.5" y="-376.8" font-family="Times,serif" font-size="14.00" fill="#2f3638">SaveStore</text>
<polyline fill="none" stroke="#1c2123" points="358,-369 503,-369 "/>
<text text-anchor="middle" x="430.5" y="-353.8" font-family="Times,serif" font-size="14.00" fill="#2f3638">save on store to storage</text>
</g>
<!-- HandleStoreHeartbeat&#45;&gt;SaveStore -->
<g id="edge6" class="edge">
<title>HandleStoreHeartbeat&#45;&gt;SaveStore</title>
<path fill="none" stroke="#666666" d="M307.01,-411C321.35,-406.08 337.19,-400.65 352.59,-395.37"/>
<polygon fill="#666666" stroke="#666666" points="353.77,-398.66 362.1,-392.11 351.5,-392.04 353.77,-398.66"/>
</g>
<!-- PutStore -->
<g id="node9" class="node">
<title>PutStore</title>
<path fill="none" stroke="#1c2123" d="M450,-327C450,-327 411,-327 411,-327 405,-327 399,-321 399,-315 399,-315 399,-303 399,-303 399,-297 405,-291 411,-291 411,-291 450,-291 450,-291 456,-291 462,-297 462,-303 462,-303 462,-315 462,-315 462,-321 456,-327 450,-327"/>
<text text-anchor="middle" x="430.5" y="-305.3" font-family="Times,serif" font-size="14.00" fill="#2f3638">PutStore</text>
</g>
<!-- HandleStoreHeartbeat&#45;&gt;PutStore -->
<g id="edge7" class="edge">
<title>HandleStoreHeartbeat&#45;&gt;PutStore</title>
<path fill="none" stroke="#666666" d="M270.92,-410.98C290.16,-390.74 323.77,-357.98 358,-337 367.66,-331.08 378.78,-326 389.34,-321.86"/>
<polygon fill="#666666" stroke="#666666" points="390.67,-325.1 398.81,-318.33 388.22,-318.55 390.67,-325.1"/>
</g>
<!-- saveProto -->
<g id="node10" class="node">
<title>saveProto</title>
<path fill="none" stroke="#1c2123" d="M597,-418C597,-418 551,-418 551,-418 545,-418 539,-412 539,-406 539,-406 539,-394 539,-394 539,-388 545,-382 551,-382 551,-382 597,-382 597,-382 603,-382 609,-388 609,-394 609,-394 609,-406 609,-406 609,-412 603,-418 597,-418"/>
<text text-anchor="middle" x="574" y="-396.3" font-family="Times,serif" font-size="14.00" fill="#2f3638">saveProto</text>
</g>
<!-- SaveStore&#45;&gt;saveProto -->
<g id="edge8" class="edge">
<title>SaveStore&#45;&gt;saveProto</title>
<path fill="none" stroke="#666666" d="M503.08,-384.68C511.95,-386.62 520.8,-388.56 529.08,-390.38"/>
<polygon fill="#666666" stroke="#666666" points="528.33,-393.8 538.85,-392.52 529.83,-386.96 528.33,-393.8"/>
</g>
<!-- SetStore -->
<g id="node15" class="node">
<title>SetStore</title>
<path fill="none" stroke="#1c2123" d="M593,-327C593,-327 555,-327 555,-327 549,-327 543,-321 543,-315 543,-315 543,-303 543,-303 543,-297 549,-291 555,-291 555,-291 593,-291 593,-291 599,-291 605,-297 605,-303 605,-303 605,-315 605,-315 605,-321 599,-327 593,-327"/>
<text text-anchor="middle" x="574" y="-305.3" font-family="Times,serif" font-size="14.00" fill="#2f3638">SetStore</text>
</g>
<!-- PutStore&#45;&gt;SetStore -->
<g id="edge13" class="edge">
<title>PutStore&#45;&gt;SetStore</title>
<path fill="none" stroke="#666666" d="M462.2,-309C482.83,-309 510.24,-309 532.63,-309"/>
<polygon fill="#666666" stroke="#666666" points="532.84,-312.5 542.84,-309 532.84,-305.5 532.84,-312.5"/>
</g>
<!-- Save -->
<g id="node11" class="node">
<title>Save</title>
<path fill="none" stroke="#1c2123" d="M748.5,-450C748.5,-450 718.5,-450 718.5,-450 712.5,-450 706.5,-444 706.5,-438 706.5,-438 706.5,-426 706.5,-426 706.5,-420 712.5,-414 718.5,-414 718.5,-414 748.5,-414 748.5,-414 754.5,-414 760.5,-420 760.5,-426 760.5,-426 760.5,-438 760.5,-438 760.5,-444 754.5,-450 748.5,-450"/>
<text text-anchor="middle" x="733.5" y="-428.3" font-family="Times,serif" font-size="14.00" fill="#2f3638">Save</text>
</g>
<!-- saveProto&#45;&gt;Save -->
<g id="edge9" class="edge">
<title>saveProto&#45;&gt;Save</title>
<path fill="none" stroke="#666666" d="M609.18,-406.94C634.89,-412.17 670.07,-419.32 696.27,-424.64"/>
<polygon fill="#666666" stroke="#666666" points="695.69,-428.09 706.19,-426.65 697.09,-421.23 695.69,-428.09"/>
</g>
<!-- etcdKVBase_Save -->
<g id="node12" class="node">
<title>etcdKVBase_Save</title>
<path fill="none" stroke="#1c2123" d="M1028.5,-531C1028.5,-531 934.5,-531 934.5,-531 928.5,-531 922.5,-525 922.5,-519 922.5,-519 922.5,-507 922.5,-507 922.5,-501 928.5,-495 934.5,-495 934.5,-495 1028.5,-495 1028.5,-495 1034.5,-495 1040.5,-501 1040.5,-507 1040.5,-507 1040.5,-519 1040.5,-519 1040.5,-525 1034.5,-531 1028.5,-531"/>
<text text-anchor="middle" x="981.5" y="-509.3" font-family="Times,serif" font-size="14.00" fill="#2f3638">etcdKVBase_Save</text>
</g>
<!-- Save&#45;&gt;etcdKVBase_Save -->
<g id="edge10" class="edge">
<title>Save&#45;&gt;etcdKVBase_Save</title>
<path fill="none" stroke="#666666" d="M760.9,-445.34C785.51,-457.35 823.51,-474.78 858,-486 875.39,-491.66 894.54,-496.51 912.44,-500.47"/>
<polygon fill="#666666" stroke="#666666" points="911.72,-503.9 922.23,-502.58 913.2,-497.05 911.72,-503.9"/>
</g>
<!-- LeveldbKV_Save -->
<g id="node13" class="node">
<title>LeveldbKV_Save</title>
<path fill="none" stroke="#1c2123" d="M1026,-477C1026,-477 937,-477 937,-477 931,-477 925,-471 925,-465 925,-465 925,-453 925,-453 925,-447 931,-441 937,-441 937,-441 1026,-441 1026,-441 1032,-441 1038,-447 1038,-453 1038,-453 1038,-465 1038,-465 1038,-471 1032,-477 1026,-477"/>
<text text-anchor="middle" x="981.5" y="-455.3" font-family="Times,serif" font-size="14.00" fill="#2f3638">LeveldbKV_Save</text>
</g>
<!-- Save&#45;&gt;LeveldbKV_Save -->
<g id="edge11" class="edge">
<title>Save&#45;&gt;LeveldbKV_Save</title>
<path fill="none" stroke="#666666" d="M760.83,-434.89C797.24,-438.89 864.18,-446.23 914.64,-451.77"/>
<polygon fill="#666666" stroke="#666666" points="914.49,-455.28 924.81,-452.89 915.25,-448.32 914.49,-455.28"/>
</g>
<!-- memoryKV_Save -->
<g id="node14" class="node">
<title>memoryKV_Save</title>
<path fill="none" stroke="#1c2123" d="M1027.5,-423C1027.5,-423 935.5,-423 935.5,-423 929.5,-423 923.5,-417 923.5,-411 923.5,-411 923.5,-399 923.5,-399 923.5,-393 929.5,-387 935.5,-387 935.5,-387 1027.5,-387 1027.5,-387 1033.5,-387 1039.5,-393 1039.5,-399 1039.5,-399 1039.5,-411 1039.5,-411 1039.5,-417 1033.5,-423 1027.5,-423"/>
<text text-anchor="middle" x="981.5" y="-401.3" font-family="Times,serif" font-size="14.00" fill="#2f3638">memoryKV_Save</text>
</g>
<!-- Save&#45;&gt;memoryKV_Save -->
<g id="edge12" class="edge">
<title>Save&#45;&gt;memoryKV_Save</title>
<path fill="none" stroke="#666666" d="M760.83,-429.11C796.89,-425.15 862.91,-417.91 913.18,-412.39"/>
<polygon fill="#666666" stroke="#666666" points="913.78,-415.84 923.34,-411.27 913.02,-408.89 913.78,-415.84"/>
</g>
<!-- StoresInfo -->
<g id="node16" class="node">
<title>StoresInfo</title>
<path fill="#79d8ce" stroke="#60b5ac" d="M657,-286C657,-286 810,-286 810,-286 816,-286 822,-292 822,-298 822,-298 822,-320 822,-320 822,-326 816,-332 810,-332 810,-332 657,-332 657,-332 651,-332 645,-326 645,-320 645,-320 645,-298 645,-298 645,-292 651,-286 657,-286"/>
<text text-anchor="middle" x="733.5" y="-316.8" font-family="Times,serif" font-size="14.00" fill="#5d6179">StoresInfo</text>
<polyline fill="none" stroke="#60b5ac" points="645,-309 822,-309 "/>
<text text-anchor="middle" x="733.5" y="-293.8" font-family="Times,serif" font-size="14.00" fill="#5d6179">stores map[uint64]*StoreInfo</text>
</g>
<!-- SetStore&#45;&gt;StoresInfo -->
<g id="edge14" class="edge">
<title>SetStore&#45;&gt;StoresInfo</title>
<path fill="none" stroke="#666666" d="M605.37,-309C614.11,-309 624.14,-309 634.66,-309"/>
<polygon fill="#666666" stroke="#666666" points="634.87,-312.5 644.87,-309 634.87,-305.5 634.87,-312.5"/>
</g>
<!-- StoreInfo -->
<g id="node17" class="node">
<title>StoreInfo</title>
<path fill="#79d8ce" stroke="#60b5ac" d="M870,-69.5C870,-69.5 1093,-69.5 1093,-69.5 1099,-69.5 1105,-75.5 1105,-81.5 1105,-81.5 1105,-356.5 1105,-356.5 1105,-362.5 1099,-368.5 1093,-368.5 1093,-368.5 870,-368.5 870,-368.5 864,-368.5 858,-362.5 858,-356.5 858,-356.5 858,-81.5 858,-81.5 858,-75.5 864,-69.5 870,-69.5"/>
<text text-anchor="middle" x="981.5" y="-353.3" font-family="Times,serif" font-size="14.00" fill="#5d6179">StoreInfo</text>
<polyline fill="none" stroke="#60b5ac" points="858,-345.5 1105,-345.5 "/>
<text text-anchor="start" x="866" y="-330.3" font-family="Times,serif" font-size="14.00" fill="#5d6179">meta *metapb.Store</text>
<polyline fill="none" stroke="#60b5ac" points="858,-322.5 1105,-322.5 "/>
<text text-anchor="start" x="866" y="-307.3" font-family="Times,serif" font-size="14.00" fill="#5d6179">*storeStats</text>
<polyline fill="none" stroke="#60b5ac" points="858,-299.5 1105,-299.5 "/>
<text text-anchor="start" x="866" y="-284.3" font-family="Times,serif" font-size="14.00" fill="#5d6179">pauseLeaderTransfer bool</text>
<polyline fill="none" stroke="#60b5ac" points="858,-276.5 1105,-276.5 "/>
<text text-anchor="start" x="866" y="-261.3" font-family="Times,serif" font-size="14.00" fill="#5d6179">leaderCount int</text>
<polyline fill="none" stroke="#60b5ac" points="858,-253.5 1105,-253.5 "/>
<text text-anchor="start" x="866" y="-238.3" font-family="Times,serif" font-size="14.00" fill="#5d6179">regionCount int</text>
<polyline fill="none" stroke="#60b5ac" points="858,-230.5 1105,-230.5 "/>
<text text-anchor="start" x="866" y="-215.3" font-family="Times,serif" font-size="14.00" fill="#5d6179">leaderSize int64</text>
<polyline fill="none" stroke="#60b5ac" points="858,-207.5 1105,-207.5 "/>
<text text-anchor="start" x="866" y="-192.3" font-family="Times,serif" font-size="14.00" fill="#5d6179">regionSize int64</text>
<polyline fill="none" stroke="#60b5ac" points="858,-184.5 1105,-184.5 "/>
<text text-anchor="start" x="866" y="-169.3" font-family="Times,serif" font-size="14.00" fill="#5d6179">pendingPeerCount int</text>
<polyline fill="none" stroke="#60b5ac" points="858,-161.5 1105,-161.5 "/>
<text text-anchor="start" x="866" y="-146.3" font-family="Times,serif" font-size="14.00" fill="#5d6179">lastPersistTime time.Time</text>
<polyline fill="none" stroke="#60b5ac" points="858,-138.5 1105,-138.5 "/>
<text text-anchor="start" x="866" y="-123.3" font-family="Times,serif" font-size="14.00" fill="#5d6179">leaderWeight float64</text>
<polyline fill="none" stroke="#60b5ac" points="858,-115.5 1105,-115.5 "/>
<text text-anchor="start" x="866" y="-100.3" font-family="Times,serif" font-size="14.00" fill="#5d6179">regionWeight float64</text>
<polyline fill="none" stroke="#60b5ac" points="858,-92.5 1105,-92.5 "/>
<text text-anchor="start" x="866" y="-77.3" font-family="Times,serif" font-size="14.00" fill="#5d6179">available map[storelimit.Type]func() bool</text>
</g>
<!-- StoresInfo&#45;&gt;StoreInfo -->
<g id="edge15" class="edge">
<title>StoresInfo&#45;&gt;StoreInfo</title>
<path fill="none" stroke="#666666" d="M797.53,-285.94C813.15,-280.23 830.47,-273.89 848.05,-267.46"/>
<polygon fill="#666666" stroke="#666666" points="849.64,-270.6 857.83,-263.88 847.24,-264.03 849.64,-270.6"/>
</g>
<!-- StoreStats -->
<g id="node18" class="node">
<title>StoreStats</title>
<path fill="#79d8ce" stroke="#60b5ac" d="M1153,-0.5C1153,-0.5 1302,-0.5 1302,-0.5 1308,-0.5 1314,-6.5 1314,-12.5 1314,-12.5 1314,-425.5 1314,-425.5 1314,-431.5 1308,-437.5 1302,-437.5 1302,-437.5 1153,-437.5 1153,-437.5 1147,-437.5 1141,-431.5 1141,-425.5 1141,-425.5 1141,-12.5 1141,-12.5 1141,-6.5 1147,-0.5 1153,-0.5"/>
<text text-anchor="middle" x="1227.5" y="-422.3" font-family="Times,serif" font-size="14.00" fill="#5d6179">StoreStats</text>
<polyline fill="none" stroke="#60b5ac" points="1141,-414.5 1314,-414.5 "/>
<text text-anchor="start" x="1149" y="-399.3" font-family="Times,serif" font-size="14.00" fill="#5d6179">StoreId uint64 </text>
<polyline fill="none" stroke="#60b5ac" points="1141,-391.5 1314,-391.5 "/>
<text text-anchor="start" x="1149" y="-376.3" font-family="Times,serif" font-size="14.00" fill="#5d6179">Capacity uint64 </text>
<polyline fill="none" stroke="#60b5ac" points="1141,-368.5 1314,-368.5 "/>
<text text-anchor="start" x="1149" y="-353.3" font-family="Times,serif" font-size="14.00" fill="#5d6179">Available uint64 </text>
<polyline fill="none" stroke="#60b5ac" points="1141,-345.5 1314,-345.5 "/>
<text text-anchor="start" x="1149" y="-330.3" font-family="Times,serif" font-size="14.00" fill="#5d6179">RegionCount uint32 </text>
<polyline fill="none" stroke="#60b5ac" points="1141,-322.5 1314,-322.5 "/>
<text text-anchor="start" x="1149" y="-307.3" font-family="Times,serif" font-size="14.00" fill="#5d6179">SendingSnapCount uint32 </text>
<polyline fill="none" stroke="#60b5ac" points="1141,-299.5 1314,-299.5 "/>
<text text-anchor="start" x="1149" y="-284.3" font-family="Times,serif" font-size="14.00" fill="#5d6179">ReceivingSnapCount uint32 </text>
<polyline fill="none" stroke="#60b5ac" points="1141,-276.5 1314,-276.5 "/>
<text text-anchor="start" x="1149" y="-261.3" font-family="Times,serif" font-size="14.00" fill="#5d6179">StartTime uint32 </text>
<polyline fill="none" stroke="#60b5ac" points="1141,-253.5 1314,-253.5 "/>
<text text-anchor="start" x="1149" y="-238.3" font-family="Times,serif" font-size="14.00" fill="#5d6179">ApplyingSnapCount uint32 </text>
<polyline fill="none" stroke="#60b5ac" points="1141,-230.5 1314,-230.5 "/>
<text text-anchor="start" x="1149" y="-215.3" font-family="Times,serif" font-size="14.00" fill="#5d6179">IsBusy bool </text>
<polyline fill="none" stroke="#60b5ac" points="1141,-207.5 1314,-207.5 "/>
<text text-anchor="start" x="1149" y="-192.3" font-family="Times,serif" font-size="14.00" fill="#5d6179">UsedSize uint64 </text>
<polyline fill="none" stroke="#60b5ac" points="1141,-184.5 1314,-184.5 "/>
<text text-anchor="start" x="1149" y="-169.3" font-family="Times,serif" font-size="14.00" fill="#5d6179">BytesWritten uint64 </text>
<polyline fill="none" stroke="#60b5ac" points="1141,-161.5 1314,-161.5 "/>
<text text-anchor="start" x="1149" y="-146.3" font-family="Times,serif" font-size="14.00" fill="#5d6179">KeysWritten uint64 </text>
<polyline fill="none" stroke="#60b5ac" points="1141,-138.5 1314,-138.5 "/>
<text text-anchor="start" x="1149" y="-123.3" font-family="Times,serif" font-size="14.00" fill="#5d6179">BytesRead uint64 </text>
<polyline fill="none" stroke="#60b5ac" points="1141,-115.5 1314,-115.5 "/>
<text text-anchor="start" x="1149" y="-100.3" font-family="Times,serif" font-size="14.00" fill="#5d6179">KeysRead uint64 </text>
<polyline fill="none" stroke="#60b5ac" points="1141,-92.5 1314,-92.5 "/>
<text text-anchor="start" x="1149" y="-77.3" font-family="Times,serif" font-size="14.00" fill="#5d6179">Interval *TimeInterval </text>
<polyline fill="none" stroke="#60b5ac" points="1141,-69.5 1314,-69.5 "/>
<text text-anchor="start" x="1149" y="-54.3" font-family="Times,serif" font-size="14.00" fill="#5d6179">CpuUsages []*RecordPair </text>
<polyline fill="none" stroke="#60b5ac" points="1141,-46.5 1314,-46.5 "/>
<text text-anchor="start" x="1149" y="-31.3" font-family="Times,serif" font-size="14.00" fill="#5d6179">ReadIoRates []*RecordPair </text>
<polyline fill="none" stroke="#60b5ac" points="1141,-23.5 1314,-23.5 "/>
<text text-anchor="start" x="1149" y="-8.3" font-family="Times,serif" font-size="14.00" fill="#5d6179">WriteIoRates []*RecordPair </text>
</g>
<!-- StoreInfo&#45;&gt;StoreStats -->
<g id="edge16" class="edge">
<title>StoreInfo&#45;&gt;StoreStats</title>
<path fill="none" stroke="#666666" d="M1105.21,-219C1113.74,-219 1122.25,-219 1130.6,-219"/>
<polygon fill="#666666" stroke="#666666" points="1130.68,-222.5 1140.68,-219 1130.68,-215.5 1130.68,-222.5"/>
</g>
</g>
</svg>
