<?xml version="1.0" encoding="UTF-8" standalone="no"?>
<!DOCTYPE svg PUBLIC "-//W3C//DTD SVG 1.1//EN"
 "http://www.w3.org/Graphics/SVG/1.1/DTD/svg11.dtd">
<!-- Generated by graphviz version 2.40.1 (20161225.0304)
 -->
<!-- Title: gcsweep Pages: 1 -->
<svg width="1607pt" height="892pt"
 viewBox="0.00 0.00 1607.00 892.00" xmlns="http://www.w3.org/2000/svg" xmlns:xlink="http://www.w3.org/1999/xlink">
<g id="graph0" class="graph" transform="scale(1 1) rotate(0) translate(4 888)">
<title>gcsweep</title>
<polygon fill="#ffffff" stroke="transparent" points="-4,4 -4,-888 1603,-888 1603,4 -4,4"/>
<g id="clust1" class="cluster">
<title>cluster_mspan</title>
<path fill="none" stroke="#000000" d="M516.5,-458C516.5,-458 1222,-458 1222,-458 1228,-458 1234,-464 1234,-470 1234,-470 1234,-774 1234,-774 1234,-780 1228,-786 1222,-786 1222,-786 516.5,-786 516.5,-786 510.5,-786 504.5,-780 504.5,-774 504.5,-774 504.5,-470 504.5,-470 504.5,-464 510.5,-458 516.5,-458"/>
<text text-anchor="middle" x="869.25" y="-766" font-family="Times,serif" font-size="20.00" fill="#000000">mspan</text>
</g>
<g id="clust3" class="cluster">
<title>cluster_mheap</title>
<path fill="none" stroke="#000000" d="M513,-51C513,-51 1579,-51 1579,-51 1585,-51 1591,-57 1591,-63 1591,-63 1591,-229 1591,-229 1591,-235 1585,-241 1579,-241 1579,-241 513,-241 513,-241 507,-241 501,-235 501,-229 501,-229 501,-63 501,-63 501,-57 507,-51 513,-51"/>
<text text-anchor="middle" x="1046" y="-221" font-family="Times,serif" font-size="20.00" fill="#000000">mheap</text>
</g>
<g id="clust4" class="cluster">
<title>cluster_mcentral</title>
<path fill="none" stroke="#000000" d="M847,-249C847,-249 1181,-249 1181,-249 1187,-249 1193,-255 1193,-261 1193,-261 1193,-392 1193,-392 1193,-398 1187,-404 1181,-404 1181,-404 847,-404 847,-404 841,-404 835,-398 835,-392 835,-392 835,-261 835,-261 835,-255 841,-249 847,-249"/>
<text text-anchor="middle" x="1014" y="-384" font-family="Times,serif" font-size="20.00" fill="#000000">mcentral</text>
</g>
<!-- mspan_sweep -->
<g id="node1" class="node">
<title>mspan_sweep</title>
<polygon fill="none" stroke="#000000" points="566.5,-502 512.5,-502 512.5,-466 566.5,-466 566.5,-502"/>
<text text-anchor="middle" x="539.5" y="-480.3" font-family="Times,serif" font-size="14.00" fill="#000000">sweep</text>
</g>
<!-- freespecial -->
<g id="node2" class="node">
<title>freespecial</title>
<polygon fill="none" stroke="#000000" points="913,-502 838,-502 838,-466 913,-466 913,-502"/>
<text text-anchor="middle" x="875.5" y="-480.3" font-family="Times,serif" font-size="14.00" fill="#000000">freespecial</text>
</g>
<!-- mspan_sweep&#45;&gt;freespecial -->
<g id="edge1" class="edge">
<title>mspan_sweep&#45;&gt;freespecial</title>
<path fill="none" stroke="#000000" d="M566.7117,-484C623.7431,-484 756.4203,-484 827.8836,-484"/>
<polygon fill="#000000" stroke="#000000" points="827.9669,-487.5001 837.9669,-484 827.9668,-480.5001 827.9669,-487.5001"/>
</g>
<!-- refillAllocCache -->
<g id="node3" class="node">
<title>refillAllocCache</title>
<polygon fill="none" stroke="#000000" points="929,-556 822,-556 822,-520 929,-520 929,-556"/>
<text text-anchor="middle" x="875.5" y="-534.3" font-family="Times,serif" font-size="14.00" fill="#000000">refillAllocCache</text>
</g>
<!-- mspan_sweep&#45;&gt;refillAllocCache -->
<g id="edge2" class="edge">
<title>mspan_sweep&#45;&gt;refillAllocCache</title>
<path fill="none" stroke="#000000" d="M566.7117,-488.3733C619.6821,-496.8864 737.9086,-515.8871 811.7356,-527.7522"/>
<polygon fill="#000000" stroke="#000000" points="811.4181,-531.246 821.8468,-529.3772 812.5289,-524.3347 811.4181,-531.246"/>
</g>
<!-- countAlloc -->
<g id="node5" class="node">
<title>countAlloc</title>
<polygon fill="none" stroke="#000000" points="819,-574.5 819,-635.5 932,-635.5 932,-574.5 819,-574.5"/>
<text text-anchor="middle" x="875.5" y="-620.3" font-family="Times,serif" font-size="14.00" fill="#000000">countAlloc</text>
<polyline fill="none" stroke="#000000" points="819,-612.5 932,-612.5 "/>
<text text-anchor="start" x="827" y="-597.3" font-family="Times,serif" font-size="14.00" fill="#000000">返回span所分配</text>
<text text-anchor="start" x="827" y="-582.3" font-family="Times,serif" font-size="14.00" fill="#000000"> 对象的个数</text>
</g>
<!-- mspan_sweep&#45;&gt;countAlloc -->
<g id="edge7" class="edge">
<title>mspan_sweep&#45;&gt;countAlloc</title>
<path fill="none" stroke="#000000" d="M566.7292,-494.5369C607.6556,-510.2947 687.5328,-540.7415 756,-565 773.2257,-571.1032 791.9329,-577.4822 809.321,-583.3073"/>
<polygon fill="#000000" stroke="#000000" points="808.2338,-586.6342 818.8275,-586.4812 810.4506,-579.9945 808.2338,-586.6342"/>
<text text-anchor="middle" x="676" y="-559.8" font-family="Times,serif" font-size="14.00" fill="#000000">0表示该span可以free</text>
</g>
<!-- resetBits -->
<g id="node6" class="node">
<title>resetBits</title>
<polygon fill="none" stroke="#000000" points="756,-655 756,-693 995,-693 995,-655 756,-655"/>
<text text-anchor="start" x="764" y="-677.8" font-family="Times,serif" font-size="14.00" fill="#000000">s.allocBits = s.gcmarkBits</text>
<text text-anchor="start" x="764" y="-662.8" font-family="Times,serif" font-size="14.00" fill="#000000"> s.gcmarkBits = newMarkBits(s.nelems)</text>
</g>
<!-- mspan_sweep&#45;&gt;resetBits -->
<g id="edge6" class="edge">
<title>mspan_sweep&#45;&gt;resetBits</title>
<path fill="none" stroke="#000000" d="M550.8097,-502.0158C564.0158,-521.9124 587.4627,-553.9159 614,-575 661.3203,-612.5964 724.4636,-637.0395 776.8472,-652.2308"/>
<polygon fill="#000000" stroke="#000000" points="775.9217,-655.6062 786.4969,-654.9607 777.8273,-648.8706 775.9217,-655.6062"/>
<text text-anchor="middle" x="676" y="-641.8" font-family="Times,serif" font-size="14.00" fill="#000000">重置gcbits</text>
</g>
<!-- markBitsForIndex -->
<g id="node7" class="node">
<title>markBitsForIndex</title>
<polygon fill="none" stroke="#000000" points="933.5,-748 817.5,-748 817.5,-712 933.5,-712 933.5,-748"/>
<text text-anchor="middle" x="875.5" y="-726.3" font-family="Times,serif" font-size="14.00" fill="#000000">markBitsForIndex</text>
</g>
<!-- mspan_sweep&#45;&gt;markBitsForIndex -->
<g id="edge5" class="edge">
<title>mspan_sweep&#45;&gt;markBitsForIndex</title>
<path fill="none" stroke="#000000" d="M542.2394,-502.0101C548.4972,-536.9585 567.0964,-614.2829 614,-657 666.9282,-705.204 749.0979,-721.9056 807.1821,-727.5175"/>
<polygon fill="#000000" stroke="#000000" points="807.1044,-731.024 817.3724,-728.4128 807.7171,-724.0509 807.1044,-731.024"/>
<text text-anchor="middle" x="676" y="-719.8" font-family="Times,serif" font-size="14.00" fill="#000000">检查是否标记special</text>
</g>
<!-- mheap_freeSpan -->
<g id="node11" class="node">
<title>mheap_freeSpan</title>
<polygon fill="none" stroke="#000000" points="1182,-203 1117,-203 1117,-167 1182,-167 1182,-203"/>
<text text-anchor="middle" x="1149.5" y="-181.3" font-family="Times,serif" font-size="14.00" fill="#000000">freeSpan</text>
</g>
<!-- mspan_sweep&#45;&gt;mheap_freeSpan -->
<g id="edge27" class="edge">
<title>mspan_sweep&#45;&gt;mheap_freeSpan</title>
<path fill="none" stroke="#000000" d="M549.3901,-465.6794C575.7323,-418.9847 652.6904,-295.6354 756,-245 873.3454,-187.4852 1032.0465,-182.2019 1106.9734,-183.368"/>
<polygon fill="#000000" stroke="#000000" points="1106.908,-186.8673 1116.9769,-183.5706 1107.0498,-179.8687 1106.908,-186.8673"/>
</g>
<!-- sweepSpans -->
<g id="node14" class="node">
<title>sweepSpans</title>
<polygon fill="#95e1d3" stroke="#000000" points="917,-95 838,-95 834,-91 834,-59 913,-59 917,-63 917,-95"/>
<polyline fill="none" stroke="#000000" points="913,-91 834,-91 "/>
<polyline fill="none" stroke="#000000" points="913,-91 913,-59 "/>
<polyline fill="none" stroke="#000000" points="913,-91 917,-95 "/>
<text text-anchor="middle" x="875.5" y="-73.3" font-family="Times,serif" font-size="14.00" fill="#000000">sweepSpans</text>
</g>
<!-- mspan_sweep&#45;&gt;sweepSpans -->
<g id="edge30" class="edge">
<title>mspan_sweep&#45;&gt;sweepSpans</title>
<path fill="none" stroke="#000000" d="M543.9079,-465.7294C553.5332,-425.7515 577.0843,-327.493 596,-245 604.2423,-209.0547 589.2934,-191.3785 614,-164 628.4462,-147.9915 752.2181,-111.3877 824.1814,-91.1326"/>
<polygon fill="#000000" stroke="#000000" points="825.2912,-94.4565 833.9751,-88.3869 823.4015,-87.7164 825.2912,-94.4565"/>
<text text-anchor="middle" x="676" y="-167.8" font-family="Times,serif" font-size="14.00" fill="#000000">push</text>
</g>
<!-- mcentral_freeSpan -->
<g id="node18" class="node">
<title>mcentral_freeSpan</title>
<polygon fill="none" stroke="#000000" points="908,-331 843,-331 843,-295 908,-295 908,-331"/>
<text text-anchor="middle" x="875.5" y="-309.3" font-family="Times,serif" font-size="14.00" fill="#000000">freeSpan</text>
</g>
<!-- mspan_sweep&#45;&gt;mcentral_freeSpan -->
<g id="edge28" class="edge">
<title>mspan_sweep&#45;&gt;mcentral_freeSpan</title>
<path fill="none" stroke="#000000" d="M566.7117,-470.1512C625.3973,-440.2844 764.1804,-369.6537 833.9439,-334.1491"/>
<polygon fill="#000000" stroke="#000000" points="835.5851,-337.2411 842.9098,-329.5861 832.41,-331.0026 835.5851,-337.2411"/>
</g>
<!-- sysFault -->
<g id="node28" class="node">
<title>sysFault</title>
<polygon fill="none" stroke="#000000" points="906.5,-448 844.5,-448 844.5,-412 906.5,-412 906.5,-448"/>
<text text-anchor="middle" x="875.5" y="-426.3" font-family="Times,serif" font-size="14.00" fill="#000000">sysFault</text>
</g>
<!-- mspan_sweep&#45;&gt;sysFault -->
<g id="edge29" class="edge">
<title>mspan_sweep&#45;&gt;sysFault</title>
<path fill="none" stroke="#000000" d="M566.7117,-479.6267C625.4095,-470.1931 764.2381,-447.8814 833.9875,-436.6717"/>
<polygon fill="#000000" stroke="#000000" points="834.8449,-440.0788 844.1628,-435.0363 833.7341,-433.1675 834.8449,-440.0788"/>
</g>
<!-- mspan -->
<g id="node4" class="node">
<title>mspan</title>
<polygon fill="none" stroke="#000000" points="1073,-652.5 1073,-721.5 1226,-721.5 1226,-652.5 1073,-652.5"/>
<text text-anchor="middle" x="1149.5" y="-706.3" font-family="Times,serif" font-size="14.00" fill="#000000">mspan</text>
<polyline fill="none" stroke="#000000" points="1073,-698.5 1226,-698.5 "/>
<text text-anchor="start" x="1081" y="-683.3" font-family="Times,serif" font-size="14.00" fill="#000000">allocBits *gcBits</text>
<polyline fill="none" stroke="#000000" points="1073,-675.5 1226,-675.5 "/>
<text text-anchor="start" x="1081" y="-660.3" font-family="Times,serif" font-size="14.00" fill="#000000">gcmarkBits *gcmarkBits</text>
</g>
<!-- countAlloc&#45;&gt;mspan -->
<g id="edge4" class="edge">
<title>countAlloc&#45;&gt;mspan:gcmarkBits</title>
<path fill="none" stroke="#000000" d="M932.2008,-623.749C977.457,-638.4607 1037.3742,-657.3049 1062.9904,-662.5751"/>
<polygon fill="#000000" stroke="#000000" points="1062.6065,-666.0557 1073,-664 1063.5931,-659.1255 1062.6065,-666.0557"/>
</g>
<!-- markBitsForIndex&#45;&gt;mspan -->
<g id="edge3" class="edge">
<title>markBitsForIndex&#45;&gt;mspan:gcmarkBits</title>
<path fill="none" stroke="#000000" d="M933.7419,-719.7851C953.4821,-715.551 975.4697,-709.973 995,-703 1028.0797,-691.1894 1033.4311,-668.7552 1062.9914,-664.6526"/>
<polygon fill="#000000" stroke="#000000" points="1063.249,-668.1434 1073,-664 1062.7934,-661.1582 1063.249,-668.1434"/>
</g>
<!-- gcmarknewobject -->
<g id="node8" class="node">
<title>gcmarknewobject</title>
<polygon fill="none" stroke="#000000" points="596,-830 483,-830 483,-794 596,-794 596,-830"/>
<text text-anchor="middle" x="539.5" y="-808.3" font-family="Times,serif" font-size="14.00" fill="#000000">gcmarknewobject</text>
</g>
<!-- gcmarknewobject&#45;&gt;markBitsForIndex -->
<g id="edge8" class="edge">
<title>gcmarknewobject&#45;&gt;markBitsForIndex</title>
<path fill="none" stroke="#000000" d="M596.1179,-798.1825C654.4361,-783.9501 745.3448,-761.7641 807.5168,-746.5911"/>
<polygon fill="#000000" stroke="#000000" points="808.3539,-749.9896 817.239,-744.2185 806.6942,-743.1892 808.3539,-749.9896"/>
</g>
<!-- greyobject -->
<g id="node9" class="node">
<title>greyobject</title>
<polygon fill="none" stroke="#000000" points="576.5,-884 502.5,-884 502.5,-848 576.5,-848 576.5,-884"/>
<text text-anchor="middle" x="539.5" y="-862.3" font-family="Times,serif" font-size="14.00" fill="#000000">greyobject</text>
</g>
<!-- greyobject&#45;&gt;markBitsForIndex -->
<g id="edge9" class="edge">
<title>greyobject&#45;&gt;markBitsForIndex</title>
<path fill="none" stroke="#000000" d="M576.6936,-852.6568C616.7625,-838.1172 682.2764,-813.8664 738,-791 767.8019,-778.7706 800.8078,-764.164 827.0109,-752.3104"/>
<polygon fill="#000000" stroke="#000000" points="828.6786,-755.3972 836.3383,-748.0774 825.7858,-749.0229 828.6786,-755.3972"/>
<text text-anchor="middle" x="676" y="-841.8" font-family="Times,serif" font-size="14.00" fill="#000000">标记为黑色对象</text>
</g>
<!-- mallocgc -->
<g id="node10" class="node">
<title>mallocgc</title>
<polygon fill="none" stroke="#000000" points="444.5,-830 377.5,-830 377.5,-794 444.5,-794 444.5,-830"/>
<text text-anchor="middle" x="411" y="-808.3" font-family="Times,serif" font-size="14.00" fill="#000000">mallocgc</text>
</g>
<!-- mallocgc&#45;&gt;gcmarknewobject -->
<g id="edge10" class="edge">
<title>mallocgc&#45;&gt;gcmarknewobject</title>
<path fill="none" stroke="#000000" d="M444.7619,-812C453.3714,-812 462.9317,-812 472.5725,-812"/>
<polygon fill="#000000" stroke="#000000" points="472.612,-815.5001 482.612,-812 472.6119,-808.5001 472.612,-815.5001"/>
</g>
<!-- freeSpanLocked -->
<g id="node12" class="node">
<title>freeSpanLocked</title>
<polygon fill="none" stroke="#000000" points="1368,-198 1263,-198 1263,-162 1368,-162 1368,-198"/>
<text text-anchor="middle" x="1315.5" y="-176.3" font-family="Times,serif" font-size="14.00" fill="#000000">freeSpanLocked</text>
</g>
<!-- mheap_freeSpan&#45;&gt;freeSpanLocked -->
<g id="edge32" class="edge">
<title>mheap_freeSpan&#45;&gt;freeSpanLocked</title>
<path fill="none" stroke="#000000" d="M1182.2963,-184.0122C1202.3866,-183.407 1228.7629,-182.6126 1252.7395,-181.8904"/>
<polygon fill="#000000" stroke="#000000" points="1252.9529,-185.3856 1262.8429,-181.5861 1252.7421,-178.3888 1252.9529,-185.3856"/>
</g>
<!-- coalesce -->
<g id="node13" class="node">
<title>coalesce</title>
<polygon fill="none" stroke="#000000" points="1560.5,-203 1498.5,-203 1498.5,-167 1560.5,-167 1560.5,-203"/>
<text text-anchor="middle" x="1529.5" y="-181.3" font-family="Times,serif" font-size="14.00" fill="#000000">coalesce</text>
</g>
<!-- freeSpanLocked&#45;&gt;coalesce -->
<g id="edge33" class="edge">
<title>freeSpanLocked&#45;&gt;coalesce</title>
<path fill="none" stroke="#000000" d="M1368.1169,-189.9526C1374.1295,-190.7933 1380.1854,-191.5087 1386,-192 1420.4212,-194.9085 1459.5971,-192.6215 1488.3094,-189.9091"/>
<polygon fill="#000000" stroke="#000000" points="1488.7848,-193.379 1498.386,-188.8993 1488.0868,-186.4139 1488.7848,-193.379"/>
</g>
<!-- free -->
<g id="node15" class="node">
<title>free</title>
<polygon fill="#95e1d3" stroke="#000000" points="1556.5,-149 1506.5,-149 1502.5,-145 1502.5,-113 1552.5,-113 1556.5,-117 1556.5,-149"/>
<polyline fill="none" stroke="#000000" points="1552.5,-145 1502.5,-145 "/>
<polyline fill="none" stroke="#000000" points="1552.5,-145 1552.5,-113 "/>
<polyline fill="none" stroke="#000000" points="1552.5,-145 1556.5,-149 "/>
<text text-anchor="middle" x="1529.5" y="-127.3" font-family="Times,serif" font-size="14.00" fill="#000000">free</text>
</g>
<!-- freeSpanLocked&#45;&gt;free -->
<g id="edge12" class="edge">
<title>freeSpanLocked&#45;&gt;free</title>
<path fill="none" stroke="#000000" d="M1368.3019,-172.0573C1395.3131,-167.5679 1428.6078,-161.3752 1458,-154 1469.3294,-151.1572 1481.4847,-147.4877 1492.5006,-143.9182"/>
<polygon fill="#000000" stroke="#000000" points="1493.8467,-147.1595 1502.2406,-140.6948 1491.6473,-140.514 1493.8467,-147.1595"/>
<text text-anchor="middle" x="1422" y="-172.8" font-family="Times,serif" font-size="14.00" fill="#000000">insert</text>
</g>
<!-- arena_pageInuse -->
<g id="node17" class="node">
<title>arena_pageInuse</title>
<polygon fill="none" stroke="#000000" points="1583,-95 1476,-95 1476,-59 1583,-59 1583,-95"/>
<text text-anchor="middle" x="1529.5" y="-73.3" font-family="Times,serif" font-size="14.00" fill="#000000">arena_pageInuse</text>
</g>
<!-- freeSpanLocked&#45;&gt;arena_pageInuse -->
<g id="edge14" class="edge">
<title>freeSpanLocked&#45;&gt;arena_pageInuse</title>
<path fill="none" stroke="#000000" d="M1339.5686,-161.9875C1352.728,-152.8375 1369.6419,-142.1692 1386,-135 1416.3121,-121.7152 1427.8216,-129.5858 1458,-116 1466.7674,-112.0531 1467.6931,-108.8414 1476,-104 1478.3624,-102.6232 1480.8035,-101.2445 1483.2824,-99.8788"/>
<polygon fill="#000000" stroke="#000000" points="1485.1909,-102.827 1492.3504,-95.0172 1481.8833,-96.6577 1485.1909,-102.827"/>
<text text-anchor="middle" x="1422" y="-138.8" font-family="Times,serif" font-size="14.00" fill="#000000">^=pageMask</text>
</g>
<!-- alloc_m -->
<g id="node16" class="node">
<title>alloc_m</title>
<polygon fill="none" stroke="#000000" points="570,-130 509,-130 509,-94 570,-94 570,-130"/>
<text text-anchor="middle" x="539.5" y="-108.3" font-family="Times,serif" font-size="14.00" fill="#000000">alloc_m</text>
</g>
<!-- alloc_m&#45;&gt;sweepSpans -->
<g id="edge11" class="edge">
<title>alloc_m&#45;&gt;sweepSpans</title>
<path fill="none" stroke="#000000" d="M570.0738,-103.3558C583.4526,-99.9008 599.3982,-96.2217 614,-94 686.1046,-83.0292 770.4502,-79.1321 823.4298,-77.7515"/>
<polygon fill="#000000" stroke="#000000" points="823.6814,-81.2466 833.5945,-77.5076 823.5134,-74.2486 823.6814,-81.2466"/>
<text text-anchor="middle" x="676" y="-97.8" font-family="Times,serif" font-size="14.00" fill="#000000">push</text>
</g>
<!-- alloc_m&#45;&gt;arena_pageInuse -->
<g id="edge13" class="edge">
<title>alloc_m&#45;&gt;arena_pageInuse</title>
<path fill="none" stroke="#000000" d="M570.0759,-112.3038C629.113,-112.8633 762.9147,-114 875.5,-114 875.5,-114 875.5,-114 1315.5,-114 1366.6368,-114 1423.6554,-103.6148 1465.9704,-93.8485"/>
<polygon fill="#000000" stroke="#000000" points="1466.924,-97.2196 1475.8533,-91.5172 1465.3169,-90.4066 1466.924,-97.2196"/>
<text text-anchor="middle" x="1149.5" y="-117.8" font-family="Times,serif" font-size="14.00" fill="#000000">|=pageMask</text>
</g>
<!-- mcentral_freeSpan&#45;&gt;mheap_freeSpan -->
<g id="edge31" class="edge">
<title>mcentral_freeSpan&#45;&gt;mheap_freeSpan</title>
<path fill="none" stroke="#000000" d="M908.0074,-297.8141C957.7232,-274.5892 1052.6386,-230.2491 1107.5051,-204.6181"/>
<polygon fill="#000000" stroke="#000000" points="1109.03,-207.7688 1116.6088,-200.3652 1106.0672,-201.4267 1109.03,-207.7688"/>
</g>
<!-- nonempty -->
<g id="node19" class="node">
<title>nonempty</title>
<polygon fill="#95e1d3" stroke="#000000" points="1185,-303 1118,-303 1114,-299 1114,-267 1181,-267 1185,-271 1185,-303"/>
<polyline fill="none" stroke="#000000" points="1181,-299 1114,-299 "/>
<polyline fill="none" stroke="#000000" points="1181,-299 1181,-267 "/>
<polyline fill="none" stroke="#000000" points="1181,-299 1185,-303 "/>
<text text-anchor="middle" x="1149.5" y="-281.3" font-family="Times,serif" font-size="14.00" fill="#000000">nonempty</text>
</g>
<!-- mcentral_freeSpan&#45;&gt;nonempty -->
<g id="edge15" class="edge">
<title>mcentral_freeSpan&#45;&gt;nonempty</title>
<path fill="none" stroke="#000000" d="M908.0681,-301.632C935.6228,-292.6483 976.3613,-280.8434 1013,-276 1031.5057,-273.5537 1036.3544,-275.1141 1055,-276 1070.7829,-276.7499 1087.9985,-278.2004 1103.36,-279.7216"/>
<polygon fill="#000000" stroke="#000000" points="1103.3532,-283.2392 1113.6582,-280.7783 1104.0678,-276.2758 1103.3532,-283.2392"/>
<text text-anchor="middle" x="1034" y="-279.8" font-family="Times,serif" font-size="14.00" fill="#000000">insert</text>
</g>
<!-- mcentral_freeSpan&#45;&gt;nonempty -->
<g id="edge16" class="edge">
<title>mcentral_freeSpan&#45;&gt;nonempty</title>
<path fill="none" stroke="#000000" d="M908.0074,-309.6781C956.4828,-304.7244 1047.9306,-295.3794 1103.325,-289.7186"/>
<polygon fill="#000000" stroke="#000000" points="1103.9726,-293.1708 1113.5649,-288.6722 1103.2609,-286.207 1103.9726,-293.1708"/>
<text text-anchor="middle" x="1034" y="-302.8" font-family="Times,serif" font-size="14.00" fill="#000000">remove</text>
</g>
<!-- empty -->
<g id="node20" class="node">
<title>empty</title>
<polygon fill="none" stroke="#000000" points="1176.5,-366 1122.5,-366 1122.5,-330 1176.5,-330 1176.5,-366"/>
<text text-anchor="middle" x="1149.5" y="-344.3" font-family="Times,serif" font-size="14.00" fill="#000000">empty</text>
</g>
<!-- mcentral_freeSpan&#45;&gt;empty -->
<g id="edge17" class="edge">
<title>mcentral_freeSpan&#45;&gt;empty</title>
<path fill="none" stroke="#000000" d="M908.0074,-317.1524C959.1729,-323.6881 1058.2124,-336.3392 1112.2005,-343.2355"/>
<polygon fill="#000000" stroke="#000000" points="1112.0069,-346.7391 1122.3699,-344.5345 1112.894,-339.7955 1112.0069,-346.7391"/>
<text text-anchor="middle" x="1034" y="-339.8" font-family="Times,serif" font-size="14.00" fill="#000000">remove</text>
</g>
<!-- gcSweep -->
<g id="node21" class="node">
<title>gcSweep</title>
<polygon fill="none" stroke="#000000" points="65,-117 0,-117 0,-81 65,-81 65,-117"/>
<text text-anchor="middle" x="32.5" y="-95.3" font-family="Times,serif" font-size="14.00" fill="#000000">gcSweep</text>
</g>
<!-- sweepone -->
<g id="node22" class="node">
<title>sweepone</title>
<polygon fill="none" stroke="#000000" points="446,-190 376,-190 376,-154 446,-154 446,-190"/>
<text text-anchor="middle" x="411" y="-168.3" font-family="Times,serif" font-size="14.00" fill="#000000">sweepone</text>
</g>
<!-- gcSweep&#45;&gt;sweepone -->
<g id="edge18" class="edge">
<title>gcSweep&#45;&gt;sweepone</title>
<path fill="none" stroke="#000000" d="M49.4954,-117.029C62.5374,-129.5602 81.7008,-145.3366 102,-153 190.6498,-186.4671 303.7482,-182.8495 365.5767,-177.3532"/>
<polygon fill="#000000" stroke="#000000" points="366.1524,-180.8145 375.7779,-176.3873 365.4924,-173.8456 366.1524,-180.8145"/>
</g>
<!-- ready -->
<g id="node23" class="node">
<title>ready</title>
<polygon fill="none" stroke="#000000" points="197,-144 143,-144 143,-108 197,-108 197,-144"/>
<text text-anchor="middle" x="170" y="-122.3" font-family="Times,serif" font-size="14.00" fill="#000000">ready</text>
</g>
<!-- gcSweep&#45;&gt;ready -->
<g id="edge19" class="edge">
<title>gcSweep&#45;&gt;ready</title>
<path fill="none" stroke="#000000" d="M65.0856,-105.3986C85.4233,-109.3922 111.6637,-114.5449 132.8137,-118.698"/>
<polygon fill="#000000" stroke="#000000" points="132.2524,-122.1545 142.7394,-120.647 133.6012,-115.2857 132.2524,-122.1545"/>
</g>
<!-- prepareFreeWorkbufs -->
<g id="node24" class="node">
<title>prepareFreeWorkbufs</title>
<polygon fill="none" stroke="#000000" points="238,-90 102,-90 102,-54 238,-54 238,-90"/>
<text text-anchor="middle" x="170" y="-68.3" font-family="Times,serif" font-size="14.00" fill="#000000">prepareFreeWorkbufs</text>
</g>
<!-- gcSweep&#45;&gt;prepareFreeWorkbufs -->
<g id="edge20" class="edge">
<title>gcSweep&#45;&gt;prepareFreeWorkbufs</title>
<path fill="none" stroke="#000000" d="M65.0856,-92.6014C73.3373,-90.981 82.5608,-89.1699 92.0216,-87.3121"/>
<polygon fill="#000000" stroke="#000000" points="92.7979,-90.7266 101.9361,-85.3653 91.449,-83.8578 92.7979,-90.7266"/>
</g>
<!-- freeSomeWbufs -->
<g id="node25" class="node">
<title>freeSomeWbufs</title>
<polygon fill="none" stroke="#000000" points="223,-36 117,-36 117,0 223,0 223,-36"/>
<text text-anchor="middle" x="170" y="-14.3" font-family="Times,serif" font-size="14.00" fill="#000000">freeSomeWbufs</text>
</g>
<!-- gcSweep&#45;&gt;freeSomeWbufs -->
<g id="edge21" class="edge">
<title>gcSweep&#45;&gt;freeSomeWbufs</title>
<path fill="none" stroke="#000000" d="M52.6968,-80.8198C66.0149,-69.4795 84.2237,-55.1605 102,-45 104.8121,-43.3927 107.7387,-41.8377 110.729,-40.3405"/>
<polygon fill="#000000" stroke="#000000" points="112.2992,-43.4696 119.8406,-36.028 109.3046,-37.1425 112.2992,-43.4696"/>
</g>
<!-- sweepone&#45;&gt;mspan_sweep -->
<g id="edge26" class="edge">
<title>sweepone&#45;&gt;mspan_sweep</title>
<path fill="none" stroke="#000000" d="M418.4641,-190.123C439.9778,-242.3586 502.2202,-393.484 528.0528,-456.206"/>
<polygon fill="#000000" stroke="#000000" points="524.9707,-457.9134 532.0153,-465.827 531.4432,-455.2476 524.9707,-457.9134"/>
</g>
<!-- sweepone&#45;&gt;sweepSpans -->
<g id="edge25" class="edge">
<title>sweepone&#45;&gt;sweepSpans</title>
<path fill="none" stroke="#000000" d="M437.4387,-153.772C440.5271,-151.0353 443.4721,-148.0879 446,-145 469.5449,-116.2394 451.4346,-89.6253 483,-70 589.0139,-4.0875 744.2557,-36.0782 824.0095,-59.6168"/>
<polygon fill="#000000" stroke="#000000" points="823.2336,-63.0386 833.8186,-62.5823 825.2594,-56.3381 823.2336,-63.0386"/>
<text text-anchor="middle" x="539.5" y="-73.8" font-family="Times,serif" font-size="14.00" fill="#000000">pop</text>
</g>
<!-- bgsweep -->
<g id="node26" class="node">
<title>bgsweep</title>
<polygon fill="none" stroke="#000000" points="339,-144 275,-144 275,-108 339,-108 339,-144"/>
<text text-anchor="middle" x="307" y="-122.3" font-family="Times,serif" font-size="14.00" fill="#000000">bgsweep</text>
</g>
<!-- ready&#45;&gt;bgsweep -->
<g id="edge22" class="edge">
<title>ready&#45;&gt;bgsweep</title>
<path fill="none" stroke="#000000" d="M197.0668,-126C216.32,-126 242.5684,-126 264.5882,-126"/>
<polygon fill="#000000" stroke="#000000" points="264.6875,-129.5001 274.6874,-126 264.6874,-122.5001 264.6875,-129.5001"/>
</g>
<!-- bgsweep&#45;&gt;sweepone -->
<g id="edge23" class="edge">
<title>bgsweep&#45;&gt;sweepone</title>
<path fill="none" stroke="#000000" d="M339.052,-140.1769C347.8254,-144.0574 357.4918,-148.3329 366.8151,-152.4567"/>
<polygon fill="#000000" stroke="#000000" points="365.4172,-155.6654 375.9784,-156.5097 368.2488,-149.2637 365.4172,-155.6654"/>
</g>
<!-- Gosched -->
<g id="node27" class="node">
<title>Gosched</title>
<polygon fill="none" stroke="#000000" points="443,-136 379,-136 379,-100 443,-100 443,-136"/>
<text text-anchor="middle" x="411" y="-114.3" font-family="Times,serif" font-size="14.00" fill="#000000">Gosched</text>
</g>
<!-- bgsweep&#45;&gt;Gosched -->
<g id="edge24" class="edge">
<title>bgsweep&#45;&gt;Gosched</title>
<path fill="none" stroke="#000000" d="M339.052,-123.5345C348.4428,-122.8121 358.8566,-122.011 368.7777,-121.2479"/>
<polygon fill="#000000" stroke="#000000" points="369.1727,-124.7279 378.8748,-120.4712 368.6358,-117.7485 369.1727,-124.7279"/>
</g>
<!-- mmap -->
<g id="node29" class="node">
<title>mmap</title>
<polygon fill="none" stroke="#000000" points="1176.5,-448 1122.5,-448 1122.5,-412 1176.5,-412 1176.5,-448"/>
<text text-anchor="middle" x="1149.5" y="-426.3" font-family="Times,serif" font-size="14.00" fill="#000000">mmap</text>
</g>
<!-- sysFault&#45;&gt;mmap -->
<g id="edge34" class="edge">
<title>sysFault&#45;&gt;mmap</title>
<path fill="none" stroke="#000000" d="M906.6645,-430C957.4226,-430 1057.7383,-430 1112.2022,-430"/>
<polygon fill="#000000" stroke="#000000" points="1112.4554,-433.5001 1122.4554,-430 1112.4553,-426.5001 1112.4554,-433.5001"/>
</g>
</g>
</svg>
