<?xml version="1.0" encoding="UTF-8" standalone="no"?>
<!DOCTYPE svg PUBLIC "-//W3C//DTD SVG 1.1//EN"
 "http://www.w3.org/Graphics/SVG/1.1/DTD/svg11.dtd">
<!-- Generated by graphviz version 2.40.1 (20161225.0304)
 -->
<!-- Title: scavenge Pages: 1 -->
<svg width="986pt" height="324pt"
 viewBox="0.00 0.00 985.87 324.00" xmlns="http://www.w3.org/2000/svg" xmlns:xlink="http://www.w3.org/1999/xlink">
<g id="graph0" class="graph" transform="scale(1 1) rotate(0) translate(4 320)">
<title>scavenge</title>
<polygon fill="#ffffff" stroke="transparent" points="-4,4 -4,-320 981.874,-320 981.874,4 -4,4"/>
<g id="clust1" class="cluster">
<title>cluster_mspan</title>
<path fill="none" stroke="#000000" d="M664.0186,-49C664.0186,-49 723.3223,-49 723.3223,-49 729.3223,-49 735.3223,-55 735.3223,-61 735.3223,-61 735.3223,-117 735.3223,-117 735.3223,-123 729.3223,-129 723.3223,-129 723.3223,-129 664.0186,-129 664.0186,-129 658.0186,-129 652.0186,-123 652.0186,-117 652.0186,-117 652.0186,-61 652.0186,-61 652.0186,-55 658.0186,-49 664.0186,-49"/>
<text text-anchor="middle" x="693.6704" y="-109" font-family="Times,serif" font-size="20.00" fill="#000000">mspan</text>
</g>
<g id="clust2" class="cluster">
<title>cluster_linux</title>
<path fill="none" stroke="#000000" d="M781.5498,-8C781.5498,-8 957.874,-8 957.874,-8 963.874,-8 969.874,-14 969.874,-20 969.874,-20 969.874,-120 969.874,-120 969.874,-126 963.874,-132 957.874,-132 957.874,-132 781.5498,-132 781.5498,-132 775.5498,-132 769.5498,-126 769.5498,-120 769.5498,-120 769.5498,-20 769.5498,-20 769.5498,-14 775.5498,-8 781.5498,-8"/>
<text text-anchor="middle" x="869.7119" y="-112" font-family="Times,serif" font-size="20.00" fill="#000000">linux</text>
</g>
<g id="clust3" class="cluster">
<title>cluster_syscall</title>
<path fill="none" stroke="#000000" d="M895.2188,-16C895.2188,-16 949.874,-16 949.874,-16 955.874,-16 961.874,-22 961.874,-28 961.874,-28 961.874,-84 961.874,-84 961.874,-90 955.874,-96 949.874,-96 949.874,-96 895.2188,-96 895.2188,-96 889.2188,-96 883.2188,-90 883.2188,-84 883.2188,-84 883.2188,-28 883.2188,-28 883.2188,-22 889.2188,-16 895.2188,-16"/>
<text text-anchor="middle" x="922.5464" y="-76" font-family="Times,serif" font-size="20.00" fill="#000000">syscall</text>
</g>
<g id="clust4" class="cluster">
<title>cluster_mheap</title>
<path fill="none" stroke="#000000" d="M116.8691,-140C116.8691,-140 838.8843,-140 838.8843,-140 844.8843,-140 850.8843,-146 850.8843,-152 850.8843,-152 850.8843,-296 850.8843,-296 850.8843,-302 844.8843,-308 838.8843,-308 838.8843,-308 116.8691,-308 116.8691,-308 110.8691,-308 104.8691,-302 104.8691,-296 104.8691,-296 104.8691,-152 104.8691,-152 104.8691,-146 110.8691,-140 116.8691,-140"/>
<text text-anchor="middle" x="477.8767" y="-288" font-family="Times,serif" font-size="20.00" fill="#000000">mheap</text>
</g>
<g id="clust6" class="cluster">
<title>cluster_debug</title>
<path fill="none" stroke="#000000" d="M121.5313,-52C121.5313,-52 217.3936,-52 217.3936,-52 223.3936,-52 229.3936,-58 229.3936,-64 229.3936,-64 229.3936,-120 229.3936,-120 229.3936,-126 223.3936,-132 217.3936,-132 217.3936,-132 121.5313,-132 121.5313,-132 115.5313,-132 109.5313,-126 109.5313,-120 109.5313,-120 109.5313,-64 109.5313,-64 109.5313,-58 115.5313,-52 121.5313,-52"/>
<text text-anchor="middle" x="169.4624" y="-112" font-family="Times,serif" font-size="20.00" fill="#000000">debug</text>
</g>
<!-- scavengeLocked -->
<g id="node1" class="node">
<title>scavengeLocked</title>
<polygon fill="none" stroke="#000000" points="474.415,-148.4001 474.415,-217.5999 609.791,-217.5999 609.791,-148.4001 474.415,-148.4001"/>
<text text-anchor="middle" x="542.103" y="-202.3999" font-family="Times,serif" font-size="14.00" fill="#000000">scavengeLocked</text>
<polyline fill="none" stroke="#000000" points="474.415,-195.5999 609.791,-195.5999 "/>
<text text-anchor="start" x="482.415" y="-180.3999" font-family="Times,serif" font-size="14.00" fill="#000000">遍历heap free page </text>
<text text-anchor="start" x="482.415" y="-160.8" font-family="Times,serif" font-size="14.00" fill="#000000"> 释放部分空闲pages</text>
</g>
<!-- scavenge -->
<g id="node4" class="node">
<title>scavenge</title>
<polygon fill="none" stroke="#000000" points="727.4748,-93 659.866,-93 659.866,-57 727.4748,-57 727.4748,-93"/>
<text text-anchor="middle" x="693.6704" y="-70.8" font-family="Times,serif" font-size="14.00" fill="#000000">scavenge</text>
</g>
<!-- scavengeLocked&#45;&gt;scavenge -->
<g id="edge6" class="edge">
<title>scavengeLocked&#45;&gt;scavenge</title>
<path fill="none" stroke="#000000" d="M590.8942,-148.2336C613.4592,-132.1548 639.6969,-113.459 660.014,-98.9821"/>
<polygon fill="#000000" stroke="#000000" points="662.2178,-101.7094 668.3308,-93.0559 658.1557,-96.0085 662.2178,-101.7094"/>
</g>
<!-- scavengeSplit -->
<g id="node9" class="node">
<title>scavengeSplit</title>
<polygon fill="none" stroke="#000000" points="740.4295,-201 646.9113,-201 646.9113,-165 740.4295,-165 740.4295,-201"/>
<text text-anchor="middle" x="693.6704" y="-178.8" font-family="Times,serif" font-size="14.00" fill="#000000">scavengeSplit</text>
</g>
<!-- scavengeLocked&#45;&gt;scavengeSplit -->
<g id="edge5" class="edge">
<title>scavengeLocked&#45;&gt;scavengeSplit</title>
<path fill="none" stroke="#000000" d="M609.9071,-183C618.858,-183 627.9591,-183 636.7034,-183"/>
<polygon fill="#000000" stroke="#000000" points="636.7742,-186.5001 646.7742,-183 636.7741,-179.5001 636.7742,-186.5001"/>
</g>
<!-- bgscavenge -->
<g id="node2" class="node">
<title>bgscavenge</title>
<ellipse fill="#f38181" stroke="#000000" cx="356.7354" cy="-62" rx="51.2259" ry="51.2259"/>
<ellipse fill="none" stroke="#000000" cx="356.7354" cy="-62" rx="55.2156" ry="55.2156"/>
<text text-anchor="middle" x="356.7354" y="-57.8" font-family="Times,serif" font-size="14.00" fill="#000000">bgscavenge</text>
</g>
<!-- bgscavenge&#45;&gt;scavengeLocked -->
<g id="edge10" class="edge">
<title>bgscavenge&#45;&gt;scavengeLocked</title>
<path fill="none" stroke="#000000" d="M403.5114,-92.5334C426.7293,-107.689 455.0891,-126.2011 480.0923,-142.5221"/>
<polygon fill="#000000" stroke="#000000" points="478.4953,-145.6593 488.7823,-148.1945 482.3216,-139.7975 478.4953,-145.6593"/>
</g>
<!-- scavengeAll -->
<g id="node3" class="node">
<title>scavengeAll</title>
<polygon fill="none" stroke="#000000" points="304.9854,-148.4001 304.9854,-217.5999 408.4854,-217.5999 408.4854,-148.4001 304.9854,-148.4001"/>
<text text-anchor="middle" x="356.7354" y="-202.3999" font-family="Times,serif" font-size="14.00" fill="#000000">scavengeAll</text>
<polyline fill="none" stroke="#000000" points="304.9854,-195.5999 408.4854,-195.5999 "/>
<text text-anchor="start" x="312.9854" y="-180.3999" font-family="Times,serif" font-size="14.00" fill="#000000">清理掉heap中</text>
<text text-anchor="start" x="312.9854" y="-160.8" font-family="Times,serif" font-size="14.00" fill="#000000"> 所有空闲内存</text>
</g>
<!-- scavengeAll&#45;&gt;scavengeLocked -->
<g id="edge2" class="edge">
<title>scavengeAll&#45;&gt;scavengeLocked</title>
<path fill="none" stroke="#000000" d="M408.8639,-183C425.9405,-183 445.305,-183 463.8757,-183"/>
<polygon fill="#000000" stroke="#000000" points="464.0915,-186.5001 474.0915,-183 464.0915,-179.5001 464.0915,-186.5001"/>
</g>
<!-- sysUnused -->
<g id="node6" class="node">
<title>sysUnused</title>
<polygon fill="none" stroke="#000000" points="854.0539,-82 777.7146,-82 777.7146,-46 854.0539,-46 854.0539,-82"/>
<text text-anchor="middle" x="815.8843" y="-59.8" font-family="Times,serif" font-size="14.00" fill="#000000">sysUnused</text>
</g>
<!-- scavenge&#45;&gt;sysUnused -->
<g id="edge12" class="edge">
<title>scavenge&#45;&gt;sysUnused</title>
<path fill="none" stroke="#000000" d="M727.3894,-71.9651C739.7758,-70.8502 754.0552,-69.565 767.4791,-68.3568"/>
<polygon fill="#000000" stroke="#000000" points="767.8861,-71.8344 777.532,-67.4519 767.2585,-64.8626 767.8861,-71.8344"/>
</g>
<!-- madvise -->
<g id="node5" class="node">
<title>madvise</title>
<polygon fill="none" stroke="#000000" points="953.7026,-60 891.3902,-60 891.3902,-24 953.7026,-24 953.7026,-60"/>
<text text-anchor="middle" x="922.5464" y="-37.8" font-family="Times,serif" font-size="14.00" fill="#000000">madvise</text>
</g>
<!-- sysUnused&#45;&gt;madvise -->
<g id="edge1" class="edge">
<title>sysUnused&#45;&gt;madvise</title>
<path fill="none" stroke="#000000" d="M854.0905,-56.1196C862.9505,-54.2922 872.4176,-52.3395 881.3979,-50.4872"/>
<polygon fill="#000000" stroke="#000000" points="882.1849,-53.8987 891.2717,-48.4507 880.7708,-47.043 882.1849,-53.8987"/>
</g>
<!-- allocSpanLocked -->
<g id="node7" class="node">
<title>allocSpanLocked</title>
<polygon fill="none" stroke="#000000" points="226.1491,-272 112.7757,-272 112.7757,-236 226.1491,-236 226.1491,-272"/>
<text text-anchor="middle" x="169.4624" y="-249.8" font-family="Times,serif" font-size="14.00" fill="#000000">allocSpanLocked</text>
</g>
<!-- scavengeIfNeededLocked -->
<g id="node8" class="node">
<title>scavengeIfNeededLocked</title>
<polygon fill="none" stroke="#000000" points="437.5951,-272 275.8756,-272 275.8756,-236 437.5951,-236 437.5951,-272"/>
<text text-anchor="middle" x="356.7354" y="-249.8" font-family="Times,serif" font-size="14.00" fill="#000000">scavengeIfNeededLocked</text>
</g>
<!-- allocSpanLocked&#45;&gt;scavengeIfNeededLocked -->
<g id="edge3" class="edge">
<title>allocSpanLocked&#45;&gt;scavengeIfNeededLocked</title>
<path fill="none" stroke="#000000" d="M226.1587,-254C238.6836,-254 252.2588,-254 265.7601,-254"/>
<polygon fill="#000000" stroke="#000000" points="266.0516,-257.5001 276.0516,-254 266.0516,-250.5001 266.0516,-257.5001"/>
</g>
<!-- scavengeIfNeededLocked&#45;&gt;scavengeLocked -->
<g id="edge4" class="edge">
<title>scavengeIfNeededLocked&#45;&gt;scavengeLocked</title>
<path fill="none" stroke="#000000" d="M412.4811,-235.9516C420.8733,-233.0593 429.3986,-230.0212 437.415,-227 446.315,-223.6459 455.5782,-219.9934 464.7519,-216.2741"/>
<polygon fill="#000000" stroke="#000000" points="466.3304,-219.4099 474.2603,-212.3837 463.6796,-212.9312 466.3304,-219.4099"/>
</g>
<!-- mutat -->
<g id="node10" class="node">
<title>mutat</title>
<polygon fill="none" stroke="#000000" points="842.8843,-201 788.8843,-201 788.8843,-165 842.8843,-165 842.8843,-201"/>
<text text-anchor="middle" x="815.8843" y="-178.8" font-family="Times,serif" font-size="14.00" fill="#000000">mutat</text>
</g>
<!-- scavengeSplit&#45;&gt;mutat -->
<g id="edge7" class="edge">
<title>scavengeSplit&#45;&gt;mutat</title>
<path fill="none" stroke="#000000" d="M740.572,-183C753.1713,-183 766.6236,-183 778.6215,-183"/>
<polygon fill="#000000" stroke="#000000" points="778.7326,-186.5001 788.7326,-183 778.7326,-179.5001 778.7326,-186.5001"/>
</g>
<!-- proc_main -->
<g id="node11" class="node">
<title>proc_main</title>
<polygon fill="none" stroke="#000000" points="75.8038,-42 .0653,-42 .0653,-6 75.8038,-6 75.8038,-42"/>
<text text-anchor="middle" x="37.9346" y="-19.8" font-family="Times,serif" font-size="14.00" fill="#000000">proc_main</text>
</g>
<!-- gcenable -->
<g id="node12" class="node">
<title>gcenable</title>
<polygon fill="none" stroke="#000000" points="202.208,-42 136.7168,-42 136.7168,-6 202.208,-6 202.208,-42"/>
<text text-anchor="middle" x="169.4624" y="-19.8" font-family="Times,serif" font-size="14.00" fill="#000000">gcenable</text>
</g>
<!-- proc_main&#45;&gt;gcenable -->
<g id="edge8" class="edge">
<title>proc_main&#45;&gt;gcenable</title>
<path fill="none" stroke="#000000" d="M75.9779,-24C91.6615,-24 109.9198,-24 126.1171,-24"/>
<polygon fill="#000000" stroke="#000000" points="126.4157,-27.5001 136.4156,-24 126.4156,-20.5001 126.4157,-27.5001"/>
</g>
<!-- gcenable&#45;&gt;bgscavenge -->
<g id="edge9" class="edge">
<title>gcenable&#45;&gt;bgscavenge</title>
<path fill="none" stroke="#000000" d="M202.512,-30.7062C227.3234,-35.7407 262.0809,-42.7934 292.3198,-48.9293"/>
<polygon fill="#000000" stroke="#000000" points="291.8843,-52.4122 302.3806,-50.9707 293.2764,-45.552 291.8843,-52.4122"/>
<text text-anchor="middle" x="251.0557" y="-43.8" font-family="Times,serif" font-size="14.00" fill="#000000">go</text>
</g>
<!-- freeOSMemory -->
<g id="node13" class="node">
<title>freeOSMemory</title>
<polygon fill="none" stroke="#000000" points="221.3248,-96 117.6,-96 117.6,-60 221.3248,-60 221.3248,-96"/>
<text text-anchor="middle" x="169.4624" y="-73.8" font-family="Times,serif" font-size="14.00" fill="#000000">freeOSMemory</text>
</g>
<!-- freeOSMemory&#45;&gt;scavengeAll -->
<g id="edge11" class="edge">
<title>freeOSMemory&#45;&gt;scavengeAll</title>
<path fill="none" stroke="#000000" d="M201.6558,-96.0501C227.4503,-110.5126 264.3824,-131.2196 295.7349,-148.7984"/>
<polygon fill="#000000" stroke="#000000" points="294.4062,-152.0659 304.8404,-153.9036 297.8296,-145.9601 294.4062,-152.0659"/>
</g>
</g>
</svg>
