<?xml version="1.0" encoding="UTF-8" standalone="no"?>
<!DOCTYPE svg PUBLIC "-//W3C//DTD SVG 1.1//EN"
 "http://www.w3.org/Graphics/SVG/1.1/DTD/svg11.dtd">
<!-- Generated by graphviz version 2.40.1 (20161225.0304)
 -->
<!-- Title: filter_policy Pages: 1 -->
<svg width="1811pt" height="937pt"
 viewBox="0.00 0.00 1810.84 937.00" xmlns="http://www.w3.org/2000/svg" xmlns:xlink="http://www.w3.org/1999/xlink">
<g id="graph0" class="graph" transform="scale(1 1) rotate(0) translate(4 933)">
<title>filter_policy</title>
<polygon fill="#ffffff" stroke="transparent" points="-4,4 -4,-933 1806.8359,-933 1806.8359,4 -4,4"/>
<g id="clust1" class="cluster">
<title>cluster_BloomPolicy</title>
<path fill="none" stroke="#000000" d="M1020.4482,-543C1020.4482,-543 1772.0254,-543 1772.0254,-543 1778.0254,-543 1784.0254,-549 1784.0254,-555 1784.0254,-555 1784.0254,-751 1784.0254,-751 1784.0254,-757 1778.0254,-763 1772.0254,-763 1772.0254,-763 1020.4482,-763 1020.4482,-763 1014.4482,-763 1008.4482,-757 1008.4482,-751 1008.4482,-751 1008.4482,-555 1008.4482,-555 1008.4482,-549 1014.4482,-543 1020.4482,-543"/>
<text text-anchor="middle" x="1396.2368" y="-743" font-family="Times,serif" font-size="20.00" fill="#000000">BloomPolicy</text>
</g>
<g id="clust4" class="cluster">
<title>cluster_FilterBlockBuilder</title>
<path fill="none" stroke="#000000" d="M232.5933,-8C232.5933,-8 1339.6851,-8 1339.6851,-8 1345.6851,-8 1351.6851,-14 1351.6851,-20 1351.6851,-20 1351.6851,-257 1351.6851,-257 1351.6851,-263 1345.6851,-269 1339.6851,-269 1339.6851,-269 232.5933,-269 232.5933,-269 226.5933,-269 220.5933,-263 220.5933,-257 220.5933,-257 220.5933,-20 220.5933,-20 220.5933,-14 226.5933,-8 232.5933,-8"/>
<text text-anchor="middle" x="786.1392" y="-249" font-family="Times,serif" font-size="20.00" fill="#000000">FilterBlockBuilder</text>
</g>
<g id="clust10" class="cluster">
<title>cluster_FilterBlockReader</title>
<path fill="none" stroke="#000000" d="M405.145,-733C405.145,-733 976.4482,-733 976.4482,-733 982.4482,-733 988.4482,-739 988.4482,-745 988.4482,-745 988.4482,-909 988.4482,-909 988.4482,-915 982.4482,-921 976.4482,-921 976.4482,-921 405.145,-921 405.145,-921 399.145,-921 393.145,-915 393.145,-909 393.145,-909 393.145,-745 393.145,-745 393.145,-739 399.145,-733 405.145,-733"/>
<text text-anchor="middle" x="690.7966" y="-901" font-family="Times,serif" font-size="20.00" fill="#000000">FilterBlockReader</text>
</g>
<g id="clust13" class="cluster">
<title>cluster_TableBuilder</title>
<path fill="none" stroke="#000000" d="M20,-277C20,-277 1626.3252,-277 1626.3252,-277 1632.3252,-277 1638.3252,-283 1638.3252,-289 1638.3252,-289 1638.3252,-455 1638.3252,-455 1638.3252,-461 1632.3252,-467 1626.3252,-467 1626.3252,-467 20,-467 20,-467 14,-467 8,-461 8,-455 8,-455 8,-289 8,-289 8,-283 14,-277 20,-277"/>
<text text-anchor="middle" x="823.1626" y="-447" font-family="Times,serif" font-size="20.00" fill="#000000">TableBuilder</text>
</g>
<g id="clust15" class="cluster">
<title>cluster_Table</title>
<path fill="none" stroke="#000000" d="M192.5381,-631C192.5381,-631 673.1387,-631 673.1387,-631 679.1387,-631 685.1387,-637 685.1387,-643 685.1387,-643 685.1387,-713 685.1387,-713 685.1387,-719 679.1387,-725 673.1387,-725 673.1387,-725 192.5381,-725 192.5381,-725 186.5381,-725 180.5381,-719 180.5381,-713 180.5381,-713 180.5381,-643 180.5381,-643 180.5381,-637 186.5381,-631 192.5381,-631"/>
<text text-anchor="middle" x="432.8384" y="-705" font-family="Times,serif" font-size="20.00" fill="#000000">Table</text>
</g>
<g id="clust17" class="cluster">
<title>cluster_TableCache</title>
<path fill="none" stroke="#000000" d="M410.3096,-543C410.3096,-543 511.3945,-543 511.3945,-543 517.3945,-543 523.3945,-549 523.3945,-555 523.3945,-555 523.3945,-611 523.3945,-611 523.3945,-617 517.3945,-623 511.3945,-623 511.3945,-623 410.3096,-623 410.3096,-623 404.3096,-623 398.3096,-617 398.3096,-611 398.3096,-611 398.3096,-555 398.3096,-555 398.3096,-549 404.3096,-543 410.3096,-543"/>
<text text-anchor="middle" x="460.8521" y="-603" font-family="Times,serif" font-size="20.00" fill="#000000">TableCache</text>
</g>
<!-- SSTable -->
<g id="node1" class="node">
<title>SSTable</title>
<polygon fill="none" stroke="#000000" points="1666.3252,-303 1666.3252,-501 1802.8359,-501 1802.8359,-303 1666.3252,-303"/>
<text text-anchor="middle" x="1734.5806" y="-485.8" font-family="Times,serif" font-size="14.00" fill="#000000">SSTable</text>
<polyline fill="none" stroke="#000000" points="1666.3252,-479 1802.8359,-479 "/>
<text text-anchor="start" x="1674.3252" y="-463.8" font-family="Times,serif" font-size="14.00" fill="#000000">DataBlock</text>
<polyline fill="none" stroke="#000000" points="1666.3252,-457 1802.8359,-457 "/>
<text text-anchor="start" x="1674.3252" y="-441.8" font-family="Times,serif" font-size="14.00" fill="#000000">... DataBlock</text>
<polyline fill="none" stroke="#000000" points="1666.3252,-435 1802.8359,-435 "/>
<text text-anchor="start" x="1674.3252" y="-419.8" font-family="Times,serif" font-size="14.00" fill="#000000">MetaDataBlock</text>
<polyline fill="none" stroke="#000000" points="1666.3252,-413 1802.8359,-413 "/>
<text text-anchor="start" x="1674.3252" y="-397.8" font-family="Times,serif" font-size="14.00" fill="#000000">...</text>
<polyline fill="none" stroke="#000000" points="1666.3252,-391 1802.8359,-391 "/>
<text text-anchor="start" x="1674.3252" y="-375.8" font-family="Times,serif" font-size="14.00" fill="#000000">MetaDataBlock</text>
<polyline fill="none" stroke="#000000" points="1666.3252,-369 1802.8359,-369 "/>
<text text-anchor="start" x="1674.3252" y="-353.8" font-family="Times,serif" font-size="14.00" fill="#000000">MetaDataIndexBlock</text>
<polyline fill="none" stroke="#000000" points="1666.3252,-347 1802.8359,-347 "/>
<text text-anchor="start" x="1674.3252" y="-331.8" font-family="Times,serif" font-size="14.00" fill="#000000">DataIndexBlock</text>
<polyline fill="none" stroke="#000000" points="1666.3252,-325 1802.8359,-325 "/>
<text text-anchor="start" x="1674.3252" y="-309.8" font-family="Times,serif" font-size="14.00" fill="#000000">Footer</text>
</g>
<!-- FilterPolicy -->
<g id="node2" class="node">
<title>FilterPolicy</title>
<polygon fill="none" stroke="#000000" points="1016.4482,-570 1016.4482,-672 1457.4111,-672 1457.4111,-570 1016.4482,-570"/>
<text text-anchor="middle" x="1236.9297" y="-656.8" font-family="Times,serif" font-size="14.00" fill="#000000">FilterPolicy</text>
<polyline fill="none" stroke="#000000" points="1016.4482,-650 1457.4111,-650 "/>
<text text-anchor="start" x="1024.4482" y="-634.8" font-family="Times,serif" font-size="14.00" fill="#000000">virtual const char* Name() const = 0;</text>
<polyline fill="none" stroke="#000000" points="1016.4482,-628 1457.4111,-628 "/>
<text text-anchor="start" x="1024.4482" y="-612.8" font-family="Times,serif" font-size="14.00" fill="#000000">virtual void CreateFilter(const Slice* keys, int n,</text>
<text text-anchor="start" x="1024.4482" y="-598.8" font-family="Times,serif" font-size="14.00" fill="#000000"> std::string* dst) const = 0;</text>
<polyline fill="none" stroke="#000000" points="1016.4482,-592 1457.4111,-592 "/>
<text text-anchor="start" x="1024.4482" y="-576.8" font-family="Times,serif" font-size="14.00" fill="#000000">virtual bool KeyMayMatch(const Slice&amp; key, const Slice&amp; filter) const = 0;</text>
</g>
<!-- BloomFilterPolicy -->
<g id="node3" class="node">
<title>BloomFilterPolicy</title>
<polygon fill="none" stroke="#000000" points="1496.1318,-660 1496.1318,-726 1627.6045,-726 1627.6045,-660 1496.1318,-660"/>
<text text-anchor="middle" x="1561.8682" y="-710.8" font-family="Times,serif" font-size="14.00" fill="#000000">BloomFilterPolicy</text>
<polyline fill="none" stroke="#000000" points="1496.1318,-704 1627.6045,-704 "/>
<text text-anchor="start" x="1504.1318" y="-688.8" font-family="Times,serif" font-size="14.00" fill="#000000">size_t bits_per_key_</text>
<polyline fill="none" stroke="#000000" points="1496.1318,-682 1627.6045,-682 "/>
<text text-anchor="start" x="1504.1318" y="-666.8" font-family="Times,serif" font-size="14.00" fill="#000000">size_t k_</text>
</g>
<!-- FilterPolicy&#45;&gt;BloomFilterPolicy -->
<g id="edge1" class="edge">
<title>FilterPolicy&#45;&gt;BloomFilterPolicy</title>
<path fill="none" stroke="#000000" d="M1457.7148,-669.9217C1467.5476,-672.1004 1477.0518,-674.2064 1486.0543,-676.2011"/>
<polygon fill="#000000" stroke="#000000" points="1485.4754,-679.6577 1495.9958,-678.404 1486.9898,-672.8235 1485.4754,-679.6577"/>
</g>
<!-- CreateFilter -->
<g id="node4" class="node">
<title>CreateFilter</title>
<polygon fill="none" stroke="#000000" points="1603.2306,-641 1520.5057,-641 1520.5057,-605 1603.2306,-605 1603.2306,-641"/>
<text text-anchor="middle" x="1561.8682" y="-618.8" font-family="Times,serif" font-size="14.00" fill="#000000">CreateFilter</text>
</g>
<!-- FilterPolicy&#45;&gt;CreateFilter -->
<g id="edge2" class="edge">
<title>FilterPolicy:CreateFilter&#45;&gt;CreateFilter</title>
<path fill="none" stroke="#000000" d="M1456.9297,-610C1474.3366,-610 1493.2452,-611.7835 1510.1551,-614.0292"/>
<polygon fill="#000000" stroke="#000000" points="1510.0031,-617.5424 1520.3944,-615.4755 1510.9822,-610.6112 1510.0031,-617.5424"/>
</g>
<!-- KeyMayMatch -->
<g id="node5" class="node">
<title>KeyMayMatch</title>
<polygon fill="none" stroke="#000000" points="1612.1204,-587 1511.6159,-587 1511.6159,-551 1612.1204,-551 1612.1204,-587"/>
<text text-anchor="middle" x="1561.8682" y="-564.8" font-family="Times,serif" font-size="14.00" fill="#000000">KeyMayMatch</text>
</g>
<!-- FilterPolicy&#45;&gt;KeyMayMatch -->
<g id="edge3" class="edge">
<title>FilterPolicy:KeyMayMatch&#45;&gt;KeyMayMatch</title>
<path fill="none" stroke="#000000" d="M1456.9297,-581C1471.3165,-581 1486.7414,-579.8729 1501.2168,-578.3095"/>
<polygon fill="#000000" stroke="#000000" points="1502.0333,-581.7381 1511.5609,-577.1039 1501.2229,-574.7852 1502.0333,-581.7381"/>
</g>
<!-- BloomHash -->
<g id="node6" class="node">
<title>BloomHash</title>
<polygon fill="none" stroke="#000000" points="1775.9703,-614 1693.1908,-614 1693.1908,-578 1775.9703,-578 1775.9703,-614"/>
<text text-anchor="middle" x="1734.5806" y="-591.8" font-family="Times,serif" font-size="14.00" fill="#000000">BloomHash</text>
</g>
<!-- CreateFilter&#45;&gt;BloomHash -->
<g id="edge4" class="edge">
<title>CreateFilter&#45;&gt;BloomHash</title>
<path fill="none" stroke="#000000" d="M1603.2371,-616.5328C1627.0945,-612.8032 1657.3076,-608.08 1682.7399,-604.1042"/>
<polygon fill="#000000" stroke="#000000" points="1683.6112,-607.5106 1692.9506,-602.508 1682.53,-600.5946 1683.6112,-607.5106"/>
</g>
<!-- KeyMayMatch&#45;&gt;BloomHash -->
<g id="edge5" class="edge">
<title>KeyMayMatch&#45;&gt;BloomHash</title>
<path fill="none" stroke="#000000" d="M1612.288,-576.8821C1634.5646,-580.3646 1660.7244,-584.4541 1683.1198,-587.9552"/>
<polygon fill="#000000" stroke="#000000" points="1682.6966,-591.4315 1693.1172,-589.5181 1683.7779,-584.5155 1682.6966,-591.4315"/>
</g>
<!-- keys_ -->
<g id="node7" class="node">
<title>keys_</title>
<polygon fill="#95e1d3" stroke="#000000" points="393.7451,-107.2 393.7451,-178.8 527.959,-178.8 527.959,-107.2 393.7451,-107.2"/>
<text text-anchor="middle" x="460.8521" y="-163.6" font-family="Times,serif" font-size="14.00" fill="#000000">keys_</text>
<polyline fill="none" stroke="#000000" points="393.7451,-156.8 527.959,-156.8 "/>
<text text-anchor="start" x="401.7451" y="-141.6" font-family="Times,serif" font-size="14.00" fill="#000000">所有key拼接在一起</text>
<polyline fill="none" stroke="#000000" points="393.7451,-129.2 527.959,-129.2 "/>
<text text-anchor="start" x="401.7451" y="-114" font-family="Times,serif" font-size="14.00" fill="#000000">std::string keys_;</text>
</g>
<!-- GenerateFilter -->
<g id="node13" class="node">
<title>GenerateFilter</title>
<polygon fill="none" stroke="#000000" points="685.6149,-161 588.9174,-161 588.9174,-125 685.6149,-125 685.6149,-161"/>
<text text-anchor="middle" x="637.2661" y="-138.8" font-family="Times,serif" font-size="14.00" fill="#000000">GenerateFilter</text>
</g>
<!-- keys_&#45;&gt;GenerateFilter -->
<g id="edge15" class="edge">
<title>keys_&#45;&gt;GenerateFilter</title>
<path fill="none" stroke="#c0c0c0" stroke-dasharray="5,2" d="M528.0499,-143C544.664,-143 562.334,-143 578.5109,-143"/>
<polygon fill="#c0c0c0" stroke="#c0c0c0" points="578.8998,-146.5001 588.8998,-143 578.8998,-139.5001 578.8998,-146.5001"/>
</g>
<!-- start_ -->
<g id="node8" class="node">
<title>start_</title>
<polygon fill="#95e1d3" stroke="#000000" points="368.8623,-16.2 368.8623,-87.8 552.8418,-87.8 552.8418,-16.2 368.8623,-16.2"/>
<text text-anchor="middle" x="460.8521" y="-72.6" font-family="Times,serif" font-size="14.00" fill="#000000">start_</text>
<polyline fill="none" stroke="#000000" points="368.8623,-65.8 552.8418,-65.8 "/>
<text text-anchor="start" x="376.8623" y="-50.6" font-family="Times,serif" font-size="14.00" fill="#000000">keys_中每个key开始的index</text>
<polyline fill="none" stroke="#000000" points="368.8623,-38.2 552.8418,-38.2 "/>
<text text-anchor="start" x="376.8623" y="-23" font-family="Times,serif" font-size="14.00" fill="#000000">std::vector&lt;size_t&gt; start_;</text>
</g>
<!-- filter_offsets_ -->
<g id="node10" class="node">
<title>filter_offsets_</title>
<polygon fill="#95e1d3" stroke="#000000" points="856.8825,-87.0493 860.7313,-87.1479 864.5403,-87.2953 868.294,-87.4913 871.9771,-87.7353 875.5748,-88.0266 879.0731,-88.3645 882.4582,-88.7479 885.7173,-89.1759 888.8383,-89.6472 891.8099,-90.1606 894.6218,-90.7147 897.2647,-91.308 899.7302,-91.9388 902.0109,-92.6054 904.1007,-93.3059 905.9942,-94.0385 907.6876,-94.8012 909.1777,-95.5918 910.4627,-96.4082 911.5418,-97.2481 912.4152,-98.1093 913.0841,-98.9894 913.5506,-99.886 913.8178,-100.7965 913.8898,-101.7186 913.771,-102.6497 913.4671,-103.5873 912.9842,-104.5287 912.3288,-105.4713 911.5082,-106.4127 910.53,-107.3503 909.4022,-108.2814 908.1329,-109.2035 906.7305,-110.114 905.2036,-111.0106 903.5607,-111.8907 901.8103,-112.7519 899.9607,-113.5918 898.0203,-114.4082 895.9971,-115.1988 893.8987,-115.9615 891.7326,-116.6941 889.5059,-117.3946 887.2251,-118.0612 884.8967,-118.692 882.5263,-119.2853 880.1194,-119.8394 877.6809,-120.3528 875.2153,-120.8241 872.7266,-121.2521 870.2185,-121.6355 867.6944,-121.9734 865.157,-122.2647 862.609,-122.5087 860.0528,-122.7047 857.4903,-122.8521 854.9236,-122.9507 852.3544,-123 849.7843,-123 847.2151,-122.9507 844.6483,-122.8521 842.0859,-122.7047 839.5297,-122.5087 836.9817,-122.2647 834.4443,-121.9734 831.9201,-121.6355 829.4121,-121.2521 826.9234,-120.8241 824.4578,-120.3528 822.0193,-119.8394 819.6124,-119.2853 817.242,-118.692 814.9135,-118.0612 812.6328,-117.3946 810.4061,-116.6941 808.24,-115.9615 806.1416,-115.1988 804.1183,-114.4082 802.1779,-113.5918 800.3284,-112.7519 798.578,-111.8907 796.9351,-111.0106 795.4081,-110.114 794.0058,-109.2035 792.7365,-108.2814 791.6086,-107.3503 790.6304,-106.4127 789.8099,-105.4713 789.1545,-104.5287 788.6715,-103.5873 788.3676,-102.6497 788.2489,-101.7186 788.3208,-100.7965 788.5881,-99.886 789.0546,-98.9894 789.7234,-98.1093 790.5968,-97.2481 791.6759,-96.4082 792.961,-95.5918 794.4511,-94.8012 796.1444,-94.0385 798.038,-93.3059 800.1278,-92.6054 802.4085,-91.9388 804.8739,-91.308 807.5168,-90.7147 810.3288,-90.1606 813.3004,-89.6472 816.4214,-89.1759 819.6805,-88.7479 823.0656,-88.3645 826.5638,-88.0266 830.1616,-87.7353 833.8447,-87.4913 837.5983,-87.2953 841.4073,-87.1479 845.2562,-87.0493 849.1289,-87 853.0097,-87 856.8825,-87.0493"/>
<text text-anchor="middle" x="851.0693" y="-100.8" font-family="Times,serif" font-size="14.00" fill="#000000">filter_offsets_</text>
</g>
<!-- start_&#45;&gt;filter_offsets_ -->
<g id="edge19" class="edge">
<title>start_&#45;&gt;filter_offsets_</title>
<path fill="none" stroke="#c0c0c0" stroke-dasharray="5,2" d="M553.3281,-64.5603C623.0697,-74.0327 717.2691,-86.827 780.8871,-95.4677"/>
<polygon fill="#c0c0c0" stroke="#c0c0c0" points="780.4463,-98.9399 790.8264,-96.8177 781.3885,-92.0036 780.4463,-98.9399"/>
</g>
<!-- start_&#45;&gt;GenerateFilter -->
<g id="edge16" class="edge">
<title>start_&#45;&gt;GenerateFilter</title>
<path fill="none" stroke="#c0c0c0" stroke-dasharray="5,2" d="M533.2525,-87.9824C539.887,-91.3465 546.4957,-94.7227 552.8418,-98 566.5108,-105.0591 581.3406,-112.901 594.7017,-120.0351"/>
<polygon fill="#c0c0c0" stroke="#c0c0c0" points="593.2165,-123.2099 603.6848,-124.8427 596.5195,-117.0382 593.2165,-123.2099"/>
</g>
<!-- result_ -->
<g id="node9" class="node">
<title>result_</title>
<polygon fill="#95e1d3" stroke="#000000" points="779.6899,-161.2 779.6899,-232.8 922.4487,-232.8 922.4487,-161.2 779.6899,-161.2"/>
<text text-anchor="middle" x="851.0693" y="-217.6" font-family="Times,serif" font-size="14.00" fill="#000000">result_</text>
<polyline fill="none" stroke="#000000" points="779.6899,-210.8 922.4487,-210.8 "/>
<text text-anchor="start" x="787.6899" y="-195.6" font-family="Times,serif" font-size="14.00" fill="#000000">目前计算的FilterData</text>
<polyline fill="none" stroke="#000000" points="779.6899,-183.2 922.4487,-183.2 "/>
<text text-anchor="start" x="787.6899" y="-168" font-family="Times,serif" font-size="14.00" fill="#000000">std::string result_</text>
</g>
<!-- FilterBlockBuilder_Finish -->
<g id="node11" class="node">
<title>FilterBlockBuilder_Finish</title>
<polygon fill="none" stroke="#000000" points="1130.1743,-120.6001 1130.1743,-209.3999 1343.6851,-209.3999 1343.6851,-120.6001 1130.1743,-120.6001"/>
<text text-anchor="start" x="1138.1743" y="-194.1999" font-family="Times,serif" font-size="14.00" fill="#000000">Finish</text>
<polyline fill="none" stroke="#000000" points="1130.1743,-187.3999 1343.6851,-187.3999 "/>
<text text-anchor="start" x="1138.1743" y="-172.1999" font-family="Times,serif" font-size="14.00" fill="#000000">返回生成的filter数据</text>
<text text-anchor="start" x="1138.1743" y="-152.6" font-family="Times,serif" font-size="14.00" fill="#000000"> 1.先调用GeneraterFilter生成数据</text>
<text text-anchor="start" x="1138.1743" y="-133" font-family="Times,serif" font-size="14.00" fill="#000000"> 2.写入filter_offsets_</text>
</g>
<!-- result_&#45;&gt;FilterBlockBuilder_Finish -->
<g id="edge17" class="edge">
<title>result_&#45;&gt;FilterBlockBuilder_Finish</title>
<path fill="none" stroke="#c0c0c0" stroke-dasharray="5,2" d="M922.7424,-191.056C977.9787,-186.4752 1055.5154,-180.045 1119.7405,-174.7187"/>
<polygon fill="#c0c0c0" stroke="#c0c0c0" points="1120.252,-178.1884 1129.9285,-173.8738 1119.6734,-171.2123 1120.252,-178.1884"/>
</g>
<!-- WriteRawBlock -->
<g id="node16" class="node">
<title>WriteRawBlock</title>
<polygon fill="none" stroke="#000000" points="1172.1572,-311.2 1172.1572,-360.8 1301.7021,-360.8 1301.7021,-311.2 1172.1572,-311.2"/>
<text text-anchor="middle" x="1236.9297" y="-345.6" font-family="Times,serif" font-size="14.00" fill="#000000">WriteRawBlock</text>
<polyline fill="none" stroke="#000000" points="1172.1572,-338.8 1301.7021,-338.8 "/>
<text text-anchor="start" x="1180.1572" y="-323.6" font-family="Times,serif" font-size="14.00" fill="#000000">写入filterblock数据</text>
</g>
<!-- result_&#45;&gt;WriteRawBlock -->
<g id="edge20" class="edge">
<title>result_&#45;&gt;WriteRawBlock</title>
<path fill="none" stroke="#c0c0c0" stroke-dasharray="5,2" d="M918.4506,-232.8542C945.8813,-246.5702 978.1996,-261.6328 1008.4482,-273 1058.6862,-291.8791 1117.0421,-307.8743 1162.203,-319.0237"/>
<polygon fill="#c0c0c0" stroke="#c0c0c0" points="1161.3775,-322.4248 1171.9225,-321.3989 1163.0393,-315.6249 1161.3775,-322.4248"/>
</g>
<!-- filter_offsets_&#45;&gt;FilterBlockBuilder_Finish -->
<g id="edge18" class="edge">
<title>filter_offsets_&#45;&gt;FilterBlockBuilder_Finish</title>
<path fill="none" stroke="#c0c0c0" stroke-dasharray="5,2" d="M901.9106,-112.9057C957.0278,-121.4762 1046.8629,-135.4453 1119.6381,-146.7616"/>
<polygon fill="#c0c0c0" stroke="#c0c0c0" points="1119.3694,-150.2617 1129.7884,-148.3399 1120.445,-143.3449 1119.3694,-150.2617"/>
</g>
<!-- FilterBlockBuilder_Finish&#45;&gt;GenerateFilter -->
<g id="edge6" class="edge">
<title>FilterBlockBuilder_Finish&#45;&gt;GenerateFilter</title>
<path fill="none" stroke="#000000" d="M1129.9396,-158.7771C1086.0985,-156.3901 1034.851,-153.8081 988.4482,-152 885.7014,-147.9964 765.9725,-145.3626 696.1929,-144.0309"/>
<polygon fill="#000000" stroke="#000000" points="695.9147,-140.5251 685.8505,-143.8361 695.7828,-147.5239 695.9147,-140.5251"/>
</g>
<!-- FilterBlockBuilder_AddKey -->
<g id="node12" class="node">
<title>FilterBlockBuilder_AddKey</title>
<polygon fill="none" stroke="#000000" points="228.5933,-125 228.5933,-161 292.0278,-161 292.0278,-125 228.5933,-125"/>
<text text-anchor="middle" x="260.3105" y="-138.8" font-family="Times,serif" font-size="14.00" fill="#000000">AddKey</text>
</g>
<!-- FilterBlockBuilder_AddKey&#45;&gt;keys_ -->
<g id="edge13" class="edge">
<title>FilterBlockBuilder_AddKey&#45;&gt;keys_</title>
<path fill="none" stroke="#000000" d="M292.0869,-143C316.6029,-143 351.5829,-143 383.3455,-143"/>
<polygon fill="#000000" stroke="#000000" points="383.5277,-146.5001 393.5277,-143 383.5276,-139.5001 383.5277,-146.5001"/>
</g>
<!-- FilterBlockBuilder_AddKey&#45;&gt;start_ -->
<g id="edge14" class="edge">
<title>FilterBlockBuilder_AddKey&#45;&gt;start_</title>
<path fill="none" stroke="#000000" d="M292.0869,-128.5808C313.8125,-118.7224 343.7555,-105.135 372.3949,-92.1393"/>
<polygon fill="#000000" stroke="#000000" points="373.9754,-95.2657 381.6355,-87.9462 371.0829,-88.8912 373.9754,-95.2657"/>
</g>
<!-- GenerateFilter&#45;&gt;FilterPolicy -->
<g id="edge7" class="edge">
<title>GenerateFilter&#45;&gt;FilterPolicy</title>
<path fill="none" stroke="#000000" d="M663.2035,-161.1727C671.7425,-168.5084 680.3966,-177.6881 685.6904,-188 743.596,-300.7962 639.331,-374.5999 721.6904,-471 791.8971,-553.1755 904.2842,-591.6765 1006.2038,-609.2111"/>
<polygon fill="#000000" stroke="#000000" points="1005.9108,-612.7102 1016.3487,-610.8939 1007.0563,-605.8046 1005.9108,-612.7102"/>
</g>
<!-- GenerateFilter&#45;&gt;result_ -->
<g id="edge8" class="edge">
<title>GenerateFilter&#45;&gt;result_</title>
<path fill="none" stroke="#000000" d="M685.7814,-155.2534C710.5788,-161.5165 741.4224,-169.3066 769.7266,-176.4554"/>
<polygon fill="#000000" stroke="#000000" points="769.0656,-179.8983 779.6182,-178.9537 770.7798,-173.1114 769.0656,-179.8983"/>
</g>
<!-- GenerateFilter&#45;&gt;filter_offsets_ -->
<g id="edge9" class="edge">
<title>GenerateFilter&#45;&gt;filter_offsets_</title>
<path fill="none" stroke="#000000" d="M685.7814,-134.3772C717.2679,-128.781 758.5026,-121.4522 791.9092,-115.5147"/>
<polygon fill="#000000" stroke="#000000" points="792.7728,-118.9162 802.006,-113.7202 791.5478,-112.0242 792.7728,-118.9162"/>
</g>
<!-- StartBlock -->
<g id="node14" class="node">
<title>StartBlock</title>
<polygon fill="none" stroke="#000000" points="498.735,-233 422.9691,-233 422.9691,-197 498.735,-197 498.735,-233"/>
<text text-anchor="middle" x="460.8521" y="-210.8" font-family="Times,serif" font-size="14.00" fill="#000000">StartBlock</text>
</g>
<!-- StartBlock&#45;&gt;filter_offsets_ -->
<g id="edge10" class="edge">
<title>StartBlock&#45;&gt;filter_offsets_</title>
<path fill="none" stroke="#000000" d="M499.0902,-210.9029C517.0521,-207.3178 537.7738,-200.5971 552.8418,-188 580.2902,-165.0526 558.8089,-135.4429 588.8418,-116 648.4695,-77.3978 732.715,-81.7299 789.4857,-91.0213"/>
<polygon fill="#000000" stroke="#000000" points="788.9522,-94.4809 799.4031,-92.7403 790.1478,-87.5838 788.9522,-94.4809"/>
</g>
<!-- StartBlock&#45;&gt;GenerateFilter -->
<g id="edge11" class="edge">
<title>StartBlock&#45;&gt;GenerateFilter</title>
<path fill="none" stroke="#000000" d="M499.0439,-205.6701C515.8185,-201.0946 535.5832,-195.0459 552.8418,-188 568.1047,-181.7688 584.2236,-173.6047 598.2402,-165.9433"/>
<polygon fill="#000000" stroke="#000000" points="600.0789,-168.9256 607.1174,-161.0066 596.6768,-162.808 600.0789,-168.9256"/>
</g>
<!-- kFilterBase -->
<g id="node15" class="node">
<title>kFilterBase</title>
<polygon fill="none" stroke="#000000" points="677.3123,-233 597.2199,-233 597.2199,-197 677.3123,-197 677.3123,-233"/>
<text text-anchor="middle" x="637.2661" y="-210.8" font-family="Times,serif" font-size="14.00" fill="#000000">kFilterBase</text>
</g>
<!-- StartBlock&#45;&gt;kFilterBase -->
<g id="edge12" class="edge">
<title>StartBlock&#45;&gt;kFilterBase</title>
<path fill="none" stroke="#000000" d="M499.1313,-215C524.7408,-215 558.7225,-215 586.5725,-215"/>
<polygon fill="#000000" stroke="#000000" points="586.9159,-218.5001 596.9159,-215 586.9158,-211.5001 586.9159,-218.5001"/>
</g>
<!-- WriteRawBlock&#45;&gt;SSTable -->
<g id="edge21" class="edge">
<title>WriteRawBlock&#45;&gt;SSTable:MetaDataBlock</title>
<path fill="none" stroke="#000000" d="M1301.9579,-357.8659C1383.268,-383.2665 1527.4903,-421.9741 1656.5278,-423.9234"/>
<polygon fill="#000000" stroke="#000000" points="1656.5541,-427.4236 1666.5806,-424 1656.6076,-420.4238 1656.5541,-427.4236"/>
</g>
<!-- WriteBlock -->
<g id="node17" class="node">
<title>WriteBlock</title>
<polygon fill="none" stroke="#000000" points="1493.4111,-333.2 1493.4111,-382.8 1630.3252,-382.8 1630.3252,-333.2 1493.4111,-333.2"/>
<text text-anchor="middle" x="1561.8682" y="-367.6" font-family="Times,serif" font-size="14.00" fill="#000000">WriteBlock</text>
<polyline fill="none" stroke="#000000" points="1493.4111,-360.8 1630.3252,-360.8 "/>
<text text-anchor="start" x="1501.4111" y="-345.6" font-family="Times,serif" font-size="14.00" fill="#000000">写入metaindex block</text>
</g>
<!-- WriteRawBlock&#45;&gt;WriteBlock -->
<g id="edge35" class="edge">
<title>WriteRawBlock&#45;&gt;WriteBlock</title>
<path fill="none" stroke="#c0c0c0" stroke-dasharray="5,2" d="M1301.9049,-340.3992C1354.1238,-343.9346 1427.6655,-348.9138 1483.2099,-352.6744"/>
<polygon fill="#c0c0c0" stroke="#c0c0c0" points="1483.149,-356.1782 1493.3626,-353.3618 1483.6219,-349.1942 1483.149,-356.1782"/>
</g>
<!-- WriteBlock&#45;&gt;SSTable -->
<g id="edge22" class="edge">
<title>WriteBlock&#45;&gt;SSTable:MetaDataIndexBlock</title>
<path fill="none" stroke="#000000" d="M1630.5857,-358C1639.1157,-358 1647.8295,-358 1656.3352,-358"/>
<polygon fill="#000000" stroke="#000000" points="1656.5806,-361.5001 1666.5806,-358 1656.5805,-354.5001 1656.5806,-361.5001"/>
</g>
<!-- FilterBlockReader_KeyMayMatch -->
<g id="node18" class="node">
<title>FilterBlockReader_KeyMayMatch</title>
<polygon fill="none" stroke="#000000" points="721.6904,-741.8002 721.6904,-850.1998 980.4482,-850.1998 980.4482,-741.8002 721.6904,-741.8002"/>
<text text-anchor="middle" x="851.0693" y="-834.9998" font-family="Times,serif" font-size="14.00" fill="#000000">KeyMayMatch</text>
<polyline fill="none" stroke="#000000" points="721.6904,-828.1998 980.4482,-828.1998 "/>
<text text-anchor="start" x="729.6904" y="-812.9998" font-family="Times,serif" font-size="14.00" fill="#000000">根据blockOffset计算出</text>
<text text-anchor="start" x="729.6904" y="-793.3999" font-family="Times,serif" font-size="14.00" fill="#000000"> 在data_该block对应的filter的offset和size</text>
<text text-anchor="start" x="729.6904" y="-773.8" font-family="Times,serif" font-size="14.00" fill="#000000"> 然后使用这个filter数据</text>
<text text-anchor="start" x="729.6904" y="-754.2001" font-family="Times,serif" font-size="14.00" fill="#000000"> 调用filter_policy KeyMayMatch</text>
</g>
<!-- FilterBlockReader_KeyMayMatch&#45;&gt;FilterPolicy -->
<g id="edge23" class="edge">
<title>FilterBlockReader_KeyMayMatch&#45;&gt;FilterPolicy:KeyMayMatch</title>
<path fill="none" stroke="#000000" d="M866.7325,-741.7464C887.8953,-680.7912 931.8514,-589.279 1006.6654,-581.5272"/>
<polygon fill="#000000" stroke="#000000" points="1007.1224,-585.0085 1016.9297,-581 1006.7633,-578.0177 1007.1224,-585.0085"/>
</g>
<!-- FilterBlockReader -->
<g id="node19" class="node">
<title>FilterBlockReader</title>
<polygon fill="none" stroke="#000000" points="520.7668,-804 400.9373,-804 400.9373,-768 520.7668,-768 520.7668,-804"/>
<text text-anchor="middle" x="460.8521" y="-781.8" font-family="Times,serif" font-size="14.00" fill="#000000">FilterBlockReader</text>
</g>
<!-- data_ -->
<g id="node20" class="node">
<title>data_</title>
<polygon fill="none" stroke="#000000" points="664.2661,-831 610.2661,-831 610.2661,-795 664.2661,-795 664.2661,-831"/>
<text text-anchor="middle" x="637.2661" y="-808.8" font-family="Times,serif" font-size="14.00" fill="#000000">data_</text>
</g>
<!-- FilterBlockReader&#45;&gt;data_ -->
<g id="edge24" class="edge">
<title>FilterBlockReader&#45;&gt;data_</title>
<path fill="none" stroke="#000000" d="M520.5778,-795.141C546.9295,-799.1741 577.0804,-803.7886 600.1319,-807.3166"/>
<polygon fill="#000000" stroke="#000000" points="599.7699,-810.8019 610.1844,-808.8552 600.829,-803.8825 599.7699,-810.8019"/>
</g>
<!-- offset_ -->
<g id="node21" class="node">
<title>offset_</title>
<polygon fill="none" stroke="#000000" points="664.3972,-885 610.135,-885 610.135,-849 664.3972,-849 664.3972,-885"/>
<text text-anchor="middle" x="637.2661" y="-862.8" font-family="Times,serif" font-size="14.00" fill="#000000">offset_</text>
</g>
<!-- FilterBlockReader&#45;&gt;offset_ -->
<g id="edge25" class="edge">
<title>FilterBlockReader&#45;&gt;offset_</title>
<path fill="none" stroke="#000000" d="M499.7548,-804.0006C525.1074,-815.7147 558.9175,-831.3054 588.8418,-845 592.7147,-846.7724 596.7639,-848.6203 600.8004,-850.4589"/>
<polygon fill="#000000" stroke="#000000" points="599.5545,-853.7373 610.1062,-854.6925 602.4532,-847.3657 599.5545,-853.7373"/>
</g>
<!-- num_ -->
<g id="node22" class="node">
<title>num_</title>
<polygon fill="none" stroke="#000000" points="664.2661,-777 610.2661,-777 610.2661,-741 664.2661,-741 664.2661,-777"/>
<text text-anchor="middle" x="637.2661" y="-754.8" font-family="Times,serif" font-size="14.00" fill="#000000">num_</text>
</g>
<!-- FilterBlockReader&#45;&gt;num_ -->
<g id="edge26" class="edge">
<title>FilterBlockReader&#45;&gt;num_</title>
<path fill="none" stroke="#000000" d="M520.5778,-776.859C546.9295,-772.8259 577.0804,-768.2114 600.1319,-764.6834"/>
<polygon fill="#000000" stroke="#000000" points="600.829,-768.1175 610.1844,-763.1448 599.7699,-761.1981 600.829,-768.1175"/>
</g>
<!-- data_&#45;&gt;FilterBlockReader_KeyMayMatch -->
<g id="edge27" class="edge">
<title>data_&#45;&gt;FilterBlockReader_KeyMayMatch</title>
<path fill="none" stroke="#000000" d="M664.3444,-810.8469C677.2385,-809.8217 693.7321,-808.5103 711.5641,-807.0924"/>
<polygon fill="#000000" stroke="#000000" points="711.9031,-810.5766 721.5942,-806.2949 711.3482,-803.5986 711.9031,-810.5766"/>
</g>
<!-- num_&#45;&gt;FilterBlockReader_KeyMayMatch -->
<g id="edge28" class="edge">
<title>num_&#45;&gt;FilterBlockReader_KeyMayMatch</title>
<path fill="none" stroke="#000000" d="M664.3444,-763.6861C677.2385,-765.9175 693.7321,-768.7718 711.5641,-771.8577"/>
<polygon fill="#000000" stroke="#000000" points="711.1438,-775.3369 721.5942,-773.5935 712.3375,-768.4395 711.1438,-775.3369"/>
</g>
<!-- TableBuilder_Finish -->
<g id="node23" class="node">
<title>TableBuilder_Finish</title>
<polygon fill="none" stroke="#000000" points="738.4248,-285.8002 738.4248,-430.1998 963.7139,-430.1998 963.7139,-285.8002 738.4248,-285.8002"/>
<text text-anchor="middle" x="851.0693" y="-414.9998" font-family="Times,serif" font-size="14.00" fill="#000000">Finish</text>
<polyline fill="none" stroke="#000000" points="738.4248,-408.1998 963.7139,-408.1998 "/>
<text text-anchor="start" x="746.4248" y="-392.9998" font-family="Times,serif" font-size="14.00" fill="#000000">TableBuilder 结束</text>
<text text-anchor="start" x="746.4248" y="-373.3999" font-family="Times,serif" font-size="14.00" fill="#000000"> 写入filter Block 数据</text>
<polyline fill="none" stroke="#000000" points="738.4248,-361 963.7139,-361 "/>
<text text-anchor="start" x="746.4248" y="-345.8" font-family="Times,serif" font-size="14.00" fill="#000000">写入metadata index, </text>
<text text-anchor="start" x="746.4248" y="-326.2001" font-family="Times,serif" font-size="14.00" fill="#000000">索引内容如下</text>
<text text-anchor="start" x="746.4248" y="-306.6002" font-family="Times,serif" font-size="14.00" fill="#000000"> key: filter.ploicy_name</text>
<text text-anchor="start" x="746.4248" y="-292.6002" font-family="Times,serif" font-size="14.00" fill="#000000"> value: filter_data_block (offset, size)</text>
</g>
<!-- TableBuilder_Finish&#45;&gt;FilterPolicy -->
<g id="edge29" class="edge">
<title>TableBuilder_Finish&#45;&gt;FilterPolicy</title>
<path fill="none" stroke="#000000" d="M950.5306,-430.366C969.6523,-444.0078 989.5942,-458.0507 1008.4482,-471 1054.377,-502.5448 1106.2421,-536.7097 1148.935,-564.4545"/>
<polygon fill="#000000" stroke="#000000" points="1147.0534,-567.4058 1157.3467,-569.9152 1150.8649,-561.5345 1147.0534,-567.4058"/>
</g>
<!-- TableBuilder_Finish&#45;&gt;FilterBlockBuilder_Finish -->
<g id="edge30" class="edge">
<title>TableBuilder_Finish&#45;&gt;FilterBlockBuilder_Finish</title>
<path fill="none" stroke="#000000" d="M963.7294,-296.2104C978.7018,-288.2759 993.9012,-280.3599 1008.4482,-273 1048.0449,-252.9667 1092.0176,-231.9052 1130.7278,-213.7549"/>
<polygon fill="#000000" stroke="#000000" points="1132.3576,-216.8566 1139.9314,-209.4479 1129.3906,-210.5165 1132.3576,-216.8566"/>
</g>
<!-- TableBuilder_Finish&#45;&gt;WriteRawBlock -->
<g id="edge31" class="edge">
<title>TableBuilder_Finish&#45;&gt;WriteRawBlock</title>
<path fill="none" stroke="#000000" d="M963.9731,-351.5627C1027.729,-347.9277 1105.656,-343.4846 1161.9006,-340.2778"/>
<polygon fill="#000000" stroke="#000000" points="1162.3576,-343.7575 1172.1421,-339.6939 1161.959,-336.7689 1162.3576,-343.7575"/>
</g>
<!-- TableBuilder_Finish&#45;&gt;WriteBlock -->
<g id="edge32" class="edge">
<title>TableBuilder_Finish&#45;&gt;WriteBlock</title>
<path fill="none" stroke="#000000" d="M964.0544,-367.6555C978.9743,-368.6252 994.0726,-369.4527 1008.4482,-370 1207.8429,-377.5908 1258.1983,-381.4053 1457.4111,-370 1465.7288,-369.5238 1474.4009,-368.836 1483.0366,-368.0271"/>
<polygon fill="#000000" stroke="#000000" points="1483.5275,-371.4957 1493.134,-367.0274 1482.8378,-364.5298 1483.5275,-371.4957"/>
</g>
<!-- TableBuilder_Flush -->
<g id="node24" class="node">
<title>TableBuilder_Flush</title>
<polygon fill="none" stroke="#000000" points="187.7588,-285.2 187.7588,-334.8 332.8623,-334.8 332.8623,-285.2 187.7588,-285.2"/>
<text text-anchor="middle" x="260.3105" y="-319.6" font-family="Times,serif" font-size="14.00" fill="#000000">Flush</text>
<polyline fill="none" stroke="#000000" points="187.7588,-312.8 332.8623,-312.8 "/>
<text text-anchor="start" x="195.7588" y="-297.6" font-family="Times,serif" font-size="14.00" fill="#000000">开启一个块新的block</text>
</g>
<!-- TableBuilder_Flush&#45;&gt;StartBlock -->
<g id="edge33" class="edge">
<title>TableBuilder_Flush&#45;&gt;StartBlock</title>
<path fill="none" stroke="#000000" d="M312.7385,-285.164C343.9747,-270.3669 383.3015,-251.7371 413.5802,-237.3935"/>
<polygon fill="#000000" stroke="#000000" points="415.1287,-240.5329 422.6675,-233.0887 412.1319,-234.2068 415.1287,-240.5329"/>
</g>
<!-- TableBuilder_Add -->
<g id="node25" class="node">
<title>TableBuilder_Add</title>
<polygon fill="none" stroke="#000000" points="16,-285.2 16,-356.8 151.7588,-356.8 151.7588,-285.2 16,-285.2"/>
<text text-anchor="middle" x="83.8794" y="-341.6" font-family="Times,serif" font-size="14.00" fill="#000000">Add</text>
<polyline fill="none" stroke="#000000" points="16,-334.8 151.7588,-334.8 "/>
<text text-anchor="middle" x="83.8794" y="-319.6" font-family="Times,serif" font-size="14.00" fill="#000000">Add(Key, value)</text>
<polyline fill="none" stroke="#000000" points="16,-312.8 151.7588,-312.8 "/>
<text text-anchor="start" x="24" y="-297.6" font-family="Times,serif" font-size="14.00" fill="#000000">将key加入filterblock</text>
</g>
<!-- TableBuilder_Add&#45;&gt;FilterBlockBuilder_AddKey -->
<g id="edge34" class="edge">
<title>TableBuilder_Add&#45;&gt;FilterBlockBuilder_AddKey</title>
<path fill="none" stroke="#000000" d="M119.5829,-284.979C153.9279,-250.3286 204.9696,-198.8331 235.2183,-168.3154"/>
<polygon fill="#000000" stroke="#000000" points="237.8839,-170.5979 242.4378,-161.0317 232.9123,-165.6701 237.8839,-170.5979"/>
</g>
<!-- InternalGet -->
<g id="node26" class="node">
<title>InternalGet</title>
<polygon fill="none" stroke="#000000" points="677.0116,-682 597.5206,-682 597.5206,-646 677.0116,-646 677.0116,-682"/>
<text text-anchor="middle" x="637.2661" y="-659.8" font-family="Times,serif" font-size="14.00" fill="#000000">InternalGet</text>
</g>
<!-- InternalGet&#45;&gt;FilterBlockReader_KeyMayMatch -->
<g id="edge36" class="edge">
<title>InternalGet&#45;&gt;FilterBlockReader_KeyMayMatch</title>
<path fill="none" stroke="#000000" d="M666.5462,-682.0773C689.4328,-696.2072 722.6178,-716.6953 754.5545,-736.4127"/>
<polygon fill="#000000" stroke="#000000" points="752.7304,-739.3998 763.0781,-741.6751 756.4078,-733.4435 752.7304,-739.3998"/>
</g>
<!-- ReadFilter -->
<g id="node27" class="node">
<title>ReadFilter</title>
<polygon fill="none" stroke="#000000" points="188.5381,-639.2 188.5381,-688.8 332.083,-688.8 332.083,-639.2 188.5381,-639.2"/>
<text text-anchor="middle" x="260.3105" y="-673.6" font-family="Times,serif" font-size="14.00" fill="#000000">ReadFilter</text>
<polyline fill="none" stroke="#000000" points="188.5381,-666.8 332.083,-666.8 "/>
<text text-anchor="start" x="196.5381" y="-651.6" font-family="Times,serif" font-size="14.00" fill="#000000">读取filterblock的数据</text>
</g>
<!-- ReadFilter&#45;&gt;SSTable -->
<g id="edge38" class="edge">
<title>ReadFilter&#45;&gt;SSTable</title>
<path fill="none" stroke="#c0c0c0" stroke-dasharray="5,2" d="M298.6947,-639.1166C364.9405,-598.6383 506.256,-523 637.2661,-523 637.2661,-523 637.2661,-523 1236.9297,-523 1416.8185,-523 1470.9627,-536.9529 1638.3252,-471 1644.6872,-468.4929 1651.0207,-465.4727 1657.2258,-462.115"/>
<polygon fill="#c0c0c0" stroke="#c0c0c0" points="1659.2706,-464.9775 1666.2134,-456.9745 1655.7952,-458.9012 1659.2706,-464.9775"/>
</g>
<!-- ReadFilter&#45;&gt;FilterBlockReader -->
<g id="edge37" class="edge">
<title>ReadFilter&#45;&gt;FilterBlockReader</title>
<path fill="none" stroke="#000000" d="M301.377,-688.9829C336.8267,-710.5488 387.6577,-741.472 422.3414,-762.572"/>
<polygon fill="#000000" stroke="#000000" points="420.8679,-765.7723 431.2303,-767.9795 424.5061,-759.792 420.8679,-765.7723"/>
</g>
<!-- TableCache_Get -->
<g id="node28" class="node">
<title>TableCache_Get</title>
<polygon fill="none" stroke="#000000" points="515.437,-587 406.2671,-587 406.2671,-551 515.437,-551 515.437,-587"/>
<text text-anchor="middle" x="460.8521" y="-564.8" font-family="Times,serif" font-size="14.00" fill="#000000">TableCache_Get</text>
</g>
<!-- TableCache_Get&#45;&gt;InternalGet -->
<g id="edge39" class="edge">
<title>TableCache_Get&#45;&gt;InternalGet</title>
<path fill="none" stroke="#000000" d="M490.68,-587.0499C514.5453,-601.2573 549.248,-621.4015 588.5027,-641.6825"/>
<polygon fill="#000000" stroke="#000000" points="586.9887,-644.8394 597.4846,-646.2839 590.1804,-638.6094 586.9887,-644.8394"/>
</g>
</g>
</svg>
