<?xml version="1.0" encoding="UTF-8" standalone="no"?>
<!DOCTYPE svg PUBLIC "-//W3C//DTD SVG 1.1//EN"
 "http://www.w3.org/Graphics/SVG/1.1/DTD/svg11.dtd">
<!-- Generated by graphviz version 2.40.1 (20161225.0304)
 -->
<!-- Title: version Pages: 1 -->
<svg width="1614pt" height="1241pt"
 viewBox="0.00 0.00 1614.21 1241.27" xmlns="http://www.w3.org/2000/svg" xmlns:xlink="http://www.w3.org/1999/xlink">
<g id="graph0" class="graph" transform="scale(1 1) rotate(0) translate(4 1237.2739)">
<title>version</title>
<polygon fill="#ffffff" stroke="transparent" points="-4,4 -4,-1237.2739 1610.2119,-1237.2739 1610.2119,4 -4,4"/>
<g id="clust1" class="cluster">
<title>cluster_VersionEdit</title>
<path fill="none" stroke="#000000" d="M845.4536,-458.7933C845.4536,-458.7933 1433.8672,-458.7933 1433.8672,-458.7933 1439.8672,-458.7933 1445.8672,-464.7933 1445.8672,-470.7933 1445.8672,-470.7933 1445.8672,-646.7933 1445.8672,-646.7933 1445.8672,-652.7933 1439.8672,-658.7933 1433.8672,-658.7933 1433.8672,-658.7933 845.4536,-658.7933 845.4536,-658.7933 839.4536,-658.7933 833.4536,-652.7933 833.4536,-646.7933 833.4536,-646.7933 833.4536,-470.7933 833.4536,-470.7933 833.4536,-464.7933 839.4536,-458.7933 845.4536,-458.7933"/>
<text text-anchor="middle" x="1139.6604" y="-638.7933" font-family="Times,serif" font-size="20.00" fill="#000000">VersionEdit</text>
</g>
<g id="clust2" class="cluster">
<title>cluster_LogWriter</title>
<path fill="none" stroke="#000000" d="M1048.3979,-66.7933C1048.3979,-66.7933 1586.2119,-66.7933 1586.2119,-66.7933 1592.2119,-66.7933 1598.2119,-72.7933 1598.2119,-78.7933 1598.2119,-78.7933 1598.2119,-438.7933 1598.2119,-438.7933 1598.2119,-444.7933 1592.2119,-450.7933 1586.2119,-450.7933 1586.2119,-450.7933 1048.3979,-450.7933 1048.3979,-450.7933 1042.3979,-450.7933 1036.3979,-444.7933 1036.3979,-438.7933 1036.3979,-438.7933 1036.3979,-78.7933 1036.3979,-78.7933 1036.3979,-72.7933 1042.3979,-66.7933 1048.3979,-66.7933"/>
<text text-anchor="middle" x="1317.3049" y="-430.7933" font-family="Times,serif" font-size="20.00" fill="#000000">LogWriter</text>
</g>
<g id="clust3" class="cluster">
<title>cluster_VersionSet</title>
<path fill="none" stroke="#000000" d="M216.6553,-666.7933C216.6553,-666.7933 1565.7827,-666.7933 1565.7827,-666.7933 1571.7827,-666.7933 1577.7827,-672.7933 1577.7827,-678.7933 1577.7827,-678.7933 1577.7827,-1194.7933 1577.7827,-1194.7933 1577.7827,-1200.7933 1571.7827,-1206.7933 1565.7827,-1206.7933 1565.7827,-1206.7933 216.6553,-1206.7933 216.6553,-1206.7933 210.6553,-1206.7933 204.6553,-1200.7933 204.6553,-1194.7933 204.6553,-1194.7933 204.6553,-678.7933 204.6553,-678.7933 204.6553,-672.7933 210.6553,-666.7933 216.6553,-666.7933"/>
<text text-anchor="middle" x="891.219" y="-1186.7933" font-family="Times,serif" font-size="20.00" fill="#000000">VersionSet</text>
</g>
<g id="clust4" class="cluster">
<title>cluster_Builder</title>
<path fill="none" stroke="#000000" d="M567.895,-884.7933C567.895,-884.7933 927.1211,-884.7933 927.1211,-884.7933 933.1211,-884.7933 939.1211,-890.7933 939.1211,-896.7933 939.1211,-896.7933 939.1211,-1006.7933 939.1211,-1006.7933 939.1211,-1012.7933 933.1211,-1018.7933 927.1211,-1018.7933 927.1211,-1018.7933 567.895,-1018.7933 567.895,-1018.7933 561.895,-1018.7933 555.895,-1012.7933 555.895,-1006.7933 555.895,-1006.7933 555.895,-896.7933 555.895,-896.7933 555.895,-890.7933 561.895,-884.7933 567.895,-884.7933"/>
<text text-anchor="middle" x="747.5081" y="-998.7933" font-family="Times,serif" font-size="20.00" fill="#000000">Builder</text>
</g>
<g id="clust8" class="cluster">
<title>cluster_NewManifestFile</title>
<path fill="none" stroke="#000000" d="M549.2192,-674.7933C549.2192,-674.7933 965.4707,-674.7933 965.4707,-674.7933 971.4707,-674.7933 977.4707,-680.7933 977.4707,-686.7933 977.4707,-686.7933 977.4707,-864.7933 977.4707,-864.7933 977.4707,-870.7933 971.4707,-876.7933 965.4707,-876.7933 965.4707,-876.7933 549.2192,-876.7933 549.2192,-876.7933 543.2192,-876.7933 537.2192,-870.7933 537.2192,-864.7933 537.2192,-864.7933 537.2192,-686.7933 537.2192,-686.7933 537.2192,-680.7933 543.2192,-674.7933 549.2192,-674.7933"/>
<text text-anchor="middle" x="757.345" y="-856.7933" font-family="Times,serif" font-size="20.00" fill="#000000">NewManifestFile</text>
</g>
<g id="clust9" class="cluster">
<title>cluster_DBImpl</title>
<path fill="none" stroke="#000000" d="M20,-752.7933C20,-752.7933 172.6553,-752.7933 172.6553,-752.7933 178.6553,-752.7933 184.6553,-758.7933 184.6553,-764.7933 184.6553,-764.7933 184.6553,-982.7933 184.6553,-982.7933 184.6553,-988.7933 178.6553,-994.7933 172.6553,-994.7933 172.6553,-994.7933 20,-994.7933 20,-994.7933 14,-994.7933 8,-988.7933 8,-982.7933 8,-982.7933 8,-764.7933 8,-764.7933 8,-758.7933 14,-752.7933 20,-752.7933"/>
<text text-anchor="middle" x="96.3276" y="-974.7933" font-family="Times,serif" font-size="20.00" fill="#000000">DBImpl</text>
</g>
<!-- FileMetaData -->
<g id="node1" class="node">
<title>FileMetaData</title>
<polygon fill="none" stroke="#000000" points="1305.6289,-467.7933 1305.6289,-621.7933 1437.8672,-621.7933 1437.8672,-467.7933 1305.6289,-467.7933"/>
<text text-anchor="middle" x="1371.748" y="-606.5933" font-family="Times,serif" font-size="14.00" fill="#000000">FileMetaData</text>
<polyline fill="none" stroke="#000000" points="1305.6289,-599.7933 1437.8672,-599.7933 "/>
<text text-anchor="start" x="1313.6289" y="-584.5933" font-family="Times,serif" font-size="14.00" fill="#000000">int refs</text>
<polyline fill="none" stroke="#000000" points="1305.6289,-577.7933 1437.8672,-577.7933 "/>
<text text-anchor="start" x="1313.6289" y="-562.5933" font-family="Times,serif" font-size="14.00" fill="#000000">int allowed_seeks</text>
<polyline fill="none" stroke="#000000" points="1305.6289,-555.7933 1437.8672,-555.7933 "/>
<text text-anchor="start" x="1313.6289" y="-540.5933" font-family="Times,serif" font-size="14.00" fill="#000000">uint64_t number</text>
<polyline fill="none" stroke="#000000" points="1305.6289,-533.7933 1437.8672,-533.7933 "/>
<text text-anchor="start" x="1313.6289" y="-518.5933" font-family="Times,serif" font-size="14.00" fill="#000000">uint64_t file_size</text>
<polyline fill="none" stroke="#000000" points="1305.6289,-511.7933 1437.8672,-511.7933 "/>
<text text-anchor="start" x="1313.6289" y="-496.5933" font-family="Times,serif" font-size="14.00" fill="#000000">InternalKey smallest</text>
<polyline fill="none" stroke="#000000" points="1305.6289,-489.7933 1437.8672,-489.7933 "/>
<text text-anchor="start" x="1313.6289" y="-474.5933" font-family="Times,serif" font-size="14.00" fill="#000000">InternalKey largest</text>
</g>
<!-- new_files_ -->
<g id="node2" class="node">
<title>new_files_</title>
<polygon fill="none" stroke="#000000" points="1005.4707,-506.7933 1005.4707,-608.7933 1256.7842,-608.7933 1256.7842,-506.7933 1005.4707,-506.7933"/>
<text text-anchor="middle" x="1131.1274" y="-593.5933" font-family="Times,serif" font-size="14.00" fill="#000000">new_files_</text>
<polyline fill="none" stroke="#000000" points="1005.4707,-586.7933 1256.7842,-586.7933 "/>
<text text-anchor="start" x="1013.4707" y="-571.5933" font-family="Times,serif" font-size="14.00" fill="#000000">std::vector&lt;std::pair&lt;int, FileMetaData&gt;&gt;</text>
<polyline fill="none" stroke="#000000" points="1005.4707,-564.7933 1256.7842,-564.7933 "/>
<text text-anchor="start" x="1013.4707" y="-549.5933" font-family="Times,serif" font-size="14.00" fill="#000000">level, FileMetaData</text>
<polyline fill="none" stroke="#000000" points="1005.4707,-542.7933 1256.7842,-542.7933 "/>
<text text-anchor="start" x="1013.4707" y="-527.5933" font-family="Times,serif" font-size="14.00" fill="#000000">...</text>
<text text-anchor="start" x="1013.4707" y="-513.5933" font-family="Times,serif" font-size="14.00" fill="#000000"> level, FileMetaData</text>
</g>
<!-- new_files_&#45;&gt;FileMetaData -->
<g id="edge2" class="edge">
<title>new_files_&#45;&gt;FileMetaData</title>
<path fill="none" stroke="#000000" d="M1257.0755,-550.9887C1270.1341,-550.2832 1283.104,-549.5825 1295.3679,-548.9199"/>
<polygon fill="#000000" stroke="#000000" points="1295.6934,-552.4075 1305.49,-548.373 1295.3157,-545.4177 1295.6934,-552.4075"/>
</g>
<!-- VersionEdit_EncodeTo -->
<g id="node3" class="node">
<title>VersionEdit_EncodeTo</title>
<polygon fill="none" stroke="#000000" points="841.4536,-495.7933 841.4536,-539.7933 914.0073,-539.7933 914.0073,-495.7933 841.4536,-495.7933"/>
<text text-anchor="middle" x="877.7305" y="-524.5933" font-family="Times,serif" font-size="14.00" fill="#000000">EncodeTo</text>
<polyline fill="none" stroke="#000000" points="841.4536,-517.7933 914.0073,-517.7933 "/>
<text text-anchor="start" x="849.4536" y="-502.5933" font-family="Times,serif" font-size="14.00" fill="#000000">field </text>
</g>
<!-- AddRecord -->
<g id="node5" class="node">
<title>AddRecord</title>
<polygon fill="none" stroke="#000000" points="1292.7842,-231.1934 1292.7842,-300.3932 1450.7119,-300.3932 1450.7119,-231.1934 1292.7842,-231.1934"/>
<text text-anchor="middle" x="1371.748" y="-285.1932" font-family="Times,serif" font-size="14.00" fill="#000000">AddRecord</text>
<polyline fill="none" stroke="#000000" points="1292.7842,-278.3932 1450.7119,-278.3932 "/>
<text text-anchor="start" x="1300.7842" y="-263.1932" font-family="Times,serif" font-size="14.00" fill="#000000">将Editor Ecode后的</text>
<text text-anchor="start" x="1300.7842" y="-243.5933" font-family="Times,serif" font-size="14.00" fill="#000000"> 字符串append到日志中</text>
</g>
<!-- VersionEdit_EncodeTo&#45;&gt;AddRecord -->
<g id="edge29" class="edge">
<title>VersionEdit_EncodeTo&#45;&gt;AddRecord</title>
<path fill="none" stroke="#c0c0c0" stroke-dasharray="5,2" d="M914.1777,-510.8524C1004.1667,-493.4236 1231.455,-447.5193 1256.7842,-423.7933 1295.2528,-387.7594 1259.6156,-351.7581 1292.7842,-310.7933 1293.622,-309.7586 1294.4903,-308.7432 1295.3862,-307.747"/>
<polygon fill="#c0c0c0" stroke="#c0c0c0" points="1298.0883,-309.9979 1302.7478,-300.4826 1293.1715,-305.0153 1298.0883,-309.9979"/>
</g>
<!-- VersionEditRecord -->
<g id="node7" class="node">
<title>VersionEditRecord</title>
<polygon fill="none" stroke="#000000" points="1044.3979,-105.7933 1044.3979,-413.7933 1217.8569,-413.7933 1217.8569,-105.7933 1044.3979,-105.7933"/>
<text text-anchor="middle" x="1131.1274" y="-398.5933" font-family="Times,serif" font-size="14.00" fill="#000000">VersionEditRecord</text>
<polyline fill="none" stroke="#000000" points="1044.3979,-391.7933 1217.8569,-391.7933 "/>
<text text-anchor="start" x="1052.3979" y="-376.5933" font-family="Times,serif" font-size="14.00" fill="#000000">kComparator varInt32</text>
<polyline fill="none" stroke="#000000" points="1044.3979,-369.7933 1217.8569,-369.7933 "/>
<text text-anchor="start" x="1052.3979" y="-354.5933" font-family="Times,serif" font-size="14.00" fill="#000000">comparator_</text>
<polyline fill="none" stroke="#000000" points="1044.3979,-347.7933 1217.8569,-347.7933 "/>
<text text-anchor="start" x="1052.3979" y="-332.5933" font-family="Times,serif" font-size="14.00" fill="#000000">varInt32 kLogNumber</text>
<polyline fill="none" stroke="#000000" points="1044.3979,-325.7933 1217.8569,-325.7933 "/>
<text text-anchor="start" x="1052.3979" y="-310.5933" font-family="Times,serif" font-size="14.00" fill="#000000">varInt64 log_number_</text>
<polyline fill="none" stroke="#000000" points="1044.3979,-303.7933 1217.8569,-303.7933 "/>
<text text-anchor="start" x="1052.3979" y="-288.5933" font-family="Times,serif" font-size="14.00" fill="#000000">varInt32 kPrevLogNumber</text>
<polyline fill="none" stroke="#000000" points="1044.3979,-281.7933 1217.8569,-281.7933 "/>
<text text-anchor="start" x="1052.3979" y="-266.5933" font-family="Times,serif" font-size="14.00" fill="#000000">varInt64 prev_log_number_</text>
<polyline fill="none" stroke="#000000" points="1044.3979,-259.7933 1217.8569,-259.7933 "/>
<text text-anchor="start" x="1052.3979" y="-244.5933" font-family="Times,serif" font-size="14.00" fill="#000000">varInt32 kNextFileNumber </text>
<polyline fill="none" stroke="#000000" points="1044.3979,-237.7933 1217.8569,-237.7933 "/>
<text text-anchor="start" x="1052.3979" y="-222.5933" font-family="Times,serif" font-size="14.00" fill="#000000">varInt64 next_file_number_</text>
<polyline fill="none" stroke="#000000" points="1044.3979,-215.7933 1217.8569,-215.7933 "/>
<text text-anchor="start" x="1052.3979" y="-200.5933" font-family="Times,serif" font-size="14.00" fill="#000000">varInt32 kLastSequence</text>
<polyline fill="none" stroke="#000000" points="1044.3979,-193.7933 1217.8569,-193.7933 "/>
<text text-anchor="start" x="1052.3979" y="-178.5933" font-family="Times,serif" font-size="14.00" fill="#000000">varInt64 last_sequence_</text>
<polyline fill="none" stroke="#000000" points="1044.3979,-171.7933 1217.8569,-171.7933 "/>
<text text-anchor="start" x="1052.3979" y="-156.5933" font-family="Times,serif" font-size="14.00" fill="#000000">compact_pointers_</text>
<polyline fill="none" stroke="#000000" points="1044.3979,-149.7933 1217.8569,-149.7933 "/>
<text text-anchor="start" x="1052.3979" y="-134.5933" font-family="Times,serif" font-size="14.00" fill="#000000">deleted_files_</text>
<polyline fill="none" stroke="#000000" points="1044.3979,-127.7933 1217.8569,-127.7933 "/>
<text text-anchor="start" x="1052.3979" y="-112.5933" font-family="Times,serif" font-size="14.00" fill="#000000">new_files_</text>
</g>
<!-- VersionEdit_EncodeTo&#45;&gt;VersionEditRecord -->
<g id="edge6" class="edge">
<title>VersionEdit_EncodeTo&#45;&gt;VersionEditRecord</title>
<path fill="none" stroke="#000000" d="M899.7745,-495.3488C930.2448,-464.325 987.1104,-406.4264 1036.8364,-355.7972"/>
<polygon fill="#000000" stroke="#000000" points="1039.6071,-357.9711 1044.1172,-348.3841 1034.613,-353.0661 1039.6071,-357.9711"/>
</g>
<!-- AddFile -->
<g id="node4" class="node">
<title>AddFile</title>
<polygon fill="none" stroke="#000000" points="908.6202,-608.7933 846.8407,-608.7933 846.8407,-572.7933 908.6202,-572.7933 908.6202,-608.7933"/>
<text text-anchor="middle" x="877.7305" y="-586.5933" font-family="Times,serif" font-size="14.00" fill="#000000">AddFile</text>
</g>
<!-- AddFile&#45;&gt;new_files_ -->
<g id="edge1" class="edge">
<title>AddFile&#45;&gt;new_files_</title>
<path fill="none" stroke="#000000" d="M908.8019,-586.7469C931.0786,-583.8458 962.7847,-579.7166 995.297,-575.4826"/>
<polygon fill="#000000" stroke="#000000" points="995.9391,-578.9286 1005.4033,-574.1664 995.035,-571.9872 995.9391,-578.9286"/>
</g>
<!-- Sync -->
<g id="node6" class="node">
<title>Sync</title>
<polygon fill="none" stroke="#000000" points="1486.7119,-153.1934 1486.7119,-222.3932 1590.2119,-222.3932 1590.2119,-153.1934 1486.7119,-153.1934"/>
<text text-anchor="middle" x="1538.4619" y="-207.1932" font-family="Times,serif" font-size="14.00" fill="#000000">Sync</text>
<polyline fill="none" stroke="#000000" points="1486.7119,-200.3932 1590.2119,-200.3932 "/>
<text text-anchor="start" x="1494.7119" y="-185.1932" font-family="Times,serif" font-size="14.00" fill="#000000">确保缓存都</text>
<text text-anchor="start" x="1494.7119" y="-165.5933" font-family="Times,serif" font-size="14.00" fill="#000000"> 刷到磁盘上了</text>
</g>
<!-- AddRecord&#45;&gt;Sync -->
<g id="edge3" class="edge">
<title>AddRecord&#45;&gt;Sync</title>
<path fill="none" stroke="#cccccc" stroke-dasharray="5,2" d="M1445.842,-231.1271C1456.3619,-226.2052 1467.081,-221.1901 1477.3179,-216.4006"/>
<polygon fill="#cccccc" stroke="#cccccc" points="1478.9897,-219.4826 1486.5641,-212.0746 1476.0232,-213.1423 1478.9897,-219.4826"/>
</g>
<!-- VersionEditRecord&#45;&gt;AddRecord -->
<g id="edge7" class="edge">
<title>VersionEditRecord&#45;&gt;AddRecord</title>
<path fill="none" stroke="#c0c0c0" stroke-dasharray="5,2" d="M1217.997,-261.9594C1238.9359,-262.4816 1261.3429,-263.0403 1282.3933,-263.5652"/>
<polygon fill="#c0c0c0" stroke="#c0c0c0" points="1282.5216,-267.0694 1292.6058,-263.8198 1282.6961,-260.0716 1282.5216,-267.0694"/>
</g>
<!-- deleted_files_ -->
<g id="node8" class="node">
<title>deleted_files_</title>
<polygon fill="none" stroke="#000000" points="1302.1289,-319.7933 1302.1289,-413.7933 1441.3672,-413.7933 1441.3672,-319.7933 1302.1289,-319.7933"/>
<text text-anchor="middle" x="1371.748" y="-398.5933" font-family="Times,serif" font-size="14.00" fill="#000000">deleted_files_</text>
<polyline fill="none" stroke="#000000" points="1302.1289,-391.7933 1441.3672,-391.7933 "/>
<text text-anchor="start" x="1310.1289" y="-376.5933" font-family="Times,serif" font-size="14.00" fill="#000000">varInt32 kDeletedFile</text>
<text text-anchor="start" x="1310.1289" y="-362.5933" font-family="Times,serif" font-size="14.00" fill="#000000"> varInt32 level</text>
<text text-anchor="start" x="1310.1289" y="-348.5933" font-family="Times,serif" font-size="14.00" fill="#000000"> varInt64 fileNumber</text>
<polyline fill="none" stroke="#000000" points="1302.1289,-341.7933 1441.3672,-341.7933 "/>
<text text-anchor="middle" x="1371.748" y="-326.5933" font-family="Times,serif" font-size="14.00" fill="#000000">...</text>
</g>
<!-- VersionEditRecord&#45;&gt;deleted_files_ -->
<g id="edge4" class="edge">
<title>VersionEditRecord:deleted_files_&#45;&gt;deleted_files_</title>
<path fill="none" stroke="#000000" d="M1218.1274,-138.7933C1301.0549,-138.7933 1240.7302,-245.2383 1292.7842,-309.7933 1293.5901,-310.7928 1294.4177,-311.7831 1295.2649,-312.7639"/>
<polygon fill="#000000" stroke="#000000" points="1292.728,-315.1754 1302.1128,-320.0925 1297.8427,-310.3962 1292.728,-315.1754"/>
</g>
<!-- r_new_files_ -->
<g id="node9" class="node">
<title>r_new_files_</title>
<polygon fill="none" stroke="#000000" points="1304.6514,-75.7933 1304.6514,-211.7933 1438.8447,-211.7933 1438.8447,-75.7933 1304.6514,-75.7933"/>
<text text-anchor="middle" x="1371.748" y="-196.5933" font-family="Times,serif" font-size="14.00" fill="#000000">new_files_</text>
<polyline fill="none" stroke="#000000" points="1304.6514,-189.7933 1438.8447,-189.7933 "/>
<text text-anchor="start" x="1312.6514" y="-174.5933" font-family="Times,serif" font-size="14.00" fill="#000000">varInt32 kNewFile</text>
<text text-anchor="start" x="1312.6514" y="-160.5933" font-family="Times,serif" font-size="14.00" fill="#000000"> varInt32 level</text>
<text text-anchor="start" x="1312.6514" y="-146.5933" font-family="Times,serif" font-size="14.00" fill="#000000"> varInt64 fileNumber</text>
<text text-anchor="start" x="1312.6514" y="-132.5933" font-family="Times,serif" font-size="14.00" fill="#000000"> varInt64 fileSize</text>
<text text-anchor="start" x="1312.6514" y="-118.5933" font-family="Times,serif" font-size="14.00" fill="#000000"> Slice smallest</text>
<text text-anchor="start" x="1312.6514" y="-104.5933" font-family="Times,serif" font-size="14.00" fill="#000000"> Slice largest</text>
<polyline fill="none" stroke="#000000" points="1304.6514,-97.7933 1438.8447,-97.7933 "/>
<text text-anchor="middle" x="1371.748" y="-82.5933" font-family="Times,serif" font-size="14.00" fill="#000000">...</text>
</g>
<!-- VersionEditRecord&#45;&gt;r_new_files_ -->
<g id="edge5" class="edge">
<title>VersionEditRecord:new_files_&#45;&gt;r_new_files_</title>
<path fill="none" stroke="#000000" d="M1218.1274,-116.7933C1243.2364,-116.7933 1270.31,-120.3355 1294.6311,-124.8539"/>
<polygon fill="#000000" stroke="#000000" points="1294.0312,-128.3027 1304.5147,-126.7704 1295.3638,-121.4307 1294.0312,-128.3027"/>
</g>
<!-- DescriptorFileName -->
<g id="node10" class="node">
<title>DescriptorFileName</title>
<polygon fill="none" stroke="#000000" points="785.9902,-795.7933 785.9902,-839.7933 969.4707,-839.7933 969.4707,-795.7933 785.9902,-795.7933"/>
<text text-anchor="middle" x="877.7305" y="-824.5933" font-family="Times,serif" font-size="14.00" fill="#000000">DescriptorFileName</text>
<polyline fill="none" stroke="#000000" points="785.9902,-817.7933 969.4707,-817.7933 "/>
<text text-anchor="middle" x="877.7305" y="-802.5933" font-family="Times,serif" font-size="14.00" fill="#000000">/MANIFEST&#45;%06llu, number</text>
</g>
<!-- WriteSnapshot -->
<g id="node11" class="node">
<title>WriteSnapshot</title>
<polygon fill="none" stroke="#000000" points="545.2192,-683.3934 545.2192,-772.1932 714.4263,-772.1932 714.4263,-683.3934 545.2192,-683.3934"/>
<text text-anchor="middle" x="629.8228" y="-756.9932" font-family="Times,serif" font-size="14.00" fill="#000000">WriteSnapshot</text>
<polyline fill="none" stroke="#000000" points="545.2192,-750.1932 714.4263,-750.1932 "/>
<text text-anchor="start" x="553.2192" y="-734.9932" font-family="Times,serif" font-size="14.00" fill="#000000">如果descripto_log_为空则</text>
<text text-anchor="start" x="553.2192" y="-715.3933" font-family="Times,serif" font-size="14.00" fill="#000000"> 新建Manifest文件</text>
<text text-anchor="start" x="553.2192" y="-695.7933" font-family="Times,serif" font-size="14.00" fill="#000000"> 并写入snapshot</text>
</g>
<!-- WriteSnapshot&#45;&gt;VersionEdit_EncodeTo -->
<g id="edge23" class="edge">
<title>WriteSnapshot&#45;&gt;VersionEdit_EncodeTo</title>
<path fill="none" stroke="#00ff00" d="M671.7252,-683.0361C715.7162,-636.1638 779.4336,-568.6477 785.9902,-563.7933 799.9831,-553.4332 816.6605,-544.2798 831.9341,-536.9215"/>
<polygon fill="#00ff00" stroke="#00ff00" points="833.6497,-539.9831 841.2262,-532.5771 830.685,-533.6419 833.6497,-539.9831"/>
</g>
<!-- WriteSnapshot&#45;&gt;AddFile -->
<g id="edge24" class="edge">
<title>WriteSnapshot&#45;&gt;AddFile</title>
<path fill="none" stroke="#00ff00" d="M710.3113,-683.3133C753.0102,-659.7168 803.5881,-631.7662 837.893,-612.8085"/>
<polygon fill="#00ff00" stroke="#00ff00" points="839.6231,-615.8513 846.6826,-607.9511 836.2373,-609.7246 839.6231,-615.8513"/>
</g>
<!-- WriteSnapshot&#45;&gt;AddRecord -->
<g id="edge25" class="edge">
<title>WriteSnapshot&#45;&gt;AddRecord</title>
<path fill="none" stroke="#00ff00" d="M640.0857,-683.2249C670.7155,-561.9335 774.0871,-226.3442 1005.4707,-96.7933 1054.2001,-69.5099 1212.163,-63.2093 1256.7842,-96.7933 1302.9764,-131.5597 1256.8184,-176.5287 1292.7842,-221.7933 1293.3608,-222.519 1293.9529,-223.2347 1294.5593,-223.9403"/>
<polygon fill="#00ff00" stroke="#00ff00" points="1292.0748,-226.4057 1301.5619,-231.1223 1297.0868,-221.519 1292.0748,-226.4057"/>
</g>
<!-- NewWritableFile -->
<g id="node12" class="node">
<title>NewWritableFile</title>
<polygon fill="none" stroke="#000000" points="547.9399,-790.9933 547.9399,-840.5933 711.7056,-840.5933 711.7056,-790.9933 547.9399,-790.9933"/>
<text text-anchor="middle" x="629.8228" y="-825.3933" font-family="Times,serif" font-size="14.00" fill="#000000">NewWritableFile</text>
<polyline fill="none" stroke="#000000" points="547.9399,-818.5933 711.7056,-818.5933 "/>
<text text-anchor="start" x="555.9399" y="-803.3933" font-family="Times,serif" font-size="14.00" fill="#000000">打开新建的Manifest文件</text>
</g>
<!-- Builder_Apply -->
<g id="node13" class="node">
<title>Builder_Apply</title>
<polygon fill="none" stroke="#000000" points="563.895,-893.3934 563.895,-982.1932 695.7505,-982.1932 695.7505,-893.3934 563.895,-893.3934"/>
<text text-anchor="middle" x="629.8228" y="-966.9932" font-family="Times,serif" font-size="14.00" fill="#000000">Builder_Apply</text>
<polyline fill="none" stroke="#000000" points="563.895,-960.1932 695.7505,-960.1932 "/>
<text text-anchor="start" x="571.895" y="-944.9932" font-family="Times,serif" font-size="14.00" fill="#000000">将versionEdit apply</text>
<text text-anchor="start" x="571.895" y="-925.3933" font-family="Times,serif" font-size="14.00" fill="#000000"> 到current version上</text>
<text text-anchor="start" x="571.895" y="-905.7933" font-family="Times,serif" font-size="14.00" fill="#000000"> 得到新的version</text>
</g>
<!-- Builder_SaveTo -->
<g id="node14" class="node">
<title>Builder_SaveTo</title>
<polygon fill="none" stroke="#000000" points="931.0119,-982.7933 824.449,-982.7933 824.449,-946.7933 931.0119,-946.7933 931.0119,-982.7933"/>
<text text-anchor="middle" x="877.7305" y="-960.5933" font-family="Times,serif" font-size="14.00" fill="#000000">Builder_SaveTo</text>
</g>
<!-- Builder_Apply&#45;&gt;Builder_SaveTo -->
<g id="edge8" class="edge">
<title>Builder_Apply&#45;&gt;Builder_SaveTo</title>
<path fill="none" stroke="#c0c0c0" stroke-dasharray="5,2" d="M695.9318,-944.9933C732.6424,-948.9915 778.0788,-953.9401 814.3442,-957.8898"/>
<polygon fill="#c0c0c0" stroke="#c0c0c0" points="813.9947,-961.3724 824.3149,-958.9757 814.7526,-954.4135 813.9947,-961.3724"/>
</g>
<!-- Finalize -->
<g id="node15" class="node">
<title>Finalize</title>
<polygon fill="none" stroke="#000000" points="1052.7515,-1081.1934 1052.7515,-1150.3932 1209.5034,-1150.3932 1209.5034,-1081.1934 1052.7515,-1081.1934"/>
<text text-anchor="middle" x="1131.1274" y="-1135.1932" font-family="Times,serif" font-size="14.00" fill="#000000">Finalize</text>
<polyline fill="none" stroke="#000000" points="1052.7515,-1128.3932 1209.5034,-1128.3932 "/>
<text text-anchor="start" x="1060.7515" y="-1113.1932" font-family="Times,serif" font-size="14.00" fill="#000000">对version计算一些score</text>
<text text-anchor="start" x="1060.7515" y="-1093.5933" font-family="Times,serif" font-size="14.00" fill="#000000"> 用于下次压缩</text>
</g>
<!-- Builder_SaveTo&#45;&gt;Finalize -->
<g id="edge9" class="edge">
<title>Builder_SaveTo&#45;&gt;Finalize</title>
<path fill="none" stroke="#c0c0c0" stroke-dasharray="5,2" d="M931.0974,-971.6515C946.577,-974.9278 963.1546,-979.7406 977.4707,-986.7933 1021.3973,-1008.4333 1063.4181,-1045.2094 1092.3788,-1073.971"/>
<polygon fill="#c0c0c0" stroke="#c0c0c0" points="1089.924,-1076.4662 1099.4535,-1081.0965 1094.8915,-1071.5342 1089.924,-1076.4662"/>
</g>
<!-- AppendVersion -->
<g id="node16" class="node">
<title>AppendVersion</title>
<polygon fill="none" stroke="#000000" points="1304.4463,-1061.5935 1304.4463,-1169.9931 1439.0498,-1169.9931 1439.0498,-1061.5935 1304.4463,-1061.5935"/>
<text text-anchor="middle" x="1371.748" y="-1154.7931" font-family="Times,serif" font-size="14.00" fill="#000000">AppendVersion</text>
<polyline fill="none" stroke="#000000" points="1304.4463,-1147.9931 1439.0498,-1147.9931 "/>
<text text-anchor="start" x="1312.4463" y="-1132.7931" font-family="Times,serif" font-size="14.00" fill="#000000">将新的version加入</text>
<text text-anchor="start" x="1312.4463" y="-1113.1932" font-family="Times,serif" font-size="14.00" fill="#000000"> versionSet的链表中</text>
<text text-anchor="start" x="1312.4463" y="-1093.5933" font-family="Times,serif" font-size="14.00" fill="#000000"> 并将current设置为</text>
<text text-anchor="start" x="1312.4463" y="-1073.9934" font-family="Times,serif" font-size="14.00" fill="#000000"> 新的version。</text>
</g>
<!-- Finalize&#45;&gt;AppendVersion -->
<g id="edge10" class="edge">
<title>Finalize&#45;&gt;AppendVersion</title>
<path fill="none" stroke="#c0c0c0" stroke-dasharray="5,2" d="M1209.5827,-1115.7933C1236.7013,-1115.7933 1267.0611,-1115.7933 1294.1136,-1115.7933"/>
<polygon fill="#c0c0c0" stroke="#c0c0c0" points="1294.3062,-1119.2934 1304.3061,-1115.7933 1294.3061,-1112.2934 1294.3062,-1119.2934"/>
</g>
<!-- current_ -->
<g id="node19" class="node">
<title>current_</title>
<polygon fill="none" stroke="#000000" points="1569.6045,-1133.7933 1507.3193,-1133.7933 1507.3193,-1097.7933 1569.6045,-1097.7933 1569.6045,-1133.7933"/>
<text text-anchor="middle" x="1538.4619" y="-1111.5933" font-family="Times,serif" font-size="14.00" fill="#000000">current_</text>
</g>
<!-- AppendVersion&#45;&gt;current_ -->
<g id="edge22" class="edge">
<title>AppendVersion&#45;&gt;current_</title>
<path fill="none" stroke="#000000" d="M1439.0764,-1115.7933C1458.5341,-1115.7933 1479.2027,-1115.7933 1496.6227,-1115.7933"/>
<polygon fill="#000000" stroke="#000000" points="1497.0095,-1119.2934 1507.0094,-1115.7933 1497.0094,-1112.2934 1497.0095,-1119.2934"/>
</g>
<!-- LogAndApply -->
<g id="node17" class="node">
<title>LogAndApply</title>
<polygon fill="none" stroke="#000000" points="212.6553,-746.7937 212.6553,-972.7929 473.6553,-972.7929 473.6553,-746.7937 212.6553,-746.7937"/>
<text text-anchor="middle" x="343.1553" y="-957.5929" font-family="Times,serif" font-size="14.00" fill="#000000">LogAndApply</text>
<polyline fill="none" stroke="#000000" points="212.6553,-950.7929 473.6553,-950.7929 "/>
<text text-anchor="start" x="220.6553" y="-935.5929" font-family="Times,serif" font-size="14.00" fill="#000000">1.将version中的修改apply</text>
<text text-anchor="start" x="220.6553" y="-915.993" font-family="Times,serif" font-size="14.00" fill="#000000"> 到当前version上得到新的version</text>
<text text-anchor="start" x="220.6553" y="-896.393" font-family="Times,serif" font-size="14.00" fill="#000000"> 2.如果是第一次写，则需要写入snapshot</text>
<text text-anchor="start" x="220.6553" y="-876.7931" font-family="Times,serif" font-size="14.00" fill="#000000"> 创建新的manifest文件</text>
<text text-anchor="start" x="220.6553" y="-857.1932" font-family="Times,serif" font-size="14.00" fill="#000000"> 3.将versionEdit写入Manifest日志中</text>
<text text-anchor="start" x="220.6553" y="-837.5933" font-family="Times,serif" font-size="14.00" fill="#000000"> 4.如果是新的mainfest文件</text>
<text text-anchor="start" x="220.6553" y="-817.9934" font-family="Times,serif" font-size="14.00" fill="#000000"> 则需要修改current文件中内容</text>
<text text-anchor="start" x="220.6553" y="-798.3935" font-family="Times,serif" font-size="14.00" fill="#000000"> 指向最新的manfifest文件</text>
<text text-anchor="start" x="220.6553" y="-778.7936" font-family="Times,serif" font-size="14.00" fill="#000000"> 5.将新version加入versionset，</text>
<text text-anchor="start" x="220.6553" y="-759.1936" font-family="Times,serif" font-size="14.00" fill="#000000"> 并修改curent_指针，指向新的version.</text>
</g>
<!-- LogAndApply&#45;&gt;VersionEdit_EncodeTo -->
<g id="edge11" class="edge">
<title>LogAndApply&#45;&gt;VersionEdit_EncodeTo</title>
<path fill="none" stroke="#ff0000" d="M428.0641,-746.4565C452.2646,-719.2142 480.1424,-691.9197 509.6553,-670.7933 613.2459,-596.6393 758.1881,-550.0161 831.4413,-529.6746"/>
<polygon fill="#ff0000" stroke="#ff0000" points="832.569,-532.9947 841.2901,-526.9786 830.7208,-526.2431 832.569,-532.9947"/>
</g>
<!-- LogAndApply&#45;&gt;AddRecord -->
<g id="edge12" class="edge">
<title>LogAndApply&#45;&gt;AddRecord</title>
<path fill="none" stroke="#ff0000" d="M376.7319,-746.6436C432.5748,-579.5555 561.2248,-269.9077 785.9902,-114.7933 872.4894,-55.0988 1174.3489,-4.6016 1256.7842,-69.7933 1311.2385,-112.857 1250.9081,-166.4205 1292.7842,-221.7933 1293.2457,-222.4035 1293.7182,-223.0064 1294.2012,-223.6021"/>
<polygon fill="#ff0000" stroke="#ff0000" points="1291.6515,-226 1301.0223,-230.9436 1296.7797,-221.2353 1291.6515,-226"/>
</g>
<!-- LogAndApply&#45;&gt;Sync -->
<g id="edge13" class="edge">
<title>LogAndApply&#45;&gt;Sync</title>
<path fill="none" stroke="#ff0000" d="M356.3056,-746.6131C379.1987,-567.6299 431.522,-230.3377 509.6553,-140.7933 624.7265,-8.9162 702.7077,-.7933 877.7305,-.7933 877.7305,-.7933 877.7305,-.7933 1131.1274,-.7933 1276.1623,-.7933 1328.8819,11.8995 1450.7119,-66.7933 1479.7651,-85.5594 1502.352,-117.5842 1517.3304,-143.9745"/>
<polygon fill="#ff0000" stroke="#ff0000" points="1514.4286,-145.9618 1522.3092,-153.0432 1520.5646,-142.593 1514.4286,-145.9618"/>
</g>
<!-- LogAndApply&#45;&gt;DescriptorFileName -->
<g id="edge14" class="edge">
<title>LogAndApply&#45;&gt;DescriptorFileName</title>
<path fill="none" stroke="#ff0000" d="M473.8249,-863.88C553.8952,-864.5783 658.2779,-862.2517 749.9902,-849.7933 763.4802,-847.9608 777.6059,-845.2494 791.3417,-842.1672"/>
<polygon fill="#ff0000" stroke="#ff0000" points="792.3105,-845.5354 801.2599,-839.8646 790.7274,-838.7168 792.3105,-845.5354"/>
</g>
<!-- LogAndApply&#45;&gt;WriteSnapshot -->
<g id="edge15" class="edge">
<title>LogAndApply&#45;&gt;WriteSnapshot</title>
<path fill="none" stroke="#ff0000" d="M473.9458,-798.2846C486.0071,-792.6841 498.0504,-787.1186 509.6553,-781.7933 518.1409,-777.8994 526.9758,-773.8742 535.8327,-769.8588"/>
<polygon fill="#ff0000" stroke="#ff0000" points="537.3899,-772.9959 545.0568,-765.6836 534.5033,-766.6187 537.3899,-772.9959"/>
</g>
<!-- LogAndApply&#45;&gt;NewWritableFile -->
<g id="edge16" class="edge">
<title>LogAndApply&#45;&gt;NewWritableFile</title>
<path fill="none" stroke="#ff0000" d="M473.9057,-839.7247C495.3809,-836.4285 517.2358,-833.074 537.522,-829.9603"/>
<polygon fill="#ff0000" stroke="#ff0000" points="538.3071,-833.3809 547.6604,-828.4042 537.2451,-826.4619 538.3071,-833.3809"/>
</g>
<!-- LogAndApply&#45;&gt;Builder_Apply -->
<g id="edge17" class="edge">
<title>LogAndApply&#45;&gt;Builder_Apply</title>
<path fill="none" stroke="#ff0000" d="M473.9057,-895.3695C501.2905,-902.8207 529.2927,-910.4398 553.8722,-917.1278"/>
<polygon fill="#ff0000" stroke="#ff0000" points="553.2582,-920.5879 563.8263,-919.8362 555.0961,-913.8334 553.2582,-920.5879"/>
</g>
<!-- LogAndApply&#45;&gt;Builder_SaveTo -->
<g id="edge18" class="edge">
<title>LogAndApply&#45;&gt;Builder_SaveTo</title>
<path fill="none" stroke="#ff0000" d="M469.4625,-973.0518C482.4174,-980.5443 495.8952,-987.0006 509.6553,-991.7933 610.5272,-1026.9276 643.7535,-1002.8981 749.9902,-991.7933 771.2047,-989.5758 794.083,-985.3403 814.5355,-980.8701"/>
<polygon fill="#ff0000" stroke="#ff0000" points="815.3722,-984.2694 824.363,-978.6645 813.8393,-977.4393 815.3722,-984.2694"/>
</g>
<!-- LogAndApply&#45;&gt;Finalize -->
<g id="edge19" class="edge">
<title>LogAndApply&#45;&gt;Finalize</title>
<path fill="none" stroke="#ff0000" d="M392.8271,-972.9789C420.1617,-1021.8241 458.9572,-1074.7723 509.6553,-1105.7933 598.5652,-1160.1953 873.5501,-1147.8602 977.4707,-1139.7933 998.6179,-1138.1517 1021.2559,-1135.2576 1042.4783,-1132.0343"/>
<polygon fill="#ff0000" stroke="#ff0000" points="1043.1014,-1135.4795 1052.4434,-1130.4817 1042.0237,-1128.5629 1043.1014,-1135.4795"/>
</g>
<!-- LogAndApply&#45;&gt;AppendVersion -->
<g id="edge20" class="edge">
<title>LogAndApply&#45;&gt;AppendVersion</title>
<path fill="none" stroke="#ff0000" d="M383.1615,-972.8403C409.7214,-1030.3461 450.7128,-1095.4092 509.6553,-1130.7933 794.5667,-1301.8303 930.0114,-1220.1898 1256.7842,-1159.7933 1269.3439,-1157.4719 1282.3052,-1153.8363 1294.7959,-1149.6266"/>
<polygon fill="#ff0000" stroke="#ff0000" points="1295.9672,-1152.9249 1304.2415,-1146.3078 1293.6467,-1146.3207 1295.9672,-1152.9249"/>
</g>
<!-- SetCurrentFile -->
<g id="node18" class="node">
<title>SetCurrentFile</title>
<polygon fill="none" stroke="#000000" points="509.6553,-1027.1934 509.6553,-1096.3932 749.9902,-1096.3932 749.9902,-1027.1934 509.6553,-1027.1934"/>
<text text-anchor="middle" x="629.8228" y="-1081.1932" font-family="Times,serif" font-size="14.00" fill="#000000">SetCurrentFile</text>
<polyline fill="none" stroke="#000000" points="509.6553,-1074.3932 749.9902,-1074.3932 "/>
<text text-anchor="start" x="517.6553" y="-1059.1932" font-family="Times,serif" font-size="14.00" fill="#000000">将内容先同步写入临时文件</text>
<text text-anchor="start" x="517.6553" y="-1039.5933" font-family="Times,serif" font-size="14.00" fill="#000000"> 然后通过rename方式修改current文件</text>
</g>
<!-- LogAndApply&#45;&gt;SetCurrentFile -->
<g id="edge21" class="edge">
<title>LogAndApply&#45;&gt;SetCurrentFile</title>
<path fill="none" stroke="#ff0000" d="M444.417,-973.031C462.7056,-989.6402 482.5105,-1005.536 508.4895,-1021.7861"/>
<polygon fill="#ff0000" stroke="#ff0000" points="506.7889,-1024.8486 517.147,-1027.0758 510.4386,-1018.8753 506.7889,-1024.8486"/>
</g>
<!-- SetCurrentFile&#45;&gt;DescriptorFileName -->
<g id="edge26" class="edge">
<title>SetCurrentFile&#45;&gt;DescriptorFileName</title>
<path fill="none" stroke="#0000ff" d="M745.7866,-1026.9584C747.2378,-1025.6218 748.6409,-1024.2341 749.9902,-1022.7933 794.4954,-975.2717 748.7635,-934.2085 785.9902,-880.7933 795.6876,-866.8789 809.5212,-855.0995 823.5142,-845.627"/>
<polygon fill="#0000ff" stroke="#0000ff" points="825.6975,-848.3841 832.2119,-840.0286 821.9088,-842.4979 825.6975,-848.3841"/>
</g>
<!-- WriteStringToFileSync -->
<g id="node20" class="node">
<title>WriteStringToFileSync</title>
<polygon fill="none" stroke="#000000" points="804.7822,-1080.9933 804.7822,-1130.5933 950.6787,-1130.5933 950.6787,-1080.9933 804.7822,-1080.9933"/>
<text text-anchor="middle" x="877.7305" y="-1115.3933" font-family="Times,serif" font-size="14.00" fill="#000000">WriteStringToFileSync</text>
<polyline fill="none" stroke="#000000" points="804.7822,-1108.5933 950.6787,-1108.5933 "/>
<text text-anchor="start" x="812.7822" y="-1093.3933" font-family="Times,serif" font-size="14.00" fill="#000000">同步的写入文件</text>
</g>
<!-- SetCurrentFile&#45;&gt;WriteStringToFileSync -->
<g id="edge27" class="edge">
<title>SetCurrentFile&#45;&gt;WriteStringToFileSync</title>
<path fill="none" stroke="#0000ff" d="M750.1456,-1083.1489C765.1355,-1085.8093 780.1963,-1088.4824 794.4501,-1091.0122"/>
<polygon fill="#0000ff" stroke="#0000ff" points="794.2161,-1094.5253 804.6738,-1092.8268 795.4394,-1087.6331 794.2161,-1094.5253"/>
</g>
<!-- RenameFile -->
<g id="node21" class="node">
<title>RenameFile</title>
<polygon fill="none" stroke="#000000" points="919.3796,-1062.7933 836.0813,-1062.7933 836.0813,-1026.7933 919.3796,-1026.7933 919.3796,-1062.7933"/>
<text text-anchor="middle" x="877.7305" y="-1040.5933" font-family="Times,serif" font-size="14.00" fill="#000000">RenameFile</text>
</g>
<!-- SetCurrentFile&#45;&gt;RenameFile -->
<g id="edge28" class="edge">
<title>SetCurrentFile&#45;&gt;RenameFile</title>
<path fill="none" stroke="#0000ff" d="M750.1456,-1053.5423C776.7705,-1051.7165 803.6189,-1049.8754 825.7716,-1048.3563"/>
<polygon fill="#0000ff" stroke="#0000ff" points="826.1867,-1051.8362 835.9238,-1047.6601 825.7078,-1044.8526 826.1867,-1051.8362"/>
</g>
<!-- CompactMemTable -->
<g id="node22" class="node">
<title>CompactMemTable</title>
<polygon fill="none" stroke="#000000" points="159.8159,-958.7933 32.8394,-958.7933 32.8394,-922.7933 159.8159,-922.7933 159.8159,-958.7933"/>
<text text-anchor="middle" x="96.3276" y="-936.5933" font-family="Times,serif" font-size="14.00" fill="#000000">CompactMemTable</text>
</g>
<!-- CompactMemTable&#45;&gt;LogAndApply -->
<g id="edge30" class="edge">
<title>CompactMemTable&#45;&gt;LogAndApply</title>
<path fill="none" stroke="#000000" d="M156.2741,-922.7493C165.7846,-919.8059 175.5002,-916.7513 184.6553,-913.7933 190.5552,-911.8871 196.5721,-909.9236 202.6457,-907.9258"/>
<polygon fill="#000000" stroke="#000000" points="203.8299,-911.2207 212.2279,-904.7612 201.6347,-904.5738 203.8299,-911.2207"/>
</g>
<!-- BackgroundCompaction -->
<g id="node23" class="node">
<title>BackgroundCompaction</title>
<polygon fill="none" stroke="#000000" points="172.69,-904.7933 19.9653,-904.7933 19.9653,-868.7933 172.69,-868.7933 172.69,-904.7933"/>
<text text-anchor="middle" x="96.3276" y="-882.5933" font-family="Times,serif" font-size="14.00" fill="#000000">BackgroundCompaction</text>
</g>
<!-- BackgroundCompaction&#45;&gt;LogAndApply -->
<g id="edge31" class="edge">
<title>BackgroundCompaction&#45;&gt;LogAndApply</title>
<path fill="none" stroke="#000000" d="M172.7351,-878.4352C182.292,-877.3898 192.291,-876.2961 202.4495,-875.1848"/>
<polygon fill="#000000" stroke="#000000" points="203.0906,-878.6357 212.6506,-874.069 202.3293,-871.6772 203.0906,-878.6357"/>
</g>
<!-- InstallCompactionResults -->
<g id="node24" class="node">
<title>InstallCompactionResults</title>
<polygon fill="none" stroke="#000000" points="176.4833,-850.7933 16.172,-850.7933 16.172,-814.7933 176.4833,-814.7933 176.4833,-850.7933"/>
<text text-anchor="middle" x="96.3276" y="-828.5933" font-family="Times,serif" font-size="14.00" fill="#000000">InstallCompactionResults</text>
</g>
<!-- InstallCompactionResults&#45;&gt;LogAndApply -->
<g id="edge32" class="edge">
<title>InstallCompactionResults&#45;&gt;LogAndApply</title>
<path fill="none" stroke="#000000" d="M176.8067,-841.5968C185.1883,-842.5136 193.8716,-843.4635 202.6731,-844.4262"/>
<polygon fill="#000000" stroke="#000000" points="202.3293,-847.9094 212.6506,-845.5177 203.0906,-840.9509 202.3293,-847.9094"/>
</g>
<!-- DBImpl_Open -->
<g id="node25" class="node">
<title>DBImpl_Open</title>
<polygon fill="none" stroke="#000000" points="146.0417,-796.7933 46.6135,-796.7933 46.6135,-760.7933 146.0417,-760.7933 146.0417,-796.7933"/>
<text text-anchor="middle" x="96.3276" y="-774.5933" font-family="Times,serif" font-size="14.00" fill="#000000">DBImpl_Open</text>
</g>
<!-- DBImpl_Open&#45;&gt;LogAndApply -->
<g id="edge33" class="edge">
<title>DBImpl_Open&#45;&gt;LogAndApply</title>
<path fill="none" stroke="#000000" d="M146.3963,-793.7965C158.915,-797.6307 172.2959,-801.8 184.6553,-805.7933 190.5552,-807.6995 196.5721,-809.663 202.6457,-811.6608"/>
<polygon fill="#000000" stroke="#000000" points="201.6347,-815.0128 212.2279,-814.8254 203.8299,-808.3659 201.6347,-815.0128"/>
</g>
</g>
</svg>
