<?xml version="1.0" encoding="UTF-8" standalone="no"?>
<!DOCTYPE svg PUBLIC "-//W3C//DTD SVG 1.1//EN"
 "http://www.w3.org/Graphics/SVG/1.1/DTD/svg11.dtd">
<!-- Generated by graphviz version 2.40.1 (20161225.0304)
 -->
<!-- Title: async_write Pages: 1 -->
<svg width="457pt" height="193pt"
 viewBox="0.00 0.00 456.50 193.00" xmlns="http://www.w3.org/2000/svg" xmlns:xlink="http://www.w3.org/1999/xlink">
<g id="graph0" class="graph" transform="scale(1 1) rotate(0) translate(4 189)">
<title>async_write</title>
<polygon fill="#ffffff" stroke="transparent" points="-4,4 -4,-189 452.5,-189 452.5,4 -4,4"/>
<!-- AsyncWrite -->
<g id="node1" class="node">
<title>AsyncWrite</title>
<polygon fill="none" stroke="#000000" points="0,-35 0,-150 97,-150 97,-35 0,-35"/>
<text text-anchor="middle" x="48.5" y="-134.8" font-family="Times,serif" font-size="14.00" fill="#000000">AsyncWrite</text>
<polyline fill="none" stroke="#000000" points="0,-127 97,-127 "/>
<text text-anchor="start" x="8" y="-111.8" font-family="Times,serif" font-size="14.00" fill="#000000">poll_write</text>
<polyline fill="none" stroke="#000000" points="0,-104 97,-104 "/>
<text text-anchor="start" x="8" y="-88.8" font-family="Times,serif" font-size="14.00" fill="#000000">poll_write_buf</text>
<polyline fill="none" stroke="#000000" points="0,-81 97,-81 "/>
<text text-anchor="start" x="8" y="-65.8" font-family="Times,serif" font-size="14.00" fill="#000000">poll_flush</text>
<polyline fill="none" stroke="#000000" points="0,-58 97,-58 "/>
<text text-anchor="start" x="8" y="-42.8" font-family="Times,serif" font-size="14.00" fill="#000000">poll_shutdown</text>
</g>
<!-- net -->
<g id="node2" class="node">
<title>net</title>
<polygon fill="none" stroke="#000000" points="115,-.5 115,-184.5 198,-184.5 198,-.5 115,-.5"/>
<text text-anchor="middle" x="156.5" y="-169.3" font-family="Times,serif" font-size="14.00" fill="#000000">net</text>
<polyline fill="none" stroke="#000000" points="115,-161.5 198,-161.5 "/>
<text text-anchor="start" x="123" y="-146.3" font-family="Times,serif" font-size="14.00" fill="#000000">TcpStream</text>
<polyline fill="none" stroke="#000000" points="115,-138.5 198,-138.5 "/>
<text text-anchor="start" x="123" y="-123.3" font-family="Times,serif" font-size="14.00" fill="#000000">UnixStream</text>
<polyline fill="none" stroke="#000000" points="115,-115.5 198,-115.5 "/>
<text text-anchor="start" x="123" y="-100.3" font-family="Times,serif" font-size="14.00" fill="#000000">WriteHalf</text>
<polyline fill="none" stroke="#000000" points="115,-92.5 198,-92.5 "/>
<text text-anchor="start" x="123" y="-77.3" font-family="Times,serif" font-size="14.00" fill="#000000">ChildStdout</text>
<polyline fill="none" stroke="#000000" points="115,-69.5 198,-69.5 "/>
<text text-anchor="start" x="123" y="-54.3" font-family="Times,serif" font-size="14.00" fill="#000000">ChildStdin</text>
<polyline fill="none" stroke="#000000" points="115,-46.5 198,-46.5 "/>
<text text-anchor="start" x="123" y="-31.3" font-family="Times,serif" font-size="14.00" fill="#000000">PollEvented</text>
<polyline fill="none" stroke="#000000" points="115,-23.5 198,-23.5 "/>
<text text-anchor="start" x="123" y="-8.3" font-family="Times,serif" font-size="14.00" fill="#000000">BufStream</text>
</g>
<!-- io -->
<g id="node3" class="node">
<title>io</title>
<polygon fill="none" stroke="#000000" points="216.5,-23.5 216.5,-161.5 292.5,-161.5 292.5,-23.5 216.5,-23.5"/>
<text text-anchor="middle" x="254.5" y="-146.3" font-family="Times,serif" font-size="14.00" fill="#000000">io</text>
<polyline fill="none" stroke="#000000" points="216.5,-138.5 292.5,-138.5 "/>
<text text-anchor="start" x="224.5" y="-123.3" font-family="Times,serif" font-size="14.00" fill="#000000">Take</text>
<polyline fill="none" stroke="#000000" points="216.5,-115.5 292.5,-115.5 "/>
<text text-anchor="start" x="224.5" y="-100.3" font-family="Times,serif" font-size="14.00" fill="#000000">Chain</text>
<polyline fill="none" stroke="#000000" points="216.5,-92.5 292.5,-92.5 "/>
<text text-anchor="start" x="224.5" y="-77.3" font-family="Times,serif" font-size="14.00" fill="#000000">BufReader</text>
<polyline fill="none" stroke="#000000" points="216.5,-69.5 292.5,-69.5 "/>
<text text-anchor="start" x="224.5" y="-54.3" font-family="Times,serif" font-size="14.00" fill="#000000">BufWriter</text>
<polyline fill="none" stroke="#000000" points="216.5,-46.5 292.5,-46.5 "/>
<text text-anchor="start" x="224.5" y="-31.3" font-family="Times,serif" font-size="14.00" fill="#000000">BufStream</text>
</g>
<!-- fs -->
<g id="node4" class="node">
<title>fs</title>
<polygon fill="none" stroke="#000000" points="310.5,-35 310.5,-150 376.5,-150 376.5,-35 310.5,-35"/>
<text text-anchor="middle" x="343.5" y="-134.8" font-family="Times,serif" font-size="14.00" fill="#000000">fs</text>
<polyline fill="none" stroke="#000000" points="310.5,-127 376.5,-127 "/>
<text text-anchor="start" x="318.5" y="-111.8" font-family="Times,serif" font-size="14.00" fill="#000000">Blocking</text>
<polyline fill="none" stroke="#000000" points="310.5,-104 376.5,-104 "/>
<text text-anchor="start" x="318.5" y="-88.8" font-family="Times,serif" font-size="14.00" fill="#000000">File</text>
<polyline fill="none" stroke="#000000" points="310.5,-81 376.5,-81 "/>
<text text-anchor="start" x="318.5" y="-65.8" font-family="Times,serif" font-size="14.00" fill="#000000">Stdout</text>
<polyline fill="none" stroke="#000000" points="310.5,-58 376.5,-58 "/>
<text text-anchor="start" x="318.5" y="-42.8" font-family="Times,serif" font-size="14.00" fill="#000000">Stderr</text>
</g>
<!-- Vec -->
<g id="node5" class="node">
<title>Vec</title>
<polygon fill="none" stroke="#000000" points="448.5,-110.5 394.5,-110.5 394.5,-74.5 448.5,-74.5 448.5,-110.5"/>
<text text-anchor="middle" x="421.5" y="-88.8" font-family="Times,serif" font-size="14.00" fill="#000000">Vec</text>
</g>
</g>
</svg>
