<?xml version="1.0" encoding="UTF-8" standalone="no"?>
<!DOCTYPE svg PUBLIC "-//W3C//DTD SVG 1.1//EN"
 "http://www.w3.org/Graphics/SVG/1.1/DTD/svg11.dtd">
<!-- Generated by graphviz version 2.40.1 (20161225.0304)
 -->
<!-- Title: executor Pages: 1 -->
<svg width="500pt" height="310pt"
 viewBox="0.00 0.00 500.00 310.00" xmlns="http://www.w3.org/2000/svg" xmlns:xlink="http://www.w3.org/1999/xlink">
<g id="graph0" class="graph" transform="scale(1 1) rotate(0) translate(4 306)">
<title>executor</title>
<polygon fill="#ffffff" stroke="transparent" points="-4,4 -4,-306 496,-306 496,4 -4,4"/>
<g id="clust1" class="cluster">
<title>cluster_trait</title>
<polygon fill="none" stroke="#000000" points="99,-8 99,-132 384,-132 384,-8 99,-8"/>
<text text-anchor="middle" x="241.5" y="-116.8" font-family="Times,serif" font-size="14.00" fill="#000000">trait</text>
</g>
<g id="clust2" class="cluster">
<title>cluster_currentThread</title>
<polygon fill="none" stroke="#000000" points="8,-140 8,-294 230,-294 230,-140 8,-140"/>
<text text-anchor="middle" x="119" y="-278.8" font-family="Times,serif" font-size="14.00" fill="#000000">current_thread</text>
</g>
<g id="clust5" class="cluster">
<title>cluster_threadpool</title>
<polygon fill="none" stroke="#000000" points="238,-143.5 238,-290.5 376,-290.5 376,-143.5 238,-143.5"/>
<text text-anchor="middle" x="307" y="-275.3" font-family="Times,serif" font-size="14.00" fill="#000000">thread pool</text>
</g>
<!-- Executor -->
<g id="node1" class="node">
<title>Executor</title>
<polygon fill="none" stroke="#000000" points="250.5,-16.5 250.5,-100.5 375.5,-100.5 375.5,-16.5 250.5,-16.5"/>
<text text-anchor="middle" x="313" y="-85.3" font-family="Times,serif" font-size="14.00" fill="#000000">trait Executor</text>
<polyline fill="none" stroke="#000000" points="250.5,-77.5 375.5,-77.5 "/>
<text text-anchor="start" x="258.5" y="-62.3" font-family="Times,serif" font-size="14.00" fill="#000000">+spawn </text>
<text text-anchor="start" x="258.5" y="-47.3" font-family="Times,serif" font-size="14.00" fill="#000000"> +status</text>
<polyline fill="none" stroke="#000000" points="250.5,-39.5 375.5,-39.5 "/>
<text text-anchor="start" x="258.5" y="-24.3" font-family="Times,serif" font-size="14.00" fill="#000000">spawn_with_handle</text>
</g>
<!-- TypedExecutor -->
<g id="node2" class="node">
<title>TypedExecutor</title>
<polygon fill="none" stroke="#000000" points="107.5,-28 107.5,-89 232.5,-89 232.5,-28 107.5,-28"/>
<text text-anchor="middle" x="170" y="-73.8" font-family="Times,serif" font-size="14.00" fill="#000000">trait TypedExecutor</text>
<polyline fill="none" stroke="#000000" points="107.5,-66 232.5,-66 "/>
<text text-anchor="start" x="115.5" y="-50.8" font-family="Times,serif" font-size="14.00" fill="#000000">+spawn </text>
<text text-anchor="start" x="115.5" y="-35.8" font-family="Times,serif" font-size="14.00" fill="#000000"> +status</text>
</g>
<!-- TaskExecutor -->
<g id="node3" class="node">
<title>TaskExecutor</title>
<polygon fill="none" stroke="#000000" points="130,-148.5 130,-262.5 222,-262.5 222,-148.5 130,-148.5"/>
<text text-anchor="middle" x="176" y="-247.3" font-family="Times,serif" font-size="14.00" fill="#000000">TaskExecutor</text>
<polyline fill="none" stroke="#000000" points="130,-239.5 222,-239.5 "/>
<text text-anchor="start" x="138" y="-224.3" font-family="Times,serif" font-size="14.00" fill="#000000">+ spawn </text>
<text text-anchor="start" x="138" y="-209.3" font-family="Times,serif" font-size="14.00" fill="#000000"> + status </text>
<polyline fill="none" stroke="#000000" points="130,-201.5 222,-201.5 "/>
<text text-anchor="start" x="138" y="-186.3" font-family="Times,serif" font-size="14.00" fill="#000000">current</text>
<text text-anchor="start" x="138" y="-171.3" font-family="Times,serif" font-size="14.00" fill="#000000"> id</text>
<text text-anchor="start" x="138" y="-156.3" font-family="Times,serif" font-size="14.00" fill="#000000"> spawn_local</text>
</g>
<!-- TaskExecutor&#45;&gt;Executor -->
<g id="edge1" class="edge">
<title>TaskExecutor&#45;&gt;Executor</title>
<path fill="none" stroke="#000000" d="M222.0116,-153.1118C226.041,-148.654 230.0772,-144.2338 234,-140 243.5916,-129.6479 253.9994,-118.7094 264.016,-108.3229"/>
<polygon fill="#000000" stroke="#000000" points="266.7852,-110.4943 271.2233,-100.8738 261.7544,-105.6269 266.7852,-110.4943"/>
</g>
<!-- TaskExecutor&#45;&gt;TypedExecutor -->
<g id="edge2" class="edge">
<title>TaskExecutor&#45;&gt;TypedExecutor</title>
<path fill="none" stroke="#000000" d="M173.6631,-148.245C172.9947,-131.87 172.2801,-114.3626 171.6612,-99.1986"/>
<polygon fill="#000000" stroke="#000000" points="175.1547,-98.9664 171.2497,-89.1175 168.1605,-99.252 175.1547,-98.9664"/>
</g>
<!-- CurrentThread -->
<g id="node4" class="node">
<title>CurrentThread</title>
<polygon fill="none" stroke="#000000" points="16,-187.5 16,-223.5 112,-223.5 112,-187.5 16,-187.5"/>
<text text-anchor="middle" x="64" y="-201.8" font-family="Times,serif" font-size="14.00" fill="#000000">CurrentThread</text>
</g>
<!-- CurrentThread&#45;&gt;Executor -->
<g id="edge3" class="edge">
<title>CurrentThread&#45;&gt;Executor</title>
<path fill="none" stroke="#000000" d="M74.2232,-187.2015C84.0151,-171.6458 100.3399,-150.252 121,-140 144.9404,-128.1202 216.7198,-143.1689 241,-132 253.2852,-126.3488 264.6008,-117.6125 274.4459,-108.1099"/>
<polygon fill="#000000" stroke="#000000" points="277.1777,-110.3231 281.6796,-100.7323 272.1794,-105.4223 277.1777,-110.3231"/>
</g>
<!-- CurrentThread&#45;&gt;TypedExecutor -->
<g id="edge4" class="edge">
<title>CurrentThread&#45;&gt;TypedExecutor</title>
<path fill="none" stroke="#000000" d="M76.9977,-187.4749C93.0486,-165.2156 120.8022,-126.7272 141.8244,-97.5737"/>
<polygon fill="#000000" stroke="#000000" points="144.8254,-99.396 147.8354,-89.2377 139.1476,-95.3017 144.8254,-99.396"/>
</g>
<!-- Sender -->
<g id="node5" class="node">
<title>Sender</title>
<polygon fill="none" stroke="#000000" points="246.5,-152 246.5,-259 367.5,-259 367.5,-152 246.5,-152"/>
<text text-anchor="middle" x="307" y="-243.8" font-family="Times,serif" font-size="14.00" fill="#000000">Sender</text>
<polyline fill="none" stroke="#000000" points="246.5,-236 367.5,-236 "/>
<text text-anchor="start" x="254.5" y="-220.8" font-family="Times,serif" font-size="14.00" fill="#000000">+ spawn </text>
<text text-anchor="start" x="254.5" y="-205.8" font-family="Times,serif" font-size="14.00" fill="#000000"> + status </text>
<polyline fill="none" stroke="#000000" points="246.5,-198 367.5,-198 "/>
<text text-anchor="start" x="254.5" y="-182.8" font-family="Times,serif" font-size="14.00" fill="#000000">pool </text>
<polyline fill="none" stroke="#000000" points="246.5,-175 367.5,-175 "/>
<text text-anchor="start" x="254.5" y="-159.8" font-family="Times,serif" font-size="14.00" fill="#000000">prepare_for_spawn</text>
</g>
<!-- Sender&#45;&gt;Executor -->
<g id="edge5" class="edge">
<title>Sender&#45;&gt;Executor</title>
<path fill="none" stroke="#000000" d="M309.2001,-151.5973C309.7385,-138.4074 310.3139,-124.3091 310.8499,-111.1774"/>
<polygon fill="#000000" stroke="#000000" points="314.359,-111.0235 311.2698,-100.889 307.3648,-110.7379 314.359,-111.0235"/>
</g>
<!-- Sender&#45;&gt;TypedExecutor -->
<g id="edge6" class="edge">
<title>Sender&#45;&gt;TypedExecutor</title>
<path fill="none" stroke="#000000" d="M256.7642,-151.5973C239.8108,-133.4065 221.2472,-113.4879 205.657,-96.7597"/>
<polygon fill="#000000" stroke="#000000" points="208.098,-94.2453 198.7197,-89.316 202.9771,-99.0178 208.098,-94.2453"/>
</g>
<!-- DefaultExecutor -->
<g id="node6" class="node">
<title>DefaultExecutor</title>
<polygon fill="none" stroke="#000000" points="386,-156 386,-255 492,-255 492,-156 386,-156"/>
<text text-anchor="middle" x="439" y="-239.8" font-family="Times,serif" font-size="14.00" fill="#000000">DefaultExecutor</text>
<polyline fill="none" stroke="#000000" points="386,-232 492,-232 "/>
<text text-anchor="start" x="394" y="-216.8" font-family="Times,serif" font-size="14.00" fill="#000000">+ spawn </text>
<text text-anchor="start" x="394" y="-201.8" font-family="Times,serif" font-size="14.00" fill="#000000"> + status</text>
<polyline fill="none" stroke="#000000" points="386,-194 492,-194 "/>
<text text-anchor="start" x="394" y="-178.8" font-family="Times,serif" font-size="14.00" fill="#000000">current </text>
<text text-anchor="start" x="394" y="-163.8" font-family="Times,serif" font-size="14.00" fill="#000000"> with_current</text>
</g>
<!-- DefaultExecutor&#45;&gt;Executor -->
<g id="edge7" class="edge">
<title>DefaultExecutor&#45;&gt;Executor</title>
<path fill="none" stroke="#000000" d="M396.3421,-155.7325C383.3318,-140.5537 369.0248,-123.8622 355.9924,-108.6578"/>
<polygon fill="#000000" stroke="#000000" points="358.4724,-106.173 349.3071,-100.8582 353.1576,-110.7286 358.4724,-106.173"/>
</g>
<!-- DefaultExecutor&#45;&gt;TypedExecutor -->
<g id="edge8" class="edge">
<title>DefaultExecutor&#45;&gt;TypedExecutor</title>
<path fill="none" stroke="#000000" d="M402.4174,-155.7784C395.6613,-149.4956 388.1397,-143.9092 380,-140 352.3097,-126.7014 269.9625,-144.7163 242,-132 225.0092,-124.2732 209.8932,-110.6087 197.9523,-97.141"/>
<polygon fill="#000000" stroke="#000000" points="200.4308,-94.6518 191.2984,-89.2806 195.088,-99.1745 200.4308,-94.6518"/>
</g>
</g>
</svg>
