<?xml version="1.0" encoding="UTF-8" standalone="no"?>
<!DOCTYPE svg PUBLIC "-//W3C//DTD SVG 1.1//EN"
 "http://www.w3.org/Graphics/SVG/1.1/DTD/svg11.dtd">
<!-- Generated by graphviz version 2.40.1 (20161225.0304)
 -->
<!-- Title: parkthread Pages: 1 -->
<svg width="511pt" height="398pt"
 viewBox="0.00 0.00 511.00 398.00" xmlns="http://www.w3.org/2000/svg" xmlns:xlink="http://www.w3.org/1999/xlink">
<g id="graph0" class="graph" transform="scale(1 1) rotate(0) translate(4 394)">
<title>parkthread</title>
<polygon fill="#ffffff" stroke="transparent" points="-4,4 -4,-394 507,-394 507,4 -4,4"/>
<g id="clust1" class="cluster">
<title>cluster_park</title>
<polygon fill="none" stroke="#000000" points="138,-300 138,-382 387,-382 387,-300 138,-300"/>
<text text-anchor="middle" x="262.5" y="-362" font-family="Times,serif" font-size="20.00" fill="#000000">park</text>
</g>
<g id="clust2" class="cluster">
<title>cluster_ParkThread</title>
<polygon fill="none" stroke="#000000" points="8,-8 8,-281 495,-281 495,-8 8,-8"/>
<text text-anchor="middle" x="251.5" y="-261" font-family="Times,serif" font-size="20.00" fill="#000000">ParkThread</text>
</g>
<g id="clust3" class="cluster">
<title>cluster_Inner</title>
<polygon fill="none" stroke="#000000" points="226,-16 226,-180 487,-180 487,-16 226,-16"/>
<text text-anchor="middle" x="356.5" y="-164" font-family="Times,serif" font-size="15.00" fill="#000000">Inner</text>
</g>
<!-- unpark -->
<g id="node1" class="node">
<title>unpark</title>
<path fill="none" stroke="#000000" d="M188,-344C188,-344 158,-344 158,-344 152,-344 146,-338 146,-332 146,-332 146,-320 146,-320 146,-314 152,-308 158,-308 158,-308 188,-308 188,-308 194,-308 200,-314 200,-320 200,-320 200,-332 200,-332 200,-338 194,-344 188,-344"/>
<text text-anchor="middle" x="173" y="-322.3" font-family="Times,serif" font-size="14.00" fill="#000000">unpark</text>
</g>
<!-- pt_unpark -->
<g id="node11" class="node">
<title>pt_unpark</title>
<path fill="none" stroke="#000000" d="M188,-243C188,-243 158,-243 158,-243 152,-243 146,-237 146,-231 146,-231 146,-219 146,-219 146,-213 152,-207 158,-207 158,-207 188,-207 188,-207 194,-207 200,-213 200,-219 200,-219 200,-231 200,-231 200,-237 194,-243 188,-243"/>
<text text-anchor="middle" x="173" y="-221.3" font-family="Times,serif" font-size="14.00" fill="#000000">unpark</text>
</g>
<!-- unpark&#45;&gt;pt_unpark -->
<g id="edge13" class="edge">
<title>unpark&#45;&gt;pt_unpark</title>
<path fill="none" stroke="#000000" d="M173,-307.9432C173,-292.813 173,-270.9448 173,-253.461"/>
<polygon fill="#000000" stroke="#000000" points="176.5001,-253.2409 173,-243.241 169.5001,-253.241 176.5001,-253.2409"/>
</g>
<!-- park -->
<g id="node2" class="node">
<title>park</title>
<path fill="none" stroke="#000000" d="M260,-344C260,-344 230,-344 230,-344 224,-344 218,-338 218,-332 218,-332 218,-320 218,-320 218,-314 224,-308 230,-308 230,-308 260,-308 260,-308 266,-308 272,-314 272,-320 272,-320 272,-332 272,-332 272,-338 266,-344 260,-344"/>
<text text-anchor="middle" x="245" y="-322.3" font-family="Times,serif" font-size="14.00" fill="#000000">park</text>
</g>
<!-- pt_park -->
<g id="node9" class="node">
<title>pt_park</title>
<path fill="none" stroke="#000000" d="M260,-243C260,-243 230,-243 230,-243 224,-243 218,-237 218,-231 218,-231 218,-219 218,-219 218,-213 224,-207 230,-207 230,-207 260,-207 260,-207 266,-207 272,-213 272,-219 272,-219 272,-231 272,-231 272,-237 266,-243 260,-243"/>
<text text-anchor="middle" x="245" y="-221.3" font-family="Times,serif" font-size="14.00" fill="#000000">park</text>
</g>
<!-- park&#45;&gt;pt_park -->
<g id="edge11" class="edge">
<title>park&#45;&gt;pt_park</title>
<path fill="none" stroke="#000000" d="M245,-307.9432C245,-292.813 245,-270.9448 245,-253.461"/>
<polygon fill="#000000" stroke="#000000" points="248.5001,-253.2409 245,-243.241 241.5001,-253.241 248.5001,-253.2409"/>
</g>
<!-- park_timeout -->
<g id="node3" class="node">
<title>park_timeout</title>
<path fill="none" stroke="#000000" d="M367.5,-344C367.5,-344 302.5,-344 302.5,-344 296.5,-344 290.5,-338 290.5,-332 290.5,-332 290.5,-320 290.5,-320 290.5,-314 296.5,-308 302.5,-308 302.5,-308 367.5,-308 367.5,-308 373.5,-308 379.5,-314 379.5,-320 379.5,-320 379.5,-332 379.5,-332 379.5,-338 373.5,-344 367.5,-344"/>
<text text-anchor="middle" x="335" y="-322.3" font-family="Times,serif" font-size="14.00" fill="#000000">park_timeout</text>
</g>
<!-- pt_park_timeout -->
<g id="node10" class="node">
<title>pt_park_timeout</title>
<path fill="none" stroke="#000000" d="M367.5,-243C367.5,-243 302.5,-243 302.5,-243 296.5,-243 290.5,-237 290.5,-231 290.5,-231 290.5,-219 290.5,-219 290.5,-213 296.5,-207 302.5,-207 302.5,-207 367.5,-207 367.5,-207 373.5,-207 379.5,-213 379.5,-219 379.5,-219 379.5,-231 379.5,-231 379.5,-237 373.5,-243 367.5,-243"/>
<text text-anchor="middle" x="335" y="-221.3" font-family="Times,serif" font-size="14.00" fill="#000000">park_timeout</text>
</g>
<!-- park_timeout&#45;&gt;pt_park_timeout -->
<g id="edge12" class="edge">
<title>park_timeout&#45;&gt;pt_park_timeout</title>
<path fill="none" stroke="#000000" d="M335,-307.9432C335,-292.813 335,-270.9448 335,-253.461"/>
<polygon fill="#000000" stroke="#000000" points="338.5001,-253.2409 335,-243.241 331.5001,-253.241 338.5001,-253.2409"/>
</g>
<!-- mutex -->
<g id="node4" class="node">
<title>mutex</title>
<path fill="none" stroke="#000000" d="M326,-60C326,-60 296,-60 296,-60 290,-60 284,-54 284,-48 284,-48 284,-36 284,-36 284,-30 290,-24 296,-24 296,-24 326,-24 326,-24 332,-24 338,-30 338,-36 338,-36 338,-48 338,-48 338,-54 332,-60 326,-60"/>
<text text-anchor="middle" x="311" y="-38.3" font-family="Times,serif" font-size="14.00" fill="#000000">mutex</text>
</g>
<!-- condvar -->
<g id="node5" class="node">
<title>condvar</title>
<path fill="none" stroke="#000000" d="M404,-60C404,-60 368,-60 368,-60 362,-60 356,-54 356,-48 356,-48 356,-36 356,-36 356,-30 362,-24 368,-24 368,-24 404,-24 404,-24 410,-24 416,-30 416,-36 416,-36 416,-48 416,-48 416,-54 410,-60 404,-60"/>
<text text-anchor="middle" x="386" y="-38.3" font-family="Times,serif" font-size="14.00" fill="#000000">condvar</text>
</g>
<!-- inner_park_timeout -->
<g id="node6" class="node">
<title>inner_park_timeout</title>
<path fill="none" stroke="#000000" d="M467.5,-147C467.5,-147 402.5,-147 402.5,-147 396.5,-147 390.5,-141 390.5,-135 390.5,-135 390.5,-123 390.5,-123 390.5,-117 396.5,-111 402.5,-111 402.5,-111 467.5,-111 467.5,-111 473.5,-111 479.5,-117 479.5,-123 479.5,-123 479.5,-135 479.5,-135 479.5,-141 473.5,-147 467.5,-147"/>
<text text-anchor="middle" x="435" y="-125.3" font-family="Times,serif" font-size="14.00" fill="#000000">park_timeout</text>
</g>
<!-- inner_park -->
<g id="node7" class="node">
<title>inner_park</title>
<path fill="none" stroke="#000000" d="M360,-147C360,-147 330,-147 330,-147 324,-147 318,-141 318,-135 318,-135 318,-123 318,-123 318,-117 324,-111 330,-111 330,-111 360,-111 360,-111 366,-111 372,-117 372,-123 372,-123 372,-135 372,-135 372,-141 366,-147 360,-147"/>
<text text-anchor="middle" x="345" y="-125.3" font-family="Times,serif" font-size="14.00" fill="#000000">park</text>
</g>
<!-- inner_park&#45;&gt;mutex -->
<g id="edge1" class="edge">
<title>inner_park&#45;&gt;mutex</title>
<path fill="none" stroke="#000000" d="M334.4132,-110.6531C331.4526,-105.0916 328.3936,-98.8928 326,-93 323.039,-85.7105 320.3867,-77.6204 318.1658,-70.0711"/>
<polygon fill="#000000" stroke="#000000" points="321.48,-68.926 315.4163,-60.238 314.7386,-70.8111 321.48,-68.926"/>
<text text-anchor="middle" x="338" y="-81.8" font-family="Times,serif" font-size="14.00" fill="#000000">lock</text>
</g>
<!-- inner_park&#45;&gt;condvar -->
<g id="edge2" class="edge">
<title>inner_park&#45;&gt;condvar</title>
<path fill="none" stroke="#000000" d="M353.4952,-110.9735C359.1575,-98.9585 366.7064,-82.9401 373.1041,-69.3646"/>
<polygon fill="#000000" stroke="#000000" points="376.4187,-70.5413 377.5157,-60.0034 370.0866,-67.5571 376.4187,-70.5413"/>
<text text-anchor="middle" x="403.5" y="-81.8" font-family="Times,serif" font-size="14.00" fill="#000000">wait_timeout</text>
</g>
<!-- inner_unparker -->
<g id="node8" class="node">
<title>inner_unparker</title>
<path fill="none" stroke="#000000" d="M287.5,-147C287.5,-147 246.5,-147 246.5,-147 240.5,-147 234.5,-141 234.5,-135 234.5,-135 234.5,-123 234.5,-123 234.5,-117 240.5,-111 246.5,-111 246.5,-111 287.5,-111 287.5,-111 293.5,-111 299.5,-117 299.5,-123 299.5,-123 299.5,-135 299.5,-135 299.5,-141 293.5,-147 287.5,-147"/>
<text text-anchor="middle" x="267" y="-125.3" font-family="Times,serif" font-size="14.00" fill="#000000">unparker</text>
</g>
<!-- pt_park&#45;&gt;inner_park -->
<g id="edge7" class="edge">
<title>pt_park&#45;&gt;inner_park</title>
<path fill="none" stroke="#000000" d="M272.1134,-208.9204C284.1507,-201.0591 298.0408,-190.939 309,-180 316.287,-172.7264 323.1233,-163.8279 328.8399,-155.5122"/>
<polygon fill="#000000" stroke="#000000" points="331.7724,-157.4229 334.3637,-147.1498 325.9316,-153.5646 331.7724,-157.4229"/>
</g>
<!-- pt_with_current -->
<g id="node12" class="node">
<title>pt_with_current</title>
<path fill="none" stroke="#000000" d="M204,-147C204,-147 142,-147 142,-147 136,-147 130,-141 130,-135 130,-135 130,-123 130,-123 130,-117 136,-111 142,-111 142,-111 204,-111 204,-111 210,-111 216,-117 216,-123 216,-123 216,-135 216,-135 216,-141 210,-147 204,-147"/>
<text text-anchor="middle" x="173" y="-125.3" font-family="Times,serif" font-size="14.00" fill="#000000">with_current</text>
</g>
<!-- pt_park&#45;&gt;pt_with_current -->
<g id="edge3" class="edge">
<title>pt_park&#45;&gt;pt_with_current</title>
<path fill="none" stroke="#000000" d="M231.4574,-206.9431C220.565,-192.42 205.1059,-171.8078 192.8207,-155.4277"/>
<polygon fill="#000000" stroke="#000000" points="195.5268,-153.2023 186.7267,-147.3023 189.9268,-157.4023 195.5268,-153.2023"/>
</g>
<!-- pt_park_timeout&#45;&gt;inner_park_timeout -->
<g id="edge8" class="edge">
<title>pt_park_timeout&#45;&gt;inner_park_timeout</title>
<path fill="none" stroke="#000000" d="M353.8092,-206.9431C369.215,-192.1536 391.1986,-171.0494 408.4059,-154.5303"/>
<polygon fill="#000000" stroke="#000000" points="411.1451,-156.7525 415.9351,-147.3023 406.2973,-151.7028 411.1451,-156.7525"/>
</g>
<!-- pt_park_timeout&#45;&gt;pt_with_current -->
<g id="edge4" class="edge">
<title>pt_park_timeout&#45;&gt;pt_with_current</title>
<path fill="none" stroke="#000000" d="M290.4679,-209.4614C264.1492,-199.8563 233.7389,-187.8971 222,-180 211.7565,-173.1089 202.0006,-163.7636 193.9296,-154.9549"/>
<polygon fill="#000000" stroke="#000000" points="196.5363,-152.619 187.3007,-147.4273 191.2829,-157.2453 196.5363,-152.619"/>
</g>
<!-- pt_unpark&#45;&gt;inner_unparker -->
<g id="edge9" class="edge">
<title>pt_unpark&#45;&gt;inner_unparker</title>
<path fill="none" stroke="#000000" d="M199.7888,-206.815C210.1173,-199.1597 221.6656,-189.766 231,-180 237.9291,-172.7505 244.5525,-164.0787 250.1858,-155.9599"/>
<polygon fill="#000000" stroke="#000000" points="253.2213,-157.7171 255.8776,-147.4607 247.4051,-153.822 253.2213,-157.7171"/>
</g>
<!-- pt_unpark&#45;&gt;pt_with_current -->
<g id="edge5" class="edge">
<title>pt_unpark&#45;&gt;pt_with_current</title>
<path fill="none" stroke="#000000" d="M173,-206.9431C173,-193.0862 173,-173.6861 173,-157.7075"/>
<polygon fill="#000000" stroke="#000000" points="176.5001,-157.3023 173,-147.3023 169.5001,-157.3023 176.5001,-157.3023"/>
</g>
<!-- UnparkThread -->
<g id="node14" class="node">
<title>UnparkThread</title>
<path fill="none" stroke="#000000" d="M99.5,-147C99.5,-147 28.5,-147 28.5,-147 22.5,-147 16.5,-141 16.5,-135 16.5,-135 16.5,-123 16.5,-123 16.5,-117 22.5,-111 28.5,-111 28.5,-111 99.5,-111 99.5,-111 105.5,-111 111.5,-117 111.5,-123 111.5,-123 111.5,-135 111.5,-135 111.5,-141 105.5,-147 99.5,-147"/>
<text text-anchor="middle" x="64" y="-125.3" font-family="Times,serif" font-size="14.00" fill="#000000">UnparkThread</text>
</g>
<!-- pt_unpark&#45;&gt;UnparkThread -->
<g id="edge10" class="edge">
<title>pt_unpark&#45;&gt;UnparkThread</title>
<path fill="none" stroke="#000000" d="M151.9313,-206.9056C142.4466,-198.7244 131.128,-188.9122 121,-180 111.3428,-171.5021 100.8321,-162.1325 91.4968,-153.7679"/>
<polygon fill="#000000" stroke="#000000" points="93.7564,-151.093 83.9761,-147.0191 89.0812,-156.3029 93.7564,-151.093"/>
</g>
<!-- CURRENT_PARKER -->
<g id="node13" class="node">
<title>CURRENT_PARKER</title>
<path fill="none" stroke="#000000" d="M206,-60C206,-60 90,-60 90,-60 84,-60 78,-54 78,-48 78,-48 78,-36 78,-36 78,-30 84,-24 90,-24 90,-24 206,-24 206,-24 212,-24 218,-30 218,-36 218,-36 218,-48 218,-48 218,-54 212,-60 206,-60"/>
<text text-anchor="middle" x="148" y="-38.3" font-family="Times,serif" font-size="14.00" fill="#000000">CURRENT_PARKER</text>
</g>
<!-- pt_with_current&#45;&gt;CURRENT_PARKER -->
<g id="edge6" class="edge">
<title>pt_with_current&#45;&gt;CURRENT_PARKER</title>
<path fill="none" stroke="#000000" d="M167.82,-110.9735C164.4009,-99.0751 159.8537,-83.2508 155.9772,-69.7606"/>
<polygon fill="#000000" stroke="#000000" points="159.2991,-68.6478 153.1734,-60.0034 152.5714,-70.5811 159.2991,-68.6478"/>
</g>
</g>
</svg>
