<?xml version="1.0" encoding="UTF-8" standalone="no"?>
<!DOCTYPE svg PUBLIC "-//W3C//DTD SVG 1.1//EN"
 "http://www.w3.org/Graphics/SVG/1.1/DTD/svg11.dtd">
<!-- Generated by graphviz version 2.40.1 (20161225.0304)
 -->
<!-- Title: taskwake Pages: 1 -->
<svg width="1166pt" height="210pt"
 viewBox="0.00 0.00 1166.00 210.00" xmlns="http://www.w3.org/2000/svg" xmlns:xlink="http://www.w3.org/1999/xlink">
<g id="graph0" class="graph" transform="scale(1 1) rotate(0) translate(4 206)">
<title>taskwake</title>
<polygon fill="#ffffff" stroke="transparent" points="-4,4 -4,-206 1162,-206 1162,4 -4,4"/>
<g id="clust1" class="cluster">
<title>cluster_worker</title>
<polygon fill="none" stroke="#000000" points="8,-8 8,-83 78,-83 78,-8 8,-8"/>
<text text-anchor="middle" x="43" y="-67.8" font-family="Times,serif" font-size="14.00" fill="#000000">worker</text>
</g>
<g id="clust2" class="cluster">
<title>cluster_task</title>
<polygon fill="none" stroke="#000000" points="99,-119 99,-194 757,-194 757,-119 99,-119"/>
<text text-anchor="middle" x="428" y="-178.8" font-family="Times,serif" font-size="14.00" fill="#000000">task</text>
</g>
<g id="clust3" class="cluster">
<title>cluster_waker</title>
<polygon fill="none" stroke="#000000" points="212,-36 212,-111 282,-111 282,-36 212,-36"/>
<text text-anchor="middle" x="247" y="-95.8" font-family="Times,serif" font-size="14.00" fill="#000000">waker</text>
</g>
<g id="clust4" class="cluster">
<title>cluster_context</title>
<polygon fill="none" stroke="#000000" points="340,-36 340,-111 656,-111 656,-36 340,-36"/>
<text text-anchor="middle" x="498" y="-95.8" font-family="Times,serif" font-size="14.00" fill="#000000">Context</text>
</g>
<g id="clust5" class="cluster">
<title>cluster_pool</title>
<polygon fill="none" stroke="#000000" points="778,-77 778,-152 1150,-152 1150,-77 778,-77"/>
<text text-anchor="middle" x="964" y="-136.8" font-family="Times,serif" font-size="14.00" fill="#000000">pool</text>
</g>
<!-- worker_run -->
<g id="node1" class="node">
<title>worker_run</title>
<polygon fill="none" stroke="#000000" points="70,-52 16,-52 16,-16 70,-16 70,-52"/>
<text text-anchor="middle" x="43" y="-30.3" font-family="Times,serif" font-size="14.00" fill="#000000">run</text>
</g>
<!-- task_run -->
<g id="node2" class="node">
<title>task_run</title>
<polygon fill="none" stroke="#000000" points="161,-163 107,-163 107,-127 161,-127 161,-163"/>
<text text-anchor="middle" x="134" y="-141.3" font-family="Times,serif" font-size="14.00" fill="#000000">run</text>
</g>
<!-- worker_run&#45;&gt;task_run -->
<g id="edge8" class="edge">
<title>worker_run&#45;&gt;task_run</title>
<path fill="none" stroke="#000000" d="M58.0268,-52.3294C72.8459,-70.4054 95.6466,-98.2172 112.4049,-118.6587"/>
<polygon fill="#000000" stroke="#000000" points="109.9042,-121.129 118.9509,-126.6434 115.3176,-116.691 109.9042,-121.129"/>
</g>
<!-- waker -->
<g id="node4" class="node">
<title>waker</title>
<polygon fill="none" stroke="#000000" points="274,-80 220,-80 220,-44 274,-44 274,-80"/>
<text text-anchor="middle" x="247" y="-58.3" font-family="Times,serif" font-size="14.00" fill="#000000">waker</text>
</g>
<!-- task_run&#45;&gt;waker -->
<g id="edge9" class="edge">
<title>task_run&#45;&gt;waker</title>
<path fill="none" stroke="#000000" stroke-dasharray="5,2" d="M158.5193,-126.9902C174.6962,-115.1081 196.0886,-99.3951 213.7862,-86.396"/>
<polygon fill="#000000" stroke="#000000" points="216.1507,-89.0019 222.1383,-80.2612 212.0068,-83.3603 216.1507,-89.0019"/>
<text text-anchor="middle" x="190.5" y="-113.8" font-family="Times,serif" font-size="14.00" fill="#000000">new</text>
</g>
<!-- task_schedule -->
<g id="node3" class="node">
<title>task_schedule</title>
<polygon fill="none" stroke="#000000" points="749,-163 685,-163 685,-127 749,-127 749,-163"/>
<text text-anchor="middle" x="717" y="-141.3" font-family="Times,serif" font-size="14.00" fill="#000000">schedule</text>
</g>
<!-- pool_submit -->
<g id="node8" class="node">
<title>pool_submit</title>
<polygon fill="none" stroke="#000000" points="840,-121 786,-121 786,-85 840,-85 840,-121"/>
<text text-anchor="middle" x="813" y="-99.3" font-family="Times,serif" font-size="14.00" fill="#000000">submit</text>
</g>
<!-- task_schedule&#45;&gt;pool_submit -->
<g id="edge11" class="edge">
<title>task_schedule&#45;&gt;pool_submit</title>
<path fill="none" stroke="#000000" d="M749.2337,-130.8978C757.9541,-127.0826 767.4555,-122.9257 776.397,-119.0138"/>
<polygon fill="#000000" stroke="#000000" points="778.0574,-122.1077 785.8161,-114.8929 775.2517,-115.6946 778.0574,-122.1077"/>
</g>
<!-- context_from_waker -->
<g id="node6" class="node">
<title>context_from_waker</title>
<polygon fill="none" stroke="#000000" points="431,-80 348,-80 348,-44 431,-44 431,-80"/>
<text text-anchor="middle" x="389.5" y="-58.3" font-family="Times,serif" font-size="14.00" fill="#000000">from_waker</text>
</g>
<!-- waker&#45;&gt;context_from_waker -->
<g id="edge6" class="edge">
<title>waker&#45;&gt;context_from_waker</title>
<path fill="none" stroke="#000000" stroke-dasharray="5,2" d="M274.1386,-62C292.1242,-62 316.2924,-62 337.8607,-62"/>
<polygon fill="#000000" stroke="#000000" points="337.8776,-65.5001 347.8776,-62 337.8775,-58.5001 337.8776,-65.5001"/>
<text text-anchor="middle" x="311" y="-65.8" font-family="Times,serif" font-size="14.00" fill="#000000">pass to</text>
</g>
<!-- context -->
<g id="node5" class="node">
<title>context</title>
<polygon fill="none" stroke="#000000" points="524,-80 468,-80 468,-44 524,-44 524,-80"/>
<text text-anchor="middle" x="496" y="-58.3" font-family="Times,serif" font-size="14.00" fill="#000000">context</text>
</g>
<!-- wake_by_ref -->
<g id="node7" class="node">
<title>wake_by_ref</title>
<polygon fill="none" stroke="#000000" points="648,-80 561,-80 561,-44 648,-44 648,-80"/>
<text text-anchor="middle" x="604.5" y="-58.3" font-family="Times,serif" font-size="14.00" fill="#000000">wake_by_ref</text>
</g>
<!-- context&#45;&gt;wake_by_ref -->
<g id="edge2" class="edge">
<title>context&#45;&gt;wake_by_ref</title>
<path fill="none" stroke="#000000" d="M524.2239,-62C532.3443,-62 541.4843,-62 550.6106,-62"/>
<polygon fill="#000000" stroke="#000000" points="550.8538,-65.5001 560.8538,-62 550.8537,-58.5001 550.8538,-65.5001"/>
</g>
<!-- context_from_waker&#45;&gt;context -->
<g id="edge1" class="edge">
<title>context_from_waker&#45;&gt;context</title>
<path fill="none" stroke="#000000" d="M431.286,-62C439.9862,-62 449.115,-62 457.6827,-62"/>
<polygon fill="#000000" stroke="#000000" points="457.7887,-65.5001 467.7886,-62 457.7886,-58.5001 457.7887,-65.5001"/>
</g>
<!-- wake_by_ref&#45;&gt;task_schedule -->
<g id="edge10" class="edge">
<title>wake_by_ref&#45;&gt;task_schedule</title>
<path fill="none" stroke="#000000" d="M628.9108,-80.0098C645.0162,-91.8919 666.3138,-107.6049 683.9332,-120.604"/>
<polygon fill="#000000" stroke="#000000" points="682.1234,-123.6183 692.2483,-126.7388 686.2793,-117.9854 682.1234,-123.6183"/>
</g>
<!-- signal_work -->
<g id="node10" class="node">
<title>signal_work</title>
<polygon fill="none" stroke="#000000" points="960,-121 877,-121 877,-85 960,-85 960,-121"/>
<text text-anchor="middle" x="918.5" y="-99.3" font-family="Times,serif" font-size="14.00" fill="#000000">signal_work</text>
</g>
<!-- pool_submit&#45;&gt;signal_work -->
<g id="edge3" class="edge">
<title>pool_submit&#45;&gt;signal_work</title>
<path fill="none" stroke="#000000" d="M840.1689,-103C848.2421,-103 857.3702,-103 866.4697,-103"/>
<polygon fill="#000000" stroke="#000000" points="866.6734,-106.5001 876.6734,-103 866.6734,-99.5001 866.6734,-106.5001"/>
</g>
<!-- pool_unpark -->
<g id="node9" class="node">
<title>pool_unpark</title>
<polygon fill="none" stroke="#000000" points="1142,-121 1088,-121 1088,-85 1142,-85 1142,-121"/>
<text text-anchor="middle" x="1115" y="-99.3" font-family="Times,serif" font-size="14.00" fill="#000000">unpark</text>
</g>
<!-- pool_unpark&#45;&gt;worker_run -->
<g id="edge7" class="edge">
<title>pool_unpark&#45;&gt;worker_run</title>
<path fill="none" stroke="#000000" d="M1106.3315,-84.9735C1092.6707,-59.4907 1063.5613,-16 1024,-16 134,-16 134,-16 134,-16 115.9954,-16 96.3614,-19.4328 79.9549,-23.3002"/>
<polygon fill="#000000" stroke="#000000" points="79.0533,-19.9178 70.2,-25.7375 80.7502,-26.709 79.0533,-19.9178"/>
</g>
<!-- notify -->
<g id="node11" class="node">
<title>notify</title>
<polygon fill="none" stroke="#000000" points="1051,-121 997,-121 997,-85 1051,-85 1051,-121"/>
<text text-anchor="middle" x="1024" y="-99.3" font-family="Times,serif" font-size="14.00" fill="#000000">notify</text>
</g>
<!-- signal_work&#45;&gt;notify -->
<g id="edge4" class="edge">
<title>signal_work&#45;&gt;notify</title>
<path fill="none" stroke="#000000" d="M960.1964,-103C968.9591,-103 978.1478,-103 986.7357,-103"/>
<polygon fill="#000000" stroke="#000000" points="986.844,-106.5001 996.844,-103 986.8439,-99.5001 986.844,-106.5001"/>
</g>
<!-- notify&#45;&gt;pool_unpark -->
<g id="edge5" class="edge">
<title>notify&#45;&gt;pool_unpark</title>
<path fill="none" stroke="#000000" d="M1051.303,-103C1059.5813,-103 1068.8217,-103 1077.6405,-103"/>
<polygon fill="#000000" stroke="#000000" points="1077.7163,-106.5001 1087.7163,-103 1077.7162,-99.5001 1077.7163,-106.5001"/>
</g>
</g>
</svg>
