<?xml version="1.0" encoding="UTF-8" standalone="no"?>
<!DOCTYPE svg PUBLIC "-//W3C//DTD SVG 1.1//EN"
 "http://www.w3.org/Graphics/SVG/1.1/DTD/svg11.dtd">
<!-- Generated by graphviz version 2.40.1 (20161225.0304)
 -->
<!-- Title: tcp_stream_struct Pages: 1 -->
<svg width="789pt" height="140pt"
 viewBox="0.00 0.00 789.00 140.00" xmlns="http://www.w3.org/2000/svg" xmlns:xlink="http://www.w3.org/1999/xlink">
<g id="graph0" class="graph" transform="scale(1 1) rotate(0) translate(4 136)">
<title>tcp_stream_struct</title>
<polygon fill="#ffffff" stroke="transparent" points="-4,4 -4,-136 785,-136 785,4 -4,4"/>
<g id="clust1" class="cluster">
<title>cluster_mio</title>
<polygon fill="none" stroke="#000000" points="258,-8 258,-124 604,-124 604,-8 258,-8"/>
<text text-anchor="middle" x="431" y="-104" font-family="Times,serif" font-size="20.00" fill="#000000">mio</text>
</g>
<g id="clust2" class="cluster">
<title>cluster_std</title>
<polygon fill="none" stroke="#000000" points="624,-8 624,-101 773,-101 773,-8 624,-8"/>
<text text-anchor="middle" x="698.5" y="-81" font-family="Times,serif" font-size="20.00" fill="#000000">std</text>
</g>
<!-- TokioTcpStream -->
<g id="node1" class="node">
<title>TokioTcpStream</title>
<polygon fill="none" stroke="#000000" points="0,-40 0,-86 230,-86 230,-40 0,-40"/>
<text text-anchor="middle" x="115" y="-70.8" font-family="Times,serif" font-size="14.00" fill="#000000">Tokio TcpStream</text>
<polyline fill="none" stroke="#000000" points="0,-63 230,-63 "/>
<text text-anchor="start" x="8" y="-47.8" font-family="Times,serif" font-size="14.00" fill="#000000">io: PollEvented&lt;mio::net::TcpStream&gt;</text>
</g>
<!-- Mio_TcpStream -->
<g id="node2" class="node">
<title>Mio_TcpStream</title>
<polygon fill="none" stroke="#000000" points="266,-16.5 266,-85.5 405,-85.5 405,-16.5 266,-16.5"/>
<text text-anchor="middle" x="335.5" y="-70.3" font-family="Times,serif" font-size="14.00" fill="#000000">Mio_TcpStream</text>
<polyline fill="none" stroke="#000000" points="266,-62.5 405,-62.5 "/>
<text text-anchor="start" x="274" y="-47.3" font-family="Times,serif" font-size="14.00" fill="#000000">sys: sys::TcpStream</text>
<polyline fill="none" stroke="#000000" points="266,-39.5 405,-39.5 "/>
<text text-anchor="start" x="274" y="-24.3" font-family="Times,serif" font-size="14.00" fill="#000000">selector_id: SelectorId</text>
</g>
<!-- TokioTcpStream&#45;&gt;Mio_TcpStream -->
<g id="edge3" class="edge">
<title>TokioTcpStream:io&#45;&gt;Mio_TcpStream</title>
<path fill="none" stroke="#000000" d="M230,-51C238.3595,-51 247.0916,-51 255.7978,-51"/>
<polygon fill="#000000" stroke="#000000" points="255.9823,-54.5001 265.9822,-51 255.9822,-47.5001 255.9823,-54.5001"/>
</g>
<!-- UnixTcpStream -->
<g id="node3" class="node">
<title>UnixTcpStream</title>
<polygon fill="none" stroke="#000000" points="441,-28 441,-74 596,-74 596,-28 441,-28"/>
<text text-anchor="middle" x="518.5" y="-58.8" font-family="Times,serif" font-size="14.00" fill="#000000">UnixTcpStream</text>
<polyline fill="none" stroke="#000000" points="441,-51 596,-51 "/>
<text text-anchor="start" x="449" y="-35.8" font-family="Times,serif" font-size="14.00" fill="#000000">inner std::net::TcpStream</text>
</g>
<!-- Mio_TcpStream&#45;&gt;UnixTcpStream -->
<g id="edge1" class="edge">
<title>Mio_TcpStream:t&#45;&gt;UnixTcpStream</title>
<path fill="none" stroke="#000000" d="M405,-51C413.3561,-51 422.0582,-51 430.7625,-51"/>
<polygon fill="#000000" stroke="#000000" points="430.9609,-54.5001 440.9609,-51 430.9608,-47.5001 430.9609,-54.5001"/>
</g>
<!-- std_TcpStream -->
<g id="node4" class="node">
<title>std_TcpStream</title>
<polygon fill="none" stroke="#000000" points="632,-16 632,-62 765,-62 765,-16 632,-16"/>
<text text-anchor="middle" x="698.5" y="-46.8" font-family="Times,serif" font-size="14.00" fill="#000000">TcpStream</text>
<polyline fill="none" stroke="#000000" points="632,-39 765,-39 "/>
<text text-anchor="start" x="640" y="-23.8" font-family="Times,serif" font-size="14.00" fill="#000000">net_impl::TcpStream</text>
</g>
<!-- UnixTcpStream&#45;&gt;std_TcpStream -->
<g id="edge2" class="edge">
<title>UnixTcpStream:t&#45;&gt;std_TcpStream</title>
<path fill="none" stroke="#000000" d="M596.5,-39C604.6202,-39 613.1041,-39 621.5608,-39"/>
<polygon fill="#000000" stroke="#000000" points="621.8364,-42.5001 631.8364,-39 621.8363,-35.5001 621.8364,-42.5001"/>
</g>
</g>
</svg>
