<?xml version="1.0" encoding="UTF-8" standalone="no"?>
<!DOCTYPE svg PUBLIC "-//W3C//DTD SVG 1.1//EN"
 "http://www.w3.org/Graphics/SVG/1.1/DTD/svg11.dtd">
<!-- Generated by graphviz version 2.40.1 (20161225.0304)
 -->
<!-- Title: datasource_to_physicalplan Pages: 1 -->
<svg width="1417pt" height="354pt"
 viewBox="0.00 0.00 1417.00 353.50" xmlns="http://www.w3.org/2000/svg" xmlns:xlink="http://www.w3.org/1999/xlink">
<g id="graph0" class="graph" transform="scale(1 1) rotate(0) translate(4 349.5)">
<title>datasource_to_physicalplan</title>
<polygon fill="#ffffff" stroke="transparent" points="-4,4 -4,-349.5 1413,-349.5 1413,4 -4,4"/>
<g id="clust2" class="cluster">
<title>cluster_candidate</title>
<polygon fill="none" stroke="#000000" points="227,-94 227,-284 408,-284 408,-94 227,-94"/>
<text text-anchor="middle" x="317.5" y="-264" font-family="Times,serif" font-size="20.00" fill="#000000">candidate</text>
</g>
<g id="clust5" class="cluster">
<title>cluster_coptask</title>
<polygon fill="none" stroke="#000000" points="869,-107 869,-319 1061,-319 1061,-107 869,-107"/>
<text text-anchor="start" x="909" y="-299" font-family="Times,serif" font-size="20.00" fill="#000000">coptask</text>
<text text-anchor="middle" x="965" y="-277" font-family="Times,serif" font-size="20.00" fill="#000000">下推到tikv层</text>
</g>
<g id="clust6" class="cluster">
<title>cluster_executor</title>
<polygon fill="none" stroke="#000000" points="1223,-107 1223,-319 1409,-319 1409,-107 1223,-107"/>
<text text-anchor="start" x="1231" y="-299" font-family="Times,serif" font-size="20.00" fill="#000000">executor</text>
<text text-anchor="middle" x="1316" y="-277" font-family="Times,serif" font-size="20.00" fill="#000000">生成对应的executor</text>
</g>
<!-- skylinePruning -->
<g id="node1" class="node">
<title>skylinePruning</title>
<polygon fill="none" stroke="#000000" points="380,-345.5 255,-345.5 255,-292.5 380,-292.5 380,-345.5"/>
<text text-anchor="start" x="263" y="-330.3" font-family="Times,serif" font-size="14.00" fill="#000000">skylinePruning</text>
<text text-anchor="start" x="263" y="-315.3" font-family="Times,serif" font-size="14.00" fill="#000000">对acesspath剪支</text>
<text text-anchor="middle" x="317.5" y="-300.3" font-family="Times,serif" font-size="14.00" fill="#000000">返回candidate列表</text>
</g>
<!-- findBestTask -->
<g id="node2" class="node">
<title>findBestTask</title>
<polygon fill="none" stroke="#000000" points="147,-224 0,-224 0,-186 147,-186 147,-224"/>
<text text-anchor="start" x="8" y="-208.8" font-family="Times,serif" font-size="14.00" fill="#000000">findBestTask</text>
<text text-anchor="middle" x="73.5" y="-193.8" font-family="Times,serif" font-size="14.00" fill="#000000">基于cost选择最优plan</text>
</g>
<!-- findBestTask&#45;&gt;skylinePruning -->
<g id="edge1" class="edge">
<title>findBestTask&#45;&gt;skylinePruning</title>
<path fill="none" stroke="#000000" d="M105.0664,-224.0758C135.5695,-242.0224 183.4322,-268.9162 227,-288 232.7903,-290.5363 238.8594,-293.0037 244.9964,-295.3666"/>
<polygon fill="#000000" stroke="#000000" points="244.0734,-298.7583 254.6658,-298.9886 246.529,-292.2031 244.0734,-298.7583"/>
</g>
<!-- convertToTableScan -->
<g id="node3" class="node">
<title>convertToTableScan</title>
<polygon fill="none" stroke="#000000" points="382,-246 253,-246 253,-210 382,-210 382,-246"/>
<text text-anchor="middle" x="317.5" y="-224.3" font-family="Times,serif" font-size="14.00" fill="#000000">convertToTableScan</text>
</g>
<!-- findBestTask&#45;&gt;convertToTableScan -->
<g id="edge2" class="edge">
<title>findBestTask&#45;&gt;convertToTableScan</title>
<path fill="none" stroke="#000000" d="M147.0389,-211.9319C177.2955,-214.784 212.3006,-218.0837 242.6882,-220.9481"/>
<polygon fill="#000000" stroke="#000000" points="242.5187,-224.4475 252.8031,-221.9015 243.1757,-217.4784 242.5187,-224.4475"/>
<text text-anchor="middle" x="191" y="-220.8" font-family="Times,serif" font-size="14.00" fill="#000000">candidate</text>
</g>
<!-- convertToIndexScan -->
<g id="node4" class="node">
<title>convertToIndexScan</title>
<polygon fill="none" stroke="#000000" points="382,-192 253,-192 253,-156 382,-156 382,-192"/>
<text text-anchor="middle" x="317.5" y="-170.3" font-family="Times,serif" font-size="14.00" fill="#000000">convertToIndexScan</text>
</g>
<!-- findBestTask&#45;&gt;convertToIndexScan -->
<g id="edge3" class="edge">
<title>findBestTask&#45;&gt;convertToIndexScan</title>
<path fill="none" stroke="#000000" d="M147.0389,-195.6569C177.2955,-191.8129 212.3006,-187.3655 242.6882,-183.5048"/>
<polygon fill="#000000" stroke="#000000" points="243.324,-186.9522 252.8031,-182.2197 242.4416,-180.0081 243.324,-186.9522"/>
<text text-anchor="middle" x="191" y="-196.8" font-family="Times,serif" font-size="14.00" fill="#000000">candidate</text>
</g>
<!-- convertToIndexMergeScan -->
<g id="node5" class="node">
<title>convertToIndexMergeScan</title>
<polygon fill="none" stroke="#000000" points="400,-138 235,-138 235,-102 400,-102 400,-138"/>
<text text-anchor="middle" x="317.5" y="-116.3" font-family="Times,serif" font-size="14.00" fill="#000000">convertToIndexMergeScan</text>
</g>
<!-- findBestTask&#45;&gt;convertToIndexMergeScan -->
<g id="edge4" class="edge">
<title>findBestTask&#45;&gt;convertToIndexMergeScan</title>
<path fill="none" stroke="#000000" d="M119.377,-185.8457C133.8998,-179.9447 150.0604,-173.5454 165,-168 192.2749,-157.8758 199.2781,-155.8269 227,-147 233.0491,-145.0739 239.3387,-143.1128 245.6575,-141.1714"/>
<polygon fill="#000000" stroke="#000000" points="247.0371,-144.4098 255.5809,-138.1445 244.9948,-137.7144 247.0371,-144.4098"/>
<text text-anchor="middle" x="191" y="-171.8" font-family="Times,serif" font-size="14.00" fill="#000000">candidate</text>
</g>
<!-- PhysicalTableScan -->
<g id="node6" class="node">
<title>PhysicalTableScan</title>
<polygon fill="none" stroke="#000000" points="761,-223 642,-223 642,-187 761,-187 761,-223"/>
<text text-anchor="middle" x="701.5" y="-201.3" font-family="Times,serif" font-size="14.00" fill="#000000">PhysicalTableScan</text>
</g>
<!-- convertToTableScan&#45;&gt;PhysicalTableScan -->
<g id="edge5" class="edge">
<title>convertToTableScan&#45;&gt;PhysicalTableScan</title>
<path fill="none" stroke="#000000" d="M382.0151,-235.8752C440.4714,-241.6232 528.8555,-246.8513 605,-237 619.6492,-235.1047 635.0333,-231.0289 649.1062,-226.4007"/>
<polygon fill="#000000" stroke="#000000" points="650.2978,-229.6921 658.6144,-223.1283 648.0197,-223.0732 650.2978,-229.6921"/>
</g>
<!-- convertToIndexScan&#45;&gt;PhysicalTableScan -->
<g id="edge6" class="edge">
<title>convertToIndexScan&#45;&gt;PhysicalTableScan</title>
<path fill="none" stroke="#000000" d="M382.0526,-182.2099C393.9933,-183.5858 406.3651,-184.9162 418,-186 490.8611,-192.7869 574.475,-198.088 631.9145,-201.3465"/>
<polygon fill="#000000" stroke="#000000" points="631.7892,-204.8448 641.9697,-201.9112 632.1818,-197.8558 631.7892,-204.8448"/>
<text text-anchor="middle" x="521" y="-202.8" font-family="Times,serif" font-size="14.00" fill="#000000">isSingleScan</text>
</g>
<!-- PhysicalIndexScan -->
<g id="node7" class="node">
<title>PhysicalIndexScan</title>
<polygon fill="none" stroke="#000000" points="761,-159 642,-159 642,-123 761,-123 761,-159"/>
<text text-anchor="middle" x="701.5" y="-137.3" font-family="Times,serif" font-size="14.00" fill="#000000">PhysicalIndexScan</text>
</g>
<!-- convertToIndexScan&#45;&gt;PhysicalIndexScan -->
<g id="edge7" class="edge">
<title>convertToIndexScan&#45;&gt;PhysicalIndexScan</title>
<path fill="none" stroke="#000000" d="M382.0941,-170.2227C440.4151,-166.5885 528.5501,-160.5405 605,-153 613.6669,-152.1451 622.7594,-151.1476 631.7539,-150.0994"/>
<polygon fill="#000000" stroke="#000000" points="632.3231,-153.5565 641.8396,-148.8996 631.4961,-146.6055 632.3231,-153.5565"/>
</g>
<!-- convertToPartialTableScan -->
<g id="node8" class="node">
<title>convertToPartialTableScan</title>
<polygon fill="none" stroke="#000000" points="603,-144 439,-144 439,-108 603,-108 603,-144"/>
<text text-anchor="middle" x="521" y="-122.3" font-family="Times,serif" font-size="14.00" fill="#000000">convertToPartialTableScan</text>
</g>
<!-- convertToIndexMergeScan&#45;&gt;convertToPartialTableScan -->
<g id="edge8" class="edge">
<title>convertToIndexMergeScan&#45;&gt;convertToPartialTableScan</title>
<path fill="none" stroke="#000000" d="M400.2712,-122.4404C409.6452,-122.7168 419.242,-122.9998 428.7279,-123.2794"/>
<polygon fill="#000000" stroke="#000000" points="428.8631,-126.7849 438.9619,-123.5812 429.0694,-119.7879 428.8631,-126.7849"/>
</g>
<!-- convertToPartialIndexScan -->
<g id="node9" class="node">
<title>convertToPartialIndexScan</title>
<polygon fill="none" stroke="#000000" points="603,-36 439,-36 439,0 603,0 603,-36"/>
<text text-anchor="middle" x="521" y="-14.3" font-family="Times,serif" font-size="14.00" fill="#000000">convertToPartialIndexScan</text>
</g>
<!-- convertToIndexMergeScan&#45;&gt;convertToPartialIndexScan -->
<g id="edge9" class="edge">
<title>convertToIndexMergeScan&#45;&gt;convertToPartialIndexScan</title>
<path fill="none" stroke="#000000" d="M342.1002,-101.9912C365.5624,-85.4503 402.3597,-61.128 437,-45 441.0142,-43.1311 445.1928,-41.34 449.4476,-39.6329"/>
<polygon fill="#000000" stroke="#000000" points="450.7623,-42.8774 458.8494,-36.0326 448.259,-36.3403 450.7623,-42.8774"/>
</g>
<!-- buildIndexMergeTableScan -->
<g id="node10" class="node">
<title>buildIndexMergeTableScan</title>
<polygon fill="none" stroke="#000000" points="605,-90 437,-90 437,-54 605,-54 605,-90"/>
<text text-anchor="middle" x="521" y="-68.3" font-family="Times,serif" font-size="14.00" fill="#000000">buildIndexMergeTableScan</text>
</g>
<!-- convertToIndexMergeScan&#45;&gt;buildIndexMergeTableScan -->
<g id="edge10" class="edge">
<title>convertToIndexMergeScan&#45;&gt;buildIndexMergeTableScan</title>
<path fill="none" stroke="#000000" d="M393.8549,-101.99C407.1956,-98.8433 421.1586,-95.5498 434.7443,-92.3453"/>
<polygon fill="#000000" stroke="#000000" points="435.6263,-95.7334 444.5557,-90.0311 434.0193,-88.9204 435.6263,-95.7334"/>
</g>
<!-- PhysicalIndexLookUpReader -->
<g id="node12" class="node">
<title>PhysicalIndexLookUpReader</title>
<polygon fill="none" stroke="#000000" points="1053,-205 877,-205 877,-169 1053,-169 1053,-205"/>
<text text-anchor="middle" x="965" y="-183.3" font-family="Times,serif" font-size="14.00" fill="#000000">PhysicalIndexLookUpReader</text>
</g>
<!-- PhysicalTableScan&#45;&gt;PhysicalIndexLookUpReader -->
<g id="edge17" class="edge">
<title>PhysicalTableScan&#45;&gt;PhysicalIndexLookUpReader</title>
<path fill="none" stroke="#000000" d="M761.2922,-200.9155C792.3874,-198.7914 831.1967,-196.1403 866.5749,-193.7235"/>
<polygon fill="#000000" stroke="#000000" points="867.2025,-197.1889 876.9406,-193.0154 866.7253,-190.2052 867.2025,-197.1889"/>
<text text-anchor="middle" x="819" y="-202.8" font-family="Times,serif" font-size="14.00" fill="#000000">finishCopTask</text>
</g>
<!-- PhysicalTableReader -->
<g id="node13" class="node">
<title>PhysicalTableReader</title>
<polygon fill="none" stroke="#000000" points="1030.5,-259 899.5,-259 899.5,-223 1030.5,-223 1030.5,-259"/>
<text text-anchor="middle" x="965" y="-237.3" font-family="Times,serif" font-size="14.00" fill="#000000">PhysicalTableReader</text>
</g>
<!-- PhysicalTableScan&#45;&gt;PhysicalTableReader -->
<g id="edge16" class="edge">
<title>PhysicalTableScan&#45;&gt;PhysicalTableReader</title>
<path fill="none" stroke="#000000" d="M761.1185,-215.2671C767.1533,-216.2264 773.1948,-217.1546 779,-218 815.1825,-223.2692 855.4396,-228.3443 889.2222,-232.3804"/>
<polygon fill="#000000" stroke="#000000" points="889.1441,-235.8956 899.4869,-233.5987 889.9691,-228.9444 889.1441,-235.8956"/>
<text text-anchor="middle" x="819" y="-231.8" font-family="Times,serif" font-size="14.00" fill="#000000">finishCopTask</text>
</g>
<!-- PhysicalIndexReader -->
<g id="node11" class="node">
<title>PhysicalIndexReader</title>
<polygon fill="none" stroke="#000000" points="1030.5,-151 899.5,-151 899.5,-115 1030.5,-115 1030.5,-151"/>
<text text-anchor="middle" x="965" y="-129.3" font-family="Times,serif" font-size="14.00" fill="#000000">PhysicalIndexReader</text>
</g>
<!-- PhysicalIndexScan&#45;&gt;PhysicalIndexReader -->
<g id="edge14" class="edge">
<title>PhysicalIndexScan&#45;&gt;PhysicalIndexReader</title>
<path fill="none" stroke="#000000" d="M761.0519,-130.8349C767.0999,-130.0861 773.1627,-129.4492 779,-129 815.1891,-126.2149 855.4471,-126.6456 889.2285,-128.0056"/>
<polygon fill="#000000" stroke="#000000" points="889.3492,-131.5142 899.4928,-128.455 889.6555,-124.5209 889.3492,-131.5142"/>
<text text-anchor="middle" x="819" y="-132.8" font-family="Times,serif" font-size="14.00" fill="#000000">finishCopTask</text>
</g>
<!-- PhysicalIndexScan&#45;&gt;PhysicalIndexLookUpReader -->
<g id="edge15" class="edge">
<title>PhysicalIndexScan&#45;&gt;PhysicalIndexLookUpReader</title>
<path fill="none" stroke="#000000" d="M761.2922,-151.4381C792.5208,-156.8898 831.53,-163.6997 867.0302,-169.8971"/>
<polygon fill="#000000" stroke="#000000" points="866.4877,-173.3553 876.9406,-171.6272 867.6916,-166.4595 866.4877,-173.3553"/>
<text text-anchor="middle" x="819" y="-171.8" font-family="Times,serif" font-size="14.00" fill="#000000">finishCopTask</text>
</g>
<!-- convertToPartialTableScan&#45;&gt;PhysicalTableScan -->
<g id="edge11" class="edge">
<title>convertToPartialTableScan&#45;&gt;PhysicalTableScan</title>
<path fill="none" stroke="#000000" d="M562.4103,-144.1242C588.7804,-155.6657 623.1112,-170.6913 651.0668,-182.9268"/>
<polygon fill="#000000" stroke="#000000" points="649.718,-186.1569 660.2823,-186.9601 652.5247,-179.7442 649.718,-186.1569"/>
</g>
<!-- convertToPartialIndexScan&#45;&gt;PhysicalIndexScan -->
<g id="edge12" class="edge">
<title>convertToPartialIndexScan&#45;&gt;PhysicalIndexScan</title>
<path fill="none" stroke="#000000" d="M587.4389,-36.0443C593.5517,-38.6796 599.5048,-41.6542 605,-45 635.427,-63.5254 663.4802,-93.5199 681.4053,-115.0533"/>
<polygon fill="#000000" stroke="#000000" points="678.7311,-117.3122 687.7632,-122.8504 684.1562,-112.8885 678.7311,-117.3122"/>
</g>
<!-- buildIndexMergeTableScan&#45;&gt;PhysicalTableScan -->
<g id="edge13" class="edge">
<title>buildIndexMergeTableScan&#45;&gt;PhysicalTableScan</title>
<path fill="none" stroke="#000000" d="M591.9224,-90.1752C596.5793,-92.7406 600.9991,-95.6656 605,-99 631.731,-121.2782 618.1958,-142.6184 642,-168 646.4233,-172.7164 651.575,-177.0694 656.9619,-181.0066"/>
<polygon fill="#000000" stroke="#000000" points="655.3119,-184.117 665.5498,-186.8438 659.2469,-178.3277 655.3119,-184.117"/>
</g>
<!-- IndexReaderExecutor -->
<g id="node15" class="node">
<title>IndexReaderExecutor</title>
<polygon fill="none" stroke="#000000" points="1382.5,-151 1248.5,-151 1248.5,-115 1382.5,-115 1382.5,-151"/>
<text text-anchor="middle" x="1315.5" y="-129.3" font-family="Times,serif" font-size="14.00" fill="#000000">IndexReaderExecutor</text>
</g>
<!-- PhysicalIndexReader&#45;&gt;IndexReaderExecutor -->
<g id="edge19" class="edge">
<title>PhysicalIndexReader&#45;&gt;IndexReaderExecutor</title>
<path fill="none" stroke="#000000" d="M1030.5152,-133C1089.3562,-133 1175.8138,-133 1238.0567,-133"/>
<polygon fill="#000000" stroke="#000000" points="1238.2179,-136.5001 1248.2178,-133 1238.2178,-129.5001 1238.2179,-136.5001"/>
<text text-anchor="middle" x="1142" y="-136.8" font-family="Times,serif" font-size="14.00" fill="#000000">buildIndexReader</text>
</g>
<!-- IndexLookUpExecutor -->
<g id="node16" class="node">
<title>IndexLookUpExecutor</title>
<polygon fill="none" stroke="#000000" points="1386,-205 1245,-205 1245,-169 1386,-169 1386,-205"/>
<text text-anchor="middle" x="1315.5" y="-183.3" font-family="Times,serif" font-size="14.00" fill="#000000">IndexLookUpExecutor</text>
</g>
<!-- PhysicalIndexLookUpReader&#45;&gt;IndexLookUpExecutor -->
<g id="edge20" class="edge">
<title>PhysicalIndexLookUpReader&#45;&gt;IndexLookUpExecutor</title>
<path fill="none" stroke="#000000" d="M1053.4459,-187C1109.0776,-187 1180.3222,-187 1234.4798,-187"/>
<polygon fill="#000000" stroke="#000000" points="1234.7293,-190.5001 1244.7293,-187 1234.7293,-183.5001 1234.7293,-190.5001"/>
<text text-anchor="middle" x="1142" y="-190.8" font-family="Times,serif" font-size="14.00" fill="#000000">buildIndexLookUpReader</text>
</g>
<!-- TableReaderExecutor -->
<g id="node14" class="node">
<title>TableReaderExecutor</title>
<polygon fill="none" stroke="#000000" points="1382.5,-259 1248.5,-259 1248.5,-223 1382.5,-223 1382.5,-259"/>
<text text-anchor="middle" x="1315.5" y="-237.3" font-family="Times,serif" font-size="14.00" fill="#000000">TableReaderExecutor</text>
</g>
<!-- PhysicalTableReader&#45;&gt;TableReaderExecutor -->
<g id="edge18" class="edge">
<title>PhysicalTableReader&#45;&gt;TableReaderExecutor</title>
<path fill="none" stroke="#000000" d="M1030.5152,-241C1089.3562,-241 1175.8138,-241 1238.0567,-241"/>
<polygon fill="#000000" stroke="#000000" points="1238.2179,-244.5001 1248.2178,-241 1238.2178,-237.5001 1238.2179,-244.5001"/>
<text text-anchor="middle" x="1142" y="-244.8" font-family="Times,serif" font-size="14.00" fill="#000000">buildTableReader</text>
</g>
</g>
</svg>
