<?xml version="1.0" encoding="UTF-8" standalone="no"?>
<!DOCTYPE svg PUBLIC "-//W3C//DTD SVG 1.1//EN"
 "http://www.w3.org/Graphics/SVG/1.1/DTD/svg11.dtd">
<!-- Generated by graphviz version 2.40.1 (20161225.0304)
 -->
<!-- Title: join2chunk Pages: 1 -->
<svg width="1126pt" height="505pt"
 viewBox="0.00 0.00 1125.87 505.48" xmlns="http://www.w3.org/2000/svg" xmlns:xlink="http://www.w3.org/1999/xlink">
<g id="graph0" class="graph" transform="scale(1 1) rotate(0) translate(4 501.477)">
<title>join2chunk</title>
<polygon fill="#ffffff" stroke="transparent" points="-4,4 -4,-501.477 1121.8723,-501.477 1121.8723,4 -4,4"/>
<g id="clust1" class="cluster">
<title>cluster_joiner</title>
<path fill="none" stroke="#000000" d="M442.8,-8C442.8,-8 818.8,-8 818.8,-8 824.8,-8 830.8,-14 830.8,-20 830.8,-20 830.8,-110.1998 830.8,-110.1998 830.8,-116.1998 824.8,-122.1998 818.8,-122.1998 818.8,-122.1998 442.8,-122.1998 442.8,-122.1998 436.8,-122.1998 430.8,-116.1998 430.8,-110.1998 430.8,-110.1998 430.8,-20 430.8,-20 430.8,-14 436.8,-8 442.8,-8"/>
<text text-anchor="middle" x="630.8" y="-102.1998" font-family="Times,serif" font-size="20.00" fill="#000000">joiner[WokerID]</text>
</g>
<g id="clust2" class="cluster">
<title>cluster_chunk</title>
<path fill="none" stroke="#000000" d="M850.8,-21.8C850.8,-21.8 1004.8,-21.8 1004.8,-21.8 1010.8,-21.8 1016.8,-27.8 1016.8,-33.8 1016.8,-33.8 1016.8,-96.3999 1016.8,-96.3999 1016.8,-102.3999 1010.8,-108.3999 1004.8,-108.3999 1004.8,-108.3999 850.8,-108.3999 850.8,-108.3999 844.8,-108.3999 838.8,-102.3999 838.8,-96.3999 838.8,-96.3999 838.8,-33.8 838.8,-33.8 838.8,-27.8 844.8,-21.8 850.8,-21.8"/>
<text text-anchor="middle" x="927.8" y="-88.3999" font-family="Times,serif" font-size="20.00" fill="#000000">chunk</text>
</g>
<g id="clust3" class="cluster">
<title>cluster_hashRowContainer</title>
<path fill="none" stroke="#000000" d="M216.8,-17.8C216.8,-17.8 410.8,-17.8 410.8,-17.8 416.8,-17.8 422.8,-23.8 422.8,-29.8 422.8,-29.8 422.8,-100.3999 422.8,-100.3999 422.8,-106.3999 416.8,-112.3999 410.8,-112.3999 410.8,-112.3999 216.8,-112.3999 216.8,-112.3999 210.8,-112.3999 204.8,-106.3999 204.8,-100.3999 204.8,-100.3999 204.8,-29.8 204.8,-29.8 204.8,-23.8 210.8,-17.8 216.8,-17.8"/>
<text text-anchor="middle" x="313.8" y="-92.3999" font-family="Times,serif" font-size="20.00" fill="#000000">hashRowContainer</text>
</g>
<!-- joinResultCh -->
<g id="node1" class="node">
<title>joinResultCh</title>
<polygon fill="#95e1d3" stroke="#000000" points="1116.6966,-69.0999 1030.9035,-69.0999 1026.9035,-65.0999 1026.9035,-33.0999 1112.6966,-33.0999 1116.6966,-37.0999 1116.6966,-69.0999"/>
<polyline fill="none" stroke="#000000" points="1112.6966,-65.0999 1026.9035,-65.0999 "/>
<polyline fill="none" stroke="#000000" points="1112.6966,-65.0999 1112.6966,-33.0999 "/>
<polyline fill="none" stroke="#000000" points="1112.6966,-65.0999 1116.6966,-69.0999 "/>
<text text-anchor="middle" x="1071.8" y="-46.8999" font-family="Times,serif" font-size="14.00" fill="#000000">joinResultCh</text>
</g>
<!-- joinChkResourceCh -->
<g id="node2" class="node">
<title>joinChkResourceCh</title>
<polygon fill="#95e1d3" stroke="#000000" points="220.5795,-212.0997 29.0205,-212.0997 25.0205,-208.0997 25.0205,-176.0997 216.5795,-176.0997 220.5795,-180.0997 220.5795,-212.0997"/>
<polyline fill="none" stroke="#000000" points="216.5795,-208.0997 25.0205,-208.0997 "/>
<polyline fill="none" stroke="#000000" points="216.5795,-208.0997 216.5795,-176.0997 "/>
<polyline fill="none" stroke="#000000" points="216.5795,-208.0997 220.5795,-212.0997 "/>
<text text-anchor="middle" x="122.8" y="-189.8997" font-family="Times,serif" font-size="14.00" fill="#000000">joinChkResourceCh[WorkerID]</text>
</g>
<!-- getNewJoinResult -->
<g id="node6" class="node">
<title>getNewJoinResult</title>
<polygon fill="none" stroke="#000000" points="30.5276,-6.7 30.5276,-95.4998 195.0725,-95.4998 195.0725,-6.7 30.5276,-6.7"/>
<text text-anchor="middle" x="112.8" y="-80.2998" font-family="Times,serif" font-size="14.00" fill="#000000">getNewJoinResult</text>
<polyline fill="none" stroke="#000000" points="30.5276,-73.4998 195.0725,-73.4998 "/>
<text text-anchor="start" x="38.5276" y="-58.2998" font-family="Times,serif" font-size="14.00" fill="#000000">当joinResult IsFull</text>
<text text-anchor="start" x="38.5276" y="-38.6999" font-family="Times,serif" font-size="14.00" fill="#000000">从joinChResourceCh获取</text>
<text text-anchor="start" x="38.5276" y="-19.1" font-family="Times,serif" font-size="14.00" fill="#000000">一个新的jionResult</text>
</g>
<!-- joinChkResourceCh&#45;&gt;getNewJoinResult -->
<g id="edge6" class="edge">
<title>joinChkResourceCh&#45;&gt;getNewJoinResult</title>
<path fill="none" stroke="#000000" d="M121.5335,-175.9887C120.3002,-158.3523 118.3628,-130.647 116.6257,-105.8077"/>
<polygon fill="#000000" stroke="#000000" points="120.1107,-105.4693 115.9216,-95.7378 113.1278,-105.9577 120.1107,-105.4693"/>
</g>
<!-- joinMatchedProbeSideRow2Chunk -->
<g id="node3" class="node">
<title>joinMatchedProbeSideRow2Chunk</title>
<polygon fill="none" stroke="#000000" points="651.2517,-149.6998 651.2517,-238.4996 866.3484,-238.4996 866.3484,-149.6998 651.2517,-149.6998"/>
<text text-anchor="middle" x="758.8" y="-223.2996" font-family="Times,serif" font-size="14.00" fill="#000000">joinMatchedProbeSideRow2Chunk</text>
<polyline fill="none" stroke="#000000" points="651.2517,-216.4996 866.3484,-216.4996 "/>
<text text-anchor="start" x="659.2517" y="-201.2996" font-family="Times,serif" font-size="14.00" fill="#000000">将probeKey和hashTable</text>
<text text-anchor="start" x="659.2517" y="-181.6997" font-family="Times,serif" font-size="14.00" fill="#000000"> 中对应桶中的</text>
<text text-anchor="start" x="659.2517" y="-162.0997" font-family="Times,serif" font-size="14.00" fill="#000000">所有inner row做对比</text>
</g>
<!-- joinMatchedProbeSideRow2Chunk&#45;&gt;joinResultCh -->
<g id="edge8" class="edge">
<title>joinMatchedProbeSideRow2Chunk&#45;&gt;joinResultCh</title>
<path fill="none" stroke="#000000" d="M831.5621,-149.6312C847.2979,-141.8499 864.2075,-134.788 880.8,-130.1998 910.8347,-121.8945 993.4951,-137.2166 1020.8,-122.1998 1038.2163,-112.6215 1051.1521,-94.2607 1059.6379,-78.5973"/>
<polygon fill="#000000" stroke="#000000" points="1062.9527,-79.7985 1064.3467,-69.2957 1056.7074,-76.6368 1062.9527,-79.7985"/>
</g>
<!-- tryToMatchInners -->
<g id="node5" class="node">
<title>tryToMatchInners</title>
<polygon fill="none" stroke="#000000" points="686.924,-16.5 686.924,-85.6998 822.676,-85.6998 822.676,-16.5 686.924,-16.5"/>
<text text-anchor="middle" x="754.8" y="-70.4998" font-family="Times,serif" font-size="14.00" fill="#000000">tryToMatchInners</text>
<polyline fill="none" stroke="#000000" points="686.924,-63.6998 822.676,-63.6998 "/>
<text text-anchor="start" x="694.924" y="-48.4998" font-family="Times,serif" font-size="14.00" fill="#000000">比较probeRow和Iter</text>
<text text-anchor="start" x="694.924" y="-28.8999" font-family="Times,serif" font-size="14.00" fill="#000000"> 是否匹配</text>
</g>
<!-- joinMatchedProbeSideRow2Chunk&#45;&gt;tryToMatchInners -->
<g id="edge9" class="edge">
<title>joinMatchedProbeSideRow2Chunk&#45;&gt;tryToMatchInners</title>
<path fill="none" stroke="#000000" d="M757.5563,-149.6375C757.0815,-132.6634 756.54,-113.3051 756.0634,-96.2661"/>
<polygon fill="#000000" stroke="#000000" points="759.5545,-95.8969 755.7762,-85.9987 752.5573,-96.0927 759.5545,-95.8969"/>
</g>
<!-- joinMatchedProbeSideRow2Chunk&#45;&gt;getNewJoinResult -->
<g id="edge10" class="edge">
<title>joinMatchedProbeSideRow2Chunk&#45;&gt;getNewJoinResult</title>
<path fill="none" stroke="#000000" d="M651.0975,-159.6909C635.359,-155.6026 619.2509,-151.9226 603.8,-149.1998 581.7014,-145.3056 221.6942,-130.3818 200.8,-122.1998 188.4121,-117.3488 176.419,-110.0874 165.479,-102.0307"/>
<polygon fill="#000000" stroke="#000000" points="167.3843,-99.0801 157.3293,-95.7414 163.1076,-104.6218 167.3843,-99.0801"/>
</g>
<!-- GetMatchedRowsAndPtrs -->
<g id="node7" class="node">
<title>GetMatchedRowsAndPtrs</title>
<polygon fill="none" stroke="#000000" points="212.674,-26.3 212.674,-75.8999 414.926,-75.8999 414.926,-26.3 212.674,-26.3"/>
<text text-anchor="middle" x="313.8" y="-60.6999" font-family="Times,serif" font-size="14.00" fill="#000000">GetMatchedRowsAndPtrs</text>
<polyline fill="none" stroke="#000000" points="212.674,-53.8999 414.926,-53.8999 "/>
<text text-anchor="start" x="220.674" y="-38.6999" font-family="Times,serif" font-size="14.00" fill="#000000">获取匹配probeKey的Rows slice</text>
</g>
<!-- joinMatchedProbeSideRow2Chunk&#45;&gt;GetMatchedRowsAndPtrs -->
<g id="edge11" class="edge">
<title>joinMatchedProbeSideRow2Chunk&#45;&gt;GetMatchedRowsAndPtrs</title>
<path fill="none" stroke="#000000" d="M650.8617,-160.8811C635.1579,-156.6183 619.1222,-152.5726 603.8,-149.1998 526.0839,-132.0928 501.3733,-149.9715 426.8,-122.1998 400.8366,-112.5309 374.4833,-96.3904 353.7646,-81.9298"/>
<polygon fill="#000000" stroke="#000000" points="355.7131,-79.0206 345.5375,-76.0697 351.6519,-84.7221 355.7131,-79.0206"/>
</g>
<!-- NewIterator4Slice -->
<g id="node10" class="node">
<title>NewIterator4Slice</title>
<polygon fill="none" stroke="#000000" points="846.6897,-30.3 846.6897,-71.8999 1008.9104,-71.8999 1008.9104,-30.3 846.6897,-30.3"/>
<text text-anchor="start" x="854.6897" y="-56.6999" font-family="Times,serif" font-size="14.00" fill="#000000">NewIterator4Slice</text>
<text text-anchor="middle" x="927.8" y="-42.6999" font-family="Times,serif" font-size="14.00" fill="#000000">获取buildSideRows的iter</text>
</g>
<!-- joinMatchedProbeSideRow2Chunk&#45;&gt;NewIterator4Slice -->
<g id="edge12" class="edge">
<title>joinMatchedProbeSideRow2Chunk&#45;&gt;NewIterator4Slice</title>
<path fill="none" stroke="#000000" d="M811.3463,-149.6375C838.8554,-126.3606 871.6633,-98.6001 895.4352,-78.4855"/>
<polygon fill="#000000" stroke="#000000" points="897.7568,-81.1059 903.1299,-71.9746 893.2352,-75.7622 897.7568,-81.1059"/>
</g>
<!-- onMissMatch -->
<g id="node11" class="node">
<title>onMissMatch</title>
<polygon fill="none" stroke="#000000" points="669.3,-69.0999 576.3,-69.0999 576.3,-33.0999 669.3,-33.0999 669.3,-69.0999"/>
<text text-anchor="middle" x="622.8" y="-46.8999" font-family="Times,serif" font-size="14.00" fill="#000000">onMissMatch</text>
</g>
<!-- joinMatchedProbeSideRow2Chunk&#45;&gt;onMissMatch -->
<g id="edge13" class="edge">
<title>joinMatchedProbeSideRow2Chunk&#45;&gt;onMissMatch</title>
<path fill="none" stroke="#000000" d="M705.6071,-149.4469C696.0504,-140.7151 686.4025,-131.4039 677.8,-122.1998 664.7396,-108.2261 651.5782,-91.3356 641.4061,-77.5241"/>
<polygon fill="#000000" stroke="#000000" points="644.1957,-75.4092 635.4864,-69.376 638.5325,-79.5236 644.1957,-75.4092"/>
</g>
<!-- runJoinWorker -->
<g id="node4" class="node">
<title>runJoinWorker</title>
<ellipse fill="#f38181" stroke="#000000" cx="422.8" cy="-430.5382" rx="62.8812" ry="62.8812"/>
<ellipse fill="none" stroke="#000000" cx="422.8" cy="-430.5382" rx="66.8776" ry="66.8776"/>
<text text-anchor="middle" x="422.8" y="-426.3382" font-family="Times,serif" font-size="14.00" fill="#000000">runJoinWorker</text>
</g>
<!-- join2ChunkForOuterHashJoin -->
<g id="node8" class="node">
<title>join2ChunkForOuterHashJoin</title>
<polygon fill="none" stroke="#000000" points="232.0241,-276.4996 232.0241,-326.0995 417.5759,-326.0995 417.5759,-276.4996 232.0241,-276.4996"/>
<text text-anchor="middle" x="324.8" y="-310.8995" font-family="Times,serif" font-size="14.00" fill="#000000">join2ChunkForOuterHashJoin</text>
<polyline fill="none" stroke="#000000" points="232.0241,-304.0995 417.5759,-304.0995 "/>
<text text-anchor="start" x="240.0241" y="-288.8995" font-family="Times,serif" font-size="14.00" fill="#000000">使用outer表build hash table</text>
</g>
<!-- runJoinWorker&#45;&gt;join2ChunkForOuterHashJoin -->
<g id="edge1" class="edge">
<title>runJoinWorker&#45;&gt;join2ChunkForOuterHashJoin</title>
<path fill="none" stroke="#000000" d="M382.0906,-376.8522C371.1332,-362.402 359.6062,-347.2007 349.7879,-334.2526"/>
<polygon fill="#000000" stroke="#000000" points="352.4368,-331.9532 343.6057,-326.0998 346.859,-336.1827 352.4368,-331.9532"/>
</g>
<!-- join2chunk -->
<g id="node9" class="node">
<title>join2chunk</title>
<polygon fill="none" stroke="#000000" points="535.093,-276.4996 535.093,-326.0995 710.507,-326.0995 710.507,-276.4996 535.093,-276.4996"/>
<text text-anchor="middle" x="622.8" y="-310.8995" font-family="Times,serif" font-size="14.00" fill="#000000">join2chunk</text>
<polyline fill="none" stroke="#000000" points="535.093,-304.0995 710.507,-304.0995 "/>
<text text-anchor="start" x="543.093" y="-288.8995" font-family="Times,serif" font-size="14.00" fill="#000000">使用inner表build hash table</text>
</g>
<!-- runJoinWorker&#45;&gt;join2chunk -->
<g id="edge2" class="edge">
<title>runJoinWorker&#45;&gt;join2chunk</title>
<path fill="none" stroke="#000000" d="M479.0434,-394.1941C509.5127,-374.5051 546.7331,-350.4535 575.6663,-331.757"/>
<polygon fill="#000000" stroke="#000000" points="577.8634,-334.5045 584.3629,-326.1374 574.0642,-328.6251 577.8634,-334.5045"/>
</g>
<!-- join2ChunkForOuterHashJoin&#45;&gt;joinResultCh -->
<g id="edge14" class="edge">
<title>join2ChunkForOuterHashJoin&#45;&gt;joinResultCh</title>
<path fill="none" stroke="#000000" d="M417.8192,-289.1996C451.7828,-284.885 490.5129,-280.0851 525.8,-275.9996 603.4922,-267.0043 814.1087,-287.0742 875.8,-238.9996 909.3393,-212.8631 877.0467,-177.4792 908.8,-149.1998 947.0378,-115.1455 978.3257,-150.7963 1020.8,-122.1998 1037.0791,-111.2397 1049.9157,-93.2351 1058.6387,-78.0869"/>
<polygon fill="#000000" stroke="#000000" points="1061.8176,-79.5678 1063.5323,-69.1127 1055.672,-76.2166 1061.8176,-79.5678"/>
</g>
<!-- join2ChunkForOuterHashJoin&#45;&gt;getNewJoinResult -->
<g id="edge15" class="edge">
<title>join2ChunkForOuterHashJoin&#45;&gt;getNewJoinResult</title>
<path fill="none" stroke="#000000" d="M231.7844,-295.257C150.969,-287.8378 42.75,-271.9254 15.8,-238.9996 -9.4791,-208.115 .6307,-186.1157 15.8,-149.1998 22.7896,-132.1899 34.3123,-116.5588 47.02,-103.0095"/>
<polygon fill="#000000" stroke="#000000" points="49.6823,-105.2933 54.1805,-95.7008 44.6821,-100.3945 49.6823,-105.2933"/>
</g>
<!-- joinMatchedProbeSideRow2ChunkForOuterHashJoin -->
<g id="node13" class="node">
<title>joinMatchedProbeSideRow2ChunkForOuterHashJoin</title>
<polygon fill="none" stroke="#000000" points="594.8316,-212.0997 276.7684,-212.0997 276.7684,-176.0997 594.8316,-176.0997 594.8316,-212.0997"/>
<text text-anchor="middle" x="435.8" y="-189.8997" font-family="Times,serif" font-size="14.00" fill="#000000">joinMatchedProbeSideRow2ChunkForOuterHashJoin</text>
</g>
<!-- join2ChunkForOuterHashJoin&#45;&gt;joinMatchedProbeSideRow2ChunkForOuterHashJoin -->
<g id="edge16" class="edge">
<title>join2ChunkForOuterHashJoin&#45;&gt;joinMatchedProbeSideRow2ChunkForOuterHashJoin</title>
<path fill="none" stroke="#000000" d="M350.5446,-276.4363C368.3649,-259.2261 391.9959,-236.4042 409.8587,-219.1529"/>
<polygon fill="#000000" stroke="#000000" points="412.3655,-221.5977 417.1272,-212.1332 407.5027,-216.5625 412.3655,-221.5977"/>
</g>
<!-- join2chunk&#45;&gt;joinResultCh -->
<g id="edge7" class="edge">
<title>join2chunk&#45;&gt;joinResultCh</title>
<path fill="none" stroke="#000000" d="M710.7768,-287.915C781.8349,-276.0508 875.3235,-257.7438 908.8,-238.9996 978.162,-200.1624 1032.0514,-120.0257 1056.8565,-78.0631"/>
<polygon fill="#000000" stroke="#000000" points="1059.9893,-79.6378 1061.9796,-69.2316 1053.9343,-76.1253 1059.9893,-79.6378"/>
<text text-anchor="middle" x="1062.8361" y="-189.8997" font-family="Times,serif" font-size="14.00" fill="#000000">joinResultCh.IsFull</text>
</g>
<!-- join2chunk&#45;&gt;joinMatchedProbeSideRow2Chunk -->
<g id="edge3" class="edge">
<title>join2chunk&#45;&gt;joinMatchedProbeSideRow2Chunk</title>
<path fill="none" stroke="#000000" d="M654.343,-276.4363C666.2812,-267.0262 680.3479,-255.9383 694.224,-245.0007"/>
<polygon fill="#000000" stroke="#000000" points="696.6675,-247.5313 702.3544,-238.592 692.3342,-242.0338 696.6675,-247.5313"/>
</g>
<!-- join2chunk&#45;&gt;getNewJoinResult -->
<g id="edge4" class="edge">
<title>join2chunk&#45;&gt;getNewJoinResult</title>
<path fill="none" stroke="#000000" d="M534.8344,-290.3077C436.5724,-277.3385 288.4877,-255.4604 267.8,-238.9996 233.888,-212.0163 255.5652,-184.0463 229.8,-149.1998 225.2654,-143.067 201.1594,-122.62 175.9965,-101.9693"/>
<polygon fill="#000000" stroke="#000000" points="178.13,-99.1927 168.1739,-95.5696 173.6976,-104.6106 178.13,-99.1927"/>
</g>
<!-- join2chunk&#45;&gt;onMissMatch -->
<g id="edge5" class="edge">
<title>join2chunk&#45;&gt;onMissMatch</title>
<path fill="none" stroke="#000000" d="M622.8,-276.3947C622.8,-229.6252 622.8,-128.9359 622.8,-79.5672"/>
<polygon fill="#000000" stroke="#000000" points="626.3001,-79.292 622.8,-69.292 619.3001,-79.2921 626.3001,-79.292"/>
</g>
<!-- tryToMatchOuters -->
<g id="node12" class="node">
<title>tryToMatchOuters</title>
<polygon fill="none" stroke="#000000" points="558.516,-69.0999 439.084,-69.0999 439.084,-33.0999 558.516,-33.0999 558.516,-69.0999"/>
<text text-anchor="middle" x="498.8" y="-46.8999" font-family="Times,serif" font-size="14.00" fill="#000000">tryToMatchOuters</text>
</g>
<!-- joinMatchedProbeSideRow2ChunkForOuterHashJoin&#45;&gt;joinResultCh -->
<g id="edge17" class="edge">
<title>joinMatchedProbeSideRow2ChunkForOuterHashJoin&#45;&gt;joinResultCh</title>
<path fill="none" stroke="#000000" d="M507.3428,-176.0357C546.7697,-166.7064 596.7244,-155.9036 641.8,-149.1998 745.4453,-133.7855 772.2575,-137.3288 876.8,-130.1998 892.7876,-129.1096 1006.7526,-129.9109 1020.8,-122.1998 1038.2238,-112.6353 1051.1595,-94.2742 1059.6433,-78.6071"/>
<polygon fill="#000000" stroke="#000000" points="1062.9591,-79.8061 1064.3507,-69.303 1056.7131,-76.6459 1062.9591,-79.8061"/>
</g>
<!-- joinMatchedProbeSideRow2ChunkForOuterHashJoin&#45;&gt;getNewJoinResult -->
<g id="edge18" class="edge">
<title>joinMatchedProbeSideRow2ChunkForOuterHashJoin&#45;&gt;getNewJoinResult</title>
<path fill="none" stroke="#000000" d="M395.0232,-176.0574C360.4747,-161.5005 309.2828,-141.6278 262.8,-130.1998 235.8195,-123.5666 226.3479,-133.1204 200.8,-122.1998 188.8547,-117.0938 177.2078,-109.8801 166.5024,-101.9888"/>
<polygon fill="#000000" stroke="#000000" points="168.5716,-99.1649 158.5101,-95.8459 164.3058,-104.7149 168.5716,-99.1649"/>
</g>
<!-- joinMatchedProbeSideRow2ChunkForOuterHashJoin&#45;&gt;GetMatchedRowsAndPtrs -->
<g id="edge19" class="edge">
<title>joinMatchedProbeSideRow2ChunkForOuterHashJoin&#45;&gt;GetMatchedRowsAndPtrs</title>
<path fill="none" stroke="#000000" d="M420.3486,-175.9887C400.5977,-152.8381 366.0453,-112.3382 341.651,-83.7448"/>
<polygon fill="#000000" stroke="#000000" points="344.2137,-81.356 335.0606,-76.0201 338.8884,-85.8993 344.2137,-81.356"/>
</g>
<!-- joinMatchedProbeSideRow2ChunkForOuterHashJoin&#45;&gt;onMissMatch -->
<g id="edge20" class="edge">
<title>joinMatchedProbeSideRow2ChunkForOuterHashJoin&#45;&gt;onMissMatch</title>
<path fill="none" stroke="#000000" d="M479.3313,-175.9841C506.5227,-163.3733 541.2801,-144.7912 567.8,-122.1998 582.7537,-109.4613 596.2992,-92.0601 606.206,-77.6613"/>
<polygon fill="#000000" stroke="#000000" points="609.2446,-79.4133 611.8842,-69.1525 603.4221,-75.5277 609.2446,-79.4133"/>
</g>
<!-- joinMatchedProbeSideRow2ChunkForOuterHashJoin&#45;&gt;tryToMatchOuters -->
<g id="edge21" class="edge">
<title>joinMatchedProbeSideRow2ChunkForOuterHashJoin&#45;&gt;tryToMatchOuters</title>
<path fill="none" stroke="#000000" d="M443.779,-175.9887C454.56,-151.5176 473.8812,-107.6616 486.52,-78.9736"/>
<polygon fill="#000000" stroke="#000000" points="489.858,-80.0779 490.6868,-69.5156 483.4521,-77.2557 489.858,-80.0779"/>
</g>
</g>
</svg>
