<?xml version="1.0" encoding="UTF-8" standalone="no"?>
<!DOCTYPE svg PUBLIC "-//W3C//DTD SVG 1.1//EN"
 "http://www.w3.org/Graphics/SVG/1.1/DTD/svg11.dtd">
<!-- Generated by graphviz version 2.40.1 (20161225.0304)
 -->
<!-- Title: plan_struct Pages: 1 -->
<svg width="987pt" height="502pt"
 viewBox="0.00 0.00 986.64 502.00" xmlns="http://www.w3.org/2000/svg" xmlns:xlink="http://www.w3.org/1999/xlink">
<g id="graph0" class="graph" transform="scale(1 1) rotate(0) translate(4 498)">
<title>plan_struct</title>
<polygon fill="#ffffff" stroke="transparent" points="-4,4 -4,-498 982.6377,-498 982.6377,4 -4,4"/>
<!-- baseLogicalPlan -->
<g id="node1" class="node">
<title>baseLogicalPlan</title>
<polygon fill="none" stroke="#000000" points="546.3096,-125.5 546.3096,-257.5 701.8926,-257.5 701.8926,-125.5 546.3096,-125.5"/>
<text text-anchor="middle" x="624.1011" y="-242.3" font-family="Times,serif" font-size="14.00" fill="#000000">baseLogicalPlan</text>
<polyline fill="none" stroke="#000000" points="546.3096,-235.5 701.8926,-235.5 "/>
<text text-anchor="start" x="554.3096" y="-220.3" font-family="Times,serif" font-size="14.00" fill="#000000">basePlan</text>
<polyline fill="none" stroke="#000000" points="546.3096,-213.5 701.8926,-213.5 "/>
<text text-anchor="start" x="554.3096" y="-198.3" font-family="Times,serif" font-size="14.00" fill="#000000">taskMap map[string]task</text>
<polyline fill="none" stroke="#000000" points="546.3096,-191.5 701.8926,-191.5 "/>
<text text-anchor="start" x="554.3096" y="-176.3" font-family="Times,serif" font-size="14.00" fill="#000000">self LogicalPlan</text>
<polyline fill="none" stroke="#000000" points="546.3096,-169.5 701.8926,-169.5 "/>
<text text-anchor="start" x="554.3096" y="-154.3" font-family="Times,serif" font-size="14.00" fill="#000000">maxOneRow bool</text>
<polyline fill="none" stroke="#000000" points="546.3096,-147.5 701.8926,-147.5 "/>
<text text-anchor="start" x="554.3096" y="-132.3" font-family="Times,serif" font-size="14.00" fill="#000000">children []LogicalPlan</text>
</g>
<!-- basePlan -->
<g id="node2" class="node">
<title>basePlan</title>
<polygon fill="none" stroke="#000000" points="826.6777,-241.5 826.6777,-373.5 978.6377,-373.5 978.6377,-241.5 826.6777,-241.5"/>
<text text-anchor="middle" x="902.6577" y="-358.3" font-family="Times,serif" font-size="14.00" fill="#000000">basePlan</text>
<polyline fill="none" stroke="#000000" points="826.6777,-351.5 978.6377,-351.5 "/>
<text text-anchor="start" x="834.6777" y="-336.3" font-family="Times,serif" font-size="14.00" fill="#000000">tp string</text>
<polyline fill="none" stroke="#000000" points="826.6777,-329.5 978.6377,-329.5 "/>
<text text-anchor="start" x="834.6777" y="-314.3" font-family="Times,serif" font-size="14.00" fill="#000000">id int</text>
<polyline fill="none" stroke="#000000" points="826.6777,-307.5 978.6377,-307.5 "/>
<text text-anchor="start" x="834.6777" y="-292.3" font-family="Times,serif" font-size="14.00" fill="#000000">ctx sessionctx.Context</text>
<polyline fill="none" stroke="#000000" points="826.6777,-285.5 978.6377,-285.5 "/>
<text text-anchor="start" x="834.6777" y="-270.3" font-family="Times,serif" font-size="14.00" fill="#000000">stats *property.StatsInfo</text>
<polyline fill="none" stroke="#000000" points="826.6777,-263.5 978.6377,-263.5 "/>
<text text-anchor="start" x="834.6777" y="-248.3" font-family="Times,serif" font-size="14.00" fill="#000000">blockOffset int</text>
</g>
<!-- baseLogicalPlan&#45;&gt;basePlan -->
<g id="edge5" class="edge">
<title>baseLogicalPlan:basePlan&#45;&gt;basePlan</title>
<path fill="none" stroke="#000000" d="M702.1011,-224.5C741.8814,-224.5 782.9577,-238.614 817.4965,-255.2016"/>
<polygon fill="#000000" stroke="#000000" points="816.0782,-258.4048 826.5937,-259.6995 819.1807,-252.1298 816.0782,-258.4048"/>
</g>
<!-- task -->
<g id="node4" class="node">
<title>task</title>
<polygon fill="none" stroke="#000000" points="834.5801,-.5 834.5801,-176.5 970.7354,-176.5 970.7354,-.5 834.5801,-.5"/>
<text text-anchor="middle" x="902.6577" y="-161.3" font-family="Times,serif" font-size="14.00" fill="#000000">task</text>
<polyline fill="none" stroke="#000000" points="834.5801,-154.5 970.7354,-154.5 "/>
<text text-anchor="start" x="842.5801" y="-139.3" font-family="Times,serif" font-size="14.00" fill="#000000">count() float64</text>
<polyline fill="none" stroke="#000000" points="834.5801,-132.5 970.7354,-132.5 "/>
<text text-anchor="start" x="842.5801" y="-117.3" font-family="Times,serif" font-size="14.00" fill="#000000">addCost(cost float64)</text>
<polyline fill="none" stroke="#000000" points="834.5801,-110.5 970.7354,-110.5 "/>
<text text-anchor="start" x="842.5801" y="-95.3" font-family="Times,serif" font-size="14.00" fill="#000000">cost() float64</text>
<polyline fill="none" stroke="#000000" points="834.5801,-88.5 970.7354,-88.5 "/>
<text text-anchor="start" x="842.5801" y="-73.3" font-family="Times,serif" font-size="14.00" fill="#000000">copy() task</text>
<polyline fill="none" stroke="#000000" points="834.5801,-66.5 970.7354,-66.5 "/>
<text text-anchor="start" x="842.5801" y="-51.3" font-family="Times,serif" font-size="14.00" fill="#000000">plan() PhysicalPlan</text>
<polyline fill="none" stroke="#000000" points="834.5801,-44.5 970.7354,-44.5 "/>
<text text-anchor="start" x="842.5801" y="-29.3" font-family="Times,serif" font-size="14.00" fill="#000000">invalid() bool</text>
<polyline fill="none" stroke="#000000" points="834.5801,-22.5 970.7354,-22.5 "/>
<text text-anchor="middle" x="902.6577" y="-7.3" font-family="Times,serif" font-size="14.00" fill="#000000"> </text>
</g>
<!-- baseLogicalPlan&#45;&gt;task -->
<g id="edge3" class="edge">
<title>baseLogicalPlan:task&#45;&gt;task</title>
<path fill="none" stroke="#000000" d="M702.1011,-202.5C746.7804,-202.5 790.6045,-180.8521 825.8345,-156.4232"/>
<polygon fill="#000000" stroke="#000000" points="828.0267,-159.1588 834.1378,-150.504 823.9633,-153.4588 828.0267,-159.1588"/>
</g>
<!-- basePhysicalPlan -->
<g id="node3" class="node">
<title>basePhysicalPlan</title>
<polygon fill="none" stroke="#000000" points="483.1934,-276.5 483.1934,-386.5 765.0088,-386.5 765.0088,-276.5 483.1934,-276.5"/>
<text text-anchor="middle" x="624.1011" y="-371.3" font-family="Times,serif" font-size="14.00" fill="#000000">basePhysicalPlan</text>
<polyline fill="none" stroke="#000000" points="483.1934,-364.5 765.0088,-364.5 "/>
<text text-anchor="start" x="491.1934" y="-349.3" font-family="Times,serif" font-size="14.00" fill="#000000">basePlan </text>
<polyline fill="none" stroke="#000000" points="483.1934,-342.5 765.0088,-342.5 "/>
<text text-anchor="start" x="491.1934" y="-327.3" font-family="Times,serif" font-size="14.00" fill="#000000">childrenReqProps []*property.PhysicalProperty</text>
<polyline fill="none" stroke="#000000" points="483.1934,-320.5 765.0088,-320.5 "/>
<text text-anchor="start" x="491.1934" y="-305.3" font-family="Times,serif" font-size="14.00" fill="#000000">self PhysicalPlan</text>
<polyline fill="none" stroke="#000000" points="483.1934,-298.5 765.0088,-298.5 "/>
<text text-anchor="start" x="491.1934" y="-283.3" font-family="Times,serif" font-size="14.00" fill="#000000">children []PhysicalPlan</text>
</g>
<!-- basePhysicalPlan&#45;&gt;basePlan -->
<g id="edge4" class="edge">
<title>basePhysicalPlan:basePlan&#45;&gt;basePlan</title>
<path fill="none" stroke="#000000" d="M765.0088,-353.5C782.1749,-353.5 799.9531,-350.2421 816.8019,-345.4603"/>
<polygon fill="#000000" stroke="#000000" points="818.0528,-348.7383 826.6031,-342.4819 816.0175,-342.0407 818.0528,-348.7383"/>
</g>
<!-- logicalSchemaProducer -->
<g id="node5" class="node">
<title>logicalSchemaProducer</title>
<polygon fill="none" stroke="#000000" points="250.1724,-221.5 250.1724,-309.5 426.3452,-309.5 426.3452,-221.5 250.1724,-221.5"/>
<text text-anchor="middle" x="338.2588" y="-294.3" font-family="Times,serif" font-size="14.00" fill="#000000">logicalSchemaProducer</text>
<polyline fill="none" stroke="#000000" points="250.1724,-287.5 426.3452,-287.5 "/>
<text text-anchor="start" x="258.1724" y="-272.3" font-family="Times,serif" font-size="14.00" fill="#000000">schema *expression.Schema</text>
<polyline fill="none" stroke="#000000" points="250.1724,-265.5 426.3452,-265.5 "/>
<text text-anchor="start" x="258.1724" y="-250.3" font-family="Times,serif" font-size="14.00" fill="#000000">names types.NameSlice</text>
<polyline fill="none" stroke="#000000" points="250.1724,-243.5 426.3452,-243.5 "/>
<text text-anchor="start" x="258.1724" y="-228.3" font-family="Times,serif" font-size="14.00" fill="#000000">baseLogicalPlan</text>
</g>
<!-- logicalSchemaProducer&#45;&gt;baseLogicalPlan -->
<g id="edge6" class="edge">
<title>logicalSchemaProducer:baseLogicalPlan&#45;&gt;baseLogicalPlan</title>
<path fill="none" stroke="#000000" d="M426.2588,-232.5C462.6544,-232.5 502.0472,-225.7649 536.029,-217.7542"/>
<polygon fill="#000000" stroke="#000000" points="537.0348,-221.1117 545.926,-215.3499 535.3823,-214.3095 537.0348,-221.1117"/>
</g>
<!-- DataSource -->
<g id="node6" class="node">
<title>DataSource</title>
<polygon fill="none" stroke="#000000" points="0,-317.5 0,-493.5 193.3242,-493.5 193.3242,-317.5 0,-317.5"/>
<text text-anchor="middle" x="96.6621" y="-478.3" font-family="Times,serif" font-size="14.00" fill="#000000">DataSource</text>
<polyline fill="none" stroke="#000000" points="0,-471.5 193.3242,-471.5 "/>
<text text-anchor="start" x="8" y="-456.3" font-family="Times,serif" font-size="14.00" fill="#000000">logicalSchemaProducer</text>
<polyline fill="none" stroke="#000000" points="0,-449.5 193.3242,-449.5 "/>
<text text-anchor="start" x="8" y="-434.3" font-family="Times,serif" font-size="14.00" fill="#000000">indexHints []*ast.IndexHint</text>
<polyline fill="none" stroke="#000000" points="0,-427.5 193.3242,-427.5 "/>
<text text-anchor="start" x="8" y="-412.3" font-family="Times,serif" font-size="14.00" fill="#000000">table table.Table</text>
<polyline fill="none" stroke="#000000" points="0,-405.5 193.3242,-405.5 "/>
<text text-anchor="start" x="8" y="-390.3" font-family="Times,serif" font-size="14.00" fill="#000000">tableInfo *model.TableInfo</text>
<polyline fill="none" stroke="#000000" points="0,-383.5 193.3242,-383.5 "/>
<text text-anchor="start" x="8" y="-368.3" font-family="Times,serif" font-size="14.00" fill="#000000">Columns []*model.ColumnInfo</text>
<polyline fill="none" stroke="#000000" points="0,-361.5 193.3242,-361.5 "/>
<text text-anchor="start" x="8" y="-346.3" font-family="Times,serif" font-size="14.00" fill="#000000">DBName model.CIStr</text>
<polyline fill="none" stroke="#000000" points="0,-339.5 193.3242,-339.5 "/>
<text text-anchor="middle" x="96.6621" y="-324.3" font-family="Times,serif" font-size="14.00" fill="#000000">...</text>
</g>
<!-- DataSource&#45;&gt;logicalSchemaProducer -->
<g id="edge7" class="edge">
<title>DataSource:logicalSchemaProducer&#45;&gt;logicalSchemaProducer</title>
<path fill="none" stroke="#000000" d="M193.3242,-460.5C263.9017,-460.5 304.1351,-377.1987 323.5401,-319.4866"/>
<polygon fill="#000000" stroke="#000000" points="326.9427,-320.3406 326.7007,-309.7485 320.2845,-318.1796 326.9427,-320.3406"/>
</g>
<!-- LogicalSelection -->
<g id="node7" class="node">
<title>LogicalSelection</title>
<polygon fill="none" stroke="#000000" points="230.3242,-136.5 230.3242,-202.5 446.1934,-202.5 446.1934,-136.5 230.3242,-136.5"/>
<text text-anchor="middle" x="338.2588" y="-187.3" font-family="Times,serif" font-size="14.00" fill="#000000">LogicalSelection</text>
<polyline fill="none" stroke="#000000" points="230.3242,-180.5 446.1934,-180.5 "/>
<text text-anchor="start" x="238.3242" y="-165.3" font-family="Times,serif" font-size="14.00" fill="#000000">baseLogicalPlan </text>
<polyline fill="none" stroke="#000000" points="230.3242,-158.5 446.1934,-158.5 "/>
<text text-anchor="start" x="238.3242" y="-143.3" font-family="Times,serif" font-size="14.00" fill="#000000">Conditions []expression.Expression</text>
</g>
<!-- LogicalSelection&#45;&gt;baseLogicalPlan -->
<g id="edge8" class="edge">
<title>LogicalSelection:baseLogicalPlan&#45;&gt;baseLogicalPlan</title>
<path fill="none" stroke="#000000" d="M446.1934,-169.5C475.5642,-169.5 507.4576,-172.4898 536.0224,-176.265"/>
<polygon fill="#000000" stroke="#000000" points="535.595,-179.7391 545.9777,-177.6295 536.5456,-172.8039 535.595,-179.7391"/>
</g>
<!-- LogicalProjection -->
<g id="node8" class="node">
<title>LogicalProjection</title>
<polygon fill="none" stroke="#000000" points="3.124,-144.5 3.124,-298.5 190.2002,-298.5 190.2002,-144.5 3.124,-144.5"/>
<text text-anchor="middle" x="96.6621" y="-283.3" font-family="Times,serif" font-size="14.00" fill="#000000">LogicalProjection</text>
<polyline fill="none" stroke="#000000" points="3.124,-276.5 190.2002,-276.5 "/>
<text text-anchor="start" x="11.124" y="-261.3" font-family="Times,serif" font-size="14.00" fill="#000000">logicalSchemaProducer</text>
<polyline fill="none" stroke="#000000" points="3.124,-254.5 190.2002,-254.5 "/>
<text text-anchor="start" x="11.124" y="-239.3" font-family="Times,serif" font-size="14.00" fill="#000000">Exprs []expression.Expression</text>
<polyline fill="none" stroke="#000000" points="3.124,-232.5 190.2002,-232.5 "/>
<text text-anchor="start" x="11.124" y="-217.3" font-family="Times,serif" font-size="14.00" fill="#000000">calculateGenCols bool</text>
<polyline fill="none" stroke="#000000" points="3.124,-210.5 190.2002,-210.5 "/>
<text text-anchor="start" x="11.124" y="-195.3" font-family="Times,serif" font-size="14.00" fill="#000000">CalculateNoDelay bool</text>
<polyline fill="none" stroke="#000000" points="3.124,-188.5 190.2002,-188.5 "/>
<text text-anchor="start" x="11.124" y="-173.3" font-family="Times,serif" font-size="14.00" fill="#000000">AvoidColumnEvaluator bool</text>
<polyline fill="none" stroke="#000000" points="3.124,-166.5 190.2002,-166.5 "/>
<text text-anchor="middle" x="96.6621" y="-151.3" font-family="Times,serif" font-size="14.00" fill="#000000"> </text>
</g>
<!-- LogicalProjection&#45;&gt;logicalSchemaProducer -->
<g id="edge9" class="edge">
<title>LogicalProjection:logicalSchemaProducer&#45;&gt;logicalSchemaProducer</title>
<path fill="none" stroke="#000000" d="M190.6621,-265.5C206.5773,-265.5 223.4578,-265.5 239.8984,-265.5"/>
<polygon fill="#000000" stroke="#000000" points="240.0656,-269.0001 250.0656,-265.5 240.0655,-262.0001 240.0656,-269.0001"/>
</g>
<!-- LogicalJoin -->
<g id="node9" class="node">
<title>LogicalJoin</title>
<polygon fill="none" stroke="#000000" points="22.186,-15.5 22.186,-125.5 171.1382,-125.5 171.1382,-15.5 22.186,-15.5"/>
<text text-anchor="middle" x="96.6621" y="-110.3" font-family="Times,serif" font-size="14.00" fill="#000000">LogicalJoin</text>
<polyline fill="none" stroke="#000000" points="22.186,-103.5 171.1382,-103.5 "/>
<text text-anchor="start" x="30.186" y="-88.3" font-family="Times,serif" font-size="14.00" fill="#000000">logicalSchemaProducer</text>
<polyline fill="none" stroke="#000000" points="22.186,-81.5 171.1382,-81.5 "/>
<text text-anchor="start" x="30.186" y="-66.3" font-family="Times,serif" font-size="14.00" fill="#000000">...</text>
<polyline fill="none" stroke="#000000" points="22.186,-59.5 171.1382,-59.5 "/>
<text text-anchor="start" x="30.186" y="-44.3" font-family="Times,serif" font-size="14.00" fill="#000000">JoinType JoinType</text>
<polyline fill="none" stroke="#000000" points="22.186,-37.5 171.1382,-37.5 "/>
<text text-anchor="middle" x="96.6621" y="-22.3" font-family="Times,serif" font-size="14.00" fill="#000000">...</text>
</g>
<!-- LogicalJoin&#45;&gt;logicalSchemaProducer -->
<g id="edge10" class="edge">
<title>LogicalJoin:logicalSchemaProducer&#45;&gt;logicalSchemaProducer</title>
<path fill="none" stroke="#000000" d="M170.6621,-92.5C229.8259,-92.5 188.824,-169.3326 230.3242,-211.5 233.9067,-215.1401 237.7855,-218.5765 241.8717,-221.8151"/>
<polygon fill="#000000" stroke="#000000" points="239.8413,-224.6668 249.962,-227.8009 244.0048,-219.0395 239.8413,-224.6668"/>
</g>
<!-- copTask -->
<g id="node10" class="node">
<title>copTask</title>
<polygon fill="none" stroke="#000000" points="655.5529,-106.5 592.6492,-106.5 592.6492,-70.5 655.5529,-70.5 655.5529,-106.5"/>
<text text-anchor="middle" x="624.1011" y="-84.3" font-family="Times,serif" font-size="14.00" fill="#000000">copTask</text>
</g>
<!-- copTask&#45;&gt;task -->
<g id="edge1" class="edge">
<title>copTask&#45;&gt;task</title>
<path fill="none" stroke="#000000" d="M655.5136,-88.5C696.1666,-88.5 768.4106,-88.5 824.3277,-88.5"/>
<polygon fill="#000000" stroke="#000000" points="824.5673,-92.0001 834.5673,-88.5 824.5673,-85.0001 824.5673,-92.0001"/>
<text text-anchor="middle" x="795.8433" y="-91.3" font-family="Times,serif" font-size="14.00" fill="#000000">impl</text>
</g>
<!-- rootTask -->
<g id="node11" class="node">
<title>rootTask</title>
<polygon fill="none" stroke="#000000" points="656.3895,-52.5 591.8126,-52.5 591.8126,-16.5 656.3895,-16.5 656.3895,-52.5"/>
<text text-anchor="middle" x="624.1011" y="-30.3" font-family="Times,serif" font-size="14.00" fill="#000000">rootTask</text>
</g>
<!-- rootTask&#45;&gt;task -->
<g id="edge2" class="edge">
<title>rootTask&#45;&gt;task</title>
<path fill="none" stroke="#000000" d="M656.5693,-40.6797C685.1341,-46.1264 727.8405,-54.2937 765.0088,-61.5 784.2478,-65.2301 804.993,-69.2831 824.3964,-73.0874"/>
<polygon fill="#000000" stroke="#000000" points="823.9189,-76.5604 834.4057,-75.0511 825.2666,-69.6913 823.9189,-76.5604"/>
<text text-anchor="middle" x="795.8433" y="-73.3" font-family="Times,serif" font-size="14.00" fill="#000000">impl</text>
</g>
</g>
</svg>
