<?xml version="1.0" encoding="UTF-8" standalone="no"?>
<!DOCTYPE svg PUBLIC "-//W3C//DTD SVG 1.1//EN"
 "http://www.w3.org/Graphics/SVG/1.1/DTD/svg11.dtd">
<!-- Generated by graphviz version 2.40.1 (20161225.0304)
 -->
<!-- Title: schema_kv Pages: 1 -->
<svg width="561pt" height="1476pt"
 viewBox="0.00 0.00 561.00 1476.00" xmlns="http://www.w3.org/2000/svg" xmlns:xlink="http://www.w3.org/1999/xlink">
<g id="graph0" class="graph" transform="scale(1 1) rotate(0) translate(4 1472)">
<title>schema_kv</title>
<polygon fill="#ffffff" stroke="transparent" points="-4,4 -4,-1472 557,-1472 557,4 -4,4"/>
<g id="clust1" class="cluster">
<title>cluster_kv</title>
<polygon fill="none" stroke="#000000" points="336,-8 336,-280 553,-280 553,-8 336,-8"/>
<text text-anchor="middle" x="444.5" y="-260" font-family="Times,serif" font-size="20.00" fill="#000000">kv</text>
</g>
<g id="clust2" class="cluster">
<title>cluster_Mutator</title>
<polygon fill="none" stroke="#000000" points="344,-16 344,-98 524,-98 524,-16 344,-16"/>
<text text-anchor="middle" x="434" y="-78" font-family="Times,serif" font-size="20.00" fill="#000000">Mutator</text>
</g>
<g id="clust3" class="cluster">
<title>cluster_Retriever</title>
<polygon fill="none" stroke="#000000" points="454,-106 454,-242 545,-242 545,-106 454,-106"/>
<text text-anchor="middle" x="499.5" y="-222" font-family="Times,serif" font-size="20.00" fill="#000000">Retriever</text>
</g>
<g id="clust4" class="cluster">
<title>cluster_structure</title>
<polygon fill="none" stroke="#000000" points="206,-288 206,-776 434,-776 434,-288 206,-288"/>
<text text-anchor="middle" x="320" y="-756" font-family="Times,serif" font-size="20.00" fill="#000000">structure</text>
</g>
<g id="clust5" class="cluster">
<title>cluster_hash</title>
<polygon fill="none" stroke="#000000" points="214,-386 214,-738 426,-738 426,-386 214,-386"/>
<text text-anchor="middle" x="320" y="-718" font-family="Times,serif" font-size="20.00" fill="#000000">hash.go</text>
</g>
<g id="clust6" class="cluster">
<title>cluster_string</title>
<polygon fill="none" stroke="#000000" points="216,-296 216,-378 302,-378 302,-296 216,-296"/>
<text text-anchor="middle" x="259" y="-358" font-family="Times,serif" font-size="20.00" fill="#000000">string.go</text>
</g>
<g id="clust7" class="cluster">
<title>cluster_meta</title>
<polygon fill="none" stroke="#000000" points="8,-784 8,-1460 310,-1460 310,-784 8,-784"/>
<text text-anchor="middle" x="159" y="-1440" font-family="Times,serif" font-size="20.00" fill="#000000">meta</text>
</g>
<!-- Mutator_Set -->
<g id="node1" class="node">
<title>Mutator_Set</title>
<polygon fill="none" stroke="#000000" points="516,-60 482,-60 482,-24 516,-24 516,-60"/>
<text text-anchor="middle" x="499" y="-38.3" font-family="Times,serif" font-size="14.00" fill="#000000">Set</text>
</g>
<!-- Mutator_Delete -->
<g id="node2" class="node">
<title>Mutator_Delete</title>
<polygon fill="none" stroke="#000000" points="404,-60 352,-60 352,-24 404,-24 404,-60"/>
<text text-anchor="middle" x="378" y="-38.3" font-family="Times,serif" font-size="14.00" fill="#000000">Delete</text>
</g>
<!-- Retriever_Iter -->
<g id="node3" class="node">
<title>Retriever_Iter</title>
<polygon fill="none" stroke="#000000" points="516.5,-150 481.5,-150 481.5,-114 516.5,-114 516.5,-150"/>
<text text-anchor="middle" x="499" y="-128.3" font-family="Times,serif" font-size="14.00" fill="#000000">Iter</text>
</g>
<!-- Retriever_Get -->
<g id="node4" class="node">
<title>Retriever_Get</title>
<polygon fill="none" stroke="#000000" points="517,-204 481,-204 481,-168 517,-168 517,-204"/>
<text text-anchor="middle" x="499" y="-182.3" font-family="Times,serif" font-size="14.00" fill="#000000">Get</text>
</g>
<!-- HGetAll -->
<g id="node5" class="node">
<title>HGetAll</title>
<polygon fill="none" stroke="#000000" points="290.5,-700 227.5,-700 227.5,-664 290.5,-664 290.5,-700"/>
<text text-anchor="middle" x="259" y="-678.3" font-family="Times,serif" font-size="14.00" fill="#000000">HGetAll</text>
</g>
<!-- iterateHash -->
<g id="node13" class="node">
<title>iterateHash</title>
<polygon fill="none" stroke="#000000" points="417,-619 339,-619 339,-583 417,-583 417,-619"/>
<text text-anchor="middle" x="378" y="-597.3" font-family="Times,serif" font-size="14.00" fill="#000000">iterateHash</text>
</g>
<!-- HGetAll&#45;&gt;iterateHash -->
<g id="edge6" class="edge">
<title>HGetAll&#45;&gt;iterateHash</title>
<path fill="none" stroke="#000000" d="M290.54,-666.4694C297.1014,-662.917 303.8787,-659.002 310,-655 323.5327,-646.1527 337.6615,-635.2407 349.5118,-625.5467"/>
<polygon fill="#000000" stroke="#000000" points="351.8558,-628.1497 357.3164,-619.0705 347.3858,-622.7628 351.8558,-628.1497"/>
</g>
<!-- HGet -->
<g id="node6" class="node">
<title>HGet</title>
<polygon fill="none" stroke="#000000" points="401,-686 355,-686 355,-650 401,-650 401,-686"/>
<text text-anchor="middle" x="378" y="-664.3" font-family="Times,serif" font-size="14.00" fill="#000000">HGet</text>
</g>
<!-- HGet&#45;&gt;Retriever_Get -->
<g id="edge1" class="edge">
<title>HGet&#45;&gt;Retriever_Get</title>
<path fill="none" stroke="#000000" d="M401.153,-657.1474C412.8981,-650.4234 426.2781,-640.6436 434,-628 476.8876,-557.7778 493.334,-300.3362 497.7081,-214.2511"/>
<polygon fill="#000000" stroke="#000000" points="501.2082,-214.334 498.2042,-204.174 494.2166,-213.9898 501.2082,-214.334"/>
</g>
<!-- HSet -->
<g id="node7" class="node">
<title>HSet</title>
<polygon fill="none" stroke="#000000" points="281,-538 237,-538 237,-502 281,-502 281,-538"/>
<text text-anchor="middle" x="259" y="-516.3" font-family="Times,serif" font-size="14.00" fill="#000000">HSet</text>
</g>
<!-- updateHash -->
<g id="node8" class="node">
<title>updateHash</title>
<polygon fill="none" stroke="#000000" points="418,-538 338,-538 338,-502 418,-502 418,-538"/>
<text text-anchor="middle" x="378" y="-516.3" font-family="Times,serif" font-size="14.00" fill="#000000">updateHash</text>
</g>
<!-- HSet&#45;&gt;updateHash -->
<g id="edge2" class="edge">
<title>HSet&#45;&gt;updateHash</title>
<path fill="none" stroke="#000000" d="M281.1041,-520C294.1164,-520 311.1417,-520 327.2847,-520"/>
<polygon fill="#000000" stroke="#000000" points="327.7147,-523.5001 337.7146,-520 327.7146,-516.5001 327.7147,-523.5001"/>
</g>
<!-- updateHash&#45;&gt;Mutator_Set -->
<g id="edge8" class="edge">
<title>updateHash&#45;&gt;Mutator_Set</title>
<path fill="none" stroke="#000000" d="M378.3655,-501.6194C380.1671,-441.5604 390.8389,-246.6569 454,-102 459.2917,-89.8806 467.4673,-77.9338 475.4058,-67.9302"/>
<polygon fill="#000000" stroke="#000000" points="478.2703,-69.9585 481.9498,-60.023 472.8776,-65.4954 478.2703,-69.9585"/>
</g>
<!-- HDel -->
<g id="node9" class="node">
<title>HDel</title>
<polygon fill="none" stroke="#000000" points="282,-430 236,-430 236,-394 282,-394 282,-430"/>
<text text-anchor="middle" x="259" y="-408.3" font-family="Times,serif" font-size="14.00" fill="#000000">HDel</text>
</g>
<!-- HDel&#45;&gt;Mutator_Delete -->
<g id="edge3" class="edge">
<title>HDel&#45;&gt;Mutator_Delete</title>
<path fill="none" stroke="#000000" d="M282.1401,-403.4838C292.166,-398.6583 303.153,-391.6267 310,-382 345.8411,-331.608 367.9516,-143.1102 375.2857,-70.6375"/>
<polygon fill="#000000" stroke="#000000" points="378.7941,-70.7247 376.2982,-60.4281 371.8283,-70.0338 378.7941,-70.7247"/>
</g>
<!-- HClear -->
<g id="node10" class="node">
<title>HClear</title>
<polygon fill="none" stroke="#000000" points="287,-484 231,-484 231,-448 287,-448 287,-484"/>
<text text-anchor="middle" x="259" y="-462.3" font-family="Times,serif" font-size="14.00" fill="#000000">HClear</text>
</g>
<!-- HInc -->
<g id="node11" class="node">
<title>HInc</title>
<polygon fill="none" stroke="#000000" points="281,-592 237,-592 237,-556 281,-556 281,-592"/>
<text text-anchor="middle" x="259" y="-570.3" font-family="Times,serif" font-size="14.00" fill="#000000">HInc</text>
</g>
<!-- HInc&#45;&gt;updateHash -->
<g id="edge4" class="edge">
<title>HInc&#45;&gt;updateHash</title>
<path fill="none" stroke="#000000" d="M281.1041,-563.9696C294.6016,-557.8446 312.4169,-549.7604 329.0866,-542.196"/>
<polygon fill="#000000" stroke="#000000" points="330.5351,-545.3823 338.1951,-538.0627 327.6424,-539.0079 330.5351,-545.3823"/>
</g>
<!-- HGetInt64 -->
<g id="node12" class="node">
<title>HGetInt64</title>
<polygon fill="none" stroke="#000000" points="296,-646 222,-646 222,-610 296,-610 296,-646"/>
<text text-anchor="middle" x="259" y="-624.3" font-family="Times,serif" font-size="14.00" fill="#000000">HGetInt64</text>
</g>
<!-- HGetInt64&#45;&gt;HGet -->
<g id="edge5" class="edge">
<title>HGetInt64&#45;&gt;HGet</title>
<path fill="none" stroke="#000000" d="M296,-640.437C311.7831,-645.7422 330.0432,-651.8801 345.3202,-657.0152"/>
<polygon fill="#000000" stroke="#000000" points="344.2785,-660.3574 354.8726,-660.2261 346.5089,-653.7222 344.2785,-660.3574"/>
</g>
<!-- iterateHash&#45;&gt;Retriever_Iter -->
<g id="edge7" class="edge">
<title>iterateHash&#45;&gt;Retriever_Iter</title>
<path fill="none" stroke="#000000" d="M404.39,-582.7638C415.6052,-573.4664 427.56,-561.1339 434,-547 469.798,-468.4346 409.5417,-233.01 454,-159 458.2884,-151.8611 465.2514,-146.378 472.4323,-142.2784"/>
<polygon fill="#000000" stroke="#000000" points="474.0536,-145.3812 481.4597,-137.8049 470.9455,-139.109 474.0536,-145.3812"/>
</g>
<!-- Inc -->
<g id="node14" class="node">
<title>Inc</title>
<polygon fill="none" stroke="#000000" points="276,-340 242,-340 242,-304 276,-304 276,-340"/>
<text text-anchor="middle" x="259" y="-318.3" font-family="Times,serif" font-size="14.00" fill="#000000">Inc</text>
</g>
<!-- ListDatabases -->
<g id="node15" class="node">
<title>ListDatabases</title>
<polygon fill="none" stroke="#000000" points="144,-1422 52,-1422 52,-1386 144,-1386 144,-1422"/>
<text text-anchor="middle" x="98" y="-1400.3" font-family="Times,serif" font-size="14.00" fill="#000000">ListDatabases</text>
</g>
<!-- ListDatabases&#45;&gt;HGetAll -->
<g id="edge9" class="edge">
<title>ListDatabases&#45;&gt;HGetAll</title>
<path fill="none" stroke="#000000" d="M144.3049,-1398.8641C157.896,-1394.996 171.4044,-1388.3513 180,-1377 220.0824,-1324.0675 188.3128,-843.997 206,-780 213.1616,-754.0874 228.1694,-727.4249 240.3926,-708.4649"/>
<polygon fill="#000000" stroke="#000000" points="243.3482,-710.3408 245.9482,-700.0699 237.5107,-706.4776 243.3482,-710.3408"/>
</g>
<!-- ListTables -->
<g id="node16" class="node">
<title>ListTables</title>
<polygon fill="none" stroke="#000000" points="135,-1368 61,-1368 61,-1332 135,-1332 135,-1368"/>
<text text-anchor="middle" x="98" y="-1346.3" font-family="Times,serif" font-size="14.00" fill="#000000">ListTables</text>
</g>
<!-- ListTables&#45;&gt;HGetAll -->
<g id="edge10" class="edge">
<title>ListTables&#45;&gt;HGetAll</title>
<path fill="none" stroke="#000000" d="M135.305,-1347.0227C151.6512,-1343.6788 169.4744,-1336.8378 180,-1323 216.5681,-1274.9247 189.7837,-838.1849 206,-780 213.2176,-754.103 228.2205,-727.4391 240.4277,-708.4746"/>
<polygon fill="#000000" stroke="#000000" points="243.3833,-710.3503 245.975,-700.0773 237.5427,-706.4919 243.3833,-710.3503"/>
</g>
<!-- GetDatabase -->
<g id="node17" class="node">
<title>GetDatabase</title>
<polygon fill="none" stroke="#000000" points="302,-882 216,-882 216,-846 302,-846 302,-882"/>
<text text-anchor="middle" x="259" y="-860.3" font-family="Times,serif" font-size="14.00" fill="#000000">GetDatabase</text>
</g>
<!-- GetDatabase&#45;&gt;HGet -->
<g id="edge11" class="edge">
<title>GetDatabase&#45;&gt;HGet</title>
<path fill="none" stroke="#000000" d="M299.9285,-845.8572C303.6071,-843.2224 307.0498,-840.2753 310,-837 346.892,-796.0423 365.0698,-732.5172 372.9152,-696.1398"/>
<polygon fill="#000000" stroke="#000000" points="376.3716,-696.7068 374.9445,-686.2086 369.5133,-695.3054 376.3716,-696.7068"/>
</g>
<!-- GetTable -->
<g id="node18" class="node">
<title>GetTable</title>
<polygon fill="none" stroke="#000000" points="292.5,-828 225.5,-828 225.5,-792 292.5,-792 292.5,-828"/>
<text text-anchor="middle" x="259" y="-806.3" font-family="Times,serif" font-size="14.00" fill="#000000">GetTable</text>
</g>
<!-- GetTable&#45;&gt;HGet -->
<g id="edge12" class="edge">
<title>GetTable&#45;&gt;HGet</title>
<path fill="none" stroke="#000000" d="M274.3136,-791.7267C295.1102,-766.9105 332.406,-722.4063 356.1416,-694.0832"/>
<polygon fill="#000000" stroke="#000000" points="359.0047,-696.1158 362.7452,-686.2032 353.6396,-691.6196 359.0047,-696.1158"/>
</g>
<!-- UpdateTable -->
<g id="node19" class="node">
<title>UpdateTable</title>
<polygon fill="none" stroke="#000000" points="141,-1098 55,-1098 55,-1062 141,-1062 141,-1098"/>
<text text-anchor="middle" x="98" y="-1076.3" font-family="Times,serif" font-size="14.00" fill="#000000">UpdateTable</text>
</g>
<!-- UpdateTable&#45;&gt;HSet -->
<g id="edge13" class="edge">
<title>UpdateTable&#45;&gt;HSet</title>
<path fill="none" stroke="#000000" d="M141.2495,-1075.6354C155.8215,-1071.9062 170.7235,-1065.1516 180,-1053 248.3209,-963.5048 144.7224,-641.4573 206,-547 211.0634,-539.1949 219.1271,-533.5395 227.4523,-529.4873"/>
<polygon fill="#000000" stroke="#000000" points="228.9457,-532.6564 236.8167,-525.5643 226.241,-526.2001 228.9457,-532.6564"/>
</g>
<!-- DropTableOrView -->
<g id="node20" class="node">
<title>DropTableOrView</title>
<polygon fill="none" stroke="#000000" points="157.5,-936 38.5,-936 38.5,-900 157.5,-900 157.5,-936"/>
<text text-anchor="middle" x="98" y="-914.3" font-family="Times,serif" font-size="14.00" fill="#000000">DropTableOrView</text>
</g>
<!-- DropTableOrView&#45;&gt;HDel -->
<g id="edge14" class="edge">
<title>DropTableOrView&#45;&gt;HDel</title>
<path fill="none" stroke="#000000" d="M157.7371,-907.8684C166.3601,-903.9254 174.2474,-898.4878 180,-891 241.2945,-811.2162 150.9856,-523.2371 206,-439 210.8702,-431.5428 218.4748,-426.0457 226.4185,-422.0343"/>
<polygon fill="#000000" stroke="#000000" points="227.9776,-425.1731 235.7559,-417.9795 225.1893,-418.7524 227.9776,-425.1731"/>
</g>
<!-- CreateTableOrView -->
<g id="node21" class="node">
<title>CreateTableOrView</title>
<polygon fill="none" stroke="#000000" points="161,-1044 35,-1044 35,-1008 161,-1008 161,-1044"/>
<text text-anchor="middle" x="98" y="-1022.3" font-family="Times,serif" font-size="14.00" fill="#000000">CreateTableOrView</text>
</g>
<!-- CreateTableOrView&#45;&gt;HSet -->
<g id="edge15" class="edge">
<title>CreateTableOrView&#45;&gt;HSet</title>
<path fill="none" stroke="#000000" d="M161.3836,-1014.0854C168.5701,-1010.33 175.0692,-1005.4181 180,-999 241.2945,-919.2162 150.9856,-631.2371 206,-547 211.0873,-539.2105 219.1581,-533.5596 227.4824,-529.5069"/>
<polygon fill="#000000" stroke="#000000" points="228.9746,-532.6765 236.8429,-525.5814 226.2674,-526.2211 228.9746,-532.6765"/>
</g>
<!-- CreateTableAndSetAutoID -->
<g id="node22" class="node">
<title>CreateTableAndSetAutoID</title>
<polygon fill="none" stroke="#000000" points="180,-1260 16,-1260 16,-1224 180,-1224 180,-1260"/>
<text text-anchor="middle" x="98" y="-1238.3" font-family="Times,serif" font-size="14.00" fill="#000000">CreateTableAndSetAutoID</text>
</g>
<!-- CreateTableAndSetAutoID&#45;&gt;HInc -->
<g id="edge16" class="edge">
<title>CreateTableAndSetAutoID&#45;&gt;HInc</title>
<path fill="none" stroke="#000000" d="M171.2478,-1223.8634C174.5099,-1221.2852 177.4686,-1218.3472 180,-1215 221.1889,-1160.5382 169.0961,-658.4519 206,-601 211.0282,-593.1722 219.0815,-587.51 227.4079,-583.4586"/>
<polygon fill="#000000" stroke="#000000" points="228.9031,-586.6271 236.778,-579.5394 226.2019,-580.1692 228.9031,-586.6271"/>
</g>
<!-- DropDatabase -->
<g id="node23" class="node">
<title>DropDatabase</title>
<polygon fill="none" stroke="#000000" points="145,-990 51,-990 51,-954 145,-954 145,-990"/>
<text text-anchor="middle" x="98" y="-968.3" font-family="Times,serif" font-size="14.00" fill="#000000">DropDatabase</text>
</g>
<!-- DropDatabase&#45;&gt;HDel -->
<g id="edge17" class="edge">
<title>DropDatabase&#45;&gt;HDel</title>
<path fill="none" stroke="#000000" d="M145.1104,-966.576C158.4074,-962.6722 171.542,-956.0794 180,-945 248.3209,-855.5048 144.7224,-533.4573 206,-439 210.8474,-431.5279 218.4445,-426.026 226.3884,-422.0147"/>
<polygon fill="#000000" stroke="#000000" points="227.9484,-425.1532 235.729,-417.962 225.1622,-418.7316 227.9484,-425.1532"/>
</g>
<!-- DropDatabase&#45;&gt;HClear -->
<g id="edge18" class="edge">
<title>DropDatabase&#45;&gt;HClear</title>
<path fill="none" stroke="#000000" d="M145.0692,-966.5444C158.3643,-962.6391 171.5081,-956.0534 180,-945 241.2945,-865.2162 150.9856,-577.2371 206,-493 209.8697,-487.0748 215.4657,-482.387 221.5865,-478.6988"/>
<polygon fill="#000000" stroke="#000000" points="223.4863,-481.6581 230.7896,-473.9826 220.2939,-475.4284 223.4863,-481.6581"/>
</g>
<!-- UpdateDatabase -->
<g id="node24" class="node">
<title>UpdateDatabase</title>
<polygon fill="none" stroke="#000000" points="150.5,-1206 45.5,-1206 45.5,-1170 150.5,-1170 150.5,-1206"/>
<text text-anchor="middle" x="98" y="-1184.3" font-family="Times,serif" font-size="14.00" fill="#000000">UpdateDatabase</text>
</g>
<!-- UpdateDatabase&#45;&gt;HSet -->
<g id="edge19" class="edge">
<title>UpdateDatabase&#45;&gt;HSet</title>
<path fill="none" stroke="#000000" d="M150.7257,-1180.8227C162.0473,-1176.7863 172.7673,-1170.5634 180,-1161 221.1889,-1106.5382 169.0961,-604.4519 206,-547 211.0282,-539.1722 219.0815,-533.51 227.4079,-529.4586"/>
<polygon fill="#000000" stroke="#000000" points="228.9031,-532.6271 236.778,-525.5394 226.2019,-526.1692 228.9031,-532.6271"/>
</g>
<!-- CreateDatabase -->
<g id="node25" class="node">
<title>CreateDatabase</title>
<polygon fill="none" stroke="#000000" points="148.5,-1152 47.5,-1152 47.5,-1116 148.5,-1116 148.5,-1152"/>
<text text-anchor="middle" x="98" y="-1130.3" font-family="Times,serif" font-size="14.00" fill="#000000">CreateDatabase</text>
</g>
<!-- CreateDatabase&#45;&gt;HSet -->
<g id="edge20" class="edge">
<title>CreateDatabase&#45;&gt;HSet</title>
<path fill="none" stroke="#000000" d="M148.5689,-1127.5332C160.666,-1123.5302 172.2946,-1117.1454 180,-1107 217.6744,-1057.3957 172.2289,-599.3399 206,-547 211.0441,-539.1824 219.1021,-533.5233 227.428,-529.4715"/>
<polygon fill="#000000" stroke="#000000" points="228.9224,-532.6403 236.7955,-525.5506 226.2196,-526.1832 228.9224,-532.6403"/>
</g>
<!-- GetAutoTableID -->
<g id="node26" class="node">
<title>GetAutoTableID</title>
<polygon fill="none" stroke="#000000" points="152,-1314 44,-1314 44,-1278 152,-1278 152,-1314"/>
<text text-anchor="middle" x="98" y="-1292.3" font-family="Times,serif" font-size="14.00" fill="#000000">GetAutoTableID</text>
</g>
<!-- GetAutoTableID&#45;&gt;HGetInt64 -->
<g id="edge21" class="edge">
<title>GetAutoTableID&#45;&gt;HGetInt64</title>
<path fill="none" stroke="#000000" d="M152.4191,-1288.2007C163.1106,-1284.1557 173.129,-1278.0852 180,-1269 221.1889,-1214.5382 169.0961,-712.4519 206,-655 208.0754,-651.769 210.6663,-648.9069 213.579,-646.3748"/>
<polygon fill="#000000" stroke="#000000" points="215.8116,-649.081 221.908,-640.4159 211.7386,-643.388 215.8116,-649.081"/>
</g>
<!-- GenGlobalID -->
<g id="node27" class="node">
<title>GenGlobalID</title>
<polygon fill="none" stroke="#000000" points="143,-882 53,-882 53,-846 143,-846 143,-882"/>
<text text-anchor="middle" x="98" y="-860.3" font-family="Times,serif" font-size="14.00" fill="#000000">GenGlobalID</text>
</g>
<!-- GenGlobalID&#45;&gt;Inc -->
<g id="edge22" class="edge">
<title>GenGlobalID&#45;&gt;Inc</title>
<path fill="none" stroke="#000000" d="M143.3557,-859.0356C157.2278,-855.1995 171.145,-848.5305 180,-837 241.6848,-756.6767 167.4674,-475.6594 206,-382 212.1275,-367.1062 223.5666,-353.4025 234.2534,-342.8631"/>
<polygon fill="#000000" stroke="#000000" points="236.9122,-345.1681 241.8154,-335.7762 232.1255,-340.0605 236.9122,-345.1681"/>
</g>
<!-- GenGlobalIDs -->
<g id="node28" class="node">
<title>GenGlobalIDs</title>
<polygon fill="none" stroke="#000000" points="145.5,-828 50.5,-828 50.5,-792 145.5,-792 145.5,-828"/>
<text text-anchor="middle" x="98" y="-806.3" font-family="Times,serif" font-size="14.00" fill="#000000">GenGlobalIDs</text>
</g>
<!-- GenGlobalIDs&#45;&gt;Inc -->
<g id="edge23" class="edge">
<title>GenGlobalIDs&#45;&gt;Inc</title>
<path fill="none" stroke="#000000" d="M99.5084,-791.7962C105.2024,-730.5655 129.1339,-527.736 206,-382 213.3046,-368.1506 224.444,-354.8711 234.6285,-344.3419"/>
<polygon fill="#000000" stroke="#000000" points="237.1916,-346.7289 241.8072,-337.1923 232.2519,-341.7691 237.1916,-346.7289"/>
</g>
</g>
</svg>
