<?xml version="1.0" encoding="UTF-8" standalone="no"?>
<!DOCTYPE svg PUBLIC "-//W3C//DTD SVG 1.1//EN"
 "http://www.w3.org/Graphics/SVG/1.1/DTD/svg11.dtd">
<!-- Generated by graphviz version 2.40.1 (20161225.0304)
 -->
<!-- Title: table_remove_record Pages: 1 -->
<svg width="1192pt" height="476pt"
 viewBox="0.00 0.00 1191.52 476.00" xmlns="http://www.w3.org/2000/svg" xmlns:xlink="http://www.w3.org/1999/xlink">
<g id="graph0" class="graph" transform="scale(1 1) rotate(0) translate(4 472)">
<title>table_remove_record</title>
<polygon fill="#ffffff" stroke="transparent" points="-4,4 -4,-472 1187.5225,-472 1187.5225,4 -4,4"/>
<g id="clust1" class="cluster">
<title>cluster_kv</title>
<path fill="none" stroke="#000000" d="M1068.8809,-184C1068.8809,-184 1114.8809,-184 1114.8809,-184 1120.8809,-184 1126.8809,-190 1126.8809,-196 1126.8809,-196 1126.8809,-252 1126.8809,-252 1126.8809,-258 1120.8809,-264 1114.8809,-264 1114.8809,-264 1068.8809,-264 1068.8809,-264 1062.8809,-264 1056.8809,-258 1056.8809,-252 1056.8809,-252 1056.8809,-196 1056.8809,-196 1056.8809,-190 1062.8809,-184 1068.8809,-184"/>
<text text-anchor="middle" x="1091.8809" y="-244" font-family="Times,serif" font-size="20.00" fill="#000000">kv</text>
</g>
<g id="clust2" class="cluster">
<title>cluster_sessionCtx</title>
<path fill="none" stroke="#000000" d="M847.1543,-184C847.1543,-184 976.2393,-184 976.2393,-184 982.2393,-184 988.2393,-190 988.2393,-196 988.2393,-196 988.2393,-252 988.2393,-252 988.2393,-258 982.2393,-264 976.2393,-264 976.2393,-264 847.1543,-264 847.1543,-264 841.1543,-264 835.1543,-258 835.1543,-252 835.1543,-252 835.1543,-196 835.1543,-196 835.1543,-190 841.1543,-184 847.1543,-184"/>
<text text-anchor="middle" x="911.6968" y="-244" font-family="Times,serif" font-size="20.00" fill="#000000">sessionCtx</text>
</g>
<g id="clust3" class="cluster">
<title>cluster_tablecodec</title>
<path fill="none" stroke="#000000" d="M1053.667,-8C1053.667,-8 1131.0947,-8 1131.0947,-8 1137.0947,-8 1143.0947,-14 1143.0947,-20 1143.0947,-20 1143.0947,-76 1143.0947,-76 1143.0947,-82 1137.0947,-88 1131.0947,-88 1131.0947,-88 1053.667,-88 1053.667,-88 1047.667,-88 1041.667,-82 1041.667,-76 1041.667,-76 1041.667,-20 1041.667,-20 1041.667,-14 1047.667,-8 1053.667,-8"/>
<text text-anchor="middle" x="1092.3809" y="-68" font-family="Times,serif" font-size="20.00" fill="#000000">tablecodec</text>
</g>
<g id="clust4" class="cluster">
<title>cluster_Index</title>
<path fill="none" stroke="#000000" d="M1068.8809,-96C1068.8809,-96 1114.8809,-96 1114.8809,-96 1120.8809,-96 1126.8809,-102 1126.8809,-108 1126.8809,-108 1126.8809,-164 1126.8809,-164 1126.8809,-170 1120.8809,-176 1114.8809,-176 1114.8809,-176 1068.8809,-176 1068.8809,-176 1062.8809,-176 1056.8809,-170 1056.8809,-164 1056.8809,-164 1056.8809,-108 1056.8809,-108 1056.8809,-102 1062.8809,-96 1068.8809,-96"/>
<text text-anchor="middle" x="1091.8809" y="-156" font-family="Times,serif" font-size="20.00" fill="#000000">Index</text>
</g>
<g id="clust5" class="cluster">
<title>cluster_tableCommon</title>
<path fill="none" stroke="#000000" d="M708.0713,-272C708.0713,-272 1163.5225,-272 1163.5225,-272 1169.5225,-272 1175.5225,-278 1175.5225,-284 1175.5225,-284 1175.5225,-448 1175.5225,-448 1175.5225,-454 1169.5225,-460 1163.5225,-460 1163.5225,-460 708.0713,-460 708.0713,-460 702.0713,-460 696.0713,-454 696.0713,-448 696.0713,-448 696.0713,-284 696.0713,-284 696.0713,-278 702.0713,-272 708.0713,-272"/>
<text text-anchor="middle" x="935.7969" y="-440" font-family="Times,serif" font-size="20.00" fill="#000000">tableCommon</text>
</g>
<g id="clust9" class="cluster">
<title>cluster_executor</title>
<path fill="none" stroke="#000000" d="M525.6436,-299C525.6436,-299 664.0713,-299 664.0713,-299 670.0713,-299 676.0713,-305 676.0713,-311 676.0713,-311 676.0713,-367 676.0713,-367 676.0713,-373 670.0713,-379 664.0713,-379 664.0713,-379 525.6436,-379 525.6436,-379 519.6436,-379 513.6436,-373 513.6436,-367 513.6436,-367 513.6436,-311 513.6436,-311 513.6436,-305 519.6436,-299 525.6436,-299"/>
<text text-anchor="middle" x="594.8574" y="-359" font-family="Times,serif" font-size="20.00" fill="#000000">executor/delete.go</text>
</g>
<g id="clust10" class="cluster">
<title>cluster_DeleteExec</title>
<path fill="none" stroke="#000000" d="M20,-272C20,-272 481.6436,-272 481.6436,-272 487.6436,-272 493.6436,-278 493.6436,-284 493.6436,-284 493.6436,-394 493.6436,-394 493.6436,-400 487.6436,-406 481.6436,-406 481.6436,-406 20,-406 20,-406 14,-406 8,-400 8,-394 8,-394 8,-284 8,-284 8,-278 14,-272 20,-272"/>
<text text-anchor="middle" x="250.8218" y="-386" font-family="Times,serif" font-size="20.00" fill="#000000">DeleteExec</text>
</g>
<!-- txn_Delete -->
<g id="node1" class="node">
<title>txn_Delete</title>
<polygon fill="none" stroke="#000000" points="1118.8809,-228 1064.8809,-228 1064.8809,-192 1118.8809,-192 1118.8809,-228"/>
<text text-anchor="middle" x="1091.8809" y="-205.8" font-family="Times,serif" font-size="14.00" fill="#000000">Delete</text>
</g>
<!-- UpdateDeltaForTable -->
<g id="node2" class="node">
<title>UpdateDeltaForTable</title>
<polygon fill="none" stroke="#000000" points="980.2818,-228 843.1118,-228 843.1118,-192 980.2818,-192 980.2818,-228"/>
<text text-anchor="middle" x="911.6968" y="-205.8" font-family="Times,serif" font-size="14.00" fill="#000000">UpdateDeltaForTable</text>
</g>
<!-- EncodeRow -->
<g id="node3" class="node">
<title>EncodeRow</title>
<polygon fill="none" stroke="#000000" points="1134.3097,-52 1049.452,-52 1049.452,-16 1134.3097,-16 1134.3097,-52"/>
<text text-anchor="middle" x="1091.8809" y="-29.8" font-family="Times,serif" font-size="14.00" fill="#000000">EncodeRow</text>
</g>
<!-- Index_Delete -->
<g id="node4" class="node">
<title>Index_Delete</title>
<polygon fill="none" stroke="#000000" points="1118.8809,-140 1064.8809,-140 1064.8809,-104 1118.8809,-104 1118.8809,-140"/>
<text text-anchor="middle" x="1091.8809" y="-117.8" font-family="Times,serif" font-size="14.00" fill="#000000">Delete</text>
</g>
<!-- Table_RemoveRecord -->
<g id="node5" class="node">
<title>Table_RemoveRecord</title>
<polygon fill="none" stroke="#000000" points="807.1958,-343 704.0298,-343 704.0298,-307 807.1958,-307 807.1958,-343"/>
<text text-anchor="middle" x="755.6128" y="-320.8" font-family="Times,serif" font-size="14.00" fill="#000000">RemoveRecord</text>
</g>
<!-- Table_RemoveRecord&#45;&gt;UpdateDeltaForTable -->
<g id="edge1" class="edge">
<title>Table_RemoveRecord&#45;&gt;UpdateDeltaForTable</title>
<path fill="none" stroke="#000000" d="M780.3448,-306.7779C806.9453,-287.1791 849.374,-255.9184 878.7806,-234.2521"/>
<polygon fill="#000000" stroke="#000000" points="881.1058,-236.8863 887.0805,-228.1368 876.9536,-231.2508 881.1058,-236.8863"/>
</g>
<!-- removeRowData -->
<g id="node7" class="node">
<title>removeRowData</title>
<polygon fill="none" stroke="#000000" points="967.0523,-424 856.3412,-424 856.3412,-388 967.0523,-388 967.0523,-424"/>
<text text-anchor="middle" x="911.6968" y="-401.8" font-family="Times,serif" font-size="14.00" fill="#000000">removeRowData</text>
</g>
<!-- Table_RemoveRecord&#45;&gt;removeRowData -->
<g id="edge2" class="edge">
<title>Table_RemoveRecord&#45;&gt;removeRowData</title>
<path fill="none" stroke="#000000" d="M778.9876,-343.2319C794.3335,-354.5928 815.1911,-368.9153 835.1543,-379 838.9039,-380.8942 842.8183,-382.7133 846.8082,-384.4493"/>
<polygon fill="#000000" stroke="#000000" points="845.6347,-387.7516 856.2129,-388.3449 848.3136,-381.2844 845.6347,-387.7516"/>
</g>
<!-- removeRowIndices -->
<g id="node8" class="node">
<title>removeRowIndices</title>
<polygon fill="none" stroke="#000000" points="974.0523,-370 849.3412,-370 849.3412,-334 974.0523,-334 974.0523,-370"/>
<text text-anchor="middle" x="911.6968" y="-347.8" font-family="Times,serif" font-size="14.00" fill="#000000">removeRowIndices</text>
</g>
<!-- Table_RemoveRecord&#45;&gt;removeRowIndices -->
<g id="edge3" class="edge">
<title>Table_RemoveRecord&#45;&gt;removeRowIndices</title>
<path fill="none" stroke="#000000" d="M807.5865,-333.9906C817.6671,-335.7344 828.4033,-337.5916 839.0071,-339.4259"/>
<polygon fill="#000000" stroke="#000000" points="838.657,-342.9172 849.1073,-341.173 839.8502,-336.0196 838.657,-342.9172"/>
</g>
<!-- addDeleteBinlog -->
<g id="node9" class="node">
<title>addDeleteBinlog</title>
<polygon fill="none" stroke="#000000" points="967.0592,-316 856.3344,-316 856.3344,-280 967.0592,-280 967.0592,-316"/>
<text text-anchor="middle" x="911.6968" y="-293.8" font-family="Times,serif" font-size="14.00" fill="#000000">addDeleteBinlog</text>
</g>
<!-- Table_RemoveRecord&#45;&gt;addDeleteBinlog -->
<g id="edge4" class="edge">
<title>Table_RemoveRecord&#45;&gt;addDeleteBinlog</title>
<path fill="none" stroke="#000000" d="M807.5865,-316.0094C819.9021,-313.879 833.1963,-311.5793 846.0321,-309.3589"/>
<polygon fill="#000000" stroke="#000000" points="846.9434,-312.7534 856.2004,-307.6 845.7502,-305.8558 846.9434,-312.7534"/>
</g>
<!-- RecordKey -->
<g id="node6" class="node">
<title>RecordKey</title>
<polygon fill="none" stroke="#000000" points="1167.6643,-423.7002 1016.0974,-423.7002 1016.0974,-362.2998 1167.6643,-362.2998 1167.6643,-423.7002"/>
<text text-anchor="start" x="1024.2393" y="-408.3999" font-family="Times,serif" font-size="14.00" fill="#000000">RecordKey</text>
<text text-anchor="start" x="1024.2393" y="-394.3999" font-family="Times,serif" font-size="14.00" fill="#000000">根据recordkey和handle</text>
<text text-anchor="start" x="1024.2393" y="-374.8" font-family="Times,serif" font-size="14.00" fill="#000000">生成对应的key</text>
</g>
<!-- removeRowData&#45;&gt;txn_Delete -->
<g id="edge5" class="edge">
<title>removeRowData&#45;&gt;txn_Delete</title>
<path fill="none" stroke="#000000" d="M967.1907,-393.9235C975.0696,-390.2085 982.4472,-385.3511 988.2393,-379 1022.5231,-341.4067 988.2769,-310.5059 1016.2393,-268 1026.2563,-252.7729 1041.6555,-239.9124 1055.9515,-230.2005"/>
<polygon fill="#000000" stroke="#000000" points="1058.16,-232.9402 1064.6521,-224.5674 1054.3557,-227.0642 1058.16,-232.9402"/>
</g>
<!-- removeRowData&#45;&gt;RecordKey -->
<g id="edge6" class="edge">
<title>removeRowData&#45;&gt;RecordKey</title>
<path fill="none" stroke="#000000" d="M967.2282,-401.9935C979.5057,-401.1077 992.7925,-400.1491 1005.9602,-399.199"/>
<polygon fill="#000000" stroke="#000000" points="1006.2656,-402.6862 1015.9878,-398.4756 1005.7618,-395.7043 1006.2656,-402.6862"/>
</g>
<!-- removeRowIndices&#45;&gt;Index_Delete -->
<g id="edge8" class="edge">
<title>removeRowIndices&#45;&gt;Index_Delete</title>
<path fill="none" stroke="#000000" d="M974.2719,-336.5625C979.4981,-333.4002 984.2841,-329.5902 988.2393,-325 1031.0829,-275.277 981.7258,-235.8281 1016.2393,-180 1025.8955,-164.3803 1041.3932,-151.4039 1055.8538,-141.7141"/>
<polygon fill="#000000" stroke="#000000" points="1058.1028,-144.4317 1064.662,-136.1114 1054.3458,-138.5253 1058.1028,-144.4317"/>
</g>
<!-- addDeleteBinlog&#45;&gt;EncodeRow -->
<g id="edge7" class="edge">
<title>addDeleteBinlog&#45;&gt;EncodeRow</title>
<path fill="none" stroke="#000000" d="M967.3883,-284.305C975.3422,-280.2094 982.6921,-274.8947 988.2393,-268 1037.8901,-206.288 975.7065,-160.0491 1016.2393,-92 1024.367,-78.3546 1037.0323,-66.7885 1049.6905,-57.6606"/>
<polygon fill="#000000" stroke="#000000" points="1051.6731,-60.5449 1057.9599,-52.0169 1047.7271,-54.7631 1051.6731,-60.5449"/>
</g>
<!-- removeRow -->
<g id="node10" class="node">
<title>removeRow</title>
<polygon fill="none" stroke="#000000" points="637.2862,-343 552.4286,-343 552.4286,-307 637.2862,-307 637.2862,-343"/>
<text text-anchor="middle" x="594.8574" y="-320.8" font-family="Times,serif" font-size="14.00" fill="#000000">removeRow</text>
</g>
<!-- removeRow&#45;&gt;Table_RemoveRecord -->
<g id="edge9" class="edge">
<title>removeRow&#45;&gt;Table_RemoveRecord</title>
<path fill="none" stroke="#000000" d="M637.094,-325C654.4418,-325 674.8754,-325 693.8455,-325"/>
<polygon fill="#000000" stroke="#000000" points="693.9055,-328.5001 703.9055,-325 693.9054,-321.5001 693.9055,-328.5001"/>
</g>
<!-- deleteMultiTablesByChunk -->
<g id="node11" class="node">
<title>deleteMultiTablesByChunk</title>
<polygon fill="none" stroke="#000000" points="276.3311,-316 106.2226,-316 106.2226,-280 276.3311,-280 276.3311,-316"/>
<text text-anchor="middle" x="191.2769" y="-293.8" font-family="Times,serif" font-size="14.00" fill="#000000">deleteMultiTablesByChunk</text>
</g>
<!-- removeRowsInTblRowMap -->
<g id="node12" class="node">
<title>removeRowsInTblRowMap</title>
<polygon fill="none" stroke="#000000" points="485.6885,-316 312.5088,-316 312.5088,-280 485.6885,-280 485.6885,-316"/>
<text text-anchor="middle" x="399.0986" y="-293.8" font-family="Times,serif" font-size="14.00" fill="#000000">removeRowsInTblRowMap</text>
</g>
<!-- deleteMultiTablesByChunk&#45;&gt;removeRowsInTblRowMap -->
<g id="edge10" class="edge">
<title>deleteMultiTablesByChunk&#45;&gt;removeRowsInTblRowMap</title>
<path fill="none" stroke="#000000" d="M276.4056,-298C284.9458,-298 293.6612,-298 302.3104,-298"/>
<polygon fill="#000000" stroke="#000000" points="302.4191,-301.5001 312.419,-298 302.419,-294.5001 302.4191,-301.5001"/>
</g>
<!-- removeRowsInTblRowMap&#45;&gt;removeRow -->
<g id="edge11" class="edge">
<title>removeRowsInTblRowMap&#45;&gt;removeRow</title>
<path fill="none" stroke="#000000" d="M485.8162,-309.9605C505.1371,-312.6253 525.0458,-315.3712 542.478,-317.7756"/>
<polygon fill="#000000" stroke="#000000" points="542.048,-321.2493 552.4325,-319.1485 543.0045,-314.315 542.048,-321.2493"/>
</g>
<!-- Next -->
<g id="node13" class="node">
<title>Next</title>
<polygon fill="none" stroke="#000000" points="70,-343 16,-343 16,-307 70,-307 70,-343"/>
<text text-anchor="middle" x="43" y="-320.8" font-family="Times,serif" font-size="14.00" fill="#000000">Next</text>
</g>
<!-- Next&#45;&gt;deleteMultiTablesByChunk -->
<g id="edge12" class="edge">
<title>Next&#45;&gt;deleteMultiTablesByChunk</title>
<path fill="none" stroke="#000000" d="M70.1963,-320.0478C77.8906,-318.6467 86.7309,-317.037 96.0567,-315.3388"/>
<polygon fill="#000000" stroke="#000000" points="96.7119,-318.7772 105.923,-313.5422 95.4578,-311.8904 96.7119,-318.7772"/>
</g>
<!-- deleteSingleTableByChunk -->
<g id="node14" class="node">
<title>deleteSingleTableByChunk</title>
<polygon fill="none" stroke="#000000" points="276.0446,-370 106.5091,-370 106.5091,-334 276.0446,-334 276.0446,-370"/>
<text text-anchor="middle" x="191.2769" y="-347.8" font-family="Times,serif" font-size="14.00" fill="#000000">deleteSingleTableByChunk</text>
</g>
<!-- Next&#45;&gt;deleteSingleTableByChunk -->
<g id="edge13" class="edge">
<title>Next&#45;&gt;deleteSingleTableByChunk</title>
<path fill="none" stroke="#000000" d="M70.1963,-329.9522C77.9527,-331.3646 86.8736,-332.989 96.2824,-334.7023"/>
<polygon fill="#000000" stroke="#000000" points="95.7703,-338.1665 106.2355,-336.5147 97.0243,-331.2797 95.7703,-338.1665"/>
</g>
<!-- deleteOneRow -->
<g id="node15" class="node">
<title>deleteOneRow</title>
<polygon fill="none" stroke="#000000" points="448.7922,-370 349.4051,-370 349.4051,-334 448.7922,-334 448.7922,-370"/>
<text text-anchor="middle" x="399.0986" y="-347.8" font-family="Times,serif" font-size="14.00" fill="#000000">deleteOneRow</text>
</g>
<!-- deleteSingleTableByChunk&#45;&gt;deleteOneRow -->
<g id="edge14" class="edge">
<title>deleteSingleTableByChunk&#45;&gt;deleteOneRow</title>
<path fill="none" stroke="#000000" d="M276.1057,-352C297.3236,-352 319.6408,-352 339.3527,-352"/>
<polygon fill="#000000" stroke="#000000" points="339.4038,-355.5001 349.4037,-352 339.4037,-348.5001 339.4038,-355.5001"/>
</g>
<!-- deleteOneRow&#45;&gt;removeRow -->
<g id="edge15" class="edge">
<title>deleteOneRow&#45;&gt;removeRow</title>
<path fill="none" stroke="#000000" d="M448.7499,-345.1519C477.4251,-341.1968 513.4629,-336.2263 542.5723,-332.2114"/>
<polygon fill="#000000" stroke="#000000" points="543.1283,-335.668 552.5563,-330.8344 542.1718,-328.7336 543.1283,-335.668"/>
</g>
</g>
</svg>
