<?xml version="1.0" encoding="UTF-8" standalone="no"?>
<!DOCTYPE svg PUBLIC "-//W3C//DTD SVG 1.1//EN"
 "http://www.w3.org/Graphics/SVG/1.1/DTD/svg11.dtd">
<!-- Generated by graphviz version 2.40.1 (20161225.0304)
 -->
<!-- Title: table_reader Pages: 1 -->
<svg width="1214pt" height="814pt"
 viewBox="0.00 0.00 1213.51 814.00" xmlns="http://www.w3.org/2000/svg" xmlns:xlink="http://www.w3.org/1999/xlink">
<g id="graph0" class="graph" transform="scale(1 1) rotate(0) translate(4 810)">
<title>table_reader</title>
<polygon fill="#ffffff" stroke="transparent" points="-4,4 -4,-810 1209.5117,-810 1209.5117,4 -4,4"/>
<g id="clust1" class="cluster">
<title>cluster_distsql</title>
<path fill="none" stroke="#000000" d="M272.6348,-150C272.6348,-150 1078.8496,-150 1078.8496,-150 1084.8496,-150 1090.8496,-156 1090.8496,-162 1090.8496,-162 1090.8496,-360 1090.8496,-360 1090.8496,-366 1084.8496,-372 1078.8496,-372 1078.8496,-372 272.6348,-372 272.6348,-372 266.6348,-372 260.6348,-366 260.6348,-360 260.6348,-360 260.6348,-162 260.6348,-162 260.6348,-156 266.6348,-150 272.6348,-150"/>
<text text-anchor="middle" x="675.7422" y="-352" font-family="Times,serif" font-size="20.00" fill="#000000">distsql</text>
</g>
<g id="clust2" class="cluster">
<title>cluster_request_builder</title>
<path fill="none" stroke="#000000" d="M280.6348,-158C280.6348,-158 852.2871,-158 852.2871,-158 858.2871,-158 864.2871,-164 864.2871,-170 864.2871,-170 864.2871,-280 864.2871,-280 864.2871,-286 858.2871,-292 852.2871,-292 852.2871,-292 280.6348,-292 280.6348,-292 274.6348,-292 268.6348,-286 268.6348,-280 268.6348,-280 268.6348,-170 268.6348,-170 268.6348,-164 274.6348,-158 280.6348,-158"/>
<text text-anchor="middle" x="566.4609" y="-272" font-family="Times,serif" font-size="20.00" fill="#000000">request_builder</text>
</g>
<g id="clust5" class="cluster">
<title>cluster_kv</title>
<path fill="none" stroke="#000000" d="M930.0054,-8C930.0054,-8 1185.5117,-8 1185.5117,-8 1191.5117,-8 1197.5117,-14 1197.5117,-20 1197.5117,-20 1197.5117,-130 1197.5117,-130 1197.5117,-136 1191.5117,-142 1185.5117,-142 1185.5117,-142 930.0054,-142 930.0054,-142 924.0054,-142 918.0054,-136 918.0054,-130 918.0054,-130 918.0054,-20 918.0054,-20 918.0054,-14 924.0054,-8 930.0054,-8"/>
<text text-anchor="middle" x="1057.7585" y="-122" font-family="Times,serif" font-size="20.00" fill="#000000">kv</text>
</g>
<g id="clust6" class="cluster">
<title>cluster_table_reader</title>
<path fill="none" stroke="#000000" d="M20,-380C20,-380 822.6655,-380 822.6655,-380 828.6655,-380 834.6655,-386 834.6655,-392 834.6655,-392 834.6655,-786 834.6655,-786 834.6655,-792 828.6655,-798 822.6655,-798 822.6655,-798 20,-798 20,-798 14,-798 8,-792 8,-786 8,-786 8,-392 8,-392 8,-386 14,-380 20,-380"/>
<text text-anchor="middle" x="421.3328" y="-778" font-family="Times,serif" font-size="20.00" fill="#000000">table_reader</text>
</g>
<g id="clust7" class="cluster">
<title>cluster_tableResultHandler</title>
<path fill="none" stroke="#000000" d="M667.4595,-682C667.4595,-682 812.9009,-682 812.9009,-682 818.9009,-682 824.9009,-688 824.9009,-694 824.9009,-694 824.9009,-750 824.9009,-750 824.9009,-756 818.9009,-762 812.9009,-762 812.9009,-762 667.4595,-762 667.4595,-762 661.4595,-762 655.4595,-756 655.4595,-750 655.4595,-750 655.4595,-694 655.4595,-694 655.4595,-688 661.4595,-682 667.4595,-682"/>
<text text-anchor="middle" x="740.1802" y="-742" font-family="Times,serif" font-size="20.00" fill="#000000">tableResultHandler</text>
</g>
<g id="clust8" class="cluster">
<title>cluster_tableExecutor</title>
<path fill="none" stroke="#000000" d="M28,-432C28,-432 814.6655,-432 814.6655,-432 820.6655,-432 826.6655,-438 826.6655,-444 826.6655,-444 826.6655,-662 826.6655,-662 826.6655,-668 820.6655,-674 814.6655,-674 814.6655,-674 28,-674 28,-674 22,-674 16,-668 16,-662 16,-662 16,-444 16,-444 16,-438 22,-432 28,-432"/>
<text text-anchor="middle" x="421.3328" y="-654" font-family="Times,serif" font-size="20.00" fill="#000000">tableExecutor</text>
</g>
<!-- SetDAGRequest -->
<g id="node1" class="node">
<title>SetDAGRequest</title>
<polygon fill="none" stroke="#000000" points="386.1216,-256 276.4722,-256 276.4722,-220 386.1216,-220 386.1216,-256"/>
<text text-anchor="middle" x="331.2969" y="-233.8" font-family="Times,serif" font-size="14.00" fill="#000000">SetDAGRequest</text>
</g>
<!-- SetTableRanges -->
<g id="node2" class="node">
<title>SetTableRanges</title>
<polygon fill="none" stroke="#000000" points="384.292,-202 278.3018,-202 278.3018,-166 384.292,-166 384.292,-202"/>
<text text-anchor="middle" x="331.2969" y="-179.8" font-family="Times,serif" font-size="14.00" fill="#000000">SetTableRanges</text>
</g>
<!-- TableRangesToKVRanges -->
<g id="node3" class="node">
<title>TableRangesToKVRanges</title>
<polygon fill="none" stroke="#000000" points="587.1304,-202 422.9018,-202 422.9018,-166 587.1304,-166 587.1304,-202"/>
<text text-anchor="middle" x="505.0161" y="-179.8" font-family="Times,serif" font-size="14.00" fill="#000000">TableRangesToKVRanges</text>
</g>
<!-- SetTableRanges&#45;&gt;TableRangesToKVRanges -->
<g id="edge1" class="edge">
<title>SetTableRanges&#45;&gt;TableRangesToKVRanges</title>
<path fill="none" stroke="#000000" d="M384.3623,-184C393.3971,-184 403.0099,-184 412.7136,-184"/>
<polygon fill="#000000" stroke="#000000" points="412.8384,-187.5001 422.8383,-184 412.8383,-180.5001 412.8384,-187.5001"/>
</g>
<!-- tableRangesToKVRangesWithoutSplit -->
<g id="node4" class="node">
<title>tableRangesToKVRangesWithoutSplit</title>
<polygon fill="none" stroke="#000000" points="856.3941,-202 623.9662,-202 623.9662,-166 856.3941,-166 856.3941,-202"/>
<text text-anchor="middle" x="740.1802" y="-179.8" font-family="Times,serif" font-size="14.00" fill="#000000">tableRangesToKVRangesWithoutSplit</text>
</g>
<!-- TableRangesToKVRanges&#45;&gt;tableRangesToKVRangesWithoutSplit -->
<g id="edge2" class="edge">
<title>TableRangesToKVRanges&#45;&gt;tableRangesToKVRangesWithoutSplit</title>
<path fill="none" stroke="#000000" d="M587.2651,-184C595.9261,-184 604.8691,-184 613.8807,-184"/>
<polygon fill="#000000" stroke="#000000" points="614.0729,-187.5001 624.0729,-184 614.0729,-180.5001 614.0729,-187.5001"/>
</g>
<!-- Client -->
<g id="node5" class="node">
<title>Client</title>
<polygon fill="none" stroke="#000000" points="926.0054,-17 926.0054,-105 1082.5591,-105 1082.5591,-17 926.0054,-17"/>
<text text-anchor="middle" x="1004.2822" y="-89.8" font-family="Times,serif" font-size="14.00" fill="#000000">Client</text>
<polyline fill="none" stroke="#000000" points="926.0054,-83 1082.5591,-83 "/>
<text text-anchor="start" x="934.0054" y="-67.8" font-family="Times,serif" font-size="14.00" fill="#000000">Send</text>
<polyline fill="none" stroke="#000000" points="926.0054,-61 1082.5591,-61 "/>
<text text-anchor="start" x="934.0054" y="-45.8" font-family="Times,serif" font-size="14.00" fill="#000000">IsRequestTypeSupported</text>
<polyline fill="none" stroke="#000000" points="926.0054,-39 1082.5591,-39 "/>
<text text-anchor="middle" x="1004.2822" y="-23.8" font-family="Times,serif" font-size="14.00" fill="#000000"> </text>
</g>
<!-- Response -->
<g id="node6" class="node">
<title>Response</title>
<polygon fill="none" stroke="#000000" points="1119.8496,-39 1119.8496,-105 1189.5117,-105 1189.5117,-39 1119.8496,-39"/>
<text text-anchor="middle" x="1154.6807" y="-89.8" font-family="Times,serif" font-size="14.00" fill="#000000">Response</text>
<polyline fill="none" stroke="#000000" points="1119.8496,-83 1189.5117,-83 "/>
<text text-anchor="start" x="1127.8496" y="-67.8" font-family="Times,serif" font-size="14.00" fill="#000000">Next</text>
<polyline fill="none" stroke="#000000" points="1119.8496,-61 1189.5117,-61 "/>
<text text-anchor="start" x="1127.8496" y="-45.8" font-family="Times,serif" font-size="14.00" fill="#000000">Close</text>
</g>
<!-- selectResult -->
<g id="node7" class="node">
<title>selectResult</title>
<polygon fill="none" stroke="#000000" points="925.7148,-184.2 925.7148,-335.8 1082.8496,-335.8 1082.8496,-184.2 925.7148,-184.2"/>
<text text-anchor="middle" x="1004.2822" y="-320.6" font-family="Times,serif" font-size="14.00" fill="#000000">selectResult</text>
<polyline fill="none" stroke="#000000" points="925.7148,-313.8 1082.8496,-313.8 "/>
<text text-anchor="start" x="933.7148" y="-298.6" font-family="Times,serif" font-size="14.00" fill="#000000">fetch</text>
<polyline fill="none" stroke="#000000" points="925.7148,-291.8 1082.8496,-291.8 "/>
<text text-anchor="start" x="933.7148" y="-276.6" font-family="Times,serif" font-size="14.00" fill="#000000">Fetch</text>
<polyline fill="none" stroke="#000000" points="925.7148,-269.8 1082.8496,-269.8 "/>
<text text-anchor="start" x="933.7148" y="-254.6" font-family="Times,serif" font-size="14.00" fill="#000000">Next</text>
<polyline fill="none" stroke="#000000" points="925.7148,-247.8 1082.8496,-247.8 "/>
<text text-anchor="start" x="933.7148" y="-232.6" font-family="Times,serif" font-size="14.00" fill="#000000">getSelectResp</text>
<text text-anchor="middle" x="1004.2822" y="-218.6" font-family="Times,serif" font-size="14.00" fill="#000000">等待fetch goroutine结果</text>
<polyline fill="none" stroke="#000000" points="925.7148,-206.2 1082.8496,-206.2 "/>
<text text-anchor="middle" x="1004.2822" y="-191" font-family="Times,serif" font-size="14.00" fill="#000000"> </text>
</g>
<!-- selectResult&#45;&gt;Response -->
<g id="edge18" class="edge">
<title>selectResult:fetch&#45;&gt;Response:Next</title>
<path fill="none" stroke="#000000" d="M1083.2822,-303C1106.477,-303 1096.6954,-118.9633 1112.8054,-79.4242"/>
<polygon fill="#000000" stroke="#000000" points="1115.5056,-81.6634 1119.8496,-72 1110.4276,-76.8452 1115.5056,-81.6634"/>
</g>
<!-- selectResult&#45;&gt;selectResult -->
<g id="edge3" class="edge">
<title>selectResult:Next&#45;&gt;selectResult:getSelectResp</title>
<path fill="none" stroke="#000000" d="M925.4869,-263.7732C898.9745,-261.7987 877.7148,-255.5488 877.7148,-243 877.7148,-232.0688 893.8468,-225.9172 915.5302,-223.2078"/>
<polygon fill="#000000" stroke="#000000" points="915.8783,-226.6905 925.4869,-222.2268 915.1918,-219.7243 915.8783,-226.6905"/>
</g>
<!-- selectResult&#45;&gt;selectResult -->
<g id="edge4" class="edge">
<title>selectResult:Fetch&#45;&gt;selectResult:fetch</title>
<path fill="none" stroke="#000000" d="M925.4869,-275.6091C898.9745,-276.961 877.7148,-281.9609 877.7148,-292 877.7148,-300.7057 893.7024,-305.622 915.2388,-307.656"/>
<polygon fill="#000000" stroke="#000000" points="915.2621,-311.1665 925.4869,-308.3909 915.7629,-304.1845 915.2621,-311.1665"/>
<text text-anchor="middle" x="870.7148" y="-255.8" font-family="Times,serif" font-size="14.00" fill="#000000">go</text>
</g>
<!-- Select -->
<g id="node8" class="node">
<title>Select</title>
<polygon fill="none" stroke="#000000" points="767.1802,-336 713.1802,-336 713.1802,-300 767.1802,-300 767.1802,-336"/>
<text text-anchor="middle" x="740.1802" y="-313.8" font-family="Times,serif" font-size="14.00" fill="#000000">Select</text>
</g>
<!-- Select&#45;&gt;Client -->
<g id="edge20" class="edge">
<title>Select&#45;&gt;Client:Send</title>
<path fill="none" stroke="#000000" d="M767.2266,-320.915C795.0667,-322.3425 837.9831,-319.9273 864.2871,-296 899.8074,-263.6892 878.2245,-97.8489 916.5162,-74.6873"/>
<polygon fill="#000000" stroke="#000000" points="917.5692,-78.0277 926.2822,-72 915.712,-71.2786 917.5692,-78.0277"/>
</g>
<!-- Select&#45;&gt;selectResult -->
<g id="edge5" class="edge">
<title>Select&#45;&gt;selectResult</title>
<path fill="none" stroke="#000000" d="M767.4123,-313.7858C792.6355,-309.7375 831.1402,-303.1889 864.2871,-296 880.9959,-292.3762 898.7264,-288.1315 915.7514,-283.8531"/>
<polygon fill="#000000" stroke="#000000" points="916.8484,-287.1858 925.6809,-281.3345 915.1273,-280.4006 916.8484,-287.1858"/>
<text text-anchor="middle" x="891.001" y="-295.8" font-family="Times,serif" font-size="14.00" fill="#000000">return</text>
</g>
<!-- nextChunk -->
<g id="node9" class="node">
<title>nextChunk</title>
<polygon fill="none" stroke="#000000" points="779.1228,-726 701.2375,-726 701.2375,-690 779.1228,-690 779.1228,-726"/>
<text text-anchor="middle" x="740.1802" y="-703.8" font-family="Times,serif" font-size="14.00" fill="#000000">nextChunk</text>
</g>
<!-- nextChunk&#45;&gt;selectResult -->
<g id="edge17" class="edge">
<title>nextChunk&#45;&gt;selectResult:Next</title>
<path fill="none" stroke="#000000" d="M779.1868,-709.3051C806.9651,-707.9968 843.0091,-701.346 864.2871,-678 878.7709,-662.1085 898.0847,-325.1899 919.2622,-267.3993"/>
<polygon fill="#000000" stroke="#000000" points="922.3014,-269.1669 925.2822,-259 916.6119,-265.089 922.3014,-269.1669"/>
</g>
<!-- Open -->
<g id="node10" class="node">
<title>Open</title>
<polygon fill="none" stroke="#000000" points="78,-557 24,-557 24,-521 78,-521 78,-557"/>
<text text-anchor="middle" x="51" y="-534.8" font-family="Times,serif" font-size="14.00" fill="#000000">Open</text>
</g>
<!-- constructDistExec -->
<g id="node11" class="node">
<title>constructDistExec</title>
<polygon fill="none" stroke="#000000" points="233.4527,-476 115.1821,-476 115.1821,-440 233.4527,-440 233.4527,-476"/>
<text text-anchor="middle" x="174.3174" y="-453.8" font-family="Times,serif" font-size="14.00" fill="#000000">constructDistExec</text>
</g>
<!-- Open&#45;&gt;constructDistExec -->
<g id="edge6" class="edge">
<title>Open&#45;&gt;constructDistExec</title>
<path fill="none" stroke="#000000" d="M69.5345,-520.9924C81.7731,-509.721 98.5365,-495.4138 115,-485 117.1754,-483.6239 119.4327,-482.2792 121.74,-480.9712"/>
<polygon fill="#000000" stroke="#000000" points="123.6505,-483.9187 130.8206,-476.1187 120.3513,-477.7449 123.6505,-483.9187"/>
</g>
<!-- splitRanges -->
<g id="node12" class="node">
<title>splitRanges</title>
<polygon fill="none" stroke="#000000" points="215.1491,-530 133.4857,-530 133.4857,-494 215.1491,-494 215.1491,-530"/>
<text text-anchor="middle" x="174.3174" y="-507.8" font-family="Times,serif" font-size="14.00" fill="#000000">splitRanges</text>
</g>
<!-- Open&#45;&gt;splitRanges -->
<g id="edge7" class="edge">
<title>Open&#45;&gt;splitRanges</title>
<path fill="none" stroke="#000000" d="M78.0625,-533.0747C91.3229,-530.1714 107.7397,-526.577 123.2374,-523.1838"/>
<polygon fill="#000000" stroke="#000000" points="124.2265,-526.5503 133.2464,-520.9924 122.7292,-519.7122 124.2265,-526.5503"/>
</g>
<!-- buildResp -->
<g id="node13" class="node">
<title>buildResp</title>
<polygon fill="none" stroke="#000000" points="210.597,-584 138.0378,-584 138.0378,-548 210.597,-548 210.597,-584"/>
<text text-anchor="middle" x="174.3174" y="-561.8" font-family="Times,serif" font-size="14.00" fill="#000000">buildResp</text>
</g>
<!-- Open&#45;&gt;buildResp -->
<g id="edge8" class="edge">
<title>Open&#45;&gt;buildResp</title>
<path fill="none" stroke="#000000" d="M78.0625,-544.9253C92.6235,-548.1133 110.9904,-552.1347 127.767,-555.8079"/>
<polygon fill="#000000" stroke="#000000" points="127.4419,-559.3196 137.9591,-558.0395 128.9391,-552.4816 127.4419,-559.3196"/>
</g>
<!-- BuildTableRange -->
<g id="node14" class="node">
<title>BuildTableRange</title>
<polygon fill="none" stroke="#000000" points="231.092,-638 117.5427,-638 117.5427,-602 231.092,-602 231.092,-638"/>
<text text-anchor="middle" x="174.3174" y="-615.8" font-family="Times,serif" font-size="14.00" fill="#000000">BuildTableRange</text>
</g>
<!-- Open&#45;&gt;BuildTableRange -->
<g id="edge9" class="edge">
<title>Open&#45;&gt;BuildTableRange</title>
<path fill="none" stroke="#000000" d="M69.5345,-557.0076C81.7731,-568.279 98.5365,-582.5862 115,-593 117.1754,-594.3761 119.4327,-595.7208 121.74,-597.0288"/>
<polygon fill="#000000" stroke="#000000" points="120.3513,-600.2551 130.8206,-601.8813 123.6505,-594.0813 120.3513,-600.2551"/>
</g>
<!-- buildResp&#45;&gt;SetDAGRequest -->
<g id="edge13" class="edge">
<title>buildResp&#45;&gt;SetDAGRequest</title>
<path fill="none" stroke="#000000" d="M210.7709,-555.5881C219.3089,-551.6184 227.6487,-546.2362 233.6348,-539 265.997,-499.8789 245.7601,-476.544 260.6348,-428 278.6357,-369.2532 304.9486,-302.2668 319.8642,-265.6019"/>
<polygon fill="#000000" stroke="#000000" points="323.2058,-266.6774 323.7526,-256.0966 316.7269,-264.027 323.2058,-266.6774"/>
</g>
<!-- buildResp&#45;&gt;SetTableRanges -->
<g id="edge14" class="edge">
<title>buildResp&#45;&gt;SetTableRanges</title>
<path fill="none" stroke="#000000" d="M210.6448,-556.624C219.5065,-552.6185 228.0373,-546.9596 233.6348,-539 275.7046,-479.1759 216.7259,-269.4876 260.6348,-211 263.2071,-207.5736 266.2715,-204.5819 269.6607,-201.97"/>
<polygon fill="#000000" stroke="#000000" points="271.574,-204.9008 278.0795,-196.5384 267.7791,-199.0187 271.574,-204.9008"/>
</g>
<!-- SelectResult -->
<g id="node18" class="node">
<title>SelectResult</title>
<polygon fill="none" stroke="#000000" points="374.2832,-530 288.3105,-530 288.3105,-494 374.2832,-494 374.2832,-530"/>
<text text-anchor="middle" x="331.2969" y="-507.8" font-family="Times,serif" font-size="14.00" fill="#000000">SelectResult</text>
</g>
<!-- buildResp&#45;&gt;SelectResult -->
<g id="edge15" class="edge">
<title>buildResp&#45;&gt;SelectResult</title>
<path fill="none" stroke="#000000" d="M210.7262,-553.4756C230.8451,-546.5548 256.201,-537.8325 278.4631,-530.1745"/>
<polygon fill="#000000" stroke="#000000" points="279.7983,-533.4166 288.116,-526.854 277.5213,-526.7972 279.7983,-533.4166"/>
</g>
<!-- Next -->
<g id="node15" class="node">
<title>Next</title>
<polygon fill="none" stroke="#000000" points="532.0161,-638 478.0161,-638 478.0161,-602 532.0161,-602 532.0161,-638"/>
<text text-anchor="middle" x="505.0161" y="-615.8" font-family="Times,serif" font-size="14.00" fill="#000000">Next</text>
</g>
<!-- Next&#45;&gt;nextChunk -->
<g id="edge10" class="edge">
<title>Next&#45;&gt;nextChunk</title>
<path fill="none" stroke="#000000" d="M532.2319,-635.2088C555.9289,-647.9728 591.4972,-665.9947 624.0732,-678 645.7297,-685.9811 670.403,-692.6757 691.4191,-697.7013"/>
<polygon fill="#000000" stroke="#000000" points="690.8794,-701.1693 701.413,-700.0327 692.4697,-694.3523 690.8794,-701.1693"/>
</g>
<!-- NewChunkWithCapacity -->
<g id="node16" class="node">
<title>NewChunkWithCapacity</title>
<polygon fill="none" stroke="#000000" points="818.6509,-584 661.7095,-584 661.7095,-548 818.6509,-548 818.6509,-584"/>
<text text-anchor="middle" x="740.1802" y="-561.8" font-family="Times,serif" font-size="14.00" fill="#000000">NewChunkWithCapacity</text>
</g>
<!-- Next&#45;&gt;NewChunkWithCapacity -->
<g id="edge11" class="edge">
<title>Next&#45;&gt;NewChunkWithCapacity</title>
<path fill="none" stroke="#000000" d="M532.4527,-613.6998C561.6777,-606.989 609.471,-596.0143 651.8505,-586.2829"/>
<polygon fill="#000000" stroke="#000000" points="652.6811,-589.6833 661.6441,-584.034 651.1144,-582.8609 652.6811,-589.6833"/>
</g>
<!-- NewIterator4Chunk -->
<g id="node17" class="node">
<title>NewIterator4Chunk</title>
<polygon fill="none" stroke="#000000" points="804.146,-638 676.2144,-638 676.2144,-602 804.146,-602 804.146,-638"/>
<text text-anchor="middle" x="740.1802" y="-615.8" font-family="Times,serif" font-size="14.00" fill="#000000">NewIterator4Chunk</text>
</g>
<!-- Next&#45;&gt;NewIterator4Chunk -->
<g id="edge12" class="edge">
<title>Next&#45;&gt;NewIterator4Chunk</title>
<path fill="none" stroke="#000000" d="M532.4527,-620C564.8931,-620 620.2126,-620 665.6103,-620"/>
<polygon fill="#000000" stroke="#000000" points="665.7262,-623.5001 675.7262,-620 665.7262,-616.5001 665.7262,-623.5001"/>
</g>
<!-- SelectWithRuntimeStats -->
<g id="node19" class="node">
<title>SelectWithRuntimeStats</title>
<polygon fill="none" stroke="#000000" points="581.6109,-424 428.4214,-424 428.4214,-388 581.6109,-388 581.6109,-424"/>
<text text-anchor="middle" x="505.0161" y="-401.8" font-family="Times,serif" font-size="14.00" fill="#000000">SelectWithRuntimeStats</text>
</g>
<!-- SelectResult&#45;&gt;SelectWithRuntimeStats -->
<g id="edge16" class="edge">
<title>SelectResult&#45;&gt;SelectWithRuntimeStats</title>
<path fill="none" stroke="#000000" d="M346.2786,-493.8497C361.726,-476.2087 387.4849,-449.6034 422.0108,-429.0782"/>
<polygon fill="#000000" stroke="#000000" points="424.0002,-431.9739 430.9766,-424.0001 420.5504,-425.883 424.0002,-431.9739"/>
</g>
<!-- SelectWithRuntimeStats&#45;&gt;Select -->
<g id="edge19" class="edge">
<title>SelectWithRuntimeStats&#45;&gt;Select</title>
<path fill="none" stroke="#000000" d="M553.1725,-387.9795C597.7388,-371.3025 663.036,-346.8679 703.5069,-331.7234"/>
<polygon fill="#000000" stroke="#000000" points="704.8468,-334.9591 712.9858,-328.1763 702.3934,-328.4031 704.8468,-334.9591"/>
</g>
</g>
</svg>
