<?xml version="1.0" encoding="UTF-8" standalone="no"?>
<!DOCTYPE svg PUBLIC "-//W3C//DTD SVG 1.1//EN"
 "http://www.w3.org/Graphics/SVG/1.1/DTD/svg11.dtd">
<!-- Generated by graphviz version 2.40.1 (20161225.0304)
 -->
<!-- Title: tidb_main_server Pages: 1 -->
<svg width="1659pt" height="938pt"
 viewBox="0.00 0.00 1659.00 938.00" xmlns="http://www.w3.org/2000/svg" xmlns:xlink="http://www.w3.org/1999/xlink">
<g id="graph0" class="graph" transform="scale(1 1) rotate(0) translate(4 934)">
<title>tidb_main_server</title>
<polygon fill="#ffffff" stroke="transparent" points="-4,4 -4,-934 1655,-934 1655,4 -4,4"/>
<g id="clust1" class="cluster">
<title>cluster_main</title>
<polygon fill="none" stroke="#000000" points="8,-300 8,-922 260,-922 260,-300 8,-300"/>
<text text-anchor="middle" x="134" y="-902" font-family="Times,serif" font-size="20.00" fill="#000000">tidb&#45;server/main.go</text>
</g>
<g id="clust3" class="cluster">
<title>cluster_server</title>
<polygon fill="none" stroke="#000000" points="281,-319 281,-653 743,-653 743,-319 281,-319"/>
<text text-anchor="middle" x="512" y="-633" font-family="Times,serif" font-size="20.00" fill="#000000">server/server.go</text>
</g>
<g id="clust4" class="cluster">
<title>cluster_forloop</title>
<polygon fill="none" stroke="#000000" points="435,-327 435,-615 735,-615 735,-327 435,-327"/>
<text text-anchor="start" x="443" y="-595" font-family="Times,serif" font-size="20.00" fill="#000000">loop</text>
<text text-anchor="start" x="443" y="-573" font-family="Times,serif" font-size="20.00" fill="#000000"> Accept新连接，并启动goroutine </text>
<text text-anchor="middle" x="585" y="-551" font-family="Times,serif" font-size="20.00" fill="#000000">运行onConn处理该连接</text>
</g>
<g id="clust6" class="cluster">
<title>cluster_session</title>
<polygon fill="none" stroke="#000000" points="1492,-8 1492,-90 1651,-90 1651,-8 1492,-8"/>
<text text-anchor="middle" x="1571.5" y="-70" font-family="Times,serif" font-size="20.00" fill="#000000">session/session.go</text>
</g>
<g id="clust7" class="cluster">
<title>cluster_tidb</title>
<polygon fill="none" stroke="#000000" points="1278.5,-8 1278.5,-90 1460.5,-90 1460.5,-8 1278.5,-8"/>
<text text-anchor="middle" x="1369.5" y="-70" font-family="Times,serif" font-size="20.00" fill="#000000">server/driver_tidb.go</text>
</g>
<g id="clust8" class="cluster">
<title>cluster_conn</title>
<polygon fill="none" stroke="#000000" points="762,-98 762,-558 1471,-558 1471,-98 762,-98"/>
<text text-anchor="middle" x="1116.5" y="-538" font-family="Times,serif" font-size="20.00" fill="#000000">server/conn.go</text>
</g>
<g id="clust9" class="cluster">
<title>cluster_con_forloop</title>
<polygon fill="none" stroke="#000000" points="861,-273 861,-509 1041,-509 1041,-273 861,-273"/>
<text text-anchor="start" x="869" y="-489" font-family="Times,serif" font-size="20.00" fill="#000000">loop</text>
<text text-anchor="start" x="869" y="-467" font-family="Times,serif" font-size="20.00" fill="#000000">读取pack并dispatch</text>
<text text-anchor="middle" x="951" y="-445" font-family="Times,serif" font-size="20.00" fill="#000000">处理数据包</text>
</g>
<!-- main -->
<g id="node1" class="node">
<title>main</title>
<polygon fill="none" stroke="#000000" points="70,-614 16,-614 16,-578 70,-578 70,-614"/>
<text text-anchor="middle" x="43" y="-592.3" font-family="Times,serif" font-size="14.00" fill="#000000">main</text>
</g>
<!-- syncLog -->
<g id="node2" class="node">
<title>syncLog</title>
<polygon fill="none" stroke="#000000" points="211,-344 148,-344 148,-308 211,-308 211,-344"/>
<text text-anchor="middle" x="179.5" y="-322.3" font-family="Times,serif" font-size="14.00" fill="#000000">syncLog</text>
</g>
<!-- main&#45;&gt;syncLog -->
<g id="edge1" class="edge">
<title>main&#45;&gt;syncLog</title>
<path fill="none" stroke="#000000" d="M45.5842,-577.8516C53.103,-527.3694 76.3895,-386.7844 107,-353 115.2433,-343.902 126.8429,-337.8588 138.3511,-333.8488"/>
<polygon fill="#000000" stroke="#000000" points="139.3732,-337.1963 147.9208,-330.9362 137.335,-330.4996 139.3732,-337.1963"/>
</g>
<!-- cleanup -->
<g id="node3" class="node">
<title>cleanup</title>
<polygon fill="none" stroke="#000000" points="209,-398 150,-398 150,-362 209,-362 209,-398"/>
<text text-anchor="middle" x="179.5" y="-376.3" font-family="Times,serif" font-size="14.00" fill="#000000">cleanup</text>
</g>
<!-- main&#45;&gt;cleanup -->
<g id="edge2" class="edge">
<title>main&#45;&gt;cleanup</title>
<path fill="none" stroke="#000000" d="M44.1063,-577.7503C47.3187,-540.6291 59.7131,-455.727 107,-407 115.8423,-397.8884 128.0401,-391.8243 139.9096,-387.7996"/>
<polygon fill="#000000" stroke="#000000" points="141.1374,-391.0859 149.7218,-384.8763 139.1387,-384.3773 141.1374,-391.0859"/>
</g>
<!-- runServer -->
<g id="node4" class="node">
<title>runServer</title>
<polygon fill="none" stroke="#000000" points="214.5,-452 144.5,-452 144.5,-416 214.5,-416 214.5,-452"/>
<text text-anchor="middle" x="179.5" y="-430.3" font-family="Times,serif" font-size="14.00" fill="#000000">runServer</text>
</g>
<!-- main&#45;&gt;runServer -->
<g id="edge3" class="edge">
<title>main&#45;&gt;runServer</title>
<path fill="none" stroke="#000000" d="M46.9939,-577.6265C54.1545,-548.8885 71.8303,-493.2619 107,-461 114.8757,-453.7755 124.8597,-448.4336 134.8806,-444.5019"/>
<polygon fill="#000000" stroke="#000000" points="136.1557,-447.7638 144.4319,-441.1491 133.8371,-441.1589 136.1557,-447.7638"/>
</g>
<!-- createServer -->
<g id="node5" class="node">
<title>createServer</title>
<polygon fill="none" stroke="#000000" points="221.5,-506 137.5,-506 137.5,-470 221.5,-470 221.5,-506"/>
<text text-anchor="middle" x="179.5" y="-484.3" font-family="Times,serif" font-size="14.00" fill="#000000">createServer</text>
</g>
<!-- main&#45;&gt;createServer -->
<g id="edge4" class="edge">
<title>main&#45;&gt;createServer</title>
<path fill="none" stroke="#000000" d="M53.2619,-577.8315C64.3732,-559.6423 83.6726,-531.9835 107,-515 113.3369,-510.3864 120.5523,-506.4732 127.9164,-503.1807"/>
<polygon fill="#000000" stroke="#000000" points="129.3504,-506.3755 137.2688,-499.3363 126.689,-499.9011 129.3504,-506.3755"/>
</g>
<!-- createStoreAndDomain -->
<g id="node6" class="node">
<title>createStoreAndDomain</title>
<polygon fill="none" stroke="#000000" points="252,-560 107,-560 107,-524 252,-524 252,-560"/>
<text text-anchor="middle" x="179.5" y="-538.3" font-family="Times,serif" font-size="14.00" fill="#000000">createStoreAndDomain</text>
</g>
<!-- main&#45;&gt;createStoreAndDomain -->
<g id="edge5" class="edge">
<title>main&#45;&gt;createStoreAndDomain</title>
<path fill="none" stroke="#000000" d="M70.3011,-584.1796C81.6125,-579.3613 94.8946,-573.805 107,-569 111.4474,-567.2347 116.0609,-565.4378 120.7083,-563.6524"/>
<polygon fill="#000000" stroke="#000000" points="122.1534,-566.8474 130.2528,-560.0173 119.6619,-560.3057 122.1534,-566.8474"/>
</g>
<!-- setupMetrics -->
<g id="node7" class="node">
<title>setupMetrics</title>
<polygon fill="none" stroke="#000000" points="223,-614 136,-614 136,-578 223,-578 223,-614"/>
<text text-anchor="middle" x="179.5" y="-592.3" font-family="Times,serif" font-size="14.00" fill="#000000">setupMetrics</text>
</g>
<!-- main&#45;&gt;setupMetrics -->
<g id="edge6" class="edge">
<title>main&#45;&gt;setupMetrics</title>
<path fill="none" stroke="#000000" d="M70.2947,-596C86.1884,-596 106.7841,-596 125.7996,-596"/>
<polygon fill="#000000" stroke="#000000" points="125.8626,-599.5001 135.8626,-596 125.8626,-592.5001 125.8626,-599.5001"/>
</g>
<!-- setGlobalVars -->
<g id="node8" class="node">
<title>setGlobalVars</title>
<polygon fill="none" stroke="#000000" points="226.5,-668 132.5,-668 132.5,-632 226.5,-632 226.5,-668"/>
<text text-anchor="middle" x="179.5" y="-646.3" font-family="Times,serif" font-size="14.00" fill="#000000">setGlobalVars</text>
</g>
<!-- main&#45;&gt;setGlobalVars -->
<g id="edge7" class="edge">
<title>main&#45;&gt;setGlobalVars</title>
<path fill="none" stroke="#000000" d="M70.3011,-607.8204C81.6125,-612.6387 94.8946,-618.195 107,-623 112.0716,-625.0131 117.3592,-627.0672 122.6668,-629.0986"/>
<polygon fill="#000000" stroke="#000000" points="121.6081,-632.4403 132.1993,-632.7168 124.0922,-625.8959 121.6081,-632.4403"/>
</g>
<!-- overrideConfig -->
<g id="node9" class="node">
<title>overrideConfig</title>
<polygon fill="none" stroke="#000000" points="229,-722 130,-722 130,-686 229,-686 229,-722"/>
<text text-anchor="middle" x="179.5" y="-700.3" font-family="Times,serif" font-size="14.00" fill="#000000">overrideConfig</text>
</g>
<!-- main&#45;&gt;overrideConfig -->
<g id="edge8" class="edge">
<title>main&#45;&gt;overrideConfig</title>
<path fill="none" stroke="#000000" d="M53.2619,-614.1685C64.3732,-632.3577 83.6726,-660.0165 107,-677 111.1686,-680.0349 115.7174,-682.7668 120.4386,-685.2183"/>
<polygon fill="#000000" stroke="#000000" points="119.1398,-688.4758 129.6756,-689.593 122.136,-682.1495 119.1398,-688.4758"/>
</g>
<!-- loadConfig -->
<g id="node10" class="node">
<title>loadConfig</title>
<polygon fill="none" stroke="#000000" points="218,-776 141,-776 141,-740 218,-740 218,-776"/>
<text text-anchor="middle" x="179.5" y="-754.3" font-family="Times,serif" font-size="14.00" fill="#000000">loadConfig</text>
</g>
<!-- main&#45;&gt;loadConfig -->
<g id="edge9" class="edge">
<title>main&#45;&gt;loadConfig</title>
<path fill="none" stroke="#000000" d="M46.9939,-614.3735C54.1545,-643.1115 71.8303,-698.7381 107,-731 113.9052,-737.3343 122.4312,-742.2214 131.1818,-745.9796"/>
<polygon fill="#000000" stroke="#000000" points="130.1089,-749.3166 140.6992,-749.6296 132.6156,-742.7808 130.1089,-749.3166"/>
</g>
<!-- registerMetrics -->
<g id="node11" class="node">
<title>registerMetrics</title>
<polygon fill="none" stroke="#000000" points="229,-830 130,-830 130,-794 229,-794 229,-830"/>
<text text-anchor="middle" x="179.5" y="-808.3" font-family="Times,serif" font-size="14.00" fill="#000000">registerMetrics</text>
</g>
<!-- main&#45;&gt;registerMetrics -->
<g id="edge10" class="edge">
<title>main&#45;&gt;registerMetrics</title>
<path fill="none" stroke="#000000" d="M44.1063,-614.2497C47.3187,-651.3709 59.7131,-736.273 107,-785 111.0748,-789.1989 115.8621,-792.7506 121.0015,-795.7537"/>
<polygon fill="#000000" stroke="#000000" points="119.4217,-798.8769 129.9195,-800.3075 122.6051,-792.6426 119.4217,-798.8769"/>
</g>
<!-- registerStores -->
<g id="node12" class="node">
<title>registerStores</title>
<polygon fill="none" stroke="#000000" points="225,-884 134,-884 134,-848 225,-848 225,-884"/>
<text text-anchor="middle" x="179.5" y="-862.3" font-family="Times,serif" font-size="14.00" fill="#000000">registerStores</text>
</g>
<!-- main&#45;&gt;registerStores -->
<g id="edge11" class="edge">
<title>main&#45;&gt;registerStores</title>
<path fill="none" stroke="#000000" d="M45.5842,-614.1484C53.103,-664.6306 76.3895,-805.2156 107,-839 111.8981,-844.4059 117.9811,-848.7333 124.5259,-852.1965"/>
<polygon fill="#000000" stroke="#000000" points="123.1213,-855.4029 133.6688,-856.4035 126.0474,-849.0438 123.1213,-855.4029"/>
</g>
<!-- server_Run -->
<g id="node13" class="node">
<title>server_Run</title>
<polygon fill="none" stroke="#000000" points="343,-452 289,-452 289,-416 343,-416 343,-452"/>
<text text-anchor="middle" x="316" y="-430.3" font-family="Times,serif" font-size="14.00" fill="#000000">Run</text>
</g>
<!-- runServer&#45;&gt;server_Run -->
<g id="edge12" class="edge">
<title>runServer&#45;&gt;server_Run</title>
<path fill="none" stroke="#000000" d="M214.6521,-434C234.2039,-434 258.5373,-434 278.4598,-434"/>
<polygon fill="#000000" stroke="#000000" points="278.7206,-437.5001 288.7206,-434 278.7206,-430.5001 278.7206,-437.5001"/>
</g>
<!-- onConn -->
<g id="node14" class="node">
<title>onConn</title>
<polygon fill="none" stroke="#000000" points="614.5,-371 555.5,-371 555.5,-335 614.5,-335 614.5,-371"/>
<text text-anchor="middle" x="585" y="-349.3" font-family="Times,serif" font-size="14.00" fill="#000000">onConn</text>
</g>
<!-- server_Run&#45;&gt;onConn -->
<g id="edge13" class="edge">
<title>server_Run&#45;&gt;onConn</title>
<path fill="none" stroke="#000000" d="M342.0192,-415.6988C348.0858,-411.8687 354.6369,-408.0669 361,-405 421.3901,-375.893 498.9328,-362.5976 545.143,-356.8943"/>
<polygon fill="#000000" stroke="#000000" points="545.8248,-360.3383 555.3483,-355.6958 545.0083,-353.3861 545.8248,-360.3383"/>
<text text-anchor="middle" x="389" y="-408.8" font-family="Times,serif" font-size="14.00" fill="#000000">go routine</text>
</g>
<!-- newConn -->
<g id="node15" class="node">
<title>newConn</title>
<polygon fill="none" stroke="#000000" points="619,-425 551,-425 551,-389 619,-389 619,-425"/>
<text text-anchor="middle" x="585" y="-403.3" font-family="Times,serif" font-size="14.00" fill="#000000">newConn</text>
</g>
<!-- server_Run&#45;&gt;newConn -->
<g id="edge14" class="edge">
<title>server_Run&#45;&gt;newConn</title>
<path fill="none" stroke="#000000" d="M343.0244,-431.2875C389.4318,-426.6295 484.6886,-417.0684 540.8506,-411.4314"/>
<polygon fill="#000000" stroke="#000000" points="541.2612,-414.9078 550.8617,-410.4265 540.5621,-407.9428 541.2612,-414.9078"/>
</g>
<!-- listener_Accept -->
<g id="node16" class="node">
<title>listener_Accept</title>
<polygon fill="none" stroke="#000000" points="634,-479 536,-479 536,-443 634,-443 634,-479"/>
<text text-anchor="middle" x="585" y="-457.3" font-family="Times,serif" font-size="14.00" fill="#000000">listener.Accept</text>
</g>
<!-- server_Run&#45;&gt;listener_Accept -->
<g id="edge15" class="edge">
<title>server_Run&#45;&gt;listener_Accept</title>
<path fill="none" stroke="#000000" d="M343.0244,-436.7125C385.4181,-440.9676 468.5772,-449.3144 525.4584,-455.0237"/>
<polygon fill="#000000" stroke="#000000" points="525.4583,-458.5412 535.7579,-456.0575 526.1574,-451.5762 525.4583,-458.5412"/>
</g>
<!-- plugin_ForeachPlugin -->
<g id="node17" class="node">
<title>plugin_ForeachPlugin</title>
<polygon fill="none" stroke="#000000" points="652,-533 518,-533 518,-497 652,-497 652,-533"/>
<text text-anchor="middle" x="585" y="-511.3" font-family="Times,serif" font-size="14.00" fill="#000000">plugin.ForeachPlugin</text>
</g>
<!-- server_Run&#45;&gt;plugin_ForeachPlugin -->
<g id="edge16" class="edge">
<title>server_Run&#45;&gt;plugin_ForeachPlugin</title>
<path fill="none" stroke="#000000" d="M343.1288,-448.6579C366.7681,-460.853 402.293,-477.8092 435,-488 458.2098,-495.2316 484.0801,-500.7502 507.712,-504.8538"/>
<polygon fill="#000000" stroke="#000000" points="507.2474,-508.3247 517.6886,-506.5268 508.4051,-501.4211 507.2474,-508.3247"/>
</g>
<!-- conn_Run -->
<g id="node18" class="node">
<title>conn_Run</title>
<polygon fill="none" stroke="#000000" points="824,-371 770,-371 770,-335 824,-335 824,-371"/>
<text text-anchor="middle" x="797" y="-349.3" font-family="Times,serif" font-size="14.00" fill="#000000">Run</text>
</g>
<!-- onConn&#45;&gt;conn_Run -->
<g id="edge17" class="edge">
<title>onConn&#45;&gt;conn_Run</title>
<path fill="none" stroke="#000000" d="M614.9248,-353C652.9336,-353 718.5242,-353 759.7383,-353"/>
<polygon fill="#000000" stroke="#000000" points="759.9128,-356.5001 769.9128,-353 759.9128,-349.5001 759.9128,-356.5001"/>
</g>
<!-- dispatch -->
<g id="node21" class="node">
<title>dispatch</title>
<polygon fill="none" stroke="#000000" points="982,-317 920,-317 920,-281 982,-281 982,-317"/>
<text text-anchor="middle" x="951" y="-295.3" font-family="Times,serif" font-size="14.00" fill="#000000">dispatch</text>
</g>
<!-- conn_Run&#45;&gt;dispatch -->
<g id="edge19" class="edge">
<title>conn_Run&#45;&gt;dispatch</title>
<path fill="none" stroke="#000000" d="M824.1508,-340.7824C835.4393,-335.9032 848.7448,-330.4089 861,-326 876.8655,-320.2923 894.5908,-314.7922 910.0878,-310.2625"/>
<polygon fill="#000000" stroke="#000000" points="911.2676,-313.5651 919.9079,-307.4336 909.3298,-306.8386 911.2676,-313.5651"/>
</g>
<!-- writeError -->
<g id="node22" class="node">
<title>writeError</title>
<polygon fill="none" stroke="#000000" points="987.5,-371 914.5,-371 914.5,-335 987.5,-335 987.5,-371"/>
<text text-anchor="middle" x="951" y="-349.3" font-family="Times,serif" font-size="14.00" fill="#000000">writeError</text>
</g>
<!-- conn_Run&#45;&gt;writeError -->
<g id="edge20" class="edge">
<title>conn_Run&#45;&gt;writeError</title>
<path fill="none" stroke="#000000" d="M824.1776,-353C846.2841,-353 877.9923,-353 904.1725,-353"/>
<polygon fill="#000000" stroke="#000000" points="904.2707,-356.5001 914.2706,-353 904.2706,-349.5001 904.2707,-356.5001"/>
</g>
<!-- readPacket -->
<g id="node23" class="node">
<title>readPacket</title>
<polygon fill="none" stroke="#000000" points="1009,-427 893,-427 893,-389 1009,-389 1009,-427"/>
<text text-anchor="start" x="901" y="-411.8" font-family="Times,serif" font-size="14.00" fill="#000000">readPacket</text>
<text text-anchor="middle" x="951" y="-396.8" font-family="Times,serif" font-size="14.00" fill="#000000">读取网络请求包</text>
</g>
<!-- conn_Run&#45;&gt;readPacket -->
<g id="edge21" class="edge">
<title>conn_Run&#45;&gt;readPacket</title>
<path fill="none" stroke="#000000" d="M824.1734,-365.1552C835.4654,-370.0249 848.7673,-375.5289 861,-380 868.0531,-382.5779 875.4695,-385.1314 882.8925,-387.5863"/>
<polygon fill="#000000" stroke="#000000" points="882.0322,-390.9869 892.6244,-390.7505 884.1967,-384.3299 882.0322,-390.9869"/>
</g>
<!-- session_Execute -->
<g id="node19" class="node">
<title>session_Execute</title>
<polygon fill="none" stroke="#000000" points="1601,-52 1541,-52 1541,-16 1601,-16 1601,-52"/>
<text text-anchor="middle" x="1571" y="-30.3" font-family="Times,serif" font-size="14.00" fill="#000000">Execute</text>
</g>
<!-- ctx_Execute -->
<g id="node20" class="node">
<title>ctx_Execute</title>
<polygon fill="none" stroke="#000000" points="1437.5,-52 1300.5,-52 1300.5,-16 1437.5,-16 1437.5,-52"/>
<text text-anchor="middle" x="1369" y="-30.3" font-family="Times,serif" font-size="14.00" fill="#000000">TiDBContext.Execute</text>
</g>
<!-- ctx_Execute&#45;&gt;session_Execute -->
<g id="edge18" class="edge">
<title>ctx_Execute&#45;&gt;session_Execute</title>
<path fill="none" stroke="#000000" d="M1437.6699,-34C1468.6682,-34 1504.2087,-34 1530.7967,-34"/>
<polygon fill="#000000" stroke="#000000" points="1530.8801,-37.5001 1540.88,-34 1530.88,-30.5001 1530.8801,-37.5001"/>
</g>
<!-- handleQuery -->
<g id="node24" class="node">
<title>handleQuery</title>
<polygon fill="none" stroke="#000000" points="1201,-142 1115,-142 1115,-106 1201,-106 1201,-142"/>
<text text-anchor="middle" x="1158" y="-120.3" font-family="Times,serif" font-size="14.00" fill="#000000">handleQuery</text>
</g>
<!-- dispatch&#45;&gt;handleQuery -->
<g id="edge22" class="edge">
<title>dispatch&#45;&gt;handleQuery</title>
<path fill="none" stroke="#000000" d="M961.9529,-280.7562C981.4765,-249.7307 1025.2348,-186.6016 1078,-151 1086.2933,-145.4044 1095.8507,-140.8733 1105.4087,-137.2369"/>
<polygon fill="#000000" stroke="#000000" points="1106.6474,-140.5114 1114.9201,-133.8923 1104.3253,-133.9078 1106.6474,-140.5114"/>
</g>
<!-- handleFieldList -->
<g id="node25" class="node">
<title>handleFieldList</title>
<polygon fill="none" stroke="#000000" points="1208.5,-196 1107.5,-196 1107.5,-160 1208.5,-160 1208.5,-196"/>
<text text-anchor="middle" x="1158" y="-174.3" font-family="Times,serif" font-size="14.00" fill="#000000">handleFieldList</text>
</g>
<!-- dispatch&#45;&gt;handleFieldList -->
<g id="edge23" class="edge">
<title>dispatch&#45;&gt;handleFieldList</title>
<path fill="none" stroke="#000000" d="M971.223,-280.8773C995.2226,-260.1504 1037.1519,-226.3353 1078,-205 1084.1108,-201.8083 1090.6764,-198.878 1097.3235,-196.2209"/>
<polygon fill="#000000" stroke="#000000" points="1098.9663,-199.3413 1107.077,-192.5246 1096.4856,-192.7955 1098.9663,-199.3413"/>
</g>
<!-- handleStmtPrepare -->
<g id="node26" class="node">
<title>handleStmtPrepare</title>
<polygon fill="none" stroke="#000000" points="1218,-250 1098,-250 1098,-214 1218,-214 1218,-250"/>
<text text-anchor="middle" x="1158" y="-228.3" font-family="Times,serif" font-size="14.00" fill="#000000">handleStmtPrepare</text>
</g>
<!-- dispatch&#45;&gt;handleStmtPrepare -->
<g id="edge24" class="edge">
<title>dispatch&#45;&gt;handleStmtPrepare</title>
<path fill="none" stroke="#000000" d="M982.4388,-288.8241C1011.5093,-279.4149 1055.6368,-265.1321 1092.3774,-253.2402"/>
<polygon fill="#000000" stroke="#000000" points="1093.5977,-256.524 1102.034,-250.1146 1091.4421,-249.8642 1093.5977,-256.524"/>
</g>
<!-- handleStmtExecute -->
<g id="node27" class="node">
<title>handleStmtExecute</title>
<polygon fill="none" stroke="#000000" points="1219,-304 1097,-304 1097,-268 1219,-268 1219,-304"/>
<text text-anchor="middle" x="1158" y="-282.3" font-family="Times,serif" font-size="14.00" fill="#000000">handleStmtExecute</text>
</g>
<!-- dispatch&#45;&gt;handleStmtExecute -->
<g id="edge25" class="edge">
<title>dispatch&#45;&gt;handleStmtExecute</title>
<path fill="none" stroke="#000000" d="M982.4388,-297.0256C1009.9237,-295.2995 1050.8678,-292.7281 1086.3031,-290.5027"/>
<polygon fill="#000000" stroke="#000000" points="1086.8566,-293.9749 1096.6176,-289.8549 1086.4178,-286.9887 1086.8566,-293.9749"/>
</g>
<!-- handleStmtClose -->
<g id="node28" class="node">
<title>handleStmtClose</title>
<polygon fill="none" stroke="#000000" points="1213,-358 1103,-358 1103,-322 1213,-322 1213,-358"/>
<text text-anchor="middle" x="1158" y="-336.3" font-family="Times,serif" font-size="14.00" fill="#000000">handleStmtClose</text>
</g>
<!-- dispatch&#45;&gt;handleStmtClose -->
<g id="edge26" class="edge">
<title>dispatch&#45;&gt;handleStmtClose</title>
<path fill="none" stroke="#000000" d="M982.4388,-305.227C1011.5923,-311.0014 1055.8891,-319.7751 1092.6921,-327.0646"/>
<polygon fill="#000000" stroke="#000000" points="1092.3654,-330.5678 1102.8549,-329.0775 1093.7255,-323.7012 1092.3654,-330.5678"/>
</g>
<!-- handleChangeUser -->
<g id="node29" class="node">
<title>handleChangeUser</title>
<polygon fill="none" stroke="#000000" points="1217.5,-412 1098.5,-412 1098.5,-376 1217.5,-376 1217.5,-412"/>
<text text-anchor="middle" x="1158" y="-390.3" font-family="Times,serif" font-size="14.00" fill="#000000">handleChangeUser</text>
</g>
<!-- dispatch&#45;&gt;handleChangeUser -->
<g id="edge27" class="edge">
<title>dispatch&#45;&gt;handleChangeUser</title>
<path fill="none" stroke="#000000" d="M982.3422,-304.0355C1000.502,-307.9818 1023.216,-314.7498 1041,-326 1061.7432,-339.1221 1057.4832,-353.5267 1078,-367 1081.515,-369.3083 1085.2469,-371.4383 1089.1028,-373.401"/>
<polygon fill="#000000" stroke="#000000" points="1087.7393,-376.627 1098.2815,-377.6821 1090.6982,-370.2831 1087.7393,-376.627"/>
</g>
<!-- handleSetOption -->
<g id="node30" class="node">
<title>handleSetOption</title>
<polygon fill="none" stroke="#000000" points="1211.5,-466 1104.5,-466 1104.5,-430 1211.5,-430 1211.5,-466"/>
<text text-anchor="middle" x="1158" y="-444.3" font-family="Times,serif" font-size="14.00" fill="#000000">handleSetOption</text>
</g>
<!-- dispatch&#45;&gt;handleSetOption -->
<g id="edge28" class="edge">
<title>dispatch&#45;&gt;handleSetOption</title>
<path fill="none" stroke="#000000" d="M982.3237,-301.5176C1001.3882,-304.5709 1025.0576,-311.2837 1041,-326 1074.2948,-356.7342 1045.233,-389.7036 1078,-421 1082.9855,-425.7617 1088.8392,-429.6851 1095.074,-432.9175"/>
<polygon fill="#000000" stroke="#000000" points="1093.8732,-436.2165 1104.4245,-437.1761 1096.7746,-429.846 1093.8732,-436.2165"/>
</g>
<!-- handleStmtSendLongData -->
<g id="node31" class="node">
<title>handleStmtSendLongData</title>
<polygon fill="none" stroke="#000000" points="1238,-520 1078,-520 1078,-484 1238,-484 1238,-520"/>
<text text-anchor="middle" x="1158" y="-498.3" font-family="Times,serif" font-size="14.00" fill="#000000">handleStmtSendLongData</text>
</g>
<!-- dispatch&#45;&gt;handleStmtSendLongData -->
<g id="edge29" class="edge">
<title>dispatch&#45;&gt;handleStmtSendLongData</title>
<path fill="none" stroke="#000000" d="M982.1293,-300.7092C1001.609,-303.4214 1025.8064,-310.0581 1041,-326 1064.5376,-350.6968 1054.8861,-449.9062 1078,-475 1078.7697,-475.8356 1079.566,-476.6453 1080.3868,-477.43"/>
<polygon fill="#000000" stroke="#000000" points="1078.3802,-480.3074 1088.3697,-483.8376 1082.762,-474.8484 1078.3802,-480.3074"/>
</g>
<!-- handleQuery&#45;&gt;ctx_Execute -->
<g id="edge30" class="edge">
<title>handleQuery&#45;&gt;ctx_Execute</title>
<path fill="none" stroke="#000000" d="M1200.4452,-105.8954C1234.1388,-91.5237 1281.3856,-71.3711 1317.2875,-56.0575"/>
<polygon fill="#000000" stroke="#000000" points="1318.7977,-59.2185 1326.6226,-52.0756 1316.0512,-52.7797 1318.7977,-59.2185"/>
</g>
<!-- writeResultset -->
<g id="node32" class="node">
<title>writeResultset</title>
<polygon fill="none" stroke="#000000" points="1463,-144 1275,-144 1275,-106 1463,-106 1463,-144"/>
<text text-anchor="start" x="1283" y="-128.8" font-family="Times,serif" font-size="14.00" fill="#000000">writeResultset</text>
<text text-anchor="middle" x="1369" y="-113.8" font-family="Times,serif" font-size="14.00" fill="#000000"> 调用ResultSet Next获取结果</text>
</g>
<!-- handleQuery&#45;&gt;writeResultset -->
<g id="edge31" class="edge">
<title>handleQuery&#45;&gt;writeResultset</title>
<path fill="none" stroke="#000000" d="M1201.2082,-124.2048C1219.7144,-124.2925 1242.2048,-124.3991 1264.6272,-124.5053"/>
<polygon fill="#000000" stroke="#000000" points="1264.8936,-128.0065 1274.9101,-124.5541 1264.9269,-121.0066 1264.8936,-128.0065"/>
</g>
<!-- writeMultiResultset -->
<g id="node33" class="node">
<title>writeMultiResultset</title>
<polygon fill="none" stroke="#000000" points="1431.5,-198 1306.5,-198 1306.5,-162 1431.5,-162 1431.5,-198"/>
<text text-anchor="middle" x="1369" y="-176.3" font-family="Times,serif" font-size="14.00" fill="#000000">writeMultiResultset</text>
</g>
<!-- handleQuery&#45;&gt;writeMultiResultset -->
<g id="edge32" class="edge">
<title>handleQuery&#45;&gt;writeMultiResultset</title>
<path fill="none" stroke="#000000" d="M1201.2082,-135.4676C1228.6336,-142.7464 1264.809,-152.3474 1296.5463,-160.7706"/>
<polygon fill="#000000" stroke="#000000" points="1295.6754,-164.1606 1306.2387,-163.343 1297.4712,-157.3948 1295.6754,-164.1606"/>
</g>
</g>
</svg>
