<?xml version="1.0" encoding="UTF-8" standalone="no"?>
<!DOCTYPE svg PUBLIC "-//W3C//DTD SVG 1.1//EN"
 "http://www.w3.org/Graphics/SVG/1.1/DTD/svg11.dtd">
<!-- Generated by graphviz version 2.40.1 (20161225.0304)
 -->
<!-- Title: table_read Pages: 1 -->
<svg width="2144pt" height="703pt"
 viewBox="0.00 0.00 2144.00 703.00" xmlns="http://www.w3.org/2000/svg" xmlns:xlink="http://www.w3.org/1999/xlink">
<g id="graph0" class="graph" transform="scale(1 1) rotate(0) translate(4 699)">
<title>table_read</title>
<polygon fill="#ffffff" stroke="transparent" points="-4,4 -4,-699 2140,-699 2140,4 -4,4"/>
<g id="clust1" class="cluster">
<title>cluster_Table</title>
<polygon fill="none" stroke="#000000" points="8,-8 8,-687 2128,-687 2128,-8 8,-8"/>
<text text-anchor="middle" x="1068" y="-667" font-family="Times,serif" font-size="20.00" fill="#000000">Table</text>
</g>
<g id="clust2" class="cluster">
<title>cluster_Rep</title>
<polygon fill="none" stroke="#000000" points="48.5,-264 48.5,-400 2120,-400 2120,-264 48.5,-264"/>
<text text-anchor="middle" x="1084.25" y="-380" font-family="Times,serif" font-size="20.00" fill="#000000">Rep</text>
</g>
<g id="clust3" class="cluster">
<title>cluster_Open</title>
<polygon fill="none" stroke="#000000" points="48.5,-408 48.5,-649 1968,-649 1968,-408 48.5,-408"/>
<text text-anchor="middle" x="1008.25" y="-629" font-family="Times,serif" font-size="20.00" fill="#000000">Open</text>
</g>
<g id="clust7" class="cluster">
<title>cluster_Get</title>
<polygon fill="none" stroke="#000000" points="16,-16 16,-256 1584,-256 1584,-16 16,-16"/>
<text text-anchor="middle" x="800" y="-236" font-family="Times,serif" font-size="20.00" fill="#000000">InternalGet</text>
</g>
<!-- cache_id -->
<g id="node1" class="node">
<title>cache_id</title>
<polygon fill="none" stroke="#000000" points="1019,-362 954,-362 954,-326 1019,-326 1019,-362"/>
<text text-anchor="middle" x="986.5" y="-340.3" font-family="Times,serif" font-size="14.00" fill="#000000">cache_id</text>
</g>
<!-- index_block -->
<g id="node2" class="node">
<title>index_block</title>
<polygon fill="none" stroke="#000000" points="542,-362 459,-362 459,-326 542,-326 542,-362"/>
<text text-anchor="middle" x="500.5" y="-340.3" font-family="Times,serif" font-size="14.00" fill="#000000">index_block</text>
</g>
<!-- metaindex_handle -->
<g id="node3" class="node">
<title>metaindex_handle</title>
<polygon fill="none" stroke="#000000" points="806.5,-362 690.5,-362 690.5,-326 806.5,-326 806.5,-362"/>
<text text-anchor="middle" x="748.5" y="-340.3" font-family="Times,serif" font-size="14.00" fill="#000000">metaindex_handle</text>
</g>
<!-- ReadBlock_metaindex -->
<g id="node12" class="node">
<title>ReadBlock_metaindex</title>
<polygon fill="none" stroke="#000000" points="904,-416 904,-462 1069,-462 1069,-416 904,-416"/>
<text text-anchor="middle" x="986.5" y="-446.8" font-family="Times,serif" font-size="14.00" fill="#000000">ReadBlock</text>
<polyline fill="none" stroke="#000000" points="904,-439 1069,-439 "/>
<text text-anchor="middle" x="986.5" y="-423.8" font-family="Times,serif" font-size="14.00" fill="#000000">读取MetaIndexBlock内容</text>
</g>
<!-- metaindex_handle&#45;&gt;ReadBlock_metaindex -->
<g id="edge27" class="edge">
<title>metaindex_handle&#45;&gt;ReadBlock_metaindex</title>
<path fill="none" stroke="#c0c0c0" stroke-dasharray="5,2" d="M793.8262,-362.0924C829.2865,-376.2467 879.1362,-396.1447 919.2458,-412.1549"/>
<polygon fill="#c0c0c0" stroke="#c0c0c0" points="918.1072,-415.4688 928.6922,-415.9255 920.7023,-408.9676 918.1072,-415.4688"/>
</g>
<!-- filter -->
<g id="node4" class="node">
<title>filter</title>
<polygon fill="none" stroke="#000000" points="1996,-315 1996,-361 2112,-361 2112,-315 1996,-315"/>
<text text-anchor="middle" x="2054" y="-345.8" font-family="Times,serif" font-size="14.00" fill="#000000">filter</text>
<polyline fill="none" stroke="#000000" points="1996,-338 2112,-338 "/>
<text text-anchor="middle" x="2054" y="-322.8" font-family="Times,serif" font-size="14.00" fill="#000000">FilterBlockReader</text>
</g>
<!-- filter_data -->
<g id="node5" class="node">
<title>filter_data</title>
<polygon fill="none" stroke="#000000" points="1923,-362 1851,-362 1851,-326 1923,-326 1923,-362"/>
<text text-anchor="middle" x="1887" y="-340.3" font-family="Times,serif" font-size="14.00" fill="#000000">filter_data</text>
</g>
<!-- filter_data&#45;&gt;filter -->
<g id="edge2" class="edge">
<title>filter_data&#45;&gt;filter</title>
<path fill="none" stroke="#c0c0c0" stroke-dasharray="5,2" d="M1923.2365,-342.6981C1941.5385,-342.0405 1964.3575,-341.2207 1985.7859,-340.4508"/>
<polygon fill="#c0c0c0" stroke="#c0c0c0" points="1985.9709,-343.9465 1995.8388,-340.0896 1985.7195,-336.951 1985.9709,-343.9465"/>
</g>
<!-- file -->
<g id="node6" class="node">
<title>file</title>
<polygon fill="none" stroke="#000000" points="110.5,-335 56.5,-335 56.5,-299 110.5,-299 110.5,-335"/>
<text text-anchor="middle" x="83.5" y="-313.3" font-family="Times,serif" font-size="14.00" fill="#000000">file</text>
</g>
<!-- options_block_cache -->
<g id="node7" class="node">
<title>options_block_cache</title>
<polygon fill="none" stroke="#000000" points="1052,-308 921,-308 921,-272 1052,-272 1052,-308"/>
<text text-anchor="middle" x="986.5" y="-286.3" font-family="Times,serif" font-size="14.00" fill="#000000">options_block_cache</text>
</g>
<!-- RandomAccessFile_Read -->
<g id="node8" class="node">
<title>RandomAccessFile_Read</title>
<polygon fill="none" stroke="#000000" points="195.5,-517 195.5,-563 352.5,-563 352.5,-517 195.5,-517"/>
<text text-anchor="middle" x="274" y="-547.8" font-family="Times,serif" font-size="14.00" fill="#000000">RandomAccessFile_Read</text>
<polyline fill="none" stroke="#000000" points="195.5,-540 352.5,-540 "/>
<text text-anchor="middle" x="274" y="-524.8" font-family="Times,serif" font-size="14.00" fill="#000000">从文件末尾读取Footer</text>
</g>
<!-- Footer_DecodeFrom -->
<g id="node9" class="node">
<title>Footer_DecodeFrom</title>
<polygon fill="none" stroke="#000000" points="423,-416.5 423,-507.5 578,-507.5 578,-416.5 423,-416.5"/>
<text text-anchor="middle" x="500.5" y="-492.3" font-family="Times,serif" font-size="14.00" fill="#000000">Footer::DecodeFrom</text>
<polyline fill="none" stroke="#000000" points="423,-484.5 578,-484.5 "/>
<text text-anchor="start" x="431" y="-469.3" font-family="Times,serif" font-size="14.00" fill="#000000">从数据中解析出Footer,</text>
<text text-anchor="start" x="431" y="-454.3" font-family="Times,serif" font-size="14.00" fill="#000000"> 核对magicNumber</text>
<text text-anchor="start" x="431" y="-439.3" font-family="Times,serif" font-size="14.00" fill="#000000"> 获取metaIndexHandle</text>
<text text-anchor="start" x="431" y="-424.3" font-family="Times,serif" font-size="14.00" fill="#000000"> 和IndexHandle</text>
</g>
<!-- RandomAccessFile_Read&#45;&gt;Footer_DecodeFrom -->
<g id="edge24" class="edge">
<title>RandomAccessFile_Read&#45;&gt;Footer_DecodeFrom</title>
<path fill="none" stroke="#c0c0c0" stroke-dasharray="5,2" d="M352.6861,-517.3192C358.2221,-515.5668 363.7043,-513.7843 369,-512 383.4301,-507.1381 398.6307,-501.6789 413.3708,-496.2016"/>
<polygon fill="#c0c0c0" stroke="#c0c0c0" points="414.8393,-499.3891 422.9779,-492.6058 412.3855,-492.8333 414.8393,-499.3891"/>
</g>
<!-- Footer_DecodeFrom&#45;&gt;metaindex_handle -->
<g id="edge21" class="edge">
<title>Footer_DecodeFrom&#45;&gt;metaindex_handle</title>
<path fill="none" stroke="#c0c0c0" stroke-dasharray="5,2" d="M578.2883,-424.9878C618.5399,-405.8359 666.3725,-383.0768 701.0662,-366.5693"/>
<polygon fill="#c0c0c0" stroke="#c0c0c0" points="702.9598,-369.5444 710.486,-362.0873 699.9523,-363.2234 702.9598,-369.5444"/>
</g>
<!-- ReadBlock_index -->
<g id="node10" class="node">
<title>ReadBlock_index</title>
<polygon fill="none" stroke="#000000" points="179,-416.5 179,-477.5 369,-477.5 369,-416.5 179,-416.5"/>
<text text-anchor="middle" x="274" y="-462.3" font-family="Times,serif" font-size="14.00" fill="#000000">ReadBlock</text>
<polyline fill="none" stroke="#000000" points="179,-454.5 369,-454.5 "/>
<text text-anchor="start" x="187" y="-439.3" font-family="Times,serif" font-size="14.00" fill="#000000">读入indexBlock</text>
<text text-anchor="start" x="187" y="-424.3" font-family="Times,serif" font-size="14.00" fill="#000000"> 内容放到rep的index_block中</text>
</g>
<!-- ReadBlock_index&#45;&gt;index_block -->
<g id="edge22" class="edge">
<title>ReadBlock_index&#45;&gt;index_block</title>
<path fill="none" stroke="#c0c0c0" stroke-dasharray="5,2" d="M358.6484,-416.4311C362.1596,-414.9685 365.6224,-413.4886 369,-412 399.896,-398.3833 433.7106,-380.8353 459.3127,-366.9764"/>
<polygon fill="#c0c0c0" stroke="#c0c0c0" points="461.2458,-369.909 468.3529,-362.0515 457.897,-363.762 461.2458,-369.909"/>
</g>
<!-- BlockCache_NewId -->
<g id="node11" class="node">
<title>BlockCache_NewId</title>
<polygon fill="none" stroke="#000000" points="405,-526.5 405,-587.5 596,-587.5 596,-526.5 405,-526.5"/>
<text text-anchor="middle" x="500.5" y="-572.3" font-family="Times,serif" font-size="14.00" fill="#000000">BlockCache_NewId</text>
<polyline fill="none" stroke="#000000" points="405,-564.5 596,-564.5 "/>
<text text-anchor="start" x="413" y="-549.3" font-family="Times,serif" font-size="14.00" fill="#000000">生成一个新的cacheId,保存在</text>
<text text-anchor="start" x="413" y="-534.3" font-family="Times,serif" font-size="14.00" fill="#000000"> rep的cache_id变量中</text>
</g>
<!-- BlockCache_NewId&#45;&gt;cache_id -->
<g id="edge23" class="edge">
<title>BlockCache_NewId&#45;&gt;cache_id</title>
<path fill="none" stroke="#c0c0c0" stroke-dasharray="5,2" d="M573.8209,-526.4683C581.3209,-523.2918 588.8189,-520.0942 596,-517 723.3132,-462.143 872.941,-395.1428 944.3899,-362.993"/>
<polygon fill="#c0c0c0" stroke="#c0c0c0" points="946.2605,-365.9892 953.9423,-358.6927 943.3869,-359.6062 946.2605,-365.9892"/>
</g>
<!-- Block_Iterator_Seek -->
<g id="node14" class="node">
<title>Block_Iterator_Seek</title>
<polygon fill="none" stroke="#000000" points="1108,-480 1108,-526 1363,-526 1363,-480 1108,-480"/>
<text text-anchor="middle" x="1235.5" y="-510.8" font-family="Times,serif" font-size="14.00" fill="#000000">Block::Iterator::Seek</text>
<polyline fill="none" stroke="#000000" points="1108,-503 1363,-503 "/>
<text text-anchor="middle" x="1235.5" y="-487.8" font-family="Times,serif" font-size="14.00" fill="#000000">找到key为：filter.filter_policy_name的值</text>
</g>
<!-- ReadBlock_metaindex&#45;&gt;Block_Iterator_Seek -->
<g id="edge28" class="edge">
<title>ReadBlock_metaindex&#45;&gt;Block_Iterator_Seek</title>
<path fill="none" stroke="#c0c0c0" stroke-dasharray="5,2" d="M1061.1244,-462.0295C1076.5654,-466.5358 1092.7671,-471.0761 1108,-475 1111.3383,-475.8599 1114.73,-476.7165 1118.1569,-477.5671"/>
<polygon fill="#c0c0c0" stroke="#c0c0c0" points="1117.3482,-480.9724 1127.8932,-479.9463 1119.0099,-474.1725 1117.3482,-480.9724"/>
</g>
<!-- ReadMeta -->
<g id="node13" class="node">
<title>ReadMeta</title>
<polygon fill="none" stroke="#000000" points="632,-515.5 632,-576.5 865,-576.5 865,-515.5 632,-515.5"/>
<text text-anchor="middle" x="748.5" y="-561.3" font-family="Times,serif" font-size="14.00" fill="#000000">ReadMeta</text>
<polyline fill="none" stroke="#000000" points="632,-553.5 865,-553.5 "/>
<text text-anchor="start" x="640" y="-538.3" font-family="Times,serif" font-size="14.00" fill="#000000">读取Bloomfilter</text>
<text text-anchor="middle" x="748.5" y="-523.3" font-family="Times,serif" font-size="14.00" fill="#000000"> 最中保存在rep的filter_data和filter中</text>
</g>
<!-- ReadMeta&#45;&gt;ReadBlock_metaindex -->
<g id="edge11" class="edge">
<title>ReadMeta&#45;&gt;ReadBlock_metaindex</title>
<path fill="none" stroke="#000000" d="M808.4454,-515.4803C836.332,-501.6533 870.0983,-485.4331 901,-472 905.7127,-469.9514 910.5972,-467.8944 915.535,-465.8638"/>
<polygon fill="#000000" stroke="#000000" points="917.1129,-469.0009 925.0656,-462.0005 914.4831,-462.5136 917.1129,-469.0009"/>
</g>
<!-- ReadMeta&#45;&gt;Block_Iterator_Seek -->
<g id="edge12" class="edge">
<title>ReadMeta&#45;&gt;Block_Iterator_Seek</title>
<path fill="none" stroke="#000000" d="M865.0951,-540.9925C926.7116,-537.7906 1003.5582,-532.919 1072,-526 1080.4957,-525.1411 1089.2281,-524.1707 1098.027,-523.1264"/>
<polygon fill="#000000" stroke="#000000" points="1098.4754,-526.5977 1107.9806,-521.9178 1097.6316,-519.6488 1098.4754,-526.5977"/>
</g>
<!-- Block_NewIterator -->
<g id="node17" class="node">
<title>Block_NewIterator</title>
<polygon fill="none" stroke="#000000" points="1047,-611 926,-611 926,-575 1047,-575 1047,-611"/>
<text text-anchor="middle" x="986.5" y="-589.3" font-family="Times,serif" font-size="14.00" fill="#000000">Block_NewIterator</text>
</g>
<!-- ReadMeta&#45;&gt;Block_NewIterator -->
<g id="edge13" class="edge">
<title>ReadMeta&#45;&gt;Block_NewIterator</title>
<path fill="none" stroke="#000000" d="M865.0597,-569.0181C882.5184,-572.4658 900.0472,-575.9274 916.1421,-579.1058"/>
<polygon fill="#000000" stroke="#000000" points="915.476,-582.5418 925.9646,-581.0455 916.8322,-575.6744 915.476,-582.5418"/>
</g>
<!-- BytewiseComparator -->
<g id="node18" class="node">
<title>BytewiseComparator</title>
<polygon fill="none" stroke="#000000" points="1052.5,-517 920.5,-517 920.5,-481 1052.5,-481 1052.5,-517"/>
<text text-anchor="middle" x="986.5" y="-495.3" font-family="Times,serif" font-size="14.00" fill="#000000">BytewiseComparator</text>
</g>
<!-- ReadMeta&#45;&gt;BytewiseComparator -->
<g id="edge14" class="edge">
<title>ReadMeta&#45;&gt;BytewiseComparator</title>
<path fill="none" stroke="#000000" d="M865.0597,-522.9819C880.4665,-519.9394 895.9279,-516.8861 910.4102,-514.0261"/>
<polygon fill="#000000" stroke="#000000" points="911.1349,-517.4507 920.2673,-512.0796 909.7787,-510.5833 911.1349,-517.4507"/>
</g>
<!-- ReadFilter -->
<g id="node19" class="node">
<title>ReadFilter</title>
<polygon fill="none" stroke="#000000" points="1524.5,-521 1450.5,-521 1450.5,-485 1524.5,-485 1524.5,-521"/>
<text text-anchor="middle" x="1487.5" y="-499.3" font-family="Times,serif" font-size="14.00" fill="#000000">ReadFilter</text>
</g>
<!-- ReadMeta&#45;&gt;ReadFilter -->
<g id="edge15" class="edge">
<title>ReadMeta&#45;&gt;ReadFilter</title>
<path fill="none" stroke="#000000" d="M865.2705,-552.2531C1016.3173,-559.4219 1270.9618,-568.1279 1363,-551 1390.1224,-545.9526 1418.9535,-535.2135 1442.0338,-525.1706"/>
<polygon fill="#000000" stroke="#000000" points="1443.5159,-528.342 1451.2266,-521.0759 1440.6677,-521.9476 1443.5159,-528.342"/>
</g>
<!-- Block_Iterator_Seek&#45;&gt;ReadFilter -->
<g id="edge26" class="edge">
<title>Block_Iterator_Seek&#45;&gt;ReadFilter</title>
<path fill="none" stroke="#c0c0c0" stroke-dasharray="5,2" d="M1363.3456,-503C1390.9019,-503 1418.3405,-503 1440.3878,-503"/>
<polygon fill="#c0c0c0" stroke="#c0c0c0" points="1440.4361,-506.5001 1450.4361,-503 1440.436,-499.5001 1440.4361,-506.5001"/>
</g>
<!-- ReadBlock_filter -->
<g id="node15" class="node">
<title>ReadBlock_filter</title>
<polygon fill="none" stroke="#000000" points="1628,-471 1628,-517 1762,-517 1762,-471 1628,-471"/>
<text text-anchor="middle" x="1695" y="-501.8" font-family="Times,serif" font-size="14.00" fill="#000000">ReadBlock</text>
<polyline fill="none" stroke="#000000" points="1628,-494 1762,-494 "/>
<text text-anchor="start" x="1636" y="-478.8" font-family="Times,serif" font-size="14.00" fill="#000000">读取filter block内容</text>
</g>
<!-- ReadBlock_filter&#45;&gt;filter_data -->
<g id="edge1" class="edge">
<title>ReadBlock_filter&#45;&gt;filter_data</title>
<path fill="none" stroke="#c0c0c0" stroke-dasharray="5,2" d="M1762.0781,-476.2722C1767.7608,-473.3446 1773.1716,-469.945 1778,-466 1802.6751,-445.8394 1793.3645,-428.2793 1814,-404 1825.0682,-390.9774 1839.2175,-378.6173 1852.1072,-368.5372"/>
<polygon fill="#c0c0c0" stroke="#c0c0c0" points="1854.5161,-371.1021 1860.3505,-362.2584 1850.2746,-365.5334 1854.5161,-371.1021"/>
</g>
<!-- Open -->
<g id="node16" class="node">
<title>Open</title>
<polygon fill="none" stroke="#000000" points="110.5,-536 56.5,-536 56.5,-500 110.5,-500 110.5,-536"/>
<text text-anchor="middle" x="83.5" y="-514.3" font-family="Times,serif" font-size="14.00" fill="#000000">Open</text>
</g>
<!-- Open&#45;&gt;cache_id -->
<g id="edge3" class="edge">
<title>Open&#45;&gt;cache_id</title>
<path fill="none" stroke="#000000" d="M93.5691,-536.1926C108.4867,-561.0243 139.0526,-604.4478 179,-622 321.2179,-684.488 741.2157,-695.4428 865,-586 926.7739,-531.3831 856.0131,-473.1028 901,-404 911.7686,-387.4586 928.8361,-374.1369 944.8996,-364.2871"/>
<polygon fill="#000000" stroke="#000000" points="946.7963,-367.2328 953.6741,-359.1739 943.2719,-361.1848 946.7963,-367.2328"/>
</g>
<!-- Open&#45;&gt;index_block -->
<g id="edge4" class="edge">
<title>Open&#45;&gt;index_block</title>
<path fill="none" stroke="#000000" d="M93.8015,-499.7028C108.9952,-474.5303 139.8872,-429.7549 179,-407 224.1096,-380.7563 369.7519,-359.7646 448.6155,-349.9807"/>
<polygon fill="#000000" stroke="#000000" points="449.3185,-353.4208 458.8189,-348.7312 448.4676,-346.4727 449.3185,-353.4208"/>
</g>
<!-- Open&#45;&gt;metaindex_handle -->
<g id="edge5" class="edge">
<title>Open&#45;&gt;metaindex_handle</title>
<path fill="none" stroke="#000000" d="M110.5937,-507.0801C165.3877,-485.3474 293.6337,-436.2584 405,-407 418.2563,-403.5173 584.2115,-373.5142 680.5031,-356.1992"/>
<polygon fill="#000000" stroke="#000000" points="681.2316,-359.6244 690.4546,-354.4103 679.9931,-352.7349 681.2316,-359.6244"/>
</g>
<!-- Open&#45;&gt;RandomAccessFile_Read -->
<g id="edge6" class="edge">
<title>Open&#45;&gt;RandomAccessFile_Read</title>
<path fill="none" stroke="#000000" d="M110.794,-521.1521C130.4077,-523.4172 158.0429,-526.6086 185.0065,-529.7225"/>
<polygon fill="#000000" stroke="#000000" points="184.9541,-533.2397 195.2896,-530.9101 185.7572,-526.2859 184.9541,-533.2397"/>
</g>
<!-- Open&#45;&gt;Footer_DecodeFrom -->
<g id="edge7" class="edge">
<title>Open&#45;&gt;Footer_DecodeFrom</title>
<path fill="none" stroke="#000000" d="M110.8119,-516.7283C161.8084,-514.0849 274.869,-506.9551 369,-492 383.2805,-489.7312 398.3229,-486.8114 412.9286,-483.6867"/>
<polygon fill="#000000" stroke="#000000" points="413.9332,-487.0499 422.9558,-481.4962 412.4392,-480.2112 413.9332,-487.0499"/>
</g>
<!-- Open&#45;&gt;ReadBlock_index -->
<g id="edge8" class="edge">
<title>Open&#45;&gt;ReadBlock_index</title>
<path fill="none" stroke="#000000" d="M110.794,-507.8274C129.761,-500.7584 156.2294,-490.8935 182.3379,-481.1628"/>
<polygon fill="#000000" stroke="#000000" points="183.7779,-484.3613 191.9259,-477.5893 181.3332,-477.8021 183.7779,-484.3613"/>
</g>
<!-- Open&#45;&gt;BlockCache_NewId -->
<g id="edge9" class="edge">
<title>Open&#45;&gt;BlockCache_NewId</title>
<path fill="none" stroke="#000000" d="M104.5443,-536.1601C122.8404,-550.6678 150.7768,-569.8698 179,-578 249.0246,-598.1719 331.0414,-592.3738 394.709,-581.8141"/>
<polygon fill="#000000" stroke="#000000" points="395.5045,-585.2287 404.7651,-580.0817 394.316,-578.3303 395.5045,-585.2287"/>
</g>
<!-- Open&#45;&gt;ReadMeta -->
<g id="edge10" class="edge">
<title>Open&#45;&gt;ReadMeta</title>
<path fill="none" stroke="#000000" d="M97.2919,-536.3122C114.0094,-556.8231 144.2914,-588.9075 179,-602 201.519,-610.4945 586.6672,-598.6249 596,-597 617.9424,-593.1797 641.0196,-586.7873 662.3931,-579.797"/>
<polygon fill="#000000" stroke="#000000" points="663.7133,-583.0459 672.0833,-576.5502 661.4894,-576.4086 663.7133,-583.0459"/>
</g>
<!-- ReadFilter&#45;&gt;filter -->
<g id="edge16" class="edge">
<title>ReadFilter&#45;&gt;filter</title>
<path fill="none" stroke="#000000" d="M1522.928,-521.0754C1547.2772,-532.4526 1580.7347,-546.0688 1612,-552 1768.8564,-581.7565 1842.8721,-603.1585 1968,-504 2010.784,-470.0955 2034.4712,-409.0904 2045.6874,-371.228"/>
<polygon fill="#000000" stroke="#000000" points="2049.1687,-371.7796 2048.5257,-361.2043 2042.4335,-369.8724 2049.1687,-371.7796"/>
</g>
<!-- ReadFilter&#45;&gt;filter_data -->
<g id="edge17" class="edge">
<title>ReadFilter&#45;&gt;filter_data</title>
<path fill="none" stroke="#000000" d="M1524.8046,-498.0408C1543.1842,-494.7219 1565.3474,-489.379 1584,-481 1597.9501,-474.7334 1598.6625,-468.4824 1612,-461 1689.0503,-417.7745 1785.2656,-380.2887 1841.0629,-360.0308"/>
<polygon fill="#000000" stroke="#000000" points="1842.4425,-363.2541 1850.6634,-356.5707 1840.069,-356.6687 1842.4425,-363.2541"/>
</g>
<!-- ReadFilter&#45;&gt;ReadBlock_filter -->
<g id="edge18" class="edge">
<title>ReadFilter&#45;&gt;ReadBlock_filter</title>
<path fill="none" stroke="#000000" d="M1524.5968,-501.391C1550.3677,-500.2732 1585.6533,-498.7427 1617.4324,-497.3644"/>
<polygon fill="#000000" stroke="#000000" points="1617.7716,-500.8531 1627.6105,-496.9229 1617.4682,-493.8596 1617.7716,-500.8531"/>
</g>
<!-- BlockHandle_DecodeFrom -->
<g id="node20" class="node">
<title>BlockHandle_DecodeFrom</title>
<polygon fill="none" stroke="#000000" points="1778,-452 1612,-452 1612,-416 1778,-416 1778,-452"/>
<text text-anchor="middle" x="1695" y="-430.3" font-family="Times,serif" font-size="14.00" fill="#000000">BlockHandle_DecodeFrom</text>
</g>
<!-- ReadFilter&#45;&gt;BlockHandle_DecodeFrom -->
<g id="edge19" class="edge">
<title>ReadFilter&#45;&gt;BlockHandle_DecodeFrom</title>
<path fill="none" stroke="#000000" d="M1524.5718,-496.1452C1542.6945,-492.3916 1564.7047,-487.2307 1584,-481 1605.3927,-474.0921 1628.3766,-464.7058 1647.8495,-456.1375"/>
<polygon fill="#000000" stroke="#000000" points="1649.3963,-459.28 1657.1046,-452.0114 1646.5459,-452.8866 1649.3963,-459.28"/>
</g>
<!-- new_FilterBlockReader -->
<g id="node21" class="node">
<title>new_FilterBlockReader</title>
<polygon fill="none" stroke="#000000" points="1960,-495 1814,-495 1814,-459 1960,-459 1960,-495"/>
<text text-anchor="middle" x="1887" y="-473.3" font-family="Times,serif" font-size="14.00" fill="#000000">new_FilterBlockReader</text>
</g>
<!-- ReadFilter&#45;&gt;new_FilterBlockReader -->
<g id="edge20" class="edge">
<title>ReadFilter&#45;&gt;new_FilterBlockReader</title>
<path fill="none" stroke="#000000" d="M1524.7115,-514.4782C1580.4882,-529.9489 1688.7536,-553.2409 1778,-532 1804.0451,-525.8012 1830.9239,-512.3303 1851.4733,-500.2723"/>
<polygon fill="#000000" stroke="#000000" points="1853.398,-503.1989 1860.1571,-495.0401 1849.7854,-497.2031 1853.398,-503.1989"/>
</g>
<!-- new_FilterBlockReader&#45;&gt;filter -->
<g id="edge25" class="edge">
<title>new_FilterBlockReader&#45;&gt;filter</title>
<path fill="none" stroke="#c0c0c0" stroke-dasharray="5,2" d="M1908.8323,-458.8282C1936.6257,-435.6948 1985.0144,-395.4192 2018.2306,-367.7721"/>
<polygon fill="#c0c0c0" stroke="#c0c0c0" points="2020.8798,-370.1209 2026.3267,-361.0334 2016.4017,-364.7407 2020.8798,-370.1209"/>
</g>
<!-- KeyMayMatch -->
<g id="node22" class="node">
<title>KeyMayMatch</title>
<polygon fill="none" stroke="#000000" points="1405.5,-57.5 1405.5,-118.5 1569.5,-118.5 1569.5,-57.5 1405.5,-57.5"/>
<text text-anchor="middle" x="1487.5" y="-103.3" font-family="Times,serif" font-size="14.00" fill="#000000">KeyMayMatch</text>
<polyline fill="none" stroke="#000000" points="1405.5,-95.5 1569.5,-95.5 "/>
<text text-anchor="start" x="1413.5" y="-80.3" font-family="Times,serif" font-size="14.00" fill="#000000">使用bloomfilter快速排除</text>
<text text-anchor="start" x="1413.5" y="-65.3" font-family="Times,serif" font-size="14.00" fill="#000000"> key not found在的情况</text>
</g>
<!-- KeyMayMatch&#45;&gt;filter -->
<g id="edge47" class="edge">
<title>KeyMayMatch&#45;&gt;filter</title>
<path fill="none" stroke="#c0c0c0" stroke-dasharray="5,2" d="M1556.6806,-118.5298C1668.1348,-167.7153 1885.6927,-263.7249 1992.2281,-310.7397"/>
<polygon fill="#c0c0c0" stroke="#c0c0c0" points="1991.003,-314.0246 2001.5648,-314.86 1993.8292,-307.6205 1991.003,-314.0246"/>
</g>
<!-- IndexBlockIterator -->
<g id="node23" class="node">
<title>IndexBlockIterator</title>
<polygon fill="none" stroke="#000000" points="183,-156.5 183,-217.5 365,-217.5 365,-156.5 183,-156.5"/>
<text text-anchor="middle" x="274" y="-202.3" font-family="Times,serif" font-size="14.00" fill="#000000">IndexBlockIterator</text>
<polyline fill="none" stroke="#000000" points="183,-194.5 365,-194.5 "/>
<text text-anchor="start" x="191" y="-179.3" font-family="Times,serif" font-size="14.00" fill="#000000">根据key值，在indexblock中</text>
<text text-anchor="start" x="191" y="-164.3" font-family="Times,serif" font-size="14.00" fill="#000000"> 查找相应的datablock</text>
</g>
<!-- IndexBlockIterator&#45;&gt;index_block -->
<g id="edge46" class="edge">
<title>IndexBlockIterator&#45;&gt;index_block</title>
<path fill="none" stroke="#c0c0c0" stroke-dasharray="5,2" d="M318.2092,-217.6439C361.417,-247.5937 426.3065,-292.5723 465.8872,-320.0079"/>
<polygon fill="#c0c0c0" stroke="#c0c0c0" points="464.2005,-323.0974 474.4131,-325.9177 468.1883,-317.3443 464.2005,-323.0974"/>
</g>
<!-- IndexBlockIterator_Seek -->
<g id="node30" class="node">
<title>IndexBlockIterator_Seek</title>
<polygon fill="none" stroke="#000000" points="576.5,-170 424.5,-170 424.5,-134 576.5,-134 576.5,-170"/>
<text text-anchor="middle" x="500.5" y="-148.3" font-family="Times,serif" font-size="14.00" fill="#000000">IndexBlockIterator_Seek</text>
</g>
<!-- IndexBlockIterator&#45;&gt;IndexBlockIterator_Seek -->
<g id="edge44" class="edge">
<title>IndexBlockIterator&#45;&gt;IndexBlockIterator_Seek</title>
<path fill="none" stroke="#c0c0c0" stroke-dasharray="5,2" d="M365.1472,-172.9155C381.4349,-170.3986 398.3573,-167.7836 414.495,-165.2899"/>
<polygon fill="#c0c0c0" stroke="#c0c0c0" points="415.0808,-168.7411 424.429,-163.7549 414.0117,-161.8232 415.0808,-168.7411"/>
</g>
<!-- InternalGet -->
<g id="node24" class="node">
<title>InternalGet</title>
<polygon fill="none" stroke="#000000" points="24,-94 24,-140 143,-140 143,-94 24,-94"/>
<text text-anchor="middle" x="83.5" y="-124.8" font-family="Times,serif" font-size="14.00" fill="#000000">InternalGet</text>
<polyline fill="none" stroke="#000000" points="24,-117 143,-117 "/>
<text text-anchor="middle" x="83.5" y="-101.8" font-family="Times,serif" font-size="14.00" fill="#000000">在table中查找key</text>
</g>
<!-- InternalGet&#45;&gt;KeyMayMatch -->
<g id="edge38" class="edge">
<title>InternalGet&#45;&gt;KeyMayMatch</title>
<path fill="none" stroke="#ff0000" d="M143.0142,-95.3138C223.1143,-68.1146 370.5752,-25 500.5,-25 500.5,-25 500.5,-25 986.5,-25 1154.1188,-25 1198.3425,-15.6319 1363,-47 1373.6114,-49.0215 1384.5681,-51.703 1395.3773,-54.7303"/>
<polygon fill="#ff0000" stroke="#ff0000" points="1394.6691,-58.1692 1405.2485,-57.5986 1396.6223,-51.4472 1394.6691,-58.1692"/>
</g>
<!-- InternalGet&#45;&gt;IndexBlockIterator -->
<g id="edge39" class="edge">
<title>InternalGet&#45;&gt;IndexBlockIterator</title>
<path fill="none" stroke="#ff0000" d="M143.2527,-138.9564C155.3697,-143.4088 168.3811,-148.1899 181.3288,-152.9476"/>
<polygon fill="#ff0000" stroke="#ff0000" points="180.1383,-156.2389 190.7319,-156.4028 182.5527,-149.6684 180.1383,-156.2389"/>
</g>
<!-- BlockReader -->
<g id="node25" class="node">
<title>BlockReader</title>
<polygon fill="none" stroke="#000000" points="653,-106.5 653,-197.5 844,-197.5 844,-106.5 653,-106.5"/>
<text text-anchor="middle" x="748.5" y="-182.3" font-family="Times,serif" font-size="14.00" fill="#000000">BlockReader</text>
<polyline fill="none" stroke="#000000" points="653,-174.5 844,-174.5 "/>
<text text-anchor="start" x="661" y="-159.3" font-family="Times,serif" font-size="14.00" fill="#000000">在indexBlock中查找到的</text>
<text text-anchor="start" x="661" y="-144.3" font-family="Times,serif" font-size="14.00" fill="#000000"> datalblock上创建Iterator</text>
<text text-anchor="start" x="661" y="-129.3" font-family="Times,serif" font-size="14.00" fill="#000000"> 先从cache中读</text>
<text text-anchor="start" x="661" y="-114.3" font-family="Times,serif" font-size="14.00" fill="#000000"> 如果没找到则从文件中加载</text>
</g>
<!-- InternalGet&#45;&gt;BlockReader -->
<g id="edge40" class="edge">
<title>InternalGet&#45;&gt;BlockReader</title>
<path fill="none" stroke="#ff0000" d="M143.2933,-114.3901C239.1456,-111.0015 432.9875,-107.4199 596,-125 611.131,-126.6318 627.026,-128.8619 642.6076,-131.346"/>
<polygon fill="#ff0000" stroke="#ff0000" points="642.3566,-134.8514 652.7905,-133.0114 643.4865,-127.9432 642.3566,-134.8514"/>
</g>
<!-- InternalGet&#45;&gt;IndexBlockIterator_Seek -->
<g id="edge41" class="edge">
<title>InternalGet&#45;&gt;IndexBlockIterator_Seek</title>
<path fill="none" stroke="#ff0000" d="M143.2343,-118.4278C201.088,-120.2141 291.2299,-124.0624 369,-132 383.5592,-133.486 398.9689,-135.4619 413.9157,-137.5942"/>
<polygon fill="#ff0000" stroke="#ff0000" points="413.7728,-141.1103 424.1734,-139.0912 414.7837,-134.1837 413.7728,-141.1103"/>
</g>
<!-- BlockData2_Iterator_Seek -->
<g id="node31" class="node">
<title>BlockData2_Iterator_Seek</title>
<polygon fill="none" stroke="#000000" points="1399,-154 1399,-200 1576,-200 1576,-154 1399,-154"/>
<text text-anchor="middle" x="1487.5" y="-184.8" font-family="Times,serif" font-size="14.00" fill="#000000">BlockData::Iterator::Seek</text>
<polyline fill="none" stroke="#000000" points="1399,-177 1576,-177 "/>
<text text-anchor="middle" x="1487.5" y="-161.8" font-family="Times,serif" font-size="14.00" fill="#000000">在blockData中二分查找key</text>
</g>
<!-- InternalGet&#45;&gt;BlockData2_Iterator_Seek -->
<g id="edge42" class="edge">
<title>InternalGet&#45;&gt;BlockData2_Iterator_Seek</title>
<path fill="none" stroke="#ff0000" d="M143.0296,-126.3045C154.9267,-128.001 167.3472,-129.6565 179,-131 221.0928,-135.853 330.0616,-130.292 369,-147 388.6727,-155.4413 385.4944,-170.1795 405,-179 497.6235,-220.8847 530.5378,-200.766 632,-207 956.2774,-226.924 1040.3791,-245.3216 1363,-207 1373.0386,-205.8076 1383.4387,-204.0924 1393.7553,-202.0777"/>
<polygon fill="#ff0000" stroke="#ff0000" points="1394.5112,-205.4956 1403.6063,-200.0616 1393.1076,-198.6378 1394.5112,-205.4956"/>
</g>
<!-- BlockReader&#45;&gt;cache_id -->
<g id="edge29" class="edge">
<title>BlockReader&#45;&gt;cache_id</title>
<path fill="none" stroke="#000000" d="M803.5545,-197.6768C824.0059,-215.9776 846.6698,-237.9384 865,-260 884.1482,-283.0461 877.2686,-298.7079 901,-317 913.4213,-326.5743 929.3084,-332.7945 944.0094,-336.8177"/>
<polygon fill="#000000" stroke="#000000" points="943.3933,-340.2706 953.9404,-339.2662 945.069,-333.4741 943.3933,-340.2706"/>
</g>
<!-- BlockReader&#45;&gt;options_block_cache -->
<g id="edge30" class="edge">
<title>BlockReader&#45;&gt;options_block_cache</title>
<path fill="none" stroke="#000000" d="M804.728,-197.5355C832.5242,-218.5227 867.2762,-242.5786 901,-260 906.5949,-262.8902 912.5306,-265.6102 918.5639,-268.1423"/>
<polygon fill="#000000" stroke="#000000" points="917.5058,-271.489 928.09,-271.9644 920.1124,-264.9924 917.5058,-271.489"/>
</g>
<!-- Cache_Lookup -->
<g id="node26" class="node">
<title>Cache_Lookup</title>
<polygon fill="none" stroke="#000000" points="927,-45 927,-91 1046,-91 1046,-45 927,-45"/>
<text text-anchor="middle" x="986.5" y="-75.8" font-family="Times,serif" font-size="14.00" fill="#000000">Cache_Lookup</text>
<polyline fill="none" stroke="#000000" points="927,-68 1046,-68 "/>
<text text-anchor="middle" x="986.5" y="-52.8" font-family="Times,serif" font-size="14.00" fill="#000000">先从cache中查找</text>
</g>
<!-- BlockReader&#45;&gt;Cache_Lookup -->
<g id="edge31" class="edge">
<title>BlockReader&#45;&gt;Cache_Lookup</title>
<path fill="none" stroke="#000000" d="M844.2749,-118.1971C868.6876,-109.5808 894.4572,-100.4857 917.2552,-92.4393"/>
<polygon fill="#000000" stroke="#000000" points="918.5663,-95.6883 926.8313,-89.0596 916.2365,-89.0873 918.5663,-95.6883"/>
</g>
<!-- Cache_Insert -->
<g id="node27" class="node">
<title>Cache_Insert</title>
<polygon fill="none" stroke="#000000" points="1174.5,-136.5 1174.5,-197.5 1296.5,-197.5 1296.5,-136.5 1174.5,-136.5"/>
<text text-anchor="middle" x="1235.5" y="-182.3" font-family="Times,serif" font-size="14.00" fill="#000000">Cache_Insert</text>
<polyline fill="none" stroke="#000000" points="1174.5,-174.5 1296.5,-174.5 "/>
<text text-anchor="start" x="1182.5" y="-159.3" font-family="Times,serif" font-size="14.00" fill="#000000">将读的的block</text>
<text text-anchor="start" x="1182.5" y="-144.3" font-family="Times,serif" font-size="14.00" fill="#000000"> 内容放入cache中</text>
</g>
<!-- BlockReader&#45;&gt;Cache_Insert -->
<g id="edge32" class="edge">
<title>BlockReader&#45;&gt;Cache_Insert</title>
<path fill="none" stroke="#000000" d="M844.3637,-176.7265C863.0264,-180.5863 882.5305,-183.9661 901,-186 991.465,-195.9623 1096.3037,-186.6489 1164.1508,-177.9008"/>
<polygon fill="#000000" stroke="#000000" points="1164.8444,-181.3397 1174.3002,-176.5607 1163.928,-174.3999 1164.8444,-181.3397"/>
</g>
<!-- ReadBlock_Datablock -->
<g id="node28" class="node">
<title>ReadBlock_Datablock</title>
<polygon fill="none" stroke="#000000" points="901,-131 901,-177 1072,-177 1072,-131 901,-131"/>
<text text-anchor="middle" x="986.5" y="-161.8" font-family="Times,serif" font-size="14.00" fill="#000000">ReadBlock</text>
<polyline fill="none" stroke="#000000" points="901,-154 1072,-154 "/>
<text text-anchor="middle" x="986.5" y="-138.8" font-family="Times,serif" font-size="14.00" fill="#000000">cache中没有读取datablock</text>
</g>
<!-- BlockReader&#45;&gt;ReadBlock_Datablock -->
<g id="edge33" class="edge">
<title>BlockReader&#45;&gt;ReadBlock_Datablock</title>
<path fill="none" stroke="#000000" d="M844.2749,-152.8048C859.6388,-152.9339 875.5401,-153.0676 890.8999,-153.1966"/>
<polygon fill="#000000" stroke="#000000" points="890.8752,-156.6965 900.9043,-153.2807 890.9341,-149.6967 890.8752,-156.6965"/>
</g>
<!-- BlockData_NewIterator -->
<g id="node29" class="node">
<title>BlockData_NewIterator</title>
<polygon fill="none" stroke="#000000" points="1162.5,-56.5 1162.5,-117.5 1308.5,-117.5 1308.5,-56.5 1162.5,-56.5"/>
<text text-anchor="middle" x="1235.5" y="-102.3" font-family="Times,serif" font-size="14.00" fill="#000000">BlockData_NewIterator</text>
<polyline fill="none" stroke="#000000" points="1162.5,-94.5 1308.5,-94.5 "/>
<text text-anchor="start" x="1170.5" y="-79.3" font-family="Times,serif" font-size="14.00" fill="#000000">返回在BlockData</text>
<text text-anchor="start" x="1170.5" y="-64.3" font-family="Times,serif" font-size="14.00" fill="#000000"> 上的iterator</text>
</g>
<!-- BlockReader&#45;&gt;BlockData_NewIterator -->
<g id="edge34" class="edge">
<title>BlockReader&#45;&gt;BlockData_NewIterator</title>
<path fill="none" stroke="#000000" d="M844.2342,-131.0287C862.9963,-127.3468 882.5701,-123.8028 901,-121 986.218,-108.0402 1084.4233,-98.7187 1152.2778,-93.1502"/>
<polygon fill="#000000" stroke="#000000" points="1152.7976,-96.6196 1162.4818,-92.3223 1152.2315,-89.6426 1152.7976,-96.6196"/>
</g>
<!-- Cache_Lookup&#45;&gt;BlockData_NewIterator -->
<g id="edge36" class="edge">
<title>Cache_Lookup&#45;&gt;BlockData_NewIterator</title>
<path fill="none" stroke="#c0c0c0" stroke-dasharray="5,2" d="M1046.1417,-72.551C1077.8315,-74.9691 1117.2994,-77.9807 1151.9887,-80.6276"/>
<polygon fill="#c0c0c0" stroke="#c0c0c0" points="1151.8723,-84.1289 1162.1097,-81.3999 1152.405,-77.1491 1151.8723,-84.1289"/>
</g>
<!-- ReadBlock_Datablock&#45;&gt;Cache_Insert -->
<g id="edge35" class="edge">
<title>ReadBlock_Datablock&#45;&gt;Cache_Insert</title>
<path fill="none" stroke="#c0c0c0" stroke-dasharray="5,2" d="M1072.1917,-158.4739C1102.1362,-160.0372 1135.4087,-161.7743 1164.0664,-163.2705"/>
<polygon fill="#c0c0c0" stroke="#c0c0c0" points="1164.232,-166.7839 1174.4009,-163.8101 1164.5971,-159.7934 1164.232,-166.7839"/>
</g>
<!-- ReadBlock_Datablock&#45;&gt;BlockData_NewIterator -->
<g id="edge37" class="edge">
<title>ReadBlock_Datablock&#45;&gt;BlockData_NewIterator</title>
<path fill="none" stroke="#c0c0c0" stroke-dasharray="5,2" d="M1072.1917,-130.9424C1098.1379,-123.9609 1126.5826,-116.3071 1152.359,-109.3713"/>
<polygon fill="#c0c0c0" stroke="#c0c0c0" points="1153.3495,-112.7293 1162.0966,-106.7511 1151.5306,-105.9698 1153.3495,-112.7293"/>
</g>
<!-- BlockData_NewIterator&#45;&gt;BlockData2_Iterator_Seek -->
<g id="edge43" class="edge">
<title>BlockData_NewIterator&#45;&gt;BlockData2_Iterator_Seek</title>
<path fill="none" stroke="#c0c0c0" stroke-dasharray="5,2" d="M1308.6444,-108.8734C1326.5158,-114.5126 1345.5214,-120.7592 1363,-127 1382.794,-134.0675 1404.102,-142.3648 1423.3976,-150.1468"/>
<polygon fill="#c0c0c0" stroke="#c0c0c0" points="1422.1106,-153.4017 1432.6929,-153.918 1424.7423,-146.9152 1422.1106,-153.4017"/>
</g>
<!-- IndexBlockIterator_Seek&#45;&gt;BlockReader -->
<g id="edge45" class="edge">
<title>IndexBlockIterator_Seek&#45;&gt;BlockReader</title>
<path fill="none" stroke="#c0c0c0" stroke-dasharray="5,2" d="M576.5936,-152C597.4606,-152 620.4666,-152 642.6772,-152"/>
<polygon fill="#c0c0c0" stroke="#c0c0c0" points="642.8156,-155.5001 652.8156,-152 642.8156,-148.5001 642.8156,-155.5001"/>
</g>
</g>
</svg>
