<?xml version="1.0" encoding="UTF-8" standalone="no"?>
<!DOCTYPE svg PUBLIC "-//W3C//DTD SVG 1.1//EN"
 "http://www.w3.org/Graphics/SVG/1.1/DTD/svg11.dtd">
<!-- Generated by graphviz version 2.40.1 (20161225.0304)
 -->
<!-- Title: write_prepared_txn Pages: 1 -->
<svg width="1395pt" height="756pt"
 viewBox="0.00 0.00 1394.51 756.00" xmlns="http://www.w3.org/2000/svg" xmlns:xlink="http://www.w3.org/1999/xlink">
<g id="graph0" class="graph" transform="scale(1 1) rotate(0) translate(4 752)">
<title>write_prepared_txn</title>
<polygon fill="#ffffff" stroke="transparent" points="-4,4 -4,-752 1390.5127,-752 1390.5127,4 -4,4"/>
<g id="clust1" class="cluster">
<title>cluster_DBImpl</title>
<polygon fill="none" stroke="#000000" points="243.7056,-404 243.7056,-484 383.2144,-484 383.2144,-404 243.7056,-404"/>
<text text-anchor="middle" x="313.46" y="-464" font-family="Times,serif" font-size="20.00" fill="#000000">DBImpl</text>
</g>
<g id="clust2" class="cluster">
<title>cluster_WriteBatchInternal</title>
<polygon fill="none" stroke="#000000" points="149.4277,-8 149.4277,-396 751.5952,-396 751.5952,-8 149.4277,-8"/>
<text text-anchor="middle" x="450.5115" y="-376" font-family="Times,serif" font-size="20.00" fill="#000000">WriteBatchInternal</text>
</g>
<g id="clust6" class="cluster">
<title>cluster_WritePreparedTxnDB</title>
<polygon fill="none" stroke="#000000" points="819.5117,-442 819.5117,-740 1378.5127,-740 1378.5127,-442 819.5117,-442"/>
<text text-anchor="middle" x="1099.0122" y="-720" font-family="Times,serif" font-size="20.00" fill="#000000">WritePreparedTxnDB</text>
</g>
<g id="clust11" class="cluster">
<title>cluster_WritePreparedTxn</title>
<polygon fill="none" stroke="#000000" points="8,-492 8,-632 799.5117,-632 799.5117,-492 8,-492"/>
<text text-anchor="middle" x="403.7559" y="-612" font-family="Times,serif" font-size="20.00" fill="#000000">WritePreparedTxn</text>
</g>
<!-- WriteImpl_Prepare -->
<g id="node1" class="node">
<title>WriteImpl_Prepare</title>
<polygon fill="none" stroke="#000000" points="374.9697,-448 251.9502,-448 251.9502,-412 374.9697,-412 374.9697,-448"/>
<text text-anchor="middle" x="313.46" y="-425.8" font-family="Times,serif" font-size="14.00" fill="#000000">WriteImpl_Prepare</text>
</g>
<!-- AddPreparedCallback -->
<g id="node21" class="node">
<title>AddPreparedCallback</title>
<polygon fill="none" stroke="#000000" points="718.1236,-536 578.8803,-536 578.8803,-500 718.1236,-500 718.1236,-536"/>
<text text-anchor="middle" x="648.502" y="-513.8" font-family="Times,serif" font-size="14.00" fill="#000000">AddPreparedCallback</text>
</g>
<!-- WriteImpl_Prepare&#45;&gt;AddPreparedCallback -->
<g id="edge21" class="edge">
<title>WriteImpl_Prepare&#45;&gt;AddPreparedCallback</title>
<path fill="none" stroke="#666666" d="M375.3023,-446.2431C430.1989,-460.6619 510.6863,-481.8022 570.0886,-497.4044"/>
<polygon fill="#666666" stroke="#666666" points="569.2442,-500.8013 579.8053,-499.9566 571.0225,-494.0309 569.2442,-500.8013"/>
</g>
<!-- MarkEndPrepare -->
<g id="node2" class="node">
<title>MarkEndPrepare</title>
<polygon fill="none" stroke="#000000" points="157.4277,-94.6001 157.4277,-183.3999 469.4922,-183.3999 469.4922,-94.6001 157.4277,-94.6001"/>
<text text-anchor="middle" x="313.46" y="-168.1999" font-family="Times,serif" font-size="14.00" fill="#000000">MarkEndPrepare</text>
<polyline fill="none" stroke="#000000" points="157.4277,-161.3999 469.4922,-161.3999 "/>
<text text-anchor="start" x="165.4277" y="-146.1999" font-family="Times,serif" font-size="14.00" fill="#000000">1.开始时rep_[12]这个char是TypeNoop</text>
<text text-anchor="start" x="165.4277" y="-126.6" font-family="Times,serif" font-size="14.00" fill="#000000"> 2.将rep_[12]这个地方写入kTypeBeginPrepareXID</text>
<text text-anchor="start" x="165.4277" y="-107" font-family="Times,serif" font-size="14.00" fill="#000000"> 3.在rep_结尾写入kTypeEndPrepareXID</text>
</g>
<!-- kTypeBeginPrepareXID -->
<g id="node3" class="node">
<title>kTypeBeginPrepareXID</title>
<polygon fill="none" stroke="#000000" points="724.3663,-106 572.6376,-106 572.6376,-70 724.3663,-70 724.3663,-106"/>
<text text-anchor="middle" x="648.502" y="-83.8" font-family="Times,serif" font-size="14.00" fill="#000000">kTypeBeginPrepareXID</text>
</g>
<!-- MarkEndPrepare&#45;&gt;kTypeBeginPrepareXID -->
<g id="edge1" class="edge">
<title>MarkEndPrepare&#45;&gt;kTypeBeginPrepareXID</title>
<path fill="none" stroke="#b83b5e" d="M469.7005,-115.2171C501.4559,-110.3833 533.7542,-105.4669 562.0036,-101.1668"/>
<polygon fill="#b83b5e" stroke="#b83b5e" points="562.8601,-104.5768 572.2195,-99.6117 561.8067,-97.6565 562.8601,-104.5768"/>
</g>
<!-- kTypeEndPrepareXID -->
<g id="node4" class="node">
<title>kTypeEndPrepareXID</title>
<polygon fill="none" stroke="#000000" points="718.9766,-52 578.0273,-52 578.0273,-16 718.9766,-16 718.9766,-52"/>
<text text-anchor="middle" x="648.502" y="-29.8" font-family="Times,serif" font-size="14.00" fill="#000000">kTypeEndPrepareXID</text>
</g>
<!-- MarkEndPrepare&#45;&gt;kTypeEndPrepareXID -->
<g id="edge2" class="edge">
<title>MarkEndPrepare&#45;&gt;kTypeEndPrepareXID</title>
<path fill="none" stroke="#b83b5e" d="M412.2821,-94.4734C441.8322,-82.3609 474.5965,-70.0924 505.4922,-61 525.4892,-55.115 547.4499,-50.219 568.0317,-46.2857"/>
<polygon fill="#b83b5e" stroke="#b83b5e" points="568.8176,-49.6997 578.0101,-44.432 567.539,-42.8174 568.8176,-49.6997"/>
</g>
<!-- PutLengthPrefixedSlice -->
<g id="node5" class="node">
<title>PutLengthPrefixedSlice</title>
<polygon fill="none" stroke="#000000" points="553.4087,-124.2 553.4087,-173.8 743.5952,-173.8 743.5952,-124.2 553.4087,-124.2"/>
<text text-anchor="middle" x="648.502" y="-158.6" font-family="Times,serif" font-size="14.00" fill="#000000">PutLengthPrefixedSlice</text>
<polyline fill="none" stroke="#000000" points="553.4087,-151.8 743.5952,-151.8 "/>
<text text-anchor="middle" x="648.502" y="-136.6" font-family="Times,serif" font-size="14.00" fill="#000000">向writeBatch的rep_中写入xid</text>
</g>
<!-- MarkEndPrepare&#45;&gt;PutLengthPrefixedSlice -->
<g id="edge3" class="edge">
<title>MarkEndPrepare&#45;&gt;PutLengthPrefixedSlice</title>
<path fill="none" stroke="#b83b5e" d="M469.7005,-143.6633C494.518,-144.404 519.6671,-145.1547 542.9559,-145.8498"/>
<polygon fill="#b83b5e" stroke="#b83b5e" points="543.0656,-149.3545 553.1656,-146.1545 543.2745,-142.3576 543.0656,-149.3545"/>
</g>
<!-- content_flags_ -->
<g id="node6" class="node">
<title>content_flags_</title>
<polygon fill="#95e1d3" stroke="#000000" points="553.8667,-247 553.8667,-305 743.1372,-305 743.1372,-247 553.8667,-247"/>
<text text-anchor="middle" x="648.502" y="-289.8" font-family="Times,serif" font-size="14.00" fill="#000000">content_flags_</text>
<polyline fill="none" stroke="#000000" points="553.8667,-283 743.1372,-283 "/>
<text text-anchor="start" x="561.8667" y="-267.8" font-family="Times,serif" font-size="14.00" fill="#000000">mutable std::atomic&lt;uint32_t&gt;</text>
<text text-anchor="middle" x="648.502" y="-253.8" font-family="Times,serif" font-size="14.00" fill="#000000"> content_flags_;</text>
</g>
<!-- MarkEndPrepare&#45;&gt;content_flags_ -->
<g id="edge4" class="edge">
<title>MarkEndPrepare&#45;&gt;content_flags_</title>
<path fill="none" stroke="#b83b5e" d="M454.4151,-183.4809C459.6245,-186.4679 464.6727,-189.6378 469.4922,-193 490.2149,-207.4565 484.2973,-223.2451 505.4922,-237 517.3315,-244.6833 530.6616,-250.8646 544.3004,-255.8347"/>
<polygon fill="#b83b5e" stroke="#b83b5e" points="543.1828,-259.1514 553.7774,-259.0856 545.4541,-252.5301 543.1828,-259.1514"/>
</g>
<!-- MarkCommit -->
<g id="node7" class="node">
<title>MarkCommit</title>
<polygon fill="none" stroke="#000000" points="359.6809,-327 267.239,-327 267.239,-291 359.6809,-291 359.6809,-327"/>
<text text-anchor="middle" x="313.46" y="-304.8" font-family="Times,serif" font-size="14.00" fill="#000000">MarkCommit</text>
</g>
<!-- MarkCommit&#45;&gt;PutLengthPrefixedSlice -->
<g id="edge5" class="edge">
<title>MarkCommit&#45;&gt;PutLengthPrefixedSlice</title>
<path fill="none" stroke="#3f72af" d="M359.8336,-299.3655C393.4143,-290.4504 438.218,-274.3365 469.4922,-247 494.0641,-225.5219 479.4309,-202.6442 505.4922,-183 516.8345,-174.4505 530.0044,-168.0115 543.6713,-163.1692"/>
<polygon fill="#3f72af" stroke="#3f72af" points="544.7723,-166.4917 553.196,-160.0657 542.6037,-159.8361 544.7723,-166.4917"/>
</g>
<!-- MarkCommit&#45;&gt;content_flags_ -->
<g id="edge6" class="edge">
<title>MarkCommit&#45;&gt;content_flags_</title>
<path fill="none" stroke="#3f72af" d="M359.6944,-304.4461C406.8823,-299.7984 481.7436,-292.4249 543.4244,-286.3496"/>
<polygon fill="#3f72af" stroke="#3f72af" points="543.9873,-289.8112 553.5961,-285.3478 543.3011,-282.8449 543.9873,-289.8112"/>
</g>
<!-- kTypeCommitXID -->
<g id="node8" class="node">
<title>kTypeCommitXID</title>
<polygon fill="none" stroke="#000000" points="709.0701,-360 587.9338,-360 587.9338,-324 709.0701,-324 709.0701,-360"/>
<text text-anchor="middle" x="648.502" y="-337.8" font-family="Times,serif" font-size="14.00" fill="#000000">kTypeCommitXID</text>
</g>
<!-- MarkCommit&#45;&gt;kTypeCommitXID -->
<g id="edge7" class="edge">
<title>MarkCommit&#45;&gt;kTypeCommitXID</title>
<path fill="none" stroke="#3f72af" d="M359.6944,-313.5539C416.0107,-319.1007 511.7425,-328.5299 577.4447,-335.0012"/>
<polygon fill="#3f72af" stroke="#3f72af" points="577.4261,-338.5162 587.721,-336.0134 578.1123,-331.5499 577.4261,-338.5162"/>
</g>
<!-- MarkRollback -->
<g id="node9" class="node">
<title>MarkRollback</title>
<polygon fill="none" stroke="#000000" points="361.8292,-238 265.0907,-238 265.0907,-202 361.8292,-202 361.8292,-238"/>
<text text-anchor="middle" x="313.46" y="-215.8" font-family="Times,serif" font-size="14.00" fill="#000000">MarkRollback</text>
</g>
<!-- MarkRollback&#45;&gt;PutLengthPrefixedSlice -->
<g id="edge8" class="edge">
<title>MarkRollback&#45;&gt;PutLengthPrefixedSlice</title>
<path fill="none" stroke="#17b978" d="M361.8536,-212.8996C392.7911,-208.0469 433.6848,-201.0503 469.4922,-193 485.6936,-189.3576 489.4116,-187.1434 505.4922,-183 517.8004,-179.8286 530.7323,-176.6043 543.5795,-173.4677"/>
<polygon fill="#17b978" stroke="#17b978" points="544.484,-176.8499 553.3755,-171.0886 542.8319,-170.0476 544.484,-176.8499"/>
</g>
<!-- MarkRollback&#45;&gt;content_flags_ -->
<g id="edge9" class="edge">
<title>MarkRollback&#45;&gt;content_flags_</title>
<path fill="none" stroke="#17b978" d="M362.1779,-228.1429C409.5418,-236.0594 483.0103,-248.3392 543.6664,-258.4774"/>
<polygon fill="#17b978" stroke="#17b978" points="543.2306,-261.9531 553.6708,-260.1496 544.3846,-255.0489 543.2306,-261.9531"/>
</g>
<!-- kTypeRollbackXID -->
<g id="node10" class="node">
<title>kTypeRollbackXID</title>
<polygon fill="none" stroke="#000000" points="711.718,-228 585.2859,-228 585.2859,-192 711.718,-192 711.718,-228"/>
<text text-anchor="middle" x="648.502" y="-205.8" font-family="Times,serif" font-size="14.00" fill="#000000">kTypeRollbackXID</text>
</g>
<!-- MarkRollback&#45;&gt;kTypeRollbackXID -->
<g id="edge10" class="edge">
<title>MarkRollback&#45;&gt;kTypeRollbackXID</title>
<path fill="none" stroke="#17b978" d="M362.1779,-218.5459C418.0809,-216.8774 510.3496,-214.1234 574.9956,-212.1939"/>
<polygon fill="#17b978" stroke="#17b978" points="575.2328,-215.6885 585.1239,-211.8916 575.0239,-208.6916 575.2328,-215.6885"/>
</g>
<!-- AddPrepared -->
<g id="node11" class="node">
<title>AddPrepared</title>
<polygon fill="none" stroke="#000000" points="928.5777,-536 838.8529,-536 838.8529,-500 928.5777,-500 928.5777,-536"/>
<text text-anchor="middle" x="883.7153" y="-513.8" font-family="Times,serif" font-size="14.00" fill="#000000">AddPrepared</text>
</g>
<!-- prepared_txns_ -->
<g id="node12" class="node">
<title>prepared_txns_</title>
<polygon fill="#95e1d3" stroke="#000000" points="1010.1328,-451 1010.1328,-487 1112.4365,-487 1112.4365,-451 1010.1328,-451"/>
<text text-anchor="middle" x="1061.2847" y="-464.8" font-family="Times,serif" font-size="14.00" fill="#000000">prepared_txns_</text>
</g>
<!-- AddPrepared&#45;&gt;prepared_txns_ -->
<g id="edge11" class="edge">
<title>AddPrepared&#45;&gt;prepared_txns_</title>
<path fill="none" stroke="#666666" d="M928.983,-505.5084C950.5611,-499.554 976.6952,-492.3423 1000.0181,-485.9064"/>
<polygon fill="#666666" stroke="#666666" points="1001.1113,-489.2357 1009.8199,-483.2016 999.2492,-482.4879 1001.1113,-489.2357"/>
</g>
<!-- CheckPreparedAgainstMax -->
<g id="node13" class="node">
<title>CheckPreparedAgainstMax</title>
<polygon fill="none" stroke="#000000" points="1146.5163,-542 976.053,-542 976.053,-506 1146.5163,-506 1146.5163,-542"/>
<text text-anchor="middle" x="1061.2847" y="-519.8" font-family="Times,serif" font-size="14.00" fill="#000000">CheckPreparedAgainstMax</text>
</g>
<!-- AddPrepared&#45;&gt;CheckPreparedAgainstMax -->
<g id="edge12" class="edge">
<title>AddPrepared&#45;&gt;CheckPreparedAgainstMax</title>
<path fill="none" stroke="#666666" d="M928.983,-519.5296C940.334,-519.9131 952.9457,-520.3393 965.7457,-520.7718"/>
<polygon fill="#666666" stroke="#666666" points="965.9185,-524.2795 976.031,-521.1193 966.1549,-517.2835 965.9185,-524.2795"/>
</g>
<!-- AddCommitted -->
<g id="node14" class="node">
<title>AddCommitted</title>
<polygon fill="none" stroke="#000000" points="935.3257,-650 832.1049,-650 832.1049,-614 935.3257,-614 935.3257,-650"/>
<text text-anchor="middle" x="883.7153" y="-627.8" font-family="Times,serif" font-size="14.00" fill="#000000">AddCommitted</text>
</g>
<!-- AddCommitted&#45;&gt;AddCommitted -->
<g id="edge13" class="edge">
<title>AddCommitted&#45;&gt;AddCommitted</title>
<path fill="none" stroke="#666666" d="M851.8755,-650.1527C846.9771,-659.5391 857.5903,-668 883.7153,-668 899.6353,-668 909.7951,-664.8581 914.1948,-660.2796"/>
<polygon fill="#666666" stroke="#666666" points="917.6926,-660.5297 915.5552,-650.1527 910.7549,-659.5977 917.6926,-660.5297"/>
</g>
<!-- CheckAgainstSnapshots -->
<g id="node15" class="node">
<title>CheckAgainstSnapshots</title>
<polygon fill="none" stroke="#000000" points="1137.3882,-704 985.1811,-704 985.1811,-668 1137.3882,-668 1137.3882,-704"/>
<text text-anchor="middle" x="1061.2847" y="-681.8" font-family="Times,serif" font-size="14.00" fill="#000000">CheckAgainstSnapshots</text>
</g>
<!-- AddCommitted&#45;&gt;CheckAgainstSnapshots -->
<g id="edge14" class="edge">
<title>AddCommitted&#45;&gt;CheckAgainstSnapshots</title>
<path fill="none" stroke="#666666" d="M935.5531,-647.7642C953.249,-653.1457 973.3283,-659.2519 992.1643,-664.98"/>
<polygon fill="#666666" stroke="#666666" points="991.2961,-668.3742 1001.8818,-667.9352 993.3328,-661.677 991.2961,-668.3742"/>
</g>
<!-- AdvanceMaxEvictedSeq -->
<g id="node16" class="node">
<title>AdvanceMaxEvictedSeq</title>
<polygon fill="none" stroke="#000000" points="1138.9576,-650 983.6117,-650 983.6117,-614 1138.9576,-614 1138.9576,-650"/>
<text text-anchor="middle" x="1061.2847" y="-627.8" font-family="Times,serif" font-size="14.00" fill="#000000">AdvanceMaxEvictedSeq</text>
</g>
<!-- AddCommitted&#45;&gt;AdvanceMaxEvictedSeq -->
<g id="edge15" class="edge">
<title>AddCommitted&#45;&gt;AdvanceMaxEvictedSeq</title>
<path fill="none" stroke="#666666" d="M935.5531,-632C947.4269,-632 960.3737,-632 973.298,-632"/>
<polygon fill="#666666" stroke="#666666" points="973.6373,-635.5001 983.6373,-632 973.6373,-628.5001 973.6373,-635.5001"/>
</g>
<!-- MaybeUpdateOldCommitMap -->
<g id="node19" class="node">
<title>MaybeUpdateOldCommitMap</title>
<polygon fill="none" stroke="#000000" points="1370.4439,-704 1182.7192,-704 1182.7192,-668 1370.4439,-668 1370.4439,-704"/>
<text text-anchor="middle" x="1276.5815" y="-681.8" font-family="Times,serif" font-size="14.00" fill="#000000">MaybeUpdateOldCommitMap</text>
</g>
<!-- CheckAgainstSnapshots&#45;&gt;MaybeUpdateOldCommitMap -->
<g id="edge17" class="edge">
<title>CheckAgainstSnapshots&#45;&gt;MaybeUpdateOldCommitMap</title>
<path fill="none" stroke="#666666" d="M1137.4933,-686C1148.7204,-686 1160.4476,-686 1172.1247,-686"/>
<polygon fill="#666666" stroke="#666666" points="1172.3597,-689.5001 1182.3596,-686 1172.3596,-682.5001 1172.3597,-689.5001"/>
</g>
<!-- RemovePrepared -->
<g id="node17" class="node">
<title>RemovePrepared</title>
<polygon fill="none" stroke="#000000" points="940.1233,-596 827.3074,-596 827.3074,-560 940.1233,-560 940.1233,-596"/>
<text text-anchor="middle" x="883.7153" y="-573.8" font-family="Times,serif" font-size="14.00" fill="#000000">RemovePrepared</text>
</g>
<!-- delayed_prepared_empty_ -->
<g id="node18" class="node">
<title>delayed_prepared_empty_</title>
<polygon fill="none" stroke="#000000" points="1143.7756,-596 978.7937,-596 978.7937,-560 1143.7756,-560 1143.7756,-596"/>
<text text-anchor="middle" x="1061.2847" y="-573.8" font-family="Times,serif" font-size="14.00" fill="#000000">delayed_prepared_empty_</text>
</g>
<!-- RemovePrepared&#45;&gt;delayed_prepared_empty_ -->
<g id="edge16" class="edge">
<title>RemovePrepared&#45;&gt;delayed_prepared_empty_</title>
<path fill="none" stroke="#666666" d="M940.3876,-578C949.5026,-578 959.1394,-578 968.8347,-578"/>
<polygon fill="#666666" stroke="#666666" points="968.9399,-581.5001 978.9398,-578 968.9398,-574.5001 968.9399,-581.5001"/>
</g>
<!-- PrepareInternal -->
<g id="node20" class="node">
<title>PrepareInternal</title>
<polygon fill="none" stroke="#000000" points="119.9975,-536 17.4303,-536 17.4303,-500 119.9975,-500 119.9975,-536"/>
<text text-anchor="middle" x="68.7139" y="-513.8" font-family="Times,serif" font-size="14.00" fill="#000000">PrepareInternal</text>
</g>
<!-- PrepareInternal&#45;&gt;WriteImpl_Prepare -->
<g id="edge18" class="edge">
<title>PrepareInternal&#45;&gt;WriteImpl_Prepare</title>
<path fill="none" stroke="#666666" d="M116.8964,-499.9479C127.5951,-495.9796 138.8872,-491.8221 149.4277,-488 183.2505,-475.7355 221.109,-462.328 251.9259,-451.496"/>
<polygon fill="#666666" stroke="#666666" points="253.3944,-454.69 261.67,-448.0744 251.0751,-448.0853 253.3944,-454.69"/>
</g>
<!-- PrepareInternal&#45;&gt;MarkEndPrepare -->
<g id="edge19" class="edge">
<title>PrepareInternal&#45;&gt;MarkEndPrepare</title>
<path fill="none" stroke="#666666" d="M70.9355,-499.6188C78.7492,-437.8304 106.815,-238.9166 149.4277,-193 150.3168,-192.042 151.2232,-191.101 152.146,-190.1766"/>
<polygon fill="#666666" stroke="#666666" points="154.5207,-192.7478 159.5288,-183.4113 149.7915,-187.5869 154.5207,-192.7478"/>
</g>
<!-- PrepareInternal&#45;&gt;AddPreparedCallback -->
<g id="edge20" class="edge">
<title>PrepareInternal&#45;&gt;AddPreparedCallback</title>
<path fill="none" stroke="#666666" stroke-dasharray="5,2" d="M119.9482,-516.5394C129.7343,-516.3145 139.8968,-516.1181 149.4277,-516 297.3279,-514.1679 469.8994,-515.6685 568.4731,-516.8718"/>
<polygon fill="#666666" stroke="#666666" points="568.6134,-520.3737 578.6561,-516.9983 568.7004,-513.3743 568.6134,-520.3737"/>
</g>
<!-- AddPreparedCallback&#45;&gt;AddPrepared -->
<g id="edge22" class="edge">
<title>AddPreparedCallback&#45;&gt;AddPrepared</title>
<path fill="none" stroke="#666666" d="M718.4369,-518C753.5067,-518 795.3842,-518 828.2105,-518"/>
<polygon fill="#666666" stroke="#666666" points="828.5303,-521.5001 838.5302,-518 828.5302,-514.5001 828.5303,-521.5001"/>
</g>
<!-- AddPreparedCallback&#45;&gt;prepared_txns_ -->
<g id="edge23" class="edge">
<title>AddPreparedCallback&#45;&gt;prepared_txns_</title>
<path fill="none" stroke="#666666" d="M718.2452,-505.9236C749.1968,-500.8396 786.105,-495.1526 819.5117,-491 880.6226,-483.4037 950.7315,-477.3122 999.6616,-473.4821"/>
<polygon fill="#666666" stroke="#666666" points="1000.0705,-476.961 1009.7704,-472.6994 999.5301,-469.9819 1000.0705,-476.961"/>
</g>
<!-- CommitInternal -->
<g id="node22" class="node">
<title>CommitInternal</title>
<polygon fill="none" stroke="#000000" points="121.6425,-590 15.7853,-590 15.7853,-554 121.6425,-554 121.6425,-590"/>
<text text-anchor="middle" x="68.7139" y="-567.8" font-family="Times,serif" font-size="14.00" fill="#000000">CommitInternal</text>
</g>
<!-- CommitInternal&#45;&gt;MarkCommit -->
<g id="edge24" class="edge">
<title>CommitInternal&#45;&gt;MarkCommit</title>
<path fill="none" stroke="#666666" d="M112.6943,-553.7957C115.9731,-551.2092 118.958,-548.2889 121.4277,-545 160.84,-492.5155 110.8905,-453.1303 149.4277,-400 175.7569,-363.7007 221.2182,-340.1233 257.6132,-326.0839"/>
<polygon fill="#666666" stroke="#666666" points="258.9782,-329.3105 267.1328,-322.5463 256.5399,-322.7489 258.9782,-329.3105"/>
</g>
<!-- CommitInternal&#45;&gt;AddPreparedCallback -->
<g id="edge25" class="edge">
<title>CommitInternal&#45;&gt;AddPreparedCallback</title>
<path fill="none" stroke="#666666" stroke-dasharray="5,2" d="M104.3986,-553.7656C125.7055,-542.8957 148.7754,-531.1652 149.4277,-531 188.746,-521.0432 437.381,-518.6967 568.218,-518.1547"/>
<polygon fill="#666666" stroke="#666666" points="568.5957,-521.6533 578.582,-518.1145 568.5684,-514.6534 568.5957,-521.6533"/>
</g>
<!-- WritePreparedCommitEntryPreReleaseCallback -->
<g id="node23" class="node">
<title>WritePreparedCommitEntryPreReleaseCallback</title>
<polygon fill="none" stroke="#000000" points="791.5215,-596 505.4824,-596 505.4824,-560 791.5215,-560 791.5215,-596"/>
<text text-anchor="middle" x="648.502" y="-573.8" font-family="Times,serif" font-size="14.00" fill="#000000">WritePreparedCommitEntryPreReleaseCallback</text>
</g>
<!-- CommitInternal&#45;&gt;WritePreparedCommitEntryPreReleaseCallback -->
<g id="edge26" class="edge">
<title>CommitInternal&#45;&gt;WritePreparedCommitEntryPreReleaseCallback</title>
<path fill="none" stroke="#666666" stroke-dasharray="5,2" d="M121.5361,-581.7461C130.8008,-583.1007 140.3729,-584.2755 149.4277,-585 265.1925,-594.263 396.531,-591.9087 495.4083,-587.5621"/>
<polygon fill="#666666" stroke="#666666" points="495.6468,-591.055 505.4788,-587.1076 495.3312,-584.0621 495.6468,-591.055"/>
</g>
<!-- WriteImpl_Commited -->
<g id="node24" class="node">
<title>WriteImpl_Commited</title>
<polygon fill="none" stroke="#000000" points="383.3272,-576 243.5927,-576 243.5927,-540 383.3272,-540 383.3272,-576"/>
<text text-anchor="middle" x="313.46" y="-553.8" font-family="Times,serif" font-size="14.00" fill="#000000">WriteImpl_Commited</text>
</g>
<!-- CommitInternal&#45;&gt;WriteImpl_Commited -->
<g id="edge27" class="edge">
<title>CommitInternal&#45;&gt;WriteImpl_Commited</title>
<path fill="none" stroke="#666666" stroke-dasharray="5,2" d="M121.5188,-568.9794C154.1447,-567.1132 196.6497,-564.6818 233.3654,-562.5816"/>
<polygon fill="#666666" stroke="#666666" points="233.7709,-566.0642 243.5546,-561.9987 233.371,-559.0756 233.7709,-566.0642"/>
</g>
<!-- WritePreparedCommitEntryPreReleaseCallback&#45;&gt;AddCommitted -->
<g id="edge30" class="edge">
<title>WritePreparedCommitEntryPreReleaseCallback&#45;&gt;AddCommitted</title>
<path fill="none" stroke="#666666" d="M727.1516,-596.0563C758.0932,-603.1598 793.0907,-611.1945 822.1376,-617.8631"/>
<polygon fill="#666666" stroke="#666666" points="821.6177,-621.3347 832.1473,-620.1611 823.184,-614.5122 821.6177,-621.3347"/>
</g>
<!-- WritePreparedCommitEntryPreReleaseCallback&#45;&gt;RemovePrepared -->
<g id="edge31" class="edge">
<title>WritePreparedCommitEntryPreReleaseCallback&#45;&gt;RemovePrepared</title>
<path fill="none" stroke="#666666" d="M791.7651,-578C800.5331,-578 809.1011,-578 817.261,-578"/>
<polygon fill="#666666" stroke="#666666" points="817.3631,-581.5001 827.363,-578 817.363,-574.5001 817.3631,-581.5001"/>
</g>
<!-- WriteImpl_Commited&#45;&gt;AddPreparedCallback -->
<g id="edge28" class="edge">
<title>WriteImpl_Commited&#45;&gt;AddPreparedCallback</title>
<path fill="none" stroke="#666666" d="M383.6957,-549.6147C437.7291,-543.1637 512.4271,-534.2457 568.7149,-527.5256"/>
<polygon fill="#666666" stroke="#666666" points="569.1316,-531.0008 578.6461,-526.3399 568.3017,-524.0502 569.1316,-531.0008"/>
</g>
<!-- WriteImpl_Commited&#45;&gt;WritePreparedCommitEntryPreReleaseCallback -->
<g id="edge29" class="edge">
<title>WriteImpl_Commited&#45;&gt;WritePreparedCommitEntryPreReleaseCallback</title>
<path fill="none" stroke="#666666" d="M383.6957,-562.1927C416.1063,-564.1274 455.9517,-566.5059 494.7993,-568.8249"/>
<polygon fill="#666666" stroke="#666666" points="494.9931,-572.3426 505.1839,-569.4448 495.4102,-565.355 494.9931,-572.3426"/>
</g>
</g>
</svg>
