<?xml version="1.0" encoding="UTF-8" standalone="no"?>
<!DOCTYPE svg PUBLIC "-//W3C//DTD SVG 1.1//EN"
 "http://www.w3.org/Graphics/SVG/1.1/DTD/svg11.dtd">
<!-- Generated by graphviz version 2.40.1 (20161225.0304)
 -->
<!-- Title: write_prepared_txn Pages: 1 -->
<svg width="1775pt" height="1036pt"
 viewBox="0.00 0.00 1775.00 1036.44" xmlns="http://www.w3.org/2000/svg" xmlns:xlink="http://www.w3.org/1999/xlink">
<g id="graph0" class="graph" transform="scale(1 1) rotate(0) translate(4 1032.4366)">
<title>write_prepared_txn</title>
<polygon fill="#ffffff" stroke="transparent" points="-4,4 -4,-1032.4366 1771,-1032.4366 1771,4 -4,4"/>
<g id="clust1" class="cluster">
<title>cluster_DBImpl</title>
<polygon fill="none" stroke="#000000" points="717,-546.4366 717,-682.4366 873,-682.4366 873,-546.4366 717,-546.4366"/>
<text text-anchor="middle" x="795" y="-662.4366" font-family="Times,serif" font-size="20.00" fill="#000000">DBImpl</text>
</g>
<g id="clust3" class="cluster">
<title>cluster_WriteBatchInternal</title>
<polygon fill="none" stroke="#000000" points="148,-152.4366 148,-768.4366 697,-768.4366 697,-152.4366 148,-152.4366"/>
<text text-anchor="middle" x="422.5" y="-748.4366" font-family="Times,serif" font-size="20.00" fill="#000000">WriteBatchInternal</text>
</g>
<g id="clust7" class="cluster">
<title>cluster_WritePreparedTxnDB</title>
<polygon fill="none" stroke="#000000" points="1209,-720.4366 1209,-1020.4366 1759,-1020.4366 1759,-720.4366 1209,-720.4366"/>
<text text-anchor="middle" x="1484" y="-1000.4366" font-family="Times,serif" font-size="20.00" fill="#000000">WritePreparedTxnDB</text>
</g>
<g id="clust12" class="cluster">
<title>cluster_WritePreparedTxn</title>
<polygon fill="none" stroke="#000000" points="8,-776.4366 8,-912.4366 1189,-912.4366 1189,-776.4366 8,-776.4366"/>
<text text-anchor="middle" x="598.5" y="-892.4366" font-family="Times,serif" font-size="20.00" fill="#000000">WritePreparedTxn</text>
</g>
<!-- WriteImpl_Prepare -->
<g id="node1" class="node">
<title>WriteImpl_Prepare</title>
<polygon fill="none" stroke="#000000" points="856,-590.4366 734,-590.4366 734,-554.4366 856,-554.4366 856,-590.4366"/>
<text text-anchor="middle" x="795" y="-568.7366" font-family="Times,serif" font-size="14.00" fill="#000000">WriteImpl_Prepare</text>
</g>
<!-- AddPreparedCallback -->
<g id="node23" class="node">
<title>AddPreparedCallback</title>
<polygon fill="none" stroke="#000000" points="1109,-820.4366 973,-820.4366 973,-784.4366 1109,-784.4366 1109,-820.4366"/>
<text text-anchor="middle" x="1041" y="-798.7366" font-family="Times,serif" font-size="14.00" fill="#000000">AddPreparedCallback</text>
</g>
<!-- WriteImpl_Prepare&#45;&gt;AddPreparedCallback -->
<g id="edge25" class="edge">
<title>WriteImpl_Prepare&#45;&gt;AddPreparedCallback</title>
<path fill="none" stroke="#666666" d="M856.2198,-589.9254C862.1144,-592.6878 867.8188,-595.8434 873,-599.4366 942.5184,-647.6478 999.2679,-732.1385 1025.4191,-775.3346"/>
<polygon fill="#666666" stroke="#666666" points="1022.5459,-777.3501 1030.6744,-784.1455 1028.5577,-773.7643 1022.5459,-777.3501"/>
</g>
<!-- WriteImpl_Commited -->
<g id="node2" class="node">
<title>WriteImpl_Commited</title>
<polygon fill="none" stroke="#000000" points="865,-644.4366 725,-644.4366 725,-608.4366 865,-608.4366 865,-644.4366"/>
<text text-anchor="middle" x="795" y="-622.7366" font-family="Times,serif" font-size="14.00" fill="#000000">WriteImpl_Commited</text>
</g>
<!-- WriteImpl_Commited&#45;&gt;AddPreparedCallback -->
<g id="edge32" class="edge">
<title>WriteImpl_Commited&#45;&gt;AddPreparedCallback</title>
<path fill="none" stroke="#666666" d="M820.3998,-644.6088C865.0773,-676.5732 957.7035,-742.8423 1007.5369,-778.4955"/>
<polygon fill="#666666" stroke="#666666" points="1005.569,-781.3911 1015.7384,-784.3632 1009.6421,-775.698 1005.569,-781.3911"/>
</g>
<!-- WritePreparedCommitEntryPreReleaseCallback -->
<g id="node25" class="node">
<title>WritePreparedCommitEntryPreReleaseCallback</title>
<polygon fill="none" stroke="#000000" points="1181,-874.4366 901,-874.4366 901,-838.4366 1181,-838.4366 1181,-874.4366"/>
<text text-anchor="middle" x="1041" y="-852.7366" font-family="Times,serif" font-size="14.00" fill="#000000">WritePreparedCommitEntryPreReleaseCallback</text>
</g>
<!-- WriteImpl_Commited&#45;&gt;WritePreparedCommitEntryPreReleaseCallback -->
<g id="edge33" class="edge">
<title>WriteImpl_Commited&#45;&gt;WritePreparedCommitEntryPreReleaseCallback</title>
<path fill="none" stroke="#666666" d="M805.0525,-644.7687C820.1067,-672.3296 849.2745,-726.1473 873,-772.4366 885.8741,-797.5543 878.5709,-812.3024 901,-829.4366 902.6228,-830.6763 904.2864,-831.8641 905.9865,-833.0022"/>
<polygon fill="#666666" stroke="#666666" points="904.3979,-836.131 914.7711,-838.2868 908.0064,-830.1327 904.3979,-836.131"/>
</g>
<!-- WAL_REP -->
<g id="node3" class="node">
<title>WAL_REP</title>
<polygon fill="#95e1d3" stroke="#000000" points="513,-468.9366 513,-675.9366 677,-675.9366 677,-468.9366 513,-468.9366"/>
<text text-anchor="middle" x="595" y="-660.7366" font-family="Times,serif" font-size="14.00" fill="#000000">Write batch Rep_</text>
<polyline fill="none" stroke="#000000" points="513,-652.9366 677,-652.9366 "/>
<text text-anchor="start" x="521" y="-637.7366" font-family="Times,serif" font-size="14.00" fill="#000000">Seq</text>
<polyline fill="none" stroke="#000000" points="513,-629.9366 677,-629.9366 "/>
<text text-anchor="start" x="521" y="-614.7366" font-family="Times,serif" font-size="14.00" fill="#000000">recod num </text>
<polyline fill="none" stroke="#000000" points="513,-606.9366 677,-606.9366 "/>
<text text-anchor="start" x="521" y="-591.7366" font-family="Times,serif" font-size="14.00" fill="#000000">ktypeBeginPrepare(xid)</text>
<polyline fill="none" stroke="#000000" points="513,-583.9366 677,-583.9366 "/>
<text text-anchor="start" x="521" y="-568.7366" font-family="Times,serif" font-size="14.00" fill="#000000">put(key1, value1)</text>
<polyline fill="none" stroke="#000000" points="513,-560.9366 677,-560.9366 "/>
<text text-anchor="start" x="521" y="-545.7366" font-family="Times,serif" font-size="14.00" fill="#000000">delete(key2, value2)</text>
<polyline fill="none" stroke="#000000" points="513,-537.9366 677,-537.9366 "/>
<text text-anchor="start" x="521" y="-522.7366" font-family="Times,serif" font-size="14.00" fill="#000000">...</text>
<polyline fill="none" stroke="#000000" points="513,-514.9366 677,-514.9366 "/>
<text text-anchor="start" x="521" y="-499.7366" font-family="Times,serif" font-size="14.00" fill="#000000">kTypeEndPrepareXID(xid)</text>
<polyline fill="none" stroke="#000000" points="513,-491.9366 677,-491.9366 "/>
<text text-anchor="start" x="521" y="-476.7366" font-family="Times,serif" font-size="14.00" fill="#000000">kTypeCommitXID(xid)</text>
</g>
<!-- WAL_REP&#45;&gt;WriteImpl_Prepare -->
<g id="edge1" class="edge">
<title>WAL_REP&#45;&gt;WriteImpl_Prepare</title>
<path fill="none" stroke="#666666" stroke-dasharray="5,2" d="M677.2135,-572.4366C692.6202,-572.4366 708.609,-572.4366 723.6529,-572.4366"/>
<polygon fill="#666666" stroke="#666666" points="723.8982,-575.9367 733.8982,-572.4366 723.8981,-568.9367 723.8982,-575.9367"/>
</g>
<!-- WAL_REP&#45;&gt;WriteImpl_Commited -->
<g id="edge2" class="edge">
<title>WAL_REP&#45;&gt;WriteImpl_Commited</title>
<path fill="none" stroke="#666666" stroke-dasharray="5,2" d="M677.2135,-594.6342C690.8249,-598.3093 704.8905,-602.107 718.3576,-605.7431"/>
<polygon fill="#666666" stroke="#666666" points="717.4761,-609.1304 728.0428,-608.3581 719.3008,-602.3724 717.4761,-609.1304"/>
</g>
<!-- MarkEndPrepare -->
<g id="node4" class="node">
<title>MarkEndPrepare</title>
<polygon fill="none" stroke="#000000" points="156,-381.4366 156,-457.4366 465,-457.4366 465,-381.4366 156,-381.4366"/>
<text text-anchor="middle" x="310.5" y="-442.2366" font-family="Times,serif" font-size="14.00" fill="#000000">MarkEndPrepare</text>
<polyline fill="none" stroke="#000000" points="156,-434.4366 465,-434.4366 "/>
<text text-anchor="start" x="164" y="-419.2366" font-family="Times,serif" font-size="14.00" fill="#000000">1.开始时rep_[12]这个char是TypeNoop</text>
<text text-anchor="start" x="164" y="-404.2366" font-family="Times,serif" font-size="14.00" fill="#000000"> 2.将rep_[12]这个地方写入kTypeBeginPrepareXID</text>
<text text-anchor="start" x="164" y="-389.2366" font-family="Times,serif" font-size="14.00" fill="#000000"> 3.在rep_结尾写入kTypeEndPrepareXID</text>
</g>
<!-- MarkEndPrepare&#45;&gt;WAL_REP -->
<g id="edge3" class="edge">
<title>MarkEndPrepare&#45;&gt;WAL_REP</title>
<path fill="none" stroke="#b83b5e" d="M381.1914,-457.4534C418.2929,-477.406 464.1761,-502.0814 503.9137,-523.4517"/>
<polygon fill="#b83b5e" stroke="#b83b5e" points="502.3529,-526.5863 512.8178,-528.2402 505.6684,-520.4212 502.3529,-526.5863"/>
</g>
<!-- kTypeBeginPrepareXID -->
<g id="node5" class="node">
<title>kTypeBeginPrepareXID</title>
<polygon fill="none" stroke="#000000" points="669.5,-250.4366 520.5,-250.4366 520.5,-214.4366 669.5,-214.4366 669.5,-250.4366"/>
<text text-anchor="middle" x="595" y="-228.7366" font-family="Times,serif" font-size="14.00" fill="#000000">kTypeBeginPrepareXID</text>
</g>
<!-- MarkEndPrepare&#45;&gt;kTypeBeginPrepareXID -->
<g id="edge4" class="edge">
<title>MarkEndPrepare&#45;&gt;kTypeBeginPrepareXID</title>
<path fill="none" stroke="#b83b5e" d="M453.501,-381.3394C457.5566,-378.2885 461.4076,-374.994 465,-371.4366 502.152,-334.6459 463.4543,-295.8254 501,-259.4366 504.1548,-256.379 507.6322,-253.6636 511.3347,-251.2526"/>
<polygon fill="#b83b5e" stroke="#b83b5e" points="513.3554,-254.1307 520.3366,-246.1612 509.9093,-248.0378 513.3554,-254.1307"/>
</g>
<!-- kTypeEndPrepareXID -->
<g id="node6" class="node">
<title>kTypeEndPrepareXID</title>
<polygon fill="none" stroke="#000000" points="664,-304.4366 526,-304.4366 526,-268.4366 664,-268.4366 664,-304.4366"/>
<text text-anchor="middle" x="595" y="-282.7366" font-family="Times,serif" font-size="14.00" fill="#000000">kTypeEndPrepareXID</text>
</g>
<!-- MarkEndPrepare&#45;&gt;kTypeEndPrepareXID -->
<g id="edge5" class="edge">
<title>MarkEndPrepare&#45;&gt;kTypeEndPrepareXID</title>
<path fill="none" stroke="#b83b5e" d="M450.2205,-381.4282C455.3681,-378.3506 460.32,-375.0266 465,-371.4366 488.7739,-353.1997 477.1197,-332.5337 501,-314.4366 505.7818,-310.8128 511.0279,-307.6562 516.52,-304.9067"/>
<polygon fill="#b83b5e" stroke="#b83b5e" points="518.2781,-307.9534 525.9566,-300.6533 515.4016,-301.5717 518.2781,-307.9534"/>
</g>
<!-- PutLengthPrefixedSlice -->
<g id="node7" class="node">
<title>PutLengthPrefixedSlice</title>
<polygon fill="none" stroke="#000000" points="501,-323.4366 501,-369.4366 689,-369.4366 689,-323.4366 501,-323.4366"/>
<text text-anchor="middle" x="595" y="-354.2366" font-family="Times,serif" font-size="14.00" fill="#000000">PutLengthPrefixedSlice</text>
<polyline fill="none" stroke="#000000" points="501,-346.4366 689,-346.4366 "/>
<text text-anchor="middle" x="595" y="-331.2366" font-family="Times,serif" font-size="14.00" fill="#000000">向writeBatch的rep_中写入xid</text>
</g>
<!-- MarkEndPrepare&#45;&gt;PutLengthPrefixedSlice -->
<g id="edge6" class="edge">
<title>MarkEndPrepare&#45;&gt;PutLengthPrefixedSlice</title>
<path fill="none" stroke="#b83b5e" d="M458.9994,-381.333C471.3146,-378.1731 483.5673,-375.0291 495.3871,-371.9963"/>
<polygon fill="#b83b5e" stroke="#b83b5e" points="496.3896,-375.3525 505.2059,-369.4769 494.6498,-368.5722 496.3896,-375.3525"/>
</g>
<!-- content_flags_ -->
<g id="node8" class="node">
<title>content_flags_</title>
<polygon fill="#95e1d3" stroke="#000000" points="501.5,-388.9366 501.5,-449.9366 688.5,-449.9366 688.5,-388.9366 501.5,-388.9366"/>
<text text-anchor="middle" x="595" y="-434.7366" font-family="Times,serif" font-size="14.00" fill="#000000">content_flags_</text>
<polyline fill="none" stroke="#000000" points="501.5,-426.9366 688.5,-426.9366 "/>
<text text-anchor="start" x="509.5" y="-411.7366" font-family="Times,serif" font-size="14.00" fill="#000000">mutable std::atomic&lt;uint32_t&gt;</text>
<text text-anchor="middle" x="595" y="-396.7366" font-family="Times,serif" font-size="14.00" fill="#000000"> content_flags_;</text>
</g>
<!-- MarkEndPrepare&#45;&gt;content_flags_ -->
<g id="edge7" class="edge">
<title>MarkEndPrepare&#45;&gt;content_flags_</title>
<path fill="none" stroke="#b83b5e" d="M465.2381,-419.4366C473.9477,-419.4366 482.5943,-419.4366 491.046,-419.4366"/>
<polygon fill="#b83b5e" stroke="#b83b5e" points="491.2498,-422.9367 501.2498,-419.4366 491.2497,-415.9367 491.2498,-422.9367"/>
</g>
<!-- MarkCommit -->
<g id="node9" class="node">
<title>MarkCommit</title>
<polygon fill="none" stroke="#000000" points="356.5,-590.4366 264.5,-590.4366 264.5,-554.4366 356.5,-554.4366 356.5,-590.4366"/>
<text text-anchor="middle" x="310.5" y="-568.7366" font-family="Times,serif" font-size="14.00" fill="#000000">MarkCommit</text>
</g>
<!-- MarkCommit&#45;&gt;WAL_REP -->
<g id="edge8" class="edge">
<title>MarkCommit&#45;&gt;WAL_REP</title>
<path fill="none" stroke="#3f72af" d="M356.526,-572.4366C395.8742,-572.4366 453.7143,-572.4366 502.5765,-572.4366"/>
<polygon fill="#3f72af" stroke="#3f72af" points="502.857,-575.9367 512.857,-572.4366 502.8569,-568.9367 502.857,-575.9367"/>
</g>
<!-- MarkCommit&#45;&gt;PutLengthPrefixedSlice -->
<g id="edge9" class="edge">
<title>MarkCommit&#45;&gt;PutLengthPrefixedSlice</title>
<path fill="none" stroke="#3f72af" d="M349.2244,-554.365C383.7088,-536.5481 433.4508,-506.3628 465,-467.4366 491.6073,-434.6077 470.3718,-408.5501 501,-379.4366 502.4573,-378.0513 503.9761,-376.7238 505.5478,-375.4517"/>
<polygon fill="#3f72af" stroke="#3f72af" points="507.7117,-378.2072 513.8073,-369.5415 503.6381,-372.5145 507.7117,-378.2072"/>
</g>
<!-- MarkCommit&#45;&gt;content_flags_ -->
<g id="edge10" class="edge">
<title>MarkCommit&#45;&gt;content_flags_</title>
<path fill="none" stroke="#3f72af" d="M338.2424,-554.3884C374.7555,-531.0084 441.311,-489.6705 501,-459.4366 504.461,-457.6835 508.0168,-455.938 511.6261,-454.2115"/>
<polygon fill="#3f72af" stroke="#3f72af" points="513.1149,-457.3791 520.684,-449.9657 510.1438,-451.0409 513.1149,-457.3791"/>
</g>
<!-- kTypeCommitXID -->
<g id="node10" class="node">
<title>kTypeCommitXID</title>
<polygon fill="none" stroke="#000000" points="655.5,-730.4366 534.5,-730.4366 534.5,-694.4366 655.5,-694.4366 655.5,-730.4366"/>
<text text-anchor="middle" x="595" y="-708.7366" font-family="Times,serif" font-size="14.00" fill="#000000">kTypeCommitXID</text>
</g>
<!-- MarkCommit&#45;&gt;kTypeCommitXID -->
<g id="edge11" class="edge">
<title>MarkCommit&#45;&gt;kTypeCommitXID</title>
<path fill="none" stroke="#3f72af" d="M336.1766,-590.5781C371.7451,-615.0144 438.6881,-658.5355 501,-685.4366 508.4807,-688.6661 516.4599,-691.6336 524.4879,-694.3239"/>
<polygon fill="#3f72af" stroke="#3f72af" points="523.6829,-697.7414 534.2741,-697.4668 525.8234,-691.0766 523.6829,-697.7414"/>
</g>
<!-- MarkRollback -->
<g id="node11" class="node">
<title>MarkRollback</title>
<polygon fill="none" stroke="#000000" points="358,-362.4366 263,-362.4366 263,-326.4366 358,-326.4366 358,-362.4366"/>
<text text-anchor="middle" x="310.5" y="-340.7366" font-family="Times,serif" font-size="14.00" fill="#000000">MarkRollback</text>
</g>
<!-- MarkRollback&#45;&gt;PutLengthPrefixedSlice -->
<g id="edge12" class="edge">
<title>MarkRollback&#45;&gt;PutLengthPrefixedSlice</title>
<path fill="none" stroke="#17b978" d="M358.1189,-344.7713C394.2225,-345.0251 445.2103,-345.3836 490.6377,-345.7029"/>
<polygon fill="#17b978" stroke="#17b978" points="490.8161,-349.2042 500.8405,-345.7746 490.8654,-342.2043 490.8161,-349.2042"/>
</g>
<!-- MarkRollback&#45;&gt;content_flags_ -->
<g id="edge13" class="edge">
<title>MarkRollback&#45;&gt;content_flags_</title>
<path fill="none" stroke="#17b978" d="M358.2908,-350.9802C389.0512,-355.7102 429.7288,-362.9365 465,-372.4366 478.8388,-376.164 493.2954,-380.71 507.3285,-385.4898"/>
<polygon fill="#17b978" stroke="#17b978" points="506.3685,-388.8613 516.9633,-388.8292 508.6609,-382.2473 506.3685,-388.8613"/>
</g>
<!-- kTypeRollbackXID -->
<g id="node12" class="node">
<title>kTypeRollbackXID</title>
<polygon fill="none" stroke="#000000" points="657,-196.4366 533,-196.4366 533,-160.4366 657,-160.4366 657,-196.4366"/>
<text text-anchor="middle" x="595" y="-174.7366" font-family="Times,serif" font-size="14.00" fill="#000000">kTypeRollbackXID</text>
</g>
<!-- MarkRollback&#45;&gt;kTypeRollbackXID -->
<g id="edge14" class="edge">
<title>MarkRollback&#45;&gt;kTypeRollbackXID</title>
<path fill="none" stroke="#17b978" d="M330.3642,-326.2115C363.4031,-296.8033 432.782,-238.8138 501,-205.4366 507.9705,-202.0261 515.4481,-198.9728 523.0296,-196.2579"/>
<polygon fill="#17b978" stroke="#17b978" points="524.3083,-199.5202 532.658,-192.9985 522.0638,-192.8898 524.3083,-199.5202"/>
</g>
<!-- AddPrepared -->
<g id="node13" class="node">
<title>AddPrepared</title>
<polygon fill="none" stroke="#000000" points="1316,-820.4366 1228,-820.4366 1228,-784.4366 1316,-784.4366 1316,-820.4366"/>
<text text-anchor="middle" x="1272" y="-798.7366" font-family="Times,serif" font-size="14.00" fill="#000000">AddPrepared</text>
</g>
<!-- prepared_txns_ -->
<g id="node14" class="node">
<title>prepared_txns_</title>
<polygon fill="#95e1d3" stroke="#000000" points="1396.5,-729.4366 1396.5,-765.4366 1496.5,-765.4366 1496.5,-729.4366 1396.5,-729.4366"/>
<text text-anchor="middle" x="1446.5" y="-743.7366" font-family="Times,serif" font-size="14.00" fill="#000000">prepared_txns_</text>
</g>
<!-- AddPrepared&#45;&gt;prepared_txns_ -->
<g id="edge15" class="edge">
<title>AddPrepared&#45;&gt;prepared_txns_</title>
<path fill="none" stroke="#666666" d="M1316.0337,-788.5577C1337.4131,-781.8193 1363.424,-773.621 1386.5786,-766.323"/>
<polygon fill="#666666" stroke="#666666" points="1387.82,-769.6015 1396.3053,-763.2572 1385.7157,-762.9253 1387.82,-769.6015"/>
</g>
<!-- CheckPreparedAgainstMax -->
<g id="node15" class="node">
<title>CheckPreparedAgainstMax</title>
<polygon fill="none" stroke="#000000" points="1530,-820.4366 1363,-820.4366 1363,-784.4366 1530,-784.4366 1530,-820.4366"/>
<text text-anchor="middle" x="1446.5" y="-798.7366" font-family="Times,serif" font-size="14.00" fill="#000000">CheckPreparedAgainstMax</text>
</g>
<!-- AddPrepared&#45;&gt;CheckPreparedAgainstMax -->
<g id="edge16" class="edge">
<title>AddPrepared&#45;&gt;CheckPreparedAgainstMax</title>
<path fill="none" stroke="#666666" d="M1316.0337,-802.4366C1327.2669,-802.4366 1339.7787,-802.4366 1352.4829,-802.4366"/>
<polygon fill="#666666" stroke="#666666" points="1352.6921,-805.9367 1362.692,-802.4366 1352.692,-798.9367 1352.6921,-805.9367"/>
</g>
<!-- AddCommitted -->
<g id="node16" class="node">
<title>AddCommitted</title>
<polygon fill="none" stroke="#000000" points="1323,-928.4366 1221,-928.4366 1221,-892.4366 1323,-892.4366 1323,-928.4366"/>
<text text-anchor="middle" x="1272" y="-906.7366" font-family="Times,serif" font-size="14.00" fill="#000000">AddCommitted</text>
</g>
<!-- AddCommitted&#45;&gt;AddCommitted -->
<g id="edge17" class="edge">
<title>AddCommitted&#45;&gt;AddCommitted</title>
<path fill="none" stroke="#666666" d="M1240.522,-928.5893C1235.6792,-937.9756 1246.1719,-946.4366 1272,-946.4366 1287.739,-946.4366 1297.7834,-943.2947 1302.1331,-938.7161"/>
<polygon fill="#666666" stroke="#666666" points="1305.631,-938.963 1303.478,-928.5893 1298.6919,-938.0414 1305.631,-938.963"/>
</g>
<!-- CheckAgainstSnapshots -->
<g id="node17" class="node">
<title>CheckAgainstSnapshots</title>
<polygon fill="none" stroke="#000000" points="1520.5,-928.4366 1372.5,-928.4366 1372.5,-892.4366 1520.5,-892.4366 1520.5,-928.4366"/>
<text text-anchor="middle" x="1446.5" y="-906.7366" font-family="Times,serif" font-size="14.00" fill="#000000">CheckAgainstSnapshots</text>
</g>
<!-- AddCommitted&#45;&gt;CheckAgainstSnapshots -->
<g id="edge18" class="edge">
<title>AddCommitted&#45;&gt;CheckAgainstSnapshots</title>
<path fill="none" stroke="#666666" d="M1323.4119,-910.4366C1335.5891,-910.4366 1348.8935,-910.4366 1362.1102,-910.4366"/>
<polygon fill="#666666" stroke="#666666" points="1362.18,-913.9367 1372.18,-910.4366 1362.18,-906.9367 1362.18,-913.9367"/>
</g>
<!-- AdvanceMaxEvictedSeq -->
<g id="node18" class="node">
<title>AdvanceMaxEvictedSeq</title>
<polygon fill="none" stroke="#000000" points="1522.5,-982.4366 1370.5,-982.4366 1370.5,-946.4366 1522.5,-946.4366 1522.5,-982.4366"/>
<text text-anchor="middle" x="1446.5" y="-960.7366" font-family="Times,serif" font-size="14.00" fill="#000000">AdvanceMaxEvictedSeq</text>
</g>
<!-- AddCommitted&#45;&gt;AdvanceMaxEvictedSeq -->
<g id="edge19" class="edge">
<title>AddCommitted&#45;&gt;AdvanceMaxEvictedSeq</title>
<path fill="none" stroke="#666666" d="M1323.4119,-926.3463C1340.626,-931.6733 1360.0927,-937.6973 1378.3801,-943.3565"/>
<polygon fill="#666666" stroke="#666666" points="1377.5181,-946.7534 1388.1059,-946.3662 1379.5876,-940.0663 1377.5181,-946.7534"/>
</g>
<!-- MaybeUpdateOldCommitMap -->
<g id="node21" class="node">
<title>MaybeUpdateOldCommitMap</title>
<polygon fill="none" stroke="#000000" points="1751,-928.4366 1566,-928.4366 1566,-892.4366 1751,-892.4366 1751,-928.4366"/>
<text text-anchor="middle" x="1658.5" y="-906.7366" font-family="Times,serif" font-size="14.00" fill="#000000">MaybeUpdateOldCommitMap</text>
</g>
<!-- CheckAgainstSnapshots&#45;&gt;MaybeUpdateOldCommitMap -->
<g id="edge21" class="edge">
<title>CheckAgainstSnapshots&#45;&gt;MaybeUpdateOldCommitMap</title>
<path fill="none" stroke="#666666" d="M1520.6473,-910.4366C1531.9142,-910.4366 1543.7103,-910.4366 1555.458,-910.4366"/>
<polygon fill="#666666" stroke="#666666" points="1555.7547,-913.9367 1565.7547,-910.4366 1555.7546,-906.9367 1555.7547,-913.9367"/>
</g>
<!-- RemovePrepared -->
<g id="node19" class="node">
<title>RemovePrepared</title>
<polygon fill="none" stroke="#000000" points="1327,-874.4366 1217,-874.4366 1217,-838.4366 1327,-838.4366 1327,-874.4366"/>
<text text-anchor="middle" x="1272" y="-852.7366" font-family="Times,serif" font-size="14.00" fill="#000000">RemovePrepared</text>
</g>
<!-- delayed_prepared_empty_ -->
<g id="node20" class="node">
<title>delayed_prepared_empty_</title>
<polygon fill="none" stroke="#000000" points="1527,-874.4366 1366,-874.4366 1366,-838.4366 1527,-838.4366 1527,-874.4366"/>
<text text-anchor="middle" x="1446.5" y="-852.7366" font-family="Times,serif" font-size="14.00" fill="#000000">delayed_prepared_empty_</text>
</g>
<!-- RemovePrepared&#45;&gt;delayed_prepared_empty_ -->
<g id="edge20" class="edge">
<title>RemovePrepared&#45;&gt;delayed_prepared_empty_</title>
<path fill="none" stroke="#666666" d="M1327.2129,-856.4366C1336.3281,-856.4366 1345.985,-856.4366 1355.7007,-856.4366"/>
<polygon fill="#666666" stroke="#666666" points="1355.8266,-859.9367 1365.8265,-856.4366 1355.8265,-852.9367 1355.8266,-859.9367"/>
</g>
<!-- PrepareInternal -->
<g id="node22" class="node">
<title>PrepareInternal</title>
<polygon fill="none" stroke="#000000" points="118,-820.4366 18,-820.4366 18,-784.4366 118,-784.4366 118,-820.4366"/>
<text text-anchor="middle" x="68" y="-798.7366" font-family="Times,serif" font-size="14.00" fill="#000000">PrepareInternal</text>
</g>
<!-- PrepareInternal&#45;&gt;WriteImpl_Prepare -->
<g id="edge22" class="edge">
<title>PrepareInternal&#45;&gt;WriteImpl_Prepare</title>
<path fill="none" stroke="#666666" d="M68.7187,-784.1176C72.9929,-679.8374 96.6428,-164.1372 148,-118.4366 330.2802,43.7668 507.1342,34.818 697,-118.4366 764.1526,-172.6403 787.5216,-453.5976 793.3774,-544.224"/>
<polygon fill="#666666" stroke="#666666" points="789.8903,-544.5419 794.0065,-554.3044 796.8767,-544.1058 789.8903,-544.5419"/>
</g>
<!-- PrepareInternal&#45;&gt;MarkEndPrepare -->
<g id="edge23" class="edge">
<title>PrepareInternal&#45;&gt;MarkEndPrepare</title>
<path fill="none" stroke="#666666" d="M69.8746,-784.3021C75.2156,-739.8823 93.7954,-623.5707 148,-545.4366 170.6919,-512.727 204.4493,-484.6055 235.3259,-463.2816"/>
<polygon fill="#666666" stroke="#666666" points="237.6254,-465.9517 243.9467,-457.4493 233.7029,-460.1539 237.6254,-465.9517"/>
</g>
<!-- PrepareInternal&#45;&gt;AddPreparedCallback -->
<g id="edge24" class="edge">
<title>PrepareInternal&#45;&gt;AddPreparedCallback</title>
<path fill="none" stroke="#666666" stroke-dasharray="5,2" d="M118.2638,-802.4366C277.3033,-802.4366 770.3693,-802.4366 962.8778,-802.4366"/>
<polygon fill="#666666" stroke="#666666" points="962.919,-805.9367 972.919,-802.4366 962.9189,-798.9367 962.919,-805.9367"/>
</g>
<!-- AddPreparedCallback&#45;&gt;AddPrepared -->
<g id="edge26" class="edge">
<title>AddPreparedCallback&#45;&gt;AddPrepared</title>
<path fill="none" stroke="#666666" d="M1109.0582,-802.4366C1143.6436,-802.4366 1185.098,-802.4366 1217.5385,-802.4366"/>
<polygon fill="#666666" stroke="#666666" points="1217.7342,-805.9367 1227.7342,-802.4366 1217.7342,-798.9367 1217.7342,-805.9367"/>
</g>
<!-- AddPreparedCallback&#45;&gt;prepared_txns_ -->
<g id="edge27" class="edge">
<title>AddPreparedCallback&#45;&gt;prepared_txns_</title>
<path fill="none" stroke="#666666" d="M1109.1554,-790.8168C1139.6541,-785.7891 1176.084,-780.0199 1209,-775.4366 1269.1474,-767.0615 1338.0952,-759.1162 1386.152,-753.8435"/>
<polygon fill="#666666" stroke="#666666" points="1386.8202,-757.2915 1396.3814,-752.727 1386.0606,-750.3328 1386.8202,-757.2915"/>
</g>
<!-- CommitInternal -->
<g id="node24" class="node">
<title>CommitInternal</title>
<polygon fill="none" stroke="#000000" points="120,-874.4366 16,-874.4366 16,-838.4366 120,-838.4366 120,-874.4366"/>
<text text-anchor="middle" x="68" y="-852.7366" font-family="Times,serif" font-size="14.00" fill="#000000">CommitInternal</text>
</g>
<!-- CommitInternal&#45;&gt;WriteImpl_Commited -->
<g id="edge29" class="edge">
<title>CommitInternal&#45;&gt;WriteImpl_Commited</title>
<path fill="none" stroke="#666666" stroke-dasharray="5,2" d="M112.3899,-838.1403C115.3212,-835.5864 117.9255,-832.6982 120,-829.4366 160.6425,-765.5358 93.3615,-200.8747 148,-148.4366 236.0212,-63.9601 608.8428,-64.1021 697,-148.4366 733.2459,-183.1107 687.0069,-559.2312 717,-599.4366 717.4659,-600.0611 717.9472,-600.6713 718.4431,-601.2675"/>
<polygon fill="#666666" stroke="#666666" points="716.0253,-603.7984 725.6374,-608.2546 720.9022,-598.7768 716.0253,-603.7984"/>
</g>
<!-- CommitInternal&#45;&gt;MarkCommit -->
<g id="edge28" class="edge">
<title>CommitInternal&#45;&gt;MarkCommit</title>
<path fill="none" stroke="#666666" d="M109.222,-838.3158C113.1175,-835.6656 116.7995,-832.7092 120,-829.4366 139.7341,-809.2572 132.7818,-796.2073 148,-772.4366 190.8336,-705.5308 252.4288,-635.2157 286.1499,-598.4111"/>
<polygon fill="#666666" stroke="#666666" points="289.0983,-600.3765 293.3023,-590.6515 283.9512,-595.6322 289.0983,-600.3765"/>
</g>
<!-- CommitInternal&#45;&gt;AddPreparedCallback -->
<g id="edge30" class="edge">
<title>CommitInternal&#45;&gt;AddPreparedCallback</title>
<path fill="none" stroke="#666666" stroke-dasharray="5,2" d="M120.3127,-853.5333C281.4403,-844.591 770.8553,-817.4292 962.6819,-806.7831"/>
<polygon fill="#666666" stroke="#666666" points="962.8987,-810.2765 972.6894,-806.2277 962.5108,-803.2873 962.8987,-810.2765"/>
</g>
<!-- CommitInternal&#45;&gt;WritePreparedCommitEntryPreReleaseCallback -->
<g id="edge31" class="edge">
<title>CommitInternal&#45;&gt;WritePreparedCommitEntryPreReleaseCallback</title>
<path fill="none" stroke="#666666" stroke-dasharray="5,2" d="M120.3127,-856.4366C263.9579,-856.4366 668.5169,-856.4366 890.5319,-856.4366"/>
<polygon fill="#666666" stroke="#666666" points="890.6377,-859.9367 900.6376,-856.4366 890.6376,-852.9367 890.6377,-859.9367"/>
</g>
<!-- WritePreparedCommitEntryPreReleaseCallback&#45;&gt;AddCommitted -->
<g id="edge34" class="edge">
<title>WritePreparedCommitEntryPreReleaseCallback&#45;&gt;AddCommitted</title>
<path fill="none" stroke="#666666" d="M1118.2408,-874.4929C1148.3935,-881.5415 1182.4681,-889.507 1210.8634,-896.1449"/>
<polygon fill="#666666" stroke="#666666" points="1210.1204,-899.5655 1220.6546,-898.4338 1211.7139,-892.7493 1210.1204,-899.5655"/>
</g>
<!-- WritePreparedCommitEntryPreReleaseCallback&#45;&gt;RemovePrepared -->
<g id="edge35" class="edge">
<title>WritePreparedCommitEntryPreReleaseCallback&#45;&gt;RemovePrepared</title>
<path fill="none" stroke="#666666" d="M1181.0343,-856.4366C1189.8944,-856.4366 1198.5526,-856.4366 1206.7871,-856.4366"/>
<polygon fill="#666666" stroke="#666666" points="1206.9741,-859.9367 1216.9741,-856.4366 1206.9741,-852.9367 1206.9741,-859.9367"/>
</g>
</g>
</svg>
