<?xml version="1.0" encoding="UTF-8" standalone="no"?>
<!DOCTYPE svg PUBLIC "-//W3C//DTD SVG 1.1//EN"
 "http://www.w3.org/Graphics/SVG/1.1/DTD/svg11.dtd">
<!-- Generated by graphviz version 2.49.3 (20211023.0002)
 -->
<!-- Title: dig Pages: 1 -->
<svg width="1987pt" height="520pt"
 viewBox="0.00 0.00 1987.00 519.84" xmlns="http://www.w3.org/2000/svg" xmlns:xlink="http://www.w3.org/1999/xlink">
<g id="graph0" class="graph" transform="scale(1 1) rotate(0) translate(4 515.84)">
<title>dig</title>
<polygon fill="white" stroke="transparent" points="-4,4 -4,-515.84 1983,-515.84 1983,4 -4,4"/>
<!-- kpu_task_t -->
<g id="node1" class="node">
<title>kpu_task_t</title>
<path fill="none" stroke="#1c2123" d="M81,-166.23C81,-166.23 27,-166.23 27,-166.23 21,-166.23 15,-160.23 15,-154.23 15,-154.23 15,-142.23 15,-142.23 15,-136.23 21,-130.23 27,-130.23 27,-130.23 81,-130.23 81,-130.23 87,-130.23 93,-136.23 93,-142.23 93,-142.23 93,-154.23 93,-154.23 93,-160.23 87,-166.23 81,-166.23"/>
<text text-anchor="middle" x="54" y="-144.53" font-family="Times,serif" font-size="14.00" fill="#2f3638">kpu_task_t</text>
</g>
<!-- kpu_task_init -->
<g id="node2" class="node">
<title>kpu_task_init</title>
<path fill="none" stroke="#1c2123" d="M281.5,-405.23C281.5,-405.23 212.5,-405.23 212.5,-405.23 206.5,-405.23 200.5,-399.23 200.5,-393.23 200.5,-393.23 200.5,-381.23 200.5,-381.23 200.5,-375.23 206.5,-369.23 212.5,-369.23 212.5,-369.23 281.5,-369.23 281.5,-369.23 287.5,-369.23 293.5,-375.23 293.5,-381.23 293.5,-381.23 293.5,-393.23 293.5,-393.23 293.5,-399.23 287.5,-405.23 281.5,-405.23"/>
<text text-anchor="middle" x="247" y="-383.53" font-family="Times,serif" font-size="14.00" fill="#2f3638">kpu_task_init</text>
</g>
<!-- kpu_task_t&#45;&gt;kpu_task_init -->
<g id="edge1" class="edge">
<title>kpu_task_t&#45;&gt;kpu_task_init</title>
<path fill="none" stroke="#666666" d="M57.22,-166.4C63.23,-207.41 83.62,-307.7 144,-360.23 156.87,-371.43 173.89,-378.06 190.32,-381.95"/>
<polygon fill="#666666" stroke="#666666" points="189.94,-385.45 200.44,-384.04 191.35,-378.59 189.94,-385.45"/>
</g>
<!-- kpu_run -->
<g id="node3" class="node">
<title>kpu_run</title>
<path fill="#a2dbfa" stroke="#8a8898" d="M156,-212.23C156,-212.23 338,-212.23 338,-212.23 344,-212.23 350,-218.23 350,-224.23 350,-224.23 350,-338.23 350,-338.23 350,-344.23 344,-350.23 338,-350.23 338,-350.23 156,-350.23 156,-350.23 150,-350.23 144,-344.23 144,-338.23 144,-338.23 144,-224.23 144,-224.23 144,-218.23 150,-212.23 156,-212.23"/>
<text text-anchor="start" x="152" y="-335.03" font-family="Times,serif" font-size="14.00" fill="#5d6179">kpu_run</text>
<polyline fill="none" stroke="#8a8898" points="144,-327.23 350,-327.23 "/>
<text text-anchor="start" x="152" y="-312.03" font-family="Times,serif" font-size="14.00" fill="#5d6179">Kpu run for ai</text>
<polyline fill="none" stroke="#8a8898" points="144,-304.23 350,-304.23 "/>
<text text-anchor="start" x="152" y="-289.03" font-family="Times,serif" font-size="14.00" fill="#5d6179">dmac_channel_number_t dma_ch</text>
<polyline fill="none" stroke="#8a8898" points="144,-281.23 350,-281.23 "/>
<text text-anchor="start" x="152" y="-266.03" font-family="Times,serif" font-size="14.00" fill="#5d6179">const void * src</text>
<polyline fill="none" stroke="#8a8898" points="144,-258.23 350,-258.23 "/>
<text text-anchor="start" x="152" y="-243.03" font-family="Times,serif" font-size="14.00" fill="#5d6179">const void * dest</text>
<polyline fill="none" stroke="#8a8898" points="144,-235.23 350,-235.23 "/>
<text text-anchor="start" x="152" y="-220.03" font-family="Times,serif" font-size="14.00" fill="#5d6179">plic_irq_callback_t callbac</text>
</g>
<!-- kpu_task_t&#45;&gt;kpu_run -->
<g id="edge2" class="edge">
<title>kpu_task_t&#45;&gt;kpu_run</title>
<path fill="none" stroke="#666666" d="M81.16,-166.45C96.56,-177.17 117.18,-191.53 138.61,-206.45"/>
<polygon fill="#666666" stroke="#666666" points="136.65,-209.35 146.86,-212.19 140.65,-203.61 136.65,-209.35"/>
</g>
<!-- kpu_get_output_buf -->
<g id="node4" class="node">
<title>kpu_get_output_buf</title>
<path fill="none" stroke="#1c2123" d="M300,-193.23C300,-193.23 194,-193.23 194,-193.23 188,-193.23 182,-187.23 182,-181.23 182,-181.23 182,-169.23 182,-169.23 182,-163.23 188,-157.23 194,-157.23 194,-157.23 300,-157.23 300,-157.23 306,-157.23 312,-163.23 312,-169.23 312,-169.23 312,-181.23 312,-181.23 312,-187.23 306,-193.23 300,-193.23"/>
<text text-anchor="middle" x="247" y="-171.53" font-family="Times,serif" font-size="14.00" fill="#2f3638">kpu_get_output_buf</text>
</g>
<!-- kpu_task_t&#45;&gt;kpu_get_output_buf -->
<g id="edge3" class="edge">
<title>kpu_task_t&#45;&gt;kpu_get_output_buf</title>
<path fill="none" stroke="#666666" d="M93.19,-153.63C115.68,-156.81 144.91,-160.94 171.76,-164.74"/>
<polygon fill="#666666" stroke="#666666" points="171.53,-168.24 181.92,-166.17 172.51,-161.31 171.53,-168.24"/>
</g>
<!-- kpu_release_output_buf -->
<g id="node5" class="node">
<title>kpu_release_output_buf</title>
<path fill="none" stroke="#1c2123" d="M311,-139.23C311,-139.23 183,-139.23 183,-139.23 177,-139.23 171,-133.23 171,-127.23 171,-127.23 171,-115.23 171,-115.23 171,-109.23 177,-103.23 183,-103.23 183,-103.23 311,-103.23 311,-103.23 317,-103.23 323,-109.23 323,-115.23 323,-115.23 323,-127.23 323,-127.23 323,-133.23 317,-139.23 311,-139.23"/>
<text text-anchor="middle" x="247" y="-117.53" font-family="Times,serif" font-size="14.00" fill="#2f3638">kpu_release_output_buf</text>
</g>
<!-- kpu_task_t&#45;&gt;kpu_release_output_buf -->
<g id="edge4" class="edge">
<title>kpu_task_t&#45;&gt;kpu_release_output_buf</title>
<path fill="none" stroke="#666666" d="M93.19,-142.83C112.62,-140.09 137.08,-136.63 160.7,-133.29"/>
<polygon fill="#666666" stroke="#666666" points="161.34,-136.73 170.75,-131.87 160.36,-129.8 161.34,-136.73"/>
</g>
<!-- kpu_layer_argument_t -->
<g id="node6" class="node">
<title>kpu_layer_argument_t</title>
<path fill="none" stroke="#1c2123" d="M306.5,-85.23C306.5,-85.23 187.5,-85.23 187.5,-85.23 181.5,-85.23 175.5,-79.23 175.5,-73.23 175.5,-73.23 175.5,-61.23 175.5,-61.23 175.5,-55.23 181.5,-49.23 187.5,-49.23 187.5,-49.23 306.5,-49.23 306.5,-49.23 312.5,-49.23 318.5,-55.23 318.5,-61.23 318.5,-61.23 318.5,-73.23 318.5,-73.23 318.5,-79.23 312.5,-85.23 306.5,-85.23"/>
<text text-anchor="middle" x="247" y="-63.53" font-family="Times,serif" font-size="14.00" fill="#2f3638">kpu_layer_argument_t</text>
</g>
<!-- kpu_task_t&#45;&gt;kpu_layer_argument_t -->
<g id="edge5" class="edge">
<title>kpu_task_t&#45;&gt;kpu_layer_argument_t</title>
<path fill="none" stroke="#666666" d="M80.42,-130.1C97.68,-118.49 121.38,-103.85 144,-94.23 150.92,-91.29 158.23,-88.6 165.65,-86.15"/>
<polygon fill="#666666" stroke="#666666" points="166.94,-89.42 175.43,-83.08 164.84,-82.74 166.94,-89.42"/>
</g>
<!-- plic_irq_callback_t -->
<g id="node7" class="node">
<title>plic_irq_callback_t</title>
<path fill="none" stroke="#1c2123" d="M1725,-55.23C1725,-55.23 1967,-55.23 1967,-55.23 1973,-55.23 1979,-61.23 1979,-67.23 1979,-67.23 1979,-81.23 1979,-81.23 1979,-87.23 1973,-93.23 1967,-93.23 1967,-93.23 1725,-93.23 1725,-93.23 1719,-93.23 1713,-87.23 1713,-81.23 1713,-81.23 1713,-67.23 1713,-67.23 1713,-61.23 1719,-55.23 1725,-55.23"/>
<text text-anchor="start" x="1721" y="-78.03" font-family="Times,serif" font-size="14.00" fill="#2f3638">plic_irq_callback_t</text>
<text text-anchor="start" x="1721" y="-63.03" font-family="Times,serif" font-size="14.00" fill="#2f3638"> typedef int(*plic_irq_callback_t)(void *ctx)</text>
</g>
<!-- kpu_task_t&#45;&gt;plic_irq_callback_t -->
<g id="edge6" class="edge">
<title>kpu_task_t&#45;&gt;plic_irq_callback_t</title>
<path fill="none" stroke="#666666" d="M64.11,-129.91C77.69,-104.79 105.79,-60.5 144,-40.23 269.8,26.49 320.6,-10.23 463,-10.23 463,-10.23 463,-10.23 1402,-10.23 1524.51,-10.23 1556.16,-9.07 1677,-29.23 1709.65,-34.68 1745.13,-43.71 1775.05,-52.26"/>
<polygon fill="#666666" stroke="#666666" points="1774.39,-55.71 1784.96,-55.13 1776.33,-48.99 1774.39,-55.71"/>
</g>
<!-- plic_irq_enable -->
<g id="node8" class="node">
<title>plic_irq_enable</title>
<path fill="none" stroke="#1c2123" d="M867,-413.23C867,-413.23 787,-413.23 787,-413.23 781,-413.23 775,-407.23 775,-401.23 775,-401.23 775,-389.23 775,-389.23 775,-383.23 781,-377.23 787,-377.23 787,-377.23 867,-377.23 867,-377.23 873,-377.23 879,-383.23 879,-389.23 879,-389.23 879,-401.23 879,-401.23 879,-407.23 873,-413.23 867,-413.23"/>
<text text-anchor="middle" x="827" y="-391.53" font-family="Times,serif" font-size="14.00" fill="#2f3638">plic_irq_enable</text>
</g>
<!-- kpu_run&#45;&gt;plic_irq_enable -->
<g id="edge7" class="edge">
<title>kpu_run&#45;&gt;plic_irq_enable</title>
<path fill="none" stroke="#666666" d="M350.27,-308.88C362.28,-311.84 374.39,-314.69 386,-317.23 520.37,-346.62 679.66,-372.71 764.9,-385.98"/>
<polygon fill="#666666" stroke="#666666" points="764.51,-389.46 774.93,-387.53 765.58,-382.54 764.51,-389.46"/>
</g>
<!-- plic_set_priority -->
<g id="node9" class="node">
<title>plic_set_priority</title>
<path fill="none" stroke="#1c2123" d="M869.5,-359.23C869.5,-359.23 784.5,-359.23 784.5,-359.23 778.5,-359.23 772.5,-353.23 772.5,-347.23 772.5,-347.23 772.5,-335.23 772.5,-335.23 772.5,-329.23 778.5,-323.23 784.5,-323.23 784.5,-323.23 869.5,-323.23 869.5,-323.23 875.5,-323.23 881.5,-329.23 881.5,-335.23 881.5,-335.23 881.5,-347.23 881.5,-347.23 881.5,-353.23 875.5,-359.23 869.5,-359.23"/>
<text text-anchor="middle" x="827" y="-337.53" font-family="Times,serif" font-size="14.00" fill="#2f3638">plic_set_priority</text>
</g>
<!-- kpu_run&#45;&gt;plic_set_priority -->
<g id="edge8" class="edge">
<title>kpu_run&#45;&gt;plic_set_priority</title>
<path fill="none" stroke="#666666" d="M350,-291.82C469.1,-304.18 662.46,-324.26 762.11,-334.6"/>
<polygon fill="#666666" stroke="#666666" points="762.03,-338.11 772.34,-335.66 762.75,-331.15 762.03,-338.11"/>
</g>
<!-- plic_irq_register -->
<g id="node10" class="node">
<title>plic_irq_register</title>
<path fill="none" stroke="#1c2123" d="M774.5,-258.23C774.5,-258.23 879.5,-258.23 879.5,-258.23 885.5,-258.23 891.5,-264.23 891.5,-270.23 891.5,-270.23 891.5,-292.23 891.5,-292.23 891.5,-298.23 885.5,-304.23 879.5,-304.23 879.5,-304.23 774.5,-304.23 774.5,-304.23 768.5,-304.23 762.5,-298.23 762.5,-292.23 762.5,-292.23 762.5,-270.23 762.5,-270.23 762.5,-264.23 768.5,-258.23 774.5,-258.23"/>
<text text-anchor="start" x="770.5" y="-289.03" font-family="Times,serif" font-size="14.00" fill="#2f3638">plic_irq_register</text>
<polyline fill="none" stroke="#1c2123" points="762.5,-281.23 891.5,-281.23 "/>
<text text-anchor="start" x="770.5" y="-266.03" font-family="Times,serif" font-size="14.00" fill="#2f3638">注册中断回调函数</text>
</g>
<!-- kpu_run&#45;&gt;plic_irq_register -->
<g id="edge9" class="edge">
<title>kpu_run&#45;&gt;plic_irq_register</title>
<path fill="none" stroke="#666666" d="M350,-281.23C465.15,-281.23 649.71,-281.23 751.89,-281.23"/>
<polygon fill="#666666" stroke="#666666" points="752.12,-284.73 762.12,-281.23 752.12,-277.73 752.12,-284.73"/>
</g>
<!-- kpu_run_dma_input -->
<g id="node11" class="node">
<title>kpu_run_dma_input</title>
<path fill="none" stroke="#1c2123" d="M517,-250.23C517,-250.23 411,-250.23 411,-250.23 405,-250.23 399,-244.23 399,-238.23 399,-238.23 399,-226.23 399,-226.23 399,-220.23 405,-214.23 411,-214.23 411,-214.23 517,-214.23 517,-214.23 523,-214.23 529,-220.23 529,-226.23 529,-226.23 529,-238.23 529,-238.23 529,-244.23 523,-250.23 517,-250.23"/>
<text text-anchor="middle" x="464" y="-228.53" font-family="Times,serif" font-size="14.00" fill="#2f3638">kpu_run_dma_input</text>
</g>
<!-- kpu_run&#45;&gt;kpu_run_dma_input -->
<g id="edge10" class="edge">
<title>kpu_run&#45;&gt;kpu_run_dma_input</title>
<path fill="none" stroke="#666666" d="M350.15,-257.95C363.23,-254.97 376.41,-251.97 388.93,-249.11"/>
<polygon fill="#666666" stroke="#666666" points="389.84,-252.5 398.81,-246.86 388.28,-245.67 389.84,-252.5"/>
</g>
<!-- IRQN_AI_INTERRUPT -->
<g id="node12" class="node">
<title>IRQN_AI_INTERRUPT</title>
<path fill="none" stroke="#1c2123" d="M530,-196.23C530,-196.23 398,-196.23 398,-196.23 392,-196.23 386,-190.23 386,-184.23 386,-184.23 386,-172.23 386,-172.23 386,-166.23 392,-160.23 398,-160.23 398,-160.23 530,-160.23 530,-160.23 536,-160.23 542,-166.23 542,-172.23 542,-172.23 542,-184.23 542,-184.23 542,-190.23 536,-196.23 530,-196.23"/>
<text text-anchor="middle" x="464" y="-174.53" font-family="Times,serif" font-size="14.00" fill="#2f3638">IRQN_AI_INTERRUPT</text>
</g>
<!-- kpu_run&#45;&gt;IRQN_AI_INTERRUPT -->
<g id="edge11" class="edge">
<title>kpu_run&#45;&gt;IRQN_AI_INTERRUPT</title>
<path fill="none" stroke="#666666" d="M350.29,-222.47C362.19,-216.36 374.26,-210.48 386,-205.23 390.04,-203.43 394.24,-201.66 398.49,-199.95"/>
<polygon fill="#666666" stroke="#666666" points="399.83,-203.19 407.88,-196.3 397.29,-196.66 399.83,-203.19"/>
</g>
<!-- task__cb -->
<g id="node23" class="node">
<title>task__cb</title>
<path fill="#bcffb9" stroke="#8a8898" d="M1539.5,-207.73C1539.5,-207.73 1648.5,-207.73 1648.5,-207.73 1654.5,-207.73 1660.5,-213.73 1660.5,-219.73 1660.5,-219.73 1660.5,-286.73 1660.5,-286.73 1660.5,-292.73 1654.5,-298.73 1648.5,-298.73 1648.5,-298.73 1539.5,-298.73 1539.5,-298.73 1533.5,-298.73 1527.5,-292.73 1527.5,-286.73 1527.5,-286.73 1527.5,-219.73 1527.5,-219.73 1527.5,-213.73 1533.5,-207.73 1539.5,-207.73"/>
<text text-anchor="start" x="1535.5" y="-283.53" font-family="Times,serif" font-size="14.00" fill="#5d6179">task__cb</text>
<polyline fill="none" stroke="#8a8898" points="1527.5,-275.73 1660.5,-275.73 "/>
<text text-anchor="start" x="1535.5" y="-260.53" font-family="Times,serif" font-size="14.00" fill="#5d6179">在kpu_run时候设置</text>
<text text-anchor="start" x="1535.5" y="-245.53" font-family="Times,serif" font-size="14.00" fill="#5d6179"> task的cb</text>
<text text-anchor="start" x="1535.5" y="-230.53" font-family="Times,serif" font-size="14.00" fill="#5d6179"> 执行结束后</text>
<text text-anchor="start" x="1535.5" y="-215.53" font-family="Times,serif" font-size="14.00" fill="#5d6179"> 调用该cb</text>
</g>
<!-- kpu_run&#45;&gt;task__cb -->
<g id="edge27" class="edge">
<title>kpu_run&#45;&gt;task__cb</title>
<path fill="none" stroke="#666666" d="M342.38,-350.26C345.09,-353.5 347.64,-356.83 350,-360.23 380.76,-404.59 343.85,-442.51 386,-476.23 468.86,-542.52 517.89,-495.23 624,-495.23 624,-495.23 624,-495.23 1137.5,-495.23 1297.99,-495.23 1457.01,-376.63 1537.96,-305.48"/>
<polygon fill="#666666" stroke="#666666" points="1540.39,-308 1545.55,-298.75 1535.75,-302.77 1540.39,-308"/>
</g>
<!-- current_coreid； -->
<g id="node13" class="node">
<title>current_coreid；</title>
<path fill="none" stroke="#1c2123" d="M1180.5,-262.23C1180.5,-262.23 1092.5,-262.23 1092.5,-262.23 1086.5,-262.23 1080.5,-256.23 1080.5,-250.23 1080.5,-250.23 1080.5,-238.23 1080.5,-238.23 1080.5,-232.23 1086.5,-226.23 1092.5,-226.23 1092.5,-226.23 1180.5,-226.23 1180.5,-226.23 1186.5,-226.23 1192.5,-232.23 1192.5,-238.23 1192.5,-238.23 1192.5,-250.23 1192.5,-250.23 1192.5,-256.23 1186.5,-262.23 1180.5,-262.23"/>
<text text-anchor="middle" x="1136.5" y="-240.53" font-family="Times,serif" font-size="14.00" fill="#2f3638">current_coreid；</text>
</g>
<!-- plic_irq_register&#45;&gt;current_coreid； -->
<g id="edge12" class="edge">
<title>plic_irq_register&#45;&gt;current_coreid；</title>
<path fill="none" stroke="#666666" d="M891.71,-273.57C943.91,-267.28 1017.49,-258.43 1070.13,-252.1"/>
<polygon fill="#666666" stroke="#666666" points="1070.86,-255.54 1080.37,-250.87 1070.02,-248.59 1070.86,-255.54"/>
</g>
<!-- plic_instanc__core_id__irq__callback -->
<g id="node14" class="node">
<title>plic_instanc__core_id__irq__callback</title>
<path fill="none" stroke="#1c2123" d="M1239.5,-208.23C1239.5,-208.23 1033.5,-208.23 1033.5,-208.23 1027.5,-208.23 1021.5,-202.23 1021.5,-196.23 1021.5,-196.23 1021.5,-184.23 1021.5,-184.23 1021.5,-178.23 1027.5,-172.23 1033.5,-172.23 1033.5,-172.23 1239.5,-172.23 1239.5,-172.23 1245.5,-172.23 1251.5,-178.23 1251.5,-184.23 1251.5,-184.23 1251.5,-196.23 1251.5,-196.23 1251.5,-202.23 1245.5,-208.23 1239.5,-208.23"/>
<text text-anchor="middle" x="1136.5" y="-186.53" font-family="Times,serif" font-size="14.00" fill="#2f3638">plic_instanc__core_id__irq__callback</text>
</g>
<!-- plic_irq_register&#45;&gt;plic_instanc__core_id__irq__callback -->
<g id="edge13" class="edge">
<title>plic_irq_register&#45;&gt;plic_instanc__core_id__irq__callback</title>
<path fill="none" stroke="#666666" d="M891.62,-264.76C909.66,-259.03 929.01,-251.83 946,-243.23 963.61,-234.32 963.82,-224.91 982,-217.23 991.44,-213.24 1001.46,-209.84 1011.66,-206.94"/>
<polygon fill="#666666" stroke="#666666" points="1012.73,-210.28 1021.49,-204.31 1010.92,-203.52 1012.73,-210.28"/>
</g>
<!-- plic_instanc__core_id__irq__ctx -->
<g id="node15" class="node">
<title>plic_instanc__core_id__irq__ctx</title>
<path fill="none" stroke="#1c2123" d="M1225,-316.23C1225,-316.23 1048,-316.23 1048,-316.23 1042,-316.23 1036,-310.23 1036,-304.23 1036,-304.23 1036,-292.23 1036,-292.23 1036,-286.23 1042,-280.23 1048,-280.23 1048,-280.23 1225,-280.23 1225,-280.23 1231,-280.23 1237,-286.23 1237,-292.23 1237,-292.23 1237,-304.23 1237,-304.23 1237,-310.23 1231,-316.23 1225,-316.23"/>
<text text-anchor="middle" x="1136.5" y="-294.53" font-family="Times,serif" font-size="14.00" fill="#2f3638">plic_instanc__core_id__irq__ctx</text>
</g>
<!-- plic_irq_register&#45;&gt;plic_instanc__core_id__irq__ctx -->
<g id="edge14" class="edge">
<title>plic_irq_register&#45;&gt;plic_instanc__core_id__irq__ctx</title>
<path fill="none" stroke="#666666" d="M891.71,-284.75C930.39,-286.89 980.81,-289.68 1025.75,-292.16"/>
<polygon fill="#666666" stroke="#666666" points="1025.67,-295.66 1035.84,-292.72 1026.05,-288.68 1025.67,-295.66"/>
</g>
<!-- plic_instance -->
<g id="node25" class="node">
<title>plic_instance</title>
<path fill="#feed9b" stroke="#f7e495" d="M994,-334.73C994,-334.73 1279,-334.73 1279,-334.73 1285,-334.73 1291,-340.73 1291,-346.73 1291,-346.73 1291,-383.73 1291,-383.73 1291,-389.73 1285,-395.73 1279,-395.73 1279,-395.73 994,-395.73 994,-395.73 988,-395.73 982,-389.73 982,-383.73 982,-383.73 982,-346.73 982,-346.73 982,-340.73 988,-334.73 994,-334.73"/>
<text text-anchor="start" x="990" y="-380.53" font-family="Times,serif" font-size="14.00" fill="#40575d">plic_instance</text>
<text text-anchor="start" x="990" y="-365.53" font-family="Times,serif" font-size="14.00" fill="#40575d"> 静态全局变量</text>
<polyline fill="none" stroke="#f7e495" points="982,-357.73 1291,-357.73 "/>
<text text-anchor="start" x="990" y="-342.53" font-family="Times,serif" font-size="14.00" fill="#40575d">plic_instance[PLIC_NUM_CORES][IRQN_MAX];</text>
</g>
<!-- plic_irq_register&#45;&gt;plic_instance -->
<g id="edge33" class="edge">
<title>plic_irq_register&#45;&gt;plic_instance</title>
<path fill="none" stroke="#666666" d="M891.77,-298.77C909.36,-303.69 928.44,-309.09 946,-314.23 962.06,-318.93 965.9,-320.68 982,-325.23 990,-327.5 998.25,-329.78 1006.57,-332.05"/>
<polygon fill="#666666" stroke="#666666" points="1005.8,-335.47 1016.37,-334.71 1007.64,-328.71 1005.8,-335.47"/>
</g>
<!-- dmac_set_irq -->
<g id="node18" class="node">
<title>dmac_set_irq</title>
<path fill="none" stroke="#1c2123" d="M659,-250.23C659,-250.23 591,-250.23 591,-250.23 585,-250.23 579,-244.23 579,-238.23 579,-238.23 579,-226.23 579,-226.23 579,-220.23 585,-214.23 591,-214.23 591,-214.23 659,-214.23 659,-214.23 665,-214.23 671,-220.23 671,-226.23 671,-226.23 671,-238.23 671,-238.23 671,-244.23 665,-250.23 659,-250.23"/>
<text text-anchor="middle" x="625" y="-228.53" font-family="Times,serif" font-size="14.00" fill="#2f3638">dmac_set_irq</text>
</g>
<!-- kpu_run_dma_input&#45;&gt;dmac_set_irq -->
<g id="edge17" class="edge">
<title>kpu_run_dma_input&#45;&gt;dmac_set_irq</title>
<path fill="none" stroke="#666666" d="M529.21,-232.23C542.14,-232.23 555.63,-232.23 568.24,-232.23"/>
<polygon fill="#666666" stroke="#666666" points="568.6,-235.73 578.6,-232.23 568.6,-228.73 568.6,-235.73"/>
</g>
<!-- dmac_set_single_mode -->
<g id="node19" class="node">
<title>dmac_set_single_mode</title>
<path fill="none" stroke="#1c2123" d="M1463,-182.23C1463,-182.23 1339,-182.23 1339,-182.23 1333,-182.23 1327,-176.23 1327,-170.23 1327,-170.23 1327,-158.23 1327,-158.23 1327,-152.23 1333,-146.23 1339,-146.23 1339,-146.23 1463,-146.23 1463,-146.23 1469,-146.23 1475,-152.23 1475,-158.23 1475,-158.23 1475,-170.23 1475,-170.23 1475,-176.23 1469,-182.23 1463,-182.23"/>
<text text-anchor="middle" x="1401" y="-160.53" font-family="Times,serif" font-size="14.00" fill="#2f3638">dmac_set_single_mode</text>
</g>
<!-- kpu_run_dma_input&#45;&gt;dmac_set_single_mode -->
<g id="edge18" class="edge">
<title>kpu_run_dma_input&#45;&gt;dmac_set_single_mode</title>
<path fill="none" stroke="#666666" d="M516.27,-214.18C575.89,-193.56 670.86,-161.9 708,-156.23 925.54,-123.01 1186.04,-141.42 1316.66,-154.59"/>
<polygon fill="#666666" stroke="#666666" points="1316.67,-158.11 1326.98,-155.65 1317.39,-151.15 1316.67,-158.11"/>
</g>
<!-- kpu_run_dma_input_done_push_layers -->
<g id="node20" class="node">
<title>kpu_run_dma_input_done_push_layers</title>
<path fill="none" stroke="#1c2123" d="M934,-109.23C934,-109.23 720,-109.23 720,-109.23 714,-109.23 708,-103.23 708,-97.23 708,-97.23 708,-85.23 708,-85.23 708,-79.23 714,-73.23 720,-73.23 720,-73.23 934,-73.23 934,-73.23 940,-73.23 946,-79.23 946,-85.23 946,-85.23 946,-97.23 946,-97.23 946,-103.23 940,-109.23 934,-109.23"/>
<text text-anchor="middle" x="827" y="-87.53" font-family="Times,serif" font-size="14.00" fill="#2f3638">kpu_run_dma_input_done_push_layers</text>
</g>
<!-- kpu_run_dma_input&#45;&gt;kpu_run_dma_input_done_push_layers -->
<g id="edge19" class="edge">
<title>kpu_run_dma_input&#45;&gt;kpu_run_dma_input_done_push_layers</title>
<path fill="none" stroke="green" stroke-dasharray="5,2" d="M529.2,-214.58C533.81,-211.89 538.15,-208.79 542,-205.23 571.2,-178.18 546.14,-147.09 578,-123.23 611.95,-97.81 656.1,-87.13 697.73,-83.65"/>
<polygon fill="green" stroke="green" points="698.24,-87.12 707.97,-82.93 697.75,-80.14 698.24,-87.12"/>
</g>
<!-- kpu_continue -->
<g id="node16" class="node">
<title>kpu_continue</title>
<path fill="none" stroke="#1c2123" d="M1435.5,-74.23C1435.5,-74.23 1366.5,-74.23 1366.5,-74.23 1360.5,-74.23 1354.5,-68.23 1354.5,-62.23 1354.5,-62.23 1354.5,-50.23 1354.5,-50.23 1354.5,-44.23 1360.5,-38.23 1366.5,-38.23 1366.5,-38.23 1435.5,-38.23 1435.5,-38.23 1441.5,-38.23 1447.5,-44.23 1447.5,-50.23 1447.5,-50.23 1447.5,-62.23 1447.5,-62.23 1447.5,-68.23 1441.5,-74.23 1435.5,-74.23"/>
<text text-anchor="middle" x="1401" y="-52.53" font-family="Times,serif" font-size="14.00" fill="#2f3638">kpu_continue</text>
</g>
<!-- plic_instanc__core_id__irq__callback&#45;&gt;kpu_continue -->
<g id="edge15" class="edge">
<title>plic_instanc__core_id__irq__callback&#45;&gt;kpu_continue</title>
<path fill="none" stroke="green" stroke-dasharray="5,2" d="M1197.33,-172.18C1227.19,-161.42 1262.85,-145.82 1291,-125.23 1310.85,-110.72 1306.82,-97.28 1327,-83.23 1332.51,-79.39 1338.64,-76.03 1344.93,-73.09"/>
<polygon fill="green" stroke="green" points="1346.41,-76.27 1354.22,-69.1 1343.65,-69.84 1346.41,-76.27"/>
</g>
<!-- kpu__layer_argument_fifo -->
<g id="node17" class="node">
<title>kpu__layer_argument_fifo</title>
<path fill="none" stroke="#1c2123" d="M1665,-74.23C1665,-74.23 1523,-74.23 1523,-74.23 1517,-74.23 1511,-68.23 1511,-62.23 1511,-62.23 1511,-50.23 1511,-50.23 1511,-44.23 1517,-38.23 1523,-38.23 1523,-38.23 1665,-38.23 1665,-38.23 1671,-38.23 1677,-44.23 1677,-50.23 1677,-50.23 1677,-62.23 1677,-62.23 1677,-68.23 1671,-74.23 1665,-74.23"/>
<text text-anchor="middle" x="1594" y="-52.53" font-family="Times,serif" font-size="14.00" fill="#2f3638">kpu__layer_argument_fifo</text>
</g>
<!-- kpu_continue&#45;&gt;kpu__layer_argument_fifo -->
<g id="edge16" class="edge">
<title>kpu_continue&#45;&gt;kpu__layer_argument_fifo</title>
<path fill="none" stroke="#666666" d="M1447.75,-56.23C1463.67,-56.23 1482.16,-56.23 1500.49,-56.23"/>
<polygon fill="#666666" stroke="#666666" points="1500.65,-59.73 1510.65,-56.23 1500.65,-52.73 1500.65,-59.73"/>
</g>
<!-- dmac_set_irq&#45;&gt;plic_irq_enable -->
<g id="edge29" class="edge">
<title>dmac_set_irq&#45;&gt;plic_irq_enable</title>
<path fill="none" stroke="#666666" d="M631.72,-250.43C642,-279.99 666.46,-338.16 708,-368.23 724.45,-380.14 745.3,-386.91 764.88,-390.72"/>
<polygon fill="#666666" stroke="#666666" points="764.53,-394.21 774.98,-392.45 765.71,-387.31 764.53,-394.21"/>
</g>
<!-- dmac_set_irq&#45;&gt;plic_set_priority -->
<g id="edge30" class="edge">
<title>dmac_set_irq&#45;&gt;plic_set_priority</title>
<path fill="none" stroke="#666666" d="M639.23,-250.55C653.89,-269.45 679.28,-298.35 708,-314.23 724.53,-323.37 743.99,-329.42 762.29,-333.42"/>
<polygon fill="#666666" stroke="#666666" points="761.82,-336.9 772.31,-335.44 763.2,-330.04 761.82,-336.9"/>
</g>
<!-- dmac_set_irq&#45;&gt;plic_irq_register -->
<g id="edge31" class="edge">
<title>dmac_set_irq&#45;&gt;plic_irq_register</title>
<path fill="none" stroke="#666666" d="M671.38,-243.35C695.3,-249.21 725.23,-256.54 752.37,-263.19"/>
<polygon fill="#666666" stroke="#666666" points="751.68,-266.63 762.22,-265.61 753.34,-259.83 751.68,-266.63"/>
</g>
<!-- dmac_set_irq&#45;&gt;kpu_run_dma_input_done_push_layers -->
<g id="edge20" class="edge">
<title>dmac_set_irq&#45;&gt;kpu_run_dma_input_done_push_layers</title>
<path fill="none" stroke="green" stroke-dasharray="5,2" d="M643.14,-213.99C659.02,-197.68 683.77,-173.73 708,-156.23 730.08,-140.28 756.49,-125.4 778.72,-113.9"/>
<polygon fill="green" stroke="green" points="780.33,-117.01 787.65,-109.35 777.15,-110.77 780.33,-117.01"/>
</g>
<!-- dmac_enable_channel_interrupt -->
<g id="node24" class="node">
<title>dmac_enable_channel_interrupt</title>
<path fill="none" stroke="#1c2123" d="M913,-201.23C913,-201.23 741,-201.23 741,-201.23 735,-201.23 729,-195.23 729,-189.23 729,-189.23 729,-177.23 729,-177.23 729,-171.23 735,-165.23 741,-165.23 741,-165.23 913,-165.23 913,-165.23 919,-165.23 925,-171.23 925,-177.23 925,-177.23 925,-189.23 925,-189.23 925,-195.23 919,-201.23 913,-201.23"/>
<text text-anchor="middle" x="827" y="-179.53" font-family="Times,serif" font-size="14.00" fill="#2f3638">dmac_enable_channel_interrupt</text>
</g>
<!-- dmac_set_irq&#45;&gt;dmac_enable_channel_interrupt -->
<g id="edge32" class="edge">
<title>dmac_set_irq&#45;&gt;dmac_enable_channel_interrupt</title>
<path fill="none" stroke="#666666" d="M671.38,-221.11C692.35,-215.98 717.94,-209.71 742.22,-203.76"/>
<polygon fill="#666666" stroke="#666666" points="743.28,-207.1 752.16,-201.32 741.62,-200.3 743.28,-207.1"/>
</g>
<!-- kpu_run_dma_input_done_push_layers&#45;&gt;kpu_continue -->
<g id="edge21" class="edge">
<title>kpu_run_dma_input_done_push_layers&#45;&gt;kpu_continue</title>
<path fill="none" stroke="#666666" d="M946.01,-74.77C958.15,-73.41 970.31,-72.2 982,-71.23 1111.34,-60.54 1263.82,-57.46 1344.09,-56.58"/>
<polygon fill="#666666" stroke="#666666" points="1344.49,-60.08 1354.46,-56.48 1344.42,-53.08 1344.49,-60.08"/>
</g>
<!-- kpu_run_dma_output -->
<g id="node21" class="node">
<title>kpu_run_dma_output</title>
<path fill="none" stroke="#1c2123" d="M1193,-116.23C1193,-116.23 1080,-116.23 1080,-116.23 1074,-116.23 1068,-110.23 1068,-104.23 1068,-104.23 1068,-92.23 1068,-92.23 1068,-86.23 1074,-80.23 1080,-80.23 1080,-80.23 1193,-80.23 1193,-80.23 1199,-80.23 1205,-86.23 1205,-92.23 1205,-92.23 1205,-104.23 1205,-104.23 1205,-110.23 1199,-116.23 1193,-116.23"/>
<text text-anchor="middle" x="1136.5" y="-94.53" font-family="Times,serif" font-size="14.00" fill="#2f3638">kpu_run_dma_output</text>
</g>
<!-- kpu_run_dma_input_done_push_layers&#45;&gt;kpu_run_dma_output -->
<g id="edge22" class="edge">
<title>kpu_run_dma_input_done_push_layers&#45;&gt;kpu_run_dma_output</title>
<path fill="none" stroke="#666666" d="M946.01,-93.92C983.31,-94.77 1023.58,-95.68 1057.36,-96.45"/>
<polygon fill="#666666" stroke="#666666" points="1057.55,-99.96 1067.63,-96.69 1057.71,-92.96 1057.55,-99.96"/>
</g>
<!-- kpu_run_dma_output&#45;&gt;dmac_set_irq -->
<g id="edge23" class="edge">
<title>kpu_run_dma_output&#45;&gt;dmac_set_irq</title>
<path fill="none" stroke="#666666" d="M1073.31,-116.31C1043.72,-126.88 1009,-142.32 982,-163.23 961.19,-179.34 969.18,-197.78 946,-210.23 862.24,-255.22 747.87,-249.99 680.97,-241.51"/>
<polygon fill="#666666" stroke="#666666" points="681.43,-238.04 671.06,-240.18 680.51,-244.98 681.43,-238.04"/>
</g>
<!-- kpu_run_dma_output&#45;&gt;dmac_set_single_mode -->
<g id="edge24" class="edge">
<title>kpu_run_dma_output&#45;&gt;dmac_set_single_mode</title>
<path fill="none" stroke="#666666" d="M1205.08,-110.85C1231.95,-116.25 1263.07,-122.98 1291,-130.23 1305.58,-134.01 1321.1,-138.55 1335.73,-143.05"/>
<polygon fill="#666666" stroke="#666666" points="1335.1,-146.52 1345.68,-146.15 1337.18,-139.84 1335.1,-146.52"/>
</g>
<!-- kpu_run_all_done -->
<g id="node22" class="node">
<title>kpu_run_all_done</title>
<path fill="none" stroke="#1c2123" d="M1448,-128.23C1448,-128.23 1354,-128.23 1354,-128.23 1348,-128.23 1342,-122.23 1342,-116.23 1342,-116.23 1342,-104.23 1342,-104.23 1342,-98.23 1348,-92.23 1354,-92.23 1354,-92.23 1448,-92.23 1448,-92.23 1454,-92.23 1460,-98.23 1460,-104.23 1460,-104.23 1460,-116.23 1460,-116.23 1460,-122.23 1454,-128.23 1448,-128.23"/>
<text text-anchor="middle" x="1401" y="-106.53" font-family="Times,serif" font-size="14.00" fill="#2f3638">kpu_run_all_done</text>
</g>
<!-- kpu_run_dma_output&#45;&gt;kpu_run_all_done -->
<g id="edge25" class="edge">
<title>kpu_run_dma_output&#45;&gt;kpu_run_all_done</title>
<path fill="none" stroke="green" stroke-dasharray="5,2" d="M1205.1,-101.32C1244.01,-103.1 1292.76,-105.33 1331.77,-107.11"/>
<polygon fill="green" stroke="green" points="1331.83,-110.62 1341.98,-107.58 1332.15,-103.63 1331.83,-110.62"/>
</g>
<!-- kpu_run_all_done&#45;&gt;task__cb -->
<g id="edge26" class="edge">
<title>kpu_run_all_done&#45;&gt;task__cb</title>
<path fill="none" stroke="#666666" d="M1458.56,-128.38C1464.28,-131.03 1469.87,-133.97 1475,-137.23 1501.79,-154.24 1527.44,-178.17 1547.93,-199.88"/>
<polygon fill="#666666" stroke="#666666" points="1545.59,-202.51 1554.96,-207.45 1550.72,-197.74 1545.59,-202.51"/>
</g>
<!-- task__cb&#45;&gt;plic_irq_callback_t -->
<g id="edge28" class="edge">
<title>task__cb&#45;&gt;plic_irq_callback_t</title>
<path fill="none" stroke="green" stroke-dasharray="5,2" d="M1658.73,-207.6C1706.75,-173.22 1770.78,-127.37 1809.89,-99.37"/>
<polygon fill="green" stroke="green" points="1812.23,-102 1818.32,-93.33 1808.15,-96.31 1812.23,-102"/>
</g>
<!-- plic_instance&#45;&gt;task__cb -->
<g id="edge34" class="edge">
<title>plic_instance&#45;&gt;task__cb</title>
<path fill="none" stroke="green" stroke-dasharray="5,2" d="M1261.67,-334.7C1343.39,-314.61 1447.73,-288.95 1517.27,-271.85"/>
<polygon fill="green" stroke="green" points="1518.4,-275.18 1527.27,-269.39 1516.72,-268.38 1518.4,-275.18"/>
</g>
<!-- handle_irq_m_ext -->
<g id="node26" class="node">
<title>handle_irq_m_ext</title>
<path fill="none" stroke="#1c2123" d="M874,-467.23C874,-467.23 780,-467.23 780,-467.23 774,-467.23 768,-461.23 768,-455.23 768,-455.23 768,-443.23 768,-443.23 768,-437.23 774,-431.23 780,-431.23 780,-431.23 874,-431.23 874,-431.23 880,-431.23 886,-437.23 886,-443.23 886,-443.23 886,-455.23 886,-455.23 886,-461.23 880,-467.23 874,-467.23"/>
<text text-anchor="middle" x="827" y="-445.53" font-family="Times,serif" font-size="14.00" fill="#2f3638">handle_irq_m_ext</text>
</g>
<!-- handle_irq_m_ext&#45;&gt;plic_instance -->
<g id="edge35" class="edge">
<title>handle_irq_m_ext&#45;&gt;plic_instance</title>
<path fill="none" stroke="#666666" d="M886.11,-436.75C905.25,-432.42 926.6,-427.36 946,-422.23 972.92,-415.11 1001.79,-406.79 1028.67,-398.73"/>
<polygon fill="#666666" stroke="#666666" points="1029.91,-402.02 1038.48,-395.78 1027.89,-395.31 1029.91,-402.02"/>
</g>
<!-- handle_irq -->
<g id="node27" class="node">
<title>handle_irq</title>
<path fill="none" stroke="#1c2123" d="M221,-430.23C221,-430.23 273,-430.23 273,-430.23 279,-430.23 285,-436.23 285,-442.23 285,-442.23 285,-456.23 285,-456.23 285,-462.23 279,-468.23 273,-468.23 273,-468.23 221,-468.23 221,-468.23 215,-468.23 209,-462.23 209,-456.23 209,-456.23 209,-442.23 209,-442.23 209,-436.23 215,-430.23 221,-430.23"/>
<text text-anchor="start" x="217" y="-453.03" font-family="Times,serif" font-size="14.00" fill="#2f3638">handle_irq</text>
<text text-anchor="start" x="217" y="-438.03" font-family="Times,serif" font-size="14.00" fill="#2f3638"> 处理中断</text>
</g>
<!-- irq_table -->
<g id="node28" class="node">
<title>irq_table</title>
<path fill="none" stroke="#1c2123" d="M485,-467.23C485,-467.23 443,-467.23 443,-467.23 437,-467.23 431,-461.23 431,-455.23 431,-455.23 431,-443.23 431,-443.23 431,-437.23 437,-431.23 443,-431.23 443,-431.23 485,-431.23 485,-431.23 491,-431.23 497,-437.23 497,-443.23 497,-443.23 497,-455.23 497,-455.23 497,-461.23 491,-467.23 485,-467.23"/>
<text text-anchor="middle" x="464" y="-445.53" font-family="Times,serif" font-size="14.00" fill="#2f3638">irq_table</text>
</g>
<!-- handle_irq&#45;&gt;irq_table -->
<g id="edge36" class="edge">
<title>handle_irq&#45;&gt;irq_table</title>
<path fill="none" stroke="#666666" d="M285.45,-449.23C323.22,-449.23 381.43,-449.23 420.81,-449.23"/>
<polygon fill="#666666" stroke="#666666" points="420.88,-452.73 430.88,-449.23 420.88,-445.73 420.88,-452.73"/>
</g>
<!-- IRQ_M_EXT -->
<g id="node29" class="node">
<title>IRQ_M_EXT</title>
<path fill="none" stroke="#1c2123" d="M660,-467.23C660,-467.23 590,-467.23 590,-467.23 584,-467.23 578,-461.23 578,-455.23 578,-455.23 578,-443.23 578,-443.23 578,-437.23 584,-431.23 590,-431.23 590,-431.23 660,-431.23 660,-431.23 666,-431.23 672,-437.23 672,-443.23 672,-443.23 672,-455.23 672,-455.23 672,-461.23 666,-467.23 660,-467.23"/>
<text text-anchor="middle" x="625" y="-445.53" font-family="Times,serif" font-size="14.00" fill="#2f3638">IRQ_M_EXT</text>
</g>
<!-- irq_table&#45;&gt;IRQ_M_EXT -->
<g id="edge37" class="edge">
<title>irq_table&#45;&gt;IRQ_M_EXT</title>
<path fill="none" stroke="#666666" d="M497.18,-449.23C517.33,-449.23 543.87,-449.23 567.46,-449.23"/>
<polygon fill="#666666" stroke="#666666" points="567.71,-452.73 577.71,-449.23 567.71,-445.73 567.71,-452.73"/>
</g>
<!-- IRQ_M_EXT&#45;&gt;handle_irq_m_ext -->
<g id="edge38" class="edge">
<title>IRQ_M_EXT&#45;&gt;handle_irq_m_ext</title>
<path fill="none" stroke="#666666" d="M672.14,-449.23C697.51,-449.23 729.49,-449.23 757.71,-449.23"/>
<polygon fill="#666666" stroke="#666666" points="757.91,-452.73 767.91,-449.23 757.91,-445.73 757.91,-452.73"/>
</g>
<!-- lib__bsp__crt_S -->
<g id="node30" class="node">
<title>lib__bsp__crt_S</title>
<path fill="none" stroke="#1c2123" d="M96,-467.23C96,-467.23 12,-467.23 12,-467.23 6,-467.23 0,-461.23 0,-455.23 0,-455.23 0,-443.23 0,-443.23 0,-437.23 6,-431.23 12,-431.23 12,-431.23 96,-431.23 96,-431.23 102,-431.23 108,-437.23 108,-443.23 108,-443.23 108,-455.23 108,-455.23 108,-461.23 102,-467.23 96,-467.23"/>
<text text-anchor="middle" x="54" y="-445.53" font-family="Times,serif" font-size="14.00" fill="#2f3638">lib__bsp__crt_S</text>
</g>
<!-- lib__bsp__crt_S&#45;&gt;handle_irq -->
<g id="edge39" class="edge">
<title>lib__bsp__crt_S&#45;&gt;handle_irq</title>
<path fill="none" stroke="#666666" d="M108.2,-449.23C136.59,-449.23 171.22,-449.23 198.66,-449.23"/>
<polygon fill="#666666" stroke="#666666" points="198.8,-452.73 208.8,-449.23 198.8,-445.73 198.8,-452.73"/>
</g>
</g>
</svg>
