<?xml version="1.0" encoding="UTF-8" standalone="no"?>
<!DOCTYPE svg PUBLIC "-//W3C//DTD SVG 1.1//EN"
 "http://www.w3.org/Graphics/SVG/1.1/DTD/svg11.dtd">
<!-- Generated by graphviz version 2.49.3 (20211023.0002)
 -->
<!-- Title: dig Pages: 1 -->
<svg width="1813pt" height="716pt"
 viewBox="0.00 0.00 1813.00 716.28" xmlns="http://www.w3.org/2000/svg" xmlns:xlink="http://www.w3.org/1999/xlink">
<g id="graph0" class="graph" transform="scale(1 1) rotate(0) translate(4 712.28)">
<title>dig</title>
<polygon fill="white" stroke="transparent" points="-4,4 -4,-712.28 1809,-712.28 1809,4 -4,4"/>
<!-- kpu_run_kmodel -->
<g id="node1" class="node">
<title>kpu_run_kmodel</title>
<path fill="none" stroke="#1c2123" d="M12,-226.78C12,-226.78 176,-226.78 176,-226.78 182,-226.78 188,-232.78 188,-238.78 188,-238.78 188,-305.78 188,-305.78 188,-311.78 182,-317.78 176,-317.78 176,-317.78 12,-317.78 12,-317.78 6,-317.78 0,-311.78 0,-305.78 0,-305.78 0,-238.78 0,-238.78 0,-232.78 6,-226.78 12,-226.78"/>
<text text-anchor="start" x="8" y="-302.58" font-family="Times,serif" font-size="14.00" fill="#2f3638">kpu_run_kmodel</text>
<text text-anchor="start" x="8" y="-287.58" font-family="Times,serif" font-size="14.00" fill="#2f3638"> 设置IRQN_AI_INTERRUPT</text>
<text text-anchor="start" x="8" y="-272.58" font-family="Times,serif" font-size="14.00" fill="#2f3638"> 中断的handler为</text>
<text text-anchor="start" x="8" y="-257.58" font-family="Times,serif" font-size="14.00" fill="#2f3638"> ai_step</text>
<polyline fill="none" stroke="#1c2123" points="0,-249.78 188,-249.78 "/>
<text text-anchor="start" x="8" y="-234.58" font-family="Times,serif" font-size="14.00" fill="#2f3638">设置kpu的一些参数</text>
</g>
<!-- nncase_run_kmodel -->
<g id="node2" class="node">
<title>nncase_run_kmodel</title>
<path fill="none" stroke="#1c2123" d="M367,-708.28C367,-708.28 262,-708.28 262,-708.28 256,-708.28 250,-702.28 250,-696.28 250,-696.28 250,-684.28 250,-684.28 250,-678.28 256,-672.28 262,-672.28 262,-672.28 367,-672.28 367,-672.28 373,-672.28 379,-678.28 379,-684.28 379,-684.28 379,-696.28 379,-696.28 379,-702.28 373,-708.28 367,-708.28"/>
<text text-anchor="middle" x="314.5" y="-686.58" font-family="Times,serif" font-size="14.00" fill="#2f3638">nncase_run_kmodel</text>
</g>
<!-- kpu_run_kmodel&#45;&gt;nncase_run_kmodel -->
<g id="edge1" class="edge">
<title>kpu_run_kmodel&#45;&gt;nncase_run_kmodel</title>
<path fill="none" stroke="#666666" d="M97.65,-317.84C104.71,-397.51 130.44,-562.74 224,-658.28 228.89,-663.27 234.61,-667.48 240.75,-671.04"/>
<polygon fill="#666666" stroke="#666666" points="239.5,-674.34 250,-675.8 242.71,-668.11 239.5,-674.34"/>
</g>
<!-- KL_K210_CONV -->
<g id="node3" class="node">
<title>KL_K210_CONV</title>
<path fill="none" stroke="#1c2123" d="M256,-374.28C256,-374.28 373,-374.28 373,-374.28 379,-374.28 385,-380.28 385,-386.28 385,-386.28 385,-430.28 385,-430.28 385,-436.28 379,-442.28 373,-442.28 373,-442.28 256,-442.28 256,-442.28 250,-442.28 244,-436.28 244,-430.28 244,-430.28 244,-386.28 244,-386.28 244,-380.28 250,-374.28 256,-374.28"/>
<text text-anchor="start" x="252" y="-427.08" font-family="Times,serif" font-size="14.00" fill="#2f3638">KL_K210_CONV</text>
<text text-anchor="start" x="252" y="-412.08" font-family="Times,serif" font-size="14.00" fill="#2f3638"> 第一层header类型为</text>
<text text-anchor="start" x="252" y="-397.08" font-family="Times,serif" font-size="14.00" fill="#2f3638"> KL_K210_CONV</text>
<text text-anchor="start" x="252" y="-382.08" font-family="Times,serif" font-size="14.00" fill="#2f3638"> 卷积层</text>
</g>
<!-- kpu_run_kmodel&#45;&gt;KL_K210_CONV -->
<g id="edge2" class="edge">
<title>kpu_run_kmodel&#45;&gt;KL_K210_CONV</title>
<path fill="none" stroke="#666666" d="M168.37,-317.94C194.88,-334.44 224.56,-352.92 250.14,-368.84"/>
<polygon fill="#666666" stroke="#666666" points="248.3,-371.82 258.64,-374.13 252,-365.88 248.3,-371.82"/>
</g>
<!-- KL_FULLY_CONNECTED -->
<g id="node4" class="node">
<title>KL_FULLY_CONNECTED</title>
<path fill="none" stroke="#1c2123" d="M236,-113.28C236,-113.28 393,-113.28 393,-113.28 399,-113.28 405,-119.28 405,-125.28 405,-125.28 405,-169.28 405,-169.28 405,-175.28 399,-181.28 393,-181.28 393,-181.28 236,-181.28 236,-181.28 230,-181.28 224,-175.28 224,-169.28 224,-169.28 224,-125.28 224,-125.28 224,-119.28 230,-113.28 236,-113.28"/>
<text text-anchor="start" x="232" y="-166.08" font-family="Times,serif" font-size="14.00" fill="#2f3638">KL_FULLY_CONNECTED</text>
<text text-anchor="start" x="232" y="-151.08" font-family="Times,serif" font-size="14.00" fill="#2f3638"> 第一层header 类型为</text>
<text text-anchor="start" x="232" y="-136.08" font-family="Times,serif" font-size="14.00" fill="#2f3638"> KL_FULLY_CONNECTED</text>
<text text-anchor="start" x="232" y="-121.08" font-family="Times,serif" font-size="14.00" fill="#2f3638"> 全连接层</text>
</g>
<!-- kpu_run_kmodel&#45;&gt;KL_FULLY_CONNECTED -->
<g id="edge3" class="edge">
<title>kpu_run_kmodel&#45;&gt;KL_FULLY_CONNECTED</title>
<path fill="none" stroke="#666666" d="M171.51,-226.67C188.72,-216.56 206.94,-205.97 224,-196.28 229.8,-192.98 235.82,-189.6 241.88,-186.23"/>
<polygon fill="#666666" stroke="#666666" points="243.72,-189.21 250.77,-181.3 240.33,-183.09 243.72,-189.21"/>
</g>
<!-- IRQN_AI_INTERRUPT -->
<g id="node5" class="node">
<title>IRQN_AI_INTERRUPT</title>
<path fill="none" stroke="#1c2123" d="M467,-230.28C467,-230.28 621,-230.28 621,-230.28 627,-230.28 633,-236.28 633,-242.28 633,-242.28 633,-302.28 633,-302.28 633,-308.28 627,-314.28 621,-314.28 621,-314.28 467,-314.28 467,-314.28 461,-314.28 455,-308.28 455,-302.28 455,-302.28 455,-242.28 455,-242.28 455,-236.28 461,-230.28 467,-230.28"/>
<text text-anchor="start" x="463" y="-299.08" font-family="Times,serif" font-size="14.00" fill="#2f3638">IRQN_AI_INTERRUPT</text>
<text text-anchor="start" x="463" y="-284.08" font-family="Times,serif" font-size="14.00" fill="#2f3638"> 25</text>
<polyline fill="none" stroke="#1c2123" points="455,-276.28 633,-276.28 "/>
<text text-anchor="start" x="463" y="-261.08" font-family="Times,serif" font-size="14.00" fill="#2f3638">AI accelerator interrupt </text>
<polyline fill="none" stroke="#1c2123" points="455,-253.28 633,-253.28 "/>
<text text-anchor="start" x="463" y="-238.08" font-family="Times,serif" font-size="14.00" fill="#2f3638">这个中断应该是kpu触发的</text>
</g>
<!-- kpu_run_kmodel&#45;&gt;IRQN_AI_INTERRUPT -->
<g id="edge4" class="edge">
<title>kpu_run_kmodel&#45;&gt;IRQN_AI_INTERRUPT</title>
<path fill="none" stroke="#666666" d="M188.1,-272.28C263.17,-272.28 368.48,-272.28 444.86,-272.28"/>
<polygon fill="#666666" stroke="#666666" points="444.97,-275.78 454.97,-272.28 444.97,-268.78 444.97,-275.78"/>
</g>
<!-- plic_irq_register -->
<g id="node6" class="node">
<title>plic_irq_register</title>
<path fill="none" stroke="#1c2123" d="M357,-241.28C357,-241.28 272,-241.28 272,-241.28 266,-241.28 260,-235.28 260,-229.28 260,-229.28 260,-217.28 260,-217.28 260,-211.28 266,-205.28 272,-205.28 272,-205.28 357,-205.28 357,-205.28 363,-205.28 369,-211.28 369,-217.28 369,-217.28 369,-229.28 369,-229.28 369,-235.28 363,-241.28 357,-241.28"/>
<text text-anchor="middle" x="314.5" y="-219.58" font-family="Times,serif" font-size="14.00" fill="#2f3638">plic_irq_register</text>
</g>
<!-- kpu_run_kmodel&#45;&gt;plic_irq_register -->
<g id="edge5" class="edge">
<title>kpu_run_kmodel&#45;&gt;plic_irq_register</title>
<path fill="none" stroke="#666666" d="M188.3,-251.35C209.14,-246.68 230.77,-241.83 250.07,-237.5"/>
<polygon fill="#666666" stroke="#666666" points="250.95,-240.89 259.94,-235.29 249.41,-234.06 250.95,-240.89"/>
</g>
<!-- plic_set_priority -->
<g id="node7" class="node">
<title>plic_set_priority</title>
<path fill="none" stroke="#1c2123" d="M357,-94.28C357,-94.28 272,-94.28 272,-94.28 266,-94.28 260,-88.28 260,-82.28 260,-82.28 260,-70.28 260,-70.28 260,-64.28 266,-58.28 272,-58.28 272,-58.28 357,-58.28 357,-58.28 363,-58.28 369,-64.28 369,-70.28 369,-70.28 369,-82.28 369,-82.28 369,-88.28 363,-94.28 357,-94.28"/>
<text text-anchor="middle" x="314.5" y="-72.58" font-family="Times,serif" font-size="14.00" fill="#2f3638">plic_set_priority</text>
</g>
<!-- kpu_run_kmodel&#45;&gt;plic_set_priority -->
<g id="edge6" class="edge">
<title>kpu_run_kmodel&#45;&gt;plic_set_priority</title>
<path fill="none" stroke="#666666" d="M119.33,-226.72C141.77,-188.81 178.47,-136.07 224,-104.28 231.93,-98.74 240.99,-94.27 250.24,-90.66"/>
<polygon fill="#666666" stroke="#666666" points="251.66,-93.87 259.9,-87.21 249.31,-87.28 251.66,-93.87"/>
</g>
<!-- kpu_model_context_t__done_callback -->
<g id="node31" class="node">
<title>kpu_model_context_t__done_callback</title>
<path fill="none" stroke="#1c2123" d="M1793,-465.28C1793,-465.28 1584,-465.28 1584,-465.28 1578,-465.28 1572,-459.28 1572,-453.28 1572,-453.28 1572,-441.28 1572,-441.28 1572,-435.28 1578,-429.28 1584,-429.28 1584,-429.28 1793,-429.28 1793,-429.28 1799,-429.28 1805,-435.28 1805,-441.28 1805,-441.28 1805,-453.28 1805,-453.28 1805,-459.28 1799,-465.28 1793,-465.28"/>
<text text-anchor="middle" x="1688.5" y="-443.58" font-family="Times,serif" font-size="14.00" fill="#2f3638">kpu_model_context_t__done_callback</text>
</g>
<!-- kpu_run_kmodel&#45;&gt;kpu_model_context_t__done_callback -->
<g id="edge34" class="edge">
<title>kpu_run_kmodel&#45;&gt;kpu_model_context_t__done_callback</title>
<path fill="none" stroke="#666666" d="M120.91,-317.89C181.1,-417.23 340.81,-644.28 543,-644.28 543,-644.28 543,-644.28 1210,-644.28 1389.24,-644.28 1579.67,-524.19 1654.56,-471.53"/>
<polygon fill="#666666" stroke="#666666" points="1656.98,-474.1 1663.11,-465.46 1652.93,-468.4 1656.98,-474.1"/>
</g>
<!-- kpu_kmodel_input_with_padding -->
<g id="node9" class="node">
<title>kpu_kmodel_input_with_padding</title>
<path fill="none" stroke="#1c2123" d="M635,-464.28C635,-464.28 453,-464.28 453,-464.28 447,-464.28 441,-458.28 441,-452.28 441,-452.28 441,-440.28 441,-440.28 441,-434.28 447,-428.28 453,-428.28 453,-428.28 635,-428.28 635,-428.28 641,-428.28 647,-434.28 647,-440.28 647,-440.28 647,-452.28 647,-452.28 647,-458.28 641,-464.28 635,-464.28"/>
<text text-anchor="middle" x="544" y="-442.58" font-family="Times,serif" font-size="14.00" fill="#2f3638">kpu_kmodel_input_with_padding</text>
</g>
<!-- KL_K210_CONV&#45;&gt;kpu_kmodel_input_with_padding -->
<g id="edge8" class="edge">
<title>KL_K210_CONV&#45;&gt;kpu_kmodel_input_with_padding</title>
<path fill="none" stroke="#666666" d="M385.3,-419.94C399.66,-422.33 415.12,-424.92 430.55,-427.49"/>
<polygon fill="#666666" stroke="#666666" points="430.23,-430.99 440.67,-429.19 431.39,-424.09 430.23,-430.99"/>
</g>
<!-- ai_step_no_isr -->
<g id="node10" class="node">
<title>ai_step_no_isr</title>
<path fill="none" stroke="#1c2123" d="M491,-482.78C491,-482.78 597,-482.78 597,-482.78 603,-482.78 609,-488.78 609,-494.78 609,-494.78 609,-523.78 609,-523.78 609,-529.78 603,-535.78 597,-535.78 597,-535.78 491,-535.78 491,-535.78 485,-535.78 479,-529.78 479,-523.78 479,-523.78 479,-494.78 479,-494.78 479,-488.78 485,-482.78 491,-482.78"/>
<text text-anchor="start" x="487" y="-520.58" font-family="Times,serif" font-size="14.00" fill="#2f3638">ai_step_no_isr</text>
<text text-anchor="start" x="487" y="-505.58" font-family="Times,serif" font-size="14.00" fill="#2f3638"> 在执行ai_step期间</text>
<text text-anchor="start" x="487" y="-490.58" font-family="Times,serif" font-size="14.00" fill="#2f3638"> 关闭中断</text>
</g>
<!-- KL_K210_CONV&#45;&gt;ai_step_no_isr -->
<g id="edge9" class="edge">
<title>KL_K210_CONV&#45;&gt;ai_step_no_isr</title>
<path fill="none" stroke="#666666" d="M377.24,-442.41C397.29,-452.92 419.83,-464.11 441,-473.28 450.05,-477.19 459.67,-481.02 469.26,-484.62"/>
<polygon fill="#666666" stroke="#666666" points="468.22,-487.97 478.81,-488.15 470.64,-481.4 468.22,-487.97"/>
</g>
<!-- kpu_input_dma -->
<g id="node11" class="node">
<title>kpu_input_dma</title>
<path fill="none" stroke="#1c2123" d="M479.5,-333.28C479.5,-333.28 608.5,-333.28 608.5,-333.28 614.5,-333.28 620.5,-339.28 620.5,-345.28 620.5,-345.28 620.5,-397.28 620.5,-397.28 620.5,-403.28 614.5,-409.28 608.5,-409.28 608.5,-409.28 479.5,-409.28 479.5,-409.28 473.5,-409.28 467.5,-403.28 467.5,-397.28 467.5,-397.28 467.5,-345.28 467.5,-345.28 467.5,-339.28 473.5,-333.28 479.5,-333.28"/>
<text text-anchor="start" x="475.5" y="-394.08" font-family="Times,serif" font-size="14.00" fill="#2f3638">kpu_input_dma</text>
<polyline fill="none" stroke="#1c2123" points="467.5,-386.28 620.5,-386.28 "/>
<text text-anchor="start" x="475.5" y="-371.08" font-family="Times,serif" font-size="14.00" fill="#2f3638">通过dma方式输入数据</text>
<text text-anchor="start" x="475.5" y="-356.08" font-family="Times,serif" font-size="14.00" fill="#2f3638"> 中断callback为</text>
<text text-anchor="start" x="475.5" y="-341.08" font-family="Times,serif" font-size="14.00" fill="#2f3638"> ai_step</text>
</g>
<!-- KL_K210_CONV&#45;&gt;kpu_input_dma -->
<g id="edge10" class="edge">
<title>KL_K210_CONV&#45;&gt;kpu_input_dma</title>
<path fill="none" stroke="#666666" d="M385.3,-396.92C408.05,-393.23 433.56,-389.08 457.33,-385.21"/>
<polygon fill="#666666" stroke="#666666" points="458.09,-388.63 467.39,-383.57 456.96,-381.72 458.09,-388.63"/>
</g>
<!-- kpu_kmodel_input_float -->
<g id="node12" class="node">
<title>kpu_kmodel_input_float</title>
<path fill="none" stroke="#1c2123" d="M609,-82.28C609,-82.28 479,-82.28 479,-82.28 473,-82.28 467,-76.28 467,-70.28 467,-70.28 467,-58.28 467,-58.28 467,-52.28 473,-46.28 479,-46.28 479,-46.28 609,-46.28 609,-46.28 615,-46.28 621,-52.28 621,-58.28 621,-58.28 621,-70.28 621,-70.28 621,-76.28 615,-82.28 609,-82.28"/>
<text text-anchor="middle" x="544" y="-60.58" font-family="Times,serif" font-size="14.00" fill="#2f3638">kpu_kmodel_input_float</text>
</g>
<!-- KL_FULLY_CONNECTED&#45;&gt;kpu_kmodel_input_float -->
<g id="edge11" class="edge">
<title>KL_FULLY_CONNECTED&#45;&gt;kpu_kmodel_input_float</title>
<path fill="none" stroke="#666666" d="M405.09,-114.59C431.53,-104.94 459.81,-94.63 483.83,-85.87"/>
<polygon fill="#666666" stroke="#666666" points="485.3,-89.05 493.5,-82.34 482.9,-82.48 485.3,-89.05"/>
</g>
<!-- ai_step_not_isr -->
<g id="node13" class="node">
<title>ai_step_not_isr</title>
<path fill="none" stroke="#1c2123" d="M583,-163.28C583,-163.28 505,-163.28 505,-163.28 499,-163.28 493,-157.28 493,-151.28 493,-151.28 493,-139.28 493,-139.28 493,-133.28 499,-127.28 505,-127.28 505,-127.28 583,-127.28 583,-127.28 589,-127.28 595,-133.28 595,-139.28 595,-139.28 595,-151.28 595,-151.28 595,-157.28 589,-163.28 583,-163.28"/>
<text text-anchor="middle" x="544" y="-141.58" font-family="Times,serif" font-size="14.00" fill="#2f3638">ai_step_not_isr</text>
</g>
<!-- KL_FULLY_CONNECTED&#45;&gt;ai_step_not_isr -->
<g id="edge12" class="edge">
<title>KL_FULLY_CONNECTED&#45;&gt;ai_step_not_isr</title>
<path fill="none" stroke="#666666" d="M405.09,-146.49C431.08,-146.26 458.84,-146.02 482.59,-145.81"/>
<polygon fill="#666666" stroke="#666666" points="482.89,-149.31 492.85,-145.72 482.82,-142.31 482.89,-149.31"/>
</g>
<!-- ai_step -->
<g id="node8" class="node">
<title>ai_step</title>
<path fill="#bcffb9" stroke="#8a8898" d="M695.5,-180.78C695.5,-180.78 815.5,-180.78 815.5,-180.78 821.5,-180.78 827.5,-186.78 827.5,-192.78 827.5,-192.78 827.5,-229.78 827.5,-229.78 827.5,-235.78 821.5,-241.78 815.5,-241.78 815.5,-241.78 695.5,-241.78 695.5,-241.78 689.5,-241.78 683.5,-235.78 683.5,-229.78 683.5,-229.78 683.5,-192.78 683.5,-192.78 683.5,-186.78 689.5,-180.78 695.5,-180.78"/>
<text text-anchor="start" x="691.5" y="-226.58" font-family="Times,serif" font-size="14.00" fill="#5d6179">ai_step</text>
<polyline fill="none" stroke="#8a8898" points="683.5,-218.78 827.5,-218.78 "/>
<text text-anchor="start" x="691.5" y="-203.58" font-family="Times,serif" font-size="14.00" fill="#5d6179">根据layer_header type</text>
<text text-anchor="start" x="691.5" y="-188.58" font-family="Times,serif" font-size="14.00" fill="#5d6179"> 一层层的执行layer</text>
</g>
<!-- IRQN_AI_INTERRUPT&#45;&gt;ai_step -->
<g id="edge36" class="edge">
<title>IRQN_AI_INTERRUPT&#45;&gt;ai_step</title>
<path fill="none" stroke="#666666" d="M633.24,-246.58C646.52,-242.72 660.16,-238.75 673.28,-234.93"/>
<polygon fill="#666666" stroke="#666666" points="674.57,-238.19 683.2,-232.04 672.62,-231.47 674.57,-238.19"/>
</g>
<!-- plic_irq_register&#45;&gt;ai_step -->
<g id="edge7" class="edge">
<title>plic_irq_register&#45;&gt;ai_step</title>
<path fill="none" stroke="green" stroke-dasharray="5,2" d="M369.33,-221.81C445.28,-219.73 584.49,-215.92 673.11,-213.5"/>
<polygon fill="green" stroke="green" points="673.23,-217 683.13,-213.23 673.04,-210 673.23,-217"/>
</g>
<!-- ai_step&#45;&gt;ai_step -->
<g id="edge18" class="edge">
<title>ai_step&#45;&gt;ai_step</title>
<path fill="none" stroke="#666666" d="M718,-241.9C718,-252.11 730.5,-260.28 755.5,-260.28 772.3,-260.28 783.45,-256.59 788.96,-251.08"/>
<polygon fill="#666666" stroke="#666666" points="792.17,-252.46 793,-241.9 785.77,-249.64 792.17,-252.46"/>
</g>
<!-- kpu_conv -->
<g id="node19" class="node">
<title>kpu_conv</title>
<path fill="none" stroke="#1c2123" d="M900,-328.78C900,-328.78 1012,-328.78 1012,-328.78 1018,-328.78 1024,-334.78 1024,-340.78 1024,-340.78 1024,-377.78 1024,-377.78 1024,-383.78 1018,-389.78 1012,-389.78 1012,-389.78 900,-389.78 900,-389.78 894,-389.78 888,-383.78 888,-377.78 888,-377.78 888,-340.78 888,-340.78 888,-334.78 894,-328.78 900,-328.78"/>
<text text-anchor="start" x="896" y="-374.58" font-family="Times,serif" font-size="14.00" fill="#2f3638">kpu_conv</text>
<polyline fill="none" stroke="#1c2123" points="888,-366.78 1024,-366.78 "/>
<text text-anchor="start" x="896" y="-351.58" font-family="Times,serif" font-size="14.00" fill="#2f3638">这个貌似是在kpu上</text>
<text text-anchor="start" x="896" y="-336.58" font-family="Times,serif" font-size="14.00" fill="#2f3638"> 执行计算的</text>
</g>
<!-- ai_step&#45;&gt;kpu_conv -->
<g id="edge19" class="edge">
<title>ai_step&#45;&gt;kpu_conv</title>
<path fill="none" stroke="#666666" d="M797.63,-241.94C829.04,-265.36 872.43,-297.71 905.7,-322.52"/>
<polygon fill="#666666" stroke="#666666" points="903.81,-325.48 913.92,-328.65 908,-319.87 903.81,-325.48"/>
</g>
<!-- kpu_kmodel_add -->
<g id="node20" class="node">
<title>kpu_kmodel_add</title>
<path fill="none" stroke="#1c2123" d="M1001,-72.28C1001,-72.28 911,-72.28 911,-72.28 905,-72.28 899,-66.28 899,-60.28 899,-60.28 899,-48.28 899,-48.28 899,-42.28 905,-36.28 911,-36.28 911,-36.28 1001,-36.28 1001,-36.28 1007,-36.28 1013,-42.28 1013,-48.28 1013,-48.28 1013,-60.28 1013,-60.28 1013,-66.28 1007,-72.28 1001,-72.28"/>
<text text-anchor="middle" x="956" y="-50.58" font-family="Times,serif" font-size="14.00" fill="#2f3638">kpu_kmodel_add</text>
</g>
<!-- ai_step&#45;&gt;kpu_kmodel_add -->
<g id="edge20" class="edge">
<title>ai_step&#45;&gt;kpu_kmodel_add</title>
<path fill="none" stroke="#666666" d="M818.29,-180.5C821.78,-177.64 825.06,-174.56 828,-171.28 855.38,-140.72 834.1,-114.37 864,-86.28 871.32,-79.4 880.21,-73.98 889.53,-69.73"/>
<polygon fill="#666666" stroke="#666666" points="891.04,-72.89 898.95,-65.85 888.37,-66.42 891.04,-72.89"/>
</g>
<!-- kpu_quantize -->
<g id="node21" class="node">
<title>kpu_quantize</title>
<path fill="none" stroke="#1c2123" d="M990,-272.28C990,-272.28 922,-272.28 922,-272.28 916,-272.28 910,-266.28 910,-260.28 910,-260.28 910,-248.28 910,-248.28 910,-242.28 916,-236.28 922,-236.28 922,-236.28 990,-236.28 990,-236.28 996,-236.28 1002,-242.28 1002,-248.28 1002,-248.28 1002,-260.28 1002,-260.28 1002,-266.28 996,-272.28 990,-272.28"/>
<text text-anchor="middle" x="956" y="-250.58" font-family="Times,serif" font-size="14.00" fill="#2f3638">kpu_quantize</text>
</g>
<!-- ai_step&#45;&gt;kpu_quantize -->
<g id="edge21" class="edge">
<title>ai_step&#45;&gt;kpu_quantize</title>
<path fill="none" stroke="#666666" d="M827.6,-226.68C851.33,-231.82 877.41,-237.47 899.75,-242.31"/>
<polygon fill="#666666" stroke="#666666" points="899.22,-245.77 909.73,-244.47 900.7,-238.93 899.22,-245.77"/>
</g>
<!-- kpu_kmodel_fully_connected -->
<g id="node22" class="node">
<title>kpu_kmodel_fully_connected</title>
<path fill="none" stroke="#1c2123" d="M1036,-218.28C1036,-218.28 876,-218.28 876,-218.28 870,-218.28 864,-212.28 864,-206.28 864,-206.28 864,-194.28 864,-194.28 864,-188.28 870,-182.28 876,-182.28 876,-182.28 1036,-182.28 1036,-182.28 1042,-182.28 1048,-188.28 1048,-194.28 1048,-194.28 1048,-206.28 1048,-206.28 1048,-212.28 1042,-218.28 1036,-218.28"/>
<text text-anchor="middle" x="956" y="-196.58" font-family="Times,serif" font-size="14.00" fill="#2f3638">kpu_kmodel_fully_connected</text>
</g>
<!-- ai_step&#45;&gt;kpu_kmodel_fully_connected -->
<g id="edge22" class="edge">
<title>ai_step&#45;&gt;kpu_kmodel_fully_connected</title>
<path fill="none" stroke="#666666" d="M827.6,-207.34C836.17,-206.86 845.04,-206.37 853.93,-205.88"/>
<polygon fill="#666666" stroke="#666666" points="854.18,-209.37 863.97,-205.32 853.79,-202.38 854.18,-209.37"/>
</g>
<!-- kpu_upload -->
<g id="node23" class="node">
<title>kpu_upload</title>
<path fill="none" stroke="#1c2123" d="M985.5,-164.28C985.5,-164.28 926.5,-164.28 926.5,-164.28 920.5,-164.28 914.5,-158.28 914.5,-152.28 914.5,-152.28 914.5,-140.28 914.5,-140.28 914.5,-134.28 920.5,-128.28 926.5,-128.28 926.5,-128.28 985.5,-128.28 985.5,-128.28 991.5,-128.28 997.5,-134.28 997.5,-140.28 997.5,-140.28 997.5,-152.28 997.5,-152.28 997.5,-158.28 991.5,-164.28 985.5,-164.28"/>
<text text-anchor="middle" x="956" y="-142.58" font-family="Times,serif" font-size="14.00" fill="#2f3638">kpu_upload</text>
</g>
<!-- ai_step&#45;&gt;kpu_upload -->
<g id="edge23" class="edge">
<title>ai_step&#45;&gt;kpu_upload</title>
<path fill="none" stroke="#666666" d="M827.74,-185.52C839.8,-181.32 852.23,-177.1 864,-173.28 876.99,-169.06 891.11,-164.74 904.26,-160.83"/>
<polygon fill="#666666" stroke="#666666" points="905.49,-164.12 914.09,-157.93 903.51,-157.4 905.49,-164.12"/>
</g>
<!-- kpu_kmodel_done -->
<g id="node24" class="node">
<title>kpu_kmodel_done</title>
<path fill="none" stroke="#1c2123" d="M1501.5,-244.28C1501.5,-244.28 1404.5,-244.28 1404.5,-244.28 1398.5,-244.28 1392.5,-238.28 1392.5,-232.28 1392.5,-232.28 1392.5,-220.28 1392.5,-220.28 1392.5,-214.28 1398.5,-208.28 1404.5,-208.28 1404.5,-208.28 1501.5,-208.28 1501.5,-208.28 1507.5,-208.28 1513.5,-214.28 1513.5,-220.28 1513.5,-220.28 1513.5,-232.28 1513.5,-232.28 1513.5,-238.28 1507.5,-244.28 1501.5,-244.28"/>
<text text-anchor="middle" x="1453" y="-222.58" font-family="Times,serif" font-size="14.00" fill="#2f3638">kpu_kmodel_done</text>
</g>
<!-- ai_step&#45;&gt;kpu_kmodel_done -->
<g id="edge24" class="edge">
<title>ai_step&#45;&gt;kpu_kmodel_done</title>
<path fill="none" stroke="#666666" d="M819.22,-180.72C822.44,-177.81 825.41,-174.67 828,-171.28 868.07,-118.87 812,-67.88 864,-27.28 928.46,23.05 968.35,-8.73 1048,-27.28 1195.21,-61.57 1350.47,-157.55 1417.68,-202.5"/>
<polygon fill="#666666" stroke="#666666" points="1415.94,-205.55 1426.19,-208.23 1419.85,-199.74 1415.94,-205.55"/>
</g>
<!-- kpu_upload_core -->
<g id="node15" class="node">
<title>kpu_upload_core</title>
<path fill="none" stroke="#1c2123" d="M695,-468.78C695,-468.78 816,-468.78 816,-468.78 822,-468.78 828,-474.78 828,-480.78 828,-480.78 828,-539.78 828,-539.78 828,-545.78 822,-551.78 816,-551.78 816,-551.78 695,-551.78 695,-551.78 689,-551.78 683,-545.78 683,-539.78 683,-539.78 683,-480.78 683,-480.78 683,-474.78 689,-468.78 695,-468.78"/>
<text text-anchor="start" x="691" y="-536.58" font-family="Times,serif" font-size="14.00" fill="#2f3638">kpu_upload_core</text>
<text text-anchor="start" x="691" y="-521.58" font-family="Times,serif" font-size="14.00" fill="#2f3638"> 将数据从src搬到dest</text>
<text text-anchor="start" x="691" y="-506.58" font-family="Times,serif" font-size="14.00" fill="#2f3638"> dest base 地址为</text>
<text text-anchor="start" x="691" y="-491.58" font-family="Times,serif" font-size="14.00" fill="#2f3638"> AI_IO_BASE_ADDR</text>
<text text-anchor="start" x="691" y="-476.58" font-family="Times,serif" font-size="14.00" fill="#2f3638"> + kpu_addr * 64</text>
</g>
<!-- kpu_kmodel_input_with_padding&#45;&gt;kpu_upload_core -->
<g id="edge14" class="edge">
<title>kpu_kmodel_input_with_padding&#45;&gt;kpu_upload_core</title>
<path fill="none" stroke="#666666" d="M615.97,-464.35C626.41,-467.22 637.01,-470.24 647,-473.28 655.53,-475.87 664.39,-478.7 673.21,-481.6"/>
<polygon fill="#666666" stroke="#666666" points="672.15,-484.94 682.74,-484.77 674.36,-478.29 672.15,-484.94"/>
</g>
<!-- kpu_input_dma&#45;&gt;ai_step -->
<g id="edge39" class="edge">
<title>kpu_input_dma&#45;&gt;ai_step</title>
<path fill="none" stroke="#666666" d="M620.66,-340.42C629.83,-335.53 638.84,-330.13 647,-324.28 665.91,-310.72 666.97,-303.14 683,-286.28 694.39,-274.3 706.81,-261.26 718.06,-249.46"/>
<polygon fill="#666666" stroke="#666666" points="720.89,-251.56 725.26,-241.91 715.82,-246.73 720.89,-251.56"/>
</g>
<!-- dmac_set_irq -->
<g id="node26" class="node">
<title>dmac_set_irq</title>
<path fill="none" stroke="#1c2123" d="M1243,-244.28C1243,-244.28 1175,-244.28 1175,-244.28 1169,-244.28 1163,-238.28 1163,-232.28 1163,-232.28 1163,-220.28 1163,-220.28 1163,-214.28 1169,-208.28 1175,-208.28 1175,-208.28 1243,-208.28 1243,-208.28 1249,-208.28 1255,-214.28 1255,-220.28 1255,-220.28 1255,-232.28 1255,-232.28 1255,-238.28 1249,-244.28 1243,-244.28"/>
<text text-anchor="middle" x="1209" y="-222.58" font-family="Times,serif" font-size="14.00" fill="#2f3638">dmac_set_irq</text>
</g>
<!-- kpu_input_dma&#45;&gt;dmac_set_irq -->
<g id="edge37" class="edge">
<title>kpu_input_dma&#45;&gt;dmac_set_irq</title>
<path fill="none" stroke="#666666" d="M620.74,-358.71C756.4,-336.05 1028.59,-289.92 1048,-281.28 1066.52,-273.03 1065.64,-261.87 1084,-253.28 1105.46,-243.24 1130.77,-236.87 1152.91,-232.85"/>
<polygon fill="#666666" stroke="#666666" points="1153.56,-236.29 1162.83,-231.17 1152.39,-229.39 1153.56,-236.29"/>
</g>
<!-- dmac_set_single_mode -->
<g id="node28" class="node">
<title>dmac_set_single_mode</title>
<path fill="none" stroke="#1c2123" d="M1271,-460.28C1271,-460.28 1147,-460.28 1147,-460.28 1141,-460.28 1135,-454.28 1135,-448.28 1135,-448.28 1135,-436.28 1135,-436.28 1135,-430.28 1141,-424.28 1147,-424.28 1147,-424.28 1271,-424.28 1271,-424.28 1277,-424.28 1283,-430.28 1283,-436.28 1283,-436.28 1283,-448.28 1283,-448.28 1283,-454.28 1277,-460.28 1271,-460.28"/>
<text text-anchor="middle" x="1209" y="-438.58" font-family="Times,serif" font-size="14.00" fill="#2f3638">dmac_set_single_mode</text>
</g>
<!-- kpu_input_dma&#45;&gt;dmac_set_single_mode -->
<g id="edge38" class="edge">
<title>kpu_input_dma&#45;&gt;dmac_set_single_mode</title>
<path fill="none" stroke="#666666" d="M620.73,-379.39C745.78,-392.78 994.49,-419.41 1124.48,-433.33"/>
<polygon fill="#666666" stroke="#666666" points="1124.45,-436.85 1134.77,-434.44 1125.2,-429.89 1124.45,-436.85"/>
</g>
<!-- memcpy -->
<g id="node14" class="node">
<title>memcpy</title>
<path fill="none" stroke="#1c2123" d="M776,-54.28C776,-54.28 735,-54.28 735,-54.28 729,-54.28 723,-48.28 723,-42.28 723,-42.28 723,-30.28 723,-30.28 723,-24.28 729,-18.28 735,-18.28 735,-18.28 776,-18.28 776,-18.28 782,-18.28 788,-24.28 788,-30.28 788,-30.28 788,-42.28 788,-42.28 788,-48.28 782,-54.28 776,-54.28"/>
<text text-anchor="middle" x="755.5" y="-32.58" font-family="Times,serif" font-size="14.00" fill="#2f3638">memcpy</text>
</g>
<!-- kpu_kmodel_input_float&#45;&gt;memcpy -->
<g id="edge13" class="edge">
<title>kpu_kmodel_input_float&#45;&gt;memcpy</title>
<path fill="none" stroke="#666666" d="M621.23,-54.09C652.21,-49.95 686.8,-45.33 712.98,-41.83"/>
<polygon fill="#666666" stroke="#666666" points="713.48,-45.29 722.93,-40.5 712.55,-38.35 713.48,-45.29"/>
</g>
<!-- ai_step_not_isr&#45;&gt;ai_step -->
<g id="edge35" class="edge">
<title>ai_step_not_isr&#45;&gt;ai_step</title>
<path fill="none" stroke="#666666" d="M595.18,-161.09C618.68,-168.49 647.27,-177.5 673.71,-185.83"/>
<polygon fill="#666666" stroke="#666666" points="672.75,-189.19 683.34,-188.86 674.85,-182.52 672.75,-189.19"/>
</g>
<!-- sysctl_disable_irq -->
<g id="node32" class="node">
<title>sysctl_disable_irq</title>
<path fill="none" stroke="#1c2123" d="M802.5,-162.28C802.5,-162.28 708.5,-162.28 708.5,-162.28 702.5,-162.28 696.5,-156.28 696.5,-150.28 696.5,-150.28 696.5,-138.28 696.5,-138.28 696.5,-132.28 702.5,-126.28 708.5,-126.28 708.5,-126.28 802.5,-126.28 802.5,-126.28 808.5,-126.28 814.5,-132.28 814.5,-138.28 814.5,-138.28 814.5,-150.28 814.5,-150.28 814.5,-156.28 808.5,-162.28 802.5,-162.28"/>
<text text-anchor="middle" x="755.5" y="-140.58" font-family="Times,serif" font-size="14.00" fill="#2f3638">sysctl_disable_irq</text>
</g>
<!-- ai_step_not_isr&#45;&gt;sysctl_disable_irq -->
<g id="edge40" class="edge">
<title>ai_step_not_isr&#45;&gt;sysctl_disable_irq</title>
<path fill="none" stroke="#666666" d="M595.18,-145.04C622.36,-144.91 656.34,-144.75 685.93,-144.6"/>
<polygon fill="#666666" stroke="#666666" points="686.21,-148.1 696.19,-144.56 686.18,-141.1 686.21,-148.1"/>
</g>
<!-- sysctl_enable_irq -->
<g id="node33" class="node">
<title>sysctl_enable_irq</title>
<path fill="none" stroke="#1c2123" d="M800.5,-108.28C800.5,-108.28 710.5,-108.28 710.5,-108.28 704.5,-108.28 698.5,-102.28 698.5,-96.28 698.5,-96.28 698.5,-84.28 698.5,-84.28 698.5,-78.28 704.5,-72.28 710.5,-72.28 710.5,-72.28 800.5,-72.28 800.5,-72.28 806.5,-72.28 812.5,-78.28 812.5,-84.28 812.5,-84.28 812.5,-96.28 812.5,-96.28 812.5,-102.28 806.5,-108.28 800.5,-108.28"/>
<text text-anchor="middle" x="755.5" y="-86.58" font-family="Times,serif" font-size="14.00" fill="#2f3638">sysctl_enable_irq</text>
</g>
<!-- ai_step_not_isr&#45;&gt;sysctl_enable_irq -->
<g id="edge41" class="edge">
<title>ai_step_not_isr&#45;&gt;sysctl_enable_irq</title>
<path fill="none" stroke="#666666" d="M595.18,-132.1C623.13,-124.77 658.27,-115.54 688.44,-107.62"/>
<polygon fill="#666666" stroke="#666666" points="689.67,-110.91 698.46,-104.99 687.9,-104.14 689.67,-110.91"/>
</g>
<!-- UPLOAD_BEGIN -->
<g id="node16" class="node">
<title>UPLOAD_BEGIN</title>
<path fill="none" stroke="#1c2123" d="M1005.5,-482.28C1005.5,-482.28 906.5,-482.28 906.5,-482.28 900.5,-482.28 894.5,-476.28 894.5,-470.28 894.5,-470.28 894.5,-458.28 894.5,-458.28 894.5,-452.28 900.5,-446.28 906.5,-446.28 906.5,-446.28 1005.5,-446.28 1005.5,-446.28 1011.5,-446.28 1017.5,-452.28 1017.5,-458.28 1017.5,-458.28 1017.5,-470.28 1017.5,-470.28 1017.5,-476.28 1011.5,-482.28 1005.5,-482.28"/>
<text text-anchor="middle" x="956" y="-460.58" font-family="Times,serif" font-size="14.00" fill="#2f3638">UPLOAD_BEGIN</text>
</g>
<!-- kpu_upload_core&#45;&gt;UPLOAD_BEGIN -->
<g id="edge15" class="edge">
<title>kpu_upload_core&#45;&gt;UPLOAD_BEGIN</title>
<path fill="none" stroke="#666666" d="M828.16,-493.67C846.43,-489.44 866.06,-484.89 884.28,-480.66"/>
<polygon fill="#666666" stroke="#666666" points="885.29,-484.02 894.25,-478.36 883.71,-477.2 885.29,-484.02"/>
</g>
<!-- UPLOAD_END -->
<g id="node17" class="node">
<title>UPLOAD_END</title>
<path fill="none" stroke="#1c2123" d="M998.5,-616.28C998.5,-616.28 913.5,-616.28 913.5,-616.28 907.5,-616.28 901.5,-610.28 901.5,-604.28 901.5,-604.28 901.5,-592.28 901.5,-592.28 901.5,-586.28 907.5,-580.28 913.5,-580.28 913.5,-580.28 998.5,-580.28 998.5,-580.28 1004.5,-580.28 1010.5,-586.28 1010.5,-592.28 1010.5,-592.28 1010.5,-604.28 1010.5,-604.28 1010.5,-610.28 1004.5,-616.28 998.5,-616.28"/>
<text text-anchor="middle" x="956" y="-594.58" font-family="Times,serif" font-size="14.00" fill="#2f3638">UPLOAD_END</text>
</g>
<!-- kpu_upload_core&#45;&gt;UPLOAD_END -->
<g id="edge16" class="edge">
<title>kpu_upload_core&#45;&gt;UPLOAD_END</title>
<path fill="none" stroke="#666666" d="M824.42,-551.88C837.31,-558.89 850.87,-565.69 864,-571.28 872.78,-575.01 882.24,-578.44 891.63,-581.51"/>
<polygon fill="#666666" stroke="#666666" points="890.76,-584.9 901.35,-584.57 892.86,-578.23 890.76,-584.9"/>
</g>
<!-- AI_IO_BASE_ADDR -->
<g id="node18" class="node">
<title>AI_IO_BASE_ADDR</title>
<path fill="none" stroke="#1c2123" d="M890,-500.78C890,-500.78 1022,-500.78 1022,-500.78 1028,-500.78 1034,-506.78 1034,-512.78 1034,-512.78 1034,-549.78 1034,-549.78 1034,-555.78 1028,-561.78 1022,-561.78 1022,-561.78 890,-561.78 890,-561.78 884,-561.78 878,-555.78 878,-549.78 878,-549.78 878,-512.78 878,-512.78 878,-506.78 884,-500.78 890,-500.78"/>
<text text-anchor="start" x="886" y="-546.58" font-family="Times,serif" font-size="14.00" fill="#2f3638">AI_IO_BASE_ADDR</text>
<text text-anchor="start" x="886" y="-531.58" font-family="Times,serif" font-size="14.00" fill="#2f3638"> 基地址为0x40600000U</text>
<polyline fill="none" stroke="#1c2123" points="878,-523.78 1034,-523.78 "/>
<text text-anchor="start" x="886" y="-508.58" font-family="Times,serif" font-size="14.00" fill="#2f3638">AI_IO_SIZE为2M</text>
</g>
<!-- kpu_upload_core&#45;&gt;AI_IO_BASE_ADDR -->
<g id="edge17" class="edge">
<title>kpu_upload_core&#45;&gt;AI_IO_BASE_ADDR</title>
<path fill="none" stroke="#666666" d="M828.16,-517.86C840.99,-519.22 854.49,-520.64 867.71,-522.04"/>
<polygon fill="#666666" stroke="#666666" points="867.43,-525.53 877.74,-523.1 868.16,-518.57 867.43,-525.53"/>
</g>
<!-- sysctl_dam_select -->
<g id="node25" class="node">
<title>sysctl_dam_select</title>
<path fill="none" stroke="#1c2123" d="M1256,-406.28C1256,-406.28 1162,-406.28 1162,-406.28 1156,-406.28 1150,-400.28 1150,-394.28 1150,-394.28 1150,-382.28 1150,-382.28 1150,-376.28 1156,-370.28 1162,-370.28 1162,-370.28 1256,-370.28 1256,-370.28 1262,-370.28 1268,-376.28 1268,-382.28 1268,-382.28 1268,-394.28 1268,-394.28 1268,-400.28 1262,-406.28 1256,-406.28"/>
<text text-anchor="middle" x="1209" y="-384.58" font-family="Times,serif" font-size="14.00" fill="#2f3638">sysctl_dam_select</text>
</g>
<!-- kpu_conv&#45;&gt;sysctl_dam_select -->
<g id="edge25" class="edge">
<title>kpu_conv&#45;&gt;sysctl_dam_select</title>
<path fill="none" stroke="#666666" d="M1024.26,-367.05C1059.95,-371.17 1103.71,-376.23 1139.56,-380.37"/>
<polygon fill="#666666" stroke="#666666" points="1139.6,-383.9 1149.94,-381.57 1140.41,-376.94 1139.6,-383.9"/>
</g>
<!-- kpu_conv&#45;&gt;dmac_set_irq -->
<g id="edge26" class="edge">
<title>kpu_conv&#45;&gt;dmac_set_irq</title>
<path fill="none" stroke="#666666" d="M1024.07,-331.82C1032.65,-326.71 1040.9,-320.87 1048,-314.28 1071.07,-292.86 1058.49,-271.72 1084,-253.28 1103.83,-238.94 1129.79,-231.96 1152.84,-228.65"/>
<polygon fill="#666666" stroke="#666666" points="1153.35,-232.12 1162.84,-227.42 1152.49,-225.17 1153.35,-232.12"/>
</g>
<!-- SYSCTL_DAM_SELECT_AI_RX_REQ -->
<g id="node27" class="node">
<title>SYSCTL_DAM_SELECT_AI_RX_REQ</title>
<path fill="none" stroke="#1c2123" d="M1322,-352.28C1322,-352.28 1096,-352.28 1096,-352.28 1090,-352.28 1084,-346.28 1084,-340.28 1084,-340.28 1084,-328.28 1084,-328.28 1084,-322.28 1090,-316.28 1096,-316.28 1096,-316.28 1322,-316.28 1322,-316.28 1328,-316.28 1334,-322.28 1334,-328.28 1334,-328.28 1334,-340.28 1334,-340.28 1334,-346.28 1328,-352.28 1322,-352.28"/>
<text text-anchor="middle" x="1209" y="-330.58" font-family="Times,serif" font-size="14.00" fill="#2f3638">SYSCTL_DAM_SELECT_AI_RX_REQ</text>
</g>
<!-- kpu_conv&#45;&gt;SYSCTL_DAM_SELECT_AI_RX_REQ -->
<g id="edge27" class="edge">
<title>kpu_conv&#45;&gt;SYSCTL_DAM_SELECT_AI_RX_REQ</title>
<path fill="none" stroke="#666666" d="M1024.26,-352.58C1039.68,-351.04 1056.6,-349.36 1073.74,-347.65"/>
<polygon fill="#666666" stroke="#666666" points="1074.25,-351.12 1083.85,-346.64 1073.56,-344.15 1074.25,-351.12"/>
</g>
<!-- kpu_conv&#45;&gt;dmac_set_single_mode -->
<g id="edge28" class="edge">
<title>kpu_conv&#45;&gt;dmac_set_single_mode</title>
<path fill="none" stroke="#666666" d="M1019.66,-389.89C1039.86,-398.95 1062.58,-408.3 1084,-415.28 1097.06,-419.53 1111.12,-423.32 1124.91,-426.61"/>
<polygon fill="#666666" stroke="#666666" points="1124.36,-430.07 1134.89,-428.91 1125.94,-423.25 1124.36,-430.07"/>
</g>
<!-- kpu_send_layer -->
<g id="node29" class="node">
<title>kpu_send_layer</title>
<path fill="none" stroke="#1c2123" d="M1249.5,-298.28C1249.5,-298.28 1168.5,-298.28 1168.5,-298.28 1162.5,-298.28 1156.5,-292.28 1156.5,-286.28 1156.5,-286.28 1156.5,-274.28 1156.5,-274.28 1156.5,-268.28 1162.5,-262.28 1168.5,-262.28 1168.5,-262.28 1249.5,-262.28 1249.5,-262.28 1255.5,-262.28 1261.5,-268.28 1261.5,-274.28 1261.5,-274.28 1261.5,-286.28 1261.5,-286.28 1261.5,-292.28 1255.5,-298.28 1249.5,-298.28"/>
<text text-anchor="middle" x="1209" y="-276.58" font-family="Times,serif" font-size="14.00" fill="#2f3638">kpu_send_layer</text>
</g>
<!-- kpu_conv&#45;&gt;kpu_send_layer -->
<g id="edge29" class="edge">
<title>kpu_conv&#45;&gt;kpu_send_layer</title>
<path fill="none" stroke="#666666" d="M1024.09,-329.26C1043.2,-321.41 1064.21,-313.43 1084,-307.28 1104.07,-301.04 1126.4,-295.7 1146.51,-291.46"/>
<polygon fill="#666666" stroke="#666666" points="1147.41,-294.84 1156.5,-289.4 1146,-287.99 1147.41,-294.84"/>
</g>
<!-- kpu_kmodel_done&#45;&gt;kpu_model_context_t__done_callback -->
<g id="edge33" class="edge">
<title>kpu_kmodel_done&#45;&gt;kpu_model_context_t__done_callback</title>
<path fill="none" stroke="#666666" d="M1513.8,-241.3C1521.63,-244.58 1529.26,-248.54 1536,-253.28 1600.18,-298.42 1650.23,-378.6 1673.41,-420.34"/>
<polygon fill="#666666" stroke="#666666" points="1670.33,-422.02 1678.2,-429.12 1676.48,-418.67 1670.33,-422.02"/>
</g>
<!-- dmac_set_irq&#45;&gt;ai_step -->
<g id="edge31" class="edge">
<title>dmac_set_irq&#45;&gt;ai_step</title>
<path fill="none" stroke="#666666" d="M1189.29,-208.21C1161.28,-182.55 1105.56,-136.75 1048,-119.28 969.75,-95.52 936.44,-81.32 864,-119.28 839.1,-132.32 848.8,-152.37 828,-171.28 826.88,-172.29 825.73,-173.29 824.56,-174.28"/>
<polygon fill="#666666" stroke="#666666" points="822.24,-171.65 816.48,-180.54 826.52,-177.18 822.24,-171.65"/>
</g>
<!-- dmac_set_irq&#45;&gt;kpu_kmodel_done -->
<g id="edge32" class="edge">
<title>dmac_set_irq&#45;&gt;kpu_kmodel_done</title>
<path fill="none" stroke="#666666" d="M1255.23,-226.28C1290.93,-226.28 1341.33,-226.28 1382.19,-226.28"/>
<polygon fill="#666666" stroke="#666666" points="1382.36,-229.78 1392.36,-226.28 1382.36,-222.78 1382.36,-229.78"/>
</g>
<!-- kpu__layer_argument_fifo -->
<g id="node30" class="node">
<title>kpu__layer_argument_fifo</title>
<path fill="none" stroke="#1c2123" d="M1524,-298.28C1524,-298.28 1382,-298.28 1382,-298.28 1376,-298.28 1370,-292.28 1370,-286.28 1370,-286.28 1370,-274.28 1370,-274.28 1370,-268.28 1376,-262.28 1382,-262.28 1382,-262.28 1524,-262.28 1524,-262.28 1530,-262.28 1536,-268.28 1536,-274.28 1536,-274.28 1536,-286.28 1536,-286.28 1536,-292.28 1530,-298.28 1524,-298.28"/>
<text text-anchor="middle" x="1453" y="-276.58" font-family="Times,serif" font-size="14.00" fill="#2f3638">kpu__layer_argument_fifo</text>
</g>
<!-- kpu_send_layer&#45;&gt;kpu__layer_argument_fifo -->
<g id="edge30" class="edge">
<title>kpu_send_layer&#45;&gt;kpu__layer_argument_fifo</title>
<path fill="none" stroke="#666666" d="M1261.62,-280.28C1290.17,-280.28 1326.52,-280.28 1359.78,-280.28"/>
<polygon fill="#666666" stroke="#666666" points="1359.99,-283.78 1369.99,-280.28 1359.99,-276.78 1359.99,-283.78"/>
</g>
</g>
</svg>
