<?xml version="1.0" encoding="UTF-8" standalone="no"?>
<!DOCTYPE svg PUBLIC "-//W3C//DTD SVG 1.1//EN"
 "http://www.w3.org/Graphics/SVG/1.1/DTD/svg11.dtd">
<!-- Generated by graphviz version 2.49.3 (20211023.0002)
 -->
<!-- Title: dig Pages: 1 -->
<svg width="858pt" height="349pt"
 viewBox="0.00 0.00 858.00 348.50" xmlns="http://www.w3.org/2000/svg" xmlns:xlink="http://www.w3.org/1999/xlink">
<g id="graph0" class="graph" transform="scale(1 1) rotate(0) translate(4 344.5)">
<title>dig</title>
<polygon fill="white" stroke="transparent" points="-4,4 -4,-344.5 854,-344.5 854,4 -4,4"/>
<!-- _target -->
<g id="node1" class="node">
<title>_target</title>
<path fill="none" stroke="#1c2123" d="M12,-18C12,-18 308,-18 308,-18 314,-18 320,-24 320,-30 320,-30 320,-328 320,-328 320,-334 314,-340 308,-340 308,-340 12,-340 12,-340 6,-340 0,-334 0,-328 0,-328 0,-30 0,-30 0,-24 6,-18 12,-18"/>
<text text-anchor="start" x="8" y="-324.8" font-family="Times,serif" font-size="14.00" fill="#2f3638">target</text>
<polyline fill="none" stroke="#1c2123" points="0,-317 320,-317 "/>
<text text-anchor="start" x="8" y="-301.8" font-family="Times,serif" font-size="14.00" fill="#2f3638">register_allocators</text>
<polyline fill="none" stroke="#1c2123" points="0,-294 320,-294 "/>
<text text-anchor="start" x="8" y="-278.8" font-family="Times,serif" font-size="14.00" fill="#2f3638">register_evaluator_ops</text>
<polyline fill="none" stroke="#1c2123" points="0,-271 320,-271 "/>
<text text-anchor="start" x="8" y="-255.8" font-family="Times,serif" font-size="14.00" fill="#2f3638">register_target_independent_passes</text>
<polyline fill="none" stroke="#1c2123" points="0,-248 320,-248 "/>
<text text-anchor="start" x="8" y="-232.8" font-family="Times,serif" font-size="14.00" fill="#2f3638">register_target_dependent_passes</text>
<polyline fill="none" stroke="#1c2123" points="0,-225 320,-225 "/>
<text text-anchor="start" x="8" y="-209.8" font-family="Times,serif" font-size="14.00" fill="#2f3638">create_quantizer</text>
<polyline fill="none" stroke="#1c2123" points="0,-202 320,-202 "/>
<text text-anchor="start" x="8" y="-186.8" font-family="Times,serif" font-size="14.00" fill="#2f3638">register_quantize_passes</text>
<polyline fill="none" stroke="#1c2123" points="0,-179 320,-179 "/>
<text text-anchor="start" x="8" y="-163.8" font-family="Times,serif" font-size="14.00" fill="#2f3638">register_target_dependent_after_quantization_passes</text>
<polyline fill="none" stroke="#1c2123" points="0,-156 320,-156 "/>
<text text-anchor="start" x="8" y="-140.8" font-family="Times,serif" font-size="14.00" fill="#2f3638">register_target_dependent_after_buffer_fusion_passes</text>
<polyline fill="none" stroke="#1c2123" points="0,-133 320,-133 "/>
<text text-anchor="start" x="8" y="-117.8" font-family="Times,serif" font-size="14.00" fill="#2f3638">register_allocation_passes</text>
<polyline fill="none" stroke="#1c2123" points="0,-110 320,-110 "/>
<text text-anchor="start" x="8" y="-94.8" font-family="Times,serif" font-size="14.00" fill="#2f3638">create_module_builder</text>
<polyline fill="none" stroke="#1c2123" points="0,-87 320,-87 "/>
<text text-anchor="start" x="8" y="-71.8" font-family="Times,serif" font-size="14.00" fill="#2f3638">add_quantization_broadcast</text>
<polyline fill="none" stroke="#1c2123" points="0,-64 320,-64 "/>
<text text-anchor="start" x="8" y="-48.8" font-family="Times,serif" font-size="14.00" fill="#2f3638">config_attributes</text>
<polyline fill="none" stroke="#1c2123" points="0,-41 320,-41 "/>
<text text-anchor="start" x="8" y="-25.8" font-family="Times,serif" font-size="14.00" fill="#2f3638">on_create_options</text>
</g>
<!-- neutral_target -->
<g id="node2" class="node">
<title>neutral_target</title>
<path fill="none" stroke="#1c2123" d="M368,-148.5C368,-148.5 524,-148.5 524,-148.5 530,-148.5 536,-154.5 536,-160.5 536,-160.5 536,-251.5 536,-251.5 536,-257.5 530,-263.5 524,-263.5 524,-263.5 368,-263.5 368,-263.5 362,-263.5 356,-257.5 356,-251.5 356,-251.5 356,-160.5 356,-160.5 356,-154.5 362,-148.5 368,-148.5"/>
<text text-anchor="start" x="364" y="-248.3" font-family="Times,serif" font-size="14.00" fill="#2f3638">neutral_target</text>
<polyline fill="none" stroke="#1c2123" points="356,-240.5 536,-240.5 "/>
<text text-anchor="start" x="364" y="-225.3" font-family="Times,serif" font-size="14.00" fill="#2f3638">move_transpose_transform</text>
<polyline fill="none" stroke="#1c2123" points="356,-217.5 536,-217.5 "/>
<text text-anchor="start" x="364" y="-202.3" font-family="Times,serif" font-size="14.00" fill="#2f3638">fold_pad_conv_transform</text>
<polyline fill="none" stroke="#1c2123" points="356,-194.5 536,-194.5 "/>
<text text-anchor="start" x="364" y="-179.3" font-family="Times,serif" font-size="14.00" fill="#2f3638">fold_dilated_conv_transform</text>
<polyline fill="none" stroke="#1c2123" points="356,-171.5 536,-171.5 "/>
<text text-anchor="start" x="364" y="-156.3" font-family="Times,serif" font-size="14.00" fill="#2f3638">add_default_transforms</text>
</g>
<!-- _target&#45;&gt;neutral_target -->
<g id="edge1" class="edge">
<title>_target&#45;&gt;neutral_target</title>
<path fill="none" stroke="#666666" d="M320.02,-194.12C328.67,-194.94 337.24,-195.75 345.58,-196.55"/>
<polygon fill="#666666" stroke="#666666" points="345.37,-200.04 355.65,-197.51 346.03,-193.07 345.37,-200.04"/>
</g>
<!-- module_builder -->
<g id="node5" class="node">
<title>module_builder</title>
<path fill="none" stroke="#1c2123" d="M395.5,-14.5C395.5,-14.5 496.5,-14.5 496.5,-14.5 502.5,-14.5 508.5,-20.5 508.5,-26.5 508.5,-26.5 508.5,-117.5 508.5,-117.5 508.5,-123.5 502.5,-129.5 496.5,-129.5 496.5,-129.5 395.5,-129.5 395.5,-129.5 389.5,-129.5 383.5,-123.5 383.5,-117.5 383.5,-117.5 383.5,-26.5 383.5,-26.5 383.5,-20.5 389.5,-14.5 395.5,-14.5"/>
<text text-anchor="start" x="391.5" y="-114.3" font-family="Times,serif" font-size="14.00" fill="#2f3638">module_builder</text>
<polyline fill="none" stroke="#1c2123" points="383.5,-106.5 508.5,-106.5 "/>
<text text-anchor="start" x="391.5" y="-91.3" font-family="Times,serif" font-size="14.00" fill="#2f3638">entry_points_</text>
<polyline fill="none" stroke="#1c2123" points="383.5,-83.5 508.5,-83.5 "/>
<text text-anchor="start" x="391.5" y="-68.3" font-family="Times,serif" font-size="14.00" fill="#2f3638">function_text_end_</text>
<polyline fill="none" stroke="#1c2123" points="383.5,-60.5 508.5,-60.5 "/>
<text text-anchor="start" x="391.5" y="-45.3" font-family="Times,serif" font-size="14.00" fill="#2f3638">symbol_offsets_</text>
<polyline fill="none" stroke="#1c2123" points="383.5,-37.5 508.5,-37.5 "/>
<text text-anchor="start" x="391.5" y="-22.3" font-family="Times,serif" font-size="14.00" fill="#2f3638">current_function_</text>
</g>
<!-- _target&#45;&gt;module_builder -->
<g id="edge8" class="edge">
<title>_target:module_builder&#45;&gt;module_builder</title>
<path fill="none" stroke="#666666" d="M320,-98C337.42,-98 355.92,-95.55 373.2,-92.15"/>
<polygon fill="#666666" stroke="#666666" points="374.14,-95.53 383.21,-90.06 372.71,-88.68 374.14,-95.53"/>
</g>
<!-- cpu_target -->
<g id="node3" class="node">
<title>cpu_target</title>
<path fill="none" stroke="#1c2123" d="M677,-265C677,-265 626,-265 626,-265 620,-265 614,-259 614,-253 614,-253 614,-241 614,-241 614,-235 620,-229 626,-229 626,-229 677,-229 677,-229 683,-229 689,-235 689,-241 689,-241 689,-253 689,-253 689,-259 683,-265 677,-265"/>
<text text-anchor="middle" x="651.5" y="-243.3" font-family="Times,serif" font-size="14.00" fill="#2f3638">cpu_target</text>
</g>
<!-- neutral_target&#45;&gt;cpu_target -->
<g id="edge2" class="edge">
<title>neutral_target&#45;&gt;cpu_target</title>
<path fill="none" stroke="#666666" d="M536.26,-223.98C559.65,-228.7 583.93,-233.59 604.06,-237.64"/>
<polygon fill="#666666" stroke="#666666" points="603.39,-241.08 613.88,-239.62 604.77,-234.22 603.39,-241.08"/>
</g>
<!-- vulkan_target -->
<g id="node4" class="node">
<title>vulkan_target</title>
<path fill="none" stroke="#1c2123" d="M686,-211C686,-211 617,-211 617,-211 611,-211 605,-205 605,-199 605,-199 605,-187 605,-187 605,-181 611,-175 617,-175 617,-175 686,-175 686,-175 692,-175 698,-181 698,-187 698,-187 698,-199 698,-199 698,-205 692,-211 686,-211"/>
<text text-anchor="middle" x="651.5" y="-189.3" font-family="Times,serif" font-size="14.00" fill="#2f3638">vulkan_target</text>
</g>
<!-- neutral_target&#45;&gt;vulkan_target -->
<g id="edge3" class="edge">
<title>neutral_target&#45;&gt;vulkan_target</title>
<path fill="none" stroke="#666666" d="M536.26,-200.3C556.17,-199.03 576.73,-197.71 594.82,-196.56"/>
<polygon fill="#666666" stroke="#666666" points="595.13,-200.04 604.88,-195.91 594.68,-193.06 595.13,-200.04"/>
</g>
<!-- k210_target -->
<g id="node9" class="node">
<title>k210_target</title>
<path fill="none" stroke="#1c2123" d="M838,-265C838,-265 779,-265 779,-265 773,-265 767,-259 767,-253 767,-253 767,-241 767,-241 767,-235 773,-229 779,-229 779,-229 838,-229 838,-229 844,-229 850,-235 850,-241 850,-241 850,-253 850,-253 850,-259 844,-265 838,-265"/>
<text text-anchor="middle" x="808.5" y="-243.3" font-family="Times,serif" font-size="14.00" fill="#2f3638">k210_target</text>
</g>
<!-- cpu_target&#45;&gt;k210_target -->
<g id="edge7" class="edge">
<title>cpu_target&#45;&gt;k210_target</title>
<path fill="none" stroke="#666666" d="M689.23,-247C709.4,-247 734.73,-247 756.76,-247"/>
<polygon fill="#666666" stroke="#666666" points="756.94,-250.5 766.94,-247 756.94,-243.5 756.94,-250.5"/>
</g>
<!-- stackvm_module_builder -->
<g id="node6" class="node">
<title>stackvm_module_builder</title>
<path fill="none" stroke="#1c2123" d="M719,-144C719,-144 584,-144 584,-144 578,-144 572,-138 572,-132 572,-132 572,-120 572,-120 572,-114 578,-108 584,-108 584,-108 719,-108 719,-108 725,-108 731,-114 731,-120 731,-120 731,-132 731,-132 731,-138 725,-144 719,-144"/>
<text text-anchor="middle" x="651.5" y="-122.3" font-family="Times,serif" font-size="14.00" fill="#2f3638">stackvm_module_builder</text>
</g>
<!-- module_builder&#45;&gt;stackvm_module_builder -->
<g id="edge4" class="edge">
<title>module_builder&#45;&gt;stackvm_module_builder</title>
<path fill="none" stroke="#666666" d="M508.61,-88.35C528.71,-93.68 551.29,-99.67 572.43,-105.28"/>
<polygon fill="#666666" stroke="#666666" points="571.79,-108.73 582.35,-107.92 573.58,-101.97 571.79,-108.73"/>
</g>
<!-- k210_module_builder -->
<g id="node7" class="node">
<title>k210_module_builder</title>
<path fill="none" stroke="#1c2123" d="M709.5,-90C709.5,-90 593.5,-90 593.5,-90 587.5,-90 581.5,-84 581.5,-78 581.5,-78 581.5,-66 581.5,-66 581.5,-60 587.5,-54 593.5,-54 593.5,-54 709.5,-54 709.5,-54 715.5,-54 721.5,-60 721.5,-66 721.5,-66 721.5,-78 721.5,-78 721.5,-84 715.5,-90 709.5,-90"/>
<text text-anchor="middle" x="651.5" y="-68.3" font-family="Times,serif" font-size="14.00" fill="#2f3638">k210_module_builder</text>
</g>
<!-- module_builder&#45;&gt;k210_module_builder -->
<g id="edge5" class="edge">
<title>module_builder&#45;&gt;k210_module_builder</title>
<path fill="none" stroke="#666666" d="M508.61,-72C528.31,-72 550.41,-72 571.19,-72"/>
<polygon fill="#666666" stroke="#666666" points="571.27,-75.5 581.27,-72 571.27,-68.5 571.27,-75.5"/>
</g>
<!-- vulkan_module_builder -->
<g id="node8" class="node">
<title>vulkan_module_builder</title>
<path fill="none" stroke="#1c2123" d="M714.5,-36C714.5,-36 588.5,-36 588.5,-36 582.5,-36 576.5,-30 576.5,-24 576.5,-24 576.5,-12 576.5,-12 576.5,-6 582.5,0 588.5,0 588.5,0 714.5,0 714.5,0 720.5,0 726.5,-6 726.5,-12 726.5,-12 726.5,-24 726.5,-24 726.5,-30 720.5,-36 714.5,-36"/>
<text text-anchor="middle" x="651.5" y="-14.3" font-family="Times,serif" font-size="14.00" fill="#2f3638">vulkan_module_builder</text>
</g>
<!-- module_builder&#45;&gt;vulkan_module_builder -->
<g id="edge6" class="edge">
<title>module_builder&#45;&gt;vulkan_module_builder</title>
<path fill="none" stroke="#666666" d="M508.61,-55.65C528.71,-50.32 551.29,-44.33 572.43,-38.72"/>
<polygon fill="#666666" stroke="#666666" points="573.58,-42.03 582.35,-36.08 571.79,-35.27 573.58,-42.03"/>
</g>
</g>
</svg>
