<?xml version="1.0" encoding="UTF-8" standalone="no"?>
<!DOCTYPE svg PUBLIC "-//W3C//DTD SVG 1.1//EN"
 "http://www.w3.org/Graphics/SVG/1.1/DTD/svg11.dtd">
<!-- Generated by graphviz version 2.44.1 (20200629.0846)
 -->
<!-- Title: enter_joint Pages: 1 -->
<svg width="353pt" height="360pt"
 viewBox="0.00 0.00 353.00 360.00" xmlns="http://www.w3.org/2000/svg" xmlns:xlink="http://www.w3.org/1999/xlink">
<g id="graph0" class="graph" transform="scale(1 1) rotate(0) translate(4 356)">
<title>enter_joint</title>
<polygon fill="white" stroke="transparent" points="-4,4 -4,-356 349,-356 349,4 -4,4"/>
<g id="clust2" class="cluster">
<title>cluster_Changer</title>
<path fill="none" stroke="slategrey" stroke-dasharray="5,2" d="M27.5,-208C27.5,-208 325,-208 325,-208 331,-208 337,-214 337,-220 337,-220 337,-332 337,-332 337,-338 331,-344 325,-344 325,-344 27.5,-344 27.5,-344 21.5,-344 15.5,-338 15.5,-332 15.5,-332 15.5,-220 15.5,-220 15.5,-214 21.5,-208 27.5,-208"/>
<text text-anchor="middle" x="176.25" y="-324" font-family="Times,serif" font-size="20.00">Changer</text>
</g>
<!-- apply_conf_change -->
<g id="node1" class="node">
<title>apply_conf_change</title>
<path fill="none" stroke="#1c2123" d="M110,-117C110,-117 12,-117 12,-117 6,-117 0,-111 0,-105 0,-105 0,-93 0,-93 0,-87 6,-81 12,-81 12,-81 110,-81 110,-81 116,-81 122,-87 122,-93 122,-93 122,-105 122,-105 122,-111 116,-117 110,-117"/>
<text text-anchor="middle" x="61" y="-95.3" font-family="Times,serif" font-size="14.00" fill="#2f3638">apply_conf_change</text>
</g>
<!-- cc_enter_joint -->
<g id="node2" class="node">
<title>cc_enter_joint</title>
<path fill="none" stroke="#1c2123" d="M278.5,-198C278.5,-198 208.5,-198 208.5,-198 202.5,-198 196.5,-192 196.5,-186 196.5,-186 196.5,-174 196.5,-174 196.5,-168 202.5,-162 208.5,-162 208.5,-162 278.5,-162 278.5,-162 284.5,-162 290.5,-168 290.5,-174 290.5,-174 290.5,-186 290.5,-186 290.5,-192 284.5,-198 278.5,-198"/>
<text text-anchor="middle" x="243.5" y="-176.3" font-family="Times,serif" font-size="14.00" fill="#2f3638">cc_enter_joint</text>
</g>
<!-- apply_conf_change&#45;&gt;cc_enter_joint -->
<g id="edge1" class="edge">
<title>apply_conf_change&#45;&gt;cc_enter_joint</title>
<path fill="none" stroke="#666666" d="M90.62,-117.13C109.31,-128.45 134.51,-142.77 158,-153 167.11,-156.97 176.99,-160.65 186.68,-163.94"/>
<polygon fill="#666666" stroke="#666666" points="185.67,-167.29 196.27,-167.09 187.86,-160.64 185.67,-167.29"/>
</g>
<!-- changer_enter_joint -->
<g id="node3" class="node">
<title>changer_enter_joint</title>
<path fill="none" stroke="#1c2123" d="M294,-144C294,-144 193,-144 193,-144 187,-144 181,-138 181,-132 181,-132 181,-120 181,-120 181,-114 187,-108 193,-108 193,-108 294,-108 294,-108 300,-108 306,-114 306,-120 306,-120 306,-132 306,-132 306,-138 300,-144 294,-144"/>
<text text-anchor="middle" x="243.5" y="-122.3" font-family="Times,serif" font-size="14.00" fill="#2f3638">changer_enter_joint</text>
</g>
<!-- apply_conf_change&#45;&gt;changer_enter_joint -->
<g id="edge2" class="edge">
<title>apply_conf_change&#45;&gt;changer_enter_joint</title>
<path fill="none" stroke="#666666" d="M122.1,-107.99C137.73,-110.33 154.72,-112.87 170.88,-115.29"/>
<polygon fill="#666666" stroke="#666666" points="170.4,-118.75 180.81,-116.77 171.44,-111.83 170.4,-118.75"/>
</g>
<!-- apply_conf -->
<g id="node4" class="node">
<title>apply_conf</title>
<path fill="none" stroke="#1c2123" d="M270,-90C270,-90 217,-90 217,-90 211,-90 205,-84 205,-78 205,-78 205,-66 205,-66 205,-60 211,-54 217,-54 217,-54 270,-54 270,-54 276,-54 282,-60 282,-66 282,-66 282,-78 282,-78 282,-84 276,-90 270,-90"/>
<text text-anchor="middle" x="243.5" y="-68.3" font-family="Times,serif" font-size="14.00" fill="#2f3638">apply_conf</text>
</g>
<!-- apply_conf_change&#45;&gt;apply_conf -->
<g id="edge3" class="edge">
<title>apply_conf_change&#45;&gt;apply_conf</title>
<path fill="none" stroke="#666666" d="M122.1,-90.01C145.85,-86.46 172.74,-82.44 195.08,-79.09"/>
<polygon fill="#666666" stroke="#666666" points="195.62,-82.55 204.99,-77.61 194.58,-75.63 195.62,-82.55"/>
</g>
<!-- post_conf_change -->
<g id="node5" class="node">
<title>post_conf_change</title>
<path fill="none" stroke="#1c2123" d="M289,-36C289,-36 198,-36 198,-36 192,-36 186,-30 186,-24 186,-24 186,-12 186,-12 186,-6 192,0 198,0 198,0 289,0 289,0 295,0 301,-6 301,-12 301,-12 301,-24 301,-24 301,-30 295,-36 289,-36"/>
<text text-anchor="middle" x="243.5" y="-14.3" font-family="Times,serif" font-size="14.00" fill="#2f3638">post_conf_change</text>
</g>
<!-- apply_conf_change&#45;&gt;post_conf_change -->
<g id="edge4" class="edge">
<title>apply_conf_change&#45;&gt;post_conf_change</title>
<path fill="none" stroke="#666666" d="M90.62,-80.87C109.31,-69.55 134.51,-55.23 158,-45 163.74,-42.5 169.8,-40.11 175.92,-37.86"/>
<polygon fill="#666666" stroke="#666666" points="177.29,-41.09 185.55,-34.45 174.96,-34.49 177.29,-41.09"/>
</g>
<!-- enter_joint -->
<g id="node6" class="node">
<title>enter_joint</title>
<path fill="none" stroke="#1c2123" d="M86.5,-279C86.5,-279 35.5,-279 35.5,-279 29.5,-279 23.5,-273 23.5,-267 23.5,-267 23.5,-255 23.5,-255 23.5,-249 29.5,-243 35.5,-243 35.5,-243 86.5,-243 86.5,-243 92.5,-243 98.5,-249 98.5,-255 98.5,-255 98.5,-267 98.5,-267 98.5,-273 92.5,-279 86.5,-279"/>
<text text-anchor="middle" x="61" y="-257.3" font-family="Times,serif" font-size="14.00" fill="#2f3638">enter_joint</text>
</g>
<!-- apply -->
<g id="node7" class="node">
<title>apply</title>
<path fill="none" stroke="#1c2123" d="M258.5,-252C258.5,-252 228.5,-252 228.5,-252 222.5,-252 216.5,-246 216.5,-240 216.5,-240 216.5,-228 216.5,-228 216.5,-222 222.5,-216 228.5,-216 228.5,-216 258.5,-216 258.5,-216 264.5,-216 270.5,-222 270.5,-228 270.5,-228 270.5,-240 270.5,-240 270.5,-246 264.5,-252 258.5,-252"/>
<text text-anchor="middle" x="243.5" y="-230.3" font-family="Times,serif" font-size="14.00" fill="#2f3638">apply</text>
</g>
<!-- enter_joint&#45;&gt;apply -->
<g id="edge5" class="edge">
<title>enter_joint&#45;&gt;apply</title>
<path fill="none" stroke="#666666" d="M98.53,-255.54C129.9,-250.84 174.9,-244.11 206.2,-239.43"/>
<polygon fill="#666666" stroke="#666666" points="206.88,-242.87 216.26,-237.93 205.85,-235.94 206.88,-242.87"/>
</g>
<!-- cfg_voters_outgoing_extend -->
<g id="node8" class="node">
<title>cfg_voters_outgoing_extend</title>
<path fill="none" stroke="#1c2123" d="M317,-306C317,-306 170,-306 170,-306 164,-306 158,-300 158,-294 158,-294 158,-282 158,-282 158,-276 164,-270 170,-270 170,-270 317,-270 317,-270 323,-270 329,-276 329,-282 329,-282 329,-294 329,-294 329,-300 323,-306 317,-306"/>
<text text-anchor="middle" x="243.5" y="-284.3" font-family="Times,serif" font-size="14.00" fill="#2f3638">cfg_voters_outgoing_extend</text>
</g>
<!-- enter_joint&#45;&gt;cfg_voters_outgoing_extend -->
<g id="edge6" class="edge">
<title>enter_joint&#45;&gt;cfg_voters_outgoing_extend</title>
<path fill="none" stroke="#666666" d="M98.53,-266.46C112.91,-268.61 130.15,-271.19 147.62,-273.81"/>
<polygon fill="#666666" stroke="#666666" points="147.51,-277.33 157.92,-275.35 148.55,-270.41 147.51,-277.33"/>
</g>
</g>
</svg>
