<?xml version="1.0" encoding="UTF-8" standalone="no"?>
<!DOCTYPE svg PUBLIC "-//W3C//DTD SVG 1.1//EN"
 "http://www.w3.org/Graphics/SVG/1.1/DTD/svg11.dtd">
<!-- Generated by graphviz version 2.44.0 (20200408.0750)
 -->
<!-- Title: blockIO Pages: 1 -->
<svg width="1344pt" height="862pt"
 viewBox="0.00 0.00 1344.00 862.00" xmlns="http://www.w3.org/2000/svg" xmlns:xlink="http://www.w3.org/1999/xlink">
<g id="graph0" class="graph" transform="scale(1 1) rotate(0) translate(4 858)">
<title>blockIO</title>
<polygon fill="white" stroke="transparent" points="-4,4 -4,-858 1340,-858 1340,4 -4,4"/>
<g id="clust1" class="cluster">
<title>cluster_QueryPipeline</title>
<polygon fill="none" stroke="black" points="662.5,-8 662.5,-102 1328,-102 1328,-8 662.5,-8"/>
<text text-anchor="middle" x="995.25" y="-82" font-family="Times,serif" font-size="20.00">QueryPipeline</text>
</g>
<g id="clust2" class="cluster">
<title>cluster_PullingPipelineExecutor</title>
<polygon fill="none" stroke="black" points="662.5,-110 662.5,-312 1267,-312 1267,-110 662.5,-110"/>
<text text-anchor="middle" x="964.75" y="-292" font-family="Times,serif" font-size="20.00">PullingPipelineExecutor</text>
</g>
<g id="clust3" class="cluster">
<title>cluster_PullingAsyncPipelineExecutor</title>
<polygon fill="none" stroke="black" points="865,-530 865,-779 1284,-779 1284,-530 865,-530"/>
<text text-anchor="middle" x="1074.5" y="-759" font-family="Times,serif" font-size="20.00">PullingAsyncPipelineExecutor</text>
</g>
<g id="clust4" class="cluster">
<title>cluster_PipelineExecutingBlockInputStream</title>
<polygon fill="none" stroke="black" points="381.5,-320 381.5,-522 1021,-522 1021,-320 381.5,-320"/>
<text text-anchor="middle" x="701.25" y="-502" font-family="Times,serif" font-size="20.00">PipelineExecutingBlockInputStream</text>
</g>
<g id="clust8" class="cluster">
<title>cluster_BlockIO</title>
<polygon fill="none" stroke="black" points="367,-764 367,-846 484,-846 484,-764 367,-764"/>
<text text-anchor="middle" x="425.5" y="-826" font-family="Times,serif" font-size="20.00">BlockIO</text>
</g>
<g id="clust10" class="cluster">
<title>cluster_TcpHandler</title>
<polygon fill="none" stroke="black" points="8,-530 8,-756 571.5,-756 571.5,-530 8,-530"/>
<text text-anchor="middle" x="289.75" y="-736" font-family="Times,serif" font-size="20.00">TcpHandler</text>
</g>
<g id="clust12" class="cluster">
<title>cluster_AsynchronousBlockInputStream</title>
<polygon fill="none" stroke="black" points="288.5,-538 288.5,-674 563.5,-674 563.5,-538 288.5,-538"/>
<text text-anchor="middle" x="426" y="-654" font-family="Times,serif" font-size="20.00">AsynchronousBlockInputStream</text>
</g>
<!-- pipline_get_header -->
<g id="node1" class="node">
<title>pipline_get_header</title>
<polygon fill="none" stroke="black" points="670.5,-27 670.5,-63 742.5,-63 742.5,-27 670.5,-27"/>
<text text-anchor="middle" x="706.5" y="-41.3" font-family="Times,serif" font-size="14.00">getHeader</text>
</g>
<!-- pipeline_getNumThreads -->
<g id="node2" class="node">
<title>pipeline_getNumThreads</title>
<polygon fill="none" stroke="black" points="1049,-17 1049,-63 1320,-63 1320,-17 1049,-17"/>
<text text-anchor="middle" x="1184.5" y="-47.8" font-family="Times,serif" font-size="14.00">getNumThreads</text>
<polyline fill="none" stroke="black" points="1049,-40 1320,-40 "/>
<text text-anchor="middle" x="1184.5" y="-24.8" font-family="Times,serif" font-size="14.00">如果线程数&gt;1,就使用PullingAysncExecutor</text>
</g>
<!-- getTotalsBlock -->
<g id="node3" class="node">
<title>getTotalsBlock</title>
<polygon fill="none" stroke="black" points="981,-274 882,-274 882,-238 981,-238 981,-274"/>
<text text-anchor="middle" x="931.5" y="-252.3" font-family="Times,serif" font-size="14.00">getTotalsBlock</text>
</g>
<!-- getExtremesBlock -->
<g id="node4" class="node">
<title>getExtremesBlock</title>
<polygon fill="none" stroke="black" points="990,-220 873,-220 873,-184 990,-184 990,-220"/>
<text text-anchor="middle" x="931.5" y="-198.3" font-family="Times,serif" font-size="14.00">getExtremesBlock</text>
</g>
<!-- execute_pull -->
<g id="node5" class="node">
<title>execute_pull</title>
<polygon fill="none" stroke="black" points="887,-119 887,-165 976,-165 976,-119 887,-119"/>
<text text-anchor="middle" x="931.5" y="-149.8" font-family="Times,serif" font-size="14.00">pull</text>
<polyline fill="none" stroke="black" points="887,-142 976,-142 "/>
<text text-anchor="middle" x="931.5" y="-126.8" font-family="Times,serif" font-size="14.00">执行pipeline</text>
</g>
<!-- execute_get_header -->
<g id="node6" class="node">
<title>execute_get_header</title>
<polygon fill="none" stroke="black" points="670.5,-237 670.5,-273 742.5,-273 742.5,-237 670.5,-237"/>
<text text-anchor="middle" x="706.5" y="-251.3" font-family="Times,serif" font-size="14.00">getHeader</text>
</g>
<!-- PullingPipelineExecutor -->
<g id="node7" class="node">
<title>PullingPipelineExecutor</title>
<polygon fill="none" stroke="black" points="1259,-274 1110,-274 1110,-238 1259,-238 1259,-274"/>
<text text-anchor="middle" x="1184.5" y="-252.3" font-family="Times,serif" font-size="14.00">PullingPipelineExecutor</text>
</g>
<!-- async_executor_pull -->
<g id="node8" class="node">
<title>async_executor_pull</title>
<polygon fill="none" stroke="black" points="904.5,-539 904.5,-575 958.5,-575 958.5,-539 904.5,-539"/>
<text text-anchor="middle" x="931.5" y="-553.3" font-family="Times,serif" font-size="14.00">pull</text>
</g>
<!-- async_execute_get_header -->
<g id="node9" class="node">
<title>async_execute_get_header</title>
<polygon fill="none" stroke="black" points="895.5,-704 895.5,-740 967.5,-740 967.5,-704 895.5,-704"/>
<text text-anchor="middle" x="931.5" y="-718.3" font-family="Times,serif" font-size="14.00">getHeader</text>
</g>
<!-- async_getTotalsBlock -->
<g id="node10" class="node">
<title>async_getTotalsBlock</title>
<polygon fill="none" stroke="black" points="882,-594 882,-630 981,-630 981,-594 882,-594"/>
<text text-anchor="middle" x="931.5" y="-608.3" font-family="Times,serif" font-size="14.00">getTotalsBlock</text>
</g>
<!-- async_getExtremesBlock -->
<g id="node11" class="node">
<title>async_getExtremesBlock</title>
<polygon fill="none" stroke="black" points="873,-649 873,-685 990,-685 990,-649 873,-649"/>
<text text-anchor="middle" x="931.5" y="-663.3" font-family="Times,serif" font-size="14.00">getExtremesBlock</text>
</g>
<!-- PullingAsyncPipelineExecutor -->
<g id="node12" class="node">
<title>PullingAsyncPipelineExecutor</title>
<polygon fill="none" stroke="black" points="1276,-574 1093,-574 1093,-538 1276,-538 1276,-574"/>
<text text-anchor="middle" x="1184.5" y="-552.3" font-family="Times,serif" font-size="14.00">PullingAsyncPipelineExecutor</text>
</g>
<!-- PipelineExecutingBlockInputStream -->
<g id="node13" class="node">
<title>PipelineExecutingBlockInputStream</title>
<polygon fill="none" stroke="black" points="599,-437 599,-483 814,-483 814,-437 599,-437"/>
<text text-anchor="middle" x="706.5" y="-467.8" font-family="Times,serif" font-size="14.00">PipelineExecutingBlockInputStream</text>
<polyline fill="none" stroke="black" points="599,-460 814,-460 "/>
<text text-anchor="middle" x="706.5" y="-444.8" font-family="Times,serif" font-size="14.00">构造函数</text>
</g>
<!-- getHeader -->
<g id="node14" class="node">
<title>getHeader</title>
<polygon fill="none" stroke="black" points="461.5,-424 389.5,-424 389.5,-388 461.5,-388 461.5,-424"/>
<text text-anchor="middle" x="425.5" y="-402.3" font-family="Times,serif" font-size="14.00">getHeader</text>
</g>
<!-- getHeader&#45;&gt;pipline_get_header -->
<g id="edge1" class="edge">
<title>getHeader&#45;&gt;pipline_get_header</title>
<path fill="none" stroke="#17b978" d="M432.96,-387.99C451.68,-337.84 510.35,-194.5 599,-106 616.65,-88.38 640.43,-74.11 661.04,-63.83"/>
<polygon fill="#17b978" stroke="#17b978" points="662.77,-66.88 670.26,-59.38 659.73,-60.57 662.77,-66.88"/>
</g>
<!-- getHeader&#45;&gt;execute_get_header -->
<g id="edge2" class="edge">
<title>getHeader&#45;&gt;execute_get_header</title>
<path fill="none" stroke="#17b978" d="M459.88,-387.94C510.71,-360.42 607.48,-308.05 663.18,-277.9"/>
<polygon fill="#17b978" stroke="#17b978" points="664.96,-280.92 672.08,-273.08 661.62,-274.77 664.96,-280.92"/>
</g>
<!-- getHeader&#45;&gt;async_execute_get_header -->
<g id="edge3" class="edge">
<title>getHeader&#45;&gt;async_execute_get_header</title>
<path fill="none" stroke="#17b978" d="M446.94,-424.09C505.49,-474.99 680.5,-620.86 850,-700 861.08,-705.17 873.6,-709.32 885.4,-712.57"/>
<polygon fill="#17b978" stroke="#17b978" points="884.55,-715.96 895.11,-715.08 886.31,-709.19 884.55,-715.96"/>
</g>
<!-- readPrefixImpl -->
<g id="node15" class="node">
<title>readPrefixImpl</title>
<polygon fill="none" stroke="black" points="755.5,-364 657.5,-364 657.5,-328 755.5,-328 755.5,-364"/>
<text text-anchor="middle" x="706.5" y="-342.3" font-family="Times,serif" font-size="14.00">readPrefixImpl</text>
</g>
<!-- createExecutor -->
<g id="node16" class="node">
<title>createExecutor</title>
<polygon fill="none" stroke="black" points="850,-328.5 850,-389.5 1013,-389.5 1013,-328.5 850,-328.5"/>
<text text-anchor="middle" x="931.5" y="-374.3" font-family="Times,serif" font-size="14.00">createExecutor</text>
<polyline fill="none" stroke="black" points="850,-366.5 1013,-366.5 "/>
<text text-anchor="start" x="858" y="-351.3" font-family="Times,serif" font-size="14.00">根据queryPipeline线程数</text>
<text text-anchor="start" x="858" y="-336.3" font-family="Times,serif" font-size="14.00"> 创建对应的executor</text>
</g>
<!-- readPrefixImpl&#45;&gt;createExecutor -->
<g id="edge4" class="edge">
<title>readPrefixImpl&#45;&gt;createExecutor</title>
<path fill="none" stroke="#666666" d="M755.61,-348.8C780.12,-350.23 810.75,-352.02 839.5,-353.7"/>
<polygon fill="#666666" stroke="#666666" points="839.39,-357.19 849.58,-354.28 839.8,-350.21 839.39,-357.19"/>
</g>
<!-- createExecutor&#45;&gt;pipeline_getNumThreads -->
<g id="edge13" class="edge">
<title>createExecutor&#45;&gt;pipeline_getNumThreads</title>
<path fill="none" stroke="#666666" d="M1013.19,-332.25C1016.04,-329.74 1018.67,-327 1021,-324 1080.97,-246.89 992.15,-185.44 1049,-106 1060.67,-89.7 1077.5,-77.23 1095.33,-67.77"/>
<polygon fill="#666666" stroke="#666666" points="1097.33,-70.68 1104.72,-63.09 1094.21,-64.41 1097.33,-70.68"/>
</g>
<!-- createExecutor&#45;&gt;PullingPipelineExecutor -->
<g id="edge14" class="edge">
<title>createExecutor&#45;&gt;PullingPipelineExecutor</title>
<path fill="none" stroke="#666666" d="M1010.24,-328.36C1013.88,-326.89 1017.48,-325.43 1021,-324 1057.97,-308.96 1099.47,-291.58 1131.28,-278.16"/>
<polygon fill="#666666" stroke="#666666" points="1132.98,-281.24 1140.83,-274.13 1130.25,-274.79 1132.98,-281.24"/>
</g>
<!-- createExecutor&#45;&gt;PullingAsyncPipelineExecutor -->
<g id="edge15" class="edge">
<title>createExecutor&#45;&gt;PullingAsyncPipelineExecutor</title>
<path fill="none" stroke="#666666" d="M971.44,-389.57C1021.22,-428.63 1106.42,-495.5 1152.21,-531.44"/>
<polygon fill="#666666" stroke="#666666" points="1150.25,-534.36 1160.28,-537.78 1154.57,-528.85 1150.25,-534.36"/>
</g>
<!-- readImpl -->
<g id="node17" class="node">
<title>readImpl</title>
<polygon fill="none" stroke="black" points="739.5,-418 673.5,-418 673.5,-382 739.5,-382 739.5,-418"/>
<text text-anchor="middle" x="706.5" y="-396.3" font-family="Times,serif" font-size="14.00">readImpl</text>
</g>
<!-- readImpl&#45;&gt;getTotalsBlock -->
<g id="edge5" class="edge">
<title>readImpl&#45;&gt;getTotalsBlock</title>
<path fill="none" stroke="#b83b5e" d="M739.94,-396.39C761.97,-392.86 791.13,-386.03 814,-373 854.45,-349.95 890.47,-309.05 911.4,-282.23"/>
<polygon fill="#b83b5e" stroke="#b83b5e" points="914.35,-284.13 917.65,-274.06 908.79,-279.88 914.35,-284.13"/>
</g>
<!-- readImpl&#45;&gt;getExtremesBlock -->
<g id="edge6" class="edge">
<title>readImpl&#45;&gt;getExtremesBlock</title>
<path fill="none" stroke="#b83b5e" d="M739.97,-398.06C762.56,-395.29 792.39,-388.69 814,-373 838.25,-355.4 833.35,-340.91 850,-316 870.29,-285.63 894.6,-251.5 911.16,-228.57"/>
<polygon fill="#b83b5e" stroke="#b83b5e" points="914.07,-230.51 917.1,-220.36 908.4,-226.41 914.07,-230.51"/>
</g>
<!-- readImpl&#45;&gt;execute_pull -->
<g id="edge7" class="edge">
<title>readImpl&#45;&gt;execute_pull</title>
<path fill="none" stroke="#b83b5e" d="M739.68,-400.19C763.34,-398.57 794.61,-392.45 814,-373 860.57,-326.28 818.62,-287.03 850,-229 861.44,-207.85 879.21,-187.87 895.15,-172.41"/>
<polygon fill="#b83b5e" stroke="#b83b5e" points="897.92,-174.61 902.79,-165.2 893.12,-169.52 897.92,-174.61"/>
</g>
<!-- readImpl&#45;&gt;async_executor_pull -->
<g id="edge8" class="edge">
<title>readImpl&#45;&gt;async_executor_pull</title>
<path fill="none" stroke="#b83b5e" d="M739.75,-400.29C763.13,-402.18 794.02,-408.43 814,-427 851.07,-461.44 813.25,-500.22 850,-535 861.8,-546.17 878.7,-551.77 893.98,-554.55"/>
<polygon fill="#b83b5e" stroke="#b83b5e" points="893.81,-558.06 904.21,-556.05 894.83,-551.13 893.81,-558.06"/>
</g>
<!-- readImpl&#45;&gt;async_execute_get_header -->
<g id="edge9" class="edge">
<title>readImpl&#45;&gt;async_execute_get_header</title>
<path fill="none" stroke="#b83b5e" d="M739.84,-399.17C763.9,-400.41 795.62,-406.33 814,-427 895.32,-518.46 769.53,-607.8 850,-700 858.96,-710.26 872.2,-715.96 885.36,-719.05"/>
<polygon fill="#b83b5e" stroke="#b83b5e" points="884.87,-722.52 895.34,-720.94 886.17,-715.64 884.87,-722.52"/>
</g>
<!-- readImpl&#45;&gt;async_getTotalsBlock -->
<g id="edge10" class="edge">
<title>readImpl&#45;&gt;async_getTotalsBlock</title>
<path fill="none" stroke="#b83b5e" d="M739.84,-399.66C763.57,-401.2 794.88,-407.28 814,-427 865.64,-480.27 798.85,-536.26 850,-590 856.1,-596.41 863.86,-601.01 872.15,-604.3"/>
<polygon fill="#b83b5e" stroke="#b83b5e" points="871.08,-607.63 881.68,-607.49 873.31,-601 871.08,-607.63"/>
</g>
<!-- readImpl&#45;&gt;async_getExtremesBlock -->
<g id="edge11" class="edge">
<title>readImpl&#45;&gt;async_getExtremesBlock</title>
<path fill="none" stroke="#b83b5e" d="M739.65,-399.34C763.61,-400.68 795.29,-406.63 814,-427 880.44,-499.31 784.23,-572.08 850,-645 853.82,-649.24 858.37,-652.69 863.33,-655.5"/>
<polygon fill="#b83b5e" stroke="#b83b5e" points="862.11,-658.79 872.65,-659.9 865.1,-652.46 862.11,-658.79"/>
</g>
<!-- readImpl&#45;&gt;createExecutor -->
<g id="edge12" class="edge">
<title>readImpl&#45;&gt;createExecutor</title>
<path fill="none" stroke="#b83b5e" d="M739.93,-394.04C766.21,-389.21 804.56,-382.16 839.98,-375.64"/>
<polygon fill="#b83b5e" stroke="#b83b5e" points="840.68,-379.07 849.88,-373.82 839.41,-372.19 840.68,-379.07"/>
</g>
<!-- getInputStream -->
<g id="node18" class="node">
<title>getInputStream</title>
<polygon fill="none" stroke="black" points="476,-808 375,-808 375,-772 476,-772 476,-808"/>
<text text-anchor="middle" x="425.5" y="-786.3" font-family="Times,serif" font-size="14.00">getInputStream</text>
</g>
<!-- getInputStream&#45;&gt;PipelineExecutingBlockInputStream -->
<g id="edge16" class="edge">
<title>getInputStream&#45;&gt;PipelineExecutingBlockInputStream</title>
<path fill="none" stroke="#666666" d="M476.3,-790.72C506.76,-788.69 544.86,-781.43 571.5,-760 657.22,-691.06 689.83,-555.75 700.71,-493.18"/>
<polygon fill="#666666" stroke="#666666" points="704.2,-493.52 702.38,-483.08 697.29,-492.37 704.2,-493.52"/>
</g>
<!-- runImpl -->
<g id="node19" class="node">
<title>runImpl</title>
<polygon fill="none" stroke="black" points="16,-622 16,-668 77,-668 77,-622 16,-622"/>
<text text-anchor="middle" x="46.5" y="-652.8" font-family="Times,serif" font-size="14.00">runImpl</text>
<polyline fill="none" stroke="black" points="16,-645 77,-645 "/>
<text text-anchor="middle" x="46.5" y="-629.8" font-family="Times,serif" font-size="14.00">主循环</text>
</g>
<!-- executeQuery -->
<g id="node20" class="node">
<title>executeQuery</title>
<polygon fill="none" stroke="black" points="229,-704 137,-704 137,-668 229,-668 229,-704"/>
<text text-anchor="middle" x="183" y="-682.3" font-family="Times,serif" font-size="14.00">executeQuery</text>
</g>
<!-- runImpl&#45;&gt;executeQuery -->
<g id="edge17" class="edge">
<title>runImpl&#45;&gt;executeQuery</title>
<path fill="none" stroke="#666666" d="M77.02,-654C91.69,-658.47 109.91,-664.02 127.03,-669.24"/>
<polygon fill="#666666" stroke="#666666" points="126.36,-672.7 136.94,-672.27 128.4,-666 126.36,-672.7"/>
</g>
<!-- processOrdinaryQuery -->
<g id="node21" class="node">
<title>processOrdinaryQuery</title>
<polygon fill="none" stroke="black" points="253,-636 113,-636 113,-600 253,-600 253,-636"/>
<text text-anchor="middle" x="183" y="-614.3" font-family="Times,serif" font-size="14.00">processOrdinaryQuery</text>
</g>
<!-- runImpl&#45;&gt;processOrdinaryQuery -->
<g id="edge19" class="edge">
<title>runImpl&#45;&gt;processOrdinaryQuery</title>
<path fill="none" stroke="#666666" d="M77.02,-639.07C84.85,-637.5 93.7,-635.73 102.85,-633.89"/>
<polygon fill="#666666" stroke="#666666" points="103.75,-637.28 112.87,-631.88 102.37,-630.41 103.75,-637.28"/>
</g>
<!-- executeQuery&#45;&gt;getInputStream -->
<g id="edge18" class="edge">
<title>executeQuery&#45;&gt;getInputStream</title>
<path fill="none" stroke="#666666" d="M204.48,-704.3C224.51,-721.24 256.58,-745.88 288.5,-760 312.5,-770.62 340.6,-777.63 365,-782.18"/>
<polygon fill="#666666" stroke="#666666" points="364.4,-785.63 374.86,-783.92 365.62,-778.73 364.4,-785.63"/>
</g>
<!-- processOrdinaryQuery&#45;&gt;getHeader -->
<g id="edge20" class="edge">
<title>processOrdinaryQuery&#45;&gt;getHeader</title>
<path fill="none" stroke="#666666" d="M204.5,-599.92C247.55,-561.98 347.37,-473.99 396.36,-430.81"/>
<polygon fill="#666666" stroke="#666666" points="398.86,-433.27 404.05,-424.03 394.23,-428.02 398.86,-433.27"/>
</g>
<!-- readPrefix -->
<g id="node22" class="node">
<title>readPrefix</title>
<polygon fill="none" stroke="black" points="461.5,-582 389.5,-582 389.5,-546 461.5,-546 461.5,-582"/>
<text text-anchor="middle" x="425.5" y="-560.3" font-family="Times,serif" font-size="14.00">readPrefix</text>
</g>
<!-- processOrdinaryQuery&#45;&gt;readPrefix -->
<g id="edge21" class="edge">
<title>processOrdinaryQuery&#45;&gt;readPrefix</title>
<path fill="none" stroke="#666666" d="M251.6,-599.94C263.85,-596.83 276.53,-593.73 288.5,-591 318.64,-584.12 352.78,-577.35 379.31,-572.3"/>
<polygon fill="#666666" stroke="#666666" points="380.27,-575.69 389.44,-570.39 378.97,-568.81 380.27,-575.69"/>
</g>
<!-- sendData -->
<g id="node23" class="node">
<title>sendData</title>
<polygon fill="none" stroke="black" points="459,-718 392,-718 392,-682 459,-682 459,-718"/>
<text text-anchor="middle" x="425.5" y="-696.3" font-family="Times,serif" font-size="14.00">sendData</text>
</g>
<!-- processOrdinaryQuery&#45;&gt;sendData -->
<g id="edge22" class="edge">
<title>processOrdinaryQuery&#45;&gt;sendData</title>
<path fill="none" stroke="#666666" d="M214.26,-636.12C242.25,-652.75 280.66,-675.22 288.5,-678 318.68,-688.7 354.5,-694.23 381.79,-697.06"/>
<polygon fill="#666666" stroke="#666666" points="381.52,-700.55 391.81,-698.03 382.19,-693.59 381.52,-700.55"/>
</g>
<!-- read -->
<g id="node24" class="node">
<title>read</title>
<polygon fill="none" stroke="black" points="452.5,-636 398.5,-636 398.5,-600 452.5,-600 452.5,-636"/>
<text text-anchor="middle" x="425.5" y="-614.3" font-family="Times,serif" font-size="14.00">read</text>
</g>
<!-- processOrdinaryQuery&#45;&gt;read -->
<g id="edge23" class="edge">
<title>processOrdinaryQuery&#45;&gt;read</title>
<path fill="none" stroke="#666666" d="M253.24,-618C297.13,-618 352.15,-618 387.8,-618"/>
<polygon fill="#666666" stroke="#666666" points="388.2,-621.5 398.2,-618 388.2,-614.5 388.2,-621.5"/>
</g>
<!-- readPrefix&#45;&gt;readPrefixImpl -->
<g id="edge24" class="edge">
<title>readPrefix&#45;&gt;readPrefixImpl</title>
<path fill="none" stroke="#666666" d="M461.71,-564.83C494.9,-563.59 543.59,-556.19 571.5,-526 618.4,-475.27 551.9,-423.54 599,-373 611.39,-359.7 629.32,-352.56 646.94,-348.84"/>
<polygon fill="#666666" stroke="#666666" points="647.99,-352.21 657.23,-347.02 646.78,-345.31 647.99,-352.21"/>
</g>
<!-- read&#45;&gt;readImpl -->
<g id="edge25" class="edge">
<title>read&#45;&gt;readImpl</title>
<path fill="none" stroke="#666666" d="M452.55,-621.29C485.15,-623.82 540.46,-622.6 571.5,-591 623.29,-538.27 548.93,-481.36 599,-427 615.18,-409.44 641,-402.59 663.16,-400.19"/>
<polygon fill="#666666" stroke="#666666" points="663.68,-403.66 673.36,-399.35 663.11,-396.68 663.68,-403.66"/>
</g>
</g>
</svg>
