<?xml version="1.0" encoding="UTF-8" standalone="no"?>
<!DOCTYPE svg PUBLIC "-//W3C//DTD SVG 1.1//EN"
 "http://www.w3.org/Graphics/SVG/1.1/DTD/svg11.dtd">
<!-- Generated by graphviz version 2.44.1 (20200629.0846)
 -->
<!-- Title: merge_tree_data_file_sruct Pages: 1 -->
<svg width="557pt" height="421pt"
 viewBox="0.00 0.00 557.00 421.00" xmlns="http://www.w3.org/2000/svg" xmlns:xlink="http://www.w3.org/1999/xlink">
<g id="graph0" class="graph" transform="scale(1 1) rotate(0) translate(4 417)">
<title>merge_tree_data_file_sruct</title>
<polygon fill="white" stroke="transparent" points="-4,4 -4,-417 553,-417 553,4 -4,4"/>
<!-- Data -->
<g id="node1" class="node">
<title>Data</title>
<polygon fill="none" stroke="black" points="54,-190.5 0,-190.5 0,-154.5 54,-154.5 54,-190.5"/>
<text text-anchor="middle" x="27" y="-168.8" font-family="Times,serif" font-size="14.00">Data</text>
</g>
<!-- PartitionExpression -->
<g id="node2" class="node">
<title>PartitionExpression</title>
<polygon fill="none" stroke="black" points="213,-190.5 90,-190.5 90,-154.5 213,-154.5 213,-190.5"/>
<text text-anchor="middle" x="151.5" y="-168.8" font-family="Times,serif" font-size="14.00">PartitionExpression</text>
</g>
<!-- Data&#45;&gt;PartitionExpression -->
<g id="edge1" class="edge">
<title>Data&#45;&gt;PartitionExpression</title>
<path fill="none" stroke="#666666" d="M54.28,-172.5C61.89,-172.5 70.58,-172.5 79.56,-172.5"/>
<polygon fill="#666666" stroke="#666666" points="79.78,-176 89.78,-172.5 79.78,-169 79.78,-176"/>
</g>
<!-- PartDirectory -->
<g id="node3" class="node">
<title>PartDirectory</title>
<polygon fill="none" stroke="black" points="342.5,-217.5 252.5,-217.5 252.5,-181.5 342.5,-181.5 342.5,-217.5"/>
<text text-anchor="middle" x="297.5" y="-195.8" font-family="Times,serif" font-size="14.00">PartDirectory</text>
</g>
<!-- PartitionExpression&#45;&gt;PartDirectory -->
<g id="edge2" class="edge">
<title>PartitionExpression&#45;&gt;PartDirectory</title>
<path fill="none" stroke="#666666" d="M213.15,-183.87C222.75,-185.67 232.62,-187.52 242.06,-189.29"/>
<polygon fill="#666666" stroke="#666666" points="241.63,-192.77 252.11,-191.18 242.92,-185.89 241.63,-192.77"/>
</g>
<!-- PartDirectory2 -->
<g id="node4" class="node">
<title>PartDirectory2</title>
<polygon fill="none" stroke="black" points="346,-163.5 249,-163.5 249,-127.5 346,-127.5 346,-163.5"/>
<text text-anchor="middle" x="297.5" y="-141.8" font-family="Times,serif" font-size="14.00">PartDirectory2</text>
</g>
<!-- PartitionExpression&#45;&gt;PartDirectory2 -->
<g id="edge3" class="edge">
<title>PartitionExpression&#45;&gt;PartDirectory2</title>
<path fill="none" stroke="#666666" d="M213.15,-161.13C221.57,-159.55 230.19,-157.93 238.56,-156.36"/>
<polygon fill="#666666" stroke="#666666" points="239.41,-159.76 248.6,-154.48 238.12,-152.88 239.41,-159.76"/>
</g>
<!-- checksums_txt -->
<g id="node5" class="node">
<title>checksums_txt</title>
<polygon fill="none" stroke="black" points="382.5,-336.5 382.5,-412.5 548.5,-412.5 548.5,-336.5 382.5,-336.5"/>
<text text-anchor="middle" x="465.5" y="-397.3" font-family="Times,serif" font-size="14.00">checksums.txt</text>
<polyline fill="none" stroke="black" points="382.5,-389.5 548.5,-389.5 "/>
<text text-anchor="start" x="390.5" y="-374.3" font-family="Times,serif" font-size="14.00">contains the list of </text>
<text text-anchor="start" x="390.5" y="-359.3" font-family="Times,serif" font-size="14.00"> all files along with name </text>
<text text-anchor="start" x="390.5" y="-344.3" font-family="Times,serif" font-size="14.00"> their sizes and checksums.</text>
</g>
<!-- PartDirectory&#45;&gt;checksums_txt -->
<g id="edge4" class="edge">
<title>PartDirectory&#45;&gt;checksums_txt</title>
<path fill="none" stroke="#666666" d="M306.8,-217.54C319.77,-244.22 347.04,-294.58 382,-327.5 382.81,-328.26 383.63,-329.02 384.47,-329.77"/>
<polygon fill="#666666" stroke="#666666" points="382.4,-332.6 392.34,-336.28 386.87,-327.21 382.4,-332.6"/>
</g>
<!-- columns_txt -->
<g id="node6" class="node">
<title>columns_txt</title>
<polygon fill="none" stroke="black" points="382.5,-241.5 382.5,-317.5 548.5,-317.5 548.5,-241.5 382.5,-241.5"/>
<text text-anchor="middle" x="465.5" y="-302.3" font-family="Times,serif" font-size="14.00">columns.txt</text>
<polyline fill="none" stroke="black" points="382.5,-294.5 548.5,-294.5 "/>
<text text-anchor="start" x="390.5" y="-279.3" font-family="Times,serif" font-size="14.00">contains the list of </text>
<text text-anchor="start" x="390.5" y="-264.3" font-family="Times,serif" font-size="14.00"> all files along with </text>
<text text-anchor="start" x="390.5" y="-249.3" font-family="Times,serif" font-size="14.00"> their sizes and checksums.</text>
</g>
<!-- PartDirectory&#45;&gt;columns_txt -->
<g id="edge5" class="edge">
<title>PartDirectory&#45;&gt;columns_txt</title>
<path fill="none" stroke="#666666" d="M336.17,-217.65C348.25,-223.48 362.19,-230.19 376.32,-237"/>
<polygon fill="#666666" stroke="#666666" points="375.09,-240.3 385.62,-241.49 378.13,-233.99 375.09,-240.3"/>
</g>
<!-- primary_idx -->
<g id="node7" class="node">
<title>primary_idx</title>
<polygon fill="none" stroke="black" points="382,-176.5 382,-222.5 549,-222.5 549,-176.5 382,-176.5"/>
<text text-anchor="middle" x="465.5" y="-207.3" font-family="Times,serif" font-size="14.00">primary.idx</text>
<polyline fill="none" stroke="black" points="382,-199.5 549,-199.5 "/>
<text text-anchor="middle" x="465.5" y="-184.3" font-family="Times,serif" font-size="14.00">contains the primary index.</text>
</g>
<!-- PartDirectory&#45;&gt;primary_idx -->
<g id="edge6" class="edge">
<title>PartDirectory&#45;&gt;primary_idx</title>
<path fill="none" stroke="#666666" d="M342.55,-199.5C351.63,-199.5 361.51,-199.5 371.59,-199.5"/>
<polygon fill="#666666" stroke="#666666" points="371.71,-203 381.71,-199.5 371.71,-196 371.71,-203"/>
</g>
<!-- Column_bin -->
<g id="node8" class="node">
<title>Column_bin</title>
<polygon fill="none" stroke="black" points="400.5,-96 400.5,-157 530.5,-157 530.5,-96 400.5,-96"/>
<text text-anchor="middle" x="465.5" y="-141.8" font-family="Times,serif" font-size="14.00">Column.bin</text>
<polyline fill="none" stroke="black" points="400.5,-134 530.5,-134 "/>
<text text-anchor="start" x="408.5" y="-118.8" font-family="Times,serif" font-size="14.00">contains compressed</text>
<text text-anchor="start" x="408.5" y="-103.8" font-family="Times,serif" font-size="14.00"> column data.</text>
</g>
<!-- PartDirectory&#45;&gt;Column_bin -->
<g id="edge7" class="edge">
<title>PartDirectory&#45;&gt;Column_bin</title>
<path fill="none" stroke="#666666" d="M339.53,-181.46C355.15,-174.59 373.46,-166.54 391.17,-158.75"/>
<polygon fill="#666666" stroke="#666666" points="392.61,-161.94 400.36,-154.71 389.79,-155.53 392.61,-161.94"/>
</g>
<!-- Column_mrk -->
<g id="node9" class="node">
<title>Column_mrk</title>
<polygon fill="none" stroke="black" points="391,-0.5 391,-76.5 540,-76.5 540,-0.5 391,-0.5"/>
<text text-anchor="middle" x="465.5" y="-61.3" font-family="Times,serif" font-size="14.00">Column.mrk</text>
<polyline fill="none" stroke="black" points="391,-53.5 540,-53.5 "/>
<text text-anchor="start" x="399" y="-38.3" font-family="Times,serif" font-size="14.00">marks, pointing to seek </text>
<text text-anchor="start" x="399" y="-23.3" font-family="Times,serif" font-size="14.00"> positions allowing to </text>
<text text-anchor="start" x="399" y="-8.3" font-family="Times,serif" font-size="14.00"> skip n * k rows.</text>
</g>
<!-- PartDirectory&#45;&gt;Column_mrk -->
<g id="edge8" class="edge">
<title>PartDirectory&#45;&gt;Column_mrk</title>
<path fill="none" stroke="#666666" d="M336.11,-181.39C339.72,-178.73 343.11,-175.77 346,-172.5 373.48,-141.49 354.67,-117.65 382,-86.5 382.86,-85.52 383.75,-84.55 384.65,-83.6"/>
<polygon fill="#666666" stroke="#666666" points="387.18,-86.03 392.03,-76.6 382.36,-80.95 387.18,-86.03"/>
</g>
</g>
</svg>
