<?xml version="1.0" encoding="UTF-8" standalone="no"?>
<!DOCTYPE svg PUBLIC "-//W3C//DTD SVG 1.1//EN"
 "http://www.w3.org/Graphics/SVG/1.1/DTD/svg11.dtd">
<!-- Generated by graphviz version 2.44.1 (20200629.0846)
 -->
<!-- Title: stream Pages: 1 -->
<svg width="1875pt" height="906pt"
 viewBox="0.00 0.00 1875.00 906.00" xmlns="http://www.w3.org/2000/svg" xmlns:xlink="http://www.w3.org/1999/xlink">
<g id="graph0" class="graph" transform="scale(1 1) rotate(0) translate(4 902)">
<title>stream</title>
<polygon fill="white" stroke="transparent" points="-4,4 -4,-902 1871,-902 1871,4 -4,4"/>
<g id="clust1" class="cluster">
<title>cluster_WriteBufferFromFileDescriptor</title>
<polygon fill="none" stroke="black" points="767,-302 767,-450 1686.5,-450 1686.5,-302 767,-302"/>
<text text-anchor="middle" x="1226.75" y="-430" font-family="Times,serif" font-size="20.00">WriteBufferFromFileDescriptor</text>
</g>
<g id="clust2" class="cluster">
<title>cluster_WriteBufferFromS3</title>
<polygon fill="none" stroke="black" points="984,-8 984,-147 1859,-147 1859,-8 984,-8"/>
<text text-anchor="middle" x="1421.5" y="-127" font-family="Times,serif" font-size="20.00">WriteBufferFromS3</text>
</g>
<g id="clust4" class="cluster">
<title>cluster_WriteIndirectBufferFromS3</title>
<polygon fill="none" stroke="black" points="767,-155 767,-294 1670,-294 1670,-155 767,-155"/>
<text text-anchor="middle" x="1218.5" y="-274" font-family="Times,serif" font-size="20.00">WriteIndirectBufferFromS3</text>
</g>
<g id="clust7" class="cluster">
<title>cluster_WriteBufferFromFileBase</title>
<polygon fill="none" stroke="black" points="547,-458 547,-594 1648,-594 1648,-458 547,-458"/>
<text text-anchor="middle" x="1097.5" y="-574" font-family="Times,serif" font-size="20.00">WriteBufferFromFileBase</text>
</g>
<g id="clust10" class="cluster">
<title>cluster_WriteBuffer</title>
<polygon fill="none" stroke="black" points="247,-342 247,-450 675,-450 675,-342 247,-342"/>
<text text-anchor="middle" x="461" y="-430" font-family="Times,serif" font-size="20.00">WriteBuffer</text>
</g>
<g id="clust12" class="cluster">
<title>cluster_MergeTreeDataPartWriterOnDiskStream</title>
<polygon fill="none" stroke="black" points="8,-602 8,-890 1156,-890 1156,-602 8,-602"/>
<text text-anchor="middle" x="582" y="-870" font-family="Times,serif" font-size="20.00">MergeTreeDataPartWriterOnDisk::Stream</text>
</g>
<!-- fd_sync -->
<g id="node1" class="node">
<title>fd_sync</title>
<polygon fill="none" stroke="black" points="1281,-370 1281,-406 1335,-406 1335,-370 1281,-370"/>
<text text-anchor="middle" x="1308" y="-384.3" font-family="Times,serif" font-size="14.00">sync</text>
</g>
<!-- fsync -->
<g id="node2" class="node">
<title>fsync</title>
<polygon fill="none" stroke="black" points="1476.5,-365 1476.5,-411 1678.5,-411 1678.5,-365 1476.5,-365"/>
<text text-anchor="middle" x="1577.5" y="-395.8" font-family="Times,serif" font-size="14.00">fsync</text>
<polyline fill="none" stroke="black" points="1476.5,-388 1678.5,-388 "/>
<text text-anchor="middle" x="1577.5" y="-372.8" font-family="Times,serif" font-size="14.00">系统调用，将数据刷到磁盘上</text>
</g>
<!-- fd_sync&#45;&gt;fsync -->
<g id="edge1" class="edge">
<title>fd_sync&#45;&gt;fsync</title>
<path fill="none" stroke="#666666" d="M1335.14,-388C1365.64,-388 1418.05,-388 1466.26,-388"/>
<polygon fill="#666666" stroke="#666666" points="1466.47,-391.5 1476.47,-388 1466.47,-384.5 1466.47,-391.5"/>
</g>
<!-- fd_nextImpl -->
<g id="node3" class="node">
<title>fd_nextImpl</title>
<polygon fill="none" stroke="black" points="775,-363 775,-399 841,-399 841,-363 775,-363"/>
<text text-anchor="middle" x="808" y="-377.3" font-family="Times,serif" font-size="14.00">nextImpl</text>
</g>
<!-- fd_write -->
<g id="node4" class="node">
<title>fd_write</title>
<polygon fill="none" stroke="black" points="954,-350.5 954,-411.5 1084,-411.5 1084,-350.5 954,-350.5"/>
<text text-anchor="middle" x="1019" y="-396.3" font-family="Times,serif" font-size="14.00">write</text>
<polyline fill="none" stroke="black" points="954,-388.5 1084,-388.5 "/>
<text text-anchor="start" x="962" y="-373.3" font-family="Times,serif" font-size="14.00">将working_buffer的</text>
<text text-anchor="start" x="962" y="-358.3" font-family="Times,serif" font-size="14.00"> 数据写入fd中</text>
</g>
<!-- fd_nextImpl&#45;&gt;fd_write -->
<g id="edge2" class="edge">
<title>fd_nextImpl&#45;&gt;fd_write</title>
<path fill="none" stroke="#666666" d="M841.2,-381C868.4,-381 908.42,-381 943.51,-381"/>
<polygon fill="#666666" stroke="#666666" points="943.74,-384.5 953.74,-381 943.74,-377.5 943.74,-384.5"/>
</g>
<!-- WriteBufferFromFileDescriptor -->
<g id="node5" class="node">
<title>WriteBufferFromFileDescriptor</title>
<polygon fill="none" stroke="black" points="1673,-346 1482,-346 1482,-310 1673,-310 1673,-346"/>
<text text-anchor="middle" x="1577.5" y="-324.3" font-family="Times,serif" font-size="14.00">WriteBufferFromFileDescriptor</text>
</g>
<!-- WriteBufferFromS3_next -->
<g id="node6" class="node">
<title>WriteBufferFromS3_next</title>
<polygon fill="none" stroke="black" points="992,-72 992,-108 1046,-108 1046,-72 992,-72"/>
<text text-anchor="middle" x="1019" y="-86.3" font-family="Times,serif" font-size="14.00">next</text>
</g>
<!-- WriteBufferFromS3_nextImpl -->
<g id="node7" class="node">
<title>WriteBufferFromS3_nextImpl</title>
<polygon fill="none" stroke="black" points="1275,-64 1275,-100 1341,-100 1341,-64 1275,-64"/>
<text text-anchor="middle" x="1308" y="-78.3" font-family="Times,serif" font-size="14.00">nextImpl</text>
</g>
<!-- WriteBufferFromS3_next&#45;&gt;WriteBufferFromS3_nextImpl -->
<g id="edge3" class="edge">
<title>WriteBufferFromS3_next&#45;&gt;WriteBufferFromS3_nextImpl</title>
<path fill="none" stroke="#666666" d="M1046.23,-89.27C1095.97,-87.88 1204.38,-84.86 1264.58,-83.18"/>
<polygon fill="#666666" stroke="#666666" points="1264.98,-86.67 1274.88,-82.9 1264.78,-79.68 1264.98,-86.67"/>
</g>
<!-- writePart -->
<g id="node10" class="node">
<title>writePart</title>
<polygon fill="none" stroke="black" points="1468,-39.5 1468,-108.5 1687,-108.5 1687,-39.5 1468,-39.5"/>
<text text-anchor="middle" x="1577.5" y="-93.3" font-family="Times,serif" font-size="14.00">writePart</text>
<polyline fill="none" stroke="black" points="1468,-85.5 1687,-85.5 "/>
<text text-anchor="start" x="1476" y="-70.3" font-family="Times,serif" font-size="14.00">Aws::S3::Model::UploadPartRequest</text>
<polyline fill="none" stroke="black" points="1468,-62.5 1687,-62.5 "/>
<text text-anchor="start" x="1476" y="-47.3" font-family="Times,serif" font-size="14.00">向s3发送write数据</text>
</g>
<!-- WriteBufferFromS3_nextImpl&#45;&gt;writePart -->
<g id="edge4" class="edge">
<title>WriteBufferFromS3_nextImpl&#45;&gt;writePart</title>
<path fill="none" stroke="#666666" d="M1341,-81.04C1370.08,-80.17 1414.84,-78.83 1457.56,-77.56"/>
<polygon fill="#666666" stroke="#666666" points="1457.9,-81.05 1467.79,-77.25 1457.69,-74.05 1457.9,-81.05"/>
</g>
<!-- WriteBufferFromS3_swap -->
<g id="node8" class="node">
<title>WriteBufferFromS3_swap</title>
<polygon fill="none" stroke="black" points="992,-17 992,-53 1046,-53 1046,-17 992,-17"/>
<text text-anchor="middle" x="1019" y="-31.3" font-family="Times,serif" font-size="14.00">swap</text>
</g>
<!-- WriteBufferFromS3 -->
<g id="node9" class="node">
<title>WriteBufferFromS3</title>
<polygon fill="none" stroke="black" points="1723,-62 1723,-108 1851,-108 1851,-62 1723,-62"/>
<text text-anchor="middle" x="1787" y="-92.8" font-family="Times,serif" font-size="14.00">WriteBufferFromS3</text>
<polyline fill="none" stroke="black" points="1723,-85 1851,-85 "/>
<text text-anchor="middle" x="1787" y="-69.8" font-family="Times,serif" font-size="14.00">负责向s3写入数据</text>
</g>
<!-- s3_sync -->
<g id="node11" class="node">
<title>s3_sync</title>
<polygon fill="none" stroke="black" points="781,-219 781,-255 835,-255 835,-219 781,-219"/>
<text text-anchor="middle" x="808" y="-233.3" font-family="Times,serif" font-size="14.00">sync</text>
</g>
<!-- metadata_save -->
<g id="node13" class="node">
<title>metadata_save</title>
<polygon fill="none" stroke="black" points="1067.5,-255 970.5,-255 970.5,-219 1067.5,-219 1067.5,-255"/>
<text text-anchor="middle" x="1019" y="-233.3" font-family="Times,serif" font-size="14.00">metadata_save</text>
</g>
<!-- s3_sync&#45;&gt;metadata_save -->
<g id="edge5" class="edge">
<title>s3_sync&#45;&gt;metadata_save</title>
<path fill="none" stroke="#666666" d="M835.05,-237C866.22,-237 919.34,-237 960.33,-237"/>
<polygon fill="#666666" stroke="#666666" points="960.47,-240.5 970.47,-237 960.47,-233.5 960.47,-240.5"/>
</g>
<!-- s3_nextImpl -->
<g id="node12" class="node">
<title>s3_nextImpl</title>
<polygon fill="none" stroke="black" points="775,-164 775,-200 841,-200 841,-164 775,-164"/>
<text text-anchor="middle" x="808" y="-178.3" font-family="Times,serif" font-size="14.00">nextImpl</text>
</g>
<!-- s3_nextImpl&#45;&gt;WriteBufferFromS3_next -->
<g id="edge6" class="edge">
<title>s3_nextImpl&#45;&gt;WriteBufferFromS3_next</title>
<path fill="none" stroke="#666666" d="M841.2,-167.83C879.3,-151.05 942.57,-123.2 982.19,-105.76"/>
<polygon fill="#666666" stroke="#666666" points="983.98,-108.8 991.72,-101.57 981.16,-102.39 983.98,-108.8"/>
</g>
<!-- s3_nextImpl&#45;&gt;WriteBufferFromS3_swap -->
<g id="edge7" class="edge">
<title>s3_nextImpl&#45;&gt;WriteBufferFromS3_swap</title>
<path fill="none" stroke="#666666" d="M816.07,-163.68C827.39,-136.87 852.26,-87.4 890,-62 917.11,-43.75 954.19,-37.49 981.46,-35.5"/>
<polygon fill="#666666" stroke="#666666" points="981.97,-38.98 991.75,-34.92 981.57,-31.99 981.97,-38.98"/>
</g>
<!-- metadata_save&#45;&gt;fd_sync -->
<g id="edge9" class="edge">
<title>metadata_save&#45;&gt;fd_sync</title>
<path fill="none" stroke="#666666" d="M1063.79,-255.11C1090.75,-266.63 1125.81,-282.3 1156,-298 1196.91,-319.27 1242.12,-346.79 1272.32,-365.76"/>
<polygon fill="#666666" stroke="#666666" points="1270.47,-368.74 1280.8,-371.12 1274.21,-362.82 1270.47,-368.74"/>
</g>
<!-- WriteBufferFromFile -->
<g id="node15" class="node">
<title>WriteBufferFromFile</title>
<polygon fill="none" stroke="black" points="1184,-209 1184,-255 1432,-255 1432,-209 1184,-209"/>
<text text-anchor="middle" x="1308" y="-239.8" font-family="Times,serif" font-size="14.00">WriteBufferFromFile</text>
<polyline fill="none" stroke="black" points="1184,-232 1432,-232 "/>
<text text-anchor="middle" x="1308" y="-216.8" font-family="Times,serif" font-size="14.00">从WriteBufferFromFileDescriptor中派生</text>
</g>
<!-- metadata_save&#45;&gt;WriteBufferFromFile -->
<g id="edge10" class="edge">
<title>metadata_save&#45;&gt;WriteBufferFromFile</title>
<path fill="none" stroke="#666666" d="M1067.71,-236.17C1096.9,-235.66 1135.83,-234.98 1173.79,-234.32"/>
<polygon fill="#666666" stroke="#666666" points="1173.99,-237.82 1183.93,-234.14 1173.87,-230.82 1173.99,-237.82"/>
</g>
<!-- WriteIndirectBufferFromS3 -->
<g id="node14" class="node">
<title>WriteIndirectBufferFromS3</title>
<polygon fill="none" stroke="black" points="1662,-227 1493,-227 1493,-191 1662,-191 1662,-227"/>
<text text-anchor="middle" x="1577.5" y="-205.3" font-family="Times,serif" font-size="14.00">WriteIndirectBufferFromS3</text>
</g>
<!-- WriteIndirectBufferFromS3&#45;&gt;WriteBufferFromS3 -->
<g id="edge8" class="edge">
<title>WriteIndirectBufferFromS3&#45;&gt;WriteBufferFromS3</title>
<path fill="none" stroke="#666666" d="M1614.66,-190.79C1635.99,-179.77 1663.36,-165.15 1687,-151 1706.34,-139.42 1727.19,-125.72 1744.74,-113.81"/>
<polygon fill="#666666" stroke="#666666" points="1746.78,-116.65 1753.07,-108.12 1742.83,-110.87 1746.78,-116.65"/>
</g>
<!-- WriteBufferFromFile&#45;&gt;WriteBufferFromFileDescriptor -->
<g id="edge11" class="edge">
<title>WriteBufferFromFile&#45;&gt;WriteBufferFromFileDescriptor</title>
<path fill="none" stroke="#666666" d="M1359.94,-255.03C1390.83,-268.53 1431.26,-285.35 1468,-298 1477.22,-301.17 1486.96,-304.25 1496.68,-307.14"/>
<polygon fill="#666666" stroke="#666666" points="1495.78,-310.53 1506.36,-309.98 1497.75,-303.81 1495.78,-310.53"/>
</g>
<!-- WriteBufferFromFileBase -->
<g id="node16" class="node">
<title>WriteBufferFromFileBase</title>
<polygon fill="none" stroke="black" points="1388,-529 1228,-529 1228,-493 1388,-493 1388,-529"/>
<text text-anchor="middle" x="1308" y="-507.3" font-family="Times,serif" font-size="14.00">WriteBufferFromFileBase</text>
</g>
<!-- WriteBufferFromFileBase&#45;&gt;WriteBufferFromFileDescriptor -->
<g id="edge12" class="edge">
<title>WriteBufferFromFileBase&#45;&gt;WriteBufferFromFileDescriptor</title>
<path fill="none" stroke="#666666" d="M1371.64,-492.97C1393.13,-484.17 1415.81,-471.57 1432,-454 1463.44,-419.87 1433.6,-387.14 1468,-356 1469.73,-354.44 1471.53,-352.96 1473.4,-351.56"/>
<polygon fill="#666666" stroke="#666666" points="1475.54,-354.34 1481.98,-345.93 1471.7,-348.49 1475.54,-354.34"/>
</g>
<!-- WriteBufferFromFileBase&#45;&gt;WriteIndirectBufferFromS3 -->
<g id="edge13" class="edge">
<title>WriteBufferFromFileBase&#45;&gt;WriteIndirectBufferFromS3</title>
<path fill="none" stroke="#666666" d="M1375.43,-493C1396.25,-484.33 1417.54,-471.82 1432,-454 1476.84,-398.75 1430.49,-358.46 1468,-298 1484.74,-271.01 1512.56,-248.44 1535.84,-232.77"/>
<polygon fill="#666666" stroke="#666666" points="1538.05,-235.51 1544.51,-227.11 1534.22,-229.65 1538.05,-235.51"/>
</g>
<!-- WriteIndirectBuffer -->
<g id="node17" class="node">
<title>WriteIndirectBuffer</title>
<polygon fill="none" stroke="black" points="1640,-502 1515,-502 1515,-466 1640,-466 1640,-502"/>
<text text-anchor="middle" x="1577.5" y="-480.3" font-family="Times,serif" font-size="14.00">WriteIndirectBuffer</text>
</g>
<!-- WriteBufferFromFileBase&#45;&gt;WriteIndirectBuffer -->
<g id="edge14" class="edge">
<title>WriteBufferFromFileBase&#45;&gt;WriteIndirectBuffer</title>
<path fill="none" stroke="#666666" d="M1388.17,-503.01C1425.05,-499.29 1468.61,-494.89 1504.54,-491.26"/>
<polygon fill="#666666" stroke="#666666" points="1505.35,-494.7 1514.95,-490.21 1504.65,-487.73 1505.35,-494.7"/>
</g>
<!-- WriteBufferAIO -->
<g id="node18" class="node">
<title>WriteBufferAIO</title>
<polygon fill="none" stroke="black" points="1631,-556 1524,-556 1524,-520 1631,-520 1631,-556"/>
<text text-anchor="middle" x="1577.5" y="-534.3" font-family="Times,serif" font-size="14.00">WriteBufferAIO</text>
</g>
<!-- WriteBufferFromFileBase&#45;&gt;WriteBufferAIO -->
<g id="edge15" class="edge">
<title>WriteBufferFromFileBase&#45;&gt;WriteBufferAIO</title>
<path fill="none" stroke="#666666" d="M1388.17,-518.99C1428.17,-523.03 1476.02,-527.86 1513.48,-531.64"/>
<polygon fill="#666666" stroke="#666666" points="1513.45,-535.15 1523.75,-532.68 1514.15,-528.19 1513.45,-535.15"/>
</g>
<!-- base_sync -->
<g id="node19" class="node">
<title>base_sync</title>
<polygon fill="none" stroke="black" points="555,-488 555,-534 639,-534 639,-488 555,-488"/>
<text text-anchor="middle" x="597" y="-518.8" font-family="Times,serif" font-size="14.00">sync</text>
<polyline fill="none" stroke="black" points="555,-511 639,-511 "/>
<text text-anchor="middle" x="597" y="-495.8" font-family="Times,serif" font-size="14.00">sync虚函数</text>
</g>
<!-- base_sync&#45;&gt;fd_sync -->
<g id="edge16" class="edge">
<title>base_sync&#45;&gt;fd_sync</title>
<path fill="none" stroke="#666666" d="M639.09,-505.17C731.65,-491.85 963.43,-457.54 1156,-421 1195.56,-413.49 1240.61,-403.45 1271.14,-396.42"/>
<polygon fill="#666666" stroke="#666666" points="1271.95,-399.83 1280.9,-394.16 1270.37,-393.01 1271.95,-399.83"/>
</g>
<!-- base_sync&#45;&gt;s3_sync -->
<g id="edge17" class="edge">
<title>base_sync&#45;&gt;s3_sync</title>
<path fill="none" stroke="#666666" d="M639.08,-502.85C667.57,-495.07 704.18,-480.47 726,-454 771.26,-399.09 732.26,-362.64 762,-298 767.69,-285.64 776.12,-273.32 784.15,-263.02"/>
<polygon fill="#666666" stroke="#666666" points="786.88,-265.2 790.44,-255.23 781.44,-260.8 786.88,-265.2"/>
</g>
<!-- WriteBuffer_next -->
<g id="node20" class="node">
<title>WriteBuffer_next</title>
<polygon fill="none" stroke="black" points="255,-365 255,-411 432,-411 432,-365 255,-365"/>
<text text-anchor="middle" x="343.5" y="-395.8" font-family="Times,serif" font-size="14.00">WriteBuffer::next</text>
<polyline fill="none" stroke="black" points="255,-388 432,-388 "/>
<text text-anchor="middle" x="343.5" y="-372.8" font-family="Times,serif" font-size="14.00">WriteBuffer基类的next方法</text>
</g>
<!-- nextImpl -->
<g id="node21" class="node">
<title>nextImpl</title>
<polygon fill="none" stroke="black" points="527,-350.5 527,-411.5 667,-411.5 667,-350.5 527,-350.5"/>
<text text-anchor="middle" x="597" y="-396.3" font-family="Times,serif" font-size="14.00">nextImpl</text>
<polyline fill="none" stroke="black" points="527,-388.5 667,-388.5 "/>
<text text-anchor="start" x="535" y="-373.3" font-family="Times,serif" font-size="14.00">WriteBuffer子类需要</text>
<text text-anchor="start" x="535" y="-358.3" font-family="Times,serif" font-size="14.00"> 实现的虚函数</text>
</g>
<!-- WriteBuffer_next&#45;&gt;nextImpl -->
<g id="edge18" class="edge">
<title>WriteBuffer_next&#45;&gt;nextImpl</title>
<path fill="none" stroke="#666666" d="M432.11,-385.56C459.64,-384.8 489.86,-383.95 516.77,-383.21"/>
<polygon fill="#666666" stroke="#666666" points="517.02,-386.7 526.91,-382.92 516.82,-379.7 517.02,-386.7"/>
</g>
<!-- nextImpl&#45;&gt;fd_nextImpl -->
<g id="edge19" class="edge">
<title>nextImpl&#45;&gt;fd_nextImpl</title>
<path fill="none" stroke="#666666" d="M667.01,-381C699.28,-381 736.66,-381 764.67,-381"/>
<polygon fill="#666666" stroke="#666666" points="764.92,-384.5 774.92,-381 764.92,-377.5 764.92,-384.5"/>
</g>
<!-- nextImpl&#45;&gt;s3_nextImpl -->
<g id="edge20" class="edge">
<title>nextImpl&#45;&gt;s3_nextImpl</title>
<path fill="none" stroke="#666666" d="M622.81,-350.32C653.2,-313.93 707.39,-252.69 762,-209 763.37,-207.9 764.79,-206.82 766.24,-205.75"/>
<polygon fill="#666666" stroke="#666666" points="768.56,-208.41 774.81,-199.85 764.59,-202.64 768.56,-208.41"/>
</g>
<!-- plain_file -->
<g id="node22" class="node">
<title>plain_file</title>
<polygon fill="#95e1d3" stroke="black" points="890,-704.5 890,-765.5 1148,-765.5 1148,-704.5 890,-704.5"/>
<text text-anchor="middle" x="1019" y="-750.3" font-family="Times,serif" font-size="14.00">plain_file</text>
<polyline fill="none" stroke="black" points="890,-742.5 1148,-742.5 "/>
<text text-anchor="start" x="898" y="-727.3" font-family="Times,serif" font-size="14.00">std::unique_ptr&lt;WriteBufferFromFileBase&gt;</text>
<text text-anchor="start" x="898" y="-712.3" font-family="Times,serif" font-size="14.00"> plain_file;</text>
</g>
<!-- plain_file&#45;&gt;WriteBufferFromFileBase -->
<g id="edge40" class="edge">
<title>plain_file&#45;&gt;WriteBufferFromFileBase</title>
<path fill="none" stroke="#666666" d="M1148.11,-704.74C1150.81,-703.23 1153.44,-701.66 1156,-700 1220.61,-658.2 1270.09,-579.41 1292.99,-538"/>
<polygon fill="#666666" stroke="#666666" points="1296.16,-539.5 1297.86,-529.04 1290.01,-536.16 1296.16,-539.5"/>
</g>
<!-- marks_file -->
<g id="node23" class="node">
<title>marks_file</title>
<polygon fill="#95e1d3" stroke="black" points="468,-610.5 468,-671.5 726,-671.5 726,-610.5 468,-610.5"/>
<text text-anchor="middle" x="597" y="-656.3" font-family="Times,serif" font-size="14.00">marks_file</text>
<polyline fill="none" stroke="black" points="468,-648.5 726,-648.5 "/>
<text text-anchor="start" x="476" y="-633.3" font-family="Times,serif" font-size="14.00">std::unique_ptr&lt;WriteBufferFromFileBase&gt;</text>
<text text-anchor="start" x="476" y="-618.3" font-family="Times,serif" font-size="14.00"> marks_file;</text>
</g>
<!-- marks_file&#45;&gt;WriteBufferFromFileBase -->
<g id="edge41" class="edge">
<title>marks_file&#45;&gt;WriteBufferFromFileBase</title>
<path fill="none" stroke="#666666" d="M726.22,-633.17C840.37,-624.15 1011.23,-605.59 1156,-569 1191.1,-560.13 1229.15,-545.48 1258.27,-533.13"/>
<polygon fill="#666666" stroke="#666666" points="1259.98,-536.2 1267.78,-529.04 1257.21,-529.77 1259.98,-536.2"/>
</g>
<!-- marks -->
<g id="node24" class="node">
<title>marks</title>
<polygon fill="#95e1d3" stroke="black" points="279.5,-665 279.5,-711 407.5,-711 407.5,-665 279.5,-665"/>
<text text-anchor="middle" x="343.5" y="-695.8" font-family="Times,serif" font-size="14.00">marks</text>
<polyline fill="none" stroke="black" points="279.5,-688 407.5,-688 "/>
<text text-anchor="middle" x="343.5" y="-672.8" font-family="Times,serif" font-size="14.00">HashingWriteBuffer</text>
</g>
<!-- marks&#45;&gt;marks_file -->
<g id="edge24" class="edge">
<title>marks&#45;&gt;marks_file</title>
<path fill="none" stroke="#666666" d="M407.64,-676.2C422.97,-673.34 439.96,-670.16 457.28,-666.92"/>
<polygon fill="#666666" stroke="#666666" points="458.32,-670.29 467.51,-665.01 457.04,-663.41 458.32,-670.29"/>
</g>
<!-- compressed -->
<g id="node25" class="node">
<title>compressed</title>
<polygon fill="#95e1d3" stroke="black" points="279.5,-751 279.5,-797 407.5,-797 407.5,-751 279.5,-751"/>
<text text-anchor="middle" x="343.5" y="-781.8" font-family="Times,serif" font-size="14.00">compressed</text>
<polyline fill="none" stroke="black" points="279.5,-774 407.5,-774 "/>
<text text-anchor="middle" x="343.5" y="-758.8" font-family="Times,serif" font-size="14.00">HashingWriteBuffer</text>
</g>
<!-- compressed_buf -->
<g id="node26" class="node">
<title>compressed_buf</title>
<polygon fill="#95e1d3" stroke="black" points="483.5,-716.5 483.5,-831.5 710.5,-831.5 710.5,-716.5 483.5,-716.5"/>
<text text-anchor="middle" x="597" y="-816.3" font-family="Times,serif" font-size="14.00">compressed_buf</text>
<polyline fill="none" stroke="black" points="483.5,-808.5 710.5,-808.5 "/>
<text text-anchor="start" x="491.5" y="-793.3" font-family="Times,serif" font-size="14.00">CompressedWriteBuffer: 数据成员</text>
<polyline fill="none" stroke="black" points="483.5,-785.5 710.5,-785.5 "/>
<text text-anchor="start" x="491.5" y="-770.3" font-family="Times,serif" font-size="14.00">WriteBuffer &amp; out;</text>
<polyline fill="none" stroke="black" points="483.5,-762.5 710.5,-762.5 "/>
<text text-anchor="start" x="491.5" y="-747.3" font-family="Times,serif" font-size="14.00">CompressionCodecPtr codec;</text>
<polyline fill="none" stroke="black" points="483.5,-739.5 710.5,-739.5 "/>
<text text-anchor="start" x="491.5" y="-724.3" font-family="Times,serif" font-size="14.00">PODArray&lt;char&gt; compressed_buffer;</text>
</g>
<!-- compressed&#45;&gt;compressed_buf -->
<g id="edge21" class="edge">
<title>compressed&#45;&gt;compressed_buf</title>
<path fill="none" stroke="#666666" d="M407.64,-774C427.67,-774 450.54,-774 473.28,-774"/>
<polygon fill="#666666" stroke="#666666" points="473.35,-777.5 483.35,-774 473.35,-770.5 473.35,-777.5"/>
</g>
<!-- plain_hashing -->
<g id="node27" class="node">
<title>plain_hashing</title>
<polygon fill="#95e1d3" stroke="black" points="762,-734 762,-780 854,-780 854,-734 762,-734"/>
<text text-anchor="middle" x="808" y="-764.8" font-family="Times,serif" font-size="14.00">plain_hashing</text>
<polyline fill="none" stroke="black" points="762,-757 854,-757 "/>
<text text-anchor="middle" x="808" y="-741.8" font-family="Times,serif" font-size="14.00"> </text>
</g>
<!-- compressed_buf&#45;&gt;plain_hashing -->
<g id="edge22" class="edge">
<title>compressed_buf&#45;&gt;plain_hashing</title>
<path fill="none" stroke="#666666" d="M710.76,-764.83C725.06,-763.67 739.15,-762.52 751.96,-761.48"/>
<polygon fill="#666666" stroke="#666666" points="752.25,-764.97 761.93,-760.67 751.68,-757.99 752.25,-764.97"/>
</g>
<!-- plain_hashing&#45;&gt;plain_file -->
<g id="edge23" class="edge">
<title>plain_hashing&#45;&gt;plain_file</title>
<path fill="none" stroke="#666666" d="M854.09,-752.25C862.11,-751.41 870.83,-750.49 879.93,-749.53"/>
<polygon fill="#666666" stroke="#666666" points="880.36,-753.01 889.94,-748.48 879.62,-746.05 880.36,-753.01"/>
</g>
<!-- sync -->
<g id="node28" class="node">
<title>sync</title>
<polygon fill="none" stroke="black" points="71,-833 17,-833 17,-797 71,-797 71,-833"/>
<text text-anchor="middle" x="44" y="-811.3" font-family="Times,serif" font-size="14.00">sync</text>
</g>
<!-- plain_file_sync -->
<g id="node30" class="node">
<title>plain_file_sync</title>
<polygon fill="none" stroke="black" points="393,-852 294,-852 294,-816 393,-816 393,-852"/>
<text text-anchor="middle" x="343.5" y="-830.3" font-family="Times,serif" font-size="14.00">plain_file_sync</text>
</g>
<!-- sync&#45;&gt;plain_file_sync -->
<g id="edge25" class="edge">
<title>sync&#45;&gt;plain_file_sync</title>
<path fill="none" stroke="#666666" d="M71.14,-816.67C118.45,-819.69 219.33,-826.13 283.88,-830.26"/>
<polygon fill="#666666" stroke="#666666" points="283.71,-833.75 293.91,-830.9 284.16,-826.77 283.71,-833.75"/>
</g>
<!-- marks_file_sync -->
<g id="node31" class="node">
<title>marks_file_sync</title>
<polygon fill="none" stroke="black" points="396.5,-646 290.5,-646 290.5,-610 396.5,-610 396.5,-646"/>
<text text-anchor="middle" x="343.5" y="-624.3" font-family="Times,serif" font-size="14.00">marks_file_sync</text>
</g>
<!-- sync&#45;&gt;marks_file_sync -->
<g id="edge26" class="edge">
<title>sync&#45;&gt;marks_file_sync</title>
<path fill="none" stroke="#666666" d="M71.26,-813.49C114.58,-810.44 198.3,-802.06 219,-782 260.19,-742.07 207.81,-697.89 247,-656 256.03,-646.35 268.19,-639.96 280.81,-635.76"/>
<polygon fill="#666666" stroke="#666666" points="281.87,-639.09 290.5,-632.95 279.92,-632.37 281.87,-639.09"/>
</g>
<!-- finalize -->
<g id="node29" class="node">
<title>finalize</title>
<polygon fill="none" stroke="black" points="72,-719 16,-719 16,-683 72,-683 72,-719"/>
<text text-anchor="middle" x="44" y="-697.3" font-family="Times,serif" font-size="14.00">finalize</text>
</g>
<!-- compressed_next -->
<g id="node32" class="node">
<title>compressed_next</title>
<polygon fill="none" stroke="black" points="219,-773 108,-773 108,-737 219,-737 219,-773"/>
<text text-anchor="middle" x="163.5" y="-751.3" font-family="Times,serif" font-size="14.00">compressed_next</text>
</g>
<!-- finalize&#45;&gt;compressed_next -->
<g id="edge29" class="edge">
<title>finalize&#45;&gt;compressed_next</title>
<path fill="none" stroke="#666666" d="M72.25,-713.52C84.6,-719.2 99.58,-726.08 113.76,-732.6"/>
<polygon fill="#666666" stroke="#666666" points="112.38,-735.82 122.92,-736.81 115.3,-729.46 112.38,-735.82"/>
</g>
<!-- marks_next -->
<g id="node33" class="node">
<title>marks_next</title>
<polygon fill="none" stroke="black" points="203.5,-665 123.5,-665 123.5,-629 203.5,-629 203.5,-665"/>
<text text-anchor="middle" x="163.5" y="-643.3" font-family="Times,serif" font-size="14.00">marks_next</text>
</g>
<!-- finalize&#45;&gt;marks_next -->
<g id="edge30" class="edge">
<title>finalize&#45;&gt;marks_next</title>
<path fill="none" stroke="#666666" d="M72.25,-688.48C84.71,-682.75 99.85,-675.79 114.14,-669.22"/>
<polygon fill="#666666" stroke="#666666" points="115.75,-672.34 123.37,-664.98 112.83,-665.98 115.75,-672.34"/>
</g>
<!-- plain_file_next -->
<g id="node34" class="node">
<title>plain_file_next</title>
<polygon fill="none" stroke="black" points="212.5,-719 114.5,-719 114.5,-683 212.5,-683 212.5,-719"/>
<text text-anchor="middle" x="163.5" y="-697.3" font-family="Times,serif" font-size="14.00">plain_file_next</text>
</g>
<!-- finalize&#45;&gt;plain_file_next -->
<g id="edge31" class="edge">
<title>finalize&#45;&gt;plain_file_next</title>
<path fill="none" stroke="#666666" d="M72.25,-701C81.8,-701 92.93,-701 104.04,-701"/>
<polygon fill="#666666" stroke="#666666" points="104.2,-704.5 114.2,-701 104.2,-697.5 104.2,-704.5"/>
</g>
<!-- plain_file_sync&#45;&gt;base_sync -->
<g id="edge35" class="edge">
<title>plain_file_sync&#45;&gt;base_sync</title>
<path fill="none" stroke="#666666" d="M393.42,-828.73C407.72,-824.85 422.13,-818.22 432,-807 494.22,-736.2 416.96,-677.24 468,-598 486.56,-569.18 518.41,-547.48 545.7,-532.96"/>
<polygon fill="#666666" stroke="#666666" points="547.45,-535.99 554.75,-528.31 544.25,-529.76 547.45,-535.99"/>
</g>
<!-- plain_file_sync&#45;&gt;plain_file -->
<g id="edge27" class="edge">
<title>plain_file_sync&#45;&gt;plain_file</title>
<path fill="none" stroke="#666666" d="M393.3,-845.14C485.66,-864.07 691.37,-895.86 854,-846 901.12,-831.55 946.89,-798.48 978.05,-772.17"/>
<polygon fill="#666666" stroke="#666666" points="980.35,-774.81 985.65,-765.64 975.79,-769.5 980.35,-774.81"/>
</g>
<!-- marks_file_sync&#45;&gt;base_sync -->
<g id="edge36" class="edge">
<title>marks_file_sync&#45;&gt;base_sync</title>
<path fill="none" stroke="#666666" d="M383.25,-609.98C426.78,-589.72 497.6,-556.78 545.45,-534.52"/>
<polygon fill="#666666" stroke="#666666" points="547.11,-537.6 554.7,-530.21 544.16,-531.26 547.11,-537.6"/>
</g>
<!-- marks_file_sync&#45;&gt;marks_file -->
<g id="edge28" class="edge">
<title>marks_file_sync&#45;&gt;marks_file</title>
<path fill="none" stroke="#666666" d="M396.61,-630.69C414.76,-631.63 436.08,-632.73 457.9,-633.86"/>
<polygon fill="#666666" stroke="#666666" points="457.78,-637.36 467.95,-634.38 458.14,-630.37 457.78,-637.36"/>
</g>
<!-- compressed_next&#45;&gt;WriteBuffer_next -->
<g id="edge39" class="edge">
<title>compressed_next&#45;&gt;WriteBuffer_next</title>
<path fill="none" stroke="#666666" d="M209.88,-736.89C213.29,-734.28 216.41,-731.33 219,-728 255.31,-681.36 228.44,-654.11 247,-598 268.59,-532.74 304.16,-460.59 325.25,-420.13"/>
<polygon fill="#666666" stroke="#666666" points="328.36,-421.75 329.91,-411.27 322.16,-418.49 328.36,-421.75"/>
</g>
<!-- compressed_next&#45;&gt;compressed -->
<g id="edge32" class="edge">
<title>compressed_next&#45;&gt;compressed</title>
<path fill="none" stroke="#666666" d="M219.36,-760.86C235.09,-762.54 252.5,-764.39 269.16,-766.17"/>
<polygon fill="#666666" stroke="#666666" points="269.1,-769.68 279.41,-767.27 269.84,-762.72 269.1,-769.68"/>
</g>
<!-- marks_next&#45;&gt;WriteBuffer_next -->
<g id="edge38" class="edge">
<title>marks_next&#45;&gt;WriteBuffer_next</title>
<path fill="none" stroke="#666666" d="M177.02,-628.79C206.99,-585.18 283.17,-474.33 320.8,-419.58"/>
<polygon fill="#666666" stroke="#666666" points="323.71,-421.52 326.49,-411.3 317.94,-417.55 323.71,-421.52"/>
</g>
<!-- marks_next&#45;&gt;marks -->
<g id="edge33" class="edge">
<title>marks_next&#45;&gt;marks</title>
<path fill="none" stroke="#666666" d="M203.56,-656C222.91,-660.45 246.91,-665.98 269.49,-671.18"/>
<polygon fill="#666666" stroke="#666666" points="268.87,-674.63 279.4,-673.46 270.44,-667.81 268.87,-674.63"/>
</g>
<!-- plain_file_next&#45;&gt;WriteBuffer_next -->
<g id="edge37" class="edge">
<title>plain_file_next&#45;&gt;WriteBuffer_next</title>
<path fill="none" stroke="#666666" d="M208.87,-682.86C212.58,-680.24 216.04,-677.3 219,-674 243.06,-647.22 233.32,-631.3 247,-598 273.21,-534.21 307.37,-461.22 326.93,-420.27"/>
<polygon fill="#666666" stroke="#666666" points="330.17,-421.59 331.34,-411.06 323.86,-418.57 330.17,-421.59"/>
</g>
<!-- plain_file_next&#45;&gt;plain_file -->
<g id="edge34" class="edge">
<title>plain_file_next&#45;&gt;plain_file</title>
<path fill="none" stroke="#666666" d="M212.57,-714.69C223.78,-717.31 235.73,-719.65 247,-721 328.64,-730.75 351.19,-736.16 432,-721 448.87,-717.83 451.13,-710.17 468,-707 580.7,-685.86 611.46,-701.52 726,-707 776.22,-709.4 831.14,-714.12 879.65,-719"/>
<polygon fill="#666666" stroke="#666666" points="879.6,-722.51 889.91,-720.05 880.31,-715.55 879.6,-722.51"/>
</g>
</g>
</svg>
