<?xml version="1.0" encoding="UTF-8" standalone="no"?>
<!DOCTYPE svg PUBLIC "-//W3C//DTD SVG 1.1//EN"
 "http://www.w3.org/Graphics/SVG/1.1/DTD/svg11.dtd">
<!-- Generated by graphviz version 2.44.0 (20200408.0750)
 -->
<!-- Title: select_query Pages: 1 -->
<svg width="1018pt" height="1012pt"
 viewBox="0.00 0.00 1018.00 1012.00" xmlns="http://www.w3.org/2000/svg" xmlns:xlink="http://www.w3.org/1999/xlink">
<g id="graph0" class="graph" transform="scale(1 1) rotate(0) translate(4 1008)">
<title>select_query</title>
<polygon fill="white" stroke="transparent" points="-4,4 -4,-1008 1014,-1008 1014,4 -4,4"/>
<!-- InterpreterSelectQuery_execute -->
<g id="node1" class="node">
<title>InterpreterSelectQuery_execute</title>
<polygon fill="none" stroke="black" points="0,-392.5 0,-461.5 235,-461.5 235,-392.5 0,-392.5"/>
<text text-anchor="middle" x="117.5" y="-446.3" font-family="Times,serif" font-size="14.00">InterpreterSelectQuery::execute</text>
<polyline fill="none" stroke="black" points="0,-438.5 235,-438.5 "/>
<text text-anchor="start" x="8" y="-423.3" font-family="Times,serif" font-size="14.00">最后创建的queryPlan</text>
<polyline fill="none" stroke="black" points="0,-415.5 235,-415.5 "/>
<text text-anchor="start" x="8" y="-400.3" font-family="Times,serif" font-size="14.00">被放到BlockIO的pipeline字段中返回</text>
</g>
<!-- buildQueryPlan -->
<g id="node2" class="node">
<title>buildQueryPlan</title>
<polygon fill="none" stroke="black" points="271,-430.5 271,-491.5 393,-491.5 393,-430.5 271,-430.5"/>
<text text-anchor="middle" x="332" y="-476.3" font-family="Times,serif" font-size="14.00">buildQueryPlan</text>
<polyline fill="none" stroke="black" points="271,-468.5 393,-468.5 "/>
<text text-anchor="start" x="279" y="-453.3" font-family="Times,serif" font-size="14.00">创建各种PlanStep</text>
<text text-anchor="start" x="279" y="-438.3" font-family="Times,serif" font-size="14.00"> 并加到plan中</text>
</g>
<!-- InterpreterSelectQuery_execute&#45;&gt;buildQueryPlan -->
<g id="edge1" class="edge">
<title>InterpreterSelectQuery_execute&#45;&gt;buildQueryPlan</title>
<path fill="none" stroke="#666666" d="M235.01,-445.64C243.8,-447.05 252.51,-448.44 260.87,-449.78"/>
<polygon fill="#666666" stroke="#666666" points="260.46,-453.26 270.89,-451.38 261.57,-446.35 260.46,-453.26"/>
</g>
<!-- buildQueryPipeline -->
<g id="node3" class="node">
<title>buildQueryPipeline</title>
<polygon fill="none" stroke="black" points="393,-412 271,-412 271,-376 393,-376 393,-412"/>
<text text-anchor="middle" x="332" y="-390.3" font-family="Times,serif" font-size="14.00">buildQueryPipeline</text>
</g>
<!-- InterpreterSelectQuery_execute&#45;&gt;buildQueryPipeline -->
<g id="edge2" class="edge">
<title>InterpreterSelectQuery_execute&#45;&gt;buildQueryPipeline</title>
<path fill="none" stroke="#666666" d="M235.01,-408.91C243.8,-407.54 252.51,-406.19 260.87,-404.89"/>
<polygon fill="#666666" stroke="#666666" points="261.54,-408.33 270.89,-403.34 260.47,-401.41 261.54,-408.33"/>
</g>
<!-- executeImpl -->
<g id="node4" class="node">
<title>executeImpl</title>
<polygon fill="none" stroke="black" points="539,-479 455,-479 455,-443 539,-443 539,-479"/>
<text text-anchor="middle" x="497" y="-457.3" font-family="Times,serif" font-size="14.00">executeImpl</text>
</g>
<!-- buildQueryPlan&#45;&gt;executeImpl -->
<g id="edge3" class="edge">
<title>buildQueryPlan&#45;&gt;executeImpl</title>
<path fill="none" stroke="#666666" d="M393.23,-461C410.04,-461 428.16,-461 444.42,-461"/>
<polygon fill="#666666" stroke="#666666" points="444.81,-464.5 454.81,-461 444.81,-457.5 444.81,-464.5"/>
</g>
<!-- updatePipeline -->
<g id="node40" class="node">
<title>updatePipeline</title>
<polygon fill="none" stroke="black" points="545.5,-365 448.5,-365 448.5,-329 545.5,-329 545.5,-365"/>
<text text-anchor="middle" x="497" y="-343.3" font-family="Times,serif" font-size="14.00">updatePipeline</text>
</g>
<!-- buildQueryPipeline&#45;&gt;updatePipeline -->
<g id="edge43" class="edge">
<title>buildQueryPipeline&#45;&gt;updatePipeline</title>
<path fill="none" stroke="#666666" d="M393.23,-376.63C408.04,-372.36 423.86,-367.8 438.54,-363.57"/>
<polygon fill="#666666" stroke="#666666" points="439.85,-366.83 448.49,-360.7 437.91,-360.11 439.85,-366.83"/>
</g>
<!-- addInterpreterContext -->
<g id="node41" class="node">
<title>addInterpreterContext</title>
<polygon fill="none" stroke="black" points="565,-419 429,-419 429,-383 565,-383 565,-419"/>
<text text-anchor="middle" x="497" y="-397.3" font-family="Times,serif" font-size="14.00">addInterpreterContext</text>
</g>
<!-- buildQueryPipeline&#45;&gt;addInterpreterContext -->
<g id="edge44" class="edge">
<title>buildQueryPipeline&#45;&gt;addInterpreterContext</title>
<path fill="none" stroke="#666666" d="M393.23,-396.59C401.58,-396.94 410.24,-397.32 418.84,-397.69"/>
<polygon fill="#666666" stroke="#666666" points="418.74,-401.19 428.88,-398.12 419.04,-394.19 418.74,-401.19"/>
</g>
<!-- executeFetchColumns -->
<g id="node5" class="node">
<title>executeFetchColumns</title>
<polygon fill="none" stroke="black" points="632,-903 632,-949 773,-949 773,-903 632,-903"/>
<text text-anchor="middle" x="702.5" y="-933.8" font-family="Times,serif" font-size="14.00">executeFetchColumns</text>
<polyline fill="none" stroke="black" points="632,-926 773,-926 "/>
<text text-anchor="start" x="640" y="-910.8" font-family="Times,serif" font-size="14.00">从storage中读取数据</text>
</g>
<!-- executeImpl&#45;&gt;executeFetchColumns -->
<g id="edge4" class="edge">
<title>executeImpl&#45;&gt;executeFetchColumns</title>
<path fill="none" stroke="#666666" d="M499.99,-479.25C508.39,-553.28 543.25,-830.23 601,-893 607.1,-899.63 614.55,-904.93 622.61,-909.16"/>
<polygon fill="#666666" stroke="#666666" points="621.39,-912.46 631.93,-913.51 624.34,-906.11 621.39,-912.46"/>
</g>
<!-- getSelectQuery -->
<g id="node6" class="node">
<title>getSelectQuery</title>
<polygon fill="none" stroke="black" points="752.5,-884 652.5,-884 652.5,-848 752.5,-848 752.5,-884"/>
<text text-anchor="middle" x="702.5" y="-862.3" font-family="Times,serif" font-size="14.00">getSelectQuery</text>
</g>
<!-- executeImpl&#45;&gt;getSelectQuery -->
<g id="edge5" class="edge">
<title>executeImpl&#45;&gt;getSelectQuery</title>
<path fill="none" stroke="#666666" d="M500.53,-479.11C510.37,-547.17 548.24,-786.43 601,-839 612.13,-850.09 627.29,-856.76 642.46,-860.73"/>
<polygon fill="#666666" stroke="#666666" points="641.87,-864.19 652.39,-862.98 643.41,-857.36 641.87,-864.19"/>
</g>
<!-- executeOrder -->
<g id="node7" class="node">
<title>executeOrder</title>
<polygon fill="none" stroke="black" points="747,-830 658,-830 658,-794 747,-794 747,-830"/>
<text text-anchor="middle" x="702.5" y="-808.3" font-family="Times,serif" font-size="14.00">executeOrder</text>
</g>
<!-- executeImpl&#45;&gt;executeOrder -->
<g id="edge6" class="edge">
<title>executeImpl&#45;&gt;executeOrder</title>
<path fill="none" stroke="#666666" d="M498.07,-479.15C499.32,-533.87 510.75,-698.75 601,-785 613.55,-796.99 630.83,-803.78 647.53,-807.59"/>
<polygon fill="#666666" stroke="#666666" points="647.31,-811.12 657.8,-809.6 648.65,-804.25 647.31,-811.12"/>
</g>
<!-- executeDistinct -->
<g id="node8" class="node">
<title>executeDistinct</title>
<polygon fill="none" stroke="black" points="753,-776 652,-776 652,-740 753,-740 753,-776"/>
<text text-anchor="middle" x="702.5" y="-754.3" font-family="Times,serif" font-size="14.00">executeDistinct</text>
</g>
<!-- executeImpl&#45;&gt;executeDistinct -->
<g id="edge7" class="edge">
<title>executeImpl&#45;&gt;executeDistinct</title>
<path fill="none" stroke="#666666" d="M499.4,-479.24C504.15,-527.83 523.92,-661.4 601,-731 612.28,-741.18 626.99,-747.59 641.66,-751.6"/>
<polygon fill="#666666" stroke="#666666" points="641.23,-755.1 651.77,-754.01 642.86,-748.29 641.23,-755.1"/>
</g>
<!-- executeExpression -->
<g id="node9" class="node">
<title>executeExpression</title>
<polygon fill="none" stroke="black" points="761.5,-506 643.5,-506 643.5,-470 761.5,-470 761.5,-506"/>
<text text-anchor="middle" x="702.5" y="-484.3" font-family="Times,serif" font-size="14.00">executeExpression</text>
</g>
<!-- executeImpl&#45;&gt;executeExpression -->
<g id="edge8" class="edge">
<title>executeImpl&#45;&gt;executeExpression</title>
<path fill="none" stroke="#666666" d="M539.18,-466.46C566.22,-470.05 602.23,-474.83 633.46,-478.97"/>
<polygon fill="#666666" stroke="#666666" points="633.04,-482.45 643.41,-480.29 633.96,-475.51 633.04,-482.45"/>
</g>
<!-- executeLimitBy -->
<g id="node10" class="node">
<title>executeLimitBy</title>
<polygon fill="none" stroke="black" points="754.5,-722 650.5,-722 650.5,-686 754.5,-686 754.5,-722"/>
<text text-anchor="middle" x="702.5" y="-700.3" font-family="Times,serif" font-size="14.00">executeLimitBy</text>
</g>
<!-- executeImpl&#45;&gt;executeLimitBy -->
<g id="edge9" class="edge">
<title>executeImpl&#45;&gt;executeLimitBy</title>
<path fill="none" stroke="#666666" d="M501.33,-479.23C509.93,-520.89 536.82,-623.58 601,-677 612.28,-686.39 626.53,-692.54 640.72,-696.56"/>
<polygon fill="#666666" stroke="#666666" points="639.94,-699.97 650.49,-699.02 641.65,-693.19 639.94,-699.97"/>
</g>
<!-- executePreLimit -->
<g id="node11" class="node">
<title>executePreLimit</title>
<polygon fill="none" stroke="black" points="756,-668 649,-668 649,-632 756,-632 756,-668"/>
<text text-anchor="middle" x="702.5" y="-646.3" font-family="Times,serif" font-size="14.00">executePreLimit</text>
</g>
<!-- executeImpl&#45;&gt;executePreLimit -->
<g id="edge10" class="edge">
<title>executeImpl&#45;&gt;executePreLimit</title>
<path fill="none" stroke="#666666" d="M504.42,-479.21C517.27,-512.94 549.42,-585.12 601,-623 612.19,-631.22 625.72,-636.94 639.17,-640.91"/>
<polygon fill="#666666" stroke="#666666" points="638.36,-644.32 648.92,-643.51 640.16,-637.55 638.36,-644.32"/>
</g>
<!-- executeAggregation -->
<g id="node12" class="node">
<title>executeAggregation</title>
<polygon fill="none" stroke="black" points="765,-344 640,-344 640,-308 765,-308 765,-344"/>
<text text-anchor="middle" x="702.5" y="-322.3" font-family="Times,serif" font-size="14.00">executeAggregation</text>
</g>
<!-- executeImpl&#45;&gt;executeAggregation -->
<g id="edge11" class="edge">
<title>executeImpl&#45;&gt;executeAggregation</title>
<path fill="none" stroke="#666666" d="M539.11,-446.11C548.42,-441.36 557.7,-435.37 565,-428 591.01,-401.72 572.55,-376.62 601,-353 609.46,-345.98 619.58,-340.77 630.09,-336.9"/>
<polygon fill="#666666" stroke="#666666" points="631.4,-340.16 639.82,-333.72 629.22,-333.5 631.4,-340.16"/>
</g>
<!-- executeSubqueriesInSetsAndJoins -->
<g id="node13" class="node">
<title>executeSubqueriesInSetsAndJoins</title>
<polygon fill="none" stroke="black" points="804,-614 601,-614 601,-578 804,-578 804,-614"/>
<text text-anchor="middle" x="702.5" y="-592.3" font-family="Times,serif" font-size="14.00">executeSubqueriesInSetsAndJoins</text>
</g>
<!-- executeImpl&#45;&gt;executeSubqueriesInSetsAndJoins -->
<g id="edge12" class="edge">
<title>executeImpl&#45;&gt;executeSubqueriesInSetsAndJoins</title>
<path fill="none" stroke="#666666" d="M510.4,-479.23C527.81,-503.4 561.79,-545.72 601,-569 603.84,-570.68 606.78,-572.26 609.8,-573.75"/>
<polygon fill="#666666" stroke="#666666" points="608.5,-577 619.05,-577.91 611.37,-570.62 608.5,-577"/>
</g>
<!-- executeMergeAggregated -->
<g id="node14" class="node">
<title>executeMergeAggregated</title>
<polygon fill="none" stroke="black" points="781,-452 624,-452 624,-416 781,-416 781,-452"/>
<text text-anchor="middle" x="702.5" y="-430.3" font-family="Times,serif" font-size="14.00">executeMergeAggregated</text>
</g>
<!-- executeImpl&#45;&gt;executeMergeAggregated -->
<g id="edge13" class="edge">
<title>executeImpl&#45;&gt;executeMergeAggregated</title>
<path fill="none" stroke="#666666" d="M539.18,-455.54C560.61,-452.69 587.67,-449.1 613.53,-445.67"/>
<polygon fill="#666666" stroke="#666666" points="614.29,-449.1 623.74,-444.32 613.37,-442.16 614.29,-449.1"/>
</g>
<!-- executeRollupOrCube -->
<g id="node15" class="node">
<title>executeRollupOrCube</title>
<polygon fill="none" stroke="black" points="771,-398 634,-398 634,-362 771,-362 771,-398"/>
<text text-anchor="middle" x="702.5" y="-376.3" font-family="Times,serif" font-size="14.00">executeRollupOrCube</text>
</g>
<!-- executeImpl&#45;&gt;executeRollupOrCube -->
<g id="edge14" class="edge">
<title>executeImpl&#45;&gt;executeRollupOrCube</title>
<path fill="none" stroke="#666666" d="M535.8,-442.96C545.39,-438.22 555.63,-433.03 565,-428 581.32,-419.24 583.9,-414.13 601,-407 608.41,-403.91 616.27,-401.08 624.21,-398.51"/>
<polygon fill="#666666" stroke="#666666" points="625.39,-401.81 633.91,-395.51 623.32,-395.12 625.39,-401.81"/>
</g>
<!-- executeHaving -->
<g id="node16" class="node">
<title>executeHaving</title>
<polygon fill="none" stroke="black" points="751.5,-144 653.5,-144 653.5,-108 751.5,-108 751.5,-144"/>
<text text-anchor="middle" x="702.5" y="-122.3" font-family="Times,serif" font-size="14.00">executeHaving</text>
</g>
<!-- executeImpl&#45;&gt;executeHaving -->
<g id="edge15" class="edge">
<title>executeImpl&#45;&gt;executeHaving</title>
<path fill="none" stroke="#666666" d="M539.15,-448.49C549.04,-443.61 558.58,-436.96 565,-428 636.79,-327.8 519.79,-245.73 601,-153 611.84,-140.62 627.69,-133.63 643.62,-129.76"/>
<polygon fill="#666666" stroke="#666666" points="644.4,-133.18 653.5,-127.74 643,-126.32 644.4,-133.18"/>
</g>
<!-- executeMergeSorted -->
<g id="node17" class="node">
<title>executeMergeSorted</title>
<polygon fill="none" stroke="black" points="767,-290 638,-290 638,-254 767,-254 767,-290"/>
<text text-anchor="middle" x="702.5" y="-268.3" font-family="Times,serif" font-size="14.00">executeMergeSorted</text>
</g>
<!-- executeImpl&#45;&gt;executeMergeSorted -->
<g id="edge16" class="edge">
<title>executeImpl&#45;&gt;executeMergeSorted</title>
<path fill="none" stroke="#666666" d="M539.02,-447.5C548.67,-442.66 558.13,-436.28 565,-428 603.01,-382.19 558.71,-340.89 601,-299 608.59,-291.49 618.03,-286 628.06,-282.01"/>
<polygon fill="#666666" stroke="#666666" points="629.53,-285.21 637.83,-278.63 627.23,-278.6 629.53,-285.21"/>
</g>
<!-- executeWithFill -->
<g id="node18" class="node">
<title>executeWithFill</title>
<polygon fill="none" stroke="black" points="754.5,-90 650.5,-90 650.5,-54 754.5,-54 754.5,-90"/>
<text text-anchor="middle" x="702.5" y="-68.3" font-family="Times,serif" font-size="14.00">executeWithFill</text>
</g>
<!-- executeImpl&#45;&gt;executeWithFill -->
<g id="edge17" class="edge">
<title>executeImpl&#45;&gt;executeWithFill</title>
<path fill="none" stroke="#666666" d="M539.28,-448.58C549.17,-443.7 558.68,-437.03 565,-428 649.39,-307.52 505.27,-210.68 601,-99 611.08,-87.24 625.68,-80.33 640.64,-76.34"/>
<polygon fill="#666666" stroke="#666666" points="641.49,-79.73 650.48,-74.12 639.95,-72.91 641.49,-79.73"/>
</g>
<!-- executeProjection -->
<g id="node19" class="node">
<title>executeProjection</title>
<polygon fill="none" stroke="black" points="759,-560 646,-560 646,-524 759,-524 759,-560"/>
<text text-anchor="middle" x="702.5" y="-538.3" font-family="Times,serif" font-size="14.00">executeProjection</text>
</g>
<!-- executeImpl&#45;&gt;executeProjection -->
<g id="edge18" class="edge">
<title>executeImpl&#45;&gt;executeProjection</title>
<path fill="none" stroke="#666666" d="M528.27,-479.14C548.36,-490.6 575.61,-505.08 601,-515 612.11,-519.34 624.17,-523.24 635.96,-526.64"/>
<polygon fill="#666666" stroke="#666666" points="635.19,-530.06 645.76,-529.37 637.07,-523.31 635.19,-530.06"/>
</g>
<!-- executeWhere -->
<g id="node20" class="node">
<title>executeWhere</title>
<polygon fill="none" stroke="black" points="750,-198 655,-198 655,-162 750,-162 750,-198"/>
<text text-anchor="middle" x="702.5" y="-176.3" font-family="Times,serif" font-size="14.00">executeWhere</text>
</g>
<!-- executeImpl&#45;&gt;executeWhere -->
<g id="edge19" class="edge">
<title>executeImpl&#45;&gt;executeWhere</title>
<path fill="none" stroke="#666666" d="M539.29,-448.17C549.06,-443.3 558.5,-436.74 565,-428 623.05,-349.89 537.28,-285.56 601,-212 612.17,-199.11 628.52,-191.36 644.8,-186.72"/>
<polygon fill="#666666" stroke="#666666" points="646.02,-190.02 654.88,-184.21 644.33,-183.23 646.02,-190.02"/>
</g>
<!-- executeTotalsAndHaving -->
<g id="node21" class="node">
<title>executeTotalsAndHaving</title>
<polygon fill="none" stroke="black" points="780,-36 625,-36 625,0 780,0 780,-36"/>
<text text-anchor="middle" x="702.5" y="-14.3" font-family="Times,serif" font-size="14.00">executeTotalsAndHaving</text>
</g>
<!-- executeImpl&#45;&gt;executeTotalsAndHaving -->
<g id="edge20" class="edge">
<title>executeImpl&#45;&gt;executeTotalsAndHaving</title>
<path fill="none" stroke="#666666" d="M539.03,-448.82C549.03,-443.92 558.67,-437.18 565,-428 613.51,-357.61 545.86,-110.33 601,-45 605.21,-40.02 610.22,-35.9 615.74,-32.51"/>
<polygon fill="#666666" stroke="#666666" points="617.56,-35.51 624.78,-27.75 614.3,-29.31 617.56,-35.51"/>
</g>
<!-- addStep -->
<g id="node22" class="node">
<title>addStep</title>
<polygon fill="none" stroke="black" points="955,-252 895,-252 895,-216 955,-216 955,-252"/>
<text text-anchor="middle" x="925" y="-230.3" font-family="Times,serif" font-size="14.00">addStep</text>
</g>
<!-- executeImpl&#45;&gt;addStep -->
<g id="edge21" class="edge">
<title>executeImpl&#45;&gt;addStep</title>
<path fill="none" stroke="#666666" d="M539.12,-448.04C548.89,-443.17 558.38,-436.65 565,-428 615.41,-362.2 537.88,-298.74 601,-245 642.62,-209.57 807.98,-221.7 884.62,-229.52"/>
<polygon fill="#666666" stroke="#666666" points="884.52,-233.02 894.83,-230.58 885.25,-226.06 884.52,-233.02"/>
</g>
<!-- setMaxThreads -->
<g id="node27" class="node">
<title>setMaxThreads</title>
<polygon fill="none" stroke="black" points="975.5,-1004 874.5,-1004 874.5,-968 975.5,-968 975.5,-1004"/>
<text text-anchor="middle" x="925" y="-982.3" font-family="Times,serif" font-size="14.00">setMaxThreads</text>
</g>
<!-- executeFetchColumns&#45;&gt;setMaxThreads -->
<g id="edge29" class="edge">
<title>executeFetchColumns&#45;&gt;setMaxThreads</title>
<path fill="none" stroke="#666666" d="M773.27,-944.98C802.61,-952.97 836.4,-962.16 864.54,-969.82"/>
<polygon fill="#666666" stroke="#666666" points="863.67,-973.21 874.24,-972.46 865.51,-966.46 863.67,-973.21"/>
</g>
<!-- ReadFromStorageStep -->
<g id="node28" class="node">
<title>ReadFromStorageStep</title>
<polygon fill="none" stroke="black" points="840,-903 840,-949 1010,-949 1010,-903 840,-903"/>
<text text-anchor="middle" x="925" y="-933.8" font-family="Times,serif" font-size="14.00">ReadFromStorageStep</text>
<polyline fill="none" stroke="black" points="840,-926 1010,-926 "/>
<text text-anchor="start" x="848" y="-910.8" font-family="Times,serif" font-size="14.00">从storage中读取指定的行</text>
</g>
<!-- executeFetchColumns&#45;&gt;ReadFromStorageStep -->
<g id="edge30" class="edge">
<title>executeFetchColumns&#45;&gt;ReadFromStorageStep</title>
<path fill="none" stroke="#666666" d="M773.27,-926C791.13,-926 810.63,-926 829.51,-926"/>
<polygon fill="#666666" stroke="#666666" points="829.62,-929.5 839.62,-926 829.62,-922.5 829.62,-929.5"/>
</g>
<!-- executeOrderOptimized -->
<g id="node31" class="node">
<title>executeOrderOptimized</title>
<polygon fill="none" stroke="black" points="998.5,-884 851.5,-884 851.5,-848 998.5,-848 998.5,-884"/>
<text text-anchor="middle" x="925" y="-862.3" font-family="Times,serif" font-size="14.00">executeOrderOptimized</text>
</g>
<!-- executeOrder&#45;&gt;executeOrderOptimized -->
<g id="edge33" class="edge">
<title>executeOrder&#45;&gt;executeOrderOptimized</title>
<path fill="none" stroke="#666666" d="M747.06,-822.67C774.02,-829.27 809.5,-837.96 841.6,-845.82"/>
<polygon fill="#666666" stroke="#666666" points="840.9,-849.25 851.44,-848.23 842.56,-842.45 840.9,-849.25"/>
</g>
<!-- PartialSortingStep -->
<g id="node32" class="node">
<title>PartialSortingStep</title>
<polygon fill="none" stroke="black" points="983,-830 867,-830 867,-794 983,-794 983,-830"/>
<text text-anchor="middle" x="925" y="-808.3" font-family="Times,serif" font-size="14.00">PartialSortingStep</text>
</g>
<!-- executeOrder&#45;&gt;PartialSortingStep -->
<g id="edge34" class="edge">
<title>executeOrder&#45;&gt;PartialSortingStep</title>
<path fill="none" stroke="#666666" d="M747.06,-812C778.25,-812 820.84,-812 856.42,-812"/>
<polygon fill="#666666" stroke="#666666" points="856.73,-815.5 866.73,-812 856.73,-808.5 856.73,-815.5"/>
</g>
<!-- DistinctStep -->
<g id="node30" class="node">
<title>DistinctStep</title>
<polygon fill="none" stroke="black" points="966.5,-776 883.5,-776 883.5,-740 966.5,-740 966.5,-776"/>
<text text-anchor="middle" x="925" y="-754.3" font-family="Times,serif" font-size="14.00">DistinctStep</text>
</g>
<!-- executeDistinct&#45;&gt;DistinctStep -->
<g id="edge32" class="edge">
<title>executeDistinct&#45;&gt;DistinctStep</title>
<path fill="none" stroke="#666666" d="M753.26,-758C788.98,-758 836.98,-758 872.98,-758"/>
<polygon fill="#666666" stroke="#666666" points="873.27,-761.5 883.27,-758 873.27,-754.5 873.27,-761.5"/>
</g>
<!-- ExpressionStep -->
<g id="node26" class="node">
<title>ExpressionStep</title>
<polygon fill="none" stroke="black" points="975.5,-560 874.5,-560 874.5,-524 975.5,-524 975.5,-560"/>
<text text-anchor="middle" x="925" y="-538.3" font-family="Times,serif" font-size="14.00">ExpressionStep</text>
</g>
<!-- executeExpression&#45;&gt;ExpressionStep -->
<g id="edge27" class="edge">
<title>executeExpression&#45;&gt;ExpressionStep</title>
<path fill="none" stroke="#666666" d="M761.72,-502.26C793.38,-510.01 832.47,-519.59 864.35,-527.39"/>
<polygon fill="#666666" stroke="#666666" points="863.89,-530.88 874.43,-529.86 865.55,-524.08 863.89,-530.88"/>
</g>
<!-- LimitByStep -->
<g id="node34" class="node">
<title>LimitByStep</title>
<polygon fill="none" stroke="black" points="968.5,-722 881.5,-722 881.5,-686 968.5,-686 968.5,-722"/>
<text text-anchor="middle" x="925" y="-700.3" font-family="Times,serif" font-size="14.00">LimitByStep</text>
</g>
<!-- executeLimitBy&#45;&gt;LimitByStep -->
<g id="edge36" class="edge">
<title>executeLimitBy&#45;&gt;LimitByStep</title>
<path fill="none" stroke="#666666" d="M754.64,-704C789.61,-704 835.84,-704 871.17,-704"/>
<polygon fill="#666666" stroke="#666666" points="871.29,-707.5 881.29,-704 871.29,-700.5 871.29,-707.5"/>
</g>
<!-- LimitStep -->
<g id="node33" class="node">
<title>LimitStep</title>
<polygon fill="none" stroke="black" points="960.5,-668 889.5,-668 889.5,-632 960.5,-632 960.5,-668"/>
<text text-anchor="middle" x="925" y="-646.3" font-family="Times,serif" font-size="14.00">LimitStep</text>
</g>
<!-- executePreLimit&#45;&gt;LimitStep -->
<g id="edge35" class="edge">
<title>executePreLimit&#45;&gt;LimitStep</title>
<path fill="none" stroke="#666666" d="M756.04,-650C793.6,-650 843.61,-650 879.27,-650"/>
<polygon fill="#666666" stroke="#666666" points="879.39,-653.5 889.39,-650 879.39,-646.5 879.39,-653.5"/>
</g>
<!-- executeAggregation&#45;&gt;addStep -->
<g id="edge25" class="edge">
<title>executeAggregation&#45;&gt;addStep</title>
<path fill="none" stroke="#666666" d="M765.1,-311.9C778.13,-308.24 791.67,-303.92 804,-299 808.31,-297.28 852.34,-273.29 885.83,-254.95"/>
<polygon fill="#666666" stroke="#666666" points="887.86,-257.83 894.95,-249.96 884.5,-251.69 887.86,-257.83"/>
</g>
<!-- AggregatingStep -->
<g id="node25" class="node">
<title>AggregatingStep</title>
<polygon fill="none" stroke="black" points="979,-325 871,-325 871,-289 979,-289 979,-325"/>
<text text-anchor="middle" x="925" y="-303.3" font-family="Times,serif" font-size="14.00">AggregatingStep</text>
</g>
<!-- executeAggregation&#45;&gt;AggregatingStep -->
<g id="edge26" class="edge">
<title>executeAggregation&#45;&gt;AggregatingStep</title>
<path fill="none" stroke="#666666" d="M765.21,-320.68C794.96,-318.12 830.6,-315.05 860.56,-312.47"/>
<polygon fill="#666666" stroke="#666666" points="861.25,-315.92 870.91,-311.57 860.64,-308.95 861.25,-315.92"/>
</g>
<!-- CreatingSetsStep -->
<g id="node39" class="node">
<title>CreatingSetsStep</title>
<polygon fill="none" stroke="black" points="980,-614 870,-614 870,-578 980,-578 980,-614"/>
<text text-anchor="middle" x="925" y="-592.3" font-family="Times,serif" font-size="14.00">CreatingSetsStep</text>
</g>
<!-- executeSubqueriesInSetsAndJoins&#45;&gt;CreatingSetsStep -->
<g id="edge42" class="edge">
<title>executeSubqueriesInSetsAndJoins&#45;&gt;CreatingSetsStep</title>
<path fill="none" stroke="#666666" d="M804.07,-596C823.06,-596 842.44,-596 859.92,-596"/>
<polygon fill="#666666" stroke="#666666" points="859.98,-599.5 869.98,-596 859.98,-592.5 859.98,-599.5"/>
</g>
<!-- MergingAggregatedStep -->
<g id="node29" class="node">
<title>MergingAggregatedStep</title>
<polygon fill="none" stroke="black" points="1000.5,-487 849.5,-487 849.5,-451 1000.5,-451 1000.5,-487"/>
<text text-anchor="middle" x="925" y="-465.3" font-family="Times,serif" font-size="14.00">MergingAggregatedStep</text>
</g>
<!-- executeMergeAggregated&#45;&gt;MergingAggregatedStep -->
<g id="edge31" class="edge">
<title>executeMergeAggregated&#45;&gt;MergingAggregatedStep</title>
<path fill="none" stroke="#666666" d="M781.24,-446.34C799.95,-449.31 820.03,-452.5 839.05,-455.52"/>
<polygon fill="#666666" stroke="#666666" points="838.76,-459.01 849.18,-457.12 839.86,-452.1 838.76,-459.01"/>
</g>
<!-- RollupStep -->
<g id="node36" class="node">
<title>RollupStep</title>
<polygon fill="none" stroke="black" points="963.5,-433 886.5,-433 886.5,-397 963.5,-397 963.5,-433"/>
<text text-anchor="middle" x="925" y="-411.3" font-family="Times,serif" font-size="14.00">RollupStep</text>
</g>
<!-- executeRollupOrCube&#45;&gt;RollupStep -->
<g id="edge38" class="edge">
<title>executeRollupOrCube&#45;&gt;RollupStep</title>
<path fill="none" stroke="#666666" d="M771.16,-390.74C805.16,-396.14 845.56,-402.55 876.28,-407.43"/>
<polygon fill="#666666" stroke="#666666" points="875.88,-410.91 886.3,-409.02 876.98,-403.99 875.88,-410.91"/>
</g>
<!-- CubeStep -->
<g id="node37" class="node">
<title>CubeStep</title>
<polygon fill="none" stroke="black" points="959.5,-379 890.5,-379 890.5,-343 959.5,-343 959.5,-379"/>
<text text-anchor="middle" x="925" y="-357.3" font-family="Times,serif" font-size="14.00">CubeStep</text>
</g>
<!-- executeRollupOrCube&#45;&gt;CubeStep -->
<g id="edge39" class="edge">
<title>executeRollupOrCube&#45;&gt;CubeStep</title>
<path fill="none" stroke="#666666" d="M771.16,-374.17C806.64,-371.11 849.09,-367.46 880.23,-364.77"/>
<polygon fill="#666666" stroke="#666666" points="880.67,-368.25 890.33,-363.9 880.07,-361.27 880.67,-368.25"/>
</g>
<!-- FilterStep -->
<g id="node24" class="node">
<title>FilterStep</title>
<polygon fill="none" stroke="black" points="960,-144 890,-144 890,-108 960,-108 960,-144"/>
<text text-anchor="middle" x="925" y="-122.3" font-family="Times,serif" font-size="14.00">FilterStep</text>
</g>
<!-- executeHaving&#45;&gt;FilterStep -->
<g id="edge40" class="edge">
<title>executeHaving&#45;&gt;FilterStep</title>
<path fill="none" stroke="#666666" d="M751.62,-126C789.84,-126 842.86,-126 879.97,-126"/>
<polygon fill="#666666" stroke="#666666" points="879.99,-129.5 889.99,-126 879.99,-122.5 879.99,-129.5"/>
</g>
<!-- FillingStep -->
<g id="node35" class="node">
<title>FillingStep</title>
<polygon fill="none" stroke="black" points="963.5,-90 886.5,-90 886.5,-54 963.5,-54 963.5,-90"/>
<text text-anchor="middle" x="925" y="-68.3" font-family="Times,serif" font-size="14.00">FillingStep</text>
</g>
<!-- executeWithFill&#45;&gt;FillingStep -->
<g id="edge37" class="edge">
<title>executeWithFill&#45;&gt;FillingStep</title>
<path fill="none" stroke="#666666" d="M754.64,-72C791.23,-72 840.15,-72 876.01,-72"/>
<polygon fill="#666666" stroke="#666666" points="876.22,-75.5 886.22,-72 876.22,-68.5 876.22,-75.5"/>
</g>
<!-- executeProjection&#45;&gt;ExpressionStep -->
<g id="edge28" class="edge">
<title>executeProjection&#45;&gt;ExpressionStep</title>
<path fill="none" stroke="#666666" d="M759.14,-542C791.15,-542 831.36,-542 864.06,-542"/>
<polygon fill="#666666" stroke="#666666" points="864.4,-545.5 874.4,-542 864.4,-538.5 864.4,-545.5"/>
</g>
<!-- executeWhere&#45;&gt;addStep -->
<g id="edge22" class="edge">
<title>executeWhere&#45;&gt;addStep</title>
<path fill="none" stroke="#666666" d="M750.26,-191.45C790.24,-201.24 847.12,-215.17 884.77,-224.39"/>
<polygon fill="#666666" stroke="#666666" points="884.3,-227.88 894.85,-226.86 885.97,-221.08 884.3,-227.88"/>
</g>
<!-- getCurrentDataStream -->
<g id="node23" class="node">
<title>getCurrentDataStream</title>
<polygon fill="none" stroke="black" points="994.5,-198 855.5,-198 855.5,-162 994.5,-162 994.5,-198"/>
<text text-anchor="middle" x="925" y="-176.3" font-family="Times,serif" font-size="14.00">getCurrentDataStream</text>
</g>
<!-- executeWhere&#45;&gt;getCurrentDataStream -->
<g id="edge23" class="edge">
<title>executeWhere&#45;&gt;getCurrentDataStream</title>
<path fill="none" stroke="#666666" d="M750.26,-180C777.75,-180 813.23,-180 844.96,-180"/>
<polygon fill="#666666" stroke="#666666" points="845.11,-183.5 855.11,-180 845.11,-176.5 845.11,-183.5"/>
</g>
<!-- executeWhere&#45;&gt;FilterStep -->
<g id="edge24" class="edge">
<title>executeWhere&#45;&gt;FilterStep</title>
<path fill="none" stroke="#666666" d="M750.26,-168.55C788.51,-159.18 842.22,-146.03 879.77,-136.83"/>
<polygon fill="#666666" stroke="#666666" points="881.02,-140.13 889.9,-134.35 879.36,-133.33 881.02,-140.13"/>
</g>
<!-- TotalsHavingStep -->
<g id="node38" class="node">
<title>TotalsHavingStep</title>
<polygon fill="none" stroke="black" points="982,-36 868,-36 868,0 982,0 982,-36"/>
<text text-anchor="middle" x="925" y="-14.3" font-family="Times,serif" font-size="14.00">TotalsHavingStep</text>
</g>
<!-- executeTotalsAndHaving&#45;&gt;TotalsHavingStep -->
<g id="edge41" class="edge">
<title>executeTotalsAndHaving&#45;&gt;TotalsHavingStep</title>
<path fill="none" stroke="#666666" d="M780,-18C805.25,-18 833.12,-18 857.55,-18"/>
<polygon fill="#666666" stroke="#666666" points="857.8,-21.5 867.8,-18 857.8,-14.5 857.8,-21.5"/>
</g>
</g>
</svg>
