<?xml version="1.0" encoding="UTF-8" standalone="no"?>
<!DOCTYPE svg PUBLIC "-//W3C//DTD SVG 1.1//EN"
 "http://www.w3.org/Graphics/SVG/1.1/DTD/svg11.dtd">
<!-- Generated by graphviz version 2.44.0 (20200408.0750)
 -->
<!-- Title: server_main Pages: 1 -->
<svg width="2066pt" height="771pt"
 viewBox="0.00 0.00 2066.00 771.28" xmlns="http://www.w3.org/2000/svg" xmlns:xlink="http://www.w3.org/1999/xlink">
<g id="graph0" class="graph" transform="scale(1 1) rotate(0) translate(4 767.28)">
<title>server_main</title>
<polygon fill="white" stroke="transparent" points="-4,4 -4,-767.28 2062,-767.28 2062,4 -4,4"/>
<g id="clust1" class="cluster">
<title>cluster_Server</title>
<polygon fill="none" stroke="black" points="8,-8 8,-534 653,-534 653,-8 8,-8"/>
<text text-anchor="middle" x="330.5" y="-514" font-family="Times,serif" font-size="20.00">Server</text>
</g>
<g id="clust4" class="cluster">
<title>cluster_TcpHandler</title>
<polygon fill="none" stroke="black" points="673,-108 673,-745 2050,-745 2050,-108 673,-108"/>
<text text-anchor="middle" x="1361.5" y="-725" font-family="Times,serif" font-size="20.00">TcpHandler</text>
</g>
<!-- Server_main -->
<g id="node1" class="node">
<title>Server_main</title>
<polygon fill="none" stroke="black" points="102,-268 16,-268 16,-232 102,-232 102,-268"/>
<text text-anchor="middle" x="59" y="-246.3" font-family="Times,serif" font-size="14.00">Server_main</text>
</g>
<!-- registerFunctions -->
<g id="node2" class="node">
<title>registerFunctions</title>
<polygon fill="none" stroke="black" points="278,-52 168,-52 168,-16 278,-16 278,-52"/>
<text text-anchor="middle" x="223" y="-30.3" font-family="Times,serif" font-size="14.00">registerFunctions</text>
</g>
<!-- Server_main&#45;&gt;registerFunctions -->
<g id="edge1" class="edge">
<title>Server_main&#45;&gt;registerFunctions</title>
<path fill="none" stroke="#666666" d="M62.37,-231.78C68.21,-194.34 86.74,-108.3 138,-61 143.86,-55.6 150.8,-51.27 158.16,-47.81"/>
<polygon fill="#666666" stroke="#666666" points="159.74,-50.95 167.63,-43.88 157.05,-44.48 159.74,-50.95"/>
</g>
<!-- registerAggregateFunctions -->
<g id="node3" class="node">
<title>registerAggregateFunctions</title>
<polygon fill="none" stroke="black" points="306.5,-106 139.5,-106 139.5,-70 306.5,-70 306.5,-106"/>
<text text-anchor="middle" x="223" y="-84.3" font-family="Times,serif" font-size="14.00">registerAggregateFunctions</text>
</g>
<!-- Server_main&#45;&gt;registerAggregateFunctions -->
<g id="edge2" class="edge">
<title>Server_main&#45;&gt;registerAggregateFunctions</title>
<path fill="none" stroke="#666666" d="M65.68,-231.86C75.65,-202.94 99.03,-146.45 138,-115 139.56,-113.74 141.19,-112.53 142.86,-111.39"/>
<polygon fill="#666666" stroke="#666666" points="144.86,-114.27 151.61,-106.1 141.24,-108.28 144.86,-114.27"/>
</g>
<!-- registerTableFunctions -->
<g id="node4" class="node">
<title>registerTableFunctions</title>
<polygon fill="none" stroke="black" points="293.5,-160 152.5,-160 152.5,-124 293.5,-124 293.5,-160"/>
<text text-anchor="middle" x="223" y="-138.3" font-family="Times,serif" font-size="14.00">registerTableFunctions</text>
</g>
<!-- Server_main&#45;&gt;registerTableFunctions -->
<g id="edge3" class="edge">
<title>Server_main&#45;&gt;registerTableFunctions</title>
<path fill="none" stroke="#666666" d="M73.23,-231.69C87.36,-213.38 111.33,-185.63 138,-169 140.58,-167.39 143.27,-165.87 146.03,-164.43"/>
<polygon fill="#666666" stroke="#666666" points="147.54,-167.58 155.05,-160.11 144.52,-161.27 147.54,-167.58"/>
</g>
<!-- registerStorages -->
<g id="node5" class="node">
<title>registerStorages</title>
<polygon fill="none" stroke="black" points="275,-214 171,-214 171,-178 275,-178 275,-214"/>
<text text-anchor="middle" x="223" y="-192.3" font-family="Times,serif" font-size="14.00">registerStorages</text>
</g>
<!-- Server_main&#45;&gt;registerStorages -->
<g id="edge4" class="edge">
<title>Server_main&#45;&gt;registerStorages</title>
<path fill="none" stroke="#666666" d="M102.04,-235.26C113.67,-231.23 126.31,-226.9 138,-223 145.54,-220.48 153.48,-217.88 161.34,-215.32"/>
<polygon fill="#666666" stroke="#666666" points="162.42,-218.65 170.86,-212.24 160.26,-211.99 162.42,-218.65"/>
</g>
<!-- registerDictionaries -->
<g id="node6" class="node">
<title>registerDictionaries</title>
<polygon fill="none" stroke="black" points="284.5,-268 161.5,-268 161.5,-232 284.5,-232 284.5,-268"/>
<text text-anchor="middle" x="223" y="-246.3" font-family="Times,serif" font-size="14.00">registerDictionaries</text>
</g>
<!-- Server_main&#45;&gt;registerDictionaries -->
<g id="edge5" class="edge">
<title>Server_main&#45;&gt;registerDictionaries</title>
<path fill="none" stroke="#666666" d="M102.14,-250C117.12,-250 134.43,-250 151.16,-250"/>
<polygon fill="#666666" stroke="#666666" points="151.47,-253.5 161.47,-250 151.47,-246.5 151.47,-253.5"/>
</g>
<!-- registerDisks -->
<g id="node7" class="node">
<title>registerDisks</title>
<polygon fill="none" stroke="black" points="267,-322 179,-322 179,-286 267,-286 267,-322"/>
<text text-anchor="middle" x="223" y="-300.3" font-family="Times,serif" font-size="14.00">registerDisks</text>
</g>
<!-- Server_main&#45;&gt;registerDisks -->
<g id="edge6" class="edge">
<title>Server_main&#45;&gt;registerDisks</title>
<path fill="none" stroke="#666666" d="M102.04,-264.74C113.67,-268.77 126.31,-273.1 138,-277 148.02,-280.34 158.74,-283.85 169.05,-287.18"/>
<polygon fill="#666666" stroke="#666666" points="168.18,-290.58 178.78,-290.31 170.33,-283.91 168.18,-290.58"/>
</g>
<!-- create_server -->
<g id="node8" class="node">
<title>create_server</title>
<polygon fill="none" stroke="black" points="267.5,-376 178.5,-376 178.5,-340 267.5,-340 267.5,-376"/>
<text text-anchor="middle" x="223" y="-354.3" font-family="Times,serif" font-size="14.00">create_server</text>
</g>
<!-- Server_main&#45;&gt;create_server -->
<g id="edge7" class="edge">
<title>Server_main&#45;&gt;create_server</title>
<path fill="none" stroke="#666666" d="M73.23,-268.31C87.36,-286.62 111.33,-314.37 138,-331 147.35,-336.83 158.09,-341.52 168.69,-345.25"/>
<polygon fill="#666666" stroke="#666666" points="167.74,-348.62 178.34,-348.4 169.92,-341.97 167.74,-348.62"/>
</g>
<!-- waitForTerminationRequest -->
<g id="node9" class="node">
<title>waitForTerminationRequest</title>
<polygon fill="none" stroke="black" points="308,-430 138,-430 138,-394 308,-394 308,-430"/>
<text text-anchor="middle" x="223" y="-408.3" font-family="Times,serif" font-size="14.00">waitForTerminationRequest</text>
</g>
<!-- Server_main&#45;&gt;waitForTerminationRequest -->
<g id="edge8" class="edge">
<title>Server_main&#45;&gt;waitForTerminationRequest</title>
<path fill="none" stroke="#666666" d="M65.68,-268.14C75.65,-297.06 99.03,-353.55 138,-385 139.56,-386.26 141.19,-387.47 142.86,-388.61"/>
<polygon fill="#666666" stroke="#666666" points="141.24,-391.72 151.61,-393.9 144.86,-385.73 141.24,-391.72"/>
</g>
<!-- Poco_Net_TcpServer_start -->
<g id="node10" class="node">
<title>Poco_Net_TcpServer_start</title>
<polygon fill="none" stroke="black" points="141.5,-449 141.5,-495 304.5,-495 304.5,-449 141.5,-449"/>
<text text-anchor="middle" x="223" y="-479.8" font-family="Times,serif" font-size="14.00">Poco_Net_TcpServer_start</text>
<polyline fill="none" stroke="black" points="141.5,-472 304.5,-472 "/>
<text text-anchor="start" x="149.5" y="-456.8" font-family="Times,serif" font-size="14.00">开始TcpServer服务</text>
</g>
<!-- Server_main&#45;&gt;Poco_Net_TcpServer_start -->
<g id="edge9" class="edge">
<title>Server_main&#45;&gt;Poco_Net_TcpServer_start</title>
<path fill="none" stroke="#666666" d="M62.67,-268.24C69.02,-305.35 88.39,-390.23 138,-439 139.27,-440.25 140.59,-441.45 141.95,-442.6"/>
<polygon fill="#666666" stroke="#666666" points="140.11,-445.59 150.22,-448.76 144.29,-439.98 140.11,-445.59"/>
</g>
<!-- createHandlerFactory -->
<g id="node13" class="node">
<title>createHandlerFactory</title>
<polygon fill="none" stroke="black" points="494.5,-376 360.5,-376 360.5,-340 494.5,-340 494.5,-376"/>
<text text-anchor="middle" x="427.5" y="-354.3" font-family="Times,serif" font-size="14.00">createHandlerFactory</text>
</g>
<!-- create_server&#45;&gt;createHandlerFactory -->
<g id="edge12" class="edge">
<title>create_server&#45;&gt;createHandlerFactory</title>
<path fill="none" stroke="#666666" d="M267.94,-358C291.97,-358 322.43,-358 350.22,-358"/>
<polygon fill="#666666" stroke="#666666" points="350.32,-361.5 360.32,-358 350.32,-354.5 350.32,-361.5"/>
</g>
<!-- TCPHandlerFactory -->
<g id="node14" class="node">
<title>TCPHandlerFactory</title>
<polygon fill="none" stroke="black" points="490.5,-430 364.5,-430 364.5,-394 490.5,-394 490.5,-430"/>
<text text-anchor="middle" x="427.5" y="-408.3" font-family="Times,serif" font-size="14.00">TCPHandlerFactory</text>
</g>
<!-- create_server&#45;&gt;TCPHandlerFactory -->
<g id="edge13" class="edge">
<title>create_server&#45;&gt;TCPHandlerFactory</title>
<path fill="none" stroke="#666666" d="M267.94,-369.72C293.12,-376.43 325.35,-385.03 354.17,-392.71"/>
<polygon fill="#666666" stroke="#666666" points="353.64,-396.19 364.21,-395.39 355.45,-389.43 353.64,-396.19"/>
</g>
<!-- MySQLHandlerFactory -->
<g id="node15" class="node">
<title>MySQLHandlerFactory</title>
<polygon fill="none" stroke="black" points="500.5,-214 354.5,-214 354.5,-178 500.5,-178 500.5,-214"/>
<text text-anchor="middle" x="427.5" y="-192.3" font-family="Times,serif" font-size="14.00">MySQLHandlerFactory</text>
</g>
<!-- create_server&#45;&gt;MySQLHandlerFactory -->
<g id="edge14" class="edge">
<title>create_server&#45;&gt;MySQLHandlerFactory</title>
<path fill="none" stroke="#666666" d="M267.86,-352.02C282.21,-348.12 297.22,-341.67 308,-331 343.97,-295.42 308.13,-258.68 344,-223 345.07,-221.94 346.18,-220.92 347.33,-219.94"/>
<polygon fill="#666666" stroke="#666666" points="349.4,-222.76 355.4,-214.03 345.26,-217.11 349.4,-222.76"/>
</g>
<!-- PostgreSQLHandlerFactory -->
<g id="node16" class="node">
<title>PostgreSQLHandlerFactory</title>
<polygon fill="none" stroke="black" points="511,-268 344,-268 344,-232 511,-232 511,-268"/>
<text text-anchor="middle" x="427.5" y="-246.3" font-family="Times,serif" font-size="14.00">PostgreSQLHandlerFactory</text>
</g>
<!-- create_server&#45;&gt;PostgreSQLHandlerFactory -->
<g id="edge15" class="edge">
<title>create_server&#45;&gt;PostgreSQLHandlerFactory</title>
<path fill="none" stroke="#666666" d="M267.67,-349.93C281.52,-345.88 296.27,-339.86 308,-331 331.02,-313.62 321.03,-294.45 344,-277 345.8,-275.63 347.68,-274.33 349.61,-273.09"/>
<polygon fill="#666666" stroke="#666666" points="351.47,-276.06 358.42,-268.07 348,-269.98 351.47,-276.06"/>
</g>
<!-- socket_bind_listen -->
<g id="node17" class="node">
<title>socket_bind_listen</title>
<polygon fill="none" stroke="black" points="486.5,-322 368.5,-322 368.5,-286 486.5,-286 486.5,-322"/>
<text text-anchor="middle" x="427.5" y="-300.3" font-family="Times,serif" font-size="14.00">socket_bind_listen</text>
</g>
<!-- create_server&#45;&gt;socket_bind_listen -->
<g id="edge16" class="edge">
<title>create_server&#45;&gt;socket_bind_listen</title>
<path fill="none" stroke="#666666" d="M267.94,-346.28C294.38,-339.23 328.6,-330.11 358.47,-322.14"/>
<polygon fill="#666666" stroke="#666666" points="359.66,-325.45 368.42,-319.49 357.85,-318.68 359.66,-325.45"/>
</g>
<!-- createConnection -->
<g id="node11" class="node">
<title>createConnection</title>
<polygon fill="none" stroke="black" points="372,-449 372,-495 483,-495 483,-449 372,-449"/>
<text text-anchor="middle" x="427.5" y="-479.8" font-family="Times,serif" font-size="14.00">createConnection</text>
<polyline fill="none" stroke="black" points="372,-472 483,-472 "/>
<text text-anchor="middle" x="427.5" y="-456.8" font-family="Times,serif" font-size="14.00">创建conn</text>
</g>
<!-- Poco_Net_TcpServer_start&#45;&gt;createConnection -->
<g id="edge10" class="edge">
<title>Poco_Net_TcpServer_start&#45;&gt;createConnection</title>
<path fill="none" stroke="#666666" stroke-dasharray="5,2" d="M304.62,-472C323.6,-472 343.6,-472 361.79,-472"/>
<polygon fill="#666666" stroke="#666666" points="361.97,-475.5 371.97,-472 361.97,-468.5 361.97,-475.5"/>
</g>
<!-- TcpHandler -->
<g id="node12" class="node">
<title>TcpHandler</title>
<polygon fill="none" stroke="black" points="547,-419 547,-465 645,-465 645,-419 547,-419"/>
<text text-anchor="middle" x="596" y="-449.8" font-family="Times,serif" font-size="14.00">TcpHandler</text>
<polyline fill="none" stroke="black" points="547,-442 645,-442 "/>
<text text-anchor="middle" x="596" y="-426.8" font-family="Times,serif" font-size="14.00">处理TCP连接</text>
</g>
<!-- createConnection&#45;&gt;TcpHandler -->
<g id="edge11" class="edge">
<title>createConnection&#45;&gt;TcpHandler</title>
<path fill="none" stroke="#666666" d="M483.02,-462.18C500.22,-459.08 519.29,-455.64 536.75,-452.5"/>
<polygon fill="#666666" stroke="#666666" points="537.59,-455.9 546.81,-450.68 536.35,-449.01 537.59,-455.9"/>
</g>
<!-- run -->
<g id="node20" class="node">
<title>run</title>
<polygon fill="none" stroke="black" points="735,-460 681,-460 681,-424 735,-424 735,-460"/>
<text text-anchor="middle" x="708" y="-438.3" font-family="Times,serif" font-size="14.00">run</text>
</g>
<!-- TcpHandler&#45;&gt;run -->
<g id="edge18" class="edge">
<title>TcpHandler&#45;&gt;run</title>
<path fill="none" stroke="#b83b5e" d="M645.25,-442C653.76,-442 662.48,-442 670.6,-442"/>
<polygon fill="#b83b5e" stroke="#b83b5e" points="670.85,-445.5 680.85,-442 670.85,-438.5 670.85,-445.5"/>
</g>
<!-- TCPHandlerFactory&#45;&gt;TcpHandler -->
<g id="edge17" class="edge">
<title>TCPHandlerFactory&#45;&gt;TcpHandler</title>
<path fill="none" stroke="#666666" d="M490.97,-423.26C505.97,-425.96 521.92,-428.83 536.72,-431.5"/>
<polygon fill="#666666" stroke="#666666" points="536.29,-434.98 546.75,-433.31 537.53,-428.09 536.29,-434.98"/>
</g>
<!-- runImpl -->
<g id="node18" class="node">
<title>runImpl</title>
<polygon fill="none" stroke="black" points="771,-411.5 771,-472.5 942,-472.5 942,-411.5 771,-411.5"/>
<text text-anchor="middle" x="856.5" y="-457.3" font-family="Times,serif" font-size="14.00">runImpl</text>
<polyline fill="none" stroke="black" points="771,-449.5 942,-449.5 "/>
<text text-anchor="start" x="779" y="-434.3" font-family="Times,serif" font-size="14.00">主循环,从tcp中readPacket,</text>
<text text-anchor="start" x="779" y="-419.3" font-family="Times,serif" font-size="14.00"> 执行然后返回结果</text>
</g>
<!-- closeIdleConn -->
<g id="node19" class="node">
<title>closeIdleConn</title>
<polygon fill="none" stroke="black" points="1031,-117 1031,-163 1134,-163 1134,-117 1031,-117"/>
<text text-anchor="middle" x="1082.5" y="-147.8" font-family="Times,serif" font-size="14.00">closeIdleConn</text>
<polyline fill="none" stroke="black" points="1031,-140 1134,-140 "/>
<text text-anchor="middle" x="1082.5" y="-124.8" font-family="Times,serif" font-size="14.00">关闭空闲Conn</text>
</g>
<!-- runImpl&#45;&gt;closeIdleConn -->
<g id="edge20" class="edge">
<title>runImpl&#45;&gt;closeIdleConn</title>
<path fill="none" stroke="#b83b5e" d="M862.76,-411.37C873.91,-355.81 905.11,-238.12 978,-173 990,-162.28 1005.49,-155.04 1020.82,-150.15"/>
<polygon fill="#b83b5e" stroke="#b83b5e" points="1022.2,-153.4 1030.84,-147.27 1020.26,-146.67 1022.2,-153.4"/>
</g>
<!-- receiveHello -->
<g id="node21" class="node">
<title>receiveHello</title>
<polygon fill="none" stroke="black" points="978,-182 978,-228 1187,-228 1187,-182 978,-182"/>
<text text-anchor="middle" x="1082.5" y="-212.8" font-family="Times,serif" font-size="14.00">receiveHello</text>
<polyline fill="none" stroke="black" points="978,-205 1187,-205 "/>
<text text-anchor="middle" x="1082.5" y="-189.8" font-family="Times,serif" font-size="14.00">读取client信息，user/password等</text>
</g>
<!-- runImpl&#45;&gt;receiveHello -->
<g id="edge21" class="edge">
<title>runImpl&#45;&gt;receiveHello</title>
<path fill="none" stroke="#b83b5e" d="M867.61,-411.31C883.85,-366.71 919.94,-284.28 978,-238 980.03,-236.38 982.15,-234.84 984.33,-233.37"/>
<polygon fill="#b83b5e" stroke="#b83b5e" points="986.31,-236.27 993.03,-228.08 982.67,-230.28 986.31,-236.27"/>
</g>
<!-- sendHello -->
<g id="node22" class="node">
<title>sendHello</title>
<polygon fill="none" stroke="black" points="1024.5,-247 1024.5,-293 1140.5,-293 1140.5,-247 1024.5,-247"/>
<text text-anchor="middle" x="1082.5" y="-277.8" font-family="Times,serif" font-size="14.00">sendHello</text>
<polyline fill="none" stroke="black" points="1024.5,-270 1140.5,-270 "/>
<text text-anchor="start" x="1032.5" y="-254.8" font-family="Times,serif" font-size="14.00">发送版本等信息</text>
</g>
<!-- runImpl&#45;&gt;sendHello -->
<g id="edge22" class="edge">
<title>runImpl&#45;&gt;sendHello</title>
<path fill="none" stroke="#b83b5e" d="M878.14,-411.44C899.84,-381.39 936.55,-336.06 978,-308 989.12,-300.47 1001.91,-294.22 1014.62,-289.11"/>
<polygon fill="#b83b5e" stroke="#b83b5e" points="1016.21,-292.25 1024.3,-285.42 1013.71,-285.71 1016.21,-292.25"/>
</g>
<!-- receivePacket -->
<g id="node23" class="node">
<title>receivePacket</title>
<polygon fill="none" stroke="black" points="1703,-623 1703,-669 1836,-669 1836,-623 1703,-623"/>
<text text-anchor="middle" x="1769.5" y="-653.8" font-family="Times,serif" font-size="14.00">receivePacket</text>
<polyline fill="none" stroke="black" points="1703,-646 1836,-646 "/>
<text text-anchor="middle" x="1769.5" y="-630.8" font-family="Times,serif" font-size="14.00">从tcp中读取数据包</text>
</g>
<!-- runImpl&#45;&gt;receivePacket -->
<g id="edge23" class="edge">
<title>runImpl&#45;&gt;receivePacket</title>
<path fill="none" stroke="#b83b5e" d="M862.27,-472.84C872.5,-527.2 902.12,-638.94 978,-688 1208.57,-837.08 1560.71,-727.9 1704.24,-672.75"/>
<polygon fill="#b83b5e" stroke="#b83b5e" points="1705.75,-675.92 1713.8,-669.04 1703.21,-669.4 1705.75,-675.92"/>
</g>
<!-- sendData -->
<g id="node24" class="node">
<title>sendData</title>
<polygon fill="none" stroke="black" points="1710.5,-402 1710.5,-448 1828.5,-448 1828.5,-402 1710.5,-402"/>
<text text-anchor="middle" x="1769.5" y="-432.8" font-family="Times,serif" font-size="14.00">sendData</text>
<polyline fill="none" stroke="black" points="1710.5,-425 1828.5,-425 "/>
<text text-anchor="start" x="1718.5" y="-409.8" font-family="Times,serif" font-size="14.00">发送数据给client</text>
</g>
<!-- runImpl&#45;&gt;sendData -->
<g id="edge24" class="edge">
<title>runImpl&#45;&gt;sendData</title>
<path fill="none" stroke="#b83b5e" d="M878.98,-411.28C900.42,-383.56 936.13,-344.67 978,-328 1120.66,-271.21 1519.49,-337.39 1667,-380 1682.8,-384.56 1699.33,-391.08 1714.37,-397.74"/>
<polygon fill="#b83b5e" stroke="#b83b5e" points="1712.96,-400.95 1723.51,-401.9 1715.85,-394.58 1712.96,-400.95"/>
</g>
<!-- sendLogs -->
<g id="node25" class="node">
<title>sendLogs</title>
<polygon fill="none" stroke="black" points="1116.5,-388 1048.5,-388 1048.5,-352 1116.5,-352 1116.5,-388"/>
<text text-anchor="middle" x="1082.5" y="-366.3" font-family="Times,serif" font-size="14.00">sendLogs</text>
</g>
<!-- runImpl&#45;&gt;sendLogs -->
<g id="edge25" class="edge">
<title>runImpl&#45;&gt;sendLogs</title>
<path fill="none" stroke="#b83b5e" d="M935.85,-411.42C949.8,-406.35 964.27,-401.34 978,-397 997.66,-390.78 1019.74,-384.88 1038.44,-380.19"/>
<polygon fill="#b83b5e" stroke="#b83b5e" points="1039.29,-383.58 1048.16,-377.78 1037.61,-376.79 1039.29,-383.58"/>
</g>
<!-- sendEndOfStream -->
<g id="node26" class="node">
<title>sendEndOfStream</title>
<polygon fill="none" stroke="black" points="1140.5,-442 1024.5,-442 1024.5,-406 1140.5,-406 1140.5,-442"/>
<text text-anchor="middle" x="1082.5" y="-420.3" font-family="Times,serif" font-size="14.00">sendEndOfStream</text>
</g>
<!-- runImpl&#45;&gt;sendEndOfStream -->
<g id="edge26" class="edge">
<title>runImpl&#45;&gt;sendEndOfStream</title>
<path fill="none" stroke="#b83b5e" d="M942.18,-435.19C965.93,-433.29 991.42,-431.24 1014.02,-429.42"/>
<polygon fill="#b83b5e" stroke="#b83b5e" points="1014.49,-432.9 1024.18,-428.61 1013.93,-425.92 1014.49,-432.9"/>
</g>
<!-- executeQuery -->
<g id="node27" class="node">
<title>executeQuery</title>
<polygon fill="none" stroke="black" points="997.5,-546 997.5,-592 1167.5,-592 1167.5,-546 997.5,-546"/>
<text text-anchor="middle" x="1082.5" y="-576.8" font-family="Times,serif" font-size="14.00">executeQuery</text>
<polyline fill="none" stroke="black" points="997.5,-569 1167.5,-569 "/>
<text text-anchor="middle" x="1082.5" y="-553.8" font-family="Times,serif" font-size="14.00">将SQL转变为plan pipeline</text>
</g>
<!-- runImpl&#45;&gt;executeQuery -->
<g id="edge27" class="edge">
<title>runImpl&#45;&gt;executeQuery</title>
<path fill="none" stroke="#b83b5e" d="M889.46,-472.6C912.51,-493.25 945.22,-519.78 978,-537 981.27,-538.72 984.65,-540.36 988.11,-541.93"/>
<polygon fill="#b83b5e" stroke="#b83b5e" points="986.82,-545.19 997.39,-545.92 989.58,-538.76 986.82,-545.19"/>
</g>
<!-- execute -->
<g id="node28" class="node">
<title>execute</title>
<polygon fill="none" stroke="black" points="1028.5,-481 1028.5,-527 1136.5,-527 1136.5,-481 1028.5,-481"/>
<text text-anchor="middle" x="1082.5" y="-511.8" font-family="Times,serif" font-size="14.00">execute</text>
<polyline fill="none" stroke="black" points="1028.5,-504 1136.5,-504 "/>
<text text-anchor="middle" x="1082.5" y="-488.8" font-family="Times,serif" font-size="14.00">pipeline_execute</text>
</g>
<!-- runImpl&#45;&gt;execute -->
<g id="edge28" class="edge">
<title>runImpl&#45;&gt;execute</title>
<path fill="none" stroke="#b83b5e" d="M942.18,-465.44C967.44,-472.43 994.68,-479.97 1018.31,-486.51"/>
<polygon fill="#b83b5e" stroke="#b83b5e" points="1017.62,-489.95 1028.2,-489.25 1019.49,-483.21 1017.62,-489.95"/>
</g>
<!-- processInsertQuery -->
<g id="node29" class="node">
<title>processInsertQuery</title>
<polygon fill="none" stroke="black" points="1616,-425 1494,-425 1494,-389 1616,-389 1616,-425"/>
<text text-anchor="middle" x="1555" y="-403.3" font-family="Times,serif" font-size="14.00">processInsertQuery</text>
</g>
<!-- runImpl&#45;&gt;processInsertQuery -->
<g id="edge29" class="edge">
<title>runImpl&#45;&gt;processInsertQuery</title>
<path fill="none" stroke="#b83b5e" d="M883.6,-411.22C905.89,-387.49 940.27,-356.51 978,-343 1069.51,-310.23 1351,-363.38 1483.57,-391.43"/>
<polygon fill="#b83b5e" stroke="#b83b5e" points="1483.11,-394.91 1493.62,-393.57 1484.57,-388.06 1483.11,-394.91"/>
</g>
<!-- processOrdinaryQuery -->
<g id="node30" class="node">
<title>processOrdinaryQuery</title>
<polygon fill="none" stroke="black" points="1461,-498 1461,-582 1649,-582 1649,-498 1461,-498"/>
<text text-anchor="middle" x="1555" y="-566.8" font-family="Times,serif" font-size="14.00">processOrdinaryQuery</text>
<polyline fill="none" stroke="black" points="1461,-559 1649,-559 "/>
<text text-anchor="start" x="1469" y="-543.8" font-family="Times,serif" font-size="14.00">pull query execution result</text>
<text text-anchor="start" x="1469" y="-528.8" font-family="Times,serif" font-size="14.00"> if exists send it to network</text>
<polyline fill="none" stroke="black" points="1461,-521 1649,-521 "/>
<text text-anchor="start" x="1469" y="-505.8" font-family="Times,serif" font-size="14.00">pull时候会去执行plan pipline</text>
</g>
<!-- runImpl&#45;&gt;processOrdinaryQuery -->
<g id="edge30" class="edge">
<title>runImpl&#45;&gt;processOrdinaryQuery</title>
<path fill="none" stroke="#b83b5e" d="M870.16,-472.75C887.85,-511.15 924.01,-575.07 978,-602 1019.56,-622.73 1141.35,-610.56 1187,-602 1203.87,-598.83 1206.4,-592.37 1223,-588 1298.04,-568.24 1384.94,-556.03 1450.86,-548.87"/>
<polygon fill="#b83b5e" stroke="#b83b5e" points="1451.27,-552.35 1460.84,-547.81 1450.53,-545.39 1451.27,-552.35"/>
</g>
<!-- processOrdinaryQueryWithProcessors -->
<g id="node31" class="node">
<title>processOrdinaryQueryWithProcessors</title>
<polygon fill="none" stroke="black" points="1667,-479 1443,-479 1443,-443 1667,-443 1667,-479"/>
<text text-anchor="middle" x="1555" y="-457.3" font-family="Times,serif" font-size="14.00">processOrdinaryQueryWithProcessors</text>
</g>
<!-- runImpl&#45;&gt;processOrdinaryQueryWithProcessors -->
<g id="edge31" class="edge">
<title>runImpl&#45;&gt;processOrdinaryQueryWithProcessors</title>
<path fill="none" stroke="#b83b5e" d="M942.06,-448.93C954.12,-449.74 966.37,-450.47 978,-451 1135.03,-458.22 1316.35,-460.34 1432.95,-460.91"/>
<polygon fill="#b83b5e" stroke="#b83b5e" points="1432.96,-464.41 1442.98,-460.95 1433,-457.41 1432.96,-464.41"/>
</g>
<!-- setInputBlocksReaderCallback -->
<g id="node32" class="node">
<title>setInputBlocksReaderCallback</title>
<polygon fill="none" stroke="black" points="1407,-687 1223,-687 1223,-651 1407,-651 1407,-687"/>
<text text-anchor="middle" x="1315" y="-665.3" font-family="Times,serif" font-size="14.00">setInputBlocksReaderCallback</text>
</g>
<!-- runImpl&#45;&gt;setInputBlocksReaderCallback -->
<g id="edge32" class="edge">
<title>runImpl&#45;&gt;setInputBlocksReaderCallback</title>
<path fill="none" stroke="#b83b5e" d="M862.88,-472.87C873.89,-525.48 904.46,-631.15 978,-676 1016.05,-699.21 1128.37,-692.22 1212.75,-682.81"/>
<polygon fill="#b83b5e" stroke="#b83b5e" points="1213.36,-686.27 1222.89,-681.66 1212.56,-679.31 1213.36,-686.27"/>
</g>
<!-- setExternalTablesInitializer -->
<g id="node33" class="node">
<title>setExternalTablesInitializer</title>
<polygon fill="none" stroke="black" points="1165.5,-667 999.5,-667 999.5,-631 1165.5,-631 1165.5,-667"/>
<text text-anchor="middle" x="1082.5" y="-645.3" font-family="Times,serif" font-size="14.00">setExternalTablesInitializer</text>
</g>
<!-- runImpl&#45;&gt;setExternalTablesInitializer -->
<g id="edge33" class="edge">
<title>runImpl&#45;&gt;setExternalTablesInitializer</title>
<path fill="none" stroke="#b83b5e" d="M870.75,-472.66C889.2,-511.8 926.28,-578.99 978,-617 982.81,-620.53 988.01,-623.68 993.44,-626.49"/>
<polygon fill="#b83b5e" stroke="#b83b5e" points="992.22,-629.78 1002.76,-630.89 995.21,-623.45 992.22,-629.78"/>
</g>
<!-- run&#45;&gt;runImpl -->
<g id="edge19" class="edge">
<title>run&#45;&gt;runImpl</title>
<path fill="none" stroke="#b83b5e" d="M735.19,-442C742.75,-442 751.46,-442 760.67,-442"/>
<polygon fill="#b83b5e" stroke="#b83b5e" points="760.84,-445.5 770.84,-442 760.84,-438.5 760.84,-445.5"/>
</g>
<!-- ContextAccess_setUser -->
<g id="node38" class="node">
<title>ContextAccess_setUser</title>
<polygon fill="none" stroke="black" points="1242.5,-182 1242.5,-228 1387.5,-228 1387.5,-182 1242.5,-182"/>
<text text-anchor="middle" x="1315" y="-212.8" font-family="Times,serif" font-size="14.00">ContextAccess_setUser</text>
<polyline fill="none" stroke="black" points="1242.5,-205 1387.5,-205 "/>
<text text-anchor="start" x="1250.5" y="-189.8" font-family="Times,serif" font-size="14.00">做Access auth</text>
</g>
<!-- receiveHello&#45;&gt;ContextAccess_setUser -->
<g id="edge47" class="edge">
<title>receiveHello&#45;&gt;ContextAccess_setUser</title>
<path fill="none" stroke="#666666" d="M1187.29,-205C1202.29,-205 1217.55,-205 1232.04,-205"/>
<polygon fill="#666666" stroke="#666666" points="1232.45,-208.5 1242.45,-205 1232.45,-201.5 1232.45,-208.5"/>
</g>
<!-- receiveQuery -->
<g id="node39" class="node">
<title>receiveQuery</title>
<polygon fill="none" stroke="black" points="2001.5,-599 1912.5,-599 1912.5,-563 2001.5,-563 2001.5,-599"/>
<text text-anchor="middle" x="1957" y="-577.3" font-family="Times,serif" font-size="14.00">receiveQuery</text>
</g>
<!-- receivePacket&#45;&gt;receiveQuery -->
<g id="edge48" class="edge">
<title>receivePacket&#45;&gt;receiveQuery</title>
<path fill="none" stroke="#666666" d="M1830.71,-622.92C1844.25,-617.88 1858.58,-612.67 1872,-608 1881.87,-604.57 1892.44,-601.05 1902.64,-597.73"/>
<polygon fill="#666666" stroke="#666666" points="1903.83,-601.03 1912.27,-594.62 1901.68,-594.37 1903.83,-601.03"/>
</g>
<!-- receiveData -->
<g id="node40" class="node">
<title>receiveData</title>
<polygon fill="none" stroke="black" points="1997.5,-653 1916.5,-653 1916.5,-617 1997.5,-617 1997.5,-653"/>
<text text-anchor="middle" x="1957" y="-631.3" font-family="Times,serif" font-size="14.00">receiveData</text>
</g>
<!-- receivePacket&#45;&gt;receiveData -->
<g id="edge49" class="edge">
<title>receivePacket&#45;&gt;receiveData</title>
<path fill="none" stroke="#666666" d="M1836.16,-642.11C1859.18,-640.74 1884.64,-639.23 1906.15,-637.96"/>
<polygon fill="#666666" stroke="#666666" points="1906.59,-641.44 1916.36,-637.35 1906.17,-634.45 1906.59,-641.44"/>
</g>
<!-- processTablesStatusRequest -->
<g id="node41" class="node">
<title>processTablesStatusRequest</title>
<polygon fill="none" stroke="black" points="2042,-707 1872,-707 1872,-671 2042,-671 2042,-707"/>
<text text-anchor="middle" x="1957" y="-685.3" font-family="Times,serif" font-size="14.00">processTablesStatusRequest</text>
</g>
<!-- receivePacket&#45;&gt;processTablesStatusRequest -->
<g id="edge50" class="edge">
<title>receivePacket&#45;&gt;processTablesStatusRequest</title>
<path fill="none" stroke="#666666" d="M1836.16,-661.22C1846.53,-663.63 1857.4,-666.14 1868.18,-668.64"/>
<polygon fill="#666666" stroke="#666666" points="1867.51,-672.08 1878.04,-670.93 1869.09,-665.26 1867.51,-672.08"/>
</g>
<!-- state_io -->
<g id="node34" class="node">
<title>state_io</title>
<polygon fill="none" stroke="black" points="1344.5,-537 1285.5,-537 1285.5,-501 1344.5,-501 1344.5,-537"/>
<text text-anchor="middle" x="1315" y="-515.3" font-family="Times,serif" font-size="14.00">state_io</text>
</g>
<!-- executeQuery&#45;&gt;state_io -->
<g id="edge34" class="edge">
<title>executeQuery&#45;&gt;state_io</title>
<path fill="none" stroke="#666666" d="M1167.69,-550.74C1204.62,-542.73 1246.15,-533.72 1275.5,-527.35"/>
<polygon fill="#666666" stroke="#666666" points="1276.31,-530.76 1285.34,-525.22 1274.83,-523.92 1276.31,-530.76"/>
</g>
<!-- processInsertQuery&#45;&gt;sendData -->
<g id="edge41" class="edge">
<title>processInsertQuery&#45;&gt;sendData</title>
<path fill="none" stroke="#666666" d="M1616.04,-412.09C1642.27,-414.31 1673.16,-416.92 1700.26,-419.22"/>
<polygon fill="#666666" stroke="#666666" points="1700.18,-422.73 1710.44,-420.08 1700.77,-415.75 1700.18,-422.73"/>
</g>
<!-- processOrdinaryQuery&#45;&gt;sendData -->
<g id="edge38" class="edge">
<title>processOrdinaryQuery&#45;&gt;sendData</title>
<path fill="none" stroke="#666666" d="M1647.89,-497.99C1654.4,-494.7 1660.83,-491.35 1667,-488 1686.25,-477.56 1706.89,-465.02 1724.5,-453.88"/>
<polygon fill="#666666" stroke="#666666" points="1726.85,-456.53 1733.4,-448.2 1723.09,-450.62 1726.85,-456.53"/>
</g>
<!-- getHeader -->
<g id="node35" class="node">
<title>getHeader</title>
<polygon fill="none" stroke="black" points="1805.5,-522 1733.5,-522 1733.5,-486 1805.5,-486 1805.5,-522"/>
<text text-anchor="middle" x="1769.5" y="-500.3" font-family="Times,serif" font-size="14.00">getHeader</text>
</g>
<!-- processOrdinaryQuery&#45;&gt;getHeader -->
<g id="edge39" class="edge">
<title>processOrdinaryQuery&#45;&gt;getHeader</title>
<path fill="none" stroke="#666666" d="M1649.21,-524.21C1675.01,-519.84 1701.85,-515.29 1723.52,-511.62"/>
<polygon fill="#666666" stroke="#666666" points="1724.13,-515.07 1733.41,-509.95 1722.96,-508.16 1724.13,-515.07"/>
</g>
<!-- processOrdinaryQueryWithProcessors&#45;&gt;sendData -->
<g id="edge42" class="edge">
<title>processOrdinaryQueryWithProcessors&#45;&gt;sendData</title>
<path fill="none" stroke="#666666" d="M1662.56,-442.95C1675.42,-440.77 1688.28,-438.59 1700.38,-436.54"/>
<polygon fill="#666666" stroke="#666666" points="1701.07,-439.97 1710.35,-434.85 1699.9,-433.07 1701.07,-439.97"/>
</g>
<!-- processOrdinaryQueryWithProcessors&#45;&gt;getHeader -->
<g id="edge43" class="edge">
<title>processOrdinaryQueryWithProcessors&#45;&gt;getHeader</title>
<path fill="none" stroke="#666666" d="M1645.2,-479.05C1672.08,-484.49 1700.47,-490.23 1723.22,-494.84"/>
<polygon fill="#666666" stroke="#666666" points="1722.75,-498.31 1733.25,-496.87 1724.14,-491.45 1722.75,-498.31"/>
</g>
<!-- readDataNext -->
<g id="node36" class="node">
<title>readDataNext</title>
<polygon fill="none" stroke="black" points="1486.5,-615.5 1486.5,-676.5 1623.5,-676.5 1623.5,-615.5 1486.5,-615.5"/>
<text text-anchor="middle" x="1555" y="-661.3" font-family="Times,serif" font-size="14.00">readDataNext</text>
<polyline fill="none" stroke="black" points="1486.5,-653.5 1623.5,-653.5 "/>
<text text-anchor="start" x="1494.5" y="-638.3" font-family="Times,serif" font-size="14.00">从socket中读取数据</text>
<text text-anchor="start" x="1494.5" y="-623.3" font-family="Times,serif" font-size="14.00"> 会有receive_timeout</text>
</g>
<!-- setInputBlocksReaderCallback&#45;&gt;readDataNext -->
<g id="edge45" class="edge">
<title>setInputBlocksReaderCallback&#45;&gt;readDataNext</title>
<path fill="none" stroke="#666666" d="M1407.34,-660.17C1429.97,-657.99 1454.02,-655.66 1475.95,-653.54"/>
<polygon fill="#666666" stroke="#666666" points="1476.58,-657 1486.2,-652.55 1475.91,-650.03 1476.58,-657"/>
</g>
<!-- readData -->
<g id="node37" class="node">
<title>readData</title>
<polygon fill="none" stroke="black" points="1347.5,-633 1282.5,-633 1282.5,-597 1347.5,-597 1347.5,-633"/>
<text text-anchor="middle" x="1315" y="-611.3" font-family="Times,serif" font-size="14.00">readData</text>
</g>
<!-- setExternalTablesInitializer&#45;&gt;readData -->
<g id="edge44" class="edge">
<title>setExternalTablesInitializer&#45;&gt;readData</title>
<path fill="none" stroke="#666666" d="M1165.74,-636.87C1201.82,-631.55 1242.62,-625.53 1272.27,-621.15"/>
<polygon fill="#666666" stroke="#666666" points="1272.89,-624.6 1282.27,-619.68 1271.87,-617.68 1272.89,-624.6"/>
</g>
<!-- state_io&#45;&gt;processInsertQuery -->
<g id="edge35" class="edge">
<title>state_io&#45;&gt;processInsertQuery</title>
<path fill="none" stroke="#666666" stroke-dasharray="5,2" d="M1337.98,-500.74C1362.25,-481.47 1403.17,-451.51 1443,-434 1455.86,-428.35 1470.09,-423.76 1483.96,-420.07"/>
<polygon fill="#666666" stroke="#666666" points="1485.13,-423.39 1493.97,-417.55 1483.42,-416.6 1485.13,-423.39"/>
</g>
<!-- state_io&#45;&gt;processOrdinaryQuery -->
<g id="edge36" class="edge">
<title>state_io&#45;&gt;processOrdinaryQuery</title>
<path fill="none" stroke="#666666" stroke-dasharray="5,2" d="M1344.71,-521.53C1371.15,-523.87 1412.03,-527.47 1450.66,-530.88"/>
<polygon fill="#666666" stroke="#666666" points="1450.68,-534.4 1460.95,-531.79 1451.3,-527.42 1450.68,-534.4"/>
</g>
<!-- state_io&#45;&gt;processOrdinaryQueryWithProcessors -->
<g id="edge37" class="edge">
<title>state_io&#45;&gt;processOrdinaryQueryWithProcessors</title>
<path fill="none" stroke="#666666" stroke-dasharray="5,2" d="M1344.71,-512C1375.69,-504.45 1426.46,-492.08 1470.25,-481.41"/>
<polygon fill="#666666" stroke="#666666" points="1471.16,-484.79 1480.05,-479.02 1469.5,-477.99 1471.16,-484.79"/>
</g>
<!-- readDataNext&#45;&gt;receivePacket -->
<g id="edge40" class="edge">
<title>readDataNext&#45;&gt;receivePacket</title>
<path fill="none" stroke="#666666" d="M1623.53,-646C1645.55,-646 1670.15,-646 1692.74,-646"/>
<polygon fill="#666666" stroke="#666666" points="1692.96,-649.5 1702.96,-646 1692.96,-642.5 1692.96,-649.5"/>
</g>
<!-- readData&#45;&gt;readDataNext -->
<g id="edge46" class="edge">
<title>readData&#45;&gt;readDataNext</title>
<path fill="none" stroke="#666666" d="M1347.6,-619.12C1380.22,-623.36 1432.34,-630.15 1476.05,-635.85"/>
<polygon fill="#666666" stroke="#666666" points="1475.73,-639.33 1486.1,-637.16 1476.64,-632.39 1475.73,-639.33"/>
</g>
</g>
</svg>
