<?xml version="1.0" encoding="UTF-8" standalone="no"?>
<!DOCTYPE svg PUBLIC "-//W3C//DTD SVG 1.1//EN"
 "http://www.w3.org/Graphics/SVG/1.1/DTD/svg11.dtd">
<!-- Generated by graphviz version 2.44.1 (20200629.0846)
 -->
<!-- Title: StorageMergeTreeMutate Pages: 1 -->
<svg width="1384pt" height="740pt"
 viewBox="0.00 0.00 1384.00 740.00" xmlns="http://www.w3.org/2000/svg" xmlns:xlink="http://www.w3.org/1999/xlink">
<g id="graph0" class="graph" transform="scale(1 1) rotate(0) translate(4 736)">
<title>StorageMergeTreeMutate</title>
<polygon fill="white" stroke="transparent" points="-4,4 -4,-736 1380,-736 1380,4 -4,4"/>
<g id="clust1" class="cluster">
<title>cluster_Settings</title>
<polygon fill="none" stroke="black" points="82,-516 82,-598 200,-598 200,-516 82,-516"/>
<text text-anchor="middle" x="141" y="-578" font-family="Times,serif" font-size="20.00">Settings</text>
</g>
<g id="clust2" class="cluster">
<title>cluster_BackgroundProcessingPool</title>
<polygon fill="none" stroke="black" points="747.5,-8 747.5,-102 1368,-102 1368,-8 747.5,-8"/>
<text text-anchor="middle" x="1057.75" y="-82" font-family="Times,serif" font-size="20.00">BackgroundProcessingPool</text>
</g>
<g id="clust3" class="cluster">
<title>cluster_BackgroundProcessingPoolTaskInfo</title>
<polygon fill="none" stroke="black" points="255,-184 255,-266 902,-266 902,-184 255,-184"/>
<text text-anchor="middle" x="578.5" y="-246" font-family="Times,serif" font-size="20.00">BackgroundProcessingPoolTaskInfo</text>
</g>
<g id="clust5" class="cluster">
<title>cluster_mutation_wait_event</title>
<polygon fill="none" stroke="black" points="525.5,-642 525.5,-724 1169,-724 1169,-642 525.5,-642"/>
<text text-anchor="middle" x="847.25" y="-704" font-family="Times,serif" font-size="20.00">mutation_wait_event</text>
</g>
<!-- mutations_sync -->
<g id="node1" class="node">
<title>mutations_sync</title>
<polygon fill="none" stroke="black" points="192,-560 90,-560 90,-524 192,-524 192,-560"/>
<text text-anchor="middle" x="141" y="-538.3" font-family="Times,serif" font-size="14.00">mutations_sync</text>
</g>
<!-- waitForMutation -->
<g id="node13" class="node">
<title>waitForMutation</title>
<polygon fill="none" stroke="black" points="283.5,-519 283.5,-565 431.5,-565 431.5,-519 283.5,-519"/>
<text text-anchor="middle" x="357.5" y="-549.8" font-family="Times,serif" font-size="14.00">waitForMutation</text>
<polyline fill="none" stroke="black" points="283.5,-542 431.5,-542 "/>
<text text-anchor="middle" x="357.5" y="-526.8" font-family="Times,serif" font-size="14.00">等待mutation task结束</text>
</g>
<!-- mutations_sync&#45;&gt;waitForMutation -->
<g id="edge10" class="edge">
<title>mutations_sync&#45;&gt;waitForMutation</title>
<path fill="none" stroke="#666666" stroke-dasharray="5,2" d="M192.02,-542C216.06,-542 245.53,-542 272.84,-542"/>
<polygon fill="#666666" stroke="#666666" points="273.19,-545.5 283.19,-542 273.19,-538.5 273.19,-545.5"/>
</g>
<!-- pool_wake_event_notify_one -->
<g id="node2" class="node">
<title>pool_wake_event_notify_one</title>
<polygon fill="none" stroke="black" points="755.5,-24 755.5,-60 901.5,-60 901.5,-24 755.5,-24"/>
<text text-anchor="middle" x="828.5" y="-38.3" font-family="Times,serif" font-size="14.00">wake_event_notify_one</text>
</g>
<!-- wake_event_wait -->
<g id="node3" class="node">
<title>wake_event_wait</title>
<polygon fill="none" stroke="black" points="1010,-17 1010,-63 1121,-63 1121,-17 1010,-17"/>
<text text-anchor="middle" x="1065.5" y="-47.8" font-family="Times,serif" font-size="14.00">wake_event_wait</text>
<polyline fill="none" stroke="black" points="1010,-40 1121,-40 "/>
<text text-anchor="start" x="1018" y="-24.8" font-family="Times,serif" font-size="14.00">等待唤醒</text>
</g>
<!-- pool_wake_event_notify_one&#45;&gt;wake_event_wait -->
<g id="edge1" class="edge">
<title>pool_wake_event_notify_one&#45;&gt;wake_event_wait</title>
<path fill="none" stroke="#666666" stroke-dasharray="5,2" d="M901.6,-41.39C932.88,-41.12 969.22,-40.81 999.64,-40.55"/>
<polygon fill="#666666" stroke="#666666" points="999.74,-44.05 1009.71,-40.47 999.68,-37.05 999.74,-44.05"/>
</g>
<!-- workLoopFunc -->
<g id="node4" class="node">
<title>workLoopFunc</title>
<polygon fill="none" stroke="black" points="1215,-17 1215,-63 1360,-63 1360,-17 1215,-17"/>
<text text-anchor="start" x="1223" y="-47.8" font-family="Times,serif" font-size="14.00">workLoopFunc</text>
<polyline fill="none" stroke="black" points="1215,-40 1360,-40 "/>
<text text-anchor="middle" x="1287.5" y="-24.8" font-family="Times,serif" font-size="14.00">后台工作线程主循环</text>
</g>
<!-- wake_event_wait&#45;&gt;workLoopFunc -->
<g id="edge2" class="edge">
<title>wake_event_wait&#45;&gt;workLoopFunc</title>
<path fill="none" stroke="#666666" d="M1121.16,-40C1146.33,-40 1176.71,-40 1204.53,-40"/>
<polygon fill="#666666" stroke="#666666" points="1204.65,-43.5 1214.65,-40 1204.65,-36.5 1204.65,-43.5"/>
</g>
<!-- signalReadyToRun -->
<g id="node5" class="node">
<title>signalReadyToRun</title>
<polygon fill="none" stroke="black" points="674.5,-228 553.5,-228 553.5,-192 674.5,-192 674.5,-228"/>
<text text-anchor="middle" x="614" y="-206.3" font-family="Times,serif" font-size="14.00">signalReadyToRun</text>
</g>
<!-- signalReadyToRun&#45;&gt;pool_wake_event_notify_one -->
<g id="edge3" class="edge">
<title>signalReadyToRun&#45;&gt;pool_wake_event_notify_one</title>
<path fill="none" stroke="#666666" d="M638.15,-191.7C676.65,-161.26 753.86,-100.22 796.84,-66.24"/>
<polygon fill="#666666" stroke="#666666" points="799.03,-68.97 804.7,-60.02 794.69,-63.48 799.03,-68.97"/>
</g>
<!-- pool_rescheduleTask -->
<g id="node6" class="node">
<title>pool_rescheduleTask</title>
<polygon fill="none" stroke="black" points="894,-228 763,-228 763,-192 894,-192 894,-228"/>
<text text-anchor="middle" x="828.5" y="-206.3" font-family="Times,serif" font-size="14.00">pool_rescheduleTask</text>
</g>
<!-- signalReadyToRun&#45;&gt;pool_rescheduleTask -->
<g id="edge4" class="edge">
<title>signalReadyToRun&#45;&gt;pool_rescheduleTask</title>
<path fill="none" stroke="#666666" d="M674.76,-210C699.03,-210 727.34,-210 752.95,-210"/>
<polygon fill="#666666" stroke="#666666" points="752.99,-213.5 762.99,-210 752.99,-206.5 752.99,-213.5"/>
</g>
<!-- merging_mutating_task_handle -->
<g id="node7" class="node">
<title>merging_mutating_task_handle</title>
<polygon fill="none" stroke="black" points="452,-228 263,-228 263,-192 452,-192 452,-228"/>
<text text-anchor="middle" x="357.5" y="-206.3" font-family="Times,serif" font-size="14.00">merging_mutating_task_handle</text>
</g>
<!-- merging_mutating_task_handle&#45;&gt;signalReadyToRun -->
<g id="edge5" class="edge">
<title>merging_mutating_task_handle&#45;&gt;signalReadyToRun</title>
<path fill="none" stroke="#666666" stroke-dasharray="5,2" d="M452.18,-210C482.35,-210 515.23,-210 543.35,-210"/>
<polygon fill="#666666" stroke="#666666" points="543.48,-213.5 553.48,-210 543.48,-206.5 543.48,-213.5"/>
</g>
<!-- mergeMutateTask -->
<g id="node10" class="node">
<title>mergeMutateTask</title>
<polygon fill="none" stroke="black" points="530.5,-323 530.5,-369 697.5,-369 697.5,-323 530.5,-323"/>
<text text-anchor="middle" x="614" y="-353.8" font-family="Times,serif" font-size="14.00">mergeMutateTask</text>
<polyline fill="none" stroke="black" points="530.5,-346 697.5,-346 "/>
<text text-anchor="middle" x="614" y="-330.8" font-family="Times,serif" font-size="14.00">由后台线程池执行的task</text>
</g>
<!-- merging_mutating_task_handle&#45;&gt;mergeMutateTask -->
<g id="edge6" class="edge">
<title>merging_mutating_task_handle&#45;&gt;mergeMutateTask</title>
<path fill="none" stroke="#666666" d="M392.3,-228.06C435.32,-251.05 510.11,-291.02 560.57,-317.98"/>
<polygon fill="#666666" stroke="#666666" points="559.22,-321.23 569.69,-322.86 562.52,-315.06 559.22,-321.23"/>
</g>
<!-- mutation_wait_event_wait -->
<g id="node8" class="node">
<title>mutation_wait_event_wait</title>
<polygon fill="none" stroke="black" points="694.5,-686 533.5,-686 533.5,-650 694.5,-650 694.5,-686"/>
<text text-anchor="middle" x="614" y="-664.3" font-family="Times,serif" font-size="14.00">mutation_wait_event_wait</text>
</g>
<!-- mutation_wait_event_notify_all -->
<g id="node9" class="node">
<title>mutation_wait_event_notify_all</title>
<polygon fill="none" stroke="black" points="1161,-686 970,-686 970,-650 1161,-650 1161,-686"/>
<text text-anchor="middle" x="1065.5" y="-664.3" font-family="Times,serif" font-size="14.00">mutation_wait_event_notify_all</text>
</g>
<!-- time_after_previous_cleanup -->
<g id="node20" class="node">
<title>time_after_previous_cleanup</title>
<polygon fill="none" stroke="black" points="916,-472 741,-472 741,-436 916,-436 916,-472"/>
<text text-anchor="middle" x="828.5" y="-450.3" font-family="Times,serif" font-size="14.00">time_after_previous_cleanup</text>
</g>
<!-- mergeMutateTask&#45;&gt;time_after_previous_cleanup -->
<g id="edge21" class="edge">
<title>mergeMutateTask&#45;&gt;time_after_previous_cleanup</title>
<path fill="none" stroke="#3fc1c9" d="M689.05,-369.06C694.67,-372.02 700.06,-375.33 705,-379 726.4,-394.91 719.22,-411.62 741,-427 743.08,-428.47 745.24,-429.86 747.47,-431.18"/>
<polygon fill="#3fc1c9" stroke="#3fc1c9" points="745.87,-434.29 756.34,-435.9 749.16,-428.11 745.87,-434.29"/>
</g>
<!-- clearOldMutations -->
<g id="node21" class="node">
<title>clearOldMutations</title>
<polygon fill="none" stroke="black" points="888,-418 769,-418 769,-382 888,-382 888,-418"/>
<text text-anchor="middle" x="828.5" y="-396.3" font-family="Times,serif" font-size="14.00">clearOldMutations</text>
</g>
<!-- mergeMutateTask&#45;&gt;clearOldMutations -->
<g id="edge22" class="edge">
<title>mergeMutateTask&#45;&gt;clearOldMutations</title>
<path fill="none" stroke="#3fc1c9" d="M697.77,-367.03C718.1,-372.2 739.65,-377.68 759.22,-382.65"/>
<polygon fill="#3fc1c9" stroke="#3fc1c9" points="758.4,-386.05 768.95,-385.12 760.12,-379.27 758.4,-386.05"/>
</g>
<!-- clearOldWriteAheadLogs -->
<g id="node22" class="node">
<title>clearOldWriteAheadLogs</title>
<polygon fill="none" stroke="black" points="906.5,-364 750.5,-364 750.5,-328 906.5,-328 906.5,-364"/>
<text text-anchor="middle" x="828.5" y="-342.3" font-family="Times,serif" font-size="14.00">clearOldWriteAheadLogs</text>
</g>
<!-- mergeMutateTask&#45;&gt;clearOldWriteAheadLogs -->
<g id="edge23" class="edge">
<title>mergeMutateTask&#45;&gt;clearOldWriteAheadLogs</title>
<path fill="none" stroke="#3fc1c9" d="M697.77,-346C711.65,-346 726.09,-346 740.08,-346"/>
<polygon fill="#3fc1c9" stroke="#3fc1c9" points="740.17,-349.5 750.17,-346 740.17,-342.5 740.17,-349.5"/>
</g>
<!-- merge -->
<g id="node23" class="node">
<title>merge</title>
<polygon fill="none" stroke="black" points="855.5,-310 801.5,-310 801.5,-274 855.5,-274 855.5,-310"/>
<text text-anchor="middle" x="828.5" y="-288.3" font-family="Times,serif" font-size="14.00">merge</text>
</g>
<!-- mergeMutateTask&#45;&gt;merge -->
<g id="edge24" class="edge">
<title>mergeMutateTask&#45;&gt;merge</title>
<path fill="none" stroke="#3fc1c9" d="M697.77,-324.97C730.13,-316.74 765.56,-307.74 791.2,-301.22"/>
<polygon fill="#3fc1c9" stroke="#3fc1c9" points="792.38,-304.54 801.21,-298.68 790.66,-297.75 792.38,-304.54"/>
</g>
<!-- tryMutatePart -->
<g id="node24" class="node">
<title>tryMutatePart</title>
<polygon fill="none" stroke="black" points="874.5,-526 782.5,-526 782.5,-490 874.5,-490 874.5,-526"/>
<text text-anchor="middle" x="828.5" y="-504.3" font-family="Times,serif" font-size="14.00">tryMutatePart</text>
</g>
<!-- mergeMutateTask&#45;&gt;tryMutatePart -->
<g id="edge25" class="edge">
<title>mergeMutateTask&#45;&gt;tryMutatePart</title>
<path fill="none" stroke="#3fc1c9" d="M692.96,-369.16C697.31,-372.06 701.37,-375.33 705,-379 738.79,-413.2 706.39,-447.64 741,-481 749.76,-489.44 761.12,-495.25 772.72,-499.24"/>
<polygon fill="#3fc1c9" stroke="#3fc1c9" points="771.87,-502.64 782.46,-502.19 773.9,-495.94 771.87,-502.64"/>
</g>
<!-- mutate -->
<g id="node11" class="node">
<title>mutate</title>
<polygon fill="none" stroke="black" points="54,-514 0,-514 0,-478 54,-478 54,-514"/>
<text text-anchor="middle" x="27" y="-492.3" font-family="Times,serif" font-size="14.00">mutate</text>
</g>
<!-- mutate&#45;&gt;mutations_sync -->
<g id="edge7" class="edge">
<title>mutate&#45;&gt;mutations_sync</title>
<path fill="none" stroke="#666666" d="M54.26,-506.78C63.96,-510.77 75.33,-515.44 86.57,-520.06"/>
<polygon fill="#666666" stroke="#666666" points="85.36,-523.34 95.94,-523.9 88.02,-516.87 85.36,-523.34"/>
</g>
<!-- startMutation -->
<g id="node12" class="node">
<title>startMutation</title>
<polygon fill="none" stroke="black" points="186,-228 96,-228 96,-192 186,-192 186,-228"/>
<text text-anchor="middle" x="141" y="-206.3" font-family="Times,serif" font-size="14.00">startMutation</text>
</g>
<!-- mutate&#45;&gt;startMutation -->
<g id="edge8" class="edge">
<title>mutate&#45;&gt;startMutation</title>
<path fill="none" stroke="#666666" d="M35.18,-477.67C54.26,-428.94 106.35,-295.92 129.11,-237.8"/>
<polygon fill="#666666" stroke="#666666" points="132.5,-238.76 132.88,-228.17 125.98,-236.21 132.5,-238.76"/>
</g>
<!-- mutate&#45;&gt;waitForMutation -->
<g id="edge9" class="edge">
<title>mutate&#45;&gt;waitForMutation</title>
<path fill="none" stroke="#666666" d="M54.03,-497.63C87.79,-499.94 148.48,-504.68 200,-512 223.97,-515.4 249.83,-519.99 273.5,-524.54"/>
<polygon fill="#666666" stroke="#666666" points="273.01,-528.01 283.5,-526.49 274.35,-521.14 273.01,-528.01"/>
</g>
<!-- startMutation&#45;&gt;signalReadyToRun -->
<g id="edge11" class="edge">
<title>startMutation&#45;&gt;signalReadyToRun</title>
<path fill="none" stroke="#b83b5e" d="M186.03,-193.36C199.32,-189.1 214.08,-185.13 228,-183 341.78,-165.56 372.53,-170.87 487,-183 505.49,-184.96 525.25,-188.49 543.52,-192.37"/>
<polygon fill="#b83b5e" stroke="#b83b5e" points="542.97,-195.83 553.49,-194.55 544.47,-189 542.97,-195.83"/>
</g>
<!-- startMutation&#45;&gt;merging_mutating_task_handle -->
<g id="edge12" class="edge">
<title>startMutation&#45;&gt;merging_mutating_task_handle</title>
<path fill="none" stroke="#b83b5e" d="M186.18,-210C205.61,-210 229.31,-210 252.79,-210"/>
<polygon fill="#b83b5e" stroke="#b83b5e" points="252.82,-213.5 262.82,-210 252.82,-206.5 252.82,-213.5"/>
</g>
<!-- getStoragePolicy -->
<g id="node14" class="node">
<title>getStoragePolicy</title>
<polygon fill="none" stroke="black" points="412,-136 303,-136 303,-100 412,-100 412,-136"/>
<text text-anchor="middle" x="357.5" y="-114.3" font-family="Times,serif" font-size="14.00">getStoragePolicy</text>
</g>
<!-- startMutation&#45;&gt;getStoragePolicy -->
<g id="edge13" class="edge">
<title>startMutation&#45;&gt;getStoragePolicy</title>
<path fill="none" stroke="#b83b5e" d="M163.28,-191.82C179.91,-178.48 204.13,-160.85 228,-150 248.33,-140.76 271.72,-133.93 292.94,-129"/>
<polygon fill="#b83b5e" stroke="#b83b5e" points="293.83,-132.39 302.83,-126.8 292.31,-125.56 293.83,-132.39"/>
</g>
<!-- currently_processing_in_background_mutex -->
<g id="node15" class="node">
<title>currently_processing_in_background_mutex</title>
<polygon fill="none" stroke="black" points="487,-82 228,-82 228,-46 487,-46 487,-82"/>
<text text-anchor="middle" x="357.5" y="-60.3" font-family="Times,serif" font-size="14.00">currently_processing_in_background_mutex</text>
</g>
<!-- startMutation&#45;&gt;currently_processing_in_background_mutex -->
<g id="edge14" class="edge">
<title>startMutation&#45;&gt;currently_processing_in_background_mutex</title>
<path fill="none" stroke="#b83b5e" d="M149.86,-191.81C162.34,-165.21 189.31,-116.13 228,-91 230.34,-89.48 232.75,-88.05 235.21,-86.69"/>
<polygon fill="#b83b5e" stroke="#b83b5e" points="236.99,-89.71 244.38,-82.11 233.87,-83.45 236.99,-89.71"/>
</g>
<!-- MergeTreeMutationEntry_ctor -->
<g id="node16" class="node">
<title>MergeTreeMutationEntry_ctor</title>
<polygon fill="none" stroke="black" points="450,-329 265,-329 265,-293 450,-293 450,-329"/>
<text text-anchor="middle" x="357.5" y="-307.3" font-family="Times,serif" font-size="14.00">MergeTreeMutationEntry_ctor</text>
</g>
<!-- startMutation&#45;&gt;MergeTreeMutationEntry_ctor -->
<g id="edge15" class="edge">
<title>startMutation&#45;&gt;MergeTreeMutationEntry_ctor</title>
<path fill="none" stroke="#b83b5e" d="M163.83,-228.01C180.56,-241.1 204.66,-258.47 228,-270 243.44,-277.63 260.62,-284.26 277.26,-289.84"/>
<polygon fill="#b83b5e" stroke="#b83b5e" points="276.39,-293.24 286.98,-293 278.55,-286.58 276.39,-293.24"/>
</g>
<!-- current_mutations_by_version -->
<g id="node17" class="node">
<title>current_mutations_by_version</title>
<polygon fill="#95e1d3" stroke="black" points="523,-388 523,-434 705,-434 705,-388 523,-388"/>
<text text-anchor="middle" x="614" y="-418.8" font-family="Times,serif" font-size="14.00">current_mutations_by_version</text>
<polyline fill="none" stroke="black" points="523,-411 705,-411 "/>
<text text-anchor="middle" x="614" y="-395.8" font-family="Times,serif" font-size="14.00"> </text>
</g>
<!-- startMutation&#45;&gt;current_mutations_by_version -->
<g id="edge16" class="edge">
<title>startMutation&#45;&gt;current_mutations_by_version</title>
<path fill="none" stroke="#b83b5e" d="M148.82,-228.24C160.44,-256.61 186.88,-310.87 228,-338 312.9,-394.02 429.95,-409.51 512.64,-412.7"/>
<polygon fill="#b83b5e" stroke="#b83b5e" points="512.7,-416.2 522.81,-413.03 512.93,-409.2 512.7,-416.2"/>
</g>
<!-- waitForMutation&#45;&gt;mutation_wait_event_wait -->
<g id="edge18" class="edge">
<title>waitForMutation&#45;&gt;mutation_wait_event_wait</title>
<path fill="none" stroke="#666666" d="M405.18,-565.11C451.36,-587.97 521.6,-622.75 567.4,-645.42"/>
<polygon fill="#666666" stroke="#666666" points="565.99,-648.63 576.5,-649.93 569.09,-642.36 565.99,-648.63"/>
</g>
<!-- isMutationDone -->
<g id="node18" class="node">
<title>isMutationDone</title>
<polygon fill="none" stroke="black" points="666.5,-587 561.5,-587 561.5,-551 666.5,-551 666.5,-587"/>
<text text-anchor="middle" x="614" y="-565.3" font-family="Times,serif" font-size="14.00">isMutationDone</text>
</g>
<!-- waitForMutation&#45;&gt;isMutationDone -->
<g id="edge19" class="edge">
<title>waitForMutation&#45;&gt;isMutationDone</title>
<path fill="none" stroke="#666666" d="M431.77,-549.77C469.46,-553.77 514.91,-558.59 550.86,-562.41"/>
<polygon fill="#666666" stroke="#666666" points="550.9,-565.93 561.21,-563.51 551.64,-558.97 550.9,-565.93"/>
</g>
<!-- mutation_wait_mutex -->
<g id="node19" class="node">
<title>mutation_wait_mutex</title>
<polygon fill="none" stroke="black" points="682.5,-533 545.5,-533 545.5,-497 682.5,-497 682.5,-533"/>
<text text-anchor="middle" x="614" y="-511.3" font-family="Times,serif" font-size="14.00">mutation_wait_mutex</text>
</g>
<!-- waitForMutation&#45;&gt;mutation_wait_mutex -->
<g id="edge20" class="edge">
<title>waitForMutation&#45;&gt;mutation_wait_mutex</title>
<path fill="none" stroke="#666666" d="M431.77,-534.23C464.24,-530.78 502.47,-526.73 535.42,-523.23"/>
<polygon fill="#666666" stroke="#666666" points="535.89,-526.7 545.47,-522.16 535.16,-519.74 535.89,-526.7"/>
</g>
<!-- MergeTreeMutationEntry_ctor&#45;&gt;current_mutations_by_version -->
<g id="edge17" class="edge">
<title>MergeTreeMutationEntry_ctor&#45;&gt;current_mutations_by_version</title>
<path fill="none" stroke="#666666" stroke-dasharray="5,2" d="M408.06,-329.06C432.11,-338.13 461.29,-349.6 487,-361 503.35,-368.25 506.54,-371.99 523,-379 527.15,-380.77 531.43,-382.52 535.76,-384.24"/>
<polygon fill="#666666" stroke="#666666" points="534.74,-387.59 545.33,-387.95 537.27,-381.07 534.74,-387.59"/>
</g>
<!-- current_mutations_by_version&#45;&gt;tryMutatePart -->
<g id="edge33" class="edge">
<title>current_mutations_by_version&#45;&gt;tryMutatePart</title>
<path fill="none" stroke="#666666" stroke-dasharray="5,2" d="M651.75,-434.05C676.36,-448.82 709.83,-467.65 741,-481 751.07,-485.32 762.07,-489.28 772.75,-492.77"/>
<polygon fill="#666666" stroke="#666666" points="771.83,-496.15 782.42,-495.84 773.94,-489.48 771.83,-496.15"/>
</g>
<!-- lockForShare -->
<g id="node25" class="node">
<title>lockForShare</title>
<polygon fill="none" stroke="black" points="1110,-470 1021,-470 1021,-434 1110,-434 1110,-470"/>
<text text-anchor="middle" x="1065.5" y="-448.3" font-family="Times,serif" font-size="14.00">lockForShare</text>
</g>
<!-- merge&#45;&gt;lockForShare -->
<g id="edge26" class="edge">
<title>merge&#45;&gt;lockForShare</title>
<path fill="none" stroke="#3f72af" d="M855.77,-293.96C874.79,-296.71 899.9,-303.29 916,-319 951.62,-353.74 915.24,-391.47 952,-425 967.94,-439.54 990.31,-446.63 1010.91,-449.97"/>
<polygon fill="#3f72af" stroke="#3f72af" points="1010.46,-453.44 1020.85,-451.32 1011.41,-446.5 1010.46,-453.44"/>
</g>
<!-- getInMemoryMetadataPtr -->
<g id="node26" class="node">
<title>getInMemoryMetadataPtr</title>
<polygon fill="none" stroke="black" points="1145,-416 986,-416 986,-380 1145,-380 1145,-416"/>
<text text-anchor="middle" x="1065.5" y="-394.3" font-family="Times,serif" font-size="14.00">getInMemoryMetadataPtr</text>
</g>
<!-- merge&#45;&gt;getInMemoryMetadataPtr -->
<g id="edge27" class="edge">
<title>merge&#45;&gt;getInMemoryMetadataPtr</title>
<path fill="none" stroke="#3f72af" d="M855.75,-295.57C874.05,-299.1 898.25,-305.95 916,-319 938.65,-335.65 928.81,-355.12 952,-371 959.42,-376.08 967.69,-380.21 976.29,-383.57"/>
<polygon fill="#3f72af" stroke="#3f72af" points="975.12,-386.87 985.72,-386.92 977.46,-380.27 975.12,-386.87"/>
</g>
<!-- getCurrentMutationVersion -->
<g id="node27" class="node">
<title>getCurrentMutationVersion</title>
<polygon fill="none" stroke="black" points="1148.5,-362 982.5,-362 982.5,-326 1148.5,-326 1148.5,-362"/>
<text text-anchor="middle" x="1065.5" y="-340.3" font-family="Times,serif" font-size="14.00">getCurrentMutationVersion</text>
</g>
<!-- merge&#45;&gt;getCurrentMutationVersion -->
<g id="edge28" class="edge">
<title>merge&#45;&gt;getCurrentMutationVersion</title>
<path fill="none" stroke="#3f72af" d="M855.55,-297.76C883.93,-304.04 930.94,-314.45 973.19,-323.8"/>
<polygon fill="#3f72af" stroke="#3f72af" points="972.45,-327.22 982.97,-325.96 973.96,-320.38 972.45,-327.22"/>
</g>
<!-- getMaxSourcePartsSizeForMerge -->
<g id="node28" class="node">
<title>getMaxSourcePartsSizeForMerge</title>
<polygon fill="none" stroke="black" points="1166,-308 965,-308 965,-272 1166,-272 1166,-308"/>
<text text-anchor="middle" x="1065.5" y="-286.3" font-family="Times,serif" font-size="14.00">getMaxSourcePartsSizeForMerge</text>
</g>
<!-- merge&#45;&gt;getMaxSourcePartsSizeForMerge -->
<g id="edge29" class="edge">
<title>merge&#45;&gt;getMaxSourcePartsSizeForMerge</title>
<path fill="none" stroke="#3f72af" d="M855.55,-291.78C879.8,-291.57 917.65,-291.25 954.51,-290.94"/>
<polygon fill="#3f72af" stroke="#3f72af" points="954.9,-294.43 964.87,-290.85 954.84,-287.43 954.9,-294.43"/>
</g>
<!-- selectPartsToMerge -->
<g id="node29" class="node">
<title>selectPartsToMerge</title>
<polygon fill="none" stroke="black" points="1128,-254 1003,-254 1003,-218 1128,-218 1128,-254"/>
<text text-anchor="middle" x="1065.5" y="-232.3" font-family="Times,serif" font-size="14.00">selectPartsToMerge</text>
</g>
<!-- merge&#45;&gt;selectPartsToMerge -->
<g id="edge30" class="edge">
<title>merge&#45;&gt;selectPartsToMerge</title>
<path fill="none" stroke="#3f72af" d="M855.55,-285.79C888.46,-277.95 946.42,-264.14 992.97,-253.05"/>
<polygon fill="#3f72af" stroke="#3f72af" points="993.79,-256.45 1002.71,-250.72 992.17,-249.64 993.79,-256.45"/>
</g>
<!-- selectAllPartsToMergeWithinPartition -->
<g id="node30" class="node">
<title>selectAllPartsToMergeWithinPartition</title>
<polygon fill="none" stroke="black" points="1179,-200 952,-200 952,-164 1179,-164 1179,-200"/>
<text text-anchor="middle" x="1065.5" y="-178.3" font-family="Times,serif" font-size="14.00">selectAllPartsToMergeWithinPartition</text>
</g>
<!-- merge&#45;&gt;selectAllPartsToMergeWithinPartition -->
<g id="edge31" class="edge">
<title>merge&#45;&gt;selectAllPartsToMergeWithinPartition</title>
<path fill="none" stroke="#3f72af" d="M855.6,-290.6C874.05,-288.45 898.52,-283.11 916,-270 941.19,-251.12 926.69,-227.71 952,-209 953.87,-207.62 955.8,-206.3 957.78,-205.06"/>
<polygon fill="#3f72af" stroke="#3f72af" points="959.77,-207.96 966.78,-200.01 956.35,-201.85 959.77,-207.96"/>
</g>
<!-- writePartLog -->
<g id="node31" class="node">
<title>writePartLog</title>
<polygon fill="none" stroke="black" points="1109.5,-146 1021.5,-146 1021.5,-110 1109.5,-110 1109.5,-146"/>
<text text-anchor="middle" x="1065.5" y="-124.3" font-family="Times,serif" font-size="14.00">writePartLog</text>
</g>
<!-- merge&#45;&gt;writePartLog -->
<g id="edge32" class="edge">
<title>merge&#45;&gt;writePartLog</title>
<path fill="none" stroke="#3f72af" d="M855.78,-291.83C874.81,-290.32 899.91,-285.24 916,-270 954.89,-233.17 912.87,-191.56 952,-155 967.89,-140.15 990.47,-133.03 1011.23,-129.76"/>
<polygon fill="#3f72af" stroke="#3f72af" points="1011.78,-133.22 1021.24,-128.45 1010.87,-126.28 1011.78,-133.22"/>
</g>
<!-- tryMutatePart&#45;&gt;mutation_wait_event_notify_all -->
<g id="edge34" class="edge">
<title>tryMutatePart&#45;&gt;mutation_wait_event_notify_all</title>
<path fill="none" stroke="#17b978" d="M874.62,-513.74C889.39,-517.62 904.85,-524.12 916,-535 951.62,-569.74 915.24,-607.47 952,-641 954.84,-643.59 957.88,-645.94 961.08,-648.08"/>
<polygon fill="#17b978" stroke="#17b978" points="959.49,-651.2 969.88,-653.25 963.03,-645.17 959.49,-651.2"/>
</g>
<!-- mutatePartToTemporaryPart -->
<g id="node32" class="node">
<title>mutatePartToTemporaryPart</title>
<polygon fill="none" stroke="black" points="1152,-632 979,-632 979,-596 1152,-596 1152,-632"/>
<text text-anchor="middle" x="1065.5" y="-610.3" font-family="Times,serif" font-size="14.00">mutatePartToTemporaryPart</text>
</g>
<!-- tryMutatePart&#45;&gt;mutatePartToTemporaryPart -->
<g id="edge35" class="edge">
<title>tryMutatePart&#45;&gt;mutatePartToTemporaryPart</title>
<path fill="none" stroke="#17b978" d="M874.82,-516.1C888.94,-520.15 903.96,-526.15 916,-535 938.65,-551.65 928.81,-571.12 952,-587 957.33,-590.65 963.09,-593.81 969.1,-596.54"/>
<polygon fill="#17b978" stroke="#17b978" points="968.14,-599.93 978.72,-600.5 970.8,-593.45 968.14,-599.93"/>
</g>
<!-- renameTempPartAndReplace -->
<g id="node33" class="node">
<title>renameTempPartAndReplace</title>
<polygon fill="none" stroke="black" points="1154.5,-578 976.5,-578 976.5,-542 1154.5,-542 1154.5,-578"/>
<text text-anchor="middle" x="1065.5" y="-556.3" font-family="Times,serif" font-size="14.00">renameTempPartAndReplace</text>
</g>
<!-- tryMutatePart&#45;&gt;renameTempPartAndReplace -->
<g id="edge36" class="edge">
<title>tryMutatePart&#45;&gt;renameTempPartAndReplace</title>
<path fill="none" stroke="#17b978" d="M874.53,-517.96C902.43,-524.14 939.27,-532.29 973.08,-539.77"/>
<polygon fill="#17b978" stroke="#17b978" points="972.47,-543.22 982.99,-541.96 973.98,-536.39 972.47,-543.22"/>
</g>
<!-- write_part_log -->
<g id="node34" class="node">
<title>write_part_log</title>
<polygon fill="none" stroke="black" points="1113.5,-524 1017.5,-524 1017.5,-488 1113.5,-488 1113.5,-524"/>
<text text-anchor="middle" x="1065.5" y="-502.3" font-family="Times,serif" font-size="14.00">write_part_log</text>
</g>
<!-- tryMutatePart&#45;&gt;write_part_log -->
<g id="edge37" class="edge">
<title>tryMutatePart&#45;&gt;write_part_log</title>
<path fill="none" stroke="#17b978" d="M874.53,-507.62C912.25,-507.3 966.31,-506.84 1007.13,-506.49"/>
<polygon fill="#17b978" stroke="#17b978" points="1007.23,-509.99 1017.2,-506.4 1007.17,-502.99 1007.23,-509.99"/>
</g>
<!-- shutdown -->
<g id="node35" class="node">
<title>shutdown</title>
<polygon fill="none" stroke="black" points="863,-634 794,-634 794,-598 863,-598 863,-634"/>
<text text-anchor="middle" x="828.5" y="-612.3" font-family="Times,serif" font-size="14.00">shutdown</text>
</g>
<!-- shutdown&#45;&gt;mutation_wait_event_notify_all -->
<g id="edge38" class="edge">
<title>shutdown&#45;&gt;mutation_wait_event_notify_all</title>
<path fill="none" stroke="#666666" d="M863.17,-623.45C891.77,-629.78 934.2,-639.17 972.74,-647.7"/>
<polygon fill="#666666" stroke="#666666" points="972.45,-651.22 982.97,-649.96 973.96,-644.38 972.45,-651.22"/>
</g>
<!-- killMutation -->
<g id="node36" class="node">
<title>killMutation</title>
<polygon fill="none" stroke="black" points="871,-580 786,-580 786,-544 871,-544 871,-580"/>
<text text-anchor="middle" x="828.5" y="-558.3" font-family="Times,serif" font-size="14.00">killMutation</text>
</g>
<!-- killMutation&#45;&gt;mutation_wait_event_notify_all -->
<g id="edge39" class="edge">
<title>killMutation&#45;&gt;mutation_wait_event_notify_all</title>
<path fill="none" stroke="#666666" d="M871.27,-569.12C886.39,-573.16 902.94,-579.4 916,-589 938.65,-605.65 928.81,-625.12 952,-641 954.78,-642.9 957.67,-644.67 960.66,-646.31"/>
<polygon fill="#666666" stroke="#666666" points="959.34,-649.57 969.86,-650.88 962.46,-643.3 959.34,-649.57"/>
</g>
</g>
</svg>
