<?xml version="1.0" encoding="UTF-8" standalone="no"?>
<!DOCTYPE svg PUBLIC "-//W3C//DTD SVG 1.1//EN"
 "http://www.w3.org/Graphics/SVG/1.1/DTD/svg11.dtd">
<!-- Generated by graphviz version 2.49.3 (20211023.0002)
 -->
<!-- Title: dig Pages: 1 -->
<svg width="451pt" height="244pt"
 viewBox="0.00 0.00 451.00 244.00" xmlns="http://www.w3.org/2000/svg" xmlns:xlink="http://www.w3.org/1999/xlink">
<g id="graph0" class="graph" transform="scale(1 1) rotate(0) translate(4 240)">
<title>dig</title>
<polygon fill="white" stroke="transparent" points="-4,4 -4,-240 447,-240 447,4 -4,4"/>
<!-- a -->
<g id="node1" class="node">
<title>a</title>
<path fill="none" stroke="#1c2123" d="M42,-182C42,-182 12,-182 12,-182 6,-182 0,-176 0,-170 0,-170 0,-158 0,-158 0,-152 6,-146 12,-146 12,-146 42,-146 42,-146 48,-146 54,-152 54,-158 54,-158 54,-170 54,-170 54,-176 48,-182 42,-182"/>
<text text-anchor="middle" x="27" y="-160.3" font-family="Times,serif" font-size="14.00" fill="#2f3638">a</text>
</g>
<!-- b -->
<g id="node3" class="node">
<title>b</title>
<path fill="none" stroke="#1c2123" d="M103.5,-174C103.5,-174 155.5,-174 155.5,-174 161.5,-174 167.5,-180 167.5,-186 167.5,-186 167.5,-208 167.5,-208 167.5,-214 161.5,-220 155.5,-220 155.5,-220 103.5,-220 103.5,-220 97.5,-220 91.5,-214 91.5,-208 91.5,-208 91.5,-186 91.5,-186 91.5,-180 97.5,-174 103.5,-174"/>
<text text-anchor="start" x="99.5" y="-204.8" font-family="Times,serif" font-size="14.00" fill="#2f3638">b</text>
<polyline fill="none" stroke="#1c2123" points="91.5,-197 167.5,-197 "/>
<text text-anchor="start" x="99.5" y="-181.8" font-family="Times,serif" font-size="14.00" fill="#2f3638">b = w1 * a</text>
</g>
<!-- a&#45;&gt;b -->
<g id="edge1" class="edge">
<title>a&#45;&gt;b</title>
<path fill="none" stroke="#666666" d="M54.14,-172.58C62.52,-175.33 72.06,-178.47 81.46,-181.55"/>
<polygon fill="#666666" stroke="#666666" points="80.54,-184.94 91.14,-184.73 82.73,-178.29 80.54,-184.94"/>
</g>
<!-- c -->
<g id="node5" class="node">
<title>c</title>
<path fill="none" stroke="#1c2123" d="M102,-109C102,-109 157,-109 157,-109 163,-109 169,-115 169,-121 169,-121 169,-143 169,-143 169,-149 163,-155 157,-155 157,-155 102,-155 102,-155 96,-155 90,-149 90,-143 90,-143 90,-121 90,-121 90,-115 96,-109 102,-109"/>
<text text-anchor="start" x="98" y="-139.8" font-family="Times,serif" font-size="14.00" fill="#2f3638">c</text>
<polyline fill="none" stroke="#1c2123" points="90,-132 169,-132 "/>
<text text-anchor="start" x="98" y="-116.8" font-family="Times,serif" font-size="14.00" fill="#2f3638">c = w2 * a;</text>
</g>
<!-- a&#45;&gt;c -->
<g id="edge3" class="edge">
<title>a&#45;&gt;c</title>
<path fill="none" stroke="#666666" d="M54.14,-155.68C62.17,-153.12 71.28,-150.22 80.3,-147.35"/>
<polygon fill="#666666" stroke="#666666" points="81.53,-150.63 89.99,-144.26 79.4,-143.96 81.53,-150.63"/>
</g>
<!-- w1 -->
<g id="node2" class="node">
<title>w1</title>
<path fill="none" stroke="#1c2123" d="M42,-236C42,-236 12,-236 12,-236 6,-236 0,-230 0,-224 0,-224 0,-212 0,-212 0,-206 6,-200 12,-200 12,-200 42,-200 42,-200 48,-200 54,-206 54,-212 54,-212 54,-224 54,-224 54,-230 48,-236 42,-236"/>
<text text-anchor="middle" x="27" y="-214.3" font-family="Times,serif" font-size="14.00" fill="#2f3638">w1</text>
</g>
<!-- w1&#45;&gt;b -->
<g id="edge2" class="edge">
<title>w1&#45;&gt;b</title>
<path fill="none" stroke="#666666" d="M54.14,-212.54C62.43,-210.81 71.86,-208.84 81.16,-206.89"/>
<polygon fill="#666666" stroke="#666666" points="82.06,-210.28 91.14,-204.81 80.63,-203.43 82.06,-210.28"/>
</g>
<!-- d -->
<g id="node8" class="node">
<title>d</title>
<path fill="none" stroke="#1c2123" d="M217,-79C217,-79 319,-79 319,-79 325,-79 331,-85 331,-91 331,-91 331,-113 331,-113 331,-119 325,-125 319,-125 319,-125 217,-125 217,-125 211,-125 205,-119 205,-113 205,-113 205,-91 205,-91 205,-85 211,-79 217,-79"/>
<text text-anchor="start" x="213" y="-109.8" font-family="Times,serif" font-size="14.00" fill="#2f3638">d</text>
<polyline fill="none" stroke="#1c2123" points="205,-102 331,-102 "/>
<text text-anchor="start" x="213" y="-86.8" font-family="Times,serif" font-size="14.00" fill="#2f3638">d = d3 * b + w4 * c</text>
</g>
<!-- b&#45;&gt;d -->
<g id="edge5" class="edge">
<title>b&#45;&gt;d</title>
<path fill="none" stroke="#666666" d="M163.89,-173.76C182.32,-160.94 205.38,-144.89 225.01,-131.22"/>
<polygon fill="#666666" stroke="#666666" points="227.27,-133.91 233.48,-125.33 223.27,-128.17 227.27,-133.91"/>
</g>
<!-- w2 -->
<g id="node4" class="node">
<title>w2</title>
<path fill="none" stroke="#1c2123" d="M42,-128C42,-128 12,-128 12,-128 6,-128 0,-122 0,-116 0,-116 0,-104 0,-104 0,-98 6,-92 12,-92 12,-92 42,-92 42,-92 48,-92 54,-98 54,-104 54,-104 54,-116 54,-116 54,-122 48,-128 42,-128"/>
<text text-anchor="middle" x="27" y="-106.3" font-family="Times,serif" font-size="14.00" fill="#2f3638">w2</text>
</g>
<!-- w2&#45;&gt;c -->
<g id="edge4" class="edge">
<title>w2&#45;&gt;c</title>
<path fill="none" stroke="#666666" d="M54.14,-115.72C62.09,-117.46 71.08,-119.43 80.01,-121.38"/>
<polygon fill="#666666" stroke="#666666" points="79.47,-124.85 89.99,-123.57 80.97,-118.01 79.47,-124.85"/>
</g>
<!-- c&#45;&gt;d -->
<g id="edge6" class="edge">
<title>c&#45;&gt;d</title>
<path fill="none" stroke="#666666" d="M169.25,-123.48C177.32,-121.71 186.08,-119.78 194.92,-117.84"/>
<polygon fill="#666666" stroke="#666666" points="195.9,-121.21 204.91,-115.65 194.39,-114.37 195.9,-121.21"/>
</g>
<!-- w3 -->
<g id="node6" class="node">
<title>w3</title>
<path fill="none" stroke="#1c2123" d="M144.5,-90C144.5,-90 114.5,-90 114.5,-90 108.5,-90 102.5,-84 102.5,-78 102.5,-78 102.5,-66 102.5,-66 102.5,-60 108.5,-54 114.5,-54 114.5,-54 144.5,-54 144.5,-54 150.5,-54 156.5,-60 156.5,-66 156.5,-66 156.5,-78 156.5,-78 156.5,-84 150.5,-90 144.5,-90"/>
<text text-anchor="middle" x="129.5" y="-68.3" font-family="Times,serif" font-size="14.00" fill="#2f3638">w3</text>
</g>
<!-- w3&#45;&gt;d -->
<g id="edge7" class="edge">
<title>w3&#45;&gt;d</title>
<path fill="none" stroke="#666666" d="M156.82,-77.78C167.85,-80.21 181.27,-83.16 194.9,-86.15"/>
<polygon fill="#666666" stroke="#666666" points="194.31,-89.61 204.83,-88.34 195.81,-82.77 194.31,-89.61"/>
</g>
<!-- w4 -->
<g id="node7" class="node">
<title>w4</title>
<path fill="none" stroke="#1c2123" d="M144.5,-36C144.5,-36 114.5,-36 114.5,-36 108.5,-36 102.5,-30 102.5,-24 102.5,-24 102.5,-12 102.5,-12 102.5,-6 108.5,0 114.5,0 114.5,0 144.5,0 144.5,0 150.5,0 156.5,-6 156.5,-12 156.5,-12 156.5,-24 156.5,-24 156.5,-30 150.5,-36 144.5,-36"/>
<text text-anchor="middle" x="129.5" y="-14.3" font-family="Times,serif" font-size="14.00" fill="#2f3638">w4</text>
</g>
<!-- w4&#45;&gt;d -->
<g id="edge8" class="edge">
<title>w4&#45;&gt;d</title>
<path fill="none" stroke="#666666" d="M156.82,-34.2C174.93,-45.34 199.47,-60.45 220.8,-73.57"/>
<polygon fill="#666666" stroke="#666666" points="219.06,-76.61 229.41,-78.87 222.73,-70.64 219.06,-76.61"/>
</g>
<!-- L -->
<g id="node9" class="node">
<title>L</title>
<path fill="none" stroke="#1c2123" d="M379,-83C379,-83 431,-83 431,-83 437,-83 443,-89 443,-95 443,-95 443,-109 443,-109 443,-115 437,-121 431,-121 431,-121 379,-121 379,-121 373,-121 367,-115 367,-109 367,-109 367,-95 367,-95 367,-89 373,-83 379,-83"/>
<text text-anchor="start" x="375" y="-105.8" font-family="Times,serif" font-size="14.00" fill="#2f3638">L</text>
<text text-anchor="start" x="375" y="-90.8" font-family="Times,serif" font-size="14.00" fill="#2f3638"> L = 10 &#45;d </text>
</g>
<!-- d&#45;&gt;L -->
<g id="edge9" class="edge">
<title>d&#45;&gt;L</title>
<path fill="none" stroke="#666666" d="M331.36,-102C339.91,-102 348.57,-102 356.79,-102"/>
<polygon fill="#666666" stroke="#666666" points="356.92,-105.5 366.92,-102 356.92,-98.5 356.92,-105.5"/>
</g>
</g>
</svg>
