<?xml version="1.0" encoding="UTF-8" standalone="no"?>
<!DOCTYPE svg PUBLIC "-//W3C//DTD SVG 1.1//EN"
 "http://www.w3.org/Graphics/SVG/1.1/DTD/svg11.dtd">
<!-- Generated by graphviz version 2.49.3 (20211023.0002)
 -->
<!-- Title: dig Pages: 1 -->
<svg width="1139pt" height="217pt"
 viewBox="0.00 0.00 1139.00 217.00" xmlns="http://www.w3.org/2000/svg" xmlns:xlink="http://www.w3.org/1999/xlink">
<g id="graph0" class="graph" transform="scale(1 1) rotate(0) translate(4 213)">
<title>dig</title>
<polygon fill="white" stroke="transparent" points="-4,4 -4,-213 1135,-213 1135,4 -4,4"/>
<!-- Path -->
<g id="node1" class="node">
<title>Path</title>
<path fill="none" stroke="#1c2123" d="M12,-31C12,-31 139,-31 139,-31 145,-31 151,-37 151,-43 151,-43 151,-111 151,-111 151,-117 145,-123 139,-123 139,-123 12,-123 12,-123 6,-123 0,-117 0,-111 0,-111 0,-43 0,-43 0,-37 6,-31 12,-31"/>
<text text-anchor="start" x="8" y="-107.8" font-family="Times,serif" font-size="14.00" fill="#2f3638">Path</text>
<polyline fill="none" stroke="#1c2123" points="0,-100 151,-100 "/>
<text text-anchor="start" x="8" y="-84.8" font-family="Times,serif" font-size="14.00" fill="#2f3638">path: Vec&lt;String&gt;,</text>
<polyline fill="none" stroke="#1c2123" points="0,-77 151,-77 "/>
<text text-anchor="start" x="8" y="-61.8" font-family="Times,serif" font-size="14.00" fill="#2f3638">group: usize,</text>
<polyline fill="none" stroke="#1c2123" points="0,-54 151,-54 "/>
<text text-anchor="start" x="8" y="-38.8" font-family="Times,serif" font-size="14.00" fill="#2f3638">var_store: &amp;&#39;a VarStore,</text>
</g>
<!-- VarStore -->
<g id="node2" class="node">
<title>VarStore</title>
<path fill="none" stroke="#1c2123" d="M199,-46.5C199,-46.5 428,-46.5 428,-46.5 434,-46.5 440,-52.5 440,-58.5 440,-58.5 440,-95.5 440,-95.5 440,-101.5 434,-107.5 428,-107.5 428,-107.5 199,-107.5 199,-107.5 193,-107.5 187,-101.5 187,-95.5 187,-95.5 187,-58.5 187,-58.5 187,-52.5 193,-46.5 199,-46.5"/>
<text text-anchor="start" x="195" y="-92.3" font-family="Times,serif" font-size="14.00" fill="#2f3638">Variable</text>
<text text-anchor="start" x="195" y="-77.3" font-family="Times,serif" font-size="14.00" fill="#2f3638"> pub variables_: Arc&lt;Mutex&lt;Variables&gt;&gt;,</text>
<polyline fill="none" stroke="#1c2123" points="187,-69.5 440,-69.5 "/>
<text text-anchor="start" x="195" y="-54.3" font-family="Times,serif" font-size="14.00" fill="#2f3638">device: Device,</text>
</g>
<!-- Path&#45;&gt;VarStore -->
<g id="edge8" class="edge">
<title>Path&#45;&gt;VarStore</title>
<path fill="none" stroke="#666666" d="M151.17,-77C159.42,-77 168,-77 176.71,-77"/>
<polygon fill="#666666" stroke="#666666" points="176.99,-80.5 186.99,-77 176.99,-73.5 176.99,-80.5"/>
</g>
<!-- Variables -->
<g id="node3" class="node">
<title>Variables</title>
<path fill="none" stroke="#1c2123" d="M488,-88.5C488,-88.5 763,-88.5 763,-88.5 769,-88.5 775,-94.5 775,-100.5 775,-100.5 775,-137.5 775,-137.5 775,-143.5 769,-149.5 763,-149.5 763,-149.5 488,-149.5 488,-149.5 482,-149.5 476,-143.5 476,-137.5 476,-137.5 476,-100.5 476,-100.5 476,-94.5 482,-88.5 488,-88.5"/>
<text text-anchor="start" x="484" y="-134.3" font-family="Times,serif" font-size="14.00" fill="#2f3638">Variables</text>
<text text-anchor="start" x="484" y="-119.3" font-family="Times,serif" font-size="14.00" fill="#2f3638"> pub named_variables: HashMap&lt;String, Tensor&gt;,</text>
<polyline fill="none" stroke="#1c2123" points="476,-111.5 775,-111.5 "/>
<text text-anchor="start" x="484" y="-96.3" font-family="Times,serif" font-size="14.00" fill="#2f3638">pub trainable_variables: Vec&lt;Var&gt;,</text>
</g>
<!-- VarStore&#45;&gt;Variables -->
<g id="edge1" class="edge">
<title>VarStore&#45;&gt;Variables</title>
<path fill="none" stroke="#666666" d="M440.14,-94.02C448.59,-95.17 457.15,-96.33 465.73,-97.49"/>
<polygon fill="#666666" stroke="#666666" points="465.43,-100.98 475.8,-98.85 466.36,-94.04 465.43,-100.98"/>
</g>
<!-- rs_Device -->
<g id="node5" class="node">
<title>rs_Device</title>
<path fill="#bcffb9" stroke="#8a8898" d="M592,-0.5C592,-0.5 659,-0.5 659,-0.5 665,-0.5 671,-6.5 671,-12.5 671,-12.5 671,-57.5 671,-57.5 671,-63.5 665,-69.5 659,-69.5 659,-69.5 592,-69.5 592,-69.5 586,-69.5 580,-63.5 580,-57.5 580,-57.5 580,-12.5 580,-12.5 580,-6.5 586,-0.5 592,-0.5"/>
<text text-anchor="start" x="588" y="-54.3" font-family="Times,serif" font-size="14.00" fill="#5d6179">enum Device</text>
<polyline fill="none" stroke="#8a8898" points="580,-46.5 671,-46.5 "/>
<text text-anchor="start" x="588" y="-31.3" font-family="Times,serif" font-size="14.00" fill="#5d6179">Cpu</text>
<polyline fill="none" stroke="#8a8898" points="580,-23.5 671,-23.5 "/>
<text text-anchor="start" x="588" y="-8.3" font-family="Times,serif" font-size="14.00" fill="#5d6179">Cuda(usize),</text>
</g>
<!-- VarStore&#45;&gt;rs_Device -->
<g id="edge2" class="edge">
<title>VarStore&#45;&gt;rs_Device</title>
<path fill="none" stroke="#666666" d="M440.14,-59.98C485.2,-53.87 533.7,-47.3 569.64,-42.43"/>
<polygon fill="#666666" stroke="#666666" points="570.46,-45.85 579.9,-41.04 569.52,-38.92 570.46,-45.85"/>
</g>
<!-- Var -->
<g id="node4" class="node">
<title>Var</title>
<path fill="none" stroke="#1c2123" d="M823,-147.5C823,-147.5 926,-147.5 926,-147.5 932,-147.5 938,-153.5 938,-159.5 938,-159.5 938,-196.5 938,-196.5 938,-202.5 932,-208.5 926,-208.5 926,-208.5 823,-208.5 823,-208.5 817,-208.5 811,-202.5 811,-196.5 811,-196.5 811,-159.5 811,-159.5 811,-153.5 817,-147.5 823,-147.5"/>
<text text-anchor="start" x="819" y="-193.3" font-family="Times,serif" font-size="14.00" fill="#2f3638">Var</text>
<text text-anchor="start" x="819" y="-178.3" font-family="Times,serif" font-size="14.00" fill="#2f3638"> pub tensor: Tensor,</text>
<polyline fill="none" stroke="#1c2123" points="811,-170.5 938,-170.5 "/>
<text text-anchor="start" x="819" y="-155.3" font-family="Times,serif" font-size="14.00" fill="#2f3638">pub group: usize,</text>
</g>
<!-- Variables&#45;&gt;Var -->
<g id="edge3" class="edge">
<title>Variables&#45;&gt;Var</title>
<path fill="none" stroke="#666666" d="M754.34,-149.54C770.31,-153.35 786.19,-157.14 800.9,-160.66"/>
<polygon fill="#666666" stroke="#666666" points="800.34,-164.12 810.88,-163.04 801.97,-157.31 800.34,-164.12"/>
</g>
<!-- Tensor -->
<g id="node6" class="node">
<title>Tensor</title>
<path fill="none" stroke="#1c2123" d="M1016,-166C1016,-166 986,-166 986,-166 980,-166 974,-160 974,-154 974,-154 974,-142 974,-142 974,-136 980,-130 986,-130 986,-130 1016,-130 1016,-130 1022,-130 1028,-136 1028,-142 1028,-142 1028,-154 1028,-154 1028,-160 1022,-166 1016,-166"/>
<text text-anchor="middle" x="1001" y="-144.3" font-family="Times,serif" font-size="14.00" fill="#2f3638">Tensor</text>
</g>
<!-- Variables&#45;&gt;Tensor -->
<g id="edge4" class="edge">
<title>Variables&#45;&gt;Tensor</title>
<path fill="none" stroke="#666666" d="M775.3,-125.07C826.91,-127.97 885.09,-132.13 938,-138 946.4,-138.93 955.39,-140.21 963.85,-141.55"/>
<polygon fill="#666666" stroke="#666666" points="963.4,-145.02 973.83,-143.19 964.53,-138.12 963.4,-145.02"/>
</g>
<!-- HashMap -->
<g id="node7" class="node">
<title>HashMap</title>
<path fill="none" stroke="#1c2123" d="M898,-91C898,-91 851,-91 851,-91 845,-91 839,-85 839,-79 839,-79 839,-67 839,-67 839,-61 845,-55 851,-55 851,-55 898,-55 898,-55 904,-55 910,-61 910,-67 910,-67 910,-79 910,-79 910,-85 904,-91 898,-91"/>
<text text-anchor="middle" x="874.5" y="-69.3" font-family="Times,serif" font-size="14.00" fill="#2f3638">HashMap</text>
</g>
<!-- Variables&#45;&gt;HashMap -->
<g id="edge5" class="edge">
<title>Variables&#45;&gt;HashMap</title>
<path fill="none" stroke="#666666" d="M775.17,-91.31C794.61,-87.69 813.19,-84.23 828.85,-81.31"/>
<polygon fill="#666666" stroke="#666666" points="829.52,-84.75 838.71,-79.48 828.24,-77.87 829.52,-84.75"/>
</g>
<!-- Var&#45;&gt;Tensor -->
<g id="edge6" class="edge">
<title>Var&#45;&gt;Tensor</title>
<path fill="none" stroke="#666666" d="M938.11,-162.91C946.97,-160.78 955.82,-158.65 963.94,-156.69"/>
<polygon fill="#666666" stroke="#666666" points="964.88,-160.06 973.78,-154.32 963.24,-153.26 964.88,-160.06"/>
</g>
<!-- C_tensor -->
<g id="node8" class="node">
<title>C_tensor</title>
<path fill="none" stroke="#1c2123" d="M1119,-166C1119,-166 1076,-166 1076,-166 1070,-166 1064,-160 1064,-154 1064,-154 1064,-142 1064,-142 1064,-136 1070,-130 1076,-130 1076,-130 1119,-130 1119,-130 1125,-130 1131,-136 1131,-142 1131,-142 1131,-154 1131,-154 1131,-160 1125,-166 1119,-166"/>
<text text-anchor="middle" x="1097.5" y="-144.3" font-family="Times,serif" font-size="14.00" fill="#2f3638">C_tensor</text>
</g>
<!-- Tensor&#45;&gt;C_tensor -->
<g id="edge7" class="edge">
<title>Tensor&#45;&gt;C_tensor</title>
<path fill="none" stroke="#666666" d="M1028.07,-148C1036,-148 1044.94,-148 1053.67,-148"/>
<polygon fill="#666666" stroke="#666666" points="1053.76,-151.5 1063.76,-148 1053.76,-144.5 1053.76,-151.5"/>
</g>
</g>
</svg>
