<?xml version="1.0" encoding="UTF-8" standalone="no"?>
<!DOCTYPE svg PUBLIC "-//W3C//DTD SVG 1.1//EN"
 "http://www.w3.org/Graphics/SVG/1.1/DTD/svg11.dtd">
<!-- Generated by graphviz version 2.40.1 (20161225.0304)
 -->
<!-- Title: vimclap Pages: 1 -->
<svg width="2794pt" height="921pt"
 viewBox="0.00 0.00 2793.81 920.60" xmlns="http://www.w3.org/2000/svg" xmlns:xlink="http://www.w3.org/1999/xlink">
<g id="graph0" class="graph" transform="scale(1 1) rotate(0) translate(4 916.5995)">
<title>vimclap</title>
<polygon fill="#ffffff" stroke="transparent" points="-4,4 -4,-916.5995 2789.8066,-916.5995 2789.8066,4 -4,4"/>
<g id="clust1" class="cluster">
<title>cluster_self</title>
<polygon fill="none" stroke="#000000" points="252.3462,-716.5995 252.3462,-796.5995 2777.8066,-796.5995 2777.8066,-716.5995 252.3462,-716.5995"/>
<text text-anchor="middle" x="1515.0764" y="-776.5995" font-family="Times,serif" font-size="20.00" fill="#000000">self</text>
</g>
<g id="clust2" class="cluster">
<title>cluster_providerInfo</title>
<polygon fill="none" stroke="#000000" points="45.6416,-716.5995 45.6416,-904.5995 161.7451,-904.5995 161.7451,-716.5995 45.6416,-716.5995"/>
<text text-anchor="middle" x="103.6934" y="-884.5995" font-family="Times,serif" font-size="20.00" fill="#000000">providerInfo</text>
</g>
<g id="clust3" class="cluster">
<title>cluster_provider</title>
<polygon fill="none" stroke="#000000" points="8,-520.5995 8,-708.5995 2662.0547,-708.5995 2662.0547,-520.5995 8,-520.5995"/>
<text text-anchor="middle" x="1335.0273" y="-688.5995" font-family="Times,serif" font-size="20.00" fill="#000000">provider</text>
</g>
<g id="clust4" class="cluster">
<title>cluster_impl</title>
<polygon fill="none" stroke="#000000" points="1783.0117,-432.5995 1783.0117,-512.5995 2422.7715,-512.5995 2422.7715,-432.5995 1783.0117,-432.5995"/>
<text text-anchor="middle" x="2102.8916" y="-492.5995" font-family="Times,serif" font-size="20.00" fill="#000000">impl</text>
</g>
<!-- self_on_enter -->
<g id="node1" class="node">
<title>self_on_enter</title>
<polygon fill="none" stroke="#000000" points="1511.0222,-760.5995 1418.6351,-760.5995 1418.6351,-724.5995 1511.0222,-724.5995 1511.0222,-760.5995"/>
<text text-anchor="middle" x="1464.8286" y="-738.3995" font-family="Times,serif" font-size="14.00" fill="#000000">self_on_enter</text>
</g>
<!-- self_on_typed -->
<g id="node2" class="node">
<title>self_on_typed</title>
<polygon fill="none" stroke="#000000" points="1717.4502,-760.5995 1621.8144,-760.5995 1621.8144,-724.5995 1717.4502,-724.5995 1717.4502,-760.5995"/>
<text text-anchor="middle" x="1669.6323" y="-738.3995" font-family="Times,serif" font-size="14.00" fill="#000000">self_on_typed</text>
</g>
<!-- clap_impl_on_typed -->
<g id="node5" class="node">
<title>clap_impl_on_typed</title>
<polygon fill="none" stroke="#000000" points="1922.1465,-476.5995 1790.9668,-476.5995 1790.9668,-440.5995 1922.1465,-440.5995 1922.1465,-476.5995"/>
<text text-anchor="middle" x="1856.5566" y="-454.3995" font-family="Times,serif" font-size="14.00" fill="#000000">clap_impl_on_typed</text>
</g>
<!-- self_on_typed&#45;&gt;clap_impl_on_typed -->
<g id="edge1" class="edge">
<title>self_on_typed&#45;&gt;clap_impl_on_typed</title>
<path fill="none" stroke="#666666" d="M1717.3414,-738.4956C1730.8027,-735.3083 1744.6005,-729.8534 1755.0117,-720.5995 1825.4522,-657.989 1847.4064,-540.6684 1853.939,-486.8681"/>
<polygon fill="#666666" stroke="#666666" points="1857.4439,-487.0196 1855.0804,-476.6918 1850.4875,-486.2393 1857.4439,-487.0196"/>
</g>
<!-- self_source -->
<g id="node3" class="node">
<title>self_source</title>
<polygon fill="none" stroke="#000000" points="2769.683,-760.5995 2690.1783,-760.5995 2690.1783,-724.5995 2769.683,-724.5995 2769.683,-760.5995"/>
<text text-anchor="middle" x="2729.9307" y="-738.3995" font-family="Times,serif" font-size="14.00" fill="#000000">self_source</text>
</g>
<!-- self_source_async -->
<g id="node4" class="node">
<title>self_source_async</title>
<polygon fill="none" stroke="#000000" points="378.7887,-760.5995 260.5316,-760.5995 260.5316,-724.5995 378.7887,-724.5995 378.7887,-760.5995"/>
<text text-anchor="middle" x="319.6602" y="-738.3995" font-family="Times,serif" font-size="14.00" fill="#000000">self_source_async</text>
</g>
<!-- on_typed_sync_impl -->
<g id="node21" class="node">
<title>on_typed_sync_impl</title>
<polygon fill="none" stroke="#000000" points="2091.7541,-476.5995 1957.8836,-476.5995 1957.8836,-440.5995 2091.7541,-440.5995 2091.7541,-476.5995"/>
<text text-anchor="middle" x="2024.8188" y="-454.3995" font-family="Times,serif" font-size="14.00" fill="#000000">on_typed_sync_impl</text>
</g>
<!-- clap_impl_on_typed&#45;&gt;on_typed_sync_impl -->
<g id="edge8" class="edge">
<title>clap_impl_on_typed&#45;&gt;on_typed_sync_impl</title>
<path fill="none" stroke="#666666" d="M1922.5754,-458.5995C1930.8228,-458.5995 1939.314,-458.5995 1947.7112,-458.5995"/>
<polygon fill="#666666" stroke="#666666" points="1947.8847,-462.0996 1957.8847,-458.5995 1947.8847,-455.0996 1947.8847,-462.0996"/>
</g>
<!-- on_typed -->
<g id="node6" class="node">
<title>on_typed</title>
<polygon fill="none" stroke="#000000" points="137.797,-868.5995 69.5898,-868.5995 69.5898,-832.5995 137.797,-832.5995 137.797,-868.5995"/>
<text text-anchor="middle" x="103.6934" y="-846.3995" font-family="Times,serif" font-size="14.00" fill="#000000">on_typed</text>
</g>
<!-- filter -->
<g id="node7" class="node">
<title>filter</title>
<polygon fill="none" stroke="#000000" points="130.6934,-814.5995 76.6934,-814.5995 76.6934,-778.5995 130.6934,-778.5995 130.6934,-814.5995"/>
<text text-anchor="middle" x="103.6934" y="-792.3995" font-family="Times,serif" font-size="14.00" fill="#000000">filter</text>
</g>
<!-- jobstop -->
<g id="node8" class="node">
<title>jobstop</title>
<polygon fill="none" stroke="#000000" points="132.4214,-760.5995 74.9654,-760.5995 74.9654,-724.5995 132.4214,-724.5995 132.4214,-760.5995"/>
<text text-anchor="middle" x="103.6934" y="-738.3995" font-family="Times,serif" font-size="14.00" fill="#000000">jobstop</text>
</g>
<!-- g_clap_provider_support_multi_select -->
<g id="node9" class="node">
<title>g_clap_provider_support_multi_select</title>
<polygon fill="none" stroke="#000000" points="1095.9664,-620.5995 863.6205,-620.5995 863.6205,-584.5995 1095.9664,-584.5995 1095.9664,-620.5995"/>
<text text-anchor="middle" x="979.7935" y="-598.3995" font-family="Times,serif" font-size="14.00" fill="#000000">g_clap_provider_support_multi_select</text>
</g>
<!-- g_clap_provider_id -->
<g id="node10" class="node">
<title>g_clap_provider_id</title>
<polygon fill="none" stroke="#000000" points="1042.4288,-566.5995 917.1582,-566.5995 917.1582,-530.5995 1042.4288,-530.5995 1042.4288,-566.5995"/>
<text text-anchor="middle" x="979.7935" y="-544.3995" font-family="Times,serif" font-size="14.00" fill="#000000">g_clap_provider_id</text>
</g>
<!-- g_clap_provider_try_set_syntax -->
<g id="node11" class="node">
<title>g_clap_provider_try_set_syntax</title>
<polygon fill="none" stroke="#000000" points="1337.0429,-672.5995 1140.2413,-672.5995 1140.2413,-636.5995 1337.0429,-636.5995 1337.0429,-672.5995"/>
<text text-anchor="middle" x="1238.6421" y="-650.3995" font-family="Times,serif" font-size="14.00" fill="#000000">g_clap_provider_try_set_syntax</text>
</g>
<!-- g_clap_provider_on_enter -->
<g id="node12" class="node">
<title>g_clap_provider_on_enter</title>
<polygon fill="none" stroke="#000000" points="1320.3669,-618.5995 1156.9172,-618.5995 1156.9172,-582.5995 1320.3669,-582.5995 1320.3669,-618.5995"/>
<text text-anchor="middle" x="1238.6421" y="-596.3995" font-family="Times,serif" font-size="14.00" fill="#000000">g_clap_provider_on_enter</text>
</g>
<!-- g_clap_provider_on_enter&#45;&gt;self_on_enter -->
<g id="edge50" class="edge">
<title>g_clap_provider_on_enter&#45;&gt;self_on_enter</title>
<path fill="none" stroke="#666666" d="M1320.4126,-612.711C1329.4839,-616.4575 1338.0757,-621.3139 1345.4043,-627.5995 1376.5455,-654.3088 1351.6017,-684.4044 1381.4043,-712.5995 1389.1993,-719.9741 1398.9361,-725.557 1408.9787,-729.7771"/>
<polygon fill="#666666" stroke="#666666" points="1408.0557,-733.1695 1418.6476,-733.4196 1410.5235,-726.6189 1408.0557,-733.1695"/>
</g>
<!-- g_clap_provider_on_typed -->
<g id="node13" class="node">
<title>g_clap_provider_on_typed</title>
<polygon fill="none" stroke="#000000" points="1548.1773,-566.5995 1381.4799,-566.5995 1381.4799,-530.5995 1548.1773,-530.5995 1548.1773,-566.5995"/>
<text text-anchor="middle" x="1464.8286" y="-544.3995" font-family="Times,serif" font-size="14.00" fill="#000000">g_clap_provider_on_typed</text>
</g>
<!-- g_clap_provider_on_typed&#45;&gt;self_on_typed -->
<g id="edge46" class="edge">
<title>g_clap_provider_on_typed&#45;&gt;self_on_typed</title>
<path fill="none" stroke="#666666" d="M1472.146,-566.6164C1487.4323,-601.9065 1526.2186,-680.2075 1584.2529,-720.5995 1592.5449,-726.3707 1602.2362,-730.6284 1612.0542,-733.7694"/>
<polygon fill="#666666" stroke="#666666" points="1611.2918,-737.1912 1621.8674,-736.5529 1613.202,-730.4568 1611.2918,-737.1912"/>
</g>
<!-- g_clap_display_set_lines -->
<g id="node53" class="node">
<title>g_clap_display_set_lines</title>
<polygon fill="none" stroke="#000000" points="1747.8845,-512.5995 1591.3802,-512.5995 1591.3802,-476.5995 1747.8845,-476.5995 1747.8845,-512.5995"/>
<text text-anchor="middle" x="1669.6323" y="-490.3995" font-family="Times,serif" font-size="14.00" fill="#000000">g_clap_display_set_lines</text>
</g>
<!-- g_clap_provider_on_typed&#45;&gt;g_clap_display_set_lines -->
<g id="edge47" class="edge">
<title>g_clap_provider_on_typed&#45;&gt;g_clap_display_set_lines</title>
<path fill="none" stroke="#666666" d="M1533.31,-530.5432C1551.9265,-525.6347 1572.2292,-520.2815 1591.3435,-515.2417"/>
<polygon fill="#666666" stroke="#666666" points="1592.4383,-518.5728 1601.2154,-512.6388 1590.6536,-511.8041 1592.4383,-518.5728"/>
</g>
<!-- g_clap_display_win_shrink -->
<g id="node54" class="node">
<title>g_clap_display_win_shrink</title>
<polygon fill="none" stroke="#000000" points="1754.8913,-458.5995 1584.3734,-458.5995 1584.3734,-422.5995 1754.8913,-422.5995 1754.8913,-458.5995"/>
<text text-anchor="middle" x="1669.6323" y="-436.3995" font-family="Times,serif" font-size="14.00" fill="#000000">g_clap_display_win_shrink</text>
</g>
<!-- g_clap_provider_on_typed&#45;&gt;g_clap_display_win_shrink -->
<g id="edge48" class="edge">
<title>g_clap_provider_on_typed&#45;&gt;g_clap_display_win_shrink</title>
<path fill="none" stroke="#666666" d="M1533.6685,-530.5916C1538.8262,-527.9795 1543.7618,-524.9988 1548.2529,-521.5995 1571.2521,-504.1915 1561.1954,-484.9301 1584.2529,-467.5995 1586.0704,-466.2335 1587.9589,-464.9353 1589.9044,-463.7019"/>
<polygon fill="#666666" stroke="#666666" points="1591.773,-466.6661 1598.7555,-458.6977 1588.3278,-460.5726 1591.773,-466.6661"/>
</g>
<!-- clap_spinner_set_idle -->
<g id="node55" class="node">
<title>clap_spinner_set_idle</title>
<polygon fill="none" stroke="#000000" points="1738.7085,-404.5995 1600.5561,-404.5995 1600.5561,-368.5995 1738.7085,-368.5995 1738.7085,-404.5995"/>
<text text-anchor="middle" x="1669.6323" y="-382.3995" font-family="Times,serif" font-size="14.00" fill="#000000">clap_spinner_set_idle</text>
</g>
<!-- g_clap_provider_on_typed&#45;&gt;clap_spinner_set_idle -->
<g id="edge49" class="edge">
<title>g_clap_provider_on_typed&#45;&gt;clap_spinner_set_idle</title>
<path fill="none" stroke="#666666" d="M1537.1124,-530.3906C1541.1383,-527.8355 1544.9014,-524.9218 1548.2529,-521.5995 1584.1861,-485.9792 1548.2002,-449.0989 1584.2529,-413.5995 1586.6346,-411.2544 1589.2185,-409.1127 1591.9537,-407.1569"/>
<polygon fill="#666666" stroke="#666666" points="1593.9012,-410.0677 1600.563,-401.8293 1590.2177,-404.1153 1593.9012,-410.0677"/>
</g>
<!-- g_clap_provider_apply_query -->
<g id="node14" class="node">
<title>g_clap_provider_apply_query</title>
<polygon fill="none" stroke="#000000" points="1330.8669,-564.5995 1146.4173,-564.5995 1146.4173,-528.5995 1330.8669,-528.5995 1330.8669,-564.5995"/>
<text text-anchor="middle" x="1238.6421" y="-542.3995" font-family="Times,serif" font-size="14.00" fill="#000000">g_clap_provider_apply_query</text>
</g>
<!-- g_clap_provider_apply_query&#45;&gt;g_clap_provider_on_typed -->
<g id="edge41" class="edge">
<title>g_clap_provider_apply_query&#45;&gt;g_clap_provider_on_typed</title>
<path fill="none" stroke="#666666" d="M1330.967,-547.4159C1344.2055,-547.5329 1357.8372,-547.6535 1371.1024,-547.7708"/>
<polygon fill="#666666" stroke="#666666" points="1371.1318,-551.2711 1381.1624,-547.8597 1371.1938,-544.2714 1371.1318,-551.2711"/>
</g>
<!-- feedkeys -->
<g id="node49" class="node">
<title>feedkeys</title>
<polygon fill="none" stroke="#000000" points="1497.581,-512.5995 1432.0762,-512.5995 1432.0762,-476.5995 1497.581,-476.5995 1497.581,-512.5995"/>
<text text-anchor="middle" x="1464.8286" y="-490.3995" font-family="Times,serif" font-size="14.00" fill="#000000">feedkeys</text>
</g>
<!-- g_clap_provider_apply_query&#45;&gt;feedkeys -->
<g id="edge42" class="edge">
<title>g_clap_provider_apply_query&#45;&gt;feedkeys</title>
<path fill="none" stroke="#666666" d="M1317.1164,-528.5584C1352.2705,-520.4765 1392.3635,-511.2592 1421.9005,-504.4687"/>
<polygon fill="#666666" stroke="#666666" points="1422.9209,-507.8254 1431.8824,-502.1738 1421.3525,-501.0034 1422.9209,-507.8254"/>
</g>
<!-- g_clap_input_set -->
<g id="node50" class="node">
<title>g_clap_input_set</title>
<polygon fill="none" stroke="#000000" points="1520.4776,-458.5995 1409.1796,-458.5995 1409.1796,-422.5995 1520.4776,-422.5995 1520.4776,-458.5995"/>
<text text-anchor="middle" x="1464.8286" y="-436.3995" font-family="Times,serif" font-size="14.00" fill="#000000">g_clap_input_set</text>
</g>
<!-- g_clap_provider_apply_query&#45;&gt;g_clap_input_set -->
<g id="edge43" class="edge">
<title>g_clap_provider_apply_query&#45;&gt;g_clap_input_set</title>
<path fill="none" stroke="#666666" d="M1329.8014,-528.52C1335.2786,-525.9336 1340.5345,-522.9777 1345.4043,-519.5995 1368.5005,-503.578 1358.8435,-484.3665 1381.4043,-467.5995 1386.9044,-463.5119 1393.0498,-460.0269 1399.4433,-457.0591"/>
<polygon fill="#666666" stroke="#666666" points="1401.0767,-460.1694 1408.942,-453.071 1398.3668,-453.7152 1401.0767,-460.1694"/>
</g>
<!-- g_clap_context_query -->
<g id="node51" class="node">
<title>g_clap_context_query</title>
<polygon fill="none" stroke="#000000" points="1535.2296,-404.5995 1394.4277,-404.5995 1394.4277,-368.5995 1535.2296,-368.5995 1535.2296,-404.5995"/>
<text text-anchor="middle" x="1464.8286" y="-382.3995" font-family="Times,serif" font-size="14.00" fill="#000000">g_clap_context_query</text>
</g>
<!-- g_clap_provider_apply_query&#45;&gt;g_clap_context_query -->
<g id="edge44" class="edge">
<title>g_clap_provider_apply_query&#45;&gt;g_clap_context_query</title>
<path fill="none" stroke="#666666" d="M1330.9956,-530.0088C1336.1844,-527.0629 1341.0498,-523.6201 1345.4043,-519.5995 1381.9593,-485.8476 1345.9707,-448.5268 1381.4043,-413.5995 1382.8679,-412.1568 1384.4091,-410.7912 1386.0157,-409.4986"/>
<polygon fill="#666666" stroke="#666666" points="1388.2902,-412.1817 1394.5368,-403.6242 1384.3171,-406.4185 1388.2902,-412.1817"/>
</g>
<!-- clap_indicator_set_none -->
<g id="node52" class="node">
<title>clap_indicator_set_none</title>
<polygon fill="none" stroke="#000000" points="1541.1705,-350.5995 1388.4867,-350.5995 1388.4867,-314.5995 1541.1705,-314.5995 1541.1705,-350.5995"/>
<text text-anchor="middle" x="1464.8286" y="-328.3995" font-family="Times,serif" font-size="14.00" fill="#000000">clap_indicator_set_none</text>
</g>
<!-- g_clap_provider_apply_query&#45;&gt;clap_indicator_set_none -->
<g id="edge45" class="edge">
<title>g_clap_provider_apply_query&#45;&gt;clap_indicator_set_none</title>
<path fill="none" stroke="#666666" d="M1331.0124,-530.8263C1336.2661,-527.6912 1341.1357,-523.9823 1345.4043,-519.5995 1396.26,-467.3837 1332.2803,-413.4477 1381.4043,-359.5995 1382.1738,-358.7561 1382.9698,-357.9388 1383.7901,-357.147"/>
<polygon fill="#666666" stroke="#666666" points="1386.2003,-359.6989 1391.7691,-350.6856 1381.795,-354.2589 1386.2003,-359.6989"/>
</g>
<!-- g_clap_provider_get_source -->
<g id="node15" class="node">
<title>g_clap_provider_get_source</title>
<polygon fill="none" stroke="#000000" points="191.5805,-672.5995 15.8062,-672.5995 15.8062,-636.5995 191.5805,-636.5995 191.5805,-672.5995"/>
<text text-anchor="middle" x="103.6934" y="-650.3995" font-family="Times,serif" font-size="14.00" fill="#000000">g_clap_provider_get_source</text>
</g>
<!-- source_async -->
<g id="node16" class="node">
<title>source_async</title>
<polygon fill="none" stroke="#000000" points="149.6084,-618.5995 57.7784,-618.5995 57.7784,-582.5995 149.6084,-582.5995 149.6084,-618.5995"/>
<text text-anchor="middle" x="103.6934" y="-596.3995" font-family="Times,serif" font-size="14.00" fill="#000000">source_async</text>
</g>
<!-- source_async&#45;&gt;self_source_async -->
<g id="edge2" class="edge">
<title>source_async&#45;&gt;self_source_async</title>
<path fill="none" stroke="#666666" d="M149.6202,-606.5974C164.4369,-610.5065 179.9649,-616.9575 191.3867,-627.5995 223.8145,-657.8135 193.9997,-691.449 227.3867,-720.5995 234.1468,-726.5018 242.2098,-730.8882 250.7148,-734.1366"/>
<polygon fill="#666666" stroke="#666666" points="249.8662,-737.5418 260.4592,-737.3407 252.0528,-730.8921 249.8662,-737.5418"/>
</g>
<!-- get_source -->
<g id="node17" class="node">
<title>get_source</title>
<polygon fill="none" stroke="#000000" points="2527.2347,-564.5995 2450.9498,-564.5995 2450.9498,-528.5995 2527.2347,-528.5995 2527.2347,-564.5995"/>
<text text-anchor="middle" x="2489.0923" y="-542.3995" font-family="Times,serif" font-size="14.00" fill="#000000">get_source</text>
</g>
<!-- apply_source -->
<g id="node18" class="node">
<title>apply_source</title>
<polygon fill="none" stroke="#000000" points="2653.8762,-618.5995 2563.5916,-618.5995 2563.5916,-582.5995 2653.8762,-582.5995 2653.8762,-618.5995"/>
<text text-anchor="middle" x="2608.7339" y="-596.3995" font-family="Times,serif" font-size="14.00" fill="#000000">apply_source</text>
</g>
<!-- get_source&#45;&gt;apply_source -->
<g id="edge3" class="edge">
<title>get_source&#45;&gt;apply_source</title>
<path fill="none" stroke="#666666" d="M2527.2766,-563.8339C2537.5378,-568.4653 2548.7806,-573.5397 2559.5484,-578.3997"/>
<polygon fill="#666666" stroke="#666666" points="2558.2976,-581.6752 2568.8521,-582.599 2561.1773,-575.2949 2558.2976,-581.6752"/>
</g>
<!-- apply_source&#45;&gt;self_source -->
<g id="edge4" class="edge">
<title>apply_source&#45;&gt;self_source</title>
<path fill="none" stroke="#666666" d="M2624.3301,-618.8728C2645.5107,-643.689 2683.495,-688.1933 2707.6687,-716.5163"/>
<polygon fill="#666666" stroke="#666666" points="2705.2401,-719.0623 2714.3943,-724.3964 2710.5645,-714.5179 2705.2401,-719.0623"/>
</g>
<!-- get_cache_or_raw_source -->
<g id="node19" class="node">
<title>get_cache_or_raw_source</title>
<polygon fill="none" stroke="#000000" points="2414.8443,-476.5995 2252.5532,-476.5995 2252.5532,-440.5995 2414.8443,-440.5995 2414.8443,-476.5995"/>
<text text-anchor="middle" x="2333.6987" y="-454.3995" font-family="Times,serif" font-size="14.00" fill="#000000">get_cache_or_raw_source</text>
</g>
<!-- get_cache_or_raw_source&#45;&gt;get_source -->
<g id="edge5" class="edge">
<title>get_cache_or_raw_source&#45;&gt;get_source</title>
<path fill="none" stroke="#666666" d="M2365.5199,-476.62C2389.428,-490.1592 2422.365,-508.8116 2448.2225,-523.4548"/>
<polygon fill="#666666" stroke="#666666" points="2446.6207,-526.5699 2457.047,-528.4522 2450.0702,-520.4788 2446.6207,-526.5699"/>
</g>
<!-- s_get_source -->
<g id="node20" class="node">
<title>s_get_source</title>
<polygon fill="none" stroke="#000000" points="2216.6709,-476.5995 2127.4912,-476.5995 2127.4912,-440.5995 2216.6709,-440.5995 2216.6709,-476.5995"/>
<text text-anchor="middle" x="2172.0811" y="-454.3995" font-family="Times,serif" font-size="14.00" fill="#000000">s_get_source</text>
</g>
<!-- s_get_source&#45;&gt;get_cache_or_raw_source -->
<g id="edge6" class="edge">
<title>s_get_source&#45;&gt;get_cache_or_raw_source</title>
<path fill="none" stroke="#666666" d="M2216.6716,-458.5995C2224.75,-458.5995 2233.4372,-458.5995 2242.2972,-458.5995"/>
<polygon fill="#666666" stroke="#666666" points="2242.3508,-462.0996 2252.3507,-458.5995 2242.3507,-455.0996 2242.3508,-462.0996"/>
</g>
<!-- on_typed_sync_impl&#45;&gt;s_get_source -->
<g id="edge7" class="edge">
<title>on_typed_sync_impl&#45;&gt;s_get_source</title>
<path fill="none" stroke="#666666" d="M2091.556,-458.5995C2100.2125,-458.5995 2108.9972,-458.5995 2117.4259,-458.5995"/>
<polygon fill="#666666" stroke="#666666" points="2117.4979,-462.0996 2127.4979,-458.5995 2117.4979,-455.0996 2117.4979,-462.0996"/>
</g>
<!-- inject_default_impl_is_ok -->
<g id="node22" class="node">
<title>inject_default_impl_is_ok</title>
<polygon fill="none" stroke="#000000" points="1061.2661,-191.5995 898.3208,-191.5995 898.3208,-155.5995 1061.2661,-155.5995 1061.2661,-191.5995"/>
<text text-anchor="middle" x="979.7935" y="-169.3995" font-family="Times,serif" font-size="14.00" fill="#000000">inject_default_impl_is_ok</text>
</g>
<!-- inject_default_impl_is_ok&#45;&gt;clap_impl_on_typed -->
<g id="edge9" class="edge">
<title>inject_default_impl_is_ok&#45;&gt;clap_impl_on_typed</title>
<path fill="none" stroke="#666666" d="M1061.3211,-165.9764C1074.0286,-161.7609 1086.1493,-155.5821 1095.8799,-146.5995 1134.6098,-110.8467 1089.3263,-64.7036 1131.8799,-33.5995 1208.4949,22.4013 1255.8148,-2.2997 1345.4043,-33.5995 1576.1449,-114.2133 1774.9393,-352.3124 1836.7279,-432.1573"/>
<polygon fill="#666666" stroke="#666666" points="1834.0662,-434.438 1842.9314,-440.2397 1839.6192,-430.1759 1834.0662,-434.438"/>
</g>
<!-- clap_register -->
<g id="node23" class="node">
<title>clap_register</title>
<polygon fill="none" stroke="#000000" points="806.4834,-232.5995 717.8887,-232.5995 717.8887,-196.5995 806.4834,-196.5995 806.4834,-232.5995"/>
<text text-anchor="middle" x="762.186" y="-210.3995" font-family="Times,serif" font-size="14.00" fill="#000000">clap_register</text>
</g>
<!-- clap_register&#45;&gt;inject_default_impl_is_ok -->
<g id="edge10" class="edge">
<title>clap_register&#45;&gt;inject_default_impl_is_ok</title>
<path fill="none" stroke="#666666" d="M806.4844,-206.2531C830.0507,-201.813 859.9357,-196.1822 888.2256,-190.8521"/>
<polygon fill="#666666" stroke="#666666" points="888.9736,-194.2728 898.1526,-188.9817 887.6775,-187.3938 888.9736,-194.2728"/>
</g>
<!-- try_register_is_ok -->
<g id="node24" class="node">
<title>try_register_is_ok</title>
<polygon fill="none" stroke="#000000" points="821.0552,-178.5995 703.3168,-178.5995 703.3168,-142.5995 821.0552,-142.5995 821.0552,-178.5995"/>
<text text-anchor="middle" x="762.186" y="-156.3995" font-family="Times,serif" font-size="14.00" fill="#000000">try_register_is_ok</text>
</g>
<!-- try_register_is_ok&#45;&gt;inject_default_impl_is_ok -->
<g id="edge11" class="edge">
<title>try_register_is_ok&#45;&gt;inject_default_impl_is_ok</title>
<path fill="none" stroke="#666666" d="M821.0737,-164.1175C841.5945,-165.3434 865.1396,-166.75 887.7024,-168.098"/>
<polygon fill="#666666" stroke="#666666" points="887.7947,-171.6096 897.9856,-168.7123 888.2122,-164.6221 887.7947,-171.6096"/>
</g>
<!-- validate_provider -->
<g id="node25" class="node">
<title>validate_provider</title>
<polygon fill="none" stroke="#000000" points="1037.032,-137.5995 922.5549,-137.5995 922.5549,-101.5995 1037.032,-101.5995 1037.032,-137.5995"/>
<text text-anchor="middle" x="979.7935" y="-115.3995" font-family="Times,serif" font-size="14.00" fill="#000000">validate_provider</text>
</g>
<!-- try_register_is_ok&#45;&gt;validate_provider -->
<g id="edge12" class="edge">
<title>try_register_is_ok&#45;&gt;validate_provider</title>
<path fill="none" stroke="#666666" d="M821.0737,-149.5043C849.2224,-144.2008 883.0617,-137.825 912.2505,-132.3255"/>
<polygon fill="#666666" stroke="#666666" points="913.1849,-135.7111 922.364,-130.42 911.8888,-128.8321 913.1849,-135.7111"/>
</g>
<!-- clap_for -->
<g id="node26" class="node">
<title>clap_for</title>
<polygon fill="none" stroke="#000000" points="585.4419,-232.5995 523.1567,-232.5995 523.1567,-196.5995 585.4419,-196.5995 585.4419,-232.5995"/>
<text text-anchor="middle" x="554.2993" y="-210.3995" font-family="Times,serif" font-size="14.00" fill="#000000">clap_for</text>
</g>
<!-- clap_for&#45;&gt;try_register_is_ok -->
<g id="edge13" class="edge">
<title>clap_for&#45;&gt;try_register_is_ok</title>
<path fill="none" stroke="#666666" d="M585.5065,-206.7769C606.717,-201.4358 635.4031,-194.1648 660.665,-187.5995 671.2063,-184.86 682.354,-181.9293 693.2517,-179.0457"/>
<polygon fill="#666666" stroke="#666666" points="694.3957,-182.3634 703.1649,-176.4176 692.6019,-175.5971 694.3957,-182.3634"/>
</g>
<!-- clap_selection_init -->
<g id="node32" class="node">
<title>clap_selection_init</title>
<polygon fill="none" stroke="#000000" points="822.9314,-477.5995 701.4407,-477.5995 701.4407,-441.5995 822.9314,-441.5995 822.9314,-477.5995"/>
<text text-anchor="middle" x="762.186" y="-455.3995" font-family="Times,serif" font-size="14.00" fill="#000000">clap_selection_init</text>
</g>
<!-- clap_for&#45;&gt;clap_selection_init -->
<g id="edge19" class="edge">
<title>clap_for&#45;&gt;clap_selection_init</title>
<path fill="none" stroke="#666666" d="M569.5857,-232.615C606.003,-275.5337 697.994,-383.9476 740.293,-433.798"/>
<polygon fill="#666666" stroke="#666666" points="737.7385,-436.1972 746.8772,-441.5577 743.076,-431.6682 737.7385,-436.1972"/>
</g>
<!-- g_clap_open_win -->
<g id="node33" class="node">
<title>g_clap_open_win</title>
<polygon fill="none" stroke="#000000" points="819.7182,-286.5995 704.6538,-286.5995 704.6538,-250.5995 819.7182,-250.5995 819.7182,-286.5995"/>
<text text-anchor="middle" x="762.186" y="-264.3995" font-family="Times,serif" font-size="14.00" fill="#000000">g_clap_open_win</text>
</g>
<!-- clap_for&#45;&gt;g_clap_open_win -->
<g id="edge20" class="edge">
<title>clap_for&#45;&gt;g_clap_open_win</title>
<path fill="none" stroke="#666666" d="M585.8728,-222.801C614.5283,-230.2444 657.7515,-241.472 694.2292,-250.9473"/>
<polygon fill="#666666" stroke="#666666" points="693.7624,-254.4421 704.3212,-253.5687 695.5223,-247.6669 693.7624,-254.4421"/>
</g>
<!-- clap_state_clear_pre -->
<g id="node34" class="node">
<title>clap_state_clear_pre</title>
<polygon fill="none" stroke="#000000" points="827.728,-124.5995 696.644,-124.5995 696.644,-88.5995 827.728,-88.5995 827.728,-124.5995"/>
<text text-anchor="middle" x="762.186" y="-102.3995" font-family="Times,serif" font-size="14.00" fill="#000000">clap_state_clear_pre</text>
</g>
<!-- clap_for&#45;&gt;clap_state_clear_pre -->
<g id="edge21" class="edge">
<title>clap_for&#45;&gt;clap_state_clear_pre</title>
<path fill="none" stroke="#666666" d="M585.6525,-212.6005C608.2683,-209.8221 638.5791,-203.2237 660.665,-187.5995 684.2129,-170.9412 674.3609,-151.8896 696.665,-133.5995 698.1991,-132.3416 699.7998,-131.1349 701.4528,-129.9782"/>
<polygon fill="#666666" stroke="#666666" points="703.4465,-132.8599 710.0856,-124.6033 699.7466,-126.9176 703.4465,-132.8599"/>
</g>
<!-- Clap -->
<g id="node27" class="node">
<title>Clap</title>
<polygon fill="none" stroke="#000000" points="130.6934,-151.5995 76.6934,-151.5995 76.6934,-115.5995 130.6934,-115.5995 130.6934,-151.5995"/>
<text text-anchor="middle" x="103.6934" y="-129.3995" font-family="Times,serif" font-size="14.00" fill="#000000">Clap</text>
</g>
<!-- clap_main -->
<g id="node28" class="node">
<title>clap_main</title>
<polygon fill="none" stroke="#000000" points="227.3867,-111.5995 227.3867,-155.5995 411.9336,-155.5995 411.9336,-111.5995 227.3867,-111.5995"/>
<text text-anchor="middle" x="319.6602" y="-140.3995" font-family="Times,serif" font-size="14.00" fill="#000000">clap_main</text>
<polyline fill="none" stroke="#000000" points="227.3867,-133.5995 411.9336,-133.5995 "/>
<text text-anchor="middle" x="319.6602" y="-118.3995" font-family="Times,serif" font-size="14.00" fill="#000000">call clap#(&lt;bang&gt;0, &lt;f&#45;args&gt;)</text>
</g>
<!-- Clap&#45;&gt;clap_main -->
<g id="edge14" class="edge">
<title>Clap&#45;&gt;clap_main</title>
<path fill="none" stroke="#666666" d="M131.0457,-133.5995C152.9634,-133.5995 185.1776,-133.5995 216.804,-133.5995"/>
<polygon fill="#666666" stroke="#666666" points="217.0379,-137.0996 227.0379,-133.5995 217.0379,-130.0996 217.0379,-137.0996"/>
</g>
<!-- clap_main&#45;&gt;clap_for -->
<g id="edge15" class="edge">
<title>clap_main&#45;&gt;clap_for</title>
<path fill="none" stroke="#666666" d="M367.4292,-155.7219C391.2867,-166.2509 420.7864,-178.4969 447.9336,-187.5995 469.0072,-194.6656 492.9636,-200.8988 512.7986,-205.5907"/>
<polygon fill="#666666" stroke="#666666" points="512.2262,-209.0507 522.7583,-207.9 513.8074,-202.2316 512.2262,-209.0507"/>
</g>
<!-- clap_installer_install -->
<g id="node29" class="node">
<title>clap_installer_install</title>
<polygon fill="none" stroke="#000000" points="620.4346,-178.5995 488.164,-178.5995 488.164,-142.5995 620.4346,-142.5995 620.4346,-178.5995"/>
<text text-anchor="middle" x="554.2993" y="-156.3995" font-family="Times,serif" font-size="14.00" fill="#000000">clap_installer_install</text>
</g>
<!-- clap_main&#45;&gt;clap_installer_install -->
<g id="edge16" class="edge">
<title>clap_main&#45;&gt;clap_installer_install</title>
<path fill="none" stroke="#666666" d="M412.0589,-144.2319C433.8805,-146.7429 456.9079,-149.3927 477.9296,-151.8116"/>
<polygon fill="#666666" stroke="#666666" points="477.7395,-155.3128 488.0741,-152.979 478.5398,-148.3587 477.7395,-155.3128"/>
</g>
<!-- clap_debugging_info -->
<g id="node30" class="node">
<title>clap_debugging_info</title>
<polygon fill="none" stroke="#000000" points="621.772,-124.5995 486.8267,-124.5995 486.8267,-88.5995 621.772,-88.5995 621.772,-124.5995"/>
<text text-anchor="middle" x="554.2993" y="-102.3995" font-family="Times,serif" font-size="14.00" fill="#000000">clap_debugging_info</text>
</g>
<!-- clap_main&#45;&gt;clap_debugging_info -->
<g id="edge17" class="edge">
<title>clap_main&#45;&gt;clap_debugging_info</title>
<path fill="none" stroke="#666666" d="M412.0589,-122.9672C433.4396,-120.5069 455.978,-117.9134 476.6531,-115.5343"/>
<polygon fill="#666666" stroke="#666666" points="477.1055,-119.0054 486.6398,-114.3851 476.3052,-112.0513 477.1055,-119.0054"/>
</g>
<!-- clap_debugging_info_to_clipboard -->
<g id="node31" class="node">
<title>clap_debugging_info_to_clipboard</title>
<polygon fill="none" stroke="#000000" points="660.5309,-70.5995 448.0677,-70.5995 448.0677,-34.5995 660.5309,-34.5995 660.5309,-70.5995"/>
<text text-anchor="middle" x="554.2993" y="-48.3995" font-family="Times,serif" font-size="14.00" fill="#000000">clap_debugging_info_to_clipboard</text>
</g>
<!-- clap_main&#45;&gt;clap_debugging_info_to_clipboard -->
<g id="edge18" class="edge">
<title>clap_main&#45;&gt;clap_debugging_info_to_clipboard</title>
<path fill="none" stroke="#666666" d="M367.4292,-111.4771C391.2867,-100.9482 420.7864,-88.7021 447.9336,-79.5995 454.3052,-77.4631 460.9404,-75.4028 467.6455,-73.4382"/>
<polygon fill="#666666" stroke="#666666" points="468.8389,-76.7375 477.4967,-70.6307 466.9203,-70.0056 468.8389,-76.7375"/>
</g>
<!-- clap_selection_init&#45;&gt;g_clap_provider_support_multi_select -->
<g id="edge22" class="edge">
<title>clap_selection_init&#45;&gt;g_clap_provider_support_multi_select</title>
<path fill="none" stroke="#666666" d="M772.7927,-477.6495C788.9871,-503.5407 822.3941,-550.8245 863.707,-575.5995 866.5463,-577.3022 869.4841,-578.8976 872.4971,-580.3923"/>
<polygon fill="#666666" stroke="#666666" points="871.1851,-583.6403 881.7381,-584.5814 874.0753,-577.2648 871.1851,-583.6403"/>
</g>
<!-- clap_selection_init&#45;&gt;g_clap_provider_id -->
<g id="edge23" class="edge">
<title>clap_selection_init&#45;&gt;g_clap_provider_id</title>
<path fill="none" stroke="#666666" d="M786.8527,-477.7789C806.7047,-491.6208 835.8007,-510.181 863.707,-521.5995 877.322,-527.1704 892.3278,-531.7294 906.902,-535.409"/>
<polygon fill="#666666" stroke="#666666" points="906.3589,-538.8782 916.9005,-537.8174 907.9982,-532.0728 906.3589,-538.8782"/>
</g>
<!-- s_support_multi_select -->
<g id="node35" class="node">
<title>s_support_multi_select</title>
<polygon fill="#95e1d3" stroke="#000000" points="906.8555,-467.5995 906.8555,-511.5995 1052.7314,-511.5995 1052.7314,-467.5995 906.8555,-467.5995"/>
<text text-anchor="middle" x="979.7935" y="-496.3995" font-family="Times,serif" font-size="14.00" fill="#000000">s_support_multi_select</text>
<polyline fill="none" stroke="#000000" points="906.8555,-489.5995 1052.7314,-489.5995 "/>
<text text-anchor="middle" x="979.7935" y="-474.3995" font-family="Times,serif" font-size="14.00" fill="#000000"> </text>
</g>
<!-- clap_selection_init&#45;&gt;s_support_multi_select -->
<g id="edge24" class="edge">
<title>clap_selection_init&#45;&gt;s_support_multi_select</title>
<path fill="none" stroke="#666666" d="M823.0912,-467.9961C845.856,-471.1345 872.1159,-474.7548 896.5524,-478.1237"/>
<polygon fill="#666666" stroke="#666666" points="896.1507,-481.6013 906.535,-479.4999 897.1067,-474.6669 896.1507,-481.6013"/>
</g>
<!-- s_provider_alias -->
<g id="node36" class="node">
<title>s_provider_alias</title>
<polygon fill="none" stroke="#000000" points="1033.8257,-448.5995 925.7612,-448.5995 925.7612,-412.5995 1033.8257,-412.5995 1033.8257,-448.5995"/>
<text text-anchor="middle" x="979.7935" y="-426.3995" font-family="Times,serif" font-size="14.00" fill="#000000">s_provider_alias</text>
</g>
<!-- clap_selection_init&#45;&gt;s_provider_alias -->
<g id="edge25" class="edge">
<title>clap_selection_init&#45;&gt;s_provider_alias</title>
<path fill="none" stroke="#666666" d="M823.0912,-451.4829C851.8843,-447.6457 886.2689,-443.0633 915.4831,-439.17"/>
<polygon fill="#666666" stroke="#666666" points="916.1333,-442.6144 925.5833,-437.824 915.2086,-435.6757 916.1333,-442.6144"/>
</g>
<!-- g_clap_display_cache -->
<g id="node37" class="node">
<title>g_clap_display_cache</title>
<polygon fill="none" stroke="#000000" points="1049.4082,-394.5995 910.1787,-394.5995 910.1787,-358.5995 1049.4082,-358.5995 1049.4082,-394.5995"/>
<text text-anchor="middle" x="979.7935" y="-372.3995" font-family="Times,serif" font-size="14.00" fill="#000000">g_clap_display_cache</text>
</g>
<!-- clap_selection_init&#45;&gt;g_clap_display_cache -->
<g id="edge26" class="edge">
<title>clap_selection_init&#45;&gt;g_clap_display_cache</title>
<path fill="none" stroke="#666666" d="M790.0499,-441.4796C809.8992,-429.2691 837.5842,-413.6206 863.707,-403.5995 875.2925,-399.1552 887.8202,-395.3115 900.2131,-392.0308"/>
<polygon fill="#666666" stroke="#666666" points="901.2714,-395.3732 910.1024,-389.5198 899.5486,-388.5885 901.2714,-395.3732"/>
</g>
<!-- clap_floating_win_open -->
<g id="node38" class="node">
<title>clap_floating_win_open</title>
<polygon fill="none" stroke="#000000" points="904.1382,-290.7996 904.1382,-340.3995 1055.4487,-340.3995 1055.4487,-290.7996 904.1382,-290.7996"/>
<text text-anchor="middle" x="979.7935" y="-325.1995" font-family="Times,serif" font-size="14.00" fill="#000000">clap_floating_win_open</text>
<polyline fill="none" stroke="#000000" points="904.1382,-318.3995 1055.4487,-318.3995 "/>
<text text-anchor="middle" x="979.7935" y="-303.1995" font-family="Times,serif" font-size="14.00" fill="#000000">打开浮动窗口</text>
</g>
<!-- g_clap_open_win&#45;&gt;clap_floating_win_open -->
<g id="edge27" class="edge">
<title>g_clap_open_win&#45;&gt;clap_floating_win_open</title>
<path fill="none" stroke="#666666" d="M819.9295,-281.0713C842.7168,-285.993 869.3683,-291.7493 894.3054,-297.1354"/>
<polygon fill="#666666" stroke="#666666" points="893.6188,-300.5677 904.1323,-299.2578 895.0967,-293.7255 893.6188,-300.5677"/>
</g>
<!-- clap_popup_open -->
<g id="node39" class="node">
<title>clap_popup_open</title>
<polygon fill="none" stroke="#000000" points="1037.3257,-272.5995 922.2613,-272.5995 922.2613,-236.5995 1037.3257,-236.5995 1037.3257,-272.5995"/>
<text text-anchor="middle" x="979.7935" y="-250.3995" font-family="Times,serif" font-size="14.00" fill="#000000">clap_popup_open</text>
</g>
<!-- g_clap_open_win&#45;&gt;clap_popup_open -->
<g id="edge28" class="edge">
<title>g_clap_open_win&#45;&gt;clap_popup_open</title>
<path fill="none" stroke="#666666" d="M819.9295,-264.8845C848.2004,-263.0657 882.4192,-260.8642 911.9325,-258.9654"/>
<polygon fill="#666666" stroke="#666666" points="912.4034,-262.4425 922.158,-258.3076 911.9539,-255.4569 912.4034,-262.4425"/>
</g>
<!-- clap_floating_win_open&#45;&gt;g_clap_provider_try_set_syntax -->
<g id="edge29" class="edge">
<title>clap_floating_win_open&#45;&gt;g_clap_provider_try_set_syntax</title>
<path fill="none" stroke="#666666" d="M1055.5791,-324.2949C1070.8739,-329.4389 1085.4405,-337.3882 1095.8799,-349.5995 1176.8375,-444.2982 1049.1745,-534.4234 1131.8799,-627.5995 1132.5184,-628.3189 1133.1731,-629.0205 1133.8431,-629.7046"/>
<polygon fill="#666666" stroke="#666666" points="1131.7127,-632.4896 1141.5647,-636.387 1136.2935,-627.1965 1131.7127,-632.4896"/>
</g>
<!-- clap_floating_win_open&#45;&gt;g_clap_provider_on_enter -->
<g id="edge30" class="edge">
<title>clap_floating_win_open&#45;&gt;g_clap_provider_on_enter</title>
<path fill="none" stroke="#666666" d="M1055.6057,-324.6333C1070.8051,-329.7679 1085.3245,-337.628 1095.8799,-349.5995 1162.5657,-425.2322 1063.7984,-499.2206 1131.8799,-573.5995 1136.52,-578.6688 1141.9619,-582.8468 1147.8889,-586.284"/>
<polygon fill="#666666" stroke="#666666" points="1146.3766,-589.441 1156.883,-590.8071 1149.5216,-583.1873 1146.3766,-589.441"/>
</g>
<!-- clap_floating_win_open&#45;&gt;g_clap_provider_apply_query -->
<g id="edge31" class="edge">
<title>clap_floating_win_open&#45;&gt;g_clap_provider_apply_query</title>
<path fill="none" stroke="#666666" d="M1055.4729,-325.1261C1070.5869,-330.2413 1085.1038,-337.969 1095.8799,-349.5995 1148.3697,-406.2516 1078.3451,-463.9338 1131.8799,-519.5995 1133.7352,-521.5287 1135.707,-523.3277 1137.7768,-525.0049"/>
<polygon fill="#666666" stroke="#666666" points="1136.0043,-528.0359 1146.208,-530.8881 1140.01,-522.2953 1136.0043,-528.0359"/>
</g>
<!-- g_clap_floating_win_display_open -->
<g id="node40" class="node">
<title>g_clap_floating_win_display_open</title>
<polygon fill="none" stroke="#000000" points="1344.8942,-510.5995 1132.39,-510.5995 1132.39,-474.5995 1344.8942,-474.5995 1344.8942,-510.5995"/>
<text text-anchor="middle" x="1238.6421" y="-488.3995" font-family="Times,serif" font-size="14.00" fill="#000000">g_clap_floating_win_display_open</text>
</g>
<!-- clap_floating_win_open&#45;&gt;g_clap_floating_win_display_open -->
<g id="edge32" class="edge">
<title>clap_floating_win_open&#45;&gt;g_clap_floating_win_display_open</title>
<path fill="none" stroke="#666666" d="M1055.5931,-326.1908C1070.4309,-331.2595 1084.8036,-338.6991 1095.8799,-349.5995 1134.3546,-387.4634 1092.7074,-428.458 1131.8799,-465.5995 1132.8554,-466.5245 1133.8578,-467.4189 1134.885,-468.284"/>
<polygon fill="#666666" stroke="#666666" points="1133.0661,-471.2893 1143.2078,-474.3547 1137.1913,-465.634 1133.0661,-471.2893"/>
</g>
<!-- g_clap_floating_win_input_open -->
<g id="node41" class="node">
<title>g_clap_floating_win_input_open</title>
<polygon fill="none" stroke="#000000" points="1339.232,-456.5995 1138.0522,-456.5995 1138.0522,-420.5995 1339.232,-420.5995 1339.232,-456.5995"/>
<text text-anchor="middle" x="1238.6421" y="-434.3995" font-family="Times,serif" font-size="14.00" fill="#000000">g_clap_floating_win_input_open</text>
</g>
<!-- clap_floating_win_open&#45;&gt;g_clap_floating_win_input_open -->
<g id="edge33" class="edge">
<title>clap_floating_win_open&#45;&gt;g_clap_floating_win_input_open</title>
<path fill="none" stroke="#666666" d="M1055.66,-328.7931C1069.99,-333.6895 1084.145,-340.401 1095.8799,-349.5995 1120.9576,-369.257 1106.4408,-392.412 1131.8799,-411.5995 1133.7091,-412.9793 1135.6011,-414.289 1137.5459,-415.5322"/>
<polygon fill="#666666" stroke="#666666" points="1135.9598,-418.6567 1146.3807,-420.5683 1139.4264,-412.5754 1135.9598,-418.6567"/>
</g>
<!-- g_clap_floating_win_spinner_open -->
<g id="node42" class="node">
<title>g_clap_floating_win_spinner_open</title>
<polygon fill="none" stroke="#000000" points="1345.167,-402.5995 1132.1171,-402.5995 1132.1171,-366.5995 1345.167,-366.5995 1345.167,-402.5995"/>
<text text-anchor="middle" x="1238.6421" y="-380.3995" font-family="Times,serif" font-size="14.00" fill="#000000">g_clap_floating_win_spinner_open</text>
</g>
<!-- clap_floating_win_open&#45;&gt;g_clap_floating_win_spinner_open -->
<g id="edge34" class="edge">
<title>clap_floating_win_open&#45;&gt;g_clap_floating_win_spinner_open</title>
<path fill="none" stroke="#666666" d="M1055.5176,-336.8602C1079.8698,-343.6039 1106.9872,-351.0155 1131.8799,-357.5995 1139.9171,-359.7253 1148.3043,-361.908 1156.6907,-364.0668"/>
<polygon fill="#666666" stroke="#666666" points="1155.9582,-367.4922 1166.5142,-366.5854 1157.6967,-360.7115 1155.9582,-367.4922"/>
</g>
<!-- s_open_indicator_win -->
<g id="node43" class="node">
<title>s_open_indicator_win</title>
<polygon fill="none" stroke="#000000" points="1309.0636,-348.5995 1168.2206,-348.5995 1168.2206,-312.5995 1309.0636,-312.5995 1309.0636,-348.5995"/>
<text text-anchor="middle" x="1238.6421" y="-326.3995" font-family="Times,serif" font-size="14.00" fill="#000000">s_open_indicator_win</text>
</g>
<!-- clap_floating_win_open&#45;&gt;s_open_indicator_win -->
<g id="edge35" class="edge">
<title>clap_floating_win_open&#45;&gt;s_open_indicator_win</title>
<path fill="none" stroke="#666666" d="M1055.7076,-319.9987C1087.7446,-321.8552 1125.0908,-324.0194 1157.6559,-325.9065"/>
<polygon fill="#666666" stroke="#666666" points="1157.8624,-329.4242 1168.0482,-326.5087 1158.2674,-322.4359 1157.8624,-329.4242"/>
</g>
<!-- s_open_win_border_right -->
<g id="node44" class="node">
<title>s_open_win_border_right</title>
<polygon fill="none" stroke="#000000" points="1318.7841,-294.5995 1158.5001,-294.5995 1158.5001,-258.5995 1318.7841,-258.5995 1318.7841,-294.5995"/>
<text text-anchor="middle" x="1238.6421" y="-272.3995" font-family="Times,serif" font-size="14.00" fill="#000000">s_open_win_border_right</text>
</g>
<!-- clap_floating_win_open&#45;&gt;s_open_win_border_right -->
<g id="edge36" class="edge">
<title>clap_floating_win_open&#45;&gt;s_open_win_border_right</title>
<path fill="none" stroke="#666666" d="M1055.7076,-304.1618C1084.6573,-299.8 1117.9423,-294.785 1148.1173,-290.2387"/>
<polygon fill="#666666" stroke="#666666" points="1148.8536,-293.6673 1158.2205,-288.7164 1147.8106,-286.7454 1148.8536,-293.6673"/>
</g>
<!-- clap_init -->
<g id="node45" class="node">
<title>clap_init</title>
<polygon fill="none" stroke="#000000" points="1271.1284,-240.5995 1206.1558,-240.5995 1206.1558,-204.5995 1271.1284,-204.5995 1271.1284,-240.5995"/>
<text text-anchor="middle" x="1238.6421" y="-218.3995" font-family="Times,serif" font-size="14.00" fill="#000000">clap_init</text>
</g>
<!-- clap_floating_win_open&#45;&gt;clap_init -->
<g id="edge37" class="edge">
<title>clap_floating_win_open&#45;&gt;clap_init</title>
<path fill="none" stroke="#666666" d="M1055.7539,-298.6151C1069.5475,-294.0772 1083.4793,-288.4673 1095.8799,-281.5995 1114.6069,-271.2279 1112.9631,-259.6209 1131.8799,-249.5995 1151.68,-239.1102 1175.727,-232.5662 1195.9824,-228.5535"/>
<polygon fill="#666666" stroke="#666666" points="1196.6848,-231.9831 1205.8854,-226.7296 1195.4169,-225.0989 1196.6848,-231.9831"/>
</g>
<!-- doautocmd -->
<g id="node46" class="node">
<title>doautocmd</title>
<polygon fill="none" stroke="#000000" points="1277.8494,-186.5995 1199.4348,-186.5995 1199.4348,-150.5995 1277.8494,-150.5995 1277.8494,-186.5995"/>
<text text-anchor="middle" x="1238.6421" y="-164.3995" font-family="Times,serif" font-size="14.00" fill="#000000">doautocmd</text>
</g>
<!-- clap_floating_win_open&#45;&gt;doautocmd -->
<g id="edge38" class="edge">
<title>clap_floating_win_open&#45;&gt;doautocmd</title>
<path fill="none" stroke="#666666" d="M1055.728,-303.8797C1070.2991,-298.8763 1084.5306,-291.7487 1095.8799,-281.5995 1126.767,-253.9784 1100.4843,-222.6412 1131.8799,-195.5995 1147.7313,-181.9464 1169.5379,-175.032 1189.3125,-171.5901"/>
<polygon fill="#666666" stroke="#666666" points="1190.0479,-175.0194 1199.4258,-170.0894 1189.0204,-168.0952 1190.0479,-175.0194"/>
</g>
<!-- ClapOnEnter -->
<g id="node47" class="node">
<title>ClapOnEnter</title>
<polygon fill="none" stroke="#000000" points="1283.5113,-132.5995 1193.7729,-132.5995 1193.7729,-96.5995 1283.5113,-96.5995 1283.5113,-132.5995"/>
<text text-anchor="middle" x="1238.6421" y="-110.3995" font-family="Times,serif" font-size="14.00" fill="#000000">ClapOnEnter</text>
</g>
<!-- clap_floating_win_open&#45;&gt;ClapOnEnter -->
<g id="edge39" class="edge">
<title>clap_floating_win_open&#45;&gt;ClapOnEnter</title>
<path fill="none" stroke="#666666" d="M1055.7047,-305.5195C1070.6243,-300.4244 1085.0022,-292.8448 1095.8799,-281.5995 1140.548,-235.422 1086.3604,-186.938 1131.8799,-141.5995 1145.6011,-127.9329 1165.1791,-120.8543 1183.8307,-117.2899"/>
<polygon fill="#666666" stroke="#666666" points="1184.4419,-120.7367 1193.7579,-115.6908 1183.3286,-113.8257 1184.4419,-120.7367"/>
</g>
<!-- startinsert -->
<g id="node48" class="node">
<title>startinsert</title>
<polygon fill="none" stroke="#000000" points="1274.3494,-78.5995 1202.9348,-78.5995 1202.9348,-42.5995 1274.3494,-42.5995 1274.3494,-78.5995"/>
<text text-anchor="middle" x="1238.6421" y="-56.3995" font-family="Times,serif" font-size="14.00" fill="#000000">startinsert</text>
</g>
<!-- clap_floating_win_open&#45;&gt;startinsert -->
<g id="edge40" class="edge">
<title>clap_floating_win_open&#45;&gt;startinsert</title>
<path fill="none" stroke="#666666" d="M1055.6927,-306.2741C1070.7947,-301.1479 1085.2512,-293.365 1095.8799,-281.5995 1154.6656,-216.5265 1071.8936,-151.5676 1131.8799,-87.5995 1147.3895,-71.0604 1171.4411,-64.0507 1192.792,-61.2905"/>
<polygon fill="#666666" stroke="#666666" points="1193.4117,-64.7457 1203.0072,-60.2538 1192.7048,-57.7815 1193.4117,-64.7457"/>
</g>
</g>
</svg>
