<?xml version="1.0" encoding="UTF-8" standalone="no"?>
<!DOCTYPE svg PUBLIC "-//W3C//DTD SVG 1.1//EN"
 "http://www.w3.org/Graphics/SVG/1.1/DTD/svg11.dtd">
<!-- Generated by graphviz version 2.50.0 (20211204.2007)
 -->
<!-- Title: tensor Pages: 1 -->
<svg width="833pt" height="1236pt"
 viewBox="0.00 0.00 833.00 1235.50" xmlns="http://www.w3.org/2000/svg" xmlns:xlink="http://www.w3.org/1999/xlink">
<g id="graph0" class="graph" transform="scale(1 1) rotate(0) translate(4 1231.5)">
<title>tensor</title>
<polygon fill="white" stroke="transparent" points="-4,4 -4,-1231.5 829,-1231.5 829,4 -4,4"/>
<!-- tensor -->
<g id="node1" class="node">
<title>tensor</title>
<polygon fill="none" stroke="black" points="54,-321.5 0,-321.5 0,-285.5 54,-285.5 54,-321.5"/>
<text text-anchor="middle" x="27" y="-299.8" font-family="Times,serif" font-size="14.00">tensor</text>
</g>
<!-- attributes -->
<g id="node2" class="node">
<title>attributes</title>
<path fill="none" stroke="black" d="M193,-730.5C193,-730.5 290,-730.5 290,-730.5 296,-730.5 302,-736.5 302,-742.5 302,-742.5 302,-764.5 302,-764.5 302,-770.5 296,-776.5 290,-776.5 290,-776.5 193,-776.5 193,-776.5 187,-776.5 181,-770.5 181,-764.5 181,-764.5 181,-742.5 181,-742.5 181,-736.5 187,-730.5 193,-730.5"/>
<text text-anchor="start" x="189" y="-761.3" font-family="Times,serif" font-size="14.00">attributes</text>
<polyline fill="none" stroke="black" points="181,-753.5 302,-753.5 "/>
<text text-anchor="start" x="189" y="-738.3" font-family="Times,serif" font-size="14.00">tensor的关键属性</text>
</g>
<!-- tensor&#45;&gt;attributes -->
<g id="edge1" class="edge">
<title>tensor&#45;&gt;attributes</title>
<path fill="none" stroke="#666666" d="M36.59,-321.7C68.93,-390.16 183.53,-632.86 225.21,-721.11"/>
<polygon fill="#666666" stroke="#666666" points="222.14,-722.82 229.58,-730.37 228.47,-719.83 222.14,-722.82"/>
</g>
<!-- create_tensor_method -->
<g id="node3" class="node">
<title>create_tensor_method</title>
<path fill="none" stroke="black" d="M193,-375.5C193,-375.5 290,-375.5 290,-375.5 296,-375.5 302,-381.5 302,-387.5 302,-387.5 302,-399.5 302,-399.5 302,-405.5 296,-411.5 290,-411.5 290,-411.5 193,-411.5 193,-411.5 187,-411.5 181,-405.5 181,-399.5 181,-399.5 181,-387.5 181,-387.5 181,-381.5 187,-375.5 193,-375.5"/>
<text text-anchor="start" x="189" y="-389.8" font-family="Times,serif" font-size="14.00">创建tensor的方法</text>
</g>
<!-- tensor&#45;&gt;create_tensor_method -->
<g id="edge2" class="edge">
<title>tensor&#45;&gt;create_tensor_method</title>
<path fill="none" stroke="#666666" d="M41.15,-321.69C52.46,-335.92 70.07,-355 90,-365.5 114.61,-378.46 144.24,-385.5 170.68,-389.3"/>
<polygon fill="#666666" stroke="#666666" points="170.27,-392.77 180.64,-390.6 171.18,-385.83 170.27,-392.77"/>
</g>
<!-- linear_algebra_operations -->
<g id="node4" class="node">
<title>linear_algebra_operations</title>
<path fill="none" stroke="black" d="M102,-250.5C102,-250.5 381,-250.5 381,-250.5 387,-250.5 393,-256.5 393,-262.5 393,-262.5 393,-344.5 393,-344.5 393,-350.5 387,-356.5 381,-356.5 381,-356.5 102,-356.5 102,-356.5 96,-356.5 90,-350.5 90,-344.5 90,-344.5 90,-262.5 90,-262.5 90,-256.5 96,-250.5 102,-250.5"/>
<text text-anchor="start" x="98" y="-341.3" font-family="Times,serif" font-size="14.00">linear_algebra_operations</text>
<polyline fill="none" stroke="black" points="90,-333.5 393,-333.5 "/>
<text text-anchor="start" x="98" y="-318.3" font-family="Times,serif" font-size="14.00">matmul,chain_matmul,mm,addmm, bmm,addbmm</text>
<text text-anchor="start" x="98" y="-303.3" font-family="Times,serif" font-size="14.00"> mv,addmv,matrix_power</text>
<text text-anchor="start" x="98" y="-288.3" font-family="Times,serif" font-size="14.00"> eig,inverse,det, logdet,</text>
<text text-anchor="start" x="98" y="-273.3" font-family="Times,serif" font-size="14.00"> dot,addr,solve,pca_lowrank,</text>
<text text-anchor="start" x="98" y="-258.3" font-family="Times,serif" font-size="14.00"> cholesky, cholesky_inverse, cholesky_solve</text>
</g>
<!-- tensor&#45;&gt;linear_algebra_operations -->
<g id="edge3" class="edge">
<title>tensor&#45;&gt;linear_algebra_operations</title>
<path fill="none" stroke="#666666" d="M54.06,-303.5C61.46,-303.5 70.1,-303.5 79.54,-303.5"/>
<polygon fill="#666666" stroke="#666666" points="79.64,-307 89.64,-303.5 79.64,-300 79.64,-307"/>
</g>
<!-- comparison_func -->
<g id="node5" class="node">
<title>comparison_func</title>
<path fill="none" stroke="black" d="M173,-125.5C173,-125.5 310,-125.5 310,-125.5 316,-125.5 322,-131.5 322,-137.5 322,-137.5 322,-219.5 322,-219.5 322,-225.5 316,-231.5 310,-231.5 310,-231.5 173,-231.5 173,-231.5 167,-231.5 161,-225.5 161,-219.5 161,-219.5 161,-137.5 161,-137.5 161,-131.5 167,-125.5 173,-125.5"/>
<text text-anchor="start" x="169" y="-216.3" font-family="Times,serif" font-size="14.00">comparison_func</text>
<polyline fill="none" stroke="black" points="161,-208.5 322,-208.5 "/>
<text text-anchor="start" x="169" y="-193.3" font-family="Times,serif" font-size="14.00">eq,ge,gt,le,lt,ne</text>
<text text-anchor="start" x="169" y="-178.3" font-family="Times,serif" font-size="14.00"> isclose, isfinite,isinf,isnan</text>
<text text-anchor="start" x="169" y="-163.3" font-family="Times,serif" font-size="14.00"> allclose,equal</text>
<text text-anchor="start" x="169" y="-148.3" font-family="Times,serif" font-size="14.00"> argsort,kthvalue, max</text>
<text text-anchor="start" x="169" y="-133.3" font-family="Times,serif" font-size="14.00"> min,sort,topk</text>
</g>
<!-- tensor&#45;&gt;comparison_func -->
<g id="edge4" class="edge">
<title>tensor&#45;&gt;comparison_func</title>
<path fill="none" stroke="#666666" d="M42.45,-285.24C54.1,-271.48 71.54,-252.92 90,-240.5 108.79,-227.86 130.57,-217.06 151.62,-208.18"/>
<polygon fill="#666666" stroke="#666666" points="152.98,-211.41 160.9,-204.37 150.32,-204.93 152.98,-211.41"/>
</g>
<!-- reduction_operations -->
<g id="node6" class="node">
<title>reduction_operations</title>
<path fill="none" stroke="black" d="M147,-0.5C147,-0.5 336,-0.5 336,-0.5 342,-0.5 348,-6.5 348,-12.5 348,-12.5 348,-94.5 348,-94.5 348,-100.5 342,-106.5 336,-106.5 336,-106.5 147,-106.5 147,-106.5 141,-106.5 135,-100.5 135,-94.5 135,-94.5 135,-12.5 135,-12.5 135,-6.5 141,-0.5 147,-0.5"/>
<text text-anchor="start" x="143" y="-91.3" font-family="Times,serif" font-size="14.00">reduction_operations</text>
<polyline fill="none" stroke="black" points="135,-83.5 348,-83.5 "/>
<text text-anchor="start" x="143" y="-68.3" font-family="Times,serif" font-size="14.00">argmax, argmin, dist</text>
<text text-anchor="start" x="143" y="-53.3" font-family="Times,serif" font-size="14.00"> logsumexp, mean, median</text>
<text text-anchor="start" x="143" y="-38.3" font-family="Times,serif" font-size="14.00"> mode, norm, prod</text>
<text text-anchor="start" x="143" y="-23.3" font-family="Times,serif" font-size="14.00"> std, std_mean, sum, unique</text>
<text text-anchor="start" x="143" y="-8.3" font-family="Times,serif" font-size="14.00"> unique_consecutive, var, var_mean</text>
</g>
<!-- tensor&#45;&gt;reduction_operations -->
<g id="edge5" class="edge">
<title>tensor&#45;&gt;reduction_operations</title>
<path fill="none" stroke="#666666" d="M29.06,-285.49C32.15,-248.82 44.12,-164.82 90,-115.5 100.18,-104.55 112.59,-95.48 125.86,-87.98"/>
<polygon fill="#666666" stroke="#666666" points="127.51,-91.07 134.69,-83.27 124.22,-84.89 127.51,-91.07"/>
</g>
<!-- dtype -->
<g id="node7" class="node">
<title>dtype</title>
<path fill="none" stroke="black" d="M468,-1128C468,-1128 590,-1128 590,-1128 596,-1128 602,-1134 602,-1140 602,-1140 602,-1215 602,-1215 602,-1221 596,-1227 590,-1227 590,-1227 468,-1227 468,-1227 462,-1227 456,-1221 456,-1215 456,-1215 456,-1140 456,-1140 456,-1134 462,-1128 468,-1128"/>
<text text-anchor="start" x="464" y="-1211.8" font-family="Times,serif" font-size="14.00">dtype</text>
<polyline fill="none" stroke="black" points="456,-1204 602,-1204 "/>
<text text-anchor="start" x="464" y="-1188.8" font-family="Times,serif" font-size="14.00">tensor中元素类型</text>
<polyline fill="none" stroke="black" points="456,-1181 602,-1181 "/>
<text text-anchor="start" x="464" y="-1165.8" font-family="Times,serif" font-size="14.00">float16; float32;float64;</text>
<text text-anchor="start" x="464" y="-1150.8" font-family="Times,serif" font-size="14.00"> uint8;int32;int16;int64;</text>
<text text-anchor="start" x="464" y="-1135.8" font-family="Times,serif" font-size="14.00"> bool;</text>
</g>
<!-- attributes&#45;&gt;dtype -->
<g id="edge6" class="edge">
<title>attributes&#45;&gt;dtype</title>
<path fill="none" stroke="#666666" d="M249.76,-776.61C269.85,-837.65 331.26,-1005.91 429,-1113.5 434.64,-1119.71 441.01,-1125.57 447.73,-1131.03"/>
<polygon fill="#666666" stroke="#666666" points="445.71,-1133.89 455.76,-1137.26 450,-1128.36 445.71,-1133.89"/>
</g>
<!-- device -->
<g id="node8" class="node">
<title>device</title>
<path fill="none" stroke="black" d="M514,-1010C514,-1010 544,-1010 544,-1010 550,-1010 556,-1016 556,-1022 556,-1022 556,-1059 556,-1059 556,-1065 550,-1071 544,-1071 544,-1071 514,-1071 514,-1071 508,-1071 502,-1065 502,-1059 502,-1059 502,-1022 502,-1022 502,-1016 508,-1010 514,-1010"/>
<text text-anchor="start" x="510" y="-1055.8" font-family="Times,serif" font-size="14.00">device</text>
<polyline fill="none" stroke="black" points="502,-1048 556,-1048 "/>
<text text-anchor="start" x="510" y="-1032.8" font-family="Times,serif" font-size="14.00">cuda:0</text>
<text text-anchor="start" x="510" y="-1017.8" font-family="Times,serif" font-size="14.00"> cpu</text>
</g>
<!-- attributes&#45;&gt;device -->
<g id="edge7" class="edge">
<title>attributes&#45;&gt;device</title>
<path fill="none" stroke="#666666" d="M255.01,-776.5C281.49,-823.37 347.54,-930.91 429,-995.5 447.73,-1010.35 472.15,-1021.52 492.05,-1029.02"/>
<polygon fill="#666666" stroke="#666666" points="491.1,-1032.4 501.7,-1032.5 493.48,-1025.81 491.1,-1032.4"/>
</g>
<!-- _shape -->
<g id="node9" class="node">
<title>_shape</title>
<path fill="none" stroke="black" d="M490.5,-704.5C490.5,-704.5 567.5,-704.5 567.5,-704.5 573.5,-704.5 579.5,-710.5 579.5,-716.5 579.5,-716.5 579.5,-738.5 579.5,-738.5 579.5,-744.5 573.5,-750.5 567.5,-750.5 567.5,-750.5 490.5,-750.5 490.5,-750.5 484.5,-750.5 478.5,-744.5 478.5,-738.5 478.5,-738.5 478.5,-716.5 478.5,-716.5 478.5,-710.5 484.5,-704.5 490.5,-704.5"/>
<text text-anchor="start" x="486.5" y="-735.3" font-family="Times,serif" font-size="14.00">_shape</text>
<polyline fill="none" stroke="black" points="478.5,-727.5 579.5,-727.5 "/>
<text text-anchor="middle" x="529" y="-712.3" font-family="Times,serif" font-size="14.00">torch.Size([...])</text>
</g>
<!-- attributes&#45;&gt;_shape -->
<g id="edge8" class="edge">
<title>attributes&#45;&gt;_shape</title>
<path fill="none" stroke="#666666" d="M302,-748.08C350.67,-743.65 419.19,-737.41 467.99,-732.96"/>
<polygon fill="#666666" stroke="#666666" points="468.45,-736.44 478.09,-732.04 467.82,-729.47 468.45,-736.44"/>
</g>
<!-- ndim -->
<g id="node10" class="node">
<title>ndim</title>
<polygon fill="none" stroke="black" points="772,-786.5 718,-786.5 718,-750.5 772,-750.5 772,-786.5"/>
<text text-anchor="middle" x="745" y="-764.8" font-family="Times,serif" font-size="14.00">ndim</text>
</g>
<!-- attributes&#45;&gt;ndim -->
<g id="edge9" class="edge">
<title>attributes&#45;&gt;ndim</title>
<path fill="none" stroke="#666666" d="M302.13,-755.92C338.73,-757.36 386.58,-759.17 429,-760.5 529.89,-763.67 648.99,-766.43 707.63,-767.72"/>
<polygon fill="#666666" stroke="#666666" points="707.79,-771.22 717.86,-767.94 707.94,-764.23 707.79,-771.22"/>
</g>
<!-- requires_grad -->
<g id="node11" class="node">
<title>requires_grad</title>
<polygon fill="none" stroke="black" points="574.5,-647.5 483.5,-647.5 483.5,-611.5 574.5,-611.5 574.5,-647.5"/>
<text text-anchor="middle" x="529" y="-625.8" font-family="Times,serif" font-size="14.00">requires_grad</text>
</g>
<!-- attributes&#45;&gt;requires_grad -->
<g id="edge10" class="edge">
<title>attributes&#45;&gt;requires_grad</title>
<path fill="none" stroke="#666666" d="M285.02,-730.31C322.3,-710.51 378.32,-682.06 429,-661.5 443.14,-655.76 458.74,-650.32 473.28,-645.62"/>
<polygon fill="#666666" stroke="#666666" points="474.68,-648.84 483.15,-642.48 472.56,-642.17 474.68,-648.84"/>
</g>
<!-- grad -->
<g id="node12" class="node">
<title>grad</title>
<path fill="none" stroke="black" d="M697,-638.5C697,-638.5 793,-638.5 793,-638.5 799,-638.5 805,-644.5 805,-650.5 805,-650.5 805,-702.5 805,-702.5 805,-708.5 799,-714.5 793,-714.5 793,-714.5 697,-714.5 697,-714.5 691,-714.5 685,-708.5 685,-702.5 685,-702.5 685,-650.5 685,-650.5 685,-644.5 691,-638.5 697,-638.5"/>
<text text-anchor="start" x="693" y="-699.3" font-family="Times,serif" font-size="14.00">grad</text>
<polyline fill="none" stroke="black" points="685,-691.5 805,-691.5 "/>
<text text-anchor="start" x="693" y="-676.3" font-family="Times,serif" font-size="14.00">f.backward计算后</text>
<text text-anchor="start" x="693" y="-661.3" font-family="Times,serif" font-size="14.00"> 传导到x的梯度</text>
<text text-anchor="start" x="693" y="-646.3" font-family="Times,serif" font-size="14.00"> 是个tensor</text>
</g>
<!-- attributes&#45;&gt;grad -->
<g id="edge11" class="edge">
<title>attributes&#45;&gt;grad</title>
<path fill="none" stroke="#666666" d="M302.05,-730.94C338.22,-718.26 385.64,-703.43 429,-695.5 512.64,-680.2 610.64,-676.47 674.85,-675.9"/>
<polygon fill="#666666" stroke="#666666" points="674.88,-679.4 684.85,-675.84 674.83,-672.4 674.88,-679.4"/>
</g>
<!-- grad_fn -->
<g id="node13" class="node">
<title>grad_fn</title>
<path fill="none" stroke="black" d="M677,-543.5C677,-543.5 813,-543.5 813,-543.5 819,-543.5 825,-549.5 825,-555.5 825,-555.5 825,-607.5 825,-607.5 825,-613.5 819,-619.5 813,-619.5 813,-619.5 677,-619.5 677,-619.5 671,-619.5 665,-613.5 665,-607.5 665,-607.5 665,-555.5 665,-555.5 665,-549.5 671,-543.5 677,-543.5"/>
<text text-anchor="start" x="673" y="-604.3" font-family="Times,serif" font-size="14.00">grad_fn</text>
<polyline fill="none" stroke="black" points="665,-596.5 825,-596.5 "/>
<text text-anchor="start" x="673" y="-581.3" font-family="Times,serif" font-size="14.00">梯度函数df/dx</text>
<text text-anchor="start" x="673" y="-566.3" font-family="Times,serif" font-size="14.00"> 比如 f= x.pow(2).sum</text>
<text text-anchor="start" x="673" y="-551.3" font-family="Times,serif" font-size="14.00"> grad_fn为SumBackWard</text>
</g>
<!-- attributes&#45;&gt;grad_fn -->
<g id="edge12" class="edge">
<title>attributes&#45;&gt;grad_fn</title>
<path fill="none" stroke="#666666" d="M262.03,-730.45C293.22,-695.53 358.02,-630.32 429,-602.5 501.17,-574.21 589.74,-570.77 654.57,-573.36"/>
<polygon fill="#666666" stroke="#666666" points="654.61,-576.86 664.76,-573.82 654.93,-569.87 654.61,-576.86"/>
</g>
<!-- is_cuda -->
<g id="node14" class="node">
<title>is_cuda</title>
<polygon fill="none" stroke="black" points="774,-1087.5 716,-1087.5 716,-1051.5 774,-1051.5 774,-1087.5"/>
<text text-anchor="middle" x="745" y="-1065.8" font-family="Times,serif" font-size="14.00">is_cuda</text>
</g>
<!-- attributes&#45;&gt;is_cuda -->
<g id="edge13" class="edge">
<title>attributes&#45;&gt;is_cuda</title>
<path fill="none" stroke="#666666" d="M247.42,-776.93C262.04,-839.86 311.74,-1012.38 429,-1080.5 517.08,-1131.66 643.6,-1102.61 706.1,-1082.94"/>
<polygon fill="#666666" stroke="#666666" points="707.49,-1086.17 715.93,-1079.76 705.34,-1079.51 707.49,-1086.17"/>
</g>
<!-- is_spare -->
<g id="node15" class="node">
<title>is_spare</title>
<polygon fill="none" stroke="black" points="775.5,-846.5 714.5,-846.5 714.5,-810.5 775.5,-810.5 775.5,-846.5"/>
<text text-anchor="middle" x="745" y="-824.8" font-family="Times,serif" font-size="14.00">is_spare</text>
</g>
<!-- attributes&#45;&gt;is_spare -->
<g id="edge14" class="edge">
<title>attributes&#45;&gt;is_spare</title>
<path fill="none" stroke="#666666" d="M302.49,-762.47C406.3,-778 616.7,-809.46 704.31,-822.56"/>
<polygon fill="#666666" stroke="#666666" points="703.97,-826.05 714.37,-824.07 705,-819.13 703.97,-826.05"/>
</g>
<!-- is_quantized -->
<g id="node16" class="node">
<title>is_quantized</title>
<polygon fill="none" stroke="black" points="571.5,-555.5 486.5,-555.5 486.5,-519.5 571.5,-519.5 571.5,-555.5"/>
<text text-anchor="middle" x="529" y="-533.8" font-family="Times,serif" font-size="14.00">is_quantized</text>
</g>
<!-- attributes&#45;&gt;is_quantized -->
<g id="edge15" class="edge">
<title>attributes&#45;&gt;is_quantized</title>
<path fill="none" stroke="#666666" d="M260,-730.22C290.29,-691.47 356.3,-613.64 429,-569.5 443.45,-560.73 460.56,-554.09 476.46,-549.21"/>
<polygon fill="#666666" stroke="#666666" points="477.54,-552.54 486.17,-546.38 475.59,-545.81 477.54,-552.54"/>
</g>
<!-- is_leaf -->
<g id="node17" class="node">
<title>is_leaf</title>
<polygon fill="none" stroke="black" points="556,-501.5 502,-501.5 502,-465.5 556,-465.5 556,-501.5"/>
<text text-anchor="middle" x="529" y="-479.8" font-family="Times,serif" font-size="14.00">is_leaf</text>
</g>
<!-- attributes&#45;&gt;is_leaf -->
<g id="edge16" class="edge">
<title>attributes&#45;&gt;is_leaf</title>
<path fill="none" stroke="#666666" d="M253.6,-730.4C278.14,-681.89 341.8,-569.04 429,-510.5 447.64,-497.99 471.92,-491.25 491.77,-487.63"/>
<polygon fill="#666666" stroke="#666666" points="492.39,-491.08 501.7,-486.01 491.26,-484.17 492.39,-491.08"/>
</g>
<!-- is_mkldnn -->
<g id="node18" class="node">
<title>is_mkldnn</title>
<polygon fill="none" stroke="black" points="782,-999.5 708,-999.5 708,-963.5 782,-963.5 782,-999.5"/>
<text text-anchor="middle" x="745" y="-977.8" font-family="Times,serif" font-size="14.00">is_mkldnn</text>
</g>
<!-- attributes&#45;&gt;is_mkldnn -->
<g id="edge17" class="edge">
<title>attributes&#45;&gt;is_mkldnn</title>
<path fill="none" stroke="#666666" d="M254.88,-776.75C280.45,-822.04 343.88,-921.25 429,-962.5 516.34,-1004.82 633.63,-997.67 697.6,-989.25"/>
<polygon fill="#666666" stroke="#666666" points="698.35,-992.68 707.78,-987.84 697.39,-985.75 698.35,-992.68"/>
</g>
<!-- _layout -->
<g id="node19" class="node">
<title>_layout</title>
<path fill="none" stroke="black" d="M495.5,-846.5C495.5,-846.5 562.5,-846.5 562.5,-846.5 568.5,-846.5 574.5,-852.5 574.5,-858.5 574.5,-858.5 574.5,-940.5 574.5,-940.5 574.5,-946.5 568.5,-952.5 562.5,-952.5 562.5,-952.5 495.5,-952.5 495.5,-952.5 489.5,-952.5 483.5,-946.5 483.5,-940.5 483.5,-940.5 483.5,-858.5 483.5,-858.5 483.5,-852.5 489.5,-846.5 495.5,-846.5"/>
<text text-anchor="start" x="491.5" y="-937.3" font-family="Times,serif" font-size="14.00">layout</text>
<polyline fill="none" stroke="black" points="483.5,-929.5 574.5,-929.5 "/>
<text text-anchor="start" x="491.5" y="-914.3" font-family="Times,serif" font-size="14.00">Strided</text>
<text text-anchor="start" x="491.5" y="-899.3" font-family="Times,serif" font-size="14.00"> Sparse</text>
<text text-anchor="start" x="491.5" y="-884.3" font-family="Times,serif" font-size="14.00"> SparseCsr</text>
<text text-anchor="start" x="491.5" y="-869.3" font-family="Times,serif" font-size="14.00"> Mkldnn</text>
<text text-anchor="start" x="491.5" y="-854.3" font-family="Times,serif" font-size="14.00"> NumOptions</text>
</g>
<!-- attributes&#45;&gt;_layout -->
<g id="edge18" class="edge">
<title>attributes&#45;&gt;_layout</title>
<path fill="none" stroke="#666666" d="M287.74,-776.63C338.42,-802.55 420.52,-844.54 474.39,-872.08"/>
<polygon fill="#666666" stroke="#666666" points="472.95,-875.28 483.44,-876.71 476.13,-869.05 472.95,-875.28"/>
</g>
<!-- rand_method -->
<g id="node20" class="node">
<title>rand_method</title>
<path fill="none" stroke="black" d="M469,-340C469,-340 589,-340 589,-340 595,-340 601,-346 601,-352 601,-352 601,-435 601,-435 601,-441 595,-447 589,-447 589,-447 469,-447 469,-447 463,-447 457,-441 457,-435 457,-435 457,-352 457,-352 457,-346 463,-340 469,-340"/>
<text text-anchor="start" x="465" y="-431.8" font-family="Times,serif" font-size="14.00">rand_method</text>
<polyline fill="none" stroke="black" points="457,-424 601,-424 "/>
<text text-anchor="start" x="465" y="-408.8" font-family="Times,serif" font-size="14.00">随机初始化</text>
<text text-anchor="start" x="465" y="-393.8" font-family="Times,serif" font-size="14.00"> rand;randn; randint;</text>
<polyline fill="none" stroke="black" points="457,-386 601,-386 "/>
<text text-anchor="start" x="465" y="-370.8" font-family="Times,serif" font-size="14.00">normal; randperm;</text>
<polyline fill="none" stroke="black" points="457,-363 601,-363 "/>
<text text-anchor="start" x="465" y="-347.8" font-family="Times,serif" font-size="14.00">bernoulli; multinomial;</text>
</g>
<!-- create_tensor_method&#45;&gt;rand_method -->
<g id="edge26" class="edge">
<title>create_tensor_method&#45;&gt;rand_method</title>
<path fill="none" stroke="#666666" d="M302,-393.5C343.94,-393.5 400.6,-393.5 446.7,-393.5"/>
<polygon fill="#666666" stroke="#666666" points="446.97,-397 456.97,-393.5 446.97,-390 446.97,-397"/>
</g>
<!-- like_method -->
<g id="node21" class="node">
<title>like_method</title>
<path fill="none" stroke="black" d="M441,-206.5C441,-206.5 617,-206.5 617,-206.5 623,-206.5 629,-212.5 629,-218.5 629,-218.5 629,-308.5 629,-308.5 629,-314.5 623,-320.5 617,-320.5 617,-320.5 441,-320.5 441,-320.5 435,-320.5 429,-314.5 429,-308.5 429,-308.5 429,-218.5 429,-218.5 429,-212.5 435,-206.5 441,-206.5"/>
<text text-anchor="start" x="437" y="-305.3" font-family="Times,serif" font-size="14.00">like_method</text>
<polyline fill="none" stroke="black" points="429,-297.5 629,-297.5 "/>
<text text-anchor="start" x="437" y="-282.3" font-family="Times,serif" font-size="14.00">复用其他tensor</text>
<text text-anchor="start" x="437" y="-267.3" font-family="Times,serif" font-size="14.00"> 的shape,layout,</text>
<text text-anchor="start" x="437" y="-252.3" font-family="Times,serif" font-size="14.00"> dtype,device等</text>
<polyline fill="none" stroke="black" points="429,-244.5 629,-244.5 "/>
<text text-anchor="start" x="437" y="-229.3" font-family="Times,serif" font-size="14.00">empty_like, zeros_like, ones_like</text>
<text text-anchor="start" x="437" y="-214.3" font-family="Times,serif" font-size="14.00"> full_like,rand_like, rand_int_like</text>
</g>
<!-- create_tensor_method&#45;&gt;like_method -->
<g id="edge27" class="edge">
<title>create_tensor_method&#45;&gt;like_method</title>
<path fill="none" stroke="#666666" d="M302.27,-390.43C331,-386.99 365.15,-379.92 393,-365.5 412.82,-355.24 411.69,-344.59 429,-330.5 430.54,-329.25 432.1,-327.99 433.68,-326.74"/>
<polygon fill="#666666" stroke="#666666" points="435.97,-329.4 441.73,-320.51 431.68,-323.87 435.97,-329.4"/>
</g>
<!-- device&#45;&gt;is_cuda -->
<g id="edge23" class="edge">
<title>device&#45;&gt;is_cuda</title>
<path fill="none" stroke="green" stroke-dasharray="5,2" d="M556.24,-1044.06C593.67,-1049.13 662.62,-1058.47 705.74,-1064.31"/>
<polygon fill="green" stroke="green" points="705.47,-1067.81 715.84,-1065.68 706.41,-1060.87 705.47,-1067.81"/>
</g>
<!-- device&#45;&gt;is_mkldnn -->
<g id="edge24" class="edge">
<title>device&#45;&gt;is_mkldnn</title>
<path fill="none" stroke="green" stroke-dasharray="5,2" d="M556.24,-1033.27C591.55,-1023.53 654.91,-1006.06 698.17,-994.13"/>
<polygon fill="green" stroke="green" points="699.18,-997.49 707.89,-991.45 697.32,-990.74 699.18,-997.49"/>
</g>
<!-- _shape&#45;&gt;ndim -->
<g id="edge25" class="edge">
<title>_shape&#45;&gt;ndim</title>
<path fill="none" stroke="green" stroke-dasharray="5,2" d="M579.63,-737.01C618.85,-744.52 672.67,-754.83 707.88,-761.58"/>
<polygon fill="green" stroke="green" points="707.25,-765.02 717.73,-763.47 708.57,-758.15 707.25,-765.02"/>
</g>
<!-- requires_grad&#45;&gt;grad -->
<g id="edge21" class="edge">
<title>requires_grad&#45;&gt;grad</title>
<path fill="none" stroke="green" stroke-dasharray="5,2" d="M574.6,-639.3C603.57,-645.66 641.93,-654.08 674.82,-661.31"/>
<polygon fill="green" stroke="green" points="674.31,-664.78 684.83,-663.51 675.82,-657.94 674.31,-664.78"/>
</g>
<!-- requires_grad&#45;&gt;grad_fn -->
<g id="edge22" class="edge">
<title>requires_grad&#45;&gt;grad_fn</title>
<path fill="none" stroke="green" stroke-dasharray="5,2" d="M574.6,-619.5C597.84,-614.28 627.11,-607.72 654.76,-601.52"/>
<polygon fill="green" stroke="green" points="655.86,-604.86 664.86,-599.25 654.33,-598.03 655.86,-604.86"/>
</g>
<!-- _layout&#45;&gt;is_spare -->
<g id="edge19" class="edge">
<title>_layout&#45;&gt;is_spare</title>
<path fill="none" stroke="#666666" d="M574.6,-884.7C612.89,-872 667.58,-853.86 704.36,-841.65"/>
<polygon fill="#666666" stroke="#666666" points="705.84,-844.85 714.23,-838.38 703.64,-838.2 705.84,-844.85"/>
</g>
<!-- _layout&#45;&gt;is_mkldnn -->
<g id="edge20" class="edge">
<title>_layout&#45;&gt;is_mkldnn</title>
<path fill="none" stroke="#666666" d="M574.6,-916.59C610.92,-930.51 661.99,-950.07 698.54,-964.08"/>
<polygon fill="#666666" stroke="#666666" points="697.38,-967.38 707.97,-967.69 699.88,-960.85 697.38,-967.38"/>
</g>
</g>
</svg>
