<?xml version="1.0" encoding="UTF-8" standalone="no"?>
<!DOCTYPE svg PUBLIC "-//W3C//DTD SVG 1.1//EN"
 "http://www.w3.org/Graphics/SVG/1.1/DTD/svg11.dtd">
<!-- Generated by graphviz version 2.40.1 (20161225.0304)
 -->
<!-- Title: replicaLeaderElection Pages: 1 -->
<svg width="638pt" height="320pt"
 viewBox="0.00 0.00 637.78 320.00" xmlns="http://www.w3.org/2000/svg" xmlns:xlink="http://www.w3.org/1999/xlink">
<g id="graph0" class="graph" transform="scale(1 1) rotate(0) translate(4 316)">
<title>replicaLeaderElection</title>
<polygon fill="#ffffff" stroke="transparent" points="-4,4 -4,-316 633.7822,-316 633.7822,4 -4,4"/>
<g id="clust1" class="cluster">
<title>cluster_ControllerContext</title>
<path fill="none" stroke="#000000" d="M232.3672,-116C232.3672,-116 397.4502,-116 397.4502,-116 403.4502,-116 409.4502,-122 409.4502,-128 409.4502,-128 409.4502,-292 409.4502,-292 409.4502,-298 403.4502,-304 397.4502,-304 397.4502,-304 232.3672,-304 232.3672,-304 226.3672,-304 220.3672,-298 220.3672,-292 220.3672,-292 220.3672,-128 220.3672,-128 220.3672,-122 226.3672,-116 232.3672,-116"/>
<text text-anchor="middle" x="314.9087" y="-284" font-family="Times,serif" font-size="20.00" fill="#000000">ControllerContext</text>
</g>
<g id="clust2" class="cluster">
<title>cluster_PartitionStateMachine</title>
<path fill="none" stroke="#000000" d="M447.5684,-8C447.5684,-8 617.7822,-8 617.7822,-8 623.7822,-8 629.7822,-14 629.7822,-20 629.7822,-20 629.7822,-76 629.7822,-76 629.7822,-82 623.7822,-88 617.7822,-88 617.7822,-88 447.5684,-88 447.5684,-88 441.5684,-88 435.5684,-82 435.5684,-76 435.5684,-76 435.5684,-20 435.5684,-20 435.5684,-14 441.5684,-8 447.5684,-8"/>
<text text-anchor="middle" x="532.6753" y="-68" font-family="Times,serif" font-size="20.00" fill="#000000">PartitionStateMachine</text>
</g>
<!-- allPartitions -->
<g id="node1" class="node">
<title>allPartitions</title>
<polygon fill="none" stroke="#000000" points="356.5715,-268 273.2459,-268 273.2459,-232 356.5715,-232 356.5715,-268"/>
<text text-anchor="middle" x="314.9087" y="-245.8" font-family="Times,serif" font-size="14.00" fill="#000000">allPartitions</text>
</g>
<!-- partitionReplicaAssignment -->
<g id="node2" class="node">
<title>partitionReplicaAssignment</title>
<polygon fill="none" stroke="#000000" points="401.4917,-214 228.3257,-214 228.3257,-178 401.4917,-178 401.4917,-214"/>
<text text-anchor="middle" x="314.9087" y="-191.8" font-family="Times,serif" font-size="14.00" fill="#000000">partitionReplicaAssignment</text>
</g>
<!-- partitionLeadershipInfo -->
<g id="node3" class="node">
<title>partitionLeadershipInfo</title>
<polygon fill="none" stroke="#000000" points="389.3608,-160 240.4565,-160 240.4565,-124 389.3608,-124 389.3608,-160"/>
<text text-anchor="middle" x="314.9087" y="-137.8" font-family="Times,serif" font-size="14.00" fill="#000000">partitionLeadershipInfo</text>
</g>
<!-- pm_OnlinePartition -->
<g id="node4" class="node">
<title>pm_OnlinePartition</title>
<polygon fill="none" stroke="#000000" points="595.8893,-52 468.4612,-52 468.4612,-16 595.8893,-16 595.8893,-52"/>
<text text-anchor="middle" x="532.1753" y="-29.8" font-family="Times,serif" font-size="14.00" fill="#000000">pm_OnlinePartition</text>
</g>
<!-- processReplicaLeaderElection -->
<g id="node5" class="node">
<title>processReplicaLeaderElection</title>
<polygon fill="none" stroke="#000000" points="186.3737,-160 -.1247,-160 -.1247,-124 186.3737,-124 186.3737,-160"/>
<text text-anchor="middle" x="93.1245" y="-137.8" font-family="Times,serif" font-size="14.00" fill="#000000">processReplicaLeaderElection</text>
</g>
<!-- processReplicaLeaderElection&#45;&gt;allPartitions -->
<g id="edge1" class="edge">
<title>processReplicaLeaderElection&#45;&gt;allPartitions</title>
<path fill="none" stroke="#000000" d="M116.8012,-160.0423C141.5004,-178.1309 181.9142,-205.711 220.3672,-223 233.902,-229.0855 249.1473,-234.1515 263.3803,-238.1888"/>
<polygon fill="#000000" stroke="#000000" points="262.4704,-241.5684 273.0387,-240.8193 264.31,-234.8144 262.4704,-241.5684"/>
</g>
<!-- processReplicaLeaderElection&#45;&gt;partitionReplicaAssignment -->
<g id="edge2" class="edge">
<title>processReplicaLeaderElection&#45;&gt;partitionReplicaAssignment</title>
<path fill="none" stroke="#000000" d="M167.2838,-160.0563C187.7212,-165.0324 210.0353,-170.4654 230.9826,-175.5657"/>
<polygon fill="#000000" stroke="#000000" points="230.2751,-178.9956 240.8193,-177.9607 231.9312,-172.1943 230.2751,-178.9956"/>
</g>
<!-- processReplicaLeaderElection&#45;&gt;partitionLeadershipInfo -->
<g id="edge3" class="edge">
<title>processReplicaLeaderElection&#45;&gt;partitionLeadershipInfo</title>
<path fill="none" stroke="#000000" d="M186.5382,-142C201.0179,-142 215.9054,-142 230.1796,-142"/>
<polygon fill="#000000" stroke="#000000" points="230.4505,-145.5001 240.4504,-142 230.4504,-138.5001 230.4505,-145.5001"/>
</g>
<!-- isTopicQueuedUpForDeletion -->
<g id="node6" class="node">
<title>isTopicQueuedUpForDeletion</title>
<polygon fill="none" stroke="#000000" points="407.7283,-106 222.0891,-106 222.0891,-70 407.7283,-70 407.7283,-106"/>
<text text-anchor="middle" x="314.9087" y="-83.8" font-family="Times,serif" font-size="14.00" fill="#000000">isTopicQueuedUpForDeletion</text>
</g>
<!-- processReplicaLeaderElection&#45;&gt;isTopicQueuedUpForDeletion -->
<g id="edge4" class="edge">
<title>processReplicaLeaderElection&#45;&gt;isTopicQueuedUpForDeletion</title>
<path fill="none" stroke="#000000" d="M167.2838,-123.9437C187.7212,-118.9676 210.0353,-113.5346 230.9826,-108.4343"/>
<polygon fill="#000000" stroke="#000000" points="231.9312,-111.8057 240.8193,-106.0393 230.2751,-105.0044 231.9312,-111.8057"/>
</g>
<!-- onReplicaElection -->
<g id="node7" class="node">
<title>onReplicaElection</title>
<polygon fill="none" stroke="#000000" points="374.8166,-52 255.0008,-52 255.0008,-16 374.8166,-16 374.8166,-52"/>
<text text-anchor="middle" x="314.9087" y="-29.8" font-family="Times,serif" font-size="14.00" fill="#000000">onReplicaElection</text>
</g>
<!-- processReplicaLeaderElection&#45;&gt;onReplicaElection -->
<g id="edge5" class="edge">
<title>processReplicaLeaderElection&#45;&gt;onReplicaElection</title>
<path fill="none" stroke="#000000" d="M116.8012,-123.9577C141.5004,-105.8691 181.9142,-78.289 220.3672,-61 228.2852,-57.4399 236.7886,-54.2288 245.3323,-51.3683"/>
<polygon fill="#000000" stroke="#000000" points="246.5073,-54.6673 254.9664,-48.288 244.3755,-47.9998 246.5073,-54.6673"/>
</g>
<!-- onReplicaElection&#45;&gt;pm_OnlinePartition -->
<g id="edge6" class="edge">
<title>onReplicaElection&#45;&gt;pm_OnlinePartition</title>
<path fill="none" stroke="#000000" d="M374.8529,-34C400.5808,-34 430.9026,-34 458.0249,-34"/>
<polygon fill="#000000" stroke="#000000" points="458.2469,-37.5001 468.2468,-34 458.2468,-30.5001 458.2469,-37.5001"/>
</g>
</g>
</svg>
