<?xml version="1.0" encoding="UTF-8" standalone="no"?>
<!DOCTYPE svg PUBLIC "-//W3C//DTD SVG 1.1//EN"
 "http://www.w3.org/Graphics/SVG/1.1/DTD/svg11.dtd">
<!-- Generated by graphviz version 2.40.1 (20161225.0304)
 -->
<!-- Title: heartbeat Pages: 1 -->
<svg width="1877pt" height="661pt"
 viewBox="0.00 0.00 1877.33 661.00" xmlns="http://www.w3.org/2000/svg" xmlns:xlink="http://www.w3.org/1999/xlink">
<g id="graph0" class="graph" transform="scale(1 1) rotate(0) translate(4 657)">
<title>heartbeat</title>
<polygon fill="#ffffff" stroke="transparent" points="-4,4 -4,-657 1873.332,-657 1873.332,4 -4,4"/>
<g id="clust1" class="cluster">
<title>cluster_Consumer</title>
<path fill="none" stroke="#000000" d="M464.6543,-482C464.6543,-482 1849.332,-482 1849.332,-482 1855.332,-482 1861.332,-488 1861.332,-494 1861.332,-494 1861.332,-633 1861.332,-633 1861.332,-639 1855.332,-645 1849.332,-645 1849.332,-645 464.6543,-645 464.6543,-645 458.6543,-645 452.6543,-639 452.6543,-633 452.6543,-633 452.6543,-494 452.6543,-494 452.6543,-488 458.6543,-482 464.6543,-482"/>
<text text-anchor="middle" x="1156.9932" y="-625" font-family="Times,serif" font-size="20.00" fill="#000000">Consumer</text>
</g>
<g id="clust2" class="cluster">
<title>cluster_GroupMetaddataManager</title>
<path fill="none" stroke="#000000" d="M905.4033,-96C905.4033,-96 1103.2793,-96 1103.2793,-96 1109.2793,-96 1115.2793,-102 1115.2793,-108 1115.2793,-108 1115.2793,-164 1115.2793,-164 1115.2793,-170 1109.2793,-176 1103.2793,-176 1103.2793,-176 905.4033,-176 905.4033,-176 899.4033,-176 893.4033,-170 893.4033,-164 893.4033,-164 893.4033,-108 893.4033,-108 893.4033,-102 899.4033,-96 905.4033,-96"/>
<text text-anchor="middle" x="1004.3413" y="-156" font-family="Times,serif" font-size="20.00" fill="#000000">GroupMetaddataManager</text>
</g>
<g id="clust3" class="cluster">
<title>cluster_GroupMetaddata</title>
<path fill="none" stroke="#000000" d="M509.1665,-8C509.1665,-8 1043.2139,-8 1043.2139,-8 1049.2139,-8 1055.2139,-14 1055.2139,-20 1055.2139,-20 1055.2139,-76 1055.2139,-76 1055.2139,-82 1049.2139,-88 1043.2139,-88 1043.2139,-88 509.1665,-88 509.1665,-88 503.1665,-88 497.1665,-82 497.1665,-76 497.1665,-76 497.1665,-20 497.1665,-20 497.1665,-14 503.1665,-8 509.1665,-8"/>
<text text-anchor="middle" x="776.1902" y="-68" font-family="Times,serif" font-size="20.00" fill="#000000">GroupMetaddata</text>
</g>
<g id="clust4" class="cluster">
<title>cluster_GroupCoordinator</title>
<path fill="none" stroke="#000000" d="M20,-184C20,-184 1440.5381,-184 1440.5381,-184 1446.5381,-184 1452.5381,-190 1452.5381,-196 1452.5381,-196 1452.5381,-462 1452.5381,-462 1452.5381,-468 1446.5381,-474 1440.5381,-474 1440.5381,-474 20,-474 20,-474 14,-474 8,-468 8,-462 8,-462 8,-196 8,-196 8,-190 14,-184 20,-184"/>
<text text-anchor="middle" x="730.269" y="-454" font-family="Times,serif" font-size="20.00" fill="#000000">GroupCoordinator</text>
</g>
<!-- requestRejoin -->
<g id="node1" class="node">
<title>requestRejoin</title>
<polygon fill="none" stroke="#000000" points="1512.0039,-559.2 1512.0039,-608.8 1654.0039,-608.8 1654.0039,-559.2 1512.0039,-559.2"/>
<text text-anchor="middle" x="1583.0039" y="-593.6" font-family="Times,serif" font-size="14.00" fill="#000000">requestRejoin</text>
<polyline fill="none" stroke="#000000" points="1512.0039,-586.8 1654.0039,-586.8 "/>
<text text-anchor="start" x="1520.0039" y="-571.6" font-family="Times,serif" font-size="14.00" fill="#000000">客户端重新请求加入</text>
</g>
<!-- resetGenerationOnResponseError -->
<g id="node2" class="node">
<title>resetGenerationOnResponseError</title>
<polygon fill="none" stroke="#000000" points="1480.5381,-490.2 1480.5381,-539.8 1685.4697,-539.8 1685.4697,-490.2 1480.5381,-490.2"/>
<text text-anchor="middle" x="1583.0039" y="-524.6" font-family="Times,serif" font-size="14.00" fill="#000000">resetGenerationOnResponseError</text>
<polyline fill="none" stroke="#000000" points="1480.5381,-517.8 1685.4697,-517.8 "/>
<text text-anchor="middle" x="1583.0039" y="-502.6" font-family="Times,serif" font-size="14.00" fill="#000000">重置状态，重新加入group</text>
</g>
<!-- resetStateAndRejoin -->
<g id="node3" class="node">
<title>resetStateAndRejoin</title>
<polygon fill="none" stroke="#000000" points="1853.2633,-533 1721.5385,-533 1721.5385,-497 1853.2633,-497 1853.2633,-533"/>
<text text-anchor="middle" x="1787.4009" y="-510.8" font-family="Times,serif" font-size="14.00" fill="#000000">resetStateAndRejoin</text>
</g>
<!-- resetGenerationOnResponseError&#45;&gt;resetStateAndRejoin -->
<g id="edge1" class="edge">
<title>resetGenerationOnResponseError&#45;&gt;resetStateAndRejoin</title>
<path fill="none" stroke="#000000" d="M1685.5018,-515C1694.212,-515 1702.9194,-515 1711.3707,-515"/>
<polygon fill="#000000" stroke="#000000" points="1711.5356,-518.5001 1721.5356,-515 1711.5355,-511.5001 1711.5356,-518.5001"/>
</g>
<!-- heartbeatRequest -->
<g id="node4" class="node">
<title>heartbeatRequest</title>
<polygon fill="none" stroke="#000000" points="460.6543,-491 460.6543,-601 657.4512,-601 657.4512,-491 460.6543,-491"/>
<text text-anchor="middle" x="559.0527" y="-585.8" font-family="Times,serif" font-size="14.00" fill="#000000">heartbeatRequest</text>
<polyline fill="none" stroke="#000000" points="460.6543,-579 657.4512,-579 "/>
<text text-anchor="middle" x="559.0527" y="-563.8" font-family="Times,serif" font-size="14.00" fill="#000000">groupId: String</text>
<polyline fill="none" stroke="#000000" points="460.6543,-557 657.4512,-557 "/>
<text text-anchor="middle" x="559.0527" y="-541.8" font-family="Times,serif" font-size="14.00" fill="#000000">memeberId: String</text>
<polyline fill="none" stroke="#000000" points="460.6543,-535 657.4512,-535 "/>
<text text-anchor="middle" x="559.0527" y="-519.8" font-family="Times,serif" font-size="14.00" fill="#000000">groupInstanceId: Option[String]</text>
<polyline fill="none" stroke="#000000" points="460.6543,-513 657.4512,-513 "/>
<text text-anchor="middle" x="559.0527" y="-497.8" font-family="Times,serif" font-size="14.00" fill="#000000">generationId: Int</text>
</g>
<!-- handleHeartbeat -->
<g id="node9" class="node">
<title>handleHeartbeat</title>
<polygon fill="none" stroke="#000000" points="693.4512,-199.4001 693.4512,-268.5999 826.1133,-268.5999 826.1133,-199.4001 693.4512,-199.4001"/>
<text text-anchor="middle" x="759.7822" y="-253.3999" font-family="Times,serif" font-size="14.00" fill="#000000">handleHeartbeat</text>
<polyline fill="none" stroke="#000000" points="693.4512,-246.5999 826.1133,-246.5999 "/>
<text text-anchor="start" x="701.4512" y="-231.3999" font-family="Times,serif" font-size="14.00" fill="#000000">根据当前group状态</text>
<text text-anchor="start" x="701.4512" y="-211.8" font-family="Times,serif" font-size="14.00" fill="#000000"> 做相应处理</text>
</g>
<!-- heartbeatRequest&#45;&gt;handleHeartbeat -->
<g id="edge17" class="edge">
<title>heartbeatRequest&#45;&gt;handleHeartbeat</title>
<path fill="none" stroke="#000000" d="M654.253,-490.5788C655.3485,-489.404 656.4155,-488.211 657.4512,-487 710.104,-425.4329 738.0719,-333.2479 750.8412,-278.8078"/>
<polygon fill="#000000" stroke="#000000" points="754.319,-279.2977 753.1232,-268.7706 747.4932,-277.7457 754.319,-279.2977"/>
</g>
<!-- getGroup -->
<g id="node5" class="node">
<title>getGroup</title>
<polygon fill="none" stroke="#000000" points="1038.2174,-140 969.4652,-140 969.4652,-104 1038.2174,-104 1038.2174,-140"/>
<text text-anchor="middle" x="1003.8413" y="-117.8" font-family="Times,serif" font-size="14.00" fill="#000000">getGroup</text>
</g>
<!-- generationId -->
<g id="node6" class="node">
<title>generationId</title>
<polygon fill="#95e1d3" stroke="#000000" points="1047.0868,-52 964.5958,-52 960.5958,-48 960.5958,-16 1043.0868,-16 1047.0868,-20 1047.0868,-52"/>
<polyline fill="none" stroke="#000000" points="1043.0868,-48 960.5958,-48 "/>
<polyline fill="none" stroke="#000000" points="1043.0868,-48 1043.0868,-16 "/>
<polyline fill="none" stroke="#000000" points="1043.0868,-48 1047.0868,-52 "/>
<text text-anchor="middle" x="1003.8413" y="-29.8" font-family="Times,serif" font-size="14.00" fill="#000000">generationId</text>
</g>
<!-- initNextGeneration -->
<g id="node7" class="node">
<title>initNextGeneration</title>
<polygon fill="none" stroke="#000000" points="821.8584,-52 697.706,-52 697.706,-16 821.8584,-16 821.8584,-52"/>
<text text-anchor="middle" x="759.7822" y="-29.8" font-family="Times,serif" font-size="14.00" fill="#000000">initNextGeneration</text>
</g>
<!-- initNextGeneration&#45;&gt;generationId -->
<g id="edge2" class="edge">
<title>initNextGeneration&#45;&gt;generationId</title>
<path fill="none" stroke="#000000" d="M822.0001,-34C861.6311,-34 912.4438,-34 950.2764,-34"/>
<polygon fill="#000000" stroke="#000000" points="950.5829,-37.5001 960.5829,-34 950.5829,-30.5001 950.5829,-37.5001"/>
</g>
<!-- onCompleteJoin -->
<g id="node8" class="node">
<title>onCompleteJoin</title>
<polygon fill="none" stroke="#000000" points="612.8254,-52 505.28,-52 505.28,-16 612.8254,-16 612.8254,-52"/>
<text text-anchor="middle" x="559.0527" y="-29.8" font-family="Times,serif" font-size="14.00" fill="#000000">onCompleteJoin</text>
</g>
<!-- onCompleteJoin&#45;&gt;initNextGeneration -->
<g id="edge3" class="edge">
<title>onCompleteJoin&#45;&gt;initNextGeneration</title>
<path fill="none" stroke="#000000" d="M612.8446,-34C635.8097,-34 662.955,-34 687.6253,-34"/>
<polygon fill="#000000" stroke="#000000" points="687.6641,-37.5001 697.6641,-34 687.6641,-30.5001 687.6641,-37.5001"/>
</g>
<!-- handleHeartbeat&#45;&gt;getGroup -->
<g id="edge7" class="edge">
<title>handleHeartbeat&#45;&gt;getGroup</title>
<path fill="none" stroke="#000000" d="M823.1682,-199.3291C835.9494,-192.6852 849.3733,-185.9511 862.1133,-180 894.3265,-164.9525 931.5605,-149.7986 959.7789,-138.7558"/>
<polygon fill="#000000" stroke="#000000" points="961.3104,-141.9156 969.3611,-135.0282 958.7725,-135.3918 961.3104,-141.9156"/>
</g>
<!-- handleHeartbeat&#45;&gt;generationId -->
<g id="edge8" class="edge">
<title>handleHeartbeat&#45;&gt;generationId</title>
<path fill="none" stroke="#000000" d="M777.383,-199.3563C795.0257,-167.6522 824.8804,-121.3404 862.1133,-92 888.0776,-71.5394 922.2547,-57.2718 950.5415,-48.008"/>
<polygon fill="#000000" stroke="#000000" points="951.7934,-51.2832 960.2781,-44.938 949.6884,-44.6071 951.7934,-51.2832"/>
</g>
<!-- completeAndScheduleNextHeartbeatExpiration -->
<g id="node13" class="node">
<title>completeAndScheduleNextHeartbeatExpiration</title>
<polygon fill="none" stroke="#000000" points="1145.7977,-252 861.8849,-252 861.8849,-216 1145.7977,-216 1145.7977,-252"/>
<text text-anchor="middle" x="1003.8413" y="-229.8" font-family="Times,serif" font-size="14.00" fill="#000000">completeAndScheduleNextHeartbeatExpiration</text>
</g>
<!-- handleHeartbeat&#45;&gt;completeAndScheduleNextHeartbeatExpiration -->
<g id="edge9" class="edge">
<title>handleHeartbeat&#45;&gt;completeAndScheduleNextHeartbeatExpiration</title>
<path fill="none" stroke="#000000" d="M826.1501,-234C834.3546,-234 842.9864,-234 851.8427,-234"/>
<polygon fill="#000000" stroke="#000000" points="851.9264,-237.5001 861.9263,-234 851.9263,-230.5001 851.9264,-237.5001"/>
</g>
<!-- responseCallback -->
<g id="node14" class="node">
<title>responseCallback</title>
<polygon fill="none" stroke="#000000" points="1061.0867,-309 946.5959,-309 946.5959,-273 1061.0867,-273 1061.0867,-309"/>
<text text-anchor="middle" x="1003.8413" y="-286.8" font-family="Times,serif" font-size="14.00" fill="#000000">responseCallback</text>
</g>
<!-- handleHeartbeat&#45;&gt;responseCallback -->
<g id="edge10" class="edge">
<title>handleHeartbeat&#45;&gt;responseCallback</title>
<path fill="none" stroke="#000000" d="M826.2679,-252.0514C838.1777,-255.1396 850.4938,-258.2391 862.1133,-261 886.3075,-266.7487 912.9548,-272.532 936.551,-277.4656"/>
<polygon fill="#000000" stroke="#000000" points="935.9578,-280.917 946.4609,-279.5254 937.3824,-274.0635 935.9578,-280.917"/>
</g>
<!-- handleJoinGroup -->
<g id="node10" class="node">
<title>handleJoinGroup</title>
<polygon fill="none" stroke="#000000" points="16,-192.8002 16,-301.1998 173.9277,-301.1998 173.9277,-192.8002 16,-192.8002"/>
<text text-anchor="middle" x="94.9639" y="-285.9998" font-family="Times,serif" font-size="14.00" fill="#000000">handleJoinGroup</text>
<polyline fill="none" stroke="#000000" points="16,-279.1998 173.9277,-279.1998 "/>
<text text-anchor="start" x="24" y="-263.9998" font-family="Times,serif" font-size="14.00" fill="#000000">有新的成员加入</text>
<text text-anchor="start" x="24" y="-244.3999" font-family="Times,serif" font-size="14.00" fill="#000000"> generationId增加</text>
<text text-anchor="start" x="24" y="-224.8" font-family="Times,serif" font-size="14.00" fill="#000000"> 会导致原有的consumer</text>
<text text-anchor="start" x="24" y="-205.2001" font-family="Times,serif" font-size="14.00" fill="#000000"> 重新rejoin</text>
</g>
<!-- joinPurgatory -->
<g id="node11" class="node">
<title>joinPurgatory</title>
<polygon fill="none" stroke="#000000" points="302.5487,-255 210.0539,-255 210.0539,-219 302.5487,-219 302.5487,-255"/>
<text text-anchor="middle" x="256.3013" y="-232.8" font-family="Times,serif" font-size="14.00" fill="#000000">joinPurgatory</text>
</g>
<!-- handleJoinGroup&#45;&gt;joinPurgatory -->
<g id="edge4" class="edge">
<title>handleJoinGroup&#45;&gt;joinPurgatory</title>
<path fill="none" stroke="#000000" d="M174.2146,-242.0879C182.8436,-241.553 191.4942,-241.0169 199.7713,-240.5038"/>
<polygon fill="#000000" stroke="#000000" points="200.2619,-243.9802 210.0262,-239.8682 199.8288,-236.9936 200.2619,-243.9802"/>
</g>
<!-- DelayedJoin -->
<g id="node12" class="node">
<title>DelayedJoin</title>
<polygon fill="none" stroke="#000000" points="424.644,-246 338.6851,-246 338.6851,-210 424.644,-210 424.644,-246"/>
<text text-anchor="middle" x="381.6646" y="-223.8" font-family="Times,serif" font-size="14.00" fill="#000000">DelayedJoin</text>
</g>
<!-- joinPurgatory&#45;&gt;DelayedJoin -->
<g id="edge5" class="edge">
<title>joinPurgatory&#45;&gt;DelayedJoin</title>
<path fill="none" stroke="#000000" d="M302.6258,-233.6743C310.9564,-233.0762 319.7014,-232.4484 328.2142,-231.8373"/>
<polygon fill="#000000" stroke="#000000" points="328.7157,-235.3104 338.4394,-231.1032 328.2144,-228.3283 328.7157,-235.3104"/>
</g>
<!-- DelayedJoin&#45;&gt;onCompleteJoin -->
<g id="edge6" class="edge">
<title>DelayedJoin&#45;&gt;onCompleteJoin</title>
<path fill="none" stroke="#000000" d="M398.3528,-209.749C430.1293,-174.9966 499.3881,-99.252 535.7295,-59.5073"/>
<polygon fill="#000000" stroke="#000000" points="538.373,-61.803 542.5381,-52.0612 533.207,-57.0794 538.373,-61.803"/>
</g>
<!-- REBALANCE_IN_PROGRESS -->
<g id="node15" class="node">
<title>REBALANCE_IN_PROGRESS</title>
<polygon fill="none" stroke="#000000" points="1181.5693,-348.6001 1181.5693,-437.3999 1444.5381,-437.3999 1444.5381,-348.6001 1181.5693,-348.6001"/>
<text text-anchor="middle" x="1313.0537" y="-422.1999" font-family="Times,serif" font-size="14.00" fill="#000000">ERROR: REBALANCE_IN_PROGRESS</text>
<polyline fill="none" stroke="#000000" points="1181.5693,-415.3999 1444.5381,-415.3999 "/>
<text text-anchor="start" x="1189.5693" y="-400.1999" font-family="Times,serif" font-size="14.00" fill="#000000">如果group状态处于PreparingRebalance</text>
<text text-anchor="start" x="1189.5693" y="-380.6" font-family="Times,serif" font-size="14.00" fill="#000000"> 或者ComplettingReblance</text>
<text text-anchor="middle" x="1313.0537" y="-361" font-family="Times,serif" font-size="14.00" fill="#000000"> 则返回REBALCNE_IN_PROGRESS错误</text>
</g>
<!-- responseCallback&#45;&gt;REBALANCE_IN_PROGRESS -->
<g id="edge11" class="edge">
<title>responseCallback&#45;&gt;REBALANCE_IN_PROGRESS</title>
<path fill="none" stroke="#000000" d="M1058.4105,-309.0008C1090.0307,-319.4313 1131.4345,-333.0892 1171.6397,-346.3517"/>
<polygon fill="#000000" stroke="#000000" points="1170.6874,-349.723 1181.2805,-349.5319 1172.8803,-343.0754 1170.6874,-349.723"/>
</g>
<!-- UNKNOWN_MEMBER_ID -->
<g id="node16" class="node">
<title>UNKNOWN_MEMBER_ID</title>
<polygon fill="none" stroke="#000000" points="1206.083,-192.2 1206.083,-241.8 1420.0244,-241.8 1420.0244,-192.2 1206.083,-192.2"/>
<text text-anchor="middle" x="1313.0537" y="-226.6" font-family="Times,serif" font-size="14.00" fill="#000000">ERR: UNKNOWN_MEMBER_ID</text>
<polyline fill="none" stroke="#000000" points="1206.083,-219.8 1420.0244,-219.8 "/>
<text text-anchor="middle" x="1313.0537" y="-204.6" font-family="Times,serif" font-size="14.00" fill="#000000">group处于状态Empty</text>
</g>
<!-- responseCallback&#45;&gt;UNKNOWN_MEMBER_ID -->
<g id="edge12" class="edge">
<title>responseCallback&#45;&gt;UNKNOWN_MEMBER_ID</title>
<path fill="none" stroke="#000000" d="M1061.2622,-279.6932C1087.1126,-274.3854 1117.962,-267.7493 1145.5693,-261 1161.7001,-257.0565 1165.5302,-255.301 1181.5693,-251 1189.5898,-248.8492 1197.8921,-246.6467 1206.2467,-244.4475"/>
<polygon fill="#000000" stroke="#000000" points="1207.2808,-247.7947 1216.0646,-241.8705 1205.5036,-241.024 1207.2808,-247.7947"/>
</g>
<!-- ILLEGAL_GENERATION -->
<g id="node17" class="node">
<title>ILLEGAL_GENERATION</title>
<polygon fill="none" stroke="#000000" points="1227.6812,-260.4001 1227.6812,-329.5999 1398.4263,-329.5999 1398.4263,-260.4001 1227.6812,-260.4001"/>
<text text-anchor="middle" x="1313.0537" y="-314.3999" font-family="Times,serif" font-size="14.00" fill="#000000">ILLEGAL_GENERATION</text>
<polyline fill="none" stroke="#000000" points="1227.6812,-307.5999 1398.4263,-307.5999 "/>
<text text-anchor="start" x="1235.6812" y="-292.3999" font-family="Times,serif" font-size="14.00" fill="#000000">generateId和group的</text>
<text text-anchor="start" x="1235.6812" y="-272.8" font-family="Times,serif" font-size="14.00" fill="#000000"> 现在的对不上</text>
</g>
<!-- responseCallback&#45;&gt;ILLEGAL_GENERATION -->
<g id="edge13" class="edge">
<title>responseCallback&#45;&gt;ILLEGAL_GENERATION</title>
<path fill="none" stroke="#000000" d="M1061.2771,-291.743C1105.0766,-292.3096 1166.3735,-293.1025 1217.5191,-293.7642"/>
<polygon fill="#000000" stroke="#000000" points="1217.5602,-297.2649 1227.6046,-293.8946 1217.6508,-290.2655 1217.5602,-297.2649"/>
</g>
<!-- REBALANCE_IN_PROGRESS&#45;&gt;requestRejoin -->
<g id="edge14" class="edge">
<title>REBALANCE_IN_PROGRESS&#45;&gt;requestRejoin</title>
<path fill="none" stroke="#000000" d="M1351.0311,-437.4396C1382.6378,-472.0084 1430.423,-518.9915 1480.5381,-549 1487.4177,-553.1195 1494.8496,-556.8379 1502.4586,-560.1745"/>
<polygon fill="#000000" stroke="#000000" points="1501.2251,-563.452 1511.8027,-564.0563 1503.9106,-556.9876 1501.2251,-563.452"/>
</g>
<!-- UNKNOWN_MEMBER_ID&#45;&gt;resetGenerationOnResponseError -->
<g id="edge15" class="edge">
<title>UNKNOWN_MEMBER_ID&#45;&gt;resetGenerationOnResponseError</title>
<path fill="none" stroke="#000000" d="M1420.1142,-232.6197C1431.7891,-237.2835 1442.9093,-243.2857 1452.5381,-251 1526.7214,-310.433 1561.9674,-422.7915 1575.7045,-479.8481"/>
<polygon fill="#000000" stroke="#000000" points="1572.352,-480.8842 1578.0238,-489.833 1579.1704,-479.3004 1572.352,-480.8842"/>
</g>
<!-- ILLEGAL_GENERATION&#45;&gt;resetGenerationOnResponseError -->
<g id="edge16" class="edge">
<title>ILLEGAL_GENERATION&#45;&gt;resetGenerationOnResponseError</title>
<path fill="none" stroke="#000000" d="M1398.5544,-312.6847C1417.4071,-319.0393 1436.513,-327.5781 1452.5381,-339 1505.0119,-376.4008 1545.172,-441.3805 1566.3348,-481.056"/>
<polygon fill="#000000" stroke="#000000" points="1563.3196,-482.8432 1571.0549,-490.0831 1569.5228,-479.5996 1563.3196,-482.8432"/>
</g>
</g>
</svg>
