<?xml version="1.0" encoding="UTF-8" standalone="no"?>
<!DOCTYPE svg PUBLIC "-//W3C//DTD SVG 1.1//EN"
 "http://www.w3.org/Graphics/SVG/1.1/DTD/svg11.dtd">
<!-- Generated by graphviz version 2.40.1 (20161225.0304)
 -->
<!-- Title: log_read_write Pages: 1 -->
<svg width="1519pt" height="828pt"
 viewBox="0.00 0.00 1519.00 828.00" xmlns="http://www.w3.org/2000/svg" xmlns:xlink="http://www.w3.org/1999/xlink">
<g id="graph0" class="graph" transform="scale(1 1) rotate(0) translate(4 824)">
<title>log_read_write</title>
<polygon fill="#ffffff" stroke="transparent" points="-4,4 -4,-824 1515,-824 1515,4 -4,4"/>
<g id="clust1" class="cluster">
<title>cluster_log</title>
<polygon fill="none" stroke="#000000" points="196,-676 196,-812 1119,-812 1119,-676 196,-676"/>
<text text-anchor="middle" x="657.5" y="-792" font-family="Times,serif" font-size="20.00" fill="#000000">log</text>
</g>
<g id="clust2" class="cluster">
<title>cluster_channel</title>
<polygon fill="none" stroke="#000000" points="986,-8 986,-90 1168,-90 1168,-8 986,-8"/>
<text text-anchor="middle" x="1077" y="-70" font-family="Times,serif" font-size="20.00" fill="#000000">nio.files.FileChannel</text>
</g>
<g id="clust3" class="cluster">
<title>cluster_record</title>
<polygon fill="none" stroke="#000000" points="1026,-98 1026,-234 1503,-234 1503,-98 1026,-98"/>
<text text-anchor="middle" x="1264.5" y="-214" font-family="Times,serif" font-size="20.00" fill="#000000">record</text>
</g>
<g id="clust4" class="cluster">
<title>cluster_FileRecords</title>
<polygon fill="none" stroke="#000000" points="453,-98 453,-234 958,-234 958,-98 453,-98"/>
<text text-anchor="middle" x="705.5" y="-214" font-family="Times,serif" font-size="20.00" fill="#000000">FileRecords</text>
</g>
<g id="clust5" class="cluster">
<title>cluster_TimeIndex</title>
<polygon fill="none" stroke="#000000" points="593.5,-440 593.5,-522 891.5,-522 891.5,-440 593.5,-440"/>
<text text-anchor="middle" x="742.5" y="-502" font-family="Times,serif" font-size="20.00" fill="#000000">TimeIndex</text>
</g>
<g id="clust6" class="cluster">
<title>cluster_OffsetIndex</title>
<polygon fill="none" stroke="#000000" points="564,-242 564,-432 1319.5,-432 1319.5,-242 564,-242"/>
<text text-anchor="middle" x="941.75" y="-412" font-family="Times,serif" font-size="20.00" fill="#000000">OffsetIndex</text>
</g>
<g id="clust9" class="cluster">
<title>cluster_Segment</title>
<polygon fill="none" stroke="#000000" points="432,-530 432,-668 926,-668 926,-530 432,-530"/>
<text text-anchor="middle" x="679" y="-648" font-family="Times,serif" font-size="20.00" fill="#000000">LogSegment</text>
</g>
<g id="clust16" class="cluster">
<title>cluster_partition</title>
<polygon fill="none" stroke="#000000" points="8,-676 8,-812 176,-812 176,-676 8,-676"/>
<text text-anchor="middle" x="92" y="-792" font-family="Times,serif" font-size="20.00" fill="#000000">partition</text>
</g>
<!-- channel_write -->
<g id="node1" class="node">
<title>channel_write</title>
<polygon fill="none" stroke="#000000" points="1104,-52 1050,-52 1050,-16 1104,-16 1104,-52"/>
<text text-anchor="middle" x="1077" y="-30.3" font-family="Times,serif" font-size="14.00" fill="#000000">write</text>
</g>
<!-- batchIterator -->
<g id="node2" class="node">
<title>batchIterator</title>
<polygon fill="none" stroke="#000000" points="1120,-196 1034,-196 1034,-160 1120,-160 1120,-196"/>
<text text-anchor="middle" x="1077" y="-174.3" font-family="Times,serif" font-size="14.00" fill="#000000">batchIterator</text>
</g>
<!-- FileLogInputStream -->
<g id="node3" class="node">
<title>FileLogInputStream</title>
<polygon fill="none" stroke="#000000" points="1331,-142 1204,-142 1204,-106 1331,-106 1331,-142"/>
<text text-anchor="middle" x="1267.5" y="-120.3" font-family="Times,serif" font-size="14.00" fill="#000000">FileLogInputStream</text>
</g>
<!-- batchIterator&#45;&gt;FileLogInputStream -->
<g id="edge1" class="edge">
<title>batchIterator&#45;&gt;FileLogInputStream</title>
<path fill="none" stroke="#000000" d="M1120.2274,-165.7466C1142.0326,-159.5656 1169.0847,-151.8972 1194.0308,-144.8259"/>
<polygon fill="#000000" stroke="#000000" points="1195.1702,-148.1409 1203.8366,-142.0463 1193.2611,-141.4063 1195.1702,-148.1409"/>
</g>
<!-- RecordBatchIterator -->
<g id="node5" class="node">
<title>RecordBatchIterator</title>
<polygon fill="none" stroke="#000000" points="1331,-196 1204,-196 1204,-160 1331,-160 1331,-196"/>
<text text-anchor="middle" x="1267.5" y="-174.3" font-family="Times,serif" font-size="14.00" fill="#000000">RecordBatchIterator</text>
</g>
<!-- batchIterator&#45;&gt;RecordBatchIterator -->
<g id="edge3" class="edge">
<title>batchIterator&#45;&gt;RecordBatchIterator</title>
<path fill="none" stroke="#000000" d="M1120.2274,-178C1141.9361,-178 1168.8455,-178 1193.6996,-178"/>
<polygon fill="#000000" stroke="#000000" points="1193.8366,-181.5001 1203.8366,-178 1193.8366,-174.5001 1193.8366,-181.5001"/>
</g>
<!-- DefaultRecordBatch -->
<g id="node4" class="node">
<title>DefaultRecordBatch</title>
<polygon fill="none" stroke="#000000" points="1495,-142 1367,-142 1367,-106 1495,-106 1495,-142"/>
<text text-anchor="middle" x="1431" y="-120.3" font-family="Times,serif" font-size="14.00" fill="#000000">DefaultRecordBatch</text>
</g>
<!-- FileLogInputStream&#45;&gt;DefaultRecordBatch -->
<g id="edge2" class="edge">
<title>FileLogInputStream&#45;&gt;DefaultRecordBatch</title>
<path fill="none" stroke="#000000" d="M1331.1815,-124C1339.624,-124 1348.3371,-124 1356.9357,-124"/>
<polygon fill="#000000" stroke="#000000" points="1356.9542,-127.5001 1366.9541,-124 1356.9541,-120.5001 1356.9542,-127.5001"/>
</g>
<!-- FileRecords_append -->
<g id="node6" class="node">
<title>FileRecords_append</title>
<polygon fill="none" stroke="#000000" points="677.5,-196 621.5,-196 621.5,-160 677.5,-160 677.5,-196"/>
<text text-anchor="middle" x="649.5" y="-174.3" font-family="Times,serif" font-size="14.00" fill="#000000">append</text>
</g>
<!-- MemoryRecords_writeFullyTo -->
<g id="node8" class="node">
<title>MemoryRecords_writeFullyTo</title>
<polygon fill="none" stroke="#000000" points="950,-142 763,-142 763,-106 950,-106 950,-142"/>
<text text-anchor="middle" x="856.5" y="-120.3" font-family="Times,serif" font-size="14.00" fill="#000000">MemoryRecords_writeFullyTo</text>
</g>
<!-- FileRecords_append&#45;&gt;MemoryRecords_writeFullyTo -->
<g id="edge4" class="edge">
<title>FileRecords_append&#45;&gt;MemoryRecords_writeFullyTo</title>
<path fill="none" stroke="#000000" d="M677.8484,-170.6048C703.4549,-163.9248 742.3765,-153.7713 777.3611,-144.6449"/>
<polygon fill="#000000" stroke="#000000" points="778.3172,-148.0127 787.1098,-142.1018 776.5501,-141.2394 778.3172,-148.0127"/>
</g>
<!-- FileRecords_slice -->
<g id="node7" class="node">
<title>FileRecords_slice</title>
<polygon fill="none" stroke="#000000" points="515,-169 461,-169 461,-133 515,-133 515,-169"/>
<text text-anchor="middle" x="488" y="-147.3" font-family="Times,serif" font-size="14.00" fill="#000000">slice</text>
</g>
<!-- new_FileRecords -->
<g id="node9" class="node">
<title>new_FileRecords</title>
<polygon fill="none" stroke="#000000" points="705,-142 594,-142 594,-106 705,-106 705,-142"/>
<text text-anchor="middle" x="649.5" y="-120.3" font-family="Times,serif" font-size="14.00" fill="#000000">new_FileRecords</text>
</g>
<!-- FileRecords_slice&#45;&gt;new_FileRecords -->
<g id="edge6" class="edge">
<title>FileRecords_slice&#45;&gt;new_FileRecords</title>
<path fill="none" stroke="#000000" d="M515.0315,-146.4808C533.8099,-143.3414 559.6816,-139.0161 583.7193,-134.9974"/>
<polygon fill="#000000" stroke="#000000" points="584.5969,-138.3993 593.8829,-133.2982 583.4426,-131.4951 584.5969,-138.3993"/>
</g>
<!-- MemoryRecords_writeFullyTo&#45;&gt;channel_write -->
<g id="edge5" class="edge">
<title>MemoryRecords_writeFullyTo&#45;&gt;channel_write</title>
<path fill="none" stroke="#000000" d="M900.8562,-105.8954C941.7236,-89.2148 1001.6709,-64.7466 1040.0158,-49.0956"/>
<polygon fill="#000000" stroke="#000000" points="1041.8132,-52.1424 1049.749,-45.1229 1039.1679,-45.6614 1041.8132,-52.1424"/>
</g>
<!-- batchesFrom -->
<g id="node10" class="node">
<title>batchesFrom</title>
<polygon fill="none" stroke="#000000" points="900,-196 813,-196 813,-160 900,-160 900,-196"/>
<text text-anchor="middle" x="856.5" y="-174.3" font-family="Times,serif" font-size="14.00" fill="#000000">batchesFrom</text>
</g>
<!-- new_FileRecords&#45;&gt;batchesFrom -->
<g id="edge7" class="edge">
<title>new_FileRecords&#45;&gt;batchesFrom</title>
<path fill="none" stroke="#000000" d="M705.2445,-138.542C735.5834,-146.4566 772.9342,-156.2002 802.9282,-164.0247"/>
<polygon fill="#000000" stroke="#000000" points="802.2376,-167.4617 812.7973,-166.5993 804.0046,-160.6883 802.2376,-167.4617"/>
</g>
<!-- batchesFrom&#45;&gt;batchIterator -->
<g id="edge8" class="edge">
<title>batchesFrom&#45;&gt;batchIterator</title>
<path fill="none" stroke="#000000" d="M900.0637,-178C935.513,-178 985.6961,-178 1023.5692,-178"/>
<polygon fill="#000000" stroke="#000000" points="1023.9025,-181.5001 1033.9025,-178 1023.9025,-174.5001 1023.9025,-181.5001"/>
</g>
<!-- timeIndex_maybeAppend -->
<g id="node11" class="node">
<title>timeIndex_maybeAppend</title>
<polygon fill="none" stroke="#000000" points="697.5,-484 601.5,-484 601.5,-448 697.5,-448 697.5,-484"/>
<text text-anchor="middle" x="649.5" y="-462.3" font-family="Times,serif" font-size="14.00" fill="#000000">maybeAppend</text>
</g>
<!-- mmap -->
<g id="node12" class="node">
<title>mmap</title>
<polygon fill="none" stroke="#000000" points="883.5,-484 829.5,-484 829.5,-448 883.5,-448 883.5,-484"/>
<text text-anchor="middle" x="856.5" y="-462.3" font-family="Times,serif" font-size="14.00" fill="#000000">mmap</text>
</g>
<!-- timeIndex_maybeAppend&#45;&gt;mmap -->
<g id="edge9" class="edge">
<title>timeIndex_maybeAppend&#45;&gt;mmap</title>
<path fill="none" stroke="#000000" d="M697.5103,-466C734.6354,-466 785.2841,-466 819.3516,-466"/>
<polygon fill="#000000" stroke="#000000" points="819.3587,-469.5001 829.3586,-466 819.3586,-462.5001 819.3587,-469.5001"/>
</g>
<!-- offsetIndex_append -->
<g id="node13" class="node">
<title>offsetIndex_append</title>
<polygon fill="none" stroke="#000000" points="679,-394 620,-394 620,-358 679,-358 679,-394"/>
<text text-anchor="middle" x="649.5" y="-372.3" font-family="Times,serif" font-size="14.00" fill="#000000">Append</text>
</g>
<!-- offsetIndex_append&#45;&gt;mmap -->
<g id="edge10" class="edge">
<title>offsetIndex_append&#45;&gt;mmap</title>
<path fill="none" stroke="#000000" d="M679.1487,-393.5234C701.6506,-406.3629 733.6231,-423.6355 763,-436 781.2574,-443.6844 802.2035,-450.5735 819.6363,-455.8062"/>
<polygon fill="#000000" stroke="#000000" points="818.8665,-459.2279 829.4476,-458.6892 820.84,-452.5118 818.8665,-459.2279"/>
</g>
<!-- offsetIndex_lookup -->
<g id="node14" class="node">
<title>offsetIndex_lookup</title>
<polygon fill="none" stroke="#000000" points="676.5,-340 622.5,-340 622.5,-304 676.5,-304 676.5,-340"/>
<text text-anchor="middle" x="649.5" y="-318.3" font-family="Times,serif" font-size="14.00" fill="#000000">lookup</text>
</g>
<!-- largestLowerBoundSlotFor -->
<g id="node15" class="node">
<title>largestLowerBoundSlotFor</title>
<polygon fill="none" stroke="#000000" points="938.5,-340 774.5,-340 774.5,-304 938.5,-304 938.5,-340"/>
<text text-anchor="middle" x="856.5" y="-318.3" font-family="Times,serif" font-size="14.00" fill="#000000">largestLowerBoundSlotFor</text>
</g>
<!-- offsetIndex_lookup&#45;&gt;largestLowerBoundSlotFor -->
<g id="edge11" class="edge">
<title>offsetIndex_lookup&#45;&gt;largestLowerBoundSlotFor</title>
<path fill="none" stroke="#000000" d="M676.5616,-322C699.0091,-322 732.2949,-322 764.1543,-322"/>
<polygon fill="#000000" stroke="#000000" points="764.4327,-325.5001 774.4326,-322 764.4326,-318.5001 764.4327,-325.5001"/>
</g>
<!-- parseEntry -->
<g id="node16" class="node">
<title>parseEntry</title>
<polygon fill="none" stroke="#000000" points="894,-394 819,-394 819,-358 894,-358 894,-394"/>
<text text-anchor="middle" x="856.5" y="-372.3" font-family="Times,serif" font-size="14.00" fill="#000000">parseEntry</text>
</g>
<!-- offsetIndex_lookup&#45;&gt;parseEntry -->
<g id="edge12" class="edge">
<title>offsetIndex_lookup&#45;&gt;parseEntry</title>
<path fill="none" stroke="#000000" d="M676.5616,-329.0596C710.1739,-337.828 768.0874,-352.9358 809.1251,-363.6413"/>
<polygon fill="#000000" stroke="#000000" points="808.3492,-367.056 818.9089,-366.1936 810.1162,-360.2827 808.3492,-367.056"/>
</g>
<!-- indexSlotRangeFor -->
<g id="node17" class="node">
<title>indexSlotRangeFor</title>
<polygon fill="none" stroke="#000000" points="1138,-340 1016,-340 1016,-304 1138,-304 1138,-340"/>
<text text-anchor="middle" x="1077" y="-318.3" font-family="Times,serif" font-size="14.00" fill="#000000">indexSlotRangeFor</text>
</g>
<!-- largestLowerBoundSlotFor&#45;&gt;indexSlotRangeFor -->
<g id="edge13" class="edge">
<title>largestLowerBoundSlotFor&#45;&gt;indexSlotRangeFor</title>
<path fill="none" stroke="#000000" d="M938.6061,-322C960.6981,-322 984.4059,-322 1005.8473,-322"/>
<polygon fill="#000000" stroke="#000000" points="1005.8484,-325.5001 1015.8484,-322 1005.8484,-318.5001 1005.8484,-325.5001"/>
</g>
<!-- binarySearch -->
<g id="node18" class="node">
<title>binarySearch</title>
<polygon fill="none" stroke="#000000" points="1311.5,-340 1223.5,-340 1223.5,-304 1311.5,-304 1311.5,-340"/>
<text text-anchor="middle" x="1267.5" y="-318.3" font-family="Times,serif" font-size="14.00" fill="#000000">binarySearch</text>
</g>
<!-- indexSlotRangeFor&#45;&gt;binarySearch -->
<g id="edge14" class="edge">
<title>indexSlotRangeFor&#45;&gt;binarySearch</title>
<path fill="none" stroke="#000000" d="M1138.0614,-322C1162.2355,-322 1189.7972,-322 1213.2569,-322"/>
<polygon fill="#000000" stroke="#000000" points="1213.378,-325.5001 1223.378,-322 1213.378,-318.5001 1213.378,-325.5001"/>
</g>
<!-- searchForOffsetWithSize -->
<g id="node19" class="node">
<title>searchForOffsetWithSize</title>
<polygon fill="none" stroke="#000000" points="727,-286 572,-286 572,-250 727,-250 727,-286"/>
<text text-anchor="middle" x="649.5" y="-264.3" font-family="Times,serif" font-size="14.00" fill="#000000">searchForOffsetWithSize</text>
</g>
<!-- searchForOffsetWithSize&#45;&gt;batchesFrom -->
<g id="edge15" class="edge">
<title>searchForOffsetWithSize&#45;&gt;batchesFrom</title>
<path fill="none" stroke="#000000" d="M697.651,-249.9162C707.4114,-246.0949 717.5713,-242.0042 727,-238 754.8072,-226.1907 785.5015,-212.0204 810.0253,-200.4167"/>
<polygon fill="#000000" stroke="#000000" points="811.5718,-203.557 819.1034,-196.1054 808.5688,-197.2338 811.5718,-203.557"/>
</g>
<!-- LogOffsetPosition -->
<g id="node20" class="node">
<title>LogOffsetPosition</title>
<polygon fill="none" stroke="#000000" points="914.5,-286 798.5,-286 798.5,-250 914.5,-250 914.5,-286"/>
<text text-anchor="middle" x="856.5" y="-264.3" font-family="Times,serif" font-size="14.00" fill="#000000">LogOffsetPosition</text>
</g>
<!-- searchForOffsetWithSize&#45;&gt;LogOffsetPosition -->
<g id="edge16" class="edge">
<title>searchForOffsetWithSize&#45;&gt;LogOffsetPosition</title>
<path fill="none" stroke="#000000" d="M727.1681,-268C747.2926,-268 768.8092,-268 788.4014,-268"/>
<polygon fill="#000000" stroke="#000000" points="788.454,-271.5001 798.4539,-268 788.4539,-264.5001 788.454,-271.5001"/>
</g>
<!-- segment_append -->
<g id="node21" class="node">
<title>segment_append</title>
<polygon fill="none" stroke="#000000" points="460,-593 460,-629 516,-629 516,-593 460,-593"/>
<text text-anchor="middle" x="488" y="-607.3" font-family="Times,serif" font-size="14.00" fill="#000000">append</text>
</g>
<!-- segment_append&#45;&gt;FileRecords_append -->
<g id="edge17" class="edge">
<title>segment_append&#45;&gt;FileRecords_append</title>
<path fill="none" stroke="#000000" d="M516.0362,-600.4974C523.7423,-596.24 531.2714,-590.5113 536,-583 576.9788,-517.906 525.7847,-304.7539 564,-238 574.8944,-218.9698 594.5732,-204.5305 612.3071,-194.591"/>
<polygon fill="#000000" stroke="#000000" points="614.148,-197.5767 621.3467,-189.803 610.8715,-191.3908 614.148,-197.5767"/>
</g>
<!-- segment_append&#45;&gt;timeIndex_maybeAppend -->
<g id="edge18" class="edge">
<title>segment_append&#45;&gt;timeIndex_maybeAppend</title>
<path fill="none" stroke="#000000" d="M516.1594,-598.2447C523.2434,-594.1052 530.4123,-589.002 536,-583 555.2322,-562.3417 545.6503,-547.446 564,-526 576.1219,-511.8327 592.299,-499.3667 607.3184,-489.5209"/>
<polygon fill="#000000" stroke="#000000" points="609.4104,-492.3391 615.9884,-484.0336 605.6668,-486.4242 609.4104,-492.3391"/>
</g>
<!-- segment_append&#45;&gt;offsetIndex_append -->
<g id="edge19" class="edge">
<title>segment_append&#45;&gt;offsetIndex_append</title>
<path fill="none" stroke="#000000" d="M516.0501,-599.8916C523.5662,-595.6549 530.9871,-590.0895 536,-583 574.398,-528.6962 527.9112,-491.8651 564,-436 575.3744,-418.3926 593.9091,-404.4528 610.8188,-394.4584"/>
<polygon fill="#000000" stroke="#000000" points="612.981,-397.2587 619.9901,-389.3137 609.5563,-391.1536 612.981,-397.2587"/>
</g>
<!-- segment_read -->
<g id="node22" class="node">
<title>segment_read</title>
<polygon fill="none" stroke="#000000" points="403,-720 349,-720 349,-684 403,-684 403,-720"/>
<text text-anchor="middle" x="376" y="-698.3" font-family="Times,serif" font-size="14.00" fill="#000000">read</text>
</g>
<!-- segment_read&#45;&gt;FileRecords_slice -->
<g id="edge20" class="edge">
<title>segment_read&#45;&gt;FileRecords_slice</title>
<path fill="none" stroke="#000000" d="M379.6628,-683.9805C395.9967,-603.6236 462.2636,-277.614 482.2599,-179.239"/>
<polygon fill="#000000" stroke="#000000" points="485.7465,-179.657 484.3086,-169.1602 478.8868,-178.2626 485.7465,-179.657"/>
</g>
<!-- translateOffset -->
<g id="node23" class="node">
<title>translateOffset</title>
<polygon fill="none" stroke="#000000" points="536,-574 440,-574 440,-538 536,-538 536,-574"/>
<text text-anchor="middle" x="488" y="-552.3" font-family="Times,serif" font-size="14.00" fill="#000000">translateOffset</text>
</g>
<!-- segment_read&#45;&gt;translateOffset -->
<g id="edge21" class="edge">
<title>segment_read&#45;&gt;translateOffset</title>
<path fill="none" stroke="#000000" d="M380.4622,-683.6315C387.4962,-658.1266 403.3969,-611.8738 432,-583 432.9186,-582.0727 433.8755,-581.1727 434.8648,-580.2996"/>
<polygon fill="#000000" stroke="#000000" points="437.1484,-582.9602 442.9926,-574.123 432.913,-577.3869 437.1484,-582.9602"/>
</g>
<!-- translateOffset&#45;&gt;offsetIndex_lookup -->
<g id="edge22" class="edge">
<title>translateOffset&#45;&gt;offsetIndex_lookup</title>
<path fill="none" stroke="#000000" d="M489.4007,-537.91C493.4649,-497.9956 508.7673,-401.7491 564,-349 577.0513,-336.5355 595.8174,-329.8232 612.4452,-326.2094"/>
<polygon fill="#000000" stroke="#000000" points="613.2667,-329.6165 622.4518,-324.3359 611.9785,-322.736 613.2667,-329.6165"/>
</g>
<!-- translateOffset&#45;&gt;searchForOffsetWithSize -->
<g id="edge23" class="edge">
<title>translateOffset&#45;&gt;searchForOffsetWithSize</title>
<path fill="none" stroke="#000000" d="M490.9928,-537.9414C500.1332,-484.8229 529.1918,-330.6012 564,-295 564.9182,-294.0609 565.8688,-293.1543 566.8485,-292.2792"/>
<polygon fill="#000000" stroke="#000000" points="569.0418,-295.0084 574.8804,-286.1675 564.8029,-289.4378 569.0418,-295.0084"/>
</g>
<!-- shouldRoll -->
<g id="node24" class="node">
<title>shouldRoll</title>
<polygon fill="none" stroke="#000000" points="687.5,-630 611.5,-630 611.5,-594 687.5,-594 687.5,-630"/>
<text text-anchor="middle" x="649.5" y="-608.3" font-family="Times,serif" font-size="14.00" fill="#000000">shouldRoll</text>
</g>
<!-- maxSegmentBytes -->
<g id="node25" class="node">
<title>maxSegmentBytes</title>
<polygon fill="none" stroke="#000000" points="916,-576 797,-576 797,-540 916,-540 916,-576"/>
<text text-anchor="middle" x="856.5" y="-554.3" font-family="Times,serif" font-size="14.00" fill="#000000">maxSegmentBytes</text>
</g>
<!-- shouldRoll&#45;&gt;maxSegmentBytes -->
<g id="edge24" class="edge">
<title>shouldRoll&#45;&gt;maxSegmentBytes</title>
<path fill="none" stroke="#000000" d="M687.95,-601.9696C715.6051,-594.7552 753.6804,-584.8225 786.646,-576.2228"/>
<polygon fill="#000000" stroke="#000000" points="787.9027,-579.5122 796.6954,-573.6012 786.1357,-572.7388 787.9027,-579.5122"/>
</g>
<!-- timeWaitedForRoll -->
<g id="node26" class="node">
<title>timeWaitedForRoll</title>
<polygon fill="none" stroke="#000000" points="918,-630 795,-630 795,-594 918,-594 918,-630"/>
<text text-anchor="middle" x="856.5" y="-608.3" font-family="Times,serif" font-size="14.00" fill="#000000">timeWaitedForRoll</text>
</g>
<!-- shouldRoll&#45;&gt;timeWaitedForRoll -->
<g id="edge25" class="edge">
<title>shouldRoll&#45;&gt;timeWaitedForRoll</title>
<path fill="none" stroke="#000000" d="M687.95,-612C714.9584,-612 751.9053,-612 784.3251,-612"/>
<polygon fill="#000000" stroke="#000000" points="784.6736,-615.5001 794.6736,-612 784.6735,-608.5001 784.6736,-615.5001"/>
</g>
<!-- localLog_read -->
<g id="node27" class="node">
<title>localLog_read</title>
<polygon fill="none" stroke="#000000" points="285,-720 231,-720 231,-684 285,-684 285,-720"/>
<text text-anchor="middle" x="258" y="-698.3" font-family="Times,serif" font-size="14.00" fill="#000000">read</text>
</g>
<!-- localLog_read&#45;&gt;segment_read -->
<g id="edge27" class="edge">
<title>localLog_read&#45;&gt;segment_read</title>
<path fill="none" stroke="#000000" d="M285.0716,-702C300.8489,-702 320.9852,-702 338.2964,-702"/>
<polygon fill="#000000" stroke="#000000" points="338.6458,-705.5001 348.6458,-702 338.6457,-698.5001 338.6458,-705.5001"/>
</g>
<!-- appendAsLeader -->
<g id="node28" class="node">
<title>appendAsLeader</title>
<polygon fill="none" stroke="#000000" points="312,-774 204,-774 204,-738 312,-738 312,-774"/>
<text text-anchor="middle" x="258" y="-752.3" font-family="Times,serif" font-size="14.00" fill="#000000">appendAsLeader</text>
</g>
<!-- append -->
<g id="node29" class="node">
<title>append</title>
<polygon fill="none" stroke="#000000" points="404,-774 348,-774 348,-738 404,-738 404,-774"/>
<text text-anchor="middle" x="376" y="-752.3" font-family="Times,serif" font-size="14.00" fill="#000000">append</text>
</g>
<!-- appendAsLeader&#45;&gt;append -->
<g id="edge26" class="edge">
<title>appendAsLeader&#45;&gt;append</title>
<path fill="none" stroke="#000000" d="M312.165,-756C320.8553,-756 329.6865,-756 337.8976,-756"/>
<polygon fill="#000000" stroke="#000000" points="337.9094,-759.5001 347.9094,-756 337.9093,-752.5001 337.9094,-759.5001"/>
</g>
<!-- append&#45;&gt;segment_append -->
<g id="edge35" class="edge">
<title>append&#45;&gt;segment_append</title>
<path fill="none" stroke="#000000" d="M396.4866,-737.9055C399.1785,-735.0662 401.7718,-732.0555 404,-729 420.6306,-706.1951 416.0713,-695.3006 432,-672 440.6178,-659.3939 451.725,-646.7472 461.7722,-636.2639"/>
<polygon fill="#000000" stroke="#000000" points="464.3487,-638.6354 468.85,-629.0443 459.3501,-633.7349 464.3487,-638.6354"/>
</g>
<!-- maybeRoll -->
<g id="node30" class="node">
<title>maybeRoll</title>
<polygon fill="none" stroke="#000000" points="526.5,-747 449.5,-747 449.5,-711 526.5,-711 526.5,-747"/>
<text text-anchor="middle" x="488" y="-725.3" font-family="Times,serif" font-size="14.00" fill="#000000">maybeRoll</text>
</g>
<!-- append&#45;&gt;maybeRoll -->
<g id="edge28" class="edge">
<title>append&#45;&gt;maybeRoll</title>
<path fill="none" stroke="#000000" d="M404.2623,-749.1868C414.8941,-746.6238 427.3103,-743.6306 439.2757,-740.746"/>
<polygon fill="#000000" stroke="#000000" points="440.2704,-744.1066 449.1716,-738.3604 438.6298,-737.3015 440.2704,-744.1066"/>
</g>
<!-- maybeRoll&#45;&gt;shouldRoll -->
<g id="edge34" class="edge">
<title>maybeRoll&#45;&gt;shouldRoll</title>
<path fill="none" stroke="#000000" d="M511.8168,-710.8348C526.7237,-699.5407 546.3791,-684.7857 564,-672 580.5946,-659.959 599.2083,-646.8505 614.8209,-635.9661"/>
<polygon fill="#000000" stroke="#000000" points="616.9438,-638.753 623.1539,-630.1689 612.9462,-633.0067 616.9438,-638.753"/>
</g>
<!-- activeSegment -->
<g id="node31" class="node">
<title>activeSegment</title>
<polygon fill="#95e1d3" stroke="#000000" points="698,-720 605,-720 601,-716 601,-684 694,-684 698,-688 698,-720"/>
<polyline fill="none" stroke="#000000" points="694,-716 601,-716 "/>
<polyline fill="none" stroke="#000000" points="694,-716 694,-684 "/>
<polyline fill="none" stroke="#000000" points="694,-716 698,-720 "/>
<text text-anchor="middle" x="649.5" y="-698.3" font-family="Times,serif" font-size="14.00" fill="#000000">activeSegment</text>
</g>
<!-- maybeRoll&#45;&gt;activeSegment -->
<g id="edge29" class="edge">
<title>maybeRoll&#45;&gt;activeSegment</title>
<path fill="none" stroke="#000000" d="M526.6833,-722.5328C545.8563,-719.3274 569.4191,-715.3881 590.761,-711.8201"/>
<polygon fill="#000000" stroke="#000000" points="591.4215,-715.2584 600.7075,-710.1573 590.2672,-708.3542 591.4215,-715.2584"/>
</g>
<!-- roll -->
<g id="node32" class="node">
<title>roll</title>
<polygon fill="none" stroke="#000000" points="676.5,-774 622.5,-774 622.5,-738 676.5,-738 676.5,-774"/>
<text text-anchor="middle" x="649.5" y="-752.3" font-family="Times,serif" font-size="14.00" fill="#000000">roll</text>
</g>
<!-- maybeRoll&#45;&gt;roll -->
<g id="edge30" class="edge">
<title>maybeRoll&#45;&gt;roll</title>
<path fill="none" stroke="#000000" d="M526.6833,-735.4672C552.6006,-739.8001 586.5393,-745.4741 612.1708,-749.7592"/>
<polygon fill="#000000" stroke="#000000" points="611.809,-753.2472 622.2493,-751.4442 612.9633,-746.343 611.809,-753.2472"/>
</g>
<!-- segments -->
<g id="node34" class="node">
<title>segments</title>
<polygon fill="#95e1d3" stroke="#000000" points="1111,-742 1047,-742 1043,-738 1043,-706 1107,-706 1111,-710 1111,-742"/>
<polyline fill="none" stroke="#000000" points="1107,-738 1043,-738 "/>
<polyline fill="none" stroke="#000000" points="1107,-738 1107,-706 "/>
<polyline fill="none" stroke="#000000" points="1107,-738 1111,-742 "/>
<text text-anchor="middle" x="1077" y="-720.3" font-family="Times,serif" font-size="14.00" fill="#000000">segments</text>
</g>
<!-- activeSegment&#45;&gt;segments -->
<g id="edge33" class="edge">
<title>activeSegment&#45;&gt;segments</title>
<path fill="none" stroke="#ff0000" d="M698.1235,-704.5023C781.7944,-708.8081 951.7763,-717.5557 1032.507,-721.7103"/>
<polygon fill="#ff0000" stroke="#ff0000" points="1032.6586,-725.2226 1042.8253,-722.2413 1033.0184,-718.2319 1032.6586,-725.2226"/>
</g>
<!-- addSegment -->
<g id="node33" class="node">
<title>addSegment</title>
<polygon fill="none" stroke="#000000" points="898.5,-769 814.5,-769 814.5,-733 898.5,-733 898.5,-769"/>
<text text-anchor="middle" x="856.5" y="-747.3" font-family="Times,serif" font-size="14.00" fill="#000000">addSegment</text>
</g>
<!-- roll&#45;&gt;addSegment -->
<g id="edge31" class="edge">
<title>roll&#45;&gt;addSegment</title>
<path fill="none" stroke="#000000" d="M676.5616,-755.3463C708.8905,-754.5654 763.7003,-753.2415 804.3529,-752.2596"/>
<polygon fill="#000000" stroke="#000000" points="804.4484,-755.7584 814.361,-752.0179 804.2793,-748.7604 804.4484,-755.7584"/>
</g>
<!-- addSegment&#45;&gt;segments -->
<g id="edge32" class="edge">
<title>addSegment&#45;&gt;segments</title>
<path fill="none" stroke="#000000" d="M898.7537,-745.8261C937.2092,-741.1172 993.7723,-734.1911 1032.8185,-729.41"/>
<polygon fill="#000000" stroke="#000000" points="1033.3407,-732.8723 1042.8412,-728.1827 1032.4899,-725.9242 1033.3407,-732.8723"/>
</g>
<!-- readRecords -->
<g id="node35" class="node">
<title>readRecords</title>
<polygon fill="none" stroke="#000000" points="134,-720 50,-720 50,-684 134,-684 134,-720"/>
<text text-anchor="middle" x="92" y="-698.3" font-family="Times,serif" font-size="14.00" fill="#000000">readRecords</text>
</g>
<!-- readRecords&#45;&gt;localLog_read -->
<g id="edge36" class="edge">
<title>readRecords&#45;&gt;localLog_read</title>
<path fill="none" stroke="#000000" d="M134.3183,-702C160.9969,-702 195.1255,-702 220.7713,-702"/>
<polygon fill="#000000" stroke="#000000" points="220.8469,-705.5001 230.8468,-702 220.8468,-698.5001 220.8469,-705.5001"/>
</g>
<!-- appendRecordsToLeader -->
<g id="node36" class="node">
<title>appendRecordsToLeader</title>
<polygon fill="none" stroke="#000000" points="168,-774 16,-774 16,-738 168,-738 168,-774"/>
<text text-anchor="middle" x="92" y="-752.3" font-family="Times,serif" font-size="14.00" fill="#000000">appendRecordsToLeader</text>
</g>
<!-- appendRecordsToLeader&#45;&gt;appendAsLeader -->
<g id="edge37" class="edge">
<title>appendRecordsToLeader&#45;&gt;appendAsLeader</title>
<path fill="none" stroke="#000000" d="M168.1982,-756C176.5882,-756 185.0715,-756 193.3021,-756"/>
<polygon fill="#000000" stroke="#000000" points="193.5664,-759.5001 203.5664,-756 193.5663,-752.5001 193.5664,-759.5001"/>
</g>
</g>
</svg>
