<?xml version="1.0" encoding="UTF-8" standalone="no"?>
<!DOCTYPE svg PUBLIC "-//W3C//DTD SVG 1.1//EN"
 "http://www.w3.org/Graphics/SVG/1.1/DTD/svg11.dtd">
<!-- Generated by graphviz version 2.40.1 (20161225.0304)
 -->
<!-- Title: stream_graph_node Pages: 1 -->
<svg width="1979pt" height="900pt"
 viewBox="0.00 0.00 1979.00 899.50" xmlns="http://www.w3.org/2000/svg" xmlns:xlink="http://www.w3.org/1999/xlink">
<g id="graph0" class="graph" transform="scale(1 1) rotate(0) translate(4 895.5)">
<title>stream_graph_node</title>
<polygon fill="#ffffff" stroke="transparent" points="-4,4 -4,-895.5 1975,-895.5 1975,4 -4,4"/>
<!-- GlobalStoreNode -->
<g id="node1" class="node">
<title>GlobalStoreNode</title>
<polygon fill="none" stroke="#000000" points="672.5,-641.5 672.5,-802.5 900.5,-802.5 900.5,-641.5 672.5,-641.5"/>
<text text-anchor="middle" x="786.5" y="-787.3" font-family="Times,serif" font-size="14.00" fill="#000000">GlobalStoreNode</text>
<polyline fill="none" stroke="#000000" points="672.5,-779.5 900.5,-779.5 "/>
<text text-anchor="start" x="680.5" y="-764.3" font-family="Times,serif" font-size="14.00" fill="#000000">storeBuilder</text>
<polyline fill="none" stroke="#000000" points="672.5,-756.5 900.5,-756.5 "/>
<text text-anchor="start" x="680.5" y="-741.3" font-family="Times,serif" font-size="14.00" fill="#000000">String sourceName</text>
<polyline fill="none" stroke="#000000" points="672.5,-733.5 900.5,-733.5 "/>
<text text-anchor="start" x="680.5" y="-718.3" font-family="Times,serif" font-size="14.00" fill="#000000">String topic</text>
<polyline fill="none" stroke="#000000" points="672.5,-710.5 900.5,-710.5 "/>
<text text-anchor="start" x="680.5" y="-695.3" font-family="Times,serif" font-size="14.00" fill="#000000">ConsumedInternal consumed</text>
<polyline fill="none" stroke="#000000" points="672.5,-687.5 900.5,-687.5 "/>
<text text-anchor="start" x="680.5" y="-672.3" font-family="Times,serif" font-size="14.00" fill="#000000">String processorName </text>
<polyline fill="none" stroke="#000000" points="672.5,-664.5 900.5,-664.5 "/>
<text text-anchor="start" x="680.5" y="-649.3" font-family="Times,serif" font-size="14.00" fill="#000000">ProcessorSupplier stateUpdateSupplier</text>
</g>
<!-- StoreBuilder -->
<g id="node3" class="node">
<title>StoreBuilder</title>
<polygon fill="none" stroke="#000000" points="979,-603.5 979,-764.5 1116,-764.5 1116,-603.5 979,-603.5"/>
<text text-anchor="middle" x="1047.5" y="-749.3" font-family="Times,serif" font-size="14.00" fill="#000000">Interface StoreBuilder</text>
<polyline fill="none" stroke="#000000" points="979,-741.5 1116,-741.5 "/>
<text text-anchor="start" x="987" y="-726.3" font-family="Times,serif" font-size="14.00" fill="#000000">withCachingEnabled</text>
<polyline fill="none" stroke="#000000" points="979,-718.5 1116,-718.5 "/>
<text text-anchor="start" x="987" y="-703.3" font-family="Times,serif" font-size="14.00" fill="#000000">withCachingDisabled</text>
<polyline fill="none" stroke="#000000" points="979,-695.5 1116,-695.5 "/>
<text text-anchor="start" x="987" y="-680.3" font-family="Times,serif" font-size="14.00" fill="#000000">withLoggingEnabled</text>
<polyline fill="none" stroke="#000000" points="979,-672.5 1116,-672.5 "/>
<text text-anchor="start" x="987" y="-657.3" font-family="Times,serif" font-size="14.00" fill="#000000">withLoggingDisabled</text>
<polyline fill="none" stroke="#000000" points="979,-649.5 1116,-649.5 "/>
<text text-anchor="start" x="987" y="-634.3" font-family="Times,serif" font-size="14.00" fill="#000000">loadConfig</text>
<polyline fill="none" stroke="#000000" points="979,-626.5 1116,-626.5 "/>
<text text-anchor="start" x="987" y="-611.3" font-family="Times,serif" font-size="14.00" fill="#000000">name</text>
</g>
<!-- GlobalStoreNode&#45;&gt;StoreBuilder -->
<g id="edge1" class="edge">
<title>GlobalStoreNode:sb&#45;&gt;StoreBuilder</title>
<path fill="none" stroke="#000000" d="M900.5,-768C924.9134,-768 948.9588,-759.158 970.3053,-747.2115"/>
<polygon fill="#000000" stroke="#000000" points="972.1264,-750.2009 978.9687,-742.1118 968.5754,-744.1685 972.1264,-750.2009"/>
</g>
<!-- ProcessorSupplier -->
<g id="node6" class="node">
<title>ProcessorSupplier</title>
<polygon fill="none" stroke="#000000" points="964,-538 964,-584 1131,-584 1131,-538 964,-538"/>
<text text-anchor="middle" x="1047.5" y="-568.8" font-family="Times,serif" font-size="14.00" fill="#000000">Interface ProcessorSupplier</text>
<polyline fill="none" stroke="#000000" points="964,-561 1131,-561 "/>
<text text-anchor="start" x="972" y="-545.8" font-family="Times,serif" font-size="14.00" fill="#000000">Processor&lt;K, V&gt; get();</text>
</g>
<!-- GlobalStoreNode&#45;&gt;ProcessorSupplier -->
<g id="edge2" class="edge">
<title>GlobalStoreNode:ps&#45;&gt;ProcessorSupplier</title>
<path fill="none" stroke="#000000" d="M900.5,-653C939.024,-653 931.4121,-614.5458 964,-594 966.9235,-592.1568 969.967,-590.3853 973.0877,-588.687"/>
<polygon fill="#000000" stroke="#000000" points="974.7467,-591.7697 982.0514,-584.0956 971.5554,-585.5395 974.7467,-591.7697"/>
</g>
<!-- StateStoreNode -->
<g id="node2" class="node">
<title>StateStoreNode</title>
<polygon fill="none" stroke="#000000" points="371.5,-602 371.5,-648 472.5,-648 472.5,-602 371.5,-602"/>
<text text-anchor="middle" x="422" y="-632.8" font-family="Times,serif" font-size="14.00" fill="#000000">StateStoreNode</text>
<polyline fill="none" stroke="#000000" points="371.5,-625 472.5,-625 "/>
<text text-anchor="middle" x="422" y="-609.8" font-family="Times,serif" font-size="14.00" fill="#000000">StoreBuilder</text>
</g>
<!-- StateStoreNode&#45;&gt;GlobalStoreNode -->
<g id="edge20" class="edge">
<title>StateStoreNode&#45;&gt;GlobalStoreNode</title>
<path fill="none" stroke="#000000" d="M472.6822,-638.4874C521.5237,-651.485 597.3591,-671.6662 662.2455,-688.9336"/>
<polygon fill="#000000" stroke="#000000" points="661.5828,-692.379 672.1466,-691.5685 663.383,-685.6145 661.5828,-692.379"/>
</g>
<!-- StateStoreNode&#45;&gt;StoreBuilder -->
<g id="edge10" class="edge">
<title>StateStoreNode:sb&#45;&gt;StoreBuilder</title>
<path fill="none" stroke="#000000" d="M473,-613C675.3985,-613 730.7522,-586.6298 928,-632 941.7949,-635.1731 955.9843,-639.9009 969.5515,-645.234"/>
<polygon fill="#000000" stroke="#000000" points="968.2506,-648.4833 978.8323,-649.0112 970.8894,-641.9997 968.2506,-648.4833"/>
</g>
<!-- ProcessorGraphNode -->
<g id="node4" class="node">
<title>ProcessorGraphNode</title>
<polygon fill="none" stroke="#000000" points="337,-527 337,-573 507,-573 507,-527 337,-527"/>
<text text-anchor="middle" x="422" y="-557.8" font-family="Times,serif" font-size="14.00" fill="#000000">ProcessorGraphNode</text>
<polyline fill="none" stroke="#000000" points="337,-550 507,-550 "/>
<text text-anchor="middle" x="422" y="-534.8" font-family="Times,serif" font-size="14.00" fill="#000000">ProcessorParameters&lt;K,V&gt;</text>
</g>
<!-- ProcessorParameters -->
<g id="node5" class="node">
<title>ProcessorParameters</title>
<polygon fill="none" stroke="#000000" points="658.5,-427.5 658.5,-496.5 914.5,-496.5 914.5,-427.5 658.5,-427.5"/>
<text text-anchor="middle" x="786.5" y="-481.3" font-family="Times,serif" font-size="14.00" fill="#000000">ProcessorParameters</text>
<polyline fill="none" stroke="#000000" points="658.5,-473.5 914.5,-473.5 "/>
<text text-anchor="start" x="666.5" y="-458.3" font-family="Times,serif" font-size="14.00" fill="#000000">ProcessorSupplier&lt;K,V&gt; processorSupplier</text>
<polyline fill="none" stroke="#000000" points="658.5,-450.5 914.5,-450.5 "/>
<text text-anchor="start" x="666.5" y="-435.3" font-family="Times,serif" font-size="14.00" fill="#000000">String processorName</text>
</g>
<!-- ProcessorGraphNode&#45;&gt;ProcessorParameters -->
<g id="edge6" class="edge">
<title>ProcessorGraphNode:pp&#45;&gt;ProcessorParameters</title>
<path fill="none" stroke="#000000" d="M507,-538C569.9607,-538 585.0715,-525.3034 645,-506 651.4164,-503.9332 658.0018,-501.8286 664.6543,-499.7154"/>
<polygon fill="#000000" stroke="#000000" points="665.9608,-502.973 674.4372,-496.6168 663.8471,-496.2998 665.9608,-502.973"/>
</g>
<!-- StatefulProcessorNode -->
<g id="node11" class="node">
<title>StatefulProcessorNode</title>
<polygon fill="none" stroke="#000000" points="645,-515.5 645,-584.5 928,-584.5 928,-515.5 645,-515.5"/>
<text text-anchor="middle" x="786.5" y="-569.3" font-family="Times,serif" font-size="14.00" fill="#000000">StatefulProcessorNode</text>
<polyline fill="none" stroke="#000000" points="645,-561.5 928,-561.5 "/>
<text text-anchor="middle" x="786.5" y="-546.3" font-family="Times,serif" font-size="14.00" fill="#000000">String[] storeNames;</text>
<polyline fill="none" stroke="#000000" points="645,-538.5 928,-538.5 "/>
<text text-anchor="start" x="653" y="-523.3" font-family="Times,serif" font-size="14.00" fill="#000000">StoreBuilder&lt;? extends StateStore&gt; storeBuilder</text>
</g>
<!-- ProcessorGraphNode&#45;&gt;StatefulProcessorNode -->
<g id="edge22" class="edge">
<title>ProcessorGraphNode&#45;&gt;StatefulProcessorNode</title>
<path fill="none" stroke="#000000" d="M507.4591,-550C545.4282,-550 591.2933,-550 634.7727,-550"/>
<polygon fill="#000000" stroke="#000000" points="634.8849,-553.5001 644.8849,-550 634.8849,-546.5001 634.8849,-553.5001"/>
</g>
<!-- ProcessorParameters&#45;&gt;ProcessorSupplier -->
<g id="edge7" class="edge">
<title>ProcessorParameters:ps&#45;&gt;ProcessorSupplier</title>
<path fill="none" stroke="#000000" d="M914.5,-462C960.6762,-462 1001.2063,-500.8742 1025.0344,-529.9029"/>
<polygon fill="#000000" stroke="#000000" points="1022.3405,-532.1387 1031.303,-537.7889 1027.8202,-527.7829 1022.3405,-532.1387"/>
</g>
<!-- Processor -->
<g id="node7" class="node">
<title>Processor</title>
<polygon fill="none" stroke="#000000" points="1167,-557 1167,-649 1381,-649 1381,-557 1167,-557"/>
<text text-anchor="middle" x="1274" y="-633.8" font-family="Times,serif" font-size="14.00" fill="#000000">Interface Processor</text>
<polyline fill="none" stroke="#000000" points="1167,-626 1381,-626 "/>
<text text-anchor="start" x="1175" y="-610.8" font-family="Times,serif" font-size="14.00" fill="#000000">void init(ProcessorContext context);</text>
<polyline fill="none" stroke="#000000" points="1167,-603 1381,-603 "/>
<text text-anchor="start" x="1175" y="-587.8" font-family="Times,serif" font-size="14.00" fill="#000000">void process(K key, V value);</text>
<polyline fill="none" stroke="#000000" points="1167,-580 1381,-580 "/>
<text text-anchor="start" x="1175" y="-564.8" font-family="Times,serif" font-size="14.00" fill="#000000">void close();</text>
</g>
<!-- ProcessorSupplier&#45;&gt;Processor -->
<g id="edge8" class="edge">
<title>ProcessorSupplier:p&#45;&gt;Processor</title>
<path fill="none" stroke="#000000" d="M1131,-549C1144.1112,-549 1157.4879,-551.0113 1170.5392,-554.2576"/>
<polygon fill="#000000" stroke="#000000" points="1169.8773,-557.705 1180.4465,-556.9679 1171.7245,-550.9531 1169.8773,-557.705"/>
</g>
<!-- ProcessorContext -->
<g id="node9" class="node">
<title>ProcessorContext</title>
<polygon fill="none" stroke="#000000" points="1417,-485 1417,-891 1708,-891 1708,-485 1417,-485"/>
<text text-anchor="middle" x="1562.5" y="-875.8" font-family="Times,serif" font-size="14.00" fill="#000000">Interface ProcessorContext</text>
<polyline fill="none" stroke="#000000" points="1417,-868 1708,-868 "/>
<text text-anchor="start" x="1425" y="-852.8" font-family="Times,serif" font-size="14.00" fill="#000000">String applicationId()</text>
<polyline fill="none" stroke="#000000" points="1417,-845 1708,-845 "/>
<text text-anchor="start" x="1425" y="-829.8" font-family="Times,serif" font-size="14.00" fill="#000000">TaskId taskId();</text>
<polyline fill="none" stroke="#000000" points="1417,-822 1708,-822 "/>
<text text-anchor="start" x="1425" y="-806.8" font-family="Times,serif" font-size="14.00" fill="#000000">Serde&lt;?&gt; keySerde();</text>
<polyline fill="none" stroke="#000000" points="1417,-799 1708,-799 "/>
<text text-anchor="start" x="1425" y="-783.8" font-family="Times,serif" font-size="14.00" fill="#000000">Serde&lt;?&gt; valueSerde();</text>
<polyline fill="none" stroke="#000000" points="1417,-776 1708,-776 "/>
<text text-anchor="start" x="1425" y="-760.8" font-family="Times,serif" font-size="14.00" fill="#000000">File stateDir();</text>
<polyline fill="none" stroke="#000000" points="1417,-753 1708,-753 "/>
<text text-anchor="start" x="1425" y="-737.8" font-family="Times,serif" font-size="14.00" fill="#000000">StreamsMetrics metrics();</text>
<polyline fill="none" stroke="#000000" points="1417,-730 1708,-730 "/>
<text text-anchor="start" x="1425" y="-714.8" font-family="Times,serif" font-size="14.00" fill="#000000">void register(final StateStore store,</text>
<text text-anchor="start" x="1425" y="-699.8" font-family="Times,serif" font-size="14.00" fill="#000000"> final StateRestoreCallback stateRestoreCallback);</text>
<polyline fill="none" stroke="#000000" points="1417,-692 1708,-692 "/>
<text text-anchor="start" x="1425" y="-676.8" font-family="Times,serif" font-size="14.00" fill="#000000">StateStore getStateStore(final String name);</text>
<polyline fill="none" stroke="#000000" points="1417,-669 1708,-669 "/>
<text text-anchor="start" x="1425" y="-653.8" font-family="Times,serif" font-size="14.00" fill="#000000">schedule</text>
<polyline fill="none" stroke="#000000" points="1417,-646 1708,-646 "/>
<text text-anchor="start" x="1425" y="-630.8" font-family="Times,serif" font-size="14.00" fill="#000000">forward</text>
<polyline fill="none" stroke="#000000" points="1417,-623 1708,-623 "/>
<text text-anchor="start" x="1425" y="-607.8" font-family="Times,serif" font-size="14.00" fill="#000000">commit</text>
<polyline fill="none" stroke="#000000" points="1417,-600 1708,-600 "/>
<text text-anchor="start" x="1425" y="-584.8" font-family="Times,serif" font-size="14.00" fill="#000000">String topic </text>
<polyline fill="none" stroke="#000000" points="1417,-577 1708,-577 "/>
<text text-anchor="start" x="1425" y="-561.8" font-family="Times,serif" font-size="14.00" fill="#000000">int partition</text>
<polyline fill="none" stroke="#000000" points="1417,-554 1708,-554 "/>
<text text-anchor="start" x="1425" y="-538.8" font-family="Times,serif" font-size="14.00" fill="#000000">long offset </text>
<polyline fill="none" stroke="#000000" points="1417,-531 1708,-531 "/>
<text text-anchor="start" x="1425" y="-515.8" font-family="Times,serif" font-size="14.00" fill="#000000">Headers headers</text>
<polyline fill="none" stroke="#000000" points="1417,-508 1708,-508 "/>
<text text-anchor="start" x="1425" y="-492.8" font-family="Times,serif" font-size="14.00" fill="#000000">long timestamp</text>
<polyline fill="none" stroke="#000000" points="1417,-485 1708,-485 "/>
<polyline fill="none" stroke="#000000" points="1417,-485 1708,-485 "/>
</g>
<!-- Processor&#45;&gt;ProcessorContext -->
<g id="edge9" class="edge">
<title>Processor:pc&#45;&gt;ProcessorContext</title>
<path fill="none" stroke="#000000" d="M1381,-615C1389.544,-615 1398.1614,-615.7049 1406.7553,-616.9762"/>
<polygon fill="#000000" stroke="#000000" points="1406.3766,-620.4626 1416.8272,-618.7204 1407.5712,-613.5653 1406.3766,-620.4626"/>
</g>
<!-- StateStore -->
<g id="node8" class="node">
<title>StateStore</title>
<polygon fill="none" stroke="#000000" points="1744,-510.5 1744,-625.5 1971,-625.5 1971,-510.5 1744,-510.5"/>
<text text-anchor="middle" x="1857.5" y="-610.3" font-family="Times,serif" font-size="14.00" fill="#000000">Interface StateStore</text>
<polyline fill="none" stroke="#000000" points="1744,-602.5 1971,-602.5 "/>
<text text-anchor="start" x="1752" y="-587.3" font-family="Times,serif" font-size="14.00" fill="#000000">init(ProcessorContext, StateStore root)</text>
<polyline fill="none" stroke="#000000" points="1744,-579.5 1971,-579.5 "/>
<text text-anchor="start" x="1752" y="-564.3" font-family="Times,serif" font-size="14.00" fill="#000000">flush()</text>
<polyline fill="none" stroke="#000000" points="1744,-556.5 1971,-556.5 "/>
<text text-anchor="start" x="1752" y="-541.3" font-family="Times,serif" font-size="14.00" fill="#000000">close()</text>
<polyline fill="none" stroke="#000000" points="1744,-533.5 1971,-533.5 "/>
<text text-anchor="start" x="1752" y="-518.3" font-family="Times,serif" font-size="14.00" fill="#000000">persistent()| isOpen()</text>
</g>
<!-- ProcessorContext&#45;&gt;StateStore -->
<g id="edge5" class="edge">
<title>ProcessorContext:store&#45;&gt;StateStore</title>
<path fill="none" stroke="#000000" d="M1708,-680C1745.2027,-680 1779.0832,-657.5106 1805.1488,-632.6871"/>
<polygon fill="#000000" stroke="#000000" points="1807.6302,-635.1557 1812.2896,-625.6404 1802.7134,-630.1732 1807.6302,-635.1557"/>
</g>
<!-- StreamsGraphNode -->
<g id="node10" class="node">
<title>StreamsGraphNode</title>
<polygon fill="none" stroke="#000000" points="0,-159.5 0,-366.5 199,-366.5 199,-159.5 0,-159.5"/>
<text text-anchor="middle" x="99.5" y="-351.3" font-family="Times,serif" font-size="14.00" fill="#000000">StreamsGraphNode</text>
<polyline fill="none" stroke="#000000" points="0,-343.5 199,-343.5 "/>
<text text-anchor="start" x="8" y="-328.3" font-family="Times,serif" font-size="14.00" fill="#000000">childNodes</text>
<polyline fill="none" stroke="#000000" points="0,-320.5 199,-320.5 "/>
<text text-anchor="start" x="8" y="-305.3" font-family="Times,serif" font-size="14.00" fill="#000000">parentNode</text>
<polyline fill="none" stroke="#000000" points="0,-297.5 199,-297.5 "/>
<text text-anchor="start" x="8" y="-282.3" font-family="Times,serif" font-size="14.00" fill="#000000">String nodeName</text>
<polyline fill="none" stroke="#000000" points="0,-274.5 199,-274.5 "/>
<text text-anchor="start" x="8" y="-259.3" font-family="Times,serif" font-size="14.00" fill="#000000">boolean keyChangingOperation</text>
<polyline fill="none" stroke="#000000" points="0,-251.5 199,-251.5 "/>
<text text-anchor="start" x="8" y="-236.3" font-family="Times,serif" font-size="14.00" fill="#000000">boolean valueChangingOperation</text>
<polyline fill="none" stroke="#000000" points="0,-228.5 199,-228.5 "/>
<text text-anchor="start" x="8" y="-213.3" font-family="Times,serif" font-size="14.00" fill="#000000">boolean mergeNode</text>
<polyline fill="none" stroke="#000000" points="0,-205.5 199,-205.5 "/>
<text text-anchor="start" x="8" y="-190.3" font-family="Times,serif" font-size="14.00" fill="#000000">Integer buildPriority</text>
<polyline fill="none" stroke="#000000" points="0,-182.5 199,-182.5 "/>
<text text-anchor="start" x="8" y="-167.3" font-family="Times,serif" font-size="14.00" fill="#000000">bool hasWrittenToTopology </text>
</g>
<!-- StreamsGraphNode&#45;&gt;StateStoreNode -->
<g id="edge11" class="edge">
<title>StreamsGraphNode&#45;&gt;StateStoreNode</title>
<path fill="none" stroke="#000000" d="M117.7154,-366.845C135.5913,-437.9202 170.0439,-528.776 235,-583 270.0123,-612.2275 321.1406,-622.1973 361.0899,-625.1526"/>
<polygon fill="#000000" stroke="#000000" points="361.0556,-628.6569 371.2503,-625.773 361.4823,-621.67 361.0556,-628.6569"/>
</g>
<!-- StreamsGraphNode&#45;&gt;ProcessorGraphNode -->
<g id="edge12" class="edge">
<title>StreamsGraphNode&#45;&gt;ProcessorGraphNode</title>
<path fill="none" stroke="#000000" d="M129.988,-366.7836C150.9863,-420.123 184.4172,-481.4342 235,-518 261.2541,-536.9788 294.9376,-546.0978 326.4664,-550.1318"/>
<polygon fill="#000000" stroke="#000000" points="326.2876,-553.6336 336.6152,-551.2689 327.0671,-546.6771 326.2876,-553.6336"/>
</g>
<!-- StreamSinkNode -->
<g id="node12" class="node">
<title>StreamSinkNode</title>
<polygon fill="none" stroke="#000000" points="356.5,-439.5 356.5,-508.5 487.5,-508.5 487.5,-439.5 356.5,-439.5"/>
<text text-anchor="middle" x="422" y="-493.3" font-family="Times,serif" font-size="14.00" fill="#000000">StreamSinkNode</text>
<polyline fill="none" stroke="#000000" points="356.5,-485.5 487.5,-485.5 "/>
<text text-anchor="start" x="364.5" y="-470.3" font-family="Times,serif" font-size="14.00" fill="#000000">TopicNameExtractor</text>
<polyline fill="none" stroke="#000000" points="356.5,-462.5 487.5,-462.5 "/>
<text text-anchor="start" x="364.5" y="-447.3" font-family="Times,serif" font-size="14.00" fill="#000000">ProducedInternal</text>
</g>
<!-- StreamsGraphNode&#45;&gt;StreamSinkNode -->
<g id="edge13" class="edge">
<title>StreamsGraphNode&#45;&gt;StreamSinkNode</title>
<path fill="none" stroke="#000000" d="M165.8942,-366.5967C185.5561,-390.4739 208.9046,-413.635 235,-430 268.1879,-450.8128 310.2873,-461.7897 346.1343,-467.575"/>
<polygon fill="#000000" stroke="#000000" points="345.6565,-471.0424 356.0666,-469.073 346.7004,-464.1207 345.6565,-471.0424"/>
</g>
<!-- StreamSourceNode -->
<g id="node13" class="node">
<title>StreamSourceNode</title>
<polygon fill="none" stroke="#000000" points="293,-328 293,-420 551,-420 551,-328 293,-328"/>
<text text-anchor="middle" x="422" y="-404.8" font-family="Times,serif" font-size="14.00" fill="#000000">StreamSourceNode</text>
<polyline fill="none" stroke="#000000" points="293,-397 551,-397 "/>
<text text-anchor="start" x="301" y="-381.8" font-family="Times,serif" font-size="14.00" fill="#000000">Collection&lt;String&gt; topicNames</text>
<polyline fill="none" stroke="#000000" points="293,-374 551,-374 "/>
<text text-anchor="start" x="301" y="-358.8" font-family="Times,serif" font-size="14.00" fill="#000000">ConsumedInternal&lt;K,V&gt; consumedInternal</text>
<polyline fill="none" stroke="#000000" points="293,-351 551,-351 "/>
<text text-anchor="start" x="301" y="-335.8" font-family="Times,serif" font-size="14.00" fill="#000000">regex.Pattern topicPattern</text>
</g>
<!-- StreamsGraphNode&#45;&gt;StreamSourceNode -->
<g id="edge14" class="edge">
<title>StreamsGraphNode&#45;&gt;StreamSourceNode</title>
<path fill="none" stroke="#000000" d="M199.3587,-304.7718C211.3067,-309.4016 223.3845,-313.9137 235,-318 250.5669,-323.4764 266.9773,-328.8955 283.3473,-334.081"/>
<polygon fill="#000000" stroke="#000000" points="282.385,-337.4473 292.9744,-337.1058 284.4833,-330.7692 282.385,-337.4473"/>
</g>
<!-- TableProcessorNode -->
<g id="node14" class="node">
<title>TableProcessorNode</title>
<polygon fill="none" stroke="#000000" points="235,-217 235,-309 609,-309 609,-217 235,-217"/>
<text text-anchor="middle" x="422" y="-293.8" font-family="Times,serif" font-size="14.00" fill="#000000">TableProcessorNode</text>
<polyline fill="none" stroke="#000000" points="235,-286 609,-286 "/>
<text text-anchor="start" x="243" y="-270.8" font-family="Times,serif" font-size="14.00" fill="#000000">ProcessorParameters&lt;K,V&gt; processorParameters</text>
<polyline fill="none" stroke="#000000" points="235,-263 609,-263 "/>
<text text-anchor="start" x="243" y="-247.8" font-family="Times,serif" font-size="14.00" fill="#000000">StoreBuilder&lt;TimestampedKeyValueStore&lt;K, V&gt;&gt; storeBuilder</text>
<polyline fill="none" stroke="#000000" points="235,-240 609,-240 "/>
<text text-anchor="start" x="243" y="-224.8" font-family="Times,serif" font-size="14.00" fill="#000000">String[] storeNames;</text>
</g>
<!-- StreamsGraphNode&#45;&gt;TableProcessorNode -->
<g id="edge15" class="edge">
<title>StreamsGraphNode&#45;&gt;TableProcessorNode</title>
<path fill="none" stroke="#000000" d="M199.3324,-263C207.576,-263 216.0715,-263 224.7124,-263"/>
<polygon fill="#000000" stroke="#000000" points="224.9166,-266.5001 234.9165,-263 224.9165,-259.5001 224.9166,-266.5001"/>
</g>
<!-- StreamTableJoinNode -->
<g id="node15" class="node">
<title>StreamTableJoinNode</title>
<polygon fill="none" stroke="#000000" points="491,-198 353,-198 353,-162 491,-162 491,-198"/>
<text text-anchor="middle" x="422" y="-176.3" font-family="Times,serif" font-size="14.00" fill="#000000">StreamTableJoinNode</text>
</g>
<!-- StreamsGraphNode&#45;&gt;StreamTableJoinNode -->
<g id="edge16" class="edge">
<title>StreamsGraphNode&#45;&gt;StreamTableJoinNode</title>
<path fill="none" stroke="#000000" d="M199.1595,-218.5673C211.089,-214.2195 223.217,-210.2312 235,-207 269.6887,-197.4873 308.9706,-191.1701 342.546,-187.0562"/>
<polygon fill="#000000" stroke="#000000" points="343.2507,-190.4975 352.7714,-185.8492 342.43,-183.5457 343.2507,-190.4975"/>
</g>
<!-- BaseRepartitionNode -->
<g id="node16" class="node">
<title>BaseRepartitionNode</title>
<polygon fill="none" stroke="#000000" points="488.5,-144 355.5,-144 355.5,-108 488.5,-108 488.5,-144"/>
<text text-anchor="middle" x="422" y="-122.3" font-family="Times,serif" font-size="14.00" fill="#000000">BaseRepartitionNode</text>
</g>
<!-- StreamsGraphNode&#45;&gt;BaseRepartitionNode -->
<g id="edge17" class="edge">
<title>StreamsGraphNode&#45;&gt;BaseRepartitionNode</title>
<path fill="none" stroke="#000000" d="M199.2409,-172.6315C210.7694,-165.1049 222.787,-158.3466 235,-153 269.3229,-137.9741 310.2457,-130.9817 345.0456,-127.8453"/>
<polygon fill="#000000" stroke="#000000" points="345.4756,-131.322 355.16,-127.0252 344.9098,-124.3449 345.4756,-131.322"/>
</g>
<!-- BaseJoinProcessorNode -->
<g id="node17" class="node">
<title>BaseJoinProcessorNode</title>
<polygon fill="none" stroke="#000000" points="495.5,-90 348.5,-90 348.5,-54 495.5,-54 495.5,-90"/>
<text text-anchor="middle" x="422" y="-68.3" font-family="Times,serif" font-size="14.00" fill="#000000">BaseJoinProcessorNode</text>
</g>
<!-- StreamsGraphNode&#45;&gt;BaseJoinProcessorNode -->
<g id="edge18" class="edge">
<title>StreamsGraphNode&#45;&gt;BaseJoinProcessorNode</title>
<path fill="none" stroke="#000000" d="M165.6051,-159.2572C185.2046,-135.99 208.5959,-113.833 235,-99 265.9711,-81.6015 304.2037,-74.0914 338.0115,-71.2171"/>
<polygon fill="#000000" stroke="#000000" points="338.6278,-74.6818 348.3486,-70.4681 338.1218,-67.7001 338.6278,-74.6818"/>
</g>
<!-- KTableKTableForeignKeyJoinResolutionNode -->
<g id="node18" class="node">
<title>KTableKTableForeignKeyJoinResolutionNode</title>
<polygon fill="none" stroke="#000000" points="558,-36 286,-36 286,0 558,0 558,-36"/>
<text text-anchor="middle" x="422" y="-14.3" font-family="Times,serif" font-size="14.00" fill="#000000">KTableKTableForeignKeyJoinResolutionNode</text>
</g>
<!-- StreamsGraphNode&#45;&gt;KTableKTableForeignKeyJoinResolutionNode -->
<g id="edge19" class="edge">
<title>StreamsGraphNode&#45;&gt;KTableKTableForeignKeyJoinResolutionNode</title>
<path fill="none" stroke="#000000" d="M140.3805,-159.3113C162.2077,-117.2505 193.3191,-72.2505 235,-45 247.3805,-36.9058 261.2016,-30.8254 275.5717,-26.3004"/>
<polygon fill="#000000" stroke="#000000" points="276.9576,-29.5435 285.5969,-23.4107 275.0187,-22.8174 276.9576,-29.5435"/>
</g>
<!-- StatefulProcessorNode&#45;&gt;StoreBuilder -->
<g id="edge3" class="edge">
<title>StatefulProcessorNode:sb&#45;&gt;StoreBuilder</title>
<path fill="none" stroke="#000000" d="M928,-527C961.8041,-527 944.3448,-566.4974 964,-594 966.6509,-597.7093 969.4418,-601.4271 972.3308,-605.1261"/>
<polygon fill="#000000" stroke="#000000" points="969.8075,-607.5739 978.7957,-613.1831 975.2672,-603.1931 969.8075,-607.5739"/>
</g>
<!-- StatefulProcessorNode&#45;&gt;StateStore -->
<g id="edge4" class="edge">
<title>StatefulProcessorNode:sb&#45;&gt;StateStore</title>
<path fill="none" stroke="#000000" d="M928,-527C1275.4069,-527 1373.725,-381.3861 1708,-476 1730.451,-482.3546 1752.8449,-493.1371 1773.2078,-505.1305"/>
<polygon fill="#000000" stroke="#000000" points="1771.4376,-508.1503 1781.8047,-510.3354 1775.063,-502.1622 1771.4376,-508.1503"/>
</g>
<!-- TableSourceNode -->
<g id="node19" class="node">
<title>TableSourceNode</title>
<polygon fill="none" stroke="#000000" points="843.5,-392 729.5,-392 729.5,-356 843.5,-356 843.5,-392"/>
<text text-anchor="middle" x="786.5" y="-370.3" font-family="Times,serif" font-size="14.00" fill="#000000">TableSourceNode</text>
</g>
<!-- StreamSourceNode&#45;&gt;TableSourceNode -->
<g id="edge21" class="edge">
<title>StreamSourceNode&#45;&gt;TableSourceNode</title>
<path fill="none" stroke="#000000" d="M551.022,-374C607.8792,-374 672.3127,-374 719.3884,-374"/>
<polygon fill="#000000" stroke="#000000" points="719.4609,-377.5001 729.4608,-374 719.4608,-370.5001 719.4609,-377.5001"/>
</g>
</g>
</svg>
