<?xml version="1.0" encoding="UTF-8" standalone="no"?>
<!DOCTYPE svg PUBLIC "-//W3C//DTD SVG 1.1//EN"
 "http://www.w3.org/Graphics/SVG/1.1/DTD/svg11.dtd">
<!-- Generated by graphviz version 2.40.1 (20161225.0304)
 -->
<!-- Title: txn_coordinator Pages: 1 -->
<svg width="1231pt" height="1158pt"
 viewBox="0.00 0.00 1231.00 1158.00" xmlns="http://www.w3.org/2000/svg" xmlns:xlink="http://www.w3.org/1999/xlink">
<g id="graph0" class="graph" transform="scale(1 1) rotate(0) translate(4 1154)">
<title>txn_coordinator</title>
<polygon fill="#ffffff" stroke="transparent" points="-4,4 -4,-1154 1227.0049,-1154 1227.0049,4 -4,4"/>
<g id="clust1" class="cluster">
<title>cluster_zkClient</title>
<path fill="none" stroke="#000000" d="M859.2007,-418C859.2007,-418 1203.0049,-418 1203.0049,-418 1209.0049,-418 1215.0049,-424 1215.0049,-430 1215.0049,-430 1215.0049,-540 1215.0049,-540 1215.0049,-546 1209.0049,-552 1203.0049,-552 1203.0049,-552 859.2007,-552 859.2007,-552 853.2007,-552 847.2007,-546 847.2007,-540 847.2007,-540 847.2007,-430 847.2007,-430 847.2007,-424 853.2007,-418 859.2007,-418"/>
<text text-anchor="middle" x="1031.1028" y="-532" font-family="Times,serif" font-size="20.00" fill="#000000">zkClient</text>
</g>
<g id="clust2" class="cluster">
<title>cluster_PorudcerIdManager</title>
<path fill="none" stroke="#000000" d="M327.5786,-262C327.5786,-262 1016.4873,-262 1016.4873,-262 1022.4873,-262 1028.4873,-268 1028.4873,-274 1028.4873,-274 1028.4873,-398 1028.4873,-398 1028.4873,-404 1022.4873,-410 1016.4873,-410 1016.4873,-410 327.5786,-410 327.5786,-410 321.5786,-410 315.5786,-404 315.5786,-398 315.5786,-398 315.5786,-274 315.5786,-274 315.5786,-268 321.5786,-262 327.5786,-262"/>
<text text-anchor="middle" x="672.033" y="-390" font-family="Times,serif" font-size="20.00" fill="#000000">PorudcerIdManager</text>
</g>
<g id="clust5" class="cluster">
<title>cluster_TranscationMetaData</title>
<path fill="none" stroke="#000000" d="M292.2231,-418C292.2231,-418 485.2378,-418 485.2378,-418 491.2378,-418 497.2378,-424 497.2378,-430 497.2378,-430 497.2378,-594 497.2378,-594 497.2378,-600 491.2378,-606 485.2378,-606 485.2378,-606 292.2231,-606 292.2231,-606 286.2231,-606 280.2231,-600 280.2231,-594 280.2231,-594 280.2231,-430 280.2231,-430 280.2231,-424 286.2231,-418 292.2231,-418"/>
<text text-anchor="middle" x="388.7305" y="-586" font-family="Times,serif" font-size="20.00" fill="#000000">TranscationMetaData</text>
</g>
<g id="clust6" class="cluster">
<title>cluster_TranscationStateManager</title>
<path fill="none" stroke="#000000" d="M291.1548,-918C291.1548,-918 487.3062,-918 487.3062,-918 493.3062,-918 499.3062,-924 499.3062,-930 499.3062,-930 499.3062,-1040 499.3062,-1040 499.3062,-1046 493.3062,-1052 487.3062,-1052 487.3062,-1052 291.1548,-1052 291.1548,-1052 285.1548,-1052 279.1548,-1046 279.1548,-1040 279.1548,-1040 279.1548,-930 279.1548,-930 279.1548,-924 285.1548,-918 291.1548,-918"/>
<text text-anchor="middle" x="389.2305" y="-1032" font-family="Times,serif" font-size="20.00" fill="#000000">TranscationStateManager</text>
</g>
<g id="clust7" class="cluster">
<title>cluster_TranscationCoordinator</title>
<path fill="none" stroke="#000000" d="M20,-614C20,-614 796.542,-614 796.542,-614 802.542,-614 808.542,-620 808.542,-626 808.542,-626 808.542,-898 808.542,-898 808.542,-904 802.542,-910 796.542,-910 796.542,-910 20,-910 20,-910 14,-910 8,-904 8,-898 8,-898 8,-626 8,-626 8,-620 14,-614 20,-614"/>
<text text-anchor="middle" x="408.271" y="-890" font-family="Times,serif" font-size="20.00" fill="#000000">TranscationCoordinator</text>
</g>
<!-- zk_getDataAndVersion -->
<g id="node1" class="node">
<title>zk_getDataAndVersion</title>
<polygon fill="none" stroke="#000000" points="1001.643,-516 855.3862,-516 855.3862,-480 1001.643,-480 1001.643,-516"/>
<text text-anchor="middle" x="928.5146" y="-493.8" font-family="Times,serif" font-size="14.00" fill="#000000">zk_getDataAndVersion</text>
</g>
<!-- ProducerIdBlockZNode -->
<g id="node2" class="node">
<title>ProducerIdBlockZNode</title>
<polygon fill="none" stroke="#000000" points="1206.7644,-516 1056.7277,-516 1056.7277,-480 1206.7644,-480 1206.7644,-516"/>
<text text-anchor="middle" x="1131.7461" y="-493.8" font-family="Times,serif" font-size="14.00" fill="#000000">ProducerIdBlockZNode</text>
</g>
<!-- zk_getDataAndVersion&#45;&gt;ProducerIdBlockZNode -->
<g id="edge1" class="edge">
<title>zk_getDataAndVersion&#45;&gt;ProducerIdBlockZNode</title>
<path fill="none" stroke="#000000" d="M1001.8859,-498C1016.297,-498 1031.5315,-498 1046.2985,-498"/>
<polygon fill="#000000" stroke="#000000" points="1046.4312,-501.5001 1056.4312,-498 1046.4311,-494.5001 1046.4312,-501.5001"/>
</g>
<!-- conditionalUpdatePath -->
<g id="node3" class="node">
<title>conditionalUpdatePath</title>
<polygon fill="none" stroke="#000000" points="1000.8187,-462 856.2106,-462 856.2106,-426 1000.8187,-426 1000.8187,-462"/>
<text text-anchor="middle" x="928.5146" y="-439.8" font-family="Times,serif" font-size="14.00" fill="#000000">conditionalUpdatePath</text>
</g>
<!-- producerIdManager_shutdown -->
<g id="node4" class="node">
<title>producerIdManager_shutdown</title>
<polygon fill="none" stroke="#000000" points="323.5786,-270.2 323.5786,-319.8 453.8823,-319.8 453.8823,-270.2 323.5786,-270.2"/>
<text text-anchor="middle" x="388.7305" y="-304.6" font-family="Times,serif" font-size="14.00" fill="#000000">shutdown</text>
<polyline fill="none" stroke="#000000" points="323.5786,-297.8 453.8823,-297.8 "/>
<text text-anchor="middle" x="388.7305" y="-282.6" font-family="Times,serif" font-size="14.00" fill="#000000">打印nextProducerId</text>
</g>
<!-- generateProducerId -->
<g id="node5" class="node">
<title>generateProducerId</title>
<polygon fill="none" stroke="#000000" points="451.3385,-374 326.1224,-374 326.1224,-338 451.3385,-338 451.3385,-374"/>
<text text-anchor="middle" x="388.7305" y="-351.8" font-family="Times,serif" font-size="14.00" fill="#000000">generateProducerId</text>
</g>
<!-- currentProducerIdBlock -->
<g id="node6" class="node">
<title>currentProducerIdBlock</title>
<polygon fill="none" stroke="#000000" points="751.1507,-320 599.5837,-320 599.5837,-284 751.1507,-284 751.1507,-320"/>
<text text-anchor="middle" x="675.3672" y="-297.8" font-family="Times,serif" font-size="14.00" fill="#000000">currentProducerIdBlock</text>
</g>
<!-- generateProducerId&#45;&gt;currentProducerIdBlock -->
<g id="edge2" class="edge">
<title>generateProducerId&#45;&gt;currentProducerIdBlock</title>
<path fill="none" stroke="#000000" d="M451.6341,-344.1495C492.1582,-336.5151 545.3644,-326.4915 589.7234,-318.1346"/>
<polygon fill="#000000" stroke="#000000" points="590.4477,-321.5598 599.6269,-316.2689 589.1517,-314.6808 590.4477,-321.5598"/>
</g>
<!-- getNewProducerIdBlock -->
<g id="node7" class="node">
<title>getNewProducerIdBlock</title>
<polygon fill="none" stroke="#000000" points="753.047,-374 597.6874,-374 597.6874,-338 753.047,-338 753.047,-374"/>
<text text-anchor="middle" x="675.3672" y="-351.8" font-family="Times,serif" font-size="14.00" fill="#000000">getNewProducerIdBlock</text>
</g>
<!-- generateProducerId&#45;&gt;getNewProducerIdBlock -->
<g id="edge3" class="edge">
<title>generateProducerId&#45;&gt;getNewProducerIdBlock</title>
<path fill="none" stroke="#000000" d="M451.6341,-356C491.4615,-356 543.5387,-356 587.4278,-356"/>
<polygon fill="#000000" stroke="#000000" points="587.5253,-359.5001 597.5252,-356 587.5252,-352.5001 587.5253,-359.5001"/>
</g>
<!-- getNewProducerIdBlock&#45;&gt;zk_getDataAndVersion -->
<g id="edge4" class="edge">
<title>getNewProducerIdBlock&#45;&gt;zk_getDataAndVersion</title>
<path fill="none" stroke="#000000" d="M695.8126,-374.0697C725.09,-399.0958 781.5175,-444.2408 836.542,-471 840.3301,-472.8422 844.2683,-474.5841 848.2899,-476.2275"/>
<polygon fill="#000000" stroke="#000000" points="847.2035,-479.5596 857.7934,-479.8841 849.7173,-473.0265 847.2035,-479.5596"/>
</g>
<!-- getNewProducerIdBlock&#45;&gt;conditionalUpdatePath -->
<g id="edge5" class="edge">
<title>getNewProducerIdBlock&#45;&gt;conditionalUpdatePath</title>
<path fill="none" stroke="#000000" d="M724.2538,-374.0249C756.1382,-385.6739 798.7068,-401.025 836.542,-414 844.853,-416.8501 853.6079,-419.7881 862.2782,-422.6591"/>
<polygon fill="#000000" stroke="#000000" points="861.4101,-426.0581 872.0031,-425.8638 863.601,-419.4098 861.4101,-426.0581"/>
</g>
<!-- parseProducerIdBlockData -->
<g id="node8" class="node">
<title>parseProducerIdBlockData</title>
<polygon fill="none" stroke="#000000" points="1012.1225,-320 844.9068,-320 844.9068,-284 1012.1225,-284 1012.1225,-320"/>
<text text-anchor="middle" x="928.5146" y="-297.8" font-family="Times,serif" font-size="14.00" fill="#000000">parseProducerIdBlockData</text>
</g>
<!-- getNewProducerIdBlock&#45;&gt;parseProducerIdBlockData -->
<g id="edge6" class="edge">
<title>getNewProducerIdBlock&#45;&gt;parseProducerIdBlockData</title>
<path fill="none" stroke="#000000" d="M753.2394,-340.5023C771.4043,-336.8068 790.6633,-332.8237 808.542,-329 818.5884,-326.8514 829.097,-324.5565 839.5391,-322.2463"/>
<polygon fill="#000000" stroke="#000000" points="840.5098,-325.616 849.5129,-320.0309 838.9919,-318.7826 840.5098,-325.616"/>
</g>
<!-- generateProducerIdBlockJson -->
<g id="node9" class="node">
<title>generateProducerIdBlockJson</title>
<polygon fill="none" stroke="#000000" points="1020.46,-374 836.5693,-374 836.5693,-338 1020.46,-338 1020.46,-374"/>
<text text-anchor="middle" x="928.5146" y="-351.8" font-family="Times,serif" font-size="14.00" fill="#000000">generateProducerIdBlockJson</text>
</g>
<!-- getNewProducerIdBlock&#45;&gt;generateProducerIdBlockJson -->
<g id="edge7" class="edge">
<title>getNewProducerIdBlock&#45;&gt;generateProducerIdBlockJson</title>
<path fill="none" stroke="#000000" d="M753.0401,-356C776.161,-356 801.8544,-356 826.2896,-356"/>
<polygon fill="#000000" stroke="#000000" points="826.3078,-359.5001 836.3078,-356 826.3078,-352.5001 826.3078,-359.5001"/>
</g>
<!-- TranscationMetaData -->
<g id="node10" class="node">
<title>TranscationMetaData</title>
<polygon fill="none" stroke="#000000" points="457.0216,-516 320.4393,-516 320.4393,-480 457.0216,-480 457.0216,-516"/>
<text text-anchor="middle" x="388.7305" y="-493.8" font-family="Times,serif" font-size="14.00" fill="#000000">TranscationMetaData</text>
</g>
<!-- prepareIncrementProducerEpoch -->
<g id="node11" class="node">
<title>prepareIncrementProducerEpoch</title>
<polygon fill="none" stroke="#000000" points="489.2451,-462 288.2158,-462 288.2158,-426 489.2451,-426 489.2451,-462"/>
<text text-anchor="middle" x="388.7305" y="-439.8" font-family="Times,serif" font-size="14.00" fill="#000000">prepareIncrementProducerEpoch</text>
</g>
<!-- prepareAddPartitions -->
<g id="node12" class="node">
<title>prepareAddPartitions</title>
<polygon fill="none" stroke="#000000" points="456.4758,-570 320.9851,-570 320.9851,-534 456.4758,-534 456.4758,-570"/>
<text text-anchor="middle" x="388.7305" y="-547.8" font-family="Times,serif" font-size="14.00" fill="#000000">prepareAddPartitions</text>
</g>
<!-- getTransactionState -->
<g id="node13" class="node">
<title>getTransactionState</title>
<polygon fill="none" stroke="#000000" points="451.9252,-1016 325.5358,-1016 325.5358,-980 451.9252,-980 451.9252,-1016"/>
<text text-anchor="middle" x="388.7305" y="-993.8" font-family="Times,serif" font-size="14.00" fill="#000000">getTransactionState</text>
</g>
<!-- appendTransactionToLog -->
<g id="node14" class="node">
<title>appendTransactionToLog</title>
<polygon fill="none" stroke="#000000" points="468.3819,-962 309.079,-962 309.079,-926 468.3819,-926 468.3819,-962"/>
<text text-anchor="middle" x="388.7305" y="-939.8" font-family="Times,serif" font-size="14.00" fill="#000000">appendTransactionToLog</text>
</g>
<!-- handleInitProducerId -->
<g id="node15" class="node">
<title>handleInitProducerId</title>
<polygon fill="none" stroke="#000000" points="189.0933,-820 54.1753,-820 54.1753,-784 189.0933,-784 189.0933,-820"/>
<text text-anchor="middle" x="121.6343" y="-797.8" font-family="Times,serif" font-size="14.00" fill="#000000">handleInitProducerId</text>
</g>
<!-- handleInitProducerId&#45;&gt;generateProducerId -->
<g id="edge8" class="edge">
<title>handleInitProducerId&#45;&gt;generateProducerId</title>
<path fill="none" stroke="#000000" d="M189.3199,-797.3906C203.7306,-793.2532 217.5214,-786.3406 227.2686,-775 279.8179,-713.8594 216.5186,-479.6814 263.2686,-414 276.1802,-395.8598 296.2146,-383.2499 316.5121,-374.5445"/>
<polygon fill="#000000" stroke="#000000" points="317.8489,-377.7795 325.8319,-370.8136 315.2473,-371.2808 317.8489,-377.7795"/>
</g>
<!-- handleInitProducerId&#45;&gt;TranscationMetaData -->
<g id="edge9" class="edge">
<title>handleInitProducerId&#45;&gt;TranscationMetaData</title>
<path fill="none" stroke="#000000" d="M189.2423,-797.0032C203.5674,-792.8689 217.3397,-786.055 227.2686,-775 302.2788,-691.4826 186.6741,-607.0669 263.2686,-525 275.6464,-511.7378 292.8421,-504.1805 310.5389,-500.0408"/>
<polygon fill="#000000" stroke="#000000" points="311.2708,-503.4639 320.3946,-498.078 309.9035,-496.5987 311.2708,-503.4639"/>
</g>
<!-- handleInitProducerId&#45;&gt;getTransactionState -->
<g id="edge10" class="edge">
<title>handleInitProducerId&#45;&gt;getTransactionState</title>
<path fill="none" stroke="#000000" d="M189.2459,-808.0103C203.3133,-812.1306 216.9724,-818.6837 227.2686,-829 273.2617,-875.083 216.4021,-925.8055 263.2686,-971 277.2673,-984.4994 296.3054,-991.9322 315.3189,-995.8659"/>
<polygon fill="#000000" stroke="#000000" points="314.7762,-999.3241 325.2327,-997.6176 315.9943,-992.4309 314.7762,-999.3241"/>
</g>
<!-- handleInitProducerId&#45;&gt;appendTransactionToLog -->
<g id="edge11" class="edge">
<title>handleInitProducerId&#45;&gt;appendTransactionToLog</title>
<path fill="none" stroke="#000000" d="M189.2381,-809.5244C202.9805,-813.5939 216.5043,-819.7439 227.2686,-829 258.3758,-855.7488 231.9545,-887.4936 263.2686,-914 273.7225,-922.849 286.3418,-929.1821 299.4952,-933.6965"/>
<polygon fill="#000000" stroke="#000000" points="298.5566,-937.0696 309.1439,-936.6721 300.6195,-930.3805 298.5566,-937.0696"/>
</g>
<!-- putTransactionStateIfNotExists -->
<g id="node16" class="node">
<title>putTransactionStateIfNotExists</title>
<polygon fill="none" stroke="#000000" points="484.7627,-874 292.6982,-874 292.6982,-838 484.7627,-838 484.7627,-874"/>
<text text-anchor="middle" x="388.7305" y="-851.8" font-family="Times,serif" font-size="14.00" fill="#000000">putTransactionStateIfNotExists</text>
</g>
<!-- handleInitProducerId&#45;&gt;putTransactionStateIfNotExists -->
<g id="edge12" class="edge">
<title>handleInitProducerId&#45;&gt;putTransactionStateIfNotExists</title>
<path fill="none" stroke="#000000" d="M189.3792,-815.6963C219.6325,-821.8127 255.8922,-829.1435 289.1434,-835.866"/>
<polygon fill="#000000" stroke="#000000" points="288.8608,-839.3797 299.3561,-837.9308 290.248,-832.5185 288.8608,-839.3797"/>
</g>
<!-- handleEndTransaction -->
<g id="node17" class="node">
<title>handleEndTransaction</title>
<polygon fill="none" stroke="#000000" points="459.698,-820 317.7629,-820 317.7629,-784 459.698,-784 459.698,-820"/>
<text text-anchor="middle" x="388.7305" y="-797.8" font-family="Times,serif" font-size="14.00" fill="#000000">handleEndTransaction</text>
</g>
<!-- handleInitProducerId&#45;&gt;handleEndTransaction -->
<g id="edge13" class="edge">
<title>handleInitProducerId&#45;&gt;handleEndTransaction</title>
<path fill="none" stroke="#000000" d="M189.3792,-802C225.2616,-802 269.5934,-802 307.3333,-802"/>
<polygon fill="#000000" stroke="#000000" points="307.7906,-805.5001 317.7905,-802 307.7905,-798.5001 307.7906,-805.5001"/>
</g>
<!-- logInvalidStateTransitionAndReturnError -->
<g id="node24" class="node">
<title>logInvalidStateTransitionAndReturnError</title>
<polygon fill="none" stroke="#000000" points="800.717,-820 550.0173,-820 550.0173,-784 800.717,-784 800.717,-820"/>
<text text-anchor="middle" x="675.3672" y="-797.8" font-family="Times,serif" font-size="14.00" fill="#000000">logInvalidStateTransitionAndReturnError</text>
</g>
<!-- handleEndTransaction&#45;&gt;logInvalidStateTransitionAndReturnError -->
<g id="edge21" class="edge">
<title>handleEndTransaction&#45;&gt;logInvalidStateTransitionAndReturnError</title>
<path fill="none" stroke="#000000" d="M459.5845,-802C483.947,-802 512.1005,-802 539.862,-802"/>
<polygon fill="#000000" stroke="#000000" points="540.0644,-805.5001 550.0644,-802 540.0644,-798.5001 540.0644,-805.5001"/>
</g>
<!-- handleAddPartitionsToTransaction -->
<g id="node18" class="node">
<title>handleAddPartitionsToTransaction</title>
<polygon fill="none" stroke="#000000" points="227.403,-874 15.8656,-874 15.8656,-838 227.403,-838 227.403,-874"/>
<text text-anchor="middle" x="121.6343" y="-851.8" font-family="Times,serif" font-size="14.00" fill="#000000">handleAddPartitionsToTransaction</text>
</g>
<!-- handleAddPartitionsToTransaction&#45;&gt;prepareAddPartitions -->
<g id="edge14" class="edge">
<title>handleAddPartitionsToTransaction&#45;&gt;prepareAddPartitions</title>
<path fill="none" stroke="#000000" d="M217.0956,-837.9201C220.7774,-835.3082 224.1995,-832.3495 227.2686,-829 293.9068,-756.2736 203.5459,-688.5047 263.2686,-610 275.5112,-593.9072 293.2873,-582.1245 311.6277,-573.5582"/>
<polygon fill="#000000" stroke="#000000" points="313.1854,-576.6972 320.9479,-569.4865 310.3831,-570.2826 313.1854,-576.6972"/>
</g>
<!-- handleAddPartitionsToTransaction&#45;&gt;getTransactionState -->
<g id="edge15" class="edge">
<title>handleAddPartitionsToTransaction&#45;&gt;getTransactionState</title>
<path fill="none" stroke="#000000" d="M138.4907,-874.302C163.2668,-900.0334 212.142,-946.4933 263.2686,-971 279.3079,-978.6882 297.5445,-984.207 315.0481,-988.1618"/>
<polygon fill="#000000" stroke="#000000" points="314.7399,-991.6738 325.2471,-990.3142 316.1853,-984.8247 314.7399,-991.6738"/>
</g>
<!-- handleAddPartitionsToTransaction&#45;&gt;appendTransactionToLog -->
<g id="edge16" class="edge">
<title>handleAddPartitionsToTransaction&#45;&gt;appendTransactionToLog</title>
<path fill="none" stroke="#000000" d="M161.0139,-874.04C189.1007,-886.4315 227.9878,-902.6328 263.2686,-914 274.7903,-917.7122 287.0396,-921.1942 299.1957,-924.3778"/>
<polygon fill="#000000" stroke="#000000" points="298.3532,-927.7749 308.9089,-926.8656 300.09,-920.9938 298.3532,-927.7749"/>
</g>
<!-- handleTxnEmigration -->
<g id="node19" class="node">
<title>handleTxnEmigration</title>
<polygon fill="none" stroke="#000000" points="190.9898,-766 52.2787,-766 52.2787,-730 190.9898,-730 190.9898,-766"/>
<text text-anchor="middle" x="121.6343" y="-743.8" font-family="Times,serif" font-size="14.00" fill="#000000">handleTxnEmigration</text>
</g>
<!-- removeMarkersForTxnTopicPartition -->
<g id="node20" class="node">
<title>removeMarkersForTxnTopicPartition</title>
<polygon fill="none" stroke="#000000" points="501.7573,-712 275.7036,-712 275.7036,-676 501.7573,-676 501.7573,-712"/>
<text text-anchor="middle" x="388.7305" y="-689.8" font-family="Times,serif" font-size="14.00" fill="#000000">removeMarkersForTxnTopicPartition</text>
</g>
<!-- handleTxnEmigration&#45;&gt;removeMarkersForTxnTopicPartition -->
<g id="edge17" class="edge">
<title>handleTxnEmigration&#45;&gt;removeMarkersForTxnTopicPartition</title>
<path fill="none" stroke="#000000" d="M191.1134,-733.9531C221.0902,-727.8926 256.7111,-720.6909 289.3993,-714.0822"/>
<polygon fill="#000000" stroke="#000000" points="290.3322,-717.4645 299.4403,-712.0522 288.945,-710.6033 290.3322,-717.4645"/>
</g>
<!-- removeTransactionsForTxnTopicPartition -->
<g id="node21" class="node">
<title>removeTransactionsForTxnTopicPartition</title>
<polygon fill="none" stroke="#000000" points="514.1543,-766 263.3066,-766 263.3066,-730 514.1543,-730 514.1543,-766"/>
<text text-anchor="middle" x="388.7305" y="-743.8" font-family="Times,serif" font-size="14.00" fill="#000000">removeTransactionsForTxnTopicPartition</text>
</g>
<!-- handleTxnEmigration&#45;&gt;removeTransactionsForTxnTopicPartition -->
<g id="edge18" class="edge">
<title>handleTxnEmigration&#45;&gt;removeTransactionsForTxnTopicPartition</title>
<path fill="none" stroke="#000000" d="M191.1134,-748C210.1948,-748 231.5632,-748 253.0064,-748"/>
<polygon fill="#000000" stroke="#000000" points="253.1912,-751.5001 263.1912,-748 253.1911,-744.5001 253.1912,-751.5001"/>
</g>
<!-- handleTxnImmigration -->
<g id="node22" class="node">
<title>handleTxnImmigration</title>
<polygon fill="none" stroke="#000000" points="194.4898,-712 48.7787,-712 48.7787,-676 194.4898,-676 194.4898,-712"/>
<text text-anchor="middle" x="121.6343" y="-689.8" font-family="Times,serif" font-size="14.00" fill="#000000">handleTxnImmigration</text>
</g>
<!-- handleTxnImmigration&#45;&gt;removeMarkersForTxnTopicPartition -->
<g id="edge19" class="edge">
<title>handleTxnImmigration&#45;&gt;removeMarkersForTxnTopicPartition</title>
<path fill="none" stroke="#000000" d="M194.6195,-694C216.6116,-694 241.3836,-694 265.6886,-694"/>
<polygon fill="#000000" stroke="#000000" points="265.6997,-697.5001 275.6996,-694 265.6996,-690.5001 265.6997,-697.5001"/>
</g>
<!-- loadTransactionsForTxnTopicPartition -->
<g id="node23" class="node">
<title>loadTransactionsForTxnTopicPartition</title>
<polygon fill="none" stroke="#000000" points="505.2783,-658 272.1826,-658 272.1826,-622 505.2783,-622 505.2783,-658"/>
<text text-anchor="middle" x="388.7305" y="-635.8" font-family="Times,serif" font-size="14.00" fill="#000000">loadTransactionsForTxnTopicPartition</text>
</g>
<!-- handleTxnImmigration&#45;&gt;loadTransactionsForTxnTopicPartition -->
<g id="edge20" class="edge">
<title>handleTxnImmigration&#45;&gt;loadTransactionsForTxnTopicPartition</title>
<path fill="none" stroke="#000000" d="M194.6195,-679.2443C223.888,-673.3269 258.0803,-666.4141 289.5427,-660.0532"/>
<polygon fill="#000000" stroke="#000000" points="290.544,-663.4217 299.6521,-658.0094 289.1568,-656.5605 290.544,-663.4217"/>
</g>
<!-- addTxnMarkersToSend -->
<g id="node25" class="node">
<title>addTxnMarkersToSend</title>
<polygon fill="none" stroke="#000000" points="195.6226,-658 47.646,-658 47.646,-622 195.6226,-622 195.6226,-658"/>
<text text-anchor="middle" x="121.6343" y="-635.8" font-family="Times,serif" font-size="14.00" fill="#000000">addTxnMarkersToSend</text>
</g>
<!-- startup -->
<g id="node26" class="node">
<title>startup</title>
<polygon fill="none" stroke="#000000" points="148.7379,-1123 94.5307,-1123 94.5307,-1087 148.7379,-1087 148.7379,-1123"/>
<text text-anchor="middle" x="121.6343" y="-1100.8" font-family="Times,serif" font-size="14.00" fill="#000000">startup</text>
</g>
<!-- schedule -->
<g id="node27" class="node">
<title>schedule</title>
<polygon fill="none" stroke="#000000" points="421.21,-1150 356.251,-1150 356.251,-1114 421.21,-1114 421.21,-1150"/>
<text text-anchor="middle" x="388.7305" y="-1127.8" font-family="Times,serif" font-size="14.00" fill="#000000">schedule</text>
</g>
<!-- startup&#45;&gt;schedule -->
<g id="edge22" class="edge">
<title>startup&#45;&gt;schedule</title>
<path fill="none" stroke="#000000" d="M148.7148,-1107.7375C195.1884,-1112.4354 290.4746,-1122.0676 345.9893,-1127.6794"/>
<polygon fill="#000000" stroke="#000000" points="345.9022,-1131.1884 356.2036,-1128.7119 346.6063,-1124.2239 345.9022,-1131.1884"/>
</g>
<!-- txnMarkerChannelManager_start -->
<g id="node29" class="node">
<title>txnMarkerChannelManager_start</title>
<polygon fill="none" stroke="#000000" points="489.8314,-1096 287.6295,-1096 287.6295,-1060 489.8314,-1060 489.8314,-1096"/>
<text text-anchor="middle" x="388.7305" y="-1073.8" font-family="Times,serif" font-size="14.00" fill="#000000">txnMarkerChannelManager_start</text>
</g>
<!-- startup&#45;&gt;txnMarkerChannelManager_start -->
<g id="edge24" class="edge">
<title>startup&#45;&gt;txnMarkerChannelManager_start</title>
<path fill="none" stroke="#000000" d="M148.7148,-1102.2625C179.05,-1099.196 230.1827,-1094.0271 277.4766,-1089.2463"/>
<polygon fill="#000000" stroke="#000000" points="277.9042,-1092.721 287.5015,-1088.233 277.2001,-1085.7565 277.9042,-1092.721"/>
</g>
<!-- abortTimedOutTransactions -->
<g id="node28" class="node">
<title>abortTimedOutTransactions</title>
<polygon fill="none" stroke="#000000" points="761.7383,-1150 588.996,-1150 588.996,-1114 761.7383,-1114 761.7383,-1150"/>
<text text-anchor="middle" x="675.3672" y="-1127.8" font-family="Times,serif" font-size="14.00" fill="#000000">abortTimedOutTransactions</text>
</g>
<!-- schedule&#45;&gt;abortTimedOutTransactions -->
<g id="edge23" class="edge">
<title>schedule&#45;&gt;abortTimedOutTransactions</title>
<path fill="none" stroke="#000000" d="M421.3323,-1132C459.3885,-1132 524.0749,-1132 578.6468,-1132"/>
<polygon fill="#000000" stroke="#000000" points="578.7102,-1135.5001 588.7101,-1132 578.7101,-1128.5001 578.7102,-1135.5001"/>
</g>
<!-- shutdown -->
<g id="node30" class="node">
<title>shutdown</title>
<polygon fill="none" stroke="#000000" points="157.084,-117 86.1846,-117 86.1846,-81 157.084,-81 157.084,-117"/>
<text text-anchor="middle" x="121.6343" y="-94.8" font-family="Times,serif" font-size="14.00" fill="#000000">shutdown</text>
</g>
<!-- shutdown&#45;&gt;producerIdManager_shutdown -->
<g id="edge25" class="edge">
<title>shutdown&#45;&gt;producerIdManager_shutdown</title>
<path fill="none" stroke="#000000" d="M141.4568,-117.1187C163.5757,-137.808 199.8528,-173.1779 227.2686,-207 245.4318,-229.4075 239.8552,-244.1532 263.2686,-261 278.1062,-271.6762 296.1148,-279.0003 313.8022,-284.0246"/>
<polygon fill="#000000" stroke="#000000" points="313.0127,-287.4358 323.5734,-286.5859 314.7877,-280.6646 313.0127,-287.4358"/>
</g>
<!-- scheduler_shutdown -->
<g id="node31" class="node">
<title>scheduler_shutdown</title>
<polygon fill="none" stroke="#000000" points="454.3203,-36 323.1406,-36 323.1406,0 454.3203,0 454.3203,-36"/>
<text text-anchor="middle" x="388.7305" y="-13.8" font-family="Times,serif" font-size="14.00" fill="#000000">scheduler_shutdown</text>
</g>
<!-- shutdown&#45;&gt;scheduler_shutdown -->
<g id="edge26" class="edge">
<title>shutdown&#45;&gt;scheduler_shutdown</title>
<path fill="none" stroke="#000000" d="M156.9171,-83.8253C185.2638,-72.0555 226.3049,-55.9544 263.2686,-45 279.1899,-40.2816 296.4749,-36.0221 312.98,-32.3541"/>
<polygon fill="#000000" stroke="#000000" points="314.1077,-35.6909 323.1369,-30.148 312.6218,-28.8504 314.1077,-35.6909"/>
</g>
<!-- txnManager_shutdown -->
<g id="node32" class="node">
<title>txnManager_shutdown</title>
<polygon fill="none" stroke="#000000" points="461.3203,-144 316.1406,-144 316.1406,-108 461.3203,-108 461.3203,-144"/>
<text text-anchor="middle" x="388.7305" y="-121.8" font-family="Times,serif" font-size="14.00" fill="#000000">txnManager_shutdown</text>
</g>
<!-- shutdown&#45;&gt;txnManager_shutdown -->
<g id="edge27" class="edge">
<title>shutdown&#45;&gt;txnManager_shutdown</title>
<path fill="none" stroke="#000000" d="M157.1026,-102.5854C194.8725,-106.4034 255.969,-112.5795 305.9324,-117.6302"/>
<polygon fill="#000000" stroke="#000000" points="305.7878,-121.1333 316.0891,-118.6569 306.4919,-114.1688 305.7878,-121.1333"/>
</g>
<!-- txnMarkerChannelManager_shutdown -->
<g id="node33" class="node">
<title>txnMarkerChannelManager_shutdown</title>
<polygon fill="none" stroke="#000000" points="505.1758,-90 272.2851,-90 272.2851,-54 505.1758,-54 505.1758,-90"/>
<text text-anchor="middle" x="388.7305" y="-67.8" font-family="Times,serif" font-size="14.00" fill="#000000">txnMarkerChannelManager_shutdown</text>
</g>
<!-- shutdown&#45;&gt;txnMarkerChannelManager_shutdown -->
<g id="edge28" class="edge">
<title>shutdown&#45;&gt;txnMarkerChannelManager_shutdown</title>
<path fill="none" stroke="#000000" d="M157.1026,-95.4146C184.2627,-92.6691 223.485,-88.7042 261.9558,-84.8153"/>
<polygon fill="#000000" stroke="#000000" points="262.6449,-88.2636 272.2422,-83.7755 261.9408,-81.2991 262.6449,-88.2636"/>
</g>
<!-- prepareInitProducerIdTransit -->
<g id="node34" class="node">
<title>prepareInitProducerIdTransit</title>
<polygon fill="none" stroke="#000000" points="210.9118,-252 32.3568,-252 32.3568,-216 210.9118,-216 210.9118,-252"/>
<text text-anchor="middle" x="121.6343" y="-229.8" font-family="Times,serif" font-size="14.00" fill="#000000">prepareInitProducerIdTransit</text>
</g>
<!-- prepareInitProducerIdTransit&#45;&gt;prepareIncrementProducerEpoch -->
<g id="edge29" class="edge">
<title>prepareInitProducerIdTransit&#45;&gt;prepareIncrementProducerEpoch</title>
<path fill="none" stroke="#000000" d="M130.5107,-252.1036C149.4761,-288.7907 197.628,-371.9806 263.2686,-414 268.1624,-417.1327 273.3529,-419.9386 278.7297,-422.4517"/>
<polygon fill="#000000" stroke="#000000" points="277.3657,-425.675 287.935,-426.4107 280.1314,-419.2445 277.3657,-425.675"/>
</g>
<!-- prepareProducerIdRotation -->
<g id="node35" class="node">
<title>prepareProducerIdRotation</title>
<polygon fill="none" stroke="#000000" points="473.1176,-198 304.3433,-198 304.3433,-162 473.1176,-162 473.1176,-198"/>
<text text-anchor="middle" x="388.7305" y="-175.8" font-family="Times,serif" font-size="14.00" fill="#000000">prepareProducerIdRotation</text>
</g>
<!-- prepareInitProducerIdTransit&#45;&gt;prepareProducerIdRotation -->
<g id="edge30" class="edge">
<title>prepareInitProducerIdTransit&#45;&gt;prepareProducerIdRotation</title>
<path fill="none" stroke="#000000" d="M210.9448,-215.9437C237.8231,-210.5096 267.3965,-204.5306 294.5785,-199.0351"/>
<polygon fill="#000000" stroke="#000000" points="295.3671,-202.4466 304.4752,-197.0342 293.9799,-195.5854 295.3671,-202.4466"/>
</g>
<!-- isProducerEpochExhausted -->
<g id="node36" class="node">
<title>isProducerEpochExhausted</title>
<polygon fill="none" stroke="#000000" points="473.6895,-252 303.7715,-252 303.7715,-216 473.6895,-216 473.6895,-252"/>
<text text-anchor="middle" x="388.7305" y="-229.8" font-family="Times,serif" font-size="14.00" fill="#000000">isProducerEpochExhausted</text>
</g>
<!-- prepareInitProducerIdTransit&#45;&gt;isProducerEpochExhausted -->
<g id="edge31" class="edge">
<title>prepareInitProducerIdTransit&#45;&gt;isProducerEpochExhausted</title>
<path fill="none" stroke="#000000" d="M210.9448,-234C237.4362,-234 266.5458,-234 293.4034,-234"/>
<polygon fill="#000000" stroke="#000000" points="293.5764,-237.5001 303.5764,-234 293.5763,-230.5001 293.5764,-237.5001"/>
</g>
</g>
</svg>
