<?xml version="1.0" encoding="UTF-8" standalone="no"?>
<!DOCTYPE svg PUBLIC "-//W3C//DTD SVG 1.1//EN"
 "http://www.w3.org/Graphics/SVG/1.1/DTD/svg11.dtd">
<!-- Generated by graphviz version 2.40.1 (20161225.0304)
 -->
<!-- Title: events_handler Pages: 1 -->
<svg width="1617pt" height="408pt"
 viewBox="0.00 0.00 1616.59 408.00" xmlns="http://www.w3.org/2000/svg" xmlns:xlink="http://www.w3.org/1999/xlink">
<g id="graph0" class="graph" transform="scale(1 1) rotate(0) translate(4 404)">
<title>events_handler</title>
<polygon fill="#ffffff" stroke="transparent" points="-4,4 -4,-404 1612.5918,-404 1612.5918,4 -4,4"/>
<g id="clust1" class="cluster">
<title>cluster_OneSignalSDK</title>
<polygon fill="none" stroke="#000000" points="210.4482,-130 210.4482,-392 929.4058,-392 929.4058,-130 210.4482,-130"/>
<text text-anchor="middle" x="569.927" y="-372" font-family="Times,serif" font-size="20.00" fill="#000000">OneSignalSDK</text>
</g>
<g id="clust3" class="cluster">
<title>cluster_AnalyticsPlatform</title>
<polygon fill="none" stroke="#000000" points="996.2695,-25 996.2695,-247 1408.0537,-247 1408.0537,-25 996.2695,-25"/>
<text text-anchor="middle" x="1202.1616" y="-227" font-family="Times,serif" font-size="20.00" fill="#000000">AnalyticsPlatform</text>
</g>
<g id="clust4" class="cluster">
<title>cluster_ase</title>
<polygon fill="none" stroke="#000000" points="1018.8213,-77 1018.8213,-211 1400.0537,-211 1400.0537,-77 1018.8213,-77"/>
<text text-anchor="middle" x="1209.4375" y="-191" font-family="Times,serif" font-size="20.00" fill="#000000">FireBase</text>
</g>
<g id="clust6" class="cluster">
<title>cluster_OneSignalPlatform</title>
<polygon fill="none" stroke="#000000" points="1420.0537,-87 1420.0537,-201 1600.5918,-201 1600.5918,-87 1420.0537,-87"/>
<text text-anchor="middle" x="1510.3228" y="-181" font-family="Times,serif" font-size="20.00" fill="#000000">OneSignalPlatform</text>
</g>
<g id="clust7" class="cluster">
<title>cluster_AppIntegrationCode</title>
<polygon fill="none" stroke="#000000" points="772.7695,-8 772.7695,-122 976.2695,-122 976.2695,-8 772.7695,-8"/>
<text text-anchor="middle" x="874.5195" y="-102" font-family="Times,serif" font-size="20.00" fill="#000000">AppIntegrationCode</text>
</g>
<!-- Notification -->
<g id="node1" class="node">
<title>Notification</title>
<polygon fill="none" stroke="#000000" points="0,-266.4001 0,-335.5999 182.4482,-335.5999 182.4482,-266.4001 0,-266.4001"/>
<text text-anchor="middle" x="91.2241" y="-320.3999" font-family="Times,serif" font-size="14.00" fill="#000000">Notification</text>
<polyline fill="none" stroke="#000000" points="0,-313.5999 182.4482,-313.5999 "/>
<text text-anchor="start" x="8" y="-298.3999" font-family="Times,serif" font-size="14.00" fill="#000000">通知数据通过各种push渠道</text>
<text text-anchor="start" x="8" y="-278.8" font-family="Times,serif" font-size="14.00" fill="#000000"> push到设备上</text>
</g>
<!-- OneSignalSDK -->
<g id="node2" class="node">
<title>OneSignalSDK</title>
<polygon fill="none" stroke="#000000" points="321.6138,-319 218.393,-319 218.393,-283 321.6138,-283 321.6138,-319"/>
<text text-anchor="middle" x="270.0034" y="-296.8" font-family="Times,serif" font-size="14.00" fill="#000000">OneSignalSDK</text>
</g>
<!-- Notification&#45;&gt;OneSignalSDK -->
<g id="edge1" class="edge">
<title>Notification&#45;&gt;OneSignalSDK</title>
<path fill="none" stroke="#666666" d="M182.7087,-301C191.2862,-301 199.838,-301 208.0479,-301"/>
<polygon fill="#666666" stroke="#666666" points="208.2406,-304.5001 218.2405,-301 208.2405,-297.5001 208.2406,-304.5001"/>
</g>
<!-- Events -->
<g id="node3" class="node">
<title>Events</title>
<polygon fill="none" stroke="#000000" points="357.5586,-229.4001 357.5586,-298.5999 528.7139,-298.5999 528.7139,-229.4001 357.5586,-229.4001"/>
<text text-anchor="middle" x="443.1362" y="-283.3999" font-family="Times,serif" font-size="14.00" fill="#000000">Events</text>
<polyline fill="none" stroke="#000000" points="357.5586,-276.5999 528.7139,-276.5999 "/>
<text text-anchor="start" x="365.5586" y="-261.3999" font-family="Times,serif" font-size="14.00" fill="#000000">用户的各种操作,onesignal</text>
<text text-anchor="start" x="365.5586" y="-241.8" font-family="Times,serif" font-size="14.00" fill="#000000"> sdk会调用相应的回调</text>
</g>
<!-- OneSignalSDK&#45;&gt;Events -->
<g id="edge2" class="edge">
<title>OneSignalSDK&#45;&gt;Events</title>
<path fill="none" stroke="#666666" d="M321.949,-289.8988C330.1266,-288.1511 338.7978,-286.298 347.5939,-284.4182"/>
<polygon fill="#666666" stroke="#666666" points="348.5108,-287.8014 357.5585,-282.2887 347.0478,-280.956 348.5108,-287.8014"/>
</g>
<!-- FireBaseSDK -->
<g id="node4" class="node">
<title>FireBaseSDK</title>
<polygon fill="none" stroke="#000000" points="921.2923,-265 827.7468,-265 827.7468,-229 921.2923,-229 921.2923,-265"/>
<text text-anchor="middle" x="874.5195" y="-242.8" font-family="Times,serif" font-size="14.00" fill="#000000">FireBaseSDK</text>
</g>
<!-- OneSignalSDK&#45;&gt;FireBaseSDK -->
<g id="edge3" class="edge">
<title>OneSignalSDK&#45;&gt;FireBaseSDK</title>
<path fill="none" stroke="#666666" d="M321.1148,-319.0205C409.8404,-347.4221 597.0204,-394.5275 744.7695,-345 787.2766,-330.7511 826.9782,-296.466 850.9964,-272.4877"/>
<polygon fill="#666666" stroke="#666666" points="853.7316,-274.697 858.2271,-265.1032 848.7301,-269.7996 853.7316,-274.697"/>
</g>
<!-- NotificationReceivedHandler -->
<g id="node5" class="node">
<title>NotificationReceivedHandler</title>
<polygon fill="none" stroke="#000000" points="744.7974,-174 564.686,-174 564.686,-138 744.7974,-138 744.7974,-174"/>
<text text-anchor="middle" x="654.7417" y="-151.8" font-family="Times,serif" font-size="14.00" fill="#000000">NotificationReceivedHandler</text>
</g>
<!-- Events&#45;&gt;NotificationReceivedHandler -->
<g id="edge4" class="edge">
<title>Events&#45;&gt;NotificationReceivedHandler</title>
<path fill="none" stroke="#666666" d="M488.2756,-229.2571C510.3942,-213.4776 537.9748,-195.5732 564.7139,-183 568.7262,-181.1133 572.9011,-179.323 577.1587,-177.6297"/>
<polygon fill="#666666" stroke="#666666" points="578.4578,-180.8805 586.5808,-174.0785 575.9889,-174.3304 578.4578,-180.8805"/>
</g>
<!-- NotificationOpenedHandler -->
<g id="node6" class="node">
<title>NotificationOpenedHandler</title>
<polygon fill="none" stroke="#000000" points="740.2531,-228 569.2303,-228 569.2303,-192 740.2531,-192 740.2531,-228"/>
<text text-anchor="middle" x="654.7417" y="-205.8" font-family="Times,serif" font-size="14.00" fill="#000000">NotificationOpenedHandler</text>
</g>
<!-- Events&#45;&gt;NotificationOpenedHandler -->
<g id="edge5" class="edge">
<title>Events&#45;&gt;NotificationOpenedHandler</title>
<path fill="none" stroke="#666666" d="M528.8992,-242.114C543.7925,-238.3133 559.2356,-234.3724 573.9892,-230.6074"/>
<polygon fill="#666666" stroke="#666666" points="575.2539,-233.8969 584.0779,-228.0328 573.523,-227.1143 575.2539,-233.8969"/>
</g>
<!-- addPermissionObserver -->
<g id="node7" class="node">
<title>addPermissionObserver</title>
<polygon fill="none" stroke="#000000" points="729.4939,-282 579.9895,-282 579.9895,-246 729.4939,-246 729.4939,-282"/>
<text text-anchor="middle" x="654.7417" y="-259.8" font-family="Times,serif" font-size="14.00" fill="#000000">addPermissionObserver</text>
</g>
<!-- Events&#45;&gt;addPermissionObserver -->
<g id="edge6" class="edge">
<title>Events&#45;&gt;addPermissionObserver</title>
<path fill="none" stroke="#666666" d="M528.8992,-264C542.3193,-264 556.1858,-264 569.592,-264"/>
<polygon fill="#666666" stroke="#666666" points="569.7391,-267.5001 579.7391,-264 569.739,-260.5001 569.7391,-267.5001"/>
</g>
<!-- addSubscriptionObserver -->
<g id="node8" class="node">
<title>addSubscriptionObserver</title>
<polygon fill="none" stroke="#000000" points="734.0457,-336 575.4377,-336 575.4377,-300 734.0457,-300 734.0457,-336"/>
<text text-anchor="middle" x="654.7417" y="-313.8" font-family="Times,serif" font-size="14.00" fill="#000000">addSubscriptionObserver</text>
</g>
<!-- Events&#45;&gt;addSubscriptionObserver -->
<g id="edge7" class="edge">
<title>Events&#45;&gt;addSubscriptionObserver</title>
<path fill="none" stroke="#666666" d="M528.8992,-285.886C543.7925,-289.6867 559.2356,-293.6276 573.9892,-297.3926"/>
<polygon fill="#666666" stroke="#666666" points="573.523,-300.8857 584.0779,-299.9672 575.2539,-294.1031 573.523,-300.8857"/>
</g>
<!-- FireBase -->
<g id="node10" class="node">
<title>FireBase</title>
<polygon fill="none" stroke="#000000" points="1092.4701,-148 1026.9381,-148 1026.9381,-112 1092.4701,-112 1092.4701,-148"/>
<text text-anchor="middle" x="1059.7041" y="-125.8" font-family="Times,serif" font-size="14.00" fill="#000000">FireBase</text>
</g>
<!-- FireBaseSDK&#45;&gt;FireBase -->
<g id="edge19" class="edge">
<title>FireBaseSDK&#45;&gt;FireBase</title>
<path fill="none" stroke="#666666" stroke-dasharray="5,2" d="M903.0488,-228.9752C935.1297,-208.7064 987.3352,-175.7228 1022.5721,-153.4601"/>
<polygon fill="#666666" stroke="#666666" points="1024.5578,-156.3456 1031.1424,-148.0453 1020.8189,-150.4277 1024.5578,-156.3456"/>
</g>
<!-- CustomHandler -->
<g id="node15" class="node">
<title>CustomHandler</title>
<polygon fill="none" stroke="#000000" points="780.7695,-16.4001 780.7695,-85.5999 968.2695,-85.5999 968.2695,-16.4001 780.7695,-16.4001"/>
<text text-anchor="middle" x="874.5195" y="-70.3999" font-family="Times,serif" font-size="14.00" fill="#000000">CustomHandler</text>
<polyline fill="none" stroke="#000000" points="780.7695,-63.5999 968.2695,-63.5999 "/>
<text text-anchor="start" x="788.7695" y="-48.3999" font-family="Times,serif" font-size="14.00" fill="#000000">用户监听这些事件，将事件</text>
<text text-anchor="start" x="788.7695" y="-28.8" font-family="Times,serif" font-size="14.00" fill="#000000"> 数据上传到第三方分析平台</text>
</g>
<!-- NotificationReceivedHandler&#45;&gt;CustomHandler -->
<g id="edge13" class="edge">
<title>NotificationReceivedHandler&#45;&gt;CustomHandler</title>
<path fill="none" stroke="#666666" d="M692.5229,-137.9499C720.0124,-124.8166 758.2808,-106.5337 792.6361,-90.1202"/>
<polygon fill="#666666" stroke="#666666" points="794.2278,-93.2388 801.7421,-85.7698 791.2101,-86.9226 794.2278,-93.2388"/>
</g>
<!-- NotificationOpenedHandler&#45;&gt;CustomHandler -->
<g id="edge14" class="edge">
<title>NotificationOpenedHandler&#45;&gt;CustomHandler</title>
<path fill="none" stroke="#666666" d="M731.7496,-191.912C736.3902,-189.3281 740.7852,-186.375 744.7695,-183 766.3064,-164.7571 754.6708,-147.6582 772.7695,-126 783.1993,-113.519 796.1187,-101.9783 809.2119,-91.8797"/>
<polygon fill="#666666" stroke="#666666" points="811.4531,-94.5742 817.366,-85.7827 807.2613,-88.968 811.4531,-94.5742"/>
</g>
<!-- addPermissionObserver&#45;&gt;CustomHandler -->
<g id="edge15" class="edge">
<title>addPermissionObserver&#45;&gt;CustomHandler</title>
<path fill="none" stroke="#666666" d="M729.6551,-248.6012C735.2221,-245.4224 740.3703,-241.5984 744.7695,-237 779.941,-200.2358 744.4056,-168.2389 772.7695,-126 781.3501,-113.222 792.8664,-101.8161 805.0658,-91.9896"/>
<polygon fill="#666666" stroke="#666666" points="807.3675,-94.6347 813.1571,-85.7617 803.0978,-89.0876 807.3675,-94.6347"/>
</g>
<!-- addSubscriptionObserver&#45;&gt;CustomHandler -->
<g id="edge16" class="edge">
<title>addSubscriptionObserver&#45;&gt;CustomHandler</title>
<path fill="none" stroke="#666666" d="M734.1737,-300.325C738.0569,-297.6349 741.6359,-294.5459 744.7695,-291 794.0256,-235.2642 733.774,-189.3403 772.7695,-126 780.7444,-113.0464 791.8604,-101.6091 803.8318,-91.8165"/>
<polygon fill="#666666" stroke="#666666" points="806.054,-94.5222 811.7979,-85.6195 801.7558,-88.9971 806.054,-94.5222"/>
</g>
<!-- GoogleAnalytics -->
<g id="node9" class="node">
<title>GoogleAnalytics</title>
<polygon fill="none" stroke="#000000" points="1115.0733,-69 1004.3349,-69 1004.3349,-33 1115.0733,-33 1115.0733,-69"/>
<text text-anchor="middle" x="1059.7041" y="-46.8" font-family="Times,serif" font-size="14.00" fill="#000000">GoogleAnalytics</text>
</g>
<!-- RealTimeDatabase -->
<g id="node11" class="node">
<title>RealTimeDatabase</title>
<polygon fill="none" stroke="#000000" points="1273.1665,-121 1151.1294,-121 1151.1294,-85 1273.1665,-85 1273.1665,-121"/>
<text text-anchor="middle" x="1212.1479" y="-98.8" font-family="Times,serif" font-size="14.00" fill="#000000">RealTimeDatabase</text>
</g>
<!-- FireBase&#45;&gt;RealTimeDatabase -->
<g id="edge8" class="edge">
<title>FireBase&#45;&gt;RealTimeDatabase</title>
<path fill="none" stroke="#666666" d="M1092.7821,-124.1414C1106.9833,-121.6262 1124.1636,-118.5833 1141.0112,-115.5993"/>
<polygon fill="#666666" stroke="#666666" points="1141.631,-119.0441 1150.8673,-113.8537 1140.4101,-112.1514 1141.631,-119.0441"/>
</g>
<!-- CloudStorage -->
<g id="node12" class="node">
<title>CloudStorage</title>
<polygon fill="none" stroke="#000000" points="1258.6411,-175 1165.6548,-175 1165.6548,-139 1258.6411,-139 1258.6411,-175"/>
<text text-anchor="middle" x="1212.1479" y="-152.8" font-family="Times,serif" font-size="14.00" fill="#000000">CloudStorage</text>
</g>
<!-- FireBase&#45;&gt;CloudStorage -->
<g id="edge9" class="edge">
<title>FireBase&#45;&gt;CloudStorage</title>
<path fill="none" stroke="#666666" d="M1092.7821,-135.8586C1111.152,-139.1122 1134.5069,-143.2487 1155.6782,-146.9984"/>
<polygon fill="#666666" stroke="#666666" points="1155.087,-150.4481 1165.5441,-148.7458 1156.3078,-143.5553 1155.087,-150.4481"/>
</g>
<!-- AdminSDK -->
<g id="node13" class="node">
<title>AdminSDK</title>
<polygon fill="none" stroke="#000000" points="1392.002,-148 1309.2089,-148 1309.2089,-112 1392.002,-112 1392.002,-148"/>
<text text-anchor="middle" x="1350.6055" y="-125.8" font-family="Times,serif" font-size="14.00" fill="#000000">AdminSDK</text>
</g>
<!-- RealTimeDatabase&#45;&gt;AdminSDK -->
<g id="edge10" class="edge">
<title>RealTimeDatabase&#45;&gt;AdminSDK</title>
<path fill="none" stroke="#666666" d="M1273.2805,-114.9212C1281.8299,-116.5884 1290.5463,-118.2881 1298.8985,-119.9168"/>
<polygon fill="#666666" stroke="#666666" points="1298.385,-123.3826 1308.87,-121.8614 1299.7248,-116.512 1298.385,-123.3826"/>
</g>
<!-- CloudStorage&#45;&gt;AdminSDK -->
<g id="edge11" class="edge">
<title>CloudStorage&#45;&gt;AdminSDK</title>
<path fill="none" stroke="#666666" d="M1259.0233,-147.859C1271.9018,-145.3477 1285.9364,-142.6108 1299.0619,-140.0513"/>
<polygon fill="#666666" stroke="#666666" points="1299.7424,-143.4846 1308.8876,-138.1352 1298.4026,-136.614 1299.7424,-143.4846"/>
</g>
<!-- OneSignalPlatform -->
<g id="node14" class="node">
<title>OneSignalPlatform</title>
<polygon fill="none" stroke="#000000" points="1428.0537,-95.4001 1428.0537,-164.5999 1592.5918,-164.5999 1592.5918,-95.4001 1428.0537,-95.4001"/>
<text text-anchor="middle" x="1510.3228" y="-149.3999" font-family="Times,serif" font-size="14.00" fill="#000000">OneSignalPlatform</text>
<polyline fill="none" stroke="#000000" points="1428.0537,-142.5999 1592.5918,-142.5999 "/>
<text text-anchor="start" x="1436.0537" y="-127.3999" font-family="Times,serif" font-size="14.00" fill="#000000">使用firebase的adminSDK</text>
<text text-anchor="start" x="1436.0537" y="-107.8" font-family="Times,serif" font-size="14.00" fill="#000000"> 去firebase中取数据？</text>
</g>
<!-- AdminSDK&#45;&gt;OneSignalPlatform -->
<g id="edge12" class="edge">
<title>AdminSDK&#45;&gt;OneSignalPlatform</title>
<path fill="none" stroke="#666666" d="M1392.1524,-130C1400.1438,-130 1408.8061,-130 1417.6848,-130"/>
<polygon fill="#666666" stroke="#666666" points="1417.7768,-133.5001 1427.7768,-130 1417.7767,-126.5001 1417.7768,-133.5001"/>
</g>
<!-- CustomHandler&#45;&gt;GoogleAnalytics -->
<g id="edge17" class="edge">
<title>CustomHandler&#45;&gt;GoogleAnalytics</title>
<path fill="none" stroke="#666666" d="M968.4681,-51C977.0295,-51 985.5754,-51 993.8129,-51"/>
<polygon fill="#666666" stroke="#666666" points="994.0603,-54.5001 1004.0603,-51 994.0602,-47.5001 994.0603,-54.5001"/>
</g>
<!-- CustomHandler&#45;&gt;FireBase -->
<g id="edge18" class="edge">
<title>CustomHandler&#45;&gt;FireBase</title>
<path fill="none" stroke="#666666" d="M945.4311,-85.712C961.9712,-93.3852 979.6198,-101.2367 996.2695,-108 1003.026,-110.7445 1010.2686,-113.4615 1017.3563,-116.0006"/>
<polygon fill="#666666" stroke="#666666" points="1016.2703,-119.3287 1026.8651,-119.3384 1018.5888,-112.7238 1016.2703,-119.3287"/>
</g>
</g>
</svg>
