<?xml version="1.0" encoding="UTF-8" standalone="no"?>
<!DOCTYPE svg PUBLIC "-//W3C//DTD SVG 1.1//EN"
 "http://www.w3.org/Graphics/SVG/1.1/DTD/svg11.dtd">
<!-- Generated by graphviz version 2.44.0 (20200408.0750)
 -->
<!-- Title: nodetree Pages: 1 -->
<svg width="789pt" height="326pt"
 viewBox="0.00 0.00 789.00 325.50" xmlns="http://www.w3.org/2000/svg" xmlns:xlink="http://www.w3.org/1999/xlink">
<g id="graph0" class="graph" transform="scale(1 1) rotate(0) translate(4 321.5)">
<title>nodetree</title>
<polygon fill="white" stroke="transparent" points="-4,4 -4,-321.5 785,-321.5 785,4 -4,4"/>
<!-- node1 -->
<g id="node1" class="node">
<title>node1</title>
<polygon fill="none" stroke="black" points="314,-107.5 314,-252.5 539,-252.5 539,-107.5 314,-107.5"/>
<text text-anchor="middle" x="426.5" y="-237.3" font-family="Times,serif" font-size="14.00">node</text>
<polyline fill="none" stroke="black" points="314,-229.5 539,-229.5 "/>
<text text-anchor="start" x="322" y="-214.3" font-family="Times,serif" font-size="14.00">name</text>
<polyline fill="none" stroke="black" points="314,-206.5 539,-206.5 "/>
<text text-anchor="start" x="322" y="-191.3" font-family="Times,serif" font-size="14.00">group(tags) 每个node可以有多个tag</text>
<polyline fill="none" stroke="black" points="314,-183.5 539,-183.5 "/>
<text text-anchor="start" x="322" y="-168.3" font-family="Times,serif" font-size="14.00">editable property:</text>
<text text-anchor="start" x="322" y="-153.3" font-family="Times,serif" font-size="14.00"> 可以在编辑器中编辑的属性</text>
<polyline fill="none" stroke="black" points="314,-145.5 539,-145.5 "/>
<text text-anchor="start" x="322" y="-130.3" font-family="Times,serif" font-size="14.00">callback per frame:</text>
<text text-anchor="start" x="322" y="-115.3" font-family="Times,serif" font-size="14.00"> 每帧的回调</text>
</g>
<!-- AddToGroup -->
<g id="node2" class="node">
<title>AddToGroup</title>
<polygon fill="none" stroke="black" points="582,-271 582,-317 684,-317 684,-271 582,-271"/>
<text text-anchor="middle" x="633" y="-301.8" font-family="Times,serif" font-size="14.00">AddToGroup</text>
<polyline fill="none" stroke="black" points="582,-294 684,-294 "/>
<text text-anchor="middle" x="633" y="-278.8" font-family="Times,serif" font-size="14.00">添加到某一组</text>
</g>
<!-- node1&#45;&gt;AddToGroup -->
<g id="edge1" class="edge">
<title>node1&#45;&gt;AddToGroup</title>
<path fill="none" stroke="#666666" d="M539.03,-242.17C553.91,-250.47 568.53,-258.62 581.61,-265.91"/>
<polygon fill="#666666" stroke="#666666" points="579.96,-269 590.4,-270.81 583.37,-262.89 579.96,-269"/>
</g>
<!-- GetNodesInGroup -->
<g id="node3" class="node">
<title>GetNodesInGroup</title>
<polygon fill="none" stroke="black" points="691,-252 575,-252 575,-216 691,-216 691,-252"/>
<text text-anchor="middle" x="633" y="-230.3" font-family="Times,serif" font-size="14.00">GetNodesInGroup</text>
</g>
<!-- node1&#45;&gt;GetNodesInGroup -->
<g id="edge2" class="edge">
<title>node1&#45;&gt;GetNodesInGroup</title>
<path fill="none" stroke="#666666" d="M539.03,-209.45C547.89,-211.79 556.67,-214.11 565.08,-216.33"/>
<polygon fill="#666666" stroke="#666666" points="564.2,-219.72 574.77,-218.89 565.99,-212.95 564.2,-219.72"/>
</g>
<!-- CallGroup -->
<g id="node4" class="node">
<title>CallGroup</title>
<polygon fill="none" stroke="black" points="670,-198 596,-198 596,-162 670,-162 670,-198"/>
<text text-anchor="middle" x="633" y="-176.3" font-family="Times,serif" font-size="14.00">CallGroup</text>
</g>
<!-- node1&#45;&gt;CallGroup -->
<g id="edge3" class="edge">
<title>node1&#45;&gt;CallGroup</title>
<path fill="none" stroke="#666666" d="M539.03,-180C555.41,-180 571.48,-180 585.52,-180"/>
<polygon fill="#666666" stroke="#666666" points="585.84,-183.5 595.83,-180 585.83,-176.5 585.84,-183.5"/>
</g>
<!-- node2 -->
<g id="node6" class="node">
<title>node2</title>
<polygon fill="none" stroke="black" points="660,-144 606,-144 606,-108 660,-108 660,-144"/>
<text text-anchor="middle" x="633" y="-122.3" font-family="Times,serif" font-size="14.00">node2</text>
</g>
<!-- node1&#45;&gt;node2 -->
<g id="edge4" class="edge">
<title>node1&#45;&gt;node2</title>
<path fill="none" stroke="#666666" d="M539.03,-150.55C559.57,-145.13 579.62,-139.83 595.8,-135.56"/>
<polygon fill="#666666" stroke="#666666" points="597.07,-138.84 605.85,-132.91 595.28,-132.08 597.07,-138.84"/>
</g>
<!-- node3 -->
<g id="node7" class="node">
<title>node3</title>
<polygon fill="none" stroke="black" points="660,-90 606,-90 606,-54 660,-54 660,-90"/>
<text text-anchor="middle" x="633" y="-68.3" font-family="Times,serif" font-size="14.00">node3</text>
</g>
<!-- node1&#45;&gt;node3 -->
<g id="edge5" class="edge">
<title>node1&#45;&gt;node3</title>
<path fill="none" stroke="#666666" d="M539.07,-117.82C551.14,-111.36 563.29,-104.98 575,-99 581.84,-95.51 589.21,-91.9 596.3,-88.51"/>
<polygon fill="#666666" stroke="#666666" points="598.19,-91.48 605.73,-84.04 595.2,-85.16 598.19,-91.48"/>
</g>
<!-- scene1 -->
<g id="node5" class="node">
<title>scene1</title>
<polygon fill="none" stroke="black" points="90,-134.5 90,-225.5 278,-225.5 278,-134.5 90,-134.5"/>
<text text-anchor="middle" x="184" y="-210.3" font-family="Times,serif" font-size="14.00">scene1</text>
<polyline fill="none" stroke="black" points="90,-202.5 278,-202.5 "/>
<text text-anchor="start" x="98" y="-187.3" font-family="Times,serif" font-size="14.00">1.至少有个root node</text>
<text text-anchor="start" x="98" y="-172.3" font-family="Times,serif" font-size="14.00"> 2.可以save/load disk</text>
<text text-anchor="start" x="98" y="-157.3" font-family="Times,serif" font-size="14.00"> 3.可以instance实例化</text>
<text text-anchor="start" x="98" y="-142.3" font-family="Times,serif" font-size="14.00"> 感觉有点想unity中的prefab?</text>
</g>
<!-- scene1&#45;&gt;node1 -->
<g id="edge11" class="edge">
<title>scene1&#45;&gt;node1</title>
<path fill="none" stroke="#666666" d="M278.33,-180C286.68,-180 295.21,-180 303.76,-180"/>
<polygon fill="#666666" stroke="#666666" points="303.78,-183.5 313.78,-180 303.78,-176.5 303.78,-183.5"/>
</g>
<!-- node4 -->
<g id="node8" class="node">
<title>node4</title>
<polygon fill="none" stroke="black" points="781,-198 727,-198 727,-162 781,-162 781,-198"/>
<text text-anchor="middle" x="754" y="-176.3" font-family="Times,serif" font-size="14.00">node4</text>
</g>
<!-- node2&#45;&gt;node4 -->
<g id="edge6" class="edge">
<title>node2&#45;&gt;node4</title>
<path fill="none" stroke="#666666" d="M660.12,-137.85C677.01,-145.52 699.22,-155.59 717.68,-163.97"/>
<polygon fill="#666666" stroke="#666666" points="716.39,-167.23 726.95,-168.18 719.29,-160.86 716.39,-167.23"/>
</g>
<!-- node5 -->
<g id="node9" class="node">
<title>node5</title>
<polygon fill="none" stroke="black" points="781,-144 727,-144 727,-108 781,-108 781,-144"/>
<text text-anchor="middle" x="754" y="-122.3" font-family="Times,serif" font-size="14.00">node5</text>
</g>
<!-- node2&#45;&gt;node5 -->
<g id="edge7" class="edge">
<title>node2&#45;&gt;node5</title>
<path fill="none" stroke="#666666" d="M660.12,-126C676.78,-126 698.61,-126 716.92,-126"/>
<polygon fill="#666666" stroke="#666666" points="716.95,-129.5 726.95,-126 716.95,-122.5 716.95,-129.5"/>
</g>
<!-- node6 -->
<g id="node10" class="node">
<title>node6</title>
<polygon fill="none" stroke="black" points="781,-90 727,-90 727,-54 781,-54 781,-90"/>
<text text-anchor="middle" x="754" y="-68.3" font-family="Times,serif" font-size="14.00">node6</text>
</g>
<!-- node3&#45;&gt;node6 -->
<g id="edge8" class="edge">
<title>node3&#45;&gt;node6</title>
<path fill="none" stroke="#666666" d="M660.12,-72C676.78,-72 698.61,-72 716.92,-72"/>
<polygon fill="#666666" stroke="#666666" points="716.95,-75.5 726.95,-72 716.95,-68.5 716.95,-75.5"/>
</g>
<!-- node7 -->
<g id="node11" class="node">
<title>node7</title>
<polygon fill="none" stroke="black" points="781,-36 727,-36 727,0 781,0 781,-36"/>
<text text-anchor="middle" x="754" y="-14.3" font-family="Times,serif" font-size="14.00">node7</text>
</g>
<!-- node3&#45;&gt;node7 -->
<g id="edge9" class="edge">
<title>node3&#45;&gt;node7</title>
<path fill="none" stroke="#666666" d="M660.12,-60.15C677.01,-52.48 699.22,-42.41 717.68,-34.03"/>
<polygon fill="#666666" stroke="#666666" points="719.29,-37.14 726.95,-29.82 716.39,-30.77 719.29,-37.14"/>
</g>
<!-- project -->
<g id="node12" class="node">
<title>project</title>
<polygon fill="none" stroke="black" points="54,-198 0,-198 0,-162 54,-162 54,-198"/>
<text text-anchor="middle" x="27" y="-176.3" font-family="Times,serif" font-size="14.00">project</text>
</g>
<!-- project&#45;&gt;scene1 -->
<g id="edge10" class="edge">
<title>project&#45;&gt;scene1</title>
<path fill="none" stroke="#666666" d="M54.29,-180C61.78,-180 70.42,-180 79.6,-180"/>
<polygon fill="#666666" stroke="#666666" points="79.76,-183.5 89.76,-180 79.76,-176.5 79.76,-183.5"/>
</g>
</g>
</svg>
