<?xml version="1.0" encoding="UTF-8" standalone="no"?>
<!DOCTYPE svg PUBLIC "-//W3C//DTD SVG 1.1//EN"
 "http://www.w3.org/Graphics/SVG/1.1/DTD/svg11.dtd">
<!-- Generated by graphviz version 2.47.1 (20210417.1919)
 -->
<!-- Title: parse Pages: 1 -->
<svg width="1437pt" height="478pt"
 viewBox="0.00 0.00 1437.00 478.00" xmlns="http://www.w3.org/2000/svg" xmlns:xlink="http://www.w3.org/1999/xlink">
<g id="graph0" class="graph" transform="scale(1 1) rotate(0) translate(4 474)">
<title>parse</title>
<polygon fill="white" stroke="transparent" points="-4,4 -4,-474 1433,-474 1433,4 -4,4"/>
<!-- AggregationExecutor_new -->
<g id="node1" class="node">
<title>AggregationExecutor_new</title>
<path fill="none" stroke="#1c2123" d="M566,-112.5C566,-112.5 675,-112.5 675,-112.5 681,-112.5 687,-118.5 687,-124.5 687,-124.5 687,-146.5 687,-146.5 687,-152.5 681,-158.5 675,-158.5 675,-158.5 566,-158.5 566,-158.5 560,-158.5 554,-152.5 554,-146.5 554,-146.5 554,-124.5 554,-124.5 554,-118.5 560,-112.5 566,-112.5"/>
<text text-anchor="start" x="562" y="-143.3" font-family="Times,serif" font-size="14.00" fill="#2f3638">AggregationExecutor</text>
<polyline fill="none" stroke="#1c2123" points="554,-135.5 687,-135.5 "/>
<text text-anchor="start" x="562" y="-120.3" font-family="Times,serif" font-size="14.00" fill="#2f3638">new</text>
</g>
<!-- AggrDefinitionParser_parse2 -->
<g id="node16" class="node">
<title>AggrDefinitionParser_parse2</title>
<path fill="none" stroke="#1c2123" d="M1272,-58.5C1272,-58.5 1417,-58.5 1417,-58.5 1423,-58.5 1429,-64.5 1429,-70.5 1429,-70.5 1429,-82.5 1429,-82.5 1429,-88.5 1423,-94.5 1417,-94.5 1417,-94.5 1272,-94.5 1272,-94.5 1266,-94.5 1260,-88.5 1260,-82.5 1260,-82.5 1260,-70.5 1260,-70.5 1260,-64.5 1266,-58.5 1272,-58.5"/>
<text text-anchor="middle" x="1344.5" y="-72.8" font-family="Times,serif" font-size="14.00" fill="#2f3638">AggrDefinitionParser::parse</text>
</g>
<!-- AggregationExecutor_new&#45;&gt;AggrDefinitionParser_parse2 -->
<g id="edge21" class="edge">
<title>AggregationExecutor_new&#45;&gt;AggrDefinitionParser_parse2</title>
<path fill="none" stroke="#666666" d="M687,-136.14C798.1,-136.3 1030.31,-132.67 1224,-103.5 1236.2,-101.66 1249,-99.27 1261.51,-96.67"/>
<polygon fill="#666666" stroke="#666666" points="1262.41,-100.06 1271.46,-94.55 1260.95,-93.21 1262.41,-100.06"/>
</g>
<!-- Entities_each_aggr_fn -->
<g id="node2" class="node">
<title>Entities_each_aggr_fn</title>
<path fill="#feed9b" stroke="#f7e495" d="M767,-310.5C767,-310.5 1043,-310.5 1043,-310.5 1049,-310.5 1055,-316.5 1055,-322.5 1055,-322.5 1055,-344.5 1055,-344.5 1055,-350.5 1049,-356.5 1043,-356.5 1043,-356.5 767,-356.5 767,-356.5 761,-356.5 755,-350.5 755,-344.5 755,-344.5 755,-322.5 755,-322.5 755,-316.5 761,-310.5 767,-310.5"/>
<text text-anchor="middle" x="905" y="-341.3" font-family="Times,serif" font-size="14.00" fill="#40575d">Entities::each_aggr_fn</text>
<polyline fill="none" stroke="#f7e495" points="755,-333.5 1055,-333.5 "/>
<text text-anchor="start" x="763" y="-318.3" font-family="Times,serif" font-size="14.00" fill="#40575d">pub each_aggr_fn: Vec&lt;Box&lt;dyn AggrFunction&gt;&gt;,</text>
</g>
<!-- build_executors -->
<g id="node3" class="node">
<title>build_executors</title>
<path fill="none" stroke="#1c2123" d="M35.5,-82.5C35.5,-82.5 143.5,-82.5 143.5,-82.5 149.5,-82.5 155.5,-88.5 155.5,-94.5 155.5,-94.5 155.5,-116.5 155.5,-116.5 155.5,-122.5 149.5,-128.5 143.5,-128.5 143.5,-128.5 35.5,-128.5 35.5,-128.5 29.5,-128.5 23.5,-122.5 23.5,-116.5 23.5,-116.5 23.5,-94.5 23.5,-94.5 23.5,-88.5 29.5,-82.5 35.5,-82.5"/>
<text text-anchor="middle" x="89.5" y="-113.3" font-family="Times,serif" font-size="14.00" fill="#2f3638">2.build_executors</text>
<polyline fill="none" stroke="#1c2123" points="23.5,-105.5 155.5,-105.5 "/>
<text text-anchor="start" x="31.5" y="-90.3" font-family="Times,serif" font-size="14.00" fill="#2f3638">创建batch Executors</text>
</g>
<!-- BatchSimpleAggregationExecutor_new -->
<g id="node4" class="node">
<title>BatchSimpleAggregationExecutor_new</title>
<path fill="none" stroke="#1c2123" d="M227,-55.5C227,-55.5 474,-55.5 474,-55.5 480,-55.5 486,-61.5 486,-67.5 486,-67.5 486,-81.5 486,-81.5 486,-87.5 480,-93.5 474,-93.5 474,-93.5 227,-93.5 227,-93.5 221,-93.5 215,-87.5 215,-81.5 215,-81.5 215,-67.5 215,-67.5 215,-61.5 221,-55.5 227,-55.5"/>
<text text-anchor="start" x="223" y="-78.3" font-family="Times,serif" font-size="14.00" fill="#2f3638">BatchSimpleAggregationExecutor::new</text>
<text text-anchor="start" x="223" y="-63.3" font-family="Times,serif" font-size="14.00" fill="#2f3638"> 1.如果group_by 为空,优先创建SimpleAggr</text>
</g>
<!-- build_executors&#45;&gt;BatchSimpleAggregationExecutor_new -->
<g id="edge1" class="edge">
<title>build_executors&#45;&gt;BatchSimpleAggregationExecutor_new</title>
<path fill="none" stroke="#666666" d="M155.52,-97.72C170.74,-95.9 187.56,-93.88 204.73,-91.83"/>
<polygon fill="#666666" stroke="#666666" points="205.37,-95.28 214.88,-90.61 204.54,-88.33 205.37,-95.28"/>
</g>
<!-- BatchFastHashAggregationExecutor_new -->
<g id="node6" class="node">
<title>BatchFastHashAggregationExecutor_new</title>
<path fill="none" stroke="#1c2123" d="M240,-0.5C240,-0.5 461,-0.5 461,-0.5 467,-0.5 473,-6.5 473,-12.5 473,-12.5 473,-24.5 473,-24.5 473,-30.5 467,-36.5 461,-36.5 461,-36.5 240,-36.5 240,-36.5 234,-36.5 228,-30.5 228,-24.5 228,-24.5 228,-12.5 228,-12.5 228,-6.5 234,-0.5 240,-0.5"/>
<text text-anchor="start" x="236" y="-14.8" font-family="Times,serif" font-size="14.00" fill="#2f3638">BatchFastHashAggregationExecutor::new</text>
</g>
<!-- build_executors&#45;&gt;BatchFastHashAggregationExecutor_new -->
<g id="edge3" class="edge">
<title>build_executors&#45;&gt;BatchFastHashAggregationExecutor_new</title>
<path fill="none" stroke="#666666" d="M131.75,-82.38C155.49,-69.91 186.22,-55.15 215,-45.5 221.83,-43.21 228.92,-41.08 236.13,-39.11"/>
<polygon fill="#666666" stroke="#666666" points="237.21,-42.45 245.99,-36.53 235.43,-35.68 237.21,-42.45"/>
</g>
<!-- BatchSlowHashAggregationExecutor_new -->
<g id="node7" class="node">
<title>BatchSlowHashAggregationExecutor_new</title>
<path fill="none" stroke="#1c2123" d="M252.5,-177.5C252.5,-177.5 448.5,-177.5 448.5,-177.5 454.5,-177.5 460.5,-183.5 460.5,-189.5 460.5,-189.5 460.5,-211.5 460.5,-211.5 460.5,-217.5 454.5,-223.5 448.5,-223.5 448.5,-223.5 252.5,-223.5 252.5,-223.5 246.5,-223.5 240.5,-217.5 240.5,-211.5 240.5,-211.5 240.5,-189.5 240.5,-189.5 240.5,-183.5 246.5,-177.5 252.5,-177.5"/>
<text text-anchor="start" x="248.5" y="-208.3" font-family="Times,serif" font-size="14.00" fill="#2f3638">BatchSlowHashAggregationExecutor</text>
<polyline fill="none" stroke="#1c2123" points="240.5,-200.5 460.5,-200.5 "/>
<text text-anchor="start" x="248.5" y="-185.3" font-family="Times,serif" font-size="14.00" fill="#2f3638">new</text>
</g>
<!-- build_executors&#45;&gt;BatchSlowHashAggregationExecutor_new -->
<g id="edge5" class="edge">
<title>build_executors&#45;&gt;BatchSlowHashAggregationExecutor_new</title>
<path fill="none" stroke="#666666" d="M130.99,-128.52C154.86,-141.36 185.98,-156.86 215,-167.5 221.75,-169.97 228.76,-172.32 235.88,-174.54"/>
<polygon fill="#666666" stroke="#666666" points="235.04,-177.94 245.63,-177.47 237.06,-171.24 235.04,-177.94"/>
</g>
<!-- BatchStreamAggregationExecutor_new -->
<g id="node8" class="node">
<title>BatchStreamAggregationExecutor_new</title>
<path fill="none" stroke="#1c2123" d="M261,-112.5C261,-112.5 440,-112.5 440,-112.5 446,-112.5 452,-118.5 452,-124.5 452,-124.5 452,-146.5 452,-146.5 452,-152.5 446,-158.5 440,-158.5 440,-158.5 261,-158.5 261,-158.5 255,-158.5 249,-152.5 249,-146.5 249,-146.5 249,-124.5 249,-124.5 249,-118.5 255,-112.5 261,-112.5"/>
<text text-anchor="start" x="257" y="-143.3" font-family="Times,serif" font-size="14.00" fill="#2f3638">BatchStreamAggregationExecutor</text>
<polyline fill="none" stroke="#1c2123" points="249,-135.5 452,-135.5 "/>
<text text-anchor="start" x="257" y="-120.3" font-family="Times,serif" font-size="14.00" fill="#2f3638">new</text>
</g>
<!-- build_executors&#45;&gt;BatchStreamAggregationExecutor_new -->
<g id="edge7" class="edge">
<title>build_executors&#45;&gt;BatchStreamAggregationExecutor_new</title>
<path fill="none" stroke="#666666" d="M155.52,-113.03C180.72,-115.95 210.3,-119.38 238.65,-122.66"/>
<polygon fill="#666666" stroke="#666666" points="238.28,-126.14 248.62,-123.81 239.09,-119.19 238.28,-126.14"/>
</g>
<!-- BatchSimpleAggregationExecutor_new&#45;&gt;AggregationExecutor_new -->
<g id="edge9" class="edge">
<title>BatchSimpleAggregationExecutor_new&#45;&gt;AggregationExecutor_new</title>
<path fill="none" stroke="#666666" d="M445.3,-93.56C458.97,-96.47 472.86,-99.51 486,-102.5 504.83,-106.79 525.09,-111.66 544,-116.32"/>
<polygon fill="#666666" stroke="#666666" points="543.2,-119.73 553.75,-118.73 544.88,-112.93 543.2,-119.73"/>
</g>
<!-- AllAggrDefinitionParser -->
<g id="node5" class="node">
<title>AllAggrDefinitionParser</title>
<path fill="none" stroke="#1c2123" d="M683.5,-92.5C683.5,-92.5 557.5,-92.5 557.5,-92.5 551.5,-92.5 545.5,-86.5 545.5,-80.5 545.5,-80.5 545.5,-68.5 545.5,-68.5 545.5,-62.5 551.5,-56.5 557.5,-56.5 557.5,-56.5 683.5,-56.5 683.5,-56.5 689.5,-56.5 695.5,-62.5 695.5,-68.5 695.5,-68.5 695.5,-80.5 695.5,-80.5 695.5,-86.5 689.5,-92.5 683.5,-92.5"/>
<text text-anchor="middle" x="620.5" y="-70.8" font-family="Times,serif" font-size="14.00" fill="#2f3638">AllAggrDefinitionParser</text>
</g>
<!-- BatchSimpleAggregationExecutor_new&#45;&gt;AllAggrDefinitionParser -->
<g id="edge2" class="edge">
<title>BatchSimpleAggregationExecutor_new&#45;&gt;AllAggrDefinitionParser</title>
<path fill="none" stroke="#666666" d="M486.29,-74.5C502.97,-74.5 519.63,-74.5 535.24,-74.5"/>
<polygon fill="#666666" stroke="#666666" points="535.34,-78 545.34,-74.5 535.34,-71 535.34,-78"/>
</g>
<!-- map_pb_sig_to_aggr_func_parser -->
<g id="node15" class="node">
<title>map_pb_sig_to_aggr_func_parser</title>
<path fill="#79d8ce" stroke="#60b5ac" d="M816,-46C816,-46 994,-46 994,-46 1000,-46 1006,-52 1006,-58 1006,-58 1006,-95 1006,-95 1006,-101 1000,-107 994,-107 994,-107 816,-107 816,-107 810,-107 804,-101 804,-95 804,-95 804,-58 804,-58 804,-52 810,-46 816,-46"/>
<text text-anchor="middle" x="905" y="-91.8" font-family="Times,serif" font-size="14.00" fill="#5d6179">map_pb_sig_to_aggr_func_parser</text>
<polyline fill="none" stroke="#60b5ac" points="804,-84 1006,-84 "/>
<text text-anchor="start" x="812" y="-68.8" font-family="Times,serif" font-size="14.00" fill="#5d6179">将Tipb定义的ExprType映射为</text>
<text text-anchor="start" x="812" y="-53.8" font-family="Times,serif" font-size="14.00" fill="#5d6179"> 相应的AggrDefinitionParser</text>
</g>
<!-- AllAggrDefinitionParser&#45;&gt;map_pb_sig_to_aggr_func_parser -->
<g id="edge22" class="edge">
<title>AllAggrDefinitionParser&#45;&gt;map_pb_sig_to_aggr_func_parser</title>
<path fill="none" stroke="#666666" d="M695.72,-75.03C725.72,-75.24 760.98,-75.49 793.86,-75.72"/>
<polygon fill="#666666" stroke="#666666" points="793.96,-79.22 803.98,-75.79 794.01,-72.22 793.96,-79.22"/>
</g>
<!-- AllAggrDefinitionParser&#45;&gt;AggrDefinitionParser_parse2 -->
<g id="edge18" class="edge">
<title>AllAggrDefinitionParser&#45;&gt;AggrDefinitionParser_parse2</title>
<path fill="none" stroke="#666666" d="M672.45,-56.4C697.05,-48.6 727.2,-40.38 755,-36.5 961.52,-7.68 1017.8,-18.44 1224,-49.5 1236.2,-51.34 1249,-53.73 1261.51,-56.33"/>
<polygon fill="#666666" stroke="#666666" points="1260.95,-59.79 1271.46,-58.45 1262.41,-52.94 1260.95,-59.79"/>
</g>
<!-- BatchFastHashAggregationExecutor_new&#45;&gt;AggregationExecutor_new -->
<g id="edge10" class="edge">
<title>BatchFastHashAggregationExecutor_new&#45;&gt;AggregationExecutor_new</title>
<path fill="none" stroke="#666666" d="M470.39,-36.58C475.84,-39.19 481.08,-42.14 486,-45.5 510.44,-62.18 498.76,-83.18 522,-101.5 528.85,-106.9 536.63,-111.48 544.72,-115.35"/>
<polygon fill="#666666" stroke="#666666" points="543.4,-118.59 553.96,-119.43 546.23,-112.19 543.4,-118.59"/>
</g>
<!-- BatchFastHashAggregationExecutor_new&#45;&gt;AllAggrDefinitionParser -->
<g id="edge4" class="edge">
<title>BatchFastHashAggregationExecutor_new&#45;&gt;AllAggrDefinitionParser</title>
<path fill="none" stroke="#666666" d="M442.34,-36.53C456.95,-39.49 471.9,-42.55 486,-45.5 501.96,-48.83 518.97,-52.47 535.32,-56"/>
<polygon fill="#666666" stroke="#666666" points="534.89,-59.49 545.4,-58.19 536.37,-52.65 534.89,-59.49"/>
</g>
<!-- BatchSlowHashAggregationExecutor_new&#45;&gt;AggregationExecutor_new -->
<g id="edge11" class="edge">
<title>BatchSlowHashAggregationExecutor_new&#45;&gt;AggregationExecutor_new</title>
<path fill="none" stroke="#666666" d="M446.36,-177.49C478.29,-169.75 513.47,-161.22 543.73,-153.88"/>
<polygon fill="#666666" stroke="#666666" points="544.89,-157.2 553.79,-151.44 543.24,-150.39 544.89,-157.2"/>
</g>
<!-- BatchSlowHashAggregationExecutor_new&#45;&gt;AllAggrDefinitionParser -->
<g id="edge6" class="edge">
<title>BatchSlowHashAggregationExecutor_new&#45;&gt;AllAggrDefinitionParser</title>
<path fill="none" stroke="#666666" d="M460.52,-182.29C469.61,-178.28 478.26,-173.41 486,-167.5 512.23,-147.44 496.16,-123.07 522,-102.5 526.31,-99.07 531.01,-96.06 535.96,-93.42"/>
<polygon fill="#666666" stroke="#666666" points="537.58,-96.53 545.09,-89.06 534.56,-90.22 537.58,-96.53"/>
</g>
<!-- BatchStreamAggregationExecutor_new&#45;&gt;AggregationExecutor_new -->
<g id="edge12" class="edge">
<title>BatchStreamAggregationExecutor_new&#45;&gt;AggregationExecutor_new</title>
<path fill="none" stroke="#666666" d="M452.06,-135.5C482.35,-135.5 515.08,-135.5 543.49,-135.5"/>
<polygon fill="#666666" stroke="#666666" points="543.76,-139 553.76,-135.5 543.76,-132 543.76,-139"/>
</g>
<!-- BatchStreamAggregationExecutor_new&#45;&gt;AllAggrDefinitionParser -->
<g id="edge8" class="edge">
<title>BatchStreamAggregationExecutor_new&#45;&gt;AllAggrDefinitionParser</title>
<path fill="none" stroke="#666666" d="M452.06,-112.61C479.45,-106.38 508.84,-99.69 535.22,-93.68"/>
<polygon fill="#666666" stroke="#666666" points="536.21,-97.05 545.18,-91.42 534.65,-90.22 536.21,-97.05"/>
</g>
<!-- DagHandlerBuilder_build -->
<g id="node9" class="node">
<title>DagHandlerBuilder_build</title>
<path fill="none" stroke="#1c2123" d="M33,-423.5C33,-423.5 146,-423.5 146,-423.5 152,-423.5 158,-429.5 158,-435.5 158,-435.5 158,-457.5 158,-457.5 158,-463.5 152,-469.5 146,-469.5 146,-469.5 33,-469.5 33,-469.5 27,-469.5 21,-463.5 21,-457.5 21,-457.5 21,-435.5 21,-435.5 21,-429.5 27,-423.5 33,-423.5"/>
<text text-anchor="start" x="29" y="-454.3" font-family="Times,serif" font-size="14.00" fill="#2f3638">1. DagHandlerBuilder</text>
<polyline fill="none" stroke="#1c2123" points="21,-446.5 158,-446.5 "/>
<text text-anchor="start" x="29" y="-431.3" font-family="Times,serif" font-size="14.00" fill="#2f3638">build</text>
</g>
<!-- BatchDAGHandler_new -->
<g id="node10" class="node">
<title>BatchDAGHandler_new</title>
<path fill="none" stroke="#1c2123" d="M302,-423.5C302,-423.5 399,-423.5 399,-423.5 405,-423.5 411,-429.5 411,-435.5 411,-435.5 411,-457.5 411,-457.5 411,-463.5 405,-469.5 399,-469.5 399,-469.5 302,-469.5 302,-469.5 296,-469.5 290,-463.5 290,-457.5 290,-457.5 290,-435.5 290,-435.5 290,-429.5 296,-423.5 302,-423.5"/>
<text text-anchor="start" x="298" y="-454.3" font-family="Times,serif" font-size="14.00" fill="#2f3638">BatchDAGHandler</text>
<polyline fill="none" stroke="#1c2123" points="290,-446.5 411,-446.5 "/>
<text text-anchor="start" x="298" y="-431.3" font-family="Times,serif" font-size="14.00" fill="#2f3638">new</text>
</g>
<!-- DagHandlerBuilder_build&#45;&gt;BatchDAGHandler_new -->
<g id="edge13" class="edge">
<title>DagHandlerBuilder_build&#45;&gt;BatchDAGHandler_new</title>
<path fill="none" stroke="#666666" d="M158.21,-446.5C195.48,-446.5 241.66,-446.5 279.31,-446.5"/>
<polygon fill="#666666" stroke="#666666" points="279.68,-450 289.68,-446.5 279.68,-443 279.68,-450"/>
</g>
<!-- BatchExecutorsRunner_from_request -->
<g id="node11" class="node">
<title>BatchExecutorsRunner_from_request</title>
<path fill="none" stroke="#1c2123" d="M561.5,-423.5C561.5,-423.5 679.5,-423.5 679.5,-423.5 685.5,-423.5 691.5,-429.5 691.5,-435.5 691.5,-435.5 691.5,-457.5 691.5,-457.5 691.5,-463.5 685.5,-469.5 679.5,-469.5 679.5,-469.5 561.5,-469.5 561.5,-469.5 555.5,-469.5 549.5,-463.5 549.5,-457.5 549.5,-457.5 549.5,-435.5 549.5,-435.5 549.5,-429.5 555.5,-423.5 561.5,-423.5"/>
<text text-anchor="start" x="557.5" y="-454.3" font-family="Times,serif" font-size="14.00" fill="#2f3638">BatchExecutorsRunner</text>
<polyline fill="none" stroke="#1c2123" points="549.5,-446.5 691.5,-446.5 "/>
<text text-anchor="start" x="557.5" y="-431.3" font-family="Times,serif" font-size="14.00" fill="#2f3638">from_request</text>
</g>
<!-- BatchDAGHandler_new&#45;&gt;BatchExecutorsRunner_from_request -->
<g id="edge14" class="edge">
<title>BatchDAGHandler_new&#45;&gt;BatchExecutorsRunner_from_request</title>
<path fill="none" stroke="#666666" d="M411.31,-446.5C449,-446.5 498.12,-446.5 539.18,-446.5"/>
<polygon fill="#666666" stroke="#666666" points="539.44,-450 549.44,-446.5 539.44,-443 539.44,-450"/>
</g>
<!-- build_executors2 -->
<g id="node12" class="node">
<title>build_executors2</title>
<path fill="none" stroke="#1c2123" d="M831,-375.5C831,-375.5 979,-375.5 979,-375.5 985,-375.5 991,-381.5 991,-387.5 991,-387.5 991,-439.5 991,-439.5 991,-445.5 985,-451.5 979,-451.5 979,-451.5 831,-451.5 831,-451.5 825,-451.5 819,-445.5 819,-439.5 819,-439.5 819,-387.5 819,-387.5 819,-381.5 825,-375.5 831,-375.5"/>
<text text-anchor="start" x="827" y="-436.3" font-family="Times,serif" font-size="14.00" fill="#2f3638">build_executors</text>
<polyline fill="none" stroke="#1c2123" points="819,-428.5 991,-428.5 "/>
<text text-anchor="start" x="827" y="-413.3" font-family="Times,serif" font-size="14.00" fill="#2f3638">根据DagRequest中的</text>
<text text-anchor="start" x="827" y="-398.3" font-family="Times,serif" font-size="14.00" fill="#2f3638"> tipb::Executor定义</text>
<text text-anchor="start" x="827" y="-383.3" font-family="Times,serif" font-size="14.00" fill="#2f3638"> 创建对应的BatchExecutor</text>
</g>
<!-- BatchExecutorsRunner_from_request&#45;&gt;build_executors2 -->
<g id="edge15" class="edge">
<title>BatchExecutorsRunner_from_request&#45;&gt;build_executors2</title>
<path fill="none" stroke="#666666" d="M691.69,-438.3C727.02,-434.17 770.36,-429.11 808.66,-424.64"/>
<polygon fill="#666666" stroke="#666666" points="809.27,-428.09 818.79,-423.45 808.45,-421.14 809.27,-428.09"/>
</g>
<!-- DagRequest -->
<g id="node13" class="node">
<title>DagRequest</title>
<path fill="none" stroke="#1c2123" d="M380,-398.5C380,-398.5 321,-398.5 321,-398.5 315,-398.5 309,-392.5 309,-386.5 309,-386.5 309,-374.5 309,-374.5 309,-368.5 315,-362.5 321,-362.5 321,-362.5 380,-362.5 380,-362.5 386,-362.5 392,-368.5 392,-374.5 392,-374.5 392,-386.5 392,-386.5 392,-392.5 386,-398.5 380,-398.5"/>
<text text-anchor="middle" x="350.5" y="-376.8" font-family="Times,serif" font-size="14.00" fill="#2f3638">DagRequest</text>
</g>
<!-- tipb_Executor -->
<g id="node14" class="node">
<title>tipb_Executor</title>
<path fill="#feed9b" stroke="#f7e495" d="M567,-357C567,-357 674,-357 674,-357 680,-357 686,-363 686,-369 686,-369 686,-392 686,-392 686,-398 680,-404 674,-404 674,-404 567,-404 567,-404 561,-404 555,-398 555,-392 555,-392 555,-369 555,-369 555,-363 561,-357 567,-357"/>
<text text-anchor="middle" x="620.5" y="-388.8" font-family="Times,serif" font-size="14.00" fill="#40575d">Vec&lt;tipb::Executor&gt;</text>
<polyline fill="none" stroke="#f7e495" points="555,-381 686,-381 "/>
</g>
<!-- DagRequest&#45;&gt;tipb_Executor -->
<g id="edge16" class="edge">
<title>DagRequest&#45;&gt;tipb_Executor</title>
<path fill="none" stroke="#666666" d="M392.2,-380.5C432.62,-380.5 495.5,-380.5 544.9,-380.5"/>
<polygon fill="#666666" stroke="#666666" points="544.9,-384 554.9,-380.5 544.9,-377 544.9,-384"/>
</g>
<!-- tipb_Executor&#45;&gt;Entities_each_aggr_fn -->
<g id="edge27" class="edge">
<title>tipb_Executor&#45;&gt;Entities_each_aggr_fn</title>
<path fill="none" stroke="green" stroke-dasharray="5,2" d="M686.31,-369.72C707.14,-366.25 731.15,-362.26 755.44,-358.22"/>
<polygon fill="green" stroke="green" points="756.2,-361.64 765.49,-356.54 755.05,-354.73 756.2,-361.64"/>
</g>
<!-- tipb_Executor&#45;&gt;build_executors2 -->
<g id="edge17" class="edge">
<title>tipb_Executor&#45;&gt;build_executors2</title>
<path fill="none" stroke="#666666" d="M686.31,-388.07C722.58,-392.31 768.46,-397.67 808.75,-402.37"/>
<polygon fill="#666666" stroke="#666666" points="808.52,-405.87 818.86,-403.55 809.33,-398.92 808.52,-405.87"/>
</g>
<!-- AggrDefinitionParser -->
<g id="node17" class="node">
<title>AggrDefinitionParser</title>
<path fill="none" stroke="#1c2123" d="M1212,-94.5C1212,-94.5 1103,-94.5 1103,-94.5 1097,-94.5 1091,-88.5 1091,-82.5 1091,-82.5 1091,-70.5 1091,-70.5 1091,-64.5 1097,-58.5 1103,-58.5 1103,-58.5 1212,-58.5 1212,-58.5 1218,-58.5 1224,-64.5 1224,-70.5 1224,-70.5 1224,-82.5 1224,-82.5 1224,-88.5 1218,-94.5 1212,-94.5"/>
<text text-anchor="middle" x="1157.5" y="-72.8" font-family="Times,serif" font-size="14.00" fill="#2f3638">AggrDefinitionParser</text>
</g>
<!-- map_pb_sig_to_aggr_func_parser&#45;&gt;AggrDefinitionParser -->
<g id="edge19" class="edge">
<title>map_pb_sig_to_aggr_func_parser&#45;&gt;AggrDefinitionParser</title>
<path fill="none" stroke="green" stroke-dasharray="5,2" d="M1006.08,-76.5C1030.89,-76.5 1057.08,-76.5 1080.52,-76.5"/>
<polygon fill="green" stroke="green" points="1080.74,-80 1090.74,-76.5 1080.74,-73 1080.74,-80"/>
</g>
<!-- AggrDefinitionParser&#45;&gt;AggrDefinitionParser_parse2 -->
<g id="edge20" class="edge">
<title>AggrDefinitionParser&#45;&gt;AggrDefinitionParser_parse2</title>
<path fill="none" stroke="green" stroke-dasharray="5,2" d="M1224.24,-76.5C1232.53,-76.5 1241.13,-76.5 1249.74,-76.5"/>
<polygon fill="green" stroke="green" points="1249.84,-80 1259.84,-76.5 1249.84,-73 1249.84,-80"/>
</g>
<!-- AggrDefinitionParser_parse -->
<g id="node18" class="node">
<title>AggrDefinitionParser_parse</title>
<path fill="none" stroke="#1c2123" d="M12,-268.5C12,-268.5 167,-268.5 167,-268.5 173,-268.5 179,-274.5 179,-280.5 179,-280.5 179,-302.5 179,-302.5 179,-308.5 173,-314.5 167,-314.5 167,-314.5 12,-314.5 12,-314.5 6,-314.5 0,-308.5 0,-302.5 0,-302.5 0,-280.5 0,-280.5 0,-274.5 6,-268.5 12,-268.5"/>
<text text-anchor="middle" x="89.5" y="-299.3" font-family="Times,serif" font-size="14.00" fill="#2f3638">3.AggrDefinitionParser::parse</text>
<polyline fill="none" stroke="#1c2123" points="0,-291.5 179,-291.5 "/>
<text text-anchor="middle" x="89.5" y="-276.3" font-family="Times,serif" font-size="14.00" fill="#2f3638">解析Aggr函数</text>
</g>
<!-- parse_rpn -->
<g id="node19" class="node">
<title>parse_rpn</title>
<path fill="none" stroke="#1c2123" d="M534,-261.5C534,-261.5 707,-261.5 707,-261.5 713,-261.5 719,-267.5 719,-273.5 719,-273.5 719,-325.5 719,-325.5 719,-331.5 713,-337.5 707,-337.5 707,-337.5 534,-337.5 534,-337.5 528,-337.5 522,-331.5 522,-325.5 522,-325.5 522,-273.5 522,-273.5 522,-267.5 528,-261.5 534,-261.5"/>
<text text-anchor="middle" x="620.5" y="-322.3" font-family="Times,serif" font-size="14.00" fill="#2f3638">parse_rpn</text>
<polyline fill="none" stroke="#1c2123" points="522,-314.5 719,-314.5 "/>
<text text-anchor="start" x="530" y="-299.3" font-family="Times,serif" font-size="14.00" fill="#2f3638">解析rpn</text>
<text text-anchor="start" x="530" y="-284.3" font-family="Times,serif" font-size="14.00" fill="#2f3638"> 创建对应的AggrFunction</text>
<text text-anchor="start" x="530" y="-269.3" font-family="Times,serif" font-size="14.00" fill="#2f3638"> 每个函数有自己对应的Parser</text>
</g>
<!-- AggrDefinitionParser_parse&#45;&gt;parse_rpn -->
<g id="edge23" class="edge">
<title>AggrDefinitionParser_parse&#45;&gt;parse_rpn</title>
<path fill="none" stroke="#666666" d="M179.23,-297.07C191.25,-297.66 203.42,-298.16 215,-298.5 315.47,-301.45 430.04,-301.41 511.53,-300.81"/>
<polygon fill="#666666" stroke="#666666" points="511.83,-304.3 521.8,-300.73 511.78,-297.3 511.83,-304.3"/>
</g>
<!-- RpnExpressionBuilder_build_from_expr_tree -->
<g id="node20" class="node">
<title>RpnExpressionBuilder_build_from_expr_tree</title>
<path fill="#79d8ce" stroke="#60b5ac" d="M292.5,-242.5C292.5,-242.5 408.5,-242.5 408.5,-242.5 414.5,-242.5 420.5,-248.5 420.5,-254.5 420.5,-254.5 420.5,-276.5 420.5,-276.5 420.5,-282.5 414.5,-288.5 408.5,-288.5 408.5,-288.5 292.5,-288.5 292.5,-288.5 286.5,-288.5 280.5,-282.5 280.5,-276.5 280.5,-276.5 280.5,-254.5 280.5,-254.5 280.5,-248.5 286.5,-242.5 292.5,-242.5"/>
<text text-anchor="start" x="288.5" y="-273.3" font-family="Times,serif" font-size="14.00" fill="#5d6179">RpnExpressionBuilder</text>
<polyline fill="none" stroke="#60b5ac" points="280.5,-265.5 420.5,-265.5 "/>
<text text-anchor="middle" x="350.5" y="-250.3" font-family="Times,serif" font-size="14.00" fill="#5d6179">build_from_expr_tree</text>
</g>
<!-- AggrDefinitionParser_parse&#45;&gt;RpnExpressionBuilder_build_from_expr_tree -->
<g id="edge24" class="edge">
<title>AggrDefinitionParser_parse&#45;&gt;RpnExpressionBuilder_build_from_expr_tree</title>
<path fill="none" stroke="#666666" d="M179.27,-282.59C208.87,-279.62 241.64,-276.33 270.46,-273.43"/>
<polygon fill="#666666" stroke="#666666" points="270.87,-276.91 280.47,-272.43 270.17,-269.95 270.87,-276.91"/>
</g>
<!-- parse_rpn&#45;&gt;Entities_each_aggr_fn -->
<g id="edge26" class="edge">
<title>parse_rpn&#45;&gt;Entities_each_aggr_fn</title>
<path fill="none" stroke="green" stroke-dasharray="5,2" d="M719.12,-311.25C727.57,-312.27 736.27,-313.31 745.05,-314.37"/>
<polygon fill="green" stroke="green" points="744.65,-317.85 755,-315.57 745.49,-310.9 744.65,-317.85"/>
</g>
<!-- RpnExpressionBuilder_build_from_expr_tree&#45;&gt;parse_rpn -->
<g id="edge25" class="edge">
<title>RpnExpressionBuilder_build_from_expr_tree&#45;&gt;parse_rpn</title>
<path fill="none" stroke="green" stroke-dasharray="5,2" d="M420.52,-274.26C448.37,-277.79 481.16,-281.95 512,-285.86"/>
<polygon fill="green" stroke="green" points="511.57,-289.34 521.93,-287.12 512.45,-282.39 511.57,-289.34"/>
</g>
</g>
</svg>
