<?xml version="1.0" encoding="UTF-8" standalone="no"?>
<!DOCTYPE svg PUBLIC "-//W3C//DTD SVG 1.1//EN"
 "http://www.w3.org/Graphics/SVG/1.1/DTD/svg11.dtd">
<!-- Generated by graphviz version 2.44.1 (20200629.0846)
 -->
<!-- Title: batchSystemSpawn Pages: 1 -->
<svg width="1048pt" height="742pt"
 viewBox="0.00 0.00 1048.00 742.13" xmlns="http://www.w3.org/2000/svg" xmlns:xlink="http://www.w3.org/1999/xlink">
<g id="graph0" class="graph" transform="scale(1 1) rotate(0) translate(4 738.13)">
<title>batchSystemSpawn</title>
<polygon fill="white" stroke="transparent" points="-4,4 -4,-738.13 1044,-738.13 1044,4 -4,4"/>
<g id="clust3" class="cluster">
<title>cluster_PollHandler</title>
<path fill="none" stroke="slategrey" stroke-dasharray="5,2" d="M686.5,-362.13C686.5,-362.13 1020,-362.13 1020,-362.13 1026,-362.13 1032,-368.13 1032,-374.13 1032,-374.13 1032,-714.13 1032,-714.13 1032,-720.13 1026,-726.13 1020,-726.13 1020,-726.13 686.5,-726.13 686.5,-726.13 680.5,-726.13 674.5,-720.13 674.5,-714.13 674.5,-714.13 674.5,-374.13 674.5,-374.13 674.5,-368.13 680.5,-362.13 686.5,-362.13"/>
<text text-anchor="middle" x="853.25" y="-706.13" font-family="Times,serif" font-size="20.00">PollHandler</text>
</g>
<g id="clust6" class="cluster">
<title>cluster_poller</title>
<path fill="none" stroke="slategrey" stroke-dasharray="5,2" d="M426,-108.13C426,-108.13 1015.5,-108.13 1015.5,-108.13 1021.5,-108.13 1027.5,-114.13 1027.5,-120.13 1027.5,-120.13 1027.5,-342.13 1027.5,-342.13 1027.5,-348.13 1021.5,-354.13 1015.5,-354.13 1015.5,-354.13 426,-354.13 426,-354.13 420,-354.13 414,-348.13 414,-342.13 414,-342.13 414,-120.13 414,-120.13 414,-114.13 420,-108.13 426,-108.13"/>
<text text-anchor="middle" x="720.75" y="-334.13" font-family="Times,serif" font-size="20.00">poller</text>
</g>
<!-- spawn -->
<g id="node1" class="node">
<title>spawn</title>
<path fill="none" stroke="#1c2123" d="M12,-127.63C12,-127.63 153,-127.63 153,-127.63 159,-127.63 165,-133.63 165,-139.63 165,-139.63 165,-176.63 165,-176.63 165,-182.63 159,-188.63 153,-188.63 153,-188.63 12,-188.63 12,-188.63 6,-188.63 0,-182.63 0,-176.63 0,-176.63 0,-139.63 0,-139.63 0,-133.63 6,-127.63 12,-127.63"/>
<text text-anchor="middle" x="82.5" y="-173.43" font-family="Times,serif" font-size="14.00" fill="#2f3638">spawn</text>
<polyline fill="none" stroke="#1c2123" points="0,-165.63 165,-165.63 "/>
<text text-anchor="start" x="8" y="-150.43" font-family="Times,serif" font-size="14.00" fill="#2f3638">生成个poll_size的线程池</text>
<text text-anchor="start" x="8" y="-135.43" font-family="Times,serif" font-size="14.00" fill="#2f3638"> 每个线程执行poller.poll</text>
</g>
<!-- HandlerBuilder_build -->
<g id="node2" class="node">
<title>HandlerBuilder_build</title>
<path fill="#feed9b" stroke="#f7e495" d="M223.5,-389.13C223.5,-389.13 363.5,-389.13 363.5,-389.13 369.5,-389.13 375.5,-395.13 375.5,-401.13 375.5,-401.13 375.5,-461.13 375.5,-461.13 375.5,-467.13 369.5,-473.13 363.5,-473.13 363.5,-473.13 223.5,-473.13 223.5,-473.13 217.5,-473.13 211.5,-467.13 211.5,-461.13 211.5,-461.13 211.5,-401.13 211.5,-401.13 211.5,-395.13 217.5,-389.13 223.5,-389.13"/>
<text text-anchor="middle" x="293.5" y="-457.93" font-family="Times,serif" font-size="14.00" fill="#40575d">HandlerBuilder_build</text>
<polyline fill="none" stroke="#f7e495" points="211.5,-450.13 375.5,-450.13 "/>
<text text-anchor="start" x="219.5" y="-434.93" font-family="Times,serif" font-size="14.00" fill="#40575d">trait HandlerBuilder</text>
<polyline fill="none" stroke="#f7e495" points="211.5,-427.13 375.5,-427.13 "/>
<text text-anchor="start" x="219.5" y="-411.93" font-family="Times,serif" font-size="14.00" fill="#40575d">impl有RaftHandlerBuilder</text>
<text text-anchor="start" x="219.5" y="-396.93" font-family="Times,serif" font-size="14.00" fill="#40575d"> 和apply.Builder</text>
</g>
<!-- spawn&#45;&gt;HandlerBuilder_build -->
<g id="edge5" class="edge">
<title>spawn&#45;&gt;HandlerBuilder_build</title>
<path fill="none" stroke="#666666" d="M106.87,-188.65C142.5,-235.2 210.82,-324.44 253.9,-380.71"/>
<polygon fill="#666666" stroke="#666666" points="251.21,-382.95 260.07,-388.76 256.77,-378.7 251.21,-382.95"/>
</g>
<!-- thread_Build_new_spawn -->
<g id="node7" class="node">
<title>thread_Build_new_spawn</title>
<path fill="none" stroke="#1c2123" d="M213,-36.63C213,-36.63 374,-36.63 374,-36.63 380,-36.63 386,-42.63 386,-48.63 386,-48.63 386,-85.63 386,-85.63 386,-91.63 380,-97.63 374,-97.63 374,-97.63 213,-97.63 213,-97.63 207,-97.63 201,-91.63 201,-85.63 201,-85.63 201,-48.63 201,-48.63 201,-42.63 207,-36.63 213,-36.63"/>
<text text-anchor="middle" x="293.5" y="-82.43" font-family="Times,serif" font-size="14.00" fill="#2f3638">thread::Builder::new().spawn()</text>
<polyline fill="none" stroke="#1c2123" points="201,-74.63 386,-74.63 "/>
<text text-anchor="start" x="209" y="-59.43" font-family="Times,serif" font-size="14.00" fill="#2f3638">spawn线程，在新的</text>
<text text-anchor="start" x="209" y="-44.43" font-family="Times,serif" font-size="14.00" fill="#2f3638"> 线程中执行 poller.poll</text>
</g>
<!-- spawn&#45;&gt;thread_Build_new_spawn -->
<g id="edge6" class="edge">
<title>spawn&#45;&gt;thread_Build_new_spawn</title>
<path fill="none" stroke="#666666" d="M153.68,-127.57C172.63,-119.32 193.28,-110.33 212.72,-101.86"/>
<polygon fill="#666666" stroke="#666666" points="214.38,-104.96 222.15,-97.76 211.59,-98.54 214.38,-104.96"/>
</g>
<!-- Poller -->
<g id="node8" class="node">
<title>Poller</title>
<path fill="#79d8ce" stroke="#60b5ac" d="M434,-117.13C434,-117.13 603,-117.13 603,-117.13 609,-117.13 615,-123.13 615,-129.13 615,-129.13 615,-303.13 615,-303.13 615,-309.13 609,-315.13 603,-315.13 603,-315.13 434,-315.13 434,-315.13 428,-315.13 422,-309.13 422,-303.13 422,-303.13 422,-129.13 422,-129.13 422,-123.13 428,-117.13 434,-117.13"/>
<text text-anchor="middle" x="518.5" y="-299.93" font-family="Times,serif" font-size="14.00" fill="#5d6179">Poller</text>
<polyline fill="none" stroke="#60b5ac" points="422,-292.13 615,-292.13 "/>
<text text-anchor="start" x="430" y="-276.93" font-family="Times,serif" font-size="14.00" fill="#5d6179">router: Router&lt;N,</text>
<text text-anchor="start" x="430" y="-261.93" font-family="Times,serif" font-size="14.00" fill="#5d6179"> C,</text>
<text text-anchor="start" x="430" y="-246.93" font-family="Times,serif" font-size="14.00" fill="#5d6179"> NormalScheduler&lt;N, C&gt;,</text>
<text text-anchor="start" x="430" y="-231.93" font-family="Times,serif" font-size="14.00" fill="#5d6179"> ControlScheduler&lt;N, C&gt;&gt;,</text>
<polyline fill="none" stroke="#60b5ac" points="422,-224.13 615,-224.13 "/>
<text text-anchor="start" x="430" y="-208.93" font-family="Times,serif" font-size="14.00" fill="#5d6179">fsm_receiver: channel::Receiver</text>
<text text-anchor="start" x="430" y="-193.93" font-family="Times,serif" font-size="14.00" fill="#5d6179"> &lt;FsmTypes&lt;N, C&gt;&gt;,</text>
<polyline fill="none" stroke="#60b5ac" points="422,-186.13 615,-186.13 "/>
<text text-anchor="start" x="430" y="-170.93" font-family="Times,serif" font-size="14.00" fill="#5d6179">handler: Handler,</text>
<polyline fill="none" stroke="#60b5ac" points="422,-163.13 615,-163.13 "/>
<text text-anchor="start" x="430" y="-147.93" font-family="Times,serif" font-size="14.00" fill="#5d6179">max_batch_size: usize,</text>
<polyline fill="none" stroke="#60b5ac" points="422,-140.13 615,-140.13 "/>
<text text-anchor="start" x="430" y="-124.93" font-family="Times,serif" font-size="14.00" fill="#5d6179">reschedule_duration: Duration,</text>
</g>
<!-- spawn&#45;&gt;Poller -->
<g id="edge7" class="edge">
<title>spawn&#45;&gt;Poller</title>
<path fill="none" stroke="#666666" d="M165.13,-169.04C234.93,-178.36 335.82,-191.85 411.78,-202"/>
<polygon fill="#666666" stroke="#666666" points="411.48,-205.49 421.86,-203.35 412.41,-198.55 411.48,-205.49"/>
</g>
<!-- workers_push -->
<g id="node9" class="node">
<title>workers_push</title>
<path fill="none" stroke="#1c2123" d="M471.5,-36.63C471.5,-36.63 565.5,-36.63 565.5,-36.63 571.5,-36.63 577.5,-42.63 577.5,-48.63 577.5,-48.63 577.5,-85.63 577.5,-85.63 577.5,-91.63 571.5,-97.63 565.5,-97.63 565.5,-97.63 471.5,-97.63 471.5,-97.63 465.5,-97.63 459.5,-91.63 459.5,-85.63 459.5,-85.63 459.5,-48.63 459.5,-48.63 459.5,-42.63 465.5,-36.63 471.5,-36.63"/>
<text text-anchor="middle" x="518.5" y="-82.43" font-family="Times,serif" font-size="14.00" fill="#2f3638">workers_push</text>
<polyline fill="none" stroke="#1c2123" points="459.5,-74.63 577.5,-74.63 "/>
<text text-anchor="start" x="467.5" y="-59.43" font-family="Times,serif" font-size="14.00" fill="#2f3638">将新线程handler</text>
<text text-anchor="start" x="467.5" y="-44.43" font-family="Times,serif" font-size="14.00" fill="#2f3638"> push到workers中</text>
</g>
<!-- spawn&#45;&gt;workers_push -->
<g id="edge8" class="edge">
<title>spawn&#45;&gt;workers_push</title>
<path fill="none" stroke="#666666" d="M165.27,-147.24C226.47,-138.4 312,-124.55 386,-107.13 406.86,-102.22 429.27,-95.83 449.57,-89.61"/>
<polygon fill="#666666" stroke="#666666" points="450.84,-92.88 459.35,-86.57 448.76,-86.19 450.84,-92.88"/>
</g>
<!-- RaftPollerHandler_build -->
<g id="node3" class="node">
<title>RaftPollerHandler_build</title>
<path fill="none" stroke="#1c2123" d="M447,-480.63C447,-480.63 590,-480.63 590,-480.63 596,-480.63 602,-486.63 602,-492.63 602,-492.63 602,-529.63 602,-529.63 602,-535.63 596,-541.63 590,-541.63 590,-541.63 447,-541.63 447,-541.63 441,-541.63 435,-535.63 435,-529.63 435,-529.63 435,-492.63 435,-492.63 435,-486.63 441,-480.63 447,-480.63"/>
<text text-anchor="middle" x="518.5" y="-526.43" font-family="Times,serif" font-size="14.00" fill="#2f3638">RaftPollerHandler.build</text>
<polyline fill="none" stroke="#1c2123" points="435,-518.63 602,-518.63 "/>
<text text-anchor="start" x="443" y="-503.43" font-family="Times,serif" font-size="14.00" fill="#2f3638">创建RaftPoller，处理Raft</text>
<text text-anchor="start" x="443" y="-488.43" font-family="Times,serif" font-size="14.00" fill="#2f3638"> 相关消息</text>
</g>
<!-- HandlerBuilder_build&#45;&gt;RaftPollerHandler_build -->
<g id="edge1" class="edge">
<title>HandlerBuilder_build&#45;&gt;RaftPollerHandler_build</title>
<path fill="none" stroke="green" stroke-dasharray="5,2" d="M375.64,-460.24C391.77,-466.02 408.83,-472.14 425.3,-478.05"/>
<polygon fill="green" stroke="green" points="424.33,-481.42 434.92,-481.5 426.69,-474.83 424.33,-481.42"/>
</g>
<!-- ApplyPollerHandler_build -->
<g id="node4" class="node">
<title>ApplyPollerHandler_build</title>
<path fill="none" stroke="#1c2123" d="M475,-400.63C475,-400.63 562,-400.63 562,-400.63 568,-400.63 574,-406.63 574,-412.63 574,-412.63 574,-449.63 574,-449.63 574,-455.63 568,-461.63 562,-461.63 562,-461.63 475,-461.63 475,-461.63 469,-461.63 463,-455.63 463,-449.63 463,-449.63 463,-412.63 463,-412.63 463,-406.63 469,-400.63 475,-400.63"/>
<text text-anchor="middle" x="518.5" y="-446.43" font-family="Times,serif" font-size="14.00" fill="#2f3638">apply.Builder</text>
<polyline fill="none" stroke="#1c2123" points="463,-438.63 574,-438.63 "/>
<text text-anchor="start" x="471" y="-423.43" font-family="Times,serif" font-size="14.00" fill="#2f3638">创建ApplyPoller</text>
<text text-anchor="start" x="471" y="-408.43" font-family="Times,serif" font-size="14.00" fill="#2f3638"> 处理Apply消息</text>
</g>
<!-- HandlerBuilder_build&#45;&gt;ApplyPollerHandler_build -->
<g id="edge2" class="edge">
<title>HandlerBuilder_build&#45;&gt;ApplyPollerHandler_build</title>
<path fill="none" stroke="green" stroke-dasharray="5,2" d="M375.64,-431.13C401.03,-431.13 428.69,-431.13 452.79,-431.13"/>
<polygon fill="green" stroke="green" points="452.88,-434.63 462.88,-431.13 452.88,-427.63 452.88,-434.63"/>
</g>
<!-- RaftPoller -->
<g id="node5" class="node">
<title>RaftPoller</title>
<path fill="none" stroke="#1c2123" d="M748,-529.13C748,-529.13 700,-529.13 700,-529.13 694,-529.13 688,-523.13 688,-517.13 688,-517.13 688,-505.13 688,-505.13 688,-499.13 694,-493.13 700,-493.13 700,-493.13 748,-493.13 748,-493.13 754,-493.13 760,-499.13 760,-505.13 760,-505.13 760,-517.13 760,-517.13 760,-523.13 754,-529.13 748,-529.13"/>
<text text-anchor="middle" x="724" y="-507.43" font-family="Times,serif" font-size="14.00" fill="#2f3638">RaftPoller</text>
</g>
<!-- RaftPollerHandler_build&#45;&gt;RaftPoller -->
<g id="edge3" class="edge">
<title>RaftPollerHandler_build&#45;&gt;RaftPoller</title>
<path fill="none" stroke="#666666" d="M602.27,-511.13C628.01,-511.13 655.44,-511.13 677.63,-511.13"/>
<polygon fill="#666666" stroke="#666666" points="677.76,-514.63 687.76,-511.13 677.76,-507.63 677.76,-514.63"/>
</g>
<!-- ApplyPoller -->
<g id="node6" class="node">
<title>ApplyPoller</title>
<path fill="none" stroke="#1c2123" d="M753.5,-462.13C753.5,-462.13 694.5,-462.13 694.5,-462.13 688.5,-462.13 682.5,-456.13 682.5,-450.13 682.5,-450.13 682.5,-438.13 682.5,-438.13 682.5,-432.13 688.5,-426.13 694.5,-426.13 694.5,-426.13 753.5,-426.13 753.5,-426.13 759.5,-426.13 765.5,-432.13 765.5,-438.13 765.5,-438.13 765.5,-450.13 765.5,-450.13 765.5,-456.13 759.5,-462.13 753.5,-462.13"/>
<text text-anchor="middle" x="724" y="-440.43" font-family="Times,serif" font-size="14.00" fill="#2f3638">ApplyPoller</text>
</g>
<!-- ApplyPollerHandler_build&#45;&gt;ApplyPoller -->
<g id="edge4" class="edge">
<title>ApplyPollerHandler_build&#45;&gt;ApplyPoller</title>
<path fill="none" stroke="#666666" d="M574.03,-434.61C604.47,-436.56 642.15,-438.96 672,-440.87"/>
<polygon fill="#666666" stroke="#666666" points="672,-444.38 682.2,-441.52 672.45,-437.39 672,-444.38"/>
</g>
<!-- begin -->
<g id="node11" class="node">
<title>begin</title>
<path fill="none" stroke="#1c2123" d="M879,-561.13C879,-561.13 978,-561.13 978,-561.13 984,-561.13 990,-567.13 990,-573.13 990,-573.13 990,-595.13 990,-595.13 990,-601.13 984,-607.13 978,-607.13 978,-607.13 879,-607.13 879,-607.13 873,-607.13 867,-601.13 867,-595.13 867,-595.13 867,-573.13 867,-573.13 867,-567.13 873,-561.13 879,-561.13"/>
<text text-anchor="middle" x="928.5" y="-591.93" font-family="Times,serif" font-size="14.00" fill="#2f3638">begin</text>
<polyline fill="none" stroke="#1c2123" points="867,-584.13 990,-584.13 "/>
<text text-anchor="start" x="875" y="-568.93" font-family="Times,serif" font-size="14.00" fill="#2f3638">开始处理一批fsm</text>
</g>
<!-- RaftPoller&#45;&gt;begin -->
<g id="edge15" class="edge">
<title>RaftPoller&#45;&gt;begin</title>
<path fill="none" stroke="green" stroke-dasharray="5,2" d="M760.45,-524.45C781.5,-532.31 808.73,-542.4 833,-551.13 840.87,-553.96 849.13,-556.9 857.35,-559.79"/>
<polygon fill="green" stroke="green" points="856.35,-563.15 866.95,-563.17 858.67,-556.55 856.35,-563.15"/>
</g>
<!-- handle_control -->
<g id="node12" class="node">
<title>handle_control</title>
<path fill="none" stroke="#1c2123" d="M870.5,-626.63C870.5,-626.63 986.5,-626.63 986.5,-626.63 992.5,-626.63 998.5,-632.63 998.5,-638.63 998.5,-638.63 998.5,-675.63 998.5,-675.63 998.5,-681.63 992.5,-687.63 986.5,-687.63 986.5,-687.63 870.5,-687.63 870.5,-687.63 864.5,-687.63 858.5,-681.63 858.5,-675.63 858.5,-675.63 858.5,-638.63 858.5,-638.63 858.5,-632.63 864.5,-626.63 870.5,-626.63"/>
<text text-anchor="middle" x="928.5" y="-672.43" font-family="Times,serif" font-size="14.00" fill="#2f3638">handle_control</text>
<polyline fill="none" stroke="#1c2123" points="858.5,-664.63 998.5,-664.63 "/>
<text text-anchor="start" x="866.5" y="-649.43" font-family="Times,serif" font-size="14.00" fill="#2f3638">处理control类型消息</text>
<text text-anchor="start" x="866.5" y="-634.43" font-family="Times,serif" font-size="14.00" fill="#2f3638"> StoreFsm</text>
</g>
<!-- RaftPoller&#45;&gt;handle_control -->
<g id="edge16" class="edge">
<title>RaftPoller&#45;&gt;handle_control</title>
<path fill="none" stroke="green" stroke-dasharray="5,2" d="M739.77,-529.38C759.16,-552.37 795.19,-591.91 833,-617.13 838.15,-620.57 843.65,-623.81 849.31,-626.85"/>
<polygon fill="green" stroke="green" points="847.8,-630 858.29,-631.45 850.99,-623.77 847.8,-630"/>
</g>
<!-- handle_normal -->
<g id="node13" class="node">
<title>handle_normal</title>
<path fill="none" stroke="#1c2123" d="M846.5,-370.63C846.5,-370.63 1010.5,-370.63 1010.5,-370.63 1016.5,-370.63 1022.5,-376.63 1022.5,-382.63 1022.5,-382.63 1022.5,-449.63 1022.5,-449.63 1022.5,-455.63 1016.5,-461.63 1010.5,-461.63 1010.5,-461.63 846.5,-461.63 846.5,-461.63 840.5,-461.63 834.5,-455.63 834.5,-449.63 834.5,-449.63 834.5,-382.63 834.5,-382.63 834.5,-376.63 840.5,-370.63 846.5,-370.63"/>
<text text-anchor="middle" x="928.5" y="-446.43" font-family="Times,serif" font-size="14.00" fill="#2f3638">handle_normal</text>
<polyline fill="none" stroke="#1c2123" points="834.5,-438.63 1022.5,-438.63 "/>
<text text-anchor="start" x="842.5" y="-423.43" font-family="Times,serif" font-size="14.00" fill="#2f3638">从fsm自己的reciver中</text>
<text text-anchor="start" x="842.5" y="-408.43" font-family="Times,serif" font-size="14.00" fill="#2f3638"> try_reciver 最多</text>
<text text-anchor="start" x="842.5" y="-393.43" font-family="Times,serif" font-size="14.00" fill="#2f3638"> messages_per_tick个消息</text>
<text text-anchor="start" x="842.5" y="-378.43" font-family="Times,serif" font-size="14.00" fill="#2f3638"> 处理这些normal类型的消息</text>
</g>
<!-- RaftPoller&#45;&gt;handle_normal -->
<g id="edge17" class="edge">
<title>RaftPoller&#45;&gt;handle_normal</title>
<path fill="none" stroke="green" stroke-dasharray="5,2" d="M760.27,-494.58C778.48,-486.04 801.73,-475.13 825.06,-464.19"/>
<polygon fill="green" stroke="green" points="826.78,-467.25 834.34,-459.83 823.8,-460.91 826.78,-467.25"/>
</g>
<!-- end -->
<g id="node14" class="node">
<title>end</title>
<path fill="none" stroke="#1c2123" d="M845,-480.63C845,-480.63 1012,-480.63 1012,-480.63 1018,-480.63 1024,-486.63 1024,-492.63 1024,-492.63 1024,-529.63 1024,-529.63 1024,-535.63 1018,-541.63 1012,-541.63 1012,-541.63 845,-541.63 845,-541.63 839,-541.63 833,-535.63 833,-529.63 833,-529.63 833,-492.63 833,-492.63 833,-486.63 839,-480.63 845,-480.63"/>
<text text-anchor="middle" x="928.5" y="-526.43" font-family="Times,serif" font-size="14.00" fill="#2f3638">end</text>
<polyline fill="none" stroke="#1c2123" points="833,-518.63 1024,-518.63 "/>
<text text-anchor="start" x="841" y="-503.43" font-family="Times,serif" font-size="14.00" fill="#2f3638">一批fsm处理完毕</text>
<text text-anchor="start" x="841" y="-488.43" font-family="Times,serif" font-size="14.00" fill="#2f3638"> 做一些清理，落盘之类操作</text>
</g>
<!-- RaftPoller&#45;&gt;end -->
<g id="edge18" class="edge">
<title>RaftPoller&#45;&gt;end</title>
<path fill="none" stroke="green" stroke-dasharray="5,2" d="M760.27,-511.13C777.76,-511.13 799.91,-511.13 822.31,-511.13"/>
<polygon fill="green" stroke="green" points="822.61,-514.63 832.61,-511.13 822.61,-507.63 822.61,-514.63"/>
</g>
<!-- ApplyPoller&#45;&gt;begin -->
<g id="edge11" class="edge">
<title>ApplyPoller&#45;&gt;begin</title>
<path fill="none" stroke="green" stroke-dasharray="5,2" d="M765.54,-461.42C776.64,-467.47 788.06,-475.07 797,-484.13 820.73,-508.2 807.3,-529.17 833,-551.13 840.26,-557.33 848.75,-562.38 857.61,-566.51"/>
<polygon fill="green" stroke="green" points="856.38,-569.78 866.95,-570.47 859.11,-563.34 856.38,-569.78"/>
</g>
<!-- ApplyPoller&#45;&gt;handle_control -->
<g id="edge12" class="edge">
<title>ApplyPoller&#45;&gt;handle_control</title>
<path fill="none" stroke="green" stroke-dasharray="5,2" d="M765.8,-459.59C777.31,-465.69 788.89,-473.77 797,-484.13 834.74,-532.35 792.74,-570.98 833,-617.13 837.83,-622.67 843.56,-627.46 849.77,-631.6"/>
<polygon fill="green" stroke="green" points="848.12,-634.7 858.5,-636.85 851.74,-628.7 848.12,-634.7"/>
</g>
<!-- ApplyPoller&#45;&gt;handle_normal -->
<g id="edge13" class="edge">
<title>ApplyPoller&#45;&gt;handle_normal</title>
<path fill="none" stroke="green" stroke-dasharray="5,2" d="M765.98,-438.46C782.96,-436.11 803.5,-433.27 824.16,-430.42"/>
<polygon fill="green" stroke="green" points="824.87,-433.85 834.29,-429.02 823.91,-426.92 824.87,-433.85"/>
</g>
<!-- ApplyPoller&#45;&gt;end -->
<g id="edge14" class="edge">
<title>ApplyPoller&#45;&gt;end</title>
<path fill="none" stroke="green" stroke-dasharray="5,2" d="M765.98,-457.69C783.32,-463.42 804.36,-470.39 825.45,-477.36"/>
<polygon fill="green" stroke="green" points="824.54,-480.75 835.13,-480.57 826.74,-474.1 824.54,-480.75"/>
</g>
<!-- thread_Build_new_spawn&#45;&gt;workers_push -->
<g id="edge9" class="edge">
<title>thread_Build_new_spawn&#45;&gt;workers_push</title>
<path fill="none" stroke="green" stroke-dasharray="5,2" d="M386.17,-67.13C407.24,-67.13 429.29,-67.13 449.17,-67.13"/>
<polygon fill="green" stroke="green" points="449.36,-70.63 459.36,-67.13 449.36,-63.63 449.36,-70.63"/>
</g>
<!-- poll -->
<g id="node10" class="node">
<title>poll</title>
<path fill="none" stroke="#1c2123" d="M663,-239.13C663,-239.13 785,-239.13 785,-239.13 791,-239.13 797,-245.13 797,-251.13 797,-251.13 797,-303.13 797,-303.13 797,-309.13 791,-315.13 785,-315.13 785,-315.13 663,-315.13 663,-315.13 657,-315.13 651,-309.13 651,-303.13 651,-303.13 651,-251.13 651,-251.13 651,-245.13 657,-239.13 663,-239.13"/>
<text text-anchor="middle" x="724" y="-299.93" font-family="Times,serif" font-size="14.00" fill="#2f3638">poll</text>
<polyline fill="none" stroke="#1c2123" points="651,-292.13 797,-292.13 "/>
<text text-anchor="start" x="659" y="-276.93" font-family="Times,serif" font-size="14.00" fill="#2f3638">从fsm_reciver获取fsm</text>
<text text-anchor="start" x="659" y="-261.93" font-family="Times,serif" font-size="14.00" fill="#2f3638"> 然后调用handler</text>
<text text-anchor="start" x="659" y="-246.93" font-family="Times,serif" font-size="14.00" fill="#2f3638"> 批量处理</text>
</g>
<!-- thread_Build_new_spawn&#45;&gt;poll -->
<g id="edge10" class="edge">
<title>thread_Build_new_spawn&#45;&gt;poll</title>
<path fill="none" stroke="green" stroke-dasharray="5,2" d="M357.27,-36.55C426.22,-7.8 537.45,23.85 615,-27.13 683.02,-71.84 708.4,-169.48 717.72,-228.64"/>
<polygon fill="green" stroke="green" points="714.31,-229.48 719.23,-238.86 721.23,-228.45 714.31,-229.48"/>
</g>
<!-- Poller&#45;&gt;RaftPoller -->
<g id="edge19" class="edge">
<title>Poller:handler&#45;&gt;RaftPoller</title>
<path fill="none" stroke="#666666" d="M615.2,-315.49C648.94,-377.73 608.29,-414.39 651,-471.13 658.18,-480.67 668.34,-488.25 678.78,-494.12"/>
<polygon fill="#666666" stroke="#666666" points="677.45,-497.37 687.94,-498.85 680.66,-491.15 677.45,-497.37"/>
</g>
<!-- Poller&#45;&gt;ApplyPoller -->
<g id="edge20" class="edge">
<title>Poller:handler&#45;&gt;ApplyPoller</title>
<path fill="none" stroke="#666666" d="M615.11,-315.26C617.93,-318.59 670.6,-381.51 701.28,-418.18"/>
<polygon fill="#666666" stroke="#666666" points="698.74,-420.59 707.84,-426.01 704.1,-416.09 698.74,-420.59"/>
</g>
<!-- poll&#45;&gt;begin -->
<g id="edge21" class="edge">
<title>poll&#45;&gt;begin</title>
<path fill="none" stroke="#666666" d="M766.79,-315.54C778.19,-328.07 789.47,-342.75 797,-358.13 835.39,-436.49 776.15,-484.93 833,-551.13 839.62,-558.84 848.15,-564.75 857.38,-569.28"/>
<polygon fill="#666666" stroke="#666666" points="856.22,-572.59 866.78,-573.37 859,-566.17 856.22,-572.59"/>
</g>
<!-- poll&#45;&gt;handle_control -->
<g id="edge22" class="edge">
<title>poll&#45;&gt;handle_control</title>
<path fill="none" stroke="#666666" d="M767.23,-315.33C778.65,-327.85 789.83,-342.58 797,-358.13 845.7,-463.65 762.27,-524.91 833,-617.13 837.55,-623.06 843.14,-628.12 849.31,-632.43"/>
<polygon fill="#666666" stroke="#666666" points="847.71,-635.56 858.05,-637.87 851.41,-629.61 847.71,-635.56"/>
</g>
<!-- poll&#45;&gt;handle_normal -->
<g id="edge23" class="edge">
<title>poll&#45;&gt;handle_normal</title>
<path fill="none" stroke="#666666" d="M773.76,-315.21C792.07,-329.1 813.23,-344.69 833,-358.13 836.31,-360.38 839.7,-362.64 843.15,-364.91"/>
<polygon fill="#666666" stroke="#666666" points="841.5,-368.01 851.79,-370.53 845.31,-362.14 841.5,-368.01"/>
</g>
<!-- poll&#45;&gt;end -->
<g id="edge24" class="edge">
<title>poll&#45;&gt;end</title>
<path fill="none" stroke="#666666" d="M764.87,-315.33C776.47,-328.07 788.34,-342.92 797,-358.13 823.08,-403.93 797.48,-432.18 833,-471.13 833.88,-472.09 834.78,-473.03 835.71,-473.95"/>
<polygon fill="#666666" stroke="#666666" points="833.45,-476.62 843.28,-480.57 838.06,-471.35 833.45,-476.62"/>
</g>
<!-- fetch_fsm -->
<g id="node15" class="node">
<title>fetch_fsm</title>
<path fill="none" stroke="#1c2123" d="M849.5,-216.63C849.5,-216.63 1007.5,-216.63 1007.5,-216.63 1013.5,-216.63 1019.5,-222.63 1019.5,-228.63 1019.5,-228.63 1019.5,-303.63 1019.5,-303.63 1019.5,-309.63 1013.5,-315.63 1007.5,-315.63 1007.5,-315.63 849.5,-315.63 849.5,-315.63 843.5,-315.63 837.5,-309.63 837.5,-303.63 837.5,-303.63 837.5,-228.63 837.5,-228.63 837.5,-222.63 843.5,-216.63 849.5,-216.63"/>
<text text-anchor="middle" x="928.5" y="-300.43" font-family="Times,serif" font-size="14.00" fill="#2f3638">fetch_fsm</text>
<polyline fill="none" stroke="#1c2123" points="837.5,-292.63 1019.5,-292.63 "/>
<text text-anchor="start" x="845.5" y="-277.43" font-family="Times,serif" font-size="14.00" fill="#2f3638">从fsm_reciver</text>
<text text-anchor="start" x="845.5" y="-262.43" font-family="Times,serif" font-size="14.00" fill="#2f3638"> 也就是BatchSystem.reciever</text>
<text text-anchor="start" x="845.5" y="-247.43" font-family="Times,serif" font-size="14.00" fill="#2f3638"> 中获取fsm</text>
<polyline fill="none" stroke="#1c2123" points="837.5,-239.63 1019.5,-239.63 "/>
<text text-anchor="middle" x="928.5" y="-224.43" font-family="Times,serif" font-size="14.00" fill="#2f3638"> </text>
</g>
<!-- poll&#45;&gt;fetch_fsm -->
<g id="edge25" class="edge">
<title>poll&#45;&gt;fetch_fsm</title>
<path fill="none" stroke="#666666" d="M797.25,-273.2C806.96,-272.68 817.06,-272.13 827.15,-271.58"/>
<polygon fill="#666666" stroke="#666666" points="827.42,-275.07 837.22,-271.03 827.04,-268.08 827.42,-275.07"/>
</g>
</g>
</svg>
