<?xml version="1.0" encoding="UTF-8" standalone="no"?>
<!DOCTYPE svg PUBLIC "-//W3C//DTD SVG 1.1//EN"
 "http://www.w3.org/Graphics/SVG/1.1/DTD/svg11.dtd">
<!-- Generated by graphviz version 2.47.1 (20210417.1919)
 -->
<!-- Title: build_executors Pages: 1 -->
<svg width="1112pt" height="530pt"
 viewBox="0.00 0.00 1112.00 530.00" xmlns="http://www.w3.org/2000/svg" xmlns:xlink="http://www.w3.org/1999/xlink">
<g id="graph0" class="graph" transform="scale(1 1) rotate(0) translate(4 526)">
<title>build_executors</title>
<polygon fill="white" stroke="transparent" points="-4,4 -4,-526 1108,-526 1108,4 -4,4"/>
<!-- DagHandlerBuilder_new -->
<g id="node1" class="node">
<title>DagHandlerBuilder_new</title>
<path fill="none" stroke="#1c2123" d="M12,-411C12,-411 111,-411 111,-411 117,-411 123,-417 123,-423 123,-423 123,-445 123,-445 123,-451 117,-457 111,-457 111,-457 12,-457 12,-457 6,-457 0,-451 0,-445 0,-445 0,-423 0,-423 0,-417 6,-411 12,-411"/>
<text text-anchor="start" x="8" y="-441.8" font-family="Times,serif" font-size="14.00" fill="#2f3638">DagHandlerBuilder</text>
<polyline fill="none" stroke="#1c2123" points="0,-434 123,-434 "/>
<text text-anchor="start" x="8" y="-418.8" font-family="Times,serif" font-size="14.00" fill="#2f3638">new</text>
</g>
<!-- BatchDAGHandler_new -->
<g id="node2" class="node">
<title>BatchDAGHandler_new</title>
<path fill="none" stroke="#1c2123" d="M171,-411C171,-411 268,-411 268,-411 274,-411 280,-417 280,-423 280,-423 280,-445 280,-445 280,-451 274,-457 268,-457 268,-457 171,-457 171,-457 165,-457 159,-451 159,-445 159,-445 159,-423 159,-423 159,-417 165,-411 171,-411"/>
<text text-anchor="start" x="167" y="-441.8" font-family="Times,serif" font-size="14.00" fill="#2f3638">BatchDAGHandler</text>
<polyline fill="none" stroke="#1c2123" points="159,-434 280,-434 "/>
<text text-anchor="start" x="167" y="-418.8" font-family="Times,serif" font-size="14.00" fill="#2f3638">new</text>
</g>
<!-- DagHandlerBuilder_new&#45;&gt;BatchDAGHandler_new -->
<g id="edge1" class="edge">
<title>DagHandlerBuilder_new&#45;&gt;BatchDAGHandler_new</title>
<path fill="none" stroke="#666666" d="M123.26,-434C131.59,-434 140.2,-434 148.68,-434"/>
<polygon fill="#666666" stroke="#666666" points="148.93,-437.5 158.93,-434 148.93,-430.5 148.93,-437.5"/>
</g>
<!-- BatchExecutorsRunner_from_request -->
<g id="node3" class="node">
<title>BatchExecutorsRunner_from_request</title>
<path fill="none" stroke="#1c2123" d="M432,-411C432,-411 550,-411 550,-411 556,-411 562,-417 562,-423 562,-423 562,-445 562,-445 562,-451 556,-457 550,-457 550,-457 432,-457 432,-457 426,-457 420,-451 420,-445 420,-445 420,-423 420,-423 420,-417 426,-411 432,-411"/>
<text text-anchor="start" x="428" y="-441.8" font-family="Times,serif" font-size="14.00" fill="#2f3638">BatchExecutorsRunner</text>
<polyline fill="none" stroke="#1c2123" points="420,-434 562,-434 "/>
<text text-anchor="start" x="428" y="-418.8" font-family="Times,serif" font-size="14.00" fill="#2f3638">from_request</text>
</g>
<!-- BatchDAGHandler_new&#45;&gt;BatchExecutorsRunner_from_request -->
<g id="edge2" class="edge">
<title>BatchDAGHandler_new&#45;&gt;BatchExecutorsRunner_from_request</title>
<path fill="none" stroke="#666666" d="M280.31,-434C318.42,-434 368.25,-434 409.77,-434"/>
<polygon fill="#666666" stroke="#666666" points="409.86,-437.5 419.86,-434 409.86,-430.5 409.86,-437.5"/>
</g>
<!-- build_executors -->
<g id="node4" class="node">
<title>build_executors</title>
<path fill="none" stroke="#1c2123" d="M714,-284.5C714,-284.5 836,-284.5 836,-284.5 842,-284.5 848,-290.5 848,-296.5 848,-296.5 848,-333.5 848,-333.5 848,-339.5 842,-345.5 836,-345.5 836,-345.5 714,-345.5 714,-345.5 708,-345.5 702,-339.5 702,-333.5 702,-333.5 702,-296.5 702,-296.5 702,-290.5 708,-284.5 714,-284.5"/>
<text text-anchor="middle" x="775" y="-330.3" font-family="Times,serif" font-size="14.00" fill="#2f3638">build_executors</text>
<polyline fill="none" stroke="#1c2123" points="702,-322.5 848,-322.5 "/>
<text text-anchor="start" x="710" y="-307.3" font-family="Times,serif" font-size="14.00" fill="#2f3638">根据tipb::Executo定义</text>
<text text-anchor="start" x="710" y="-292.3" font-family="Times,serif" font-size="14.00" fill="#2f3638"> 创建对应的executor</text>
</g>
<!-- BatchExecutorsRunner_from_request&#45;&gt;build_executors -->
<g id="edge12" class="edge">
<title>BatchExecutorsRunner_from_request&#45;&gt;build_executors</title>
<path fill="none" stroke="#666666" d="M562.11,-428.53C594.81,-424.04 633.58,-415.87 666,-401 691.77,-389.18 716.79,-369.92 736.24,-352.62"/>
<polygon fill="#666666" stroke="#666666" points="738.64,-355.17 743.69,-345.86 733.93,-349.99 738.64,-355.17"/>
</g>
<!-- BatchTableScanExecutor； -->
<g id="node6" class="node">
<title>BatchTableScanExecutor；</title>
<path fill="none" stroke="#1c2123" d="M1066,-522C1066,-522 922,-522 922,-522 916,-522 910,-516 910,-510 910,-510 910,-498 910,-498 910,-492 916,-486 922,-486 922,-486 1066,-486 1066,-486 1072,-486 1078,-492 1078,-498 1078,-498 1078,-510 1078,-510 1078,-516 1072,-522 1066,-522"/>
<text text-anchor="middle" x="994" y="-500.3" font-family="Times,serif" font-size="14.00" fill="#2f3638">BatchTableScanExecutor；</text>
</g>
<!-- build_executors&#45;&gt;BatchTableScanExecutor； -->
<g id="edge4" class="edge">
<title>build_executors&#45;&gt;BatchTableScanExecutor；</title>
<path fill="none" stroke="#666666" d="M788.17,-345.72C804.41,-382.64 836.72,-443.75 884,-477 889.13,-480.61 894.69,-483.73 900.49,-486.44"/>
<polygon fill="#666666" stroke="#666666" points="899.21,-489.7 909.78,-490.37 901.93,-483.25 899.21,-489.7"/>
</g>
<!-- BatchIndexScanExecutor -->
<g id="node7" class="node">
<title>BatchIndexScanExecutor</title>
<path fill="none" stroke="#1c2123" d="M1059,-468C1059,-468 929,-468 929,-468 923,-468 917,-462 917,-456 917,-456 917,-444 917,-444 917,-438 923,-432 929,-432 929,-432 1059,-432 1059,-432 1065,-432 1071,-438 1071,-444 1071,-444 1071,-456 1071,-456 1071,-462 1065,-468 1059,-468"/>
<text text-anchor="middle" x="994" y="-446.3" font-family="Times,serif" font-size="14.00" fill="#2f3638">BatchIndexScanExecutor</text>
</g>
<!-- build_executors&#45;&gt;BatchIndexScanExecutor -->
<g id="edge5" class="edge">
<title>build_executors&#45;&gt;BatchIndexScanExecutor</title>
<path fill="none" stroke="#666666" d="M798.8,-345.65C818.66,-370.17 849.6,-403.57 884,-423 891.26,-427.1 899.14,-430.58 907.22,-433.54"/>
<polygon fill="#666666" stroke="#666666" points="906.19,-436.89 916.78,-436.78 908.43,-430.26 906.19,-436.89"/>
</g>
<!-- BatchSimpleAggregationExecutor -->
<g id="node8" class="node">
<title>BatchSimpleAggregationExecutor</title>
<path fill="none" stroke="#1c2123" d="M1083.5,-414C1083.5,-414 904.5,-414 904.5,-414 898.5,-414 892.5,-408 892.5,-402 892.5,-402 892.5,-390 892.5,-390 892.5,-384 898.5,-378 904.5,-378 904.5,-378 1083.5,-378 1083.5,-378 1089.5,-378 1095.5,-384 1095.5,-390 1095.5,-390 1095.5,-402 1095.5,-402 1095.5,-408 1089.5,-414 1083.5,-414"/>
<text text-anchor="middle" x="994" y="-392.3" font-family="Times,serif" font-size="14.00" fill="#2f3638">BatchSimpleAggregationExecutor</text>
</g>
<!-- build_executors&#45;&gt;BatchSimpleAggregationExecutor -->
<g id="edge6" class="edge">
<title>build_executors&#45;&gt;BatchSimpleAggregationExecutor</title>
<path fill="none" stroke="#666666" d="M831.29,-345.58C847.9,-353.96 866.4,-362.51 884,-369 889.82,-371.15 895.88,-373.18 902.03,-375.09"/>
<polygon fill="#666666" stroke="#666666" points="901.16,-378.48 911.74,-377.99 903.16,-371.77 901.16,-378.48"/>
</g>
<!-- BatchFastHashAggregationExecutor -->
<g id="node9" class="node">
<title>BatchFastHashAggregationExecutor</title>
<path fill="none" stroke="#1c2123" d="M1089.5,-360C1089.5,-360 898.5,-360 898.5,-360 892.5,-360 886.5,-354 886.5,-348 886.5,-348 886.5,-336 886.5,-336 886.5,-330 892.5,-324 898.5,-324 898.5,-324 1089.5,-324 1089.5,-324 1095.5,-324 1101.5,-330 1101.5,-336 1101.5,-336 1101.5,-348 1101.5,-348 1101.5,-354 1095.5,-360 1089.5,-360"/>
<text text-anchor="middle" x="994" y="-338.3" font-family="Times,serif" font-size="14.00" fill="#2f3638">BatchFastHashAggregationExecutor</text>
</g>
<!-- build_executors&#45;&gt;BatchFastHashAggregationExecutor -->
<g id="edge7" class="edge">
<title>build_executors&#45;&gt;BatchFastHashAggregationExecutor</title>
<path fill="none" stroke="#666666" d="M848.26,-323.99C857.32,-325.12 866.76,-326.29 876.28,-327.48"/>
<polygon fill="#666666" stroke="#666666" points="875.87,-330.95 886.23,-328.71 876.73,-324.01 875.87,-330.95"/>
</g>
<!-- BatchSlowHashAggregationExecutor -->
<g id="node10" class="node">
<title>BatchSlowHashAggregationExecutor</title>
<path fill="none" stroke="#1c2123" d="M1092,-306C1092,-306 896,-306 896,-306 890,-306 884,-300 884,-294 884,-294 884,-282 884,-282 884,-276 890,-270 896,-270 896,-270 1092,-270 1092,-270 1098,-270 1104,-276 1104,-282 1104,-282 1104,-294 1104,-294 1104,-300 1098,-306 1092,-306"/>
<text text-anchor="middle" x="994" y="-284.3" font-family="Times,serif" font-size="14.00" fill="#2f3638">BatchSlowHashAggregationExecutor</text>
</g>
<!-- build_executors&#45;&gt;BatchSlowHashAggregationExecutor -->
<g id="edge8" class="edge">
<title>build_executors&#45;&gt;BatchSlowHashAggregationExecutor</title>
<path fill="none" stroke="#666666" d="M848.26,-306.01C856.5,-304.98 865.06,-303.92 873.7,-302.84"/>
<polygon fill="#666666" stroke="#666666" points="874.4,-306.28 883.89,-301.58 873.53,-299.34 874.4,-306.28"/>
</g>
<!-- BatchStreamAggregationExecutor -->
<g id="node11" class="node">
<title>BatchStreamAggregationExecutor</title>
<path fill="none" stroke="#1c2123" d="M1083.5,-252C1083.5,-252 904.5,-252 904.5,-252 898.5,-252 892.5,-246 892.5,-240 892.5,-240 892.5,-228 892.5,-228 892.5,-222 898.5,-216 904.5,-216 904.5,-216 1083.5,-216 1083.5,-216 1089.5,-216 1095.5,-222 1095.5,-228 1095.5,-228 1095.5,-240 1095.5,-240 1095.5,-246 1089.5,-252 1083.5,-252"/>
<text text-anchor="middle" x="994" y="-230.3" font-family="Times,serif" font-size="14.00" fill="#2f3638">BatchStreamAggregationExecutor</text>
</g>
<!-- build_executors&#45;&gt;BatchStreamAggregationExecutor -->
<g id="edge9" class="edge">
<title>build_executors&#45;&gt;BatchStreamAggregationExecutor</title>
<path fill="none" stroke="#666666" d="M831.29,-284.42C847.9,-276.04 866.4,-267.49 884,-261 889.82,-258.85 895.88,-256.82 902.03,-254.91"/>
<polygon fill="#666666" stroke="#666666" points="903.16,-258.23 911.74,-252.01 901.16,-251.52 903.16,-258.23"/>
</g>
<!-- BatchLimitExecutor -->
<g id="node12" class="node">
<title>BatchLimitExecutor</title>
<path fill="none" stroke="#1c2123" d="M1046,-198C1046,-198 942,-198 942,-198 936,-198 930,-192 930,-186 930,-186 930,-174 930,-174 930,-168 936,-162 942,-162 942,-162 1046,-162 1046,-162 1052,-162 1058,-168 1058,-174 1058,-174 1058,-186 1058,-186 1058,-192 1052,-198 1046,-198"/>
<text text-anchor="middle" x="994" y="-176.3" font-family="Times,serif" font-size="14.00" fill="#2f3638">BatchLimitExecutor</text>
</g>
<!-- build_executors&#45;&gt;BatchLimitExecutor -->
<g id="edge10" class="edge">
<title>build_executors&#45;&gt;BatchLimitExecutor</title>
<path fill="none" stroke="#666666" d="M798.8,-284.35C818.66,-259.83 849.6,-226.43 884,-207 895.05,-200.76 907.53,-195.95 920,-192.24"/>
<polygon fill="#666666" stroke="#666666" points="921.25,-195.52 929.96,-189.5 919.39,-188.77 921.25,-195.52"/>
</g>
<!-- BatchTopNExecutor -->
<g id="node13" class="node">
<title>BatchTopNExecutor</title>
<path fill="none" stroke="#1c2123" d="M1046,-144C1046,-144 942,-144 942,-144 936,-144 930,-138 930,-132 930,-132 930,-120 930,-120 930,-114 936,-108 942,-108 942,-108 1046,-108 1046,-108 1052,-108 1058,-114 1058,-120 1058,-120 1058,-132 1058,-132 1058,-138 1052,-144 1046,-144"/>
<text text-anchor="middle" x="994" y="-122.3" font-family="Times,serif" font-size="14.00" fill="#2f3638">BatchTopNExecutor</text>
</g>
<!-- build_executors&#45;&gt;BatchTopNExecutor -->
<g id="edge11" class="edge">
<title>build_executors&#45;&gt;BatchTopNExecutor</title>
<path fill="none" stroke="#666666" d="M788.17,-284.28C804.41,-247.36 836.72,-186.25 884,-153 894.74,-145.45 907.37,-140 920.15,-136.08"/>
<polygon fill="#666666" stroke="#666666" points="921.23,-139.41 929.93,-133.36 919.36,-132.66 921.23,-139.41"/>
</g>
<!-- DAGRequest -->
<g id="node5" class="node">
<title>DAGRequest</title>
<path fill="#a2dbfa" stroke="#8a8898" d="M328,-0.5C328,-0.5 654,-0.5 654,-0.5 660,-0.5 666,-6.5 666,-12.5 666,-12.5 666,-379.5 666,-379.5 666,-385.5 660,-391.5 654,-391.5 654,-391.5 328,-391.5 328,-391.5 322,-391.5 316,-385.5 316,-379.5 316,-379.5 316,-12.5 316,-12.5 316,-6.5 322,-0.5 328,-0.5"/>
<text text-anchor="middle" x="491" y="-376.3" font-family="Times,serif" font-size="14.00" fill="#5d6179">DAGRequest</text>
<polyline fill="none" stroke="#8a8898" points="316,-368.5 666,-368.5 "/>
<text text-anchor="start" x="324" y="-353.3" font-family="Times,serif" font-size="14.00" fill="#5d6179">optional uint64 start_ts_fallback = 1;</text>
<polyline fill="none" stroke="#8a8898" points="316,-345.5 666,-345.5 "/>
<text text-anchor="start" x="324" y="-330.3" font-family="Times,serif" font-size="14.00" fill="#5d6179">repeated Executor executors = 2;</text>
<polyline fill="none" stroke="#8a8898" points="316,-322.5 666,-322.5 "/>
<text text-anchor="start" x="324" y="-307.3" font-family="Times,serif" font-size="14.00" fill="#5d6179">optional int64 time_zone_offset = 3;</text>
<polyline fill="none" stroke="#8a8898" points="316,-299.5 666,-299.5 "/>
<text text-anchor="start" x="324" y="-284.3" font-family="Times,serif" font-size="14.00" fill="#5d6179">optional uint64 flags = 4;</text>
<polyline fill="none" stroke="#8a8898" points="316,-276.5 666,-276.5 "/>
<text text-anchor="start" x="324" y="-261.3" font-family="Times,serif" font-size="14.00" fill="#5d6179">repeated uint32 output_offsets = 5;</text>
<polyline fill="none" stroke="#8a8898" points="316,-253.5 666,-253.5 "/>
<text text-anchor="start" x="324" y="-238.3" font-family="Times,serif" font-size="14.00" fill="#5d6179">optional bool collect_range_counts = 6;</text>
<polyline fill="none" stroke="#8a8898" points="316,-230.5 666,-230.5 "/>
<text text-anchor="start" x="324" y="-215.3" font-family="Times,serif" font-size="14.00" fill="#5d6179">optional uint64 max_warning_count = 7;</text>
<polyline fill="none" stroke="#8a8898" points="316,-207.5 666,-207.5 "/>
<text text-anchor="start" x="324" y="-192.3" font-family="Times,serif" font-size="14.00" fill="#5d6179">optional EncodeType encode_type = 8;</text>
<polyline fill="none" stroke="#8a8898" points="316,-184.5 666,-184.5 "/>
<text text-anchor="start" x="324" y="-169.3" font-family="Times,serif" font-size="14.00" fill="#5d6179">optional uint64 sql_mode = 9;</text>
<polyline fill="none" stroke="#8a8898" points="316,-161.5 666,-161.5 "/>
<text text-anchor="start" x="324" y="-146.3" font-family="Times,serif" font-size="14.00" fill="#5d6179">optional string time_zone_name = 11;</text>
<polyline fill="none" stroke="#8a8898" points="316,-138.5 666,-138.5 "/>
<text text-anchor="start" x="324" y="-123.3" font-family="Times,serif" font-size="14.00" fill="#5d6179">optional bool collect_execution_summaries = 12;</text>
<polyline fill="none" stroke="#8a8898" points="316,-115.5 666,-115.5 "/>
<text text-anchor="start" x="324" y="-100.3" font-family="Times,serif" font-size="14.00" fill="#5d6179">optional uint64 max_allowed_packet = 13;</text>
<polyline fill="none" stroke="#8a8898" points="316,-92.5 666,-92.5 "/>
<text text-anchor="start" x="324" y="-77.3" font-family="Times,serif" font-size="14.00" fill="#5d6179">optional ChunkMemoryLayout chunk_memory_layout = 14;</text>
<polyline fill="none" stroke="#8a8898" points="316,-69.5 666,-69.5 "/>
<text text-anchor="start" x="324" y="-54.3" font-family="Times,serif" font-size="14.00" fill="#5d6179">optional bool is_rpn_expr = 15;</text>
<polyline fill="none" stroke="#8a8898" points="316,-46.5 666,-46.5 "/>
<text text-anchor="start" x="324" y="-31.3" font-family="Times,serif" font-size="14.00" fill="#5d6179">optional UserIdentity user = 16;</text>
<polyline fill="none" stroke="#8a8898" points="316,-23.5 666,-23.5 "/>
<text text-anchor="start" x="324" y="-8.3" font-family="Times,serif" font-size="14.00" fill="#5d6179">optional Executor root_executor = 17;</text>
</g>
<!-- DAGRequest&#45;&gt;build_executors -->
<g id="edge3" class="edge">
<title>DAGRequest&#45;&gt;build_executors</title>
<path fill="none" stroke="#666666" d="M666.18,-269.5C675.21,-273.31 684.05,-277.04 692.54,-280.62"/>
<polygon fill="#666666" stroke="#666666" points="691.39,-283.94 701.96,-284.6 694.11,-277.49 691.39,-283.94"/>
</g>
</g>
</svg>
