<?xml version="1.0" encoding="UTF-8" standalone="no"?>
<!DOCTYPE svg PUBLIC "-//W3C//DTD SVG 1.1//EN"
 "http://www.w3.org/Graphics/SVG/1.1/DTD/svg11.dtd">
<!-- Generated by graphviz version 2.47.0 (20210316.0004)
 -->
<!-- Title: exec_change_peer Pages: 1 -->
<svg width="1473pt" height="706pt"
 viewBox="0.00 0.00 1473.00 706.18" xmlns="http://www.w3.org/2000/svg" xmlns:xlink="http://www.w3.org/1999/xlink">
<g id="graph0" class="graph" transform="scale(1 1) rotate(0) translate(4 702.18)">
<title>exec_change_peer</title>
<polygon fill="white" stroke="transparent" points="-4,4 -4,-702.18 1469,-702.18 1469,4 -4,4"/>
<g id="clust2" class="cluster">
<title>cluster_ApplyDelegate</title>
<path fill="none" stroke="slategrey" stroke-dasharray="5,2" d="M20,-31.29C20,-31.29 1445,-31.29 1445,-31.29 1451,-31.29 1457,-37.29 1457,-43.29 1457,-43.29 1457,-677.29 1457,-677.29 1457,-683.29 1451,-689.29 1445,-689.29 1445,-689.29 20,-689.29 20,-689.29 14,-689.29 8,-683.29 8,-677.29 8,-677.29 8,-43.29 8,-43.29 8,-37.29 14,-31.29 20,-31.29"/>
<text text-anchor="middle" x="732.5" y="-669.29" font-family="Times,serif" font-size="20.00">ApplyDelegate</text>
</g>
<!-- exec_admin_cmd -->
<g id="node1" class="node">
<title>exec_admin_cmd</title>
<path fill="none" stroke="#1c2123" d="M117,-361.29C117,-361.29 28,-361.29 28,-361.29 22,-361.29 16,-355.29 16,-349.29 16,-349.29 16,-337.29 16,-337.29 16,-331.29 22,-325.29 28,-325.29 28,-325.29 117,-325.29 117,-325.29 123,-325.29 129,-331.29 129,-337.29 129,-337.29 129,-349.29 129,-349.29 129,-355.29 123,-361.29 117,-361.29"/>
<text text-anchor="middle" x="72.5" y="-339.59" font-family="Times,serif" font-size="14.00" fill="#2f3638">exec_admin_cmd</text>
</g>
<!-- exec_change_peer -->
<g id="node2" class="node">
<title>exec_change_peer</title>
<path fill="none" stroke="#1c2123" d="M279.5,-221.29C279.5,-221.29 187.5,-221.29 187.5,-221.29 181.5,-221.29 175.5,-215.29 175.5,-209.29 175.5,-209.29 175.5,-197.29 175.5,-197.29 175.5,-191.29 181.5,-185.29 187.5,-185.29 187.5,-185.29 279.5,-185.29 279.5,-185.29 285.5,-185.29 291.5,-191.29 291.5,-197.29 291.5,-197.29 291.5,-209.29 291.5,-209.29 291.5,-215.29 285.5,-221.29 279.5,-221.29"/>
<text text-anchor="middle" x="233.5" y="-199.59" font-family="Times,serif" font-size="14.00" fill="#2f3638">exec_change_peer</text>
</g>
<!-- exec_admin_cmd&#45;&gt;exec_change_peer -->
<g id="edge1" class="edge">
<title>exec_admin_cmd&#45;&gt;exec_change_peer</title>
<path fill="none" stroke="#666666" d="M93.96,-325.28C122.03,-300.56 172.59,-256.05 204.25,-228.17"/>
<polygon fill="#666666" stroke="#666666" points="206.67,-230.7 211.87,-221.46 202.05,-225.44 206.67,-230.7"/>
</g>
<!-- exec_change_peer_v2 -->
<g id="node3" class="node">
<title>exec_change_peer_v2</title>
<path fill="none" stroke="#1c2123" d="M290,-501.29C290,-501.29 177,-501.29 177,-501.29 171,-501.29 165,-495.29 165,-489.29 165,-489.29 165,-477.29 165,-477.29 165,-471.29 171,-465.29 177,-465.29 177,-465.29 290,-465.29 290,-465.29 296,-465.29 302,-471.29 302,-477.29 302,-477.29 302,-489.29 302,-489.29 302,-495.29 296,-501.29 290,-501.29"/>
<text text-anchor="middle" x="233.5" y="-479.59" font-family="Times,serif" font-size="14.00" fill="#2f3638">exec_change_peer_v2</text>
</g>
<!-- exec_admin_cmd&#45;&gt;exec_change_peer_v2 -->
<g id="edge2" class="edge">
<title>exec_admin_cmd&#45;&gt;exec_change_peer_v2</title>
<path fill="none" stroke="#666666" d="M93.96,-361.31C122.03,-386.02 172.59,-430.54 204.25,-458.42"/>
<polygon fill="#666666" stroke="#666666" points="202.05,-461.14 211.87,-465.13 206.67,-455.89 202.05,-461.14"/>
</g>
<!-- PeerState_Tombstone -->
<g id="node4" class="node">
<title>PeerState_Tombstone</title>
<path fill="none" stroke="#1c2123" d="M1295,-416.29C1295,-416.29 1183,-416.29 1183,-416.29 1177,-416.29 1171,-410.29 1171,-404.29 1171,-404.29 1171,-392.29 1171,-392.29 1171,-386.29 1177,-380.29 1183,-380.29 1183,-380.29 1295,-380.29 1295,-380.29 1301,-380.29 1307,-386.29 1307,-392.29 1307,-392.29 1307,-404.29 1307,-404.29 1307,-410.29 1301,-416.29 1295,-416.29"/>
<text text-anchor="middle" x="1239" y="-394.59" font-family="Times,serif" font-size="14.00" fill="#2f3638">PeerState_Tombstone</text>
</g>
<!-- exec_change_peer&#45;&gt;PeerState_Tombstone -->
<g id="edge3" class="edge">
<title>exec_change_peer&#45;&gt;PeerState_Tombstone</title>
<path fill="none" stroke="#666666" d="M251.04,-221.62C269.88,-240.98 302.67,-270.35 338,-282.29 389.79,-299.8 533.05,-302.11 584,-282.29 604.23,-274.43 599.77,-257.16 620,-249.29 673.33,-228.55 1089.17,-215.03 1135,-249.29 1180.28,-283.14 1132.99,-329.44 1171,-371.29 1171.76,-372.13 1172.55,-372.94 1173.36,-373.72"/>
<polygon fill="#666666" stroke="#666666" points="1171.35,-376.6 1181.33,-380.15 1175.74,-371.15 1171.35,-376.6"/>
</g>
<!-- PeerState_Normal -->
<g id="node5" class="node">
<title>PeerState_Normal</title>
<path fill="none" stroke="#1c2123" d="M1285,-362.29C1285,-362.29 1193,-362.29 1193,-362.29 1187,-362.29 1181,-356.29 1181,-350.29 1181,-350.29 1181,-338.29 1181,-338.29 1181,-332.29 1187,-326.29 1193,-326.29 1193,-326.29 1285,-326.29 1285,-326.29 1291,-326.29 1297,-332.29 1297,-338.29 1297,-338.29 1297,-350.29 1297,-350.29 1297,-356.29 1291,-362.29 1285,-362.29"/>
<text text-anchor="middle" x="1239" y="-340.59" font-family="Times,serif" font-size="14.00" fill="#2f3638">PeerState_Normal</text>
</g>
<!-- exec_change_peer&#45;&gt;PeerState_Normal -->
<g id="edge4" class="edge">
<title>exec_change_peer&#45;&gt;PeerState_Normal</title>
<path fill="none" stroke="#666666" d="M242.07,-185.24C255.93,-154.86 288.58,-94.45 338,-70.29 453.54,-13.81 954.6,53.7 1135,-71.29 1216.76,-127.94 1233.69,-258.29 1237.15,-315.96"/>
<polygon fill="#666666" stroke="#666666" points="1233.66,-316.35 1237.66,-326.16 1240.65,-316 1233.66,-316.35"/>
</g>
<!-- write_peer_state -->
<g id="node6" class="node">
<title>write_peer_state</title>
<path fill="none" stroke="#1c2123" d="M1437,-389.29C1437,-389.29 1355,-389.29 1355,-389.29 1349,-389.29 1343,-383.29 1343,-377.29 1343,-377.29 1343,-365.29 1343,-365.29 1343,-359.29 1349,-353.29 1355,-353.29 1355,-353.29 1437,-353.29 1437,-353.29 1443,-353.29 1449,-359.29 1449,-365.29 1449,-365.29 1449,-377.29 1449,-377.29 1449,-383.29 1443,-389.29 1437,-389.29"/>
<text text-anchor="middle" x="1396" y="-367.59" font-family="Times,serif" font-size="14.00" fill="#2f3638">write_peer_state</text>
</g>
<!-- exec_change_peer&#45;&gt;write_peer_state -->
<g id="edge5" class="edge">
<title>exec_change_peer&#45;&gt;write_peer_state</title>
<path fill="none" stroke="#666666" d="M242.07,-185.24C255.93,-154.86 288.58,-94.45 338,-70.29 433.53,-23.59 909.79,31.79 1135,-71.29 1261.11,-129.02 1349.61,-281.36 1381.71,-343.9"/>
<polygon fill="#666666" stroke="#666666" points="1378.74,-345.79 1386.37,-353.14 1384.99,-342.64 1378.74,-345.79"/>
</g>
<!-- region_mut_peers -->
<g id="node7" class="node">
<title>region_mut_peers</title>
<path fill="none" stroke="#1c2123" d="M506.5,-115.29C506.5,-115.29 415.5,-115.29 415.5,-115.29 409.5,-115.29 403.5,-109.29 403.5,-103.29 403.5,-103.29 403.5,-91.29 403.5,-91.29 403.5,-85.29 409.5,-79.29 415.5,-79.29 415.5,-79.29 506.5,-79.29 506.5,-79.29 512.5,-79.29 518.5,-85.29 518.5,-91.29 518.5,-91.29 518.5,-103.29 518.5,-103.29 518.5,-109.29 512.5,-115.29 506.5,-115.29"/>
<text text-anchor="middle" x="461" y="-93.59" font-family="Times,serif" font-size="14.00" fill="#2f3638">region_mut_peers</text>
</g>
<!-- exec_change_peer&#45;&gt;region_mut_peers -->
<g id="edge6" class="edge">
<title>exec_change_peer&#45;&gt;region_mut_peers</title>
<path fill="none" stroke="#666666" d="M253.48,-185.02C273.09,-167.16 305.36,-140.49 338,-125.29 355.28,-117.25 375.05,-111.43 393.57,-107.25"/>
<polygon fill="#666666" stroke="#666666" points="394.36,-110.66 403.41,-105.16 392.9,-103.82 394.36,-110.66"/>
</g>
<!-- ConfChangeType_RemoveNode -->
<g id="node8" class="node">
<title>ConfChangeType_RemoveNode</title>
<path fill="none" stroke="#1c2123" d="M376,-416.29C376,-416.29 546,-416.29 546,-416.29 552,-416.29 558,-422.29 558,-428.29 558,-428.29 558,-480.29 558,-480.29 558,-486.29 552,-492.29 546,-492.29 546,-492.29 376,-492.29 376,-492.29 370,-492.29 364,-486.29 364,-480.29 364,-480.29 364,-428.29 364,-428.29 364,-422.29 370,-416.29 376,-416.29"/>
<text text-anchor="middle" x="461" y="-477.09" font-family="Times,serif" font-size="14.00" fill="#2f3638">ConfChangeType_RemoveNode</text>
<polyline fill="none" stroke="#1c2123" points="364,-469.29 558,-469.29 "/>
<text text-anchor="start" x="372" y="-454.09" font-family="Times,serif" font-size="14.00" fill="#2f3638">如果self.id == peer.get_id</text>
<text text-anchor="start" x="372" y="-439.09" font-family="Times,serif" font-size="14.00" fill="#2f3638"> self.stopped = true</text>
<text text-anchor="start" x="372" y="-424.09" font-family="Times,serif" font-size="14.00" fill="#2f3638"> self.pending_remove = true</text>
</g>
<!-- exec_change_peer&#45;&gt;ConfChangeType_RemoveNode -->
<g id="edge7" class="edge">
<title>exec_change_peer&#45;&gt;ConfChangeType_RemoveNode</title>
<path fill="none" stroke="#666666" d="M238.96,-221.55C249.49,-260.91 279.49,-354.46 338,-407.29 343.15,-411.94 348.81,-416.15 354.78,-419.96"/>
<polygon fill="#666666" stroke="#666666" points="353.35,-423.18 363.74,-425.26 356.91,-417.16 353.35,-423.18"/>
</g>
<!-- ExecResult_ChangePeer -->
<g id="node9" class="node">
<title>ExecResult_ChangePeer</title>
<path fill="#feed9b" stroke="#f7e495" d="M352.5,-134.29C352.5,-134.29 569.5,-134.29 569.5,-134.29 575.5,-134.29 581.5,-140.29 581.5,-146.29 581.5,-146.29 581.5,-260.29 581.5,-260.29 581.5,-266.29 575.5,-272.29 569.5,-272.29 569.5,-272.29 352.5,-272.29 352.5,-272.29 346.5,-272.29 340.5,-266.29 340.5,-260.29 340.5,-260.29 340.5,-146.29 340.5,-146.29 340.5,-140.29 346.5,-134.29 352.5,-134.29"/>
<text text-anchor="middle" x="461" y="-257.09" font-family="Times,serif" font-size="14.00" fill="#40575d">ExecResult::ChangePeer</text>
<polyline fill="none" stroke="#f7e495" points="340.5,-249.29 581.5,-249.29 "/>
<text text-anchor="start" x="348.5" y="-234.09" font-family="Times,serif" font-size="14.00" fill="#40575d">要发给peerFsmDelegate的消息</text>
<polyline fill="none" stroke="#f7e495" points="340.5,-226.29 581.5,-226.29 "/>
<text text-anchor="start" x="348.5" y="-211.09" font-family="Times,serif" font-size="14.00" fill="#40575d">pub index: u64,</text>
<polyline fill="none" stroke="#f7e495" points="340.5,-203.29 581.5,-203.29 "/>
<text text-anchor="start" x="348.5" y="-188.09" font-family="Times,serif" font-size="14.00" fill="#40575d">pub conf_change: ConfChangeV2,</text>
<polyline fill="none" stroke="#f7e495" points="340.5,-180.29 581.5,-180.29 "/>
<text text-anchor="start" x="348.5" y="-165.09" font-family="Times,serif" font-size="14.00" fill="#40575d">pub changes: Vec&lt;ChangePeerRequest&gt;,</text>
<polyline fill="none" stroke="#f7e495" points="340.5,-157.29 581.5,-157.29 "/>
<text text-anchor="start" x="348.5" y="-142.09" font-family="Times,serif" font-size="14.00" fill="#40575d">pub region: Region,</text>
</g>
<!-- exec_change_peer&#45;&gt;ExecResult_ChangePeer -->
<g id="edge8" class="edge">
<title>exec_change_peer&#45;&gt;ExecResult_ChangePeer</title>
<path fill="none" stroke="#666666" d="M291.69,-203.29C303.65,-203.29 316.72,-203.29 330.12,-203.29"/>
<polygon fill="#666666" stroke="#666666" points="330.42,-206.79 340.42,-203.29 330.42,-199.79 330.42,-206.79"/>
</g>
<!-- exec_change_peer_v2&#45;&gt;write_peer_state -->
<g id="edge17" class="edge">
<title>exec_change_peer_v2&#45;&gt;write_peer_state</title>
<path fill="none" stroke="#666666" d="M240.05,-501.44C251.71,-535.97 282.38,-610.34 338,-640.29 493.94,-724.27 971.95,-709.46 1135,-640.29 1253.66,-589.96 1344.59,-456.01 1379.48,-398.33"/>
<polygon fill="#666666" stroke="#666666" points="1382.67,-399.82 1384.78,-389.44 1376.65,-396.23 1382.67,-399.82"/>
</g>
<!-- exec_change_peer_v2&#45;&gt;ConfChangeType_RemoveNode -->
<g id="edge18" class="edge">
<title>exec_change_peer_v2&#45;&gt;ConfChangeType_RemoveNode</title>
<path fill="none" stroke="#666666" d="M302.16,-474.59C318.32,-472.51 335.95,-470.25 353.4,-468"/>
<polygon fill="#666666" stroke="#666666" points="354.16,-471.43 363.63,-466.69 353.26,-464.49 354.16,-471.43"/>
</g>
<!-- pending_remove -->
<g id="node10" class="node">
<title>pending_remove</title>
<path fill="none" stroke="#1c2123" d="M919.5,-577.29C919.5,-577.29 835.5,-577.29 835.5,-577.29 829.5,-577.29 823.5,-571.29 823.5,-565.29 823.5,-565.29 823.5,-553.29 823.5,-553.29 823.5,-547.29 829.5,-541.29 835.5,-541.29 835.5,-541.29 919.5,-541.29 919.5,-541.29 925.5,-541.29 931.5,-547.29 931.5,-553.29 931.5,-553.29 931.5,-565.29 931.5,-565.29 931.5,-571.29 925.5,-577.29 919.5,-577.29"/>
<text text-anchor="middle" x="877.5" y="-555.59" font-family="Times,serif" font-size="14.00" fill="#2f3638">pending_remove</text>
</g>
<!-- exec_change_peer_v2&#45;&gt;pending_remove -->
<g id="edge19" class="edge">
<title>exec_change_peer_v2&#45;&gt;pending_remove</title>
<path fill="none" stroke="#666666" d="M302.27,-496.74C314.14,-498.81 326.41,-500.76 338,-502.29 446.75,-516.66 476,-503.08 584,-522.29 600.35,-525.2 603.69,-529.19 620,-532.29 685.16,-544.68 760.79,-551.78 812.96,-555.55"/>
<polygon fill="#666666" stroke="#666666" points="812.85,-559.05 823.07,-556.26 813.34,-552.07 812.85,-559.05"/>
</g>
<!-- apply_conf_change -->
<g id="node13" class="node">
<title>apply_conf_change</title>
<path fill="none" stroke="#1c2123" d="M350,-313.29C350,-313.29 572,-313.29 572,-313.29 578,-313.29 584,-319.29 584,-325.29 584,-325.29 584,-385.29 584,-385.29 584,-391.29 578,-397.29 572,-397.29 572,-397.29 350,-397.29 350,-397.29 344,-397.29 338,-391.29 338,-385.29 338,-385.29 338,-325.29 338,-325.29 338,-319.29 344,-313.29 350,-313.29"/>
<text text-anchor="middle" x="461" y="-382.09" font-family="Times,serif" font-size="14.00" fill="#2f3638">apply_conf_change</text>
<polyline fill="none" stroke="#1c2123" points="338,-374.29 584,-374.29 "/>
<text text-anchor="start" x="346" y="-359.09" font-family="Times,serif" font-size="14.00" fill="#2f3638">更新region的ver: conf_ver + changes.len</text>
<text text-anchor="start" x="346" y="-344.09" font-family="Times,serif" font-size="14.00" fill="#2f3638"> 更新region的peer list</text>
<polyline fill="none" stroke="#1c2123" points="338,-336.29 584,-336.29 "/>
<text text-anchor="start" x="346" y="-321.09" font-family="Times,serif" font-size="14.00" fill="#2f3638">更新peer的role</text>
</g>
<!-- exec_change_peer_v2&#45;&gt;apply_conf_change -->
<g id="edge20" class="edge">
<title>exec_change_peer_v2&#45;&gt;apply_conf_change</title>
<path fill="none" stroke="#666666" d="M256.1,-465.13C276.37,-448.66 307.98,-424.41 338,-407.29 341.19,-405.48 344.45,-403.68 347.77,-401.92"/>
<polygon fill="#666666" stroke="#666666" points="349.39,-405.02 356.66,-397.32 346.17,-398.8 349.39,-405.02"/>
</g>
<!-- apply_leave_joint -->
<g id="node14" class="node">
<title>apply_leave_joint</title>
<path fill="none" stroke="#1c2123" d="M363,-531.79C363,-531.79 559,-531.79 559,-531.79 565,-531.79 571,-537.79 571,-543.79 571,-543.79 571,-618.79 571,-618.79 571,-624.79 565,-630.79 559,-630.79 559,-630.79 363,-630.79 363,-630.79 357,-630.79 351,-624.79 351,-618.79 351,-618.79 351,-543.79 351,-543.79 351,-537.79 357,-531.79 363,-531.79"/>
<text text-anchor="middle" x="461" y="-615.59" font-family="Times,serif" font-size="14.00" fill="#2f3638">apply_leave_joint</text>
<polyline fill="none" stroke="#1c2123" points="351,-607.79 571,-607.79 "/>
<text text-anchor="start" x="359" y="-592.59" font-family="Times,serif" font-size="14.00" fill="#2f3638">将peer角色由:</text>
<text text-anchor="start" x="359" y="-577.59" font-family="Times,serif" font-size="14.00" fill="#2f3638"> IncomingVoter 改为PeerRole_Voter</text>
<text text-anchor="start" x="359" y="-562.59" font-family="Times,serif" font-size="14.00" fill="#2f3638"> DemotingVoter 改为Leanner</text>
<polyline fill="none" stroke="#1c2123" points="351,-554.79 571,-554.79 "/>
<text text-anchor="start" x="359" y="-539.59" font-family="Times,serif" font-size="14.00" fill="#2f3638">更改conf_ver</text>
</g>
<!-- exec_change_peer_v2&#45;&gt;apply_leave_joint -->
<g id="edge21" class="edge">
<title>exec_change_peer_v2&#45;&gt;apply_leave_joint</title>
<path fill="none" stroke="#666666" d="M276.12,-501.38C294.88,-509.54 318.09,-519.62 341.62,-529.85"/>
<polygon fill="#666666" stroke="#666666" points="340.43,-533.15 351,-533.92 343.22,-526.73 340.43,-533.15"/>
</g>
<!-- PeerState_Tombstone&#45;&gt;write_peer_state -->
<g id="edge13" class="edge">
<title>PeerState_Tombstone&#45;&gt;write_peer_state</title>
<path fill="none" stroke="green" stroke-dasharray="5,2" d="M1307.08,-386.61C1315.58,-385.13 1324.24,-383.62 1332.65,-382.15"/>
<polygon fill="green" stroke="green" points="1333.51,-385.56 1342.77,-380.39 1332.31,-378.66 1333.51,-385.56"/>
</g>
<!-- PeerState_Normal&#45;&gt;write_peer_state -->
<g id="edge14" class="edge">
<title>PeerState_Normal&#45;&gt;write_peer_state</title>
<path fill="none" stroke="green" stroke-dasharray="5,2" d="M1297.28,-354.27C1308.81,-356.28 1321,-358.4 1332.7,-360.44"/>
<polygon fill="green" stroke="green" points="1332.38,-363.94 1342.83,-362.21 1333.58,-357.04 1332.38,-363.94"/>
</g>
<!-- Region -->
<g id="node12" class="node">
<title>Region</title>
<path fill="#feed9b" stroke="#f7e495" d="M632,-80.29C632,-80.29 1123,-80.29 1123,-80.29 1129,-80.29 1135,-86.29 1135,-92.29 1135,-92.29 1135,-206.29 1135,-206.29 1135,-212.29 1129,-218.29 1123,-218.29 1123,-218.29 632,-218.29 632,-218.29 626,-218.29 620,-212.29 620,-206.29 620,-206.29 620,-92.29 620,-92.29 620,-86.29 626,-80.29 632,-80.29"/>
<text text-anchor="middle" x="877.5" y="-203.09" font-family="Times,serif" font-size="14.00" fill="#40575d">Region</text>
<polyline fill="none" stroke="#f7e495" points="620,-195.29 1135,-195.29 "/>
<text text-anchor="start" x="628" y="-180.09" font-family="Times,serif" font-size="14.00" fill="#40575d">pub start_key: ::std::vec::Vec&lt;u8&gt;,</text>
<polyline fill="none" stroke="#f7e495" points="620,-172.29 1135,-172.29 "/>
<text text-anchor="start" x="628" y="-157.09" font-family="Times,serif" font-size="14.00" fill="#40575d">pub end_key: ::std::vec::Vec&lt;u8&gt;,</text>
<polyline fill="none" stroke="#f7e495" points="620,-149.29 1135,-149.29 "/>
<text text-anchor="start" x="628" y="-134.09" font-family="Times,serif" font-size="14.00" fill="#40575d">pub region_epoch: ::protobuf::SingularPtrField&lt;RegionEpoch&gt;,</text>
<polyline fill="none" stroke="#f7e495" points="620,-126.29 1135,-126.29 "/>
<text text-anchor="start" x="628" y="-111.09" font-family="Times,serif" font-size="14.00" fill="#40575d">pub peers: ::protobuf::RepeatedField&lt;Peer&gt;,</text>
<polyline fill="none" stroke="#f7e495" points="620,-103.29 1135,-103.29 "/>
<text text-anchor="start" x="628" y="-88.09" font-family="Times,serif" font-size="14.00" fill="#40575d">pub encryption_meta: ::protobuf::SingularPtrField&lt;super::encryptionpb::EncryptionMeta&gt;,</text>
</g>
<!-- region_mut_peers&#45;&gt;Region -->
<g id="edge15" class="edge">
<title>region_mut_peers&#45;&gt;Region:peers</title>
<path fill="none" stroke="#666666" d="M518.52,-106.34C545.64,-110 578.93,-113.53 610,-114.19"/>
<polygon fill="#666666" stroke="#666666" points="609.96,-117.69 620,-114.29 610.04,-110.69 609.96,-117.69"/>
</g>
<!-- ConfChangeType_RemoveNode&#45;&gt;pending_remove -->
<g id="edge9" class="edge">
<title>ConfChangeType_RemoveNode&#45;&gt;pending_remove</title>
<path fill="none" stroke="#666666" d="M554.87,-492.34C564.84,-497.1 574.72,-502.12 584,-507.29 601.02,-516.78 601.74,-525.51 620,-532.29 682.86,-555.66 759.96,-560.93 813.12,-561.28"/>
<polygon fill="#666666" stroke="#666666" points="813.42,-564.78 823.42,-561.28 813.43,-557.78 813.42,-564.78"/>
</g>
<!-- stopped -->
<g id="node11" class="node">
<title>stopped</title>
<path fill="none" stroke="#1c2123" d="M895,-523.29C895,-523.29 860,-523.29 860,-523.29 854,-523.29 848,-517.29 848,-511.29 848,-511.29 848,-499.29 848,-499.29 848,-493.29 854,-487.29 860,-487.29 860,-487.29 895,-487.29 895,-487.29 901,-487.29 907,-493.29 907,-499.29 907,-499.29 907,-511.29 907,-511.29 907,-517.29 901,-523.29 895,-523.29"/>
<text text-anchor="middle" x="877.5" y="-501.59" font-family="Times,serif" font-size="14.00" fill="#2f3638">stopped</text>
</g>
<!-- ConfChangeType_RemoveNode&#45;&gt;stopped -->
<g id="edge10" class="edge">
<title>ConfChangeType_RemoveNode&#45;&gt;stopped</title>
<path fill="none" stroke="#666666" d="M558.41,-469.66C578.73,-472.69 600.05,-475.73 620,-478.29 697.12,-488.2 787.64,-497.09 837.89,-501.79"/>
<polygon fill="#666666" stroke="#666666" points="837.7,-505.28 847.98,-502.72 838.35,-498.31 837.7,-505.28"/>
</g>
<!-- ExecResult_ChangePeer&#45;&gt;Region -->
<g id="edge16" class="edge">
<title>ExecResult_ChangePeer&#45;&gt;Region</title>
<path fill="none" stroke="#666666" d="M581.61,-187.71C590.75,-186.52 600.17,-185.29 609.78,-184.04"/>
<polygon fill="#666666" stroke="#666666" points="610.39,-187.49 619.85,-182.73 609.48,-180.55 610.39,-187.49"/>
</g>
<!-- pending_remove&#45;&gt;PeerState_Tombstone -->
<g id="edge11" class="edge">
<title>pending_remove&#45;&gt;PeerState_Tombstone</title>
<path fill="none" stroke="green" stroke-dasharray="5,2" d="M931.5,-565.39C986.06,-569.11 1071.8,-567.66 1135,-532.29 1178.39,-508.01 1209.47,-457.16 1225.53,-425.55"/>
<polygon fill="green" stroke="green" points="1228.75,-426.93 1230.02,-416.41 1222.47,-423.84 1228.75,-426.93"/>
</g>
<!-- pending_remove&#45;&gt;PeerState_Normal -->
<g id="edge12" class="edge">
<title>pending_remove&#45;&gt;PeerState_Normal</title>
<path fill="none" stroke="green" stroke-dasharray="5,2" d="M931.52,-570.08C988.95,-578.44 1079.76,-581.52 1135,-532.29 1189.74,-483.51 1123.55,-427.19 1171,-371.29 1171.62,-370.56 1172.27,-369.85 1172.93,-369.16"/>
<polygon fill="green" stroke="green" points="1175.45,-371.6 1180.77,-362.44 1170.9,-366.29 1175.45,-371.6"/>
</g>
<!-- apply_conf_change&#45;&gt;Region -->
<g id="edge22" class="edge">
<title>apply_conf_change&#45;&gt;Region</title>
<path fill="none" stroke="#666666" d="M537.75,-313.22C553.43,-303.63 569.55,-293.06 584,-282.29 601.4,-269.32 601.57,-260.76 620,-249.29 635.15,-239.86 651.34,-231.06 667.93,-222.89"/>
<polygon fill="#666666" stroke="#666666" points="669.71,-225.92 677.19,-218.42 666.67,-219.62 669.71,-225.92"/>
</g>
<!-- find_peer_mut -->
<g id="node15" class="node">
<title>find_peer_mut</title>
<path fill="none" stroke="#1c2123" d="M822.5,-258.29C822.5,-258.29 932.5,-258.29 932.5,-258.29 938.5,-258.29 944.5,-264.29 944.5,-270.29 944.5,-270.29 944.5,-322.29 944.5,-322.29 944.5,-328.29 938.5,-334.29 932.5,-334.29 932.5,-334.29 822.5,-334.29 822.5,-334.29 816.5,-334.29 810.5,-328.29 810.5,-322.29 810.5,-322.29 810.5,-270.29 810.5,-270.29 810.5,-264.29 816.5,-258.29 822.5,-258.29"/>
<text text-anchor="middle" x="877.5" y="-319.09" font-family="Times,serif" font-size="14.00" fill="#2f3638">find_peer_mut</text>
<polyline fill="none" stroke="#1c2123" points="810.5,-311.29 944.5,-311.29 "/>
<text text-anchor="start" x="818.5" y="-296.09" font-family="Times,serif" font-size="14.00" fill="#2f3638">从region peers中</text>
<text text-anchor="start" x="818.5" y="-281.09" font-family="Times,serif" font-size="14.00" fill="#2f3638"> 根据store_查找peer</text>
<text text-anchor="start" x="818.5" y="-266.09" font-family="Times,serif" font-size="14.00" fill="#2f3638"> 返回可mut peer</text>
</g>
<!-- apply_conf_change&#45;&gt;find_peer_mut -->
<g id="edge23" class="edge">
<title>apply_conf_change&#45;&gt;find_peer_mut</title>
<path fill="none" stroke="#666666" d="M584.12,-337.91C654.1,-327.95 739.76,-315.76 800.22,-307.15"/>
<polygon fill="#666666" stroke="#666666" points="801.04,-310.57 810.45,-305.7 800.06,-303.64 801.04,-310.57"/>
</g>
<!-- get_region_epoch -->
<g id="node16" class="node">
<title>get_region_epoch</title>
<path fill="none" stroke="#1c2123" d="M922,-389.29C922,-389.29 833,-389.29 833,-389.29 827,-389.29 821,-383.29 821,-377.29 821,-377.29 821,-365.29 821,-365.29 821,-359.29 827,-353.29 833,-353.29 833,-353.29 922,-353.29 922,-353.29 928,-353.29 934,-359.29 934,-365.29 934,-365.29 934,-377.29 934,-377.29 934,-383.29 928,-389.29 922,-389.29"/>
<text text-anchor="middle" x="877.5" y="-367.59" font-family="Times,serif" font-size="14.00" fill="#2f3638">get_region_epoch</text>
</g>
<!-- apply_conf_change&#45;&gt;get_region_epoch -->
<g id="edge24" class="edge">
<title>apply_conf_change&#45;&gt;get_region_epoch</title>
<path fill="none" stroke="#666666" d="M584.12,-360.01C658.28,-362.87 750.04,-366.41 810.76,-368.76"/>
<polygon fill="#666666" stroke="#666666" points="810.85,-372.26 820.98,-369.15 811.12,-365.27 810.85,-372.26"/>
</g>
<!-- find_peer -->
<g id="node17" class="node">
<title>find_peer</title>
<path fill="none" stroke="#1c2123" d="M822.5,-407.79C822.5,-407.79 932.5,-407.79 932.5,-407.79 938.5,-407.79 944.5,-413.79 944.5,-419.79 944.5,-419.79 944.5,-456.79 944.5,-456.79 944.5,-462.79 938.5,-468.79 932.5,-468.79 932.5,-468.79 822.5,-468.79 822.5,-468.79 816.5,-468.79 810.5,-462.79 810.5,-456.79 810.5,-456.79 810.5,-419.79 810.5,-419.79 810.5,-413.79 816.5,-407.79 822.5,-407.79"/>
<text text-anchor="middle" x="877.5" y="-453.59" font-family="Times,serif" font-size="14.00" fill="#2f3638">find_peer</text>
<polyline fill="none" stroke="#1c2123" points="810.5,-445.79 944.5,-445.79 "/>
<text text-anchor="start" x="818.5" y="-430.59" font-family="Times,serif" font-size="14.00" fill="#2f3638">从region peers中</text>
<text text-anchor="start" x="818.5" y="-415.59" font-family="Times,serif" font-size="14.00" fill="#2f3638"> 根据store_查找peer</text>
</g>
<!-- apply_conf_change&#45;&gt;find_peer -->
<g id="edge25" class="edge">
<title>apply_conf_change&#45;&gt;find_peer</title>
<path fill="none" stroke="#666666" d="M584.16,-389.98C596.22,-392.97 608.32,-395.8 620,-398.29 680.12,-411.12 749,-421.64 800.23,-428.66"/>
<polygon fill="#666666" stroke="#666666" points="799.85,-432.14 810.23,-430.02 800.8,-425.2 799.85,-432.14"/>
</g>
<!-- set_role -->
<g id="node18" class="node">
<title>set_role</title>
<path fill="none" stroke="#1c2123" d="M895,-631.29C895,-631.29 860,-631.29 860,-631.29 854,-631.29 848,-625.29 848,-619.29 848,-619.29 848,-607.29 848,-607.29 848,-601.29 854,-595.29 860,-595.29 860,-595.29 895,-595.29 895,-595.29 901,-595.29 907,-601.29 907,-607.29 907,-607.29 907,-619.29 907,-619.29 907,-625.29 901,-631.29 895,-631.29"/>
<text text-anchor="middle" x="877.5" y="-609.59" font-family="Times,serif" font-size="14.00" fill="#2f3638">set_role</text>
</g>
<!-- apply_leave_joint&#45;&gt;set_role -->
<g id="edge26" class="edge">
<title>apply_leave_joint&#45;&gt;set_role</title>
<path fill="none" stroke="#666666" d="M571.18,-589.72C658.97,-596.5 777.28,-605.63 837.6,-610.29"/>
<polygon fill="#666666" stroke="#666666" points="837.58,-613.8 847.82,-611.08 838.12,-606.82 837.58,-613.8"/>
</g>
</g>
</svg>
