<?xml version="1.0" encoding="UTF-8" standalone="no"?>
<!DOCTYPE svg PUBLIC "-//W3C//DTD SVG 1.1//EN"
 "http://www.w3.org/Graphics/SVG/1.1/DTD/svg11.dtd">
<!-- Generated by graphviz version 2.47.1 (20210417.1919)
 -->
<!-- Title: Peer__propose_conf_change Pages: 1 -->
<svg width="943pt" height="318pt"
 viewBox="0.00 0.00 943.00 318.00" xmlns="http://www.w3.org/2000/svg" xmlns:xlink="http://www.w3.org/1999/xlink">
<g id="graph0" class="graph" transform="scale(1 1) rotate(0) translate(4 314)">
<title>Peer__propose_conf_change</title>
<polygon fill="white" stroke="transparent" points="-4,4 -4,-314 939,-314 939,4 -4,4"/>
<!-- Peer__propose_conf_change -->
<g id="node1" class="node">
<title>Peer__propose_conf_change</title>
<path fill="none" stroke="#1c2123" d="M161,-229C161,-229 12,-229 12,-229 6,-229 0,-223 0,-217 0,-217 0,-205 0,-205 0,-199 6,-193 12,-193 12,-193 161,-193 161,-193 167,-193 173,-199 173,-205 173,-205 173,-217 173,-217 173,-223 167,-229 161,-229"/>
<text text-anchor="middle" x="86.5" y="-207.3" font-family="Times,serif" font-size="14.00" fill="#2f3638">Peer__propose_conf_change</text>
</g>
<!-- Peer__pending_merge_state -->
<g id="node2" class="node">
<title>Peer__pending_merge_state</title>
<path fill="none" stroke="#1c2123" d="M410.5,-310C410.5,-310 264.5,-310 264.5,-310 258.5,-310 252.5,-304 252.5,-298 252.5,-298 252.5,-286 252.5,-286 252.5,-280 258.5,-274 264.5,-274 264.5,-274 410.5,-274 410.5,-274 416.5,-274 422.5,-280 422.5,-286 422.5,-286 422.5,-298 422.5,-298 422.5,-304 416.5,-310 410.5,-310"/>
<text text-anchor="middle" x="337.5" y="-288.3" font-family="Times,serif" font-size="14.00" fill="#2f3638">Peer__pending_merge_state</text>
</g>
<!-- Peer__propose_conf_change&#45;&gt;Peer__pending_merge_state -->
<g id="edge1" class="edge">
<title>Peer__propose_conf_change&#45;&gt;Peer__pending_merge_state</title>
<path fill="none" stroke="#666666" d="M122.88,-229.09C146.71,-240.68 179.14,-255.32 209,-265 219.65,-268.45 230.96,-271.58 242.25,-274.38"/>
<polygon fill="#666666" stroke="#666666" points="241.63,-277.83 252.17,-276.75 243.26,-271.02 241.63,-277.83"/>
</g>
<!-- PeerStorage__applied_index_term -->
<g id="node3" class="node">
<title>PeerStorage__applied_index_term</title>
<path fill="none" stroke="#1c2123" d="M427.5,-256C427.5,-256 247.5,-256 247.5,-256 241.5,-256 235.5,-250 235.5,-244 235.5,-244 235.5,-232 235.5,-232 235.5,-226 241.5,-220 247.5,-220 247.5,-220 427.5,-220 427.5,-220 433.5,-220 439.5,-226 439.5,-232 439.5,-232 439.5,-244 439.5,-244 439.5,-250 433.5,-256 427.5,-256"/>
<text text-anchor="middle" x="337.5" y="-234.3" font-family="Times,serif" font-size="14.00" fill="#2f3638">PeerStorage__applied_index_term</text>
</g>
<!-- Peer__propose_conf_change&#45;&gt;PeerStorage__applied_index_term -->
<g id="edge2" class="edge">
<title>Peer__propose_conf_change&#45;&gt;PeerStorage__applied_index_term</title>
<path fill="none" stroke="#666666" d="M173.19,-220.29C189.89,-222.1 207.62,-224.03 225.02,-225.91"/>
<polygon fill="#666666" stroke="#666666" points="224.89,-229.42 235.21,-227.02 225.64,-222.46 224.89,-229.42"/>
</g>
<!-- CmdEpochChecker__propose_check_epoch -->
<g id="node4" class="node">
<title>CmdEpochChecker__propose_check_epoch</title>
<path fill="none" stroke="#1c2123" d="M454,-202C454,-202 221,-202 221,-202 215,-202 209,-196 209,-190 209,-190 209,-178 209,-178 209,-172 215,-166 221,-166 221,-166 454,-166 454,-166 460,-166 466,-172 466,-178 466,-178 466,-190 466,-190 466,-196 460,-202 454,-202"/>
<text text-anchor="middle" x="337.5" y="-180.3" font-family="Times,serif" font-size="14.00" fill="#2f3638">CmdEpochChecker__propose_check_epoch</text>
</g>
<!-- Peer__propose_conf_change&#45;&gt;CmdEpochChecker__propose_check_epoch -->
<g id="edge3" class="edge">
<title>Peer__propose_conf_change&#45;&gt;CmdEpochChecker__propose_check_epoch</title>
<path fill="none" stroke="#666666" d="M173.19,-201.71C181.48,-200.81 190.03,-199.88 198.66,-198.95"/>
<polygon fill="#666666" stroke="#666666" points="199.26,-202.4 208.83,-197.84 198.51,-195.44 199.26,-202.4"/>
</g>
<!-- Peer__propose_conf_change_inernal -->
<g id="node5" class="node">
<title>Peer__propose_conf_change_inernal</title>
<path fill="none" stroke="#1c2123" d="M434,-120C434,-120 241,-120 241,-120 235,-120 229,-114 229,-108 229,-108 229,-96 229,-96 229,-90 235,-84 241,-84 241,-84 434,-84 434,-84 440,-84 446,-90 446,-96 446,-96 446,-108 446,-108 446,-114 440,-120 434,-120"/>
<text text-anchor="middle" x="337.5" y="-98.3" font-family="Times,serif" font-size="14.00" fill="#2f3638">Peer__propose_conf_change_inernal</text>
</g>
<!-- Peer__propose_conf_change&#45;&gt;Peer__propose_conf_change_inernal -->
<g id="edge4" class="edge">
<title>Peer__propose_conf_change&#45;&gt;Peer__propose_conf_change_inernal</title>
<path fill="none" stroke="#666666" d="M127.95,-192.89C151.56,-182.35 181.93,-168.85 209,-157 233.94,-146.08 261.69,-134.09 284.92,-124.1"/>
<polygon fill="#666666" stroke="#666666" points="286.43,-127.26 294.24,-120.09 283.67,-120.83 286.43,-127.26"/>
</g>
<!-- CmdEpochChecker__maybe_update_term -->
<g id="node10" class="node">
<title>CmdEpochChecker__maybe_update_term</title>
<path fill="none" stroke="#1c2123" d="M738,-256C738,-256 514,-256 514,-256 508,-256 502,-250 502,-244 502,-244 502,-232 502,-232 502,-226 508,-220 514,-220 514,-220 738,-220 738,-220 744,-220 750,-226 750,-232 750,-232 750,-244 750,-244 750,-250 744,-256 738,-256"/>
<text text-anchor="middle" x="626" y="-234.3" font-family="Times,serif" font-size="14.00" fill="#2f3638">CmdEpochChecker__maybe_update_term</text>
</g>
<!-- CmdEpochChecker__propose_check_epoch&#45;&gt;CmdEpochChecker__maybe_update_term -->
<g id="edge9" class="edge">
<title>CmdEpochChecker__propose_check_epoch&#45;&gt;CmdEpochChecker__maybe_update_term</title>
<path fill="none" stroke="#666666" d="M434.3,-202.06C461.54,-207.19 491.35,-212.81 519.15,-218.05"/>
<polygon fill="#666666" stroke="#666666" points="518.82,-221.55 529.29,-219.96 520.11,-214.67 518.82,-221.55"/>
</g>
<!-- CmdEpochChecker__last_conflict_index -->
<g id="node11" class="node">
<title>CmdEpochChecker__last_conflict_index</title>
<path fill="none" stroke="#1c2123" d="M733.5,-202C733.5,-202 518.5,-202 518.5,-202 512.5,-202 506.5,-196 506.5,-190 506.5,-190 506.5,-178 506.5,-178 506.5,-172 512.5,-166 518.5,-166 518.5,-166 733.5,-166 733.5,-166 739.5,-166 745.5,-172 745.5,-178 745.5,-178 745.5,-190 745.5,-190 745.5,-196 739.5,-202 733.5,-202"/>
<text text-anchor="middle" x="626" y="-180.3" font-family="Times,serif" font-size="14.00" fill="#2f3638">CmdEpochChecker__last_conflict_index</text>
</g>
<!-- CmdEpochChecker__propose_check_epoch&#45;&gt;CmdEpochChecker__last_conflict_index -->
<g id="edge10" class="edge">
<title>CmdEpochChecker__propose_check_epoch&#45;&gt;CmdEpochChecker__last_conflict_index</title>
<path fill="none" stroke="#666666" d="M466.25,-184C476.11,-184 486.06,-184 495.93,-184"/>
<polygon fill="#666666" stroke="#666666" points="496.17,-187.5 506.17,-184 496.17,-180.5 496.17,-187.5"/>
</g>
<!-- Peer__check_conf_change -->
<g id="node6" class="node">
<title>Peer__check_conf_change</title>
<path fill="none" stroke="#1c2123" d="M694.5,-148C694.5,-148 557.5,-148 557.5,-148 551.5,-148 545.5,-142 545.5,-136 545.5,-136 545.5,-124 545.5,-124 545.5,-118 551.5,-112 557.5,-112 557.5,-112 694.5,-112 694.5,-112 700.5,-112 706.5,-118 706.5,-124 706.5,-124 706.5,-136 706.5,-136 706.5,-142 700.5,-148 694.5,-148"/>
<text text-anchor="middle" x="626" y="-126.3" font-family="Times,serif" font-size="14.00" fill="#2f3638">Peer__check_conf_change</text>
</g>
<!-- Peer__propose_conf_change_inernal&#45;&gt;Peer__check_conf_change -->
<g id="edge5" class="edge">
<title>Peer__propose_conf_change_inernal&#45;&gt;Peer__check_conf_change</title>
<path fill="none" stroke="#666666" d="M446.41,-112.55C475.65,-115.4 506.99,-118.47 535.12,-121.22"/>
<polygon fill="#666666" stroke="#666666" points="535.04,-124.72 545.33,-122.21 535.72,-117.76 535.04,-124.72"/>
</g>
<!-- RawNode__propose_conf_change -->
<g id="node7" class="node">
<title>RawNode__propose_conf_change</title>
<path fill="#a2dbfa" stroke="#8a8898" d="M568.5,-55C568.5,-55 683.5,-55 683.5,-55 689.5,-55 695.5,-61 695.5,-67 695.5,-67 695.5,-81 695.5,-81 695.5,-87 689.5,-93 683.5,-93 683.5,-93 568.5,-93 568.5,-93 562.5,-93 556.5,-87 556.5,-81 556.5,-81 556.5,-67 556.5,-67 556.5,-61 562.5,-55 568.5,-55"/>
<text text-anchor="start" x="564.5" y="-77.8" font-family="Times,serif" font-size="14.00" fill="#5d6179">RawNode</text>
<text text-anchor="start" x="564.5" y="-62.8" font-family="Times,serif" font-size="14.00" fill="#5d6179"> propose_conf_change</text>
</g>
<!-- Peer__propose_conf_change_inernal&#45;&gt;RawNode__propose_conf_change -->
<g id="edge6" class="edge">
<title>Peer__propose_conf_change_inernal&#45;&gt;RawNode__propose_conf_change</title>
<path fill="none" stroke="#666666" d="M446.41,-91.45C479.47,-88.22 515.21,-84.73 545.97,-81.72"/>
<polygon fill="#666666" stroke="#666666" points="546.59,-85.18 556.2,-80.72 545.91,-78.21 546.59,-85.18"/>
</g>
<!-- Peer__next_proposal_index -->
<g id="node8" class="node">
<title>Peer__next_proposal_index</title>
<path fill="none" stroke="#1c2123" d="M697.5,-36C697.5,-36 554.5,-36 554.5,-36 548.5,-36 542.5,-30 542.5,-24 542.5,-24 542.5,-12 542.5,-12 542.5,-6 548.5,0 554.5,0 554.5,0 697.5,0 697.5,0 703.5,0 709.5,-6 709.5,-12 709.5,-12 709.5,-24 709.5,-24 709.5,-30 703.5,-36 697.5,-36"/>
<text text-anchor="middle" x="626" y="-14.3" font-family="Times,serif" font-size="14.00" fill="#2f3638">Peer__next_proposal_index</text>
</g>
<!-- Peer__propose_conf_change_inernal&#45;&gt;Peer__next_proposal_index -->
<g id="edge7" class="edge">
<title>Peer__propose_conf_change_inernal&#45;&gt;Peer__next_proposal_index</title>
<path fill="none" stroke="#666666" d="M386.72,-83.98C419.06,-72.26 462.75,-57.16 502,-46 511.82,-43.21 522.14,-40.51 532.45,-37.95"/>
<polygon fill="#666666" stroke="#666666" points="533.43,-41.32 542.32,-35.55 531.78,-34.52 533.43,-41.32"/>
</g>
<!-- Peer__check_joint_state -->
<g id="node9" class="node">
<title>Peer__check_joint_state</title>
<path fill="none" stroke="#1c2123" d="M923,-148C923,-148 798,-148 798,-148 792,-148 786,-142 786,-136 786,-136 786,-124 786,-124 786,-118 792,-112 798,-112 798,-112 923,-112 923,-112 929,-112 935,-118 935,-124 935,-124 935,-136 935,-136 935,-142 929,-148 923,-148"/>
<text text-anchor="middle" x="860.5" y="-126.3" font-family="Times,serif" font-size="14.00" fill="#2f3638">Peer__check_joint_state</text>
</g>
<!-- Peer__check_conf_change&#45;&gt;Peer__check_joint_state -->
<g id="edge8" class="edge">
<title>Peer__check_conf_change&#45;&gt;Peer__check_joint_state</title>
<path fill="none" stroke="#666666" d="M706.69,-130C728.92,-130 753.13,-130 775.6,-130"/>
<polygon fill="#666666" stroke="#666666" points="775.78,-133.5 785.78,-130 775.78,-126.5 775.78,-133.5"/>
</g>
</g>
</svg>
