<?xml version="1.0" encoding="UTF-8" standalone="no"?>
<!DOCTYPE svg PUBLIC "-//W3C//DTD SVG 1.1//EN"
 "http://www.w3.org/Graphics/SVG/1.1/DTD/svg11.dtd">
<!-- Generated by graphviz version 2.47.1 (20210417.1919)
 -->
<!-- Title: PeerStorage Pages: 1 -->
<svg width="1401pt" height="476pt"
 viewBox="0.00 0.00 1401.00 476.00" xmlns="http://www.w3.org/2000/svg" xmlns:xlink="http://www.w3.org/1999/xlink">
<g id="graph0" class="graph" transform="scale(1 1) rotate(0) translate(4 472)">
<title>PeerStorage</title>
<polygon fill="white" stroke="transparent" points="-4,4 -4,-472 1397,-472 1397,4 -4,4"/>
<!-- PeerStorage -->
<g id="node1" class="node">
<title>PeerStorage</title>
<path fill="none" stroke="#1c2123" d="M12,-121.5C12,-121.5 161,-121.5 161,-121.5 167,-121.5 173,-127.5 173,-133.5 173,-133.5 173,-239.5 173,-239.5 173,-245.5 167,-251.5 161,-251.5 161,-251.5 12,-251.5 12,-251.5 6,-251.5 0,-245.5 0,-239.5 0,-239.5 0,-133.5 0,-133.5 0,-127.5 6,-121.5 12,-121.5"/>
<text text-anchor="middle" x="86.5" y="-236.3" font-family="Times,serif" font-size="14.00" fill="#2f3638">PeerStorage</text>
<polyline fill="none" stroke="#1c2123" points="0,-228.5 173,-228.5 "/>
<text text-anchor="start" x="8" y="-213.3" font-family="Times,serif" font-size="14.00" fill="#2f3638">peer_id: u64,</text>
<polyline fill="none" stroke="#1c2123" points="0,-205.5 173,-205.5 "/>
<text text-anchor="start" x="8" y="-190.3" font-family="Times,serif" font-size="14.00" fill="#2f3638">region: metapb::Region,</text>
<polyline fill="none" stroke="#1c2123" points="0,-182.5 173,-182.5 "/>
<text text-anchor="start" x="8" y="-167.3" font-family="Times,serif" font-size="14.00" fill="#2f3638">raft_state: RaftLocalState,</text>
<polyline fill="none" stroke="#1c2123" points="0,-159.5 173,-159.5 "/>
<text text-anchor="start" x="8" y="-144.3" font-family="Times,serif" font-size="14.00" fill="#2f3638">apply_state: RaftApplyState,</text>
<text text-anchor="start" x="8" y="-129.3" font-family="Times,serif" font-size="14.00" fill="#2f3638"> ...</text>
</g>
<!-- RaftLocalState -->
<g id="node3" class="node">
<title>RaftLocalState</title>
<path fill="none" stroke="#1c2123" d="M273,-152C273,-152 447,-152 447,-152 453,-152 459,-158 459,-164 459,-164 459,-209 459,-209 459,-215 453,-221 447,-221 447,-221 273,-221 273,-221 267,-221 261,-215 261,-209 261,-209 261,-164 261,-164 261,-158 267,-152 273,-152"/>
<text text-anchor="middle" x="360" y="-205.8" font-family="Times,serif" font-size="14.00" fill="#2f3638">RaftLocalState</text>
<polyline fill="none" stroke="#1c2123" points="261,-198 459,-198 "/>
<text text-anchor="start" x="269" y="-182.8" font-family="Times,serif" font-size="14.00" fill="#2f3638">eraftpb.HardState hard_state = 1;</text>
<polyline fill="none" stroke="#1c2123" points="261,-175 459,-175 "/>
<text text-anchor="start" x="269" y="-159.8" font-family="Times,serif" font-size="14.00" fill="#2f3638">uint64 last_index = 2;</text>
</g>
<!-- PeerStorage&#45;&gt;RaftLocalState -->
<g id="edge3" class="edge">
<title>PeerStorage&#45;&gt;RaftLocalState</title>
<path fill="none" stroke="#666666" d="M173.03,-186.5C197.59,-186.5 224.71,-186.5 250.46,-186.5"/>
<polygon fill="#666666" stroke="#666666" points="250.64,-190 260.64,-186.5 250.64,-183 250.64,-190"/>
</g>
<!-- RaftApplyState -->
<g id="node5" class="node">
<title>RaftApplyState</title>
<path fill="none" stroke="#1c2123" d="M253.5,-0.5C253.5,-0.5 466.5,-0.5 466.5,-0.5 472.5,-0.5 478.5,-6.5 478.5,-12.5 478.5,-12.5 478.5,-118.5 478.5,-118.5 478.5,-124.5 472.5,-130.5 466.5,-130.5 466.5,-130.5 253.5,-130.5 253.5,-130.5 247.5,-130.5 241.5,-124.5 241.5,-118.5 241.5,-118.5 241.5,-12.5 241.5,-12.5 241.5,-6.5 247.5,-0.5 253.5,-0.5"/>
<text text-anchor="middle" x="360" y="-115.3" font-family="Times,serif" font-size="14.00" fill="#2f3638">RaftApplyState</text>
<polyline fill="none" stroke="#1c2123" points="241.5,-107.5 478.5,-107.5 "/>
<text text-anchor="start" x="249.5" y="-92.3" font-family="Times,serif" font-size="14.00" fill="#2f3638">uint64 applied_index = 1;</text>
<polyline fill="none" stroke="#1c2123" points="241.5,-84.5 478.5,-84.5 "/>
<text text-anchor="start" x="249.5" y="-69.3" font-family="Times,serif" font-size="14.00" fill="#2f3638">uint64 last_commit_index = 3;</text>
<polyline fill="none" stroke="#1c2123" points="241.5,-61.5 478.5,-61.5 "/>
<text text-anchor="start" x="249.5" y="-46.3" font-family="Times,serif" font-size="14.00" fill="#2f3638">uint64 commit_index = 4;</text>
<polyline fill="none" stroke="#1c2123" points="241.5,-38.5 478.5,-38.5 "/>
<text text-anchor="start" x="249.5" y="-23.3" font-family="Times,serif" font-size="14.00" fill="#2f3638">uint64 commit_term = 5;</text>
<text text-anchor="start" x="249.5" y="-8.3" font-family="Times,serif" font-size="14.00" fill="#2f3638"> RaftTruncatedState truncated_state = 2;</text>
</g>
<!-- PeerStorage&#45;&gt;RaftApplyState -->
<g id="edge4" class="edge">
<title>PeerStorage&#45;&gt;RaftApplyState</title>
<path fill="none" stroke="#666666" d="M173.03,-148.38C191.77,-140.03 211.99,-131.02 231.96,-122.12"/>
<polygon fill="#666666" stroke="#666666" points="233.4,-125.31 241.11,-118.04 230.55,-118.91 233.4,-125.31"/>
</g>
<!-- Region -->
<g id="node7" class="node">
<title>Region</title>
<path fill="none" stroke="#1c2123" d="M221,-241C221,-241 499,-241 499,-241 505,-241 511,-247 511,-253 511,-253 511,-390 511,-390 511,-396 505,-402 499,-402 499,-402 221,-402 221,-402 215,-402 209,-396 209,-390 209,-390 209,-253 209,-253 209,-247 215,-241 221,-241"/>
<text text-anchor="middle" x="360" y="-386.8" font-family="Times,serif" font-size="14.00" fill="#2f3638">Region</text>
<polyline fill="none" stroke="#1c2123" points="209,-379 511,-379 "/>
<text text-anchor="start" x="217" y="-363.8" font-family="Times,serif" font-size="14.00" fill="#2f3638">uint64 id = 1;</text>
<polyline fill="none" stroke="#1c2123" points="209,-356 511,-356 "/>
<text text-anchor="start" x="217" y="-340.8" font-family="Times,serif" font-size="14.00" fill="#2f3638">bytes start_key = 2;</text>
<polyline fill="none" stroke="#1c2123" points="209,-333 511,-333 "/>
<text text-anchor="start" x="217" y="-317.8" font-family="Times,serif" font-size="14.00" fill="#2f3638">bytes end_key = 3;</text>
<polyline fill="none" stroke="#1c2123" points="209,-310 511,-310 "/>
<text text-anchor="start" x="217" y="-294.8" font-family="Times,serif" font-size="14.00" fill="#2f3638">RegionEpoch region_epoch = 4;</text>
<polyline fill="none" stroke="#1c2123" points="209,-287 511,-287 "/>
<text text-anchor="start" x="217" y="-271.8" font-family="Times,serif" font-size="14.00" fill="#2f3638">repeated Peer peers = 5;</text>
<polyline fill="none" stroke="#1c2123" points="209,-264 511,-264 "/>
<text text-anchor="start" x="217" y="-248.8" font-family="Times,serif" font-size="14.00" fill="#2f3638">encryptionpb.EncryptionMeta encryption_meta = 6;</text>
</g>
<!-- PeerStorage&#45;&gt;Region -->
<g id="edge5" class="edge">
<title>PeerStorage&#45;&gt;Region</title>
<path fill="none" stroke="#666666" d="M173.03,-229.03C181.66,-233.32 190.6,-237.77 199.69,-242.28"/>
<polygon fill="#666666" stroke="#666666" points="198.3,-245.5 208.82,-246.82 201.42,-239.24 198.3,-245.5"/>
</g>
<!-- RaftState -->
<g id="node2" class="node">
<title>RaftState</title>
<path fill="#a2dbfa" stroke="#8a8898" d="M990,-287C990,-287 1127,-287 1127,-287 1133,-287 1139,-293 1139,-299 1139,-299 1139,-344 1139,-344 1139,-350 1133,-356 1127,-356 1127,-356 990,-356 990,-356 984,-356 978,-350 978,-344 978,-344 978,-299 978,-299 978,-293 984,-287 990,-287"/>
<text text-anchor="middle" x="1058.5" y="-340.8" font-family="Times,serif" font-size="14.00" fill="#5d6179">RaftState</text>
<polyline fill="none" stroke="#8a8898" points="978,-333 1139,-333 "/>
<text text-anchor="start" x="986" y="-317.8" font-family="Times,serif" font-size="14.00" fill="#5d6179">pub hard_state: HardState,</text>
<polyline fill="none" stroke="#8a8898" points="978,-310 1139,-310 "/>
<text text-anchor="start" x="986" y="-294.8" font-family="Times,serif" font-size="14.00" fill="#5d6179">pub conf_state: ConfState,</text>
</g>
<!-- ConfState -->
<g id="node10" class="node">
<title>ConfState</title>
<path fill="none" stroke="#1c2123" d="M1187,-252.5C1187,-252.5 1381,-252.5 1381,-252.5 1387,-252.5 1393,-258.5 1393,-264.5 1393,-264.5 1393,-378.5 1393,-378.5 1393,-384.5 1387,-390.5 1381,-390.5 1381,-390.5 1187,-390.5 1187,-390.5 1181,-390.5 1175,-384.5 1175,-378.5 1175,-378.5 1175,-264.5 1175,-264.5 1175,-258.5 1181,-252.5 1187,-252.5"/>
<text text-anchor="middle" x="1284" y="-375.3" font-family="Times,serif" font-size="14.00" fill="#2f3638">ConfState</text>
<polyline fill="none" stroke="#1c2123" points="1175,-367.5 1393,-367.5 "/>
<text text-anchor="start" x="1183" y="-352.3" font-family="Times,serif" font-size="14.00" fill="#2f3638">repeated uint64 voters = 1;</text>
<polyline fill="none" stroke="#1c2123" points="1175,-344.5 1393,-344.5 "/>
<text text-anchor="start" x="1183" y="-329.3" font-family="Times,serif" font-size="14.00" fill="#2f3638">repeated uint64 learners = 2;</text>
<polyline fill="none" stroke="#1c2123" points="1175,-321.5 1393,-321.5 "/>
<text text-anchor="start" x="1183" y="-306.3" font-family="Times,serif" font-size="14.00" fill="#2f3638">repeated uint64 voters_outgoing = 3;</text>
<polyline fill="none" stroke="#1c2123" points="1175,-298.5 1393,-298.5 "/>
<text text-anchor="start" x="1183" y="-283.3" font-family="Times,serif" font-size="14.00" fill="#2f3638">repeated uint64 learners_next = 4;</text>
<polyline fill="none" stroke="#1c2123" points="1175,-275.5 1393,-275.5 "/>
<text text-anchor="start" x="1183" y="-260.3" font-family="Times,serif" font-size="14.00" fill="#2f3638">bool auto_leave = 5;</text>
</g>
<!-- RaftState&#45;&gt;ConfState -->
<g id="edge8" class="edge">
<title>RaftState&#45;&gt;ConfState</title>
<path fill="none" stroke="#666666" d="M1139.24,-321.5C1147.53,-321.5 1156.08,-321.5 1164.68,-321.5"/>
<polygon fill="#666666" stroke="#666666" points="1164.78,-325 1174.78,-321.5 1164.78,-318 1164.78,-325"/>
</g>
<!-- HardState -->
<g id="node4" class="node">
<title>HardState</title>
<path fill="none" stroke="#1c2123" d="M561.5,-175.5C561.5,-175.5 661.5,-175.5 661.5,-175.5 667.5,-175.5 673.5,-181.5 673.5,-187.5 673.5,-187.5 673.5,-255.5 673.5,-255.5 673.5,-261.5 667.5,-267.5 661.5,-267.5 661.5,-267.5 561.5,-267.5 561.5,-267.5 555.5,-267.5 549.5,-261.5 549.5,-255.5 549.5,-255.5 549.5,-187.5 549.5,-187.5 549.5,-181.5 555.5,-175.5 561.5,-175.5"/>
<text text-anchor="middle" x="611.5" y="-252.3" font-family="Times,serif" font-size="14.00" fill="#2f3638">HardState</text>
<polyline fill="none" stroke="#1c2123" points="549.5,-244.5 673.5,-244.5 "/>
<text text-anchor="start" x="557.5" y="-229.3" font-family="Times,serif" font-size="14.00" fill="#2f3638">uint64 term = 1;</text>
<polyline fill="none" stroke="#1c2123" points="549.5,-221.5 673.5,-221.5 "/>
<text text-anchor="start" x="557.5" y="-206.3" font-family="Times,serif" font-size="14.00" fill="#2f3638">uint64 vote = 2;</text>
<polyline fill="none" stroke="#1c2123" points="549.5,-198.5 673.5,-198.5 "/>
<text text-anchor="start" x="557.5" y="-183.3" font-family="Times,serif" font-size="14.00" fill="#2f3638">uint64 commit = 3;</text>
</g>
<!-- RaftLocalState&#45;&gt;HardState -->
<g id="edge1" class="edge">
<title>RaftLocalState&#45;&gt;HardState</title>
<path fill="none" stroke="#666666" d="M459.25,-200.28C485.98,-204.03 514.41,-208.02 539.32,-211.51"/>
<polygon fill="#666666" stroke="#666666" points="539.01,-215.01 549.4,-212.93 539.98,-208.07 539.01,-215.01"/>
</g>
<!-- Storage_last_index -->
<g id="node13" class="node">
<title>Storage_last_index</title>
<path fill="#79d8ce" stroke="#60b5ac" d="M756,-116C756,-116 898,-116 898,-116 904,-116 910,-122 910,-128 910,-128 910,-165 910,-165 910,-171 904,-177 898,-177 898,-177 756,-177 756,-177 750,-177 744,-171 744,-165 744,-165 744,-128 744,-128 744,-122 750,-116 756,-116"/>
<text text-anchor="middle" x="827" y="-161.8" font-family="Times,serif" font-size="14.00" fill="#5d6179">Storage::last_index</text>
<polyline fill="none" stroke="#60b5ac" points="744,-154 910,-154 "/>
<text text-anchor="start" x="752" y="-138.8" font-family="Times,serif" font-size="14.00" fill="#5d6179">The index of the last entry</text>
<text text-anchor="start" x="752" y="-123.8" font-family="Times,serif" font-size="14.00" fill="#5d6179"> replicated in the `Storage`.</text>
</g>
<!-- RaftLocalState&#45;&gt;Storage_last_index -->
<g id="edge13" class="edge">
<title>RaftLocalState:last_index&#45;&gt;Storage_last_index</title>
<path fill="none" stroke="#666666" d="M460,-163.5C553.26,-163.5 659.73,-157.92 733.7,-153.16"/>
<polygon fill="#666666" stroke="#666666" points="734.17,-156.64 743.92,-152.49 733.72,-149.65 734.17,-156.64"/>
</g>
<!-- Storage_initial_state -->
<g id="node11" class="node">
<title>Storage_initial_state</title>
<path fill="#79d8ce" stroke="#60b5ac" d="M743,-298.5C743,-298.5 911,-298.5 911,-298.5 917,-298.5 923,-304.5 923,-310.5 923,-310.5 923,-332.5 923,-332.5 923,-338.5 917,-344.5 911,-344.5 911,-344.5 743,-344.5 743,-344.5 737,-344.5 731,-338.5 731,-332.5 731,-332.5 731,-310.5 731,-310.5 731,-304.5 737,-298.5 743,-298.5"/>
<text text-anchor="start" x="739" y="-329.3" font-family="Times,serif" font-size="14.00" fill="#5d6179">Storage::initial_state</text>
<polyline fill="none" stroke="#60b5ac" points="731,-321.5 923,-321.5 "/>
<text text-anchor="start" x="739" y="-306.3" font-family="Times,serif" font-size="14.00" fill="#5d6179">is called when Raft is initialized</text>
</g>
<!-- HardState&#45;&gt;Storage_initial_state -->
<g id="edge9" class="edge">
<title>HardState&#45;&gt;Storage_initial_state</title>
<path fill="none" stroke="green" stroke-dasharray="5,2" d="M673.68,-250.16C703.15,-263.96 738.31,-280.43 767.43,-294.07"/>
<polygon fill="green" stroke="green" points="766.11,-297.31 776.65,-298.39 769.08,-290.98 766.11,-297.31"/>
</g>
<!-- RaftTruncatedState -->
<g id="node6" class="node">
<title>RaftTruncatedState</title>
<path fill="none" stroke="#1c2123" d="M562.5,-26C562.5,-26 660.5,-26 660.5,-26 666.5,-26 672.5,-32 672.5,-38 672.5,-38 672.5,-83 672.5,-83 672.5,-89 666.5,-95 660.5,-95 660.5,-95 562.5,-95 562.5,-95 556.5,-95 550.5,-89 550.5,-83 550.5,-83 550.5,-38 550.5,-38 550.5,-32 556.5,-26 562.5,-26"/>
<text text-anchor="middle" x="611.5" y="-79.8" font-family="Times,serif" font-size="14.00" fill="#2f3638">RaftTruncatedState</text>
<polyline fill="none" stroke="#1c2123" points="550.5,-72 672.5,-72 "/>
<text text-anchor="start" x="558.5" y="-56.8" font-family="Times,serif" font-size="14.00" fill="#2f3638">uint64 index = 1;</text>
<polyline fill="none" stroke="#1c2123" points="550.5,-49 672.5,-49 "/>
<text text-anchor="start" x="558.5" y="-33.8" font-family="Times,serif" font-size="14.00" fill="#2f3638">uint64 term = 2;</text>
</g>
<!-- RaftApplyState&#45;&gt;RaftTruncatedState -->
<g id="edge2" class="edge">
<title>RaftApplyState&#45;&gt;RaftTruncatedState</title>
<path fill="none" stroke="#666666" d="M478.81,-63.14C499.77,-62.72 521,-62.29 540.11,-61.91"/>
<polygon fill="#666666" stroke="#666666" points="540.26,-65.41 550.19,-61.71 540.12,-58.41 540.26,-65.41"/>
</g>
<!-- Storage_first_index -->
<g id="node12" class="node">
<title>Storage_first_index</title>
<path fill="#79d8ce" stroke="#60b5ac" d="M724,-20.5C724,-20.5 930,-20.5 930,-20.5 936,-20.5 942,-26.5 942,-32.5 942,-32.5 942,-84.5 942,-84.5 942,-90.5 936,-96.5 930,-96.5 930,-96.5 724,-96.5 724,-96.5 718,-96.5 712,-90.5 712,-84.5 712,-84.5 712,-32.5 712,-32.5 712,-26.5 718,-20.5 724,-20.5"/>
<text text-anchor="start" x="720" y="-81.3" font-family="Times,serif" font-size="14.00" fill="#5d6179">Storage::first_index</text>
<polyline fill="none" stroke="#60b5ac" points="712,-73.5 942,-73.5 "/>
<text text-anchor="start" x="720" y="-58.3" font-family="Times,serif" font-size="14.00" fill="#5d6179">returns the index of the first log entry</text>
<text text-anchor="start" x="720" y="-43.3" font-family="Times,serif" font-size="14.00" fill="#5d6179"> that is possible available via entries</text>
<text text-anchor="start" x="720" y="-28.3" font-family="Times,serif" font-size="14.00" fill="#5d6179"> always equal to truncated index plus 1</text>
</g>
<!-- RaftTruncatedState&#45;&gt;Storage_first_index -->
<g id="edge12" class="edge">
<title>RaftTruncatedState&#45;&gt;Storage_first_index</title>
<path fill="none" stroke="green" stroke-dasharray="5,2" d="M672.54,-59.94C681.79,-59.85 691.62,-59.76 701.67,-59.66"/>
<polygon fill="green" stroke="green" points="701.81,-63.16 711.77,-59.57 701.74,-56.16 701.81,-63.16"/>
</g>
<!-- RegionEpoch -->
<g id="node8" class="node">
<title>RegionEpoch</title>
<path fill="none" stroke="#1c2123" d="M559,-287C559,-287 664,-287 664,-287 670,-287 676,-293 676,-299 676,-299 676,-344 676,-344 676,-350 670,-356 664,-356 664,-356 559,-356 559,-356 553,-356 547,-350 547,-344 547,-344 547,-299 547,-299 547,-293 553,-287 559,-287"/>
<text text-anchor="middle" x="611.5" y="-340.8" font-family="Times,serif" font-size="14.00" fill="#2f3638">RegionEpoch</text>
<polyline fill="none" stroke="#1c2123" points="547,-333 676,-333 "/>
<text text-anchor="start" x="555" y="-317.8" font-family="Times,serif" font-size="14.00" fill="#2f3638">uint64 conf_ver = 1;</text>
<polyline fill="none" stroke="#1c2123" points="547,-310 676,-310 "/>
<text text-anchor="start" x="555" y="-294.8" font-family="Times,serif" font-size="14.00" fill="#2f3638">uint64 version = 2;</text>
</g>
<!-- Region&#45;&gt;RegionEpoch -->
<g id="edge6" class="edge">
<title>Region&#45;&gt;RegionEpoch</title>
<path fill="none" stroke="#666666" d="M511.17,-321.5C519.88,-321.5 528.42,-321.5 536.6,-321.5"/>
<polygon fill="#666666" stroke="#666666" points="536.76,-325 546.76,-321.5 536.76,-318 536.76,-325"/>
</g>
<!-- Peer -->
<g id="node9" class="node">
<title>Peer</title>
<path fill="none" stroke="#1c2123" d="M561,-375.5C561,-375.5 662,-375.5 662,-375.5 668,-375.5 674,-381.5 674,-387.5 674,-387.5 674,-455.5 674,-455.5 674,-461.5 668,-467.5 662,-467.5 662,-467.5 561,-467.5 561,-467.5 555,-467.5 549,-461.5 549,-455.5 549,-455.5 549,-387.5 549,-387.5 549,-381.5 555,-375.5 561,-375.5"/>
<text text-anchor="middle" x="611.5" y="-452.3" font-family="Times,serif" font-size="14.00" fill="#2f3638">Peer</text>
<polyline fill="none" stroke="#1c2123" points="549,-444.5 674,-444.5 "/>
<text text-anchor="start" x="557" y="-429.3" font-family="Times,serif" font-size="14.00" fill="#2f3638">uint64 id = 1;</text>
<polyline fill="none" stroke="#1c2123" points="549,-421.5 674,-421.5 "/>
<text text-anchor="start" x="557" y="-406.3" font-family="Times,serif" font-size="14.00" fill="#2f3638">uint64 store_id = 2;</text>
<polyline fill="none" stroke="#1c2123" points="549,-398.5 674,-398.5 "/>
<text text-anchor="start" x="557" y="-383.3" font-family="Times,serif" font-size="14.00" fill="#2f3638">PeerRole role = 3;</text>
</g>
<!-- Region&#45;&gt;Peer -->
<g id="edge7" class="edge">
<title>Region&#45;&gt;Peer</title>
<path fill="none" stroke="#666666" d="M511.17,-381.69C520.98,-385.62 530.56,-389.46 539.67,-393.11"/>
<polygon fill="#666666" stroke="#666666" points="538.4,-396.37 548.99,-396.85 541.01,-389.88 538.4,-396.37"/>
</g>
<!-- Peer&#45;&gt;Storage_initial_state -->
<g id="edge10" class="edge">
<title>Peer&#45;&gt;Storage_initial_state</title>
<path fill="none" stroke="green" stroke-dasharray="5,2" d="M674.25,-392.58C703.59,-378.83 738.48,-362.49 767.4,-348.95"/>
<polygon fill="green" stroke="green" points="768.99,-352.07 776.57,-344.65 766.03,-345.73 768.99,-352.07"/>
</g>
<!-- Storage_initial_state&#45;&gt;RaftState -->
<g id="edge11" class="edge">
<title>Storage_initial_state&#45;&gt;RaftState</title>
<path fill="none" stroke="green" stroke-dasharray="5,2" d="M923,-321.5C937.83,-321.5 953.11,-321.5 967.82,-321.5"/>
<polygon fill="green" stroke="green" points="967.89,-325 977.89,-321.5 967.89,-318 967.89,-325"/>
</g>
</g>
</svg>
