<?xml version="1.0" encoding="UTF-8" standalone="no"?>
<!DOCTYPE svg PUBLIC "-//W3C//DTD SVG 1.1//EN"
 "http://www.w3.org/Graphics/SVG/1.1/DTD/svg11.dtd">
<!-- Generated by graphviz version 2.47.1 (20210417.1919)
 -->
<!-- Title: raft_tick_election Pages: 1 -->
<svg width="2110pt" height="964pt"
 viewBox="0.00 0.00 2110.00 964.00" xmlns="http://www.w3.org/2000/svg" xmlns:xlink="http://www.w3.org/1999/xlink">
<g id="graph0" class="graph" transform="scale(1 1) rotate(0) translate(4 960)">
<title>raft_tick_election</title>
<polygon fill="white" stroke="transparent" points="-4,4 -4,-960 2106,-960 2106,4 -4,4"/>
<!-- RaftCore__tick -->
<g id="node1" class="node">
<title>RaftCore__tick</title>
<path fill="none" stroke="#1c2123" d="M88,-836.5C88,-836.5 12,-836.5 12,-836.5 6,-836.5 0,-830.5 0,-824.5 0,-824.5 0,-812.5 0,-812.5 0,-806.5 6,-800.5 12,-800.5 12,-800.5 88,-800.5 88,-800.5 94,-800.5 100,-806.5 100,-812.5 100,-812.5 100,-824.5 100,-824.5 100,-830.5 94,-836.5 88,-836.5"/>
<text text-anchor="middle" x="50" y="-814.8" font-family="Times,serif" font-size="14.00" fill="#2f3638">RaftCore__tick</text>
</g>
<!-- RaftCore__tick_election -->
<g id="node2" class="node">
<title>RaftCore__tick_election</title>
<path fill="none" stroke="#1c2123" d="M273,-836.5C273,-836.5 148,-836.5 148,-836.5 142,-836.5 136,-830.5 136,-824.5 136,-824.5 136,-812.5 136,-812.5 136,-806.5 142,-800.5 148,-800.5 148,-800.5 273,-800.5 273,-800.5 279,-800.5 285,-806.5 285,-812.5 285,-812.5 285,-824.5 285,-824.5 285,-830.5 279,-836.5 273,-836.5"/>
<text text-anchor="middle" x="210.5" y="-814.8" font-family="Times,serif" font-size="14.00" fill="#2f3638">RaftCore__tick_election</text>
</g>
<!-- RaftCore__tick&#45;&gt;RaftCore__tick_election -->
<g id="edge1" class="edge">
<title>RaftCore__tick&#45;&gt;RaftCore__tick_election</title>
<path fill="none" stroke="#666666" d="M100.28,-818.5C108.38,-818.5 116.97,-818.5 125.63,-818.5"/>
<polygon fill="#666666" stroke="#666666" points="125.81,-822 135.81,-818.5 125.81,-815 125.81,-822"/>
</g>
<!-- RaftCore__election_elapsed -->
<g id="node3" class="node">
<title>RaftCore__election_elapsed</title>
<path fill="#feed9b" stroke="#f7e495" d="M570,-823.5C570,-823.5 716,-823.5 716,-823.5 722,-823.5 728,-829.5 728,-835.5 728,-835.5 728,-847.5 728,-847.5 728,-853.5 722,-859.5 716,-859.5 716,-859.5 570,-859.5 570,-859.5 564,-859.5 558,-853.5 558,-847.5 558,-847.5 558,-835.5 558,-835.5 558,-829.5 564,-823.5 570,-823.5"/>
<text text-anchor="middle" x="643" y="-837.8" font-family="Times,serif" font-size="14.00" fill="#40575d">RaftCore__election_elapsed</text>
</g>
<!-- RaftCore__tick_election&#45;&gt;RaftCore__election_elapsed -->
<g id="edge2" class="edge">
<title>RaftCore__tick_election&#45;&gt;RaftCore__election_elapsed</title>
<path fill="none" stroke="#666666" d="M285.02,-822.43C357.41,-826.3 468.32,-832.22 547.28,-836.44"/>
<polygon fill="#666666" stroke="#666666" points="547.55,-839.96 557.72,-837 547.92,-832.97 547.55,-839.96"/>
</g>
<!-- RaftCore__pass_election_timeout -->
<g id="node4" class="node">
<title>RaftCore__pass_election_timeout</title>
<path fill="none" stroke="#1c2123" d="M510,-882.5C510,-882.5 333,-882.5 333,-882.5 327,-882.5 321,-876.5 321,-870.5 321,-870.5 321,-858.5 321,-858.5 321,-852.5 327,-846.5 333,-846.5 333,-846.5 510,-846.5 510,-846.5 516,-846.5 522,-852.5 522,-858.5 522,-858.5 522,-870.5 522,-870.5 522,-876.5 516,-882.5 510,-882.5"/>
<text text-anchor="middle" x="421.5" y="-860.8" font-family="Times,serif" font-size="14.00" fill="#2f3638">RaftCore__pass_election_timeout</text>
</g>
<!-- RaftCore__tick_election&#45;&gt;RaftCore__pass_election_timeout -->
<g id="edge3" class="edge">
<title>RaftCore__tick_election&#45;&gt;RaftCore__pass_election_timeout</title>
<path fill="none" stroke="#666666" d="M285.19,-834.72C299.22,-837.81 314.07,-841.08 328.6,-844.27"/>
<polygon fill="#666666" stroke="#666666" points="328.06,-847.74 338.58,-846.47 329.57,-840.9 328.06,-847.74"/>
</g>
<!-- RaftCore__step -->
<g id="node5" class="node">
<title>RaftCore__step</title>
<path fill="none" stroke="#1c2123" d="M460,-718.5C460,-718.5 383,-718.5 383,-718.5 377,-718.5 371,-712.5 371,-706.5 371,-706.5 371,-694.5 371,-694.5 371,-688.5 377,-682.5 383,-682.5 383,-682.5 460,-682.5 460,-682.5 466,-682.5 472,-688.5 472,-694.5 472,-694.5 472,-706.5 472,-706.5 472,-712.5 466,-718.5 460,-718.5"/>
<text text-anchor="middle" x="421.5" y="-696.8" font-family="Times,serif" font-size="14.00" fill="#2f3638">RaftCore__step</text>
</g>
<!-- RaftCore__tick_election&#45;&gt;RaftCore__step -->
<g id="edge4" class="edge">
<title>RaftCore__tick_election&#45;&gt;RaftCore__step</title>
<path fill="none" stroke="#666666" d="M243.7,-800.32C280.24,-779.69 339.92,-745.99 379.7,-723.54"/>
<polygon fill="#666666" stroke="#666666" points="381.62,-726.47 388.61,-718.51 378.18,-720.37 381.62,-726.47"/>
</g>
<!-- RaftCore__pass_election_timeout&#45;&gt;RaftCore__election_elapsed -->
<g id="edge5" class="edge">
<title>RaftCore__pass_election_timeout&#45;&gt;RaftCore__election_elapsed</title>
<path fill="none" stroke="#666666" d="M522.29,-854.04C530.75,-853.16 539.28,-852.26 547.69,-851.38"/>
<polygon fill="#666666" stroke="#666666" points="548.29,-854.84 557.88,-850.31 547.57,-847.88 548.29,-854.84"/>
</g>
<!-- RaftCore__randomized_election_timeout -->
<g id="node6" class="node">
<title>RaftCore__randomized_election_timeout</title>
<path fill="#feed9b" stroke="#f7e495" d="M1872,-879.5C1872,-879.5 2090,-879.5 2090,-879.5 2096,-879.5 2102,-885.5 2102,-891.5 2102,-891.5 2102,-943.5 2102,-943.5 2102,-949.5 2096,-955.5 2090,-955.5 2090,-955.5 1872,-955.5 1872,-955.5 1866,-955.5 1860,-949.5 1860,-943.5 1860,-943.5 1860,-891.5 1860,-891.5 1860,-885.5 1866,-879.5 1872,-879.5"/>
<text text-anchor="start" x="1868" y="-940.3" font-family="Times,serif" font-size="14.00" fill="#40575d">RaftCore__randomized_election_timeout</text>
<polyline fill="none" stroke="#f7e495" points="1860,-932.5 2102,-932.5 "/>
<text text-anchor="start" x="1868" y="-917.3" font-family="Times,serif" font-size="14.00" fill="#40575d">随机化的超时时间</text>
<text text-anchor="start" x="1868" y="-902.3" font-family="Times,serif" font-size="14.00" fill="#40575d"> 降低多个candidate同时election</text>
<text text-anchor="start" x="1868" y="-887.3" font-family="Times,serif" font-size="14.00" fill="#40575d"> 发送split vote概率</text>
</g>
<!-- RaftCore__pass_election_timeout&#45;&gt;RaftCore__randomized_election_timeout -->
<g id="edge6" class="edge">
<title>RaftCore__pass_election_timeout&#45;&gt;RaftCore__randomized_election_timeout</title>
<path fill="none" stroke="#666666" d="M488.36,-882.58C571.99,-903.9 721.06,-936.5 851,-936.5 851,-936.5 851,-936.5 1399,-936.5 1553.94,-936.5 1732,-929.67 1849.72,-924.2"/>
<polygon fill="#666666" stroke="#666666" points="1850.04,-927.69 1859.86,-923.72 1849.71,-920.69 1850.04,-927.69"/>
</g>
<!-- RaftCore__hup -->
<g id="node7" class="node">
<title>RaftCore__hup</title>
<path fill="none" stroke="#1c2123" d="M681,-648.5C681,-648.5 605,-648.5 605,-648.5 599,-648.5 593,-642.5 593,-636.5 593,-636.5 593,-624.5 593,-624.5 593,-618.5 599,-612.5 605,-612.5 605,-612.5 681,-612.5 681,-612.5 687,-612.5 693,-618.5 693,-624.5 693,-624.5 693,-636.5 693,-636.5 693,-642.5 687,-648.5 681,-648.5"/>
<text text-anchor="middle" x="643" y="-626.8" font-family="Times,serif" font-size="14.00" fill="#2f3638">RaftCore__hup</text>
</g>
<!-- RaftCore__step&#45;&gt;RaftCore__hup -->
<g id="edge7" class="edge">
<title>RaftCore__step&#45;&gt;RaftCore__hup</title>
<path fill="none" stroke="#666666" d="M472.03,-684.7C504.97,-674.2 548.39,-660.35 583.1,-649.28"/>
<polygon fill="#666666" stroke="#666666" points="584.18,-652.61 592.65,-646.24 582.06,-645.94 584.18,-652.61"/>
</g>
<!-- RaftCore__pre_vote -->
<g id="node8" class="node">
<title>RaftCore__pre_vote</title>
<path fill="#feed9b" stroke="#f7e495" d="M776,-670C776,-670 928,-670 928,-670 934,-670 940,-676 940,-682 940,-682 940,-719 940,-719 940,-725 934,-731 928,-731 928,-731 776,-731 776,-731 770,-731 764,-725 764,-719 764,-719 764,-682 764,-682 764,-676 770,-670 776,-670"/>
<text text-anchor="middle" x="852" y="-715.8" font-family="Times,serif" font-size="14.00" fill="#40575d">RaftCore__pre_vote</text>
<polyline fill="none" stroke="#f7e495" points="764,-708 940,-708 "/>
<text text-anchor="start" x="772" y="-692.8" font-family="Times,serif" font-size="14.00" fill="#40575d">Enable the prevote algorithm</text>
<text text-anchor="start" x="772" y="-677.8" font-family="Times,serif" font-size="14.00" fill="#40575d"> 配置是否开启prevote</text>
</g>
<!-- RaftCore__step&#45;&gt;RaftCore__pre_vote -->
<g id="edge8" class="edge">
<title>RaftCore__step&#45;&gt;RaftCore__pre_vote</title>
<path fill="none" stroke="#666666" d="M472.07,-700.5C540.63,-700.5 665.82,-700.5 753.48,-700.5"/>
<polygon fill="#666666" stroke="#666666" points="753.71,-704 763.71,-700.5 753.71,-697 753.71,-704"/>
</g>
<!-- RaftCore__campain -->
<g id="node9" class="node">
<title>RaftCore__campain</title>
<path fill="none" stroke="#1c2123" d="M783,-520.5C783,-520.5 921,-520.5 921,-520.5 927,-520.5 933,-526.5 933,-532.5 933,-532.5 933,-584.5 933,-584.5 933,-590.5 927,-596.5 921,-596.5 921,-596.5 783,-596.5 783,-596.5 777,-596.5 771,-590.5 771,-584.5 771,-584.5 771,-532.5 771,-532.5 771,-526.5 777,-520.5 783,-520.5"/>
<text text-anchor="middle" x="852" y="-581.3" font-family="Times,serif" font-size="14.00" fill="#2f3638">RaftCore__campain</text>
<polyline fill="none" stroke="#1c2123" points="771,-573.5 933,-573.5 "/>
<text text-anchor="start" x="779" y="-558.3" font-family="Times,serif" font-size="14.00" fill="#2f3638">遍历所有的voters</text>
<text text-anchor="start" x="779" y="-543.3" font-family="Times,serif" font-size="14.00" fill="#2f3638"> 向每个voter发送PreVote</text>
<text text-anchor="start" x="779" y="-528.3" font-family="Times,serif" font-size="14.00" fill="#2f3638"> 或者Vote Msg</text>
</g>
<!-- RaftCore__hup&#45;&gt;RaftCore__campain -->
<g id="edge9" class="edge">
<title>RaftCore__hup&#45;&gt;RaftCore__campain</title>
<path fill="none" stroke="#666666" d="M693.06,-613.44C713.44,-606.35 737.77,-597.89 761.14,-589.75"/>
<polygon fill="#666666" stroke="#666666" points="762.45,-593.01 770.74,-586.42 760.15,-586.4 762.45,-593.01"/>
</g>
<!-- RaftCore__become_pre_candidate -->
<g id="node10" class="node">
<title>RaftCore__become_pre_candidate</title>
<path fill="#a2dbfa" stroke="#8a8898" d="M988,-736.5C988,-736.5 1235,-736.5 1235,-736.5 1241,-736.5 1247,-742.5 1247,-748.5 1247,-748.5 1247,-800.5 1247,-800.5 1247,-806.5 1241,-812.5 1235,-812.5 1235,-812.5 988,-812.5 988,-812.5 982,-812.5 976,-806.5 976,-800.5 976,-800.5 976,-748.5 976,-748.5 976,-742.5 982,-736.5 988,-736.5"/>
<text text-anchor="middle" x="1111.5" y="-797.3" font-family="Times,serif" font-size="14.00" fill="#5d6179">RaftCore__become_pre_candidate</text>
<polyline fill="none" stroke="#8a8898" points="976,-789.5 1247,-789.5 "/>
<text text-anchor="start" x="984" y="-774.3" font-family="Times,serif" font-size="14.00" fill="#5d6179">1.将state设置为pre candidate</text>
<text text-anchor="start" x="984" y="-759.3" font-family="Times,serif" font-size="14.00" fill="#5d6179"> 2.重置ProgressTracker的votes</text>
<text text-anchor="start" x="984" y="-744.3" font-family="Times,serif" font-size="14.00" fill="#5d6179"> 注意这地方没有更改自己的hardstate: vote</text>
</g>
<!-- RaftCore__pre_vote&#45;&gt;RaftCore__become_pre_candidate -->
<g id="edge33" class="edge">
<title>RaftCore__pre_vote&#45;&gt;RaftCore__become_pre_candidate</title>
<path fill="none" stroke="green" stroke-dasharray="5,2" d="M940.18,-725.55C949.37,-728.19 958.88,-730.93 968.49,-733.69"/>
<polygon fill="green" stroke="green" points="967.54,-737.06 978.12,-736.46 969.48,-730.33 967.54,-737.06"/>
</g>
<!-- PreVoteMsg -->
<g id="node16" class="node">
<title>PreVoteMsg</title>
<path fill="none" stroke="#1c2123" d="M1001.5,-587.5C1001.5,-587.5 1221.5,-587.5 1221.5,-587.5 1227.5,-587.5 1233.5,-593.5 1233.5,-599.5 1233.5,-599.5 1233.5,-705.5 1233.5,-705.5 1233.5,-711.5 1227.5,-717.5 1221.5,-717.5 1221.5,-717.5 1001.5,-717.5 1001.5,-717.5 995.5,-717.5 989.5,-711.5 989.5,-705.5 989.5,-705.5 989.5,-599.5 989.5,-599.5 989.5,-593.5 995.5,-587.5 1001.5,-587.5"/>
<text text-anchor="middle" x="1111.5" y="-702.3" font-family="Times,serif" font-size="14.00" fill="#2f3638">PreVoteMsg</text>
<polyline fill="none" stroke="#1c2123" points="989.5,-694.5 1233.5,-694.5 "/>
<text text-anchor="start" x="997.5" y="-679.3" font-family="Times,serif" font-size="14.00" fill="#2f3638">type：MsgRequestPreVote</text>
<polyline fill="none" stroke="#1c2123" points="989.5,-671.5 1233.5,-671.5 "/>
<text text-anchor="start" x="997.5" y="-656.3" font-family="Times,serif" font-size="14.00" fill="#2f3638">index: self.raft_log.last_index</text>
<polyline fill="none" stroke="#1c2123" points="989.5,-648.5 1233.5,-648.5 "/>
<text text-anchor="start" x="997.5" y="-633.3" font-family="Times,serif" font-size="14.00" fill="#2f3638">term: self.term +1</text>
<polyline fill="none" stroke="#1c2123" points="989.5,-625.5 1233.5,-625.5 "/>
<text text-anchor="start" x="997.5" y="-610.3" font-family="Times,serif" font-size="14.00" fill="#2f3638">commit: self.raft_log.commit_info</text>
<text text-anchor="middle" x="1111.5" y="-595.3" font-family="Times,serif" font-size="14.00" fill="#2f3638"> commit_term: self.raft_log.commit_info</text>
</g>
<!-- RaftCore__pre_vote&#45;&gt;PreVoteMsg -->
<g id="edge34" class="edge">
<title>RaftCore__pre_vote&#45;&gt;PreVoteMsg</title>
<path fill="none" stroke="green" stroke-dasharray="5,2" d="M940.18,-684.25C952.73,-681.91 965.88,-679.46 979.07,-677"/>
<polygon fill="green" stroke="green" points="979.96,-680.39 989.15,-675.12 978.68,-673.51 979.96,-680.39"/>
</g>
<!-- RaftCore__campain&#45;&gt;RaftCore__become_pre_candidate -->
<g id="edge10" class="edge">
<title>RaftCore__campain&#45;&gt;RaftCore__become_pre_candidate</title>
<path fill="none" stroke="#666666" d="M888.93,-596.65C905.47,-615.18 924.76,-638.21 940,-660.5 959.08,-688.41 950.3,-705.54 976,-727.5 977.15,-728.48 978.31,-729.44 979.5,-730.38"/>
<polygon fill="#666666" stroke="#666666" points="977.47,-733.23 987.61,-736.3 981.6,-727.58 977.47,-733.23"/>
</g>
<!-- RaftCore__become_candidate -->
<g id="node11" class="node">
<title>RaftCore__become_candidate</title>
<path fill="#a2dbfa" stroke="#8a8898" d="M1019,-831.5C1019,-831.5 1204,-831.5 1204,-831.5 1210,-831.5 1216,-837.5 1216,-843.5 1216,-843.5 1216,-895.5 1216,-895.5 1216,-901.5 1210,-907.5 1204,-907.5 1204,-907.5 1019,-907.5 1019,-907.5 1013,-907.5 1007,-901.5 1007,-895.5 1007,-895.5 1007,-843.5 1007,-843.5 1007,-837.5 1013,-831.5 1019,-831.5"/>
<text text-anchor="middle" x="1111.5" y="-892.3" font-family="Times,serif" font-size="14.00" fill="#5d6179">RaftCore__become_candidate</text>
<polyline fill="none" stroke="#8a8898" points="1007,-884.5 1216,-884.5 "/>
<text text-anchor="start" x="1015" y="-869.3" font-family="Times,serif" font-size="14.00" fill="#5d6179">1.state设置为StateRole::Candidate</text>
<text text-anchor="start" x="1015" y="-854.3" font-family="Times,serif" font-size="14.00" fill="#5d6179"> 2.将self.term +1</text>
<text text-anchor="start" x="1015" y="-839.3" font-family="Times,serif" font-size="14.00" fill="#5d6179"> 3.将hardstate vote = self.id</text>
</g>
<!-- RaftCore__campain&#45;&gt;RaftCore__become_candidate -->
<g id="edge11" class="edge">
<title>RaftCore__campain&#45;&gt;RaftCore__become_candidate</title>
<path fill="none" stroke="#666666" d="M893.57,-596.87C910.26,-614.73 928.37,-637.17 940,-660.5 972.9,-726.51 927,-767.37 976,-822.5 982.34,-829.63 989.83,-835.69 997.97,-840.82"/>
<polygon fill="#666666" stroke="#666666" points="996.26,-843.88 1006.67,-845.84 999.76,-837.81 996.26,-843.88"/>
</g>
<!-- ProgressTracker_conf_voters -->
<g id="node12" class="node">
<title>ProgressTracker_conf_voters</title>
<path fill="#feed9b" stroke="#f7e495" d="M1032,-483.5C1032,-483.5 1191,-483.5 1191,-483.5 1197,-483.5 1203,-489.5 1203,-495.5 1203,-495.5 1203,-517.5 1203,-517.5 1203,-523.5 1197,-529.5 1191,-529.5 1191,-529.5 1032,-529.5 1032,-529.5 1026,-529.5 1020,-523.5 1020,-517.5 1020,-517.5 1020,-495.5 1020,-495.5 1020,-489.5 1026,-483.5 1032,-483.5"/>
<text text-anchor="middle" x="1111.5" y="-514.3" font-family="Times,serif" font-size="14.00" fill="#40575d">ProgressTracker_conf_voters</text>
<polyline fill="none" stroke="#f7e495" points="1020,-506.5 1203,-506.5 "/>
<text text-anchor="start" x="1028" y="-491.3" font-family="Times,serif" font-size="14.00" fill="#40575d">pub(crate) voters: JointConfig,</text>
</g>
<!-- RaftCore__campain&#45;&gt;ProgressTracker_conf_voters -->
<g id="edge12" class="edge">
<title>RaftCore__campain&#45;&gt;ProgressTracker_conf_voters</title>
<path fill="none" stroke="#666666" d="M933.06,-542.33C957.31,-537.44 984.25,-532 1009.67,-526.86"/>
<polygon fill="#666666" stroke="#666666" points="1010.59,-530.25 1019.7,-524.84 1009.2,-523.39 1010.59,-530.25"/>
</g>
<!-- RaftCore__poll -->
<g id="node13" class="node">
<title>RaftCore__poll</title>
<path fill="#a2dbfa" stroke="#8a8898" d="M1042.5,-102C1042.5,-102 1180.5,-102 1180.5,-102 1186.5,-102 1192.5,-108 1192.5,-114 1192.5,-114 1192.5,-265 1192.5,-265 1192.5,-271 1186.5,-277 1180.5,-277 1180.5,-277 1042.5,-277 1042.5,-277 1036.5,-277 1030.5,-271 1030.5,-265 1030.5,-265 1030.5,-114 1030.5,-114 1030.5,-108 1036.5,-102 1042.5,-102"/>
<text text-anchor="middle" x="1111.5" y="-261.8" font-family="Times,serif" font-size="14.00" fill="#5d6179">RaftCore__poll</text>
<polyline fill="none" stroke="#8a8898" points="1030.5,-254 1192.5,-254 "/>
<text text-anchor="start" x="1038.5" y="-238.8" font-family="Times,serif" font-size="14.00" fill="#5d6179">先给自己投一票</text>
<text text-anchor="start" x="1038.5" y="-223.8" font-family="Times,serif" font-size="14.00" fill="#5d6179"> 然后查看投票结果</text>
<text text-anchor="start" x="1038.5" y="-208.8" font-family="Times,serif" font-size="14.00" fill="#5d6179"> 是否赢得了选票</text>
<polyline fill="none" stroke="#8a8898" points="1030.5,-201 1192.5,-201 "/>
<text text-anchor="start" x="1038.5" y="-185.8" font-family="Times,serif" font-size="14.00" fill="#5d6179">1.如果赢得了pre election</text>
<text text-anchor="start" x="1038.5" y="-170.8" font-family="Times,serif" font-size="14.00" fill="#5d6179"> 则发起真正的election</text>
<polyline fill="none" stroke="#8a8898" points="1030.5,-163 1192.5,-163 "/>
<text text-anchor="start" x="1038.5" y="-147.8" font-family="Times,serif" font-size="14.00" fill="#5d6179">2.如果赢得了election</text>
<text text-anchor="start" x="1038.5" y="-132.8" font-family="Times,serif" font-size="14.00" fill="#5d6179"> 成为leader,bcast_append</text>
<polyline fill="none" stroke="#8a8898" points="1030.5,-125 1192.5,-125 "/>
<text text-anchor="start" x="1038.5" y="-109.8" font-family="Times,serif" font-size="14.00" fill="#5d6179">3.失败了就成为follower</text>
</g>
<!-- RaftCore__campain&#45;&gt;RaftCore__poll -->
<g id="edge13" class="edge">
<title>RaftCore__campain&#45;&gt;RaftCore__poll</title>
<path fill="none" stroke="#666666" d="M864.02,-520.35C881.24,-465.45 918.62,-362.92 976,-291.5 989.17,-275.11 1005.53,-259.89 1022.25,-246.48"/>
<polygon fill="#666666" stroke="#666666" points="1024.75,-248.96 1030.47,-240.04 1020.44,-243.45 1024.75,-248.96"/>
</g>
<!-- RaftCore__send -->
<g id="node14" class="node">
<title>RaftCore__send</title>
<path fill="none" stroke="#1c2123" d="M1334.5,-502C1334.5,-502 1461.5,-502 1461.5,-502 1467.5,-502 1473.5,-508 1473.5,-514 1473.5,-514 1473.5,-551 1473.5,-551 1473.5,-557 1467.5,-563 1461.5,-563 1461.5,-563 1334.5,-563 1334.5,-563 1328.5,-563 1322.5,-557 1322.5,-551 1322.5,-551 1322.5,-514 1322.5,-514 1322.5,-508 1328.5,-502 1334.5,-502"/>
<text text-anchor="middle" x="1398" y="-547.8" font-family="Times,serif" font-size="14.00" fill="#2f3638">RaftCore__send</text>
<polyline fill="none" stroke="#1c2123" points="1322.5,-540 1473.5,-540 "/>
<text text-anchor="start" x="1330.5" y="-524.8" font-family="Times,serif" font-size="14.00" fill="#2f3638">向peer发送VoteRequest</text>
<text text-anchor="start" x="1330.5" y="-509.8" font-family="Times,serif" font-size="14.00" fill="#2f3638"> 或者PreVoteRequest</text>
</g>
<!-- RaftCore__campain&#45;&gt;RaftCore__send -->
<g id="edge14" class="edge">
<title>RaftCore__campain&#45;&gt;RaftCore__send</title>
<path fill="none" stroke="#666666" d="M933.27,-554.66C1034.67,-549.82 1208.39,-541.51 1311.98,-536.56"/>
<polygon fill="#666666" stroke="#666666" points="1312.27,-540.05 1322.1,-536.08 1311.94,-533.06 1312.27,-540.05"/>
</g>
<!-- VoteMsg -->
<g id="node15" class="node">
<title>VoteMsg</title>
<path fill="none" stroke="#1c2123" d="M1001.5,-334.5C1001.5,-334.5 1221.5,-334.5 1221.5,-334.5 1227.5,-334.5 1233.5,-340.5 1233.5,-346.5 1233.5,-346.5 1233.5,-452.5 1233.5,-452.5 1233.5,-458.5 1227.5,-464.5 1221.5,-464.5 1221.5,-464.5 1001.5,-464.5 1001.5,-464.5 995.5,-464.5 989.5,-458.5 989.5,-452.5 989.5,-452.5 989.5,-346.5 989.5,-346.5 989.5,-340.5 995.5,-334.5 1001.5,-334.5"/>
<text text-anchor="middle" x="1111.5" y="-449.3" font-family="Times,serif" font-size="14.00" fill="#2f3638">VoteMsg</text>
<polyline fill="none" stroke="#1c2123" points="989.5,-441.5 1233.5,-441.5 "/>
<text text-anchor="start" x="997.5" y="-426.3" font-family="Times,serif" font-size="14.00" fill="#2f3638">type：MsgRequestVote</text>
<polyline fill="none" stroke="#1c2123" points="989.5,-418.5 1233.5,-418.5 "/>
<text text-anchor="start" x="997.5" y="-403.3" font-family="Times,serif" font-size="14.00" fill="#2f3638">index: self.raft_log.last_index</text>
<polyline fill="none" stroke="#1c2123" points="989.5,-395.5 1233.5,-395.5 "/>
<text text-anchor="start" x="997.5" y="-380.3" font-family="Times,serif" font-size="14.00" fill="#2f3638">term: self.term</text>
<polyline fill="none" stroke="#1c2123" points="989.5,-372.5 1233.5,-372.5 "/>
<text text-anchor="start" x="997.5" y="-357.3" font-family="Times,serif" font-size="14.00" fill="#2f3638">commit: self.raft_log.commit_info</text>
<text text-anchor="middle" x="1111.5" y="-342.3" font-family="Times,serif" font-size="14.00" fill="#2f3638"> commit_term: self.raft_log.commit_info</text>
</g>
<!-- RaftCore__campain&#45;&gt;VoteMsg -->
<g id="edge15" class="edge">
<title>RaftCore__campain&#45;&gt;VoteMsg</title>
<path fill="none" stroke="#666666" d="M905.49,-520.48C927.01,-505.35 952.38,-488.11 976,-473.5 977.93,-472.3 979.89,-471.11 981.86,-469.91"/>
<polygon fill="#666666" stroke="#666666" points="983.84,-472.8 990.6,-464.65 980.23,-466.8 983.84,-472.8"/>
</g>
<!-- RaftCore__campain&#45;&gt;PreVoteMsg -->
<g id="edge16" class="edge">
<title>RaftCore__campain&#45;&gt;PreVoteMsg</title>
<path fill="none" stroke="#666666" d="M933.06,-587.73C948,-593.18 963.95,-599 979.95,-604.84"/>
<polygon fill="#666666" stroke="#666666" points="978.77,-608.14 989.36,-608.28 981.17,-601.56 978.77,-608.14"/>
</g>
<!-- RaftCore__state -->
<g id="node17" class="node">
<title>RaftCore__state</title>
<path fill="#feed9b" stroke="#f7e495" d="M1358,-778.5C1358,-778.5 1438,-778.5 1438,-778.5 1444,-778.5 1450,-784.5 1450,-790.5 1450,-790.5 1450,-802.5 1450,-802.5 1450,-808.5 1444,-814.5 1438,-814.5 1438,-814.5 1358,-814.5 1358,-814.5 1352,-814.5 1346,-808.5 1346,-802.5 1346,-802.5 1346,-790.5 1346,-790.5 1346,-784.5 1352,-778.5 1358,-778.5"/>
<text text-anchor="middle" x="1398" y="-792.8" font-family="Times,serif" font-size="14.00" fill="#40575d">RaftCore__state</text>
</g>
<!-- RaftCore__become_pre_candidate&#45;&gt;RaftCore__state -->
<g id="edge17" class="edge">
<title>RaftCore__become_pre_candidate&#45;&gt;RaftCore__state</title>
<path fill="none" stroke="#666666" d="M1247.25,-784.92C1278.19,-787.31 1309.6,-789.74 1335.61,-791.75"/>
<polygon fill="#666666" stroke="#666666" points="1335.43,-795.25 1345.67,-792.53 1335.97,-788.27 1335.43,-795.25"/>
</g>
<!-- ProgressTracker__reset_votes -->
<g id="node18" class="node">
<title>ProgressTracker__reset_votes</title>
<path fill="none" stroke="#1c2123" d="M1320.5,-672.5C1320.5,-672.5 1475.5,-672.5 1475.5,-672.5 1481.5,-672.5 1487.5,-678.5 1487.5,-684.5 1487.5,-684.5 1487.5,-706.5 1487.5,-706.5 1487.5,-712.5 1481.5,-718.5 1475.5,-718.5 1475.5,-718.5 1320.5,-718.5 1320.5,-718.5 1314.5,-718.5 1308.5,-712.5 1308.5,-706.5 1308.5,-706.5 1308.5,-684.5 1308.5,-684.5 1308.5,-678.5 1314.5,-672.5 1320.5,-672.5"/>
<text text-anchor="middle" x="1398" y="-703.3" font-family="Times,serif" font-size="14.00" fill="#2f3638">ProgressTracker__reset_votes</text>
<polyline fill="none" stroke="#1c2123" points="1308.5,-695.5 1487.5,-695.5 "/>
<text text-anchor="start" x="1316.5" y="-680.3" font-family="Times,serif" font-size="14.00" fill="#2f3638">清理掉之前的vote结果</text>
</g>
<!-- RaftCore__become_pre_candidate&#45;&gt;ProgressTracker__reset_votes -->
<g id="edge18" class="edge">
<title>RaftCore__become_pre_candidate&#45;&gt;ProgressTracker__reset_votes</title>
<path fill="none" stroke="#666666" d="M1247.25,-737.08C1266.49,-731.74 1285.91,-726.35 1304.1,-721.3"/>
<polygon fill="#666666" stroke="#666666" points="1305.08,-724.66 1313.78,-718.61 1303.2,-717.91 1305.08,-724.66"/>
</g>
<!-- RaftCore__become_candidate&#45;&gt;RaftCore__state -->
<g id="edge22" class="edge">
<title>RaftCore__become_candidate&#45;&gt;RaftCore__state</title>
<path fill="none" stroke="#666666" d="M1216.02,-842.94C1256.22,-832.62 1300.88,-821.16 1335.78,-812.21"/>
<polygon fill="#666666" stroke="#666666" points="1337.01,-815.51 1345.82,-809.63 1335.27,-808.73 1337.01,-815.51"/>
</g>
<!-- RaftCore__reset -->
<g id="node22" class="node">
<title>RaftCore__reset</title>
<path fill="none" stroke="#1c2123" d="M1438.5,-892.5C1438.5,-892.5 1357.5,-892.5 1357.5,-892.5 1351.5,-892.5 1345.5,-886.5 1345.5,-880.5 1345.5,-880.5 1345.5,-868.5 1345.5,-868.5 1345.5,-862.5 1351.5,-856.5 1357.5,-856.5 1357.5,-856.5 1438.5,-856.5 1438.5,-856.5 1444.5,-856.5 1450.5,-862.5 1450.5,-868.5 1450.5,-868.5 1450.5,-880.5 1450.5,-880.5 1450.5,-886.5 1444.5,-892.5 1438.5,-892.5"/>
<text text-anchor="middle" x="1398" y="-870.8" font-family="Times,serif" font-size="14.00" fill="#2f3638">RaftCore__reset</text>
</g>
<!-- RaftCore__become_candidate&#45;&gt;RaftCore__reset -->
<g id="edge23" class="edge">
<title>RaftCore__become_candidate&#45;&gt;RaftCore__reset</title>
<path fill="none" stroke="#666666" d="M1216.02,-871.32C1256.07,-872.02 1300.56,-872.81 1335.41,-873.42"/>
<polygon fill="#666666" stroke="#666666" points="1335.37,-876.92 1345.43,-873.59 1335.49,-869.92 1335.37,-876.92"/>
</g>
<!-- ProgressTracker_conf_voters&#45;&gt;RaftCore__send -->
<g id="edge35" class="edge">
<title>ProgressTracker_conf_voters&#45;&gt;RaftCore__send</title>
<path fill="none" stroke="green" stroke-dasharray="5,2" d="M1203.3,-514.8C1238.23,-517.99 1277.94,-521.62 1312.28,-524.76"/>
<polygon fill="green" stroke="green" points="1312,-528.25 1322.28,-525.67 1312.64,-521.28 1312,-528.25"/>
</g>
<!-- ProgressTracker__record_vote -->
<g id="node19" class="node">
<title>ProgressTracker__record_vote</title>
<path fill="none" stroke="#1c2123" d="M1318.5,-130.5C1318.5,-130.5 1477.5,-130.5 1477.5,-130.5 1483.5,-130.5 1489.5,-136.5 1489.5,-142.5 1489.5,-142.5 1489.5,-164.5 1489.5,-164.5 1489.5,-170.5 1483.5,-176.5 1477.5,-176.5 1477.5,-176.5 1318.5,-176.5 1318.5,-176.5 1312.5,-176.5 1306.5,-170.5 1306.5,-164.5 1306.5,-164.5 1306.5,-142.5 1306.5,-142.5 1306.5,-136.5 1312.5,-130.5 1318.5,-130.5"/>
<text text-anchor="middle" x="1398" y="-161.3" font-family="Times,serif" font-size="14.00" fill="#2f3638">ProgressTracker__record_vote</text>
<polyline fill="none" stroke="#1c2123" points="1306.5,-153.5 1489.5,-153.5 "/>
<text text-anchor="start" x="1314.5" y="-138.3" font-family="Times,serif" font-size="14.00" fill="#2f3638">先给自己记上一票</text>
</g>
<!-- RaftCore__poll&#45;&gt;ProgressTracker__record_vote -->
<g id="edge26" class="edge">
<title>RaftCore__poll&#45;&gt;ProgressTracker__record_vote</title>
<path fill="none" stroke="#666666" d="M1192.51,-179.38C1224.74,-175.3 1262.29,-170.55 1296.35,-166.24"/>
<polygon fill="#666666" stroke="#666666" points="1296.84,-169.7 1306.32,-164.97 1295.96,-162.76 1296.84,-169.7"/>
</g>
<!-- ProgressTracker__tally_votes -->
<g id="node20" class="node">
<title>ProgressTracker__tally_votes</title>
<path fill="none" stroke="#1c2123" d="M1321,-276C1321,-276 1475,-276 1475,-276 1481,-276 1487,-282 1487,-288 1487,-288 1487,-325 1487,-325 1487,-331 1481,-337 1475,-337 1475,-337 1321,-337 1321,-337 1315,-337 1309,-331 1309,-325 1309,-325 1309,-288 1309,-288 1309,-282 1315,-276 1321,-276"/>
<text text-anchor="middle" x="1398" y="-321.8" font-family="Times,serif" font-size="14.00" fill="#2f3638">ProgressTracker__tally_votes</text>
<polyline fill="none" stroke="#1c2123" points="1309,-314 1487,-314 "/>
<text text-anchor="start" x="1317" y="-298.8" font-family="Times,serif" font-size="14.00" fill="#2f3638">统计选票看自己</text>
<text text-anchor="start" x="1317" y="-283.8" font-family="Times,serif" font-size="14.00" fill="#2f3638"> 是否已win</text>
</g>
<!-- RaftCore__poll&#45;&gt;ProgressTracker__tally_votes -->
<g id="edge27" class="edge">
<title>RaftCore__poll&#45;&gt;ProgressTracker__tally_votes</title>
<path fill="none" stroke="#666666" d="M1192.54,-227.37C1220.89,-240.33 1253.15,-254.55 1283,-266.5 1288.36,-268.65 1293.89,-270.8 1299.49,-272.92"/>
<polygon fill="#666666" stroke="#666666" points="1298.37,-276.24 1308.96,-276.47 1300.82,-269.68 1298.37,-276.24"/>
</g>
<!-- win_pre_election -->
<g id="node24" class="node">
<title>win_pre_election</title>
<path fill="#79d8ce" stroke="#60b5ac" d="M1347,-356.5C1347,-356.5 1449,-356.5 1449,-356.5 1455,-356.5 1461,-362.5 1461,-368.5 1461,-368.5 1461,-382.5 1461,-382.5 1461,-388.5 1455,-394.5 1449,-394.5 1449,-394.5 1347,-394.5 1347,-394.5 1341,-394.5 1335,-388.5 1335,-382.5 1335,-382.5 1335,-368.5 1335,-368.5 1335,-362.5 1341,-356.5 1347,-356.5"/>
<text text-anchor="start" x="1343" y="-379.3" font-family="Times,serif" font-size="14.00" fill="#5d6179">赢得了PreElection </text>
<text text-anchor="start" x="1343" y="-364.3" font-family="Times,serif" font-size="14.00" fill="#5d6179"> 发起真正election</text>
</g>
<!-- RaftCore__poll&#45;&gt;win_pre_election -->
<g id="edge28" class="edge">
<title>RaftCore__poll&#45;&gt;win_pre_election</title>
<path fill="none" stroke="#666666" d="M1192.77,-243.27C1211.63,-257.76 1230.91,-274.25 1247,-291.5 1266.93,-312.86 1259.23,-329.52 1283,-346.5 1295.41,-355.36 1310.27,-361.52 1325.1,-365.8"/>
<polygon fill="#666666" stroke="#666666" points="1324.26,-369.19 1334.82,-368.35 1326.04,-362.42 1324.26,-369.19"/>
</g>
<!-- RaftCore__become_leader -->
<g id="node25" class="node">
<title>RaftCore__become_leader</title>
<path fill="none" stroke="#1c2123" d="M1328,-65.5C1328,-65.5 1468,-65.5 1468,-65.5 1474,-65.5 1480,-71.5 1480,-77.5 1480,-77.5 1480,-99.5 1480,-99.5 1480,-105.5 1474,-111.5 1468,-111.5 1468,-111.5 1328,-111.5 1328,-111.5 1322,-111.5 1316,-105.5 1316,-99.5 1316,-99.5 1316,-77.5 1316,-77.5 1316,-71.5 1322,-65.5 1328,-65.5"/>
<text text-anchor="middle" x="1398" y="-96.3" font-family="Times,serif" font-size="14.00" fill="#2f3638">RaftCore__become_leader</text>
<polyline fill="none" stroke="#1c2123" points="1316,-88.5 1480,-88.5 "/>
<text text-anchor="start" x="1324" y="-73.3" font-family="Times,serif" font-size="14.00" fill="#2f3638">赢得了选举，成为leader</text>
</g>
<!-- RaftCore__poll&#45;&gt;RaftCore__become_leader -->
<g id="edge29" class="edge">
<title>RaftCore__poll&#45;&gt;RaftCore__become_leader</title>
<path fill="none" stroke="#666666" d="M1192.9,-154.83C1221.13,-143.22 1253.23,-130.67 1283,-120.5 1290.47,-117.95 1298.26,-115.44 1306.11,-113.03"/>
<polygon fill="#666666" stroke="#666666" points="1307.14,-116.37 1315.7,-110.13 1305.11,-109.67 1307.14,-116.37"/>
</g>
<!-- RaftCore__become_follower -->
<g id="node26" class="node">
<title>RaftCore__become_follower</title>
<path fill="none" stroke="#1c2123" d="M1322.5,-0.5C1322.5,-0.5 1473.5,-0.5 1473.5,-0.5 1479.5,-0.5 1485.5,-6.5 1485.5,-12.5 1485.5,-12.5 1485.5,-34.5 1485.5,-34.5 1485.5,-40.5 1479.5,-46.5 1473.5,-46.5 1473.5,-46.5 1322.5,-46.5 1322.5,-46.5 1316.5,-46.5 1310.5,-40.5 1310.5,-34.5 1310.5,-34.5 1310.5,-12.5 1310.5,-12.5 1310.5,-6.5 1316.5,-0.5 1322.5,-0.5"/>
<text text-anchor="middle" x="1398" y="-31.3" font-family="Times,serif" font-size="14.00" fill="#2f3638">RaftCore__become_follower</text>
<polyline fill="none" stroke="#1c2123" points="1310.5,-23.5 1485.5,-23.5 "/>
<text text-anchor="start" x="1318.5" y="-8.3" font-family="Times,serif" font-size="14.00" fill="#2f3638">选举失败，成为follower</text>
</g>
<!-- RaftCore__poll&#45;&gt;RaftCore__become_follower -->
<g id="edge30" class="edge">
<title>RaftCore__poll&#45;&gt;RaftCore__become_follower</title>
<path fill="none" stroke="#666666" d="M1192.58,-116.03C1219.74,-94.08 1251.28,-71.61 1283,-55.5 1288.65,-52.63 1294.6,-49.99 1300.69,-47.56"/>
<polygon fill="#666666" stroke="#666666" points="1302.22,-50.72 1310.34,-43.91 1299.75,-44.17 1302.22,-50.72"/>
</g>
<!-- RaftCore__bcast_append -->
<g id="node27" class="node">
<title>RaftCore__bcast_append</title>
<path fill="none" stroke="#1c2123" d="M1295,-196C1295,-196 1501,-196 1501,-196 1507,-196 1513,-202 1513,-208 1513,-208 1513,-245 1513,-245 1513,-251 1507,-257 1501,-257 1501,-257 1295,-257 1295,-257 1289,-257 1283,-251 1283,-245 1283,-245 1283,-208 1283,-208 1283,-202 1289,-196 1295,-196"/>
<text text-anchor="middle" x="1398" y="-241.8" font-family="Times,serif" font-size="14.00" fill="#2f3638">RaftCore__bcast_append</text>
<polyline fill="none" stroke="#1c2123" points="1283,-234 1513,-234 "/>
<text text-anchor="start" x="1291" y="-218.8" font-family="Times,serif" font-size="14.00" fill="#2f3638">成为leader后，</text>
<text text-anchor="start" x="1291" y="-203.8" font-family="Times,serif" font-size="14.00" fill="#2f3638"> 开始向所有follower发送appendMsg</text>
</g>
<!-- RaftCore__poll&#45;&gt;RaftCore__bcast_append -->
<g id="edge31" class="edge">
<title>RaftCore__poll&#45;&gt;RaftCore__bcast_append</title>
<path fill="none" stroke="#666666" d="M1192.51,-199.91C1217.46,-203.15 1245.6,-206.81 1272.85,-210.35"/>
<polygon fill="#666666" stroke="#666666" points="1272.47,-213.83 1282.83,-211.65 1273.37,-206.89 1272.47,-213.83"/>
</g>
<!-- VoteMsg&#45;&gt;RaftCore__send -->
<g id="edge36" class="edge">
<title>VoteMsg&#45;&gt;RaftCore__send</title>
<path fill="none" stroke="green" stroke-dasharray="5,2" d="M1233.57,-456.1C1263.6,-470.14 1294.92,-484.78 1322.02,-497.45"/>
<polygon fill="green" stroke="green" points="1320.87,-500.77 1331.41,-501.84 1323.84,-494.43 1320.87,-500.77"/>
</g>
<!-- PreVoteMsg&#45;&gt;RaftCore__send -->
<g id="edge37" class="edge">
<title>PreVoteMsg&#45;&gt;RaftCore__send</title>
<path fill="none" stroke="green" stroke-dasharray="5,2" d="M1233.57,-601.44C1261.18,-589.79 1289.88,-577.68 1315.38,-566.93"/>
<polygon fill="green" stroke="green" points="1316.77,-570.14 1324.63,-563.03 1314.05,-563.69 1316.77,-570.14"/>
</g>
<!-- ProgressTracker__votes -->
<g id="node21" class="node">
<title>ProgressTracker__votes</title>
<path fill="#feed9b" stroke="#f7e495" d="M1609.5,-283.5C1609.5,-283.5 1763.5,-283.5 1763.5,-283.5 1769.5,-283.5 1775.5,-289.5 1775.5,-295.5 1775.5,-295.5 1775.5,-317.5 1775.5,-317.5 1775.5,-323.5 1769.5,-329.5 1763.5,-329.5 1763.5,-329.5 1609.5,-329.5 1609.5,-329.5 1603.5,-329.5 1597.5,-323.5 1597.5,-317.5 1597.5,-317.5 1597.5,-295.5 1597.5,-295.5 1597.5,-289.5 1603.5,-283.5 1609.5,-283.5"/>
<text text-anchor="middle" x="1686.5" y="-314.3" font-family="Times,serif" font-size="14.00" fill="#40575d">ProgressTracker__votes</text>
<polyline fill="none" stroke="#f7e495" points="1597.5,-306.5 1775.5,-306.5 "/>
<text text-anchor="start" x="1605.5" y="-291.3" font-family="Times,serif" font-size="14.00" fill="#40575d">votes: HashMap&lt;u64, bool&gt;,</text>
</g>
<!-- ProgressTracker__reset_votes&#45;&gt;ProgressTracker__votes -->
<g id="edge20" class="edge">
<title>ProgressTracker__reset_votes&#45;&gt;ProgressTracker__votes</title>
<path fill="none" stroke="#666666" d="M1423,-672.09C1447.01,-648.12 1484.39,-609.26 1513,-572.5 1575.22,-492.56 1637.13,-390.08 1667.02,-338.78"/>
<polygon fill="#666666" stroke="#666666" points="1670.23,-340.23 1672.22,-329.82 1664.18,-336.71 1670.23,-340.23"/>
</g>
<!-- ProgressTracker__record_vote&#45;&gt;ProgressTracker__votes -->
<g id="edge21" class="edge">
<title>ProgressTracker__record_vote&#45;&gt;ProgressTracker__votes</title>
<path fill="none" stroke="#666666" d="M1489.03,-176.54C1497.27,-179.55 1505.37,-182.87 1513,-186.5 1564.16,-210.88 1616.74,-249.86 1650.19,-276.74"/>
<polygon fill="#666666" stroke="#666666" points="1648.3,-279.71 1658.27,-283.3 1652.71,-274.28 1648.3,-279.71"/>
</g>
<!-- ProgressTracker__tally_votes&#45;&gt;ProgressTracker__votes -->
<g id="edge19" class="edge">
<title>ProgressTracker__tally_votes&#45;&gt;ProgressTracker__votes</title>
<path fill="none" stroke="#666666" d="M1487.3,-306.5C1518.9,-306.5 1554.7,-306.5 1587.1,-306.5"/>
<polygon fill="#666666" stroke="#666666" points="1587.49,-310 1597.49,-306.5 1587.49,-303 1587.49,-310"/>
</g>
<!-- RaftCore__reset_randomized_election_timeout -->
<g id="node23" class="node">
<title>RaftCore__reset_randomized_election_timeout</title>
<path fill="none" stroke="#1c2123" d="M1812,-902.5C1812,-902.5 1561,-902.5 1561,-902.5 1555,-902.5 1549,-896.5 1549,-890.5 1549,-890.5 1549,-878.5 1549,-878.5 1549,-872.5 1555,-866.5 1561,-866.5 1561,-866.5 1812,-866.5 1812,-866.5 1818,-866.5 1824,-872.5 1824,-878.5 1824,-878.5 1824,-890.5 1824,-890.5 1824,-896.5 1818,-902.5 1812,-902.5"/>
<text text-anchor="middle" x="1686.5" y="-880.8" font-family="Times,serif" font-size="14.00" fill="#2f3638">RaftCore__reset_randomized_election_timeout</text>
</g>
<!-- RaftCore__reset&#45;&gt;RaftCore__reset_randomized_election_timeout -->
<g id="edge24" class="edge">
<title>RaftCore__reset&#45;&gt;RaftCore__reset_randomized_election_timeout</title>
<path fill="none" stroke="#666666" d="M1450.55,-876.3C1475.56,-877.17 1506.99,-878.27 1538.66,-879.37"/>
<polygon fill="#666666" stroke="#666666" points="1538.82,-882.88 1548.94,-879.73 1539.07,-875.89 1538.82,-882.88"/>
</g>
<!-- RaftCore__reset_randomized_election_timeout&#45;&gt;RaftCore__randomized_election_timeout -->
<g id="edge25" class="edge">
<title>RaftCore__reset_randomized_election_timeout&#45;&gt;RaftCore__randomized_election_timeout</title>
<path fill="none" stroke="#666666" d="M1824.33,-899.94C1832.88,-900.9 1841.47,-901.87 1849.99,-902.83"/>
<polygon fill="#666666" stroke="#666666" points="1849.62,-906.31 1859.95,-903.96 1850.4,-899.36 1849.62,-906.31"/>
</g>
<!-- win_pre_election&#45;&gt;RaftCore__campain -->
<g id="edge32" class="edge">
<title>win_pre_election&#45;&gt;RaftCore__campain</title>
<path fill="none" stroke="#666666" d="M1334.96,-363.29C1317.78,-358.96 1299.37,-353.4 1283,-346.5 1265.72,-339.22 1265.05,-329.58 1247,-324.5 1131.06,-291.88 1079.09,-262.22 976,-324.5 909.43,-364.71 877.1,-454.22 862.84,-510.14"/>
<polygon fill="#666666" stroke="#666666" points="859.37,-509.62 860.39,-520.17 866.17,-511.29 859.37,-509.62"/>
</g>
</g>
</svg>
