<?xml version="1.0" encoding="UTF-8" standalone="no"?>
<!DOCTYPE svg PUBLIC "-//W3C//DTD SVG 1.1//EN"
 "http://www.w3.org/Graphics/SVG/1.1/DTD/svg11.dtd">
<!-- Generated by graphviz version 2.44.1 (20200629.0846)
 -->
<!-- Title: Raft_step Pages: 1 -->
<svg width="1312pt" height="1820pt"
 viewBox="0.00 0.00 1312.00 1820.00" xmlns="http://www.w3.org/2000/svg" xmlns:xlink="http://www.w3.org/1999/xlink">
<g id="graph0" class="graph" transform="scale(1 1) rotate(0) translate(4 1816)">
<title>Raft_step</title>
<polygon fill="white" stroke="transparent" points="-4,4 -4,-1816 1308,-1816 1308,4 -4,4"/>
<!-- step -->
<g id="node1" class="node">
<title>step</title>
<path fill="none" stroke="#1c2123" d="M89.5,-1343C89.5,-1343 59.5,-1343 59.5,-1343 53.5,-1343 47.5,-1337 47.5,-1331 47.5,-1331 47.5,-1319 47.5,-1319 47.5,-1313 53.5,-1307 59.5,-1307 59.5,-1307 89.5,-1307 89.5,-1307 95.5,-1307 101.5,-1313 101.5,-1319 101.5,-1319 101.5,-1331 101.5,-1331 101.5,-1337 95.5,-1343 89.5,-1343"/>
<text text-anchor="middle" x="74.5" y="-1321.3" font-family="Times,serif" font-size="14.00" fill="#2f3638">step</text>
</g>
<!-- get_msg_type -->
<g id="node2" class="node">
<title>get_msg_type</title>
<path fill="none" stroke="#1c2123" d="M284,-1812C284,-1812 215,-1812 215,-1812 209,-1812 203,-1806 203,-1800 203,-1800 203,-1788 203,-1788 203,-1782 209,-1776 215,-1776 215,-1776 284,-1776 284,-1776 290,-1776 296,-1782 296,-1788 296,-1788 296,-1800 296,-1800 296,-1806 290,-1812 284,-1812"/>
<text text-anchor="middle" x="249.5" y="-1790.3" font-family="Times,serif" font-size="14.00" fill="#2f3638">get_msg_type</text>
</g>
<!-- step&#45;&gt;get_msg_type -->
<g id="edge1" class="edge">
<title>step&#45;&gt;get_msg_type</title>
<path fill="none" stroke="#666666" d="M101.79,-1328C118.05,-1331.31 137.88,-1338.29 149,-1353 204.02,-1425.78 133.79,-1686.49 185,-1762 187.6,-1765.84 190.81,-1769.24 194.39,-1772.25"/>
<polygon fill="#666666" stroke="#666666" points="192.56,-1775.25 202.72,-1778.23 196.64,-1769.56 192.56,-1775.25"/>
</g>
<!-- become_follower -->
<g id="node3" class="node">
<title>become_follower</title>
<path fill="none" stroke="#1c2123" d="M692,-336C692,-336 604,-336 604,-336 598,-336 592,-330 592,-324 592,-324 592,-312 592,-312 592,-306 598,-300 604,-300 604,-300 692,-300 692,-300 698,-300 704,-306 704,-312 704,-312 704,-324 704,-324 704,-330 698,-336 692,-336"/>
<text text-anchor="middle" x="648" y="-314.3" font-family="Times,serif" font-size="14.00" fill="#2f3638">become_follower</text>
</g>
<!-- step&#45;&gt;become_follower -->
<g id="edge2" class="edge">
<title>step&#45;&gt;become_follower</title>
<path fill="none" stroke="#666666" d="M75.88,-1306.79C78.4,-1200.5 95.52,-660.28 185,-526 272.53,-394.64 368.12,-450.86 506,-374 523.95,-364 523.63,-354.21 542,-345 554.46,-338.75 568.49,-333.86 582.14,-330.06"/>
<polygon fill="#666666" stroke="#666666" points="583.2,-333.4 591.99,-327.49 581.43,-326.63 583.2,-333.4"/>
</g>
<!-- log_vote_approve -->
<g id="node4" class="node">
<title>log_vote_approve</title>
<path fill="none" stroke="#1c2123" d="M294.5,-1505C294.5,-1505 204.5,-1505 204.5,-1505 198.5,-1505 192.5,-1499 192.5,-1493 192.5,-1493 192.5,-1481 192.5,-1481 192.5,-1475 198.5,-1469 204.5,-1469 204.5,-1469 294.5,-1469 294.5,-1469 300.5,-1469 306.5,-1475 306.5,-1481 306.5,-1481 306.5,-1493 306.5,-1493 306.5,-1499 300.5,-1505 294.5,-1505"/>
<text text-anchor="middle" x="249.5" y="-1483.3" font-family="Times,serif" font-size="14.00" fill="#2f3638">log_vote_approve</text>
</g>
<!-- step&#45;&gt;log_vote_approve -->
<g id="edge3" class="edge">
<title>step&#45;&gt;log_vote_approve</title>
<path fill="none" stroke="#666666" d="M101.74,-1329.2C117.36,-1332.97 136.51,-1340.01 149,-1353 183.77,-1389.17 150.92,-1423.17 185,-1460 185.77,-1460.84 186.58,-1461.65 187.41,-1462.43"/>
<polygon fill="#666666" stroke="#666666" points="185.5,-1465.39 195.51,-1468.88 189.86,-1459.91 185.5,-1465.39"/>
</g>
<!-- vote_resp_msg_type -->
<g id="node5" class="node">
<title>vote_resp_msg_type</title>
<path fill="none" stroke="#1c2123" d="M302,-1451C302,-1451 197,-1451 197,-1451 191,-1451 185,-1445 185,-1439 185,-1439 185,-1427 185,-1427 185,-1421 191,-1415 197,-1415 197,-1415 302,-1415 302,-1415 308,-1415 314,-1421 314,-1427 314,-1427 314,-1439 314,-1439 314,-1445 308,-1451 302,-1451"/>
<text text-anchor="middle" x="249.5" y="-1429.3" font-family="Times,serif" font-size="14.00" fill="#2f3638">vote_resp_msg_type</text>
</g>
<!-- step&#45;&gt;vote_resp_msg_type -->
<g id="edge4" class="edge">
<title>step&#45;&gt;vote_resp_msg_type</title>
<path fill="none" stroke="#666666" d="M101.62,-1330.77C116.63,-1335.05 135.18,-1342.07 149,-1353 171.34,-1370.66 163,-1387.92 185,-1406 186.37,-1407.12 187.79,-1408.21 189.25,-1409.25"/>
<polygon fill="#666666" stroke="#666666" points="187.72,-1412.42 198.04,-1414.82 191.47,-1406.51 187.72,-1412.42"/>
</g>
<!-- log_vote_reject -->
<g id="node6" class="node">
<title>log_vote_reject</title>
<path fill="none" stroke="#1c2123" d="M288,-1397C288,-1397 211,-1397 211,-1397 205,-1397 199,-1391 199,-1385 199,-1385 199,-1373 199,-1373 199,-1367 205,-1361 211,-1361 211,-1361 288,-1361 288,-1361 294,-1361 300,-1367 300,-1373 300,-1373 300,-1385 300,-1385 300,-1391 294,-1397 288,-1397"/>
<text text-anchor="middle" x="249.5" y="-1375.3" font-family="Times,serif" font-size="14.00" fill="#2f3638">log_vote_reject</text>
</g>
<!-- step&#45;&gt;log_vote_reject -->
<g id="edge5" class="edge">
<title>step&#45;&gt;log_vote_reject</title>
<path fill="none" stroke="#666666" d="M101.77,-1333.2C124.87,-1340.41 159.35,-1351.17 189.08,-1360.45"/>
<polygon fill="#666666" stroke="#666666" points="188.37,-1363.9 198.95,-1363.53 190.45,-1357.21 188.37,-1363.9"/>
</g>
<!-- send -->
<g id="node7" class="node">
<title>send</title>
<path fill="none" stroke="#1c2123" d="M1074.5,-1444C1074.5,-1444 1044.5,-1444 1044.5,-1444 1038.5,-1444 1032.5,-1438 1032.5,-1432 1032.5,-1432 1032.5,-1420 1032.5,-1420 1032.5,-1414 1038.5,-1408 1044.5,-1408 1044.5,-1408 1074.5,-1408 1074.5,-1408 1080.5,-1408 1086.5,-1414 1086.5,-1420 1086.5,-1420 1086.5,-1432 1086.5,-1432 1086.5,-1438 1080.5,-1444 1074.5,-1444"/>
<text text-anchor="middle" x="1059.5" y="-1422.3" font-family="Times,serif" font-size="14.00" fill="#2f3638">send</text>
</g>
<!-- step&#45;&gt;send -->
<g id="edge6" class="edge">
<title>step&#45;&gt;send</title>
<path fill="none" stroke="#666666" d="M101.51,-1328.59C117.45,-1332.14 137.03,-1339.16 149,-1353 196.98,-1408.44 152.21,-1448.42 185,-1514 251.91,-1647.82 277.39,-1748 427,-1748 427,-1748 427,-1748 649,-1748 787.37,-1748 850.11,-1796.63 958,-1710 999.14,-1676.97 1037.86,-1519.59 1052.42,-1454.39"/>
<polygon fill="#666666" stroke="#666666" points="1055.89,-1454.91 1054.62,-1444.39 1049.05,-1453.41 1055.89,-1454.91"/>
</g>
<!-- maybe_commit_by_vote -->
<g id="node8" class="node">
<title>maybe_commit_by_vote</title>
<path fill="none" stroke="#1c2123" d="M492.5,-474C492.5,-474 363.5,-474 363.5,-474 357.5,-474 351.5,-468 351.5,-462 351.5,-462 351.5,-450 351.5,-450 351.5,-444 357.5,-438 363.5,-438 363.5,-438 492.5,-438 492.5,-438 498.5,-438 504.5,-444 504.5,-450 504.5,-450 504.5,-462 504.5,-462 504.5,-468 498.5,-474 492.5,-474"/>
<text text-anchor="middle" x="428" y="-452.3" font-family="Times,serif" font-size="14.00" fill="#2f3638">maybe_commit_by_vote</text>
</g>
<!-- step&#45;&gt;maybe_commit_by_vote -->
<g id="edge7" class="edge">
<title>step&#45;&gt;maybe_commit_by_vote</title>
<path fill="none" stroke="#666666" d="M75.38,-1306.79C75.75,-1207.71 90.9,-728.94 348.55,-481.14"/>
<polygon fill="#666666" stroke="#666666" points="350.99,-483.65 355.85,-474.24 346.18,-478.56 350.99,-483.65"/>
</g>
<!-- is_up_to_date -->
<g id="node9" class="node">
<title>is_up_to_date</title>
<path fill="none" stroke="#1c2123" d="M283.5,-960C283.5,-960 215.5,-960 215.5,-960 209.5,-960 203.5,-954 203.5,-948 203.5,-948 203.5,-936 203.5,-936 203.5,-930 209.5,-924 215.5,-924 215.5,-924 283.5,-924 283.5,-924 289.5,-924 295.5,-930 295.5,-936 295.5,-936 295.5,-948 295.5,-948 295.5,-954 289.5,-960 283.5,-960"/>
<text text-anchor="middle" x="249.5" y="-938.3" font-family="Times,serif" font-size="14.00" fill="#2f3638">is_up_to_date</text>
</g>
<!-- step&#45;&gt;is_up_to_date -->
<g id="edge8" class="edge">
<title>step&#45;&gt;is_up_to_date</title>
<path fill="none" stroke="#666666" d="M75.93,-1306.9C78.22,-1249.82 92.78,-1071.31 185,-969 187.84,-965.85 191.11,-963.05 194.64,-960.57"/>
<polygon fill="#666666" stroke="#666666" points="196.53,-963.52 203.26,-955.34 192.9,-957.54 196.53,-963.52"/>
</g>
<!-- step_follower -->
<g id="node10" class="node">
<title>step_follower</title>
<path fill="none" stroke="#1c2123" d="M283,-1343C283,-1343 216,-1343 216,-1343 210,-1343 204,-1337 204,-1331 204,-1331 204,-1319 204,-1319 204,-1313 210,-1307 216,-1307 216,-1307 283,-1307 283,-1307 289,-1307 295,-1313 295,-1319 295,-1319 295,-1331 295,-1331 295,-1337 289,-1343 283,-1343"/>
<text text-anchor="middle" x="249.5" y="-1321.3" font-family="Times,serif" font-size="14.00" fill="#2f3638">step_follower</text>
</g>
<!-- step&#45;&gt;step_follower -->
<g id="edge9" class="edge">
<title>step&#45;&gt;step_follower</title>
<path fill="none" stroke="#666666" d="M101.77,-1325C126.06,-1325 162.93,-1325 193.63,-1325"/>
<polygon fill="#666666" stroke="#666666" points="193.78,-1328.5 203.78,-1325 193.78,-1321.5 193.78,-1328.5"/>
</g>
<!-- step_leader -->
<g id="node11" class="node">
<title>step_leader</title>
<path fill="none" stroke="#1c2123" d="M276.5,-263C276.5,-263 222.5,-263 222.5,-263 216.5,-263 210.5,-257 210.5,-251 210.5,-251 210.5,-239 210.5,-239 210.5,-233 216.5,-227 222.5,-227 222.5,-227 276.5,-227 276.5,-227 282.5,-227 288.5,-233 288.5,-239 288.5,-239 288.5,-251 288.5,-251 288.5,-257 282.5,-263 276.5,-263"/>
<text text-anchor="middle" x="249.5" y="-241.3" font-family="Times,serif" font-size="14.00" fill="#2f3638">step_leader</text>
</g>
<!-- step&#45;&gt;step_leader -->
<g id="edge10" class="edge">
<title>step&#45;&gt;step_leader</title>
<path fill="none" stroke="#666666" d="M75.76,-1306.94C77.5,-1211.22 90.63,-754.05 185,-396 196.85,-351.03 219.47,-301.91 234.27,-272.28"/>
<polygon fill="#666666" stroke="#666666" points="237.56,-273.51 238.96,-263.01 231.32,-270.35 237.56,-273.51"/>
</g>
<!-- step_candidate -->
<g id="node12" class="node">
<title>step_candidate</title>
<path fill="none" stroke="#1c2123" d="M286,-1014C286,-1014 213,-1014 213,-1014 207,-1014 201,-1008 201,-1002 201,-1002 201,-990 201,-990 201,-984 207,-978 213,-978 213,-978 286,-978 286,-978 292,-978 298,-984 298,-990 298,-990 298,-1002 298,-1002 298,-1008 292,-1014 286,-1014"/>
<text text-anchor="middle" x="249.5" y="-992.3" font-family="Times,serif" font-size="14.00" fill="#2f3638">step_candidate</text>
</g>
<!-- step&#45;&gt;step_candidate -->
<g id="edge11" class="edge">
<title>step&#45;&gt;step_candidate</title>
<path fill="none" stroke="#666666" d="M85.05,-1306.84C113.82,-1252.13 199.8,-1088.62 234.12,-1023.35"/>
<polygon fill="#666666" stroke="#666666" points="237.43,-1024.58 238.98,-1014.1 231.23,-1021.32 237.43,-1024.58"/>
</g>
<!-- step_follower&#45;&gt;send -->
<g id="edge34" class="edge">
<title>step_follower&#45;&gt;send</title>
<path fill="none" stroke="#666666" d="M295.31,-1341.57C301.79,-1344.66 308.21,-1348.15 314,-1352 332.58,-1364.35 332.44,-1373.23 350,-1387 429.19,-1449.09 445.27,-1479.26 542,-1507 718.45,-1557.61 938.46,-1477.7 1023.08,-1441.91"/>
<polygon fill="#666666" stroke="#666666" points="1024.67,-1445.04 1032.48,-1437.88 1021.91,-1438.6 1024.67,-1445.04"/>
</g>
<!-- handle_append_entries -->
<g id="node28" class="node">
<title>handle_append_entries</title>
<path fill="none" stroke="#1c2123" d="M486.5,-1014C486.5,-1014 369.5,-1014 369.5,-1014 363.5,-1014 357.5,-1008 357.5,-1002 357.5,-1002 357.5,-990 357.5,-990 357.5,-984 363.5,-978 369.5,-978 369.5,-978 486.5,-978 486.5,-978 492.5,-978 498.5,-984 498.5,-990 498.5,-990 498.5,-1002 498.5,-1002 498.5,-1008 492.5,-1014 486.5,-1014"/>
<text text-anchor="middle" x="428" y="-992.3" font-family="Times,serif" font-size="14.00" fill="#2f3638">handle_append_entries</text>
</g>
<!-- step_follower&#45;&gt;handle_append_entries -->
<g id="edge35" class="edge">
<title>step_follower&#45;&gt;handle_append_entries</title>
<path fill="none" stroke="#666666" d="M260.24,-1306.84C289.65,-1252.02 377.67,-1087.95 412.54,-1022.95"/>
<polygon fill="#666666" stroke="#666666" points="415.65,-1024.57 417.29,-1014.1 409.48,-1021.26 415.65,-1024.57"/>
</g>
<!-- handle_snapshot -->
<g id="node30" class="node">
<title>handle_snapshot</title>
<path fill="none" stroke="#1c2123" d="M469.5,-1378C469.5,-1378 386.5,-1378 386.5,-1378 380.5,-1378 374.5,-1372 374.5,-1366 374.5,-1366 374.5,-1354 374.5,-1354 374.5,-1348 380.5,-1342 386.5,-1342 386.5,-1342 469.5,-1342 469.5,-1342 475.5,-1342 481.5,-1348 481.5,-1354 481.5,-1354 481.5,-1366 481.5,-1366 481.5,-1372 475.5,-1378 469.5,-1378"/>
<text text-anchor="middle" x="428" y="-1356.3" font-family="Times,serif" font-size="14.00" fill="#2f3638">handle_snapshot</text>
</g>
<!-- step_follower&#45;&gt;handle_snapshot -->
<g id="edge36" class="edge">
<title>step_follower&#45;&gt;handle_snapshot</title>
<path fill="none" stroke="#666666" d="M295.04,-1333.83C316.03,-1338 341.44,-1343.03 364.34,-1347.57"/>
<polygon fill="#666666" stroke="#666666" points="363.82,-1351.04 374.31,-1349.55 365.18,-1344.17 363.82,-1351.04"/>
</g>
<!-- handle_heartbeat -->
<g id="node31" class="node">
<title>handle_heartbeat</title>
<path fill="none" stroke="#1c2123" d="M470.5,-1590C470.5,-1590 385.5,-1590 385.5,-1590 379.5,-1590 373.5,-1584 373.5,-1578 373.5,-1578 373.5,-1566 373.5,-1566 373.5,-1560 379.5,-1554 385.5,-1554 385.5,-1554 470.5,-1554 470.5,-1554 476.5,-1554 482.5,-1560 482.5,-1566 482.5,-1566 482.5,-1578 482.5,-1578 482.5,-1584 476.5,-1590 470.5,-1590"/>
<text text-anchor="middle" x="428" y="-1568.3" font-family="Times,serif" font-size="14.00" fill="#2f3638">handle_heartbeat</text>
</g>
<!-- step_follower&#45;&gt;handle_heartbeat -->
<g id="edge37" class="edge">
<title>step_follower&#45;&gt;handle_heartbeat</title>
<path fill="none" stroke="#666666" d="M295.31,-1337.37C302.41,-1341.07 309.03,-1345.85 314,-1352 367.43,-1418.21 296.3,-1474.01 350,-1540 354.08,-1545.01 359.07,-1549.25 364.54,-1552.83"/>
<polygon fill="#666666" stroke="#666666" points="363.05,-1556 373.46,-1557.93 366.52,-1549.93 363.05,-1556"/>
</g>
<!-- hup -->
<g id="node32" class="node">
<title>hup</title>
<path fill="none" stroke="#1c2123" d="M443,-1698C443,-1698 413,-1698 413,-1698 407,-1698 401,-1692 401,-1686 401,-1686 401,-1674 401,-1674 401,-1668 407,-1662 413,-1662 413,-1662 443,-1662 443,-1662 449,-1662 455,-1668 455,-1674 455,-1674 455,-1686 455,-1686 455,-1692 449,-1698 443,-1698"/>
<text text-anchor="middle" x="428" y="-1676.3" font-family="Times,serif" font-size="14.00" fill="#2f3638">hup</text>
</g>
<!-- step_follower&#45;&gt;hup -->
<g id="edge38" class="edge">
<title>step_follower&#45;&gt;hup</title>
<path fill="none" stroke="#666666" d="M295.03,-1336.76C302.34,-1340.53 309.11,-1345.49 314,-1352 394.88,-1459.75 265.67,-1547.92 350,-1653 359.94,-1665.39 375.95,-1672.1 390.79,-1675.74"/>
<polygon fill="#666666" stroke="#666666" points="390.3,-1679.21 400.8,-1677.8 391.71,-1672.35 390.3,-1679.21"/>
</g>
<!-- push -->
<g id="node33" class="node">
<title>push</title>
<path fill="none" stroke="#1c2123" d="M443,-1644C443,-1644 413,-1644 413,-1644 407,-1644 401,-1638 401,-1632 401,-1632 401,-1620 401,-1620 401,-1614 407,-1608 413,-1608 413,-1608 443,-1608 443,-1608 449,-1608 455,-1614 455,-1620 455,-1620 455,-1632 455,-1632 455,-1638 449,-1644 443,-1644"/>
<text text-anchor="middle" x="428" y="-1622.3" font-family="Times,serif" font-size="14.00" fill="#2f3638">push</text>
</g>
<!-- step_follower&#45;&gt;push -->
<g id="edge39" class="edge">
<title>step_follower&#45;&gt;push</title>
<path fill="none" stroke="#666666" d="M295.22,-1337.03C302.41,-1340.76 309.1,-1345.64 314,-1352 381.73,-1439.86 279.46,-1513.38 350,-1599 360.1,-1611.26 376.12,-1617.96 390.94,-1621.62"/>
<polygon fill="#666666" stroke="#666666" points="390.42,-1625.08 400.93,-1623.7 391.85,-1618.23 390.42,-1625.08"/>
</g>
<!-- maybe_commit -->
<g id="node34" class="node">
<title>maybe_commit</title>
<path fill="none" stroke="#1c2123" d="M687.5,-1298C687.5,-1298 608.5,-1298 608.5,-1298 602.5,-1298 596.5,-1292 596.5,-1286 596.5,-1286 596.5,-1274 596.5,-1274 596.5,-1268 602.5,-1262 608.5,-1262 608.5,-1262 687.5,-1262 687.5,-1262 693.5,-1262 699.5,-1268 699.5,-1274 699.5,-1274 699.5,-1286 699.5,-1286 699.5,-1292 693.5,-1298 687.5,-1298"/>
<text text-anchor="middle" x="648" y="-1276.3" font-family="Times,serif" font-size="14.00" fill="#2f3638">maybe_commit</text>
</g>
<!-- step_follower&#45;&gt;maybe_commit -->
<g id="edge40" class="edge">
<title>step_follower&#45;&gt;maybe_commit</title>
<path fill="none" stroke="#666666" d="M295.21,-1319.93C366.49,-1311.84 506,-1296 586.26,-1286.89"/>
<polygon fill="#666666" stroke="#666666" points="586.68,-1290.37 596.22,-1285.76 585.89,-1283.41 586.68,-1290.37"/>
</g>
<!-- step_leader&#45;&gt;become_follower -->
<g id="edge12" class="edge">
<title>step_leader&#45;&gt;become_follower</title>
<path fill="none" stroke="#666666" d="M260.49,-263.03C275.85,-288.67 307.97,-334.57 350,-353 413.5,-380.84 437.18,-361.41 506,-353 513.98,-352.02 548.94,-343.35 582.06,-334.88"/>
<polygon fill="#666666" stroke="#666666" points="582.97,-338.26 591.78,-332.39 581.23,-331.48 582.97,-338.26"/>
</g>
<!-- bcast_heartbeat -->
<g id="node13" class="node">
<title>bcast_heartbeat</title>
<path fill="none" stroke="#1c2123" d="M466.5,-36C466.5,-36 389.5,-36 389.5,-36 383.5,-36 377.5,-30 377.5,-24 377.5,-24 377.5,-12 377.5,-12 377.5,-6 383.5,0 389.5,0 389.5,0 466.5,0 466.5,0 472.5,0 478.5,-6 478.5,-12 478.5,-12 478.5,-24 478.5,-24 478.5,-30 472.5,-36 466.5,-36"/>
<text text-anchor="middle" x="428" y="-14.3" font-family="Times,serif" font-size="14.00" fill="#2f3638">bcast_heartbeat</text>
</g>
<!-- step_leader&#45;&gt;bcast_heartbeat -->
<g id="edge13" class="edge">
<title>step_leader&#45;&gt;bcast_heartbeat</title>
<path fill="none" stroke="#666666" d="M254.57,-226.97C264.25,-188.13 292.29,-95.95 350,-45 355.4,-40.23 361.7,-36.29 368.32,-33.04"/>
<polygon fill="#666666" stroke="#666666" points="369.74,-36.24 377.5,-29.02 366.93,-29.82 369.74,-36.24"/>
</g>
<!-- check_quorum_active -->
<g id="node14" class="node">
<title>check_quorum_active</title>
<path fill="none" stroke="#1c2123" d="M484.5,-344C484.5,-344 371.5,-344 371.5,-344 365.5,-344 359.5,-338 359.5,-332 359.5,-332 359.5,-320 359.5,-320 359.5,-314 365.5,-308 371.5,-308 371.5,-308 484.5,-308 484.5,-308 490.5,-308 496.5,-314 496.5,-320 496.5,-320 496.5,-332 496.5,-332 496.5,-338 490.5,-344 484.5,-344"/>
<text text-anchor="middle" x="428" y="-322.3" font-family="Times,serif" font-size="14.00" fill="#2f3638">check_quorum_active</text>
</g>
<!-- step_leader&#45;&gt;check_quorum_active -->
<g id="edge14" class="edge">
<title>step_leader&#45;&gt;check_quorum_active</title>
<path fill="none" stroke="#666666" d="M280.79,-263.08C300.18,-274.25 326.1,-288.41 350,-299 354.04,-300.79 358.25,-302.55 362.51,-304.25"/>
<polygon fill="#666666" stroke="#666666" points="361.31,-307.54 371.9,-307.89 363.83,-301.01 361.31,-307.54"/>
</g>
<!-- merge_from_bytes -->
<g id="node15" class="node">
<title>merge_from_bytes</title>
<path fill="none" stroke="#1c2123" d="M476,-290C476,-290 380,-290 380,-290 374,-290 368,-284 368,-278 368,-278 368,-266 368,-266 368,-260 374,-254 380,-254 380,-254 476,-254 476,-254 482,-254 488,-260 488,-266 488,-266 488,-278 488,-278 488,-284 482,-290 476,-290"/>
<text text-anchor="middle" x="428" y="-268.3" font-family="Times,serif" font-size="14.00" fill="#2f3638">merge_from_bytes</text>
</g>
<!-- step_leader&#45;&gt;merge_from_bytes -->
<g id="edge15" class="edge">
<title>step_leader&#45;&gt;merge_from_bytes</title>
<path fill="none" stroke="#666666" d="M288.8,-250.86C309.02,-253.95 334.47,-257.85 358,-261.44"/>
<polygon fill="#666666" stroke="#666666" points="357.53,-264.91 367.94,-262.97 358.59,-257.99 357.53,-264.91"/>
</g>
<!-- append_entry -->
<g id="node16" class="node">
<title>append_entry</title>
<path fill="none" stroke="#1c2123" d="M461,-236C461,-236 395,-236 395,-236 389,-236 383,-230 383,-224 383,-224 383,-212 383,-212 383,-206 389,-200 395,-200 395,-200 461,-200 461,-200 467,-200 473,-206 473,-212 473,-212 473,-224 473,-224 473,-230 467,-236 461,-236"/>
<text text-anchor="middle" x="428" y="-214.3" font-family="Times,serif" font-size="14.00" fill="#2f3638">append_entry</text>
</g>
<!-- step_leader&#45;&gt;append_entry -->
<g id="edge16" class="edge">
<title>step_leader&#45;&gt;append_entry</title>
<path fill="none" stroke="#666666" d="M288.8,-239.14C313.34,-235.39 345.57,-230.46 372.73,-226.3"/>
<polygon fill="#666666" stroke="#666666" points="373.51,-229.72 382.87,-224.75 372.45,-222.8 373.51,-229.72"/>
</g>
<!-- set_entry_type -->
<g id="node17" class="node">
<title>set_entry_type</title>
<path fill="none" stroke="#1c2123" d="M464,-182C464,-182 392,-182 392,-182 386,-182 380,-176 380,-170 380,-170 380,-158 380,-158 380,-152 386,-146 392,-146 392,-146 464,-146 464,-146 470,-146 476,-152 476,-158 476,-158 476,-170 476,-170 476,-176 470,-182 464,-182"/>
<text text-anchor="middle" x="428" y="-160.3" font-family="Times,serif" font-size="14.00" fill="#2f3638">set_entry_type</text>
</g>
<!-- step_leader&#45;&gt;set_entry_type -->
<g id="edge17" class="edge">
<title>step_leader&#45;&gt;set_entry_type</title>
<path fill="none" stroke="#666666" d="M280.79,-226.92C300.18,-215.75 326.1,-201.59 350,-191 356.5,-188.12 363.41,-185.33 370.32,-182.71"/>
<polygon fill="#666666" stroke="#666666" points="371.54,-185.99 379.71,-179.24 369.11,-179.42 371.54,-185.99"/>
</g>
<!-- bcast_append -->
<g id="node18" class="node">
<title>bcast_append</title>
<path fill="none" stroke="#1c2123" d="M681,-606C681,-606 615,-606 615,-606 609,-606 603,-600 603,-594 603,-594 603,-582 603,-582 603,-576 609,-570 615,-570 615,-570 681,-570 681,-570 687,-570 693,-576 693,-582 693,-582 693,-594 693,-594 693,-600 687,-606 681,-606"/>
<text text-anchor="middle" x="648" y="-584.3" font-family="Times,serif" font-size="14.00" fill="#2f3638">bcast_append</text>
</g>
<!-- step_leader&#45;&gt;bcast_append -->
<g id="edge18" class="edge">
<title>step_leader&#45;&gt;bcast_append</title>
<path fill="none" stroke="#666666" d="M253.22,-263.31C263.06,-326.71 298.86,-535.24 350,-575 419.43,-628.98 528,-616.86 592.86,-602.72"/>
<polygon fill="#666666" stroke="#666666" points="593.9,-606.07 602.88,-600.44 592.35,-599.25 593.9,-606.07"/>
</g>
<!-- handle_ready_read_index -->
<g id="node19" class="node">
<title>handle_ready_read_index</title>
<path fill="none" stroke="#1c2123" d="M494,-90C494,-90 362,-90 362,-90 356,-90 350,-84 350,-78 350,-78 350,-66 350,-66 350,-60 356,-54 362,-54 362,-54 494,-54 494,-54 500,-54 506,-60 506,-66 506,-66 506,-78 506,-78 506,-84 500,-90 494,-90"/>
<text text-anchor="middle" x="428" y="-68.3" font-family="Times,serif" font-size="14.00" fill="#2f3638">handle_ready_read_index</text>
</g>
<!-- step_leader&#45;&gt;handle_ready_read_index -->
<g id="edge19" class="edge">
<title>step_leader&#45;&gt;handle_ready_read_index</title>
<path fill="none" stroke="#666666" d="M258.99,-226.95C273.68,-197.48 306.5,-138.83 350,-104 354.24,-100.61 358.89,-97.52 363.73,-94.73"/>
<polygon fill="#666666" stroke="#666666" points="365.44,-97.78 372.63,-90 362.16,-91.6 365.44,-97.78"/>
</g>
<!-- bcast_heartbeat_with_ctx -->
<g id="node20" class="node">
<title>bcast_heartbeat_with_ctx</title>
<path fill="none" stroke="#1c2123" d="M713.5,-141C713.5,-141 582.5,-141 582.5,-141 576.5,-141 570.5,-135 570.5,-129 570.5,-129 570.5,-117 570.5,-117 570.5,-111 576.5,-105 582.5,-105 582.5,-105 713.5,-105 713.5,-105 719.5,-105 725.5,-111 725.5,-117 725.5,-117 725.5,-129 725.5,-129 725.5,-135 719.5,-141 713.5,-141"/>
<text text-anchor="middle" x="648" y="-119.3" font-family="Times,serif" font-size="14.00" fill="#2f3638">bcast_heartbeat_with_ctx</text>
</g>
<!-- step_leader&#45;&gt;bcast_heartbeat_with_ctx -->
<g id="edge20" class="edge">
<title>step_leader&#45;&gt;bcast_heartbeat_with_ctx</title>
<path fill="none" stroke="#666666" d="M260.87,-226.8C276.48,-201.41 308.65,-156.3 350,-137 415.69,-106.34 498.68,-105.1 560.23,-110.24"/>
<polygon fill="#666666" stroke="#666666" points="560.02,-113.73 570.3,-111.15 560.66,-106.76 560.02,-113.73"/>
</g>
<!-- step_candidate&#45;&gt;become_follower -->
<g id="edge29" class="edge">
<title>step_candidate&#45;&gt;become_follower</title>
<path fill="none" stroke="#666666" d="M298.09,-982.83C304.27,-979.26 309.87,-974.73 314,-969 372.39,-887.97 285.2,-597 350,-521 396.3,-466.7 455.13,-533.05 506,-483 551.18,-438.54 497.1,-389.74 542,-345 552.72,-334.31 567.08,-327.68 581.72,-323.6"/>
<polygon fill="#666666" stroke="#666666" points="582.95,-326.9 591.86,-321.17 581.32,-320.1 582.95,-326.9"/>
</g>
<!-- step_candidate&#45;&gt;maybe_commit_by_vote -->
<g id="edge30" class="edge">
<title>step_candidate&#45;&gt;maybe_commit_by_vote</title>
<path fill="none" stroke="#666666" d="M298.12,-982.85C304.29,-979.28 309.88,-974.75 314,-969 376.43,-881.87 287.21,-574.87 350,-488 351.99,-485.24 354.27,-482.72 356.76,-480.42"/>
<polygon fill="#666666" stroke="#666666" points="359.08,-483.05 364.8,-474.13 354.77,-477.53 359.08,-483.05"/>
</g>
<!-- step_candidate&#45;&gt;handle_append_entries -->
<g id="edge31" class="edge">
<title>step_candidate&#45;&gt;handle_append_entries</title>
<path fill="none" stroke="#666666" d="M298.26,-996C313.31,-996 330.37,-996 347.02,-996"/>
<polygon fill="#666666" stroke="#666666" points="347.32,-999.5 357.32,-996 347.32,-992.5 347.32,-999.5"/>
</g>
<!-- poll -->
<g id="node29" class="node">
<title>poll</title>
<path fill="none" stroke="#1c2123" d="M443,-566C443,-566 413,-566 413,-566 407,-566 401,-560 401,-554 401,-554 401,-542 401,-542 401,-536 407,-530 413,-530 413,-530 443,-530 443,-530 449,-530 455,-536 455,-542 455,-542 455,-554 455,-554 455,-560 449,-566 443,-566"/>
<text text-anchor="middle" x="428" y="-544.3" font-family="Times,serif" font-size="14.00" fill="#2f3638">poll</text>
</g>
<!-- step_candidate&#45;&gt;poll -->
<g id="edge32" class="edge">
<title>step_candidate&#45;&gt;poll</title>
<path fill="none" stroke="#666666" d="M298.16,-981.58C304.09,-978.2 309.6,-974.06 314,-969 416.23,-851.38 427.11,-650.57 427.46,-576.52"/>
<polygon fill="#666666" stroke="#666666" points="430.95,-576.14 427.44,-566.14 423.95,-576.15 430.95,-576.14"/>
</g>
<!-- step_candidate&#45;&gt;handle_snapshot -->
<g id="edge33" class="edge">
<title>step_candidate&#45;&gt;handle_snapshot</title>
<path fill="none" stroke="#666666" d="M259.25,-1014.05C287.95,-1073.24 379.33,-1261.69 413.73,-1332.64"/>
<polygon fill="#666666" stroke="#666666" points="410.68,-1334.37 418.19,-1341.84 416.98,-1331.32 410.68,-1334.37"/>
</g>
<!-- bcast_heartbeat&#45;&gt;bcast_heartbeat_with_ctx -->
<g id="edge23" class="edge">
<title>bcast_heartbeat&#45;&gt;bcast_heartbeat_with_ctx</title>
<path fill="none" stroke="#666666" d="M478.78,-34.07C487.94,-37.42 497.34,-41.12 506,-45 542.05,-61.15 581.23,-83.22 609.12,-99.76"/>
<polygon fill="#666666" stroke="#666666" points="607.38,-102.8 617.76,-104.92 610.97,-96.79 607.38,-102.8"/>
</g>
<!-- last_pending_request_ctx -->
<g id="node24" class="node">
<title>last_pending_request_ctx</title>
<path fill="none" stroke="#1c2123" d="M713.5,-36C713.5,-36 582.5,-36 582.5,-36 576.5,-36 570.5,-30 570.5,-24 570.5,-24 570.5,-12 570.5,-12 570.5,-6 576.5,0 582.5,0 582.5,0 713.5,0 713.5,0 719.5,0 725.5,-6 725.5,-12 725.5,-12 725.5,-24 725.5,-24 725.5,-30 719.5,-36 713.5,-36"/>
<text text-anchor="middle" x="648" y="-14.3" font-family="Times,serif" font-size="14.00" fill="#2f3638">last_pending_request_ctx</text>
</g>
<!-- bcast_heartbeat&#45;&gt;last_pending_request_ctx -->
<g id="edge24" class="edge">
<title>bcast_heartbeat&#45;&gt;last_pending_request_ctx</title>
<path fill="none" stroke="#666666" d="M478.74,-18C502.8,-18 532.4,-18 560.03,-18"/>
<polygon fill="#666666" stroke="#666666" points="560.11,-21.5 570.11,-18 560.11,-14.5 560.11,-21.5"/>
</g>
<!-- maybe_increase_uncommitted_size -->
<g id="node21" class="node">
<title>maybe_increase_uncommitted_size</title>
<path fill="none" stroke="#1c2123" d="M742,-271C742,-271 554,-271 554,-271 548,-271 542,-265 542,-259 542,-259 542,-247 542,-247 542,-241 548,-235 554,-235 554,-235 742,-235 742,-235 748,-235 754,-241 754,-247 754,-247 754,-259 754,-259 754,-265 748,-271 742,-271"/>
<text text-anchor="middle" x="648" y="-249.3" font-family="Times,serif" font-size="14.00" fill="#2f3638">maybe_increase_uncommitted_size</text>
</g>
<!-- append_entry&#45;&gt;maybe_increase_uncommitted_size -->
<g id="edge21" class="edge">
<title>append_entry&#45;&gt;maybe_increase_uncommitted_size</title>
<path fill="none" stroke="#666666" d="M473.12,-225.08C490.3,-227.84 510.87,-231.14 531.74,-234.5"/>
<polygon fill="#666666" stroke="#666666" points="531.24,-237.96 541.67,-236.09 532.35,-231.05 531.24,-237.96"/>
</g>
<!-- raft_log_append -->
<g id="node22" class="node">
<title>raft_log_append</title>
<path fill="none" stroke="#1c2123" d="M688.5,-217C688.5,-217 607.5,-217 607.5,-217 601.5,-217 595.5,-211 595.5,-205 595.5,-205 595.5,-193 595.5,-193 595.5,-187 601.5,-181 607.5,-181 607.5,-181 688.5,-181 688.5,-181 694.5,-181 700.5,-187 700.5,-193 700.5,-193 700.5,-205 700.5,-205 700.5,-211 694.5,-217 688.5,-217"/>
<text text-anchor="middle" x="648" y="-195.3" font-family="Times,serif" font-size="14.00" fill="#2f3638">raft_log_append</text>
</g>
<!-- append_entry&#45;&gt;raft_log_append -->
<g id="edge22" class="edge">
<title>append_entry&#45;&gt;raft_log_append</title>
<path fill="none" stroke="#666666" d="M473.12,-214.16C505.27,-211.35 549.28,-207.52 584.98,-204.41"/>
<polygon fill="#666666" stroke="#666666" points="585.63,-207.86 595.29,-203.51 585.02,-200.89 585.63,-207.86"/>
</g>
<!-- prs -->
<g id="node25" class="node">
<title>prs</title>
<path fill="#79d8ce" stroke="#60b5ac" d="M821.5,-265C821.5,-265 926.5,-265 926.5,-265 932.5,-265 938.5,-271 938.5,-277 938.5,-277 938.5,-299 938.5,-299 938.5,-305 932.5,-311 926.5,-311 926.5,-311 821.5,-311 821.5,-311 815.5,-311 809.5,-305 809.5,-299 809.5,-299 809.5,-277 809.5,-277 809.5,-271 815.5,-265 821.5,-265"/>
<text text-anchor="middle" x="874" y="-295.8" font-family="Times,serif" font-size="14.00" fill="#5d6179">prs</text>
<polyline fill="none" stroke="#60b5ac" points="809.5,-288 938.5,-288 "/>
<text text-anchor="middle" x="874" y="-272.8" font-family="Times,serif" font-size="14.00" fill="#5d6179">prs: ProgressTracker</text>
</g>
<!-- bcast_append&#45;&gt;prs -->
<g id="edge61" class="edge">
<title>bcast_append&#45;&gt;prs</title>
<path fill="none" stroke="#666666" d="M693.23,-587.36C714.51,-584.68 738.67,-577.72 754,-561 819.78,-489.27 737.72,-427.09 790,-345 796.89,-334.18 806.65,-324.88 817.07,-317.12"/>
<polygon fill="#666666" stroke="#666666" points="819.32,-319.81 825.52,-311.22 815.32,-314.07 819.32,-319.81"/>
</g>
<!-- send_append -->
<g id="node49" class="node">
<title>send_append</title>
<path fill="none" stroke="#1c2123" d="M905.5,-652C905.5,-652 842.5,-652 842.5,-652 836.5,-652 830.5,-646 830.5,-640 830.5,-640 830.5,-628 830.5,-628 830.5,-622 836.5,-616 842.5,-616 842.5,-616 905.5,-616 905.5,-616 911.5,-616 917.5,-622 917.5,-628 917.5,-628 917.5,-640 917.5,-640 917.5,-646 911.5,-652 905.5,-652"/>
<text text-anchor="middle" x="874" y="-630.3" font-family="Times,serif" font-size="14.00" fill="#2f3638">send_append</text>
</g>
<!-- bcast_append&#45;&gt;send_append -->
<g id="edge62" class="edge">
<title>bcast_append&#45;&gt;send_append</title>
<path fill="none" stroke="#666666" d="M693.26,-597.09C729.77,-604.59 781.68,-615.25 820.33,-623.18"/>
<polygon fill="#666666" stroke="#666666" points="819.86,-626.66 830.36,-625.24 821.27,-619.8 819.86,-626.66"/>
</g>
<!-- bcast_heartbeat_with_ctx&#45;&gt;prs -->
<g id="edge25" class="edge">
<title>bcast_heartbeat_with_ctx&#45;&gt;prs</title>
<path fill="none" stroke="#666666" d="M696.31,-141.04C715.04,-149.2 736.29,-159.76 754,-172 754.63,-172.44 807.13,-223.68 842.18,-257.9"/>
<polygon fill="#666666" stroke="#666666" points="839.77,-260.44 849.37,-264.92 844.66,-255.43 839.77,-260.44"/>
</g>
<!-- send_heartbeat -->
<g id="node26" class="node">
<title>send_heartbeat</title>
<path fill="none" stroke="#1c2123" d="M911,-198C911,-198 837,-198 837,-198 831,-198 825,-192 825,-186 825,-186 825,-174 825,-174 825,-168 831,-162 837,-162 837,-162 911,-162 911,-162 917,-162 923,-168 923,-174 923,-174 923,-186 923,-186 923,-192 917,-198 911,-198"/>
<text text-anchor="middle" x="874" y="-176.3" font-family="Times,serif" font-size="14.00" fill="#2f3638">send_heartbeat</text>
</g>
<!-- bcast_heartbeat_with_ctx&#45;&gt;send_heartbeat -->
<g id="edge26" class="edge">
<title>bcast_heartbeat_with_ctx&#45;&gt;send_heartbeat</title>
<path fill="none" stroke="#666666" d="M719.88,-141.04C750.49,-148.83 785.86,-157.83 814.89,-165.21"/>
<polygon fill="#666666" stroke="#666666" points="814.32,-168.68 824.88,-167.75 816.05,-161.9 814.32,-168.68"/>
</g>
<!-- RaftLog -->
<g id="node23" class="node">
<title>RaftLog</title>
<path fill="#79d8ce" stroke="#60b5ac" d="M55.5,-1362C55.5,-1362 93.5,-1362 93.5,-1362 99.5,-1362 105.5,-1368 105.5,-1374 105.5,-1374 105.5,-1386 105.5,-1386 105.5,-1392 99.5,-1398 93.5,-1398 93.5,-1398 55.5,-1398 55.5,-1398 49.5,-1398 43.5,-1392 43.5,-1386 43.5,-1386 43.5,-1374 43.5,-1374 43.5,-1368 49.5,-1362 55.5,-1362"/>
<text text-anchor="middle" x="74.5" y="-1376.3" font-family="Times,serif" font-size="14.00" fill="#5d6179">RaftLog</text>
</g>
<!-- send_heartbeat&#45;&gt;send -->
<g id="edge27" class="edge">
<title>send_heartbeat&#45;&gt;send</title>
<path fill="none" stroke="#666666" d="M904.24,-198.05C923.17,-211.48 946.38,-231.67 958,-256 1014.21,-373.74 982.84,-712.01 994,-842 1012.4,-1056.2 1044.22,-1313.54 1054.89,-1397.8"/>
<polygon fill="#666666" stroke="#666666" points="1051.44,-1398.39 1056.17,-1407.87 1058.38,-1397.5 1051.44,-1398.39"/>
</g>
<!-- set_msg_type -->
<g id="node27" class="node">
<title>set_msg_type</title>
<path fill="none" stroke="#1c2123" d="M1093.5,-198C1093.5,-198 1025.5,-198 1025.5,-198 1019.5,-198 1013.5,-192 1013.5,-186 1013.5,-186 1013.5,-174 1013.5,-174 1013.5,-168 1019.5,-162 1025.5,-162 1025.5,-162 1093.5,-162 1093.5,-162 1099.5,-162 1105.5,-168 1105.5,-174 1105.5,-174 1105.5,-186 1105.5,-186 1105.5,-192 1099.5,-198 1093.5,-198"/>
<text text-anchor="middle" x="1059.5" y="-176.3" font-family="Times,serif" font-size="14.00" fill="#2f3638">set_msg_type</text>
</g>
<!-- send_heartbeat&#45;&gt;set_msg_type -->
<g id="edge28" class="edge">
<title>send_heartbeat&#45;&gt;set_msg_type</title>
<path fill="none" stroke="#666666" d="M923.21,-180C947.76,-180 977.72,-180 1003.19,-180"/>
<polygon fill="#666666" stroke="#666666" points="1003.45,-183.5 1013.45,-180 1003.45,-176.5 1003.45,-183.5"/>
</g>
<!-- handle_append_entries&#45;&gt;send -->
<g id="edge41" class="edge">
<title>handle_append_entries&#45;&gt;send</title>
<path fill="none" stroke="#666666" d="M451.32,-1014.28C473.11,-1031.14 507.89,-1055.55 542,-1069 716.86,-1137.92 814.95,-1023.1 958,-1145 1035.24,-1210.82 1053.12,-1340.43 1057.26,-1397.67"/>
<polygon fill="#666666" stroke="#666666" points="1053.77,-1398.04 1057.9,-1407.8 1060.76,-1397.6 1053.77,-1398.04"/>
</g>
<!-- handle_append_entries&#45;&gt;bcast_append -->
<g id="edge66" class="edge">
<title>handle_append_entries&#45;&gt;bcast_append</title>
<path fill="none" stroke="#666666" d="M428.81,-977.73C429.21,-917.56 438.82,-723.58 542,-620 555.56,-606.39 574.73,-598.53 592.98,-594.01"/>
<polygon fill="#666666" stroke="#666666" points="593.96,-597.38 602.99,-591.83 592.47,-590.54 593.96,-597.38"/>
</g>
<!-- handle_append_entries&#45;&gt;maybe_commit -->
<g id="edge67" class="edge">
<title>handle_append_entries&#45;&gt;maybe_commit</title>
<path fill="none" stroke="#666666" d="M431.89,-1014.28C440.16,-1060.51 468.27,-1183 542,-1248 554.49,-1259.01 570.68,-1266.23 586.6,-1270.97"/>
<polygon fill="#666666" stroke="#666666" points="585.87,-1274.4 596.44,-1273.61 587.69,-1267.64 585.87,-1274.4"/>
</g>
<!-- send_request_snapshot -->
<g id="node35" class="node">
<title>send_request_snapshot</title>
<path fill="none" stroke="#1c2123" d="M706.5,-1590C706.5,-1590 589.5,-1590 589.5,-1590 583.5,-1590 577.5,-1584 577.5,-1578 577.5,-1578 577.5,-1566 577.5,-1566 577.5,-1560 583.5,-1554 589.5,-1554 589.5,-1554 706.5,-1554 706.5,-1554 712.5,-1554 718.5,-1560 718.5,-1566 718.5,-1566 718.5,-1578 718.5,-1578 718.5,-1584 712.5,-1590 706.5,-1590"/>
<text text-anchor="middle" x="648" y="-1568.3" font-family="Times,serif" font-size="14.00" fill="#2f3638">send_request_snapshot</text>
</g>
<!-- handle_append_entries&#45;&gt;send_request_snapshot -->
<g id="edge42" class="edge">
<title>handle_append_entries&#45;&gt;send_request_snapshot</title>
<path fill="none" stroke="#666666" d="M433.31,-1014.24C445.21,-1064.79 479.45,-1211.03 506,-1333 522.8,-1410.16 496.74,-1442.28 542,-1507 554.51,-1524.89 573.68,-1538.84 592.24,-1549.14"/>
<polygon fill="#666666" stroke="#666666" points="590.79,-1552.33 601.27,-1553.91 594.06,-1546.14 590.79,-1552.33"/>
</g>
<!-- maybe_append -->
<g id="node36" class="node">
<title>maybe_append</title>
<path fill="none" stroke="#1c2123" d="M685.5,-698C685.5,-698 610.5,-698 610.5,-698 604.5,-698 598.5,-692 598.5,-686 598.5,-686 598.5,-674 598.5,-674 598.5,-668 604.5,-662 610.5,-662 610.5,-662 685.5,-662 685.5,-662 691.5,-662 697.5,-668 697.5,-674 697.5,-674 697.5,-686 697.5,-686 697.5,-692 691.5,-698 685.5,-698"/>
<text text-anchor="middle" x="648" y="-676.3" font-family="Times,serif" font-size="14.00" fill="#2f3638">maybe_append</text>
</g>
<!-- handle_append_entries&#45;&gt;maybe_append -->
<g id="edge43" class="edge">
<title>handle_append_entries&#45;&gt;maybe_append</title>
<path fill="none" stroke="#666666" d="M430.51,-977.9C435.73,-927.04 457.71,-781.65 542,-707 554.78,-695.68 571.68,-689 588.17,-685.08"/>
<polygon fill="#666666" stroke="#666666" points="589.27,-688.43 598.36,-682.98 587.85,-681.57 589.27,-688.43"/>
</g>
<!-- set_index -->
<g id="node37" class="node">
<title>set_index</title>
<path fill="none" stroke="#1c2123" d="M670,-1206C670,-1206 626,-1206 626,-1206 620,-1206 614,-1200 614,-1194 614,-1194 614,-1182 614,-1182 614,-1176 620,-1170 626,-1170 626,-1170 670,-1170 670,-1170 676,-1170 682,-1176 682,-1182 682,-1182 682,-1194 682,-1194 682,-1200 676,-1206 670,-1206"/>
<text text-anchor="middle" x="648" y="-1184.3" font-family="Times,serif" font-size="14.00" fill="#2f3638">set_index</text>
</g>
<!-- handle_append_entries&#45;&gt;set_index -->
<g id="edge44" class="edge">
<title>handle_append_entries&#45;&gt;set_index</title>
<path fill="none" stroke="#666666" d="M436.19,-1014.08C450.76,-1048.3 487.11,-1122.56 542,-1161 560.07,-1173.66 583.6,-1180.38 603.81,-1183.96"/>
<polygon fill="#666666" stroke="#666666" points="603.3,-1187.42 613.72,-1185.51 604.38,-1180.5 603.3,-1187.42"/>
</g>
<!-- set_commit -->
<g id="node38" class="node">
<title>set_commit</title>
<path fill="none" stroke="#1c2123" d="M676.5,-1152C676.5,-1152 619.5,-1152 619.5,-1152 613.5,-1152 607.5,-1146 607.5,-1140 607.5,-1140 607.5,-1128 607.5,-1128 607.5,-1122 613.5,-1116 619.5,-1116 619.5,-1116 676.5,-1116 676.5,-1116 682.5,-1116 688.5,-1122 688.5,-1128 688.5,-1128 688.5,-1140 688.5,-1140 688.5,-1146 682.5,-1152 676.5,-1152"/>
<text text-anchor="middle" x="648" y="-1130.3" font-family="Times,serif" font-size="14.00" fill="#2f3638">set_commit</text>
</g>
<!-- handle_append_entries&#45;&gt;set_commit -->
<g id="edge45" class="edge">
<title>handle_append_entries&#45;&gt;set_commit</title>
<path fill="none" stroke="#666666" d="M443.54,-1014.04C463.41,-1037.55 501.26,-1078.42 542,-1102 558.98,-1111.83 579.28,-1118.92 597.49,-1123.9"/>
<polygon fill="#666666" stroke="#666666" points="596.79,-1127.33 607.35,-1126.45 598.55,-1120.56 596.79,-1127.33"/>
</g>
<!-- handle_append_entries&#45;&gt;send_append -->
<g id="edge68" class="edge">
<title>handle_append_entries&#45;&gt;send_append</title>
<path fill="none" stroke="#666666" d="M428.53,-977.93C428.12,-919.5 435.59,-734.73 542,-653 584.19,-620.6 738.02,-625.08 820.28,-630.08"/>
<polygon fill="#666666" stroke="#666666" points="820.22,-633.58 830.42,-630.72 820.67,-626.59 820.22,-633.58"/>
</g>
<!-- maybe_send_append -->
<g id="node50" class="node">
<title>maybe_send_append</title>
<path fill="none" stroke="#1c2123" d="M1113,-833C1113,-833 1006,-833 1006,-833 1000,-833 994,-827 994,-821 994,-821 994,-809 994,-809 994,-803 1000,-797 1006,-797 1006,-797 1113,-797 1113,-797 1119,-797 1125,-803 1125,-809 1125,-809 1125,-821 1125,-821 1125,-827 1119,-833 1113,-833"/>
<text text-anchor="middle" x="1059.5" y="-811.3" font-family="Times,serif" font-size="14.00" fill="#2f3638">maybe_send_append</text>
</g>
<!-- handle_append_entries&#45;&gt;maybe_send_append -->
<g id="edge69" class="edge">
<title>handle_append_entries&#45;&gt;maybe_send_append</title>
<path fill="none" stroke="#666666" d="M498.57,-1000.42C565.36,-1002.7 668.43,-1001.02 754,-977 860.22,-947.18 971.27,-876.37 1025.18,-839.02"/>
<polygon fill="#666666" stroke="#666666" points="1027.45,-841.7 1033.64,-833.11 1023.44,-835.97 1027.45,-841.7"/>
</g>
<!-- update_committed -->
<g id="node53" class="node">
<title>update_committed</title>
<path fill="none" stroke="#1c2123" d="M921.5,-1190C921.5,-1190 826.5,-1190 826.5,-1190 820.5,-1190 814.5,-1184 814.5,-1178 814.5,-1178 814.5,-1166 814.5,-1166 814.5,-1160 820.5,-1154 826.5,-1154 826.5,-1154 921.5,-1154 921.5,-1154 927.5,-1154 933.5,-1160 933.5,-1166 933.5,-1166 933.5,-1178 933.5,-1178 933.5,-1184 927.5,-1190 921.5,-1190"/>
<text text-anchor="middle" x="874" y="-1168.3" font-family="Times,serif" font-size="14.00" fill="#2f3638">update_committed</text>
</g>
<!-- handle_append_entries&#45;&gt;update_committed -->
<g id="edge70" class="edge">
<title>handle_append_entries&#45;&gt;update_committed</title>
<path fill="none" stroke="#666666" d="M431.93,-1014.14C440.1,-1058.03 467.65,-1169.7 542,-1215 622.46,-1264.03 661.83,-1234.56 754,-1215 771.13,-1211.37 773.65,-1205.27 790,-1199 794.83,-1197.15 799.84,-1195.31 804.91,-1193.51"/>
<polygon fill="#666666" stroke="#666666" points="806.38,-1196.71 814.68,-1190.12 804.09,-1190.09 806.38,-1196.71"/>
</g>
<!-- maybe_decr_to -->
<g id="node54" class="node">
<title>maybe_decr_to</title>
<path fill="none" stroke="#1c2123" d="M686.5,-968C686.5,-968 609.5,-968 609.5,-968 603.5,-968 597.5,-962 597.5,-956 597.5,-956 597.5,-944 597.5,-944 597.5,-938 603.5,-932 609.5,-932 609.5,-932 686.5,-932 686.5,-932 692.5,-932 698.5,-938 698.5,-944 698.5,-944 698.5,-956 698.5,-956 698.5,-962 692.5,-968 686.5,-968"/>
<text text-anchor="middle" x="648" y="-946.3" font-family="Times,serif" font-size="14.00" fill="#2f3638">maybe_decr_to</text>
</g>
<!-- handle_append_entries&#45;&gt;maybe_decr_to -->
<g id="edge71" class="edge">
<title>handle_append_entries&#45;&gt;maybe_decr_to</title>
<path fill="none" stroke="#666666" d="M498.58,-981.32C527.21,-975.28 560.04,-968.35 587.53,-962.55"/>
<polygon fill="#666666" stroke="#666666" points="588.33,-965.96 597.39,-960.47 586.89,-959.11 588.33,-965.96"/>
</g>
<!-- become_probe -->
<g id="node55" class="node">
<title>become_probe</title>
<path fill="none" stroke="#1c2123" d="M684.5,-914C684.5,-914 611.5,-914 611.5,-914 605.5,-914 599.5,-908 599.5,-902 599.5,-902 599.5,-890 599.5,-890 599.5,-884 605.5,-878 611.5,-878 611.5,-878 684.5,-878 684.5,-878 690.5,-878 696.5,-884 696.5,-890 696.5,-890 696.5,-902 696.5,-902 696.5,-908 690.5,-914 684.5,-914"/>
<text text-anchor="middle" x="648" y="-892.3" font-family="Times,serif" font-size="14.00" fill="#2f3638">become_probe</text>
</g>
<!-- handle_append_entries&#45;&gt;become_probe -->
<g id="edge72" class="edge">
<title>handle_append_entries&#45;&gt;become_probe</title>
<path fill="none" stroke="#666666" d="M451.98,-977.97C473.96,-961.52 508.62,-937.61 542,-923 556.85,-916.5 573.6,-911.32 589.28,-907.3"/>
<polygon fill="#666666" stroke="#666666" points="590.51,-910.6 599.4,-904.83 588.85,-903.8 590.51,-910.6"/>
</g>
<!-- is_paused -->
<g id="node56" class="node">
<title>is_paused</title>
<path fill="none" stroke="#1c2123" d="M671,-860C671,-860 625,-860 625,-860 619,-860 613,-854 613,-848 613,-848 613,-836 613,-836 613,-830 619,-824 625,-824 625,-824 671,-824 671,-824 677,-824 683,-830 683,-836 683,-836 683,-848 683,-848 683,-854 677,-860 671,-860"/>
<text text-anchor="middle" x="648" y="-838.3" font-family="Times,serif" font-size="14.00" fill="#2f3638">is_paused</text>
</g>
<!-- handle_append_entries&#45;&gt;is_paused -->
<g id="edge73" class="edge">
<title>handle_append_entries&#45;&gt;is_paused</title>
<path fill="none" stroke="#666666" d="M440.08,-977.77C457.96,-949.94 495.89,-897.12 542,-869 560.34,-857.82 583.19,-851.24 602.89,-847.38"/>
<polygon fill="#666666" stroke="#666666" points="603.63,-850.8 612.86,-845.6 602.4,-843.91 603.63,-850.8"/>
</g>
<!-- become_replicate -->
<g id="node57" class="node">
<title>become_replicate</title>
<path fill="none" stroke="#1c2123" d="M692.5,-806C692.5,-806 603.5,-806 603.5,-806 597.5,-806 591.5,-800 591.5,-794 591.5,-794 591.5,-782 591.5,-782 591.5,-776 597.5,-770 603.5,-770 603.5,-770 692.5,-770 692.5,-770 698.5,-770 704.5,-776 704.5,-782 704.5,-782 704.5,-794 704.5,-794 704.5,-800 698.5,-806 692.5,-806"/>
<text text-anchor="middle" x="648" y="-784.3" font-family="Times,serif" font-size="14.00" fill="#2f3638">become_replicate</text>
</g>
<!-- handle_append_entries&#45;&gt;become_replicate -->
<g id="edge74" class="edge">
<title>handle_append_entries&#45;&gt;become_replicate</title>
<path fill="none" stroke="#666666" d="M435.06,-977.9C448.3,-941.21 483.42,-857.9 542,-815 553.55,-806.54 567.5,-800.73 581.41,-796.73"/>
<polygon fill="#666666" stroke="#666666" points="582.68,-800.02 591.49,-794.13 580.94,-793.24 582.68,-800.02"/>
</g>
<!-- should_bcast_commit -->
<g id="node58" class="node">
<title>should_bcast_commit</title>
<path fill="none" stroke="#1c2123" d="M704.5,-752C704.5,-752 591.5,-752 591.5,-752 585.5,-752 579.5,-746 579.5,-740 579.5,-740 579.5,-728 579.5,-728 579.5,-722 585.5,-716 591.5,-716 591.5,-716 704.5,-716 704.5,-716 710.5,-716 716.5,-722 716.5,-728 716.5,-728 716.5,-740 716.5,-740 716.5,-746 710.5,-752 704.5,-752"/>
<text text-anchor="middle" x="648" y="-730.3" font-family="Times,serif" font-size="14.00" fill="#2f3638">should_bcast_commit</text>
</g>
<!-- handle_append_entries&#45;&gt;should_bcast_commit -->
<g id="edge75" class="edge">
<title>handle_append_entries&#45;&gt;should_bcast_commit</title>
<path fill="none" stroke="#666666" d="M432.32,-977.78C441.38,-933.47 470.78,-819.44 542,-761 550.1,-754.35 559.65,-749.32 569.63,-745.51"/>
<polygon fill="#666666" stroke="#666666" points="570.96,-748.75 579.3,-742.22 568.71,-742.13 570.96,-748.75"/>
</g>
<!-- send_timeout_now -->
<g id="node59" class="node">
<title>send_timeout_now</title>
<path fill="none" stroke="#1c2123" d="M696,-1060C696,-1060 600,-1060 600,-1060 594,-1060 588,-1054 588,-1048 588,-1048 588,-1036 588,-1036 588,-1030 594,-1024 600,-1024 600,-1024 696,-1024 696,-1024 702,-1024 708,-1030 708,-1036 708,-1036 708,-1048 708,-1048 708,-1054 702,-1060 696,-1060"/>
<text text-anchor="middle" x="648" y="-1038.3" font-family="Times,serif" font-size="14.00" fill="#2f3638">send_timeout_now</text>
</g>
<!-- handle_append_entries&#45;&gt;send_timeout_now -->
<g id="edge76" class="edge">
<title>handle_append_entries&#45;&gt;send_timeout_now</title>
<path fill="none" stroke="#666666" d="M498.58,-1010.68C523.99,-1016.04 552.7,-1022.1 578.06,-1027.45"/>
<polygon fill="#666666" stroke="#666666" points="577.46,-1030.9 587.96,-1029.54 578.9,-1024.05 577.46,-1030.9"/>
</g>
<!-- poll&#45;&gt;become_follower -->
<g id="edge54" class="edge">
<title>poll&#45;&gt;become_follower</title>
<path fill="none" stroke="#666666" d="M455.24,-543.58C472.18,-539.36 493.34,-531.27 506,-516 555.57,-456.21 488.31,-401.12 542,-345 552.62,-333.9 567.14,-327.13 582,-323.06"/>
<polygon fill="#666666" stroke="#666666" points="582.84,-326.46 591.77,-320.76 581.24,-319.65 582.84,-326.46"/>
</g>
<!-- poll&#45;&gt;bcast_append -->
<g id="edge55" class="edge">
<title>poll&#45;&gt;bcast_append</title>
<path fill="none" stroke="#666666" d="M455.3,-552.82C489.23,-559.05 549.11,-570.04 592.94,-578.08"/>
<polygon fill="#666666" stroke="#666666" points="592.4,-581.54 602.87,-579.9 593.67,-574.66 592.4,-581.54"/>
</g>
<!-- tally_votes -->
<g id="node44" class="node">
<title>tally_votes</title>
<path fill="none" stroke="#1c2123" d="M674,-390C674,-390 622,-390 622,-390 616,-390 610,-384 610,-378 610,-378 610,-366 610,-366 610,-360 616,-354 622,-354 622,-354 674,-354 674,-354 680,-354 686,-360 686,-366 686,-366 686,-378 686,-378 686,-384 680,-390 674,-390"/>
<text text-anchor="middle" x="648" y="-368.3" font-family="Times,serif" font-size="14.00" fill="#2f3638">tally_votes</text>
</g>
<!-- poll&#45;&gt;tally_votes -->
<g id="edge56" class="edge">
<title>poll&#45;&gt;tally_votes</title>
<path fill="none" stroke="#666666" d="M455.17,-543.1C471.85,-538.69 492.76,-530.57 506,-516 542.59,-475.74 502.64,-436.56 542,-399 557.43,-384.27 579.79,-377.29 599.9,-374.09"/>
<polygon fill="#666666" stroke="#666666" points="600.41,-377.55 609.86,-372.77 599.49,-370.61 600.41,-377.55"/>
</g>
<!-- record_vote -->
<g id="node45" class="node">
<title>record_vote</title>
<path fill="none" stroke="#1c2123" d="M676.5,-552C676.5,-552 619.5,-552 619.5,-552 613.5,-552 607.5,-546 607.5,-540 607.5,-540 607.5,-528 607.5,-528 607.5,-522 613.5,-516 619.5,-516 619.5,-516 676.5,-516 676.5,-516 682.5,-516 688.5,-522 688.5,-528 688.5,-528 688.5,-540 688.5,-540 688.5,-546 682.5,-552 676.5,-552"/>
<text text-anchor="middle" x="648" y="-530.3" font-family="Times,serif" font-size="14.00" fill="#2f3638">record_vote</text>
</g>
<!-- poll&#45;&gt;record_vote -->
<g id="edge57" class="edge">
<title>poll&#45;&gt;record_vote</title>
<path fill="none" stroke="#666666" d="M455.3,-546.31C490.31,-544.06 552.95,-540.04 597.08,-537.21"/>
<polygon fill="#666666" stroke="#666666" points="597.56,-540.68 607.31,-536.55 597.11,-533.7 597.56,-540.68"/>
</g>
<!-- campaign -->
<g id="node46" class="node">
<title>campaign</title>
<path fill="none" stroke="#1c2123" d="M671,-498C671,-498 625,-498 625,-498 619,-498 613,-492 613,-486 613,-486 613,-474 613,-474 613,-468 619,-462 625,-462 625,-462 671,-462 671,-462 677,-462 683,-468 683,-474 683,-474 683,-486 683,-486 683,-492 677,-498 671,-498"/>
<text text-anchor="middle" x="648" y="-476.3" font-family="Times,serif" font-size="14.00" fill="#2f3638">campaign</text>
</g>
<!-- poll&#45;&gt;campaign -->
<g id="edge58" class="edge">
<title>poll&#45;&gt;campaign</title>
<path fill="none" stroke="#666666" d="M455.24,-537.66C477.99,-528.9 511.89,-516.31 542,-507 561.82,-500.87 584.03,-495.02 602.9,-490.34"/>
<polygon fill="#666666" stroke="#666666" points="603.84,-493.71 612.72,-487.93 602.17,-486.91 603.84,-493.71"/>
</g>
<!-- become_leader -->
<g id="node47" class="node">
<title>become_leader</title>
<path fill="none" stroke="#1c2123" d="M685.5,-444C685.5,-444 610.5,-444 610.5,-444 604.5,-444 598.5,-438 598.5,-432 598.5,-432 598.5,-420 598.5,-420 598.5,-414 604.5,-408 610.5,-408 610.5,-408 685.5,-408 685.5,-408 691.5,-408 697.5,-414 697.5,-420 697.5,-420 697.5,-432 697.5,-432 697.5,-438 691.5,-444 685.5,-444"/>
<text text-anchor="middle" x="648" y="-422.3" font-family="Times,serif" font-size="14.00" fill="#2f3638">become_leader</text>
</g>
<!-- poll&#45;&gt;become_leader -->
<g id="edge59" class="edge">
<title>poll&#45;&gt;become_leader</title>
<path fill="none" stroke="#666666" d="M455.24,-541.76C471.34,-536.88 491.56,-528.74 506,-516 530.19,-494.67 516.36,-472.56 542,-453 555.32,-442.84 572.08,-436.48 588.26,-432.5"/>
<polygon fill="#666666" stroke="#666666" points="589.21,-435.88 598.24,-430.33 587.72,-429.04 589.21,-435.88"/>
</g>
<!-- handle_snapshot&#45;&gt;send -->
<g id="edge50" class="edge">
<title>handle_snapshot&#45;&gt;send</title>
<path fill="none" stroke="#666666" d="M481.74,-1351.53C500.69,-1348.88 522.25,-1346.3 542,-1345 636.02,-1338.79 660.57,-1332.79 754,-1345 853.52,-1358.01 966.81,-1393.98 1023,-1413.32"/>
<polygon fill="#666666" stroke="#666666" points="1021.89,-1416.64 1032.49,-1416.61 1024.19,-1410.02 1021.89,-1416.64"/>
</g>
<!-- get_snapshot -->
<g id="node41" class="node">
<title>get_snapshot</title>
<path fill="none" stroke="#1c2123" d="M679.5,-1390C679.5,-1390 616.5,-1390 616.5,-1390 610.5,-1390 604.5,-1384 604.5,-1378 604.5,-1378 604.5,-1366 604.5,-1366 604.5,-1360 610.5,-1354 616.5,-1354 616.5,-1354 679.5,-1354 679.5,-1354 685.5,-1354 691.5,-1360 691.5,-1366 691.5,-1366 691.5,-1378 691.5,-1378 691.5,-1384 685.5,-1390 679.5,-1390"/>
<text text-anchor="middle" x="648" y="-1368.3" font-family="Times,serif" font-size="14.00" fill="#2f3638">get_snapshot</text>
</g>
<!-- handle_snapshot&#45;&gt;get_snapshot -->
<g id="edge51" class="edge">
<title>handle_snapshot&#45;&gt;get_snapshot</title>
<path fill="none" stroke="#666666" d="M481.77,-1362.9C515.8,-1364.78 559.9,-1367.21 593.98,-1369.08"/>
<polygon fill="#666666" stroke="#666666" points="594.04,-1372.59 604.21,-1369.64 594.42,-1365.6 594.04,-1372.59"/>
</g>
<!-- take_snapshot -->
<g id="node42" class="node">
<title>take_snapshot</title>
<path fill="none" stroke="#1c2123" d="M682.5,-1498C682.5,-1498 613.5,-1498 613.5,-1498 607.5,-1498 601.5,-1492 601.5,-1486 601.5,-1486 601.5,-1474 601.5,-1474 601.5,-1468 607.5,-1462 613.5,-1462 613.5,-1462 682.5,-1462 682.5,-1462 688.5,-1462 694.5,-1468 694.5,-1474 694.5,-1474 694.5,-1486 694.5,-1486 694.5,-1492 688.5,-1498 682.5,-1498"/>
<text text-anchor="middle" x="648" y="-1476.3" font-family="Times,serif" font-size="14.00" fill="#2f3638">take_snapshot</text>
</g>
<!-- handle_snapshot&#45;&gt;take_snapshot -->
<g id="edge52" class="edge">
<title>handle_snapshot&#45;&gt;take_snapshot</title>
<path fill="none" stroke="#666666" d="M446.02,-1378.18C466.74,-1399.25 503.72,-1433.55 542,-1453 557.22,-1460.73 574.83,-1466.37 591.23,-1470.44"/>
<polygon fill="#666666" stroke="#666666" points="590.72,-1473.91 601.25,-1472.77 592.3,-1467.09 590.72,-1473.91"/>
</g>
<!-- restore -->
<g id="node43" class="node">
<title>restore</title>
<path fill="none" stroke="#1c2123" d="M663,-1444C663,-1444 633,-1444 633,-1444 627,-1444 621,-1438 621,-1432 621,-1432 621,-1420 621,-1420 621,-1414 627,-1408 633,-1408 633,-1408 663,-1408 663,-1408 669,-1408 675,-1414 675,-1420 675,-1420 675,-1432 675,-1432 675,-1438 669,-1444 663,-1444"/>
<text text-anchor="middle" x="648" y="-1422.3" font-family="Times,serif" font-size="14.00" fill="#2f3638">restore</text>
</g>
<!-- handle_snapshot&#45;&gt;restore -->
<g id="edge53" class="edge">
<title>handle_snapshot&#45;&gt;restore</title>
<path fill="none" stroke="#666666" d="M478.5,-1378.05C498.15,-1384.97 521.03,-1392.7 542,-1399 564.82,-1405.86 590.75,-1412.54 611.13,-1417.54"/>
<polygon fill="#666666" stroke="#666666" points="610.41,-1420.96 620.95,-1419.92 612.06,-1414.16 610.41,-1420.96"/>
</g>
<!-- handle_heartbeat&#45;&gt;send -->
<g id="edge46" class="edge">
<title>handle_heartbeat&#45;&gt;send</title>
<path fill="none" stroke="#666666" d="M482.57,-1587.52C501.21,-1592.19 522.37,-1596.69 542,-1599 635.58,-1610.02 660.71,-1612.22 754,-1599 847.45,-1585.76 878.28,-1590.53 958,-1540 993.48,-1517.51 1023.71,-1478.9 1041.49,-1452.91"/>
<polygon fill="#666666" stroke="#666666" points="1044.6,-1454.56 1047.24,-1444.3 1038.78,-1450.67 1044.6,-1454.56"/>
</g>
<!-- handle_heartbeat&#45;&gt;send_request_snapshot -->
<g id="edge47" class="edge">
<title>handle_heartbeat&#45;&gt;send_request_snapshot</title>
<path fill="none" stroke="#666666" d="M482.61,-1572C508.1,-1572 539.09,-1572 567.26,-1572"/>
<polygon fill="#666666" stroke="#666666" points="567.5,-1575.5 577.5,-1572 567.5,-1568.5 567.5,-1575.5"/>
</g>
<!-- commit_to -->
<g id="node39" class="node">
<title>commit_to</title>
<path fill="none" stroke="#1c2123" d="M900.5,-1701C900.5,-1701 847.5,-1701 847.5,-1701 841.5,-1701 835.5,-1695 835.5,-1689 835.5,-1689 835.5,-1677 835.5,-1677 835.5,-1671 841.5,-1665 847.5,-1665 847.5,-1665 900.5,-1665 900.5,-1665 906.5,-1665 912.5,-1671 912.5,-1677 912.5,-1677 912.5,-1689 912.5,-1689 912.5,-1695 906.5,-1701 900.5,-1701"/>
<text text-anchor="middle" x="874" y="-1679.3" font-family="Times,serif" font-size="14.00" fill="#2f3638">commit_to</text>
</g>
<!-- handle_heartbeat&#45;&gt;commit_to -->
<g id="edge48" class="edge">
<title>handle_heartbeat&#45;&gt;commit_to</title>
<path fill="none" stroke="#666666" d="M482.56,-1583.98C491.15,-1587.72 499.37,-1592.61 506,-1599 537.6,-1629.49 505.73,-1666.25 542,-1691 627.53,-1749.37 756.58,-1721.63 825.56,-1700.07"/>
<polygon fill="#666666" stroke="#666666" points="826.84,-1703.33 835.29,-1696.94 824.7,-1696.67 826.84,-1703.33"/>
</g>
<!-- take_context -->
<g id="node40" class="node">
<title>take_context</title>
<path fill="none" stroke="#1c2123" d="M679,-1682C679,-1682 617,-1682 617,-1682 611,-1682 605,-1676 605,-1670 605,-1670 605,-1658 605,-1658 605,-1652 611,-1646 617,-1646 617,-1646 679,-1646 679,-1646 685,-1646 691,-1652 691,-1658 691,-1658 691,-1670 691,-1670 691,-1676 685,-1682 679,-1682"/>
<text text-anchor="middle" x="648" y="-1660.3" font-family="Times,serif" font-size="14.00" fill="#2f3638">take_context</text>
</g>
<!-- handle_heartbeat&#45;&gt;take_context -->
<g id="edge49" class="edge">
<title>handle_heartbeat&#45;&gt;take_context</title>
<path fill="none" stroke="#666666" d="M482.88,-1587.73C490.87,-1590.96 498.83,-1594.71 506,-1599 524.62,-1610.15 523.15,-1621.24 542,-1632 558.19,-1641.24 577.33,-1648.09 594.81,-1653.03"/>
<polygon fill="#666666" stroke="#666666" points="594.31,-1656.52 604.87,-1655.72 596.12,-1649.76 594.31,-1656.52"/>
</g>
<!-- maybe_commit&#45;&gt;commit_to -->
<g id="edge80" class="edge">
<title>maybe_commit&#45;&gt;commit_to</title>
<path fill="none" stroke="#666666" d="M691.71,-1298.03C712.99,-1308.9 737.6,-1324.62 754,-1345 831.62,-1441.48 860.48,-1592.27 869.48,-1654.58"/>
<polygon fill="#666666" stroke="#666666" points="866.06,-1655.39 870.89,-1664.82 872.99,-1654.44 866.06,-1655.39"/>
</g>
<!-- maybe_commit&#45;&gt;update_committed -->
<g id="edge77" class="edge">
<title>maybe_commit&#45;&gt;update_committed</title>
<path fill="none" stroke="#666666" d="M699.52,-1271.53C717.86,-1266.75 737.98,-1259.35 754,-1248 776.05,-1232.38 768.1,-1214.83 790,-1199 794.72,-1195.59 799.89,-1192.59 805.28,-1189.96"/>
<polygon fill="#666666" stroke="#666666" points="806.77,-1193.13 814.5,-1185.88 803.94,-1186.73 806.77,-1193.13"/>
</g>
<!-- raft_log_maybe_commit -->
<g id="node60" class="node">
<title>raft_log_maybe_commit</title>
<path fill="none" stroke="#1c2123" d="M938,-1244C938,-1244 810,-1244 810,-1244 804,-1244 798,-1238 798,-1232 798,-1232 798,-1220 798,-1220 798,-1214 804,-1208 810,-1208 810,-1208 938,-1208 938,-1208 944,-1208 950,-1214 950,-1220 950,-1220 950,-1232 950,-1232 950,-1238 944,-1244 938,-1244"/>
<text text-anchor="middle" x="874" y="-1222.3" font-family="Times,serif" font-size="14.00" fill="#2f3638">raft_log_maybe_commit</text>
</g>
<!-- maybe_commit&#45;&gt;raft_log_maybe_commit -->
<g id="edge78" class="edge">
<title>maybe_commit&#45;&gt;raft_log_maybe_commit</title>
<path fill="none" stroke="#666666" d="M699.55,-1267.81C725.63,-1261.53 758.16,-1253.68 787.97,-1246.5"/>
<polygon fill="#666666" stroke="#666666" points="789.07,-1249.83 797.97,-1244.09 787.42,-1243.03 789.07,-1249.83"/>
</g>
<!-- maximal_committed_index -->
<g id="node61" class="node">
<title>maximal_committed_index</title>
<path fill="none" stroke="#1c2123" d="M946,-1298C946,-1298 802,-1298 802,-1298 796,-1298 790,-1292 790,-1286 790,-1286 790,-1274 790,-1274 790,-1268 796,-1262 802,-1262 802,-1262 946,-1262 946,-1262 952,-1262 958,-1268 958,-1274 958,-1274 958,-1286 958,-1286 958,-1292 952,-1298 946,-1298"/>
<text text-anchor="middle" x="874" y="-1276.3" font-family="Times,serif" font-size="14.00" fill="#2f3638">maximal_committed_index</text>
</g>
<!-- maybe_commit&#45;&gt;maximal_committed_index -->
<g id="edge79" class="edge">
<title>maybe_commit&#45;&gt;maximal_committed_index</title>
<path fill="none" stroke="#666666" d="M699.55,-1280C723.22,-1280 752.2,-1280 779.65,-1280"/>
<polygon fill="#666666" stroke="#666666" points="779.67,-1283.5 789.67,-1280 779.67,-1276.5 779.67,-1283.5"/>
</g>
<!-- commited -->
<g id="node62" class="node">
<title>commited</title>
<path fill="none" stroke="#1c2123" d="M1083.5,-1701C1083.5,-1701 1035.5,-1701 1035.5,-1701 1029.5,-1701 1023.5,-1695 1023.5,-1689 1023.5,-1689 1023.5,-1677 1023.5,-1677 1023.5,-1671 1029.5,-1665 1035.5,-1665 1035.5,-1665 1083.5,-1665 1083.5,-1665 1089.5,-1665 1095.5,-1671 1095.5,-1677 1095.5,-1677 1095.5,-1689 1095.5,-1689 1095.5,-1695 1089.5,-1701 1083.5,-1701"/>
<text text-anchor="middle" x="1059.5" y="-1679.3" font-family="Times,serif" font-size="14.00" fill="#2f3638">commited</text>
</g>
<!-- commit_to&#45;&gt;commited -->
<g id="edge81" class="edge">
<title>commit_to&#45;&gt;commited</title>
<path fill="none" stroke="#666666" d="M912.58,-1683C941.78,-1683 982.39,-1683 1013.36,-1683"/>
<polygon fill="#666666" stroke="#666666" points="1013.46,-1686.5 1023.46,-1683 1013.46,-1679.5 1013.46,-1686.5"/>
</g>
<!-- vote_result -->
<g id="node48" class="node">
<title>vote_result</title>
<path fill="none" stroke="#1c2123" d="M900.5,-390C900.5,-390 847.5,-390 847.5,-390 841.5,-390 835.5,-384 835.5,-378 835.5,-378 835.5,-366 835.5,-366 835.5,-360 841.5,-354 847.5,-354 847.5,-354 900.5,-354 900.5,-354 906.5,-354 912.5,-360 912.5,-366 912.5,-366 912.5,-378 912.5,-378 912.5,-384 906.5,-390 900.5,-390"/>
<text text-anchor="middle" x="874" y="-368.3" font-family="Times,serif" font-size="14.00" fill="#2f3638">vote_result</text>
</g>
<!-- tally_votes&#45;&gt;vote_result -->
<g id="edge60" class="edge">
<title>tally_votes&#45;&gt;vote_result</title>
<path fill="none" stroke="#666666" d="M686.24,-372C724.32,-372 783.61,-372 825.14,-372"/>
<polygon fill="#666666" stroke="#666666" points="825.3,-375.5 835.3,-372 825.3,-368.5 825.3,-375.5"/>
</g>
<!-- send_append&#45;&gt;maybe_send_append -->
<g id="edge63" class="edge">
<title>send_append&#45;&gt;maybe_send_append</title>
<path fill="none" stroke="#666666" d="M893.27,-652.02C926.02,-684.32 994.83,-752.19 1032.49,-789.35"/>
<polygon fill="#666666" stroke="#666666" points="1030.46,-792.26 1040.04,-796.79 1035.37,-787.27 1030.46,-792.26"/>
</g>
<!-- prepare_send_entries -->
<g id="node51" class="node">
<title>prepare_send_entries</title>
<path fill="none" stroke="#1c2123" d="M1286,-860C1286,-860 1179,-860 1179,-860 1173,-860 1167,-854 1167,-848 1167,-848 1167,-836 1167,-836 1167,-830 1173,-824 1179,-824 1179,-824 1286,-824 1286,-824 1292,-824 1298,-830 1298,-836 1298,-836 1298,-848 1298,-848 1298,-854 1292,-860 1286,-860"/>
<text text-anchor="middle" x="1232.5" y="-838.3" font-family="Times,serif" font-size="14.00" fill="#2f3638">prepare_send_entries</text>
</g>
<!-- maybe_send_append&#45;&gt;prepare_send_entries -->
<g id="edge64" class="edge">
<title>maybe_send_append&#45;&gt;prepare_send_entries</title>
<path fill="none" stroke="#666666" d="M1125.15,-825.21C1135.47,-826.84 1146.22,-828.53 1156.75,-830.2"/>
<polygon fill="#666666" stroke="#666666" points="1156.34,-833.68 1166.76,-831.78 1157.43,-826.76 1156.34,-833.68"/>
</g>
<!-- prepare_send_snapshot -->
<g id="node52" class="node">
<title>prepare_send_snapshot</title>
<path fill="none" stroke="#1c2123" d="M1292,-806C1292,-806 1173,-806 1173,-806 1167,-806 1161,-800 1161,-794 1161,-794 1161,-782 1161,-782 1161,-776 1167,-770 1173,-770 1173,-770 1292,-770 1292,-770 1298,-770 1304,-776 1304,-782 1304,-782 1304,-794 1304,-794 1304,-800 1298,-806 1292,-806"/>
<text text-anchor="middle" x="1232.5" y="-784.3" font-family="Times,serif" font-size="14.00" fill="#2f3638">prepare_send_snapshot</text>
</g>
<!-- maybe_send_append&#45;&gt;prepare_send_snapshot -->
<g id="edge65" class="edge">
<title>maybe_send_append&#45;&gt;prepare_send_snapshot</title>
<path fill="none" stroke="#666666" d="M1125.15,-804.79C1133.51,-803.47 1142.15,-802.11 1150.73,-800.75"/>
<polygon fill="#666666" stroke="#666666" points="1151.43,-804.19 1160.76,-799.17 1150.33,-797.27 1151.43,-804.19"/>
</g>
<!-- committed -->
<g id="node63" class="node">
<title>committed</title>
<path fill="#79d8ce" stroke="#60b5ac" d="M12,-1417C12,-1417 137,-1417 137,-1417 143,-1417 149,-1423 149,-1429 149,-1429 149,-1527 149,-1527 149,-1533 143,-1539 137,-1539 137,-1539 12,-1539 12,-1539 6,-1539 0,-1533 0,-1527 0,-1527 0,-1429 0,-1429 0,-1423 6,-1417 12,-1417"/>
<text text-anchor="middle" x="74.5" y="-1523.8" font-family="Times,serif" font-size="14.00" fill="#5d6179">committed</text>
<polyline fill="none" stroke="#60b5ac" points="0,-1516 149,-1516 "/>
<text text-anchor="middle" x="74.5" y="-1500.8" font-family="Times,serif" font-size="14.00" fill="#5d6179">RaftLog</text>
<polyline fill="none" stroke="#60b5ac" points="0,-1493 149,-1493 "/>
<text text-anchor="start" x="8" y="-1477.8" font-family="Times,serif" font-size="14.00" fill="#5d6179">pub committed: u64</text>
<polyline fill="none" stroke="#60b5ac" points="0,-1470 149,-1470 "/>
<text text-anchor="start" x="8" y="-1454.8" font-family="Times,serif" font-size="14.00" fill="#5d6179">The highest log position</text>
<text text-anchor="start" x="8" y="-1439.8" font-family="Times,serif" font-size="14.00" fill="#5d6179"> that is known to be</text>
<text text-anchor="start" x="8" y="-1424.8" font-family="Times,serif" font-size="14.00" fill="#5d6179"> in stable storage</text>
</g>
</g>
</svg>
