<?xml version="1.0" encoding="UTF-8" standalone="no"?>
<!DOCTYPE svg PUBLIC "-//W3C//DTD SVG 1.1//EN"
 "http://www.w3.org/Graphics/SVG/1.1/DTD/svg11.dtd">
<!-- Generated by graphviz version 2.47.1 (20210417.1919)
 -->
<!-- Title: lease_renew Pages: 1 -->
<svg width="1103pt" height="152pt"
 viewBox="0.00 0.00 1103.00 152.00" xmlns="http://www.w3.org/2000/svg" xmlns:xlink="http://www.w3.org/1999/xlink">
<g id="graph0" class="graph" transform="scale(1 1) rotate(0) translate(4 148)">
<title>lease_renew</title>
<polygon fill="white" stroke="transparent" points="-4,4 -4,-148 1099,-148 1099,4 -4,4"/>
<!-- Peer__maybe_renew_leader_lease -->
<g id="node1" class="node">
<title>Peer__maybe_renew_leader_lease</title>
<path fill="none" stroke="#1c2123" d="M910,-90C910,-90 730,-90 730,-90 724,-90 718,-84 718,-78 718,-78 718,-66 718,-66 718,-60 724,-54 730,-54 730,-54 910,-54 910,-54 916,-54 922,-60 922,-66 922,-66 922,-78 922,-78 922,-84 916,-90 910,-90"/>
<text text-anchor="middle" x="820" y="-68.3" font-family="Times,serif" font-size="14.00" fill="#2f3638">Peer__maybe_renew_leader_lease</text>
</g>
<!-- RemoteLease__renew -->
<g id="node2" class="node">
<title>RemoteLease__renew</title>
<path fill="none" stroke="#1c2123" d="M1083,-90C1083,-90 970,-90 970,-90 964,-90 958,-84 958,-78 958,-78 958,-66 958,-66 958,-60 964,-54 970,-54 970,-54 1083,-54 1083,-54 1089,-54 1095,-60 1095,-66 1095,-66 1095,-78 1095,-78 1095,-84 1089,-90 1083,-90"/>
<text text-anchor="middle" x="1026.5" y="-68.3" font-family="Times,serif" font-size="14.00" fill="#2f3638">RemoteLease__renew</text>
</g>
<!-- Peer__maybe_renew_leader_lease&#45;&gt;RemoteLease__renew -->
<g id="edge1" class="edge">
<title>Peer__maybe_renew_leader_lease&#45;&gt;RemoteLease__renew</title>
<path fill="none" stroke="#666666" d="M922.05,-72C930.71,-72 939.38,-72 947.81,-72"/>
<polygon fill="#666666" stroke="#666666" points="947.96,-75.5 957.96,-72 947.96,-68.5 947.96,-75.5"/>
</g>
<!-- Peer__apply_reads -->
<g id="node3" class="node">
<title>Peer__apply_reads</title>
<path fill="none" stroke="#1c2123" d="M623,-144C623,-144 528,-144 528,-144 522,-144 516,-138 516,-132 516,-132 516,-120 516,-120 516,-114 522,-108 528,-108 528,-108 623,-108 623,-108 629,-108 635,-114 635,-120 635,-120 635,-132 635,-132 635,-138 629,-144 623,-144"/>
<text text-anchor="middle" x="575.5" y="-122.3" font-family="Times,serif" font-size="14.00" fill="#2f3638">Peer__apply_reads</text>
</g>
<!-- Peer__apply_reads&#45;&gt;Peer__maybe_renew_leader_lease -->
<g id="edge2" class="edge">
<title>Peer__apply_reads&#45;&gt;Peer__maybe_renew_leader_lease</title>
<path fill="none" stroke="#666666" d="M635.2,-112.93C663.03,-106.73 696.91,-99.19 727.96,-92.27"/>
<polygon fill="#666666" stroke="#666666" points="728.93,-95.64 737.93,-90.05 727.41,-88.81 728.93,-95.64"/>
</g>
<!-- Peer__handle_raft_comitted_entries -->
<g id="node4" class="node">
<title>Peer__handle_raft_comitted_entries</title>
<path fill="none" stroke="#1c2123" d="M670,-90C670,-90 481,-90 481,-90 475,-90 469,-84 469,-78 469,-78 469,-66 469,-66 469,-60 475,-54 481,-54 481,-54 670,-54 670,-54 676,-54 682,-60 682,-66 682,-66 682,-78 682,-78 682,-84 676,-90 670,-90"/>
<text text-anchor="middle" x="575.5" y="-68.3" font-family="Times,serif" font-size="14.00" fill="#2f3638">Peer__handle_raft_comitted_entries</text>
</g>
<!-- Peer__handle_raft_comitted_entries&#45;&gt;Peer__maybe_renew_leader_lease -->
<g id="edge3" class="edge">
<title>Peer__handle_raft_comitted_entries&#45;&gt;Peer__maybe_renew_leader_lease</title>
<path fill="none" stroke="#666666" d="M682.16,-72C690.69,-72 699.33,-72 707.89,-72"/>
<polygon fill="#666666" stroke="#666666" points="707.91,-75.5 717.91,-72 707.91,-68.5 707.91,-75.5"/>
</g>
<!-- Peer__on_role_changed -->
<g id="node5" class="node">
<title>Peer__on_role_changed</title>
<path fill="none" stroke="#1c2123" d="M637,-36C637,-36 514,-36 514,-36 508,-36 502,-30 502,-24 502,-24 502,-12 502,-12 502,-6 508,0 514,0 514,0 637,0 637,0 643,0 649,-6 649,-12 649,-12 649,-24 649,-24 649,-30 643,-36 637,-36"/>
<text text-anchor="middle" x="575.5" y="-14.3" font-family="Times,serif" font-size="14.00" fill="#2f3638">Peer__on_role_changed</text>
</g>
<!-- Peer__on_role_changed&#45;&gt;Peer__maybe_renew_leader_lease -->
<g id="edge4" class="edge">
<title>Peer__on_role_changed&#45;&gt;Peer__maybe_renew_leader_lease</title>
<path fill="none" stroke="#666666" d="M649.26,-34.2C674,-39.71 701.97,-45.94 727.96,-51.73"/>
<polygon fill="#666666" stroke="#666666" points="727.29,-55.16 737.81,-53.92 728.81,-48.33 727.29,-55.16"/>
</g>
<!-- Peer__handle_raft_ready_append -->
<g id="node6" class="node">
<title>Peer__handle_raft_ready_append</title>
<path fill="none" stroke="#1c2123" d="M421,-90C421,-90 247,-90 247,-90 241,-90 235,-84 235,-78 235,-78 235,-66 235,-66 235,-60 241,-54 247,-54 247,-54 421,-54 421,-54 427,-54 433,-60 433,-66 433,-66 433,-78 433,-78 433,-84 427,-90 421,-90"/>
<text text-anchor="middle" x="334" y="-68.3" font-family="Times,serif" font-size="14.00" fill="#2f3638">Peer__handle_raft_ready_append</text>
</g>
<!-- Peer__handle_raft_ready_append&#45;&gt;Peer__apply_reads -->
<g id="edge5" class="edge">
<title>Peer__handle_raft_ready_append&#45;&gt;Peer__apply_reads</title>
<path fill="none" stroke="#666666" d="M415.08,-90.06C444.52,-96.69 477.56,-104.14 505.9,-110.53"/>
<polygon fill="#666666" stroke="#666666" points="505.19,-113.96 515.71,-112.75 506.73,-107.13 505.19,-113.96"/>
</g>
<!-- Peer__handle_raft_ready_append&#45;&gt;Peer__handle_raft_comitted_entries -->
<g id="edge6" class="edge">
<title>Peer__handle_raft_ready_append&#45;&gt;Peer__handle_raft_comitted_entries</title>
<path fill="none" stroke="#666666" d="M433.1,-72C441.55,-72 450.15,-72 458.72,-72"/>
<polygon fill="#666666" stroke="#666666" points="458.76,-75.5 468.76,-72 458.76,-68.5 458.76,-75.5"/>
</g>
<!-- Peer__handle_raft_ready_append&#45;&gt;Peer__on_role_changed -->
<g id="edge7" class="edge">
<title>Peer__handle_raft_ready_append&#45;&gt;Peer__on_role_changed</title>
<path fill="none" stroke="#666666" d="M415.08,-53.94C439.81,-48.37 467.09,-42.22 491.98,-36.61"/>
<polygon fill="#666666" stroke="#666666" points="492.77,-40.02 501.75,-34.4 491.23,-33.19 492.77,-40.02"/>
</g>
<!-- PeerFsmDelegate__collect_ready -->
<g id="node7" class="node">
<title>PeerFsmDelegate__collect_ready</title>
<path fill="none" stroke="#1c2123" d="M187,-90C187,-90 12,-90 12,-90 6,-90 0,-84 0,-78 0,-78 0,-66 0,-66 0,-60 6,-54 12,-54 12,-54 187,-54 187,-54 193,-54 199,-60 199,-66 199,-66 199,-78 199,-78 199,-84 193,-90 187,-90"/>
<text text-anchor="middle" x="99.5" y="-68.3" font-family="Times,serif" font-size="14.00" fill="#2f3638">PeerFsmDelegate__collect_ready</text>
</g>
<!-- PeerFsmDelegate__collect_ready&#45;&gt;Peer__handle_raft_ready_append -->
<g id="edge8" class="edge">
<title>PeerFsmDelegate__collect_ready&#45;&gt;Peer__handle_raft_ready_append</title>
<path fill="none" stroke="#666666" d="M199.1,-72C207.64,-72 216.31,-72 224.92,-72"/>
<polygon fill="#666666" stroke="#666666" points="224.99,-75.5 234.99,-72 224.99,-68.5 224.99,-75.5"/>
</g>
</g>
</svg>
