<?xml version="1.0" encoding="UTF-8" standalone="no"?>
<!DOCTYPE svg PUBLIC "-//W3C//DTD SVG 1.1//EN"
 "http://www.w3.org/Graphics/SVG/1.1/DTD/svg11.dtd">
<!-- Generated by graphviz version 2.47.1 (20210417.1919)
 -->
<!-- Title: slow_hash_map Pages: 1 -->
<svg width="990pt" height="259pt"
 viewBox="0.00 0.00 990.00 258.50" xmlns="http://www.w3.org/2000/svg" xmlns:xlink="http://www.w3.org/1999/xlink">
<g id="graph0" class="graph" transform="scale(1 1) rotate(0) translate(4 254.5)">
<title>slow_hash_map</title>
<polygon fill="white" stroke="transparent" points="-4,4 -4,-254.5 986,-254.5 986,4 -4,4"/>
<!-- rows -->
<g id="node1" class="node">
<title>rows</title>
<path fill="#de3737" stroke="#000000" d="M12,-24C12,-24 103,-24 103,-24 109,-24 115,-30 115,-36 115,-36 115,-127 115,-127 115,-133 109,-139 103,-139 103,-139 12,-139 12,-139 6,-139 0,-133 0,-127 0,-127 0,-36 0,-36 0,-30 6,-24 12,-24"/>
<text text-anchor="middle" x="57.5" y="-123.8" font-family="Times,serif" font-size="14.00" fill="#ffffff">rows</text>
<polyline fill="none" stroke="#000000" points="0,-116 115,-116 "/>
<text text-anchor="middle" x="13.5" y="-100.8" font-family="Times,serif" font-size="14.00" fill="#ffffff">i</text>
<polyline fill="none" stroke="#000000" points="27,-93 27,-116 "/>
<text text-anchor="middle" x="71" y="-100.8" font-family="Times,serif" font-size="14.00" fill="#ffffff">ai, bi, ci, di</text>
<polyline fill="none" stroke="#000000" points="0,-93 115,-93 "/>
<text text-anchor="middle" x="13.5" y="-77.8" font-family="Times,serif" font-size="14.00" fill="#ffffff">j</text>
<polyline fill="none" stroke="#000000" points="27,-70 27,-93 "/>
<text text-anchor="middle" x="71" y="-77.8" font-family="Times,serif" font-size="14.00" fill="#ffffff">aj, bj, cj, dj</text>
<polyline fill="none" stroke="#000000" points="0,-70 115,-70 "/>
<text text-anchor="middle" x="11.5" y="-54.8" font-family="Times,serif" font-size="14.00" fill="#ffffff">k</text>
<polyline fill="none" stroke="#000000" points="23,-47 23,-70 "/>
<text text-anchor="middle" x="69" y="-54.8" font-family="Times,serif" font-size="14.00" fill="#ffffff">ak, bk, ck, dk</text>
<polyline fill="none" stroke="#000000" points="0,-47 115,-47 "/>
<text text-anchor="middle" x="57.5" y="-31.8" font-family="Times,serif" font-size="14.00" fill="#ffffff">...</text>
</g>
<!-- group_key_buffer -->
<g id="node2" class="node">
<title>group_key_buffer</title>
<path fill="#a2dbfa" stroke="#8a8898" d="M163,-0.5C163,-0.5 404,-0.5 404,-0.5 410,-0.5 416,-6.5 416,-12.5 416,-12.5 416,-126.5 416,-126.5 416,-132.5 410,-138.5 404,-138.5 404,-138.5 163,-138.5 163,-138.5 157,-138.5 151,-132.5 151,-126.5 151,-126.5 151,-12.5 151,-12.5 151,-6.5 157,-0.5 163,-0.5"/>
<text text-anchor="middle" x="283.5" y="-123.3" font-family="Times,serif" font-size="14.00" fill="#5d6179">group_key_buffer</text>
<polyline fill="none" stroke="#8a8898" points="151,-115.5 416,-115.5 "/>
<text text-anchor="middle" x="163" y="-100.3" font-family="Times,serif" font-size="14.00" fill="#5d6179">i</text>
<polyline fill="none" stroke="#8a8898" points="175,-92.5 175,-115.5 "/>
<text text-anchor="middle" x="295.5" y="-100.3" font-family="Times,serif" font-size="14.00" fill="#5d6179">group_exp_eval(ai), group_exp_eval(bi)</text>
<polyline fill="none" stroke="#8a8898" points="151,-92.5 416,-92.5 "/>
<text text-anchor="middle" x="163" y="-77.3" font-family="Times,serif" font-size="14.00" fill="#5d6179">j</text>
<polyline fill="none" stroke="#8a8898" points="175,-69.5 175,-92.5 "/>
<text text-anchor="middle" x="295.5" y="-77.3" font-family="Times,serif" font-size="14.00" fill="#5d6179">group_exp_eval(aj), group_exp_eval(bj)</text>
<polyline fill="none" stroke="#8a8898" points="151,-69.5 416,-69.5 "/>
<text text-anchor="middle" x="283.5" y="-54.3" font-family="Times,serif" font-size="14.00" fill="#5d6179">...</text>
<polyline fill="none" stroke="#8a8898" points="151,-46.5 416,-46.5 "/>
<text text-anchor="middle" x="162.5" y="-31.3" font-family="Times,serif" font-size="14.00" fill="#5d6179">k</text>
<polyline fill="none" stroke="#8a8898" points="174,-23.5 174,-46.5 "/>
<text text-anchor="middle" x="295" y="-31.3" font-family="Times,serif" font-size="14.00" fill="#5d6179">group_exp_eval(ak), group_exp_eval(bk)</text>
<polyline fill="none" stroke="#8a8898" points="151,-23.5 416,-23.5 "/>
<text text-anchor="middle" x="283.5" y="-8.3" font-family="Times,serif" font-size="14.00" fill="#5d6179">...</text>
</g>
<!-- rows&#45;&gt;group_key_buffer -->
<g id="edge1" class="edge">
<title>rows:i&#45;&gt;group_key_buffer:ri</title>
<path fill="none" stroke="#666666" d="M115.07,-100.23C123.52,-102.04 132.3,-103.46 140.94,-104.11"/>
<polygon fill="#666666" stroke="#666666" points="140.87,-107.61 151,-104.5 141.14,-100.61 140.87,-107.61"/>
</g>
<!-- rows&#45;&gt;group_key_buffer -->
<g id="edge2" class="edge">
<title>rows:j&#45;&gt;group_key_buffer:rj</title>
<path fill="none" stroke="#666666" d="M115.36,-81.5C123.74,-81.5 132.39,-81.5 140.84,-81.5"/>
<polygon fill="#666666" stroke="#666666" points="141,-85 151,-81.5 141,-78 141,-85"/>
</g>
<!-- rows&#45;&gt;group_key_buffer -->
<g id="edge3" class="edge">
<title>rows:k&#45;&gt;group_key_buffer:rk</title>
<path fill="none" stroke="#666666" d="M115.23,-42.47C123.42,-39.06 132.03,-36.43 140.74,-35.23"/>
<polygon fill="#666666" stroke="#666666" points="141.27,-38.7 151,-34.5 140.78,-31.72 141.27,-38.7"/>
</g>
<!-- group_key_ref_i -->
<g id="node3" class="node">
<title>group_key_ref_i</title>
<path fill="none" stroke="#1c2123" d="M464,-118.5C464,-118.5 632,-118.5 632,-118.5 638,-118.5 644,-124.5 644,-130.5 644,-130.5 644,-228.5 644,-228.5 644,-234.5 638,-240.5 632,-240.5 632,-240.5 464,-240.5 464,-240.5 458,-240.5 452,-234.5 452,-228.5 452,-228.5 452,-130.5 452,-130.5 452,-124.5 458,-118.5 464,-118.5"/>
<text text-anchor="middle" x="548" y="-225.3" font-family="Times,serif" font-size="14.00" fill="#2f3638">group_key_ref_i</text>
<polyline fill="none" stroke="#1c2123" points="452,-217.5 644,-217.5 "/>
<text text-anchor="start" x="460" y="-202.3" font-family="Times,serif" font-size="14.00" fill="#2f3638">buf, start, end</text>
<polyline fill="none" stroke="#1c2123" points="452,-194.5 644,-194.5 "/>
<text text-anchor="start" x="460" y="-179.3" font-family="Times,serif" font-size="14.00" fill="#2f3638">记录了第i行的group eval结果</text>
<text text-anchor="start" x="460" y="-164.3" font-family="Times,serif" font-size="14.00" fill="#2f3638"> 在group_key_buffer中的位置</text>
<polyline fill="none" stroke="#1c2123" points="452,-156.5 644,-156.5 "/>
<text text-anchor="start" x="460" y="-141.3" font-family="Times,serif" font-size="14.00" fill="#2f3638">计算buf[start:end]的hash值</text>
<text text-anchor="start" x="460" y="-126.3" font-family="Times,serif" font-size="14.00" fill="#2f3638"> 得到groups中的key</text>
</g>
<!-- group_key_buffer&#45;&gt;group_key_ref_i -->
<g id="edge4" class="edge">
<title>group_key_buffer:i&#45;&gt;group_key_ref_i</title>
<path fill="none" stroke="#666666" d="M416,-104.5C431.16,-104.5 446.15,-108.33 460.28,-114.25"/>
<polygon fill="#666666" stroke="#666666" points="458.88,-117.46 469.44,-118.43 461.79,-111.1 458.88,-117.46"/>
</g>
<!-- group_key_ref_j -->
<g id="node4" class="node">
<title>group_key_ref_j</title>
<path fill="none" stroke="#1c2123" d="M506.5,-63.5C506.5,-63.5 589.5,-63.5 589.5,-63.5 595.5,-63.5 601.5,-69.5 601.5,-75.5 601.5,-75.5 601.5,-87.5 601.5,-87.5 601.5,-93.5 595.5,-99.5 589.5,-99.5 589.5,-99.5 506.5,-99.5 506.5,-99.5 500.5,-99.5 494.5,-93.5 494.5,-87.5 494.5,-87.5 494.5,-75.5 494.5,-75.5 494.5,-69.5 500.5,-63.5 506.5,-63.5"/>
<text text-anchor="middle" x="548" y="-77.8" font-family="Times,serif" font-size="14.00" fill="#2f3638">group_key_ref_j</text>
</g>
<!-- group_key_buffer&#45;&gt;group_key_ref_j -->
<g id="edge5" class="edge">
<title>group_key_buffer:j&#45;&gt;group_key_ref_j</title>
<path fill="none" stroke="#666666" d="M416,-81.5C438.28,-81.5 462.7,-81.5 484.35,-81.5"/>
<polygon fill="#666666" stroke="#666666" points="484.41,-85 494.41,-81.5 484.41,-78 484.41,-85"/>
</g>
<!-- group_key_ref_k -->
<g id="node5" class="node">
<title>group_key_ref_k</title>
<path fill="none" stroke="#1c2123" d="M505,-8.5C505,-8.5 591,-8.5 591,-8.5 597,-8.5 603,-14.5 603,-20.5 603,-20.5 603,-32.5 603,-32.5 603,-38.5 597,-44.5 591,-44.5 591,-44.5 505,-44.5 505,-44.5 499,-44.5 493,-38.5 493,-32.5 493,-32.5 493,-20.5 493,-20.5 493,-14.5 499,-8.5 505,-8.5"/>
<text text-anchor="middle" x="548" y="-22.8" font-family="Times,serif" font-size="14.00" fill="#2f3638">group_key_ref_k</text>
</g>
<!-- group_key_buffer&#45;&gt;group_key_ref_k -->
<g id="edge6" class="edge">
<title>group_key_buffer:k&#45;&gt;group_key_ref_k</title>
<path fill="none" stroke="#666666" d="M416,-34.5C437.74,-34.5 461.46,-33.39 482.68,-32"/>
<polygon fill="#666666" stroke="#666666" points="483.13,-35.47 492.87,-31.29 482.65,-28.49 483.13,-35.47"/>
</g>
<!-- groups -->
<g id="node6" class="node">
<title>groups</title>
<path fill="#feed9b" stroke="#f7e495" d="M722,-23.5C722,-23.5 825,-23.5 825,-23.5 831,-23.5 837,-29.5 837,-35.5 837,-35.5 837,-103.5 837,-103.5 837,-109.5 831,-115.5 825,-115.5 825,-115.5 722,-115.5 722,-115.5 716,-115.5 710,-109.5 710,-103.5 710,-103.5 710,-35.5 710,-35.5 710,-29.5 716,-23.5 722,-23.5"/>
<text text-anchor="middle" x="773.5" y="-100.3" font-family="Times,serif" font-size="14.00" fill="#40575d">groups</text>
<polyline fill="none" stroke="#f7e495" points="710,-92.5 837,-92.5 "/>
<text text-anchor="start" x="718" y="-77.3" font-family="Times,serif" font-size="14.00" fill="#40575d">group hash key &#45;&gt; 0</text>
<polyline fill="none" stroke="#f7e495" points="710,-69.5 837,-69.5 "/>
<text text-anchor="start" x="718" y="-54.3" font-family="Times,serif" font-size="14.00" fill="#40575d">group hash key &#45;&gt; 2</text>
<polyline fill="none" stroke="#f7e495" points="710,-46.5 837,-46.5 "/>
<text text-anchor="middle" x="773.5" y="-31.3" font-family="Times,serif" font-size="14.00" fill="#40575d">...</text>
</g>
<!-- group_key_ref_i&#45;&gt;groups -->
<g id="edge7" class="edge">
<title>group_key_ref_i&#45;&gt;groups:1</title>
<path fill="none" stroke="#666666" d="M630.95,-118.27C655.57,-101.87 680.73,-87.41 698.48,-82.93"/>
<polygon fill="#666666" stroke="#666666" points="699.1,-86.38 708.5,-81.5 698.11,-79.45 699.1,-86.38"/>
</g>
<!-- group_key_ref_j&#45;&gt;groups -->
<g id="edge8" class="edge">
<title>group_key_ref_j&#45;&gt;groups:1</title>
<path fill="none" stroke="#666666" d="M601.8,-81.5C629.96,-81.5 665.49,-81.5 698.39,-81.5"/>
<polygon fill="#666666" stroke="#666666" points="698.5,-85 708.5,-81.5 698.5,-78 698.5,-85"/>
</g>
<!-- group_key_ref_k&#45;&gt;groups -->
<g id="edge9" class="edge">
<title>group_key_ref_k&#45;&gt;groups:2</title>
<path fill="none" stroke="#666666" d="M603.12,-42.36C630.89,-49.28 665.68,-56.09 698.42,-57.31"/>
<polygon fill="#666666" stroke="#666666" points="698.44,-60.81 708.5,-57.5 698.57,-53.81 698.44,-60.81"/>
</g>
<!-- states -->
<g id="node7" class="node">
<title>states</title>
<path fill="#a2dbfa" stroke="#8a8898" d="M915,-88.5C915,-88.5 970,-88.5 970,-88.5 976,-88.5 982,-94.5 982,-100.5 982,-100.5 982,-214.5 982,-214.5 982,-220.5 976,-226.5 970,-226.5 970,-226.5 915,-226.5 915,-226.5 909,-226.5 903,-220.5 903,-214.5 903,-214.5 903,-100.5 903,-100.5 903,-94.5 909,-88.5 915,-88.5"/>
<text text-anchor="middle" x="942.5" y="-211.3" font-family="Times,serif" font-size="14.00" fill="#5d6179">states</text>
<polyline fill="none" stroke="#8a8898" points="903,-203.5 982,-203.5 "/>
<text text-anchor="middle" x="915.5" y="-188.3" font-family="Times,serif" font-size="14.00" fill="#5d6179">0</text>
<polyline fill="none" stroke="#8a8898" points="928,-180.5 928,-203.5 "/>
<text text-anchor="start" x="936" y="-188.3" font-family="Times,serif" font-size="14.00" fill="#5d6179">avg(c)</text>
<polyline fill="none" stroke="#8a8898" points="903,-180.5 982,-180.5 "/>
<text text-anchor="middle" x="914.5" y="-165.3" font-family="Times,serif" font-size="14.00" fill="#5d6179">1</text>
<polyline fill="none" stroke="#8a8898" points="926,-157.5 926,-180.5 "/>
<text text-anchor="middle" x="954" y="-165.3" font-family="Times,serif" font-size="14.00" fill="#5d6179">sum(d)</text>
<polyline fill="none" stroke="#8a8898" points="903,-157.5 982,-157.5 "/>
<text text-anchor="middle" x="915.5" y="-142.3" font-family="Times,serif" font-size="14.00" fill="#5d6179">2</text>
<polyline fill="none" stroke="#8a8898" points="928,-134.5 928,-157.5 "/>
<text text-anchor="middle" x="955" y="-142.3" font-family="Times,serif" font-size="14.00" fill="#5d6179">avg(c)</text>
<polyline fill="none" stroke="#8a8898" points="903,-134.5 982,-134.5 "/>
<text text-anchor="middle" x="914.5" y="-119.3" font-family="Times,serif" font-size="14.00" fill="#5d6179">3</text>
<polyline fill="none" stroke="#8a8898" points="926,-111.5 926,-134.5 "/>
<text text-anchor="middle" x="954" y="-119.3" font-family="Times,serif" font-size="14.00" fill="#5d6179">sum(d)</text>
<polyline fill="none" stroke="#8a8898" points="903,-111.5 982,-111.5 "/>
<text text-anchor="middle" x="942.5" y="-96.3" font-family="Times,serif" font-size="14.00" fill="#5d6179">...</text>
</g>
<!-- groups&#45;&gt;states -->
<g id="edge10" class="edge">
<title>groups:1&#45;&gt;states:1</title>
<path fill="none" stroke="#666666" d="M838.5,-81.5C859.26,-81.5 878.63,-91.49 894.9,-104.23"/>
<polygon fill="#666666" stroke="#666666" points="892.71,-106.95 902.63,-110.67 897.19,-101.58 892.71,-106.95"/>
</g>
<!-- groups&#45;&gt;states -->
<g id="edge11" class="edge">
<title>groups:2&#45;&gt;states:2</title>
<path fill="none" stroke="#666666" d="M838.5,-57.5C860.76,-57.5 880.11,-69.56 895.87,-85.3"/>
<polygon fill="#666666" stroke="#666666" points="893.47,-87.85 902.86,-92.76 898.58,-83.07 893.47,-87.85"/>
</g>
<!-- states_offset_each_logical_row -->
<g id="node8" class="node">
<title>states_offset_each_logical_row</title>
<path fill="#de3737" stroke="#000000" d="M692,-135C692,-135 855,-135 855,-135 861,-135 867,-141 867,-147 867,-147 867,-238 867,-238 867,-244 861,-250 855,-250 855,-250 692,-250 692,-250 686,-250 680,-244 680,-238 680,-238 680,-147 680,-147 680,-141 686,-135 692,-135"/>
<text text-anchor="middle" x="773.5" y="-234.8" font-family="Times,serif" font-size="14.00" fill="#ffffff">states_offset_each_logical_row</text>
<polyline fill="none" stroke="#000000" points="680,-227 867,-227 "/>
<text text-anchor="middle" x="726" y="-211.8" font-family="Times,serif" font-size="14.00" fill="#ffffff">i</text>
<polyline fill="none" stroke="#000000" points="772,-204 772,-227 "/>
<text text-anchor="middle" x="819.5" y="-211.8" font-family="Times,serif" font-size="14.00" fill="#ffffff">0</text>
<polyline fill="none" stroke="#000000" points="680,-204 867,-204 "/>
<text text-anchor="middle" x="726" y="-188.8" font-family="Times,serif" font-size="14.00" fill="#ffffff">j</text>
<polyline fill="none" stroke="#000000" points="772,-181 772,-204 "/>
<text text-anchor="middle" x="819.5" y="-188.8" font-family="Times,serif" font-size="14.00" fill="#ffffff">0</text>
<polyline fill="none" stroke="#000000" points="680,-181 867,-181 "/>
<text text-anchor="middle" x="726.5" y="-165.8" font-family="Times,serif" font-size="14.00" fill="#ffffff">k</text>
<polyline fill="none" stroke="#000000" points="773,-158 773,-181 "/>
<text text-anchor="middle" x="820" y="-165.8" font-family="Times,serif" font-size="14.00" fill="#ffffff">2</text>
<polyline fill="none" stroke="#000000" points="680,-158 867,-158 "/>
<text text-anchor="middle" x="773.5" y="-142.8" font-family="Times,serif" font-size="14.00" fill="#ffffff">...</text>
</g>
<!-- states_offset_each_logical_row&#45;&gt;states -->
<g id="edge12" class="edge">
<title>states_offset_each_logical_row:i&#45;&gt;states:0</title>
<path fill="none" stroke="#666666" d="M867,-215.5C881.83,-215.5 883.87,-201.46 893.11,-195.32"/>
<polygon fill="#666666" stroke="#666666" points="894.34,-198.61 903,-192.5 892.42,-191.88 894.34,-198.61"/>
</g>
<!-- states_offset_each_logical_row&#45;&gt;states -->
<g id="edge13" class="edge">
<title>states_offset_each_logical_row:j&#45;&gt;states:0</title>
<path fill="none" stroke="#666666" d="M867,-192.5C879,-192.5 884.25,-192.5 892.88,-192.5"/>
<polygon fill="#666666" stroke="#666666" points="893,-196 903,-192.5 893,-189 893,-196"/>
</g>
<!-- states_offset_each_logical_row&#45;&gt;states -->
<g id="edge14" class="edge">
<title>states_offset_each_logical_row:k&#45;&gt;states:2</title>
<path fill="none" stroke="#666666" d="M867,-169.5C875.3,-169.5 884.06,-168.78 892.55,-167.7"/>
<polygon fill="#666666" stroke="#666666" points="893.33,-171.12 902.72,-166.22 892.32,-164.2 893.33,-171.12"/>
</g>
</g>
</svg>
