<?xml version="1.0" encoding="UTF-8" standalone="no"?>
<!DOCTYPE svg PUBLIC "-//W3C//DTD SVG 1.1//EN"
 "http://www.w3.org/Graphics/SVG/1.1/DTD/svg11.dtd">
<!-- Generated by graphviz version 2.44.1 (20200629.0846)
 -->
<!-- Title: apply_reads Pages: 1 -->
<svg width="2085pt" height="572pt"
 viewBox="0.00 0.00 2085.00 572.00" xmlns="http://www.w3.org/2000/svg" xmlns:xlink="http://www.w3.org/1999/xlink">
<g id="graph0" class="graph" transform="scale(1 1) rotate(0) translate(4 568)">
<title>apply_reads</title>
<polygon fill="white" stroke="transparent" points="-4,4 -4,-568 2081,-568 2081,4 -4,4"/>
<g id="clust1" class="cluster">
<title>cluster_Callback</title>
<path fill="none" stroke="slategrey" stroke-dasharray="5,2" d="M1298,-194C1298,-194 2057,-194 2057,-194 2063,-194 2069,-200 2069,-206 2069,-206 2069,-298 2069,-298 2069,-304 2063,-310 2057,-310 2057,-310 1298,-310 1298,-310 1292,-310 1286,-304 1286,-298 1286,-298 1286,-206 1286,-206 1286,-200 1292,-194 1298,-194"/>
<text text-anchor="middle" x="1677.5" y="-290" font-family="Times,serif" font-size="20.00">Callback</text>
</g>
<g id="clust3" class="cluster">
<title>cluster_ReadIndexQueue</title>
<path fill="none" stroke="slategrey" stroke-dasharray="5,2" d="M344,-8C344,-8 938,-8 938,-8 944,-8 950,-14 950,-20 950,-20 950,-144 950,-144 950,-150 944,-156 938,-156 938,-156 344,-156 344,-156 338,-156 332,-150 332,-144 332,-144 332,-20 332,-20 332,-14 338,-8 344,-8"/>
<text text-anchor="middle" x="641" y="-136" font-family="Times,serif" font-size="20.00">ReadIndexQueue</text>
</g>
<g id="clust5" class="cluster">
<title>cluster_Peer</title>
<path fill="none" stroke="slategrey" stroke-dasharray="5,2" d="M20,-191C20,-191 1254,-191 1254,-191 1260,-191 1266,-197 1266,-203 1266,-203 1266,-544 1266,-544 1266,-550 1260,-556 1254,-556 1254,-556 20,-556 20,-556 14,-556 8,-550 8,-544 8,-544 8,-203 8,-203 8,-197 14,-191 20,-191"/>
<text text-anchor="middle" x="637" y="-536" font-family="Times,serif" font-size="20.00">Peer</text>
</g>
<!-- Callback -->
<g id="node1" class="node">
<title>Callback</title>
<path fill="#79d8ce" stroke="#60b5ac" d="M1599,-202.5C1599,-202.5 1732,-202.5 1732,-202.5 1738,-202.5 1744,-208.5 1744,-214.5 1744,-214.5 1744,-259.5 1744,-259.5 1744,-265.5 1738,-271.5 1732,-271.5 1732,-271.5 1599,-271.5 1599,-271.5 1593,-271.5 1587,-265.5 1587,-259.5 1587,-259.5 1587,-214.5 1587,-214.5 1587,-208.5 1593,-202.5 1599,-202.5"/>
<text text-anchor="middle" x="1665.5" y="-256.3" font-family="Times,serif" font-size="14.00" fill="#5d6179">pub enum Callback</text>
<polyline fill="none" stroke="#60b5ac" points="1587,-248.5 1744,-248.5 "/>
<text text-anchor="start" x="1595" y="-233.3" font-family="Times,serif" font-size="14.00" fill="#5d6179">Read(ReadCallback&lt;S&gt;),</text>
<polyline fill="none" stroke="#60b5ac" points="1587,-225.5 1744,-225.5 "/>
<text text-anchor="middle" x="1665.5" y="-210.3" font-family="Times,serif" font-size="14.00" fill="#5d6179">...</text>
</g>
<!-- ReadCallback -->
<g id="node2" class="node">
<title>ReadCallback</title>
<path fill="none" stroke="#1c2123" d="M1792,-206.5C1792,-206.5 2049,-206.5 2049,-206.5 2055,-206.5 2061,-212.5 2061,-218.5 2061,-218.5 2061,-255.5 2061,-255.5 2061,-261.5 2055,-267.5 2049,-267.5 2049,-267.5 1792,-267.5 1792,-267.5 1786,-267.5 1780,-261.5 1780,-255.5 1780,-255.5 1780,-218.5 1780,-218.5 1780,-212.5 1786,-206.5 1792,-206.5"/>
<text text-anchor="middle" x="1920.5" y="-252.3" font-family="Times,serif" font-size="14.00" fill="#2f3638">ReadCallback</text>
<polyline fill="none" stroke="#1c2123" points="1780,-244.5 2061,-244.5 "/>
<text text-anchor="start" x="1788" y="-229.3" font-family="Times,serif" font-size="14.00" fill="#2f3638">Box&lt;dyn FnOnce(ReadResponse&lt;S&gt;) + Send&gt;;</text>
<text text-anchor="middle" x="1920.5" y="-214.3" font-family="Times,serif" font-size="14.00" fill="#2f3638"> read回调函数</text>
</g>
<!-- Callback&#45;&gt;ReadCallback -->
<g id="edge1" class="edge">
<title>Callback:read&#45;&gt;ReadCallback</title>
<path fill="none" stroke="#666666" d="M1744,-237C1752.32,-237 1760.87,-237 1769.49,-237"/>
<polygon fill="#666666" stroke="#666666" points="1769.64,-240.5 1779.64,-237 1769.64,-233.5 1769.64,-240.5"/>
</g>
<!-- cb_invoke_read -->
<g id="node3" class="node">
<title>cb_invoke_read</title>
<path fill="none" stroke="#1c2123" d="M1306,-214C1306,-214 1449,-214 1449,-214 1455,-214 1461,-220 1461,-226 1461,-226 1461,-248 1461,-248 1461,-254 1455,-260 1449,-260 1449,-260 1306,-260 1306,-260 1300,-260 1294,-254 1294,-248 1294,-248 1294,-226 1294,-226 1294,-220 1300,-214 1306,-214"/>
<text text-anchor="middle" x="1377.5" y="-244.8" font-family="Times,serif" font-size="14.00" fill="#2f3638">cb_invoke_read</text>
<polyline fill="none" stroke="#1c2123" points="1294,-237 1461,-237 "/>
<text text-anchor="middle" x="1377.5" y="-221.8" font-family="Times,serif" font-size="14.00" fill="#2f3638">调用cmd中的cb回调函数</text>
</g>
<!-- read -->
<g id="node4" class="node">
<title>read</title>
<path fill="none" stroke="#1c2123" d="M1539,-255C1539,-255 1509,-255 1509,-255 1503,-255 1497,-249 1497,-243 1497,-243 1497,-231 1497,-231 1497,-225 1503,-219 1509,-219 1509,-219 1539,-219 1539,-219 1545,-219 1551,-225 1551,-231 1551,-231 1551,-243 1551,-243 1551,-249 1545,-255 1539,-255"/>
<text text-anchor="middle" x="1524" y="-233.3" font-family="Times,serif" font-size="14.00" fill="#2f3638">read</text>
</g>
<!-- cb_invoke_read&#45;&gt;read -->
<g id="edge2" class="edge">
<title>cb_invoke_read&#45;&gt;read</title>
<path fill="none" stroke="#666666" d="M1461.3,-237C1470.14,-237 1478.77,-237 1486.64,-237"/>
<polygon fill="#666666" stroke="#666666" points="1486.85,-240.5 1496.85,-237 1486.85,-233.5 1486.85,-240.5"/>
</g>
<!-- read&#45;&gt;Callback -->
<g id="edge3" class="edge">
<title>read&#45;&gt;Callback:read</title>
<path fill="none" stroke="#666666" d="M1551.25,-237C1559.18,-237 1568.12,-237 1576.88,-237"/>
<polygon fill="#666666" stroke="#666666" points="1577,-240.5 1587,-237 1577,-233.5 1577,-240.5"/>
</g>
<!-- advance_replica_reads -->
<g id="node5" class="node">
<title>advance_replica_reads</title>
<path fill="none" stroke="#1c2123" d="M352,-33C352,-33 530,-33 530,-33 536,-33 542,-39 542,-45 542,-45 542,-105 542,-105 542,-111 536,-117 530,-117 530,-117 352,-117 352,-117 346,-117 340,-111 340,-105 340,-105 340,-45 340,-45 340,-39 346,-33 352,-33"/>
<text text-anchor="middle" x="441" y="-101.8" font-family="Times,serif" font-size="14.00" fill="#2f3638">advance_replica_reads</text>
<polyline fill="none" stroke="#1c2123" points="340,-94 542,-94 "/>
<text text-anchor="start" x="348" y="-78.8" font-family="Times,serif" font-size="14.00" fill="#2f3638">遍历ready.states</text>
<text text-anchor="start" x="348" y="-63.8" font-family="Times,serif" font-size="14.00" fill="#2f3638"> for (uuid, locked, index) in states</text>
<polyline fill="none" stroke="#1c2123" points="340,-56 542,-56 "/>
<text text-anchor="middle" x="441" y="-40.8" font-family="Times,serif" font-size="14.00" fill="#2f3638">...</text>
</g>
<!-- contexts_remove -->
<g id="node6" class="node">
<title>contexts_remove</title>
<path fill="none" stroke="#1c2123" d="M599,-17C599,-17 801,-17 801,-17 807,-17 813,-23 813,-29 813,-29 813,-51 813,-51 813,-57 807,-63 801,-63 801,-63 599,-63 599,-63 593,-63 587,-57 587,-51 587,-51 587,-29 587,-29 587,-23 593,-17 599,-17"/>
<text text-anchor="middle" x="700" y="-47.8" font-family="Times,serif" font-size="14.00" fill="#2f3638">contexts_remove</text>
<polyline fill="none" stroke="#1c2123" points="587,-40 813,-40 "/>
<text text-anchor="middle" x="700" y="-24.8" font-family="Times,serif" font-size="14.00" fill="#2f3638">从hashmap中Pop出uuid对应的index</text>
</g>
<!-- advance_replica_reads&#45;&gt;contexts_remove -->
<g id="edge5" class="edge">
<title>advance_replica_reads&#45;&gt;contexts_remove</title>
<path fill="none" stroke="#666666" d="M542.1,-61.37C553.44,-59.82 565.08,-58.24 576.66,-56.66"/>
<polygon fill="#666666" stroke="#666666" points="577.38,-60.1 586.81,-55.28 576.43,-53.16 577.38,-60.1"/>
</g>
<!-- fold -->
<g id="node8" class="node">
<title>fold</title>
<path fill="none" stroke="#1c2123" d="M715,-118C715,-118 685,-118 685,-118 679,-118 673,-112 673,-106 673,-106 673,-94 673,-94 673,-88 679,-82 685,-82 685,-82 715,-82 715,-82 721,-82 727,-88 727,-94 727,-94 727,-106 727,-106 727,-112 721,-118 715,-118"/>
<text text-anchor="middle" x="700" y="-96.3" font-family="Times,serif" font-size="14.00" fill="#2f3638">fold</text>
</g>
<!-- advance_replica_reads&#45;&gt;fold -->
<g id="edge6" class="edge">
<title>advance_replica_reads&#45;&gt;fold</title>
<path fill="none" stroke="#666666" d="M542.1,-84.74C584.65,-88.88 631.56,-93.44 662.91,-96.49"/>
<polygon fill="#666666" stroke="#666666" points="662.62,-99.98 672.91,-97.46 663.3,-93.01 662.62,-99.98"/>
</g>
<!-- raw_offset -->
<g id="node7" class="node">
<title>raw_offset</title>
<path fill="#feed9b" stroke="#f7e495" d="M880,-22C880,-22 930,-22 930,-22 936,-22 942,-28 942,-34 942,-34 942,-46 942,-46 942,-52 936,-58 930,-58 930,-58 880,-58 880,-58 874,-58 868,-52 868,-46 868,-46 868,-34 868,-34 868,-28 874,-22 880,-22"/>
<text text-anchor="middle" x="905" y="-36.3" font-family="Times,serif" font-size="14.00" fill="#40575d">raw_offset</text>
</g>
<!-- contexts_remove&#45;&gt;raw_offset -->
<g id="edge4" class="edge">
<title>contexts_remove&#45;&gt;raw_offset</title>
<path fill="none" stroke="green" stroke-dasharray="5,2" d="M813.19,-40C828.82,-40 844.1,-40 857.54,-40"/>
<polygon fill="green" stroke="green" points="857.9,-43.5 867.9,-40 857.9,-36.5 857.9,-43.5"/>
</g>
<!-- handle_raft_ready_append -->
<g id="node9" class="node">
<title>handle_raft_ready_append</title>
<path fill="none" stroke="#1c2123" d="M165,-337C165,-337 28,-337 28,-337 22,-337 16,-331 16,-325 16,-325 16,-313 16,-313 16,-307 22,-301 28,-301 28,-301 165,-301 165,-301 171,-301 177,-307 177,-313 177,-313 177,-325 177,-325 177,-331 171,-337 165,-337"/>
<text text-anchor="middle" x="96.5" y="-315.3" font-family="Times,serif" font-size="14.00" fill="#2f3638">handle_raft_ready_append</text>
</g>
<!-- apply_reads -->
<g id="node10" class="node">
<title>apply_reads</title>
<path fill="none" stroke="#1c2123" d="M283,-337C283,-337 225,-337 225,-337 219,-337 213,-331 213,-325 213,-325 213,-313 213,-313 213,-307 219,-301 225,-301 225,-301 283,-301 283,-301 289,-301 295,-307 295,-313 295,-313 295,-325 295,-325 295,-331 289,-337 283,-337"/>
<text text-anchor="middle" x="254" y="-315.3" font-family="Times,serif" font-size="14.00" fill="#2f3638">apply_reads</text>
</g>
<!-- handle_raft_ready_append&#45;&gt;apply_reads -->
<g id="edge7" class="edge">
<title>handle_raft_ready_append&#45;&gt;apply_reads</title>
<path fill="none" stroke="#666666" d="M177.07,-319C185.79,-319 194.48,-319 202.71,-319"/>
<polygon fill="#666666" stroke="#666666" points="202.83,-322.5 212.83,-319 202.83,-315.5 202.83,-322.5"/>
</g>
<!-- apply_reads&#45;&gt;advance_replica_reads -->
<g id="edge8" class="edge">
<title>apply_reads&#45;&gt;advance_replica_reads</title>
<path fill="none" stroke="#666666" d="M263.75,-300.61C276.68,-274.25 302.46,-224.76 331,-187 347.53,-165.12 368.01,-143.06 386.73,-124.37"/>
<polygon fill="#666666" stroke="#666666" points="389.42,-126.63 394.08,-117.11 384.5,-121.64 389.42,-126.63"/>
</g>
<!-- post_pending_read_index_on_replica -->
<g id="node11" class="node">
<title>post_pending_read_index_on_replica</title>
<path fill="none" stroke="#1c2123" d="M539,-356C539,-356 343,-356 343,-356 337,-356 331,-350 331,-344 331,-344 331,-332 331,-332 331,-326 337,-320 343,-320 343,-320 539,-320 539,-320 545,-320 551,-326 551,-332 551,-332 551,-344 551,-344 551,-350 545,-356 539,-356"/>
<text text-anchor="middle" x="441" y="-334.3" font-family="Times,serif" font-size="14.00" fill="#2f3638">post_pending_read_index_on_replica</text>
</g>
<!-- apply_reads&#45;&gt;post_pending_read_index_on_replica -->
<g id="edge9" class="edge">
<title>apply_reads&#45;&gt;post_pending_read_index_on_replica</title>
<path fill="none" stroke="#666666" d="M295.14,-323.12C303.1,-323.94 311.83,-324.84 320.94,-325.77"/>
<polygon fill="#666666" stroke="#666666" points="320.65,-329.26 330.95,-326.8 321.36,-322.3 320.65,-329.26"/>
</g>
<!-- ready_to_handle_read -->
<g id="node12" class="node">
<title>ready_to_handle_read</title>
<path fill="none" stroke="#1c2123" d="M497.5,-410C497.5,-410 384.5,-410 384.5,-410 378.5,-410 372.5,-404 372.5,-398 372.5,-398 372.5,-386 372.5,-386 372.5,-380 378.5,-374 384.5,-374 384.5,-374 497.5,-374 497.5,-374 503.5,-374 509.5,-380 509.5,-386 509.5,-386 509.5,-398 509.5,-398 509.5,-404 503.5,-410 497.5,-410"/>
<text text-anchor="middle" x="441" y="-388.3" font-family="Times,serif" font-size="14.00" fill="#2f3638">ready_to_handle_read</text>
</g>
<!-- apply_reads&#45;&gt;ready_to_handle_read -->
<g id="edge10" class="edge">
<title>apply_reads&#45;&gt;ready_to_handle_read</title>
<path fill="none" stroke="#666666" d="M280.35,-337C294.66,-346.47 313.19,-357.61 331,-365 340.99,-369.15 351.78,-372.77 362.54,-375.89"/>
<polygon fill="#666666" stroke="#666666" points="361.82,-379.33 372.4,-378.62 363.69,-372.58 361.82,-379.33"/>
</g>
<!-- response_read -->
<g id="node13" class="node">
<title>response_read</title>
<path fill="none" stroke="#1c2123" d="M661.5,-255C661.5,-255 738.5,-255 738.5,-255 744.5,-255 750.5,-261 750.5,-267 750.5,-267 750.5,-289 750.5,-289 750.5,-295 744.5,-301 738.5,-301 738.5,-301 661.5,-301 661.5,-301 655.5,-301 649.5,-295 649.5,-289 649.5,-289 649.5,-267 649.5,-267 649.5,-261 655.5,-255 661.5,-255"/>
<text text-anchor="middle" x="700" y="-285.8" font-family="Times,serif" font-size="14.00" fill="#2f3638">response_read</text>
<polyline fill="none" stroke="#1c2123" points="649.5,-278 750.5,-278 "/>
<text text-anchor="start" x="657.5" y="-262.8" font-family="Times,serif" font-size="14.00" fill="#2f3638">遍历read.cmds</text>
</g>
<!-- apply_reads&#45;&gt;response_read -->
<g id="edge11" class="edge">
<title>apply_reads&#45;&gt;response_read</title>
<path fill="none" stroke="#666666" d="M295.22,-314.65C306.77,-313.43 319.38,-312.13 331,-311 439.47,-300.43 566.04,-289.35 638.92,-283.1"/>
<polygon fill="#666666" stroke="#666666" points="639.61,-286.55 649.28,-282.21 639.01,-279.58 639.61,-286.55"/>
</g>
<!-- post_pending_read_index_on_replica&#45;&gt;response_read -->
<g id="edge12" class="edge">
<title>post_pending_read_index_on_replica&#45;&gt;response_read</title>
<path fill="none" stroke="#666666" d="M519.11,-320C557.63,-311.01 603.52,-300.29 639.31,-291.94"/>
<polygon fill="#666666" stroke="#666666" points="640.18,-295.33 649.12,-289.64 638.59,-288.51 640.18,-295.33"/>
</g>
<!-- pending_reads_pop_front -->
<g id="node14" class="node">
<title>pending_reads_pop_front</title>
<path fill="none" stroke="#1c2123" d="M765.5,-518C765.5,-518 634.5,-518 634.5,-518 628.5,-518 622.5,-512 622.5,-506 622.5,-506 622.5,-494 622.5,-494 622.5,-488 628.5,-482 634.5,-482 634.5,-482 765.5,-482 765.5,-482 771.5,-482 777.5,-488 777.5,-494 777.5,-494 777.5,-506 777.5,-506 777.5,-512 771.5,-518 765.5,-518"/>
<text text-anchor="middle" x="700" y="-496.3" font-family="Times,serif" font-size="14.00" fill="#2f3638">pending_reads_pop_front</text>
</g>
<!-- post_pending_read_index_on_replica&#45;&gt;pending_reads_pop_front -->
<g id="edge13" class="edge">
<title>post_pending_read_index_on_replica&#45;&gt;pending_reads_pop_front</title>
<path fill="none" stroke="#666666" d="M539.09,-356.04C543.34,-358.66 547.35,-361.63 551,-365 588.16,-399.34 549.73,-438.78 587,-473 594.46,-479.85 603.35,-485.04 612.81,-488.97"/>
<polygon fill="#666666" stroke="#666666" points="611.83,-492.34 622.43,-492.49 614.24,-485.77 611.83,-492.34"/>
</g>
<!-- addition_request_is_some -->
<g id="node15" class="node">
<title>addition_request_is_some</title>
<path fill="none" stroke="#1c2123" d="M767,-356C767,-356 633,-356 633,-356 627,-356 621,-350 621,-344 621,-344 621,-332 621,-332 621,-326 627,-320 633,-320 633,-320 767,-320 767,-320 773,-320 779,-326 779,-332 779,-332 779,-344 779,-344 779,-350 773,-356 767,-356"/>
<text text-anchor="middle" x="700" y="-334.3" font-family="Times,serif" font-size="14.00" fill="#2f3638">addition_request_is_some</text>
</g>
<!-- post_pending_read_index_on_replica&#45;&gt;addition_request_is_some -->
<g id="edge14" class="edge">
<title>post_pending_read_index_on_replica&#45;&gt;addition_request_is_some</title>
<path fill="none" stroke="#666666" d="M551.36,-338C571.17,-338 591.59,-338 610.69,-338"/>
<polygon fill="#666666" stroke="#666666" points="610.86,-341.5 620.86,-338 610.86,-334.5 610.86,-341.5"/>
</g>
<!-- pending_reads_push_front -->
<g id="node16" class="node">
<title>pending_reads_push_front</title>
<path fill="none" stroke="#1c2123" d="M768.5,-410C768.5,-410 631.5,-410 631.5,-410 625.5,-410 619.5,-404 619.5,-398 619.5,-398 619.5,-386 619.5,-386 619.5,-380 625.5,-374 631.5,-374 631.5,-374 768.5,-374 768.5,-374 774.5,-374 780.5,-380 780.5,-386 780.5,-386 780.5,-398 780.5,-398 780.5,-404 774.5,-410 768.5,-410"/>
<text text-anchor="middle" x="700" y="-388.3" font-family="Times,serif" font-size="14.00" fill="#2f3638">pending_reads_push_front</text>
</g>
<!-- post_pending_read_index_on_replica&#45;&gt;pending_reads_push_front -->
<g id="edge15" class="edge">
<title>post_pending_read_index_on_replica&#45;&gt;pending_reads_push_front</title>
<path fill="none" stroke="#666666" d="M527.93,-356.06C554.07,-361.55 582.86,-367.6 609.24,-373.14"/>
<polygon fill="#666666" stroke="#666666" points="608.72,-376.61 619.22,-375.24 610.16,-369.76 608.72,-376.61"/>
</g>
<!-- ready_to_handle_unsafe_replica_read -->
<g id="node17" class="node">
<title>ready_to_handle_unsafe_replica_read</title>
<path fill="none" stroke="#1c2123" d="M799,-464C799,-464 601,-464 601,-464 595,-464 589,-458 589,-452 589,-452 589,-440 589,-440 589,-434 595,-428 601,-428 601,-428 799,-428 799,-428 805,-428 811,-434 811,-440 811,-440 811,-452 811,-452 811,-458 805,-464 799,-464"/>
<text text-anchor="middle" x="700" y="-442.3" font-family="Times,serif" font-size="14.00" fill="#2f3638">ready_to_handle_unsafe_replica_read</text>
</g>
<!-- post_pending_read_index_on_replica&#45;&gt;ready_to_handle_unsafe_replica_read -->
<g id="edge16" class="edge">
<title>post_pending_read_index_on_replica&#45;&gt;ready_to_handle_unsafe_replica_read</title>
<path fill="none" stroke="#666666" d="M535.67,-356.11C541.06,-358.69 546.22,-361.64 551,-365 574.6,-381.59 563.35,-402.48 587,-419 589.12,-420.48 591.3,-421.88 593.55,-423.2"/>
<polygon fill="#666666" stroke="#666666" points="592,-426.34 602.48,-427.93 595.28,-420.15 592,-426.34"/>
</g>
<!-- response_read&#45;&gt;cb_invoke_read -->
<g id="edge17" class="edge">
<title>response_read&#45;&gt;cb_invoke_read</title>
<path fill="none" stroke="#666666" d="M750.63,-271.1C771.28,-266.47 794.66,-258.76 813,-246 835.18,-230.57 825.06,-209.53 849,-197 998.54,-118.75 1205.2,-173.45 1309.92,-210.55"/>
<polygon fill="#666666" stroke="#666666" points="1308.83,-213.88 1319.42,-213.97 1311.2,-207.29 1308.83,-213.88"/>
</g>
<!-- read_locked_take -->
<g id="node18" class="node">
<title>read_locked_take</title>
<path fill="none" stroke="#1c2123" d="M949,-296C949,-296 861,-296 861,-296 855,-296 849,-290 849,-284 849,-284 849,-272 849,-272 849,-266 855,-260 861,-260 861,-260 949,-260 949,-260 955,-260 961,-266 961,-272 961,-272 961,-284 961,-284 961,-290 955,-296 949,-296"/>
<text text-anchor="middle" x="905" y="-274.3" font-family="Times,serif" font-size="14.00" fill="#2f3638">read_locked_take</text>
</g>
<!-- response_read&#45;&gt;read_locked_take -->
<g id="edge18" class="edge">
<title>response_read&#45;&gt;read_locked_take</title>
<path fill="none" stroke="#666666" d="M750.66,-278C777.11,-278 809.98,-278 838.49,-278"/>
<polygon fill="#666666" stroke="#666666" points="838.78,-281.5 848.78,-278 838.78,-274.5 838.78,-281.5"/>
</g>
<!-- handle_read -->
<g id="node19" class="node">
<title>handle_read</title>
<path fill="none" stroke="#1c2123" d="M934.5,-242C934.5,-242 875.5,-242 875.5,-242 869.5,-242 863.5,-236 863.5,-230 863.5,-230 863.5,-218 863.5,-218 863.5,-212 869.5,-206 875.5,-206 875.5,-206 934.5,-206 934.5,-206 940.5,-206 946.5,-212 946.5,-218 946.5,-218 946.5,-230 946.5,-230 946.5,-236 940.5,-242 934.5,-242"/>
<text text-anchor="middle" x="905" y="-220.3" font-family="Times,serif" font-size="14.00" fill="#2f3638">handle_read</text>
</g>
<!-- response_read&#45;&gt;handle_read -->
<g id="edge19" class="edge">
<title>response_read&#45;&gt;handle_read</title>
<path fill="none" stroke="#666666" d="M750.66,-264.79C781.9,-256.48 822.11,-245.78 853.51,-237.43"/>
<polygon fill="#666666" stroke="#666666" points="854.61,-240.76 863.37,-234.81 852.81,-234 854.61,-240.76"/>
</g>
<!-- get_replica_read -->
<g id="node20" class="node">
<title>get_replica_read</title>
<path fill="none" stroke="#1c2123" d="M946.5,-350C946.5,-350 863.5,-350 863.5,-350 857.5,-350 851.5,-344 851.5,-338 851.5,-338 851.5,-326 851.5,-326 851.5,-320 857.5,-314 863.5,-314 863.5,-314 946.5,-314 946.5,-314 952.5,-314 958.5,-320 958.5,-326 958.5,-326 958.5,-338 958.5,-338 958.5,-344 952.5,-350 946.5,-350"/>
<text text-anchor="middle" x="905" y="-328.3" font-family="Times,serif" font-size="14.00" fill="#2f3638">get_replica_read</text>
</g>
<!-- response_read&#45;&gt;get_replica_read -->
<g id="edge20" class="edge">
<title>response_read&#45;&gt;get_replica_read</title>
<path fill="none" stroke="#666666" d="M750.66,-291.21C778.08,-298.5 812.4,-307.63 841.61,-315.4"/>
<polygon fill="#666666" stroke="#666666" points="840.74,-318.79 851.31,-317.98 842.54,-312.03 840.74,-318.79"/>
</g>
<!-- notify_stale_req -->
<g id="node21" class="node">
<title>notify_stale_req</title>
<path fill="none" stroke="#1c2123" d="M945,-404C945,-404 865,-404 865,-404 859,-404 853,-398 853,-392 853,-392 853,-380 853,-380 853,-374 859,-368 865,-368 865,-368 945,-368 945,-368 951,-368 957,-374 957,-380 957,-380 957,-392 957,-392 957,-398 951,-404 945,-404"/>
<text text-anchor="middle" x="905" y="-382.3" font-family="Times,serif" font-size="14.00" fill="#2f3638">notify_stale_req</text>
</g>
<!-- response_read&#45;&gt;notify_stale_req -->
<g id="edge21" class="edge">
<title>response_read&#45;&gt;notify_stale_req</title>
<path fill="none" stroke="#666666" d="M750.58,-285.48C771.22,-290.33 794.6,-298.22 813,-311 834.9,-326.21 828.46,-341.99 849,-359 850.35,-360.12 851.76,-361.21 853.2,-362.26"/>
<polygon fill="#666666" stroke="#666666" points="851.58,-365.38 861.86,-367.94 855.42,-359.53 851.58,-365.38"/>
</g>
<!-- PollContext_execute -->
<g id="node23" class="node">
<title>PollContext_execute</title>
<path fill="none" stroke="#1c2123" d="M1114,-292C1114,-292 1009,-292 1009,-292 1003,-292 997,-286 997,-280 997,-280 997,-268 997,-268 997,-262 1003,-256 1009,-256 1009,-256 1114,-256 1114,-256 1120,-256 1126,-262 1126,-268 1126,-268 1126,-280 1126,-280 1126,-286 1120,-292 1114,-292"/>
<text text-anchor="middle" x="1061.5" y="-270.3" font-family="Times,serif" font-size="14.00" fill="#2f3638">PollContext_execute</text>
</g>
<!-- handle_read&#45;&gt;PollContext_execute -->
<g id="edge23" class="edge">
<title>handle_read&#45;&gt;PollContext_execute</title>
<path fill="none" stroke="#666666" d="M946.59,-237.14C961.47,-241.95 978.7,-247.53 995.19,-252.86"/>
<polygon fill="#666666" stroke="#666666" points="994.19,-256.22 1004.79,-255.97 996.35,-249.56 994.19,-256.22"/>
</g>
<!-- bind_term -->
<g id="node24" class="node">
<title>bind_term</title>
<path fill="none" stroke="#1c2123" d="M1086,-346C1086,-346 1037,-346 1037,-346 1031,-346 1025,-340 1025,-334 1025,-334 1025,-322 1025,-322 1025,-316 1031,-310 1037,-310 1037,-310 1086,-310 1086,-310 1092,-310 1098,-316 1098,-322 1098,-322 1098,-334 1098,-334 1098,-340 1092,-346 1086,-346"/>
<text text-anchor="middle" x="1061.5" y="-324.3" font-family="Times,serif" font-size="14.00" fill="#2f3638">bind_term</text>
</g>
<!-- handle_read&#45;&gt;bind_term -->
<g id="edge24" class="edge">
<title>handle_read&#45;&gt;bind_term</title>
<path fill="none" stroke="#666666" d="M946.78,-241.14C951.81,-244.07 956.69,-247.36 961,-251 981.92,-268.67 975.61,-283.9 997,-301 1002.66,-305.53 1009.19,-309.42 1015.87,-312.73"/>
<polygon fill="#666666" stroke="#666666" points="1014.44,-315.92 1024.99,-316.88 1017.34,-309.55 1014.44,-315.92"/>
</g>
<!-- check_region_epoch -->
<g id="node25" class="node">
<title>check_region_epoch</title>
<path fill="none" stroke="#1c2123" d="M1113.5,-238C1113.5,-238 1009.5,-238 1009.5,-238 1003.5,-238 997.5,-232 997.5,-226 997.5,-226 997.5,-214 997.5,-214 997.5,-208 1003.5,-202 1009.5,-202 1009.5,-202 1113.5,-202 1113.5,-202 1119.5,-202 1125.5,-208 1125.5,-214 1125.5,-214 1125.5,-226 1125.5,-226 1125.5,-232 1119.5,-238 1113.5,-238"/>
<text text-anchor="middle" x="1061.5" y="-216.3" font-family="Times,serif" font-size="14.00" fill="#2f3638">check_region_epoch</text>
</g>
<!-- handle_read&#45;&gt;check_region_epoch -->
<g id="edge25" class="edge">
<title>handle_read&#45;&gt;check_region_epoch</title>
<path fill="none" stroke="#666666" d="M946.59,-222.95C959.11,-222.62 973.3,-222.26 987.31,-221.89"/>
<polygon fill="#666666" stroke="#666666" points="987.55,-225.39 997.46,-221.63 987.37,-218.39 987.55,-225.39"/>
</g>
<!-- ReadResponse -->
<g id="node26" class="node">
<title>ReadResponse</title>
<path fill="none" stroke="#1c2123" d="M1246,-319C1246,-319 1174,-319 1174,-319 1168,-319 1162,-313 1162,-307 1162,-307 1162,-295 1162,-295 1162,-289 1168,-283 1174,-283 1174,-283 1246,-283 1246,-283 1252,-283 1258,-289 1258,-295 1258,-295 1258,-307 1258,-307 1258,-313 1252,-319 1246,-319"/>
<text text-anchor="middle" x="1210" y="-297.3" font-family="Times,serif" font-size="14.00" fill="#2f3638">ReadResponse</text>
</g>
<!-- handle_read&#45;&gt;ReadResponse -->
<g id="edge26" class="edge">
<title>handle_read&#45;&gt;ReadResponse</title>
<path fill="none" stroke="#666666" d="M946.76,-239.35C952.03,-242.6 956.98,-246.46 961,-251 993.39,-287.65 957.16,-326.63 997,-355 1043.7,-388.26 1071.03,-371.31 1126,-355 1145.89,-349.1 1165.46,-336.77 1180.61,-325.37"/>
<polygon fill="#666666" stroke="#666666" points="1182.8,-328.1 1188.54,-319.19 1178.5,-322.58 1182.8,-328.1"/>
</g>
<!-- read_index -->
<g id="node22" class="node">
<title>read_index</title>
<path fill="#feed9b" stroke="#f7e495" d="M673.5,-200C673.5,-200 726.5,-200 726.5,-200 732.5,-200 738.5,-206 738.5,-212 738.5,-212 738.5,-224 738.5,-224 738.5,-230 732.5,-236 726.5,-236 726.5,-236 673.5,-236 673.5,-236 667.5,-236 661.5,-230 661.5,-224 661.5,-224 661.5,-212 661.5,-212 661.5,-206 667.5,-200 673.5,-200"/>
<text text-anchor="middle" x="700" y="-214.3" font-family="Times,serif" font-size="14.00" fill="#40575d">read_index</text>
</g>
<!-- read_index&#45;&gt;handle_read -->
<g id="edge22" class="edge">
<title>read_index&#45;&gt;handle_read</title>
<path fill="none" stroke="#666666" d="M738.71,-219.11C770.95,-220.07 817.65,-221.45 853.19,-222.5"/>
<polygon fill="#666666" stroke="#666666" points="853.26,-226 863.36,-222.8 853.47,-219 853.26,-226"/>
</g>
<!-- PollContext_execute&#45;&gt;ReadResponse -->
<g id="edge27" class="edge">
<title>PollContext_execute&#45;&gt;ReadResponse</title>
<path fill="none" stroke="green" stroke-dasharray="5,2" d="M1126.33,-285.76C1134.77,-287.32 1143.38,-288.91 1151.71,-290.44"/>
<polygon fill="green" stroke="green" points="1151.22,-293.91 1161.69,-292.28 1152.49,-287.03 1151.22,-293.91"/>
</g>
<!-- bind_term&#45;&gt;ReadResponse -->
<g id="edge29" class="edge">
<title>bind_term&#45;&gt;ReadResponse</title>
<path fill="none" stroke="#666666" d="M1098.34,-321.4C1114.49,-318.42 1133.96,-314.83 1152.04,-311.5"/>
<polygon fill="#666666" stroke="#666666" points="1152.71,-314.93 1161.91,-309.68 1151.44,-308.05 1152.71,-314.93"/>
</g>
<!-- ReadResponse&#45;&gt;cb_invoke_read -->
<g id="edge28" class="edge">
<title>ReadResponse&#45;&gt;cb_invoke_read</title>
<path fill="none" stroke="green" stroke-dasharray="5,2" d="M1257.98,-282.83C1273.32,-276.9 1290.69,-270.18 1307.31,-263.76"/>
<polygon fill="green" stroke="green" points="1308.92,-266.89 1316.98,-260.02 1306.4,-260.36 1308.92,-266.89"/>
</g>
</g>
</svg>
