<?xml version="1.0" encoding="UTF-8" standalone="no"?>
<!DOCTYPE svg PUBLIC "-//W3C//DTD SVG 1.1//EN"
 "http://www.w3.org/Graphics/SVG/1.1/DTD/svg11.dtd">
<!-- Generated by graphviz version 2.44.1 (20200629.0846)
 -->
<!-- Title: kv_get Pages: 1 -->
<svg width="2383pt" height="691pt"
 viewBox="0.00 0.00 2383.00 691.00" xmlns="http://www.w3.org/2000/svg" xmlns:xlink="http://www.w3.org/1999/xlink">
<g id="graph0" class="graph" transform="scale(1 1) rotate(0) translate(4 687)">
<title>kv_get</title>
<polygon fill="white" stroke="transparent" points="-4,4 -4,-687 2379,-687 2379,4 -4,4"/>
<g id="clust1" class="cluster">
<title>cluster_RaftKV</title>
<path fill="none" stroke="slategrey" stroke-dasharray="5,2" d="M829,-280C829,-280 1899,-280 1899,-280 1905,-280 1911,-286 1911,-292 1911,-292 1911,-484 1911,-484 1911,-490 1905,-496 1899,-496 1899,-496 829,-496 829,-496 823,-496 817,-490 817,-484 817,-484 817,-292 817,-292 817,-286 823,-280 829,-280"/>
<text text-anchor="middle" x="1364" y="-476" font-family="Times,serif" font-size="20.00">RaftKV</text>
</g>
<g id="clust7" class="cluster">
<title>cluster_Storage</title>
<path fill="none" stroke="slategrey" stroke-dasharray="5,2" d="M222,-8C222,-8 2244,-8 2244,-8 2250,-8 2256,-14 2256,-20 2256,-20 2256,-260 2256,-260 2256,-266 2250,-272 2244,-272 2244,-272 222,-272 222,-272 216,-272 210,-266 210,-260 210,-260 210,-20 210,-20 210,-14 216,-8 222,-8"/>
<text text-anchor="middle" x="1233" y="-252" font-family="Times,serif" font-size="20.00">Storage</text>
</g>
<g id="clust13" class="cluster">
<title>cluster_service_kv</title>
<path fill="none" stroke="slategrey" stroke-dasharray="5,2" d="M20,-519C20,-519 2355,-519 2355,-519 2361,-519 2367,-525 2367,-531 2367,-531 2367,-663 2367,-663 2367,-669 2361,-675 2355,-675 2355,-675 20,-675 20,-675 14,-675 8,-669 8,-663 8,-663 8,-531 8,-531 8,-525 14,-519 20,-519"/>
<text text-anchor="middle" x="1187.5" y="-655" font-family="Times,serif" font-size="20.00">service_kv</text>
</g>
<!-- engine_async_snapshot -->
<g id="node1" class="node">
<title>engine_async_snapshot</title>
<path fill="none" stroke="#1c2123" d="M957,-344C957,-344 837,-344 837,-344 831,-344 825,-338 825,-332 825,-332 825,-320 825,-320 825,-314 831,-308 837,-308 837,-308 957,-308 957,-308 963,-308 969,-314 969,-320 969,-320 969,-332 969,-332 969,-338 963,-344 957,-344"/>
<text text-anchor="middle" x="897" y="-322.3" font-family="Times,serif" font-size="14.00" fill="#2f3638">engine_async_snapshot</text>
</g>
<!-- exec_snapshot -->
<g id="node2" class="node">
<title>exec_snapshot</title>
<path fill="none" stroke="#1c2123" d="M1088,-382C1088,-382 1017,-382 1017,-382 1011,-382 1005,-376 1005,-370 1005,-370 1005,-358 1005,-358 1005,-352 1011,-346 1017,-346 1017,-346 1088,-346 1088,-346 1094,-346 1100,-352 1100,-358 1100,-358 1100,-370 1100,-370 1100,-376 1094,-382 1088,-382"/>
<text text-anchor="middle" x="1052.5" y="-360.3" font-family="Times,serif" font-size="14.00" fill="#2f3638">exec_snapshot</text>
</g>
<!-- engine_async_snapshot&#45;&gt;exec_snapshot -->
<g id="edge1" class="edge">
<title>engine_async_snapshot&#45;&gt;exec_snapshot</title>
<path fill="none" stroke="#666666" d="M969.36,-343.67C977.93,-345.79 986.59,-347.93 994.91,-349.99"/>
<polygon fill="#666666" stroke="#666666" points="994.32,-353.45 1004.87,-352.46 996,-346.65 994.32,-353.45"/>
</g>
<!-- box_new_cb -->
<g id="node3" class="node">
<title>box_new_cb</title>
<path fill="none" stroke="#1c2123" d="M1552,-289C1552,-289 1652,-289 1652,-289 1658,-289 1664,-295 1664,-301 1664,-301 1664,-391 1664,-391 1664,-397 1658,-403 1652,-403 1652,-403 1552,-403 1552,-403 1546,-403 1540,-397 1540,-391 1540,-391 1540,-301 1540,-301 1540,-295 1546,-289 1552,-289"/>
<text text-anchor="middle" x="1602" y="-387.8" font-family="Times,serif" font-size="14.00" fill="#2f3638">box_new_cb</text>
<polyline fill="none" stroke="#1c2123" points="1540,-380 1664,-380 "/>
<text text-anchor="start" x="1548" y="-364.8" font-family="Times,serif" font-size="14.00" fill="#2f3638">exec_snapshot向下</text>
<text text-anchor="start" x="1548" y="-349.8" font-family="Times,serif" font-size="14.00" fill="#2f3638"> 传的callback</text>
<polyline fill="none" stroke="#1c2123" points="1540,-342 1664,-342 "/>
<text text-anchor="start" x="1548" y="-326.8" font-family="Times,serif" font-size="14.00" fill="#2f3638">被回调时候</text>
<text text-anchor="start" x="1548" y="-311.8" font-family="Times,serif" font-size="14.00" fill="#2f3638"> 会调用上层传</text>
<text text-anchor="start" x="1548" y="-296.8" font-family="Times,serif" font-size="14.00" fill="#2f3638"> 入的callback</text>
</g>
<!-- engine_async_snapshot&#45;&gt;box_new_cb -->
<g id="edge2" class="edge">
<title>engine_async_snapshot&#45;&gt;box_new_cb</title>
<path fill="none" stroke="#666666" d="M969.33,-326.07C1075.92,-326.46 1283.1,-328.24 1459,-336 1482.02,-337.01 1507.1,-338.62 1529.69,-340.24"/>
<polygon fill="#666666" stroke="#666666" points="1529.65,-343.75 1539.88,-340.99 1530.16,-336.77 1529.65,-343.75"/>
</g>
<!-- LocalReadRouter_read -->
<g id="node4" class="node">
<title>LocalReadRouter_read</title>
<path fill="none" stroke="#1c2123" d="M1266,-385C1266,-385 1148,-385 1148,-385 1142,-385 1136,-379 1136,-373 1136,-373 1136,-361 1136,-361 1136,-355 1142,-349 1148,-349 1148,-349 1266,-349 1266,-349 1272,-349 1278,-355 1278,-361 1278,-361 1278,-373 1278,-373 1278,-379 1272,-385 1266,-385"/>
<text text-anchor="middle" x="1207" y="-363.3" font-family="Times,serif" font-size="14.00" fill="#2f3638">LocalReadRouter_read</text>
</g>
<!-- exec_snapshot&#45;&gt;LocalReadRouter_read -->
<g id="edge3" class="edge">
<title>exec_snapshot&#45;&gt;LocalReadRouter_read</title>
<path fill="none" stroke="#666666" d="M1100.08,-364.92C1108.21,-365.08 1116.86,-365.25 1125.59,-365.42"/>
<polygon fill="#666666" stroke="#666666" points="1125.77,-368.92 1135.84,-365.62 1125.91,-361.92 1125.77,-368.92"/>
</g>
<!-- callback -->
<g id="node8" class="node">
<title>callback</title>
<path fill="none" stroke="#1c2123" d="M1843,-324C1843,-324 1805,-324 1805,-324 1799,-324 1793,-318 1793,-312 1793,-312 1793,-300 1793,-300 1793,-294 1799,-288 1805,-288 1805,-288 1843,-288 1843,-288 1849,-288 1855,-294 1855,-300 1855,-300 1855,-312 1855,-312 1855,-318 1849,-324 1843,-324"/>
<text text-anchor="middle" x="1824" y="-302.3" font-family="Times,serif" font-size="14.00" fill="#2f3638">callback</text>
</g>
<!-- box_new_cb&#45;&gt;callback -->
<g id="edge8" class="edge">
<title>box_new_cb&#45;&gt;callback</title>
<path fill="none" stroke="#666666" d="M1664.28,-334.86C1702.14,-327.97 1749.65,-319.34 1782.78,-313.31"/>
<polygon fill="#666666" stroke="#666666" points="1783.78,-316.69 1793,-311.46 1782.53,-309.8 1783.78,-316.69"/>
</g>
<!-- Store_Callback_read_cb -->
<g id="node5" class="node">
<title>Store_Callback_read_cb</title>
<path fill="none" stroke="#1c2123" d="M1326,-346C1326,-346 1447,-346 1447,-346 1453,-346 1459,-352 1459,-358 1459,-358 1459,-380 1459,-380 1459,-386 1453,-392 1447,-392 1447,-392 1326,-392 1326,-392 1320,-392 1314,-386 1314,-380 1314,-380 1314,-358 1314,-358 1314,-352 1320,-346 1326,-346"/>
<text text-anchor="middle" x="1386.5" y="-376.8" font-family="Times,serif" font-size="14.00" fill="#2f3638">Store:Callback::Read</text>
<polyline fill="none" stroke="#1c2123" points="1314,-369 1459,-369 "/>
<text text-anchor="middle" x="1386.5" y="-353.8" font-family="Times,serif" font-size="14.00" fill="#2f3638">raft read ready callback</text>
</g>
<!-- LocalReadRouter_read&#45;&gt;Store_Callback_read_cb -->
<g id="edge4" class="edge">
<title>LocalReadRouter_read&#45;&gt;Store_Callback_read_cb</title>
<path fill="none" stroke="green" stroke-dasharray="5,2" d="M1278.15,-367.79C1286.58,-367.89 1295.24,-367.98 1303.82,-368.08"/>
<polygon fill="green" stroke="green" points="1303.78,-371.58 1313.82,-368.19 1303.86,-364.58 1303.78,-371.58"/>
</g>
<!-- Store_Callback_read_cb&#45;&gt;box_new_cb -->
<g id="edge5" class="edge">
<title>Store_Callback_read_cb&#45;&gt;box_new_cb</title>
<path fill="none" stroke="#666666" d="M1459.19,-361.28C1481.88,-358.83 1506.95,-356.13 1529.62,-353.69"/>
<polygon fill="#666666" stroke="#666666" points="1530.28,-357.14 1539.85,-352.59 1529.53,-350.18 1530.28,-357.14"/>
</g>
<!-- on_read_result -->
<g id="node6" class="node">
<title>on_read_result</title>
<path fill="none" stroke="#1c2123" d="M1638.5,-458C1638.5,-458 1565.5,-458 1565.5,-458 1559.5,-458 1553.5,-452 1553.5,-446 1553.5,-446 1553.5,-434 1553.5,-434 1553.5,-428 1559.5,-422 1565.5,-422 1565.5,-422 1638.5,-422 1638.5,-422 1644.5,-422 1650.5,-428 1650.5,-434 1650.5,-434 1650.5,-446 1650.5,-446 1650.5,-452 1644.5,-458 1638.5,-458"/>
<text text-anchor="middle" x="1602" y="-436.3" font-family="Times,serif" font-size="14.00" fill="#2f3638">on_read_result</text>
</g>
<!-- Store_Callback_read_cb&#45;&gt;on_read_result -->
<g id="edge6" class="edge">
<title>Store_Callback_read_cb&#45;&gt;on_read_result</title>
<path fill="none" stroke="#666666" d="M1441.44,-392.07C1458.42,-398.93 1477.35,-406.16 1495,-412 1510.64,-417.17 1527.82,-422.05 1543.71,-426.23"/>
<polygon fill="#666666" stroke="#666666" points="1542.85,-429.63 1553.41,-428.75 1544.61,-422.85 1542.85,-429.63"/>
</g>
<!-- check_raft_cmd_response -->
<g id="node7" class="node">
<title>check_raft_cmd_response</title>
<path fill="none" stroke="#1c2123" d="M1891,-458C1891,-458 1757,-458 1757,-458 1751,-458 1745,-452 1745,-446 1745,-446 1745,-434 1745,-434 1745,-428 1751,-422 1757,-422 1757,-422 1891,-422 1891,-422 1897,-422 1903,-428 1903,-434 1903,-434 1903,-446 1903,-446 1903,-452 1897,-458 1891,-458"/>
<text text-anchor="middle" x="1824" y="-436.3" font-family="Times,serif" font-size="14.00" fill="#2f3638">check_raft_cmd_response</text>
</g>
<!-- on_read_result&#45;&gt;check_raft_cmd_response -->
<g id="edge7" class="edge">
<title>on_read_result&#45;&gt;check_raft_cmd_response</title>
<path fill="none" stroke="#666666" d="M1650.74,-440C1675.27,-440 1705.96,-440 1734.61,-440"/>
<polygon fill="#666666" stroke="#666666" points="1734.65,-443.5 1744.65,-440 1734.65,-436.5 1734.65,-443.5"/>
</g>
<!-- future -->
<g id="node19" class="node">
<title>future</title>
<path fill="none" stroke="#1c2123" d="M1981,-234C1981,-234 1951,-234 1951,-234 1945,-234 1939,-228 1939,-222 1939,-222 1939,-210 1939,-210 1939,-204 1945,-198 1951,-198 1951,-198 1981,-198 1981,-198 1987,-198 1993,-204 1993,-210 1993,-210 1993,-222 1993,-222 1993,-228 1987,-234 1981,-234"/>
<text text-anchor="middle" x="1966" y="-212.3" font-family="Times,serif" font-size="14.00" fill="#2f3638">future</text>
</g>
<!-- callback&#45;&gt;future -->
<g id="edge21" class="edge">
<title>callback&#45;&gt;future</title>
<path fill="none" stroke="green" stroke-dasharray="5,2" d="M1855.36,-299.41C1872.65,-294.71 1894.15,-287.21 1911,-276 1924.43,-267.07 1936.7,-254.05 1946.13,-242.41"/>
<polygon fill="green" stroke="green" points="1949.09,-244.3 1952.48,-234.26 1943.57,-240 1949.09,-244.3"/>
</g>
<!-- Storage_get -->
<g id="node9" class="node">
<title>Storage_get</title>
<path fill="none" stroke="#1c2123" d="M287,-234C287,-234 230,-234 230,-234 224,-234 218,-228 218,-222 218,-222 218,-210 218,-210 218,-204 224,-198 230,-198 230,-198 287,-198 287,-198 293,-198 299,-204 299,-210 299,-210 299,-222 299,-222 299,-228 293,-234 287,-234"/>
<text text-anchor="middle" x="258.5" y="-212.3" font-family="Times,serif" font-size="14.00" fill="#2f3638">Storage_get</text>
</g>
<!-- read_pool_spawn_handle -->
<g id="node10" class="node">
<title>read_pool_spawn_handle</title>
<path fill="none" stroke="#1c2123" d="M478,-179C478,-179 347,-179 347,-179 341,-179 335,-173 335,-167 335,-167 335,-155 335,-155 335,-149 341,-143 347,-143 347,-143 478,-143 478,-143 484,-143 490,-149 490,-155 490,-155 490,-167 490,-167 490,-173 484,-179 478,-179"/>
<text text-anchor="middle" x="412.5" y="-157.3" font-family="Times,serif" font-size="14.00" fill="#2f3638">read_pool_spawn_handle</text>
</g>
<!-- Storage_get&#45;&gt;read_pool_spawn_handle -->
<g id="edge9" class="edge">
<title>Storage_get&#45;&gt;read_pool_spawn_handle</title>
<path fill="none" stroke="#666666" d="M299.04,-201.69C315.14,-195.87 334.11,-189 351.84,-182.59"/>
<polygon fill="#666666" stroke="#666666" points="353.32,-185.78 361.53,-179.08 350.94,-179.19 353.32,-185.78"/>
</g>
<!-- v -->
<g id="node30" class="node">
<title>v</title>
<path fill="none" stroke="#1c2123" d="M1222,-563C1222,-563 1192,-563 1192,-563 1186,-563 1180,-557 1180,-551 1180,-551 1180,-539 1180,-539 1180,-533 1186,-527 1192,-527 1192,-527 1222,-527 1222,-527 1228,-527 1234,-533 1234,-539 1234,-539 1234,-551 1234,-551 1234,-557 1228,-563 1222,-563"/>
<text text-anchor="middle" x="1207" y="-541.3" font-family="Times,serif" font-size="14.00" fill="#2f3638">v</text>
</g>
<!-- Storage_get&#45;&gt;v -->
<g id="edge37" class="edge">
<title>Storage_get&#45;&gt;v</title>
<path fill="none" stroke="#666666" d="M268.46,-234.19C301.76,-298.89 425.2,-514 594.5,-514 594.5,-514 594.5,-514 898,-514 996.66,-514 1112.2,-529.94 1169.68,-538.96"/>
<polygon fill="#666666" stroke="#666666" points="1169.3,-542.44 1179.72,-540.56 1170.4,-535.53 1169.3,-542.44"/>
</g>
<!-- tls_collect_qps -->
<g id="node11" class="node">
<title>tls_collect_qps</title>
<path fill="none" stroke="#1c2123" d="M632.5,-52C632.5,-52 558.5,-52 558.5,-52 552.5,-52 546.5,-46 546.5,-40 546.5,-40 546.5,-28 546.5,-28 546.5,-22 552.5,-16 558.5,-16 558.5,-16 632.5,-16 632.5,-16 638.5,-16 644.5,-22 644.5,-28 644.5,-28 644.5,-40 644.5,-40 644.5,-46 638.5,-52 632.5,-52"/>
<text text-anchor="middle" x="595.5" y="-30.3" font-family="Times,serif" font-size="14.00" fill="#2f3638">tls_collect_qps</text>
</g>
<!-- read_pool_spawn_handle&#45;&gt;tls_collect_qps -->
<g id="edge10" class="edge">
<title>read_pool_spawn_handle&#45;&gt;tls_collect_qps</title>
<path fill="none" stroke="#666666" d="M429.88,-142.99C450.52,-121.16 487.93,-84.4 526,-61 529.55,-58.82 533.31,-56.75 537.17,-54.81"/>
<polygon fill="#666666" stroke="#666666" points="538.74,-57.94 546.29,-50.5 535.75,-51.61 538.74,-57.94"/>
</g>
<!-- prepare_snap_ctx -->
<g id="node12" class="node">
<title>prepare_snap_ctx</title>
<path fill="none" stroke="#1c2123" d="M639.5,-106C639.5,-106 551.5,-106 551.5,-106 545.5,-106 539.5,-100 539.5,-94 539.5,-94 539.5,-82 539.5,-82 539.5,-76 545.5,-70 551.5,-70 551.5,-70 639.5,-70 639.5,-70 645.5,-70 651.5,-76 651.5,-82 651.5,-82 651.5,-94 651.5,-94 651.5,-100 645.5,-106 639.5,-106"/>
<text text-anchor="middle" x="595.5" y="-84.3" font-family="Times,serif" font-size="14.00" fill="#2f3638">prepare_snap_ctx</text>
</g>
<!-- read_pool_spawn_handle&#45;&gt;prepare_snap_ctx -->
<g id="edge11" class="edge">
<title>read_pool_spawn_handle&#45;&gt;prepare_snap_ctx</title>
<path fill="none" stroke="#666666" d="M457.26,-142.96C478.06,-134.42 503.29,-124.12 526,-115 530.18,-113.32 534.51,-111.59 538.87,-109.86"/>
<polygon fill="#666666" stroke="#666666" points="540.4,-113.02 548.41,-106.07 537.82,-106.51 540.4,-113.02"/>
</g>
<!-- with_tls_engine_await -->
<g id="node13" class="node">
<title>with_tls_engine_await</title>
<path fill="none" stroke="#1c2123" d="M653,-160C653,-160 538,-160 538,-160 532,-160 526,-154 526,-148 526,-148 526,-136 526,-136 526,-130 532,-124 538,-124 538,-124 653,-124 653,-124 659,-124 665,-130 665,-136 665,-136 665,-148 665,-148 665,-154 659,-160 653,-160"/>
<text text-anchor="middle" x="595.5" y="-138.3" font-family="Times,serif" font-size="14.00" fill="#2f3638">with_tls_engine_await</text>
</g>
<!-- read_pool_spawn_handle&#45;&gt;with_tls_engine_await -->
<g id="edge12" class="edge">
<title>read_pool_spawn_handle&#45;&gt;with_tls_engine_await</title>
<path fill="none" stroke="#666666" d="M490.26,-152.94C498.69,-152.06 507.27,-151.16 515.72,-150.27"/>
<polygon fill="#666666" stroke="#666666" points="516.36,-153.72 525.94,-149.2 515.63,-146.76 516.36,-153.72"/>
</g>
<!-- snapshot -->
<g id="node14" class="node">
<title>snapshot</title>
<path fill="none" stroke="#1c2123" d="M615.5,-234C615.5,-234 575.5,-234 575.5,-234 569.5,-234 563.5,-228 563.5,-222 563.5,-222 563.5,-210 563.5,-210 563.5,-204 569.5,-198 575.5,-198 575.5,-198 615.5,-198 615.5,-198 621.5,-198 627.5,-204 627.5,-210 627.5,-210 627.5,-222 627.5,-222 627.5,-228 621.5,-234 615.5,-234"/>
<text text-anchor="middle" x="595.5" y="-212.3" font-family="Times,serif" font-size="14.00" fill="#2f3638">snapshot</text>
</g>
<!-- read_pool_spawn_handle&#45;&gt;snapshot -->
<g id="edge13" class="edge">
<title>read_pool_spawn_handle&#45;&gt;snapshot</title>
<path fill="none" stroke="#666666" d="M472.77,-179.01C499.2,-187.04 529.68,-196.3 553.53,-203.55"/>
<polygon fill="#666666" stroke="#666666" points="552.73,-206.97 563.32,-206.52 554.77,-200.27 552.73,-206.97"/>
</g>
<!-- snap_store_get -->
<g id="node15" class="node">
<title>snap_store_get</title>
<path fill="none" stroke="#1c2123" d="M2236,-177C2236,-177 2162,-177 2162,-177 2156,-177 2150,-171 2150,-165 2150,-165 2150,-153 2150,-153 2150,-147 2156,-141 2162,-141 2162,-141 2236,-141 2236,-141 2242,-141 2248,-147 2248,-153 2248,-153 2248,-165 2248,-165 2248,-171 2242,-177 2236,-177"/>
<text text-anchor="middle" x="2199" y="-155.3" font-family="Times,serif" font-size="14.00" fill="#2f3638">snap_store_get</text>
</g>
<!-- read_pool_spawn_handle&#45;&gt;snap_store_get -->
<g id="edge14" class="edge">
<title>read_pool_spawn_handle&#45;&gt;snap_store_get</title>
<path fill="none" stroke="#666666" d="M490.24,-178.96C541.52,-187.28 609.49,-191.07 665,-169 685.45,-160.87 680.65,-143.37 701,-135 804.81,-92.29 1093.75,-123 1206,-123 1206,-123 1206,-123 1967,-123 2026.37,-123 2093.3,-134.75 2139.78,-144.83"/>
<polygon fill="#666666" stroke="#666666" points="2139.15,-148.27 2149.67,-147.01 2140.66,-141.44 2139.15,-148.27"/>
</g>
<!-- snap_ctx -->
<g id="node22" class="node">
<title>snap_ctx</title>
<path fill="none" stroke="#1c2123" d="M765.5,-106C765.5,-106 724.5,-106 724.5,-106 718.5,-106 712.5,-100 712.5,-94 712.5,-94 712.5,-82 712.5,-82 712.5,-76 718.5,-70 724.5,-70 724.5,-70 765.5,-70 765.5,-70 771.5,-70 777.5,-76 777.5,-82 777.5,-82 777.5,-94 777.5,-94 777.5,-100 771.5,-106 765.5,-106"/>
<text text-anchor="middle" x="745" y="-84.3" font-family="Times,serif" font-size="14.00" fill="#2f3638">snap_ctx</text>
</g>
<!-- prepare_snap_ctx&#45;&gt;snap_ctx -->
<g id="edge26" class="edge">
<title>prepare_snap_ctx&#45;&gt;snap_ctx</title>
<path fill="none" stroke="#666666" d="M651.84,-88C668.45,-88 686.38,-88 701.98,-88"/>
<polygon fill="#666666" stroke="#666666" points="702.36,-91.5 712.36,-88 702.36,-84.5 702.36,-91.5"/>
</g>
<!-- kv_snapshot -->
<g id="node16" class="node">
<title>kv_snapshot</title>
<path fill="none" stroke="#1c2123" d="M775,-234C775,-234 715,-234 715,-234 709,-234 703,-228 703,-222 703,-222 703,-210 703,-210 703,-204 709,-198 715,-198 715,-198 775,-198 775,-198 781,-198 787,-204 787,-210 787,-210 787,-222 787,-222 787,-228 781,-234 775,-234"/>
<text text-anchor="middle" x="745" y="-212.3" font-family="Times,serif" font-size="14.00" fill="#2f3638">kv_snapshot</text>
</g>
<!-- snapshot&#45;&gt;kv_snapshot -->
<g id="edge15" class="edge">
<title>snapshot&#45;&gt;kv_snapshot</title>
<path fill="none" stroke="#666666" d="M627.78,-216C646.69,-216 671.25,-216 692.91,-216"/>
<polygon fill="#666666" stroke="#666666" points="692.96,-219.5 702.96,-216 692.96,-212.5 692.96,-219.5"/>
</g>
<!-- var_snapshot -->
<g id="node20" class="node">
<title>var_snapshot</title>
<path fill="none" stroke="#1c2123" d="M777,-180C777,-180 713,-180 713,-180 707,-180 701,-174 701,-168 701,-168 701,-156 701,-156 701,-150 707,-144 713,-144 713,-144 777,-144 777,-144 783,-144 789,-150 789,-156 789,-156 789,-168 789,-168 789,-174 783,-180 777,-180"/>
<text text-anchor="middle" x="745" y="-158.3" font-family="Times,serif" font-size="14.00" fill="#2f3638">var_snapshot</text>
</g>
<!-- snapshot&#45;&gt;var_snapshot -->
<g id="edge25" class="edge">
<title>snapshot&#45;&gt;var_snapshot</title>
<path fill="none" stroke="green" stroke-dasharray="5,2" d="M627.78,-204.55C646.19,-197.81 669.95,-189.11 691.18,-181.34"/>
<polygon fill="green" stroke="green" points="692.55,-184.56 700.74,-177.84 690.14,-177.99 692.55,-184.56"/>
</g>
<!-- kv_snapshot&#45;&gt;engine_async_snapshot -->
<g id="edge16" class="edge">
<title>kv_snapshot&#45;&gt;engine_async_snapshot</title>
<path fill="none" stroke="#666666" d="M765.9,-234.09C779.81,-246.42 799.04,-262.83 817,-276 829.55,-285.21 843.78,-294.53 856.67,-302.59"/>
<polygon fill="#666666" stroke="#666666" points="855,-305.67 865.34,-307.95 858.68,-299.72 855,-305.67"/>
</g>
<!-- paired_must_called_future_callback -->
<g id="node17" class="node">
<title>paired_must_called_future_callback</title>
<path fill="none" stroke="#1c2123" d="M1697,-234C1697,-234 1507,-234 1507,-234 1501,-234 1495,-228 1495,-222 1495,-222 1495,-210 1495,-210 1495,-204 1501,-198 1507,-198 1507,-198 1697,-198 1697,-198 1703,-198 1709,-204 1709,-210 1709,-210 1709,-222 1709,-222 1709,-228 1703,-234 1697,-234"/>
<text text-anchor="middle" x="1602" y="-212.3" font-family="Times,serif" font-size="14.00" fill="#2f3638">paired_must_called_future_callback</text>
</g>
<!-- kv_snapshot&#45;&gt;paired_must_called_future_callback -->
<g id="edge17" class="edge">
<title>kv_snapshot&#45;&gt;paired_must_called_future_callback</title>
<path fill="none" stroke="#666666" d="M787.01,-216.22C845.65,-216.51 956.83,-217 1051.5,-217 1051.5,-217 1051.5,-217 1208,-217 1300.89,-217 1406.12,-216.72 1484.3,-216.45"/>
<polygon fill="#666666" stroke="#666666" points="1484.68,-219.95 1494.67,-216.42 1484.65,-212.95 1484.68,-219.95"/>
</g>
<!-- future_await -->
<g id="node18" class="node">
<title>future_await</title>
<path fill="none" stroke="#1c2123" d="M2102,-224C2102,-224 2041,-224 2041,-224 2035,-224 2029,-218 2029,-212 2029,-212 2029,-200 2029,-200 2029,-194 2035,-188 2041,-188 2041,-188 2102,-188 2102,-188 2108,-188 2114,-194 2114,-200 2114,-200 2114,-212 2114,-212 2114,-218 2108,-224 2102,-224"/>
<text text-anchor="middle" x="2071.5" y="-202.3" font-family="Times,serif" font-size="14.00" fill="#2f3638">future_await</text>
</g>
<!-- kv_snapshot&#45;&gt;future_await -->
<g id="edge18" class="edge">
<title>kv_snapshot&#45;&gt;future_await</title>
<path fill="none" stroke="#666666" d="M787.46,-211.78C846.16,-206.19 956.91,-197 1051.5,-197 1051.5,-197 1051.5,-197 1208,-197 1556.91,-197 1646.12,-151.4 1993,-189 2001.46,-189.92 2010.36,-191.38 2018.98,-193.08"/>
<polygon fill="#666666" stroke="#666666" points="2018.44,-196.54 2028.94,-195.16 2019.87,-189.69 2018.44,-196.54"/>
</g>
<!-- paired_must_called_future_callback&#45;&gt;callback -->
<g id="edge19" class="edge">
<title>paired_must_called_future_callback&#45;&gt;callback</title>
<path fill="none" stroke="#666666" d="M1644.79,-234.08C1673,-246.18 1711.12,-262.33 1745,-276 1757.42,-281.01 1771.03,-286.31 1783.35,-291.04"/>
<polygon fill="#666666" stroke="#666666" points="1782.32,-294.39 1792.91,-294.69 1784.82,-287.85 1782.32,-294.39"/>
</g>
<!-- paired_must_called_future_callback&#45;&gt;future -->
<g id="edge20" class="edge">
<title>paired_must_called_future_callback&#45;&gt;future</title>
<path fill="none" stroke="#666666" d="M1709.17,-216C1783.37,-216 1877.95,-216 1928.78,-216"/>
<polygon fill="#666666" stroke="#666666" points="1928.94,-219.5 1938.94,-216 1928.94,-212.5 1928.94,-219.5"/>
</g>
<!-- future_await&#45;&gt;snap_store_get -->
<g id="edge40" class="edge">
<title>future_await&#45;&gt;snap_store_get</title>
<path fill="none" stroke="#666666" d="M2114.29,-190.35C2122.67,-187.21 2131.61,-183.86 2140.41,-180.57"/>
<polygon fill="#666666" stroke="#666666" points="2141.74,-183.81 2149.88,-177.02 2139.29,-177.25 2141.74,-183.81"/>
</g>
<!-- v_await -->
<g id="node29" class="node">
<title>v_await</title>
<path fill="none" stroke="#1c2123" d="M2216.5,-578C2216.5,-578 2181.5,-578 2181.5,-578 2175.5,-578 2169.5,-572 2169.5,-566 2169.5,-566 2169.5,-554 2169.5,-554 2169.5,-548 2175.5,-542 2181.5,-542 2181.5,-542 2216.5,-542 2216.5,-542 2222.5,-542 2228.5,-548 2228.5,-554 2228.5,-554 2228.5,-566 2228.5,-566 2228.5,-572 2222.5,-578 2216.5,-578"/>
<text text-anchor="middle" x="2199" y="-556.3" font-family="Times,serif" font-size="14.00" fill="#2f3638">v_await</text>
</g>
<!-- future_await&#45;&gt;v_await -->
<g id="edge38" class="edge">
<title>future_await&#45;&gt;v_await</title>
<path fill="none" stroke="green" stroke-dasharray="5,2" d="M2078.9,-224.04C2099.37,-281.8 2163.42,-462.45 2188.13,-532.17"/>
<polygon fill="green" stroke="green" points="2184.98,-533.74 2191.62,-541.99 2191.57,-531.4 2184.98,-533.74"/>
</g>
<!-- future&#45;&gt;future_await -->
<g id="edge22" class="edge">
<title>future&#45;&gt;future_await</title>
<path fill="none" stroke="green" stroke-dasharray="5,2" d="M1993.12,-213.48C2000.95,-212.72 2009.83,-211.86 2018.71,-211"/>
<polygon fill="green" stroke="green" points="2019.07,-214.49 2028.68,-210.04 2018.39,-207.52 2019.07,-214.49"/>
</g>
<!-- snap_store -->
<g id="node21" class="node">
<title>snap_store</title>
<path fill="none" stroke="#1c2123" d="M1411.5,-178C1411.5,-178 1361.5,-178 1361.5,-178 1355.5,-178 1349.5,-172 1349.5,-166 1349.5,-166 1349.5,-154 1349.5,-154 1349.5,-148 1355.5,-142 1361.5,-142 1361.5,-142 1411.5,-142 1411.5,-142 1417.5,-142 1423.5,-148 1423.5,-154 1423.5,-154 1423.5,-166 1423.5,-166 1423.5,-172 1417.5,-178 1411.5,-178"/>
<text text-anchor="middle" x="1386.5" y="-156.3" font-family="Times,serif" font-size="14.00" fill="#2f3638">snap_store</text>
</g>
<!-- var_snapshot&#45;&gt;snap_store -->
<g id="edge23" class="edge">
<title>var_snapshot&#45;&gt;snap_store</title>
<path fill="none" stroke="green" stroke-dasharray="5,2" d="M789.2,-161.86C904.68,-161.5 1219.83,-160.52 1339.01,-160.15"/>
<polygon fill="green" stroke="green" points="1339.26,-163.64 1349.25,-160.11 1339.24,-156.64 1339.26,-163.64"/>
</g>
<!-- snap_store&#45;&gt;snap_store_get -->
<g id="edge24" class="edge">
<title>snap_store&#45;&gt;snap_store_get</title>
<path fill="none" stroke="green" stroke-dasharray="5,2" d="M1423.63,-159.86C1498.25,-159.59 1674.81,-159 1823,-159 1823,-159 1823,-159 1967,-159 2025.72,-159 2092.84,-159 2139.54,-159"/>
<polygon fill="green" stroke="green" points="2139.78,-162.5 2149.78,-159 2139.78,-155.5 2139.78,-162.5"/>
</g>
<!-- kv_get -->
<g id="node23" class="node">
<title>kv_get</title>
<path fill="none" stroke="#1c2123" d="M58,-617C58,-617 28,-617 28,-617 22,-617 16,-611 16,-605 16,-605 16,-593 16,-593 16,-587 22,-581 28,-581 28,-581 58,-581 58,-581 64,-581 70,-587 70,-593 70,-593 70,-605 70,-605 70,-611 64,-617 58,-617"/>
<text text-anchor="middle" x="43" y="-595.3" font-family="Times,serif" font-size="14.00" fill="#2f3638">kv_get</text>
</g>
<!-- future_get -->
<g id="node24" class="node">
<title>future_get</title>
<path fill="none" stroke="#1c2123" d="M168,-563C168,-563 120,-563 120,-563 114,-563 108,-557 108,-551 108,-551 108,-539 108,-539 108,-533 114,-527 120,-527 120,-527 168,-527 168,-527 174,-527 180,-533 180,-539 180,-539 180,-551 180,-551 180,-557 174,-563 168,-563"/>
<text text-anchor="middle" x="144" y="-541.3" font-family="Times,serif" font-size="14.00" fill="#2f3638">future_get</text>
</g>
<!-- kv_get&#45;&gt;future_get -->
<g id="edge27" class="edge">
<title>kv_get&#45;&gt;future_get</title>
<path fill="none" stroke="#666666" d="M70.01,-584.81C79.4,-579.69 90.27,-573.76 100.7,-568.08"/>
<polygon fill="#666666" stroke="#666666" points="102.6,-571.03 109.7,-563.16 99.24,-564.88 102.6,-571.03"/>
</g>
<!-- async_task -->
<g id="node25" class="node">
<title>async_task</title>
<path fill="none" stroke="#1c2123" d="M170,-617C170,-617 118,-617 118,-617 112,-617 106,-611 106,-605 106,-605 106,-593 106,-593 106,-587 112,-581 118,-581 118,-581 170,-581 170,-581 176,-581 182,-587 182,-593 182,-593 182,-605 182,-605 182,-611 176,-617 170,-617"/>
<text text-anchor="middle" x="144" y="-595.3" font-family="Times,serif" font-size="14.00" fill="#2f3638">async_task</text>
</g>
<!-- kv_get&#45;&gt;async_task -->
<g id="edge28" class="edge">
<title>kv_get&#45;&gt;async_task</title>
<path fill="none" stroke="#666666" d="M70.01,-599C77.92,-599 86.86,-599 95.72,-599"/>
<polygon fill="#666666" stroke="#666666" points="96,-602.5 106,-599 96,-595.5 96,-602.5"/>
</g>
<!-- ctx_spawn -->
<g id="node26" class="node">
<title>ctx_spawn</title>
<path fill="none" stroke="#1c2123" d="M283.5,-637C283.5,-637 233.5,-637 233.5,-637 227.5,-637 221.5,-631 221.5,-625 221.5,-625 221.5,-613 221.5,-613 221.5,-607 227.5,-601 233.5,-601 233.5,-601 283.5,-601 283.5,-601 289.5,-601 295.5,-607 295.5,-613 295.5,-613 295.5,-625 295.5,-625 295.5,-631 289.5,-637 283.5,-637"/>
<text text-anchor="middle" x="258.5" y="-615.3" font-family="Times,serif" font-size="14.00" fill="#2f3638">ctx_spawn</text>
</g>
<!-- kv_get&#45;&gt;ctx_spawn -->
<g id="edge29" class="edge">
<title>kv_get&#45;&gt;ctx_spawn</title>
<path fill="none" stroke="#666666" d="M70.06,-613.19C80.85,-618.3 93.7,-623.44 106,-626 140.7,-633.23 180.8,-630.92 211.03,-627.1"/>
<polygon fill="#666666" stroke="#666666" points="211.85,-630.52 221.28,-625.7 210.9,-623.59 211.85,-630.52"/>
</g>
<!-- future_get&#45;&gt;Storage_get -->
<g id="edge34" class="edge">
<title>future_get&#45;&gt;Storage_get</title>
<path fill="none" stroke="#666666" d="M151.21,-526.84C169.88,-472.24 225.6,-309.29 248.01,-243.75"/>
<polygon fill="#666666" stroke="#666666" points="251.39,-244.7 251.31,-234.1 244.76,-242.43 251.39,-244.7"/>
</g>
<!-- resp -->
<g id="node28" class="node">
<title>resp</title>
<path fill="none" stroke="#1c2123" d="M1067.5,-602C1067.5,-602 1037.5,-602 1037.5,-602 1031.5,-602 1025.5,-596 1025.5,-590 1025.5,-590 1025.5,-578 1025.5,-578 1025.5,-572 1031.5,-566 1037.5,-566 1037.5,-566 1067.5,-566 1067.5,-566 1073.5,-566 1079.5,-572 1079.5,-578 1079.5,-578 1079.5,-590 1079.5,-590 1079.5,-596 1073.5,-602 1067.5,-602"/>
<text text-anchor="middle" x="1052.5" y="-580.3" font-family="Times,serif" font-size="14.00" fill="#2f3638">resp</text>
</g>
<!-- future_get&#45;&gt;resp -->
<g id="edge33" class="edge">
<title>future_get&#45;&gt;resp</title>
<path fill="none" stroke="#666666" d="M180.24,-547.37C256,-552.26 440.06,-563 594.5,-563 594.5,-563 594.5,-563 746,-563 843.59,-563 958.31,-573.8 1015.41,-579.91"/>
<polygon fill="#666666" stroke="#666666" points="1015.07,-583.39 1025.39,-580.99 1015.82,-576.43 1015.07,-583.39"/>
</g>
<!-- future_get&#45;&gt;v_await -->
<g id="edge35" class="edge">
<title>future_get&#45;&gt;v_await</title>
<path fill="none" stroke="#666666" d="M180.26,-544.74C256.06,-544.19 440.18,-543 594.5,-543 594.5,-543 594.5,-543 746,-543 903.46,-543 946.24,-523.08 1100,-557 1116.93,-560.73 1119.07,-568.26 1136,-572 1244.37,-595.94 1274.52,-582 1385.5,-582 1385.5,-582 1385.5,-582 1967,-582 2034.83,-582 2113.37,-572.48 2159.18,-565.97"/>
<polygon fill="#666666" stroke="#666666" points="2159.88,-569.4 2169.27,-564.51 2158.87,-562.48 2159.88,-569.4"/>
</g>
<!-- async_task&#45;&gt;ctx_spawn -->
<g id="edge30" class="edge">
<title>async_task&#45;&gt;ctx_spawn</title>
<path fill="none" stroke="green" stroke-dasharray="5,2" d="M182.15,-605.6C191.46,-607.26 201.56,-609.06 211.25,-610.78"/>
<polygon fill="green" stroke="green" points="210.7,-614.23 221.16,-612.54 211.92,-607.34 210.7,-614.23"/>
</g>
<!-- resp_await -->
<g id="node27" class="node">
<title>resp_await</title>
<path fill="none" stroke="#1c2123" d="M2347,-620C2347,-620 2296,-620 2296,-620 2290,-620 2284,-614 2284,-608 2284,-608 2284,-596 2284,-596 2284,-590 2290,-584 2296,-584 2296,-584 2347,-584 2347,-584 2353,-584 2359,-590 2359,-596 2359,-596 2359,-608 2359,-608 2359,-614 2353,-620 2347,-620"/>
<text text-anchor="middle" x="2321.5" y="-598.3" font-family="Times,serif" font-size="14.00" fill="#2f3638">resp_await</text>
</g>
<!-- async_task&#45;&gt;resp_await -->
<g id="edge31" class="edge">
<title>async_task&#45;&gt;resp_await</title>
<path fill="none" stroke="#666666" d="M182.07,-594.31C191.19,-593.35 200.93,-592.49 210,-592 249.5,-589.88 259.45,-591.35 299,-592 702.28,-598.67 802.67,-622 1206,-622 1206,-622 1206,-622 2072.5,-622 2142.67,-622 2223.64,-613.95 2273.46,-608.06"/>
<polygon fill="#666666" stroke="#666666" points="2274.09,-611.51 2283.6,-606.84 2273.25,-604.56 2274.09,-611.51"/>
</g>
<!-- resp&#45;&gt;resp_await -->
<g id="edge32" class="edge">
<title>resp&#45;&gt;resp_await</title>
<path fill="none" stroke="#666666" d="M1079.73,-586.39C1135.79,-591.29 1271.5,-602 1385.5,-602 1385.5,-602 1385.5,-602 2072.5,-602 2142.64,-602 2223.94,-602 2273.8,-602"/>
<polygon fill="#666666" stroke="#666666" points="2273.94,-605.5 2283.94,-602 2273.94,-598.5 2273.94,-605.5"/>
</g>
<!-- v_await&#45;&gt;resp_await -->
<g id="edge39" class="edge">
<title>v_await&#45;&gt;resp_await</title>
<path fill="none" stroke="green" stroke-dasharray="5,2" d="M2228.56,-569.95C2242.14,-574.69 2258.74,-580.47 2274.07,-585.82"/>
<polygon fill="green" stroke="green" points="2273.32,-589.26 2283.92,-589.25 2275.63,-582.65 2273.32,-589.26"/>
</g>
<!-- v&#45;&gt;v_await -->
<g id="edge36" class="edge">
<title>v&#45;&gt;v_await</title>
<path fill="none" stroke="#666666" d="M1234.21,-546.01C1297.33,-548.37 1462.8,-554 1601,-554 1601,-554 1601,-554 1967,-554 2034.55,-554 2113.18,-556.6 2159.08,-558.37"/>
<polygon fill="#666666" stroke="#666666" points="2159.07,-561.87 2169.2,-558.77 2159.34,-554.88 2159.07,-561.87"/>
</g>
</g>
</svg>
