<?xml version="1.0" encoding="UTF-8" standalone="no"?>
<!DOCTYPE svg PUBLIC "-//W3C//DTD SVG 1.1//EN"
 "http://www.w3.org/Graphics/SVG/1.1/DTD/svg11.dtd">
<!-- Generated by graphviz version 2.47.1 (20210417.1919)
 -->
<!-- Title: tipb_executor Pages: 1 -->
<svg width="1619pt" height="1525pt"
 viewBox="0.00 0.00 1619.00 1525.00" xmlns="http://www.w3.org/2000/svg" xmlns:xlink="http://www.w3.org/1999/xlink">
<g id="graph0" class="graph" transform="scale(1 1) rotate(0) translate(4 1521)">
<title>tipb_executor</title>
<polygon fill="white" stroke="transparent" points="-4,4 -4,-1521 1615,-1521 1615,4 -4,4"/>
<g id="clust9" class="cluster">
<title>cluster_Exchange</title>
<path fill="none" stroke="slategrey" stroke-dasharray="5,2" d="M105,-288C105,-288 888,-288 888,-288 894,-288 900,-294 900,-300 900,-300 900,-438 900,-438 900,-444 894,-450 888,-450 888,-450 105,-450 105,-450 99,-450 93,-444 93,-438 93,-438 93,-300 93,-300 93,-294 99,-288 105,-288"/>
<text text-anchor="middle" x="496.5" y="-430" font-family="Times,serif" font-size="20.00">Exchange</text>
</g>
<g id="clust10" class="cluster">
<title>cluster_DataSource</title>
<path fill="none" stroke="slategrey" stroke-dasharray="5,2" d="M961,-1076C961,-1076 1591,-1076 1591,-1076 1597,-1076 1603,-1082 1603,-1088 1603,-1088 1603,-1497 1603,-1497 1603,-1503 1597,-1509 1591,-1509 1591,-1509 961,-1509 961,-1509 955,-1509 949,-1503 949,-1497 949,-1497 949,-1088 949,-1088 949,-1082 955,-1076 961,-1076"/>
<text text-anchor="middle" x="1276" y="-1489" font-family="Times,serif" font-size="20.00">DataSource</text>
<text text-anchor="middle" x="1276" y="-1467" font-family="Times,serif" font-size="20.00">最底层数据源</text>
<text text-anchor="middle" x="1276" y="-1445" font-family="Times,serif" font-size="20.00">从storage中scan数据</text>
</g>
<g id="clust11" class="cluster">
<title>cluster_Expr</title>
<path fill="none" stroke="slategrey" stroke-dasharray="5,2" d="M707,-974C707,-974 1118,-974 1118,-974 1124,-974 1130,-980 1130,-986 1130,-986 1130,-1056 1130,-1056 1130,-1062 1124,-1068 1118,-1068 1118,-1068 707,-1068 707,-1068 701,-1068 695,-1062 695,-1056 695,-1056 695,-986 695,-986 695,-980 701,-974 707,-974"/>
<text text-anchor="middle" x="912.5" y="-1048" font-family="Times,serif" font-size="20.00">Expr</text>
</g>
<!-- 1 -->
<!-- 2 -->
<!-- 1&#45;&gt;2 -->
<!-- 3 -->
<!-- 2&#45;&gt;3 -->
<!-- 4 -->
<!-- 3&#45;&gt;4 -->
<!-- 5 -->
<!-- 4&#45;&gt;5 -->
<!-- Executor -->
<g id="node6" class="node">
<title>Executor</title>
<path fill="none" stroke="#1c2123" d="M53,-541C53,-541 12,-541 12,-541 6,-541 0,-535 0,-529 0,-529 0,-517 0,-517 0,-511 6,-505 12,-505 12,-505 53,-505 53,-505 59,-505 65,-511 65,-517 65,-517 65,-529 65,-529 65,-535 59,-541 53,-541"/>
<text text-anchor="middle" x="32.5" y="-519.3" font-family="Times,serif" font-size="14.00" fill="#2f3638">Executor</text>
</g>
<!-- ExecType -->
<g id="node7" class="node">
<title>ExecType</title>
<path fill="none" stroke="#1c2123" d="M240.5,-518C240.5,-518 193.5,-518 193.5,-518 187.5,-518 181.5,-512 181.5,-506 181.5,-506 181.5,-494 181.5,-494 181.5,-488 187.5,-482 193.5,-482 193.5,-482 240.5,-482 240.5,-482 246.5,-482 252.5,-488 252.5,-494 252.5,-494 252.5,-506 252.5,-506 252.5,-512 246.5,-518 240.5,-518"/>
<text text-anchor="middle" x="217" y="-496.3" font-family="Times,serif" font-size="14.00" fill="#2f3638">ExecType</text>
</g>
<!-- Executor&#45;&gt;ExecType -->
<g id="edge5" class="edge">
<title>Executor&#45;&gt;ExecType</title>
<path fill="none" stroke="red" d="M65.29,-518.99C94.59,-515.3 138.39,-509.78 171.23,-505.64"/>
<polygon fill="red" stroke="red" points="171.99,-509.07 181.47,-504.35 171.11,-502.13 171.99,-509.07"/>
</g>
<!-- TableScan -->
<g id="node8" class="node">
<title>TableScan</title>
<path fill="none" stroke="#1c2123" d="M969,-1085C969,-1085 1221,-1085 1221,-1085 1227,-1085 1233,-1091 1233,-1097 1233,-1097 1233,-1257 1233,-1257 1233,-1263 1227,-1269 1221,-1269 1221,-1269 969,-1269 969,-1269 963,-1269 957,-1263 957,-1257 957,-1257 957,-1097 957,-1097 957,-1091 963,-1085 969,-1085"/>
<text text-anchor="middle" x="1095" y="-1253.8" font-family="Times,serif" font-size="14.00" fill="#2f3638">TableScan</text>
<polyline fill="none" stroke="#1c2123" points="957,-1246 1233,-1246 "/>
<text text-anchor="start" x="965" y="-1230.8" font-family="Times,serif" font-size="14.00" fill="#2f3638">optional int64 table_id = 1</text>
<polyline fill="none" stroke="#1c2123" points="957,-1223 1233,-1223 "/>
<text text-anchor="start" x="965" y="-1207.8" font-family="Times,serif" font-size="14.00" fill="#2f3638">repeated ColumnInfo columns = 2;</text>
<polyline fill="none" stroke="#1c2123" points="957,-1200 1233,-1200 "/>
<text text-anchor="start" x="965" y="-1184.8" font-family="Times,serif" font-size="14.00" fill="#2f3638">optional bool desc = 3</text>
<polyline fill="none" stroke="#1c2123" points="957,-1177 1233,-1177 "/>
<text text-anchor="start" x="965" y="-1161.8" font-family="Times,serif" font-size="14.00" fill="#2f3638">repeated int64 primary_column_ids = 4;</text>
<polyline fill="none" stroke="#1c2123" points="957,-1154 1233,-1154 "/>
<text text-anchor="start" x="965" y="-1138.8" font-family="Times,serif" font-size="14.00" fill="#2f3638">optional EngineType next_read_engine = 5</text>
<polyline fill="none" stroke="#1c2123" points="957,-1131 1233,-1131 "/>
<text text-anchor="start" x="965" y="-1115.8" font-family="Times,serif" font-size="14.00" fill="#2f3638">repeated KeyRange ranges = 6</text>
<polyline fill="none" stroke="#1c2123" points="957,-1108 1233,-1108 "/>
<text text-anchor="start" x="965" y="-1092.8" font-family="Times,serif" font-size="14.00" fill="#2f3638">repeated int64 primary_prefix_column_ids = 7;</text>
</g>
<!-- Executor&#45;&gt;TableScan -->
<g id="edge6" class="edge">
<title>Executor&#45;&gt;TableScan</title>
<path fill="none" stroke="red" d="M34.18,-541.12C36.53,-585.59 47,-702.58 93,-786 176.77,-937.91 214.44,-983.23 369,-1062 552.7,-1155.62 793.76,-1176.84 946.32,-1179.78"/>
<polygon fill="red" stroke="red" points="946.64,-1183.29 956.7,-1179.95 946.76,-1176.29 946.64,-1183.29"/>
</g>
<!-- IndexScan -->
<g id="node9" class="node">
<title>IndexScan</title>
<path fill="none" stroke="#1c2123" d="M1002.5,-1288C1002.5,-1288 1187.5,-1288 1187.5,-1288 1193.5,-1288 1199.5,-1294 1199.5,-1300 1199.5,-1300 1199.5,-1414 1199.5,-1414 1199.5,-1420 1193.5,-1426 1187.5,-1426 1187.5,-1426 1002.5,-1426 1002.5,-1426 996.5,-1426 990.5,-1420 990.5,-1414 990.5,-1414 990.5,-1300 990.5,-1300 990.5,-1294 996.5,-1288 1002.5,-1288"/>
<text text-anchor="middle" x="1095" y="-1410.8" font-family="Times,serif" font-size="14.00" fill="#2f3638">IndexScan</text>
<polyline fill="none" stroke="#1c2123" points="990.5,-1403 1199.5,-1403 "/>
<text text-anchor="start" x="998.5" y="-1387.8" font-family="Times,serif" font-size="14.00" fill="#2f3638">optional int64 table_id = 1</text>
<polyline fill="none" stroke="#1c2123" points="990.5,-1380 1199.5,-1380 "/>
<text text-anchor="start" x="998.5" y="-1364.8" font-family="Times,serif" font-size="14.00" fill="#2f3638">optional int64 index_id = 2</text>
<polyline fill="none" stroke="#1c2123" points="990.5,-1357 1199.5,-1357 "/>
<text text-anchor="start" x="998.5" y="-1341.8" font-family="Times,serif" font-size="14.00" fill="#2f3638">repeated ColumnInfo columns = 3;</text>
<polyline fill="none" stroke="#1c2123" points="990.5,-1334 1199.5,-1334 "/>
<text text-anchor="start" x="998.5" y="-1318.8" font-family="Times,serif" font-size="14.00" fill="#2f3638">optional bool desc = 4</text>
<polyline fill="none" stroke="#1c2123" points="990.5,-1311 1199.5,-1311 "/>
<text text-anchor="start" x="998.5" y="-1295.8" font-family="Times,serif" font-size="14.00" fill="#2f3638">optional bool unique = 5;</text>
</g>
<!-- Executor&#45;&gt;IndexScan -->
<g id="edge7" class="edge">
<title>Executor&#45;&gt;IndexScan</title>
<path fill="none" stroke="red" d="M34.26,-541.28C37.46,-611.2 51.62,-861.11 93,-927 287.95,-1237.41 761.4,-1324.27 979.96,-1348.16"/>
<polygon fill="red" stroke="red" points="979.86,-1351.67 990.17,-1349.25 980.6,-1344.7 979.86,-1351.67"/>
</g>
<!-- Selection -->
<g id="node10" class="node">
<title>Selection</title>
<path fill="none" stroke="#1c2123" d="M381,-645C381,-645 583,-645 583,-645 589,-645 595,-651 595,-657 595,-657 595,-725 595,-725 595,-731 589,-737 583,-737 583,-737 381,-737 381,-737 375,-737 369,-731 369,-725 369,-725 369,-657 369,-657 369,-651 375,-645 381,-645"/>
<text text-anchor="middle" x="482" y="-721.8" font-family="Times,serif" font-size="14.00" fill="#2f3638">Selection</text>
<polyline fill="none" stroke="#1c2123" points="369,-714 595,-714 "/>
<text text-anchor="start" x="377" y="-698.8" font-family="Times,serif" font-size="14.00" fill="#2f3638">repeated Expr conditions = 1;</text>
<polyline fill="none" stroke="#1c2123" points="369,-691 595,-691 "/>
<text text-anchor="start" x="377" y="-675.8" font-family="Times,serif" font-size="14.00" fill="#2f3638">repeated RpnExpr rpn_conditions = 2;</text>
<polyline fill="none" stroke="#1c2123" points="369,-668 595,-668 "/>
<text text-anchor="start" x="377" y="-652.8" font-family="Times,serif" font-size="14.00" fill="#2f3638">optional Executor child = 3;</text>
</g>
<!-- Executor&#45;&gt;Selection -->
<g id="edge8" class="edge">
<title>Executor&#45;&gt;Selection</title>
<path fill="none" stroke="red" d="M57.88,-541.05C68.24,-547.94 80.75,-555.26 93,-560 194.15,-599.1 231.37,-566.17 333,-604 357.54,-613.13 382.66,-626.24 405.08,-639.52"/>
<polygon fill="red" stroke="red" points="403.48,-642.65 413.85,-644.81 407.1,-636.65 403.48,-642.65"/>
</g>
<!-- Aggregation -->
<g id="node11" class="node">
<title>Aggregation</title>
<path fill="none" stroke="#1c2123" d="M383.5,-54.5C383.5,-54.5 580.5,-54.5 580.5,-54.5 586.5,-54.5 592.5,-60.5 592.5,-66.5 592.5,-66.5 592.5,-203.5 592.5,-203.5 592.5,-209.5 586.5,-215.5 580.5,-215.5 580.5,-215.5 383.5,-215.5 383.5,-215.5 377.5,-215.5 371.5,-209.5 371.5,-203.5 371.5,-203.5 371.5,-66.5 371.5,-66.5 371.5,-60.5 377.5,-54.5 383.5,-54.5"/>
<text text-anchor="middle" x="482" y="-200.3" font-family="Times,serif" font-size="14.00" fill="#2f3638">Aggregation</text>
<polyline fill="none" stroke="#1c2123" points="371.5,-192.5 592.5,-192.5 "/>
<text text-anchor="start" x="379.5" y="-177.3" font-family="Times,serif" font-size="14.00" fill="#2f3638">repeated Expr group_by = 1;</text>
<polyline fill="none" stroke="#1c2123" points="371.5,-169.5 592.5,-169.5 "/>
<text text-anchor="start" x="379.5" y="-154.3" font-family="Times,serif" font-size="14.00" fill="#2f3638">repeated RpnExpr rpn_group_by = 4;</text>
<polyline fill="none" stroke="#1c2123" points="371.5,-146.5 592.5,-146.5 "/>
<text text-anchor="start" x="379.5" y="-131.3" font-family="Times,serif" font-size="14.00" fill="#2f3638">repeated Expr agg_func = 2;</text>
<polyline fill="none" stroke="#1c2123" points="371.5,-123.5 592.5,-123.5 "/>
<text text-anchor="start" x="379.5" y="-108.3" font-family="Times,serif" font-size="14.00" fill="#2f3638">repeated RpnExpr rpn_agg_func = 5;</text>
<polyline fill="none" stroke="#1c2123" points="371.5,-100.5 592.5,-100.5 "/>
<text text-anchor="start" x="379.5" y="-85.3" font-family="Times,serif" font-size="14.00" fill="#2f3638">optional bool streamed = 3</text>
<polyline fill="none" stroke="#1c2123" points="371.5,-77.5 592.5,-77.5 "/>
<text text-anchor="start" x="379.5" y="-62.3" font-family="Times,serif" font-size="14.00" fill="#2f3638">optional Executor child = 6;</text>
</g>
<!-- Executor&#45;&gt;Aggregation -->
<g id="edge9" class="edge">
<title>Executor&#45;&gt;Aggregation</title>
<path fill="none" stroke="red" d="M33.44,-504.6C33.65,-435.5 38.32,-192.98 93,-145 164.86,-81.94 276.25,-85.71 361.28,-101.6"/>
<polygon fill="red" stroke="red" points="360.76,-105.07 371.25,-103.54 362.1,-98.19 360.76,-105.07"/>
</g>
<!-- TopN -->
<g id="node12" class="node">
<title>TopN</title>
<path fill="none" stroke="#1c2123" d="M136,-613C136,-613 298,-613 298,-613 304,-613 310,-619 310,-625 310,-625 310,-693 310,-693 310,-699 304,-705 298,-705 298,-705 136,-705 136,-705 130,-705 124,-699 124,-693 124,-693 124,-625 124,-625 124,-619 130,-613 136,-613"/>
<text text-anchor="middle" x="217" y="-689.8" font-family="Times,serif" font-size="14.00" fill="#2f3638">TopN</text>
<polyline fill="none" stroke="#1c2123" points="124,-682 310,-682 "/>
<text text-anchor="start" x="132" y="-666.8" font-family="Times,serif" font-size="14.00" fill="#2f3638">repeated ByItem order_by = 1;</text>
<polyline fill="none" stroke="#1c2123" points="124,-659 310,-659 "/>
<text text-anchor="start" x="132" y="-643.8" font-family="Times,serif" font-size="14.00" fill="#2f3638">optional uint64 limit = 2 </text>
<polyline fill="none" stroke="#1c2123" points="124,-636 310,-636 "/>
<text text-anchor="start" x="132" y="-620.8" font-family="Times,serif" font-size="14.00" fill="#2f3638">optional Executor child = 3;</text>
</g>
<!-- Executor&#45;&gt;TopN -->
<g id="edge10" class="edge">
<title>Executor&#45;&gt;TopN</title>
<path fill="none" stroke="red" d="M44.62,-541.24C55.38,-557.72 72.97,-581.8 93,-598 99.94,-603.62 107.48,-608.89 115.3,-613.81"/>
<polygon fill="red" stroke="red" points="113.51,-616.82 123.88,-619.01 117.14,-610.83 113.51,-616.82"/>
</g>
<!-- Limit -->
<g id="node13" class="node">
<title>Limit</title>
<path fill="none" stroke="#1c2123" d="M703,-208.5C703,-208.5 849,-208.5 849,-208.5 855,-208.5 861,-214.5 861,-220.5 861,-220.5 861,-265.5 861,-265.5 861,-271.5 855,-277.5 849,-277.5 849,-277.5 703,-277.5 703,-277.5 697,-277.5 691,-271.5 691,-265.5 691,-265.5 691,-220.5 691,-220.5 691,-214.5 697,-208.5 703,-208.5"/>
<text text-anchor="middle" x="776" y="-262.3" font-family="Times,serif" font-size="14.00" fill="#2f3638">Limit</text>
<polyline fill="none" stroke="#1c2123" points="691,-254.5 861,-254.5 "/>
<text text-anchor="start" x="699" y="-239.3" font-family="Times,serif" font-size="14.00" fill="#2f3638">optional uint64 limit = 1;</text>
<polyline fill="none" stroke="#1c2123" points="691,-231.5 861,-231.5 "/>
<text text-anchor="start" x="699" y="-216.3" font-family="Times,serif" font-size="14.00" fill="#2f3638">optional Executor child = 2;</text>
</g>
<!-- Executor&#45;&gt;Limit -->
<g id="edge11" class="edge">
<title>Executor&#45;&gt;Limit</title>
<path fill="none" stroke="red" d="M35.31,-504.68C40.72,-453.79 58.64,-312.56 93,-284 137.13,-247.32 504.17,-242.67 680.77,-242.58"/>
<polygon fill="red" stroke="red" points="680.84,-246.08 690.84,-242.58 680.84,-239.08 680.84,-246.08"/>
</g>
<!-- ExchangeReceiver -->
<g id="node14" class="node">
<title>ExchangeReceiver</title>
<path fill="none" stroke="#1c2123" d="M113,-319C113,-319 321,-319 321,-319 327,-319 333,-325 333,-331 333,-331 333,-399 333,-399 333,-405 327,-411 321,-411 321,-411 113,-411 113,-411 107,-411 101,-405 101,-399 101,-399 101,-331 101,-331 101,-325 107,-319 113,-319"/>
<text text-anchor="middle" x="217" y="-395.8" font-family="Times,serif" font-size="14.00" fill="#2f3638">ExchangeReceiver</text>
<polyline fill="none" stroke="#1c2123" points="101,-388 333,-388 "/>
<text text-anchor="start" x="109" y="-372.8" font-family="Times,serif" font-size="14.00" fill="#2f3638">repeated bytes encoded_task_meta = 1;</text>
<polyline fill="none" stroke="#1c2123" points="101,-365 333,-365 "/>
<text text-anchor="start" x="109" y="-349.8" font-family="Times,serif" font-size="14.00" fill="#2f3638">repeated FieldType field_types = 2;</text>
<polyline fill="none" stroke="#1c2123" points="101,-342 333,-342 "/>
<text text-anchor="start" x="109" y="-326.8" font-family="Times,serif" font-size="14.00" fill="#2f3638">optional ExchangeType tp = 3;</text>
</g>
<!-- Executor&#45;&gt;ExchangeReceiver -->
<g id="edge12" class="edge">
<title>Executor&#45;&gt;ExchangeReceiver</title>
<path fill="none" stroke="red" d="M54.44,-504.88C78.81,-483.78 120.16,-447.97 154.93,-417.87"/>
<polygon fill="red" stroke="red" points="157.42,-420.34 162.69,-411.15 152.84,-415.05 157.42,-420.34"/>
</g>
<!-- Join -->
<g id="node15" class="node">
<title>Join</title>
<path fill="none" stroke="#1c2123" d="M643,-573C643,-573 909,-573 909,-573 915,-573 921,-579 921,-585 921,-585 921,-875 921,-875 921,-881 915,-887 909,-887 909,-887 643,-887 643,-887 637,-887 631,-881 631,-875 631,-875 631,-585 631,-585 631,-579 637,-573 643,-573"/>
<text text-anchor="middle" x="776" y="-871.8" font-family="Times,serif" font-size="14.00" fill="#2f3638">Join</text>
<polyline fill="none" stroke="#1c2123" points="631,-864 921,-864 "/>
<text text-anchor="start" x="639" y="-848.8" font-family="Times,serif" font-size="14.00" fill="#2f3638">Join有多个数据源</text>
<text text-anchor="start" x="639" y="-833.8" font-family="Times,serif" font-size="14.00" fill="#2f3638">optional JoinType join_type = 1</text>
<polyline fill="none" stroke="#1c2123" points="631,-826 921,-826 "/>
<text text-anchor="start" x="639" y="-810.8" font-family="Times,serif" font-size="14.00" fill="#2f3638">optional JoinExecType join_exec_type = 2;</text>
<polyline fill="none" stroke="#1c2123" points="631,-803 921,-803 "/>
<text text-anchor="start" x="639" y="-787.8" font-family="Times,serif" font-size="14.00" fill="#2f3638">repeated Executor children = 3;</text>
<polyline fill="none" stroke="#1c2123" points="631,-780 921,-780 "/>
<text text-anchor="start" x="639" y="-764.8" font-family="Times,serif" font-size="14.00" fill="#2f3638">optional int64 inner_idx = 4</text>
<polyline fill="none" stroke="#1c2123" points="631,-757 921,-757 "/>
<text text-anchor="start" x="639" y="-741.8" font-family="Times,serif" font-size="14.00" fill="#2f3638">repeated Expr left_join_keys = 5;</text>
<polyline fill="none" stroke="#1c2123" points="631,-734 921,-734 "/>
<text text-anchor="start" x="639" y="-718.8" font-family="Times,serif" font-size="14.00" fill="#2f3638">repeated Expr right_join_keys = 6;</text>
<polyline fill="none" stroke="#1c2123" points="631,-711 921,-711 "/>
<text text-anchor="start" x="639" y="-695.8" font-family="Times,serif" font-size="14.00" fill="#2f3638">repeated FieldType probe_types = 7;</text>
<polyline fill="none" stroke="#1c2123" points="631,-688 921,-688 "/>
<text text-anchor="start" x="639" y="-672.8" font-family="Times,serif" font-size="14.00" fill="#2f3638">repeated FieldType build_types = 8;</text>
<polyline fill="none" stroke="#1c2123" points="631,-665 921,-665 "/>
<text text-anchor="start" x="639" y="-649.8" font-family="Times,serif" font-size="14.00" fill="#2f3638">repeated Expr left_conditions = 9;</text>
<polyline fill="none" stroke="#1c2123" points="631,-642 921,-642 "/>
<text text-anchor="start" x="639" y="-626.8" font-family="Times,serif" font-size="14.00" fill="#2f3638">repeated Expr right_conditions = 10;</text>
<polyline fill="none" stroke="#1c2123" points="631,-619 921,-619 "/>
<text text-anchor="start" x="639" y="-603.8" font-family="Times,serif" font-size="14.00" fill="#2f3638">repeated Expr other_conditions = 11;</text>
<polyline fill="none" stroke="#1c2123" points="631,-596 921,-596 "/>
<text text-anchor="start" x="639" y="-580.8" font-family="Times,serif" font-size="14.00" fill="#2f3638">repeated Expr other_eq_conditions_from_in = 12;</text>
</g>
<!-- Executor&#45;&gt;Join -->
<g id="edge13" class="edge">
<title>Executor&#45;&gt;Join</title>
<path fill="none" stroke="red" d="M65.25,-525.25C120.22,-529.52 236.52,-540.18 333,-560 451.76,-584.4 482.49,-590.83 595,-636 603.74,-639.51 612.62,-643.31 621.51,-647.3"/>
<polygon fill="red" stroke="red" points="620.22,-650.56 630.77,-651.53 623.13,-644.2 620.22,-650.56"/>
</g>
<!-- Kill -->
<g id="node16" class="node">
<title>Kill</title>
<path fill="none" stroke="#1c2123" d="M144,-154.5C144,-154.5 290,-154.5 290,-154.5 296,-154.5 302,-160.5 302,-166.5 302,-166.5 302,-211.5 302,-211.5 302,-217.5 296,-223.5 290,-223.5 290,-223.5 144,-223.5 144,-223.5 138,-223.5 132,-217.5 132,-211.5 132,-211.5 132,-166.5 132,-166.5 132,-160.5 138,-154.5 144,-154.5"/>
<text text-anchor="middle" x="217" y="-208.3" font-family="Times,serif" font-size="14.00" fill="#2f3638">Kill</text>
<polyline fill="none" stroke="#1c2123" points="132,-200.5 302,-200.5 "/>
<text text-anchor="start" x="140" y="-185.3" font-family="Times,serif" font-size="14.00" fill="#2f3638">optional uint64 connID = 1;</text>
<polyline fill="none" stroke="#1c2123" points="132,-177.5 302,-177.5 "/>
<text text-anchor="start" x="140" y="-162.3" font-family="Times,serif" font-size="14.00" fill="#2f3638">optional bool query = 2;</text>
</g>
<!-- Executor&#45;&gt;Kill -->
<g id="edge14" class="edge">
<title>Executor&#45;&gt;Kill</title>
<path fill="none" stroke="red" d="M35.08,-504.67C40.26,-448.35 58.45,-279.12 93,-238 101.17,-228.28 111.54,-220.47 122.78,-214.21"/>
<polygon fill="red" stroke="red" points="124.65,-217.18 131.95,-209.5 121.46,-210.95 124.65,-217.18"/>
</g>
<!-- ExchangeSender -->
<g id="node17" class="node">
<title>ExchangeSender</title>
<path fill="none" stroke="#1c2123" d="M672,-296.5C672,-296.5 880,-296.5 880,-296.5 886,-296.5 892,-302.5 892,-308.5 892,-308.5 892,-399.5 892,-399.5 892,-405.5 886,-411.5 880,-411.5 880,-411.5 672,-411.5 672,-411.5 666,-411.5 660,-405.5 660,-399.5 660,-399.5 660,-308.5 660,-308.5 660,-302.5 666,-296.5 672,-296.5"/>
<text text-anchor="middle" x="776" y="-396.3" font-family="Times,serif" font-size="14.00" fill="#2f3638">ExchangeSender</text>
<polyline fill="none" stroke="#1c2123" points="660,-388.5 892,-388.5 "/>
<text text-anchor="start" x="668" y="-373.3" font-family="Times,serif" font-size="14.00" fill="#2f3638">optional ExchangeType tp = 1;</text>
<polyline fill="none" stroke="#1c2123" points="660,-365.5 892,-365.5 "/>
<text text-anchor="start" x="668" y="-350.3" font-family="Times,serif" font-size="14.00" fill="#2f3638">repeated bytes encoded_task_meta = 2;</text>
<polyline fill="none" stroke="#1c2123" points="660,-342.5 892,-342.5 "/>
<text text-anchor="start" x="668" y="-327.3" font-family="Times,serif" font-size="14.00" fill="#2f3638">repeated Expr partition_keys = 3; </text>
<polyline fill="none" stroke="#1c2123" points="660,-319.5 892,-319.5 "/>
<text text-anchor="start" x="668" y="-304.3" font-family="Times,serif" font-size="14.00" fill="#2f3638">optional Executor child = 4;</text>
</g>
<!-- Executor&#45;&gt;ExchangeSender -->
<g id="edge15" class="edge">
<title>Executor&#45;&gt;ExchangeSender</title>
<path fill="none" stroke="red" d="M35.77,-504.88C42.07,-457.86 61.42,-333.97 93,-310 181.86,-242.56 484.24,-296.66 595,-310 612.87,-312.15 631.52,-315.47 649.77,-319.33"/>
<polygon fill="red" stroke="red" points="649.04,-322.75 659.56,-321.46 650.53,-315.91 649.04,-322.75"/>
</g>
<!-- Projection -->
<g id="node18" class="node">
<title>Projection</title>
<path fill="none" stroke="#1c2123" d="M394.5,-803C394.5,-803 569.5,-803 569.5,-803 575.5,-803 581.5,-809 581.5,-815 581.5,-815 581.5,-883 581.5,-883 581.5,-889 575.5,-895 569.5,-895 569.5,-895 394.5,-895 394.5,-895 388.5,-895 382.5,-889 382.5,-883 382.5,-883 382.5,-815 382.5,-815 382.5,-809 388.5,-803 394.5,-803"/>
<text text-anchor="middle" x="482" y="-879.8" font-family="Times,serif" font-size="14.00" fill="#2f3638">Projection</text>
<polyline fill="none" stroke="#1c2123" points="382.5,-872 581.5,-872 "/>
<text text-anchor="start" x="390.5" y="-856.8" font-family="Times,serif" font-size="14.00" fill="#2f3638">repeated Expr exprs = 1;</text>
<polyline fill="none" stroke="#1c2123" points="382.5,-849 581.5,-849 "/>
<text text-anchor="start" x="390.5" y="-833.8" font-family="Times,serif" font-size="14.00" fill="#2f3638">repeated RpnExpr rpn_exprs = 2;</text>
<polyline fill="none" stroke="#1c2123" points="382.5,-826 581.5,-826 "/>
<text text-anchor="start" x="390.5" y="-810.8" font-family="Times,serif" font-size="14.00" fill="#2f3638">optional Executor child = 3;</text>
</g>
<!-- Executor&#45;&gt;Projection -->
<g id="edge16" class="edge">
<title>Executor&#45;&gt;Projection</title>
<path fill="none" stroke="red" d="M33.9,-541.02C35.72,-578.54 45.17,-665.62 93,-715 166.64,-791.03 285.43,-823.95 372.2,-838.18"/>
<polygon fill="red" stroke="red" points="371.66,-841.64 382.08,-839.74 372.75,-834.72 371.66,-841.64"/>
</g>
<!-- EngineType -->
<g id="node19" class="node">
<title>EngineType</title>
<path fill="none" stroke="#1c2123" d="M1402,-975C1402,-975 1462,-975 1462,-975 1468,-975 1474,-981 1474,-987 1474,-987 1474,-1055 1474,-1055 1474,-1061 1468,-1067 1462,-1067 1462,-1067 1402,-1067 1402,-1067 1396,-1067 1390,-1061 1390,-1055 1390,-1055 1390,-987 1390,-987 1390,-981 1396,-975 1402,-975"/>
<text text-anchor="middle" x="1432" y="-1051.8" font-family="Times,serif" font-size="14.00" fill="#2f3638">EngineType</text>
<polyline fill="none" stroke="#1c2123" points="1390,-1044 1474,-1044 "/>
<text text-anchor="start" x="1398" y="-1028.8" font-family="Times,serif" font-size="14.00" fill="#2f3638">Local = 0;</text>
<polyline fill="none" stroke="#1c2123" points="1390,-1021 1474,-1021 "/>
<text text-anchor="start" x="1398" y="-1005.8" font-family="Times,serif" font-size="14.00" fill="#2f3638">TiKV = 1;</text>
<polyline fill="none" stroke="#1c2123" points="1390,-998 1474,-998 "/>
<text text-anchor="start" x="1398" y="-982.8" font-family="Times,serif" font-size="14.00" fill="#2f3638">TiFlash = 2;</text>
</g>
<!-- TableScan&#45;&gt;EngineType -->
<g id="edge17" class="edge">
<title>TableScan&#45;&gt;EngineType</title>
<path fill="none" stroke="#666666" d="M1233.2,-1089.72C1245.13,-1083.37 1257.16,-1077.36 1269,-1072 1304.9,-1055.74 1347.48,-1042.56 1379.97,-1033.67"/>
<polygon fill="#666666" stroke="#666666" points="1380.97,-1037.03 1389.72,-1031.05 1379.15,-1030.27 1380.97,-1037.03"/>
</g>
<!-- KeyRange -->
<g id="node20" class="node">
<title>KeyRange</title>
<path fill="none" stroke="#1c2123" d="M1370.5,-1131.5C1370.5,-1131.5 1493.5,-1131.5 1493.5,-1131.5 1499.5,-1131.5 1505.5,-1137.5 1505.5,-1143.5 1505.5,-1143.5 1505.5,-1188.5 1505.5,-1188.5 1505.5,-1194.5 1499.5,-1200.5 1493.5,-1200.5 1493.5,-1200.5 1370.5,-1200.5 1370.5,-1200.5 1364.5,-1200.5 1358.5,-1194.5 1358.5,-1188.5 1358.5,-1188.5 1358.5,-1143.5 1358.5,-1143.5 1358.5,-1137.5 1364.5,-1131.5 1370.5,-1131.5"/>
<text text-anchor="middle" x="1432" y="-1185.3" font-family="Times,serif" font-size="14.00" fill="#2f3638">KeyRange</text>
<polyline fill="none" stroke="#1c2123" points="1358.5,-1177.5 1505.5,-1177.5 "/>
<text text-anchor="start" x="1366.5" y="-1162.3" font-family="Times,serif" font-size="14.00" fill="#2f3638">optional bytes low = 1;</text>
<polyline fill="none" stroke="#1c2123" points="1358.5,-1154.5 1505.5,-1154.5 "/>
<text text-anchor="start" x="1366.5" y="-1139.3" font-family="Times,serif" font-size="14.00" fill="#2f3638">optional bytes high = 2;</text>
</g>
<!-- TableScan&#45;&gt;KeyRange -->
<g id="edge18" class="edge">
<title>TableScan&#45;&gt;KeyRange</title>
<path fill="none" stroke="#666666" d="M1233.22,-1172.49C1272.2,-1171.21 1313.44,-1169.86 1348.12,-1168.72"/>
<polygon fill="#666666" stroke="#666666" points="1348.31,-1172.22 1358.19,-1168.39 1348.08,-1165.22 1348.31,-1172.22"/>
</g>
<!-- ColumnInfo -->
<g id="node21" class="node">
<title>ColumnInfo</title>
<path fill="none" stroke="#1c2123" d="M1281,-1219.5C1281,-1219.5 1583,-1219.5 1583,-1219.5 1589,-1219.5 1595,-1225.5 1595,-1231.5 1595,-1231.5 1595,-1414.5 1595,-1414.5 1595,-1420.5 1589,-1426.5 1583,-1426.5 1583,-1426.5 1281,-1426.5 1281,-1426.5 1275,-1426.5 1269,-1420.5 1269,-1414.5 1269,-1414.5 1269,-1231.5 1269,-1231.5 1269,-1225.5 1275,-1219.5 1281,-1219.5"/>
<text text-anchor="middle" x="1432" y="-1411.3" font-family="Times,serif" font-size="14.00" fill="#2f3638">ColumnInfo</text>
<polyline fill="none" stroke="#1c2123" points="1269,-1403.5 1595,-1403.5 "/>
<text text-anchor="start" x="1277" y="-1388.3" font-family="Times,serif" font-size="14.00" fill="#2f3638">optional int64 column_id = 1</text>
<polyline fill="none" stroke="#1c2123" points="1269,-1380.5 1595,-1380.5 "/>
<text text-anchor="start" x="1277" y="-1365.3" font-family="Times,serif" font-size="14.00" fill="#2f3638">optional int32 tp = 2</text>
<polyline fill="none" stroke="#1c2123" points="1269,-1357.5 1595,-1357.5 "/>
<text text-anchor="start" x="1277" y="-1342.3" font-family="Times,serif" font-size="14.00" fill="#2f3638">optional int32 collation = 3</text>
<polyline fill="none" stroke="#1c2123" points="1269,-1334.5 1595,-1334.5 "/>
<text text-anchor="start" x="1277" y="-1319.3" font-family="Times,serif" font-size="14.00" fill="#2f3638">optional int32 columnLen = 4</text>
<polyline fill="none" stroke="#1c2123" points="1269,-1311.5 1595,-1311.5 "/>
<text text-anchor="start" x="1277" y="-1296.3" font-family="Times,serif" font-size="14.00" fill="#2f3638">optional int32 decimal = 5</text>
<polyline fill="none" stroke="#1c2123" points="1269,-1288.5 1595,-1288.5 "/>
<text text-anchor="start" x="1277" y="-1273.3" font-family="Times,serif" font-size="14.00" fill="#2f3638">optional int32 flag = 6</text>
<polyline fill="none" stroke="#1c2123" points="1269,-1265.5 1595,-1265.5 "/>
<text text-anchor="start" x="1277" y="-1250.3" font-family="Times,serif" font-size="14.00" fill="#2f3638">repeated string elems = 7;optional bytes default_val = 8;</text>
<polyline fill="none" stroke="#1c2123" points="1269,-1242.5 1595,-1242.5 "/>
<text text-anchor="start" x="1277" y="-1227.3" font-family="Times,serif" font-size="14.00" fill="#2f3638">optional bool pk_handle = 21</text>
</g>
<!-- TableScan&#45;&gt;ColumnInfo -->
<g id="edge19" class="edge">
<title>TableScan:column_info&#45;&gt;ColumnInfo</title>
<path fill="none" stroke="#666666" d="M1233,-1212C1245.59,-1212 1258.13,-1213.73 1270.42,-1216.76"/>
<polygon fill="#666666" stroke="#666666" points="1269.66,-1220.18 1280.23,-1219.46 1271.52,-1213.43 1269.66,-1220.18"/>
</g>
<!-- IndexScan&#45;&gt;ColumnInfo -->
<g id="edge20" class="edge">
<title>IndexScan&#45;&gt;ColumnInfo</title>
<path fill="none" stroke="#666666" d="M1199.7,-1346.48C1218.44,-1344.57 1238.43,-1342.54 1258.52,-1340.51"/>
<polygon fill="#666666" stroke="#666666" points="1259.11,-1343.96 1268.71,-1339.47 1258.41,-1337 1259.11,-1343.96"/>
</g>
<!-- Expr -->
<g id="node22" class="node">
<title>Expr</title>
<path fill="#feed9b" stroke="#f7e495" d="M1080,-983C1080,-983 1110,-983 1110,-983 1116,-983 1122,-989 1122,-995 1122,-995 1122,-1007 1122,-1007 1122,-1013 1116,-1019 1110,-1019 1110,-1019 1080,-1019 1080,-1019 1074,-1019 1068,-1013 1068,-1007 1068,-1007 1068,-995 1068,-995 1068,-989 1074,-983 1080,-983"/>
<text text-anchor="middle" x="1095" y="-997.3" font-family="Times,serif" font-size="14.00" fill="#40575d">Expr</text>
</g>
<!-- Selection&#45;&gt;Expr -->
<g id="edge21" class="edge">
<title>Selection&#45;&gt;Expr</title>
<path fill="none" stroke="#666666" d="M543.81,-737.09C562.23,-753.44 581.21,-773.03 595,-794 621.65,-834.52 593.11,-866.74 631,-897 681.68,-937.48 858.18,-913.87 921,-930 970.44,-942.7 1024.4,-966.58 1058.69,-983.12"/>
<polygon fill="#666666" stroke="#666666" points="1057.29,-986.33 1067.81,-987.57 1060.36,-980.04 1057.29,-986.33"/>
</g>
<!-- RpnExpr -->
<g id="node23" class="node">
<title>RpnExpr</title>
<path fill="none" stroke="#1c2123" d="M715,-983C715,-983 837,-983 837,-983 843,-983 849,-989 849,-995 849,-995 849,-1017 849,-1017 849,-1023 843,-1029 837,-1029 837,-1029 715,-1029 715,-1029 709,-1029 703,-1023 703,-1017 703,-1017 703,-995 703,-995 703,-989 709,-983 715,-983"/>
<text text-anchor="middle" x="776" y="-1013.8" font-family="Times,serif" font-size="14.00" fill="#2f3638">RpnExpr</text>
<polyline fill="none" stroke="#1c2123" points="703,-1006 849,-1006 "/>
<text text-anchor="middle" x="776" y="-990.8" font-family="Times,serif" font-size="14.00" fill="#2f3638">repated Expr exprs = 1;</text>
</g>
<!-- Selection&#45;&gt;RpnExpr -->
<g id="edge22" class="edge">
<title>Selection&#45;&gt;RpnExpr</title>
<path fill="none" stroke="#666666" d="M545.67,-737.25C563.86,-753.41 582.24,-772.85 595,-794 627.31,-847.53 592.08,-881.07 631,-930 647.77,-951.09 672.02,-967.01 695.85,-978.69"/>
<polygon fill="#666666" stroke="#666666" points="694.41,-981.88 704.95,-982.96 697.38,-975.54 694.41,-981.88"/>
</g>
<!-- Executor_child -->
<g id="node24" class="node">
<title>Executor_child</title>
<path fill="#a2dbfa" stroke="#8a8898" d="M1040,-437.5C1040,-437.5 1150,-437.5 1150,-437.5 1156,-437.5 1162,-443.5 1162,-449.5 1162,-449.5 1162,-486.5 1162,-486.5 1162,-492.5 1156,-498.5 1150,-498.5 1150,-498.5 1040,-498.5 1040,-498.5 1034,-498.5 1028,-492.5 1028,-486.5 1028,-486.5 1028,-449.5 1028,-449.5 1028,-443.5 1034,-437.5 1040,-437.5"/>
<text text-anchor="middle" x="1095" y="-483.3" font-family="Times,serif" font-size="14.00" fill="#5d6179">Executor</text>
<polyline fill="none" stroke="#8a8898" points="1028,-475.5 1162,-475.5 "/>
<text text-anchor="start" x="1036" y="-460.3" font-family="Times,serif" font-size="14.00" fill="#5d6179">子Executor</text>
<text text-anchor="start" x="1036" y="-445.3" font-family="Times,serif" font-size="14.00" fill="#5d6179"> 作为上层的数据源</text>
</g>
<!-- Selection&#45;&gt;Executor_child -->
<g id="edge23" class="edge">
<title>Selection&#45;&gt;Executor_child</title>
<path fill="none" stroke="#666666" d="M511.87,-644.96C538.08,-607.4 580.32,-556.4 631,-530 664.54,-512.53 894.96,-487.61 1017.58,-475.36"/>
<polygon fill="#666666" stroke="#666666" points="1018.06,-478.83 1027.66,-474.36 1017.37,-471.87 1018.06,-478.83"/>
</g>
<!-- Aggregation&#45;&gt;Executor_child -->
<g id="edge29" class="edge">
<title>Aggregation&#45;&gt;Executor_child</title>
<path fill="none" stroke="#666666" d="M592.5,-126.79C686.8,-125.05 822.79,-135.75 921,-199 1006.12,-253.82 1057.76,-367.03 1080.42,-427.63"/>
<polygon fill="#666666" stroke="#666666" points="1077.21,-429.05 1083.93,-437.24 1083.79,-426.65 1077.21,-429.05"/>
</g>
<!-- TopN&#45;&gt;Executor_child -->
<g id="edge28" class="edge">
<title>TopN&#45;&gt;Executor_child</title>
<path fill="none" stroke="#666666" d="M299.94,-612.94C381.13,-569.99 510.46,-508.65 631,-482 764.59,-452.47 925.09,-456.01 1017.75,-461.7"/>
<polygon fill="#666666" stroke="#666666" points="1017.67,-465.2 1027.88,-462.35 1018.12,-458.22 1017.67,-465.2"/>
</g>
<!-- ByItem -->
<g id="node26" class="node">
<title>ByItem</title>
<path fill="none" stroke="#1c2123" d="M398,-960C398,-960 566,-960 566,-960 572,-960 578,-966 578,-972 578,-972 578,-1040 578,-1040 578,-1046 572,-1052 566,-1052 566,-1052 398,-1052 398,-1052 392,-1052 386,-1046 386,-1040 386,-1040 386,-972 386,-972 386,-966 392,-960 398,-960"/>
<text text-anchor="middle" x="482" y="-1036.8" font-family="Times,serif" font-size="14.00" fill="#2f3638">ByItem</text>
<polyline fill="none" stroke="#1c2123" points="386,-1029 578,-1029 "/>
<text text-anchor="start" x="394" y="-1013.8" font-family="Times,serif" font-size="14.00" fill="#2f3638">optional Expr expr = 1;</text>
<polyline fill="none" stroke="#1c2123" points="386,-1006 578,-1006 "/>
<text text-anchor="start" x="394" y="-990.8" font-family="Times,serif" font-size="14.00" fill="#2f3638">optional RpnExpr rpn_expr = 3;</text>
<polyline fill="none" stroke="#1c2123" points="386,-983 578,-983 "/>
<text text-anchor="start" x="394" y="-967.8" font-family="Times,serif" font-size="14.00" fill="#2f3638">optional bool desc = 2;</text>
</g>
<!-- TopN&#45;&gt;ByItem -->
<g id="edge35" class="edge">
<title>TopN&#45;&gt;ByItem</title>
<path fill="none" stroke="#666666" d="M241.14,-705.12C268.11,-756.59 315.81,-841.04 369,-905 382.88,-921.69 399.53,-938.17 415.68,-952.82"/>
<polygon fill="#666666" stroke="#666666" points="413.77,-955.81 423.56,-959.86 418.43,-950.59 413.77,-955.81"/>
</g>
<!-- Limit&#45;&gt;Executor_child -->
<g id="edge27" class="edge">
<title>Limit&#45;&gt;Executor_child</title>
<path fill="none" stroke="#666666" d="M861.28,-258.83C881.74,-264.83 902.9,-272.98 921,-284 982.85,-321.65 1036.88,-387.28 1067.46,-429.13"/>
<polygon fill="#666666" stroke="#666666" points="1064.75,-431.36 1073.44,-437.43 1070.43,-427.27 1064.75,-431.36"/>
</g>
<!-- ExchangeType -->
<g id="node25" class="node">
<title>ExchangeType</title>
<path fill="none" stroke="#1c2123" d="M437.5,-319C437.5,-319 526.5,-319 526.5,-319 532.5,-319 538.5,-325 538.5,-331 538.5,-331 538.5,-399 538.5,-399 538.5,-405 532.5,-411 526.5,-411 526.5,-411 437.5,-411 437.5,-411 431.5,-411 425.5,-405 425.5,-399 425.5,-399 425.5,-331 425.5,-331 425.5,-325 431.5,-319 437.5,-319"/>
<text text-anchor="middle" x="482" y="-395.8" font-family="Times,serif" font-size="14.00" fill="#2f3638">ExchangeType</text>
<polyline fill="none" stroke="#1c2123" points="425.5,-388 538.5,-388 "/>
<text text-anchor="start" x="433.5" y="-372.8" font-family="Times,serif" font-size="14.00" fill="#2f3638">PassThrough = 0;</text>
<polyline fill="none" stroke="#1c2123" points="425.5,-365 538.5,-365 "/>
<text text-anchor="start" x="433.5" y="-349.8" font-family="Times,serif" font-size="14.00" fill="#2f3638">Broadcast = 1;</text>
<polyline fill="none" stroke="#1c2123" points="425.5,-342 538.5,-342 "/>
<text text-anchor="start" x="433.5" y="-326.8" font-family="Times,serif" font-size="14.00" fill="#2f3638">Hash = 2;</text>
</g>
<!-- ExchangeReceiver&#45;&gt;ExchangeType -->
<g id="edge38" class="edge">
<title>ExchangeReceiver&#45;&gt;ExchangeType</title>
<path fill="none" stroke="#666666" d="M333.36,-365C361.38,-365 390.39,-365 415.2,-365"/>
<polygon fill="#666666" stroke="#666666" points="415.21,-368.5 425.21,-365 415.21,-361.5 415.21,-368.5"/>
</g>
<!-- Join&#45;&gt;Expr -->
<g id="edge31" class="edge">
<title>Join&#45;&gt;Expr</title>
<path fill="none" stroke="#666666" d="M921.12,-853.21C975.4,-899.61 1031.95,-947.95 1065.02,-976.22"/>
<polygon fill="#666666" stroke="#666666" points="1063.03,-979.13 1072.91,-982.97 1067.58,-973.81 1063.03,-979.13"/>
</g>
<!-- Join&#45;&gt;Executor_child -->
<g id="edge32" class="edge">
<title>Join&#45;&gt;Executor_child</title>
<path fill="none" stroke="#666666" d="M921.12,-610.88C967.46,-572.59 1015.44,-532.93 1049.07,-505.14"/>
<polygon fill="#666666" stroke="#666666" points="1051.39,-507.76 1056.87,-498.69 1046.93,-502.36 1051.39,-507.76"/>
</g>
<!-- ExchangeSender&#45;&gt;Expr -->
<g id="edge33" class="edge">
<title>ExchangeSender&#45;&gt;Expr</title>
<path fill="none" stroke="#666666" d="M821.65,-411.51C852.16,-452.51 892.14,-509.75 921,-564 999.39,-711.31 1062.94,-902.13 1085.33,-972.95"/>
<polygon fill="#666666" stroke="#666666" points="1082.11,-974.39 1088.45,-982.88 1088.79,-972.29 1082.11,-974.39"/>
</g>
<!-- ExchangeSender&#45;&gt;Executor_child -->
<g id="edge34" class="edge">
<title>ExchangeSender&#45;&gt;Executor_child</title>
<path fill="none" stroke="#666666" d="M892.34,-395.48C934.11,-410.5 980.2,-427.07 1017.76,-440.58"/>
<polygon fill="#666666" stroke="#666666" points="1017.02,-444.04 1027.62,-444.13 1019.39,-437.45 1017.02,-444.04"/>
</g>
<!-- Projection&#45;&gt;Expr -->
<g id="edge24" class="edge">
<title>Projection&#45;&gt;Expr</title>
<path fill="none" stroke="#666666" d="M555.21,-895.1C578.6,-908.21 605.19,-921.28 631,-930 754.51,-971.71 792.15,-954.17 921,-974 968.24,-981.27 1022.71,-989.8 1057.71,-995.29"/>
<polygon fill="#666666" stroke="#666666" points="1057.5,-998.8 1067.92,-996.89 1058.58,-991.88 1057.5,-998.8"/>
</g>
<!-- Projection&#45;&gt;RpnExpr -->
<g id="edge25" class="edge">
<title>Projection&#45;&gt;RpnExpr</title>
<path fill="none" stroke="#666666" d="M529.72,-895.11C557.2,-919.92 593.77,-949.2 631,-968 650.23,-977.71 672.19,-985.12 693.07,-990.71"/>
<polygon fill="#666666" stroke="#666666" points="692.34,-994.13 702.9,-993.23 694.08,-987.35 692.34,-994.13"/>
</g>
<!-- Projection&#45;&gt;Executor_child -->
<g id="edge26" class="edge">
<title>Projection&#45;&gt;Executor_child</title>
<path fill="none" stroke="#666666" d="M547.67,-802.75C565.51,-786.97 583.19,-767.96 595,-747 635.69,-674.78 571.02,-621.22 631,-564 678.14,-519.03 857.45,-535.36 921,-521 953.21,-513.72 988.14,-503.48 1018.12,-493.94"/>
<polygon fill="#666666" stroke="#666666" points="1019.22,-497.27 1027.67,-490.88 1017.08,-490.6 1019.22,-497.27"/>
</g>
<!-- RpnExpr&#45;&gt;Expr -->
<g id="edge30" class="edge">
<title>RpnExpr&#45;&gt;Expr</title>
<path fill="none" stroke="#666666" d="M849.33,-1004.86C914.33,-1003.83 1007.1,-1002.37 1057.69,-1001.57"/>
<polygon fill="#666666" stroke="#666666" points="1057.87,-1005.07 1067.82,-1001.41 1057.76,-998.07 1057.87,-1005.07"/>
</g>
<!-- ByItem&#45;&gt;Expr -->
<g id="edge36" class="edge">
<title>ByItem&#45;&gt;Expr</title>
<path fill="none" stroke="#666666" d="M578.02,-1030.41C595.53,-1033.98 613.73,-1037.1 631,-1039 759.11,-1053.11 792.86,-1052.91 921,-1039 969.14,-1033.78 1023.51,-1020.6 1058.23,-1011.23"/>
<polygon fill="#666666" stroke="#666666" points="1059.19,-1014.6 1067.91,-1008.58 1057.35,-1007.85 1059.19,-1014.6"/>
</g>
<!-- ByItem&#45;&gt;RpnExpr -->
<g id="edge37" class="edge">
<title>ByItem&#45;&gt;RpnExpr</title>
<path fill="none" stroke="#666666" d="M578.21,-1006C615.02,-1006 656.75,-1006 692.28,-1006"/>
<polygon fill="#666666" stroke="#666666" points="692.61,-1009.5 702.61,-1006 692.61,-1002.5 692.61,-1009.5"/>
</g>
</g>
</svg>
