<?xml version="1.0" encoding="UTF-8" standalone="no"?>
<!DOCTYPE svg PUBLIC "-//W3C//DTD SVG 1.1//EN"
 "http://www.w3.org/Graphics/SVG/1.1/DTD/svg11.dtd">
<!-- Generated by graphviz version 2.47.1 (20210417.1919)
 -->
<!-- Title: update_max_ts Pages: 1 -->
<svg width="1375pt" height="955pt"
 viewBox="0.00 0.00 1375.00 955.00" xmlns="http://www.w3.org/2000/svg" xmlns:xlink="http://www.w3.org/1999/xlink">
<g id="graph0" class="graph" transform="scale(1 1) rotate(0) translate(4 951)">
<title>update_max_ts</title>
<polygon fill="white" stroke="transparent" points="-4,4 -4,-951 1371,-951 1371,4 -4,4"/>
<g id="clust1" class="cluster">
<title>cluster_ConcurrencyManager</title>
<path fill="none" stroke="slategrey" stroke-dasharray="5,2" d="M1188,-398C1188,-398 1355,-398 1355,-398 1361,-398 1367,-404 1367,-410 1367,-410 1367,-468 1367,-468 1367,-474 1361,-480 1355,-480 1355,-480 1188,-480 1188,-480 1182,-480 1176,-474 1176,-468 1176,-468 1176,-410 1176,-410 1176,-404 1182,-398 1188,-398"/>
<text text-anchor="middle" x="1271.5" y="-460" font-family="Times,serif" font-size="20.00">ConcurrencyManager</text>
</g>
<g id="clust2" class="cluster">
<title>cluster_coprocessor</title>
<path fill="none" stroke="slategrey" stroke-dasharray="5,2" d="M298,-803C298,-803 1045,-803 1045,-803 1051,-803 1057,-809 1057,-815 1057,-815 1057,-927 1057,-927 1057,-933 1051,-939 1045,-939 1045,-939 298,-939 298,-939 292,-939 286,-933 286,-927 286,-927 286,-815 286,-815 286,-809 292,-803 298,-803"/>
<text text-anchor="middle" x="671.5" y="-919" font-family="Times,serif" font-size="20.00">coprocessor</text>
</g>
<g id="clust4" class="cluster">
<title>cluster_Storage</title>
<path fill="none" stroke="slategrey" stroke-dasharray="5,2" d="M593.5,-560C593.5,-560 1036,-560 1036,-560 1042,-560 1048,-566 1048,-572 1048,-572 1048,-738 1048,-738 1048,-744 1042,-750 1036,-750 1036,-750 593.5,-750 593.5,-750 587.5,-750 581.5,-744 581.5,-738 581.5,-738 581.5,-572 581.5,-572 581.5,-566 587.5,-560 593.5,-560"/>
<text text-anchor="middle" x="814.75" y="-730" font-family="Times,serif" font-size="20.00">Storage</text>
</g>
<g id="clust5" class="cluster">
<title>cluster_service_kv</title>
<path fill="none" stroke="slategrey" stroke-dasharray="5,2" d="M20,-803C20,-803 254,-803 254,-803 260,-803 266,-809 266,-815 266,-815 266,-927 266,-927 266,-933 260,-939 254,-939 254,-939 20,-939 20,-939 14,-939 8,-933 8,-927 8,-927 8,-815 8,-815 8,-809 14,-803 20,-803"/>
<text text-anchor="middle" x="137" y="-919" font-family="Times,serif" font-size="20.00">service/kv.rs</text>
</g>
<g id="clust6" class="cluster">
<title>cluster_Command</title>
<path fill="none" stroke="slategrey" stroke-dasharray="5,2" d="M869,-46C869,-46 1092,-46 1092,-46 1098,-46 1104,-52 1104,-58 1104,-58 1104,-278 1104,-278 1104,-284 1098,-290 1092,-290 1092,-290 869,-290 869,-290 863,-290 857,-284 857,-278 857,-278 857,-58 857,-58 857,-52 863,-46 869,-46"/>
<text text-anchor="middle" x="980.5" y="-270" font-family="Times,serif" font-size="20.00">txn/command</text>
</g>
<!-- update_max_ts -->
<g id="node1" class="node">
<title>update_max_ts</title>
<path fill="none" stroke="#1c2123" d="M1309,-442C1309,-442 1234,-442 1234,-442 1228,-442 1222,-436 1222,-430 1222,-430 1222,-418 1222,-418 1222,-412 1228,-406 1234,-406 1234,-406 1309,-406 1309,-406 1315,-406 1321,-412 1321,-418 1321,-418 1321,-430 1321,-430 1321,-436 1315,-442 1309,-442"/>
<text text-anchor="middle" x="1271.5" y="-420.3" font-family="Times,serif" font-size="14.00" fill="#2f3638">update_max_ts</text>
</g>
<!-- check_memory_locks -->
<g id="node2" class="node">
<title>check_memory_locks</title>
<path fill="none" stroke="#1c2123" d="M1037,-848C1037,-848 924,-848 924,-848 918,-848 912,-842 912,-836 912,-836 912,-824 912,-824 912,-818 918,-812 924,-812 924,-812 1037,-812 1037,-812 1043,-812 1049,-818 1049,-824 1049,-824 1049,-836 1049,-836 1049,-842 1043,-848 1037,-848"/>
<text text-anchor="middle" x="980.5" y="-826.3" font-family="Times,serif" font-size="14.00" fill="#2f3638">check_memory_locks</text>
</g>
<!-- check_memory_locks&#45;&gt;update_max_ts -->
<g id="edge1" class="edge">
<title>check_memory_locks&#45;&gt;update_max_ts</title>
<path fill="none" stroke="#666666" d="M1049.14,-834.65C1082.45,-833.38 1121.12,-826.08 1148,-803 1255.32,-710.85 1269.35,-523.98 1270.65,-452.6"/>
<polygon fill="#666666" stroke="#666666" points="1274.15,-452.2 1270.76,-442.17 1267.15,-452.13 1274.15,-452.2"/>
</g>
<!-- parse_and_handle_stream_request -->
<g id="node3" class="node">
<title>parse_and_handle_stream_request</title>
<path fill="none" stroke="#1c2123" d="M485,-901C485,-901 306,-901 306,-901 300,-901 294,-895 294,-889 294,-889 294,-877 294,-877 294,-871 300,-865 306,-865 306,-865 485,-865 485,-865 491,-865 497,-871 497,-877 497,-877 497,-889 497,-889 497,-895 491,-901 485,-901"/>
<text text-anchor="middle" x="395.5" y="-879.3" font-family="Times,serif" font-size="14.00" fill="#2f3638">parse_and_handle_stream_request</text>
</g>
<!-- parse_request_and_check_memory_locks -->
<g id="node5" class="node">
<title>parse_request_and_check_memory_locks</title>
<path fill="none" stroke="#1c2123" d="M765,-848C765,-848 545,-848 545,-848 539,-848 533,-842 533,-836 533,-836 533,-824 533,-824 533,-818 539,-812 545,-812 545,-812 765,-812 765,-812 771,-812 777,-818 777,-824 777,-824 777,-836 777,-836 777,-842 771,-848 765,-848"/>
<text text-anchor="middle" x="655" y="-826.3" font-family="Times,serif" font-size="14.00" fill="#2f3638">parse_request_and_check_memory_locks</text>
</g>
<!-- parse_and_handle_stream_request&#45;&gt;parse_request_and_check_memory_locks -->
<g id="edge2" class="edge">
<title>parse_and_handle_stream_request&#45;&gt;parse_request_and_check_memory_locks</title>
<path fill="none" stroke="#666666" d="M484.04,-864.98C507.26,-860.2 532.47,-855.01 556.2,-850.13"/>
<polygon fill="#666666" stroke="#666666" points="557.18,-853.5 566.27,-848.06 555.77,-846.65 557.18,-853.5"/>
</g>
<!-- parse_and_handle_unary_request -->
<g id="node4" class="node">
<title>parse_and_handle_unary_request</title>
<path fill="none" stroke="#1c2123" d="M482,-847C482,-847 309,-847 309,-847 303,-847 297,-841 297,-835 297,-835 297,-823 297,-823 297,-817 303,-811 309,-811 309,-811 482,-811 482,-811 488,-811 494,-817 494,-823 494,-823 494,-835 494,-835 494,-841 488,-847 482,-847"/>
<text text-anchor="middle" x="395.5" y="-825.3" font-family="Times,serif" font-size="14.00" fill="#2f3638">parse_and_handle_unary_request</text>
</g>
<!-- parse_and_handle_unary_request&#45;&gt;parse_request_and_check_memory_locks -->
<g id="edge3" class="edge">
<title>parse_and_handle_unary_request&#45;&gt;parse_request_and_check_memory_locks</title>
<path fill="none" stroke="#666666" d="M494.22,-829.38C503.61,-829.42 513.25,-829.45 522.9,-829.49"/>
<polygon fill="#666666" stroke="#666666" points="522.94,-832.99 532.95,-829.53 522.96,-825.99 522.94,-832.99"/>
</g>
<!-- parse_request_and_check_memory_locks&#45;&gt;check_memory_locks -->
<g id="edge4" class="edge">
<title>parse_request_and_check_memory_locks&#45;&gt;check_memory_locks</title>
<path fill="none" stroke="#666666" d="M777.38,-830C819.01,-830 864.44,-830 901.67,-830"/>
<polygon fill="#666666" stroke="#666666" points="901.95,-833.5 911.95,-830 901.95,-826.5 901.95,-833.5"/>
</g>
<!-- ReplicaReadLockChecker_on_step -->
<g id="node6" class="node">
<title>ReplicaReadLockChecker_on_step</title>
<path fill="none" stroke="#1c2123" d="M1072,-794C1072,-794 889,-794 889,-794 883,-794 877,-788 877,-782 877,-782 877,-770 877,-770 877,-764 883,-758 889,-758 889,-758 1072,-758 1072,-758 1078,-758 1084,-764 1084,-770 1084,-770 1084,-782 1084,-782 1084,-788 1078,-794 1072,-794"/>
<text text-anchor="middle" x="980.5" y="-772.3" font-family="Times,serif" font-size="14.00" fill="#2f3638">ReplicaReadLockChecker_on_step</text>
</g>
<!-- ReplicaReadLockChecker_on_step&#45;&gt;update_max_ts -->
<g id="edge5" class="edge">
<title>ReplicaReadLockChecker_on_step&#45;&gt;update_max_ts</title>
<path fill="none" stroke="#666666" d="M1084.39,-779.59C1107.24,-775.96 1129.99,-768.36 1148,-754 1243.97,-677.44 1264.75,-517.84 1269.26,-452.66"/>
<polygon fill="#666666" stroke="#666666" points="1272.77,-452.53 1269.88,-442.33 1265.78,-452.1 1272.77,-452.53"/>
</g>
<!-- Storage_scan -->
<g id="node7" class="node">
<title>Storage_scan</title>
<path fill="none" stroke="#1c2123" d="M1013,-712C1013,-712 948,-712 948,-712 942,-712 936,-706 936,-700 936,-700 936,-688 936,-688 936,-682 942,-676 948,-676 948,-676 1013,-676 1013,-676 1019,-676 1025,-682 1025,-688 1025,-688 1025,-700 1025,-700 1025,-706 1019,-712 1013,-712"/>
<text text-anchor="middle" x="980.5" y="-690.3" font-family="Times,serif" font-size="14.00" fill="#2f3638">Storage_scan</text>
</g>
<!-- Storage_scan&#45;&gt;update_max_ts -->
<g id="edge13" class="edge">
<title>Storage_scan&#45;&gt;update_max_ts</title>
<path fill="none" stroke="#666666" d="M1025.27,-697.3C1061.49,-697.77 1112.57,-692.96 1148,-667 1221.09,-613.45 1253.42,-503.75 1265.04,-452.09"/>
<polygon fill="#666666" stroke="#666666" points="1268.47,-452.79 1267.15,-442.27 1261.63,-451.31 1268.47,-452.79"/>
</g>
<!-- Storage_scan_lock -->
<g id="node8" class="node">
<title>Storage_scan_lock</title>
<path fill="none" stroke="#1c2123" d="M1028,-658C1028,-658 933,-658 933,-658 927,-658 921,-652 921,-646 921,-646 921,-634 921,-634 921,-628 927,-622 933,-622 933,-622 1028,-622 1028,-622 1034,-622 1040,-628 1040,-634 1040,-634 1040,-646 1040,-646 1040,-652 1034,-658 1028,-658"/>
<text text-anchor="middle" x="980.5" y="-636.3" font-family="Times,serif" font-size="14.00" fill="#2f3638">Storage_scan_lock</text>
</g>
<!-- Storage_scan_lock&#45;&gt;update_max_ts -->
<g id="edge14" class="edge">
<title>Storage_scan_lock&#45;&gt;update_max_ts</title>
<path fill="none" stroke="#666666" d="M1040.02,-641.92C1074.01,-640.39 1116.24,-633.73 1148,-613 1208.02,-573.83 1244.9,-493.85 1261,-451.59"/>
<polygon fill="#666666" stroke="#666666" points="1264.29,-452.79 1264.47,-442.19 1257.72,-450.36 1264.29,-452.79"/>
</g>
<!-- prepare_snap_ctx -->
<g id="node9" class="node">
<title>prepare_snap_ctx</title>
<path fill="none" stroke="#1c2123" d="M1024.5,-604C1024.5,-604 936.5,-604 936.5,-604 930.5,-604 924.5,-598 924.5,-592 924.5,-592 924.5,-580 924.5,-580 924.5,-574 930.5,-568 936.5,-568 936.5,-568 1024.5,-568 1024.5,-568 1030.5,-568 1036.5,-574 1036.5,-580 1036.5,-580 1036.5,-592 1036.5,-592 1036.5,-598 1030.5,-604 1024.5,-604"/>
<text text-anchor="middle" x="980.5" y="-582.3" font-family="Times,serif" font-size="14.00" fill="#2f3638">prepare_snap_ctx</text>
</g>
<!-- prepare_snap_ctx&#45;&gt;update_max_ts -->
<g id="edge6" class="edge">
<title>prepare_snap_ctx&#45;&gt;update_max_ts</title>
<path fill="none" stroke="#666666" d="M1036.55,-586.14C1070.49,-584.09 1113.9,-577.51 1148,-559 1195.09,-533.44 1233.47,-482.65 1254.06,-451.17"/>
<polygon fill="#666666" stroke="#666666" points="1257.2,-452.77 1259.64,-442.46 1251.3,-449 1257.2,-452.77"/>
</g>
<!-- batch_get -->
<g id="node10" class="node">
<title>batch_get</title>
<path fill="none" stroke="#1c2123" d="M677.5,-712C677.5,-712 632.5,-712 632.5,-712 626.5,-712 620.5,-706 620.5,-700 620.5,-700 620.5,-688 620.5,-688 620.5,-682 626.5,-676 632.5,-676 632.5,-676 677.5,-676 677.5,-676 683.5,-676 689.5,-682 689.5,-688 689.5,-688 689.5,-700 689.5,-700 689.5,-706 683.5,-712 677.5,-712"/>
<text text-anchor="middle" x="655" y="-690.3" font-family="Times,serif" font-size="14.00" fill="#2f3638">batch_get</text>
</g>
<!-- batch_get&#45;&gt;prepare_snap_ctx -->
<g id="edge7" class="edge">
<title>batch_get&#45;&gt;prepare_snap_ctx</title>
<path fill="none" stroke="#666666" d="M689.73,-693.15C715.62,-691.01 751.17,-684.71 777,-667 800.79,-650.69 788.74,-628.61 813,-613 842.67,-593.91 881.28,-586.81 913.85,-584.64"/>
<polygon fill="#666666" stroke="#666666" points="914.39,-588.12 924.2,-584.1 914.03,-581.12 914.39,-588.12"/>
</g>
<!-- batch_get_command -->
<g id="node11" class="node">
<title>batch_get_command</title>
<path fill="none" stroke="#1c2123" d="M708.5,-658C708.5,-658 601.5,-658 601.5,-658 595.5,-658 589.5,-652 589.5,-646 589.5,-646 589.5,-634 589.5,-634 589.5,-628 595.5,-622 601.5,-622 601.5,-622 708.5,-622 708.5,-622 714.5,-622 720.5,-628 720.5,-634 720.5,-634 720.5,-646 720.5,-646 720.5,-652 714.5,-658 708.5,-658"/>
<text text-anchor="middle" x="655" y="-636.3" font-family="Times,serif" font-size="14.00" fill="#2f3638">batch_get_command</text>
</g>
<!-- batch_get_command&#45;&gt;prepare_snap_ctx -->
<g id="edge8" class="edge">
<title>batch_get_command&#45;&gt;prepare_snap_ctx</title>
<path fill="none" stroke="#666666" d="M720.52,-628.76C748.88,-623.86 782.58,-618.08 813,-613 846.35,-607.43 883.48,-601.39 914.2,-596.44"/>
<polygon fill="#666666" stroke="#666666" points="915.04,-599.85 924.36,-594.81 913.93,-592.94 915.04,-599.85"/>
</g>
<!-- get -->
<g id="node12" class="node">
<title>get</title>
<path fill="none" stroke="#1c2123" d="M670,-604C670,-604 640,-604 640,-604 634,-604 628,-598 628,-592 628,-592 628,-580 628,-580 628,-574 634,-568 640,-568 640,-568 670,-568 670,-568 676,-568 682,-574 682,-580 682,-580 682,-592 682,-592 682,-598 676,-604 670,-604"/>
<text text-anchor="middle" x="655" y="-582.3" font-family="Times,serif" font-size="14.00" fill="#2f3638">get</text>
</g>
<!-- get&#45;&gt;prepare_snap_ctx -->
<g id="edge9" class="edge">
<title>get&#45;&gt;prepare_snap_ctx</title>
<path fill="none" stroke="#666666" d="M682.2,-586C732.23,-586 842.74,-586 914.03,-586"/>
<polygon fill="#666666" stroke="#666666" points="914.25,-589.5 924.25,-586 914.25,-582.5 914.25,-589.5"/>
</g>
<!-- coprocessor -->
<g id="node13" class="node">
<title>coprocessor</title>
<path fill="none" stroke="#1c2123" d="M85,-847C85,-847 28,-847 28,-847 22,-847 16,-841 16,-835 16,-835 16,-823 16,-823 16,-817 22,-811 28,-811 28,-811 85,-811 85,-811 91,-811 97,-817 97,-823 97,-823 97,-835 97,-835 97,-841 91,-847 85,-847"/>
<text text-anchor="middle" x="56.5" y="-825.3" font-family="Times,serif" font-size="14.00" fill="#2f3638">coprocessor</text>
</g>
<!-- future_cop -->
<g id="node14" class="node">
<title>future_cop</title>
<path fill="none" stroke="#1c2123" d="M221,-847C221,-847 170,-847 170,-847 164,-847 158,-841 158,-835 158,-835 158,-823 158,-823 158,-817 164,-811 170,-811 170,-811 221,-811 221,-811 227,-811 233,-817 233,-823 233,-823 233,-835 233,-835 233,-841 227,-847 221,-847"/>
<text text-anchor="middle" x="195.5" y="-825.3" font-family="Times,serif" font-size="14.00" fill="#2f3638">future_cop</text>
</g>
<!-- coprocessor&#45;&gt;future_cop -->
<g id="edge10" class="edge">
<title>coprocessor&#45;&gt;future_cop</title>
<path fill="none" stroke="#666666" d="M97.13,-829C112.81,-829 130.98,-829 147.33,-829"/>
<polygon fill="#666666" stroke="#666666" points="147.78,-832.5 157.78,-829 147.78,-825.5 147.78,-832.5"/>
</g>
<!-- future_cop&#45;&gt;parse_and_handle_unary_request -->
<g id="edge11" class="edge">
<title>future_cop&#45;&gt;parse_and_handle_unary_request</title>
<path fill="none" stroke="#666666" d="M233.28,-829C248.71,-829 267.52,-829 286.79,-829"/>
<polygon fill="#666666" stroke="#666666" points="286.88,-832.5 296.88,-829 286.88,-825.5 286.88,-832.5"/>
</g>
<!-- coprocessor_stream -->
<g id="node15" class="node">
<title>coprocessor_stream</title>
<path fill="none" stroke="#1c2123" d="M246,-901C246,-901 145,-901 145,-901 139,-901 133,-895 133,-889 133,-889 133,-877 133,-877 133,-871 139,-865 145,-865 145,-865 246,-865 246,-865 252,-865 258,-871 258,-877 258,-877 258,-889 258,-889 258,-895 252,-901 246,-901"/>
<text text-anchor="middle" x="195.5" y="-879.3" font-family="Times,serif" font-size="14.00" fill="#2f3638">coprocessor_stream</text>
</g>
<!-- coprocessor_stream&#45;&gt;parse_and_handle_stream_request -->
<g id="edge12" class="edge">
<title>coprocessor_stream&#45;&gt;parse_and_handle_stream_request</title>
<path fill="none" stroke="#666666" d="M258.06,-883C266.22,-883 274.78,-883 283.46,-883"/>
<polygon fill="#666666" stroke="#666666" points="283.7,-886.5 293.7,-883 283.7,-879.5 283.7,-886.5"/>
</g>
<!-- AppliedLockCollector_start_collecting -->
<g id="node16" class="node">
<title>AppliedLockCollector_start_collecting</title>
<path fill="none" stroke="#1c2123" d="M1082.5,-550C1082.5,-550 878.5,-550 878.5,-550 872.5,-550 866.5,-544 866.5,-538 866.5,-538 866.5,-526 866.5,-526 866.5,-520 872.5,-514 878.5,-514 878.5,-514 1082.5,-514 1082.5,-514 1088.5,-514 1094.5,-520 1094.5,-526 1094.5,-526 1094.5,-538 1094.5,-538 1094.5,-544 1088.5,-550 1082.5,-550"/>
<text text-anchor="middle" x="980.5" y="-528.3" font-family="Times,serif" font-size="14.00" fill="#2f3638">AppliedLockCollector_start_collecting</text>
</g>
<!-- AppliedLockCollector_start_collecting&#45;&gt;update_max_ts -->
<g id="edge15" class="edge">
<title>AppliedLockCollector_start_collecting&#45;&gt;update_max_ts</title>
<path fill="none" stroke="#666666" d="M1094.74,-520.28C1112.9,-516.52 1131.23,-511.55 1148,-505 1182.63,-491.47 1217.55,-467.08 1241.2,-448.58"/>
<polygon fill="#666666" stroke="#666666" points="1243.43,-451.28 1249.07,-442.31 1239.07,-445.8 1243.43,-451.28"/>
</g>
<!-- cdc_endpoint_Endpoint_get_current_resolved_ts -->
<g id="node17" class="node">
<title>cdc_endpoint_Endpoint_get_current_resolved_ts</title>
<path fill="none" stroke="#1c2123" d="M1109.5,-496C1109.5,-496 851.5,-496 851.5,-496 845.5,-496 839.5,-490 839.5,-484 839.5,-484 839.5,-472 839.5,-472 839.5,-466 845.5,-460 851.5,-460 851.5,-460 1109.5,-460 1109.5,-460 1115.5,-460 1121.5,-466 1121.5,-472 1121.5,-472 1121.5,-484 1121.5,-484 1121.5,-490 1115.5,-496 1109.5,-496"/>
<text text-anchor="middle" x="980.5" y="-474.3" font-family="Times,serif" font-size="14.00" fill="#2f3638">cdc_endpoint_Endpoint_get_current_resolved_ts</text>
</g>
<!-- cdc_endpoint_Endpoint_get_current_resolved_ts&#45;&gt;update_max_ts -->
<g id="edge16" class="edge">
<title>cdc_endpoint_Endpoint_get_current_resolved_ts&#45;&gt;update_max_ts</title>
<path fill="none" stroke="#666666" d="M1098.09,-459.95C1114.86,-457.1 1131.89,-454.08 1148,-451 1168.86,-447.01 1191.61,-442.15 1211.77,-437.65"/>
<polygon fill="#666666" stroke="#666666" points="1212.76,-441.01 1221.75,-435.4 1211.23,-434.18 1212.76,-441.01"/>
</g>
<!-- cdc_endpoint_Endpoint_register_min_ts_event -->
<g id="node18" class="node">
<title>cdc_endpoint_Endpoint_register_min_ts_event</title>
<path fill="none" stroke="#1c2123" d="M1105,-442C1105,-442 856,-442 856,-442 850,-442 844,-436 844,-430 844,-430 844,-418 844,-418 844,-412 850,-406 856,-406 856,-406 1105,-406 1105,-406 1111,-406 1117,-412 1117,-418 1117,-418 1117,-430 1117,-430 1117,-436 1111,-442 1105,-442"/>
<text text-anchor="middle" x="980.5" y="-420.3" font-family="Times,serif" font-size="14.00" fill="#2f3638">cdc_endpoint_Endpoint_register_min_ts_event</text>
</g>
<!-- cdc_endpoint_Endpoint_register_min_ts_event&#45;&gt;update_max_ts -->
<g id="edge17" class="edge">
<title>cdc_endpoint_Endpoint_register_min_ts_event&#45;&gt;update_max_ts</title>
<path fill="none" stroke="#666666" d="M1117.11,-424C1150.41,-424 1184.33,-424 1211.78,-424"/>
<polygon fill="#666666" stroke="#666666" points="1211.97,-427.5 1221.96,-424 1211.96,-420.5 1211.97,-427.5"/>
</g>
<!-- AdvanceTsWorker_register_advance_event -->
<g id="node19" class="node">
<title>AdvanceTsWorker_register_advance_event</title>
<path fill="none" stroke="#1c2123" d="M1095.5,-388C1095.5,-388 865.5,-388 865.5,-388 859.5,-388 853.5,-382 853.5,-376 853.5,-376 853.5,-364 853.5,-364 853.5,-358 859.5,-352 865.5,-352 865.5,-352 1095.5,-352 1095.5,-352 1101.5,-352 1107.5,-358 1107.5,-364 1107.5,-364 1107.5,-376 1107.5,-376 1107.5,-382 1101.5,-388 1095.5,-388"/>
<text text-anchor="middle" x="980.5" y="-366.3" font-family="Times,serif" font-size="14.00" fill="#2f3638">AdvanceTsWorker_register_advance_event</text>
</g>
<!-- AdvanceTsWorker_register_advance_event&#45;&gt;update_max_ts -->
<g id="edge18" class="edge">
<title>AdvanceTsWorker_register_advance_event&#45;&gt;update_max_ts</title>
<path fill="none" stroke="#666666" d="M1098.09,-388.05C1114.86,-390.9 1131.89,-393.92 1148,-397 1168.86,-400.99 1191.61,-405.85 1211.77,-410.35"/>
<polygon fill="#666666" stroke="#666666" points="1211.23,-413.82 1221.75,-412.6 1212.76,-406.99 1211.23,-413.82"/>
</g>
<!-- BackupRange_backup -->
<g id="node20" class="node">
<title>BackupRange_backup</title>
<path fill="none" stroke="#1c2123" d="M1037.5,-334C1037.5,-334 923.5,-334 923.5,-334 917.5,-334 911.5,-328 911.5,-322 911.5,-322 911.5,-310 911.5,-310 911.5,-304 917.5,-298 923.5,-298 923.5,-298 1037.5,-298 1037.5,-298 1043.5,-298 1049.5,-304 1049.5,-310 1049.5,-310 1049.5,-322 1049.5,-322 1049.5,-328 1043.5,-334 1037.5,-334"/>
<text text-anchor="middle" x="980.5" y="-312.3" font-family="Times,serif" font-size="14.00" fill="#2f3638">BackupRange_backup</text>
</g>
<!-- BackupRange_backup&#45;&gt;update_max_ts -->
<g id="edge19" class="edge">
<title>BackupRange_backup&#45;&gt;update_max_ts</title>
<path fill="none" stroke="#666666" d="M1049.65,-320.49C1080.49,-324.17 1116.91,-330.85 1148,-343 1182.63,-356.53 1217.55,-380.92 1241.2,-399.42"/>
<polygon fill="#666666" stroke="#666666" points="1239.07,-402.2 1249.07,-405.69 1243.43,-396.72 1239.07,-402.2"/>
</g>
<!-- Cleanup_process_write -->
<g id="node21" class="node">
<title>Cleanup_process_write</title>
<path fill="none" stroke="#1c2123" d="M1040,-252C1040,-252 921,-252 921,-252 915,-252 909,-246 909,-240 909,-240 909,-228 909,-228 909,-222 915,-216 921,-216 921,-216 1040,-216 1040,-216 1046,-216 1052,-222 1052,-228 1052,-228 1052,-240 1052,-240 1052,-246 1046,-252 1040,-252"/>
<text text-anchor="middle" x="980.5" y="-230.3" font-family="Times,serif" font-size="14.00" fill="#2f3638">Cleanup_process_write</text>
</g>
<!-- Cleanup_process_write&#45;&gt;update_max_ts -->
<g id="edge20" class="edge">
<title>Cleanup_process_write&#45;&gt;update_max_ts</title>
<path fill="none" stroke="#666666" d="M1052.32,-248.76C1083.34,-257.34 1119.16,-270.25 1148,-289 1192.68,-318.05 1231.58,-367.29 1252.97,-397.59"/>
<polygon fill="#666666" stroke="#666666" points="1250.21,-399.75 1258.79,-405.97 1255.96,-395.76 1250.21,-399.75"/>
</g>
<!-- actions_prewrite_prewrite -->
<g id="node22" class="node">
<title>actions_prewrite_prewrite</title>
<path fill="none" stroke="#1c2123" d="M1047.5,-198C1047.5,-198 913.5,-198 913.5,-198 907.5,-198 901.5,-192 901.5,-186 901.5,-186 901.5,-174 901.5,-174 901.5,-168 907.5,-162 913.5,-162 913.5,-162 1047.5,-162 1047.5,-162 1053.5,-162 1059.5,-168 1059.5,-174 1059.5,-174 1059.5,-186 1059.5,-186 1059.5,-192 1053.5,-198 1047.5,-198"/>
<text text-anchor="middle" x="980.5" y="-176.3" font-family="Times,serif" font-size="14.00" fill="#2f3638">actions_prewrite_prewrite</text>
</g>
<!-- actions_prewrite_prewrite&#45;&gt;update_max_ts -->
<g id="edge21" class="edge">
<title>actions_prewrite_prewrite&#45;&gt;update_max_ts</title>
<path fill="none" stroke="#666666" d="M1059.77,-178.66C1089.61,-181.57 1122.54,-189.25 1148,-207 1214.65,-253.46 1249.43,-348.53 1263.24,-395.89"/>
<polygon fill="#666666" stroke="#666666" points="1259.94,-397.1 1266.02,-405.78 1266.68,-395.2 1259.94,-397.1"/>
</g>
<!-- CheckSecondaryLocks_process_write -->
<g id="node23" class="node">
<title>CheckSecondaryLocks_process_write</title>
<path fill="none" stroke="#1c2123" d="M1080,-144C1080,-144 881,-144 881,-144 875,-144 869,-138 869,-132 869,-132 869,-120 869,-120 869,-114 875,-108 881,-108 881,-108 1080,-108 1080,-108 1086,-108 1092,-114 1092,-120 1092,-120 1092,-132 1092,-132 1092,-138 1086,-144 1080,-144"/>
<text text-anchor="middle" x="980.5" y="-122.3" font-family="Times,serif" font-size="14.00" fill="#2f3638">CheckSecondaryLocks_process_write</text>
</g>
<!-- CheckSecondaryLocks_process_write&#45;&gt;update_max_ts -->
<g id="edge22" class="edge">
<title>CheckSecondaryLocks_process_write&#45;&gt;update_max_ts</title>
<path fill="none" stroke="#666666" d="M1092.12,-128.41C1112.18,-132.98 1131.84,-140.63 1148,-153 1228.1,-214.34 1257.29,-339.93 1266.62,-395.95"/>
<polygon fill="#666666" stroke="#666666" points="1263.17,-396.54 1268.19,-405.88 1270.09,-395.45 1263.17,-396.54"/>
</g>
<!-- AcquirePessimisticLock_process_write -->
<g id="node24" class="node">
<title>AcquirePessimisticLock_process_write</title>
<path fill="none" stroke="#1c2123" d="M1084,-90C1084,-90 877,-90 877,-90 871,-90 865,-84 865,-78 865,-78 865,-66 865,-66 865,-60 871,-54 877,-54 877,-54 1084,-54 1084,-54 1090,-54 1096,-60 1096,-66 1096,-66 1096,-78 1096,-78 1096,-84 1090,-90 1084,-90"/>
<text text-anchor="middle" x="980.5" y="-68.3" font-family="Times,serif" font-size="14.00" fill="#2f3638">AcquirePessimisticLock_process_write</text>
</g>
<!-- AcquirePessimisticLock_process_write&#45;&gt;update_max_ts -->
<g id="edge23" class="edge">
<title>AcquirePessimisticLock_process_write&#45;&gt;update_max_ts</title>
<path fill="none" stroke="#666666" d="M1096.21,-74.43C1115,-79.16 1133.15,-86.86 1148,-99 1241.54,-175.51 1263.7,-331.4 1268.91,-395.5"/>
<polygon fill="#666666" stroke="#666666" points="1265.44,-395.95 1269.66,-405.67 1272.42,-395.44 1265.44,-395.95"/>
</g>
<!-- store_worker_pd_Runner_handle_update_max_timestamp -->
<g id="node25" class="node">
<title>store_worker_pd_Runner_handle_update_max_timestamp</title>
<path fill="none" stroke="#1c2123" d="M1136,-36C1136,-36 825,-36 825,-36 819,-36 813,-30 813,-24 813,-24 813,-12 813,-12 813,-6 819,0 825,0 825,0 1136,0 1136,0 1142,0 1148,-6 1148,-12 1148,-12 1148,-24 1148,-24 1148,-30 1142,-36 1136,-36"/>
<text text-anchor="middle" x="980.5" y="-14.3" font-family="Times,serif" font-size="14.00" fill="#2f3638">store_worker_pd_Runner_handle_update_max_timestamp</text>
</g>
<!-- store_worker_pd_Runner_handle_update_max_timestamp&#45;&gt;update_max_ts -->
<g id="edge24" class="edge">
<title>store_worker_pd_Runner_handle_update_max_timestamp&#45;&gt;update_max_ts</title>
<path fill="none" stroke="#666666" d="M1140.36,-36.17C1143,-37.99 1145.55,-39.93 1148,-42 1257.02,-134.17 1269.99,-323.64 1270.83,-395.51"/>
<polygon fill="#666666" stroke="#666666" points="1267.33,-395.63 1270.88,-405.62 1274.33,-395.6 1267.33,-395.63"/>
</g>
</g>
</svg>
