<?xml version="1.0" encoding="UTF-8" standalone="no"?>
<!DOCTYPE svg PUBLIC "-//W3C//DTD SVG 1.1//EN"
 "http://www.w3.org/Graphics/SVG/1.1/DTD/svg11.dtd">
<!-- Generated by graphviz version 2.47.1 (20210417.1919)
 -->
<!-- Title: vector_value Pages: 1 -->
<svg width="933pt" height="627pt"
 viewBox="0.00 0.00 933.00 627.00" xmlns="http://www.w3.org/2000/svg" xmlns:xlink="http://www.w3.org/1999/xlink">
<g id="graph0" class="graph" transform="scale(1 1) rotate(0) translate(4 623)">
<title>vector_value</title>
<polygon fill="white" stroke="transparent" points="-4,4 -4,-623 929,-623 929,4 -4,4"/>
<g id="clust7" class="cluster">
<title>cluster_BufferVec</title>
<path fill="none" stroke="slategrey" stroke-dasharray="5,2" d="M575,-383C575,-383 905,-383 905,-383 911,-383 917,-389 917,-395 917,-395 917,-599 917,-599 917,-605 911,-611 905,-611 905,-611 575,-611 575,-611 569,-611 563,-605 563,-599 563,-599 563,-395 563,-395 563,-389 569,-383 575,-383"/>
<text text-anchor="middle" x="740" y="-591" font-family="Times,serif" font-size="20.00">BufferVec</text>
</g>
<!-- VectorValue -->
<g id="node1" class="node">
<title>VectorValue</title>
<path fill="#a2dbfa" stroke="#8a8898" d="M12,-200C12,-200 242,-200 242,-200 248,-200 254,-206 254,-212 254,-212 254,-418 254,-418 254,-424 248,-430 242,-430 242,-430 12,-430 12,-430 6,-430 0,-424 0,-418 0,-418 0,-212 0,-212 0,-206 6,-200 12,-200"/>
<text text-anchor="middle" x="127" y="-414.8" font-family="Times,serif" font-size="14.00" fill="#5d6179">enum VectorValue</text>
<polyline fill="none" stroke="#8a8898" points="0,-407 254,-407 "/>
<text text-anchor="start" x="8" y="-391.8" font-family="Times,serif" font-size="14.00" fill="#5d6179">Int(ChunkedVecSized&lt;Int&gt;),</text>
<polyline fill="none" stroke="#8a8898" points="0,-384 254,-384 "/>
<text text-anchor="start" x="8" y="-368.8" font-family="Times,serif" font-size="14.00" fill="#5d6179">Real(ChunkedVecSized&lt;Real&gt;),</text>
<polyline fill="none" stroke="#8a8898" points="0,-361 254,-361 "/>
<text text-anchor="start" x="8" y="-345.8" font-family="Times,serif" font-size="14.00" fill="#5d6179">Decimal(ChunkedVecSized&lt;Decimal&gt;),</text>
<polyline fill="none" stroke="#8a8898" points="0,-338 254,-338 "/>
<text text-anchor="start" x="8" y="-322.8" font-family="Times,serif" font-size="14.00" fill="#5d6179">Bytes(ChunkedVecBytes),</text>
<polyline fill="none" stroke="#8a8898" points="0,-315 254,-315 "/>
<text text-anchor="start" x="8" y="-299.8" font-family="Times,serif" font-size="14.00" fill="#5d6179">DateTime(ChunkedVecSized&lt;DateTime&gt;),</text>
<polyline fill="none" stroke="#8a8898" points="0,-292 254,-292 "/>
<text text-anchor="start" x="8" y="-276.8" font-family="Times,serif" font-size="14.00" fill="#5d6179">Duration(ChunkedVecSized&lt;Duration&gt;),</text>
<polyline fill="none" stroke="#8a8898" points="0,-269 254,-269 "/>
<text text-anchor="start" x="8" y="-253.8" font-family="Times,serif" font-size="14.00" fill="#5d6179">Json(ChunkedVecJson),</text>
<polyline fill="none" stroke="#8a8898" points="0,-246 254,-246 "/>
<text text-anchor="start" x="8" y="-230.8" font-family="Times,serif" font-size="14.00" fill="#5d6179">Enum(ChunkedVecEnum),</text>
<polyline fill="none" stroke="#8a8898" points="0,-223 254,-223 "/>
<text text-anchor="start" x="8" y="-207.8" font-family="Times,serif" font-size="14.00" fill="#5d6179">Set(ChunkedVecSet),</text>
</g>
<!-- ChunkedVecSet -->
<g id="node2" class="node">
<title>ChunkedVecSet</title>
<path fill="none" stroke="#1c2123" d="M353.5,-380C353.5,-380 471.5,-380 471.5,-380 477.5,-380 483.5,-386 483.5,-392 483.5,-392 483.5,-460 483.5,-460 483.5,-466 477.5,-472 471.5,-472 471.5,-472 353.5,-472 353.5,-472 347.5,-472 341.5,-466 341.5,-460 341.5,-460 341.5,-392 341.5,-392 341.5,-386 347.5,-380 353.5,-380"/>
<text text-anchor="middle" x="412.5" y="-456.8" font-family="Times,serif" font-size="14.00" fill="#2f3638">ChunkedVecSet</text>
<polyline fill="none" stroke="#1c2123" points="341.5,-449 483.5,-449 "/>
<text text-anchor="start" x="349.5" y="-433.8" font-family="Times,serif" font-size="14.00" fill="#2f3638">data: Arc&lt;BufferVec&gt;,</text>
<polyline fill="none" stroke="#1c2123" points="341.5,-426 483.5,-426 "/>
<text text-anchor="start" x="349.5" y="-410.8" font-family="Times,serif" font-size="14.00" fill="#2f3638">bitmap: BitVec,</text>
<polyline fill="none" stroke="#1c2123" points="341.5,-403 483.5,-403 "/>
<text text-anchor="start" x="349.5" y="-387.8" font-family="Times,serif" font-size="14.00" fill="#2f3638">value: Vec&lt;u64&gt;,</text>
</g>
<!-- VectorValue&#45;&gt;ChunkedVecSet -->
<g id="edge1" class="edge">
<title>VectorValue&#45;&gt;ChunkedVecSet</title>
<path fill="none" stroke="#666666" d="M254.41,-364.49C280.74,-374.8 307.79,-385.39 331.86,-394.82"/>
<polygon fill="#666666" stroke="#666666" points="330.69,-398.12 341.27,-398.5 333.24,-391.6 330.69,-398.12"/>
</g>
<!-- ChunkedVecEnum -->
<g id="node3" class="node">
<title>ChunkedVecEnum</title>
<path fill="none" stroke="#1c2123" d="M353.5,-491C353.5,-491 471.5,-491 471.5,-491 477.5,-491 483.5,-497 483.5,-503 483.5,-503 483.5,-571 483.5,-571 483.5,-577 477.5,-583 471.5,-583 471.5,-583 353.5,-583 353.5,-583 347.5,-583 341.5,-577 341.5,-571 341.5,-571 341.5,-503 341.5,-503 341.5,-497 347.5,-491 353.5,-491"/>
<text text-anchor="middle" x="412.5" y="-567.8" font-family="Times,serif" font-size="14.00" fill="#2f3638">ChunkedVecEnum</text>
<polyline fill="none" stroke="#1c2123" points="341.5,-560 483.5,-560 "/>
<text text-anchor="start" x="349.5" y="-544.8" font-family="Times,serif" font-size="14.00" fill="#2f3638">data: Arc&lt;BufferVec&gt;,</text>
<polyline fill="none" stroke="#1c2123" points="341.5,-537 483.5,-537 "/>
<text text-anchor="start" x="349.5" y="-521.8" font-family="Times,serif" font-size="14.00" fill="#2f3638">bitmap: BitVec,</text>
<polyline fill="none" stroke="#1c2123" points="341.5,-514 483.5,-514 "/>
<text text-anchor="start" x="349.5" y="-498.8" font-family="Times,serif" font-size="14.00" fill="#2f3638">value: Vec&lt;usize&gt;,</text>
</g>
<!-- VectorValue&#45;&gt;ChunkedVecEnum -->
<g id="edge2" class="edge">
<title>VectorValue&#45;&gt;ChunkedVecEnum</title>
<path fill="none" stroke="#666666" d="M228.55,-430.38C247.83,-448.98 268.69,-467.01 290,-482 302.94,-491.1 317.63,-499.26 332.21,-506.33"/>
<polygon fill="#666666" stroke="#666666" points="330.72,-509.5 341.25,-510.59 333.7,-503.17 330.72,-509.5"/>
</g>
<!-- ChunkedVecBytes -->
<g id="node4" class="node">
<title>ChunkedVecBytes</title>
<path fill="none" stroke="#1c2123" d="M351,-0.5C351,-0.5 474,-0.5 474,-0.5 480,-0.5 486,-6.5 486,-12.5 486,-12.5 486,-103.5 486,-103.5 486,-109.5 480,-115.5 474,-115.5 474,-115.5 351,-115.5 351,-115.5 345,-115.5 339,-109.5 339,-103.5 339,-103.5 339,-12.5 339,-12.5 339,-6.5 345,-0.5 351,-0.5"/>
<text text-anchor="middle" x="412.5" y="-100.3" font-family="Times,serif" font-size="14.00" fill="#2f3638">ChunkedVecBytes</text>
<polyline fill="none" stroke="#1c2123" points="339,-92.5 486,-92.5 "/>
<text text-anchor="start" x="347" y="-77.3" font-family="Times,serif" font-size="14.00" fill="#2f3638">data: Vec&lt;u8&gt;,</text>
<polyline fill="none" stroke="#1c2123" points="339,-69.5 486,-69.5 "/>
<text text-anchor="start" x="347" y="-54.3" font-family="Times,serif" font-size="14.00" fill="#2f3638">bitmap: BitVec,</text>
<polyline fill="none" stroke="#1c2123" points="339,-46.5 486,-46.5 "/>
<text text-anchor="start" x="347" y="-31.3" font-family="Times,serif" font-size="14.00" fill="#2f3638">length: usize,</text>
<polyline fill="none" stroke="#1c2123" points="339,-23.5 486,-23.5 "/>
<text text-anchor="start" x="347" y="-8.3" font-family="Times,serif" font-size="14.00" fill="#2f3638">var_offset: Vec&lt;usize&gt;,</text>
</g>
<!-- VectorValue&#45;&gt;ChunkedVecBytes -->
<g id="edge3" class="edge">
<title>VectorValue&#45;&gt;ChunkedVecBytes</title>
<path fill="none" stroke="#666666" d="M214.76,-199.66C237.56,-173.36 263.3,-146.79 290,-125 302.21,-115.04 316.11,-105.79 330.05,-97.55"/>
<polygon fill="#666666" stroke="#666666" points="331.8,-100.57 338.72,-92.54 328.31,-94.51 331.8,-100.57"/>
</g>
<!-- ChunkedVecSized -->
<g id="node5" class="node">
<title>ChunkedVecSized</title>
<path fill="none" stroke="#1c2123" d="M302,-269C302,-269 523,-269 523,-269 529,-269 535,-275 535,-281 535,-281 535,-349 535,-349 535,-355 529,-361 523,-361 523,-361 302,-361 302,-361 296,-361 290,-355 290,-349 290,-349 290,-281 290,-281 290,-275 296,-269 302,-269"/>
<text text-anchor="middle" x="412.5" y="-345.8" font-family="Times,serif" font-size="14.00" fill="#2f3638">ChunkedVecSized</text>
<polyline fill="none" stroke="#1c2123" points="290,-338 535,-338 "/>
<text text-anchor="start" x="298" y="-322.8" font-family="Times,serif" font-size="14.00" fill="#2f3638">data: Vec&lt;T&gt;,</text>
<polyline fill="none" stroke="#1c2123" points="290,-315 535,-315 "/>
<text text-anchor="start" x="298" y="-299.8" font-family="Times,serif" font-size="14.00" fill="#2f3638">bitmap: BitVec,</text>
<polyline fill="none" stroke="#1c2123" points="290,-292 535,-292 "/>
<text text-anchor="start" x="298" y="-276.8" font-family="Times,serif" font-size="14.00" fill="#2f3638">phantom: std::marker::PhantomData&lt;T&gt;,</text>
</g>
<!-- VectorValue&#45;&gt;ChunkedVecSized -->
<g id="edge4" class="edge">
<title>VectorValue&#45;&gt;ChunkedVecSized</title>
<path fill="none" stroke="#666666" d="M254.41,-315C262.81,-315 271.28,-315 279.7,-315"/>
<polygon fill="#666666" stroke="#666666" points="279.95,-318.5 289.95,-315 279.95,-311.5 279.95,-318.5"/>
</g>
<!-- ChunkedVecJson -->
<g id="node6" class="node">
<title>ChunkedVecJson</title>
<path fill="none" stroke="#1c2123" d="M351,-134.5C351,-134.5 474,-134.5 474,-134.5 480,-134.5 486,-140.5 486,-146.5 486,-146.5 486,-237.5 486,-237.5 486,-243.5 480,-249.5 474,-249.5 474,-249.5 351,-249.5 351,-249.5 345,-249.5 339,-243.5 339,-237.5 339,-237.5 339,-146.5 339,-146.5 339,-140.5 345,-134.5 351,-134.5"/>
<text text-anchor="middle" x="412.5" y="-234.3" font-family="Times,serif" font-size="14.00" fill="#2f3638">ChunkedVecJson</text>
<polyline fill="none" stroke="#1c2123" points="339,-226.5 486,-226.5 "/>
<text text-anchor="start" x="347" y="-211.3" font-family="Times,serif" font-size="14.00" fill="#2f3638">data: Vec&lt;u8&gt;,</text>
<polyline fill="none" stroke="#1c2123" points="339,-203.5 486,-203.5 "/>
<text text-anchor="start" x="347" y="-188.3" font-family="Times,serif" font-size="14.00" fill="#2f3638">bitmap: BitVec,</text>
<polyline fill="none" stroke="#1c2123" points="339,-180.5 486,-180.5 "/>
<text text-anchor="start" x="347" y="-165.3" font-family="Times,serif" font-size="14.00" fill="#2f3638">length: usize,</text>
<polyline fill="none" stroke="#1c2123" points="339,-157.5 486,-157.5 "/>
<text text-anchor="start" x="347" y="-142.3" font-family="Times,serif" font-size="14.00" fill="#2f3638">var_offset: Vec&lt;usize&gt;,</text>
</g>
<!-- VectorValue&#45;&gt;ChunkedVecJson -->
<g id="edge5" class="edge">
<title>VectorValue&#45;&gt;ChunkedVecJson</title>
<path fill="none" stroke="#666666" d="M254.41,-260.15C279.96,-249.07 306.18,-237.69 329.7,-227.49"/>
<polygon fill="#666666" stroke="#666666" points="331.14,-230.68 338.92,-223.49 328.35,-224.26 331.14,-230.68"/>
</g>
<!-- BufferVec -->
<g id="node7" class="node">
<title>BufferVec</title>
<path fill="none" stroke="#1c2123" d="M583,-413.5C583,-413.5 687,-413.5 687,-413.5 693,-413.5 699,-419.5 699,-425.5 699,-425.5 699,-470.5 699,-470.5 699,-476.5 693,-482.5 687,-482.5 687,-482.5 583,-482.5 583,-482.5 577,-482.5 571,-476.5 571,-470.5 571,-470.5 571,-425.5 571,-425.5 571,-419.5 577,-413.5 583,-413.5"/>
<text text-anchor="middle" x="635" y="-467.3" font-family="Times,serif" font-size="14.00" fill="#2f3638">BufferVec</text>
<polyline fill="none" stroke="#1c2123" points="571,-459.5 699,-459.5 "/>
<text text-anchor="start" x="579" y="-444.3" font-family="Times,serif" font-size="14.00" fill="#2f3638">data: Vec&lt;u8&gt;,</text>
<polyline fill="none" stroke="#1c2123" points="571,-436.5 699,-436.5 "/>
<text text-anchor="start" x="579" y="-421.3" font-family="Times,serif" font-size="14.00" fill="#2f3638">offsets: Vec&lt;usize&gt;,</text>
</g>
<!-- ChunkedVecSet&#45;&gt;BufferVec -->
<g id="edge6" class="edge">
<title>ChunkedVecSet&#45;&gt;BufferVec</title>
<path fill="none" stroke="#666666" d="M483.57,-432.99C508.18,-435.45 535.87,-438.21 560.73,-440.69"/>
<polygon fill="#666666" stroke="#666666" points="560.54,-444.19 570.83,-441.7 561.23,-437.22 560.54,-444.19"/>
</g>
<!-- BitVec -->
<g id="node8" class="node">
<title>BitVec</title>
<path fill="none" stroke="#1c2123" d="M593.5,-230.5C593.5,-230.5 676.5,-230.5 676.5,-230.5 682.5,-230.5 688.5,-236.5 688.5,-242.5 688.5,-242.5 688.5,-287.5 688.5,-287.5 688.5,-293.5 682.5,-299.5 676.5,-299.5 676.5,-299.5 593.5,-299.5 593.5,-299.5 587.5,-299.5 581.5,-293.5 581.5,-287.5 581.5,-287.5 581.5,-242.5 581.5,-242.5 581.5,-236.5 587.5,-230.5 593.5,-230.5"/>
<text text-anchor="middle" x="635" y="-284.3" font-family="Times,serif" font-size="14.00" fill="#2f3638">BitVec</text>
<polyline fill="none" stroke="#1c2123" points="581.5,-276.5 688.5,-276.5 "/>
<text text-anchor="start" x="589.5" y="-261.3" font-family="Times,serif" font-size="14.00" fill="#2f3638">data: Vec&lt;u64&gt;,</text>
<polyline fill="none" stroke="#1c2123" points="581.5,-253.5 688.5,-253.5 "/>
<text text-anchor="start" x="589.5" y="-238.3" font-family="Times,serif" font-size="14.00" fill="#2f3638">length: usize,</text>
</g>
<!-- ChunkedVecSet&#45;&gt;BitVec -->
<g id="edge7" class="edge">
<title>ChunkedVecSet&#45;&gt;BitVec</title>
<path fill="none" stroke="#666666" d="M483.77,-403.7C502.12,-395.35 520.72,-384.3 535,-370 556.08,-348.89 543.26,-331.36 563,-309 566.13,-305.45 569.62,-302.09 573.33,-298.93"/>
<polygon fill="#666666" stroke="#666666" points="575.51,-301.67 581.18,-292.72 571.17,-296.17 575.51,-301.67"/>
</g>
<!-- Vec -->
<g id="node9" class="node">
<title>Vec</title>
<path fill="none" stroke="#1c2123" d="M650,-354C650,-354 620,-354 620,-354 614,-354 608,-348 608,-342 608,-342 608,-330 608,-330 608,-324 614,-318 620,-318 620,-318 650,-318 650,-318 656,-318 662,-324 662,-330 662,-330 662,-342 662,-342 662,-348 656,-354 650,-354"/>
<text text-anchor="middle" x="635" y="-332.3" font-family="Times,serif" font-size="14.00" fill="#2f3638">Vec</text>
</g>
<!-- ChunkedVecSet&#45;&gt;Vec -->
<g id="edge8" class="edge">
<title>ChunkedVecSet&#45;&gt;Vec</title>
<path fill="none" stroke="#666666" d="M483.57,-397.4C521.8,-381.79 567.51,-363.14 598.42,-350.52"/>
<polygon fill="#666666" stroke="#666666" points="599.98,-353.67 607.91,-346.65 597.33,-347.19 599.98,-353.67"/>
</g>
<!-- ChunkedVecEnum&#45;&gt;BufferVec -->
<g id="edge9" class="edge">
<title>ChunkedVecEnum&#45;&gt;BufferVec</title>
<path fill="none" stroke="#666666" d="M483.57,-508.72C508.39,-498.7 536.37,-487.41 561.4,-477.3"/>
<polygon fill="#666666" stroke="#666666" points="562.87,-480.48 570.83,-473.5 560.25,-473.99 562.87,-480.48"/>
</g>
<!-- ChunkedVecEnum&#45;&gt;BitVec -->
<g id="edge10" class="edge">
<title>ChunkedVecEnum&#45;&gt;BitVec</title>
<path fill="none" stroke="#666666" d="M483.58,-518.9C502.93,-510.65 522.13,-498.83 535,-482 582.33,-420.14 519.78,-373.8 563,-309 565.94,-304.59 569.49,-300.54 573.42,-296.84"/>
<polygon fill="#666666" stroke="#666666" points="575.97,-299.27 581.36,-290.15 571.46,-293.91 575.97,-299.27"/>
</g>
<!-- ChunkedVecEnum&#45;&gt;Vec -->
<g id="edge11" class="edge">
<title>ChunkedVecEnum&#45;&gt;Vec</title>
<path fill="none" stroke="#666666" d="M483.78,-517.49C502.67,-509.24 521.56,-497.78 535,-482 565.76,-445.89 534.45,-416.88 563,-379 572.14,-366.87 585.79,-357.44 598.69,-350.54"/>
<polygon fill="#666666" stroke="#666666" points="600.49,-353.55 607.87,-345.96 597.36,-347.29 600.49,-353.55"/>
</g>
<!-- ChunkedVecBytes&#45;&gt;BitVec -->
<g id="edge12" class="edge">
<title>ChunkedVecBytes&#45;&gt;BitVec</title>
<path fill="none" stroke="#666666" d="M486.13,-91.07C503.17,-100.65 520.55,-112.07 535,-125 565.87,-152.6 592.42,-191.55 610.24,-221.36"/>
<polygon fill="#666666" stroke="#666666" points="607.4,-223.44 615.48,-230.29 613.44,-219.89 607.4,-223.44"/>
</g>
<!-- ChunkedVecBytes&#45;&gt;Vec -->
<g id="edge13" class="edge">
<title>ChunkedVecBytes&#45;&gt;Vec</title>
<path fill="none" stroke="#666666" d="M486.13,-84.23C504.73,-94.26 522.88,-107.61 535,-125 582.31,-192.85 511.04,-244.64 563,-309 571.63,-319.69 584.99,-326.15 597.8,-330.05"/>
<polygon fill="#666666" stroke="#666666" points="597.3,-333.54 607.86,-332.67 599.06,-326.76 597.3,-333.54"/>
</g>
<!-- ChunkedVecSized&#45;&gt;BitVec -->
<g id="edge14" class="edge">
<title>ChunkedVecSized&#45;&gt;BitVec</title>
<path fill="none" stroke="#666666" d="M535.04,-287.44C547.62,-284.59 560.01,-281.78 571.54,-279.16"/>
<polygon fill="#666666" stroke="#666666" points="572.45,-282.55 581.42,-276.92 570.9,-275.72 572.45,-282.55"/>
</g>
<!-- ChunkedVecSized&#45;&gt;Vec -->
<g id="edge15" class="edge">
<title>ChunkedVecSized&#45;&gt;Vec</title>
<path fill="none" stroke="#666666" d="M535.04,-326.57C557.86,-328.75 580.02,-330.86 597.57,-332.53"/>
<polygon fill="#666666" stroke="#666666" points="597.58,-336.05 607.87,-333.51 598.25,-329.08 597.58,-336.05"/>
</g>
<!-- ChunkedVecJson&#45;&gt;BitVec -->
<g id="edge16" class="edge">
<title>ChunkedVecJson&#45;&gt;BitVec</title>
<path fill="none" stroke="#666666" d="M486.01,-216C513.73,-225.18 545.08,-235.56 571.76,-244.39"/>
<polygon fill="#666666" stroke="#666666" points="570.77,-247.75 581.36,-247.57 572.97,-241.11 570.77,-247.75"/>
</g>
<!-- ChunkedVecJson&#45;&gt;Vec -->
<g id="edge17" class="edge">
<title>ChunkedVecJson&#45;&gt;Vec</title>
<path fill="none" stroke="#666666" d="M486.17,-223.49C503.49,-233.2 520.99,-245.08 535,-259 553.07,-276.95 543.72,-292.36 563,-309 572.91,-317.55 585.8,-323.52 597.88,-327.64"/>
<polygon fill="#666666" stroke="#666666" points="597.16,-331.08 607.74,-330.68 599.21,-324.39 597.16,-331.08"/>
</g>
<!-- data -->
<g id="node10" class="node">
<title>data</title>
<path fill="#feed9b" stroke="#f7e495" d="M837,-411.5C837,-411.5 897,-411.5 897,-411.5 903,-411.5 909,-417.5 909,-423.5 909,-423.5 909,-560.5 909,-560.5 909,-566.5 903,-572.5 897,-572.5 897,-572.5 837,-572.5 837,-572.5 831,-572.5 825,-566.5 825,-560.5 825,-560.5 825,-423.5 825,-423.5 825,-417.5 831,-411.5 837,-411.5"/>
<text text-anchor="middle" x="867" y="-557.3" font-family="Times,serif" font-size="14.00" fill="#40575d">data</text>
<polyline fill="none" stroke="#f7e495" points="825,-549.5 909,-549.5 "/>
<text text-anchor="middle" x="838" y="-534.3" font-family="Times,serif" font-size="14.00" fill="#40575d">0</text>
<polyline fill="none" stroke="#f7e495" points="851,-526.5 851,-549.5 "/>
<text text-anchor="middle" x="880" y="-534.3" font-family="Times,serif" font-size="14.00" fill="#40575d">elem 1</text>
<polyline fill="none" stroke="#f7e495" points="825,-526.5 909,-526.5 "/>
<text text-anchor="middle" x="838" y="-511.3" font-family="Times,serif" font-size="14.00" fill="#40575d">8</text>
<polyline fill="none" stroke="#f7e495" points="851,-503.5 851,-526.5 "/>
<text text-anchor="middle" x="880" y="-511.3" font-family="Times,serif" font-size="14.00" fill="#40575d">elem 2</text>
<polyline fill="none" stroke="#f7e495" points="825,-503.5 909,-503.5 "/>
<text text-anchor="middle" x="840" y="-488.3" font-family="Times,serif" font-size="14.00" fill="#40575d">16</text>
<polyline fill="none" stroke="#f7e495" points="855,-480.5 855,-503.5 "/>
<text text-anchor="middle" x="882" y="-488.3" font-family="Times,serif" font-size="14.00" fill="#40575d">elem 3</text>
<polyline fill="none" stroke="#f7e495" points="825,-480.5 909,-480.5 "/>
<text text-anchor="middle" x="867" y="-465.3" font-family="Times,serif" font-size="14.00" fill="#40575d">...</text>
<polyline fill="none" stroke="#f7e495" points="825,-457.5 909,-457.5 "/>
<text text-anchor="middle" x="839" y="-442.3" font-family="Times,serif" font-size="14.00" fill="#40575d">x</text>
<polyline fill="none" stroke="#f7e495" points="853,-434.5 853,-457.5 "/>
<text text-anchor="middle" x="881" y="-442.3" font-family="Times,serif" font-size="14.00" fill="#40575d">elem i</text>
<polyline fill="none" stroke="#f7e495" points="825,-434.5 909,-434.5 "/>
<text text-anchor="middle" x="867" y="-419.3" font-family="Times,serif" font-size="14.00" fill="#40575d"> </text>
</g>
<!-- BufferVec&#45;&gt;data -->
<g id="edge18" class="edge">
<title>BufferVec&#45;&gt;data</title>
<path fill="none" stroke="#666666" d="M689.38,-413.33C719.4,-398.38 757.13,-387.32 789,-402 799.4,-406.79 808.92,-413.75 817.45,-421.72"/>
<polygon fill="#666666" stroke="#666666" points="815.14,-424.36 824.69,-428.95 820.09,-419.41 815.14,-424.36"/>
</g>
<!-- offsets -->
<g id="node11" class="node">
<title>offsets</title>
<path fill="#a2dbfa" stroke="#8a8898" d="M747,-411.5C747,-411.5 777,-411.5 777,-411.5 783,-411.5 789,-417.5 789,-423.5 789,-423.5 789,-560.5 789,-560.5 789,-566.5 783,-572.5 777,-572.5 777,-572.5 747,-572.5 747,-572.5 741,-572.5 735,-566.5 735,-560.5 735,-560.5 735,-423.5 735,-423.5 735,-417.5 741,-411.5 747,-411.5"/>
<text text-anchor="middle" x="762" y="-557.3" font-family="Times,serif" font-size="14.00" fill="#5d6179">offsets</text>
<polyline fill="none" stroke="#8a8898" points="735,-549.5 789,-549.5 "/>
<text text-anchor="middle" x="748.5" y="-534.3" font-family="Times,serif" font-size="14.00" fill="#5d6179">0</text>
<polyline fill="none" stroke="#8a8898" points="762,-526.5 762,-549.5 "/>
<text text-anchor="middle" x="775.5" y="-534.3" font-family="Times,serif" font-size="14.00" fill="#5d6179">0</text>
<polyline fill="none" stroke="#8a8898" points="735,-526.5 789,-526.5 "/>
<text text-anchor="middle" x="748.5" y="-511.3" font-family="Times,serif" font-size="14.00" fill="#5d6179">1</text>
<polyline fill="none" stroke="#8a8898" points="762,-503.5 762,-526.5 "/>
<text text-anchor="middle" x="775.5" y="-511.3" font-family="Times,serif" font-size="14.00" fill="#5d6179">8</text>
<polyline fill="none" stroke="#8a8898" points="735,-503.5 789,-503.5 "/>
<text text-anchor="middle" x="746.5" y="-488.3" font-family="Times,serif" font-size="14.00" fill="#5d6179">2</text>
<polyline fill="none" stroke="#8a8898" points="758,-480.5 758,-503.5 "/>
<text text-anchor="middle" x="773.5" y="-488.3" font-family="Times,serif" font-size="14.00" fill="#5d6179">16</text>
<polyline fill="none" stroke="#8a8898" points="735,-480.5 789,-480.5 "/>
<text text-anchor="middle" x="762" y="-465.3" font-family="Times,serif" font-size="14.00" fill="#5d6179">...</text>
<polyline fill="none" stroke="#8a8898" points="735,-457.5 789,-457.5 "/>
<text text-anchor="middle" x="748.5" y="-442.3" font-family="Times,serif" font-size="14.00" fill="#5d6179">i</text>
<polyline fill="none" stroke="#8a8898" points="762,-434.5 762,-457.5 "/>
<text text-anchor="middle" x="775.5" y="-442.3" font-family="Times,serif" font-size="14.00" fill="#5d6179"> </text>
<polyline fill="none" stroke="#8a8898" points="735,-434.5 789,-434.5 "/>
<text text-anchor="middle" x="762" y="-419.3" font-family="Times,serif" font-size="14.00" fill="#5d6179"> </text>
</g>
<!-- BufferVec&#45;&gt;offsets -->
<g id="edge19" class="edge">
<title>BufferVec&#45;&gt;offsets</title>
<path fill="none" stroke="#666666" d="M699.23,-470.26C708.19,-473.41 717.12,-476.55 725.3,-479.43"/>
<polygon fill="#666666" stroke="#666666" points="724.26,-482.78 734.85,-482.8 726.58,-476.17 724.26,-482.78"/>
</g>
<!-- offsets&#45;&gt;data -->
<g id="edge20" class="edge">
<title>offsets:0&#45;&gt;data:0</title>
<path fill="none" stroke="#666666" d="M789,-538C801,-538 806.25,-538 814.88,-538"/>
<polygon fill="#666666" stroke="#666666" points="815,-541.5 825,-538 815,-534.5 815,-541.5"/>
</g>
<!-- offsets&#45;&gt;data -->
<g id="edge21" class="edge">
<title>offsets:1&#45;&gt;data:1</title>
<path fill="none" stroke="#666666" d="M789,-515C801,-515 806.25,-515 814.88,-515"/>
<polygon fill="#666666" stroke="#666666" points="815,-518.5 825,-515 815,-511.5 815,-518.5"/>
</g>
<!-- offsets&#45;&gt;data -->
<g id="edge22" class="edge">
<title>offsets:2&#45;&gt;data:2</title>
<path fill="none" stroke="#666666" d="M789,-492C801,-492 806.25,-492 814.88,-492"/>
<polygon fill="#666666" stroke="#666666" points="815,-495.5 825,-492 815,-488.5 815,-495.5"/>
</g>
<!-- offsets&#45;&gt;data -->
<g id="edge23" class="edge">
<title>offsets:i&#45;&gt;data:i</title>
<path fill="none" stroke="#666666" d="M789,-446C801,-446 806.25,-446 814.88,-446"/>
<polygon fill="#666666" stroke="#666666" points="815,-449.5 825,-446 815,-442.5 815,-449.5"/>
</g>
</g>
</svg>
