<?xml version="1.0" encoding="UTF-8" standalone="no"?>
<!DOCTYPE svg PUBLIC "-//W3C//DTD SVG 1.1//EN"
 "http://www.w3.org/Graphics/SVG/1.1/DTD/svg11.dtd">
<!-- Generated by graphviz version 2.47.1 (20210417.1919)
 -->
<!-- Title: handle_wake_up Pages: 1 -->
<svg width="1397pt" height="475pt"
 viewBox="0.00 0.00 1397.00 474.50" xmlns="http://www.w3.org/2000/svg" xmlns:xlink="http://www.w3.org/1999/xlink">
<g id="graph0" class="graph" transform="scale(1 1) rotate(0) translate(4 470.5)">
<title>handle_wake_up</title>
<polygon fill="white" stroke="transparent" points="-4,4 -4,-470.5 1393,-470.5 1393,4 -4,4"/>
<g id="clust1" class="cluster">
<title>cluster_WaitTable</title>
<path fill="none" stroke="slategrey" stroke-dasharray="5,2" d="M286,-185.5C286,-185.5 461,-185.5 461,-185.5 467,-185.5 473,-191.5 473,-197.5 473,-197.5 473,-281.5 473,-281.5 473,-287.5 467,-293.5 461,-293.5 461,-293.5 286,-293.5 286,-293.5 280,-293.5 274,-287.5 274,-281.5 274,-281.5 274,-197.5 274,-197.5 274,-191.5 280,-185.5 286,-185.5"/>
<text text-anchor="middle" x="373.5" y="-273.5" font-family="Times,serif" font-size="20.00">WaitTable</text>
</g>
<g id="clust2" class="cluster">
<title>cluster_Waiter</title>
<path fill="none" stroke="slategrey" stroke-dasharray="5,2" d="M730.5,-190.5C730.5,-190.5 1369,-190.5 1369,-190.5 1375,-190.5 1381,-196.5 1381,-202.5 1381,-202.5 1381,-446.5 1381,-446.5 1381,-452.5 1375,-458.5 1369,-458.5 1369,-458.5 730.5,-458.5 730.5,-458.5 724.5,-458.5 718.5,-452.5 718.5,-446.5 718.5,-446.5 718.5,-202.5 718.5,-202.5 718.5,-196.5 724.5,-190.5 730.5,-190.5"/>
<text text-anchor="middle" x="1049.75" y="-438.5" font-family="Times,serif" font-size="20.00">Waiter</text>
</g>
<!-- remove_oldest_waiter -->
<g id="node1" class="node">
<title>remove_oldest_waiter</title>
<path fill="none" stroke="#1c2123" d="M294,-194C294,-194 453,-194 453,-194 459,-194 465,-200 465,-206 465,-206 465,-243 465,-243 465,-249 459,-255 453,-255 453,-255 294,-255 294,-255 288,-255 282,-249 282,-243 282,-243 282,-206 282,-206 282,-200 288,-194 294,-194"/>
<text text-anchor="middle" x="373.5" y="-239.8" font-family="Times,serif" font-size="14.00" fill="#2f3638">remove_oldest_waiter</text>
<polyline fill="none" stroke="#1c2123" points="282,-232 465,-232 "/>
<text text-anchor="start" x="290" y="-216.8" font-family="Times,serif" font-size="14.00" fill="#2f3638">将waiters分为smallest start ts</text>
<text text-anchor="start" x="290" y="-201.8" font-family="Times,serif" font-size="14.00" fill="#2f3638"> 和others的</text>
</g>
<!-- old -->
<g id="node11" class="node">
<title>old</title>
<path fill="#feed9b" stroke="#f7e495" d="M522,-206.5C522,-206.5 639,-206.5 639,-206.5 645,-206.5 651,-212.5 651,-218.5 651,-218.5 651,-240.5 651,-240.5 651,-246.5 645,-252.5 639,-252.5 639,-252.5 522,-252.5 522,-252.5 516,-252.5 510,-246.5 510,-240.5 510,-240.5 510,-218.5 510,-218.5 510,-212.5 516,-206.5 522,-206.5"/>
<text text-anchor="start" x="518" y="-237.3" font-family="Times,serif" font-size="14.00" fill="#40575d">old</text>
<polyline fill="none" stroke="#f7e495" points="510,-229.5 651,-229.5 "/>
<text text-anchor="start" x="518" y="-214.3" font-family="Times,serif" font-size="14.00" fill="#40575d">有最小start_ts的事务</text>
</g>
<!-- remove_oldest_waiter&#45;&gt;old -->
<g id="edge7" class="edge">
<title>remove_oldest_waiter&#45;&gt;old</title>
<path fill="none" stroke="#666666" d="M465.01,-226.71C476.51,-226.99 488.21,-227.27 499.53,-227.55"/>
<polygon fill="#666666" stroke="#666666" points="499.71,-231.05 509.79,-227.8 499.88,-224.06 499.71,-231.05"/>
</g>
<!-- others -->
<g id="node12" class="node">
<title>others</title>
<path fill="#feed9b" stroke="#f7e495" d="M513,-141.5C513,-141.5 648,-141.5 648,-141.5 654,-141.5 660,-147.5 660,-153.5 660,-153.5 660,-175.5 660,-175.5 660,-181.5 654,-187.5 648,-187.5 648,-187.5 513,-187.5 513,-187.5 507,-187.5 501,-181.5 501,-175.5 501,-175.5 501,-153.5 501,-153.5 501,-147.5 507,-141.5 513,-141.5"/>
<text text-anchor="start" x="509" y="-172.3" font-family="Times,serif" font-size="14.00" fill="#40575d">others</text>
<polyline fill="none" stroke="#f7e495" points="501,-164.5 660,-164.5 "/>
<text text-anchor="start" x="509" y="-149.3" font-family="Times,serif" font-size="14.00" fill="#40575d">等待队里中的其他事务</text>
</g>
<!-- remove_oldest_waiter&#45;&gt;others -->
<g id="edge8" class="edge">
<title>remove_oldest_waiter&#45;&gt;others</title>
<path fill="none" stroke="#666666" d="M465.01,-198.01C473.66,-195.48 482.43,-192.91 491.06,-190.39"/>
<polygon fill="#666666" stroke="#666666" points="492.12,-193.72 500.73,-187.55 490.15,-187 492.12,-193.72"/>
</g>
<!-- conflict_with -->
<g id="node2" class="node">
<title>conflict_with</title>
<path fill="none" stroke="#1c2123" d="M738.5,-199C738.5,-199 877.5,-199 877.5,-199 883.5,-199 889.5,-205 889.5,-211 889.5,-211 889.5,-248 889.5,-248 889.5,-254 883.5,-260 877.5,-260 877.5,-260 738.5,-260 738.5,-260 732.5,-260 726.5,-254 726.5,-248 726.5,-248 726.5,-211 726.5,-211 726.5,-205 732.5,-199 738.5,-199"/>
<text text-anchor="middle" x="808" y="-244.8" font-family="Times,serif" font-size="14.00" fill="#2f3638">conflict_with</text>
<polyline fill="none" stroke="#1c2123" points="726.5,-237 889.5,-237 "/>
<text text-anchor="start" x="734.5" y="-221.8" font-family="Times,serif" font-size="14.00" fill="#2f3638">Changes the ProcessResult</text>
<text text-anchor="start" x="734.5" y="-206.8" font-family="Times,serif" font-size="14.00" fill="#2f3638"> to WriteConflict</text>
</g>
<!-- WriteConflict -->
<g id="node7" class="node">
<title>WriteConflict</title>
<path fill="none" stroke="#1c2123" d="M1179,-284.5C1179,-284.5 1112,-284.5 1112,-284.5 1106,-284.5 1100,-278.5 1100,-272.5 1100,-272.5 1100,-260.5 1100,-260.5 1100,-254.5 1106,-248.5 1112,-248.5 1112,-248.5 1179,-248.5 1179,-248.5 1185,-248.5 1191,-254.5 1191,-260.5 1191,-260.5 1191,-272.5 1191,-272.5 1191,-278.5 1185,-284.5 1179,-284.5"/>
<text text-anchor="middle" x="1145.5" y="-262.8" font-family="Times,serif" font-size="14.00" fill="#2f3638">WriteConflict</text>
</g>
<!-- conflict_with&#45;&gt;WriteConflict -->
<g id="edge4" class="edge">
<title>conflict_with&#45;&gt;WriteConflict</title>
<path fill="none" stroke="#666666" d="M889.75,-226.84C940.23,-226.61 1006.37,-228.93 1064,-239.5 1072.64,-241.08 1081.62,-243.39 1090.31,-246"/>
<polygon fill="#666666" stroke="#666666" points="1089.37,-249.38 1099.96,-249.06 1091.48,-242.71 1089.37,-249.38"/>
</g>
<!-- extract_key_info -->
<g id="node8" class="node">
<title>extract_key_info</title>
<path fill="none" stroke="#1c2123" d="M1052,-284.5C1052,-284.5 968,-284.5 968,-284.5 962,-284.5 956,-278.5 956,-272.5 956,-272.5 956,-260.5 956,-260.5 956,-254.5 962,-248.5 968,-248.5 968,-248.5 1052,-248.5 1052,-248.5 1058,-248.5 1064,-254.5 1064,-260.5 1064,-260.5 1064,-272.5 1064,-272.5 1064,-278.5 1058,-284.5 1052,-284.5"/>
<text text-anchor="middle" x="1010" y="-262.8" font-family="Times,serif" font-size="14.00" fill="#2f3638">extract_key_info</text>
</g>
<!-- conflict_with&#45;&gt;extract_key_info -->
<g id="edge5" class="edge">
<title>conflict_with&#45;&gt;extract_key_info</title>
<path fill="none" stroke="#666666" d="M889.77,-244.44C908.35,-247.88 927.85,-251.49 945.57,-254.77"/>
<polygon fill="#666666" stroke="#666666" points="945.31,-258.28 955.78,-256.65 946.58,-251.39 945.31,-258.28"/>
</g>
<!-- notify -->
<g id="node3" class="node">
<title>notify</title>
<path fill="none" stroke="#1c2123" d="M754.5,-359C754.5,-359 861.5,-359 861.5,-359 867.5,-359 873.5,-365 873.5,-371 873.5,-371 873.5,-408 873.5,-408 873.5,-414 867.5,-420 861.5,-420 861.5,-420 754.5,-420 754.5,-420 748.5,-420 742.5,-414 742.5,-408 742.5,-408 742.5,-371 742.5,-371 742.5,-365 748.5,-359 754.5,-359"/>
<text text-anchor="middle" x="808" y="-404.8" font-family="Times,serif" font-size="14.00" fill="#2f3638">notify</text>
<polyline fill="none" stroke="#1c2123" points="742.5,-397 873.5,-397 "/>
<text text-anchor="start" x="750.5" y="-381.8" font-family="Times,serif" font-size="14.00" fill="#2f3638">1.取消delay timeout</text>
<text text-anchor="start" x="750.5" y="-366.8" font-family="Times,serif" font-size="14.00" fill="#2f3638"> 2.调用回调</text>
</g>
<!-- cb_execute -->
<g id="node5" class="node">
<title>cb_execute</title>
<path fill="none" stroke="#1c2123" d="M1239,-261.5C1239,-261.5 1361,-261.5 1361,-261.5 1367,-261.5 1373,-267.5 1373,-273.5 1373,-273.5 1373,-295.5 1373,-295.5 1373,-301.5 1367,-307.5 1361,-307.5 1361,-307.5 1239,-307.5 1239,-307.5 1233,-307.5 1227,-301.5 1227,-295.5 1227,-295.5 1227,-273.5 1227,-273.5 1227,-267.5 1233,-261.5 1239,-261.5"/>
<text text-anchor="middle" x="1300" y="-292.3" font-family="Times,serif" font-size="14.00" fill="#2f3638">cb.execute(self.pr)</text>
<polyline fill="none" stroke="#1c2123" points="1227,-284.5 1373,-284.5 "/>
<text text-anchor="start" x="1235" y="-269.3" font-family="Times,serif" font-size="14.00" fill="#2f3638">pr为WriteConflict error</text>
</g>
<!-- notify&#45;&gt;cb_execute -->
<g id="edge1" class="edge">
<title>notify&#45;&gt;cb_execute</title>
<path fill="none" stroke="#666666" d="M873.56,-375.67C961.79,-356.76 1120.06,-322.84 1216.7,-302.14"/>
<polygon fill="#666666" stroke="#666666" points="1217.68,-305.51 1226.72,-299.99 1216.21,-298.66 1217.68,-305.51"/>
</g>
<!-- delay_cancel -->
<g id="node6" class="node">
<title>delay_cancel</title>
<path fill="none" stroke="#1c2123" d="M1041.5,-407.5C1041.5,-407.5 978.5,-407.5 978.5,-407.5 972.5,-407.5 966.5,-401.5 966.5,-395.5 966.5,-395.5 966.5,-383.5 966.5,-383.5 966.5,-377.5 972.5,-371.5 978.5,-371.5 978.5,-371.5 1041.5,-371.5 1041.5,-371.5 1047.5,-371.5 1053.5,-377.5 1053.5,-383.5 1053.5,-383.5 1053.5,-395.5 1053.5,-395.5 1053.5,-401.5 1047.5,-407.5 1041.5,-407.5"/>
<text text-anchor="middle" x="1010" y="-385.8" font-family="Times,serif" font-size="14.00" fill="#2f3638">delay_cancel</text>
</g>
<!-- notify&#45;&gt;delay_cancel -->
<g id="edge2" class="edge">
<title>notify&#45;&gt;delay_cancel</title>
<path fill="none" stroke="#666666" d="M873.66,-389.5C900.34,-389.5 930.87,-389.5 956.18,-389.5"/>
<polygon fill="#666666" stroke="#666666" points="956.32,-393 966.32,-389.5 956.32,-386 956.32,-393"/>
</g>
<!-- remove -->
<g id="node4" class="node">
<title>remove</title>
<path fill="none" stroke="#1c2123" d="M741.5,-279C741.5,-279 874.5,-279 874.5,-279 880.5,-279 886.5,-285 886.5,-291 886.5,-291 886.5,-328 886.5,-328 886.5,-334 880.5,-340 874.5,-340 874.5,-340 741.5,-340 741.5,-340 735.5,-340 729.5,-334 729.5,-328 729.5,-328 729.5,-291 729.5,-291 729.5,-285 735.5,-279 741.5,-279"/>
<text text-anchor="middle" x="808" y="-324.8" font-family="Times,serif" font-size="14.00" fill="#2f3638">remove</text>
<polyline fill="none" stroke="#1c2123" points="729.5,-317 886.5,-317 "/>
<text text-anchor="start" x="737.5" y="-301.8" font-family="Times,serif" font-size="14.00" fill="#2f3638">如果others为空</text>
<text text-anchor="middle" x="808" y="-286.8" font-family="Times,serif" font-size="14.00" fill="#2f3638"> 删掉wait_table中的lock</text>
</g>
<!-- WriteConflict&#45;&gt;cb_execute -->
<g id="edge3" class="edge">
<title>WriteConflict&#45;&gt;cb_execute</title>
<path fill="none" stroke="green" stroke-dasharray="5,2" d="M1191.02,-271.75C1199.2,-272.72 1207.96,-273.75 1216.84,-274.8"/>
<polygon fill="green" stroke="green" points="1216.54,-278.29 1226.88,-275.99 1217.36,-271.34 1216.54,-278.29"/>
</g>
<!-- extract_key_info&#45;&gt;WriteConflict -->
<g id="edge6" class="edge">
<title>extract_key_info&#45;&gt;WriteConflict</title>
<path fill="none" stroke="green" stroke-dasharray="5,2" d="M1064.15,-266.5C1072.52,-266.5 1081.19,-266.5 1089.61,-266.5"/>
<polygon fill="green" stroke="green" points="1089.7,-270 1099.7,-266.5 1089.7,-263 1089.7,-270"/>
</g>
<!-- WaiterManager_run -->
<g id="node9" class="node">
<title>WaiterManager_run</title>
<path fill="none" stroke="#1c2123" d="M12,-201.5C12,-201.5 90,-201.5 90,-201.5 96,-201.5 102,-207.5 102,-213.5 102,-213.5 102,-235.5 102,-235.5 102,-241.5 96,-247.5 90,-247.5 90,-247.5 12,-247.5 12,-247.5 6,-247.5 0,-241.5 0,-235.5 0,-235.5 0,-213.5 0,-213.5 0,-207.5 6,-201.5 12,-201.5"/>
<text text-anchor="start" x="8" y="-232.3" font-family="Times,serif" font-size="14.00" fill="#2f3638">WaiterManager</text>
<polyline fill="none" stroke="#1c2123" points="0,-224.5 102,-224.5 "/>
<text text-anchor="start" x="8" y="-209.3" font-family="Times,serif" font-size="14.00" fill="#2f3638">run</text>
</g>
<!-- WaiterManager_handle_wake_up -->
<g id="node10" class="node">
<title>WaiterManager_handle_wake_up</title>
<path fill="none" stroke="#1c2123" d="M150,-201.5C150,-201.5 234,-201.5 234,-201.5 240,-201.5 246,-207.5 246,-213.5 246,-213.5 246,-235.5 246,-235.5 246,-241.5 240,-247.5 234,-247.5 234,-247.5 150,-247.5 150,-247.5 144,-247.5 138,-241.5 138,-235.5 138,-235.5 138,-213.5 138,-213.5 138,-207.5 144,-201.5 150,-201.5"/>
<text text-anchor="start" x="146" y="-232.3" font-family="Times,serif" font-size="14.00" fill="#2f3638">WaiterManager</text>
<polyline fill="none" stroke="#1c2123" points="138,-224.5 246,-224.5 "/>
<text text-anchor="start" x="146" y="-209.3" font-family="Times,serif" font-size="14.00" fill="#2f3638">handle_wake_up</text>
</g>
<!-- WaiterManager_run&#45;&gt;WaiterManager_handle_wake_up -->
<g id="edge15" class="edge">
<title>WaiterManager_run&#45;&gt;WaiterManager_handle_wake_up</title>
<path fill="none" stroke="#666666" d="M102.18,-224.5C110.36,-224.5 118.93,-224.5 127.39,-224.5"/>
<polygon fill="#666666" stroke="#666666" points="127.61,-228 137.61,-224.5 127.61,-221 127.61,-228"/>
</g>
<!-- WaiterManager_handle_wake_up&#45;&gt;remove_oldest_waiter -->
<g id="edge16" class="edge">
<title>WaiterManager_handle_wake_up&#45;&gt;remove_oldest_waiter</title>
<path fill="none" stroke="#666666" d="M246.37,-224.5C254.39,-224.5 262.88,-224.5 271.51,-224.5"/>
<polygon fill="#666666" stroke="#666666" points="271.69,-228 281.69,-224.5 271.69,-221 271.69,-228"/>
</g>
<!-- WaiterManager_handle_wake_up&#45;&gt;conflict_with -->
<g id="edge17" class="edge">
<title>WaiterManager_handle_wake_up&#45;&gt;conflict_with</title>
<path fill="none" stroke="#666666" d="M210.42,-247.51C225.17,-264.93 248.02,-287.52 274,-297.5 434.8,-359.27 491.28,-297.22 660,-262.5 678.24,-258.75 697.71,-254.53 716.31,-250.39"/>
<polygon fill="#666666" stroke="#666666" points="717.24,-253.77 726.24,-248.18 715.72,-246.94 717.24,-253.77"/>
</g>
<!-- WaiterManager_handle_wake_up&#45;&gt;notify -->
<g id="edge18" class="edge">
<title>WaiterManager_handle_wake_up&#45;&gt;notify</title>
<path fill="none" stroke="#666666" d="M199.52,-247.54C209.72,-278.8 232.68,-333.58 274,-358.5 417.17,-444.83 623.19,-424.9 732.41,-405.59"/>
<polygon fill="#666666" stroke="#666666" points="733.14,-409.01 742.36,-403.78 731.89,-402.12 733.14,-409.01"/>
</g>
<!-- WaiterManager_handle_wake_up&#45;&gt;remove -->
<g id="edge19" class="edge">
<title>WaiterManager_handle_wake_up&#45;&gt;remove</title>
<path fill="none" stroke="#666666" d="M204.05,-247.85C216.99,-272.12 240.93,-308.73 274,-324.5 417.97,-393.16 609.59,-362.6 719.5,-335.28"/>
<polygon fill="#666666" stroke="#666666" points="720.39,-338.67 729.22,-332.82 718.67,-331.88 720.39,-338.67"/>
</g>
<!-- reset_timeout -->
<g id="node13" class="node">
<title>reset_timeout</title>
<path fill="none" stroke="#1c2123" d="M708,-0.5C708,-0.5 908,-0.5 908,-0.5 914,-0.5 920,-6.5 920,-12.5 920,-12.5 920,-102.5 920,-102.5 920,-108.5 914,-114.5 908,-114.5 908,-114.5 708,-114.5 708,-114.5 702,-114.5 696,-108.5 696,-102.5 696,-102.5 696,-12.5 696,-12.5 696,-6.5 702,-0.5 708,-0.5"/>
<text text-anchor="middle" x="808" y="-99.3" font-family="Times,serif" font-size="14.00" fill="#2f3638">reset_timeout</text>
<polyline fill="none" stroke="#1c2123" points="696,-91.5 920,-91.5 "/>
<text text-anchor="start" x="704" y="-76.3" font-family="Times,serif" font-size="14.00" fill="#2f3638">重置其他事务的timeout</text>
<text text-anchor="start" x="704" y="-61.3" font-family="Times,serif" font-size="14.00" fill="#2f3638"> 等待now + wake_up_delay_duration</text>
<polyline fill="none" stroke="#1c2123" points="696,-53.5 920,-53.5 "/>
<text text-anchor="start" x="704" y="-38.3" font-family="Times,serif" font-size="14.00" fill="#2f3638">这样old事务会先通知到先尝试</text>
<text text-anchor="start" x="704" y="-23.3" font-family="Times,serif" font-size="14.00" fill="#2f3638"> 其他事务wake_up_delay_duration</text>
<text text-anchor="start" x="704" y="-8.3" font-family="Times,serif" font-size="14.00" fill="#2f3638"> 后才会被通知到</text>
</g>
<!-- WaiterManager_handle_wake_up&#45;&gt;reset_timeout -->
<g id="edge20" class="edge">
<title>WaiterManager_handle_wake_up&#45;&gt;reset_timeout</title>
<path fill="none" stroke="#666666" d="M200.55,-201.39C211.55,-171.85 235.03,-121.76 274,-98.5 399.13,-23.82 571.26,-25.32 685.68,-37.65"/>
<polygon fill="#666666" stroke="#666666" points="685.55,-41.16 695.88,-38.79 686.33,-34.2 685.55,-41.16"/>
</g>
<!-- wake_up_delay_duration -->
<g id="node14" class="node">
<title>wake_up_delay_duration</title>
<path fill="none" stroke="#1c2123" d="M309,-128.5C309,-128.5 438,-128.5 438,-128.5 444,-128.5 450,-134.5 450,-140.5 450,-140.5 450,-162.5 450,-162.5 450,-168.5 444,-174.5 438,-174.5 438,-174.5 309,-174.5 309,-174.5 303,-174.5 297,-168.5 297,-162.5 297,-162.5 297,-140.5 297,-140.5 297,-134.5 303,-128.5 309,-128.5"/>
<text text-anchor="middle" x="373.5" y="-159.3" font-family="Times,serif" font-size="14.00" fill="#2f3638">wake_up_delay_duration</text>
<polyline fill="none" stroke="#1c2123" points="297,-151.5 450,-151.5 "/>
<text text-anchor="middle" x="373.5" y="-136.3" font-family="Times,serif" font-size="14.00" fill="#2f3638">从配置获得</text>
</g>
<!-- WaiterManager_handle_wake_up&#45;&gt;wake_up_delay_duration -->
<g id="edge21" class="edge">
<title>WaiterManager_handle_wake_up&#45;&gt;wake_up_delay_duration</title>
<path fill="none" stroke="#666666" d="M233.05,-201.28C245.88,-194.38 260.32,-187.15 274,-181.5 278.37,-179.7 282.88,-177.95 287.46,-176.26"/>
<polygon fill="#666666" stroke="#666666" points="288.7,-179.53 296.95,-172.88 286.35,-172.94 288.7,-179.53"/>
</g>
<!-- deadlock_clean_up_wait_for -->
<g id="node15" class="node">
<title>deadlock_clean_up_wait_for</title>
<path fill="none" stroke="#1c2123" d="M761,-133.5C761,-133.5 855,-133.5 855,-133.5 861,-133.5 867,-139.5 867,-145.5 867,-145.5 867,-167.5 867,-167.5 867,-173.5 861,-179.5 855,-179.5 855,-179.5 761,-179.5 761,-179.5 755,-179.5 749,-173.5 749,-167.5 749,-167.5 749,-145.5 749,-145.5 749,-139.5 755,-133.5 761,-133.5"/>
<text text-anchor="start" x="757" y="-164.3" font-family="Times,serif" font-size="14.00" fill="#2f3638">deadlock</text>
<polyline fill="none" stroke="#1c2123" points="749,-156.5 867,-156.5 "/>
<text text-anchor="start" x="757" y="-141.3" font-family="Times,serif" font-size="14.00" fill="#2f3638">clean_up_wait_for</text>
</g>
<!-- WaiterManager_handle_wake_up&#45;&gt;deadlock_clean_up_wait_for -->
<g id="edge22" class="edge">
<title>WaiterManager_handle_wake_up&#45;&gt;deadlock_clean_up_wait_for</title>
<path fill="none" stroke="#666666" d="M202.99,-201.19C215.42,-175.53 239.33,-135.64 274,-118.5 353.86,-79.02 613.86,-120.16 738.78,-143.18"/>
<polygon fill="#666666" stroke="#666666" points="738.16,-146.62 748.63,-145.01 739.44,-139.74 738.16,-146.62"/>
</g>
<!-- old&#45;&gt;conflict_with -->
<g id="edge9" class="edge">
<title>old&#45;&gt;conflict_with</title>
<path fill="none" stroke="green" stroke-dasharray="5,2" d="M651.31,-229.5C671.85,-229.5 694.63,-229.5 716.29,-229.5"/>
<polygon fill="green" stroke="green" points="716.48,-233 726.48,-229.5 716.48,-226 716.48,-233"/>
</g>
<!-- old&#45;&gt;notify -->
<g id="edge10" class="edge">
<title>old&#45;&gt;notify</title>
<path fill="none" stroke="green" stroke-dasharray="5,2" d="M598.42,-252.93C618.82,-279.67 655.47,-323.1 696,-349.5 707.33,-356.88 720.19,-363.11 733.04,-368.3"/>
<polygon fill="green" stroke="green" points="731.79,-371.56 742.38,-371.89 734.3,-365.03 731.79,-371.56"/>
</g>
<!-- old&#45;&gt;deadlock_clean_up_wait_for -->
<g id="edge23" class="edge">
<title>old&#45;&gt;deadlock_clean_up_wait_for</title>
<path fill="none" stroke="green" stroke-dasharray="5,2" d="M639.67,-206.43C657.61,-199.65 677.51,-192.46 696,-186.5 709.82,-182.05 724.74,-177.71 739.03,-173.77"/>
<polygon fill="green" stroke="green" points="740.07,-177.11 748.8,-171.11 738.23,-170.36 740.07,-177.11"/>
</g>
<!-- others&#45;&gt;conflict_with -->
<g id="edge11" class="edge">
<title>others&#45;&gt;conflict_with</title>
<path fill="none" stroke="green" stroke-dasharray="5,2" d="M660.05,-187.14C678.34,-192.42 697.96,-198.07 716.72,-203.48"/>
<polygon fill="green" stroke="green" points="715.86,-206.87 726.44,-206.28 717.8,-200.14 715.86,-206.87"/>
</g>
<!-- others&#45;&gt;remove -->
<g id="edge12" class="edge">
<title>others&#45;&gt;remove</title>
<path fill="none" stroke="green" stroke-dasharray="5,2" d="M647.17,-187.67C651.77,-190.6 656.12,-193.86 660,-197.5 686.12,-221.95 669.26,-245.73 696,-269.5 703.16,-275.86 711.41,-281.23 720.11,-285.77"/>
<polygon fill="green" stroke="green" points="718.78,-289.01 729.31,-290.19 721.81,-282.7 718.78,-289.01"/>
</g>
<!-- others&#45;&gt;reset_timeout -->
<g id="edge13" class="edge">
<title>others&#45;&gt;reset_timeout</title>
<path fill="none" stroke="green" stroke-dasharray="5,2" d="M630.15,-141.41C646.99,-133.42 666.69,-124.08 686.71,-114.58"/>
<polygon fill="green" stroke="green" points="688.39,-117.66 695.92,-110.21 685.39,-111.33 688.39,-117.66"/>
</g>
<!-- wake_up_delay_duration&#45;&gt;others -->
<g id="edge14" class="edge">
<title>wake_up_delay_duration&#45;&gt;others</title>
<path fill="none" stroke="#666666" d="M450.25,-156.3C463.43,-157.14 477.24,-158.02 490.73,-158.87"/>
<polygon fill="#666666" stroke="#666666" points="490.77,-162.38 500.97,-159.52 491.21,-155.39 490.77,-162.38"/>
</g>
</g>
</svg>
