<?xml version="1.0" encoding="UTF-8" standalone="no"?>
<!DOCTYPE svg PUBLIC "-//W3C//DTD SVG 1.1//EN"
 "http://www.w3.org/Graphics/SVG/1.1/DTD/svg11.dtd">
<!-- Generated by graphviz version 2.47.0 (20210316.0004)
 -->
<!-- Title: single_level_local_queue Pages: 1 -->
<svg width="1158pt" height="178pt"
 viewBox="0.00 0.00 1158.00 177.50" xmlns="http://www.w3.org/2000/svg" xmlns:xlink="http://www.w3.org/1999/xlink">
<g id="graph0" class="graph" transform="scale(1 1) rotate(0) translate(4 173.5)">
<title>single_level_local_queue</title>
<polygon fill="white" stroke="transparent" points="-4,4 -4,-173.5 1154,-173.5 1154,4 -4,4"/>
<!-- WorkerThread -->
<g id="node1" class="node">
<title>WorkerThread</title>
<path fill="none" stroke="#1c2123" d="M12,-56C12,-56 98,-56 98,-56 104,-56 110,-62 110,-68 110,-68 110,-113 110,-113 110,-119 104,-125 98,-125 98,-125 12,-125 12,-125 6,-125 0,-119 0,-113 0,-113 0,-68 0,-68 0,-62 6,-56 12,-56"/>
<text text-anchor="middle" x="55" y="-109.8" font-family="Times,serif" font-size="14.00" fill="#2f3638">WorkerThread</text>
<polyline fill="none" stroke="#1c2123" points="0,-102 110,-102 "/>
<text text-anchor="start" x="8" y="-86.8" font-family="Times,serif" font-size="14.00" fill="#2f3638">local: Local&lt;T&gt;,</text>
<polyline fill="none" stroke="#1c2123" points="0,-79 110,-79 "/>
<text text-anchor="middle" x="55" y="-63.8" font-family="Times,serif" font-size="14.00" fill="#2f3638">runner: R,</text>
</g>
<!-- Local -->
<g id="node2" class="node">
<title>Local</title>
<path fill="none" stroke="#1c2123" d="M158,-44.5C158,-44.5 318,-44.5 318,-44.5 324,-44.5 330,-50.5 330,-56.5 330,-56.5 330,-124.5 330,-124.5 330,-130.5 324,-136.5 318,-136.5 318,-136.5 158,-136.5 158,-136.5 152,-136.5 146,-130.5 146,-124.5 146,-124.5 146,-56.5 146,-56.5 146,-50.5 152,-44.5 158,-44.5"/>
<text text-anchor="middle" x="238" y="-121.3" font-family="Times,serif" font-size="14.00" fill="#2f3638">Local</text>
<polyline fill="none" stroke="#1c2123" points="146,-113.5 330,-113.5 "/>
<text text-anchor="start" x="154" y="-98.3" font-family="Times,serif" font-size="14.00" fill="#2f3638">id: usize,</text>
<polyline fill="none" stroke="#1c2123" points="146,-90.5 330,-90.5 "/>
<text text-anchor="start" x="154" y="-75.3" font-family="Times,serif" font-size="14.00" fill="#2f3638">local_queue: LocalQueue&lt;T&gt;,</text>
<polyline fill="none" stroke="#1c2123" points="146,-67.5 330,-67.5 "/>
<text text-anchor="start" x="154" y="-52.3" font-family="Times,serif" font-size="14.00" fill="#2f3638">core: Arc&lt;QueueCore&lt;T&gt;&gt;,</text>
</g>
<!-- WorkerThread&#45;&gt;Local -->
<g id="edge1" class="edge">
<title>WorkerThread&#45;&gt;Local</title>
<path fill="none" stroke="#666666" d="M110.31,-90.5C118.39,-90.5 126.93,-90.5 135.61,-90.5"/>
<polygon fill="#666666" stroke="#666666" points="135.85,-94 145.85,-90.5 135.85,-87 135.85,-94"/>
</g>
<!-- LocalQueue -->
<g id="node3" class="node">
<title>LocalQueue</title>
<path fill="none" stroke="#1c2123" d="M407,-111.5C407,-111.5 519,-111.5 519,-111.5 525,-111.5 531,-117.5 531,-123.5 531,-123.5 531,-145.5 531,-145.5 531,-151.5 525,-157.5 519,-157.5 519,-157.5 407,-157.5 407,-157.5 401,-157.5 395,-151.5 395,-145.5 395,-145.5 395,-123.5 395,-123.5 395,-117.5 401,-111.5 407,-111.5"/>
<text text-anchor="middle" x="463" y="-142.3" font-family="Times,serif" font-size="14.00" fill="#2f3638">LocalQueue</text>
<polyline fill="none" stroke="#1c2123" points="395,-134.5 531,-134.5 "/>
<text text-anchor="start" x="403" y="-119.3" font-family="Times,serif" font-size="14.00" fill="#2f3638">LocalQueueInner&lt;T&gt;</text>
</g>
<!-- Local&#45;&gt;LocalQueue -->
<g id="edge2" class="edge">
<title>Local&#45;&gt;LocalQueue</title>
<path fill="none" stroke="#666666" d="M330.02,-108.46C348.15,-112.04 367.01,-115.76 384.63,-119.23"/>
<polygon fill="#666666" stroke="#666666" points="384.35,-122.75 394.84,-121.25 385.7,-115.88 384.35,-122.75"/>
</g>
<!-- QueueCore -->
<g id="node4" class="node">
<title>QueueCore</title>
<path fill="none" stroke="#1c2123" d="M378,-0.5C378,-0.5 548,-0.5 548,-0.5 554,-0.5 560,-6.5 560,-12.5 560,-12.5 560,-80.5 560,-80.5 560,-86.5 554,-92.5 548,-92.5 548,-92.5 378,-92.5 378,-92.5 372,-92.5 366,-86.5 366,-80.5 366,-80.5 366,-12.5 366,-12.5 366,-6.5 372,-0.5 378,-0.5"/>
<text text-anchor="middle" x="463" y="-77.3" font-family="Times,serif" font-size="14.00" fill="#2f3638">QueueCore</text>
<polyline fill="none" stroke="#1c2123" points="366,-69.5 560,-69.5 "/>
<text text-anchor="start" x="374" y="-54.3" font-family="Times,serif" font-size="14.00" fill="#2f3638">global_queue: TaskInjector&lt;T&gt;,</text>
<polyline fill="none" stroke="#1c2123" points="366,-46.5 560,-46.5 "/>
<text text-anchor="start" x="374" y="-31.3" font-family="Times,serif" font-size="14.00" fill="#2f3638">active_workers: AtomicUsize,</text>
<polyline fill="none" stroke="#1c2123" points="366,-23.5 560,-23.5 "/>
<text text-anchor="start" x="374" y="-8.3" font-family="Times,serif" font-size="14.00" fill="#2f3638">config: SchedConfig,</text>
</g>
<!-- Local&#45;&gt;QueueCore -->
<g id="edge3" class="edge">
<title>Local&#45;&gt;QueueCore</title>
<path fill="none" stroke="#666666" d="M330.02,-72.54C338.51,-70.87 347.15,-69.16 355.76,-67.46"/>
<polygon fill="#666666" stroke="#666666" points="356.7,-70.85 365.83,-65.48 355.34,-63.98 356.7,-70.85"/>
</g>
<!-- LocalQueueInner -->
<g id="node5" class="node">
<title>LocalQueueInner</title>
<path fill="none" stroke="#1c2123" d="M608,-100C608,-100 842,-100 842,-100 848,-100 854,-106 854,-112 854,-112 854,-157 854,-157 854,-163 848,-169 842,-169 842,-169 608,-169 608,-169 602,-169 596,-163 596,-157 596,-157 596,-112 596,-112 596,-106 602,-100 608,-100"/>
<text text-anchor="middle" x="725" y="-153.8" font-family="Times,serif" font-size="14.00" fill="#2f3638">LocalQueueInner</text>
<polyline fill="none" stroke="#1c2123" points="596,-146 854,-146 "/>
<text text-anchor="start" x="604" y="-130.8" font-family="Times,serif" font-size="14.00" fill="#2f3638">SingleLevel(single_level::LocalQueue&lt;T&gt;),</text>
<polyline fill="none" stroke="#1c2123" points="596,-123 854,-123 "/>
<text text-anchor="start" x="604" y="-107.8" font-family="Times,serif" font-size="14.00" fill="#2f3638">Multilevel(multilevel::LocalQueue&lt;T&gt;),</text>
</g>
<!-- LocalQueue&#45;&gt;LocalQueueInner -->
<g id="edge4" class="edge">
<title>LocalQueue&#45;&gt;LocalQueueInner</title>
<path fill="none" stroke="#666666" d="M531.29,-134.5C548.13,-134.5 566.81,-134.5 585.73,-134.5"/>
<polygon fill="#666666" stroke="#666666" points="585.94,-138 595.94,-134.5 585.94,-131 585.94,-138"/>
</g>
<!-- TaskInjector -->
<g id="node6" class="node">
<title>TaskInjector</title>
<path fill="none" stroke="#1c2123" d="M681,-23.5C681,-23.5 769,-23.5 769,-23.5 775,-23.5 781,-29.5 781,-35.5 781,-35.5 781,-57.5 781,-57.5 781,-63.5 775,-69.5 769,-69.5 769,-69.5 681,-69.5 681,-69.5 675,-69.5 669,-63.5 669,-57.5 669,-57.5 669,-35.5 669,-35.5 669,-29.5 675,-23.5 681,-23.5"/>
<text text-anchor="middle" x="725" y="-54.3" font-family="Times,serif" font-size="14.00" fill="#2f3638">TaskInjector</text>
<polyline fill="none" stroke="#1c2123" points="669,-46.5 781,-46.5 "/>
<text text-anchor="start" x="677" y="-31.3" font-family="Times,serif" font-size="14.00" fill="#2f3638">InjectorInner&lt;T&gt;</text>
</g>
<!-- QueueCore&#45;&gt;TaskInjector -->
<g id="edge6" class="edge">
<title>QueueCore&#45;&gt;TaskInjector</title>
<path fill="none" stroke="#666666" d="M560.08,-46.5C592.81,-46.5 628.64,-46.5 658.42,-46.5"/>
<polygon fill="#666666" stroke="#666666" points="658.69,-50 668.69,-46.5 658.69,-43 658.69,-50"/>
</g>
<!-- InjectorInner -->
<g id="node7" class="node">
<title>InjectorInner</title>
<path fill="none" stroke="#1c2123" d="M902,-12C902,-12 1138,-12 1138,-12 1144,-12 1150,-18 1150,-24 1150,-24 1150,-69 1150,-69 1150,-75 1144,-81 1138,-81 1138,-81 902,-81 902,-81 896,-81 890,-75 890,-69 890,-69 890,-24 890,-24 890,-18 896,-12 902,-12"/>
<text text-anchor="middle" x="1020" y="-65.8" font-family="Times,serif" font-size="14.00" fill="#2f3638">InjectorInner</text>
<polyline fill="none" stroke="#1c2123" points="890,-58 1150,-58 "/>
<text text-anchor="start" x="898" y="-42.8" font-family="Times,serif" font-size="14.00" fill="#2f3638">SingleLevel(single_level::TaskInjector&lt;T&gt;),</text>
<polyline fill="none" stroke="#1c2123" points="890,-35 1150,-35 "/>
<text text-anchor="start" x="898" y="-19.8" font-family="Times,serif" font-size="14.00" fill="#2f3638">Multilevel(multilevel::TaskInjector&lt;T&gt;),</text>
</g>
<!-- TaskInjector&#45;&gt;InjectorInner -->
<g id="edge5" class="edge">
<title>TaskInjector&#45;&gt;InjectorInner</title>
<path fill="none" stroke="#666666" d="M781.11,-46.5C809.17,-46.5 844.69,-46.5 879.65,-46.5"/>
<polygon fill="#666666" stroke="#666666" points="879.99,-50 889.99,-46.5 879.99,-43 879.99,-50"/>
</g>
</g>
</svg>
