<?xml version="1.0" encoding="UTF-8" standalone="no"?>
<!DOCTYPE svg PUBLIC "-//W3C//DTD SVG 1.1//EN"
 "http://www.w3.org/Graphics/SVG/1.1/DTD/svg11.dtd">
<!-- Generated by graphviz version 2.40.1 (20161225.0304)
 -->
<!-- Title: physical_toPB Pages: 1 -->
<svg width="238pt" height="368pt"
 viewBox="0.00 0.00 237.74 368.00" xmlns="http://www.w3.org/2000/svg" xmlns:xlink="http://www.w3.org/1999/xlink">
<g id="graph0" class="graph" transform="scale(1 1) rotate(0) translate(4 364)">
<title>physical_toPB</title>
<polygon fill="#ffffff" stroke="transparent" points="-4,4 -4,-364 233.7383,-364 233.7383,4 -4,4"/>
<!-- PhysicalTableScan -->
<g id="node1" class="node">
<title>PhysicalTableScan</title>
<polygon fill="none" stroke="#000000" points="124.1512,-360 3.0558,-360 3.0558,-324 124.1512,-324 124.1512,-360"/>
<text text-anchor="middle" x="63.6035" y="-337.8" font-family="Times,serif" font-size="14.00" fill="#000000">PhysicalTableScan</text>
</g>
<!-- Executor -->
<g id="node8" class="node">
<title>Executor</title>
<polygon fill="none" stroke="#000000" points="229.5055,-198 163.4398,-198 163.4398,-162 229.5055,-162 229.5055,-198"/>
<text text-anchor="middle" x="196.4727" y="-175.8" font-family="Times,serif" font-size="14.00" fill="#000000">Executor</text>
</g>
<!-- PhysicalTableScan&#45;&gt;Executor -->
<g id="edge1" class="edge">
<title>PhysicalTableScan&#45;&gt;Executor</title>
<path fill="none" stroke="#000000" d="M115.214,-323.943C119.5258,-321.3183 123.6053,-318.3493 127.207,-315 158.9583,-285.4742 178.5138,-238.1093 188.4307,-208.0498"/>
<polygon fill="#000000" stroke="#000000" points="191.8683,-208.7864 191.5406,-198.1966 185.193,-206.6794 191.8683,-208.7864"/>
</g>
<!-- PhysicalIndexScan -->
<g id="node2" class="node">
<title>PhysicalIndexScan</title>
<polygon fill="none" stroke="#000000" points="124.6357,-306 2.5714,-306 2.5714,-270 124.6357,-270 124.6357,-306"/>
<text text-anchor="middle" x="63.6035" y="-283.8" font-family="Times,serif" font-size="14.00" fill="#000000">PhysicalIndexScan</text>
</g>
<!-- PhysicalIndexScan&#45;&gt;Executor -->
<g id="edge2" class="edge">
<title>PhysicalIndexScan&#45;&gt;Executor</title>
<path fill="none" stroke="#000000" d="M112.7987,-269.8864C117.8509,-267.2229 122.756,-264.2617 127.207,-261 147.5421,-246.0988 165.852,-224.1147 178.5322,-206.8082"/>
<polygon fill="#000000" stroke="#000000" points="181.6797,-208.4222 184.6308,-198.2467 175.9783,-204.3609 181.6797,-208.4222"/>
</g>
<!-- PhysicalSelection -->
<g id="node3" class="node">
<title>PhysicalSelection</title>
<polygon fill="none" stroke="#000000" points="121.1425,-252 6.0645,-252 6.0645,-216 121.1425,-216 121.1425,-252"/>
<text text-anchor="middle" x="63.6035" y="-229.8" font-family="Times,serif" font-size="14.00" fill="#000000">PhysicalSelection</text>
</g>
<!-- PhysicalSelection&#45;&gt;Executor -->
<g id="edge3" class="edge">
<title>PhysicalSelection&#45;&gt;Executor</title>
<path fill="none" stroke="#000000" d="M108.2166,-215.8686C122.9354,-209.8866 139.2618,-203.2513 153.8297,-197.3307"/>
<polygon fill="#000000" stroke="#000000" points="155.168,-200.5649 163.1143,-193.5573 152.5324,-194.08 155.168,-200.5649"/>
</g>
<!-- PhysicalTopN -->
<g id="node4" class="node">
<title>PhysicalTopN</title>
<polygon fill="none" stroke="#000000" points="111.2296,-198 15.9775,-198 15.9775,-162 111.2296,-162 111.2296,-198"/>
<text text-anchor="middle" x="63.6035" y="-175.8" font-family="Times,serif" font-size="14.00" fill="#000000">PhysicalTopN</text>
</g>
<!-- PhysicalTopN&#45;&gt;Executor -->
<g id="edge4" class="edge">
<title>PhysicalTopN&#45;&gt;Executor</title>
<path fill="none" stroke="#000000" d="M111.197,-180C124.8285,-180 139.6138,-180 152.9851,-180"/>
<polygon fill="#000000" stroke="#000000" points="153.3564,-183.5001 163.3564,-180 153.3564,-176.5001 153.3564,-183.5001"/>
</g>
<!-- PhysicalLimit -->
<g id="node5" class="node">
<title>PhysicalLimit</title>
<polygon fill="none" stroke="#000000" points="110.6563,-144 16.5507,-144 16.5507,-108 110.6563,-108 110.6563,-144"/>
<text text-anchor="middle" x="63.6035" y="-121.8" font-family="Times,serif" font-size="14.00" fill="#000000">PhysicalLimit</text>
</g>
<!-- PhysicalLimit&#45;&gt;Executor -->
<g id="edge5" class="edge">
<title>PhysicalLimit&#45;&gt;Executor</title>
<path fill="none" stroke="#000000" d="M108.2166,-144.1314C122.9354,-150.1134 139.2618,-156.7487 153.8297,-162.6693"/>
<polygon fill="#000000" stroke="#000000" points="152.5324,-165.92 163.1143,-166.4427 155.168,-159.4351 152.5324,-165.92"/>
</g>
<!-- PhysicalHashAgg -->
<g id="node6" class="node">
<title>PhysicalHashAgg</title>
<polygon fill="none" stroke="#000000" points="121.9282,-90 5.2788,-90 5.2788,-54 121.9282,-54 121.9282,-90"/>
<text text-anchor="middle" x="63.6035" y="-67.8" font-family="Times,serif" font-size="14.00" fill="#000000">PhysicalHashAgg</text>
</g>
<!-- PhysicalHashAgg&#45;&gt;Executor -->
<g id="edge6" class="edge">
<title>PhysicalHashAgg&#45;&gt;Executor</title>
<path fill="none" stroke="#000000" d="M112.7987,-90.1136C117.8509,-92.7771 122.756,-95.7383 127.207,-99 147.5421,-113.9012 165.852,-135.8853 178.5322,-153.1918"/>
<polygon fill="#000000" stroke="#000000" points="175.9783,-155.6391 184.6308,-161.7533 181.6797,-151.5778 175.9783,-155.6391"/>
</g>
<!-- PhysicalStreamAgg -->
<g id="node7" class="node">
<title>PhysicalStreamAgg</title>
<polygon fill="none" stroke="#000000" points="127.3107,-36 -.1037,-36 -.1037,0 127.3107,0 127.3107,-36"/>
<text text-anchor="middle" x="63.6035" y="-13.8" font-family="Times,serif" font-size="14.00" fill="#000000">PhysicalStreamAgg</text>
</g>
<!-- PhysicalStreamAgg&#45;&gt;Executor -->
<g id="edge7" class="edge">
<title>PhysicalStreamAgg&#45;&gt;Executor</title>
<path fill="none" stroke="#000000" d="M115.214,-36.057C119.5258,-38.6817 123.6053,-41.6507 127.207,-45 158.9583,-74.5258 178.5138,-121.8907 188.4307,-151.9502"/>
<polygon fill="#000000" stroke="#000000" points="185.193,-153.3206 191.5406,-161.8034 191.8683,-151.2136 185.193,-153.3206"/>
</g>
</g>
</svg>
