<?xml version="1.0" encoding="UTF-8" standalone="no"?>
<!DOCTYPE svg PUBLIC "-//W3C//DTD SVG 1.1//EN"
 "http://www.w3.org/Graphics/SVG/1.1/DTD/svg11.dtd">
<!-- Generated by graphviz version 2.40.1 (20161225.0304)
 -->
<!-- Title: plan_struct Pages: 1 -->
<svg width="902pt" height="702pt"
 viewBox="0.00 0.00 902.00 702.00" xmlns="http://www.w3.org/2000/svg" xmlns:xlink="http://www.w3.org/1999/xlink">
<g id="graph0" class="graph" transform="scale(1 1) rotate(0) translate(4 698)">
<title>plan_struct</title>
<polygon fill="#ffffff" stroke="transparent" points="-4,4 -4,-698 898,-698 898,4 -4,4"/>
<g id="clust1" class="cluster">
<title>cluster_base</title>
<polygon fill="none" stroke="#000000" points="220,-298 220,-484 886,-484 886,-298 220,-298"/>
<text text-anchor="middle" x="553" y="-464" font-family="Times,serif" font-size="20.00" fill="#000000">base</text>
</g>
<g id="clust2" class="cluster">
<title>cluster_Join</title>
<polygon fill="none" stroke="#000000" points="20,-100 20,-290 373.5,-290 373.5,-100 20,-100"/>
<text text-anchor="middle" x="196.75" y="-270" font-family="Times,serif" font-size="20.00" fill="#000000">Join</text>
</g>
<g id="clust3" class="cluster">
<title>cluster_table</title>
<polygon fill="none" stroke="#000000" points="30.5,-550 30.5,-686 177.5,-686 177.5,-550 30.5,-550"/>
<text text-anchor="middle" x="104" y="-666" font-family="Times,serif" font-size="20.00" fill="#000000">table</text>
</g>
<g id="clust4" class="cluster">
<title>cluster_Index</title>
<polygon fill="none" stroke="#000000" points="8,-298 8,-542 200,-542 200,-298 8,-298"/>
<text text-anchor="middle" x="104" y="-522" font-family="Times,serif" font-size="20.00" fill="#000000">Index</text>
</g>
<!-- basePhysicalPlan -->
<g id="node1" class="node">
<title>basePhysicalPlan</title>
<polygon fill="none" stroke="#000000" points="418,-306.5 418,-421.5 693,-421.5 693,-306.5 418,-306.5"/>
<text text-anchor="middle" x="555.5" y="-406.3" font-family="Times,serif" font-size="14.00" fill="#000000">basePhysicalPlan</text>
<polyline fill="none" stroke="#000000" points="418,-398.5 693,-398.5 "/>
<text text-anchor="start" x="426" y="-383.3" font-family="Times,serif" font-size="14.00" fill="#000000">basePlan</text>
<polyline fill="none" stroke="#000000" points="418,-375.5 693,-375.5 "/>
<text text-anchor="start" x="426" y="-360.3" font-family="Times,serif" font-size="14.00" fill="#000000">childrenReqProps []*property.PhysicalProperty</text>
<polyline fill="none" stroke="#000000" points="418,-352.5 693,-352.5 "/>
<text text-anchor="start" x="426" y="-337.3" font-family="Times,serif" font-size="14.00" fill="#000000">self PhysicalPlan</text>
<polyline fill="none" stroke="#000000" points="418,-329.5 693,-329.5 "/>
<text text-anchor="start" x="426" y="-314.3" font-family="Times,serif" font-size="14.00" fill="#000000">children []PhysicalPlan</text>
</g>
<!-- basePlan -->
<g id="node2" class="node">
<title>basePlan</title>
<polygon fill="none" stroke="#000000" points="729,-307 729,-445 878,-445 878,-307 729,-307"/>
<text text-anchor="middle" x="803.5" y="-429.8" font-family="Times,serif" font-size="14.00" fill="#000000">basePlan</text>
<polyline fill="none" stroke="#000000" points="729,-422 878,-422 "/>
<text text-anchor="start" x="737" y="-406.8" font-family="Times,serif" font-size="14.00" fill="#000000">tp string</text>
<polyline fill="none" stroke="#000000" points="729,-399 878,-399 "/>
<text text-anchor="start" x="737" y="-383.8" font-family="Times,serif" font-size="14.00" fill="#000000">id int</text>
<polyline fill="none" stroke="#000000" points="729,-376 878,-376 "/>
<text text-anchor="start" x="737" y="-360.8" font-family="Times,serif" font-size="14.00" fill="#000000">ctx sessionctx.Context</text>
<polyline fill="none" stroke="#000000" points="729,-353 878,-353 "/>
<text text-anchor="start" x="737" y="-337.8" font-family="Times,serif" font-size="14.00" fill="#000000">stats *property.StatsInfo</text>
<polyline fill="none" stroke="#000000" points="729,-330 878,-330 "/>
<text text-anchor="start" x="737" y="-314.8" font-family="Times,serif" font-size="14.00" fill="#000000">blockOffset int</text>
</g>
<!-- basePhysicalPlan&#45;&gt;basePlan -->
<g id="edge15" class="edge">
<title>basePhysicalPlan:basePlan&#45;&gt;basePlan</title>
<path fill="none" stroke="#000000" d="M693,-387C701.314,-387 709.9626,-386.6878 718.5972,-386.1687"/>
<polygon fill="#000000" stroke="#000000" points="718.9711,-389.6513 728.7062,-385.4705 718.4888,-382.6679 718.9711,-389.6513"/>
</g>
<!-- physicalSchemaProducer -->
<g id="node3" class="node">
<title>physicalSchemaProducer</title>
<polygon fill="none" stroke="#000000" points="382,-446 228,-446 228,-410 382,-410 382,-446"/>
<text text-anchor="middle" x="305" y="-424.3" font-family="Times,serif" font-size="14.00" fill="#000000">physicalSchemaProducer</text>
</g>
<!-- physicalSchemaProducer&#45;&gt;basePhysicalPlan -->
<g id="edge14" class="edge">
<title>physicalSchemaProducer&#45;&gt;basePhysicalPlan</title>
<path fill="none" stroke="#000000" d="M375.7788,-409.9168C386.0736,-407.2866 396.9782,-404.5006 408.1242,-401.6529"/>
<polygon fill="#000000" stroke="#000000" points="409.1497,-405.0034 417.9721,-399.1369 407.4169,-398.2212 409.1497,-405.0034"/>
</g>
<!-- PhysicalIndexJoin -->
<g id="node4" class="node">
<title>PhysicalIndexJoin</title>
<polygon fill="none" stroke="#000000" points="363,-144 247,-144 247,-108 363,-108 363,-144"/>
<text text-anchor="middle" x="305" y="-122.3" font-family="Times,serif" font-size="14.00" fill="#000000">PhysicalIndexJoin</text>
</g>
<!-- PhysicalIndexJoin&#45;&gt;basePhysicalPlan -->
<g id="edge1" class="edge">
<title>PhysicalIndexJoin&#45;&gt;basePhysicalPlan</title>
<path fill="none" stroke="#000000" d="M363.0572,-142.4309C369.7189,-145.4404 376.1941,-148.9427 382,-153 436.8946,-191.3617 484.0195,-251.603 515.2435,-297.9138"/>
<polygon fill="#000000" stroke="#000000" points="512.4318,-300.0062 520.887,-306.3905 518.2586,-296.1269 512.4318,-300.0062"/>
</g>
<!-- PhysicalHashJoin -->
<g id="node5" class="node">
<title>PhysicalHashJoin</title>
<polygon fill="none" stroke="#000000" points="361.5,-252 248.5,-252 248.5,-216 361.5,-216 361.5,-252"/>
<text text-anchor="middle" x="305" y="-230.3" font-family="Times,serif" font-size="14.00" fill="#000000">PhysicalHashJoin</text>
</g>
<!-- PhysicalHashJoin&#45;&gt;basePhysicalPlan -->
<g id="edge2" class="edge">
<title>PhysicalHashJoin&#45;&gt;basePhysicalPlan</title>
<path fill="none" stroke="#000000" d="M339.831,-252.0759C364.9891,-265.1321 400.5689,-283.5967 435.5909,-301.7717"/>
<polygon fill="#000000" stroke="#000000" points="433.9879,-304.8831 444.4761,-306.3828 437.2124,-298.6699 433.9879,-304.8831"/>
</g>
<!-- PhysicalMergeJoin -->
<g id="node6" class="node">
<title>PhysicalMergeJoin</title>
<polygon fill="none" stroke="#000000" points="365.5,-198 244.5,-198 244.5,-162 365.5,-162 365.5,-198"/>
<text text-anchor="middle" x="305" y="-176.3" font-family="Times,serif" font-size="14.00" fill="#000000">PhysicalMergeJoin</text>
</g>
<!-- PhysicalMergeJoin&#45;&gt;basePhysicalPlan -->
<g id="edge3" class="edge">
<title>PhysicalMergeJoin&#45;&gt;basePhysicalPlan</title>
<path fill="none" stroke="#000000" d="M364.5315,-198.1513C370.5882,-200.7956 376.5205,-203.7423 382,-207 423.7013,-231.7925 464.2533,-267.621 495.6529,-298.7931"/>
<polygon fill="#000000" stroke="#000000" points="493.4869,-301.578 503.0241,-306.1924 498.446,-296.6377 493.4869,-301.578"/>
</g>
<!-- PhysicalIndexHashJoin -->
<g id="node7" class="node">
<title>PhysicalIndexHashJoin</title>
<polygon fill="none" stroke="#000000" points="175.5,-198 32.5,-198 32.5,-162 175.5,-162 175.5,-198"/>
<text text-anchor="middle" x="104" y="-176.3" font-family="Times,serif" font-size="14.00" fill="#000000">PhysicalIndexHashJoin</text>
</g>
<!-- PhysicalIndexHashJoin&#45;&gt;PhysicalIndexJoin -->
<g id="edge4" class="edge">
<title>PhysicalIndexHashJoin&#45;&gt;PhysicalIndexJoin</title>
<path fill="none" stroke="#000000" d="M171.2095,-161.9437C192.3918,-156.2529 215.7984,-149.9646 237.033,-144.2598"/>
<polygon fill="#000000" stroke="#000000" points="238.1916,-147.5727 246.941,-141.5979 236.3753,-140.8124 238.1916,-147.5727"/>
</g>
<!-- PhysicalIndexMergeJoin -->
<g id="node8" class="node">
<title>PhysicalIndexMergeJoin</title>
<polygon fill="none" stroke="#000000" points="180,-144 28,-144 28,-108 180,-108 180,-144"/>
<text text-anchor="middle" x="104" y="-122.3" font-family="Times,serif" font-size="14.00" fill="#000000">PhysicalIndexMergeJoin</text>
</g>
<!-- PhysicalIndexMergeJoin&#45;&gt;PhysicalIndexJoin -->
<g id="edge5" class="edge">
<title>PhysicalIndexMergeJoin&#45;&gt;PhysicalIndexJoin</title>
<path fill="none" stroke="#000000" d="M180.2761,-126C198.837,-126 218.5701,-126 236.7324,-126"/>
<polygon fill="#000000" stroke="#000000" points="236.9326,-129.5001 246.9326,-126 236.9325,-122.5001 236.9326,-129.5001"/>
</g>
<!-- PhysicalTableScan -->
<g id="node9" class="node">
<title>PhysicalTableScan</title>
<polygon fill="none" stroke="#000000" points="163.5,-648 44.5,-648 44.5,-612 163.5,-612 163.5,-648"/>
<text text-anchor="middle" x="104" y="-626.3" font-family="Times,serif" font-size="14.00" fill="#000000">PhysicalTableScan</text>
</g>
<!-- PhysicalTableScan&#45;&gt;physicalSchemaProducer -->
<g id="edge13" class="edge">
<title>PhysicalTableScan&#45;&gt;physicalSchemaProducer</title>
<path fill="none" stroke="#000000" d="M163.6304,-620.7273C176.4993,-616.7588 189.4056,-611.092 200,-603 250.2735,-564.6013 281.4959,-494.64 295.787,-455.8203"/>
<polygon fill="#000000" stroke="#000000" points="299.1539,-456.7988 299.2142,-446.2041 292.5601,-454.4488 299.1539,-456.7988"/>
</g>
<!-- PhysicalTableReader -->
<g id="node10" class="node">
<title>PhysicalTableReader</title>
<polygon fill="none" stroke="#000000" points="169.5,-594 38.5,-594 38.5,-558 169.5,-558 169.5,-594"/>
<text text-anchor="middle" x="104" y="-572.3" font-family="Times,serif" font-size="14.00" fill="#000000">PhysicalTableReader</text>
</g>
<!-- PhysicalTableReader&#45;&gt;physicalSchemaProducer -->
<g id="edge11" class="edge">
<title>PhysicalTableReader&#45;&gt;physicalSchemaProducer</title>
<path fill="none" stroke="#000000" d="M169.6606,-560.73C180.2506,-556.8132 190.7578,-551.9665 200,-546 237.0507,-522.0811 268.9878,-481.6465 287.6144,-454.8861"/>
<polygon fill="#000000" stroke="#000000" points="290.6723,-456.6139 293.4092,-446.3786 284.8869,-452.6732 290.6723,-456.6139"/>
</g>
<!-- PhysicalSelection -->
<g id="node11" class="node">
<title>PhysicalSelection</title>
<polygon fill="none" stroke="#000000" points="361.5,-90 248.5,-90 248.5,-54 361.5,-54 361.5,-90"/>
<text text-anchor="middle" x="305" y="-68.3" font-family="Times,serif" font-size="14.00" fill="#000000">PhysicalSelection</text>
</g>
<!-- PhysicalSelection&#45;&gt;basePhysicalPlan -->
<g id="edge12" class="edge">
<title>PhysicalSelection&#45;&gt;basePhysicalPlan</title>
<path fill="none" stroke="#000000" d="M361.5193,-84.5421C368.8126,-87.5811 375.8654,-91.3442 382,-96 450.8724,-148.2705 500.2314,-236.3481 528.2855,-297.187"/>
<polygon fill="#000000" stroke="#000000" points="525.1165,-298.6737 532.4372,-306.3326 531.4905,-295.7801 525.1165,-298.6737"/>
</g>
<!-- PhysicalIndexReader -->
<g id="node12" class="node">
<title>PhysicalIndexReader</title>
<polygon fill="none" stroke="#000000" points="169.5,-504 38.5,-504 38.5,-468 169.5,-468 169.5,-504"/>
<text text-anchor="middle" x="104" y="-482.3" font-family="Times,serif" font-size="14.00" fill="#000000">PhysicalIndexReader</text>
</g>
<!-- PhysicalIndexReader&#45;&gt;physicalSchemaProducer -->
<g id="edge10" class="edge">
<title>PhysicalIndexReader&#45;&gt;physicalSchemaProducer</title>
<path fill="none" stroke="#000000" d="M168.5815,-467.9598C179.0895,-464.989 189.852,-461.925 200,-459 211.272,-455.7511 223.2119,-452.2668 234.8425,-448.8496"/>
<polygon fill="#000000" stroke="#000000" points="235.9133,-452.183 244.518,-446.0016 233.9366,-445.4679 235.9133,-452.183"/>
</g>
<!-- PhysicalSort -->
<g id="node13" class="node">
<title>PhysicalSort</title>
<polygon fill="none" stroke="#000000" points="347.5,-36 262.5,-36 262.5,0 347.5,0 347.5,-36"/>
<text text-anchor="middle" x="305" y="-14.3" font-family="Times,serif" font-size="14.00" fill="#000000">PhysicalSort</text>
</g>
<!-- PhysicalSort&#45;&gt;basePhysicalPlan -->
<g id="edge6" class="edge">
<title>PhysicalSort&#45;&gt;basePhysicalPlan</title>
<path fill="none" stroke="#000000" d="M347.8919,-26.9137C359.8898,-30.9486 372.2895,-36.7383 382,-45 460.8781,-112.1092 509.9673,-224.446 535.0185,-296.3324"/>
<polygon fill="#000000" stroke="#000000" points="531.8454,-297.8702 538.3944,-306.1985 538.4684,-295.6039 531.8454,-297.8702"/>
</g>
<!-- PhysicalIndexScan -->
<g id="node14" class="node">
<title>PhysicalIndexScan</title>
<polygon fill="none" stroke="#000000" points="163.5,-450 44.5,-450 44.5,-414 163.5,-414 163.5,-450"/>
<text text-anchor="middle" x="104" y="-428.3" font-family="Times,serif" font-size="14.00" fill="#000000">PhysicalIndexScan</text>
</g>
<!-- PhysicalIndexScan&#45;&gt;physicalSchemaProducer -->
<g id="edge7" class="edge">
<title>PhysicalIndexScan&#45;&gt;physicalSchemaProducer</title>
<path fill="none" stroke="#000000" d="M163.7624,-430.8107C180.7518,-430.4726 199.6107,-430.0973 217.8702,-429.7339"/>
<polygon fill="#000000" stroke="#000000" points="218.0087,-433.232 227.937,-429.5336 217.8694,-426.2333 218.0087,-433.232"/>
</g>
<!-- PhysicalIndexLookUpReader -->
<g id="node15" class="node">
<title>PhysicalIndexLookUpReader</title>
<polygon fill="none" stroke="#000000" points="192,-396 16,-396 16,-360 192,-360 192,-396"/>
<text text-anchor="middle" x="104" y="-374.3" font-family="Times,serif" font-size="14.00" fill="#000000">PhysicalIndexLookUpReader</text>
</g>
<!-- PhysicalIndexLookUpReader&#45;&gt;physicalSchemaProducer -->
<g id="edge8" class="edge">
<title>PhysicalIndexLookUpReader&#45;&gt;physicalSchemaProducer</title>
<path fill="none" stroke="#000000" d="M176.5656,-396.0511C191.5091,-399.7684 207.3476,-403.7084 222.6098,-407.5049"/>
<polygon fill="#000000" stroke="#000000" points="221.9917,-410.9578 232.5409,-409.9753 223.6816,-404.1648 221.9917,-410.9578"/>
</g>
<!-- PhysicalIndexMergeReader -->
<g id="node16" class="node">
<title>PhysicalIndexMergeReader</title>
<polygon fill="none" stroke="#000000" points="187.5,-342 20.5,-342 20.5,-306 187.5,-306 187.5,-342"/>
<text text-anchor="middle" x="104" y="-320.3" font-family="Times,serif" font-size="14.00" fill="#000000">PhysicalIndexMergeReader</text>
</g>
<!-- PhysicalIndexMergeReader&#45;&gt;physicalSchemaProducer -->
<g id="edge9" class="edge">
<title>PhysicalIndexMergeReader&#45;&gt;physicalSchemaProducer</title>
<path fill="none" stroke="#000000" d="M178.3782,-342.0155C185.8221,-344.6751 193.152,-347.6628 200,-351 228.3977,-364.839 257.0805,-386.5141 277.275,-403.3463"/>
<polygon fill="#000000" stroke="#000000" points="275.2249,-406.1969 285.1157,-409.9947 279.7521,-400.8578 275.2249,-406.1969"/>
</g>
</g>
</svg>
