<?xml version="1.0" encoding="UTF-8" standalone="no"?>
<!DOCTYPE svg PUBLIC "-//W3C//DTD SVG 1.1//EN"
 "http://www.w3.org/Graphics/SVG/1.1/DTD/svg11.dtd">
<!-- Generated by graphviz version 2.40.1 (20161225.0304)
 -->
<!-- Title: plan_struct Pages: 1 -->
<svg width="1009pt" height="624pt"
 viewBox="0.00 0.00 1009.00 623.50" xmlns="http://www.w3.org/2000/svg" xmlns:xlink="http://www.w3.org/1999/xlink">
<g id="graph0" class="graph" transform="scale(1 1) rotate(0) translate(4 619.5)">
<title>plan_struct</title>
<polygon fill="#ffffff" stroke="transparent" points="-4,4 -4,-619.5 1005,-619.5 1005,4 -4,4"/>
<!-- baseLogicalPlan -->
<g id="node1" class="node">
<title>baseLogicalPlan</title>
<polygon fill="none" stroke="#000000" points="576,-342.5 576,-480.5 729,-480.5 729,-342.5 576,-342.5"/>
<text text-anchor="middle" x="652.5" y="-465.3" font-family="Times,serif" font-size="14.00" fill="#000000">baseLogicalPlan</text>
<polyline fill="none" stroke="#000000" points="576,-457.5 729,-457.5 "/>
<text text-anchor="start" x="584" y="-442.3" font-family="Times,serif" font-size="14.00" fill="#000000">basePlan </text>
<polyline fill="none" stroke="#000000" points="576,-434.5 729,-434.5 "/>
<text text-anchor="start" x="584" y="-419.3" font-family="Times,serif" font-size="14.00" fill="#000000">taskMap map[string]task</text>
<polyline fill="none" stroke="#000000" points="576,-411.5 729,-411.5 "/>
<text text-anchor="start" x="584" y="-396.3" font-family="Times,serif" font-size="14.00" fill="#000000">self LogicalPlan</text>
<polyline fill="none" stroke="#000000" points="576,-388.5 729,-388.5 "/>
<text text-anchor="start" x="584" y="-373.3" font-family="Times,serif" font-size="14.00" fill="#000000">maxOneRow bool</text>
<polyline fill="none" stroke="#000000" points="576,-365.5 729,-365.5 "/>
<text text-anchor="start" x="584" y="-350.3" font-family="Times,serif" font-size="14.00" fill="#000000">children []LogicalPlan</text>
</g>
<!-- basePlan -->
<g id="node3" class="node">
<title>basePlan</title>
<polygon fill="none" stroke="#000000" points="852,-444.5 852,-582.5 1001,-582.5 1001,-444.5 852,-444.5"/>
<text text-anchor="middle" x="926.5" y="-567.3" font-family="Times,serif" font-size="14.00" fill="#000000">basePlan</text>
<polyline fill="none" stroke="#000000" points="852,-559.5 1001,-559.5 "/>
<text text-anchor="start" x="860" y="-544.3" font-family="Times,serif" font-size="14.00" fill="#000000">tp string</text>
<polyline fill="none" stroke="#000000" points="852,-536.5 1001,-536.5 "/>
<text text-anchor="start" x="860" y="-521.3" font-family="Times,serif" font-size="14.00" fill="#000000">id int</text>
<polyline fill="none" stroke="#000000" points="852,-513.5 1001,-513.5 "/>
<text text-anchor="start" x="860" y="-498.3" font-family="Times,serif" font-size="14.00" fill="#000000">ctx sessionctx.Context</text>
<polyline fill="none" stroke="#000000" points="852,-490.5 1001,-490.5 "/>
<text text-anchor="start" x="860" y="-475.3" font-family="Times,serif" font-size="14.00" fill="#000000">stats *property.StatsInfo</text>
<polyline fill="none" stroke="#000000" points="852,-467.5 1001,-467.5 "/>
<text text-anchor="start" x="860" y="-452.3" font-family="Times,serif" font-size="14.00" fill="#000000">blockOffset int</text>
</g>
<!-- baseLogicalPlan&#45;&gt;basePlan -->
<g id="edge10" class="edge">
<title>baseLogicalPlan:basePlan&#45;&gt;basePlan</title>
<path fill="none" stroke="#000000" d="M729.5,-446.5C767.8041,-446.5 808.1734,-457.9938 842.3261,-471.4602"/>
<polygon fill="#000000" stroke="#000000" points="841.2051,-474.7826 851.7872,-475.3029 843.8393,-468.2971 841.2051,-474.7826"/>
</g>
<!-- task -->
<g id="node9" class="node">
<title>task</title>
<polygon fill="none" stroke="#000000" points="859.5,-154.5 859.5,-338.5 993.5,-338.5 993.5,-154.5 859.5,-154.5"/>
<text text-anchor="middle" x="926.5" y="-323.3" font-family="Times,serif" font-size="14.00" fill="#000000">task</text>
<polyline fill="none" stroke="#000000" points="859.5,-315.5 993.5,-315.5 "/>
<text text-anchor="start" x="867.5" y="-300.3" font-family="Times,serif" font-size="14.00" fill="#000000">count() float64</text>
<polyline fill="none" stroke="#000000" points="859.5,-292.5 993.5,-292.5 "/>
<text text-anchor="start" x="867.5" y="-277.3" font-family="Times,serif" font-size="14.00" fill="#000000">addCost(cost float64)</text>
<polyline fill="none" stroke="#000000" points="859.5,-269.5 993.5,-269.5 "/>
<text text-anchor="start" x="867.5" y="-254.3" font-family="Times,serif" font-size="14.00" fill="#000000">cost() float64</text>
<polyline fill="none" stroke="#000000" points="859.5,-246.5 993.5,-246.5 "/>
<text text-anchor="start" x="867.5" y="-231.3" font-family="Times,serif" font-size="14.00" fill="#000000">copy() task</text>
<polyline fill="none" stroke="#000000" points="859.5,-223.5 993.5,-223.5 "/>
<text text-anchor="start" x="867.5" y="-208.3" font-family="Times,serif" font-size="14.00" fill="#000000">plan() PhysicalPlan</text>
<polyline fill="none" stroke="#000000" points="859.5,-200.5 993.5,-200.5 "/>
<text text-anchor="start" x="867.5" y="-185.3" font-family="Times,serif" font-size="14.00" fill="#000000">invalid() bool</text>
<polyline fill="none" stroke="#000000" points="859.5,-177.5 993.5,-177.5 "/>
<text text-anchor="middle" x="926.5" y="-162.3" font-family="Times,serif" font-size="14.00" fill="#000000"> </text>
</g>
<!-- baseLogicalPlan&#45;&gt;task -->
<g id="edge3" class="edge">
<title>baseLogicalPlan:task&#45;&gt;task</title>
<path fill="none" stroke="#000000" d="M729.5,-423.5C783.2773,-423.5 829.0368,-386.5527 862.8795,-346.4193"/>
<polygon fill="#000000" stroke="#000000" points="865.6345,-348.5794 869.2733,-338.629 860.2236,-344.1384 865.6345,-348.5794"/>
</g>
<!-- basePhysicalPlan -->
<g id="node2" class="node">
<title>basePhysicalPlan</title>
<polygon fill="none" stroke="#000000" points="515,-500 515,-615 790,-615 790,-500 515,-500"/>
<text text-anchor="middle" x="652.5" y="-599.8" font-family="Times,serif" font-size="14.00" fill="#000000">basePhysicalPlan</text>
<polyline fill="none" stroke="#000000" points="515,-592 790,-592 "/>
<text text-anchor="start" x="523" y="-576.8" font-family="Times,serif" font-size="14.00" fill="#000000">basePlan</text>
<polyline fill="none" stroke="#000000" points="515,-569 790,-569 "/>
<text text-anchor="start" x="523" y="-553.8" font-family="Times,serif" font-size="14.00" fill="#000000">childrenReqProps []*property.PhysicalProperty</text>
<polyline fill="none" stroke="#000000" points="515,-546 790,-546 "/>
<text text-anchor="start" x="523" y="-530.8" font-family="Times,serif" font-size="14.00" fill="#000000">self PhysicalPlan</text>
<polyline fill="none" stroke="#000000" points="515,-523 790,-523 "/>
<text text-anchor="start" x="523" y="-507.8" font-family="Times,serif" font-size="14.00" fill="#000000">children []PhysicalPlan</text>
</g>
<!-- basePhysicalPlan&#45;&gt;basePlan -->
<g id="edge11" class="edge">
<title>basePhysicalPlan:basePlan&#45;&gt;basePlan</title>
<path fill="none" stroke="#000000" d="M790,-580.5C807.9305,-580.5 825.9553,-575.7836 842.762,-568.8534"/>
<polygon fill="#000000" stroke="#000000" points="844.2301,-572.0313 851.9654,-564.7915 841.4036,-565.6273 844.2301,-572.0313"/>
</g>
<!-- logicalSchemaProducer -->
<g id="node4" class="node">
<title>logicalSchemaProducer</title>
<polygon fill="none" stroke="#000000" points="286.5,-307.5 286.5,-399.5 459.5,-399.5 459.5,-307.5 286.5,-307.5"/>
<text text-anchor="middle" x="373" y="-384.3" font-family="Times,serif" font-size="14.00" fill="#000000">logicalSchemaProducer</text>
<polyline fill="none" stroke="#000000" points="286.5,-376.5 459.5,-376.5 "/>
<text text-anchor="start" x="294.5" y="-361.3" font-family="Times,serif" font-size="14.00" fill="#000000">schema *expression.Schema</text>
<polyline fill="none" stroke="#000000" points="286.5,-353.5 459.5,-353.5 "/>
<text text-anchor="start" x="294.5" y="-338.3" font-family="Times,serif" font-size="14.00" fill="#000000">names types.NameSlice</text>
<polyline fill="none" stroke="#000000" points="286.5,-330.5 459.5,-330.5 "/>
<text text-anchor="start" x="294.5" y="-315.3" font-family="Times,serif" font-size="14.00" fill="#000000">baseLogicalPlan</text>
</g>
<!-- logicalSchemaProducer&#45;&gt;baseLogicalPlan -->
<g id="edge9" class="edge">
<title>logicalSchemaProducer:baseLogicalPlan&#45;&gt;baseLogicalPlan</title>
<path fill="none" stroke="#000000" d="M460,-318.5C482.3897,-318.5 526.4309,-339.1557 566.7428,-360.9978"/>
<polygon fill="#000000" stroke="#000000" points="565.094,-364.0853 575.5463,-365.8173 568.4554,-357.9452 565.094,-364.0853"/>
</g>
<!-- DataSource -->
<g id="node5" class="node">
<title>DataSource</title>
<polygon fill="none" stroke="#000000" points="12.5,-407 12.5,-614 218.5,-614 218.5,-407 12.5,-407"/>
<text text-anchor="middle" x="115.5" y="-598.8" font-family="Times,serif" font-size="14.00" fill="#000000">DataSource</text>
<polyline fill="none" stroke="#000000" points="12.5,-591 218.5,-591 "/>
<text text-anchor="start" x="20.5" y="-575.8" font-family="Times,serif" font-size="14.00" fill="#000000">logicalSchemaProducer</text>
<polyline fill="none" stroke="#000000" points="12.5,-568 218.5,-568 "/>
<text text-anchor="start" x="20.5" y="-552.8" font-family="Times,serif" font-size="14.00" fill="#000000">indexHints []*ast.IndexHint</text>
<polyline fill="none" stroke="#000000" points="12.5,-545 218.5,-545 "/>
<text text-anchor="start" x="20.5" y="-529.8" font-family="Times,serif" font-size="14.00" fill="#000000">table table.Table</text>
<polyline fill="none" stroke="#000000" points="12.5,-522 218.5,-522 "/>
<text text-anchor="start" x="20.5" y="-506.8" font-family="Times,serif" font-size="14.00" fill="#000000">tableInfo *model.TableInfo</text>
<polyline fill="none" stroke="#000000" points="12.5,-499 218.5,-499 "/>
<text text-anchor="start" x="20.5" y="-483.8" font-family="Times,serif" font-size="14.00" fill="#000000">Columns []*model.ColumnInfo</text>
<polyline fill="none" stroke="#000000" points="12.5,-476 218.5,-476 "/>
<text text-anchor="start" x="20.5" y="-460.8" font-family="Times,serif" font-size="14.00" fill="#000000">DBName model.CIStr</text>
<polyline fill="none" stroke="#000000" points="12.5,-453 218.5,-453 "/>
<text text-anchor="start" x="20.5" y="-437.8" font-family="Times,serif" font-size="14.00" fill="#000000">possibleAccessPaths []*accessPath</text>
<polyline fill="none" stroke="#000000" points="12.5,-430 218.5,-430 "/>
<text text-anchor="middle" x="115.5" y="-414.8" font-family="Times,serif" font-size="14.00" fill="#000000">...</text>
</g>
<!-- DataSource&#45;&gt;logicalSchemaProducer -->
<g id="edge8" class="edge">
<title>DataSource:logicalSchemaProducer&#45;&gt;logicalSchemaProducer</title>
<path fill="none" stroke="#000000" d="M218.5,-579.5C297.1933,-579.5 218.3904,-470.5862 268,-409.5 271.1319,-405.6435 274.6019,-402.0175 278.3189,-398.6125"/>
<polygon fill="#000000" stroke="#000000" points="280.864,-401.0453 286.2659,-391.9311 276.3593,-395.6874 280.864,-401.0453"/>
</g>
<!-- LogicalProjection -->
<g id="node6" class="node">
<title>LogicalProjection</title>
<polygon fill="none" stroke="#000000" points="24.5,-249.5 24.5,-387.5 206.5,-387.5 206.5,-249.5 24.5,-249.5"/>
<text text-anchor="middle" x="115.5" y="-372.3" font-family="Times,serif" font-size="14.00" fill="#000000">LogicalProjection</text>
<polyline fill="none" stroke="#000000" points="24.5,-364.5 206.5,-364.5 "/>
<text text-anchor="start" x="32.5" y="-349.3" font-family="Times,serif" font-size="14.00" fill="#000000">logicalSchemaProducer</text>
<polyline fill="none" stroke="#000000" points="24.5,-341.5 206.5,-341.5 "/>
<text text-anchor="start" x="32.5" y="-326.3" font-family="Times,serif" font-size="14.00" fill="#000000">Exprs []expression.Expression</text>
<polyline fill="none" stroke="#000000" points="24.5,-318.5 206.5,-318.5 "/>
<text text-anchor="start" x="32.5" y="-303.3" font-family="Times,serif" font-size="14.00" fill="#000000">calculateGenCols bool</text>
<polyline fill="none" stroke="#000000" points="24.5,-295.5 206.5,-295.5 "/>
<text text-anchor="start" x="32.5" y="-280.3" font-family="Times,serif" font-size="14.00" fill="#000000">CalculateNoDelay bool</text>
<polyline fill="none" stroke="#000000" points="24.5,-272.5 206.5,-272.5 "/>
<text text-anchor="start" x="32.5" y="-257.3" font-family="Times,serif" font-size="14.00" fill="#000000">AvoidColumnEvaluator bool</text>
</g>
<!-- LogicalProjection&#45;&gt;logicalSchemaProducer -->
<g id="edge7" class="edge">
<title>LogicalProjection:logicalSchemaProducer&#45;&gt;logicalSchemaProducer</title>
<path fill="none" stroke="#000000" d="M206.5,-353.5C229.0361,-353.5 253.2881,-353.5 276.1206,-353.5"/>
<polygon fill="#000000" stroke="#000000" points="276.1537,-357.0001 286.1537,-353.5 276.1536,-350.0001 276.1537,-357.0001"/>
</g>
<!-- LogicalSelection -->
<g id="node7" class="node">
<title>LogicalSelection</title>
<polygon fill="none" stroke="#000000" points="268,-419 268,-488 478,-488 478,-419 268,-419"/>
<text text-anchor="middle" x="373" y="-472.8" font-family="Times,serif" font-size="14.00" fill="#000000">LogicalSelection</text>
<polyline fill="none" stroke="#000000" points="268,-465 478,-465 "/>
<text text-anchor="start" x="276" y="-449.8" font-family="Times,serif" font-size="14.00" fill="#000000">baseLogicalPlan</text>
<polyline fill="none" stroke="#000000" points="268,-442 478,-442 "/>
<text text-anchor="start" x="276" y="-426.8" font-family="Times,serif" font-size="14.00" fill="#000000">Conditions []expression.Expression</text>
</g>
<!-- LogicalSelection&#45;&gt;baseLogicalPlan -->
<g id="edge5" class="edge">
<title>LogicalSelection:baseLogicalPlan&#45;&gt;baseLogicalPlan</title>
<path fill="none" stroke="#000000" d="M478,-453.5C507.1282,-453.5 538.251,-447.8999 566.0279,-440.7895"/>
<polygon fill="#000000" stroke="#000000" points="566.9388,-444.169 575.7046,-438.2182 565.1411,-437.4038 566.9388,-444.169"/>
</g>
<!-- LogicalJoin -->
<g id="node8" class="node">
<title>LogicalJoin</title>
<polygon fill="none" stroke="#000000" points="0,-.5 0,-230.5 231,-230.5 231,-.5 0,-.5"/>
<text text-anchor="middle" x="115.5" y="-215.3" font-family="Times,serif" font-size="14.00" fill="#000000">LogicalJoin</text>
<polyline fill="none" stroke="#000000" points="0,-207.5 231,-207.5 "/>
<text text-anchor="start" x="8" y="-192.3" font-family="Times,serif" font-size="14.00" fill="#000000">logicalSchemaProducer</text>
<polyline fill="none" stroke="#000000" points="0,-184.5 231,-184.5 "/>
<text text-anchor="start" x="8" y="-169.3" font-family="Times,serif" font-size="14.00" fill="#000000">JoinType JoinType</text>
<polyline fill="none" stroke="#000000" points="0,-161.5 231,-161.5 "/>
<text text-anchor="start" x="8" y="-146.3" font-family="Times,serif" font-size="14.00" fill="#000000">reordered bool</text>
<polyline fill="none" stroke="#000000" points="0,-138.5 231,-138.5 "/>
<text text-anchor="start" x="8" y="-123.3" font-family="Times,serif" font-size="14.00" fill="#000000">cartesianJoin bool</text>
<polyline fill="none" stroke="#000000" points="0,-115.5 231,-115.5 "/>
<text text-anchor="start" x="8" y="-100.3" font-family="Times,serif" font-size="14.00" fill="#000000">LeftJoinKeys []*expression.Column</text>
<polyline fill="none" stroke="#000000" points="0,-92.5 231,-92.5 "/>
<text text-anchor="start" x="8" y="-77.3" font-family="Times,serif" font-size="14.00" fill="#000000">RightJoinKeys []*expression.Column</text>
<polyline fill="none" stroke="#000000" points="0,-69.5 231,-69.5 "/>
<text text-anchor="start" x="8" y="-54.3" font-family="Times,serif" font-size="14.00" fill="#000000">leftProperties [][]*expression.Column</text>
<polyline fill="none" stroke="#000000" points="0,-46.5 231,-46.5 "/>
<text text-anchor="start" x="8" y="-31.3" font-family="Times,serif" font-size="14.00" fill="#000000">rightProperties [][]*expression.Column</text>
<polyline fill="none" stroke="#000000" points="0,-23.5 231,-23.5 "/>
<text text-anchor="middle" x="115.5" y="-8.3" font-family="Times,serif" font-size="14.00" fill="#000000">...</text>
</g>
<!-- LogicalJoin&#45;&gt;logicalSchemaProducer -->
<g id="edge6" class="edge">
<title>LogicalJoin:logicalSchemaProducer&#45;&gt;logicalSchemaProducer</title>
<path fill="none" stroke="#000000" d="M231,-196.5C287.3883,-196.5 327.1924,-252.8947 350.0364,-298.0856"/>
<polygon fill="#000000" stroke="#000000" points="346.9782,-299.7989 354.5162,-307.244 353.2662,-296.7231 346.9782,-299.7989"/>
</g>
<!-- copTask -->
<g id="node10" class="node">
<title>copTask</title>
<polygon fill="none" stroke="#000000" points="580.5,-170 580.5,-323 724.5,-323 724.5,-170 580.5,-170"/>
<text text-anchor="start" x="588.5" y="-307.8" font-family="Times,serif" font-size="14.00" fill="#000000">copTask</text>
<text text-anchor="start" x="588.5" y="-292.8" font-family="Times,serif" font-size="14.00" fill="#000000">在TiKV侧执行</text>
<polyline fill="none" stroke="#000000" points="580.5,-285 724.5,-285 "/>
<text text-anchor="start" x="588.5" y="-269.8" font-family="Times,serif" font-size="14.00" fill="#000000">indexPlan PhysicalPlan</text>
<polyline fill="none" stroke="#000000" points="580.5,-262 724.5,-262 "/>
<text text-anchor="start" x="588.5" y="-246.8" font-family="Times,serif" font-size="14.00" fill="#000000">tablePlan PhysicalPlan</text>
<polyline fill="none" stroke="#000000" points="580.5,-239 724.5,-239 "/>
<text text-anchor="start" x="588.5" y="-223.8" font-family="Times,serif" font-size="14.00" fill="#000000">cst float64</text>
<polyline fill="none" stroke="#000000" points="580.5,-216 724.5,-216 "/>
<text text-anchor="start" x="588.5" y="-200.8" font-family="Times,serif" font-size="14.00" fill="#000000">keepOrder bool</text>
<polyline fill="none" stroke="#000000" points="580.5,-193 724.5,-193 "/>
<text text-anchor="middle" x="652.5" y="-177.8" font-family="Times,serif" font-size="14.00" fill="#000000">...</text>
</g>
<!-- copTask&#45;&gt;task -->
<g id="edge1" class="edge">
<title>copTask&#45;&gt;task</title>
<path fill="none" stroke="#000000" d="M724.8487,-246.5C763.127,-246.5 810.1424,-246.5 849.1442,-246.5"/>
<polygon fill="#000000" stroke="#000000" points="849.3961,-250.0001 859.396,-246.5 849.396,-243.0001 849.3961,-250.0001"/>
<text text-anchor="middle" x="821" y="-250.3" font-family="Times,serif" font-size="14.00" fill="#000000">impl</text>
</g>
<!-- rootTask -->
<g id="node11" class="node">
<title>rootTask</title>
<polygon fill="none" stroke="#000000" points="600.5,-66.5 600.5,-150.5 704.5,-150.5 704.5,-66.5 600.5,-66.5"/>
<text text-anchor="start" x="608.5" y="-135.3" font-family="Times,serif" font-size="14.00" fill="#000000">rootTask</text>
<text text-anchor="start" x="608.5" y="-120.3" font-family="Times,serif" font-size="14.00" fill="#000000">在TiDB侧执行</text>
<polyline fill="none" stroke="#000000" points="600.5,-112.5 704.5,-112.5 "/>
<text text-anchor="start" x="608.5" y="-97.3" font-family="Times,serif" font-size="14.00" fill="#000000">p PhysicalPlan</text>
<polyline fill="none" stroke="#000000" points="600.5,-89.5 704.5,-89.5 "/>
<text text-anchor="start" x="608.5" y="-74.3" font-family="Times,serif" font-size="14.00" fill="#000000">cst float64</text>
</g>
<!-- rootTask&#45;&gt;task -->
<g id="edge2" class="edge">
<title>rootTask&#45;&gt;task</title>
<path fill="none" stroke="#000000" d="M704.8013,-125.4939C730.9233,-134.6756 762.6975,-146.9089 790,-160.5 810.313,-170.6118 831.4392,-182.936 850.8298,-195.0598"/>
<polygon fill="#000000" stroke="#000000" points="848.9923,-198.0388 859.3158,-200.4211 852.7311,-192.1209 848.9923,-198.0388"/>
<text text-anchor="middle" x="821" y="-188.3" font-family="Times,serif" font-size="14.00" fill="#000000">impl</text>
</g>
<!-- PhysicalSelection -->
<g id="node12" class="node">
<title>PhysicalSelection</title>
<polygon fill="none" stroke="#000000" points="268,-523 268,-592 478,-592 478,-523 268,-523"/>
<text text-anchor="middle" x="373" y="-576.8" font-family="Times,serif" font-size="14.00" fill="#000000">PhysicalSelection</text>
<polyline fill="none" stroke="#000000" points="268,-569 478,-569 "/>
<text text-anchor="start" x="276" y="-553.8" font-family="Times,serif" font-size="14.00" fill="#000000">basePhysicalPlan</text>
<polyline fill="none" stroke="#000000" points="268,-546 478,-546 "/>
<text text-anchor="middle" x="373" y="-530.8" font-family="Times,serif" font-size="14.00" fill="#000000">Conditions []expression.Expression</text>
</g>
<!-- PhysicalSelection&#45;&gt;basePhysicalPlan -->
<g id="edge4" class="edge">
<title>PhysicalSelection:basePhysicalPlan&#45;&gt;basePhysicalPlan</title>
<path fill="none" stroke="#000000" d="M478,-557.5C486.6945,-557.5 495.6326,-557.5 504.6505,-557.5"/>
<polygon fill="#000000" stroke="#000000" points="504.8572,-561.0001 514.8572,-557.5 504.8572,-554.0001 504.8572,-561.0001"/>
</g>
</g>
</svg>
