<?xml version="1.0" encoding="UTF-8" standalone="no"?>
<!DOCTYPE svg PUBLIC "-//W3C//DTD SVG 1.1//EN"
 "http://www.w3.org/Graphics/SVG/1.1/DTD/svg11.dtd">
<!-- Generated by graphviz version 2.40.1 (20161225.0304)
 -->
<!-- Title: plan_tree Pages: 1 -->
<svg width="1174pt" height="206pt"
 viewBox="0.00 0.00 1173.89 206.00" xmlns="http://www.w3.org/2000/svg" xmlns:xlink="http://www.w3.org/1999/xlink">
<g id="graph0" class="graph" transform="scale(1 1) rotate(0) translate(4 202)">
<title>plan_tree</title>
<polygon fill="#ffffff" stroke="transparent" points="-4,4 -4,-202 1169.8945,-202 1169.8945,4 -4,4"/>
<g id="clust1" class="cluster">
<title>cluster_Select</title>
<path fill="none" stroke="#000000" d="M20,-8C20,-8 1145.8945,-8 1145.8945,-8 1151.8945,-8 1157.8945,-14 1157.8945,-20 1157.8945,-20 1157.8945,-178 1157.8945,-178 1157.8945,-184 1151.8945,-190 1145.8945,-190 1145.8945,-190 20,-190 20,-190 14,-190 8,-184 8,-178 8,-178 8,-20 8,-20 8,-14 14,-8 20,-8"/>
<text text-anchor="middle" x="582.9473" y="-170" font-family="Times,serif" font-size="20.00" fill="#000000">buildSelect</text>
</g>
<!-- ResultSetNode -->
<g id="node1" class="node">
<title>ResultSetNode</title>
<polygon fill="none" stroke="#000000" points="698.2148,-16.2 698.2148,-153.8 819.1875,-153.8 819.1875,-16.2 698.2148,-16.2"/>
<text text-anchor="middle" x="758.7012" y="-138.6" font-family="Times,serif" font-size="14.00" fill="#000000">ResultSetNode</text>
<polyline fill="none" stroke="#000000" points="698.2148,-131.8 819.1875,-131.8 "/>
<text text-anchor="start" x="706.2148" y="-116.6" font-family="Times,serif" font-size="14.00" fill="#000000">LogicalJoin</text>
<polyline fill="none" stroke="#000000" points="698.2148,-109.8 819.1875,-109.8 "/>
<text text-anchor="start" x="706.2148" y="-94.6" font-family="Times,serif" font-size="14.00" fill="#000000">LogicalSelection</text>
<polyline fill="none" stroke="#000000" points="698.2148,-87.8 819.1875,-87.8 "/>
<text text-anchor="start" x="706.2148" y="-72.6" font-family="Times,serif" font-size="14.00" fill="#000000">LogicalUnionScan</text>
<polyline fill="none" stroke="#000000" points="698.2148,-65.8 819.1875,-65.8 "/>
<text text-anchor="start" x="706.2148" y="-50.6" font-family="Times,serif" font-size="14.00" fill="#000000">DataSource</text>
<polyline fill="none" stroke="#000000" points="698.2148,-43.8 819.1875,-43.8 "/>
<text text-anchor="start" x="706.2148" y="-28.6" font-family="Times,serif" font-size="14.00" fill="#000000">buildSelect:递归</text>
</g>
<!-- LogicalJoin -->
<g id="node7" class="node">
<title>LogicalJoin</title>
<polygon fill="none" stroke="#000000" points="937.3326,-103 855.1391,-103 855.1391,-67 937.3326,-67 937.3326,-103"/>
<text text-anchor="middle" x="896.2358" y="-80.8" font-family="Times,serif" font-size="14.00" fill="#000000">LogicalJoin</text>
</g>
<!-- ResultSetNode&#45;&gt;LogicalJoin -->
<g id="edge6" class="edge">
<title>ResultSetNode&#45;&gt;LogicalJoin</title>
<path fill="none" stroke="#000000" d="M819.4262,-85C828.021,-85 836.7856,-85 845.1732,-85"/>
<polygon fill="#000000" stroke="#000000" points="845.1805,-88.5001 855.1805,-85 845.1804,-81.5001 845.1805,-88.5001"/>
</g>
<!-- LogicalSelection -->
<g id="node2" class="node">
<title>LogicalSelection</title>
<polygon fill="none" stroke="#000000" points="662.1427,-103 551.4315,-103 551.4315,-67 662.1427,-67 662.1427,-103"/>
<text text-anchor="middle" x="606.7871" y="-80.8" font-family="Times,serif" font-size="14.00" fill="#000000">LogicalSelection</text>
</g>
<!-- LogicalSelection&#45;&gt;ResultSetNode -->
<g id="edge1" class="edge">
<title>LogicalSelection&#45;&gt;ResultSetNode</title>
<path fill="none" stroke="#000000" d="M662.4917,-85C670.83,-85 679.5196,-85 688.117,-85"/>
<polygon fill="#000000" stroke="#000000" points="688.1406,-88.5001 698.1406,-85 688.1406,-81.5001 688.1406,-88.5001"/>
</g>
<!-- LogicalProjection -->
<g id="node3" class="node">
<title>LogicalProjection</title>
<polygon fill="none" stroke="#000000" points="515.5116,-103 398.9034,-103 398.9034,-67 515.5116,-67 515.5116,-103"/>
<text text-anchor="middle" x="457.2075" y="-80.8" font-family="Times,serif" font-size="14.00" fill="#000000">LogicalProjection</text>
</g>
<!-- LogicalProjection&#45;&gt;LogicalSelection -->
<g id="edge2" class="edge">
<title>LogicalProjection&#45;&gt;LogicalSelection</title>
<path fill="none" stroke="#000000" d="M515.4672,-85C523.9573,-85 532.7466,-85 541.3672,-85"/>
<polygon fill="#000000" stroke="#000000" points="541.3815,-88.5001 551.3814,-85 541.3814,-81.5001 541.3815,-88.5001"/>
</g>
<!-- LogicalDistinct -->
<g id="node4" class="node">
<title>LogicalDistinct</title>
<polygon fill="none" stroke="#000000" points="363.1006,-103 259.9209,-103 259.9209,-67 363.1006,-67 363.1006,-103"/>
<text text-anchor="middle" x="311.5107" y="-80.8" font-family="Times,serif" font-size="14.00" fill="#000000">LogicalDistinct</text>
</g>
<!-- LogicalDistinct&#45;&gt;LogicalProjection -->
<g id="edge3" class="edge">
<title>LogicalDistinct&#45;&gt;LogicalProjection</title>
<path fill="none" stroke="#000000" d="M363.2882,-85C371.5773,-85 380.2646,-85 388.8678,-85"/>
<polygon fill="#000000" stroke="#000000" points="388.8996,-88.5001 398.8996,-85 388.8995,-81.5001 388.8996,-88.5001"/>
</g>
<!-- LogicalSort -->
<g id="node5" class="node">
<title>LogicalSort</title>
<polygon fill="none" stroke="#000000" points="224.0142,-103 141.8207,-103 141.8207,-67 224.0142,-67 224.0142,-103"/>
<text text-anchor="middle" x="182.9175" y="-80.8" font-family="Times,serif" font-size="14.00" fill="#000000">LogicalSort</text>
</g>
<!-- LogicalSort&#45;&gt;LogicalDistinct -->
<g id="edge4" class="edge">
<title>LogicalSort&#45;&gt;LogicalDistinct</title>
<path fill="none" stroke="#000000" d="M224.313,-85C232.4399,-85 241.1282,-85 249.7555,-85"/>
<polygon fill="#000000" stroke="#000000" points="249.8178,-88.5001 259.8178,-85 249.8177,-81.5001 249.8178,-88.5001"/>
</g>
<!-- LogicalLimit -->
<g id="node6" class="node">
<title>LogicalLimit</title>
<polygon fill="none" stroke="#000000" points="105.8038,-103 16.0653,-103 16.0653,-67 105.8038,-67 105.8038,-103"/>
<text text-anchor="middle" x="60.9346" y="-80.8" font-family="Times,serif" font-size="14.00" fill="#000000">LogicalLimit</text>
</g>
<!-- LogicalLimit&#45;&gt;LogicalSort -->
<g id="edge5" class="edge">
<title>LogicalLimit&#45;&gt;LogicalSort</title>
<path fill="none" stroke="#000000" d="M106.0099,-85C114.3089,-85 123.0306,-85 131.4997,-85"/>
<polygon fill="#000000" stroke="#000000" points="131.6595,-88.5001 141.6595,-85 131.6595,-81.5001 131.6595,-88.5001"/>
</g>
<!-- LeftResultSetNode -->
<g id="node8" class="node">
<title>LeftResultSetNode</title>
<polygon fill="none" stroke="#000000" points="1142.7897,-76 980.389,-76 980.389,-40 1142.7897,-40 1142.7897,-76"/>
<text text-anchor="middle" x="1061.5894" y="-56.6" font-family="Times,serif" font-size="14.00" fill="#000000">递归: Left ResultSetNode</text>
</g>
<!-- LogicalJoin&#45;&gt;LeftResultSetNode -->
<g id="edge7" class="edge">
<title>LogicalJoin&#45;&gt;LeftResultSetNode</title>
<path fill="none" stroke="#000000" d="M937.535,-78.2564C947.5969,-76.6134 958.7606,-74.7906 970.1485,-72.9311"/>
<polygon fill="#000000" stroke="#000000" points="970.8865,-76.357 980.1918,-71.2911 969.7584,-69.4485 970.8865,-76.357"/>
</g>
<!-- RightResultSetNode -->
<g id="node9" class="node">
<title>RightResultSetNode</title>
<polygon fill="none" stroke="#000000" points="1149.7001,-130 973.4786,-130 973.4786,-94 1149.7001,-94 1149.7001,-130"/>
<text text-anchor="middle" x="1061.5894" y="-110.6" font-family="Times,serif" font-size="14.00" fill="#000000">递归：Right ResultSetNode</text>
</g>
<!-- LogicalJoin&#45;&gt;RightResultSetNode -->
<g id="edge8" class="edge">
<title>LogicalJoin&#45;&gt;RightResultSetNode</title>
<path fill="none" stroke="#000000" d="M937.535,-91.7436C945.6135,-93.0627 954.4023,-94.4978 963.447,-95.9747"/>
<polygon fill="#000000" stroke="#000000" points="962.9073,-99.4328 973.3406,-97.5902 964.0354,-92.5243 962.9073,-99.4328"/>
</g>
</g>
</svg>
