<?xml version="1.0" encoding="UTF-8" standalone="no"?>
<!DOCTYPE svg PUBLIC "-//W3C//DTD SVG 1.1//EN"
 "http://www.w3.org/Graphics/SVG/1.1/DTD/svg11.dtd">
<!-- Generated by graphviz version 2.40.1 (20161225.0304)
 -->
<!-- Title: sql_flow Pages: 1 -->
<svg width="857pt" height="60pt"
 viewBox="0.00 0.00 856.98 59.60" xmlns="http://www.w3.org/2000/svg" xmlns:xlink="http://www.w3.org/1999/xlink">
<g id="graph0" class="graph" transform="scale(1 1) rotate(0) translate(4 55.5999)">
<title>sql_flow</title>
<polygon fill="#ffffff" stroke="transparent" points="-4,4 -4,-55.5999 852.9766,-55.5999 852.9766,4 -4,4"/>
<!-- SqlString -->
<g id="node1" class="node">
<title>SqlString</title>
<polygon fill="none" stroke="#000000" points="72.6061,-36 -.2028,-36 -.2028,0 72.6061,0 72.6061,-36"/>
<text text-anchor="middle" x="36.2017" y="-13.8" font-family="Times,serif" font-size="14.00" fill="#000000">Sql String</text>
</g>
<!-- StmtNodes -->
<g id="node2" class="node">
<title>StmtNodes</title>
<polygon fill="none" stroke="#000000" points="310.3571,-36 209.0463,-36 209.0463,0 310.3571,0 310.3571,-36"/>
<text text-anchor="middle" x="259.7017" y="-13.8" font-family="Times,serif" font-size="14.00" fill="#000000">[]ast.StmtNode</text>
</g>
<!-- SqlString&#45;&gt;StmtNodes -->
<g id="edge1" class="edge">
<title>SqlString&#45;&gt;StmtNodes</title>
<path fill="none" stroke="#000000" d="M72.6082,-18C106.8174,-18 158.6586,-18 199.1023,-18"/>
<polygon fill="#000000" stroke="#000000" points="199.1214,-21.5001 209.1213,-18 199.1213,-14.5001 199.1214,-21.5001"/>
<text text-anchor="start" x="90.4033" y="-40.3999" font-family="Times,serif" font-size="14.00" fill="#000000">session.ParseSQL</text>
<text text-anchor="middle" x="140.7637" y="-26.3999" font-family="Times,serif" font-size="14.00" fill="#000000">词法语法分析</text>
</g>
<!-- ExecStmt -->
<g id="node4" class="node">
<title>ExecStmt</title>
<polygon fill="none" stroke="#000000" points="556.9325,-36 486.0607,-36 486.0607,0 556.9325,0 556.9325,-36"/>
<text text-anchor="middle" x="521.4966" y="-13.8" font-family="Times,serif" font-size="14.00" fill="#000000">ExecStmt</text>
</g>
<!-- StmtNodes&#45;&gt;ExecStmt -->
<g id="edge2" class="edge">
<title>StmtNodes&#45;&gt;ExecStmt</title>
<path fill="none" stroke="#000000" d="M310.4888,-18C358.4577,-18 429.7486,-18 475.9282,-18"/>
<polygon fill="#000000" stroke="#000000" points="475.9541,-21.5001 485.9541,-18 475.954,-14.5001 475.9541,-21.5001"/>
<text text-anchor="start" x="328.2793" y="-40.3999" font-family="Times,serif" font-size="14.00" fill="#000000">compiler.Compile</text>
<text text-anchor="middle" x="398.2793" y="-26.3999" font-family="Times,serif" font-size="14.00" fill="#000000">指定查询计划以及优化</text>
</g>
<!-- recordSet -->
<g id="node3" class="node">
<title>recordSet</title>
<polygon fill="none" stroke="#000000" points="848.8752,-36 729.2811,-36 729.2811,0 848.8752,0 848.8752,-36"/>
<text text-anchor="middle" x="789.0781" y="-13.8" font-family="Times,serif" font-size="14.00" fill="#000000">sqlexec.RecordSet</text>
</g>
<!-- ExecStmt&#45;&gt;recordSet -->
<g id="edge3" class="edge">
<title>ExecStmt&#45;&gt;recordSet</title>
<path fill="none" stroke="#000000" d="M556.7534,-18C597.8641,-18 666.8272,-18 718.9646,-18"/>
<polygon fill="#000000" stroke="#000000" points="719.1546,-21.5001 729.1545,-18 719.1545,-14.5001 719.1546,-21.5001"/>
<text text-anchor="start" x="574.7139" y="-40.3999" font-family="Times,serif" font-size="14.00" fill="#000000">session.executeStatment</text>
<text text-anchor="middle" x="642.9468" y="-26.3999" font-family="Times,serif" font-size="14.00" fill="#000000">生成执行器并执行</text>
</g>
</g>
</svg>
