<?xml version="1.0" encoding="UTF-8" standalone="no"?>
<!DOCTYPE svg PUBLIC "-//W3C//DTD SVG 1.1//EN"
 "http://www.w3.org/Graphics/SVG/1.1/DTD/svg11.dtd">
<!-- Generated by graphviz version 2.40.1 (20161225.0304)
 -->
<!-- Title: sql_executor Pages: 1 -->
<svg width="1279pt" height="1442pt"
 viewBox="0.00 0.00 1279.00 1442.00" xmlns="http://www.w3.org/2000/svg" xmlns:xlink="http://www.w3.org/1999/xlink">
<g id="graph0" class="graph" transform="scale(1 1) rotate(0) translate(4 1438)">
<title>sql_executor</title>
<polygon fill="#ffffff" stroke="transparent" points="-4,4 -4,-1438 1275,-1438 1275,4 -4,4"/>
<g id="clust1" class="cluster">
<title>cluster_executor</title>
<polygon fill="none" stroke="#000000" points="118.5,-8 118.5,-92 1052.5,-92 1052.5,-8 118.5,-8"/>
<text text-anchor="middle" x="585.5" y="-72" font-family="Times,serif" font-size="20.00" fill="#000000">executor/executor.go</text>
</g>
<g id="clust2" class="cluster">
<title>cluster_sort</title>
<polygon fill="none" stroke="#000000" points="1113.5,-416 1113.5,-498 1257.5,-498 1257.5,-416 1113.5,-416"/>
<text text-anchor="middle" x="1185.5" y="-478" font-family="Times,serif" font-size="20.00" fill="#000000">executor/sort.go</text>
</g>
<g id="clust3" class="cluster">
<title>cluster_projection</title>
<polygon fill="none" stroke="#000000" points="1101,-506 1101,-588 1271,-588 1271,-506 1101,-506"/>
<text text-anchor="middle" x="1186" y="-568" font-family="Times,serif" font-size="20.00" fill="#000000">executor/projection</text>
</g>
<g id="clust4" class="cluster">
<title>cluster_executor_builder</title>
<polygon fill="none" stroke="#000000" points="706,-596 706,-1426 1240,-1426 1240,-596 706,-596"/>
<text text-anchor="middle" x="973" y="-1406" font-family="Times,serif" font-size="20.00" fill="#000000">executor/builder.go</text>
</g>
<g id="clust5" class="cluster">
<title>cluster_executorBuilder</title>
<polygon fill="none" stroke="#000000" points="714,-604 714,-1388 1232,-1388 1232,-604 714,-604"/>
<text text-anchor="middle" x="973" y="-1368" font-family="Times,serif" font-size="20.00" fill="#000000">executorBuilder</text>
</g>
<g id="clust7" class="cluster">
<title>cluster_executor_adapter</title>
<polygon fill="none" stroke="#000000" points="449,-406 449,-588 914.5,-588 914.5,-406 449,-406"/>
<text text-anchor="middle" x="681.75" y="-568" font-family="Times,serif" font-size="20.00" fill="#000000">executor/adapter.go</text>
</g>
<g id="clust8" class="cluster">
<title>cluster_ExecStmt</title>
<polygon fill="none" stroke="#000000" points="457,-414 457,-550 906.5,-550 906.5,-414 457,-414"/>
<text text-anchor="middle" x="681.75" y="-530" font-family="Times,serif" font-size="20.00" fill="#000000">ExecStmt</text>
</g>
<g id="clust11" class="cluster">
<title>cluster_session</title>
<polygon fill="none" stroke="#000000" points="8,-100 8,-398 557,-398 557,-100 8,-100"/>
<text text-anchor="middle" x="282.5" y="-378" font-family="Times,serif" font-size="20.00" fill="#000000">session</text>
</g>
<!-- Compile -->
<g id="node1" class="node">
<title>Compile</title>
<polygon fill="none" stroke="#000000" points="285.5,-54 126.5,-54 126.5,-16 285.5,-16 285.5,-54"/>
<text text-anchor="start" x="134.5" y="-38.8" font-family="Times,serif" font-size="14.00" fill="#000000">Compile</text>
<text text-anchor="middle" x="206" y="-23.8" font-family="Times,serif" font-size="14.00" fill="#000000">制定查询计划以及优化</text>
</g>
<!-- SortExec -->
<g id="node2" class="node">
<title>SortExec</title>
<polygon fill="none" stroke="#000000" points="1218.5,-460 1152.5,-460 1152.5,-424 1218.5,-424 1218.5,-460"/>
<text text-anchor="middle" x="1185.5" y="-438.3" font-family="Times,serif" font-size="14.00" fill="#000000">SortExec</text>
</g>
<!-- ProjectionExec -->
<g id="node3" class="node">
<title>ProjectionExec</title>
<polygon fill="none" stroke="#000000" points="1235,-550 1136,-550 1136,-514 1235,-514 1235,-550"/>
<text text-anchor="middle" x="1185.5" y="-528.3" font-family="Times,serif" font-size="14.00" fill="#000000">ProjectionExec</text>
</g>
<!-- build -->
<g id="node4" class="node">
<title>build</title>
<polygon fill="none" stroke="#000000" points="925,-973 722,-973 722,-935 925,-935 925,-973"/>
<text text-anchor="start" x="730" y="-957.8" font-family="Times,serif" font-size="14.00" fill="#000000">build</text>
<text text-anchor="middle" x="823.5" y="-942.8" font-family="Times,serif" font-size="14.00" fill="#000000">根据plan类型创建相应Executor</text>
</g>
<!-- buildChange -->
<g id="node5" class="node">
<title>buildChange</title>
<polygon fill="none" stroke="#000000" points="1060.5,-648 974.5,-648 974.5,-612 1060.5,-612 1060.5,-648"/>
<text text-anchor="middle" x="1017.5" y="-626.3" font-family="Times,serif" font-size="14.00" fill="#000000">buildChange</text>
</g>
<!-- build&#45;&gt;buildChange -->
<g id="edge1" class="edge">
<title>build&#45;&gt;buildChange</title>
<path fill="none" stroke="#000000" d="M921.1751,-934.8012C922.5055,-933.6011 923.7826,-932.3351 925,-931 1007.7554,-840.24 888.8551,-756.4029 961,-657 962.5645,-654.8444 964.347,-652.8541 966.2916,-651.0172"/>
<polygon fill="#000000" stroke="#000000" points="968.7204,-653.5627 974.4759,-644.6675 964.4295,-648.032 968.7204,-653.5627"/>
</g>
<!-- buildCheckTable -->
<g id="node6" class="node">
<title>buildCheckTable</title>
<polygon fill="none" stroke="#000000" points="1072.5,-702 962.5,-702 962.5,-666 1072.5,-666 1072.5,-702"/>
<text text-anchor="middle" x="1017.5" y="-680.3" font-family="Times,serif" font-size="14.00" fill="#000000">buildCheckTable</text>
</g>
<!-- build&#45;&gt;buildCheckTable -->
<g id="edge2" class="edge">
<title>build&#45;&gt;buildCheckTable</title>
<path fill="none" stroke="#000000" d="M921.1171,-934.7475C922.4653,-933.5638 923.7617,-932.3158 925,-931 992.9029,-858.8495 901.5451,-790.2566 961,-711 961.4771,-710.3641 961.9729,-709.7424 962.4862,-709.1348"/>
<polygon fill="#000000" stroke="#000000" points="965.1654,-711.418 970.0187,-702.0001 960.3516,-706.3359 965.1654,-711.418"/>
</g>
<!-- buildDDL -->
<g id="node7" class="node">
<title>buildDDL</title>
<polygon fill="none" stroke="#000000" points="1053.5,-756 981.5,-756 981.5,-720 1053.5,-720 1053.5,-756"/>
<text text-anchor="middle" x="1017.5" y="-734.3" font-family="Times,serif" font-size="14.00" fill="#000000">buildDDL</text>
</g>
<!-- build&#45;&gt;buildDDL -->
<g id="edge3" class="edge">
<title>build&#45;&gt;buildDDL</title>
<path fill="none" stroke="#000000" d="M921.0247,-934.6582C922.4011,-933.5019 923.7283,-932.2835 925,-931 978.1333,-877.3715 914.1625,-824.2065 961,-765 964.2471,-760.8954 968.2709,-757.3798 972.6645,-754.3768"/>
<polygon fill="#000000" stroke="#000000" points="974.6095,-757.2936 981.4625,-749.2135 971.0665,-751.2564 974.6095,-757.2936"/>
</g>
<!-- buildExecute -->
<g id="node8" class="node">
<title>buildExecute</title>
<polygon fill="none" stroke="#000000" points="1061.5,-810 973.5,-810 973.5,-774 1061.5,-774 1061.5,-810"/>
<text text-anchor="middle" x="1017.5" y="-788.3" font-family="Times,serif" font-size="14.00" fill="#000000">buildExecute</text>
</g>
<!-- build&#45;&gt;buildExecute -->
<g id="edge4" class="edge">
<title>build&#45;&gt;buildExecute</title>
<path fill="none" stroke="#000000" d="M920.4259,-934.8114C922.0067,-933.6113 923.5341,-932.3421 925,-931 963.5651,-895.6933 926.602,-858.3778 961,-819 962.3142,-817.4955 963.7308,-816.0679 965.2284,-814.7139"/>
<polygon fill="#000000" stroke="#000000" points="967.4783,-817.3995 973.2915,-808.5419 963.2234,-811.841 967.4783,-817.3995"/>
</g>
<!-- buildExplain -->
<g id="node9" class="node">
<title>buildExplain</title>
<polygon fill="none" stroke="#000000" points="1060.5,-864 974.5,-864 974.5,-828 1060.5,-828 1060.5,-864"/>
<text text-anchor="middle" x="1017.5" y="-842.3" font-family="Times,serif" font-size="14.00" fill="#000000">buildExplain</text>
</g>
<!-- build&#45;&gt;buildExplain -->
<g id="edge5" class="edge">
<title>build&#45;&gt;buildExplain</title>
<path fill="none" stroke="#000000" d="M919.0705,-934.8562C921.1066,-933.6469 923.087,-932.363 925,-931 949.7092,-913.3946 938.4028,-893.245 961,-873 962.5182,-871.6398 964.1171,-870.334 965.7768,-869.082"/>
<polygon fill="#000000" stroke="#000000" points="968.1147,-871.7295 974.4887,-863.2664 964.2283,-865.9075 968.1147,-871.7295"/>
</g>
<!-- buildHashJoin -->
<g id="node10" class="node">
<title>buildHashJoin</title>
<polygon fill="none" stroke="#000000" points="1065,-918 970,-918 970,-882 1065,-882 1065,-918"/>
<text text-anchor="middle" x="1017.5" y="-896.3" font-family="Times,serif" font-size="14.00" fill="#000000">buildHashJoin</text>
</g>
<!-- build&#45;&gt;buildHashJoin -->
<g id="edge6" class="edge">
<title>build&#45;&gt;buildHashJoin</title>
<path fill="none" stroke="#000000" d="M910.3022,-934.9424C915.2874,-933.6579 920.2154,-932.3402 925,-931 936.4674,-927.7879 948.6135,-924.0018 960.2004,-920.1992"/>
<polygon fill="#000000" stroke="#000000" points="961.3913,-923.4917 969.7747,-917.0134 959.1811,-916.8497 961.3913,-923.4917"/>
</g>
<!-- buildHashAgg -->
<g id="node11" class="node">
<title>buildHashAgg</title>
<polygon fill="none" stroke="#000000" points="1065,-972 970,-972 970,-936 1065,-936 1065,-972"/>
<text text-anchor="middle" x="1017.5" y="-950.3" font-family="Times,serif" font-size="14.00" fill="#000000">buildHashAgg</text>
</g>
<!-- build&#45;&gt;buildHashAgg -->
<g id="edge7" class="edge">
<title>build&#45;&gt;buildHashAgg</title>
<path fill="none" stroke="#000000" d="M925.0454,-954C936.8559,-954 948.5764,-954 959.5044,-954"/>
<polygon fill="#000000" stroke="#000000" points="959.7161,-957.5001 969.7161,-954 959.716,-950.5001 959.7161,-957.5001"/>
</g>
<!-- buildMemTable -->
<g id="node12" class="node">
<title>buildMemTable</title>
<polygon fill="none" stroke="#000000" points="1070,-1026 965,-1026 965,-990 1070,-990 1070,-1026"/>
<text text-anchor="middle" x="1017.5" y="-1004.3" font-family="Times,serif" font-size="14.00" fill="#000000">buildMemTable</text>
</g>
<!-- build&#45;&gt;buildMemTable -->
<g id="edge8" class="edge">
<title>build&#45;&gt;buildMemTable</title>
<path fill="none" stroke="#000000" d="M891.8971,-973.0384C912.5219,-978.7793 935.0413,-985.0476 955.2438,-990.671"/>
<polygon fill="#000000" stroke="#000000" points="954.3845,-994.0648 964.9568,-993.3746 956.2617,-987.3211 954.3845,-994.0648"/>
</g>
<!-- buildProjection -->
<g id="node13" class="node">
<title>buildProjection</title>
<polygon fill="none" stroke="#000000" points="1067.5,-1134 967.5,-1134 967.5,-1098 1067.5,-1098 1067.5,-1134"/>
<text text-anchor="middle" x="1017.5" y="-1112.3" font-family="Times,serif" font-size="14.00" fill="#000000">buildProjection</text>
</g>
<!-- build&#45;&gt;buildProjection -->
<g id="edge9" class="edge">
<title>build&#45;&gt;buildProjection</title>
<path fill="none" stroke="#000000" d="M839.2195,-973.0273C863.2045,-1001.1601 911.404,-1054.2619 961,-1089 962.8449,-1090.2922 964.7613,-1091.5521 966.7254,-1092.7765"/>
<polygon fill="#000000" stroke="#000000" points="965.1638,-1095.9168 975.57,-1097.9069 968.6761,-1089.8617 965.1638,-1095.9168"/>
</g>
<!-- buildSelection -->
<g id="node14" class="node">
<title>buildSelection</title>
<polygon fill="none" stroke="#000000" points="1065,-1296 970,-1296 970,-1260 1065,-1260 1065,-1296"/>
<text text-anchor="middle" x="1017.5" y="-1274.3" font-family="Times,serif" font-size="14.00" fill="#000000">buildSelection</text>
</g>
<!-- build&#45;&gt;buildSelection -->
<g id="edge10" class="edge">
<title>build&#45;&gt;buildSelection</title>
<path fill="none" stroke="#000000" d="M827.5991,-973.281C839.4563,-1024.7826 878.3409,-1167.3253 961,-1251 961.924,-1251.9353 962.8868,-1252.8426 963.8826,-1253.7222"/>
<polygon fill="#000000" stroke="#000000" points="961.9882,-1256.6783 972.0697,-1259.9362 966.2202,-1251.1025 961.9882,-1256.6783"/>
</g>
<!-- buildIndexReader -->
<g id="node15" class="node">
<title>buildIndexReader</title>
<polygon fill="none" stroke="#000000" points="1074,-1188 961,-1188 961,-1152 1074,-1152 1074,-1188"/>
<text text-anchor="middle" x="1017.5" y="-1166.3" font-family="Times,serif" font-size="14.00" fill="#000000">buildIndexReader</text>
</g>
<!-- build&#45;&gt;buildIndexReader -->
<g id="edge11" class="edge">
<title>build&#45;&gt;buildIndexReader</title>
<path fill="none" stroke="#000000" d="M833.1391,-973.0296C852.7219,-1010.0779 900.4794,-1092.6605 961,-1143 962.3504,-1144.1232 963.7553,-1145.2122 965.2026,-1146.2667"/>
<polygon fill="#000000" stroke="#000000" points="963.5831,-1149.3894 973.8689,-1151.9296 967.4121,-1143.5295 963.5831,-1149.3894"/>
</g>
<!-- buildApply -->
<g id="node16" class="node">
<title>buildApply</title>
<polygon fill="none" stroke="#000000" points="1056.5,-1242 978.5,-1242 978.5,-1206 1056.5,-1206 1056.5,-1242"/>
<text text-anchor="middle" x="1017.5" y="-1220.3" font-family="Times,serif" font-size="14.00" fill="#000000">buildApply</text>
</g>
<!-- build&#45;&gt;buildApply -->
<g id="edge12" class="edge">
<title>build&#45;&gt;buildApply</title>
<path fill="none" stroke="#000000" d="M829.8325,-973.2903C845.4076,-1018.0786 889.589,-1130.3628 961,-1197 963.7025,-1199.5218 966.6837,-1201.85 969.822,-1203.9915"/>
<polygon fill="#000000" stroke="#000000" points="968.0522,-1207.0117 978.4124,-1209.2292 971.6962,-1201.035 968.0522,-1207.0117"/>
</g>
<!-- buildInsert -->
<g id="node17" class="node">
<title>buildInsert</title>
<polygon fill="none" stroke="#000000" points="1055,-1350 980,-1350 980,-1314 1055,-1314 1055,-1350"/>
<text text-anchor="middle" x="1017.5" y="-1328.3" font-family="Times,serif" font-size="14.00" fill="#000000">buildInsert</text>
</g>
<!-- build&#45;&gt;buildInsert -->
<g id="edge13" class="edge">
<title>build&#45;&gt;buildInsert</title>
<path fill="none" stroke="#000000" d="M826.0344,-973.3505C834.5281,-1031.0039 866.9537,-1203.8829 961,-1305 963.957,-1308.1793 967.3664,-1311.0237 971.0152,-1313.5604"/>
<polygon fill="#000000" stroke="#000000" points="969.4989,-1316.7344 979.863,-1318.9335 973.1324,-1310.7512 969.4989,-1316.7344"/>
</g>
<!-- buildSort -->
<g id="node18" class="node">
<title>buildSort</title>
<polygon fill="none" stroke="#000000" points="1051,-1080 984,-1080 984,-1044 1051,-1044 1051,-1080"/>
<text text-anchor="middle" x="1017.5" y="-1058.3" font-family="Times,serif" font-size="14.00" fill="#000000">buildSort</text>
</g>
<!-- build&#45;&gt;buildSort -->
<g id="edge14" class="edge">
<title>build&#45;&gt;buildSort</title>
<path fill="none" stroke="#000000" d="M854.1917,-973.114C881.7744,-990.0419 923.5798,-1015.0849 961,-1035 965.3307,-1037.3048 969.8901,-1039.636 974.4631,-1041.9126"/>
<polygon fill="#000000" stroke="#000000" points="973.2795,-1045.23 983.7999,-1046.4832 976.3572,-1038.9429 973.2795,-1045.23"/>
</g>
<!-- buildProjection&#45;&gt;ProjectionExec -->
<g id="edge15" class="edge">
<title>buildProjection&#45;&gt;ProjectionExec</title>
<path fill="none" stroke="#000000" d="M1065.8865,-1097.8668C1068.9903,-1095.2824 1071.7618,-1092.3422 1074,-1089 1134.5573,-998.5718 1051.3075,-696.8251 1101,-600 1110.2132,-582.0482 1126.5186,-567.2107 1142.3647,-556.0257"/>
<polygon fill="#000000" stroke="#000000" points="1144.7135,-558.665 1151.0729,-550.191 1140.817,-552.8497 1144.7135,-558.665"/>
</g>
<!-- SelectExec -->
<g id="node20" class="node">
<title>SelectExec</title>
<polygon fill="none" stroke="#000000" points="1224,-1296 1147,-1296 1147,-1260 1224,-1260 1224,-1296"/>
<text text-anchor="middle" x="1185.5" y="-1274.3" font-family="Times,serif" font-size="14.00" fill="#000000">SelectExec</text>
</g>
<!-- buildSelection&#45;&gt;SelectExec -->
<g id="edge17" class="edge">
<title>buildSelection&#45;&gt;SelectExec</title>
<path fill="none" stroke="#000000" d="M1065.1927,-1278C1087.5697,-1278 1114.2034,-1278 1136.7162,-1278"/>
<polygon fill="#000000" stroke="#000000" points="1136.7399,-1281.5001 1146.7399,-1278 1136.7398,-1274.5001 1136.7399,-1281.5001"/>
</g>
<!-- InsertExec -->
<g id="node19" class="node">
<title>InsertExec</title>
<polygon fill="none" stroke="#000000" points="1222.5,-1350 1148.5,-1350 1148.5,-1314 1222.5,-1314 1222.5,-1350"/>
<text text-anchor="middle" x="1185.5" y="-1328.3" font-family="Times,serif" font-size="14.00" fill="#000000">InsertExec</text>
</g>
<!-- buildInsert&#45;&gt;InsertExec -->
<g id="edge16" class="edge">
<title>buildInsert&#45;&gt;InsertExec</title>
<path fill="none" stroke="#000000" d="M1055.2025,-1332C1079.7138,-1332 1111.8737,-1332 1138.1098,-1332"/>
<polygon fill="#000000" stroke="#000000" points="1138.2129,-1335.5001 1148.2129,-1332 1138.2129,-1328.5001 1138.2129,-1335.5001"/>
</g>
<!-- buildSort&#45;&gt;SortExec -->
<g id="edge18" class="edge">
<title>buildSort&#45;&gt;SortExec</title>
<path fill="none" stroke="#000000" d="M1051.1163,-1052.9355C1059.9802,-1048.8964 1068.5742,-1043.1421 1074,-1035 1139.7663,-936.3091 1043.9357,-605.9651 1101,-502 1110.4959,-484.6995 1127.3673,-471.2094 1143.5505,-461.4404"/>
<polygon fill="#000000" stroke="#000000" points="1145.4577,-464.3823 1152.4192,-456.3955 1141.9965,-458.2978 1145.4577,-464.3823"/>
</g>
<!-- Next -->
<g id="node21" class="node">
<title>Next</title>
<polygon fill="none" stroke="#000000" points="1044.5,-54 990.5,-54 990.5,-18 1044.5,-18 1044.5,-54"/>
<text text-anchor="middle" x="1017.5" y="-32.3" font-family="Times,serif" font-size="14.00" fill="#000000">Next</text>
</g>
<!-- Exec -->
<g id="node22" class="node">
<title>Exec</title>
<polygon fill="none" stroke="#000000" points="519,-458 465,-458 465,-422 519,-422 519,-458"/>
<text text-anchor="middle" x="492" y="-436.3" font-family="Times,serif" font-size="14.00" fill="#000000">Exec</text>
</g>
<!-- buildExecutor -->
<g id="node23" class="node">
<title>buildExecutor</title>
<polygon fill="none" stroke="#000000" points="682,-512 589,-512 589,-476 682,-476 682,-512"/>
<text text-anchor="middle" x="635.5" y="-490.3" font-family="Times,serif" font-size="14.00" fill="#000000">buildExecutor</text>
</g>
<!-- Exec&#45;&gt;buildExecutor -->
<g id="edge19" class="edge">
<title>Exec&#45;&gt;buildExecutor</title>
<path fill="none" stroke="#000000" d="M519.329,-450.2841C536.2475,-456.6506 558.5984,-465.0614 579.1733,-472.8039"/>
<polygon fill="#000000" stroke="#000000" points="578.1945,-476.1751 588.7865,-476.4214 580.6599,-469.6236 578.1945,-476.1751"/>
</g>
<!-- handleNoDelay -->
<g id="node24" class="node">
<title>handleNoDelay</title>
<polygon fill="none" stroke="#000000" points="686,-458 585,-458 585,-422 686,-422 686,-458"/>
<text text-anchor="middle" x="635.5" y="-436.3" font-family="Times,serif" font-size="14.00" fill="#000000">handleNoDelay</text>
</g>
<!-- Exec&#45;&gt;handleNoDelay -->
<g id="edge20" class="edge">
<title>Exec&#45;&gt;handleNoDelay</title>
<path fill="none" stroke="#000000" d="M519.329,-440C534.9762,-440 555.2702,-440 574.5084,-440"/>
<polygon fill="#000000" stroke="#000000" points="574.7456,-443.5001 584.7456,-440 574.7455,-436.5001 574.7456,-443.5001"/>
</g>
<!-- buildExecutor&#45;&gt;build -->
<g id="edge23" class="edge">
<title>buildExecutor&#45;&gt;build</title>
<path fill="none" stroke="#000000" d="M635.7671,-512.0844C637.2518,-586.7214 646.7631,-869.7537 706,-931 708.3483,-933.428 710.8719,-935.6404 713.5391,-937.6548"/>
<polygon fill="#000000" stroke="#000000" points="711.6493,-940.6008 721.9399,-943.1217 715.4674,-934.7337 711.6493,-940.6008"/>
</g>
<!-- newExecutorBuilder -->
<g id="node26" class="node">
<title>newExecutorBuilder</title>
<polygon fill="none" stroke="#000000" points="887.5,-512 759.5,-512 759.5,-476 887.5,-476 887.5,-512"/>
<text text-anchor="middle" x="823.5" y="-490.3" font-family="Times,serif" font-size="14.00" fill="#000000">newExecutorBuilder</text>
</g>
<!-- buildExecutor&#45;&gt;newExecutorBuilder -->
<g id="edge24" class="edge">
<title>buildExecutor&#45;&gt;newExecutorBuilder</title>
<path fill="none" stroke="#000000" d="M682.4554,-494C702.6386,-494 726.7204,-494 749.2232,-494"/>
<polygon fill="#000000" stroke="#000000" points="749.4316,-497.5001 759.4315,-494 749.4315,-490.5001 749.4316,-497.5001"/>
</g>
<!-- handleNoDelayExecutor -->
<g id="node25" class="node">
<title>handleNoDelayExecutor</title>
<polygon fill="none" stroke="#000000" points="898.5,-458 748.5,-458 748.5,-422 898.5,-422 898.5,-458"/>
<text text-anchor="middle" x="823.5" y="-436.3" font-family="Times,serif" font-size="14.00" fill="#000000">handleNoDelayExecutor</text>
</g>
<!-- handleNoDelay&#45;&gt;handleNoDelayExecutor -->
<g id="edge21" class="edge">
<title>handleNoDelay&#45;&gt;handleNoDelayExecutor</title>
<path fill="none" stroke="#000000" d="M686.3755,-440C702.2836,-440 720.2955,-440 737.9103,-440"/>
<polygon fill="#000000" stroke="#000000" points="738.2169,-443.5001 748.2168,-440 738.2168,-436.5001 738.2169,-443.5001"/>
</g>
<!-- handleNoDelayExecutor&#45;&gt;Next -->
<g id="edge22" class="edge">
<title>handleNoDelayExecutor&#45;&gt;Next</title>
<path fill="none" stroke="#000000" d="M898.557,-433.8935C908.3742,-430.3408 917.5811,-425.2421 925,-418 976.0656,-368.1518 1005.4347,-144.7541 1014.472,-64.6768"/>
<polygon fill="#000000" stroke="#000000" points="1017.9923,-64.6858 1015.6125,-54.3617 1011.0347,-63.9165 1017.9923,-64.6858"/>
</g>
<!-- ParseSQL -->
<g id="node27" class="node">
<title>ParseSQL</title>
<polygon fill="none" stroke="#000000" points="302,-159 110,-159 110,-121 302,-121 302,-159"/>
<text text-anchor="start" x="118" y="-143.8" font-family="Times,serif" font-size="14.00" fill="#000000">ParseSQL</text>
<text text-anchor="middle" x="206" y="-128.8" font-family="Times,serif" font-size="14.00" fill="#000000">yy parser做SQL词法语法分析</text>
</g>
<!-- execute -->
<g id="node28" class="node">
<title>execute</title>
<polygon fill="none" stroke="#000000" points="74,-158 16,-158 16,-122 74,-122 74,-158"/>
<text text-anchor="middle" x="45" y="-136.3" font-family="Times,serif" font-size="14.00" fill="#000000">execute</text>
</g>
<!-- execute&#45;&gt;Compile -->
<g id="edge25" class="edge">
<title>execute&#45;&gt;Compile</title>
<path fill="none" stroke="#000000" d="M71.4484,-121.8427C83.2017,-113.8396 97.2383,-104.3713 110,-96 128.5597,-83.8253 149.3293,-70.5815 166.7899,-59.5547"/>
<polygon fill="#000000" stroke="#000000" points="168.9964,-62.3011 175.5898,-54.0078 165.2637,-56.3794 168.9964,-62.3011"/>
</g>
<!-- execute&#45;&gt;ParseSQL -->
<g id="edge26" class="edge">
<title>execute&#45;&gt;ParseSQL</title>
<path fill="none" stroke="#000000" d="M74.1559,-140C81.8088,-140 90.5242,-140 99.7433,-140"/>
<polygon fill="#000000" stroke="#000000" points="99.9185,-143.5001 109.9184,-140 99.9184,-136.5001 99.9185,-143.5001"/>
</g>
<!-- executeStatement -->
<g id="node29" class="node">
<title>executeStatement</title>
<polygon fill="none" stroke="#000000" points="262.5,-239 149.5,-239 149.5,-203 262.5,-203 262.5,-239"/>
<text text-anchor="middle" x="206" y="-217.3" font-family="Times,serif" font-size="14.00" fill="#000000">executeStatement</text>
</g>
<!-- execute&#45;&gt;executeStatement -->
<g id="edge27" class="edge">
<title>execute&#45;&gt;executeStatement</title>
<path fill="none" stroke="#000000" d="M74.1559,-154.6685C98.3357,-166.8335 133.1226,-184.335 160.8931,-198.3065"/>
<polygon fill="#000000" stroke="#000000" points="159.5102,-201.5287 170.0164,-202.8965 162.6563,-195.2755 159.5102,-201.5287"/>
</g>
<!-- runStmt -->
<g id="node30" class="node">
<title>runStmt</title>
<polygon fill="none" stroke="#000000" points="399,-252 338,-252 338,-216 399,-216 399,-252"/>
<text text-anchor="middle" x="368.5" y="-230.3" font-family="Times,serif" font-size="14.00" fill="#000000">runStmt</text>
</g>
<!-- executeStatement&#45;&gt;runStmt -->
<g id="edge28" class="edge">
<title>executeStatement&#45;&gt;runStmt</title>
<path fill="none" stroke="#000000" d="M262.8346,-225.5468C284.2469,-227.2598 308.1533,-229.1723 327.8036,-230.7443"/>
<polygon fill="#000000" stroke="#000000" points="327.6996,-234.2471 337.9469,-231.5558 328.2579,-227.2694 327.6996,-234.2471"/>
</g>
<!-- runStmt&#45;&gt;Exec -->
<g id="edge29" class="edge">
<title>runStmt&#45;&gt;Exec</title>
<path fill="none" stroke="#000000" d="M370.1045,-252.0207C374.2641,-288.2606 388.5531,-370.5416 435,-418 440.634,-423.7567 447.941,-428.034 455.4327,-431.203"/>
<polygon fill="#000000" stroke="#000000" points="454.315,-434.5207 464.909,-434.6522 456.7093,-427.9429 454.315,-434.5207"/>
</g>
<!-- Txn -->
<g id="node31" class="node">
<title>Txn</title>
<polygon fill="none" stroke="#000000" points="519,-144 465,-144 465,-108 519,-108 519,-144"/>
<text text-anchor="middle" x="492" y="-122.3" font-family="Times,serif" font-size="14.00" fill="#000000">Txn</text>
</g>
<!-- runStmt&#45;&gt;Txn -->
<g id="edge30" class="edge">
<title>runStmt&#45;&gt;Txn</title>
<path fill="none" stroke="#000000" d="M393.975,-215.9836C395.6934,-214.6586 397.3828,-213.3228 399,-212 422.6819,-192.6291 448.0907,-168.913 466.3551,-151.2956"/>
<polygon fill="#000000" stroke="#000000" points="468.9804,-153.6251 473.7195,-144.1492 464.1055,-148.6016 468.9804,-153.6251"/>
</g>
<!-- StmtRollback -->
<g id="node32" class="node">
<title>StmtRollback</title>
<polygon fill="none" stroke="#000000" points="538,-198 446,-198 446,-162 538,-162 538,-198"/>
<text text-anchor="middle" x="492" y="-176.3" font-family="Times,serif" font-size="14.00" fill="#000000">StmtRollback</text>
</g>
<!-- runStmt&#45;&gt;StmtRollback -->
<g id="edge31" class="edge">
<title>runStmt&#45;&gt;StmtRollback</title>
<path fill="none" stroke="#000000" d="M399.0281,-220.6517C411.8017,-215.0665 426.9942,-208.4236 441.3575,-202.1433"/>
<polygon fill="#000000" stroke="#000000" points="442.8826,-205.2964 450.6428,-198.0833 440.0782,-198.8827 442.8826,-205.2964"/>
</g>
<!-- checkTxnAborted -->
<g id="node33" class="node">
<title>checkTxnAborted</title>
<polygon fill="none" stroke="#000000" points="549,-252 435,-252 435,-216 549,-216 549,-252"/>
<text text-anchor="middle" x="492" y="-230.3" font-family="Times,serif" font-size="14.00" fill="#000000">checkTxnAborted</text>
</g>
<!-- runStmt&#45;&gt;checkTxnAborted -->
<g id="edge32" class="edge">
<title>runStmt&#45;&gt;checkTxnAborted</title>
<path fill="none" stroke="#000000" d="M399.0281,-234C406.9166,-234 415.7276,-234 424.6961,-234"/>
<polygon fill="#000000" stroke="#000000" points="424.8481,-237.5001 434.8481,-234 424.848,-230.5001 424.8481,-237.5001"/>
</g>
<!-- StmtCommit -->
<g id="node34" class="node">
<title>StmtCommit</title>
<polygon fill="none" stroke="#000000" points="536.5,-306 447.5,-306 447.5,-270 536.5,-270 536.5,-306"/>
<text text-anchor="middle" x="492" y="-284.3" font-family="Times,serif" font-size="14.00" fill="#000000">StmtCommit</text>
</g>
<!-- runStmt&#45;&gt;StmtCommit -->
<g id="edge33" class="edge">
<title>runStmt&#45;&gt;StmtCommit</title>
<path fill="none" stroke="#000000" d="M399.0535,-249.3352C410.2678,-254.7955 423.124,-260.8606 435,-266 435.9978,-266.4318 437.0071,-266.8643 438.0254,-267.2968"/>
<polygon fill="#000000" stroke="#000000" points="436.7854,-270.5715 447.3635,-271.1671 439.4656,-264.1049 436.7854,-270.5715"/>
</g>
<!-- finishStmt -->
<g id="node35" class="node">
<title>finishStmt</title>
<polygon fill="none" stroke="#000000" points="529,-360 455,-360 455,-324 529,-324 529,-360"/>
<text text-anchor="middle" x="492" y="-338.3" font-family="Times,serif" font-size="14.00" fill="#000000">finishStmt</text>
</g>
<!-- runStmt&#45;&gt;finishStmt -->
<g id="edge34" class="edge">
<title>runStmt&#45;&gt;finishStmt</title>
<path fill="none" stroke="#000000" d="M378.4766,-252.1713C389.8701,-271.4114 410.1816,-301.5037 435,-320 438.3489,-322.4958 442.0161,-324.7443 445.8244,-326.7626"/>
<polygon fill="#000000" stroke="#000000" points="444.3484,-329.9362 454.8833,-331.0619 447.3498,-323.6123 444.3484,-329.9362"/>
</g>
</g>
</svg>
