<?xml version="1.0" encoding="UTF-8" standalone="no"?>
<!DOCTYPE svg PUBLIC "-//W3C//DTD SVG 1.1//EN"
 "http://www.w3.org/Graphics/SVG/1.1/DTD/svg11.dtd">
<!-- Generated by graphviz version 2.40.1 (20161225.0304)
 -->
<!-- Title: sql_plan Pages: 1 -->
<svg width="1416pt" height="994pt"
 viewBox="0.00 0.00 1416.30 994.00" xmlns="http://www.w3.org/2000/svg" xmlns:xlink="http://www.w3.org/1999/xlink">
<g id="graph0" class="graph" transform="scale(1 1) rotate(0) translate(4 990)">
<title>sql_plan</title>
<polygon fill="#ffffff" stroke="transparent" points="-4,4 -4,-990 1412.2979,-990 1412.2979,4 -4,4"/>
<g id="clust4" class="cluster">
<title>cluster_plan</title>
<path fill="none" stroke="#000000" d="M303.7451,-8C303.7451,-8 1388.2979,-8 1388.2979,-8 1394.2979,-8 1400.2979,-14 1400.2979,-20 1400.2979,-20 1400.2979,-966 1400.2979,-966 1400.2979,-972 1394.2979,-978 1388.2979,-978 1388.2979,-978 303.7451,-978 303.7451,-978 297.7451,-978 291.7451,-972 291.7451,-966 291.7451,-966 291.7451,-20 291.7451,-20 291.7451,-14 297.7451,-8 303.7451,-8"/>
<text text-anchor="middle" x="846.0215" y="-958" font-family="Times,serif" font-size="20.00" fill="#000000">plan</text>
</g>
<g id="clust9" class="cluster">
<title>cluster_find_best_task</title>
<path fill="none" stroke="#000000" d="M1223.5908,-656C1223.5908,-656 1359.915,-656 1359.915,-656 1365.915,-656 1371.915,-662 1371.915,-668 1371.915,-668 1371.915,-886 1371.915,-886 1371.915,-892 1365.915,-898 1359.915,-898 1359.915,-898 1223.5908,-898 1223.5908,-898 1217.5908,-898 1211.5908,-892 1211.5908,-886 1211.5908,-886 1211.5908,-668 1211.5908,-668 1211.5908,-662 1217.5908,-656 1223.5908,-656"/>
<text text-anchor="middle" x="1291.7529" y="-878" font-family="Times,serif" font-size="20.00" fill="#000000">find_best_task.go</text>
</g>
<g id="clust3" class="cluster">
<title>cluster_compiler</title>
<path fill="none" stroke="#000000" d="M98.7451,-763C98.7451,-763 259.7451,-763 259.7451,-763 265.7451,-763 271.7451,-769 271.7451,-775 271.7451,-775 271.7451,-837 271.7451,-837 271.7451,-843 265.7451,-849 259.7451,-849 259.7451,-849 98.7451,-849 98.7451,-849 92.7451,-849 86.7451,-843 86.7451,-837 86.7451,-837 86.7451,-775 86.7451,-775 86.7451,-769 92.7451,-763 98.7451,-763"/>
<text text-anchor="middle" x="179.2451" y="-829" font-family="Times,serif" font-size="20.00" fill="#000000">executor/compiler.go</text>
</g>
<!-- execute -->
<g id="node1" class="node">
<title>execute</title>
<polygon fill="none" stroke="#000000" points="58.6182,-810 .1269,-810 .1269,-774 58.6182,-774 58.6182,-810"/>
<text text-anchor="middle" x="29.3726" y="-787.8" font-family="Times,serif" font-size="14.00" fill="#000000">execute</text>
</g>
<!-- Compile -->
<g id="node2" class="node">
<title>Compile</title>
<polygon fill="none" stroke="#000000" points="256.7451,-812.6018 100.7451,-812.6018 100.7451,-771.3982 256.7451,-771.3982 256.7451,-812.6018"/>
<text text-anchor="start" x="108.7451" y="-797.6" font-family="Times,serif" font-size="14.00" fill="#000000">Compile</text>
<text text-anchor="middle" x="178.7451" y="-783.6" font-family="Times,serif" font-size="14.00" fill="#000000">制定查询计划以及优化</text>
</g>
<!-- execute&#45;&gt;Compile -->
<g id="edge1" class="edge">
<title>execute&#45;&gt;Compile</title>
<path fill="none" stroke="#000000" d="M58.8838,-792C68.2874,-792 79.2216,-792 90.5862,-792"/>
<polygon fill="#000000" stroke="#000000" points="90.6564,-795.5001 100.6564,-792 90.6564,-788.5001 90.6564,-795.5001"/>
</g>
<!-- Preprocess -->
<g id="node3" class="node">
<title>Preprocess</title>
<polygon fill="none" stroke="#000000" points="497.7451,-842.6018 299.7451,-842.6018 299.7451,-801.3982 497.7451,-801.3982 497.7451,-842.6018"/>
<text text-anchor="start" x="307.7451" y="-827.6" font-family="Times,serif" font-size="14.00" fill="#000000">Preprocess</text>
<text text-anchor="middle" x="398.7451" y="-813.6" font-family="Times,serif" font-size="14.00" fill="#000000">一些合法性检查以及名字绑定</text>
</g>
<!-- Compile&#45;&gt;Preprocess -->
<g id="edge2" class="edge">
<title>Compile&#45;&gt;Preprocess</title>
<path fill="none" stroke="#000000" d="M256.9283,-802.6613C267.5189,-804.1055 278.5399,-805.6084 289.5501,-807.1098"/>
<polygon fill="#000000" stroke="#000000" points="289.2647,-810.6032 299.6459,-808.4865 290.2106,-803.6674 289.2647,-810.6032"/>
</g>
<!-- Optimize -->
<g id="node4" class="node">
<title>Optimize</title>
<polygon fill="none" stroke="#000000" points="476.7451,-782.6018 320.7451,-782.6018 320.7451,-741.3982 476.7451,-741.3982 476.7451,-782.6018"/>
<text text-anchor="start" x="328.7451" y="-767.6" font-family="Times,serif" font-size="14.00" fill="#000000">Optimize</text>
<text text-anchor="middle" x="398.7451" y="-753.6" font-family="Times,serif" font-size="14.00" fill="#000000">制定查询计划，并优化</text>
</g>
<!-- Compile&#45;&gt;Optimize -->
<g id="edge3" class="edge">
<title>Compile&#45;&gt;Optimize</title>
<path fill="none" stroke="#000000" d="M256.9283,-781.3387C274.1698,-778.9875 292.5522,-776.4809 310.1717,-774.0782"/>
<polygon fill="#000000" stroke="#000000" points="311.0078,-777.4967 320.4432,-772.6775 310.062,-770.5608 311.0078,-777.4967"/>
</g>
<!-- optimize -->
<g id="node6" class="node">
<title>optimize</title>
<polygon fill="none" stroke="#000000" points="598.7246,-780 533.752,-780 533.752,-744 598.7246,-744 598.7246,-780"/>
<text text-anchor="middle" x="566.2383" y="-757.8" font-family="Times,serif" font-size="14.00" fill="#000000">optimize</text>
</g>
<!-- Optimize&#45;&gt;optimize -->
<g id="edge4" class="edge">
<title>Optimize&#45;&gt;optimize</title>
<path fill="none" stroke="#000000" d="M477.0973,-762C492.9733,-762 509.109,-762 523.2093,-762"/>
<polygon fill="#000000" stroke="#000000" points="523.5572,-765.5001 533.5572,-762 523.5572,-758.5001 523.5572,-765.5001"/>
</g>
<!-- DoOptimize -->
<g id="node5" class="node">
<title>DoOptimize</title>
<polygon fill="none" stroke="#000000" points="782.3326,-787 634.5307,-787 634.5307,-737 782.3326,-737 782.3326,-787"/>
<text text-anchor="start" x="642.7314" y="-771.8" font-family="Times,serif" font-size="14.00" fill="#000000">DoOptimize</text>
<text text-anchor="start" x="642.7314" y="-757.8" font-family="Times,serif" font-size="14.00" fill="#000000">optimize a logical plan </text>
<text text-anchor="middle" x="708.4316" y="-743.8" font-family="Times,serif" font-size="14.00" fill="#000000">to a physical plan</text>
</g>
<!-- logicalOptimize -->
<g id="node7" class="node">
<title>logicalOptimize</title>
<polygon fill="none" stroke="#000000" points="946.1318,-556.7002 818.1318,-556.7002 818.1318,-495.2998 946.1318,-495.2998 946.1318,-556.7002"/>
<text text-anchor="start" x="826.1318" y="-541.3999" font-family="Times,serif" font-size="14.00" fill="#000000">logicalOptimize</text>
<text text-anchor="start" x="826.1318" y="-527.3999" font-family="Times,serif" font-size="14.00" fill="#000000">遍历optRuleList, </text>
<text text-anchor="middle" x="882.1318" y="-507.8" font-family="Times,serif" font-size="14.00" fill="#000000">调用相应优化方法</text>
</g>
<!-- DoOptimize&#45;&gt;logicalOptimize -->
<g id="edge6" class="edge">
<title>DoOptimize&#45;&gt;logicalOptimize</title>
<path fill="none" stroke="#000000" d="M727.0206,-736.7439C757.3837,-695.4907 817.8163,-613.3831 853.6276,-564.7277"/>
<polygon fill="#000000" stroke="#000000" points="856.4761,-566.762 859.585,-556.6336 850.8384,-562.6126 856.4761,-566.762"/>
</g>
<!-- phyicalOptimize -->
<g id="node8" class="node">
<title>phyicalOptimize</title>
<polygon fill="none" stroke="#000000" points="936.936,-782.6018 827.3277,-782.6018 827.3277,-741.3982 936.936,-741.3982 936.936,-782.6018"/>
<text text-anchor="start" x="835.48" y="-767.6" font-family="Times,serif" font-size="14.00" fill="#000000">phyicalOptimize</text>
<text text-anchor="middle" x="882.1318" y="-753.6" font-family="Times,serif" font-size="14.00" fill="#000000">物理优化</text>
</g>
<!-- DoOptimize&#45;&gt;phyicalOptimize -->
<g id="edge7" class="edge">
<title>DoOptimize&#45;&gt;phyicalOptimize</title>
<path fill="none" stroke="#000000" d="M782.348,-762C793.8715,-762 805.7056,-762 817.0144,-762"/>
<polygon fill="#000000" stroke="#000000" points="817.2284,-765.5001 827.2284,-762 817.2283,-758.5001 817.2284,-765.5001"/>
</g>
<!-- postOptimize -->
<g id="node9" class="node">
<title>postOptimize</title>
<polygon fill="none" stroke="#000000" points="928.0674,-888 836.1962,-888 836.1962,-852 928.0674,-852 928.0674,-888"/>
<text text-anchor="middle" x="882.1318" y="-865.8" font-family="Times,serif" font-size="14.00" fill="#000000">postOptimize</text>
</g>
<!-- DoOptimize&#45;&gt;postOptimize -->
<g id="edge8" class="edge">
<title>DoOptimize&#45;&gt;postOptimize</title>
<path fill="none" stroke="#000000" d="M748.7186,-787.0488C777.5667,-804.9855 816.146,-828.9726 844.3966,-846.5377"/>
<polygon fill="#000000" stroke="#000000" points="842.8401,-849.6913 853.1806,-851.9992 846.5363,-843.7467 842.8401,-849.6913"/>
</g>
<!-- optimize&#45;&gt;DoOptimize -->
<g id="edge5" class="edge">
<title>optimize&#45;&gt;DoOptimize</title>
<path fill="none" stroke="#000000" d="M598.8603,-762C606.6644,-762 615.3535,-762 624.3289,-762"/>
<polygon fill="#000000" stroke="#000000" points="624.5522,-765.5001 634.5521,-762 624.5521,-758.5001 624.5522,-765.5001"/>
</g>
<!-- rule_optimize -->
<g id="node10" class="node">
<title>rule_optimize</title>
<polygon fill="none" stroke="#000000" points="1125.6699,-378.6018 1011.6699,-378.6018 1011.6699,-337.3982 1125.6699,-337.3982 1125.6699,-378.6018"/>
<text text-anchor="start" x="1019.6699" y="-363.6" font-family="Times,serif" font-size="14.00" fill="#000000">rule.optimize</text>
<text text-anchor="middle" x="1068.6699" y="-349.6" font-family="Times,serif" font-size="14.00" fill="#000000">基于规则的优化</text>
</g>
<!-- logicalOptimize&#45;&gt;rule_optimize -->
<g id="edge9" class="edge">
<title>logicalOptimize&#45;&gt;rule_optimize</title>
<path fill="none" stroke="#000000" d="M916.3458,-495.1862C951.1081,-463.8786 1004.4631,-415.8259 1037.922,-385.6922"/>
<polygon fill="#000000" stroke="#000000" points="1040.4773,-388.1011 1045.5657,-378.8082 1035.7927,-382.8997 1040.4773,-388.1011"/>
</g>
<!-- findBestTask -->
<g id="node23" class="node">
<title>findBestTask</title>
<polygon fill="none" stroke="#000000" points="1146.9016,-726 990.4382,-726 990.4382,-676 1146.9016,-676 1146.9016,-726"/>
<text text-anchor="start" x="998.3042" y="-710.8" font-family="Times,serif" font-size="14.00" fill="#000000">findBestTask</text>
<text text-anchor="start" x="998.3042" y="-696.8" font-family="Times,serif" font-size="14.00" fill="#000000">converts the logical plan </text>
<text text-anchor="middle" x="1068.6699" y="-682.8" font-family="Times,serif" font-size="14.00" fill="#000000">to the physical plan</text>
</g>
<!-- phyicalOptimize&#45;&gt;findBestTask -->
<g id="edge22" class="edge">
<title>phyicalOptimize&#45;&gt;findBestTask</title>
<path fill="none" stroke="#000000" d="M936.839,-744.1102C951.1723,-739.423 966.9803,-734.2536 982.523,-729.171"/>
<polygon fill="#000000" stroke="#000000" points="983.7338,-732.4575 992.1507,-726.0226 981.5581,-725.8042 983.7338,-732.4575"/>
</g>
<!-- recursiveDeriveStats -->
<g id="node24" class="node">
<title>recursiveDeriveStats</title>
<polygon fill="none" stroke="#000000" points="1134.7916,-780 1002.5483,-780 1002.5483,-744 1134.7916,-744 1134.7916,-780"/>
<text text-anchor="middle" x="1068.6699" y="-757.8" font-family="Times,serif" font-size="14.00" fill="#000000">recursiveDeriveStats</text>
</g>
<!-- phyicalOptimize&#45;&gt;recursiveDeriveStats -->
<g id="edge23" class="edge">
<title>phyicalOptimize&#45;&gt;recursiveDeriveStats</title>
<path fill="none" stroke="#000000" d="M936.839,-762C954.1639,-762 973.6434,-762 992.2046,-762"/>
<polygon fill="#000000" stroke="#000000" points="992.4025,-765.5001 1002.4025,-762 992.4024,-758.5001 992.4025,-765.5001"/>
</g>
<!-- plan -->
<g id="node25" class="node">
<title>plan</title>
<polygon fill="none" stroke="#000000" points="1095.6699,-834 1041.6699,-834 1041.6699,-798 1095.6699,-798 1095.6699,-834"/>
<text text-anchor="middle" x="1068.6699" y="-811.8" font-family="Times,serif" font-size="14.00" fill="#000000">plan</text>
</g>
<!-- phyicalOptimize&#45;&gt;plan -->
<g id="edge24" class="edge">
<title>phyicalOptimize&#45;&gt;plan</title>
<path fill="none" stroke="#000000" d="M936.839,-777.8369C967.3433,-786.6674 1004.5268,-797.4315 1031.6173,-805.2738"/>
<polygon fill="#000000" stroke="#000000" points="1030.892,-808.7075 1041.4708,-808.1263 1032.8385,-801.9835 1030.892,-808.7075"/>
</g>
<!-- eliminatePhysicalProjection -->
<g id="node26" class="node">
<title>eliminatePhysicalProjection</title>
<polygon fill="none" stroke="#000000" points="1155.2461,-888 982.0937,-888 982.0937,-852 1155.2461,-852 1155.2461,-888"/>
<text text-anchor="middle" x="1068.6699" y="-865.8" font-family="Times,serif" font-size="14.00" fill="#000000">eliminatePhysicalProjection</text>
</g>
<!-- postOptimize&#45;&gt;eliminatePhysicalProjection -->
<g id="edge25" class="edge">
<title>postOptimize&#45;&gt;eliminatePhysicalProjection</title>
<path fill="none" stroke="#000000" d="M928.2424,-870C941.6063,-870 956.7231,-870 971.9625,-870"/>
<polygon fill="#000000" stroke="#000000" points="971.9775,-873.5001 981.9775,-870 971.9775,-866.5001 971.9775,-873.5001"/>
</g>
<!-- injectExtraProjection -->
<g id="node27" class="node">
<title>injectExtraProjection</title>
<polygon fill="none" stroke="#000000" points="1136.1289,-942 1001.2109,-942 1001.2109,-906 1136.1289,-906 1136.1289,-942"/>
<text text-anchor="middle" x="1068.6699" y="-919.8" font-family="Times,serif" font-size="14.00" fill="#000000">injectExtraProjection</text>
</g>
<!-- postOptimize&#45;&gt;injectExtraProjection -->
<g id="edge26" class="edge">
<title>postOptimize&#45;&gt;injectExtraProjection</title>
<path fill="none" stroke="#000000" d="M928.2424,-883.3483C948.8222,-889.3059 973.559,-896.4668 996.4989,-903.1076"/>
<polygon fill="#000000" stroke="#000000" points="995.624,-906.4979 1006.2028,-905.9167 997.5705,-899.774 995.624,-906.4979"/>
</g>
<!-- columPruner -->
<g id="node11" class="node">
<title>columPruner</title>
<polygon fill="none" stroke="#000000" points="1336.0709,-52 1247.435,-52 1247.435,-16 1336.0709,-16 1336.0709,-52"/>
<text text-anchor="middle" x="1291.7529" y="-29.8" font-family="Times,serif" font-size="14.00" fill="#000000">columPruner</text>
</g>
<!-- rule_optimize&#45;&gt;columPruner -->
<g id="edge10" class="edge">
<title>rule_optimize&#45;&gt;columPruner</title>
<path fill="none" stroke="#000000" d="M1070.9892,-337.1165C1078.1446,-282.9411 1104.8918,-136.8453 1191.208,-61 1204.0258,-49.7371 1221.0635,-43.1093 1237.4654,-39.2296"/>
<polygon fill="#000000" stroke="#000000" points="1238.4639,-42.5975 1247.5524,-37.1523 1237.0519,-35.7414 1238.4639,-42.5975"/>
</g>
<!-- buildKeySolver -->
<g id="node12" class="node">
<title>buildKeySolver</title>
<polygon fill="none" stroke="#000000" points="1343.9088,-106 1239.5971,-106 1239.5971,-70 1343.9088,-70 1343.9088,-106"/>
<text text-anchor="middle" x="1291.7529" y="-83.8" font-family="Times,serif" font-size="14.00" fill="#000000">buildKeySolver</text>
</g>
<!-- rule_optimize&#45;&gt;buildKeySolver -->
<g id="edge11" class="edge">
<title>rule_optimize&#45;&gt;buildKeySolver</title>
<path fill="none" stroke="#000000" d="M1073.0901,-337.1192C1084.182,-289.9828 1117.7285,-174.7907 1191.208,-115 1202.2072,-106.0499 1215.9082,-100.0498 1229.6218,-96.032"/>
<polygon fill="#000000" stroke="#000000" points="1230.775,-99.3486 1239.5713,-93.443 1229.0122,-92.5742 1230.775,-99.3486"/>
</g>
<!-- decorrelateSolver -->
<g id="node13" class="node">
<title>decorrelateSolver</title>
<polygon fill="none" stroke="#000000" points="1348.9779,-160 1234.528,-160 1234.528,-124 1348.9779,-124 1348.9779,-160"/>
<text text-anchor="middle" x="1291.7529" y="-137.8" font-family="Times,serif" font-size="14.00" fill="#000000">decorrelateSolver</text>
</g>
<!-- rule_optimize&#45;&gt;decorrelateSolver -->
<g id="edge12" class="edge">
<title>rule_optimize&#45;&gt;decorrelateSolver</title>
<path fill="none" stroke="#000000" d="M1076.1924,-337.3622C1091.5219,-298.2768 1130.1772,-213.4018 1191.208,-169 1201.0848,-161.8143 1212.7535,-156.5409 1224.5798,-152.6708"/>
<polygon fill="#000000" stroke="#000000" points="1225.9146,-155.9262 1234.515,-149.7389 1223.9333,-149.2124 1225.9146,-155.9262"/>
</g>
<!-- aggregationEliminator -->
<g id="node14" class="node">
<title>aggregationEliminator</title>
<polygon fill="none" stroke="#000000" points="1362.7119,-214 1220.7939,-214 1220.7939,-178 1362.7119,-178 1362.7119,-214"/>
<text text-anchor="middle" x="1291.7529" y="-191.8" font-family="Times,serif" font-size="14.00" fill="#000000">aggregationEliminator</text>
</g>
<!-- rule_optimize&#45;&gt;aggregationEliminator -->
<g id="edge13" class="edge">
<title>rule_optimize&#45;&gt;aggregationEliminator</title>
<path fill="none" stroke="#000000" d="M1081.799,-337.2189C1101.7526,-307.3676 1142.5774,-252.6852 1191.208,-223 1197.4126,-219.2126 1204.1492,-215.9488 1211.0977,-213.1376"/>
<polygon fill="#000000" stroke="#000000" points="1212.5201,-216.3429 1220.674,-209.578 1210.0811,-209.7815 1212.5201,-216.3429"/>
</g>
<!-- projectionEliminator -->
<g id="node15" class="node">
<title>projectionEliminator</title>
<polygon fill="none" stroke="#000000" points="1357.8882,-268 1225.6177,-268 1225.6177,-232 1357.8882,-232 1357.8882,-268"/>
<text text-anchor="middle" x="1291.7529" y="-245.8" font-family="Times,serif" font-size="14.00" fill="#000000">projectionEliminator</text>
</g>
<!-- rule_optimize&#45;&gt;projectionEliminator -->
<g id="edge14" class="edge">
<title>rule_optimize&#45;&gt;projectionEliminator</title>
<path fill="none" stroke="#000000" d="M1094.4741,-337.3517C1118.33,-319.1649 1155.4003,-293.129 1191.208,-277 1199.0506,-273.4674 1207.452,-270.3152 1215.9333,-267.524"/>
<polygon fill="#000000" stroke="#000000" points="1217.0191,-270.8516 1225.5176,-264.5249 1214.9287,-264.171 1217.0191,-270.8516"/>
</g>
<!-- maxMinEliminator -->
<g id="node16" class="node">
<title>maxMinEliminator</title>
<polygon fill="none" stroke="#000000" points="1353.5707,-322 1229.9351,-322 1229.9351,-286 1353.5707,-286 1353.5707,-322"/>
<text text-anchor="middle" x="1291.7529" y="-299.8" font-family="Times,serif" font-size="14.00" fill="#000000">maxMinEliminator</text>
</g>
<!-- rule_optimize&#45;&gt;maxMinEliminator -->
<g id="edge15" class="edge">
<title>rule_optimize&#45;&gt;maxMinEliminator</title>
<path fill="none" stroke="#000000" d="M1125.8297,-344.1638C1154.6021,-337.1991 1189.7663,-328.6871 1220.3052,-321.2948"/>
<polygon fill="#000000" stroke="#000000" points="1221.1481,-324.6919 1230.044,-318.9374 1219.5012,-317.8884 1221.1481,-324.6919"/>
</g>
<!-- ppdSolver -->
<g id="node17" class="node">
<title>ppdSolver</title>
<polygon fill="none" stroke="#000000" points="1328.306,-376 1255.1998,-376 1255.1998,-340 1328.306,-340 1328.306,-376"/>
<text text-anchor="middle" x="1291.7529" y="-353.8" font-family="Times,serif" font-size="14.00" fill="#000000">ppdSolver</text>
</g>
<!-- rule_optimize&#45;&gt;ppdSolver -->
<g id="edge16" class="edge">
<title>rule_optimize&#45;&gt;ppdSolver</title>
<path fill="none" stroke="#000000" d="M1125.8297,-358C1162.6821,-358 1210.0203,-358 1244.6952,-358"/>
<polygon fill="#000000" stroke="#000000" points="1245.0242,-361.5001 1255.0242,-358 1245.0242,-354.5001 1245.0242,-361.5001"/>
</g>
<!-- outerJoinEliminator -->
<g id="node18" class="node">
<title>outerJoinEliminator</title>
<polygon fill="none" stroke="#000000" points="1355.7324,-430 1227.7734,-430 1227.7734,-394 1355.7324,-394 1355.7324,-430"/>
<text text-anchor="middle" x="1291.7529" y="-407.8" font-family="Times,serif" font-size="14.00" fill="#000000">outerJoinEliminator</text>
</g>
<!-- rule_optimize&#45;&gt;outerJoinEliminator -->
<g id="edge17" class="edge">
<title>rule_optimize&#45;&gt;outerJoinEliminator</title>
<path fill="none" stroke="#000000" d="M1125.8297,-371.8362C1153.7816,-378.6023 1187.766,-386.8287 1217.6817,-394.0701"/>
<polygon fill="#000000" stroke="#000000" points="1217.1137,-397.5337 1227.6564,-396.4847 1218.7606,-390.7301 1217.1137,-397.5337"/>
</g>
<!-- partitionProcessor -->
<g id="node19" class="node">
<title>partitionProcessor</title>
<polygon fill="none" stroke="#000000" points="1350.6221,-484 1232.8837,-484 1232.8837,-448 1350.6221,-448 1350.6221,-484"/>
<text text-anchor="middle" x="1291.7529" y="-461.8" font-family="Times,serif" font-size="14.00" fill="#000000">partitionProcessor</text>
</g>
<!-- rule_optimize&#45;&gt;partitionProcessor -->
<g id="edge18" class="edge">
<title>rule_optimize&#45;&gt;partitionProcessor</title>
<path fill="none" stroke="#000000" d="M1094.4741,-378.6483C1118.33,-396.8351 1155.4003,-422.871 1191.208,-439 1201.1755,-443.4897 1212.0457,-447.3651 1222.8356,-450.6658"/>
<polygon fill="#000000" stroke="#000000" points="1222.1141,-454.101 1232.6939,-453.5366 1224.0713,-447.3802 1222.1141,-454.101"/>
</g>
<!-- aggregationPushDownSolver -->
<g id="node20" class="node">
<title>aggregationPushDownSolver</title>
<polygon fill="none" stroke="#000000" points="1381.8428,-538 1201.6631,-538 1201.6631,-502 1381.8428,-502 1381.8428,-538"/>
<text text-anchor="middle" x="1291.7529" y="-515.8" font-family="Times,serif" font-size="14.00" fill="#000000">aggregationPushDownSolver</text>
</g>
<!-- rule_optimize&#45;&gt;aggregationPushDownSolver -->
<g id="edge19" class="edge">
<title>rule_optimize&#45;&gt;aggregationPushDownSolver</title>
<path fill="none" stroke="#000000" d="M1081.799,-378.7811C1101.7526,-408.6324 1142.5774,-463.3148 1191.208,-493 1193.9849,-494.6951 1196.8683,-496.2852 1199.8296,-497.7769"/>
<polygon fill="#000000" stroke="#000000" points="1198.3713,-500.9586 1208.9185,-501.9627 1201.2996,-494.6005 1198.3713,-500.9586"/>
</g>
<!-- pushDownTopNOptimizer -->
<g id="node21" class="node">
<title>pushDownTopNOptimizer</title>
<polygon fill="none" stroke="#000000" points="1374.3653,-592 1209.1406,-592 1209.1406,-556 1374.3653,-556 1374.3653,-592"/>
<text text-anchor="middle" x="1291.7529" y="-569.8" font-family="Times,serif" font-size="14.00" fill="#000000">pushDownTopNOptimizer</text>
</g>
<!-- rule_optimize&#45;&gt;pushDownTopNOptimizer -->
<g id="edge20" class="edge">
<title>rule_optimize&#45;&gt;pushDownTopNOptimizer</title>
<path fill="none" stroke="#000000" d="M1076.1924,-378.6378C1091.5219,-417.7232 1130.1772,-502.5982 1191.208,-547 1194.034,-549.056 1197.0068,-550.9555 1200.0879,-552.7103"/>
<polygon fill="#000000" stroke="#000000" points="1198.5296,-555.8445 1209.0264,-557.2827 1201.7176,-549.6126 1198.5296,-555.8445"/>
</g>
<!-- joinReOrderSolver -->
<g id="node22" class="node">
<title>joinReOrderSolver</title>
<polygon fill="none" stroke="#000000" points="1352.7851,-646 1230.7208,-646 1230.7208,-610 1352.7851,-610 1352.7851,-646"/>
<text text-anchor="middle" x="1291.7529" y="-623.8" font-family="Times,serif" font-size="14.00" fill="#000000">joinReOrderSolver</text>
</g>
<!-- rule_optimize&#45;&gt;joinReOrderSolver -->
<g id="edge21" class="edge">
<title>rule_optimize&#45;&gt;joinReOrderSolver</title>
<path fill="none" stroke="#000000" d="M1073.0901,-378.8808C1084.182,-426.0172 1117.7285,-541.2093 1191.208,-601 1199.9367,-608.1026 1210.3669,-613.3474 1221.1547,-617.218"/>
<polygon fill="#000000" stroke="#000000" points="1220.1019,-620.5559 1230.6931,-620.2778 1222.2402,-613.8904 1220.1019,-620.5559"/>
</g>
<!-- LogicalShow -->
<g id="node29" class="node">
<title>LogicalShow</title>
<polygon fill="none" stroke="#000000" points="1336.9089,-862 1246.597,-862 1246.597,-826 1336.9089,-826 1336.9089,-862"/>
<text text-anchor="middle" x="1291.7529" y="-839.8" font-family="Times,serif" font-size="14.00" fill="#000000">LogicalShow</text>
</g>
<!-- findBestTask&#45;&gt;LogicalShow -->
<g id="edge28" class="edge">
<title>findBestTask&#45;&gt;LogicalShow</title>
<path fill="none" stroke="#000000" d="M1144.1682,-726.1371C1148.113,-728.81 1151.8335,-731.7556 1155.208,-735 1183.9002,-762.5854 1161.0166,-791.064 1191.208,-817 1203.8672,-827.875 1220.4748,-834.4176 1236.5356,-838.3383"/>
<polygon fill="#000000" stroke="#000000" points="1235.9137,-841.7844 1246.4249,-840.456 1237.3795,-834.9396 1235.9137,-841.7844"/>
</g>
<!-- LogicalShowDDLJobs -->
<g id="node30" class="node">
<title>LogicalShowDDLJobs</title>
<polygon fill="none" stroke="#000000" points="1364.0775,-808 1219.4283,-808 1219.4283,-772 1364.0775,-772 1364.0775,-808"/>
<text text-anchor="middle" x="1291.7529" y="-785.8" font-family="Times,serif" font-size="14.00" fill="#000000">LogicalShowDDLJobs</text>
</g>
<!-- findBestTask&#45;&gt;LogicalShowDDLJobs -->
<g id="edge29" class="edge">
<title>findBestTask&#45;&gt;LogicalShowDDLJobs</title>
<path fill="none" stroke="#000000" d="M1138.0029,-726.1575C1143.9255,-728.9292 1149.7376,-731.8845 1155.208,-735 1172.8216,-745.0312 1173.0605,-753.9705 1191.208,-763 1197.1333,-765.9482 1203.4206,-768.6054 1209.8452,-770.9946"/>
<polygon fill="#000000" stroke="#000000" points="1208.735,-774.3141 1219.3299,-774.3058 1211.0423,-767.7053 1208.735,-774.3141"/>
</g>
<!-- baseLogicalPlan -->
<g id="node31" class="node">
<title>baseLogicalPlan</title>
<polygon fill="none" stroke="#000000" points="1345.7784,-754 1237.7275,-754 1237.7275,-718 1345.7784,-718 1345.7784,-754"/>
<text text-anchor="middle" x="1291.7529" y="-731.8" font-family="Times,serif" font-size="14.00" fill="#000000">baseLogicalPlan</text>
</g>
<!-- findBestTask&#45;&gt;baseLogicalPlan -->
<g id="edge30" class="edge">
<title>findBestTask&#45;&gt;baseLogicalPlan</title>
<path fill="none" stroke="#000000" d="M1147.007,-713.2905C1173.2685,-717.4107 1202.232,-721.9549 1227.3062,-725.8888"/>
<polygon fill="#000000" stroke="#000000" points="1227.0098,-729.385 1237.4314,-727.4774 1228.0948,-722.4696 1227.0098,-729.385"/>
</g>
<!-- Datasource -->
<g id="node32" class="node">
<title>Datasource</title>
<polygon fill="none" stroke="#000000" points="1331.2188,-700 1252.2871,-700 1252.2871,-664 1331.2188,-664 1331.2188,-700"/>
<text text-anchor="middle" x="1291.7529" y="-677.8" font-family="Times,serif" font-size="14.00" fill="#000000">Datasource</text>
</g>
<!-- findBestTask&#45;&gt;Datasource -->
<g id="edge31" class="edge">
<title>findBestTask&#45;&gt;Datasource</title>
<path fill="none" stroke="#000000" d="M1147.007,-694.328C1178.5115,-691.6448 1213.9045,-688.6304 1241.8065,-686.2539"/>
<polygon fill="#000000" stroke="#000000" points="1242.4428,-689.7125 1252.1097,-685.3764 1241.8487,-682.7378 1242.4428,-689.7125"/>
</g>
<!-- doPhysicalProjectionElimination -->
<g id="node28" class="node">
<title>doPhysicalProjectionElimination</title>
<polygon fill="none" stroke="#000000" points="1392.3428,-942 1191.1631,-942 1191.1631,-906 1392.3428,-906 1392.3428,-942"/>
<text text-anchor="middle" x="1291.7529" y="-919.8" font-family="Times,serif" font-size="14.00" fill="#000000">doPhysicalProjectionElimination</text>
</g>
<!-- eliminatePhysicalProjection&#45;&gt;doPhysicalProjectionElimination -->
<g id="edge27" class="edge">
<title>eliminatePhysicalProjection&#45;&gt;doPhysicalProjectionElimination</title>
<path fill="none" stroke="#000000" d="M1135.6445,-888.0073C1153.6505,-892.707 1173.1412,-897.6662 1191.208,-902 1193.5171,-902.5539 1195.8574,-903.1096 1198.2194,-903.6653"/>
<polygon fill="#000000" stroke="#000000" points="1197.4952,-907.0902 1208.0281,-905.9464 1199.0809,-900.2722 1197.4952,-907.0902"/>
</g>
</g>
</svg>
