<?xml version="1.0" encoding="UTF-8" standalone="no"?>
<!DOCTYPE svg PUBLIC "-//W3C//DTD SVG 1.1//EN"
 "http://www.w3.org/Graphics/SVG/1.1/DTD/svg11.dtd">
<!-- Generated by graphviz version 2.44.0 (20200408.0750)
 -->
<!-- Title: pipeline_executor Pages: 1 -->
<svg width="1990pt" height="647pt"
 viewBox="0.00 0.00 1990.00 647.00" xmlns="http://www.w3.org/2000/svg" xmlns:xlink="http://www.w3.org/1999/xlink">
<g id="graph0" class="graph" transform="scale(1 1) rotate(0) translate(4 643)">
<title>pipeline_executor</title>
<polygon fill="white" stroke="transparent" points="-4,4 -4,-643 1986,-643 1986,4 -4,4"/>
<g id="clust6" class="cluster">
<title>cluster_Processor</title>
<polygon fill="none" stroke="black" points="1167,-157 1167,-265 1584.5,-265 1584.5,-157 1167,-157"/>
<text text-anchor="middle" x="1375.75" y="-245" font-family="Times,serif" font-size="20.00">Processor</text>
</g>
<!-- PipelineExecutor -->
<g id="node1" class="node">
<title>PipelineExecutor</title>
<polygon fill="none" stroke="black" points="7.5,-38 7.5,-84 195.5,-84 195.5,-38 7.5,-38"/>
<text text-anchor="middle" x="101.5" y="-68.8" font-family="Times,serif" font-size="14.00">PipelineExecutor</text>
<polyline fill="none" stroke="black" points="7.5,-61 195.5,-61 "/>
<text text-anchor="start" x="15.5" y="-45.8" font-family="Times,serif" font-size="14.00">构造函数, 参数为processors_</text>
</g>
<!-- processors -->
<g id="node10" class="node">
<title>processors</title>
<polygon fill="#95e1d3" stroke="black" points="625,-8 625,-54 771,-54 771,-8 625,-8"/>
<text text-anchor="middle" x="698" y="-38.8" font-family="Times,serif" font-size="14.00">processors</text>
<polyline fill="none" stroke="black" points="625,-31 771,-31 "/>
<text text-anchor="start" x="633" y="-15.8" font-family="Times,serif" font-size="14.00">pipeline中的processors</text>
</g>
<!-- PipelineExecutor&#45;&gt;processors -->
<g id="edge31" class="edge">
<title>PipelineExecutor&#45;&gt;processors</title>
<path fill="none" stroke="#666666" d="M195.72,-56.3C310.91,-50.48 505.09,-40.68 614.9,-35.14"/>
<polygon fill="#666666" stroke="#666666" points="615.12,-38.64 624.93,-34.64 614.77,-31.65 615.12,-38.64"/>
</g>
<!-- buildGraph -->
<g id="node29" class="node">
<title>buildGraph</title>
<polygon fill="none" stroke="black" points="1534.5,-36 1456.5,-36 1456.5,0 1534.5,0 1534.5,-36"/>
<text text-anchor="middle" x="1495.5" y="-14.3" font-family="Times,serif" font-size="14.00">buildGraph</text>
</g>
<!-- PipelineExecutor&#45;&gt;buildGraph -->
<g id="edge32" class="edge">
<title>PipelineExecutor&#45;&gt;buildGraph</title>
<path fill="none" stroke="#666666" d="M195.67,-69.57C270.86,-75.75 379.4,-83 474.5,-83 474.5,-83 474.5,-83 1080.5,-83 1214.36,-83 1369.66,-49.42 1446.43,-30.54"/>
<polygon fill="#666666" stroke="#666666" points="1447.43,-33.89 1456.29,-28.08 1445.74,-27.1 1447.43,-33.89"/>
</g>
<!-- execute -->
<g id="node2" class="node">
<title>execute</title>
<polygon fill="none" stroke="black" points="0,-364 0,-410 203,-410 203,-364 0,-364"/>
<text text-anchor="middle" x="101.5" y="-394.8" font-family="Times,serif" font-size="14.00">execute</text>
<polyline fill="none" stroke="black" points="0,-387 203,-387 "/>
<text text-anchor="start" x="8" y="-371.8" font-family="Times,serif" font-size="14.00">构建DAG图，并行执行pipeline</text>
</g>
<!-- executeImpl -->
<g id="node3" class="node">
<title>executeImpl</title>
<polygon fill="none" stroke="black" points="336.5,-377 252.5,-377 252.5,-341 336.5,-341 336.5,-377"/>
<text text-anchor="middle" x="294.5" y="-355.3" font-family="Times,serif" font-size="14.00">executeImpl</text>
</g>
<!-- execute&#45;&gt;executeImpl -->
<g id="edge1" class="edge">
<title>execute&#45;&gt;executeImpl</title>
<path fill="none" stroke="#666666" d="M203.03,-372.26C216.66,-370.27 230.14,-368.29 242.37,-366.49"/>
<polygon fill="#666666" stroke="#666666" points="242.95,-369.95 252.33,-365.03 241.93,-363.02 242.95,-369.95"/>
</g>
<!-- finalizeExecution -->
<g id="node4" class="node">
<title>finalizeExecution</title>
<polygon fill="none" stroke="black" points="350,-431 239,-431 239,-395 350,-395 350,-431"/>
<text text-anchor="middle" x="294.5" y="-409.3" font-family="Times,serif" font-size="14.00">finalizeExecution</text>
</g>
<!-- execute&#45;&gt;finalizeExecution -->
<g id="edge2" class="edge">
<title>execute&#45;&gt;finalizeExecution</title>
<path fill="none" stroke="#666666" d="M203.03,-400.69C211.72,-401.87 220.36,-403.04 228.65,-404.17"/>
<polygon fill="#666666" stroke="#666666" points="228.19,-407.64 238.57,-405.52 229.13,-400.71 228.19,-407.64"/>
</g>
<!-- executeSingleThread -->
<g id="node5" class="node">
<title>executeSingleThread</title>
<polygon fill="none" stroke="black" points="410,-327 410,-373 541,-373 541,-327 410,-327"/>
<text text-anchor="middle" x="475.5" y="-357.8" font-family="Times,serif" font-size="14.00">executeSingleThread</text>
<polyline fill="none" stroke="black" points="410,-350 541,-350 "/>
<text text-anchor="middle" x="475.5" y="-334.8" font-family="Times,serif" font-size="14.00">在每个线程中执行</text>
</g>
<!-- executeImpl&#45;&gt;executeSingleThread -->
<g id="edge3" class="edge">
<title>executeImpl&#45;&gt;executeSingleThread</title>
<path fill="none" stroke="#666666" d="M336.57,-356.94C355.28,-355.99 378.03,-354.85 399.62,-353.76"/>
<polygon fill="#666666" stroke="#666666" points="399.96,-357.25 409.77,-353.25 399.6,-350.26 399.96,-357.25"/>
</g>
<!-- ThreadFromGlobalPool -->
<g id="node6" class="node">
<title>ThreadFromGlobalPool</title>
<polygon fill="none" stroke="black" points="386,-392 386,-438 565,-438 565,-392 386,-392"/>
<text text-anchor="middle" x="475.5" y="-422.8" font-family="Times,serif" font-size="14.00">ThreadFromGlobalPool</text>
<polyline fill="none" stroke="black" points="386,-415 565,-415 "/>
<text text-anchor="middle" x="475.5" y="-399.8" font-family="Times,serif" font-size="14.00">从global线程池中获取线程</text>
</g>
<!-- executeImpl&#45;&gt;ThreadFromGlobalPool -->
<g id="edge4" class="edge">
<title>executeImpl&#45;&gt;ThreadFromGlobalPool</title>
<path fill="none" stroke="#666666" d="M336.57,-371.85C352.9,-376.96 372.32,-383.03 391.35,-388.99"/>
<polygon fill="#666666" stroke="#666666" points="390.36,-392.34 400.94,-391.99 392.45,-385.66 390.36,-392.34"/>
</g>
<!-- executeStepImpl -->
<g id="node7" class="node">
<title>executeStepImpl</title>
<polygon fill="none" stroke="black" points="601,-386 601,-432 795,-432 795,-386 601,-386"/>
<text text-anchor="middle" x="698" y="-416.8" font-family="Times,serif" font-size="14.00">executeStepImpl</text>
<polyline fill="none" stroke="black" points="601,-409 795,-409 "/>
<text text-anchor="start" x="609" y="-393.8" font-family="Times,serif" font-size="14.00">从task_queue中取出job并执行</text>
</g>
<!-- executeSingleThread&#45;&gt;executeStepImpl -->
<g id="edge5" class="edge">
<title>executeSingleThread&#45;&gt;executeStepImpl</title>
<path fill="none" stroke="#666666" d="M541.17,-367.3C559.95,-372.33 580.88,-377.93 601.14,-383.35"/>
<polygon fill="#666666" stroke="#666666" points="600.46,-386.79 611.03,-386 602.27,-380.03 600.46,-386.79"/>
</g>
<!-- task_queue -->
<g id="node9" class="node">
<title>task_queue</title>
<polygon fill="#95e1d3" stroke="black" points="1849,-460 1849,-506 1926,-506 1926,-460 1849,-460"/>
<text text-anchor="middle" x="1887.5" y="-490.8" font-family="Times,serif" font-size="14.00">task_queue</text>
<polyline fill="none" stroke="black" points="1849,-483 1926,-483 "/>
<text text-anchor="middle" x="1887.5" y="-467.8" font-family="Times,serif" font-size="14.00">任务队列</text>
</g>
<!-- executeStepImpl&#45;&gt;task_queue -->
<g id="edge7" class="edge">
<title>executeStepImpl&#45;&gt;task_queue</title>
<path fill="none" stroke="#b83b5e" d="M745.33,-432.07C815.55,-464.86 953.99,-521 1078.5,-521 1078.5,-521 1078.5,-521 1496.5,-521 1620.34,-521 1765.27,-501.78 1838.67,-490.68"/>
<polygon fill="#b83b5e" stroke="#b83b5e" points="1839.61,-494.08 1848.97,-489.11 1838.56,-487.16 1839.61,-494.08"/>
</g>
<!-- state_job -->
<g id="node11" class="node">
<title>state_job</title>
<polygon fill="none" stroke="black" points="1020,-205 1020,-251 1139,-251 1139,-205 1020,-205"/>
<text text-anchor="middle" x="1079.5" y="-235.8" font-family="Times,serif" font-size="14.00">state_job</text>
<polyline fill="none" stroke="black" points="1020,-228 1139,-228 "/>
<text text-anchor="middle" x="1079.5" y="-212.8" font-family="Times,serif" font-size="14.00">执行队列中的job</text>
</g>
<!-- executeStepImpl&#45;&gt;state_job -->
<g id="edge8" class="edge">
<title>executeStepImpl&#45;&gt;state_job</title>
<path fill="none" stroke="#b83b5e" d="M715.06,-386C737.41,-355.88 780.83,-303.79 831,-277 861.33,-260.8 947.56,-246.04 1009.71,-237.05"/>
<polygon fill="#b83b5e" stroke="#b83b5e" points="1010.44,-240.48 1019.85,-235.6 1009.45,-233.55 1010.44,-240.48"/>
</g>
<!-- wakeUpExecutor -->
<g id="node13" class="node">
<title>wakeUpExecutor</title>
<polygon fill="none" stroke="black" points="962.5,-230 852.5,-230 852.5,-194 962.5,-194 962.5,-230"/>
<text text-anchor="middle" x="907.5" y="-208.3" font-family="Times,serif" font-size="14.00">wakeUpExecutor</text>
</g>
<!-- executeStepImpl&#45;&gt;wakeUpExecutor -->
<g id="edge9" class="edge">
<title>executeStepImpl&#45;&gt;wakeUpExecutor</title>
<path fill="none" stroke="#b83b5e" d="M712.37,-385.72C733.52,-350.71 777.79,-284.32 831,-244 835.4,-240.67 840.19,-237.61 845.17,-234.82"/>
<polygon fill="#b83b5e" stroke="#b83b5e" points="847,-237.81 854.26,-230.09 843.77,-231.6 847,-237.81"/>
</g>
<!-- finish -->
<g id="node14" class="node">
<title>finish</title>
<polygon fill="none" stroke="black" points="934.5,-639 880.5,-639 880.5,-603 934.5,-603 934.5,-639"/>
<text text-anchor="middle" x="907.5" y="-617.3" font-family="Times,serif" font-size="14.00">finish</text>
</g>
<!-- executeStepImpl&#45;&gt;finish -->
<g id="edge10" class="edge">
<title>executeStepImpl&#45;&gt;finish</title>
<path fill="none" stroke="#b83b5e" d="M709.62,-432.07C728.61,-470.89 771.98,-549.39 831,-594 842.59,-602.76 857.29,-608.87 870.62,-613.03"/>
<polygon fill="#b83b5e" stroke="#b83b5e" points="869.91,-616.46 880.48,-615.84 871.83,-609.73 869.91,-616.46"/>
</g>
<!-- addJob -->
<g id="node15" class="node">
<title>addJob</title>
<polygon fill="none" stroke="black" points="935,-322 880,-322 880,-286 935,-286 935,-322"/>
<text text-anchor="middle" x="907.5" y="-300.3" font-family="Times,serif" font-size="14.00">addJob</text>
</g>
<!-- executeStepImpl&#45;&gt;addJob -->
<g id="edge11" class="edge">
<title>executeStepImpl&#45;&gt;addJob</title>
<path fill="none" stroke="#b83b5e" d="M738.29,-385.86C764.24,-370.93 799.21,-351.47 831,-336 843.75,-329.79 858.01,-323.57 870.67,-318.29"/>
<polygon fill="#b83b5e" stroke="#b83b5e" points="872.08,-321.49 879.99,-314.44 869.41,-315.02 872.08,-321.49"/>
</g>
<!-- doExpandPipeline -->
<g id="node16" class="node">
<title>doExpandPipeline</title>
<polygon fill="none" stroke="black" points="1314.5,-401 1198.5,-401 1198.5,-365 1314.5,-365 1314.5,-401"/>
<text text-anchor="middle" x="1256.5" y="-379.3" font-family="Times,serif" font-size="14.00">doExpandPipeline</text>
</g>
<!-- executeStepImpl&#45;&gt;doExpandPipeline -->
<g id="edge12" class="edge">
<title>executeStepImpl&#45;&gt;doExpandPipeline</title>
<path fill="none" stroke="#b83b5e" d="M761.58,-432.08C783.25,-438.96 807.91,-445.58 831,-449 960.56,-468.2 1112.13,-430 1194.54,-404.12"/>
<polygon fill="#b83b5e" stroke="#b83b5e" points="1195.78,-407.4 1204.24,-401.03 1193.65,-400.73 1195.78,-407.4"/>
</g>
<!-- prepareProcessor -->
<g id="node17" class="node">
<title>prepareProcessor</title>
<polygon fill="none" stroke="black" points="1134.5,-306 1024.5,-306 1024.5,-270 1134.5,-270 1134.5,-306"/>
<text text-anchor="middle" x="1079.5" y="-284.3" font-family="Times,serif" font-size="14.00">prepareProcessor</text>
</g>
<!-- executeStepImpl&#45;&gt;prepareProcessor -->
<g id="edge13" class="edge">
<title>executeStepImpl&#45;&gt;prepareProcessor</title>
<path fill="none" stroke="#b83b5e" d="M772.81,-385.91C791.72,-380.19 812.07,-374.22 831,-369 898.55,-350.39 917.83,-354.05 984,-331 1000.49,-325.25 1018.04,-317.7 1033.48,-310.53"/>
<polygon fill="#b83b5e" stroke="#b83b5e" points="1035.24,-313.56 1042.79,-306.13 1032.25,-307.23 1035.24,-313.56"/>
</g>
<!-- getAnyThreadWithTasks -->
<g id="node18" class="node">
<title>getAnyThreadWithTasks</title>
<polygon fill="none" stroke="black" points="984,-585 831,-585 831,-549 984,-549 984,-585"/>
<text text-anchor="middle" x="907.5" y="-563.3" font-family="Times,serif" font-size="14.00">getAnyThreadWithTasks</text>
</g>
<!-- executeStepImpl&#45;&gt;getAnyThreadWithTasks -->
<g id="edge14" class="edge">
<title>executeStepImpl&#45;&gt;getAnyThreadWithTasks</title>
<path fill="none" stroke="#b83b5e" d="M718.44,-432.09C742.55,-459.56 785.99,-505.42 831,-535 836.23,-538.44 841.89,-541.64 847.68,-544.58"/>
<polygon fill="#b83b5e" stroke="#b83b5e" points="846.31,-547.81 856.84,-549 849.35,-541.5 846.31,-547.81"/>
</g>
<!-- initializeExecution -->
<g id="node19" class="node">
<title>initializeExecution</title>
<polygon fill="none" stroke="black" points="843.5,-378.5 843.5,-439.5 971.5,-439.5 971.5,-378.5 843.5,-378.5"/>
<text text-anchor="middle" x="907.5" y="-424.3" font-family="Times,serif" font-size="14.00">initializeExecution</text>
<polyline fill="none" stroke="black" points="843.5,-416.5 971.5,-416.5 "/>
<text text-anchor="start" x="851.5" y="-401.3" font-family="Times,serif" font-size="14.00">将graph中processor</text>
<text text-anchor="start" x="851.5" y="-386.3" font-family="Times,serif" font-size="14.00"> 放入task_queue中</text>
</g>
<!-- executeStepImpl&#45;&gt;initializeExecution -->
<g id="edge15" class="edge">
<title>executeStepImpl&#45;&gt;initializeExecution</title>
<path fill="none" stroke="#b83b5e" d="M795.16,-409C807.91,-409 820.82,-409 833.11,-409"/>
<polygon fill="#b83b5e" stroke="#b83b5e" points="833.26,-412.5 843.26,-409 833.26,-405.5 833.26,-412.5"/>
</g>
<!-- depgraph -->
<g id="node8" class="node">
<title>depgraph</title>
<polygon fill="#95e1d3" stroke="black" points="1660.5,-262 1660.5,-308 1749.5,-308 1749.5,-262 1660.5,-262"/>
<text text-anchor="middle" x="1705" y="-292.8" font-family="Times,serif" font-size="14.00">graph</text>
<polyline fill="none" stroke="black" points="1660.5,-285 1749.5,-285 "/>
<text text-anchor="middle" x="1705" y="-269.8" font-family="Times,serif" font-size="14.00">DAG依赖图</text>
</g>
<!-- depgraph&#45;&gt;task_queue -->
<g id="edge39" class="edge">
<title>depgraph&#45;&gt;task_queue</title>
<path fill="none" stroke="#666666" stroke-dasharray="5,2" d="M1727.06,-308.1C1759.58,-343.77 1822.05,-412.3 1858.39,-452.17"/>
<polygon fill="#666666" stroke="#666666" points="1855.97,-454.71 1865.3,-459.74 1861.15,-449.99 1855.97,-454.71"/>
</g>
<!-- addChildlessProcessorsToStack -->
<g id="node24" class="node">
<title>addChildlessProcessorsToStack</title>
<polygon fill="none" stroke="black" points="1982,-329 1793,-329 1793,-293 1982,-293 1982,-329"/>
<text text-anchor="middle" x="1887.5" y="-307.3" font-family="Times,serif" font-size="14.00">addChildlessProcessorsToStack</text>
</g>
<!-- depgraph&#45;&gt;addChildlessProcessorsToStack -->
<g id="edge37" class="edge">
<title>depgraph&#45;&gt;addChildlessProcessorsToStack</title>
<path fill="none" stroke="#666666" d="M1749.69,-291.29C1759.86,-292.76 1771.12,-294.38 1782.67,-296.04"/>
<polygon fill="#666666" stroke="#666666" points="1782.49,-299.55 1792.89,-297.52 1783.49,-292.63 1782.49,-299.55"/>
</g>
<!-- processors&#45;&gt;depgraph -->
<g id="edge38" class="edge">
<title>processors&#45;&gt;depgraph</title>
<path fill="none" stroke="#666666" stroke-dasharray="5,2" d="M771.3,-32.47C975.78,-37.18 1547.92,-54.53 1617,-102 1618.69,-103.16 1664.27,-200.14 1688.76,-252.43"/>
<polygon fill="#666666" stroke="#666666" points="1685.67,-254.07 1693.08,-261.64 1692.01,-251.1 1685.67,-254.07"/>
</g>
<!-- executeJob -->
<g id="node20" class="node">
<title>executeJob</title>
<polygon fill="none" stroke="black" points="1295,-147 1218,-147 1218,-111 1295,-111 1295,-147"/>
<text text-anchor="middle" x="1256.5" y="-125.3" font-family="Times,serif" font-size="14.00">executeJob</text>
</g>
<!-- state_job&#45;&gt;executeJob -->
<g id="edge17" class="edge">
<title>state_job&#45;&gt;executeJob</title>
<path fill="none" stroke="#666666" d="M1101.52,-204.87C1117.86,-188.2 1141.92,-166.37 1167,-153 1179.66,-146.25 1194.38,-141.28 1208.13,-137.67"/>
<polygon fill="#666666" stroke="#666666" points="1209.05,-141.05 1217.93,-135.28 1207.39,-134.25 1209.05,-141.05"/>
</g>
<!-- executeStep -->
<g id="node12" class="node">
<title>executeStep</title>
<polygon fill="none" stroke="black" points="142.5,-485 60.5,-485 60.5,-449 142.5,-449 142.5,-485"/>
<text text-anchor="middle" x="101.5" y="-463.3" font-family="Times,serif" font-size="14.00">executeStep</text>
</g>
<!-- executeStep&#45;&gt;executeStepImpl -->
<g id="edge6" class="edge">
<title>executeStep&#45;&gt;executeStepImpl</title>
<path fill="none" stroke="#666666" d="M142.74,-468.65C223.45,-471.24 410.6,-473.58 565,-448 583.38,-444.95 602.82,-440.15 620.95,-434.93"/>
<polygon fill="#666666" stroke="#666666" points="621.99,-438.27 630.59,-432.09 620.01,-431.56 621.99,-438.27"/>
</g>
<!-- addJob&#45;&gt;state_job -->
<g id="edge16" class="edge">
<title>addJob&#45;&gt;state_job</title>
<path fill="none" stroke="#666666" stroke-dasharray="5,2" d="M935.15,-292.97C949.65,-286.9 967.87,-279.17 984,-272 995.86,-266.73 1008.49,-260.96 1020.53,-255.38"/>
<polygon fill="#666666" stroke="#666666" points="1022.01,-258.55 1029.6,-251.16 1019.06,-252.2 1022.01,-258.55"/>
</g>
<!-- expandPipeline -->
<g id="node25" class="node">
<title>expandPipeline</title>
<polygon fill="none" stroke="black" points="1545.5,-309 1445.5,-309 1445.5,-273 1545.5,-273 1545.5,-309"/>
<text text-anchor="middle" x="1495.5" y="-287.3" font-family="Times,serif" font-size="14.00">expandPipeline</text>
</g>
<!-- doExpandPipeline&#45;&gt;expandPipeline -->
<g id="edge26" class="edge">
<title>doExpandPipeline&#45;&gt;expandPipeline</title>
<path fill="none" stroke="#666666" d="M1304.04,-364.93C1342.6,-349.96 1397.53,-328.64 1438.5,-312.74"/>
<polygon fill="#666666" stroke="#666666" points="1440.01,-315.91 1448.07,-309.03 1437.48,-309.38 1440.01,-315.91"/>
</g>
<!-- condvar_wait -->
<g id="node26" class="node">
<title>condvar_wait</title>
<polygon fill="none" stroke="black" points="1540.5,-401 1450.5,-401 1450.5,-365 1540.5,-365 1540.5,-401"/>
<text text-anchor="middle" x="1495.5" y="-379.3" font-family="Times,serif" font-size="14.00">condvar_wait</text>
</g>
<!-- doExpandPipeline&#45;&gt;condvar_wait -->
<g id="edge27" class="edge">
<title>doExpandPipeline&#45;&gt;condvar_wait</title>
<path fill="none" stroke="#666666" d="M1314.57,-383C1352.63,-383 1402.38,-383 1439.91,-383"/>
<polygon fill="#666666" stroke="#666666" points="1440.16,-386.5 1450.16,-383 1440.16,-379.5 1440.16,-386.5"/>
</g>
<!-- condvar_notify_all -->
<g id="node27" class="node">
<title>condvar_notify_all</title>
<polygon fill="none" stroke="black" points="1555,-455 1436,-455 1436,-419 1555,-419 1555,-455"/>
<text text-anchor="middle" x="1495.5" y="-433.3" font-family="Times,serif" font-size="14.00">condvar_notify_all</text>
</g>
<!-- doExpandPipeline&#45;&gt;condvar_notify_all -->
<g id="edge28" class="edge">
<title>doExpandPipeline&#45;&gt;condvar_notify_all</title>
<path fill="none" stroke="#666666" d="M1314.66,-396.34C1333.55,-400.72 1354.67,-405.59 1374,-410 1390.86,-413.84 1409.06,-417.94 1426.08,-421.76"/>
<polygon fill="#666666" stroke="#666666" points="1425.43,-425.2 1435.95,-423.97 1426.96,-418.37 1425.43,-425.2"/>
</g>
<!-- prepareProcessor&#45;&gt;doExpandPipeline -->
<g id="edge23" class="edge">
<title>prepareProcessor&#45;&gt;doExpandPipeline</title>
<path fill="none" stroke="#666666" d="M1113.83,-306.09C1142.05,-321.41 1182.66,-343.46 1213.18,-360.02"/>
<polygon fill="#666666" stroke="#666666" points="1211.84,-363.28 1222.3,-364.97 1215.18,-357.13 1211.84,-363.28"/>
</g>
<!-- prepareProcessor&#45;&gt;prepareProcessor -->
<g id="edge24" class="edge">
<title>prepareProcessor&#45;&gt;prepareProcessor</title>
<path fill="none" stroke="#666666" d="M1048.38,-306.15C1043.6,-315.54 1053.97,-324 1079.5,-324 1095.06,-324 1104.99,-320.86 1109.29,-316.28"/>
<polygon fill="#666666" stroke="#666666" points="1112.78,-316.52 1110.62,-306.15 1105.84,-315.61 1112.78,-316.52"/>
</g>
<!-- processor_prepare -->
<g id="node23" class="node">
<title>processor_prepare</title>
<polygon fill="none" stroke="black" points="1175,-165.5 1175,-226.5 1338,-226.5 1338,-165.5 1175,-165.5"/>
<text text-anchor="middle" x="1256.5" y="-211.3" font-family="Times,serif" font-size="14.00">prepare</text>
<polyline fill="none" stroke="black" points="1175,-203.5 1338,-203.5 "/>
<text text-anchor="start" x="1183" y="-188.3" font-family="Times,serif" font-size="14.00">prepare返回Ready状态后</text>
<text text-anchor="start" x="1183" y="-173.3" font-family="Times,serif" font-size="14.00"> 才能调用work</text>
</g>
<!-- prepareProcessor&#45;&gt;processor_prepare -->
<g id="edge25" class="edge">
<title>prepareProcessor&#45;&gt;processor_prepare</title>
<path fill="none" stroke="#666666" d="M1120.66,-269.96C1126.84,-267.04 1133.12,-263.99 1139,-261 1156.93,-251.88 1176.1,-241.46 1193.61,-231.68"/>
<polygon fill="#666666" stroke="#666666" points="1195.6,-234.58 1202.6,-226.64 1192.17,-228.48 1195.6,-234.58"/>
</g>
<!-- initializeExecution&#45;&gt;task_queue -->
<g id="edge20" class="edge">
<title>initializeExecution&#45;&gt;task_queue</title>
<path fill="none" stroke="#666666" d="M971.59,-418.09C1060.94,-430.59 1229.58,-452.81 1374,-464 1544.57,-477.22 1747.8,-481.3 1838.58,-482.51"/>
<polygon fill="#666666" stroke="#666666" points="1838.78,-486.01 1848.83,-482.64 1838.87,-479.01 1838.78,-486.01"/>
</g>
<!-- initializeExecution&#45;&gt;prepareProcessor -->
<g id="edge21" class="edge">
<title>initializeExecution&#45;&gt;prepareProcessor</title>
<path fill="none" stroke="#666666" d="M961.89,-378.45C969.42,-373.77 976.98,-368.88 984,-364 1006.94,-348.06 1031.48,-328.23 1049.81,-312.82"/>
<polygon fill="#666666" stroke="#666666" points="1052.39,-315.21 1057.76,-306.08 1047.87,-309.87 1052.39,-315.21"/>
</g>
<!-- initializeExecution&#45;&gt;addChildlessProcessorsToStack -->
<g id="edge22" class="edge">
<title>initializeExecution&#45;&gt;addChildlessProcessorsToStack</title>
<path fill="none" stroke="#666666" d="M971.55,-393.5C1023.64,-381.32 1099.68,-364.96 1167,-356 1226.27,-348.11 1598.02,-326.92 1782.67,-316.69"/>
<polygon fill="#666666" stroke="#666666" points="1782.88,-320.18 1792.67,-316.13 1782.49,-313.19 1782.88,-320.18"/>
</g>
<!-- processor_work -->
<g id="node21" class="node">
<title>processor_work</title>
<polygon fill="#f38181" stroke="black" points="1414.5,-166 1414.5,-212 1576.5,-212 1576.5,-166 1414.5,-166"/>
<text text-anchor="middle" x="1495.5" y="-196.8" font-family="Times,serif" font-size="14.00">work</text>
<polyline fill="none" stroke="black" points="1414.5,-189 1576.5,-189 "/>
<text text-anchor="start" x="1422.5" y="-173.8" font-family="Times,serif" font-size="14.00">虚函数,执行具体的work</text>
</g>
<!-- executeJob&#45;&gt;processor_work -->
<g id="edge18" class="edge">
<title>executeJob&#45;&gt;processor_work</title>
<path fill="none" stroke="#666666" d="M1295.05,-138.51C1324.41,-145.94 1366.46,-156.58 1404.39,-166.19"/>
<polygon fill="#666666" stroke="#666666" points="1403.89,-169.67 1414.44,-168.73 1405.61,-162.88 1403.89,-169.67"/>
</g>
<!-- checkCanAddAdditionalInfoToException -->
<g id="node22" class="node">
<title>checkCanAddAdditionalInfoToException</title>
<polygon fill="none" stroke="black" points="1617,-147 1374,-147 1374,-111 1617,-111 1617,-147"/>
<text text-anchor="middle" x="1495.5" y="-125.3" font-family="Times,serif" font-size="14.00">checkCanAddAdditionalInfoToException</text>
</g>
<!-- executeJob&#45;&gt;checkCanAddAdditionalInfoToException -->
<g id="edge19" class="edge">
<title>executeJob&#45;&gt;checkCanAddAdditionalInfoToException</title>
<path fill="none" stroke="#666666" d="M1295.05,-129C1314.12,-129 1338.55,-129 1363.73,-129"/>
<polygon fill="#666666" stroke="#666666" points="1363.78,-132.5 1373.78,-129 1363.78,-125.5 1363.78,-132.5"/>
</g>
<!-- expandPipeline&#45;&gt;depgraph -->
<g id="edge29" class="edge">
<title>expandPipeline&#45;&gt;depgraph</title>
<path fill="none" stroke="#666666" d="M1545.67,-289.58C1577.14,-288.67 1617.98,-287.49 1650.29,-286.55"/>
<polygon fill="#666666" stroke="#666666" points="1650.57,-290.05 1660.46,-286.26 1650.37,-283.05 1650.57,-290.05"/>
</g>
<!-- addEdges -->
<g id="node28" class="node">
<title>addEdges</title>
<polygon fill="none" stroke="black" points="1739.5,-167 1670.5,-167 1670.5,-131 1739.5,-131 1739.5,-167"/>
<text text-anchor="middle" x="1705" y="-145.3" font-family="Times,serif" font-size="14.00">addEdges</text>
</g>
<!-- expandPipeline&#45;&gt;addEdges -->
<g id="edge30" class="edge">
<title>expandPipeline&#45;&gt;addEdges</title>
<path fill="none" stroke="#666666" d="M1545.58,-290.34C1568.74,-288.04 1595.86,-282.32 1617,-269 1652.45,-246.67 1678,-204.21 1691.9,-176.25"/>
<polygon fill="#666666" stroke="#666666" points="1695.16,-177.56 1696.33,-167.03 1688.85,-174.53 1695.16,-177.56"/>
</g>
<!-- setUpdateInfo -->
<g id="node31" class="node">
<title>setUpdateInfo</title>
<polygon fill="none" stroke="black" points="1934,-167 1841,-167 1841,-131 1934,-131 1934,-167"/>
<text text-anchor="middle" x="1887.5" y="-145.3" font-family="Times,serif" font-size="14.00">setUpdateInfo</text>
</g>
<!-- addEdges&#45;&gt;setUpdateInfo -->
<g id="edge36" class="edge">
<title>addEdges&#45;&gt;setUpdateInfo</title>
<path fill="none" stroke="#666666" d="M1739.53,-149C1765.06,-149 1800.79,-149 1830.62,-149"/>
<polygon fill="#666666" stroke="#666666" points="1830.9,-152.5 1840.9,-149 1830.9,-145.5 1830.9,-152.5"/>
</g>
<!-- buildGraph&#45;&gt;depgraph -->
<g id="edge33" class="edge">
<title>buildGraph&#45;&gt;depgraph</title>
<path fill="none" stroke="#666666" d="M1534.7,-18.66C1561.12,-21.14 1595.3,-28.7 1617,-50 1658.57,-90.8 1632.59,-121.45 1653,-176 1662.88,-202.42 1676.53,-231.29 1687.22,-252.68"/>
<polygon fill="#666666" stroke="#666666" points="1684.12,-254.3 1691.75,-261.65 1690.36,-251.15 1684.12,-254.3"/>
</g>
<!-- buildGraph&#45;&gt;addEdges -->
<g id="edge34" class="edge">
<title>buildGraph&#45;&gt;addEdges</title>
<path fill="none" stroke="#666666" d="M1534.61,-22.28C1559.53,-26.43 1591.98,-34.5 1617,-50 1646.53,-68.3 1671.64,-99.72 1687.18,-122.26"/>
<polygon fill="#666666" stroke="#666666" points="1684.37,-124.36 1692.85,-130.71 1690.19,-120.46 1684.37,-124.36"/>
</g>
<!-- processors_map -->
<g id="node30" class="node">
<title>processors_map</title>
<polygon fill="none" stroke="black" points="1757,-36 1653,-36 1653,0 1757,0 1757,-36"/>
<text text-anchor="middle" x="1705" y="-14.3" font-family="Times,serif" font-size="14.00">processors_map</text>
</g>
<!-- buildGraph&#45;&gt;processors_map -->
<g id="edge35" class="edge">
<title>buildGraph&#45;&gt;processors_map</title>
<path fill="none" stroke="#666666" d="M1534.56,-18C1564.8,-18 1607.69,-18 1642.76,-18"/>
<polygon fill="#666666" stroke="#666666" points="1642.89,-21.5 1652.89,-18 1642.89,-14.5 1642.89,-21.5"/>
</g>
</g>
</svg>
