<?xml version="1.0" encoding="UTF-8" standalone="no"?>
<!DOCTYPE svg PUBLIC "-//W3C//DTD SVG 1.1//EN"
 "http://www.w3.org/Graphics/SVG/1.1/DTD/svg11.dtd">
<!-- Generated by graphviz version 2.49.3 (20211023.0002)
 -->
<!-- Title: dig Pages: 1 -->
<svg width="999pt" height="2096pt"
 viewBox="0.00 0.00 999.00 2096.00" xmlns="http://www.w3.org/2000/svg" xmlns:xlink="http://www.w3.org/1999/xlink">
<g id="graph0" class="graph" transform="scale(1 1) rotate(0) translate(4 2092)">
<title>dig</title>
<polygon fill="white" stroke="transparent" points="-4,4 -4,-2092 995,-2092 995,4 -4,4"/>
<!-- GcsServer -->
<g id="node1" class="node">
<title>GcsServer</title>
<path fill="none" stroke="#1c2123" d="M63,-1251C63,-1251 12,-1251 12,-1251 6,-1251 0,-1245 0,-1239 0,-1239 0,-1227 0,-1227 0,-1221 6,-1215 12,-1215 12,-1215 63,-1215 63,-1215 69,-1215 75,-1221 75,-1227 75,-1227 75,-1239 75,-1239 75,-1245 69,-1251 63,-1251"/>
<text text-anchor="middle" x="37.5" y="-1229.3" font-family="Times,serif" font-size="14.00" fill="#2f3638">GcsServer</text>
</g>
<!-- GcsServerConfig -->
<g id="node2" class="node">
<title>GcsServerConfig</title>
<path fill="none" stroke="#1c2123" d="M273.5,-2088C273.5,-2088 184.5,-2088 184.5,-2088 178.5,-2088 172.5,-2082 172.5,-2076 172.5,-2076 172.5,-2064 172.5,-2064 172.5,-2058 178.5,-2052 184.5,-2052 184.5,-2052 273.5,-2052 273.5,-2052 279.5,-2052 285.5,-2058 285.5,-2064 285.5,-2064 285.5,-2076 285.5,-2076 285.5,-2082 279.5,-2088 273.5,-2088"/>
<text text-anchor="middle" x="229" y="-2066.3" font-family="Times,serif" font-size="14.00" fill="#2f3638">GcsServerConfig</text>
</g>
<!-- GcsServer&#45;&gt;GcsServerConfig -->
<g id="edge1" class="edge">
<title>GcsServer&#45;&gt;GcsServerConfig</title>
<path fill="none" stroke="#666666" d="M38.87,-1251.03C41.34,-1364.85 57.15,-1981.19 111,-2043 123.88,-2057.79 143.1,-2065.36 162.26,-2069.01"/>
<polygon fill="#666666" stroke="#666666" points="161.82,-2072.48 172.24,-2070.58 162.91,-2065.57 161.82,-2072.48"/>
</g>
<!-- instrumented_io_context -->
<g id="node3" class="node">
<title>instrumented_io_context</title>
<path fill="none" stroke="#1c2123" d="M295,-2034C295,-2034 163,-2034 163,-2034 157,-2034 151,-2028 151,-2022 151,-2022 151,-2010 151,-2010 151,-2004 157,-1998 163,-1998 163,-1998 295,-1998 295,-1998 301,-1998 307,-2004 307,-2010 307,-2010 307,-2022 307,-2022 307,-2028 301,-2034 295,-2034"/>
<text text-anchor="middle" x="229" y="-2012.3" font-family="Times,serif" font-size="14.00" fill="#2f3638">instrumented_io_context</text>
</g>
<!-- GcsServer&#45;&gt;instrumented_io_context -->
<g id="edge2" class="edge">
<title>GcsServer&#45;&gt;instrumented_io_context</title>
<path fill="none" stroke="#666666" d="M38.99,-1251.23C42.12,-1361.03 60.75,-1931.68 111,-1989 119.05,-1998.18 129.55,-2004.58 140.95,-2008.98"/>
<polygon fill="#666666" stroke="#666666" points="140.11,-2012.39 150.7,-2012.23 142.32,-2005.75 140.11,-2012.39"/>
</g>
<!-- rpc__GrpcServer -->
<g id="node4" class="node">
<title>rpc__GrpcServer</title>
<path fill="none" stroke="#1c2123" d="M273.5,-1980C273.5,-1980 184.5,-1980 184.5,-1980 178.5,-1980 172.5,-1974 172.5,-1968 172.5,-1968 172.5,-1956 172.5,-1956 172.5,-1950 178.5,-1944 184.5,-1944 184.5,-1944 273.5,-1944 273.5,-1944 279.5,-1944 285.5,-1950 285.5,-1956 285.5,-1956 285.5,-1968 285.5,-1968 285.5,-1974 279.5,-1980 273.5,-1980"/>
<text text-anchor="middle" x="229" y="-1958.3" font-family="Times,serif" font-size="14.00" fill="#2f3638">rpc__GrpcServer</text>
</g>
<!-- GcsServer&#45;&gt;rpc__GrpcServer -->
<g id="edge3" class="edge">
<title>GcsServer&#45;&gt;rpc__GrpcServer</title>
<path fill="none" stroke="#666666" d="M39.14,-1251.27C42.96,-1356.49 64.31,-1882.14 111,-1935 123.99,-1949.7 143.23,-1957.24 162.38,-1960.9"/>
<polygon fill="#666666" stroke="#666666" points="161.93,-1964.38 172.36,-1962.48 163.02,-1957.46 161.93,-1964.38"/>
</g>
<!-- rpc__ClientCallManager -->
<g id="node5" class="node">
<title>rpc__ClientCallManager</title>
<path fill="none" stroke="#1c2123" d="M295,-1926C295,-1926 163,-1926 163,-1926 157,-1926 151,-1920 151,-1914 151,-1914 151,-1902 151,-1902 151,-1896 157,-1890 163,-1890 163,-1890 295,-1890 295,-1890 301,-1890 307,-1896 307,-1902 307,-1902 307,-1914 307,-1914 307,-1920 301,-1926 295,-1926"/>
<text text-anchor="middle" x="229" y="-1904.3" font-family="Times,serif" font-size="14.00" fill="#2f3638">rpc__ClientCallManager</text>
</g>
<!-- GcsServer&#45;&gt;rpc__ClientCallManager -->
<g id="edge4" class="edge">
<title>GcsServer&#45;&gt;rpc__ClientCallManager</title>
<path fill="none" stroke="#666666" d="M39.3,-1251.16C43.84,-1351.22 67.85,-1832.55 111,-1881 119.12,-1890.12 129.66,-1896.48 141.08,-1900.87"/>
<polygon fill="#666666" stroke="#666666" points="140.25,-1904.28 150.84,-1904.1 142.45,-1897.63 140.25,-1904.28"/>
</g>
<!-- rpc__NodeManagerClientPool -->
<g id="node6" class="node">
<title>rpc__NodeManagerClientPool</title>
<path fill="none" stroke="#1c2123" d="M311,-1872C311,-1872 147,-1872 147,-1872 141,-1872 135,-1866 135,-1860 135,-1860 135,-1848 135,-1848 135,-1842 141,-1836 147,-1836 147,-1836 311,-1836 311,-1836 317,-1836 323,-1842 323,-1848 323,-1848 323,-1860 323,-1860 323,-1866 317,-1872 311,-1872"/>
<text text-anchor="middle" x="229" y="-1850.3" font-family="Times,serif" font-size="14.00" fill="#2f3638">rpc__NodeManagerClientPool</text>
</g>
<!-- GcsServer&#45;&gt;rpc__NodeManagerClientPool -->
<g id="edge5" class="edge">
<title>GcsServer&#45;&gt;rpc__NodeManagerClientPool</title>
<path fill="none" stroke="#666666" d="M39.49,-1251.18C44.83,-1346.2 71.39,-1782.98 111,-1827 115.35,-1831.83 120.37,-1835.88 125.84,-1839.28"/>
<polygon fill="#666666" stroke="#666666" points="124.31,-1842.43 134.77,-1844.09 127.63,-1836.27 124.31,-1842.43"/>
</g>
<!-- GcsResourceManager -->
<g id="node7" class="node">
<title>GcsResourceManager</title>
<path fill="none" stroke="#1c2123" d="M287,-1818C287,-1818 171,-1818 171,-1818 165,-1818 159,-1812 159,-1806 159,-1806 159,-1794 159,-1794 159,-1788 165,-1782 171,-1782 171,-1782 287,-1782 287,-1782 293,-1782 299,-1788 299,-1794 299,-1794 299,-1806 299,-1806 299,-1812 293,-1818 287,-1818"/>
<text text-anchor="middle" x="229" y="-1796.3" font-family="Times,serif" font-size="14.00" fill="#2f3638">GcsResourceManager</text>
</g>
<!-- GcsServer&#45;&gt;GcsResourceManager -->
<g id="edge6" class="edge">
<title>GcsServer&#45;&gt;GcsResourceManager</title>
<path fill="none" stroke="#666666" d="M38.28,-1251.09C37.64,-1336.01 39.27,-1694.24 111,-1773 121.04,-1784.02 134.59,-1790.99 148.92,-1795.31"/>
<polygon fill="#666666" stroke="#666666" points="148.37,-1798.79 158.93,-1797.9 150.12,-1792.01 148.37,-1798.79"/>
</g>
<!-- GcsResourceScheduler -->
<g id="node8" class="node">
<title>GcsResourceScheduler</title>
<path fill="none" stroke="#1c2123" d="M290,-1764C290,-1764 168,-1764 168,-1764 162,-1764 156,-1758 156,-1752 156,-1752 156,-1740 156,-1740 156,-1734 162,-1728 168,-1728 168,-1728 290,-1728 290,-1728 296,-1728 302,-1734 302,-1740 302,-1740 302,-1752 302,-1752 302,-1758 296,-1764 290,-1764"/>
<text text-anchor="middle" x="229" y="-1742.3" font-family="Times,serif" font-size="14.00" fill="#2f3638">GcsResourceScheduler</text>
</g>
<!-- GcsServer&#45;&gt;GcsResourceScheduler -->
<g id="edge7" class="edge">
<title>GcsServer&#45;&gt;GcsResourceScheduler</title>
<path fill="none" stroke="#666666" d="M38.58,-1251.12C39.31,-1330.79 46.29,-1648.99 111,-1719 120.39,-1729.16 132.78,-1735.87 145.98,-1740.23"/>
<polygon fill="#666666" stroke="#666666" points="145.13,-1743.63 155.71,-1743.01 147.05,-1736.9 145.13,-1743.63"/>
</g>
<!-- GcsNodeManager -->
<g id="node9" class="node">
<title>GcsNodeManager</title>
<path fill="none" stroke="#1c2123" d="M276,-1710C276,-1710 182,-1710 182,-1710 176,-1710 170,-1704 170,-1698 170,-1698 170,-1686 170,-1686 170,-1680 176,-1674 182,-1674 182,-1674 276,-1674 276,-1674 282,-1674 288,-1680 288,-1686 288,-1686 288,-1698 288,-1698 288,-1704 282,-1710 276,-1710"/>
<text text-anchor="middle" x="229" y="-1688.3" font-family="Times,serif" font-size="14.00" fill="#2f3638">GcsNodeManager</text>
</g>
<!-- GcsServer&#45;&gt;GcsNodeManager -->
<g id="edge8" class="edge">
<title>GcsServer&#45;&gt;GcsNodeManager</title>
<path fill="none" stroke="#666666" d="M38.95,-1251.08C41.17,-1325.06 53.27,-1603.67 111,-1665 123.72,-1678.51 141.74,-1685.89 159.83,-1689.77"/>
<polygon fill="#666666" stroke="#666666" points="159.4,-1693.25 169.86,-1691.58 160.64,-1686.36 159.4,-1693.25"/>
</g>
<!-- GcsHeartbeatManager -->
<g id="node10" class="node">
<title>GcsHeartbeatManager</title>
<path fill="none" stroke="#1c2123" d="M288,-1656C288,-1656 170,-1656 170,-1656 164,-1656 158,-1650 158,-1644 158,-1644 158,-1632 158,-1632 158,-1626 164,-1620 170,-1620 170,-1620 288,-1620 288,-1620 294,-1620 300,-1626 300,-1632 300,-1632 300,-1644 300,-1644 300,-1650 294,-1656 288,-1656"/>
<text text-anchor="middle" x="229" y="-1634.3" font-family="Times,serif" font-size="14.00" fill="#2f3638">GcsHeartbeatManager</text>
</g>
<!-- GcsServer&#45;&gt;GcsHeartbeatManager -->
<g id="edge9" class="edge">
<title>GcsServer&#45;&gt;GcsHeartbeatManager</title>
<path fill="none" stroke="#666666" d="M39.42,-1251.1C43.27,-1319.14 60.24,-1558.31 111,-1611 121.05,-1621.43 134.26,-1628.19 148.17,-1632.5"/>
<polygon fill="#666666" stroke="#666666" points="147.33,-1635.89 157.89,-1635.1 149.14,-1629.13 147.33,-1635.89"/>
</g>
<!-- GcsRedisFailureDetector -->
<g id="node11" class="node">
<title>GcsRedisFailureDetector</title>
<path fill="none" stroke="#1c2123" d="M296,-1602C296,-1602 162,-1602 162,-1602 156,-1602 150,-1596 150,-1590 150,-1590 150,-1578 150,-1578 150,-1572 156,-1566 162,-1566 162,-1566 296,-1566 296,-1566 302,-1566 308,-1572 308,-1578 308,-1578 308,-1590 308,-1590 308,-1596 302,-1602 296,-1602"/>
<text text-anchor="middle" x="229" y="-1580.3" font-family="Times,serif" font-size="14.00" fill="#2f3638">GcsRedisFailureDetector</text>
</g>
<!-- GcsServer&#45;&gt;GcsRedisFailureDetector -->
<g id="edge10" class="edge">
<title>GcsServer&#45;&gt;GcsRedisFailureDetector</title>
<path fill="none" stroke="#666666" d="M40.04,-1251.02C45.68,-1312.54 67.13,-1512.83 111,-1557 119.18,-1565.24 129.34,-1571.17 140.23,-1575.4"/>
<polygon fill="#666666" stroke="#666666" points="139.36,-1578.81 149.95,-1578.71 141.61,-1572.18 139.36,-1578.81"/>
</g>
<!-- GcsActorManager -->
<g id="node12" class="node">
<title>GcsActorManager</title>
<path fill="none" stroke="#1c2123" d="M277,-1548C277,-1548 181,-1548 181,-1548 175,-1548 169,-1542 169,-1536 169,-1536 169,-1524 169,-1524 169,-1518 175,-1512 181,-1512 181,-1512 277,-1512 277,-1512 283,-1512 289,-1518 289,-1524 289,-1524 289,-1536 289,-1536 289,-1542 283,-1548 277,-1548"/>
<text text-anchor="middle" x="229" y="-1526.3" font-family="Times,serif" font-size="14.00" fill="#2f3638">GcsActorManager</text>
</g>
<!-- GcsServer&#45;&gt;GcsActorManager -->
<g id="edge11" class="edge">
<title>GcsServer&#45;&gt;GcsActorManager</title>
<path fill="none" stroke="#666666" d="M40.91,-1251.02C48.55,-1305.56 73.98,-1467.27 111,-1503 123.85,-1515.4 141.21,-1522.53 158.61,-1526.52"/>
<polygon fill="#666666" stroke="#666666" points="158.35,-1530.03 168.83,-1528.52 159.69,-1523.17 158.35,-1530.03"/>
</g>
<!-- GcsJobManager -->
<g id="node13" class="node">
<title>GcsJobManager</title>
<path fill="none" stroke="#1c2123" d="M270.5,-1494C270.5,-1494 187.5,-1494 187.5,-1494 181.5,-1494 175.5,-1488 175.5,-1482 175.5,-1482 175.5,-1470 175.5,-1470 175.5,-1464 181.5,-1458 187.5,-1458 187.5,-1458 270.5,-1458 270.5,-1458 276.5,-1458 282.5,-1464 282.5,-1470 282.5,-1470 282.5,-1482 282.5,-1482 282.5,-1488 276.5,-1494 270.5,-1494"/>
<text text-anchor="middle" x="229" y="-1472.3" font-family="Times,serif" font-size="14.00" fill="#2f3638">GcsJobManager</text>
</g>
<!-- GcsServer&#45;&gt;GcsJobManager -->
<g id="edge12" class="edge">
<title>GcsServer&#45;&gt;GcsJobManager</title>
<path fill="none" stroke="#666666" d="M38.95,-1251.23C41.01,-1292.89 52.12,-1395.57 111,-1449 125.79,-1462.42 145.9,-1469.58 165.27,-1473.28"/>
<polygon fill="#666666" stroke="#666666" points="164.86,-1476.76 175.3,-1474.92 165.99,-1469.85 164.86,-1476.76"/>
</g>
<!-- rpc__ActorInfoGrpcService -->
<g id="node14" class="node">
<title>rpc__ActorInfoGrpcService</title>
<path fill="none" stroke="#1c2123" d="M304,-1440C304,-1440 154,-1440 154,-1440 148,-1440 142,-1434 142,-1428 142,-1428 142,-1416 142,-1416 142,-1410 148,-1404 154,-1404 154,-1404 304,-1404 304,-1404 310,-1404 316,-1410 316,-1416 316,-1416 316,-1428 316,-1428 316,-1434 310,-1440 304,-1440"/>
<text text-anchor="middle" x="229" y="-1418.3" font-family="Times,serif" font-size="14.00" fill="#2f3638">rpc__ActorInfoGrpcService</text>
</g>
<!-- GcsServer&#45;&gt;rpc__ActorInfoGrpcService -->
<g id="edge13" class="edge">
<title>GcsServer&#45;&gt;rpc__ActorInfoGrpcService</title>
<path fill="none" stroke="#666666" d="M41.21,-1251C47.28,-1284.71 65.19,-1357.32 111,-1395 117.48,-1400.33 124.81,-1404.65 132.57,-1408.15"/>
<polygon fill="#666666" stroke="#666666" points="131.27,-1411.4 141.85,-1411.89 133.89,-1404.91 131.27,-1411.4"/>
</g>
<!-- rpc__NodeInfoGrpcService -->
<g id="node15" class="node">
<title>rpc__NodeInfoGrpcService</title>
<path fill="none" stroke="#1c2123" d="M303,-1386C303,-1386 155,-1386 155,-1386 149,-1386 143,-1380 143,-1374 143,-1374 143,-1362 143,-1362 143,-1356 149,-1350 155,-1350 155,-1350 303,-1350 303,-1350 309,-1350 315,-1356 315,-1362 315,-1362 315,-1374 315,-1374 315,-1380 309,-1386 303,-1386"/>
<text text-anchor="middle" x="229" y="-1364.3" font-family="Times,serif" font-size="14.00" fill="#2f3638">rpc__NodeInfoGrpcService</text>
</g>
<!-- GcsServer&#45;&gt;rpc__NodeInfoGrpcService -->
<g id="edge14" class="edge">
<title>GcsServer&#45;&gt;rpc__NodeInfoGrpcService</title>
<path fill="none" stroke="#666666" d="M45.55,-1251.03C56.03,-1275.38 78.08,-1318.32 111,-1341 117.91,-1345.76 125.54,-1349.69 133.49,-1352.93"/>
<polygon fill="#666666" stroke="#666666" points="132.36,-1356.25 142.95,-1356.44 134.79,-1349.68 132.36,-1356.25"/>
</g>
<!-- rpc__NodeReousrceInfoGrpcService -->
<g id="node16" class="node">
<title>rpc__NodeReousrceInfoGrpcService</title>
<path fill="none" stroke="#1c2123" d="M329,-1332C329,-1332 129,-1332 129,-1332 123,-1332 117,-1326 117,-1320 117,-1320 117,-1308 117,-1308 117,-1302 123,-1296 129,-1296 129,-1296 329,-1296 329,-1296 335,-1296 341,-1302 341,-1308 341,-1308 341,-1320 341,-1320 341,-1326 335,-1332 329,-1332"/>
<text text-anchor="middle" x="229" y="-1310.3" font-family="Times,serif" font-size="14.00" fill="#2f3638">rpc__NodeReousrceInfoGrpcService</text>
</g>
<!-- GcsServer&#45;&gt;rpc__NodeReousrceInfoGrpcService -->
<g id="edge15" class="edge">
<title>GcsServer&#45;&gt;rpc__NodeReousrceInfoGrpcService</title>
<path fill="none" stroke="#666666" d="M57.98,-1251.04C71.81,-1262.92 91.34,-1277.9 111,-1287 115.32,-1289 119.81,-1290.86 124.39,-1292.59"/>
<polygon fill="#666666" stroke="#666666" points="123.32,-1295.92 133.92,-1295.95 125.65,-1289.32 123.32,-1295.92"/>
</g>
<!-- rpc__HeartbeatInfoGrpcService -->
<g id="node17" class="node">
<title>rpc__HeartbeatInfoGrpcService</title>
<path fill="none" stroke="#1c2123" d="M315,-1278C315,-1278 143,-1278 143,-1278 137,-1278 131,-1272 131,-1266 131,-1266 131,-1254 131,-1254 131,-1248 137,-1242 143,-1242 143,-1242 315,-1242 315,-1242 321,-1242 327,-1248 327,-1254 327,-1254 327,-1266 327,-1266 327,-1272 321,-1278 315,-1278"/>
<text text-anchor="middle" x="229" y="-1256.3" font-family="Times,serif" font-size="14.00" fill="#2f3638">rpc__HeartbeatInfoGrpcService</text>
</g>
<!-- GcsServer&#45;&gt;rpc__HeartbeatInfoGrpcService -->
<g id="edge16" class="edge">
<title>GcsServer&#45;&gt;rpc__HeartbeatInfoGrpcService</title>
<path fill="none" stroke="#666666" d="M75.04,-1238.21C88.4,-1240.11 104.28,-1242.37 120.67,-1244.71"/>
<polygon fill="#666666" stroke="#666666" points="120.53,-1248.22 130.93,-1246.17 121.52,-1241.29 120.53,-1248.22"/>
</g>
<!-- rpc__TaskInfoHandler -->
<g id="node18" class="node">
<title>rpc__TaskInfoHandler</title>
<path fill="none" stroke="#1c2123" d="M288.5,-1224C288.5,-1224 169.5,-1224 169.5,-1224 163.5,-1224 157.5,-1218 157.5,-1212 157.5,-1212 157.5,-1200 157.5,-1200 157.5,-1194 163.5,-1188 169.5,-1188 169.5,-1188 288.5,-1188 288.5,-1188 294.5,-1188 300.5,-1194 300.5,-1200 300.5,-1200 300.5,-1212 300.5,-1212 300.5,-1218 294.5,-1224 288.5,-1224"/>
<text text-anchor="middle" x="229" y="-1202.3" font-family="Times,serif" font-size="14.00" fill="#2f3638">rpc__TaskInfoHandler</text>
</g>
<!-- GcsServer&#45;&gt;rpc__TaskInfoHandler -->
<g id="edge17" class="edge">
<title>GcsServer&#45;&gt;rpc__TaskInfoHandler</title>
<path fill="none" stroke="#666666" d="M75.04,-1227.79C95.64,-1224.86 122.24,-1221.07 147.47,-1217.47"/>
<polygon fill="#666666" stroke="#666666" points="148.01,-1220.93 157.42,-1216.06 147.03,-1214 148.01,-1220.93"/>
</g>
<!-- rpc__TaskInfoGrpcService -->
<g id="node19" class="node">
<title>rpc__TaskInfoGrpcService</title>
<path fill="none" stroke="#1c2123" d="M301,-1170C301,-1170 157,-1170 157,-1170 151,-1170 145,-1164 145,-1158 145,-1158 145,-1146 145,-1146 145,-1140 151,-1134 157,-1134 157,-1134 301,-1134 301,-1134 307,-1134 313,-1140 313,-1146 313,-1146 313,-1158 313,-1158 313,-1164 307,-1170 301,-1170"/>
<text text-anchor="middle" x="229" y="-1148.3" font-family="Times,serif" font-size="14.00" fill="#2f3638">rpc__TaskInfoGrpcService</text>
</g>
<!-- GcsServer&#45;&gt;rpc__TaskInfoGrpcService -->
<g id="edge18" class="edge">
<title>GcsServer&#45;&gt;rpc__TaskInfoGrpcService</title>
<path fill="none" stroke="#666666" d="M57.98,-1214.96C71.81,-1203.08 91.34,-1188.1 111,-1179 118.61,-1175.48 126.73,-1172.39 134.99,-1169.7"/>
<polygon fill="#666666" stroke="#666666" points="136.21,-1172.99 144.75,-1166.71 134.16,-1166.29 136.21,-1172.99"/>
</g>
<!-- rpc__StatsHandler -->
<g id="node20" class="node">
<title>rpc__StatsHandler</title>
<path fill="none" stroke="#1c2123" d="M277.5,-1116C277.5,-1116 180.5,-1116 180.5,-1116 174.5,-1116 168.5,-1110 168.5,-1104 168.5,-1104 168.5,-1092 168.5,-1092 168.5,-1086 174.5,-1080 180.5,-1080 180.5,-1080 277.5,-1080 277.5,-1080 283.5,-1080 289.5,-1086 289.5,-1092 289.5,-1092 289.5,-1104 289.5,-1104 289.5,-1110 283.5,-1116 277.5,-1116"/>
<text text-anchor="middle" x="229" y="-1094.3" font-family="Times,serif" font-size="14.00" fill="#2f3638">rpc__StatsHandler</text>
</g>
<!-- GcsServer&#45;&gt;rpc__StatsHandler -->
<g id="edge19" class="edge">
<title>GcsServer&#45;&gt;rpc__StatsHandler</title>
<path fill="none" stroke="#666666" d="M45.55,-1214.97C56.03,-1190.62 78.08,-1147.68 111,-1125 124.86,-1115.45 141.62,-1109.24 158.06,-1105.21"/>
<polygon fill="#666666" stroke="#666666" points="159.22,-1108.54 168.24,-1102.97 157.72,-1101.7 159.22,-1108.54"/>
</g>
<!-- rpc__StatsRpcService -->
<g id="node21" class="node">
<title>rpc__StatsRpcService</title>
<path fill="none" stroke="#1c2123" d="M287,-1062C287,-1062 171,-1062 171,-1062 165,-1062 159,-1056 159,-1050 159,-1050 159,-1038 159,-1038 159,-1032 165,-1026 171,-1026 171,-1026 287,-1026 287,-1026 293,-1026 299,-1032 299,-1038 299,-1038 299,-1050 299,-1050 299,-1056 293,-1062 287,-1062"/>
<text text-anchor="middle" x="229" y="-1040.3" font-family="Times,serif" font-size="14.00" fill="#2f3638">rpc__StatsRpcService</text>
</g>
<!-- GcsServer&#45;&gt;rpc__StatsRpcService -->
<g id="edge20" class="edge">
<title>GcsServer&#45;&gt;rpc__StatsRpcService</title>
<path fill="none" stroke="#666666" d="M41.21,-1215C47.28,-1181.29 65.19,-1108.68 111,-1071 121.88,-1062.05 135.17,-1055.94 148.85,-1051.8"/>
<polygon fill="#666666" stroke="#666666" points="150.09,-1055.09 158.84,-1049.12 148.27,-1048.33 150.09,-1055.09"/>
</g>
<!-- GcsResourceReportPoller -->
<g id="node22" class="node">
<title>GcsResourceReportPoller</title>
<path fill="none" stroke="#1c2123" d="M298,-1008C298,-1008 160,-1008 160,-1008 154,-1008 148,-1002 148,-996 148,-996 148,-984 148,-984 148,-978 154,-972 160,-972 160,-972 298,-972 298,-972 304,-972 310,-978 310,-984 310,-984 310,-996 310,-996 310,-1002 304,-1008 298,-1008"/>
<text text-anchor="middle" x="229" y="-986.3" font-family="Times,serif" font-size="14.00" fill="#2f3638">GcsResourceReportPoller</text>
</g>
<!-- GcsServer&#45;&gt;GcsResourceReportPoller -->
<g id="edge21" class="edge">
<title>GcsServer&#45;&gt;GcsResourceReportPoller</title>
<path fill="none" stroke="#666666" d="M38.95,-1214.77C41.01,-1173.11 52.12,-1070.43 111,-1017 118.84,-1009.89 128.17,-1004.53 138.09,-1000.52"/>
<polygon fill="#666666" stroke="#666666" points="139.52,-1003.73 147.76,-997.07 137.17,-997.14 139.52,-1003.73"/>
</g>
<!-- GrpcBasedResourceBroadcaster -->
<g id="node23" class="node">
<title>GrpcBasedResourceBroadcaster</title>
<path fill="none" stroke="#1c2123" d="M316,-954C316,-954 142,-954 142,-954 136,-954 130,-948 130,-942 130,-942 130,-930 130,-930 130,-924 136,-918 142,-918 142,-918 316,-918 316,-918 322,-918 328,-924 328,-930 328,-930 328,-942 328,-942 328,-948 322,-954 316,-954"/>
<text text-anchor="middle" x="229" y="-932.3" font-family="Times,serif" font-size="14.00" fill="#2f3638">GrpcBasedResourceBroadcaster</text>
</g>
<!-- GcsServer&#45;&gt;GrpcBasedResourceBroadcaster -->
<g id="edge22" class="edge">
<title>GcsServer&#45;&gt;GrpcBasedResourceBroadcaster</title>
<path fill="none" stroke="#666666" d="M40.91,-1214.98C48.55,-1160.44 73.98,-998.73 111,-963 114.12,-959.99 117.51,-957.29 121.1,-954.86"/>
<polygon fill="#666666" stroke="#666666" points="122.99,-957.82 129.81,-949.71 119.42,-951.79 122.99,-957.82"/>
</g>
<!-- GcsWorkerManager -->
<g id="node24" class="node">
<title>GcsWorkerManager</title>
<path fill="none" stroke="#1c2123" d="M282,-900C282,-900 176,-900 176,-900 170,-900 164,-894 164,-888 164,-888 164,-876 164,-876 164,-870 170,-864 176,-864 176,-864 282,-864 282,-864 288,-864 294,-870 294,-876 294,-876 294,-888 294,-888 294,-894 288,-900 282,-900"/>
<text text-anchor="middle" x="229" y="-878.3" font-family="Times,serif" font-size="14.00" fill="#2f3638">GcsWorkerManager</text>
</g>
<!-- GcsServer&#45;&gt;GcsWorkerManager -->
<g id="edge23" class="edge">
<title>GcsServer&#45;&gt;GcsWorkerManager</title>
<path fill="none" stroke="#666666" d="M40.04,-1214.98C45.68,-1153.46 67.13,-953.17 111,-909 122.56,-897.36 138.06,-890.33 153.99,-886.17"/>
<polygon fill="#666666" stroke="#666666" points="154.95,-889.54 163.94,-883.93 153.41,-882.71 154.95,-889.54"/>
</g>
<!-- rpc__WorkerInfoGrpcService -->
<g id="node25" class="node">
<title>rpc__WorkerInfoGrpcService</title>
<path fill="none" stroke="#1c2123" d="M308.5,-846C308.5,-846 149.5,-846 149.5,-846 143.5,-846 137.5,-840 137.5,-834 137.5,-834 137.5,-822 137.5,-822 137.5,-816 143.5,-810 149.5,-810 149.5,-810 308.5,-810 308.5,-810 314.5,-810 320.5,-816 320.5,-822 320.5,-822 320.5,-834 320.5,-834 320.5,-840 314.5,-846 308.5,-846"/>
<text text-anchor="middle" x="229" y="-824.3" font-family="Times,serif" font-size="14.00" fill="#2f3638">rpc__WorkerInfoGrpcService</text>
</g>
<!-- GcsServer&#45;&gt;rpc__WorkerInfoGrpcService -->
<g id="edge24" class="edge">
<title>GcsServer&#45;&gt;rpc__WorkerInfoGrpcService</title>
<path fill="none" stroke="#666666" d="M39.42,-1214.9C43.27,-1146.86 60.24,-907.69 111,-855 115.96,-849.86 121.68,-845.6 127.88,-842.1"/>
<polygon fill="#666666" stroke="#666666" points="129.84,-845.04 137.27,-837.48 126.75,-838.76 129.84,-845.04"/>
</g>
<!-- rpc__PlacementGroupInfoGrpcService -->
<g id="node26" class="node">
<title>rpc__PlacementGroupInfoGrpcService</title>
<path fill="none" stroke="#1c2123" d="M335,-792C335,-792 123,-792 123,-792 117,-792 111,-786 111,-780 111,-780 111,-768 111,-768 111,-762 117,-756 123,-756 123,-756 335,-756 335,-756 341,-756 347,-762 347,-768 347,-768 347,-780 347,-780 347,-786 341,-792 335,-792"/>
<text text-anchor="middle" x="229" y="-770.3" font-family="Times,serif" font-size="14.00" fill="#2f3638">rpc__PlacementGroupInfoGrpcService</text>
</g>
<!-- GcsServer&#45;&gt;rpc__PlacementGroupInfoGrpcService -->
<g id="edge25" class="edge">
<title>GcsServer&#45;&gt;rpc__PlacementGroupInfoGrpcService</title>
<path fill="none" stroke="#666666" d="M38.95,-1214.92C41.17,-1140.94 53.27,-862.33 111,-801 111.79,-800.17 112.59,-799.35 113.42,-798.56"/>
<polygon fill="#666666" stroke="#666666" points="115.82,-801.12 121.32,-792.07 111.38,-795.71 115.82,-801.12"/>
</g>
<!-- GcsInternalKVManager -->
<g id="node27" class="node">
<title>GcsInternalKVManager</title>
<path fill="none" stroke="#1c2123" d="M293,-738C293,-738 165,-738 165,-738 159,-738 153,-732 153,-726 153,-726 153,-714 153,-714 153,-708 159,-702 165,-702 165,-702 293,-702 293,-702 299,-702 305,-708 305,-714 305,-714 305,-726 305,-726 305,-732 299,-738 293,-738"/>
<text text-anchor="middle" x="229" y="-716.3" font-family="Times,serif" font-size="14.00" fill="#2f3638">GcsInternalKVManager</text>
</g>
<!-- GcsServer&#45;&gt;GcsInternalKVManager -->
<g id="edge26" class="edge">
<title>GcsServer&#45;&gt;GcsInternalKVManager</title>
<path fill="none" stroke="#666666" d="M38.58,-1214.88C39.31,-1135.21 46.29,-817.01 111,-747 119.71,-737.58 130.99,-731.13 143.11,-726.76"/>
<polygon fill="#666666" stroke="#666666" points="144.47,-730 152.97,-723.69 142.38,-723.32 144.47,-730"/>
</g>
<!-- InternalPubSubHandler -->
<g id="node28" class="node">
<title>InternalPubSubHandler</title>
<path fill="none" stroke="#1c2123" d="M291.5,-684C291.5,-684 166.5,-684 166.5,-684 160.5,-684 154.5,-678 154.5,-672 154.5,-672 154.5,-660 154.5,-660 154.5,-654 160.5,-648 166.5,-648 166.5,-648 291.5,-648 291.5,-648 297.5,-648 303.5,-654 303.5,-660 303.5,-660 303.5,-672 303.5,-672 303.5,-678 297.5,-684 291.5,-684"/>
<text text-anchor="middle" x="229" y="-662.3" font-family="Times,serif" font-size="14.00" fill="#2f3638">InternalPubSubHandler</text>
</g>
<!-- GcsServer&#45;&gt;InternalPubSubHandler -->
<g id="edge27" class="edge">
<title>GcsServer&#45;&gt;InternalPubSubHandler</title>
<path fill="none" stroke="#666666" d="M38.28,-1214.91C37.64,-1129.99 39.27,-771.76 111,-693 120,-683.11 131.84,-676.49 144.53,-672.11"/>
<polygon fill="#666666" stroke="#666666" points="145.78,-675.39 154.36,-669.18 143.78,-668.68 145.78,-675.39"/>
</g>
<!-- InternalPubSubGrpcService -->
<g id="node29" class="node">
<title>InternalPubSubGrpcService</title>
<path fill="none" stroke="#1c2123" d="M304,-630C304,-630 154,-630 154,-630 148,-630 142,-624 142,-618 142,-618 142,-606 142,-606 142,-600 148,-594 154,-594 154,-594 304,-594 304,-594 310,-594 316,-600 316,-606 316,-606 316,-618 316,-618 316,-624 310,-630 304,-630"/>
<text text-anchor="middle" x="229" y="-608.3" font-family="Times,serif" font-size="14.00" fill="#2f3638">InternalPubSubGrpcService</text>
</g>
<!-- GcsServer&#45;&gt;InternalPubSubGrpcService -->
<g id="edge28" class="edge">
<title>GcsServer&#45;&gt;InternalPubSubGrpcService</title>
<path fill="none" stroke="#666666" d="M39.49,-1214.82C44.83,-1119.8 71.39,-683.02 111,-639 117.08,-632.24 124.48,-627.01 132.58,-622.97"/>
<polygon fill="#666666" stroke="#666666" points="134.19,-626.08 141.98,-618.9 131.41,-619.66 134.19,-626.08"/>
</g>
<!-- RedisClient -->
<g id="node30" class="node">
<title>RedisClient</title>
<path fill="none" stroke="#1c2123" d="M258.5,-576C258.5,-576 199.5,-576 199.5,-576 193.5,-576 187.5,-570 187.5,-564 187.5,-564 187.5,-552 187.5,-552 187.5,-546 193.5,-540 199.5,-540 199.5,-540 258.5,-540 258.5,-540 264.5,-540 270.5,-546 270.5,-552 270.5,-552 270.5,-564 270.5,-564 270.5,-570 264.5,-576 258.5,-576"/>
<text text-anchor="middle" x="229" y="-554.3" font-family="Times,serif" font-size="14.00" fill="#2f3638">RedisClient</text>
</g>
<!-- GcsServer&#45;&gt;RedisClient -->
<g id="edge29" class="edge">
<title>GcsServer&#45;&gt;RedisClient</title>
<path fill="none" stroke="#666666" d="M39.3,-1214.84C43.84,-1114.78 67.85,-633.45 111,-585 127.43,-566.56 153.71,-559.4 177.2,-557.04"/>
<polygon fill="#666666" stroke="#666666" points="177.69,-560.51 187.41,-556.28 177.18,-553.53 177.69,-560.51"/>
</g>
<!-- GcsPublisher -->
<g id="node31" class="node">
<title>GcsPublisher</title>
<path fill="none" stroke="#1c2123" d="M262.5,-522C262.5,-522 195.5,-522 195.5,-522 189.5,-522 183.5,-516 183.5,-510 183.5,-510 183.5,-498 183.5,-498 183.5,-492 189.5,-486 195.5,-486 195.5,-486 262.5,-486 262.5,-486 268.5,-486 274.5,-492 274.5,-498 274.5,-498 274.5,-510 274.5,-510 274.5,-516 268.5,-522 262.5,-522"/>
<text text-anchor="middle" x="229" y="-500.3" font-family="Times,serif" font-size="14.00" fill="#2f3638">GcsPublisher</text>
</g>
<!-- GcsServer&#45;&gt;GcsPublisher -->
<g id="edge30" class="edge">
<title>GcsServer&#45;&gt;GcsPublisher</title>
<path fill="none" stroke="#666666" d="M39.14,-1214.73C42.96,-1109.51 64.31,-583.86 111,-531 126.44,-513.52 150.72,-506.16 173.18,-503.42"/>
<polygon fill="#666666" stroke="#666666" points="173.7,-506.88 183.33,-502.46 173.04,-499.91 173.7,-506.88"/>
</g>
<!-- RuntimeEnvManager -->
<g id="node32" class="node">
<title>RuntimeEnvManager</title>
<path fill="none" stroke="#1c2123" d="M285.5,-468C285.5,-468 172.5,-468 172.5,-468 166.5,-468 160.5,-462 160.5,-456 160.5,-456 160.5,-444 160.5,-444 160.5,-438 166.5,-432 172.5,-432 172.5,-432 285.5,-432 285.5,-432 291.5,-432 297.5,-438 297.5,-444 297.5,-444 297.5,-456 297.5,-456 297.5,-462 291.5,-468 285.5,-468"/>
<text text-anchor="middle" x="229" y="-446.3" font-family="Times,serif" font-size="14.00" fill="#2f3638">RuntimeEnvManager</text>
</g>
<!-- GcsServer&#45;&gt;RuntimeEnvManager -->
<g id="edge31" class="edge">
<title>GcsServer&#45;&gt;RuntimeEnvManager</title>
<path fill="none" stroke="#666666" d="M38.99,-1214.77C42.12,-1104.97 60.75,-534.32 111,-477 121.26,-465.3 135.48,-458.13 150.49,-453.84"/>
<polygon fill="#666666" stroke="#666666" points="151.54,-457.18 160.43,-451.41 149.88,-450.38 151.54,-457.18"/>
</g>
<!-- GcsTableStorage -->
<g id="node33" class="node">
<title>GcsTableStorage</title>
<path fill="none" stroke="#1c2123" d="M273,-414C273,-414 185,-414 185,-414 179,-414 173,-408 173,-402 173,-402 173,-390 173,-390 173,-384 179,-378 185,-378 185,-378 273,-378 273,-378 279,-378 285,-384 285,-390 285,-390 285,-402 285,-402 285,-408 279,-414 273,-414"/>
<text text-anchor="middle" x="229" y="-392.3" font-family="Times,serif" font-size="14.00" fill="#2f3638">GcsTableStorage</text>
</g>
<!-- GcsServer&#45;&gt;GcsTableStorage -->
<g id="edge32" class="edge">
<title>GcsServer&#45;&gt;GcsTableStorage</title>
<path fill="none" stroke="#666666" d="M38.87,-1214.97C41.34,-1101.15 57.15,-484.81 111,-423 124,-408.08 143.45,-400.51 162.78,-396.89"/>
<polygon fill="#666666" stroke="#666666" points="163.49,-400.32 172.84,-395.34 162.43,-393.41 163.49,-400.32"/>
</g>
<!-- RedisGcsTableStorage -->
<g id="node34" class="node">
<title>RedisGcsTableStorage</title>
<path fill="none" stroke="#1c2123" d="M550.5,-847C550.5,-847 430.5,-847 430.5,-847 424.5,-847 418.5,-841 418.5,-835 418.5,-835 418.5,-823 418.5,-823 418.5,-817 424.5,-811 430.5,-811 430.5,-811 550.5,-811 550.5,-811 556.5,-811 562.5,-817 562.5,-823 562.5,-823 562.5,-835 562.5,-835 562.5,-841 556.5,-847 550.5,-847"/>
<text text-anchor="middle" x="490.5" y="-825.3" font-family="Times,serif" font-size="14.00" fill="#2f3638">RedisGcsTableStorage</text>
</g>
<!-- GcsTableStorage&#45;&gt;RedisGcsTableStorage -->
<g id="edge33" class="edge">
<title>GcsTableStorage&#45;&gt;RedisGcsTableStorage</title>
<path fill="none" stroke="red" d="M285.11,-395.38C307.52,-398.14 331.68,-405.52 347,-423 402.74,-486.64 327.94,-737.76 383,-802 389.96,-810.12 398.98,-815.98 408.83,-820.18"/>
<polygon fill="red" stroke="red" points="407.89,-823.56 418.48,-823.71 410.29,-816.99 407.89,-823.56"/>
</g>
<!-- InMemoryGcsTableStorage -->
<g id="node35" class="node">
<title>InMemoryGcsTableStorage</title>
<path fill="none" stroke="#1c2123" d="M564.5,-793C564.5,-793 416.5,-793 416.5,-793 410.5,-793 404.5,-787 404.5,-781 404.5,-781 404.5,-769 404.5,-769 404.5,-763 410.5,-757 416.5,-757 416.5,-757 564.5,-757 564.5,-757 570.5,-757 576.5,-763 576.5,-769 576.5,-769 576.5,-781 576.5,-781 576.5,-787 570.5,-793 564.5,-793"/>
<text text-anchor="middle" x="490.5" y="-771.3" font-family="Times,serif" font-size="14.00" fill="#2f3638">InMemoryGcsTableStorage</text>
</g>
<!-- GcsTableStorage&#45;&gt;InMemoryGcsTableStorage -->
<g id="edge34" class="edge">
<title>GcsTableStorage&#45;&gt;InMemoryGcsTableStorage</title>
<path fill="none" stroke="red" d="M285.28,-395.54C307.58,-398.34 331.62,-405.71 347,-423 443.61,-531.57 287.57,-638.4 383,-748 386.72,-752.27 391.01,-755.91 395.68,-759.02"/>
<polygon fill="red" stroke="red" points="394.06,-762.12 404.48,-764.04 397.53,-756.04 394.06,-762.12"/>
</g>
<!-- GcsJobTable -->
<g id="node36" class="node">
<title>GcsJobTable</title>
<path fill="none" stroke="#1c2123" d="M523,-657C523,-657 458,-657 458,-657 452,-657 446,-651 446,-645 446,-645 446,-633 446,-633 446,-627 452,-621 458,-621 458,-621 523,-621 523,-621 529,-621 535,-627 535,-633 535,-633 535,-645 535,-645 535,-651 529,-657 523,-657"/>
<text text-anchor="middle" x="490.5" y="-635.3" font-family="Times,serif" font-size="14.00" fill="#2f3638">GcsJobTable</text>
</g>
<!-- GcsTableStorage&#45;&gt;GcsJobTable -->
<g id="edge35" class="edge">
<title>GcsTableStorage&#45;&gt;GcsJobTable</title>
<path fill="none" stroke="#666666" d="M285,-396.44C306.98,-399.45 330.85,-406.72 347,-423 398.94,-475.37 337.77,-526.74 383,-585 396.44,-602.31 416.93,-614.53 436.37,-622.92"/>
<polygon fill="#666666" stroke="#666666" points="435.21,-626.22 445.79,-626.73 437.84,-619.73 435.21,-626.22"/>
</g>
<!-- GcsActorTable -->
<g id="node37" class="node">
<title>GcsActorTable</title>
<path fill="none" stroke="#1c2123" d="M529,-522C529,-522 452,-522 452,-522 446,-522 440,-516 440,-510 440,-510 440,-498 440,-498 440,-492 446,-486 452,-486 452,-486 529,-486 529,-486 535,-486 541,-492 541,-498 541,-498 541,-510 541,-510 541,-516 535,-522 529,-522"/>
<text text-anchor="middle" x="490.5" y="-500.3" font-family="Times,serif" font-size="14.00" fill="#2f3638">GcsActorTable</text>
</g>
<!-- GcsTableStorage&#45;&gt;GcsActorTable -->
<g id="edge36" class="edge">
<title>GcsTableStorage&#45;&gt;GcsActorTable</title>
<path fill="none" stroke="#666666" d="M285.01,-400.06C305.86,-403.71 328.91,-410.49 347,-423 370.73,-439.4 359.45,-460.35 383,-477 396.74,-486.71 413.65,-492.94 429.92,-496.93"/>
<polygon fill="#666666" stroke="#666666" points="429.41,-500.4 439.93,-499.13 430.92,-493.56 429.41,-500.4"/>
</g>
<!-- GcsPlacementGroupTable -->
<g id="node38" class="node">
<title>GcsPlacementGroupTable</title>
<path fill="none" stroke="#1c2123" d="M560,-468C560,-468 421,-468 421,-468 415,-468 409,-462 409,-456 409,-456 409,-444 409,-444 409,-438 415,-432 421,-432 421,-432 560,-432 560,-432 566,-432 572,-438 572,-444 572,-444 572,-456 572,-456 572,-462 566,-468 560,-468"/>
<text text-anchor="middle" x="490.5" y="-446.3" font-family="Times,serif" font-size="14.00" fill="#2f3638">GcsPlacementGroupTable</text>
</g>
<!-- GcsTableStorage&#45;&gt;GcsPlacementGroupTable -->
<g id="edge37" class="edge">
<title>GcsTableStorage&#45;&gt;GcsPlacementGroupTable</title>
<path fill="none" stroke="#666666" d="M285.03,-407.45C318.08,-414.33 360.95,-423.25 398.88,-431.14"/>
<polygon fill="#666666" stroke="#666666" points="398.42,-434.62 408.93,-433.23 399.85,-427.77 398.42,-434.62"/>
</g>
<!-- GcsTaskTable -->
<g id="node39" class="node">
<title>GcsTaskTable</title>
<path fill="none" stroke="#1c2123" d="M526,-576C526,-576 455,-576 455,-576 449,-576 443,-570 443,-564 443,-564 443,-552 443,-552 443,-546 449,-540 455,-540 455,-540 526,-540 526,-540 532,-540 538,-546 538,-552 538,-552 538,-564 538,-564 538,-570 532,-576 526,-576"/>
<text text-anchor="middle" x="490.5" y="-554.3" font-family="Times,serif" font-size="14.00" fill="#2f3638">GcsTaskTable</text>
</g>
<!-- GcsTableStorage&#45;&gt;GcsTaskTable -->
<g id="edge38" class="edge">
<title>GcsTableStorage&#45;&gt;GcsTaskTable</title>
<path fill="none" stroke="#666666" d="M285.1,-397.41C306.7,-400.62 330.27,-407.78 347,-423 384.43,-457.04 345.93,-496.56 383,-531 396.43,-543.48 414.8,-550.4 432.49,-554.16"/>
<polygon fill="#666666" stroke="#666666" points="432.33,-557.69 442.79,-556.04 433.58,-550.81 432.33,-557.69"/>
</g>
<!-- GcsTaskLeaseTable -->
<g id="node40" class="node">
<title>GcsTaskLeaseTable</title>
<path fill="none" stroke="#1c2123" d="M542.5,-414C542.5,-414 438.5,-414 438.5,-414 432.5,-414 426.5,-408 426.5,-402 426.5,-402 426.5,-390 426.5,-390 426.5,-384 432.5,-378 438.5,-378 438.5,-378 542.5,-378 542.5,-378 548.5,-378 554.5,-384 554.5,-390 554.5,-390 554.5,-402 554.5,-402 554.5,-408 548.5,-414 542.5,-414"/>
<text text-anchor="middle" x="490.5" y="-392.3" font-family="Times,serif" font-size="14.00" fill="#2f3638">GcsTaskLeaseTable</text>
</g>
<!-- GcsTableStorage&#45;&gt;GcsTaskLeaseTable -->
<g id="edge39" class="edge">
<title>GcsTableStorage&#45;&gt;GcsTaskLeaseTable</title>
<path fill="none" stroke="#666666" d="M285.03,-396C323.24,-396 374.57,-396 416.23,-396"/>
<polygon fill="#666666" stroke="#666666" points="416.33,-399.5 426.33,-396 416.33,-392.5 416.33,-399.5"/>
</g>
<!-- GcsTaskReconstructionTable -->
<g id="node41" class="node">
<title>GcsTaskReconstructionTable</title>
<path fill="none" stroke="#1c2123" d="M568.5,-360C568.5,-360 412.5,-360 412.5,-360 406.5,-360 400.5,-354 400.5,-348 400.5,-348 400.5,-336 400.5,-336 400.5,-330 406.5,-324 412.5,-324 412.5,-324 568.5,-324 568.5,-324 574.5,-324 580.5,-330 580.5,-336 580.5,-336 580.5,-348 580.5,-348 580.5,-354 574.5,-360 568.5,-360"/>
<text text-anchor="middle" x="490.5" y="-338.3" font-family="Times,serif" font-size="14.00" fill="#2f3638">GcsTaskReconstructionTable</text>
</g>
<!-- GcsTableStorage&#45;&gt;GcsTaskReconstructionTable -->
<g id="edge40" class="edge">
<title>GcsTableStorage&#45;&gt;GcsTaskReconstructionTable</title>
<path fill="none" stroke="#666666" d="M285.03,-384.55C316.31,-378.04 356.38,-369.7 392.74,-362.14"/>
<polygon fill="#666666" stroke="#666666" points="393.81,-365.49 402.89,-360.02 392.38,-358.63 393.81,-365.49"/>
</g>
<!-- GcsNodeTable -->
<g id="node42" class="node">
<title>GcsNodeTable</title>
<path fill="none" stroke="#1c2123" d="M528,-739C528,-739 453,-739 453,-739 447,-739 441,-733 441,-727 441,-727 441,-715 441,-715 441,-709 447,-703 453,-703 453,-703 528,-703 528,-703 534,-703 540,-709 540,-715 540,-715 540,-727 540,-727 540,-733 534,-739 528,-739"/>
<text text-anchor="middle" x="490.5" y="-717.3" font-family="Times,serif" font-size="14.00" fill="#2f3638">GcsNodeTable</text>
</g>
<!-- GcsTableStorage&#45;&gt;GcsNodeTable -->
<g id="edge41" class="edge">
<title>GcsTableStorage&#45;&gt;GcsNodeTable</title>
<path fill="none" stroke="#666666" d="M285.28,-395.85C307.44,-398.73 331.37,-406.08 347,-423 421.06,-503.22 319.51,-577.18 383,-666 394.85,-682.58 413.22,-694.52 431.38,-702.95"/>
<polygon fill="#666666" stroke="#666666" points="430.26,-706.28 440.83,-707.04 433.05,-699.86 430.26,-706.28"/>
</g>
<!-- GcsNodeResourceTable -->
<g id="node43" class="node">
<title>GcsNodeResourceTable</title>
<path fill="none" stroke="#1c2123" d="M554.5,-306C554.5,-306 426.5,-306 426.5,-306 420.5,-306 414.5,-300 414.5,-294 414.5,-294 414.5,-282 414.5,-282 414.5,-276 420.5,-270 426.5,-270 426.5,-270 554.5,-270 554.5,-270 560.5,-270 566.5,-276 566.5,-282 566.5,-282 566.5,-294 566.5,-294 566.5,-300 560.5,-306 554.5,-306"/>
<text text-anchor="middle" x="490.5" y="-284.3" font-family="Times,serif" font-size="14.00" fill="#2f3638">GcsNodeResourceTable</text>
</g>
<!-- GcsTableStorage&#45;&gt;GcsNodeResourceTable -->
<g id="edge42" class="edge">
<title>GcsTableStorage&#45;&gt;GcsNodeResourceTable</title>
<path fill="none" stroke="#666666" d="M258.92,-378C288.97,-359.94 337.84,-332.39 383,-315 389.85,-312.36 397.05,-309.9 404.34,-307.64"/>
<polygon fill="#666666" stroke="#666666" points="405.73,-310.87 414.31,-304.66 403.73,-304.17 405.73,-310.87"/>
</g>
<!-- GcsPlacementGroupScheduleTable -->
<g id="node44" class="node">
<title>GcsPlacementGroupScheduleTable</title>
<path fill="none" stroke="#1c2123" d="M586,-252C586,-252 395,-252 395,-252 389,-252 383,-246 383,-240 383,-240 383,-228 383,-228 383,-222 389,-216 395,-216 395,-216 586,-216 586,-216 592,-216 598,-222 598,-228 598,-228 598,-240 598,-240 598,-246 592,-252 586,-252"/>
<text text-anchor="middle" x="490.5" y="-230.3" font-family="Times,serif" font-size="14.00" fill="#2f3638">GcsPlacementGroupScheduleTable</text>
</g>
<!-- GcsTableStorage&#45;&gt;GcsPlacementGroupScheduleTable -->
<g id="edge43" class="edge">
<title>GcsTableStorage&#45;&gt;GcsPlacementGroupScheduleTable</title>
<path fill="none" stroke="#666666" d="M245.4,-377.67C270.95,-348.47 325.04,-291.59 383,-261 386.51,-259.15 390.14,-257.42 393.87,-255.81"/>
<polygon fill="#666666" stroke="#666666" points="395.31,-259 403.29,-252.03 392.7,-252.51 395.31,-259"/>
</g>
<!-- GcsResourceUsageBatchTable -->
<g id="node45" class="node">
<title>GcsResourceUsageBatchTable</title>
<path fill="none" stroke="#1c2123" d="M573,-198C573,-198 408,-198 408,-198 402,-198 396,-192 396,-186 396,-186 396,-174 396,-174 396,-168 402,-162 408,-162 408,-162 573,-162 573,-162 579,-162 585,-168 585,-174 585,-174 585,-186 585,-186 585,-192 579,-198 573,-198"/>
<text text-anchor="middle" x="490.5" y="-176.3" font-family="Times,serif" font-size="14.00" fill="#2f3638">GcsResourceUsageBatchTable</text>
</g>
<!-- GcsTableStorage&#45;&gt;GcsResourceUsageBatchTable -->
<g id="edge44" class="edge">
<title>GcsTableStorage&#45;&gt;GcsResourceUsageBatchTable</title>
<path fill="none" stroke="#666666" d="M239.32,-377.94C259.84,-340.03 312.77,-251.94 383,-207 385.49,-205.41 388.06,-203.91 390.7,-202.5"/>
<polygon fill="#666666" stroke="#666666" points="392.44,-205.55 399.92,-198.05 389.4,-199.25 392.44,-205.55"/>
</g>
<!-- GcsProfileTable -->
<g id="node46" class="node">
<title>GcsProfileTable</title>
<path fill="none" stroke="#1c2123" d="M532,-144C532,-144 449,-144 449,-144 443,-144 437,-138 437,-132 437,-132 437,-120 437,-120 437,-114 443,-108 449,-108 449,-108 532,-108 532,-108 538,-108 544,-114 544,-120 544,-120 544,-132 544,-132 544,-138 538,-144 532,-144"/>
<text text-anchor="middle" x="490.5" y="-122.3" font-family="Times,serif" font-size="14.00" fill="#2f3638">GcsProfileTable</text>
</g>
<!-- GcsTableStorage&#45;&gt;GcsProfileTable -->
<g id="edge45" class="edge">
<title>GcsTableStorage&#45;&gt;GcsProfileTable</title>
<path fill="none" stroke="#666666" d="M236.07,-377.73C252.19,-332.18 300.54,-212.95 383,-153 395.78,-143.71 411.45,-137.6 426.79,-133.59"/>
<polygon fill="#666666" stroke="#666666" points="427.85,-136.94 436.79,-131.25 426.25,-130.12 427.85,-136.94"/>
</g>
<!-- GcsWorkerTable -->
<g id="node47" class="node">
<title>GcsWorkerTable</title>
<path fill="none" stroke="#1c2123" d="M534,-90C534,-90 447,-90 447,-90 441,-90 435,-84 435,-78 435,-78 435,-66 435,-66 435,-60 441,-54 447,-54 447,-54 534,-54 534,-54 540,-54 546,-60 546,-66 546,-66 546,-78 546,-78 546,-84 540,-90 534,-90"/>
<text text-anchor="middle" x="490.5" y="-68.3" font-family="Times,serif" font-size="14.00" fill="#2f3638">GcsWorkerTable</text>
</g>
<!-- GcsTableStorage&#45;&gt;GcsWorkerTable -->
<g id="edge46" class="edge">
<title>GcsTableStorage&#45;&gt;GcsWorkerTable</title>
<path fill="none" stroke="#666666" d="M233.9,-377.65C245.98,-325.38 287.88,-174.62 383,-99 395.06,-89.41 410.12,-83.18 425.08,-79.15"/>
<polygon fill="#666666" stroke="#666666" points="425.96,-82.54 434.87,-76.81 424.33,-75.73 425.96,-82.54"/>
</g>
<!-- GcsInternalConfigTable -->
<g id="node48" class="node">
<title>GcsInternalConfigTable</title>
<path fill="none" stroke="#1c2123" d="M554,-36C554,-36 427,-36 427,-36 421,-36 415,-30 415,-24 415,-24 415,-12 415,-12 415,-6 421,0 427,0 427,0 554,0 554,0 560,0 566,-6 566,-12 566,-12 566,-24 566,-24 566,-30 560,-36 554,-36"/>
<text text-anchor="middle" x="490.5" y="-14.3" font-family="Times,serif" font-size="14.00" fill="#2f3638">GcsInternalConfigTable</text>
</g>
<!-- GcsTableStorage&#45;&gt;GcsInternalConfigTable -->
<g id="edge47" class="edge">
<title>GcsTableStorage&#45;&gt;GcsInternalConfigTable</title>
<path fill="none" stroke="#666666" d="M232.31,-377.79C240.66,-319.63 274.82,-136.86 383,-45 389.66,-39.35 397.34,-34.85 405.46,-31.29"/>
<polygon fill="#666666" stroke="#666666" points="406.76,-34.54 414.79,-27.64 404.21,-28.02 406.76,-34.54"/>
</g>
<!-- GcsTable -->
<g id="node49" class="node">
<title>GcsTable</title>
<path fill="none" stroke="#1c2123" d="M855,-730C855,-730 810,-730 810,-730 804,-730 798,-724 798,-718 798,-718 798,-706 798,-706 798,-700 804,-694 810,-694 810,-694 855,-694 855,-694 861,-694 867,-700 867,-706 867,-706 867,-718 867,-718 867,-724 861,-730 855,-730"/>
<text text-anchor="middle" x="832.5" y="-708.3" font-family="Times,serif" font-size="14.00" fill="#2f3638">GcsTable</text>
</g>
<!-- GcsJobTable&#45;&gt;GcsTable -->
<g id="edge61" class="edge">
<title>GcsJobTable&#45;&gt;GcsTable</title>
<path fill="none" stroke="#666666" d="M530.54,-657.03C558.69,-669.23 597.93,-684.59 634,-693 686,-705.12 747.44,-709.53 787.82,-711.12"/>
<polygon fill="#666666" stroke="#666666" points="787.75,-714.62 797.86,-711.48 787.99,-707.63 787.75,-714.62"/>
</g>
<!-- JobID -->
<g id="node58" class="node">
<title>JobID</title>
<path fill="none" stroke="#1c2123" d="M713,-684C713,-684 683,-684 683,-684 677,-684 671,-678 671,-672 671,-672 671,-660 671,-660 671,-654 677,-648 683,-648 683,-648 713,-648 713,-648 719,-648 725,-654 725,-660 725,-660 725,-672 725,-672 725,-678 719,-684 713,-684"/>
<text text-anchor="middle" x="698" y="-662.3" font-family="Times,serif" font-size="14.00" fill="#2f3638">JobID</text>
</g>
<!-- GcsJobTable&#45;&gt;JobID -->
<g id="edge62" class="edge">
<title>GcsJobTable&#45;&gt;JobID</title>
<path fill="none" stroke="#666666" d="M535.08,-644.73C572.34,-649.62 625.36,-656.59 660.44,-661.2"/>
<polygon fill="#666666" stroke="#666666" points="660.35,-664.71 670.72,-662.55 661.26,-657.77 660.35,-664.71"/>
</g>
<!-- JobTableData -->
<g id="node59" class="node">
<title>JobTableData</title>
<path fill="none" stroke="#1c2123" d="M732.5,-630C732.5,-630 663.5,-630 663.5,-630 657.5,-630 651.5,-624 651.5,-618 651.5,-618 651.5,-606 651.5,-606 651.5,-600 657.5,-594 663.5,-594 663.5,-594 732.5,-594 732.5,-594 738.5,-594 744.5,-600 744.5,-606 744.5,-606 744.5,-618 744.5,-618 744.5,-624 738.5,-630 732.5,-630"/>
<text text-anchor="middle" x="698" y="-608.3" font-family="Times,serif" font-size="14.00" fill="#2f3638">JobTableData</text>
</g>
<!-- GcsJobTable&#45;&gt;JobTableData -->
<g id="edge63" class="edge">
<title>GcsJobTable&#45;&gt;JobTableData</title>
<path fill="none" stroke="#666666" d="M535.08,-633.27C566.05,-629.21 607.88,-623.71 641.27,-619.32"/>
<polygon fill="#666666" stroke="#666666" points="641.89,-622.77 651.35,-618 640.97,-615.83 641.89,-622.77"/>
</g>
<!-- GcsTableWithJobId -->
<g id="node52" class="node">
<title>GcsTableWithJobId</title>
<path fill="none" stroke="#1c2123" d="M750,-484C750,-484 646,-484 646,-484 640,-484 634,-478 634,-472 634,-472 634,-460 634,-460 634,-454 640,-448 646,-448 646,-448 750,-448 750,-448 756,-448 762,-454 762,-460 762,-460 762,-472 762,-472 762,-478 756,-484 750,-484"/>
<text text-anchor="middle" x="698" y="-462.3" font-family="Times,serif" font-size="14.00" fill="#2f3638">GcsTableWithJobId</text>
</g>
<!-- GcsActorTable&#45;&gt;GcsTableWithJobId -->
<g id="edge57" class="edge">
<title>GcsActorTable&#45;&gt;GcsTableWithJobId</title>
<path fill="none" stroke="#666666" d="M541.25,-494.8C566,-490.22 596.41,-484.6 623.77,-479.54"/>
<polygon fill="#666666" stroke="#666666" points="624.5,-482.97 633.69,-477.71 623.22,-476.08 624.5,-482.97"/>
</g>
<!-- ActorTableData -->
<g id="node56" class="node">
<title>ActorTableData</title>
<path fill="none" stroke="#1c2123" d="M739,-430C739,-430 657,-430 657,-430 651,-430 645,-424 645,-418 645,-418 645,-406 645,-406 645,-400 651,-394 657,-394 657,-394 739,-394 739,-394 745,-394 751,-400 751,-406 751,-406 751,-418 751,-418 751,-424 745,-430 739,-430"/>
<text text-anchor="middle" x="698" y="-408.3" font-family="Times,serif" font-size="14.00" fill="#2f3638">ActorTableData</text>
</g>
<!-- GcsActorTable&#45;&gt;ActorTableData -->
<g id="edge58" class="edge">
<title>GcsActorTable&#45;&gt;ActorTableData</title>
<path fill="none" stroke="#666666" d="M541.18,-497.42C559.9,-493.43 580.81,-487.08 598,-477 618.07,-465.23 614.91,-452.3 634,-439 635.9,-437.67 637.88,-436.39 639.92,-435.16"/>
<polygon fill="#666666" stroke="#666666" points="642.06,-437.97 649.09,-430.04 638.66,-431.85 642.06,-437.97"/>
</g>
<!-- ActorID -->
<g id="node57" class="node">
<title>ActorID</title>
<path fill="none" stroke="#1c2123" d="M852,-407C852,-407 813,-407 813,-407 807,-407 801,-401 801,-395 801,-395 801,-383 801,-383 801,-377 807,-371 813,-371 813,-371 852,-371 852,-371 858,-371 864,-377 864,-383 864,-383 864,-395 864,-395 864,-401 858,-407 852,-407"/>
<text text-anchor="middle" x="832.5" y="-385.3" font-family="Times,serif" font-size="14.00" fill="#2f3638">ActorID</text>
</g>
<!-- GcsActorTable&#45;&gt;ActorID -->
<g id="edge59" class="edge">
<title>GcsActorTable&#45;&gt;ActorID</title>
<path fill="none" stroke="#666666" d="M541.1,-501.12C560.79,-497.69 582.41,-490.76 598,-477 630.92,-447.95 597.73,-409.75 634,-385 680.29,-353.41 747.95,-363.78 790.84,-375.41"/>
<polygon fill="#666666" stroke="#666666" points="790.08,-378.83 800.65,-378.21 792,-372.1 790.08,-378.83"/>
</g>
<!-- GcsTaskTable&#45;&gt;GcsTableWithJobId -->
<g id="edge51" class="edge">
<title>GcsTaskTable&#45;&gt;GcsTableWithJobId</title>
<path fill="none" stroke="#666666" d="M538.16,-551.34C557.48,-547.3 579.62,-540.92 598,-531 617.1,-520.69 616.16,-510.36 634,-498 638.54,-494.86 643.43,-491.83 648.4,-488.97"/>
<polygon fill="#666666" stroke="#666666" points="650.32,-491.91 657.4,-484.03 646.95,-485.78 650.32,-491.91"/>
</g>
<!-- TaskTableData -->
<g id="node53" class="node">
<title>TaskTableData</title>
<path fill="none" stroke="#1c2123" d="M736,-576C736,-576 660,-576 660,-576 654,-576 648,-570 648,-564 648,-564 648,-552 648,-552 648,-546 654,-540 660,-540 660,-540 736,-540 736,-540 742,-540 748,-546 748,-552 748,-552 748,-564 748,-564 748,-570 742,-576 736,-576"/>
<text text-anchor="middle" x="698" y="-554.3" font-family="Times,serif" font-size="14.00" fill="#2f3638">TaskTableData</text>
</g>
<!-- GcsTaskTable&#45;&gt;TaskTableData -->
<g id="edge52" class="edge">
<title>GcsTaskTable&#45;&gt;TaskTableData</title>
<path fill="none" stroke="#666666" d="M538.13,-558C567.62,-558 606.01,-558 637.67,-558"/>
<polygon fill="#666666" stroke="#666666" points="637.69,-561.5 647.69,-558 637.69,-554.5 637.69,-561.5"/>
</g>
<!-- TaskID -->
<g id="node54" class="node">
<title>TaskID</title>
<path fill="none" stroke="#1c2123" d="M849.5,-503C849.5,-503 815.5,-503 815.5,-503 809.5,-503 803.5,-497 803.5,-491 803.5,-491 803.5,-479 803.5,-479 803.5,-473 809.5,-467 815.5,-467 815.5,-467 849.5,-467 849.5,-467 855.5,-467 861.5,-473 861.5,-479 861.5,-479 861.5,-491 861.5,-491 861.5,-497 855.5,-503 849.5,-503"/>
<text text-anchor="middle" x="832.5" y="-481.3" font-family="Times,serif" font-size="14.00" fill="#2f3638">TaskID</text>
</g>
<!-- GcsTaskTable&#45;&gt;TaskID -->
<g id="edge53" class="edge">
<title>GcsTaskTable&#45;&gt;TaskID</title>
<path fill="none" stroke="#666666" d="M538.06,-548C605.94,-533.43 730.78,-506.62 793.47,-493.16"/>
<polygon fill="#666666" stroke="#666666" points="794.3,-496.57 803.34,-491.05 792.83,-489.72 794.3,-496.57"/>
</g>
<!-- GcsNodeTable&#45;&gt;GcsTable -->
<g id="edge48" class="edge">
<title>GcsNodeTable&#45;&gt;GcsTable</title>
<path fill="none" stroke="#666666" d="M540.01,-725.32C594.26,-729.36 684.65,-733.71 762,-726 770.45,-725.16 779.4,-723.75 787.95,-722.15"/>
<polygon fill="#666666" stroke="#666666" points="788.64,-725.58 797.77,-720.2 787.28,-718.71 788.64,-725.58"/>
</g>
<!-- NodeID -->
<g id="node50" class="node">
<title>NodeID</title>
<path fill="none" stroke="#1c2123" d="M717,-868C717,-868 679,-868 679,-868 673,-868 667,-862 667,-856 667,-856 667,-844 667,-844 667,-838 673,-832 679,-832 679,-832 717,-832 717,-832 723,-832 729,-838 729,-844 729,-844 729,-856 729,-856 729,-862 723,-868 717,-868"/>
<text text-anchor="middle" x="698" y="-846.3" font-family="Times,serif" font-size="14.00" fill="#2f3638">NodeID</text>
</g>
<!-- GcsNodeTable&#45;&gt;NodeID -->
<g id="edge49" class="edge">
<title>GcsNodeTable&#45;&gt;NodeID</title>
<path fill="none" stroke="#666666" d="M540.06,-724.36C559.81,-727.86 581.76,-734.71 598,-748 626.62,-771.42 607.3,-797.42 634,-823 640.62,-829.34 648.95,-834.31 657.38,-838.16"/>
<polygon fill="#666666" stroke="#666666" points="656.26,-841.48 666.84,-842.04 658.92,-835.01 656.26,-841.48"/>
</g>
<!-- GcsNodeInfo -->
<g id="node51" class="node">
<title>GcsNodeInfo</title>
<path fill="none" stroke="#1c2123" d="M732,-814C732,-814 664,-814 664,-814 658,-814 652,-808 652,-802 652,-802 652,-790 652,-790 652,-784 658,-778 664,-778 664,-778 732,-778 732,-778 738,-778 744,-784 744,-790 744,-790 744,-802 744,-802 744,-808 738,-814 732,-814"/>
<text text-anchor="middle" x="698" y="-792.3" font-family="Times,serif" font-size="14.00" fill="#2f3638">GcsNodeInfo</text>
</g>
<!-- GcsNodeTable&#45;&gt;GcsNodeInfo -->
<g id="edge50" class="edge">
<title>GcsNodeTable&#45;&gt;GcsNodeInfo</title>
<path fill="none" stroke="#666666" d="M540.11,-731.12C558.5,-735.52 579.45,-741.23 598,-748 608.86,-751.96 631.6,-762.92 652.54,-773.36"/>
<polygon fill="#666666" stroke="#666666" points="651.17,-776.59 661.68,-777.94 654.31,-770.33 651.17,-776.59"/>
</g>
<!-- StoreClient -->
<g id="node60" class="node">
<title>StoreClient</title>
<path fill="none" stroke="#1c2123" d="M975,-757C975,-757 919,-757 919,-757 913,-757 907,-751 907,-745 907,-745 907,-733 907,-733 907,-727 913,-721 919,-721 919,-721 975,-721 975,-721 981,-721 987,-727 987,-733 987,-733 987,-745 987,-745 987,-751 981,-757 975,-757"/>
<text text-anchor="middle" x="947" y="-735.3" font-family="Times,serif" font-size="14.00" fill="#2f3638">StoreClient</text>
</g>
<!-- GcsTable&#45;&gt;StoreClient -->
<g id="edge64" class="edge">
<title>GcsTable&#45;&gt;StoreClient</title>
<path fill="none" stroke="#666666" d="M867.25,-720.1C876.57,-722.34 886.88,-724.81 896.88,-727.21"/>
<polygon fill="#666666" stroke="#666666" points="896.19,-730.65 906.73,-729.58 897.82,-723.84 896.19,-730.65"/>
</g>
<!-- table_name_ -->
<g id="node61" class="node">
<title>table_name_</title>
<path fill="none" stroke="#1c2123" d="M979,-703C979,-703 915,-703 915,-703 909,-703 903,-697 903,-691 903,-691 903,-679 903,-679 903,-673 909,-667 915,-667 915,-667 979,-667 979,-667 985,-667 991,-673 991,-679 991,-679 991,-691 991,-691 991,-697 985,-703 979,-703"/>
<text text-anchor="middle" x="947" y="-681.3" font-family="Times,serif" font-size="14.00" fill="#2f3638">table_name_</text>
</g>
<!-- GcsTable&#45;&gt;table_name_ -->
<g id="edge65" class="edge">
<title>GcsTable&#45;&gt;table_name_</title>
<path fill="none" stroke="#666666" d="M867.25,-703.9C875.34,-701.96 884.17,-699.84 892.9,-697.74"/>
<polygon fill="#666666" stroke="#666666" points="893.76,-701.14 902.67,-695.4 892.13,-694.33 893.76,-701.14"/>
</g>
<!-- GcsTableWithJobId&#45;&gt;GcsTable -->
<g id="edge54" class="edge">
<title>GcsTableWithJobId&#45;&gt;GcsTable</title>
<path fill="none" stroke="#666666" d="M720.57,-484.12C733.94,-496.27 750.67,-513.25 762,-531 793.65,-580.58 814.48,-646.81 824.51,-683.86"/>
<polygon fill="#666666" stroke="#666666" points="821.23,-685.15 827.16,-693.93 828,-683.37 821.23,-685.15"/>
</g>
<!-- GcsTableWithJobId&#45;&gt;TaskID -->
<g id="edge55" class="edge">
<title>GcsTableWithJobId&#45;&gt;TaskID</title>
<path fill="none" stroke="#666666" d="M762.15,-475.05C772.72,-476.57 783.4,-478.1 793.1,-479.49"/>
<polygon fill="#666666" stroke="#666666" points="792.8,-482.99 803.2,-480.94 793.8,-476.06 792.8,-482.99"/>
</g>
<!-- GcsTableWithJobId&#45;&gt;ActorID -->
<g id="edge60" class="edge">
<title>GcsTableWithJobId&#45;&gt;ActorID</title>
<path fill="none" stroke="#666666" d="M744.66,-447.84C750.59,-445.08 756.51,-442.1 762,-439 775.23,-431.53 788.97,-422.05 800.71,-413.37"/>
<polygon fill="#666666" stroke="#666666" points="802.98,-416.03 808.86,-407.22 798.77,-410.44 802.98,-416.03"/>
</g>
<!-- Task -->
<g id="node55" class="node">
<title>Task</title>
<path fill="none" stroke="#1c2123" d="M847.5,-576C847.5,-576 817.5,-576 817.5,-576 811.5,-576 805.5,-570 805.5,-564 805.5,-564 805.5,-552 805.5,-552 805.5,-546 811.5,-540 817.5,-540 817.5,-540 847.5,-540 847.5,-540 853.5,-540 859.5,-546 859.5,-552 859.5,-552 859.5,-564 859.5,-564 859.5,-570 853.5,-576 847.5,-576"/>
<text text-anchor="middle" x="832.5" y="-554.3" font-family="Times,serif" font-size="14.00" fill="#2f3638">Task</text>
</g>
<!-- TaskTableData&#45;&gt;Task -->
<g id="edge56" class="edge">
<title>TaskTableData&#45;&gt;Task</title>
<path fill="none" stroke="#666666" d="M748.34,-558C763.85,-558 780.69,-558 795.13,-558"/>
<polygon fill="#666666" stroke="#666666" points="795.17,-561.5 805.17,-558 795.17,-554.5 795.17,-561.5"/>
</g>
</g>
</svg>
