<?xml version="1.0" encoding="UTF-8" standalone="no"?>
<!DOCTYPE svg PUBLIC "-//W3C//DTD SVG 1.1//EN"
 "http://www.w3.org/Graphics/SVG/1.1/DTD/svg11.dtd">
<!-- Generated by graphviz version 2.49.3 (20211023.0002)
 -->
<!-- Title: dig Pages: 1 -->
<svg width="2001pt" height="1378pt"
 viewBox="0.00 0.00 2001.00 1378.00" xmlns="http://www.w3.org/2000/svg" xmlns:xlink="http://www.w3.org/1999/xlink">
<g id="graph0" class="graph" transform="scale(1 1) rotate(0) translate(4 1374)">
<title>dig</title>
<polygon fill="white" stroke="transparent" points="-4,4 -4,-1374 1997,-1374 1997,4 -4,4"/>
<!-- GcsServer__Start -->
<g id="node1" class="node">
<title>GcsServer__Start</title>
<path fill="none" stroke="#1c2123" d="M103,-675C103,-675 12,-675 12,-675 6,-675 0,-669 0,-663 0,-663 0,-651 0,-651 0,-645 6,-639 12,-639 12,-639 103,-639 103,-639 109,-639 115,-645 115,-651 115,-651 115,-663 115,-663 115,-669 109,-675 103,-675"/>
<text text-anchor="middle" x="57.5" y="-653.3" font-family="Times,serif" font-size="14.00" fill="#2f3638">GcsServer__Start</text>
</g>
<!-- redis_client_options -->
<g id="node2" class="node">
<title>redis_client_options</title>
<path fill="none" stroke="#1c2123" d="M323.5,-721C323.5,-721 217.5,-721 217.5,-721 211.5,-721 205.5,-715 205.5,-709 205.5,-709 205.5,-697 205.5,-697 205.5,-691 211.5,-685 217.5,-685 217.5,-685 323.5,-685 323.5,-685 329.5,-685 335.5,-691 335.5,-697 335.5,-697 335.5,-709 335.5,-709 335.5,-715 329.5,-721 323.5,-721"/>
<text text-anchor="middle" x="270.5" y="-699.3" font-family="Times,serif" font-size="14.00" fill="#2f3638">redis_client_options</text>
</g>
<!-- GcsServer__Start&#45;&gt;redis_client_options -->
<g id="edge1" class="edge">
<title>GcsServer__Start&#45;&gt;redis_client_options</title>
<path fill="none" stroke="#666666" d="M115.04,-669.33C139.72,-674.71 169,-681.09 195.39,-686.84"/>
<polygon fill="#666666" stroke="#666666" points="194.83,-690.3 205.34,-689.01 196.32,-683.46 194.83,-690.3"/>
</g>
<!-- RedisClient__Connect -->
<g id="node3" class="node">
<title>RedisClient__Connect</title>
<path fill="none" stroke="#1c2123" d="M473,-665C473,-665 592,-665 592,-665 598,-665 604,-671 604,-677 604,-677 604,-691 604,-691 604,-697 598,-703 592,-703 592,-703 473,-703 473,-703 467,-703 461,-697 461,-691 461,-691 461,-677 461,-677 461,-671 467,-665 473,-665"/>
<text text-anchor="start" x="469" y="-687.8" font-family="Times,serif" font-size="14.00" fill="#2f3638">RedisClient__Connect</text>
<text text-anchor="start" x="469" y="-672.8" font-family="Times,serif" font-size="14.00" fill="#2f3638"> 连接Redis</text>
</g>
<!-- GcsServer__Start&#45;&gt;RedisClient__Connect -->
<g id="edge2" class="edge">
<title>GcsServer__Start&#45;&gt;RedisClient__Connect</title>
<path fill="none" stroke="#666666" d="M115.09,-660.23C198.48,-664.99 354.83,-673.92 450.41,-679.37"/>
<polygon fill="#666666" stroke="#666666" points="450.43,-682.88 460.61,-679.95 450.82,-675.89 450.43,-682.88"/>
</g>
<!-- make_shared_GcsRedisFailureDetector -->
<g id="node4" class="node">
<title>make_shared_GcsRedisFailureDetector</title>
<path fill="none" stroke="#1c2123" d="M378,-553C378,-553 163,-553 163,-553 157,-553 151,-547 151,-541 151,-541 151,-529 151,-529 151,-523 157,-517 163,-517 163,-517 378,-517 378,-517 384,-517 390,-523 390,-529 390,-529 390,-541 390,-541 390,-547 384,-553 378,-553"/>
<text text-anchor="middle" x="270.5" y="-531.3" font-family="Times,serif" font-size="14.00" fill="#2f3638">make_shared_GcsRedisFailureDetector</text>
</g>
<!-- GcsServer__Start&#45;&gt;make_shared_GcsRedisFailureDetector -->
<g id="edge3" class="edge">
<title>GcsServer__Start&#45;&gt;make_shared_GcsRedisFailureDetector</title>
<path fill="none" stroke="#666666" d="M72.48,-638.64C89.03,-618.18 118.49,-585.52 151,-567 157.91,-563.06 165.33,-559.59 172.95,-556.54"/>
<polygon fill="#666666" stroke="#666666" points="174.2,-559.81 182.34,-553.02 171.74,-553.26 174.2,-559.81"/>
</g>
<!-- make_unique__pubsub__Publisher -->
<g id="node5" class="node">
<title>make_unique__pubsub__Publisher</title>
<path fill="none" stroke="#1c2123" d="M627,-813C627,-813 438,-813 438,-813 432,-813 426,-807 426,-801 426,-801 426,-789 426,-789 426,-783 432,-777 438,-777 438,-777 627,-777 627,-777 633,-777 639,-783 639,-789 639,-789 639,-801 639,-801 639,-807 633,-813 627,-813"/>
<text text-anchor="middle" x="532.5" y="-791.3" font-family="Times,serif" font-size="14.00" fill="#2f3638">make_unique__pubsub__Publisher</text>
</g>
<!-- GcsServer__Start&#45;&gt;make_unique__pubsub__Publisher -->
<g id="edge4" class="edge">
<title>GcsServer__Start&#45;&gt;make_unique__pubsub__Publisher</title>
<path fill="none" stroke="#666666" d="M68.23,-675.06C82.64,-699.79 112.21,-743.36 151,-763 232.51,-804.26 336.53,-810.37 415.2,-807.22"/>
<polygon fill="#666666" stroke="#666666" points="415.81,-810.7 425.64,-806.74 415.49,-803.7 415.81,-810.7"/>
</g>
<!-- GcsPublisher -->
<g id="node6" class="node">
<title>GcsPublisher</title>
<path fill="none" stroke="#1c2123" d="M979.5,-767C979.5,-767 912.5,-767 912.5,-767 906.5,-767 900.5,-761 900.5,-755 900.5,-755 900.5,-743 900.5,-743 900.5,-737 906.5,-731 912.5,-731 912.5,-731 979.5,-731 979.5,-731 985.5,-731 991.5,-737 991.5,-743 991.5,-743 991.5,-755 991.5,-755 991.5,-761 985.5,-767 979.5,-767"/>
<text text-anchor="middle" x="946" y="-745.3" font-family="Times,serif" font-size="14.00" fill="#2f3638">GcsPublisher</text>
</g>
<!-- GcsServer__Start&#45;&gt;GcsPublisher -->
<g id="edge5" class="edge">
<title>GcsServer__Start&#45;&gt;GcsPublisher</title>
<path fill="none" stroke="#666666" d="M74.46,-675.08C91.42,-692.84 120.02,-718.83 151,-730 287.07,-779.06 733.41,-760.47 890.06,-752.16"/>
<polygon fill="#666666" stroke="#666666" points="890.59,-755.64 900.39,-751.6 890.22,-748.65 890.59,-755.64"/>
</g>
<!-- RedisGcsTableStorage -->
<g id="node7" class="node">
<title>RedisGcsTableStorage</title>
<path fill="none" stroke="#1c2123" d="M1006,-637C1006,-637 886,-637 886,-637 880,-637 874,-631 874,-625 874,-625 874,-613 874,-613 874,-607 880,-601 886,-601 886,-601 1006,-601 1006,-601 1012,-601 1018,-607 1018,-613 1018,-613 1018,-625 1018,-625 1018,-631 1012,-637 1006,-637"/>
<text text-anchor="middle" x="946" y="-615.3" font-family="Times,serif" font-size="14.00" fill="#2f3638">RedisGcsTableStorage</text>
</g>
<!-- GcsServer__Start&#45;&gt;RedisGcsTableStorage -->
<g id="edge6" class="edge">
<title>GcsServer__Start&#45;&gt;RedisGcsTableStorage</title>
<path fill="none" stroke="#666666" d="M115.3,-654.57C267.78,-648.03 686.49,-630.08 863.88,-622.48"/>
<polygon fill="#666666" stroke="#666666" points="864.1,-625.97 873.94,-622.05 863.8,-618.98 864.1,-625.97"/>
</g>
<!-- GcsInitData__AsyncLoad -->
<g id="node8" class="node">
<title>GcsInitData__AsyncLoad</title>
<path fill="none" stroke="#1c2123" d="M826,-591C826,-591 687,-591 687,-591 681,-591 675,-585 675,-579 675,-579 675,-567 675,-567 675,-561 681,-555 687,-555 687,-555 826,-555 826,-555 832,-555 838,-561 838,-567 838,-567 838,-579 838,-579 838,-585 832,-591 826,-591"/>
<text text-anchor="middle" x="756.5" y="-569.3" font-family="Times,serif" font-size="14.00" fill="#2f3638">GcsInitData__AsyncLoad</text>
</g>
<!-- GcsServer__Start&#45;&gt;GcsInitData__AsyncLoad -->
<g id="edge7" class="edge">
<title>GcsServer__Start&#45;&gt;GcsInitData__AsyncLoad</title>
<path fill="none" stroke="#666666" d="M83.39,-638.82C101.25,-626.86 126.41,-612.14 151,-605 327.28,-553.83 544.41,-557.59 664.59,-565.14"/>
<polygon fill="#666666" stroke="#666666" points="664.64,-568.65 674.85,-565.81 665.09,-561.67 664.64,-568.65"/>
</g>
<!-- redis_client_options&#45;&gt;RedisClient__Connect -->
<g id="edge8" class="edge">
<title>redis_client_options&#45;&gt;RedisClient__Connect</title>
<path fill="none" stroke="green" stroke-dasharray="5,2" d="M335.77,-698.3C370.41,-695.77 413.5,-692.62 450.42,-689.93"/>
<polygon fill="green" stroke="green" points="450.94,-693.4 460.66,-689.18 450.43,-686.42 450.94,-693.4"/>
</g>
<!-- redis_client_ -->
<g id="node9" class="node">
<title>redis_client_</title>
<path fill="none" stroke="#1c2123" d="M789,-702C789,-702 724,-702 724,-702 718,-702 712,-696 712,-690 712,-690 712,-678 712,-678 712,-672 718,-666 724,-666 724,-666 789,-666 789,-666 795,-666 801,-672 801,-678 801,-678 801,-690 801,-690 801,-696 795,-702 789,-702"/>
<text text-anchor="middle" x="756.5" y="-680.3" font-family="Times,serif" font-size="14.00" fill="#2f3638">redis_client_</text>
</g>
<!-- RedisClient__Connect&#45;&gt;redis_client_ -->
<g id="edge9" class="edge">
<title>RedisClient__Connect&#45;&gt;redis_client_</title>
<path fill="none" stroke="#666666" d="M604.05,-684C635.73,-684 672.52,-684 701.9,-684"/>
<polygon fill="#666666" stroke="#666666" points="701.96,-687.5 711.96,-684 701.96,-680.5 701.96,-687.5"/>
</g>
<!-- make_unique__pubsub__Publisher&#45;&gt;GcsPublisher -->
<g id="edge14" class="edge">
<title>make_unique__pubsub__Publisher&#45;&gt;GcsPublisher</title>
<path fill="none" stroke="green" stroke-dasharray="5,2" d="M639.26,-784.55C697.87,-778.59 772.01,-770.78 838,-763 854.95,-761 873.38,-758.65 890.1,-756.46"/>
<polygon fill="green" stroke="green" points="890.8,-759.89 900.26,-755.11 889.89,-752.95 890.8,-759.89"/>
</g>
<!-- GcsInitData -->
<g id="node10" class="node">
<title>GcsInitData</title>
<path fill="none" stroke="#1c2123" d="M1126,-637C1126,-637 1066,-637 1066,-637 1060,-637 1054,-631 1054,-625 1054,-625 1054,-613 1054,-613 1054,-607 1060,-601 1066,-601 1066,-601 1126,-601 1126,-601 1132,-601 1138,-607 1138,-613 1138,-613 1138,-625 1138,-625 1138,-631 1132,-637 1126,-637"/>
<text text-anchor="middle" x="1096" y="-615.3" font-family="Times,serif" font-size="14.00" fill="#2f3638">GcsInitData</text>
</g>
<!-- RedisGcsTableStorage&#45;&gt;GcsInitData -->
<g id="edge11" class="edge">
<title>RedisGcsTableStorage&#45;&gt;GcsInitData</title>
<path fill="none" stroke="green" stroke-dasharray="5,2" d="M1018.4,-619C1026.92,-619 1035.49,-619 1043.66,-619"/>
<polygon fill="green" stroke="green" points="1043.74,-622.5 1053.74,-619 1043.74,-615.5 1043.74,-622.5"/>
</g>
<!-- GcsServer__DoStart -->
<g id="node11" class="node">
<title>GcsServer__DoStart</title>
<path fill="none" stroke="#1c2123" d="M1294,-614C1294,-614 1186,-614 1186,-614 1180,-614 1174,-608 1174,-602 1174,-602 1174,-590 1174,-590 1174,-584 1180,-578 1186,-578 1186,-578 1294,-578 1294,-578 1300,-578 1306,-584 1306,-590 1306,-590 1306,-602 1306,-602 1306,-608 1300,-614 1294,-614"/>
<text text-anchor="middle" x="1240" y="-592.3" font-family="Times,serif" font-size="14.00" fill="#2f3638">GcsServer__DoStart</text>
</g>
<!-- GcsInitData__AsyncLoad&#45;&gt;GcsServer__DoStart -->
<g id="edge15" class="edge">
<title>GcsInitData__AsyncLoad&#45;&gt;GcsServer__DoStart</title>
<path fill="none" stroke="green" stroke-dasharray="5,2" d="M838.09,-576.85C928.87,-581.19 1075.24,-588.18 1163.76,-592.41"/>
<polygon fill="green" stroke="green" points="1163.84,-595.91 1174,-592.89 1164.17,-588.92 1163.84,-595.91"/>
</g>
<!-- redis_client_&#45;&gt;GcsPublisher -->
<g id="edge13" class="edge">
<title>redis_client_&#45;&gt;GcsPublisher</title>
<path fill="none" stroke="#666666" d="M801.46,-699.24C828.09,-708.47 862.26,-720.32 890.59,-730.14"/>
<polygon fill="#666666" stroke="#666666" points="889.74,-733.55 900.34,-733.52 892.04,-726.94 889.74,-733.55"/>
</g>
<!-- redis_client_&#45;&gt;RedisGcsTableStorage -->
<g id="edge10" class="edge">
<title>redis_client_&#45;&gt;RedisGcsTableStorage</title>
<path fill="none" stroke="green" stroke-dasharray="5,2" d="M801.46,-668.76C825.85,-660.31 856.57,-649.65 883.33,-640.38"/>
<polygon fill="green" stroke="green" points="884.69,-643.61 892.99,-637.03 882.4,-637 884.69,-643.61"/>
</g>
<!-- GcsInitData&#45;&gt;GcsServer__DoStart -->
<g id="edge12" class="edge">
<title>GcsInitData&#45;&gt;GcsServer__DoStart</title>
<path fill="none" stroke="green" stroke-dasharray="5,2" d="M1138.07,-612.35C1146.23,-611.03 1155.02,-609.6 1163.91,-608.16"/>
<polygon fill="green" stroke="green" points="1164.63,-611.59 1173.94,-606.54 1163.51,-604.68 1164.63,-611.59"/>
</g>
<!-- InitGcsResourceManager -->
<g id="node12" class="node">
<title>InitGcsResourceManager</title>
<path fill="none" stroke="#1c2123" d="M1511,-1046C1511,-1046 1375,-1046 1375,-1046 1369,-1046 1363,-1040 1363,-1034 1363,-1034 1363,-1022 1363,-1022 1363,-1016 1369,-1010 1375,-1010 1375,-1010 1511,-1010 1511,-1010 1517,-1010 1523,-1016 1523,-1022 1523,-1022 1523,-1034 1523,-1034 1523,-1040 1517,-1046 1511,-1046"/>
<text text-anchor="middle" x="1443" y="-1024.3" font-family="Times,serif" font-size="14.00" fill="#2f3638">InitGcsResourceManager</text>
</g>
<!-- GcsServer__DoStart&#45;&gt;InitGcsResourceManager -->
<g id="edge17" class="edge">
<title>GcsServer__DoStart&#45;&gt;InitGcsResourceManager</title>
<path fill="none" stroke="#666666" d="M1243.12,-614.4C1251.71,-685.89 1286.18,-944.09 1342,-1001 1345.51,-1004.58 1349.45,-1007.7 1353.67,-1010.42"/>
<polygon fill="#666666" stroke="#666666" points="1352.27,-1013.65 1362.71,-1015.46 1355.68,-1007.53 1352.27,-1013.65"/>
</g>
<!-- InitGcsResourceScheduler -->
<g id="node13" class="node">
<title>InitGcsResourceScheduler</title>
<path fill="none" stroke="#1c2123" d="M1514,-992C1514,-992 1372,-992 1372,-992 1366,-992 1360,-986 1360,-980 1360,-980 1360,-968 1360,-968 1360,-962 1366,-956 1372,-956 1372,-956 1514,-956 1514,-956 1520,-956 1526,-962 1526,-968 1526,-968 1526,-980 1526,-980 1526,-986 1520,-992 1514,-992"/>
<text text-anchor="middle" x="1443" y="-970.3" font-family="Times,serif" font-size="14.00" fill="#2f3638">InitGcsResourceScheduler</text>
</g>
<!-- GcsServer__DoStart&#45;&gt;InitGcsResourceScheduler -->
<g id="edge18" class="edge">
<title>GcsServer__DoStart&#45;&gt;InitGcsResourceScheduler</title>
<path fill="none" stroke="#666666" d="M1240.44,-614.37C1239.73,-672.19 1245.71,-852.29 1342,-947 1344.87,-949.83 1348.01,-952.37 1351.35,-954.65"/>
<polygon fill="#666666" stroke="#666666" points="1349.61,-957.69 1360,-959.8 1353.19,-951.67 1349.61,-957.69"/>
</g>
<!-- InitGcsNodeManager -->
<g id="node14" class="node">
<title>InitGcsNodeManager</title>
<path fill="none" stroke="#1c2123" d="M1500,-938C1500,-938 1386,-938 1386,-938 1380,-938 1374,-932 1374,-926 1374,-926 1374,-914 1374,-914 1374,-908 1380,-902 1386,-902 1386,-902 1500,-902 1500,-902 1506,-902 1512,-908 1512,-914 1512,-914 1512,-926 1512,-926 1512,-932 1506,-938 1500,-938"/>
<text text-anchor="middle" x="1443" y="-916.3" font-family="Times,serif" font-size="14.00" fill="#2f3638">InitGcsNodeManager</text>
</g>
<!-- GcsServer__DoStart&#45;&gt;InitGcsNodeManager -->
<g id="edge19" class="edge">
<title>GcsServer__DoStart&#45;&gt;InitGcsNodeManager</title>
<path fill="none" stroke="#666666" d="M1241.55,-614.11C1244.13,-665.74 1258.78,-814.95 1342,-893 1348.48,-899.08 1356.18,-903.82 1364.4,-907.5"/>
<polygon fill="#666666" stroke="#666666" points="1363.26,-910.82 1373.85,-911.24 1365.83,-904.31 1363.26,-910.82"/>
</g>
<!-- InitGcsHeartbeatManager -->
<g id="node15" class="node">
<title>InitGcsHeartbeatManager</title>
<path fill="none" stroke="#1c2123" d="M1512,-884C1512,-884 1374,-884 1374,-884 1368,-884 1362,-878 1362,-872 1362,-872 1362,-860 1362,-860 1362,-854 1368,-848 1374,-848 1374,-848 1512,-848 1512,-848 1518,-848 1524,-854 1524,-860 1524,-860 1524,-872 1524,-872 1524,-878 1518,-884 1512,-884"/>
<text text-anchor="middle" x="1443" y="-862.3" font-family="Times,serif" font-size="14.00" fill="#2f3638">InitGcsHeartbeatManager</text>
</g>
<!-- GcsServer__DoStart&#45;&gt;InitGcsHeartbeatManager -->
<g id="edge20" class="edge">
<title>GcsServer__DoStart&#45;&gt;InitGcsHeartbeatManager</title>
<path fill="none" stroke="#666666" d="M1243.09,-614.06C1249.3,-659.14 1271.78,-777.37 1342,-839 1345.27,-841.87 1348.81,-844.44 1352.55,-846.74"/>
<polygon fill="#666666" stroke="#666666" points="1351.13,-849.94 1361.59,-851.62 1354.46,-843.79 1351.13,-849.94"/>
</g>
<!-- InitKVManager -->
<g id="node16" class="node">
<title>InitKVManager</title>
<path fill="none" stroke="#1c2123" d="M1484,-830C1484,-830 1402,-830 1402,-830 1396,-830 1390,-824 1390,-818 1390,-818 1390,-806 1390,-806 1390,-800 1396,-794 1402,-794 1402,-794 1484,-794 1484,-794 1490,-794 1496,-800 1496,-806 1496,-806 1496,-818 1496,-818 1496,-824 1490,-830 1484,-830"/>
<text text-anchor="middle" x="1443" y="-808.3" font-family="Times,serif" font-size="14.00" fill="#2f3638">InitKVManager</text>
</g>
<!-- GcsServer__DoStart&#45;&gt;InitKVManager -->
<g id="edge21" class="edge">
<title>GcsServer__DoStart&#45;&gt;InitKVManager</title>
<path fill="none" stroke="#666666" d="M1245.48,-614.22C1255.75,-652.05 1284.64,-739.38 1342,-785 1352.99,-793.74 1366.57,-799.66 1380.14,-803.66"/>
<polygon fill="#666666" stroke="#666666" points="1379.43,-807.09 1389.99,-806.26 1381.21,-800.33 1379.43,-807.09"/>
</g>
<!-- InitPubSubHandler -->
<g id="node17" class="node">
<title>InitPubSubHandler</title>
<path fill="none" stroke="#1c2123" d="M1493.5,-776C1493.5,-776 1392.5,-776 1392.5,-776 1386.5,-776 1380.5,-770 1380.5,-764 1380.5,-764 1380.5,-752 1380.5,-752 1380.5,-746 1386.5,-740 1392.5,-740 1392.5,-740 1493.5,-740 1493.5,-740 1499.5,-740 1505.5,-746 1505.5,-752 1505.5,-752 1505.5,-764 1505.5,-764 1505.5,-770 1499.5,-776 1493.5,-776"/>
<text text-anchor="middle" x="1443" y="-754.3" font-family="Times,serif" font-size="14.00" fill="#2f3638">InitPubSubHandler</text>
</g>
<!-- GcsServer__DoStart&#45;&gt;InitPubSubHandler -->
<g id="edge22" class="edge">
<title>GcsServer__DoStart&#45;&gt;InitPubSubHandler</title>
<path fill="none" stroke="#666666" d="M1249.66,-614.38C1264.4,-643.64 1297.19,-700.6 1342,-731 1350.63,-736.85 1360.48,-741.44 1370.55,-745.03"/>
<polygon fill="#666666" stroke="#666666" points="1369.65,-748.42 1380.24,-748.18 1371.81,-741.76 1369.65,-748.42"/>
</g>
<!-- InitRuntimeEnvManager -->
<g id="node18" class="node">
<title>InitRuntimeEnvManager</title>
<path fill="none" stroke="#1c2123" d="M1509,-722C1509,-722 1377,-722 1377,-722 1371,-722 1365,-716 1365,-710 1365,-710 1365,-698 1365,-698 1365,-692 1371,-686 1377,-686 1377,-686 1509,-686 1509,-686 1515,-686 1521,-692 1521,-698 1521,-698 1521,-710 1521,-710 1521,-716 1515,-722 1509,-722"/>
<text text-anchor="middle" x="1443" y="-700.3" font-family="Times,serif" font-size="14.00" fill="#2f3638">InitRuntimeEnvManager</text>
</g>
<!-- GcsServer__DoStart&#45;&gt;InitRuntimeEnvManager -->
<g id="edge23" class="edge">
<title>GcsServer__DoStart&#45;&gt;InitRuntimeEnvManager</title>
<path fill="none" stroke="#666666" d="M1258.72,-614.07C1277.71,-632.46 1309.53,-660.51 1342,-677 1346.28,-679.18 1350.76,-681.19 1355.35,-683.06"/>
<polygon fill="#666666" stroke="#666666" points="1354.3,-686.4 1364.89,-686.68 1356.78,-679.86 1354.3,-686.4"/>
</g>
<!-- InitGcsJobManager -->
<g id="node19" class="node">
<title>InitGcsJobManager</title>
<path fill="none" stroke="#1c2123" d="M1494.5,-668C1494.5,-668 1391.5,-668 1391.5,-668 1385.5,-668 1379.5,-662 1379.5,-656 1379.5,-656 1379.5,-644 1379.5,-644 1379.5,-638 1385.5,-632 1391.5,-632 1391.5,-632 1494.5,-632 1494.5,-632 1500.5,-632 1506.5,-638 1506.5,-644 1506.5,-644 1506.5,-656 1506.5,-656 1506.5,-662 1500.5,-668 1494.5,-668"/>
<text text-anchor="middle" x="1443" y="-646.3" font-family="Times,serif" font-size="14.00" fill="#2f3638">InitGcsJobManager</text>
</g>
<!-- GcsServer__DoStart&#45;&gt;InitGcsJobManager -->
<g id="edge24" class="edge">
<title>GcsServer__DoStart&#45;&gt;InitGcsJobManager</title>
<path fill="none" stroke="#666666" d="M1306.26,-613.53C1326.55,-618.98 1349.03,-625.02 1369.76,-630.59"/>
<polygon fill="#666666" stroke="#666666" points="1368.9,-633.98 1379.46,-633.2 1370.71,-627.22 1368.9,-633.98"/>
</g>
<!-- InitGcsPlacementGroupManager -->
<g id="node20" class="node">
<title>InitGcsPlacementGroupManager</title>
<path fill="none" stroke="#1c2123" d="M1532,-614C1532,-614 1354,-614 1354,-614 1348,-614 1342,-608 1342,-602 1342,-602 1342,-590 1342,-590 1342,-584 1348,-578 1354,-578 1354,-578 1532,-578 1532,-578 1538,-578 1544,-584 1544,-590 1544,-590 1544,-602 1544,-602 1544,-608 1538,-614 1532,-614"/>
<text text-anchor="middle" x="1443" y="-592.3" font-family="Times,serif" font-size="14.00" fill="#2f3638">InitGcsPlacementGroupManager</text>
</g>
<!-- GcsServer__DoStart&#45;&gt;InitGcsPlacementGroupManager -->
<g id="edge25" class="edge">
<title>GcsServer__DoStart&#45;&gt;InitGcsPlacementGroupManager</title>
<path fill="none" stroke="#666666" d="M1306.26,-596C1314.42,-596 1322.93,-596 1331.54,-596"/>
<polygon fill="#666666" stroke="#666666" points="1331.67,-599.5 1341.67,-596 1331.67,-592.5 1331.67,-599.5"/>
</g>
<!-- InitGcsActorManager -->
<g id="node21" class="node">
<title>InitGcsActorManager</title>
<path fill="none" stroke="#1c2123" d="M1500.5,-560C1500.5,-560 1385.5,-560 1385.5,-560 1379.5,-560 1373.5,-554 1373.5,-548 1373.5,-548 1373.5,-536 1373.5,-536 1373.5,-530 1379.5,-524 1385.5,-524 1385.5,-524 1500.5,-524 1500.5,-524 1506.5,-524 1512.5,-530 1512.5,-536 1512.5,-536 1512.5,-548 1512.5,-548 1512.5,-554 1506.5,-560 1500.5,-560"/>
<text text-anchor="middle" x="1443" y="-538.3" font-family="Times,serif" font-size="14.00" fill="#2f3638">InitGcsActorManager</text>
</g>
<!-- GcsServer__DoStart&#45;&gt;InitGcsActorManager -->
<g id="edge26" class="edge">
<title>GcsServer__DoStart&#45;&gt;InitGcsActorManager</title>
<path fill="none" stroke="#666666" d="M1306.26,-578.47C1324.99,-573.44 1345.59,-567.9 1364.96,-562.7"/>
<polygon fill="#666666" stroke="#666666" points="1365.9,-566.07 1374.65,-560.09 1364.09,-559.31 1365.9,-566.07"/>
</g>
<!-- InitGcsWorkerManager -->
<g id="node22" class="node">
<title>InitGcsWorkerManager</title>
<path fill="none" stroke="#1c2123" d="M1505.5,-506C1505.5,-506 1380.5,-506 1380.5,-506 1374.5,-506 1368.5,-500 1368.5,-494 1368.5,-494 1368.5,-482 1368.5,-482 1368.5,-476 1374.5,-470 1380.5,-470 1380.5,-470 1505.5,-470 1505.5,-470 1511.5,-470 1517.5,-476 1517.5,-482 1517.5,-482 1517.5,-494 1517.5,-494 1517.5,-500 1511.5,-506 1505.5,-506"/>
<text text-anchor="middle" x="1443" y="-484.3" font-family="Times,serif" font-size="14.00" fill="#2f3638">InitGcsWorkerManager</text>
</g>
<!-- GcsServer__DoStart&#45;&gt;InitGcsWorkerManager -->
<g id="edge27" class="edge">
<title>GcsServer__DoStart&#45;&gt;InitGcsWorkerManager</title>
<path fill="none" stroke="#666666" d="M1258.72,-577.93C1277.71,-559.54 1309.53,-531.49 1342,-515 1347.29,-512.31 1352.88,-509.87 1358.6,-507.66"/>
<polygon fill="#666666" stroke="#666666" points="1360.11,-510.83 1368.32,-504.13 1357.73,-504.25 1360.11,-510.83"/>
</g>
<!-- InitTaskInfoHandler -->
<g id="node23" class="node">
<title>InitTaskInfoHandler</title>
<path fill="none" stroke="#1c2123" d="M1496.5,-452C1496.5,-452 1389.5,-452 1389.5,-452 1383.5,-452 1377.5,-446 1377.5,-440 1377.5,-440 1377.5,-428 1377.5,-428 1377.5,-422 1383.5,-416 1389.5,-416 1389.5,-416 1496.5,-416 1496.5,-416 1502.5,-416 1508.5,-422 1508.5,-428 1508.5,-428 1508.5,-440 1508.5,-440 1508.5,-446 1502.5,-452 1496.5,-452"/>
<text text-anchor="middle" x="1443" y="-430.3" font-family="Times,serif" font-size="14.00" fill="#2f3638">InitTaskInfoHandler</text>
</g>
<!-- GcsServer__DoStart&#45;&gt;InitTaskInfoHandler -->
<g id="edge28" class="edge">
<title>GcsServer__DoStart&#45;&gt;InitTaskInfoHandler</title>
<path fill="none" stroke="#666666" d="M1249.66,-577.62C1264.4,-548.36 1297.19,-491.4 1342,-461 1349.84,-455.68 1358.69,-451.41 1367.8,-447.97"/>
<polygon fill="#666666" stroke="#666666" points="1369.04,-451.25 1377.36,-444.69 1366.77,-444.63 1369.04,-451.25"/>
</g>
<!-- InitStatsHandler -->
<g id="node24" class="node">
<title>InitStatsHandler</title>
<path fill="none" stroke="#1c2123" d="M1485,-398C1485,-398 1401,-398 1401,-398 1395,-398 1389,-392 1389,-386 1389,-386 1389,-374 1389,-374 1389,-368 1395,-362 1401,-362 1401,-362 1485,-362 1485,-362 1491,-362 1497,-368 1497,-374 1497,-374 1497,-386 1497,-386 1497,-392 1491,-398 1485,-398"/>
<text text-anchor="middle" x="1443" y="-376.3" font-family="Times,serif" font-size="14.00" fill="#2f3638">InitStatsHandler</text>
</g>
<!-- GcsServer__DoStart&#45;&gt;InitStatsHandler -->
<g id="edge29" class="edge">
<title>GcsServer__DoStart&#45;&gt;InitStatsHandler</title>
<path fill="none" stroke="#666666" d="M1245.48,-577.78C1255.75,-539.95 1284.64,-452.62 1342,-407 1352.65,-398.53 1365.75,-392.7 1378.92,-388.7"/>
<polygon fill="#666666" stroke="#666666" points="1380.22,-391.98 1388.96,-385.99 1378.39,-385.22 1380.22,-391.98"/>
</g>
<!-- InitResourceReportPolling -->
<g id="node25" class="node">
<title>InitResourceReportPolling</title>
<path fill="none" stroke="#1c2123" d="M1514.5,-344C1514.5,-344 1371.5,-344 1371.5,-344 1365.5,-344 1359.5,-338 1359.5,-332 1359.5,-332 1359.5,-320 1359.5,-320 1359.5,-314 1365.5,-308 1371.5,-308 1371.5,-308 1514.5,-308 1514.5,-308 1520.5,-308 1526.5,-314 1526.5,-320 1526.5,-320 1526.5,-332 1526.5,-332 1526.5,-338 1520.5,-344 1514.5,-344"/>
<text text-anchor="middle" x="1443" y="-322.3" font-family="Times,serif" font-size="14.00" fill="#2f3638">InitResourceReportPolling</text>
</g>
<!-- GcsServer__DoStart&#45;&gt;InitResourceReportPolling -->
<g id="edge30" class="edge">
<title>GcsServer__DoStart&#45;&gt;InitResourceReportPolling</title>
<path fill="none" stroke="#666666" d="M1243.09,-577.94C1249.3,-532.86 1271.78,-414.63 1342,-353 1344.65,-350.68 1347.48,-348.55 1350.44,-346.6"/>
<polygon fill="#666666" stroke="#666666" points="1352.22,-349.62 1359.13,-341.59 1348.72,-343.56 1352.22,-349.62"/>
</g>
<!-- InitResourceReportBroadcasting -->
<g id="node26" class="node">
<title>InitResourceReportBroadcasting</title>
<path fill="none" stroke="#1c2123" d="M1531,-290C1531,-290 1355,-290 1355,-290 1349,-290 1343,-284 1343,-278 1343,-278 1343,-266 1343,-266 1343,-260 1349,-254 1355,-254 1355,-254 1531,-254 1531,-254 1537,-254 1543,-260 1543,-266 1543,-266 1543,-278 1543,-278 1543,-284 1537,-290 1531,-290"/>
<text text-anchor="middle" x="1443" y="-268.3" font-family="Times,serif" font-size="14.00" fill="#2f3638">InitResourceReportBroadcasting</text>
</g>
<!-- GcsServer__DoStart&#45;&gt;InitResourceReportBroadcasting -->
<g id="edge31" class="edge">
<title>GcsServer__DoStart&#45;&gt;InitResourceReportBroadcasting</title>
<path fill="none" stroke="#666666" d="M1241.55,-577.89C1244.13,-526.26 1258.78,-377.05 1342,-299 1343.11,-297.96 1344.25,-296.96 1345.42,-296"/>
<polygon fill="#666666" stroke="#666666" points="1347.48,-298.83 1353.6,-290.19 1343.43,-293.13 1347.48,-298.83"/>
</g>
<!-- InstallEventListeners -->
<g id="node27" class="node">
<title>InstallEventListeners</title>
<path fill="none" stroke="#1c2123" d="M1498.5,-236C1498.5,-236 1387.5,-236 1387.5,-236 1381.5,-236 1375.5,-230 1375.5,-224 1375.5,-224 1375.5,-212 1375.5,-212 1375.5,-206 1381.5,-200 1387.5,-200 1387.5,-200 1498.5,-200 1498.5,-200 1504.5,-200 1510.5,-206 1510.5,-212 1510.5,-212 1510.5,-224 1510.5,-224 1510.5,-230 1504.5,-236 1498.5,-236"/>
<text text-anchor="middle" x="1443" y="-214.3" font-family="Times,serif" font-size="14.00" fill="#2f3638">InstallEventListeners</text>
</g>
<!-- GcsServer__DoStart&#45;&gt;InstallEventListeners -->
<g id="edge32" class="edge">
<title>GcsServer__DoStart&#45;&gt;InstallEventListeners</title>
<path fill="none" stroke="#666666" d="M1240.44,-577.63C1239.73,-519.81 1245.71,-339.71 1342,-245 1348.8,-238.31 1357.08,-233.23 1365.93,-229.38"/>
<polygon fill="#666666" stroke="#666666" points="1367.23,-232.64 1375.33,-225.81 1364.74,-226.1 1367.23,-232.64"/>
</g>
<!-- rpc_server___Run -->
<g id="node28" class="node">
<title>rpc_server___Run</title>
<path fill="none" stroke="#1c2123" d="M1491,-182C1491,-182 1395,-182 1395,-182 1389,-182 1383,-176 1383,-170 1383,-170 1383,-158 1383,-158 1383,-152 1389,-146 1395,-146 1395,-146 1491,-146 1491,-146 1497,-146 1503,-152 1503,-158 1503,-158 1503,-170 1503,-170 1503,-176 1497,-182 1491,-182"/>
<text text-anchor="middle" x="1443" y="-160.3" font-family="Times,serif" font-size="14.00" fill="#2f3638">rpc_server___Run</text>
</g>
<!-- GcsServer__DoStart&#45;&gt;rpc_server___Run -->
<g id="edge33" class="edge">
<title>GcsServer__DoStart&#45;&gt;rpc_server___Run</title>
<path fill="none" stroke="#666666" d="M1243.12,-577.6C1251.71,-506.11 1286.18,-247.91 1342,-191 1350.51,-182.32 1361.5,-176.35 1373.06,-172.25"/>
<polygon fill="#666666" stroke="#666666" points="1374.33,-175.52 1382.86,-169.23 1372.27,-168.83 1374.33,-175.52"/>
</g>
<!-- StoreGcsServerAddressInRedis -->
<g id="node29" class="node">
<title>StoreGcsServerAddressInRedis</title>
<path fill="none" stroke="#1c2123" d="M1528,-128C1528,-128 1358,-128 1358,-128 1352,-128 1346,-122 1346,-116 1346,-116 1346,-104 1346,-104 1346,-98 1352,-92 1358,-92 1358,-92 1528,-92 1528,-92 1534,-92 1540,-98 1540,-104 1540,-104 1540,-116 1540,-116 1540,-122 1534,-128 1528,-128"/>
<text text-anchor="middle" x="1443" y="-106.3" font-family="Times,serif" font-size="14.00" fill="#2f3638">StoreGcsServerAddressInRedis</text>
</g>
<!-- GcsServer__DoStart&#45;&gt;StoreGcsServerAddressInRedis -->
<g id="edge34" class="edge">
<title>GcsServer__DoStart&#45;&gt;StoreGcsServerAddressInRedis</title>
<path fill="none" stroke="#666666" d="M1242.52,-577.85C1249.31,-500.92 1279.34,-202.68 1342,-137 1342.91,-136.05 1343.85,-135.13 1344.81,-134.24"/>
<polygon fill="#666666" stroke="#666666" points="1347.01,-136.97 1352.7,-128.03 1342.68,-131.47 1347.01,-136.97"/>
</g>
<!-- gcs_heartbeat_manager_ -->
<g id="node30" class="node">
<title>gcs_heartbeat_manager_</title>
<path fill="none" stroke="#1c2123" d="M1509,-36C1509,-36 1377,-36 1377,-36 1371,-36 1365,-30 1365,-24 1365,-24 1365,-12 1365,-12 1365,-6 1371,0 1377,0 1377,0 1509,0 1509,0 1515,0 1521,-6 1521,-12 1521,-12 1521,-24 1521,-24 1521,-30 1515,-36 1509,-36"/>
<text text-anchor="middle" x="1443" y="-14.3" font-family="Times,serif" font-size="14.00" fill="#2f3638">gcs_heartbeat_manager_</text>
</g>
<!-- GcsServer__DoStart&#45;&gt;gcs_heartbeat_manager_ -->
<g id="edge35" class="edge">
<title>GcsServer__DoStart&#45;&gt;gcs_heartbeat_manager_</title>
<path fill="none" stroke="#666666" d="M1241.92,-577.79C1246.57,-492.28 1270.25,-131.48 1342,-50 1346.01,-45.44 1350.68,-41.53 1355.75,-38.17"/>
<polygon fill="#666666" stroke="#666666" points="1357.74,-41.06 1364.64,-33.02 1354.23,-35.01 1357.74,-41.06"/>
</g>
<!-- Start -->
<g id="node31" class="node">
<title>Start</title>
<path fill="none" stroke="#1c2123" d="M1691,-59C1691,-59 1661,-59 1661,-59 1655,-59 1649,-53 1649,-47 1649,-47 1649,-35 1649,-35 1649,-29 1655,-23 1661,-23 1661,-23 1691,-23 1691,-23 1697,-23 1703,-29 1703,-35 1703,-35 1703,-47 1703,-47 1703,-53 1697,-59 1691,-59"/>
<text text-anchor="middle" x="1676" y="-37.3" font-family="Times,serif" font-size="14.00" fill="#2f3638">Start</text>
</g>
<!-- GcsServer__DoStart&#45;&gt;Start -->
<g id="edge36" class="edge">
<title>GcsServer__DoStart&#45;&gt;Start</title>
<path fill="none" stroke="#666666" d="M1241.83,-577.77C1246,-494.63 1267.51,-152.52 1342,-83 1363.43,-63 1556.83,-48.5 1638.68,-43.2"/>
<polygon fill="#666666" stroke="#666666" points="1639.02,-46.69 1648.77,-42.56 1638.57,-39.7 1639.02,-46.69"/>
</g>
<!-- PrintDebugInfo -->
<g id="node32" class="node">
<title>PrintDebugInfo</title>
<path fill="none" stroke="#1c2123" d="M1483,-1370C1483,-1370 1403,-1370 1403,-1370 1397,-1370 1391,-1364 1391,-1358 1391,-1358 1391,-1346 1391,-1346 1391,-1340 1397,-1334 1403,-1334 1403,-1334 1483,-1334 1483,-1334 1489,-1334 1495,-1340 1495,-1346 1495,-1346 1495,-1358 1495,-1358 1495,-1364 1489,-1370 1483,-1370"/>
<text text-anchor="middle" x="1443" y="-1348.3" font-family="Times,serif" font-size="14.00" fill="#2f3638">PrintDebugInfo</text>
</g>
<!-- GcsServer__DoStart&#45;&gt;PrintDebugInfo -->
<g id="edge37" class="edge">
<title>GcsServer__DoStart&#45;&gt;PrintDebugInfo</title>
<path fill="none" stroke="#666666" d="M1240.91,-614.28C1240.76,-716.34 1245.06,-1215 1342,-1325 1352,-1336.35 1366.22,-1343.15 1380.81,-1347.17"/>
<polygon fill="#666666" stroke="#666666" points="1380.39,-1350.67 1390.92,-1349.54 1381.98,-1343.85 1380.39,-1350.67"/>
</g>
<!-- PrintAsioStats -->
<g id="node33" class="node">
<title>PrintAsioStats</title>
<path fill="none" stroke="#1c2123" d="M1479.5,-1154C1479.5,-1154 1406.5,-1154 1406.5,-1154 1400.5,-1154 1394.5,-1148 1394.5,-1142 1394.5,-1142 1394.5,-1130 1394.5,-1130 1394.5,-1124 1400.5,-1118 1406.5,-1118 1406.5,-1118 1479.5,-1118 1479.5,-1118 1485.5,-1118 1491.5,-1124 1491.5,-1130 1491.5,-1130 1491.5,-1142 1491.5,-1142 1491.5,-1148 1485.5,-1154 1479.5,-1154"/>
<text text-anchor="middle" x="1443" y="-1132.3" font-family="Times,serif" font-size="14.00" fill="#2f3638">PrintAsioStats</text>
</g>
<!-- GcsServer__DoStart&#45;&gt;PrintAsioStats -->
<g id="edge38" class="edge">
<title>GcsServer__DoStart&#45;&gt;PrintAsioStats</title>
<path fill="none" stroke="#666666" d="M1242.05,-614.01C1247.22,-696.14 1272.49,-1034.5 1342,-1109 1353.02,-1120.81 1368.62,-1127.66 1384.22,-1131.57"/>
<polygon fill="#666666" stroke="#666666" points="1383.92,-1135.08 1394.43,-1133.74 1385.38,-1128.24 1383.92,-1135.08"/>
</g>
<!-- CollectStats -->
<g id="node34" class="node">
<title>CollectStats</title>
<path fill="none" stroke="#1c2123" d="M1473,-1100C1473,-1100 1413,-1100 1413,-1100 1407,-1100 1401,-1094 1401,-1088 1401,-1088 1401,-1076 1401,-1076 1401,-1070 1407,-1064 1413,-1064 1413,-1064 1473,-1064 1473,-1064 1479,-1064 1485,-1070 1485,-1076 1485,-1076 1485,-1088 1485,-1088 1485,-1094 1479,-1100 1473,-1100"/>
<text text-anchor="middle" x="1443" y="-1078.3" font-family="Times,serif" font-size="14.00" fill="#2f3638">CollectStats</text>
</g>
<!-- GcsServer__DoStart&#45;&gt;CollectStats -->
<g id="edge39" class="edge">
<title>GcsServer__DoStart&#45;&gt;CollectStats</title>
<path fill="none" stroke="#666666" d="M1242.52,-614.15C1249.31,-691.08 1279.34,-989.32 1342,-1055 1354.66,-1068.27 1373.1,-1075.25 1390.71,-1078.85"/>
<polygon fill="#666666" stroke="#666666" points="1390.49,-1082.36 1400.93,-1080.6 1391.67,-1075.46 1390.49,-1082.36"/>
</g>
<!-- GcsResourceManager -->
<g id="node35" class="node">
<title>GcsResourceManager</title>
<path fill="none" stroke="#1c2123" d="M1734,-1235C1734,-1235 1618,-1235 1618,-1235 1612,-1235 1606,-1229 1606,-1223 1606,-1223 1606,-1211 1606,-1211 1606,-1205 1612,-1199 1618,-1199 1618,-1199 1734,-1199 1734,-1199 1740,-1199 1746,-1205 1746,-1211 1746,-1211 1746,-1223 1746,-1223 1746,-1229 1740,-1235 1734,-1235"/>
<text text-anchor="middle" x="1676" y="-1213.3" font-family="Times,serif" font-size="14.00" fill="#2f3638">GcsResourceManager</text>
</g>
<!-- InitGcsResourceManager&#45;&gt;GcsResourceManager -->
<g id="edge40" class="edge">
<title>InitGcsResourceManager&#45;&gt;GcsResourceManager</title>
<path fill="none" stroke="#666666" d="M1523.03,-1044.21C1530.4,-1047.22 1537.52,-1050.78 1544,-1055 1597.42,-1089.79 1639.38,-1153.46 1660.33,-1189.76"/>
<polygon fill="#666666" stroke="#666666" points="1657.47,-1191.81 1665.44,-1198.79 1663.57,-1188.37 1657.47,-1191.81"/>
</g>
<!-- NodeResourceInfoGrpcService -->
<g id="node36" class="node">
<title>NodeResourceInfoGrpcService</title>
<path fill="none" stroke="#1c2123" d="M1760,-1069C1760,-1069 1592,-1069 1592,-1069 1586,-1069 1580,-1063 1580,-1057 1580,-1057 1580,-1045 1580,-1045 1580,-1039 1586,-1033 1592,-1033 1592,-1033 1760,-1033 1760,-1033 1766,-1033 1772,-1039 1772,-1045 1772,-1045 1772,-1057 1772,-1057 1772,-1063 1766,-1069 1760,-1069"/>
<text text-anchor="middle" x="1676" y="-1047.3" font-family="Times,serif" font-size="14.00" fill="#2f3638">NodeResourceInfoGrpcService</text>
</g>
<!-- InitGcsResourceManager&#45;&gt;NodeResourceInfoGrpcService -->
<g id="edge41" class="edge">
<title>InitGcsResourceManager&#45;&gt;NodeResourceInfoGrpcService</title>
<path fill="none" stroke="#666666" d="M1523.17,-1035.88C1538.17,-1037.38 1554.08,-1038.96 1569.74,-1040.52"/>
<polygon fill="#666666" stroke="#666666" points="1569.68,-1044.03 1579.98,-1041.54 1570.37,-1037.07 1569.68,-1044.03"/>
</g>
<!-- rpc_server___RegisterService -->
<g id="node37" class="node">
<title>rpc_server___RegisterService</title>
<path fill="none" stroke="#1c2123" d="M1981,-1046C1981,-1046 1820,-1046 1820,-1046 1814,-1046 1808,-1040 1808,-1034 1808,-1034 1808,-1022 1808,-1022 1808,-1016 1814,-1010 1820,-1010 1820,-1010 1981,-1010 1981,-1010 1987,-1010 1993,-1016 1993,-1022 1993,-1022 1993,-1034 1993,-1034 1993,-1040 1987,-1046 1981,-1046"/>
<text text-anchor="middle" x="1900.5" y="-1024.3" font-family="Times,serif" font-size="14.00" fill="#2f3638">rpc_server___RegisterService</text>
</g>
<!-- InitGcsResourceManager&#45;&gt;rpc_server___RegisterService -->
<g id="edge42" class="edge">
<title>InitGcsResourceManager&#45;&gt;rpc_server___RegisterService</title>
<path fill="none" stroke="#666666" d="M1523.1,-1025.28C1541.76,-1024.75 1561.58,-1024.27 1580,-1024 1665.32,-1022.75 1686.68,-1022.66 1772,-1024 1780.36,-1024.13 1789.02,-1024.31 1797.72,-1024.52"/>
<polygon fill="#666666" stroke="#666666" points="1797.84,-1028.03 1807.93,-1024.78 1798.02,-1021.03 1797.84,-1028.03"/>
</g>
<!-- gcs_heartbeat_manager_&#45;&gt;Start -->
<g id="edge16" class="edge">
<title>gcs_heartbeat_manager_&#45;&gt;Start</title>
<path fill="none" stroke="#666666" d="M1521.24,-25.69C1560.95,-29.64 1607.47,-34.28 1638.85,-37.4"/>
<polygon fill="#666666" stroke="#666666" points="1638.58,-40.89 1648.88,-38.4 1639.28,-33.93 1638.58,-40.89"/>
</g>
<!-- NodeResourceInfoGrpcService&#45;&gt;rpc_server___RegisterService -->
<g id="edge43" class="edge">
<title>NodeResourceInfoGrpcService&#45;&gt;rpc_server___RegisterService</title>
<path fill="none" stroke="#666666" d="M1772.01,-1041.18C1780.58,-1040.29 1789.29,-1039.39 1797.91,-1038.5"/>
<polygon fill="#666666" stroke="#666666" points="1798.41,-1041.97 1807.99,-1037.46 1797.69,-1035.01 1798.41,-1041.97"/>
</g>
<!-- main_service_ -->
<g id="node38" class="node">
<title>main_service_</title>
<path fill="none" stroke="#1c2123" d="M1480,-1208C1480,-1208 1406,-1208 1406,-1208 1400,-1208 1394,-1202 1394,-1196 1394,-1196 1394,-1184 1394,-1184 1394,-1178 1400,-1172 1406,-1172 1406,-1172 1480,-1172 1480,-1172 1486,-1172 1492,-1178 1492,-1184 1492,-1184 1492,-1196 1492,-1196 1492,-1202 1486,-1208 1480,-1208"/>
<text text-anchor="middle" x="1443" y="-1186.3" font-family="Times,serif" font-size="14.00" fill="#2f3638">main_service_</text>
</g>
<!-- main_service_&#45;&gt;GcsResourceManager -->
<g id="edge44" class="edge">
<title>main_service_&#45;&gt;GcsResourceManager</title>
<path fill="none" stroke="#666666" d="M1492.14,-1195.63C1522.11,-1199.13 1561.37,-1203.72 1595.83,-1207.75"/>
<polygon fill="#666666" stroke="#666666" points="1595.55,-1211.24 1605.88,-1208.92 1596.36,-1204.28 1595.55,-1211.24"/>
</g>
<!-- gcs_publisher_ -->
<g id="node39" class="node">
<title>gcs_publisher_</title>
<path fill="none" stroke="#1c2123" d="M1481.5,-1316C1481.5,-1316 1404.5,-1316 1404.5,-1316 1398.5,-1316 1392.5,-1310 1392.5,-1304 1392.5,-1304 1392.5,-1292 1392.5,-1292 1392.5,-1286 1398.5,-1280 1404.5,-1280 1404.5,-1280 1481.5,-1280 1481.5,-1280 1487.5,-1280 1493.5,-1286 1493.5,-1292 1493.5,-1292 1493.5,-1304 1493.5,-1304 1493.5,-1310 1487.5,-1316 1481.5,-1316"/>
<text text-anchor="middle" x="1443" y="-1294.3" font-family="Times,serif" font-size="14.00" fill="#2f3638">gcs_publisher_</text>
</g>
<!-- gcs_publisher_&#45;&gt;GcsResourceManager -->
<g id="edge45" class="edge">
<title>gcs_publisher_&#45;&gt;GcsResourceManager</title>
<path fill="none" stroke="#666666" d="M1493.71,-1285.91C1509.88,-1281.63 1527.82,-1276.49 1544,-1271 1571.45,-1261.68 1601.39,-1249.49 1625.71,-1239.06"/>
<polygon fill="#666666" stroke="#666666" points="1627.29,-1242.19 1635.08,-1235.01 1624.51,-1235.76 1627.29,-1242.19"/>
</g>
<!-- gcs_table_storage_ -->
<g id="node40" class="node">
<title>gcs_table_storage_</title>
<path fill="none" stroke="#1c2123" d="M1493,-1262C1493,-1262 1393,-1262 1393,-1262 1387,-1262 1381,-1256 1381,-1250 1381,-1250 1381,-1238 1381,-1238 1381,-1232 1387,-1226 1393,-1226 1393,-1226 1493,-1226 1493,-1226 1499,-1226 1505,-1232 1505,-1238 1505,-1238 1505,-1250 1505,-1250 1505,-1256 1499,-1262 1493,-1262"/>
<text text-anchor="middle" x="1443" y="-1240.3" font-family="Times,serif" font-size="14.00" fill="#2f3638">gcs_table_storage_</text>
</g>
<!-- gcs_table_storage_&#45;&gt;GcsResourceManager -->
<g id="edge46" class="edge">
<title>gcs_table_storage_&#45;&gt;GcsResourceManager</title>
<path fill="none" stroke="#666666" d="M1505.3,-1236.84C1532.92,-1233.61 1565.88,-1229.75 1595.38,-1226.31"/>
<polygon fill="#666666" stroke="#666666" points="1596.13,-1229.74 1605.66,-1225.1 1595.32,-1222.79 1596.13,-1229.74"/>
</g>
</g>
</svg>
