<?xml version="1.0" encoding="UTF-8" standalone="no"?>
<!DOCTYPE svg PUBLIC "-//W3C//DTD SVG 1.1//EN"
 "http://www.w3.org/Graphics/SVG/1.1/DTD/svg11.dtd">
<!-- Generated by graphviz version 2.44.1 (20200629.0846)
 -->
<!-- Title: agg_mode Pages: 1 -->
<svg width="494pt" height="98pt"
 viewBox="0.00 0.00 494.00 98.00" xmlns="http://www.w3.org/2000/svg" xmlns:xlink="http://www.w3.org/1999/xlink">
<g id="graph0" class="graph" transform="scale(1 1) rotate(0) translate(4 94)">
<title>agg_mode</title>
<polygon fill="white" stroke="transparent" points="-4,4 -4,-94 490,-94 490,4 -4,4"/>
<!-- executorBuilder_build -->
<g id="node1" class="node">
<title>executorBuilder_build</title>
<polygon fill="none" stroke="black" points="138,-63 0,-63 0,-27 138,-27 138,-63"/>
<text text-anchor="middle" x="69" y="-41.3" font-family="Times,serif" font-size="14.00">executorBuilder_build</text>
</g>
<!-- buildHashAgg -->
<g id="node2" class="node">
<title>buildHashAgg</title>
<polygon fill="none" stroke="black" points="269,-63 174,-63 174,-27 269,-27 269,-63"/>
<text text-anchor="middle" x="221.5" y="-41.3" font-family="Times,serif" font-size="14.00">buildHashAgg</text>
</g>
<!-- executorBuilder_build&#45;&gt;buildHashAgg -->
<g id="edge1" class="edge">
<title>executorBuilder_build&#45;&gt;buildHashAgg</title>
<path fill="none" stroke="#666666" d="M138.2,-45C146.63,-45 155.17,-45 163.4,-45"/>
<polygon fill="#666666" stroke="#666666" points="163.63,-48.5 173.63,-45 163.63,-41.5 163.63,-48.5"/>
</g>
<!-- Split -->
<g id="node3" class="node">
<title>Split</title>
<polygon fill="none" stroke="black" points="359,-63 305,-63 305,-27 359,-27 359,-63"/>
<text text-anchor="middle" x="332" y="-41.3" font-family="Times,serif" font-size="14.00">Split</text>
</g>
<!-- buildHashAgg&#45;&gt;Split -->
<g id="edge2" class="edge">
<title>buildHashAgg&#45;&gt;Split</title>
<path fill="none" stroke="#666666" d="M269.14,-45C277.61,-45 286.33,-45 294.45,-45"/>
<polygon fill="#666666" stroke="#666666" points="294.72,-48.5 304.72,-45 294.72,-41.5 294.72,-48.5"/>
</g>
<!-- Partial1Mode -->
<g id="node4" class="node">
<title>Partial1Mode</title>
<polygon fill="none" stroke="black" points="486,-90 395,-90 395,-54 486,-54 486,-90"/>
<text text-anchor="middle" x="440.5" y="-68.3" font-family="Times,serif" font-size="14.00">Partial1Mode</text>
</g>
<!-- Split&#45;&gt;Partial1Mode -->
<g id="edge3" class="edge">
<title>Split&#45;&gt;Partial1Mode</title>
<path fill="none" stroke="#666666" d="M359.05,-51.6C366.92,-53.6 375.87,-55.87 384.88,-58.15"/>
<polygon fill="#666666" stroke="#666666" points="384.07,-61.56 394.62,-60.62 385.79,-54.77 384.07,-61.56"/>
</g>
<!-- Partial2Mode -->
<g id="node5" class="node">
<title>Partial2Mode</title>
<polygon fill="none" stroke="black" points="486,-36 395,-36 395,0 486,0 486,-36"/>
<text text-anchor="middle" x="440.5" y="-14.3" font-family="Times,serif" font-size="14.00">Partial2Mode</text>
</g>
<!-- Split&#45;&gt;Partial2Mode -->
<g id="edge4" class="edge">
<title>Split&#45;&gt;Partial2Mode</title>
<path fill="none" stroke="#666666" d="M359.05,-38.4C366.92,-36.4 375.87,-34.13 384.88,-31.85"/>
<polygon fill="#666666" stroke="#666666" points="385.79,-35.23 394.62,-29.38 384.07,-28.44 385.79,-35.23"/>
</g>
</g>
</svg>
