<?xml version="1.0" encoding="UTF-8" standalone="no"?>
<!DOCTYPE svg PUBLIC "-//W3C//DTD SVG 1.1//EN"
 "http://www.w3.org/Graphics/SVG/1.1/DTD/svg11.dtd">
<!-- Generated by graphviz version 2.44.1 (20200629.0846)
 -->
<!-- Title: aggPushDown Pages: 1 -->
<svg width="898pt" height="568pt"
 viewBox="0.00 0.00 898.00 568.00" xmlns="http://www.w3.org/2000/svg" xmlns:xlink="http://www.w3.org/1999/xlink">
<g id="graph0" class="graph" transform="scale(1 1) rotate(0) translate(4 564)">
<title>aggPushDown</title>
<polygon fill="white" stroke="transparent" points="-4,4 -4,-564 894,-564 894,4 -4,4"/>
<!-- aggPushDown -->
<g id="node1" class="node">
<title>aggPushDown</title>
<polygon fill="none" stroke="black" points="101,-330.5 101,-391.5 274,-391.5 274,-330.5 101,-330.5"/>
<text text-anchor="middle" x="187.5" y="-376.3" font-family="Times,serif" font-size="14.00">aggPushDown</text>
<polyline fill="none" stroke="black" points="101,-368.5 274,-368.5 "/>
<text text-anchor="start" x="109" y="-353.3" font-family="Times,serif" font-size="14.00">tries to push down aggregate</text>
<text text-anchor="start" x="109" y="-338.3" font-family="Times,serif" font-size="14.00"> functions to join paths</text>
</g>
<!-- tryToEliminateAggregation -->
<g id="node3" class="node">
<title>tryToEliminateAggregation</title>
<polygon fill="none" stroke="black" points="477,-537 310,-537 310,-501 477,-501 477,-537"/>
<text text-anchor="middle" x="393.5" y="-515.3" font-family="Times,serif" font-size="14.00">tryToEliminateAggregation</text>
</g>
<!-- aggPushDown&#45;&gt;tryToEliminateAggregation -->
<g id="edge2" class="edge">
<title>aggPushDown&#45;&gt;tryToEliminateAggregation</title>
<path fill="none" stroke="#666666" d="M209.72,-391.71C231.66,-421.31 268.47,-465.4 310,-492 312.44,-493.56 314.98,-495.04 317.58,-496.44"/>
<polygon fill="#666666" stroke="#666666" points="316.16,-499.64 326.68,-500.91 319.25,-493.36 316.16,-499.64"/>
</g>
<!-- splitAggFuncsAndGbyCols -->
<g id="node4" class="node">
<title>splitAggFuncsAndGbyCols</title>
<polygon fill="none" stroke="black" points="477,-483 310,-483 310,-447 477,-447 477,-483"/>
<text text-anchor="middle" x="393.5" y="-461.3" font-family="Times,serif" font-size="14.00">splitAggFuncsAndGbyCols</text>
</g>
<!-- aggPushDown&#45;&gt;splitAggFuncsAndGbyCols -->
<g id="edge3" class="edge">
<title>aggPushDown&#45;&gt;splitAggFuncsAndGbyCols</title>
<path fill="none" stroke="#666666" d="M230.87,-391.53C253.56,-406.91 282.44,-425.01 310,-438 313.83,-439.81 317.82,-441.54 321.88,-443.2"/>
<polygon fill="#666666" stroke="#666666" points="320.86,-446.56 331.45,-446.93 323.4,-440.04 320.86,-446.56"/>
</g>
<!-- checkAnyCountAndSum -->
<g id="node5" class="node">
<title>checkAnyCountAndSum</title>
<polygon fill="none" stroke="black" points="470,-429 317,-429 317,-393 470,-393 470,-429"/>
<text text-anchor="middle" x="393.5" y="-407.3" font-family="Times,serif" font-size="14.00">checkAnyCountAndSum</text>
</g>
<!-- aggPushDown&#45;&gt;checkAnyCountAndSum -->
<g id="edge4" class="edge">
<title>aggPushDown&#45;&gt;checkAnyCountAndSum</title>
<path fill="none" stroke="#666666" d="M274.13,-381.99C285.68,-384.82 297.52,-387.72 309.04,-390.54"/>
<polygon fill="#666666" stroke="#666666" points="308.51,-394.02 319.06,-393 310.18,-387.22 308.51,-394.02"/>
</g>
<!-- tryToPushDownAgg -->
<g id="node6" class="node">
<title>tryToPushDownAgg</title>
<polygon fill="none" stroke="black" points="458,-352 329,-352 329,-316 458,-316 458,-352"/>
<text text-anchor="middle" x="393.5" y="-330.3" font-family="Times,serif" font-size="14.00">tryToPushDownAgg</text>
</g>
<!-- aggPushDown&#45;&gt;tryToPushDownAgg -->
<g id="edge5" class="edge">
<title>aggPushDown&#45;&gt;tryToPushDownAgg</title>
<path fill="none" stroke="#666666" d="M274.13,-349.67C288.87,-347.72 304.08,-345.7 318.48,-343.8"/>
<polygon fill="#666666" stroke="#666666" points="319.35,-347.21 328.81,-342.43 318.43,-340.27 319.35,-347.21"/>
</g>
<!-- ColumnSubstitute -->
<g id="node7" class="node">
<title>ColumnSubstitute</title>
<polygon fill="none" stroke="black" points="860.5,-36 745.5,-36 745.5,0 860.5,0 860.5,-36"/>
<text text-anchor="middle" x="803" y="-14.3" font-family="Times,serif" font-size="14.00">ColumnSubstitute</text>
</g>
<!-- aggPushDown&#45;&gt;ColumnSubstitute -->
<g id="edge6" class="edge">
<title>aggPushDown&#45;&gt;ColumnSubstitute</title>
<path fill="none" stroke="#666666" d="M196.71,-330.37C211.45,-280.91 246.89,-183.24 310,-126 429.11,-17.97 630.94,-9.41 735.21,-13.16"/>
<polygon fill="#666666" stroke="#666666" points="735.16,-16.66 745.3,-13.58 735.45,-9.67 735.16,-16.66"/>
</g>
<!-- tryAggPushDownForUnion -->
<g id="node8" class="node">
<title>tryAggPushDownForUnion</title>
<polygon fill="none" stroke="black" points="477,-171 310,-171 310,-135 477,-135 477,-171"/>
<text text-anchor="middle" x="393.5" y="-149.3" font-family="Times,serif" font-size="14.00">tryAggPushDownForUnion</text>
</g>
<!-- aggPushDown&#45;&gt;tryAggPushDownForUnion -->
<g id="edge7" class="edge">
<title>aggPushDown&#45;&gt;tryAggPushDownForUnion</title>
<path fill="none" stroke="#666666" d="M218.6,-330.31C259.02,-289.1 330.09,-216.64 367.63,-178.35"/>
<polygon fill="#666666" stroke="#666666" points="370.17,-180.76 374.68,-171.17 365.18,-175.86 370.17,-180.76"/>
</g>
<!-- optimize -->
<g id="node2" class="node">
<title>optimize</title>
<polygon fill="none" stroke="black" points="65,-379 0,-379 0,-343 65,-343 65,-379"/>
<text text-anchor="middle" x="32.5" y="-357.3" font-family="Times,serif" font-size="14.00">optimize</text>
</g>
<!-- optimize&#45;&gt;aggPushDown -->
<g id="edge1" class="edge">
<title>optimize&#45;&gt;aggPushDown</title>
<path fill="none" stroke="#666666" d="M65.2,-361C72.98,-361 81.71,-361 90.83,-361"/>
<polygon fill="#666666" stroke="#666666" points="90.85,-364.5 100.85,-361 90.85,-357.5 90.85,-364.5"/>
</g>
<!-- aggFuncs -->
<g id="node14" class="node">
<title>aggFuncs</title>
<polygon fill="none" stroke="black" points="630.5,-452 562.5,-452 562.5,-416 630.5,-416 630.5,-452"/>
<text text-anchor="middle" x="596.5" y="-430.3" font-family="Times,serif" font-size="14.00">aggFuncs</text>
</g>
<!-- checkAnyCountAndSum&#45;&gt;aggFuncs -->
<g id="edge13" class="edge">
<title>checkAnyCountAndSum&#45;&gt;aggFuncs</title>
<path fill="none" stroke="#666666" d="M470.2,-419.66C497.93,-422.83 528.34,-426.31 552.26,-429.05"/>
<polygon fill="#666666" stroke="#666666" points="552.08,-432.55 562.42,-430.21 552.88,-425.6 552.08,-432.55"/>
</g>
<!-- AggFuncSum -->
<g id="node15" class="node">
<title>AggFuncSum</title>
<polygon fill="none" stroke="black" points="642.5,-560 550.5,-560 550.5,-524 642.5,-524 642.5,-560"/>
<text text-anchor="middle" x="596.5" y="-538.3" font-family="Times,serif" font-size="14.00">AggFuncSum</text>
</g>
<!-- checkAnyCountAndSum&#45;&gt;AggFuncSum -->
<g id="edge14" class="edge">
<title>checkAnyCountAndSum&#45;&gt;AggFuncSum</title>
<path fill="none" stroke="#666666" d="M464.37,-429.03C468.89,-431.63 473.16,-434.6 477,-438 505.28,-463.05 484.72,-489.95 513,-515 520.87,-521.97 530.57,-527.14 540.52,-530.98"/>
<polygon fill="#666666" stroke="#666666" points="539.49,-534.33 550.09,-534.27 541.77,-527.71 539.49,-534.33"/>
</g>
<!-- AggFuncCount -->
<g id="node16" class="node">
<title>AggFuncCount</title>
<polygon fill="none" stroke="black" points="646.5,-506 546.5,-506 546.5,-470 646.5,-470 646.5,-506"/>
<text text-anchor="middle" x="596.5" y="-484.3" font-family="Times,serif" font-size="14.00">AggFuncCount</text>
</g>
<!-- checkAnyCountAndSum&#45;&gt;AggFuncCount -->
<g id="edge15" class="edge">
<title>checkAnyCountAndSum&#45;&gt;AggFuncCount</title>
<path fill="none" stroke="#666666" d="M455.56,-429.05C462.89,-431.78 470.19,-434.77 477,-438 494.16,-446.13 495.84,-452.87 513,-461 520.54,-464.57 528.67,-467.86 536.79,-470.82"/>
<polygon fill="#666666" stroke="#666666" points="535.69,-474.14 546.28,-474.15 538,-467.54 535.69,-474.14"/>
</g>
<!-- IsAllFirstRow -->
<g id="node9" class="node">
<title>IsAllFirstRow</title>
<polygon fill="none" stroke="black" points="643.5,-252 549.5,-252 549.5,-216 643.5,-216 643.5,-252"/>
<text text-anchor="middle" x="596.5" y="-230.3" font-family="Times,serif" font-size="14.00">IsAllFirstRow</text>
</g>
<!-- tryToPushDownAgg&#45;&gt;IsAllFirstRow -->
<g id="edge8" class="edge">
<title>tryToPushDownAgg&#45;&gt;IsAllFirstRow</title>
<path fill="none" stroke="#666666" d="M419.87,-315.92C443.22,-299.89 479.24,-276.65 513,-261 521.43,-257.09 530.59,-253.5 539.64,-250.29"/>
<polygon fill="#666666" stroke="#666666" points="541.04,-253.51 549.37,-246.97 538.78,-246.89 541.04,-253.51"/>
</g>
<!-- NewSchema -->
<g id="node10" class="node">
<title>NewSchema</title>
<polygon fill="none" stroke="black" points="846,-360 760,-360 760,-324 846,-324 846,-360"/>
<text text-anchor="middle" x="803" y="-338.3" font-family="Times,serif" font-size="14.00">NewSchema</text>
</g>
<!-- tryToPushDownAgg&#45;&gt;NewSchema -->
<g id="edge9" class="edge">
<title>tryToPushDownAgg&#45;&gt;NewSchema</title>
<path fill="none" stroke="#666666" d="M458.17,-335.25C538.56,-336.83 675.32,-339.51 749.84,-340.98"/>
<polygon fill="#666666" stroke="#666666" points="749.86,-344.48 759.93,-341.17 750,-337.48 749.86,-344.48"/>
</g>
<!-- makeNewAgg -->
<g id="node11" class="node">
<title>makeNewAgg</title>
<polygon fill="none" stroke="black" points="644,-306 549,-306 549,-270 644,-270 644,-306"/>
<text text-anchor="middle" x="596.5" y="-284.3" font-family="Times,serif" font-size="14.00">makeNewAgg</text>
</g>
<!-- tryToPushDownAgg&#45;&gt;makeNewAgg -->
<g id="edge10" class="edge">
<title>tryToPushDownAgg&#45;&gt;makeNewAgg</title>
<path fill="none" stroke="#666666" d="M458.1,-319.45C484.09,-313.5 513.91,-306.67 539.11,-300.91"/>
<polygon fill="#666666" stroke="#666666" points="539.91,-304.31 548.88,-298.67 538.35,-297.49 539.91,-304.31"/>
</g>
<!-- getDefaultValues -->
<g id="node12" class="node">
<title>getDefaultValues</title>
<polygon fill="none" stroke="black" points="651.5,-398 541.5,-398 541.5,-362 651.5,-362 651.5,-398"/>
<text text-anchor="middle" x="596.5" y="-376.3" font-family="Times,serif" font-size="14.00">getDefaultValues</text>
</g>
<!-- tryToPushDownAgg&#45;&gt;getDefaultValues -->
<g id="edge11" class="edge">
<title>tryToPushDownAgg&#45;&gt;getDefaultValues</title>
<path fill="none" stroke="#666666" d="M458.1,-348.55C481.55,-353.92 508.11,-360 531.58,-365.37"/>
<polygon fill="#666666" stroke="#666666" points="530.91,-368.81 541.44,-367.63 532.47,-361.98 530.91,-368.81"/>
</g>
<!-- isDecomposableWithUnion -->
<g id="node20" class="node">
<title>isDecomposableWithUnion</title>
<polygon fill="none" stroke="black" points="680,-198 513,-198 513,-162 680,-162 680,-198"/>
<text text-anchor="middle" x="596.5" y="-176.3" font-family="Times,serif" font-size="14.00">isDecomposableWithUnion</text>
</g>
<!-- tryAggPushDownForUnion&#45;&gt;isDecomposableWithUnion -->
<g id="edge20" class="edge">
<title>tryAggPushDownForUnion&#45;&gt;isDecomposableWithUnion</title>
<path fill="none" stroke="#666666" d="M477.12,-164.1C485.61,-165.24 494.27,-166.4 502.85,-167.55"/>
<polygon fill="#666666" stroke="#666666" points="502.49,-171.04 512.87,-168.9 503.43,-164.1 502.49,-171.04"/>
</g>
<!-- pushAggCrossUnion -->
<g id="node21" class="node">
<title>pushAggCrossUnion</title>
<polygon fill="none" stroke="black" points="661.5,-144 531.5,-144 531.5,-108 661.5,-108 661.5,-144"/>
<text text-anchor="middle" x="596.5" y="-122.3" font-family="Times,serif" font-size="14.00">pushAggCrossUnion</text>
</g>
<!-- tryAggPushDownForUnion&#45;&gt;pushAggCrossUnion -->
<g id="edge21" class="edge">
<title>tryAggPushDownForUnion&#45;&gt;pushAggCrossUnion</title>
<path fill="none" stroke="#666666" d="M477.12,-141.9C491.68,-139.95 506.74,-137.92 521.05,-136"/>
<polygon fill="#666666" stroke="#666666" points="521.88,-139.42 531.32,-134.62 520.94,-132.48 521.88,-139.42"/>
</g>
<!-- splitPartialAgg -->
<g id="node22" class="node">
<title>splitPartialAgg</title>
<polygon fill="none" stroke="black" points="645.5,-90 547.5,-90 547.5,-54 645.5,-54 645.5,-90"/>
<text text-anchor="middle" x="596.5" y="-68.3" font-family="Times,serif" font-size="14.00">splitPartialAgg</text>
</g>
<!-- tryAggPushDownForUnion&#45;&gt;splitPartialAgg -->
<g id="edge22" class="edge">
<title>tryAggPushDownForUnion&#45;&gt;splitPartialAgg</title>
<path fill="none" stroke="#666666" d="M431.4,-134.9C454.56,-123.86 485.2,-109.85 513,-99 520.87,-95.93 529.25,-92.91 537.54,-90.06"/>
<polygon fill="#666666" stroke="#666666" points="538.83,-93.32 547.19,-86.81 536.6,-86.69 538.83,-93.32"/>
</g>
<!-- makeNewAgg&#45;&gt;NewSchema -->
<g id="edge16" class="edge">
<title>makeNewAgg&#45;&gt;NewSchema</title>
<path fill="none" stroke="#666666" d="M644.16,-300.32C675.68,-308.64 717.31,-319.64 749.91,-328.25"/>
<polygon fill="#666666" stroke="#666666" points="749.15,-331.67 759.72,-330.83 750.94,-324.9 749.15,-331.67"/>
</g>
<!-- LogicalAggregation -->
<g id="node17" class="node">
<title>LogicalAggregation</title>
<polygon fill="none" stroke="black" points="865.5,-144 740.5,-144 740.5,-108 865.5,-108 865.5,-144"/>
<text text-anchor="middle" x="803" y="-122.3" font-family="Times,serif" font-size="14.00">LogicalAggregation</text>
</g>
<!-- makeNewAgg&#45;&gt;LogicalAggregation -->
<g id="edge17" class="edge">
<title>makeNewAgg&#45;&gt;LogicalAggregation</title>
<path fill="none" stroke="#666666" d="M644.02,-280.86C657.04,-276.88 670.28,-270.67 680,-261 715.87,-225.32 679.91,-188.46 716,-153 720.36,-148.71 725.4,-145.11 730.8,-142.07"/>
<polygon fill="#666666" stroke="#666666" points="732.73,-145.02 740.17,-137.49 729.65,-138.74 732.73,-145.02"/>
</g>
<!-- NewAggFuncDesc -->
<g id="node18" class="node">
<title>NewAggFuncDesc</title>
<polygon fill="none" stroke="black" points="862.5,-252 743.5,-252 743.5,-216 862.5,-216 862.5,-252"/>
<text text-anchor="middle" x="803" y="-230.3" font-family="Times,serif" font-size="14.00">NewAggFuncDesc</text>
</g>
<!-- makeNewAgg&#45;&gt;NewAggFuncDesc -->
<g id="edge18" class="edge">
<title>makeNewAgg&#45;&gt;NewAggFuncDesc</title>
<path fill="none" stroke="#666666" d="M644.16,-275.68C670.64,-268.69 704.26,-259.81 733.66,-252.04"/>
<polygon fill="#666666" stroke="#666666" points="734.68,-255.4 743.46,-249.46 732.9,-248.63 734.68,-255.4"/>
</g>
<!-- SetSchema -->
<g id="node19" class="node">
<title>SetSchema</title>
<polygon fill="none" stroke="black" points="841.5,-306 764.5,-306 764.5,-270 841.5,-270 841.5,-306"/>
<text text-anchor="middle" x="803" y="-284.3" font-family="Times,serif" font-size="14.00">SetSchema</text>
</g>
<!-- makeNewAgg&#45;&gt;SetSchema -->
<g id="edge19" class="edge">
<title>makeNewAgg&#45;&gt;SetSchema</title>
<path fill="none" stroke="#666666" d="M644.16,-288C677.03,-288 720.91,-288 754.06,-288"/>
<polygon fill="#666666" stroke="#666666" points="754.42,-291.5 764.42,-288 754.42,-284.5 754.42,-291.5"/>
</g>
<!-- EvalNullValueInOuterJoin -->
<g id="node13" class="node">
<title>EvalNullValueInOuterJoin</title>
<polygon fill="none" stroke="black" points="883.5,-414 722.5,-414 722.5,-378 883.5,-378 883.5,-414"/>
<text text-anchor="middle" x="803" y="-392.3" font-family="Times,serif" font-size="14.00">EvalNullValueInOuterJoin</text>
</g>
<!-- getDefaultValues&#45;&gt;EvalNullValueInOuterJoin -->
<g id="edge12" class="edge">
<title>getDefaultValues&#45;&gt;EvalNullValueInOuterJoin</title>
<path fill="none" stroke="#666666" d="M651.77,-384.25C670.37,-385.7 691.73,-387.37 712.38,-388.99"/>
<polygon fill="#666666" stroke="#666666" points="712.2,-392.49 722.45,-389.78 712.75,-385.51 712.2,-392.49"/>
</g>
<!-- pushAggCrossUnion&#45;&gt;ColumnSubstitute -->
<g id="edge23" class="edge">
<title>pushAggCrossUnion&#45;&gt;ColumnSubstitute</title>
<path fill="none" stroke="#666666" d="M661.82,-109.77C668.28,-106.75 674.48,-103.19 680,-99 702.97,-81.55 692.92,-62.31 716,-45 721.94,-40.55 728.63,-36.82 735.59,-33.69"/>
<polygon fill="#666666" stroke="#666666" points="737.25,-36.8 745.2,-29.8 734.62,-30.31 737.25,-36.8"/>
</g>
<!-- pushAggCrossUnion&#45;&gt;LogicalAggregation -->
<g id="edge24" class="edge">
<title>pushAggCrossUnion&#45;&gt;LogicalAggregation</title>
<path fill="none" stroke="#666666" d="M661.64,-126C683.38,-126 707.8,-126 730.1,-126"/>
<polygon fill="#666666" stroke="#666666" points="730.18,-129.5 740.18,-126 730.18,-122.5 730.18,-129.5"/>
</g>
<!-- pushAggCrossUnion&#45;&gt;NewAggFuncDesc -->
<g id="edge25" class="edge">
<title>pushAggCrossUnion&#45;&gt;NewAggFuncDesc</title>
<path fill="none" stroke="#666666" d="M661.82,-142.23C668.28,-145.25 674.48,-148.81 680,-153 702.97,-170.45 692.92,-189.69 716,-207 721.47,-211.1 727.57,-214.59 733.94,-217.55"/>
<polygon fill="#666666" stroke="#666666" points="732.83,-220.88 743.41,-221.53 735.54,-214.43 732.83,-220.88"/>
</g>
<!-- ConvertAggToProj -->
<g id="node23" class="node">
<title>ConvertAggToProj</title>
<polygon fill="none" stroke="black" points="863.5,-198 742.5,-198 742.5,-162 863.5,-162 863.5,-198"/>
<text text-anchor="middle" x="803" y="-176.3" font-family="Times,serif" font-size="14.00">ConvertAggToProj</text>
</g>
<!-- pushAggCrossUnion&#45;&gt;ConvertAggToProj -->
<g id="edge26" class="edge">
<title>pushAggCrossUnion&#45;&gt;ConvertAggToProj</title>
<path fill="none" stroke="#666666" d="M661.64,-142.94C684.19,-148.89 709.63,-155.61 732.59,-161.67"/>
<polygon fill="#666666" stroke="#666666" points="731.7,-165.06 742.26,-164.23 733.49,-158.29 731.7,-165.06"/>
</g>
<!-- splitPartialAgg&#45;&gt;LogicalAggregation -->
<g id="edge27" class="edge">
<title>splitPartialAgg&#45;&gt;LogicalAggregation</title>
<path fill="none" stroke="#666666" d="M645.7,-84.73C670.95,-91.4 702.36,-99.69 730.39,-107.09"/>
<polygon fill="#666666" stroke="#666666" points="729.59,-110.5 740.15,-109.67 731.38,-103.73 729.59,-110.5"/>
</g>
<!-- BuildFinalModeAggregation -->
<g id="node24" class="node">
<title>BuildFinalModeAggregation</title>
<polygon fill="none" stroke="black" points="890,-90 716,-90 716,-54 890,-54 890,-90"/>
<text text-anchor="middle" x="803" y="-68.3" font-family="Times,serif" font-size="14.00">BuildFinalModeAggregation</text>
</g>
<!-- splitPartialAgg&#45;&gt;BuildFinalModeAggregation -->
<g id="edge28" class="edge">
<title>splitPartialAgg&#45;&gt;BuildFinalModeAggregation</title>
<path fill="none" stroke="#666666" d="M645.7,-72C663.67,-72 684.75,-72 705.52,-72"/>
<polygon fill="#666666" stroke="#666666" points="705.67,-75.5 715.67,-72 705.67,-68.5 705.67,-75.5"/>
</g>
</g>
</svg>
