<?xml version="1.0" encoding="UTF-8" standalone="no"?>
<!DOCTYPE svg PUBLIC "-//W3C//DTD SVG 1.1//EN"
 "http://www.w3.org/Graphics/SVG/1.1/DTD/svg11.dtd">
<!-- Generated by graphviz version 2.44.1 (20200629.0846)
 -->
<!-- Title: detachCNFCondAndBuildRangeForIndex Pages: 1 -->
<svg width="1361pt" height="539pt"
 viewBox="0.00 0.00 1361.20 538.66" xmlns="http://www.w3.org/2000/svg" xmlns:xlink="http://www.w3.org/1999/xlink">
<g id="graph0" class="graph" transform="scale(1 1) rotate(0) translate(4 534.66)">
<title>detachCNFCondAndBuildRangeForIndex</title>
<polygon fill="white" stroke="transparent" points="-4,4 -4,-534.66 1357.2,-534.66 1357.2,4 -4,4"/>
<!-- detachCNFCondAndBuildRangeForIndex -->
<g id="node1" class="node">
<title>detachCNFCondAndBuildRangeForIndex</title>
<path fill="none" stroke="#1c2123" d="M12,-271.49C12,-271.49 233,-271.49 233,-271.49 239,-271.49 245,-277.49 245,-283.49 245,-283.49 245,-305.49 245,-305.49 245,-311.49 239,-317.49 233,-317.49 233,-317.49 12,-317.49 12,-317.49 6,-317.49 0,-311.49 0,-305.49 0,-305.49 0,-283.49 0,-283.49 0,-277.49 6,-271.49 12,-271.49"/>
<text text-anchor="middle" x="122.5" y="-302.29" font-family="Times,serif" font-size="14.00" fill="#2f3638">detachCNFCondAndBuildRangeForIndex</text>
<polyline fill="none" stroke="#1c2123" points="0,-294.49 245,-294.49 "/>
<text text-anchor="middle" x="122.5" y="-279.29" font-family="Times,serif" font-size="14.00" fill="#2f3638">处理and连接的表达式</text>
</g>
<!-- ExtractEqAndInCondition -->
<g id="node2" class="node">
<title>ExtractEqAndInCondition</title>
<path fill="none" stroke="#1c2123" d="M481.2,-58.49C481.2,-58.49 662.2,-58.49 662.2,-58.49 668.2,-58.49 674.2,-64.49 674.2,-70.49 674.2,-70.49 674.2,-92.49 674.2,-92.49 674.2,-98.49 668.2,-104.49 662.2,-104.49 662.2,-104.49 481.2,-104.49 481.2,-104.49 475.2,-104.49 469.2,-98.49 469.2,-92.49 469.2,-92.49 469.2,-70.49 469.2,-70.49 469.2,-64.49 475.2,-58.49 481.2,-58.49"/>
<text text-anchor="middle" x="571.7" y="-89.29" font-family="Times,serif" font-size="14.00" fill="#2f3638">ExtractEqAndInCondition</text>
<polyline fill="none" stroke="#1c2123" points="469.2,-81.49 674.2,-81.49 "/>
<text text-anchor="start" x="477.2" y="-66.29" font-family="Times,serif" font-size="14.00" fill="#2f3638">抽出Eq/In 可以用于点查的cond</text>
</g>
<!-- detachCNFCondAndBuildRangeForIndex&#45;&gt;ExtractEqAndInCondition -->
<g id="edge1" class="edge">
<title>detachCNFCondAndBuildRangeForIndex&#45;&gt;ExtractEqAndInCondition</title>
<path fill="none" stroke="#666666" d="M160.33,-271.45C191.8,-252.19 238.58,-224.57 281,-203.49 354.14,-167.14 440.78,-131.59 500.14,-108.33"/>
<polygon fill="#666666" stroke="#666666" points="501.75,-111.46 509.79,-104.56 499.2,-104.94 501.75,-111.46"/>
</g>
<!-- DetachCondAndBuildRangeForIndex -->
<g id="node3" class="node">
<title>DetachCondAndBuildRangeForIndex</title>
<path fill="none" stroke="#1c2123" d="M452.2,-204.99C452.2,-204.99 691.2,-204.99 691.2,-204.99 697.2,-204.99 703.2,-210.99 703.2,-216.99 703.2,-216.99 703.2,-283.99 703.2,-283.99 703.2,-289.99 697.2,-295.99 691.2,-295.99 691.2,-295.99 452.2,-295.99 452.2,-295.99 446.2,-295.99 440.2,-289.99 440.2,-283.99 440.2,-283.99 440.2,-216.99 440.2,-216.99 440.2,-210.99 446.2,-204.99 452.2,-204.99"/>
<text text-anchor="middle" x="571.7" y="-280.79" font-family="Times,serif" font-size="14.00" fill="#2f3638">DetachCondAndBuildRangeForIndex</text>
<polyline fill="none" stroke="#1c2123" points="440.2,-272.99 703.2,-272.99 "/>
<text text-anchor="start" x="448.2" y="-257.79" font-family="Times,serif" font-size="14.00" fill="#2f3638">处理除了Eq/In 点查剩下的filter</text>
<text text-anchor="start" x="448.2" y="-242.79" font-family="Times,serif" font-size="14.00" fill="#2f3638"> 这个地方又递归的调到最开始的函数了</text>
<text text-anchor="start" x="448.2" y="-227.79" font-family="Times,serif" font-size="14.00" fill="#2f3638"> 剩下的filter不包含了Eq/In</text>
<text text-anchor="start" x="448.2" y="-212.79" font-family="Times,serif" font-size="14.00" fill="#2f3638"> 会走不同的code path</text>
</g>
<!-- detachCNFCondAndBuildRangeForIndex&#45;&gt;DetachCondAndBuildRangeForIndex -->
<g id="edge2" class="edge">
<title>detachCNFCondAndBuildRangeForIndex&#45;&gt;DetachCondAndBuildRangeForIndex</title>
<path fill="none" stroke="#666666" d="M245.11,-282.52C302.2,-276.91 370.58,-270.18 429.9,-264.34"/>
<polygon fill="#666666" stroke="#666666" points="430.5,-267.8 440.11,-263.34 429.81,-260.83 430.5,-267.8"/>
</g>
<!-- detachColumnCNFConditions -->
<g id="node4" class="node">
<title>detachColumnCNFConditions</title>
<path fill="none" stroke="#1c2123" d="M458.2,-391.49C458.2,-391.49 685.2,-391.49 685.2,-391.49 691.2,-391.49 697.2,-397.49 697.2,-403.49 697.2,-403.49 697.2,-455.49 697.2,-455.49 697.2,-461.49 691.2,-467.49 685.2,-467.49 685.2,-467.49 458.2,-467.49 458.2,-467.49 452.2,-467.49 446.2,-461.49 446.2,-455.49 446.2,-455.49 446.2,-403.49 446.2,-403.49 446.2,-397.49 452.2,-391.49 458.2,-391.49"/>
<text text-anchor="middle" x="571.7" y="-452.29" font-family="Times,serif" font-size="14.00" fill="#2f3638">detachColumnCNFConditions</text>
<polyline fill="none" stroke="#1c2123" points="446.2,-444.49 697.2,-444.49 "/>
<text text-anchor="start" x="454.2" y="-429.29" font-family="Times,serif" font-size="14.00" fill="#2f3638">如果eqOrInCount为0</text>
<text text-anchor="start" x="454.2" y="-414.29" font-family="Times,serif" font-size="14.00" fill="#2f3638"> 只用处理第一个col对应的条件就行了</text>
<text text-anchor="start" x="454.2" y="-399.29" font-family="Times,serif" font-size="14.00" fill="#2f3638"> 见上面的单列索引处理</text>
</g>
<!-- detachCNFCondAndBuildRangeForIndex&#45;&gt;detachColumnCNFConditions -->
<g id="edge3" class="edge">
<title>detachCNFCondAndBuildRangeForIndex&#45;&gt;detachColumnCNFConditions</title>
<path fill="none" stroke="#666666" d="M199.87,-317.54C264.58,-337.08 358.91,-365.55 436.24,-388.9"/>
<polygon fill="#666666" stroke="#666666" points="435.48,-392.32 446.06,-391.86 437.5,-385.62 435.48,-392.32"/>
</g>
<!-- buildCNFIndexRange -->
<g id="node5" class="node">
<title>buildCNFIndexRange</title>
<path fill="none" stroke="#1c2123" d="M894.2,-331.99C894.2,-331.99 1064.2,-331.99 1064.2,-331.99 1070.2,-331.99 1076.2,-337.99 1076.2,-343.99 1076.2,-343.99 1076.2,-380.99 1076.2,-380.99 1076.2,-386.99 1070.2,-392.99 1064.2,-392.99 1064.2,-392.99 894.2,-392.99 894.2,-392.99 888.2,-392.99 882.2,-386.99 882.2,-380.99 882.2,-380.99 882.2,-343.99 882.2,-343.99 882.2,-337.99 888.2,-331.99 894.2,-331.99"/>
<text text-anchor="middle" x="979.2" y="-377.79" font-family="Times,serif" font-size="14.00" fill="#2f3638">buildCNFIndexRange</text>
<polyline fill="none" stroke="#1c2123" points="882.2,-369.99 1076.2,-369.99 "/>
<text text-anchor="start" x="890.2" y="-354.79" font-family="Times,serif" font-size="14.00" fill="#2f3638">调用range builder的intersection</text>
<text text-anchor="start" x="890.2" y="-339.79" font-family="Times,serif" font-size="14.00" fill="#2f3638"> union range等构建index range</text>
</g>
<!-- detachCNFCondAndBuildRangeForIndex&#45;&gt;buildCNFIndexRange -->
<g id="edge4" class="edge">
<title>detachCNFCondAndBuildRangeForIndex&#45;&gt;buildCNFIndexRange</title>
<path fill="none" stroke="#666666" d="M152.75,-317.77C206.14,-358.72 324.6,-442.51 440.2,-476.49 613.44,-527.41 678.99,-559.63 846.2,-491.49 890.74,-473.34 928.43,-432.13 951.99,-401.14"/>
<polygon fill="#666666" stroke="#666666" points="954.8,-403.22 957.96,-393.1 949.19,-399.04 954.8,-403.22"/>
</g>
<!-- extractIndexPointRangesForCNF -->
<g id="node6" class="node">
<title>extractIndexPointRangesForCNF</title>
<path fill="none" stroke="#1c2123" d="M658.2,-186.49C658.2,-186.49 485.2,-186.49 485.2,-186.49 479.2,-186.49 473.2,-180.49 473.2,-174.49 473.2,-174.49 473.2,-162.49 473.2,-162.49 473.2,-156.49 479.2,-150.49 485.2,-150.49 485.2,-150.49 658.2,-150.49 658.2,-150.49 664.2,-150.49 670.2,-156.49 670.2,-162.49 670.2,-162.49 670.2,-174.49 670.2,-174.49 670.2,-180.49 664.2,-186.49 658.2,-186.49"/>
<text text-anchor="middle" x="571.7" y="-164.79" font-family="Times,serif" font-size="14.00" fill="#2f3638">extractIndexPointRangesForCNF</text>
</g>
<!-- detachCNFCondAndBuildRangeForIndex&#45;&gt;extractIndexPointRangesForCNF -->
<g id="edge5" class="edge">
<title>detachCNFCondAndBuildRangeForIndex&#45;&gt;extractIndexPointRangesForCNF</title>
<path fill="none" stroke="#666666" d="M190.59,-271.39C254.32,-249.96 353.07,-218.06 440.2,-195.49 449.18,-193.16 458.54,-190.9 467.95,-188.75"/>
<polygon fill="#666666" stroke="#666666" points="468.78,-192.15 477.76,-186.54 467.24,-185.32 468.78,-192.15"/>
</g>
<!-- considerDNF -->
<g id="node7" class="node">
<title>considerDNF</title>
<path fill="#9adebe" stroke="#729c88" d="M348.62,-292.55C348.62,-292.55 351.78,-292.63 351.78,-292.63 351.94,-292.63 352.25,-292.64 352.4,-292.65 352.4,-292.65 355.52,-292.77 355.52,-292.77 355.68,-292.78 355.99,-292.79 356.14,-292.8 356.14,-292.8 359.21,-292.96 359.21,-292.96 359.37,-292.97 359.67,-292.99 359.83,-293 359.83,-293 362.83,-293.2 362.83,-293.2 362.98,-293.21 363.29,-293.24 363.44,-293.25 363.44,-293.25 366.36,-293.49 366.36,-293.49 366.52,-293.5 366.82,-293.53 366.98,-293.55 366.98,-293.55 369.8,-293.82 369.8,-293.82 369.95,-293.84 370.26,-293.87 370.41,-293.89 370.41,-293.89 373.13,-294.2 373.13,-294.2 373.28,-294.22 373.58,-294.26 373.74,-294.28 373.74,-294.28 376.33,-294.62 376.33,-294.62 376.48,-294.64 376.78,-294.69 376.94,-294.71 376.94,-294.71 379.39,-295.09 379.39,-295.09 379.55,-295.11 379.85,-295.16 380,-295.19 380,-295.19 382.31,-295.6 382.31,-295.6 382.46,-295.62 382.77,-295.68 382.92,-295.71 382.92,-295.71 385.08,-296.14 385.08,-296.14 385.23,-296.17 385.53,-296.24 385.68,-296.27 385.68,-296.27 387.67,-296.73 387.67,-296.73 387.82,-296.76 388.12,-296.84 388.27,-296.87 388.27,-296.87 390.1,-297.35 390.1,-297.35 390.25,-297.39 390.54,-297.47 390.69,-297.52 390.69,-297.52 392.34,-298.01 392.34,-298.01 392.49,-298.05 392.78,-298.14 392.93,-298.19 392.93,-298.19 394.4,-298.7 394.4,-298.7 394.54,-298.75 394.83,-298.85 394.98,-298.91 394.98,-298.91 396.26,-299.41 396.26,-299.41 396.41,-299.47 396.69,-299.59 396.83,-299.66 396.83,-299.66 397.93,-300.16 397.93,-300.16 398.07,-300.23 398.35,-300.36 398.48,-300.44 398.48,-300.44 399.4,-300.93 399.4,-300.93 399.54,-301.01 399.8,-301.16 399.93,-301.25 399.93,-301.25 400.68,-301.73 400.68,-301.73 400.81,-301.81 401.06,-301.99 401.18,-302.09 401.18,-302.09 401.76,-302.55 401.76,-302.55 401.88,-302.64 402.11,-302.85 402.21,-302.96 402.21,-302.96 402.64,-303.38 402.64,-303.38 402.75,-303.49 402.95,-303.72 403.04,-303.85 403.04,-303.85 403.33,-304.23 403.33,-304.23 403.42,-304.36 403.58,-304.62 403.65,-304.75 403.65,-304.75 403.83,-305.1 403.83,-305.1 403.9,-305.24 404.01,-305.52 404.06,-305.67 404.06,-305.67 404.15,-305.99 404.15,-305.99 404.19,-306.14 404.24,-306.44 404.26,-306.59 404.26,-306.59 404.28,-306.9 404.28,-306.9 404.29,-307.05 404.28,-307.36 404.27,-307.51 404.27,-307.51 404.23,-307.83 404.23,-307.83 404.21,-307.99 404.14,-308.29 404.09,-308.43 404.09,-308.43 403.98,-308.78 403.98,-308.78 403.94,-308.93 403.82,-309.21 403.75,-309.35 403.75,-309.35 403.55,-309.74 403.55,-309.74 403.48,-309.88 403.33,-310.15 403.24,-310.27 403.24,-310.27 402.94,-310.71 402.94,-310.71 402.86,-310.83 402.67,-311.08 402.57,-311.19 402.57,-311.19 402.16,-311.67 402.16,-311.67 402.06,-311.78 401.85,-312.01 401.74,-312.12 401.74,-312.12 401.22,-312.62 401.22,-312.62 401.11,-312.73 400.89,-312.94 400.77,-313.04 400.77,-313.04 400.13,-313.57 400.13,-313.57 400.01,-313.67 399.77,-313.86 399.65,-313.95 399.65,-313.95 398.9,-314.51 398.9,-314.51 398.77,-314.6 398.52,-314.78 398.39,-314.86 398.39,-314.86 397.53,-315.43 397.53,-315.43 397.4,-315.52 397.14,-315.68 397.01,-315.76 397.01,-315.76 396.04,-316.34 396.04,-316.34 395.9,-316.42 395.64,-316.57 395.5,-316.65 395.5,-316.65 394.43,-317.23 394.43,-317.23 394.29,-317.31 394.02,-317.45 393.88,-317.52 393.88,-317.52 392.71,-318.1 392.71,-318.1 392.58,-318.17 392.3,-318.31 392.16,-318.37 392.16,-318.37 390.9,-318.95 390.9,-318.95 390.76,-319.02 390.48,-319.14 390.34,-319.2 390.34,-319.2 389,-319.78 389,-319.78 388.86,-319.84 388.57,-319.95 388.43,-320.01 388.43,-320.01 387.02,-320.57 387.02,-320.57 386.87,-320.63 386.58,-320.74 386.44,-320.79 386.44,-320.79 384.96,-321.34 384.96,-321.34 384.81,-321.4 384.52,-321.5 384.38,-321.55 384.38,-321.55 382.83,-322.08 382.83,-322.08 382.69,-322.13 382.39,-322.23 382.25,-322.28 382.25,-322.28 380.65,-322.79 380.65,-322.79 380.5,-322.84 380.21,-322.93 380.06,-322.97 380.06,-322.97 378.41,-323.46 378.41,-323.46 378.26,-323.51 377.96,-323.59 377.82,-323.63 377.82,-323.63 376.12,-324.1 376.12,-324.1 375.98,-324.14 375.68,-324.22 375.53,-324.26 375.53,-324.26 373.8,-324.7 373.8,-324.7 373.65,-324.74 373.35,-324.81 373.2,-324.84 373.2,-324.84 371.43,-325.26 371.43,-325.26 371.28,-325.29 370.98,-325.36 370.83,-325.39 370.83,-325.39 369.04,-325.78 369.04,-325.78 368.89,-325.81 368.59,-325.87 368.44,-325.9 368.44,-325.9 366.62,-326.25 366.62,-326.25 366.47,-326.28 366.17,-326.34 366.01,-326.37 366.01,-326.37 364.18,-326.69 364.18,-326.69 364.02,-326.71 363.72,-326.76 363.57,-326.79 363.57,-326.79 361.71,-327.08 361.71,-327.08 361.56,-327.1 361.26,-327.15 361.1,-327.17 361.1,-327.17 359.24,-327.42 359.24,-327.42 359.08,-327.44 358.78,-327.48 358.62,-327.5 358.62,-327.5 356.74,-327.72 356.74,-327.72 356.59,-327.74 356.28,-327.77 356.13,-327.78 356.13,-327.78 354.24,-327.97 354.24,-327.97 354.09,-327.98 353.78,-328.01 353.63,-328.02 353.63,-328.02 351.73,-328.17 351.73,-328.17 351.58,-328.18 351.27,-328.2 351.12,-328.21 351.12,-328.21 349.22,-328.32 349.22,-328.32 349.06,-328.33 348.75,-328.35 348.6,-328.35 348.6,-328.35 346.69,-328.43 346.69,-328.43 346.54,-328.43 346.23,-328.44 346.08,-328.45 346.08,-328.45 344.17,-328.48 344.17,-328.48 344.02,-328.49 343.71,-328.49 343.56,-328.49 343.56,-328.49 341.65,-328.49 341.65,-328.49 341.49,-328.49 341.18,-328.49 341.03,-328.48 341.03,-328.48 339.12,-328.45 339.12,-328.45 338.97,-328.44 338.66,-328.43 338.51,-328.43 338.51,-328.43 336.6,-328.35 336.6,-328.35 336.45,-328.35 336.14,-328.33 335.99,-328.32 335.99,-328.32 334.09,-328.21 334.09,-328.21 333.93,-328.2 333.62,-328.18 333.47,-328.17 333.47,-328.17 331.57,-328.02 331.57,-328.02 331.42,-328.01 331.11,-327.98 330.96,-327.97 330.96,-327.97 329.07,-327.78 329.07,-327.78 328.92,-327.77 328.61,-327.74 328.46,-327.72 328.46,-327.72 326.58,-327.5 326.58,-327.5 326.43,-327.48 326.12,-327.44 325.97,-327.42 325.97,-327.42 324.1,-327.17 324.1,-327.17 323.95,-327.15 323.64,-327.1 323.49,-327.08 323.49,-327.08 321.63,-326.79 321.63,-326.79 321.48,-326.76 321.18,-326.71 321.03,-326.69 321.03,-326.69 319.19,-326.37 319.19,-326.37 319.04,-326.34 318.73,-326.28 318.58,-326.25 318.58,-326.25 316.77,-325.9 316.77,-325.9 316.61,-325.87 316.31,-325.81 316.16,-325.78 316.16,-325.78 314.37,-325.39 314.37,-325.39 314.22,-325.36 313.92,-325.29 313.77,-325.26 313.77,-325.26 312,-324.84 312,-324.84 311.85,-324.81 311.55,-324.74 311.41,-324.7 311.41,-324.7 309.67,-324.26 309.67,-324.26 309.53,-324.22 309.23,-324.14 309.08,-324.1 309.08,-324.1 307.39,-323.63 307.39,-323.63 307.24,-323.59 306.94,-323.51 306.79,-323.46 306.79,-323.46 305.14,-322.97 305.14,-322.97 305,-322.93 304.7,-322.84 304.56,-322.79 304.56,-322.79 302.96,-322.28 302.96,-322.28 302.81,-322.23 302.52,-322.13 302.37,-322.08 302.37,-322.08 300.83,-321.55 300.83,-321.55 300.68,-321.5 300.39,-321.4 300.24,-321.34 300.24,-321.34 298.76,-320.79 298.76,-320.79 298.62,-320.74 298.33,-320.63 298.19,-320.57 298.19,-320.57 296.77,-320.01 296.77,-320.01 296.63,-319.95 296.34,-319.84 296.2,-319.78 296.2,-319.78 294.86,-319.2 294.86,-319.2 294.72,-319.14 294.44,-319.02 294.3,-318.95 294.3,-318.95 293.04,-318.37 293.04,-318.37 292.9,-318.31 292.63,-318.17 292.49,-318.1 292.49,-318.1 291.32,-317.52 291.32,-317.52 291.18,-317.45 290.91,-317.31 290.77,-317.23 290.77,-317.23 289.7,-316.65 289.7,-316.65 289.57,-316.57 289.3,-316.42 289.17,-316.34 289.17,-316.34 288.2,-315.76 288.2,-315.76 288.06,-315.68 287.8,-315.52 287.67,-315.43 287.67,-315.43 286.81,-314.86 286.81,-314.86 286.68,-314.78 286.43,-314.6 286.31,-314.51 286.31,-314.51 285.55,-313.95 285.55,-313.95 285.43,-313.86 285.19,-313.67 285.07,-313.57 285.07,-313.57 284.43,-313.04 284.43,-313.04 284.32,-312.94 284.09,-312.73 283.98,-312.62 283.98,-312.62 283.46,-312.12 283.46,-312.12 283.35,-312.01 283.14,-311.78 283.04,-311.67 283.04,-311.67 282.63,-311.19 282.63,-311.19 282.53,-311.08 282.34,-310.83 282.26,-310.71 282.26,-310.71 281.96,-310.27 281.96,-310.27 281.88,-310.15 281.72,-309.88 281.65,-309.74 281.65,-309.74 281.45,-309.35 281.45,-309.35 281.38,-309.21 281.27,-308.93 281.22,-308.78 281.22,-308.78 281.11,-308.43 281.11,-308.43 281.06,-308.29 281,-307.99 280.98,-307.83 280.98,-307.83 280.94,-307.51 280.94,-307.51 280.92,-307.36 280.91,-307.05 280.92,-306.9 280.92,-306.9 280.95,-306.59 280.95,-306.59 280.96,-306.44 281.01,-306.14 281.05,-305.99 281.05,-305.99 281.15,-305.67 281.15,-305.67 281.19,-305.52 281.3,-305.24 281.37,-305.1 281.37,-305.1 281.55,-304.75 281.55,-304.75 281.62,-304.62 281.78,-304.36 281.87,-304.23 281.87,-304.23 282.16,-303.85 282.16,-303.85 282.25,-303.72 282.46,-303.49 282.56,-303.38 282.56,-303.38 282.99,-302.96 282.99,-302.96 283.1,-302.85 283.33,-302.64 283.45,-302.55 283.45,-302.55 284.02,-302.09 284.02,-302.09 284.14,-301.99 284.39,-301.81 284.52,-301.73 284.52,-301.73 285.27,-301.25 285.27,-301.25 285.4,-301.16 285.66,-301.01 285.8,-300.93 285.8,-300.93 286.72,-300.44 286.72,-300.44 286.85,-300.36 287.13,-300.23 287.27,-300.16 287.27,-300.16 288.37,-299.66 288.37,-299.66 288.51,-299.59 288.8,-299.47 288.94,-299.41 288.94,-299.41 290.23,-298.91 290.23,-298.91 290.37,-298.85 290.66,-298.75 290.81,-298.7 290.81,-298.7 292.27,-298.19 292.27,-298.19 292.42,-298.14 292.71,-298.05 292.86,-298.01 292.86,-298.01 294.51,-297.52 294.51,-297.52 294.66,-297.47 294.96,-297.39 295.1,-297.35 295.1,-297.35 296.93,-296.87 296.93,-296.87 297.08,-296.84 297.38,-296.76 297.53,-296.73 297.53,-296.73 299.52,-296.27 299.52,-296.27 299.67,-296.24 299.97,-296.17 300.13,-296.14 300.13,-296.14 302.28,-295.71 302.28,-295.71 302.43,-295.68 302.74,-295.62 302.89,-295.6 302.89,-295.6 305.2,-295.19 305.2,-295.19 305.35,-295.16 305.66,-295.11 305.81,-295.09 305.81,-295.09 308.27,-294.71 308.27,-294.71 308.42,-294.69 308.72,-294.64 308.88,-294.62 308.88,-294.62 311.47,-294.28 311.47,-294.28 311.62,-294.26 311.92,-294.22 312.08,-294.2 312.08,-294.2 314.79,-293.89 314.79,-293.89 314.94,-293.87 315.25,-293.84 315.4,-293.82 315.4,-293.82 318.22,-293.55 318.22,-293.55 318.38,-293.53 318.69,-293.5 318.84,-293.49 318.84,-293.49 321.76,-293.25 321.76,-293.25 321.91,-293.24 322.22,-293.21 322.37,-293.2 322.37,-293.2 325.38,-293 325.38,-293 325.53,-292.99 325.84,-292.97 325.99,-292.96 325.99,-292.96 329.06,-292.8 329.06,-292.8 329.22,-292.79 329.52,-292.78 329.68,-292.77 329.68,-292.77 332.8,-292.65 332.8,-292.65 332.96,-292.64 333.27,-292.63 333.42,-292.63 333.42,-292.63 336.58,-292.55 336.58,-292.55 336.74,-292.54 337.05,-292.54 337.2,-292.53 337.2,-292.53 340.39,-292.49 340.39,-292.49 340.54,-292.49 340.85,-292.49 341,-292.49 341,-292.49 344.2,-292.49 344.2,-292.49 344.35,-292.49 344.66,-292.49 344.82,-292.49 344.82,-292.49 348,-292.53 348,-292.53 348.16,-292.54 348.46,-292.54 348.62,-292.55"/>
<text text-anchor="middle" x="342.6" y="-306.79" font-family="Times,serif" font-size="14.00" fill="#40575d">considerDNF</text>
</g>
<!-- detachCNFCondAndBuildRangeForIndex&#45;&gt;considerDNF -->
<g id="edge6" class="edge">
<title>detachCNFCondAndBuildRangeForIndex&#45;&gt;considerDNF</title>
<path fill="none" stroke="#666666" d="M245.3,-303.42C253.95,-304.06 262.48,-304.69 270.69,-305.29"/>
<polygon fill="#666666" stroke="#666666" points="270.66,-308.79 280.89,-306.04 271.18,-301.81 270.66,-308.79"/>
</g>
<!-- accessConds -->
<g id="node8" class="node">
<title>accessConds</title>
<path fill="#feed9b" stroke="#f7e495" d="M761.7,-204.49C761.7,-204.49 823.7,-204.49 823.7,-204.49 829.7,-204.49 835.7,-210.49 835.7,-216.49 835.7,-216.49 835.7,-228.49 835.7,-228.49 835.7,-234.49 829.7,-240.49 823.7,-240.49 823.7,-240.49 761.7,-240.49 761.7,-240.49 755.7,-240.49 749.7,-234.49 749.7,-228.49 749.7,-228.49 749.7,-216.49 749.7,-216.49 749.7,-210.49 755.7,-204.49 761.7,-204.49"/>
<text text-anchor="middle" x="792.7" y="-218.79" font-family="Times,serif" font-size="14.00" fill="#40575d">accessConds</text>
</g>
<!-- ExtractEqAndInCondition&#45;&gt;accessConds -->
<g id="edge7" class="edge">
<title>ExtractEqAndInCondition&#45;&gt;accessConds</title>
<path fill="none" stroke="#666666" d="M632.91,-104.52C655.76,-114.43 681.49,-127.08 703.2,-141.49 727.13,-157.37 750.95,-179.64 767.85,-196.81"/>
<polygon fill="#666666" stroke="#666666" points="765.63,-199.55 775.1,-204.3 770.66,-194.68 765.63,-199.55"/>
</g>
<!-- filterConds -->
<g id="node9" class="node">
<title>filterConds</title>
<path fill="#feed9b" stroke="#f7e495" d="M952.7,-12.49C952.7,-12.49 1005.7,-12.49 1005.7,-12.49 1011.7,-12.49 1017.7,-18.49 1017.7,-24.49 1017.7,-24.49 1017.7,-36.49 1017.7,-36.49 1017.7,-42.49 1011.7,-48.49 1005.7,-48.49 1005.7,-48.49 952.7,-48.49 952.7,-48.49 946.7,-48.49 940.7,-42.49 940.7,-36.49 940.7,-36.49 940.7,-24.49 940.7,-24.49 940.7,-18.49 946.7,-12.49 952.7,-12.49"/>
<text text-anchor="middle" x="979.2" y="-26.79" font-family="Times,serif" font-size="14.00" fill="#40575d">filterConds</text>
</g>
<!-- ExtractEqAndInCondition&#45;&gt;filterConds -->
<g id="edge8" class="edge">
<title>ExtractEqAndInCondition&#45;&gt;filterConds</title>
<path fill="none" stroke="#666666" d="M611.44,-58.33C644.19,-40.19 693.02,-16.41 739.2,-6.49 804.67,7.58 882.04,-5.45 930.63,-17.11"/>
<polygon fill="#666666" stroke="#666666" points="929.99,-20.56 940.54,-19.57 931.68,-13.76 929.99,-20.56"/>
</g>
<!-- newConditions -->
<g id="node10" class="node">
<title>newConditions</title>
<path fill="#feed9b" stroke="#f7e495" d="M942.2,-106.49C942.2,-106.49 1016.2,-106.49 1016.2,-106.49 1022.2,-106.49 1028.2,-112.49 1028.2,-118.49 1028.2,-118.49 1028.2,-130.49 1028.2,-130.49 1028.2,-136.49 1022.2,-142.49 1016.2,-142.49 1016.2,-142.49 942.2,-142.49 942.2,-142.49 936.2,-142.49 930.2,-136.49 930.2,-130.49 930.2,-130.49 930.2,-118.49 930.2,-118.49 930.2,-112.49 936.2,-106.49 942.2,-106.49"/>
<text text-anchor="middle" x="979.2" y="-120.79" font-family="Times,serif" font-size="14.00" fill="#40575d">newConditions</text>
</g>
<!-- ExtractEqAndInCondition&#45;&gt;newConditions -->
<g id="edge9" class="edge">
<title>ExtractEqAndInCondition&#45;&gt;newConditions</title>
<path fill="none" stroke="#666666" d="M674.27,-85.87C725.89,-88.77 789.53,-93.39 846.2,-100.49 870.56,-103.54 897.24,-108.15 920.2,-112.51"/>
<polygon fill="#666666" stroke="#666666" points="919.64,-115.97 930.12,-114.43 920.97,-109.1 919.64,-115.97"/>
</g>
<!-- emptyRange -->
<g id="node11" class="node">
<title>emptyRange</title>
<path fill="#feed9b" stroke="#f7e495" d="M761.7,-16.49C761.7,-16.49 823.7,-16.49 823.7,-16.49 829.7,-16.49 835.7,-22.49 835.7,-28.49 835.7,-28.49 835.7,-40.49 835.7,-40.49 835.7,-46.49 829.7,-52.49 823.7,-52.49 823.7,-52.49 761.7,-52.49 761.7,-52.49 755.7,-52.49 749.7,-46.49 749.7,-40.49 749.7,-40.49 749.7,-28.49 749.7,-28.49 749.7,-22.49 755.7,-16.49 761.7,-16.49"/>
<text text-anchor="middle" x="792.7" y="-30.79" font-family="Times,serif" font-size="14.00" fill="#40575d">emptyRange</text>
</g>
<!-- ExtractEqAndInCondition&#45;&gt;emptyRange -->
<g id="edge10" class="edge">
<title>ExtractEqAndInCondition&#45;&gt;emptyRange</title>
<path fill="none" stroke="#666666" d="M674.51,-59.64C697.05,-54.8 720.03,-49.87 739.6,-45.67"/>
<polygon fill="#666666" stroke="#666666" points="740.46,-49.07 749.51,-43.55 738.99,-42.22 740.46,-49.07"/>
</g>
<!-- tailRes -->
<g id="node14" class="node">
<title>tailRes</title>
<path fill="#feed9b" stroke="#f7e495" d="M777.7,-259.49C777.7,-259.49 807.7,-259.49 807.7,-259.49 813.7,-259.49 819.7,-265.49 819.7,-271.49 819.7,-271.49 819.7,-283.49 819.7,-283.49 819.7,-289.49 813.7,-295.49 807.7,-295.49 807.7,-295.49 777.7,-295.49 777.7,-295.49 771.7,-295.49 765.7,-289.49 765.7,-283.49 765.7,-283.49 765.7,-271.49 765.7,-271.49 765.7,-265.49 771.7,-259.49 777.7,-259.49"/>
<text text-anchor="middle" x="792.7" y="-273.79" font-family="Times,serif" font-size="14.00" fill="#40575d">tailRes</text>
</g>
<!-- DetachCondAndBuildRangeForIndex&#45;&gt;tailRes -->
<g id="edge13" class="edge">
<title>DetachCondAndBuildRangeForIndex&#45;&gt;tailRes</title>
<path fill="none" stroke="#666666" d="M703.26,-266.58C722.28,-268.93 740.41,-271.17 755.26,-273"/>
<polygon fill="#666666" stroke="#666666" points="755.09,-276.5 765.45,-274.25 755.95,-269.55 755.09,-276.5"/>
</g>
<!-- AccessConds -->
<g id="node16" class="node">
<title>AccessConds</title>
<path fill="#feed9b" stroke="#f7e495" d="M760.2,-446.49C760.2,-446.49 825.2,-446.49 825.2,-446.49 831.2,-446.49 837.2,-452.49 837.2,-458.49 837.2,-458.49 837.2,-470.49 837.2,-470.49 837.2,-476.49 831.2,-482.49 825.2,-482.49 825.2,-482.49 760.2,-482.49 760.2,-482.49 754.2,-482.49 748.2,-476.49 748.2,-470.49 748.2,-470.49 748.2,-458.49 748.2,-458.49 748.2,-452.49 754.2,-446.49 760.2,-446.49"/>
<text text-anchor="middle" x="792.7" y="-460.79" font-family="Times,serif" font-size="14.00" fill="#40575d">AccessConds</text>
</g>
<!-- detachColumnCNFConditions&#45;&gt;AccessConds -->
<g id="edge15" class="edge">
<title>detachColumnCNFConditions&#45;&gt;AccessConds</title>
<path fill="none" stroke="#666666" d="M697.24,-449.39C711.38,-451.65 725.18,-453.86 737.68,-455.86"/>
<polygon fill="#666666" stroke="#666666" points="737.42,-459.36 747.84,-457.48 738.52,-452.45 737.42,-459.36"/>
</g>
<!-- RemainedConds -->
<g id="node17" class="node">
<title>RemainedConds</title>
<path fill="#feed9b" stroke="#f7e495" d="M751.2,-391.49C751.2,-391.49 834.2,-391.49 834.2,-391.49 840.2,-391.49 846.2,-397.49 846.2,-403.49 846.2,-403.49 846.2,-415.49 846.2,-415.49 846.2,-421.49 840.2,-427.49 834.2,-427.49 834.2,-427.49 751.2,-427.49 751.2,-427.49 745.2,-427.49 739.2,-421.49 739.2,-415.49 739.2,-415.49 739.2,-403.49 739.2,-403.49 739.2,-397.49 745.2,-391.49 751.2,-391.49"/>
<text text-anchor="middle" x="792.7" y="-405.79" font-family="Times,serif" font-size="14.00" fill="#40575d">RemainedConds</text>
</g>
<!-- detachColumnCNFConditions&#45;&gt;RemainedConds -->
<g id="edge16" class="edge">
<title>detachColumnCNFConditions&#45;&gt;RemainedConds</title>
<path fill="none" stroke="#666666" d="M697.24,-418.12C708.1,-417.12 718.76,-416.15 728.79,-415.23"/>
<polygon fill="#666666" stroke="#666666" points="729.34,-418.7 738.98,-414.3 728.7,-411.73 729.34,-418.7"/>
</g>
<!-- DetachRangeResult -->
<g id="node18" class="node">
<title>DetachRangeResult</title>
<path fill="#79d8ce" stroke="#60b5ac" d="M1124.2,-133.49C1124.2,-133.49 1341.2,-133.49 1341.2,-133.49 1347.2,-133.49 1353.2,-139.49 1353.2,-145.49 1353.2,-145.49 1353.2,-213.49 1353.2,-213.49 1353.2,-219.49 1347.2,-225.49 1341.2,-225.49 1341.2,-225.49 1124.2,-225.49 1124.2,-225.49 1118.2,-225.49 1112.2,-219.49 1112.2,-213.49 1112.2,-213.49 1112.2,-145.49 1112.2,-145.49 1112.2,-139.49 1118.2,-133.49 1124.2,-133.49"/>
<text text-anchor="middle" x="1232.7" y="-210.29" font-family="Times,serif" font-size="14.00" fill="#5d6179">DetachRangeResult</text>
<polyline fill="none" stroke="#60b5ac" points="1112.2,-202.49 1353.2,-202.49 "/>
<text text-anchor="start" x="1120.2" y="-187.29" font-family="Times,serif" font-size="14.00" fill="#5d6179">Ranges []*Range</text>
<polyline fill="none" stroke="#60b5ac" points="1112.2,-179.49 1353.2,-179.49 "/>
<text text-anchor="start" x="1120.2" y="-164.29" font-family="Times,serif" font-size="14.00" fill="#5d6179">AccessConds []expression.Expression</text>
<polyline fill="none" stroke="#60b5ac" points="1112.2,-156.49 1353.2,-156.49 "/>
<text text-anchor="start" x="1120.2" y="-141.29" font-family="Times,serif" font-size="14.00" fill="#5d6179">RemainedConds []expression.Expression</text>
</g>
<!-- buildCNFIndexRange&#45;&gt;DetachRangeResult -->
<g id="edge19" class="edge">
<title>buildCNFIndexRange&#45;&gt;DetachRangeResult:Ranges</title>
<path fill="none" stroke="green" stroke-dasharray="5,2" d="M1045.72,-331.74C1057.07,-324.11 1067.88,-315.04 1076.2,-304.49 1106.42,-266.18 1066.37,-201.95 1102.08,-192.63"/>
<polygon fill="green" stroke="green" points="1102.66,-196.09 1112.2,-191.49 1101.87,-189.13 1102.66,-196.09"/>
</g>
<!-- build -->
<g id="node19" class="node">
<title>build</title>
<path fill="none" stroke="#1c2123" d="M1157.7,-256.99C1157.7,-256.99 1307.7,-256.99 1307.7,-256.99 1313.7,-256.99 1319.7,-262.99 1319.7,-268.99 1319.7,-268.99 1319.7,-305.99 1319.7,-305.99 1319.7,-311.99 1313.7,-317.99 1307.7,-317.99 1307.7,-317.99 1157.7,-317.99 1157.7,-317.99 1151.7,-317.99 1145.7,-311.99 1145.7,-305.99 1145.7,-305.99 1145.7,-268.99 1145.7,-268.99 1145.7,-262.99 1151.7,-256.99 1157.7,-256.99"/>
<text text-anchor="middle" x="1232.7" y="-302.79" font-family="Times,serif" font-size="14.00" fill="#2f3638">build</text>
<polyline fill="none" stroke="#1c2123" points="1145.7,-294.99 1319.7,-294.99 "/>
<text text-anchor="start" x="1153.7" y="-279.79" font-family="Times,serif" font-size="14.00" fill="#2f3638">创建单个expression对应的</text>
<text text-anchor="start" x="1153.7" y="-264.79" font-family="Times,serif" font-size="14.00" fill="#2f3638"> range</text>
</g>
<!-- buildCNFIndexRange&#45;&gt;build -->
<g id="edge30" class="edge">
<title>buildCNFIndexRange&#45;&gt;build</title>
<path fill="none" stroke="#666666" d="M1076.36,-333.81C1095.82,-328.01 1116.27,-321.91 1135.72,-316.11"/>
<polygon fill="#666666" stroke="#666666" points="1136.9,-319.41 1145.48,-313.2 1134.9,-312.7 1136.9,-319.41"/>
</g>
<!-- intersection -->
<g id="node20" class="node">
<title>intersection</title>
<path fill="none" stroke="#1c2123" d="M1130.2,-456.49C1130.2,-456.49 1335.2,-456.49 1335.2,-456.49 1341.2,-456.49 1347.2,-462.49 1347.2,-468.49 1347.2,-468.49 1347.2,-490.49 1347.2,-490.49 1347.2,-496.49 1341.2,-502.49 1335.2,-502.49 1335.2,-502.49 1130.2,-502.49 1130.2,-502.49 1124.2,-502.49 1118.2,-496.49 1118.2,-490.49 1118.2,-490.49 1118.2,-468.49 1118.2,-468.49 1118.2,-462.49 1124.2,-456.49 1130.2,-456.49"/>
<text text-anchor="middle" x="1232.7" y="-487.29" font-family="Times,serif" font-size="14.00" fill="#2f3638">intersection</text>
<polyline fill="none" stroke="#1c2123" points="1118.2,-479.49 1347.2,-479.49 "/>
<text text-anchor="start" x="1126.2" y="-464.29" font-family="Times,serif" font-size="14.00" fill="#2f3638">CNF中expressions 对应range 取交集</text>
</g>
<!-- buildCNFIndexRange&#45;&gt;intersection -->
<g id="edge31" class="edge">
<title>buildCNFIndexRange&#45;&gt;intersection</title>
<path fill="none" stroke="#666666" d="M1021.2,-393.09C1046.4,-410.71 1079.93,-432.15 1112.2,-446.49 1117.3,-448.76 1122.6,-450.9 1127.99,-452.93"/>
<polygon fill="#666666" stroke="#666666" points="1127.2,-456.36 1137.8,-456.45 1129.57,-449.77 1127.2,-456.36"/>
</g>
<!-- UnionRanges -->
<g id="node21" class="node">
<title>UnionRanges</title>
<path fill="none" stroke="#1c2123" d="M1189.7,-391.49C1189.7,-391.49 1275.7,-391.49 1275.7,-391.49 1281.7,-391.49 1287.7,-397.49 1287.7,-403.49 1287.7,-403.49 1287.7,-425.49 1287.7,-425.49 1287.7,-431.49 1281.7,-437.49 1275.7,-437.49 1275.7,-437.49 1189.7,-437.49 1189.7,-437.49 1183.7,-437.49 1177.7,-431.49 1177.7,-425.49 1177.7,-425.49 1177.7,-403.49 1177.7,-403.49 1177.7,-397.49 1183.7,-391.49 1189.7,-391.49"/>
<text text-anchor="middle" x="1232.7" y="-422.29" font-family="Times,serif" font-size="14.00" fill="#2f3638">UnionRanges</text>
<polyline fill="none" stroke="#1c2123" points="1177.7,-414.49 1287.7,-414.49 "/>
<text text-anchor="start" x="1185.7" y="-399.29" font-family="Times,serif" font-size="14.00" fill="#2f3638">处理prefix index</text>
</g>
<!-- buildCNFIndexRange&#45;&gt;UnionRanges -->
<g id="edge32" class="edge">
<title>buildCNFIndexRange&#45;&gt;UnionRanges</title>
<path fill="none" stroke="#666666" d="M1076.36,-382.37C1106.87,-388.68 1139.83,-395.49 1167.52,-401.22"/>
<polygon fill="#666666" stroke="#666666" points="1166.96,-404.68 1177.46,-403.27 1168.38,-397.82 1166.96,-404.68"/>
</g>
<!-- fixPrefixColRange -->
<g id="node22" class="node">
<title>fixPrefixColRange</title>
<path fill="none" stroke="#1c2123" d="M1279.2,-372.49C1279.2,-372.49 1186.2,-372.49 1186.2,-372.49 1180.2,-372.49 1174.2,-366.49 1174.2,-360.49 1174.2,-360.49 1174.2,-348.49 1174.2,-348.49 1174.2,-342.49 1180.2,-336.49 1186.2,-336.49 1186.2,-336.49 1279.2,-336.49 1279.2,-336.49 1285.2,-336.49 1291.2,-342.49 1291.2,-348.49 1291.2,-348.49 1291.2,-360.49 1291.2,-360.49 1291.2,-366.49 1285.2,-372.49 1279.2,-372.49"/>
<text text-anchor="middle" x="1232.7" y="-350.79" font-family="Times,serif" font-size="14.00" fill="#2f3638">fixPrefixColRange</text>
</g>
<!-- buildCNFIndexRange&#45;&gt;fixPrefixColRange -->
<g id="edge33" class="edge">
<title>buildCNFIndexRange&#45;&gt;fixPrefixColRange</title>
<path fill="none" stroke="#666666" d="M1076.36,-359.43C1105.5,-358.5 1136.89,-357.5 1163.78,-356.65"/>
<polygon fill="#666666" stroke="#666666" points="1163.96,-360.15 1173.84,-356.33 1163.74,-353.15 1163.96,-360.15"/>
</g>
<!-- pointRes -->
<g id="node12" class="node">
<title>pointRes</title>
<path fill="#feed9b" stroke="#f7e495" d="M958.7,-161.49C958.7,-161.49 999.7,-161.49 999.7,-161.49 1005.7,-161.49 1011.7,-167.49 1011.7,-173.49 1011.7,-173.49 1011.7,-185.49 1011.7,-185.49 1011.7,-191.49 1005.7,-197.49 999.7,-197.49 999.7,-197.49 958.7,-197.49 958.7,-197.49 952.7,-197.49 946.7,-191.49 946.7,-185.49 946.7,-185.49 946.7,-173.49 946.7,-173.49 946.7,-167.49 952.7,-161.49 958.7,-161.49"/>
<text text-anchor="middle" x="979.2" y="-175.79" font-family="Times,serif" font-size="14.00" fill="#40575d">pointRes</text>
</g>
<!-- extractIndexPointRangesForCNF&#45;&gt;pointRes -->
<g id="edge11" class="edge">
<title>extractIndexPointRangesForCNF&#45;&gt;pointRes</title>
<path fill="none" stroke="#666666" d="M670.35,-171.14C755.19,-173.44 873.98,-176.66 936.29,-178.35"/>
<polygon fill="#666666" stroke="#666666" points="936.42,-181.86 946.51,-178.63 936.61,-174.86 936.42,-181.86"/>
</g>
<!-- offset -->
<g id="node13" class="node">
<title>offset</title>
<path fill="#feed9b" stroke="#f7e495" d="M777.7,-110.49C777.7,-110.49 807.7,-110.49 807.7,-110.49 813.7,-110.49 819.7,-116.49 819.7,-122.49 819.7,-122.49 819.7,-134.49 819.7,-134.49 819.7,-140.49 813.7,-146.49 807.7,-146.49 807.7,-146.49 777.7,-146.49 777.7,-146.49 771.7,-146.49 765.7,-140.49 765.7,-134.49 765.7,-134.49 765.7,-122.49 765.7,-122.49 765.7,-116.49 771.7,-110.49 777.7,-110.49"/>
<text text-anchor="middle" x="792.7" y="-124.79" font-family="Times,serif" font-size="14.00" fill="#40575d">offset</text>
</g>
<!-- extractIndexPointRangesForCNF&#45;&gt;offset -->
<g id="edge12" class="edge">
<title>extractIndexPointRangesForCNF&#45;&gt;offset</title>
<path fill="none" stroke="#666666" d="M670.35,-150.65C700.62,-145.12 732.11,-139.37 755.42,-135.12"/>
<polygon fill="#666666" stroke="#666666" points="756.32,-138.51 765.53,-133.27 755.06,-131.62 756.32,-138.51"/>
</g>
<!-- considerDNF&#45;&gt;DetachCondAndBuildRangeForIndex -->
<g id="edge21" class="edge">
<title>considerDNF&#45;&gt;DetachCondAndBuildRangeForIndex</title>
<path fill="none" stroke="green" stroke-dasharray="5,2" d="M391.76,-297.76C403.39,-294.69 416.41,-291.25 429.98,-287.67"/>
<polygon fill="green" stroke="green" points="431.17,-290.97 439.94,-285.04 429.38,-284.21 431.17,-290.97"/>
</g>
<!-- considerDNF&#45;&gt;detachColumnCNFConditions -->
<g id="edge22" class="edge">
<title>considerDNF&#45;&gt;detachColumnCNFConditions</title>
<path fill="none" stroke="green" stroke-dasharray="5,2" d="M364.63,-326.81C383.66,-341.09 412.82,-361.79 440.2,-376.49 447.02,-380.15 454.15,-383.71 461.4,-387.15"/>
<polygon fill="green" stroke="green" points="460.1,-390.4 470.64,-391.43 463.04,-384.05 460.1,-390.4"/>
</g>
<!-- considerDNF&#45;&gt;buildCNFIndexRange -->
<g id="edge23" class="edge">
<title>considerDNF&#45;&gt;buildCNFIndexRange</title>
<path fill="none" stroke="green" stroke-dasharray="5,2" d="M386.65,-320.79C403.29,-324.41 422.54,-328.15 440.2,-330.49 589.29,-350.25 763.25,-357.81 872.08,-360.7"/>
<polygon fill="green" stroke="green" points="871.99,-364.2 882.08,-360.96 872.17,-357.2 871.99,-364.2"/>
</g>
<!-- considerDNF&#45;&gt;extractIndexPointRangesForCNF -->
<g id="edge24" class="edge">
<title>considerDNF&#45;&gt;extractIndexPointRangesForCNF</title>
<path fill="none" stroke="green" stroke-dasharray="5,2" d="M353.43,-292.46C368.51,-266.62 399.9,-219.54 440.2,-195.49 447.48,-191.14 455.36,-187.49 463.5,-184.41"/>
<polygon fill="green" stroke="green" points="464.86,-187.65 473.17,-181.07 462.57,-181.03 464.86,-187.65"/>
</g>
<!-- appendRanges2PointRanges -->
<g id="node15" class="node">
<title>appendRanges2PointRanges</title>
<path fill="none" stroke="#1c2123" d="M1052.2,-295.49C1052.2,-295.49 906.2,-295.49 906.2,-295.49 900.2,-295.49 894.2,-289.49 894.2,-283.49 894.2,-283.49 894.2,-271.49 894.2,-271.49 894.2,-265.49 900.2,-259.49 906.2,-259.49 906.2,-259.49 1052.2,-259.49 1052.2,-259.49 1058.2,-259.49 1064.2,-265.49 1064.2,-271.49 1064.2,-271.49 1064.2,-283.49 1064.2,-283.49 1064.2,-289.49 1058.2,-295.49 1052.2,-295.49"/>
<text text-anchor="middle" x="979.2" y="-273.79" font-family="Times,serif" font-size="14.00" fill="#2f3638">appendRanges2PointRanges</text>
</g>
<!-- considerDNF&#45;&gt;appendRanges2PointRanges -->
<g id="edge25" class="edge">
<title>considerDNF&#45;&gt;appendRanges2PointRanges</title>
<path fill="none" stroke="green" stroke-dasharray="5,2" d="M400.72,-313.32C494.18,-317.16 685.47,-321.73 846.2,-304.49 861.27,-302.87 877.17,-300.34 892.52,-297.47"/>
<polygon fill="green" stroke="green" points="893.35,-300.87 902.51,-295.54 892.02,-294 893.35,-300.87"/>
</g>
<!-- accessConds&#45;&gt;buildCNFIndexRange -->
<g id="edge18" class="edge">
<title>accessConds&#45;&gt;buildCNFIndexRange</title>
<path fill="none" stroke="#666666" d="M834.39,-240.65C838.59,-243.32 842.62,-246.27 846.2,-249.49 867.91,-269.04 861.17,-284.21 882.2,-304.49 890.39,-312.38 899.83,-319.69 909.54,-326.28"/>
<polygon fill="#666666" stroke="#666666" points="907.82,-329.34 918.11,-331.87 911.65,-323.47 907.82,-329.34"/>
</g>
<!-- filterConds&#45;&gt;DetachRangeResult -->
<g id="edge20" class="edge">
<title>filterConds&#45;&gt;DetachRangeResult:RemainedConds</title>
<path fill="none" stroke="#666666" d="M1011.95,-48.66C1031.64,-60.78 1056.79,-77.86 1076.2,-96.49 1092.44,-112.07 1087.92,-135.53 1102.13,-142.48"/>
<polygon fill="#666666" stroke="#666666" points="1101.71,-145.97 1112.2,-144.49 1103.08,-139.1 1101.71,-145.97"/>
</g>
<!-- newConditions&#45;&gt;DetachRangeResult -->
<g id="edge29" class="edge">
<title>newConditions&#45;&gt;DetachRangeResult:RemainedConds</title>
<path fill="none" stroke="green" stroke-dasharray="5,2" d="M1028.21,-135.31C1050.12,-139.45 1076.73,-143.4 1101.9,-144.3"/>
<polygon fill="green" stroke="green" points="1102.14,-147.8 1112.2,-144.49 1102.27,-140.81 1102.14,-147.8"/>
</g>
<!-- pointRes&#45;&gt;DetachRangeResult -->
<g id="edge27" class="edge">
<title>pointRes&#45;&gt;DetachRangeResult</title>
<path fill="none" stroke="green" stroke-dasharray="5,2" d="M1011.8,-179.49C1034.94,-179.49 1068.02,-179.49 1101.52,-179.49"/>
<polygon fill="green" stroke="green" points="1101.92,-182.99 1111.92,-179.49 1101.92,-175.99 1101.92,-182.99"/>
</g>
<!-- offset&#45;&gt;newConditions -->
<g id="edge28" class="edge">
<title>offset&#45;&gt;newConditions</title>
<path fill="none" stroke="green" stroke-dasharray="5,2" d="M819.75,-127.92C845.67,-127.36 886.34,-126.48 919.99,-125.75"/>
<polygon fill="green" stroke="green" points="920.26,-129.25 930.18,-125.53 920.11,-122.25 920.26,-129.25"/>
</g>
<!-- tailRes&#45;&gt;appendRanges2PointRanges -->
<g id="edge14" class="edge">
<title>tailRes&#45;&gt;appendRanges2PointRanges</title>
<path fill="none" stroke="#666666" d="M819.75,-277.49C836.78,-277.49 860.18,-277.49 883.77,-277.49"/>
<polygon fill="#666666" stroke="#666666" points="883.88,-280.99 893.88,-277.49 883.88,-273.99 883.88,-280.99"/>
</g>
<!-- appendRanges2PointRanges&#45;&gt;DetachRangeResult -->
<g id="edge26" class="edge">
<title>appendRanges2PointRanges&#45;&gt;DetachRangeResult:Ranges</title>
<path fill="none" stroke="green" stroke-dasharray="5,2" d="M1004.65,-259.46C1033.62,-238.38 1080.69,-205.05 1102.56,-194.68"/>
<polygon fill="green" stroke="green" points="1103.81,-197.95 1112.2,-191.49 1101.61,-191.3 1103.81,-197.95"/>
</g>
<!-- AccessConds&#45;&gt;buildCNFIndexRange -->
<g id="edge17" class="edge">
<title>AccessConds&#45;&gt;buildCNFIndexRange</title>
<path fill="none" stroke="#666666" d="M827.93,-446.37C834.03,-443.1 840.31,-439.71 846.2,-436.49 868.79,-424.14 893.43,-410.4 915.24,-398.14"/>
<polygon fill="#666666" stroke="#666666" points="917.08,-401.12 924.08,-393.17 913.65,-395.02 917.08,-401.12"/>
</g>
</g>
</svg>
