<?xml version="1.0" encoding="UTF-8" standalone="no"?>
<!DOCTYPE svg PUBLIC "-//W3C//DTD SVG 1.1//EN"
 "http://www.w3.org/Graphics/SVG/1.1/DTD/svg11.dtd">
<!-- Generated by graphviz version 2.44.1 (20200629.0846)
 -->
<!-- Title: ExtractEqAndInCondition Pages: 1 -->
<svg width="753pt" height="517pt"
 viewBox="0.00 0.00 753.00 516.50" xmlns="http://www.w3.org/2000/svg" xmlns:xlink="http://www.w3.org/1999/xlink">
<g id="graph0" class="graph" transform="scale(1 1) rotate(0) translate(4 512.5)">
<title>ExtractEqAndInCondition</title>
<polygon fill="white" stroke="transparent" points="-4,4 -4,-512.5 749,-512.5 749,4 -4,4"/>
<!-- getPotentialEqOrInColOffset -->
<g id="node1" class="node">
<title>getPotentialEqOrInColOffset</title>
<path fill="none" stroke="#1c2123" d="M255,-308C255,-308 406,-308 406,-308 412,-308 418,-314 418,-320 418,-320 418,-478 418,-478 418,-484 412,-490 406,-490 406,-490 255,-490 255,-490 249,-490 243,-484 243,-478 243,-478 243,-320 243,-320 243,-314 249,-308 255,-308"/>
<text text-anchor="middle" x="330.5" y="-474.8" font-family="Times,serif" font-size="14.00" fill="#2f3638">getPotentialEqOrInColOffset</text>
<polyline fill="none" stroke="#1c2123" points="243,-467 418,-467 "/>
<text text-anchor="start" x="251" y="-451.8" font-family="Times,serif" font-size="14.00" fill="#2f3638">计算cond对应col的offset</text>
<text text-anchor="start" x="251" y="-436.8" font-family="Times,serif" font-size="14.00" fill="#2f3638"> 如果不是eq/le/...就返回&#45;1</text>
<polyline fill="none" stroke="#1c2123" points="243,-429 418,-429 "/>
<text text-anchor="start" x="251" y="-413.8" font-family="Times,serif" font-size="14.00" fill="#2f3638">check if the expression is </text>
<text text-anchor="start" x="251" y="-398.8" font-family="Times,serif" font-size="14.00" fill="#2f3638"> a eq/le/ge/lt/gt function that</text>
<text text-anchor="start" x="251" y="-383.8" font-family="Times,serif" font-size="14.00" fill="#2f3638"> one side is constant and</text>
<text text-anchor="start" x="251" y="-368.8" font-family="Times,serif" font-size="14.00" fill="#2f3638"> another is column or an</text>
<text text-anchor="start" x="251" y="-353.8" font-family="Times,serif" font-size="14.00" fill="#2f3638"> in function which is </text>
<text text-anchor="middle" x="330.5" y="-338.8" font-family="Times,serif" font-size="14.00" fill="#2f3638"> `column in (constant list)`.</text>
<polyline fill="none" stroke="#1c2123" points="243,-331 418,-331 "/>
<text text-anchor="middle" x="330.5" y="-315.8" font-family="Times,serif" font-size="14.00" fill="#2f3638"> </text>
</g>
<!-- getPotentialEqOrInColOffset&#45;&gt;getPotentialEqOrInColOffset -->
<g id="edge7" class="edge">
<title>getPotentialEqOrInColOffset&#45;&gt;getPotentialEqOrInColOffset</title>
<path fill="none" stroke="#666666" d="M294.81,-490.04C301.2,-501.19 313.1,-508.5 330.5,-508.5 343.28,-508.5 353.09,-504.56 359.93,-498.05"/>
<polygon fill="#666666" stroke="#666666" points="362.79,-500.08 366.19,-490.04 357.27,-495.77 362.79,-500.08"/>
</g>
<!-- FlattenDNFConditions -->
<g id="node8" class="node">
<title>FlattenDNFConditions</title>
<path fill="none" stroke="#1c2123" d="M470,-395.5C470,-395.5 632,-395.5 632,-395.5 638,-395.5 644,-401.5 644,-407.5 644,-407.5 644,-452.5 644,-452.5 644,-458.5 638,-464.5 632,-464.5 632,-464.5 470,-464.5 470,-464.5 464,-464.5 458,-458.5 458,-452.5 458,-452.5 458,-407.5 458,-407.5 458,-401.5 464,-395.5 470,-395.5"/>
<text text-anchor="middle" x="551" y="-449.3" font-family="Times,serif" font-size="14.00" fill="#2f3638">FlattenDNFConditions</text>
<polyline fill="none" stroke="#1c2123" points="458,-441.5 644,-441.5 "/>
<text text-anchor="start" x="466" y="-426.3" font-family="Times,serif" font-size="14.00" fill="#2f3638">对于logicOr函数，递归调用</text>
<polyline fill="none" stroke="#1c2123" points="458,-418.5 644,-418.5 "/>
<text text-anchor="start" x="466" y="-403.3" font-family="Times,serif" font-size="14.00" fill="#2f3638">getPotentialEqOrInColOffset </text>
</g>
<!-- getPotentialEqOrInColOffset&#45;&gt;FlattenDNFConditions -->
<g id="edge8" class="edge">
<title>getPotentialEqOrInColOffset&#45;&gt;FlattenDNFConditions</title>
<path fill="none" stroke="#666666" d="M418.17,-411.3C427.81,-412.66 437.69,-414.07 447.5,-415.46"/>
<polygon fill="#666666" stroke="#666666" points="447.3,-418.96 457.69,-416.9 448.28,-412.03 447.3,-418.96"/>
</g>
<!-- ExtractEqAndInCondition -->
<g id="node2" class="node">
<title>ExtractEqAndInCondition</title>
<path fill="none" stroke="#1c2123" d="M12,-98C12,-98 191,-98 191,-98 197,-98 203,-104 203,-110 203,-110 203,-208 203,-208 203,-214 197,-220 191,-220 191,-220 12,-220 12,-220 6,-220 0,-214 0,-208 0,-208 0,-110 0,-110 0,-104 6,-98 12,-98"/>
<text text-anchor="middle" x="101.5" y="-204.8" font-family="Times,serif" font-size="14.00" fill="#2f3638">ExtractEqAndInCondition</text>
<polyline fill="none" stroke="#1c2123" points="0,-197 203,-197 "/>
<text text-anchor="start" x="8" y="-181.8" font-family="Times,serif" font-size="14.00" fill="#2f3638">遍历所有的conds</text>
<polyline fill="none" stroke="#1c2123" points="0,-174 203,-174 "/>
<text text-anchor="start" x="8" y="-158.8" font-family="Times,serif" font-size="14.00" fill="#2f3638">计算cond对应col的offset</text>
<polyline fill="none" stroke="#1c2123" points="0,-151 203,-151 "/>
<text text-anchor="start" x="8" y="-135.8" font-family="Times,serif" font-size="14.00" fill="#2f3638">然后计算cond在该col上的range</text>
<text text-anchor="start" x="8" y="-120.8" font-family="Times,serif" font-size="14.00" fill="#2f3638"> 相同col上的range调用</text>
<text text-anchor="start" x="8" y="-105.8" font-family="Times,serif" font-size="14.00" fill="#2f3638"> intersection取交集</text>
</g>
<!-- ExtractEqAndInCondition&#45;&gt;getPotentialEqOrInColOffset -->
<g id="edge1" class="edge">
<title>ExtractEqAndInCondition&#45;&gt;getPotentialEqOrInColOffset</title>
<path fill="none" stroke="#666666" d="M160.37,-220.18C183.3,-244.43 210.26,-272.93 235.83,-299.97"/>
<polygon fill="#666666" stroke="#666666" points="233.59,-302.69 243,-307.55 238.68,-297.88 233.59,-302.69"/>
</g>
<!-- build -->
<g id="node3" class="node">
<title>build</title>
<path fill="none" stroke="#1c2123" d="M263.5,-243C263.5,-243 397.5,-243 397.5,-243 403.5,-243 409.5,-249 409.5,-255 409.5,-255 409.5,-277 409.5,-277 409.5,-283 403.5,-289 397.5,-289 397.5,-289 263.5,-289 263.5,-289 257.5,-289 251.5,-283 251.5,-277 251.5,-277 251.5,-255 251.5,-255 251.5,-249 257.5,-243 263.5,-243"/>
<text text-anchor="middle" x="330.5" y="-273.8" font-family="Times,serif" font-size="14.00" fill="#2f3638">build</text>
<polyline fill="none" stroke="#1c2123" points="251.5,-266 409.5,-266 "/>
<text text-anchor="start" x="259.5" y="-250.8" font-family="Times,serif" font-size="14.00" fill="#2f3638">计算该cond对应的range</text>
</g>
<!-- ExtractEqAndInCondition&#45;&gt;build -->
<g id="edge2" class="edge">
<title>ExtractEqAndInCondition&#45;&gt;build</title>
<path fill="none" stroke="#666666" d="M203.04,-215.65C215.03,-221.76 227.2,-227.69 239,-233 243.65,-235.09 248.47,-237.15 253.36,-239.16"/>
<polygon fill="#666666" stroke="#666666" points="252.23,-242.48 262.82,-242.96 254.84,-235.99 252.23,-242.48"/>
</g>
<!-- intersection -->
<g id="node4" class="node">
<title>intersection</title>
<path fill="none" stroke="#1c2123" d="M251,-162.5C251,-162.5 410,-162.5 410,-162.5 416,-162.5 422,-168.5 422,-174.5 422,-174.5 422,-211.5 422,-211.5 422,-217.5 416,-223.5 410,-223.5 410,-223.5 251,-223.5 251,-223.5 245,-223.5 239,-217.5 239,-211.5 239,-211.5 239,-174.5 239,-174.5 239,-168.5 245,-162.5 251,-162.5"/>
<text text-anchor="middle" x="330.5" y="-208.3" font-family="Times,serif" font-size="14.00" fill="#2f3638">intersection</text>
<polyline fill="none" stroke="#1c2123" points="239,-200.5 422,-200.5 "/>
<text text-anchor="start" x="247" y="-185.3" font-family="Times,serif" font-size="14.00" fill="#2f3638">和该col之前的range做merge</text>
<text text-anchor="start" x="247" y="-170.3" font-family="Times,serif" font-size="14.00" fill="#2f3638"> 取交集</text>
</g>
<!-- ExtractEqAndInCondition&#45;&gt;intersection -->
<g id="edge3" class="edge">
<title>ExtractEqAndInCondition&#45;&gt;intersection</title>
<path fill="none" stroke="#666666" d="M203.06,-174.06C211.58,-175.34 220.2,-176.63 228.73,-177.91"/>
<polygon fill="#666666" stroke="#666666" points="228.27,-181.38 238.68,-179.4 229.31,-174.45 228.27,-181.38"/>
</g>
<!-- allSinglePoints -->
<g id="node5" class="node">
<title>allSinglePoints</title>
<path fill="none" stroke="#1c2123" d="M367.5,-144C367.5,-144 293.5,-144 293.5,-144 287.5,-144 281.5,-138 281.5,-132 281.5,-132 281.5,-120 281.5,-120 281.5,-114 287.5,-108 293.5,-108 293.5,-108 367.5,-108 367.5,-108 373.5,-108 379.5,-114 379.5,-120 379.5,-120 379.5,-132 379.5,-132 379.5,-138 373.5,-144 367.5,-144"/>
<text text-anchor="middle" x="330.5" y="-122.3" font-family="Times,serif" font-size="14.00" fill="#2f3638">allSinglePoints</text>
</g>
<!-- ExtractEqAndInCondition&#45;&gt;allSinglePoints -->
<g id="edge4" class="edge">
<title>ExtractEqAndInCondition&#45;&gt;allSinglePoints</title>
<path fill="none" stroke="#666666" d="M203.06,-144.38C226.4,-140.99 250.47,-137.49 271.27,-134.46"/>
<polygon fill="#666666" stroke="#666666" points="271.81,-137.92 281.2,-133.02 270.8,-131 271.81,-137.92"/>
</g>
<!-- points2EqOrInCond -->
<g id="node6" class="node">
<title>points2EqOrInCond</title>
<path fill="none" stroke="#1c2123" d="M381.5,-90C381.5,-90 279.5,-90 279.5,-90 273.5,-90 267.5,-84 267.5,-78 267.5,-78 267.5,-66 267.5,-66 267.5,-60 273.5,-54 279.5,-54 279.5,-54 381.5,-54 381.5,-54 387.5,-54 393.5,-60 393.5,-66 393.5,-66 393.5,-78 393.5,-78 393.5,-84 387.5,-90 381.5,-90"/>
<text text-anchor="middle" x="330.5" y="-68.3" font-family="Times,serif" font-size="14.00" fill="#2f3638">points2EqOrInCond</text>
</g>
<!-- ExtractEqAndInCondition&#45;&gt;points2EqOrInCond -->
<g id="edge5" class="edge">
<title>ExtractEqAndInCondition&#45;&gt;points2EqOrInCond</title>
<path fill="none" stroke="#666666" d="M203.3,-113.02C215.25,-108.07 227.34,-103.28 239,-99 244.96,-96.81 251.19,-94.67 257.46,-92.6"/>
<polygon fill="#666666" stroke="#666666" points="258.89,-95.82 267.34,-89.43 256.75,-89.16 258.89,-95.82"/>
</g>
<!-- removeAccessConditions -->
<g id="node7" class="node">
<title>removeAccessConditions</title>
<path fill="none" stroke="#1c2123" d="M396,-36C396,-36 265,-36 265,-36 259,-36 253,-30 253,-24 253,-24 253,-12 253,-12 253,-6 259,0 265,0 265,0 396,0 396,0 402,0 408,-6 408,-12 408,-12 408,-24 408,-24 408,-30 402,-36 396,-36"/>
<text text-anchor="middle" x="330.5" y="-14.3" font-family="Times,serif" font-size="14.00" fill="#2f3638">removeAccessConditions</text>
</g>
<!-- ExtractEqAndInCondition&#45;&gt;removeAccessConditions -->
<g id="edge6" class="edge">
<title>ExtractEqAndInCondition&#45;&gt;removeAccessConditions</title>
<path fill="none" stroke="#666666" d="M164.87,-97.8C186.9,-78.77 212.75,-59.1 239,-45 242.3,-43.23 245.73,-41.56 249.24,-39.98"/>
<polygon fill="#666666" stroke="#666666" points="250.82,-43.12 258.7,-36.04 248.12,-36.66 250.82,-43.12"/>
</g>
<!-- dnfItems -->
<g id="node9" class="node">
<title>dnfItems</title>
<path fill="none" stroke="#1c2123" d="M733,-416C733,-416 692,-416 692,-416 686,-416 680,-410 680,-404 680,-404 680,-392 680,-392 680,-386 686,-380 692,-380 692,-380 733,-380 733,-380 739,-380 745,-386 745,-392 745,-392 745,-404 745,-404 745,-410 739,-416 733,-416"/>
<text text-anchor="middle" x="712.5" y="-394.3" font-family="Times,serif" font-size="14.00" fill="#2f3638">dnfItems</text>
</g>
<!-- FlattenDNFConditions&#45;&gt;dnfItems -->
<g id="edge9" class="edge">
<title>FlattenDNFConditions&#45;&gt;dnfItems</title>
<path fill="none" stroke="green" stroke-dasharray="5,2" d="M644.32,-411.48C653.13,-409.71 661.74,-407.98 669.69,-406.39"/>
<polygon fill="green" stroke="green" points="670.6,-409.77 679.72,-404.38 669.23,-402.91 670.6,-409.77"/>
</g>
<!-- dnfItems&#45;&gt;getPotentialEqOrInColOffset -->
<g id="edge10" class="edge">
<title>dnfItems&#45;&gt;getPotentialEqOrInColOffset</title>
<path fill="none" stroke="green" stroke-dasharray="5,2" d="M679.72,-391.16C668.49,-389.06 655.74,-387.04 644,-386 561.65,-378.74 540.56,-381.77 458,-386 448.33,-386.5 438.25,-387.2 428.2,-388.04"/>
<polygon fill="green" stroke="green" points="427.83,-384.55 418.17,-388.91 428.44,-391.53 427.83,-384.55"/>
</g>
</g>
</svg>
