<?xml version="1.0" encoding="UTF-8" standalone="no"?>
<!DOCTYPE svg PUBLIC "-//W3C//DTD SVG 1.1//EN"
 "http://www.w3.org/Graphics/SVG/1.1/DTD/svg11.dtd">
<!-- Generated by graphviz version 2.44.1 (20200629.0846)
 -->
<!-- Title: logicaljoin_exhaustPhysicalPlans Pages: 1 -->
<svg width="1456pt" height="433pt"
 viewBox="0.00 0.00 1456.00 432.50" xmlns="http://www.w3.org/2000/svg" xmlns:xlink="http://www.w3.org/1999/xlink">
<g id="graph0" class="graph" transform="scale(1 1) rotate(0) translate(4 428.5)">
<title>logicaljoin_exhaustPhysicalPlans</title>
<polygon fill="white" stroke="transparent" points="-4,4 -4,-428.5 1452,-428.5 1452,4 -4,4"/>
<!-- exhaustPhysicalPlans -->
<g id="node1" class="node">
<title>exhaustPhysicalPlans</title>
<polygon fill="none" stroke="black" points="0,-162.5 0,-223.5 201,-223.5 201,-162.5 0,-162.5"/>
<text text-anchor="middle" x="100.5" y="-208.3" font-family="Times,serif" font-size="14.00">exhaustPhysicalPlans</text>
<polyline fill="none" stroke="black" points="0,-200.5 201,-200.5 "/>
<text text-anchor="start" x="8" y="-185.3" font-family="Times,serif" font-size="14.00">logicalJoin can generate hash join</text>
<text text-anchor="start" x="8" y="-170.3" font-family="Times,serif" font-size="14.00"> index join and sort merge join</text>
</g>
<!-- GetMergeJoin -->
<g id="node6" class="node">
<title>GetMergeJoin</title>
<polygon fill="none" stroke="black" points="357.5,-184 262.5,-184 262.5,-148 357.5,-148 357.5,-184"/>
<text text-anchor="middle" x="310" y="-162.3" font-family="Times,serif" font-size="14.00">GetMergeJoin</text>
</g>
<!-- exhaustPhysicalPlans&#45;&gt;GetMergeJoin -->
<g id="edge1" class="edge">
<title>exhaustPhysicalPlans&#45;&gt;GetMergeJoin</title>
<path fill="none" stroke="#666666" d="M201.3,-180.01C218.84,-177.73 236.54,-175.43 252.38,-173.37"/>
<polygon fill="#666666" stroke="#666666" points="253.03,-176.81 262.49,-172.05 252.12,-169.87 253.03,-176.81"/>
</g>
<!-- tryToGetIndexJoin -->
<g id="node7" class="node">
<title>tryToGetIndexJoin</title>
<polygon fill="none" stroke="black" points="369.5,-308 250.5,-308 250.5,-272 369.5,-272 369.5,-308"/>
<text text-anchor="middle" x="310" y="-286.3" font-family="Times,serif" font-size="14.00">tryToGetIndexJoin</text>
</g>
<!-- exhaustPhysicalPlans&#45;&gt;tryToGetIndexJoin -->
<g id="edge2" class="edge">
<title>exhaustPhysicalPlans&#45;&gt;tryToGetIndexJoin</title>
<path fill="none" stroke="#666666" d="M166.87,-223.56C197.39,-237.83 233.08,-254.51 261.05,-267.59"/>
<polygon fill="#666666" stroke="#666666" points="259.69,-270.81 270.23,-271.88 262.65,-264.47 259.69,-270.81"/>
</g>
<!-- tryToGetBroadCastJoin -->
<g id="node8" class="node">
<title>tryToGetBroadCastJoin</title>
<polygon fill="none" stroke="black" points="383,-90 237,-90 237,-54 383,-54 383,-90"/>
<text text-anchor="middle" x="310" y="-68.3" font-family="Times,serif" font-size="14.00">tryToGetBroadCastJoin</text>
</g>
<!-- exhaustPhysicalPlans&#45;&gt;tryToGetBroadCastJoin -->
<g id="edge3" class="edge">
<title>exhaustPhysicalPlans&#45;&gt;tryToGetBroadCastJoin</title>
<path fill="none" stroke="#666666" d="M153.86,-162.47C189.64,-141.6 236.32,-114.38 269.09,-95.27"/>
<polygon fill="#666666" stroke="#666666" points="271.07,-98.17 277.95,-90.11 267.55,-92.12 271.07,-98.17"/>
</g>
<!-- getHashJoins -->
<g id="node9" class="node">
<title>getHashJoins</title>
<polygon fill="none" stroke="black" points="354.5,-238 265.5,-238 265.5,-202 354.5,-202 354.5,-238"/>
<text text-anchor="middle" x="310" y="-216.3" font-family="Times,serif" font-size="14.00">getHashJoins</text>
</g>
<!-- exhaustPhysicalPlans&#45;&gt;getHashJoins -->
<g id="edge4" class="edge">
<title>exhaustPhysicalPlans&#45;&gt;getHashJoins</title>
<path fill="none" stroke="#666666" d="M201.3,-205.99C219.96,-208.41 238.78,-210.86 255.37,-213.02"/>
<polygon fill="#666666" stroke="#666666" points="255.01,-216.5 265.38,-214.32 255.91,-209.56 255.01,-216.5"/>
</g>
<!-- PhysicalMergeJoin -->
<g id="node2" class="node">
<title>PhysicalMergeJoin</title>
<polygon fill="#95e1d3" stroke="black" points="483,-148 483,-184 604,-184 604,-148 483,-148"/>
<text text-anchor="middle" x="543.5" y="-162.3" font-family="Times,serif" font-size="14.00">PhysicalMergeJoin</text>
</g>
<!-- basePhysicalJoin -->
<g id="node3" class="node">
<title>basePhysicalJoin</title>
<polygon fill="#95e1d3" stroke="black" points="1335.5,-148 1335.5,-184 1444.5,-184 1444.5,-148 1335.5,-148"/>
<text text-anchor="middle" x="1390" y="-162.3" font-family="Times,serif" font-size="14.00">basePhysicalJoin</text>
</g>
<!-- PhysicalHashJoin -->
<g id="node4" class="node">
<title>PhysicalHashJoin</title>
<polygon fill="#95e1d3" stroke="black" points="962.5,-148 962.5,-184 1075.5,-184 1075.5,-148 962.5,-148"/>
<text text-anchor="middle" x="1019" y="-162.3" font-family="Times,serif" font-size="14.00">PhysicalHashJoin</text>
</g>
<!-- PhysicalBroadCastJoin -->
<g id="node5" class="node">
<title>PhysicalBroadCastJoin</title>
<polygon fill="#95e1d3" stroke="black" points="728,-54 728,-90 870,-90 870,-54 728,-54"/>
<text text-anchor="middle" x="799" y="-68.3" font-family="Times,serif" font-size="14.00">PhysicalBroadCastJoin</text>
</g>
<!-- GetMergeJoin&#45;&gt;PhysicalMergeJoin -->
<g id="edge5" class="edge">
<title>GetMergeJoin&#45;&gt;PhysicalMergeJoin</title>
<path fill="none" stroke="#666666" d="M357.57,-166C390.52,-166 435.28,-166 472.51,-166"/>
<polygon fill="#666666" stroke="#666666" points="472.79,-169.5 482.79,-166 472.79,-162.5 472.79,-169.5"/>
</g>
<!-- GetMergeJoin&#45;&gt;basePhysicalJoin -->
<g id="edge6" class="edge">
<title>GetMergeJoin&#45;&gt;basePhysicalJoin</title>
<path fill="none" stroke="#666666" d="M357.61,-151.7C376.49,-146.49 398.61,-141.12 419,-138 585.71,-112.48 629.34,-119 798,-119 798,-119 798,-119 1020,-119 1127.94,-119 1252.22,-139.03 1325.5,-152.94"/>
<polygon fill="#666666" stroke="#666666" points="1325.01,-156.41 1335.49,-154.86 1326.33,-149.54 1325.01,-156.41"/>
</g>
<!-- getIndexJoinByOuterIdx -->
<g id="node14" class="node">
<title>getIndexJoinByOuterIdx</title>
<polygon fill="none" stroke="black" points="619,-316 468,-316 468,-280 619,-280 619,-316"/>
<text text-anchor="middle" x="543.5" y="-294.3" font-family="Times,serif" font-size="14.00">getIndexJoinByOuterIdx</text>
</g>
<!-- tryToGetIndexJoin&#45;&gt;getIndexJoinByOuterIdx -->
<g id="edge15" class="edge">
<title>tryToGetIndexJoin&#45;&gt;getIndexJoinByOuterIdx</title>
<path fill="none" stroke="#666666" d="M369.72,-292.03C396.32,-292.95 428.28,-294.05 457.44,-295.06"/>
<polygon fill="#666666" stroke="#666666" points="457.5,-298.56 467.62,-295.41 457.75,-291.57 457.5,-298.56"/>
</g>
<!-- tryToGetBroadCastJoinByPreferGlobalIdx -->
<g id="node12" class="node">
<title>tryToGetBroadCastJoinByPreferGlobalIdx</title>
<polygon fill="none" stroke="black" points="668,-90 419,-90 419,-54 668,-54 668,-90"/>
<text text-anchor="middle" x="543.5" y="-68.3" font-family="Times,serif" font-size="14.00">tryToGetBroadCastJoinByPreferGlobalIdx</text>
</g>
<!-- tryToGetBroadCastJoin&#45;&gt;tryToGetBroadCastJoinByPreferGlobalIdx -->
<g id="edge11" class="edge">
<title>tryToGetBroadCastJoin&#45;&gt;tryToGetBroadCastJoinByPreferGlobalIdx</title>
<path fill="none" stroke="#666666" d="M383.3,-72C391.5,-72 400.04,-72 408.72,-72"/>
<polygon fill="#666666" stroke="#666666" points="408.96,-75.5 418.96,-72 408.96,-68.5 408.96,-75.5"/>
</g>
<!-- getPreferredBCJLocalIndex -->
<g id="node13" class="node">
<title>getPreferredBCJLocalIndex</title>
<polygon fill="none" stroke="black" points="627.5,-36 459.5,-36 459.5,0 627.5,0 627.5,-36"/>
<text text-anchor="middle" x="543.5" y="-14.3" font-family="Times,serif" font-size="14.00">getPreferredBCJLocalIndex</text>
</g>
<!-- tryToGetBroadCastJoin&#45;&gt;getPreferredBCJLocalIndex -->
<g id="edge12" class="edge">
<title>tryToGetBroadCastJoin&#45;&gt;getPreferredBCJLocalIndex</title>
<path fill="none" stroke="#666666" d="M381.8,-53.98C394.19,-50.92 406.96,-47.82 419,-45 428.88,-42.69 439.22,-40.33 449.52,-38.02"/>
<polygon fill="#666666" stroke="#666666" points="450.39,-41.41 459.38,-35.82 448.86,-34.58 450.39,-41.41"/>
</g>
<!-- getHashJoin -->
<g id="node10" class="node">
<title>getHashJoin</title>
<polygon fill="none" stroke="black" points="585,-239 502,-239 502,-203 585,-203 585,-239"/>
<text text-anchor="middle" x="543.5" y="-217.3" font-family="Times,serif" font-size="14.00">getHashJoin</text>
</g>
<!-- getHashJoins&#45;&gt;getHashJoin -->
<g id="edge7" class="edge">
<title>getHashJoins&#45;&gt;getHashJoin</title>
<path fill="none" stroke="#666666" d="M354.54,-220.19C393.54,-220.36 450.75,-220.6 491.8,-220.78"/>
<polygon fill="#666666" stroke="#666666" points="491.85,-224.28 501.87,-220.82 491.88,-217.28 491.85,-224.28"/>
</g>
<!-- NewPhysicalHashJoin -->
<g id="node11" class="node">
<title>NewPhysicalHashJoin</title>
<polygon fill="none" stroke="black" points="868,-231 730,-231 730,-195 868,-195 868,-231"/>
<text text-anchor="middle" x="799" y="-209.3" font-family="Times,serif" font-size="14.00">NewPhysicalHashJoin</text>
</g>
<!-- getHashJoin&#45;&gt;NewPhysicalHashJoin -->
<g id="edge8" class="edge">
<title>getHashJoin&#45;&gt;NewPhysicalHashJoin</title>
<path fill="none" stroke="#666666" d="M585.23,-219.71C621.33,-218.58 675.05,-216.88 719.48,-215.48"/>
<polygon fill="#666666" stroke="#666666" points="719.79,-218.97 729.68,-215.16 719.57,-211.97 719.79,-218.97"/>
</g>
<!-- NewPhysicalHashJoin&#45;&gt;basePhysicalJoin -->
<g id="edge9" class="edge">
<title>NewPhysicalHashJoin&#45;&gt;basePhysicalJoin</title>
<path fill="none" stroke="#666666" d="M868.25,-209.18C930.69,-205.53 1025.61,-199.63 1108,-193 1182.62,-186.99 1268.23,-178.54 1325.15,-172.7"/>
<polygon fill="#666666" stroke="#666666" points="1325.85,-176.15 1335.44,-171.64 1325.13,-169.19 1325.85,-176.15"/>
</g>
<!-- NewPhysicalHashJoin&#45;&gt;PhysicalHashJoin -->
<g id="edge10" class="edge">
<title>NewPhysicalHashJoin&#45;&gt;PhysicalHashJoin</title>
<path fill="none" stroke="#666666" d="M868.08,-198.32C895,-192.52 925.81,-185.88 952.48,-180.13"/>
<polygon fill="#666666" stroke="#666666" points="953.44,-183.5 962.47,-177.97 951.96,-176.66 953.44,-183.5"/>
</g>
<!-- tryToGetBroadCastJoinByPreferGlobalIdx&#45;&gt;basePhysicalJoin -->
<g id="edge13" class="edge">
<title>tryToGetBroadCastJoinByPreferGlobalIdx&#45;&gt;basePhysicalJoin</title>
<path fill="none" stroke="#666666" d="M631.06,-53.99C654.61,-49.86 680.19,-46.07 704,-44 967.51,-21.05 1048.97,-10.45 1296,-105 1318.78,-113.72 1341.73,-128.69 1359.12,-141.61"/>
<polygon fill="#666666" stroke="#666666" points="1357.12,-144.49 1367.19,-147.76 1361.36,-138.92 1357.12,-144.49"/>
</g>
<!-- tryToGetBroadCastJoinByPreferGlobalIdx&#45;&gt;PhysicalBroadCastJoin -->
<g id="edge14" class="edge">
<title>tryToGetBroadCastJoinByPreferGlobalIdx&#45;&gt;PhysicalBroadCastJoin</title>
<path fill="none" stroke="#666666" d="M668.28,-72C685.08,-72 701.96,-72 717.72,-72"/>
<polygon fill="#666666" stroke="#666666" points="717.91,-75.5 727.91,-72 717.91,-68.5 717.91,-75.5"/>
</g>
<!-- buildIndexJoinInner2IndexScan -->
<g id="node15" class="node">
<title>buildIndexJoinInner2IndexScan</title>
<polygon fill="none" stroke="black" points="894,-324 704,-324 704,-288 894,-288 894,-324"/>
<text text-anchor="middle" x="799" y="-302.3" font-family="Times,serif" font-size="14.00">buildIndexJoinInner2IndexScan</text>
</g>
<!-- getIndexJoinByOuterIdx&#45;&gt;buildIndexJoinInner2IndexScan -->
<g id="edge16" class="edge">
<title>getIndexJoinByOuterIdx&#45;&gt;buildIndexJoinInner2IndexScan</title>
<path fill="none" stroke="#666666" d="M619.19,-300.36C642.42,-301.09 668.48,-301.91 693.36,-302.7"/>
<polygon fill="#666666" stroke="#666666" points="693.47,-306.2 703.57,-303.02 693.69,-299.21 693.47,-306.2"/>
</g>
<!-- constructInnerIndexScanTask -->
<g id="node16" class="node">
<title>constructInnerIndexScanTask</title>
<polygon fill="none" stroke="black" points="1108,-370 930,-370 930,-334 1108,-334 1108,-370"/>
<text text-anchor="middle" x="1019" y="-348.3" font-family="Times,serif" font-size="14.00">constructInnerIndexScanTask</text>
</g>
<!-- buildIndexJoinInner2IndexScan&#45;&gt;constructInnerIndexScanTask -->
<g id="edge17" class="edge">
<title>buildIndexJoinInner2IndexScan&#45;&gt;constructInnerIndexScanTask</title>
<path fill="none" stroke="#666666" d="M885.53,-324.05C897.68,-326.61 910.23,-329.26 922.54,-331.86"/>
<polygon fill="#666666" stroke="#666666" points="921.85,-335.29 932.36,-333.93 923.29,-328.44 921.85,-335.29"/>
</g>
<!-- constructIndexJoin -->
<g id="node17" class="node">
<title>constructIndexJoin</title>
<polygon fill="none" stroke="black" points="1279.5,-333 1160.5,-333 1160.5,-297 1279.5,-297 1279.5,-333"/>
<text text-anchor="middle" x="1220" y="-311.3" font-family="Times,serif" font-size="14.00">constructIndexJoin</text>
</g>
<!-- buildIndexJoinInner2IndexScan&#45;&gt;constructIndexJoin -->
<g id="edge18" class="edge">
<title>buildIndexJoinInner2IndexScan&#45;&gt;constructIndexJoin</title>
<path fill="none" stroke="#666666" d="M894.03,-308.02C971.88,-309.69 1080.65,-312.03 1150.47,-313.53"/>
<polygon fill="#666666" stroke="#666666" points="1150.4,-317.03 1160.48,-313.74 1150.55,-310.03 1150.4,-317.03"/>
</g>
<!-- constructIndexHashJoin -->
<g id="node18" class="node">
<title>constructIndexHashJoin</title>
<polygon fill="none" stroke="black" points="1092.5,-424 945.5,-424 945.5,-388 1092.5,-388 1092.5,-424"/>
<text text-anchor="middle" x="1019" y="-402.3" font-family="Times,serif" font-size="14.00">constructIndexHashJoin</text>
</g>
<!-- buildIndexJoinInner2IndexScan&#45;&gt;constructIndexHashJoin -->
<g id="edge19" class="edge">
<title>buildIndexJoinInner2IndexScan&#45;&gt;constructIndexHashJoin</title>
<path fill="none" stroke="#666666" d="M828.02,-324.06C853.76,-340.08 893.36,-363.31 930,-379 934.45,-380.91 939.08,-382.74 943.78,-384.49"/>
<polygon fill="#666666" stroke="#666666" points="942.9,-387.89 953.5,-387.96 945.26,-381.3 942.9,-387.89"/>
</g>
<!-- constructIndexMergeJoin -->
<g id="node19" class="node">
<title>constructIndexMergeJoin</title>
<polygon fill="none" stroke="black" points="1096.5,-278 941.5,-278 941.5,-242 1096.5,-242 1096.5,-278"/>
<text text-anchor="middle" x="1019" y="-256.3" font-family="Times,serif" font-size="14.00">constructIndexMergeJoin</text>
</g>
<!-- buildIndexJoinInner2IndexScan&#45;&gt;constructIndexMergeJoin -->
<g id="edge20" class="edge">
<title>buildIndexJoinInner2IndexScan&#45;&gt;constructIndexMergeJoin</title>
<path fill="none" stroke="#666666" d="M885.53,-287.95C900.6,-284.77 916.3,-281.46 931.4,-278.27"/>
<polygon fill="#666666" stroke="#666666" points="932.16,-281.69 941.22,-276.2 930.71,-274.84 932.16,-281.69"/>
</g>
<!-- constructIndexJoin&#45;&gt;basePhysicalJoin -->
<g id="edge23" class="edge">
<title>constructIndexJoin&#45;&gt;basePhysicalJoin</title>
<path fill="none" stroke="#666666" d="M1279.61,-296.87C1285.39,-293.99 1290.97,-290.72 1296,-287 1330.31,-261.65 1358.25,-220.32 1374.26,-193.14"/>
<polygon fill="#666666" stroke="#666666" points="1377.47,-194.58 1379.42,-184.17 1371.4,-191.09 1377.47,-194.58"/>
</g>
<!-- PhysicalIndexJoin -->
<g id="node21" class="node">
<title>PhysicalIndexJoin</title>
<polygon fill="#95e1d3" stroke="black" points="1332,-297 1332,-333 1448,-333 1448,-297 1332,-297"/>
<text text-anchor="middle" x="1390" y="-311.3" font-family="Times,serif" font-size="14.00">PhysicalIndexJoin</text>
</g>
<!-- constructIndexJoin&#45;&gt;PhysicalIndexJoin -->
<g id="edge24" class="edge">
<title>constructIndexJoin&#45;&gt;PhysicalIndexJoin</title>
<path fill="none" stroke="#666666" d="M1279.76,-315C1293.39,-315 1307.99,-315 1321.95,-315"/>
<polygon fill="#666666" stroke="#666666" points="1321.97,-318.5 1331.97,-315 1321.97,-311.5 1321.97,-318.5"/>
</g>
<!-- constructIndexHashJoin&#45;&gt;constructIndexJoin -->
<g id="edge25" class="edge">
<title>constructIndexHashJoin&#45;&gt;constructIndexJoin</title>
<path fill="none" stroke="#666666" d="M1085.01,-387.88C1092.85,-385.16 1100.67,-382.19 1108,-379 1134.06,-367.66 1161.75,-351.7 1182.96,-338.56"/>
<polygon fill="#666666" stroke="#666666" points="1185.02,-341.4 1191.63,-333.12 1181.29,-335.47 1185.02,-341.4"/>
</g>
<!-- PhysicalIndexHashJoin -->
<g id="node22" class="node">
<title>PhysicalIndexHashJoin</title>
<polygon fill="#95e1d3" stroke="black" points="1148.5,-388 1148.5,-424 1291.5,-424 1291.5,-388 1148.5,-388"/>
<text text-anchor="middle" x="1220" y="-402.3" font-family="Times,serif" font-size="14.00">PhysicalIndexHashJoin</text>
</g>
<!-- constructIndexHashJoin&#45;&gt;PhysicalIndexHashJoin -->
<g id="edge26" class="edge">
<title>constructIndexHashJoin&#45;&gt;PhysicalIndexHashJoin</title>
<path fill="none" stroke="#666666" d="M1092.69,-406C1107.39,-406 1122.94,-406 1137.91,-406"/>
<polygon fill="#666666" stroke="#666666" points="1138.17,-409.5 1148.17,-406 1138.17,-402.5 1138.17,-409.5"/>
</g>
<!-- constructIndexMergeJoin&#45;&gt;constructIndexJoin -->
<g id="edge21" class="edge">
<title>constructIndexMergeJoin&#45;&gt;constructIndexJoin</title>
<path fill="none" stroke="#666666" d="M1085.16,-278.01C1106.1,-283.8 1129.36,-290.22 1150.53,-296.08"/>
<polygon fill="#666666" stroke="#666666" points="1149.84,-299.52 1160.41,-298.81 1151.71,-292.77 1149.84,-299.52"/>
</g>
<!-- PhysicalIndexMergeJoin -->
<g id="node20" class="node">
<title>PhysicalIndexMergeJoin</title>
<polygon fill="#95e1d3" stroke="black" points="1144,-242 1144,-278 1296,-278 1296,-242 1144,-242"/>
<text text-anchor="middle" x="1220" y="-256.3" font-family="Times,serif" font-size="14.00">PhysicalIndexMergeJoin</text>
</g>
<!-- constructIndexMergeJoin&#45;&gt;PhysicalIndexMergeJoin -->
<g id="edge22" class="edge">
<title>constructIndexMergeJoin&#45;&gt;PhysicalIndexMergeJoin</title>
<path fill="none" stroke="#666666" d="M1096.65,-260C1108.71,-260 1121.25,-260 1133.5,-260"/>
<polygon fill="#666666" stroke="#666666" points="1133.7,-263.5 1143.7,-260 1133.7,-256.5 1133.7,-263.5"/>
</g>
</g>
</svg>
