<?xml version="1.0" encoding="UTF-8" standalone="no"?>
<!DOCTYPE svg PUBLIC "-//W3C//DTD SVG 1.1//EN"
 "http://www.w3.org/Graphics/SVG/1.1/DTD/svg11.dtd">
<!-- Generated by graphviz version 2.44.1 (20200629.0846)
 -->
<!-- Title: merge_join Pages: 1 -->
<svg width="1246pt" height="939pt"
 viewBox="0.00 0.00 1246.00 939.00" xmlns="http://www.w3.org/2000/svg" xmlns:xlink="http://www.w3.org/1999/xlink">
<g id="graph0" class="graph" transform="scale(1 1) rotate(0) translate(4 935)">
<title>merge_join</title>
<polygon fill="white" stroke="transparent" points="-4,4 -4,-935 1242,-935 1242,4 -4,4"/>
<g id="clust6" class="cluster">
<title>cluster_mergeJoinTable</title>
<polygon fill="none" stroke="black" points="220,-44 220,-721 1230,-721 1230,-44 220,-44"/>
<text text-anchor="middle" x="725" y="-701" font-family="Times,serif" font-size="20.00">mergeJoinTable</text>
</g>
<g id="clust11" class="cluster">
<title>cluster_vecGroupChecker</title>
<polygon fill="none" stroke="black" points="391,-366 391,-585 1222,-585 1222,-366 391,-366"/>
<text text-anchor="middle" x="806.5" y="-565" font-family="Times,serif" font-size="20.00">vecGroupChecker</text>
</g>
<g id="clust15" class="cluster">
<title>cluster_joinner</title>
<polygon fill="none" stroke="black" points="229.5,-787 229.5,-923 361.5,-923 361.5,-787 229.5,-787"/>
<text text-anchor="middle" x="295.5" y="-903" font-family="Times,serif" font-size="20.00">joinner</text>
</g>
<!-- MergeJoinExec -->
<g id="node1" class="node">
<title>MergeJoinExec</title>
<polygon fill="none" stroke="black" points="102,-196 0,-196 0,-160 102,-160 102,-196"/>
<text text-anchor="middle" x="51" y="-174.3" font-family="Times,serif" font-size="14.00">MergeJoinExec</text>
</g>
<!-- Next -->
<g id="node2" class="node">
<title>Next</title>
<polygon fill="none" stroke="black" points="192,-657 138,-657 138,-621 192,-621 192,-657"/>
<text text-anchor="middle" x="165" y="-635.3" font-family="Times,serif" font-size="14.00">Next</text>
</g>
<!-- MergeJoinExec&#45;&gt;Next -->
<g id="edge1" class="edge">
<title>MergeJoinExec&#45;&gt;Next</title>
<path fill="none" stroke="#666666" d="M56.39,-196.07C73.57,-266.79 136.31,-525.04 157.19,-610.98"/>
<polygon fill="#666666" stroke="#666666" points="153.82,-611.91 159.58,-620.8 160.62,-610.26 153.82,-611.91"/>
</g>
<!-- Open -->
<g id="node3" class="node">
<title>Open</title>
<polygon fill="none" stroke="black" points="192,-142 138,-142 138,-106 192,-106 192,-142"/>
<text text-anchor="middle" x="165" y="-120.3" font-family="Times,serif" font-size="14.00">Open</text>
</g>
<!-- MergeJoinExec&#45;&gt;Open -->
<g id="edge2" class="edge">
<title>MergeJoinExec&#45;&gt;Open</title>
<path fill="none" stroke="#666666" d="M89.61,-159.87C102.27,-153.76 116.34,-146.98 128.8,-140.97"/>
<polygon fill="#666666" stroke="#666666" points="130.49,-144.04 137.98,-136.55 127.45,-137.74 130.49,-144.04"/>
</g>
<!-- Close -->
<g id="node4" class="node">
<title>Close</title>
<polygon fill="none" stroke="black" points="192,-196 138,-196 138,-160 192,-160 192,-196"/>
<text text-anchor="middle" x="165" y="-174.3" font-family="Times,serif" font-size="14.00">Close</text>
</g>
<!-- MergeJoinExec&#45;&gt;Close -->
<g id="edge3" class="edge">
<title>MergeJoinExec&#45;&gt;Close</title>
<path fill="none" stroke="#666666" d="M102.1,-178C110.69,-178 119.46,-178 127.6,-178"/>
<polygon fill="#666666" stroke="#666666" points="127.87,-181.5 137.87,-178 127.87,-174.5 127.87,-181.5"/>
</g>
<!-- fetchNextInnerGroup -->
<g id="node5" class="node">
<title>fetchNextInnerGroup</title>
<polygon fill="none" stroke="black" points="362,-468 229,-468 229,-432 362,-432 362,-468"/>
<text text-anchor="middle" x="295.5" y="-446.3" font-family="Times,serif" font-size="14.00">fetchNextInnerGroup</text>
</g>
<!-- Next&#45;&gt;fetchNextInnerGroup -->
<g id="edge4" class="edge">
<title>Next&#45;&gt;fetchNextInnerGroup</title>
<path fill="none" stroke="#666666" d="M169.2,-620.7C175,-591.9 189.59,-535.44 220,-498 227.65,-488.58 237.67,-480.4 247.86,-473.6"/>
<polygon fill="#666666" stroke="#666666" points="249.82,-476.5 256.41,-468.21 246.09,-470.58 249.82,-476.5"/>
</g>
<!-- fetchNextOuterGroup -->
<g id="node6" class="node">
<title>fetchNextOuterGroup</title>
<polygon fill="none" stroke="black" points="363,-543 228,-543 228,-507 363,-507 363,-543"/>
<text text-anchor="middle" x="295.5" y="-521.3" font-family="Times,serif" font-size="14.00">fetchNextOuterGroup</text>
</g>
<!-- Next&#45;&gt;fetchNextOuterGroup -->
<g id="edge5" class="edge">
<title>Next&#45;&gt;fetchNextOuterGroup</title>
<path fill="none" stroke="#666666" d="M186.36,-620.94C207.85,-601.87 241.89,-571.67 266.03,-550.25"/>
<polygon fill="#666666" stroke="#666666" points="268.65,-552.61 273.81,-543.36 264.01,-547.37 268.65,-552.61"/>
</g>
<!-- compare -->
<g id="node7" class="node">
<title>compare</title>
<polygon fill="none" stroke="black" points="252.5,-730 252.5,-776 338.5,-776 338.5,-730 252.5,-730"/>
<text text-anchor="middle" x="295.5" y="-760.8" font-family="Times,serif" font-size="14.00">compare</text>
<polyline fill="none" stroke="black" points="252.5,-753 338.5,-753 "/>
<text text-anchor="middle" x="295.5" y="-737.8" font-family="Times,serif" font-size="14.00">比较joinkey</text>
</g>
<!-- Next&#45;&gt;compare -->
<g id="edge6" class="edge">
<title>Next&#45;&gt;compare</title>
<path fill="none" stroke="#666666" d="M173.23,-657.25C181.74,-676.56 197.61,-706.71 220,-725 226.69,-730.47 234.56,-734.93 242.63,-738.56"/>
<polygon fill="#666666" stroke="#666666" points="241.56,-741.9 252.14,-742.44 244.2,-735.42 241.56,-741.9"/>
</g>
<!-- onMissMatch -->
<g id="node8" class="node">
<title>onMissMatch</title>
<polygon fill="none" stroke="black" points="341.5,-885 249.5,-885 249.5,-849 341.5,-849 341.5,-885"/>
<text text-anchor="middle" x="295.5" y="-863.3" font-family="Times,serif" font-size="14.00">onMissMatch</text>
</g>
<!-- Next&#45;&gt;onMissMatch -->
<g id="edge7" class="edge">
<title>Next&#45;&gt;onMissMatch</title>
<path fill="none" stroke="#666666" d="M165.61,-657.16C165.77,-695.88 171.61,-787.3 220,-840 225.5,-845.99 232.42,-850.65 239.82,-854.27"/>
<polygon fill="#666666" stroke="#666666" points="238.81,-857.65 249.38,-858.34 241.55,-851.21 238.81,-857.65"/>
</g>
<!-- tryToMatchInners -->
<g id="node9" class="node">
<title>tryToMatchInners</title>
<polygon fill="none" stroke="black" points="353.5,-831 237.5,-831 237.5,-795 353.5,-795 353.5,-831"/>
<text text-anchor="middle" x="295.5" y="-809.3" font-family="Times,serif" font-size="14.00">tryToMatchInners</text>
</g>
<!-- Next&#45;&gt;tryToMatchInners -->
<g id="edge8" class="edge">
<title>Next&#45;&gt;tryToMatchInners</title>
<path fill="none" stroke="#666666" d="M167.8,-657.46C171.76,-688.23 183.97,-750.13 220,-786 222.64,-788.63 225.56,-791.01 228.66,-793.15"/>
<polygon fill="#666666" stroke="#666666" points="226.88,-796.16 237.26,-798.31 230.48,-790.16 226.88,-796.16"/>
</g>
<!-- baseExecutor_Open -->
<g id="node11" class="node">
<title>baseExecutor_Open</title>
<polygon fill="none" stroke="black" points="358,-36 233,-36 233,0 358,0 358,-36"/>
<text text-anchor="middle" x="295.5" y="-14.3" font-family="Times,serif" font-size="14.00">baseExecutor_Open</text>
</g>
<!-- Open&#45;&gt;baseExecutor_Open -->
<g id="edge10" class="edge">
<title>Open&#45;&gt;baseExecutor_Open</title>
<path fill="none" stroke="#666666" d="M173.1,-105.86C181.49,-86.73 197.25,-57.05 220,-40 221.25,-39.06 222.53,-38.17 223.85,-37.31"/>
<polygon fill="#666666" stroke="#666666" points="225.98,-40.13 232.98,-32.18 222.55,-34.03 225.98,-40.13"/>
</g>
<!-- init -->
<g id="node12" class="node">
<title>init</title>
<polygon fill="none" stroke="black" points="322.5,-142 268.5,-142 268.5,-106 322.5,-106 322.5,-142"/>
<text text-anchor="middle" x="295.5" y="-120.3" font-family="Times,serif" font-size="14.00">init</text>
</g>
<!-- Open&#45;&gt;init -->
<g id="edge11" class="edge">
<title>Open&#45;&gt;init</title>
<path fill="none" stroke="#666666" d="M192,-124C210.95,-124 236.87,-124 257.91,-124"/>
<polygon fill="#666666" stroke="#666666" points="258.09,-127.5 268.09,-124 258.09,-120.5 258.09,-127.5"/>
</g>
<!-- finish -->
<g id="node13" class="node">
<title>finish</title>
<polygon fill="none" stroke="black" points="322.5,-196 268.5,-196 268.5,-160 322.5,-160 322.5,-196"/>
<text text-anchor="middle" x="295.5" y="-174.3" font-family="Times,serif" font-size="14.00">finish</text>
</g>
<!-- Close&#45;&gt;finish -->
<g id="edge12" class="edge">
<title>Close&#45;&gt;finish</title>
<path fill="none" stroke="#666666" d="M192,-178C210.95,-178 236.87,-178 257.91,-178"/>
<polygon fill="#666666" stroke="#666666" points="258.09,-181.5 268.09,-178 258.09,-174.5 258.09,-181.5"/>
</g>
<!-- NewIterator4Chunk -->
<g id="node15" class="node">
<title>NewIterator4Chunk</title>
<polygon fill="none" stroke="black" points="576,-250 451,-250 451,-214 576,-214 576,-250"/>
<text text-anchor="middle" x="513.5" y="-228.3" font-family="Times,serif" font-size="14.00">NewIterator4Chunk</text>
</g>
<!-- fetchNextInnerGroup&#45;&gt;NewIterator4Chunk -->
<g id="edge17" class="edge">
<title>fetchNextInnerGroup&#45;&gt;NewIterator4Chunk</title>
<path fill="none" stroke="#b83b5e" d="M299.98,-431.99C308.35,-393.74 333.36,-304.2 391,-259 405.14,-247.91 422.92,-241.18 440.48,-237.14"/>
<polygon fill="#b83b5e" stroke="#b83b5e" points="441.66,-240.47 450.76,-235.06 440.27,-233.61 441.66,-240.47"/>
</g>
<!-- fetchNextChunk -->
<g id="node18" class="node">
<title>fetchNextChunk</title>
<polygon fill="none" stroke="black" points="566.5,-629 460.5,-629 460.5,-593 566.5,-593 566.5,-629"/>
<text text-anchor="middle" x="513.5" y="-607.3" font-family="Times,serif" font-size="14.00">fetchNextChunk</text>
</g>
<!-- fetchNextInnerGroup&#45;&gt;fetchNextChunk -->
<g id="edge18" class="edge">
<title>fetchNextInnerGroup&#45;&gt;fetchNextChunk</title>
<path fill="none" stroke="#b83b5e" d="M330.21,-468.17C342.02,-475.98 354.45,-486.08 363,-498 387.66,-532.39 359.35,-560.92 391,-589 407.05,-603.24 429.13,-609.71 450.07,-612.31"/>
<polygon fill="#b83b5e" stroke="#b83b5e" points="449.94,-615.81 460.23,-613.29 450.61,-608.84 449.94,-615.81"/>
</g>
<!-- isExhausted -->
<g id="node19" class="node">
<title>isExhausted</title>
<polygon fill="none" stroke="black" points="554.5,-543 472.5,-543 472.5,-507 554.5,-507 554.5,-543"/>
<text text-anchor="middle" x="513.5" y="-521.3" font-family="Times,serif" font-size="14.00">isExhausted</text>
</g>
<!-- fetchNextInnerGroup&#45;&gt;isExhausted -->
<g id="edge19" class="edge">
<title>fetchNextInnerGroup&#45;&gt;isExhausted</title>
<path fill="none" stroke="#b83b5e" d="M327.12,-468.04C345.2,-478.05 368.83,-490.05 391,-498 413.93,-506.22 440.23,-512.44 462.48,-516.82"/>
<polygon fill="#b83b5e" stroke="#b83b5e" points="461.91,-520.28 472.39,-518.71 463.22,-513.4 461.91,-520.28"/>
</g>
<!-- splitIntoGroups -->
<g id="node20" class="node">
<title>splitIntoGroups</title>
<polygon fill="none" stroke="black" points="399,-412 399,-488 628,-488 628,-412 399,-412"/>
<text text-anchor="middle" x="513.5" y="-472.8" font-family="Times,serif" font-size="14.00">splitIntoGroups</text>
<polyline fill="none" stroke="black" points="399,-465 628,-465 "/>
<text text-anchor="start" x="407" y="-449.8" font-family="Times,serif" font-size="14.00">split a chunk into muliple</text>
<text text-anchor="start" x="407" y="-434.8" font-family="Times,serif" font-size="14.00"> groups with the row </text>
<text text-anchor="start" x="407" y="-419.8" font-family="Times,serif" font-size="14.00"> in the same group the same groupKey</text>
</g>
<!-- fetchNextInnerGroup&#45;&gt;splitIntoGroups -->
<g id="edge20" class="edge">
<title>fetchNextInnerGroup&#45;&gt;splitIntoGroups</title>
<path fill="none" stroke="#b83b5e" d="M362.19,-450C370.66,-450 379.55,-450 388.6,-450"/>
<polygon fill="#b83b5e" stroke="#b83b5e" points="388.86,-453.5 398.86,-450 388.86,-446.5 388.86,-453.5"/>
</g>
<!-- selectNextGroup -->
<g id="node21" class="node">
<title>selectNextGroup</title>
<polygon fill="none" stroke="black" points="567.5,-358 459.5,-358 459.5,-322 567.5,-322 567.5,-358"/>
<text text-anchor="middle" x="513.5" y="-336.3" font-family="Times,serif" font-size="14.00">selectNextGroup</text>
</g>
<!-- fetchNextInnerGroup&#45;&gt;selectNextGroup -->
<g id="edge21" class="edge">
<title>fetchNextInnerGroup&#45;&gt;selectNextGroup</title>
<path fill="none" stroke="#b83b5e" d="M310.39,-431.93C327.15,-411.5 357.33,-378.87 391,-362 408.87,-353.05 429.84,-347.7 449.29,-344.51"/>
<polygon fill="#b83b5e" stroke="#b83b5e" points="449.91,-347.96 459.29,-343.04 448.89,-341.03 449.91,-347.96"/>
</g>
<!-- groupRowsIter_Begin -->
<g id="node22" class="node">
<title>groupRowsIter_Begin</title>
<polygon fill="none" stroke="black" points="582,-304 445,-304 445,-268 582,-268 582,-304"/>
<text text-anchor="middle" x="513.5" y="-282.3" font-family="Times,serif" font-size="14.00">groupRowsIter_Begin</text>
</g>
<!-- fetchNextInnerGroup&#45;&gt;groupRowsIter_Begin -->
<g id="edge22" class="edge">
<title>fetchNextInnerGroup&#45;&gt;groupRowsIter_Begin</title>
<path fill="none" stroke="#b83b5e" d="M303.83,-431.61C316.74,-401.74 346.43,-343.03 391,-313 404.01,-304.24 419.41,-298.27 434.8,-294.22"/>
<polygon fill="#b83b5e" stroke="#b83b5e" points="435.97,-297.54 444.89,-291.83 434.35,-290.73 435.97,-297.54"/>
</g>
<!-- fetchNextOuterGroup&#45;&gt;fetchNextChunk -->
<g id="edge23" class="edge">
<title>fetchNextOuterGroup&#45;&gt;fetchNextChunk</title>
<path fill="none" stroke="#17b978" d="M317.53,-543.06C335.76,-557.73 363.48,-577.78 391,-589 409.59,-596.58 430.85,-601.56 450.33,-604.83"/>
<polygon fill="#17b978" stroke="#17b978" points="449.91,-608.3 460.33,-606.38 450.98,-601.39 449.91,-608.3"/>
</g>
<!-- fetchNextOuterGroup&#45;&gt;isExhausted -->
<g id="edge24" class="edge">
<title>fetchNextOuterGroup&#45;&gt;isExhausted</title>
<path fill="none" stroke="#17b978" d="M363.07,-525C395,-525 432.63,-525 462.14,-525"/>
<polygon fill="#17b978" stroke="#17b978" points="462.22,-528.5 472.22,-525 462.22,-521.5 462.22,-528.5"/>
</g>
<!-- fetchNextOuterGroup&#45;&gt;splitIntoGroups -->
<g id="edge25" class="edge">
<title>fetchNextOuterGroup&#45;&gt;splitIntoGroups</title>
<path fill="none" stroke="#17b978" d="M348.51,-506.94C362.16,-502.2 377.45,-496.89 393.07,-491.47"/>
<polygon fill="#17b978" stroke="#17b978" points="394.52,-494.67 402.82,-488.08 392.23,-488.06 394.52,-494.67"/>
</g>
<!-- fetchNextOuterGroup&#45;&gt;selectNextGroup -->
<g id="edge26" class="edge">
<title>fetchNextOuterGroup&#45;&gt;selectNextGroup</title>
<path fill="none" stroke="#17b978" d="M330.94,-506.87C342.69,-499.12 354.89,-489.05 363,-477 392.36,-433.35 352.71,-398.07 391,-362 406.55,-347.35 428.42,-340.77 449.32,-338.2"/>
<polygon fill="#17b978" stroke="#17b978" points="449.84,-341.67 459.47,-337.24 449.19,-334.7 449.84,-341.67"/>
</g>
<!-- fetchNextOuterGroup&#45;&gt;groupRowsIter_Begin -->
<g id="edge27" class="edge">
<title>fetchNextOuterGroup&#45;&gt;groupRowsIter_Begin</title>
<path fill="none" stroke="#17b978" d="M331.75,-506.94C343.44,-499.25 355.39,-489.2 363,-477 402.11,-414.25 340.03,-366.57 391,-313 402.6,-300.81 418.37,-293.54 434.72,-289.32"/>
<polygon fill="#17b978" stroke="#17b978" points="435.92,-292.64 444.94,-287.08 434.42,-285.81 435.92,-292.64"/>
</g>
<!-- VectorizedFilter -->
<g id="node23" class="node">
<title>VectorizedFilter</title>
<polygon fill="none" stroke="black" points="565.5,-683 461.5,-683 461.5,-647 565.5,-647 565.5,-683"/>
<text text-anchor="middle" x="513.5" y="-661.3" font-family="Times,serif" font-size="14.00">VectorizedFilter</text>
</g>
<!-- fetchNextOuterGroup&#45;&gt;VectorizedFilter -->
<g id="edge28" class="edge">
<title>fetchNextOuterGroup&#45;&gt;VectorizedFilter</title>
<path fill="none" stroke="#17b978" d="M306.39,-543.06C321.27,-568.44 351.89,-614.21 391,-638 409,-648.95 430.92,-655.48 451.16,-659.36"/>
<polygon fill="#17b978" stroke="#17b978" points="450.8,-662.85 461.25,-661.11 451.99,-655.95 450.8,-662.85"/>
</g>
<!-- compareFuncs -->
<g id="node10" class="node">
<title>compareFuncs</title>
<polygon fill="none" stroke="black" points="561.5,-771 465.5,-771 465.5,-735 561.5,-735 561.5,-771"/>
<text text-anchor="middle" x="513.5" y="-749.3" font-family="Times,serif" font-size="14.00">compareFuncs</text>
</g>
<!-- compare&#45;&gt;compareFuncs -->
<g id="edge9" class="edge">
<title>compare&#45;&gt;compareFuncs</title>
<path fill="none" stroke="#666666" d="M338.66,-753C371.88,-753 418.53,-753 455.15,-753"/>
<polygon fill="#666666" stroke="#666666" points="455.19,-756.5 465.19,-753 455.19,-749.5 455.19,-756.5"/>
</g>
<!-- newVecGroupChecker -->
<g id="node14" class="node">
<title>newVecGroupChecker</title>
<polygon fill="none" stroke="black" points="583,-142 444,-142 444,-106 583,-106 583,-142"/>
<text text-anchor="middle" x="513.5" y="-120.3" font-family="Times,serif" font-size="14.00">newVecGroupChecker</text>
</g>
<!-- init&#45;&gt;newVecGroupChecker -->
<g id="edge13" class="edge">
<title>init&#45;&gt;newVecGroupChecker</title>
<path fill="none" stroke="#666666" d="M322.55,-124C349.95,-124 394.42,-124 433.44,-124"/>
<polygon fill="#666666" stroke="#666666" points="433.76,-127.5 443.76,-124 433.76,-120.5 433.76,-127.5"/>
</g>
<!-- init&#45;&gt;NewIterator4Chunk -->
<g id="edge14" class="edge">
<title>init&#45;&gt;NewIterator4Chunk</title>
<path fill="none" stroke="#666666" d="M322.52,-129.93C335.88,-134.04 351.67,-140.68 363,-151 382.98,-169.21 369.57,-188.52 391,-205 405.25,-215.96 423.06,-222.64 440.62,-226.68"/>
<polygon fill="#666666" stroke="#666666" points="440.41,-230.21 450.9,-228.76 441.8,-223.35 440.41,-230.21"/>
</g>
<!-- NewRowContainer -->
<g id="node16" class="node">
<title>NewRowContainer</title>
<polygon fill="none" stroke="black" points="574,-88 453,-88 453,-52 574,-52 574,-88"/>
<text text-anchor="middle" x="513.5" y="-66.3" font-family="Times,serif" font-size="14.00">NewRowContainer</text>
</g>
<!-- init&#45;&gt;NewRowContainer -->
<g id="edge15" class="edge">
<title>init&#45;&gt;NewRowContainer</title>
<path fill="none" stroke="#666666" d="M322.86,-116.01C341.75,-110.4 367.85,-102.87 391,-97 407.72,-92.76 425.83,-88.54 442.83,-84.73"/>
<polygon fill="#666666" stroke="#666666" points="443.69,-88.13 452.7,-82.55 442.18,-81.29 443.69,-88.13"/>
</g>
<!-- rowContainer_close -->
<g id="node17" class="node">
<title>rowContainer_close</title>
<polygon fill="none" stroke="black" points="576,-196 451,-196 451,-160 576,-160 576,-196"/>
<text text-anchor="middle" x="513.5" y="-174.3" font-family="Times,serif" font-size="14.00">rowContainer_close</text>
</g>
<!-- finish&#45;&gt;rowContainer_close -->
<g id="edge16" class="edge">
<title>finish&#45;&gt;rowContainer_close</title>
<path fill="none" stroke="#666666" d="M322.55,-178C351.62,-178 399.9,-178 440.51,-178"/>
<polygon fill="#666666" stroke="#666666" points="440.65,-181.5 450.65,-178 440.65,-174.5 440.65,-181.5"/>
</g>
<!-- Next_MergeJoinExec_child_childIndex -->
<g id="node28" class="node">
<title>Next_MergeJoinExec_child_childIndex</title>
<polygon fill="none" stroke="black" points="664,-594 664,-678 949,-678 949,-594 664,-594"/>
<text text-anchor="middle" x="806.5" y="-662.8" font-family="Times,serif" font-size="14.00">Next(MergeJoinExec.child[childIndex]</text>
<polyline fill="none" stroke="black" points="664,-655 949,-655 "/>
<text text-anchor="start" x="672" y="-639.8" font-family="Times,serif" font-size="14.00">从left/right child的</text>
<text text-anchor="start" x="672" y="-624.8" font-family="Times,serif" font-size="14.00"> exec中读取数据</text>
<polyline fill="none" stroke="black" points="664,-617 949,-617 "/>
<text text-anchor="start" x="672" y="-601.8" font-family="Times,serif" font-size="14.00">可参照上面的TableReader和TableIndexReader</text>
</g>
<!-- fetchNextChunk&#45;&gt;Next_MergeJoinExec_child_childIndex -->
<g id="edge33" class="edge">
<title>fetchNextChunk&#45;&gt;Next_MergeJoinExec_child_childIndex</title>
<path fill="none" stroke="#666666" d="M566.52,-615.47C591.23,-617.59 622.18,-620.25 653.53,-622.94"/>
<polygon fill="#666666" stroke="#666666" points="653.45,-626.45 663.71,-623.82 654.05,-619.48 653.45,-626.45"/>
</g>
<!-- evalGroupItemsAndResolveGroups -->
<g id="node24" class="node">
<title>evalGroupItemsAndResolveGroups</title>
<polygon fill="none" stroke="black" points="912,-513 701,-513 701,-477 912,-477 912,-513"/>
<text text-anchor="middle" x="806.5" y="-491.3" font-family="Times,serif" font-size="14.00">evalGroupItemsAndResolveGroups</text>
</g>
<!-- splitIntoGroups&#45;&gt;evalGroupItemsAndResolveGroups -->
<g id="edge29" class="edge">
<title>splitIntoGroups&#45;&gt;evalGroupItemsAndResolveGroups</title>
<path fill="none" stroke="#666666" d="M628.26,-467.59C648.81,-470.77 670.24,-474.08 690.82,-477.27"/>
<polygon fill="#666666" stroke="#666666" points="690.42,-480.75 700.84,-478.82 691.49,-473.83 690.42,-480.75"/>
</g>
<!-- groupOffset -->
<g id="node26" class="node">
<title>groupOffset</title>
<polygon fill="#95e1d3" stroke="black" points="995,-375 995,-451 1204,-451 1204,-375 995,-375"/>
<text text-anchor="middle" x="1099.5" y="-435.8" font-family="Times,serif" font-size="14.00">groupOffset []int</text>
<polyline fill="none" stroke="black" points="995,-428 1204,-428 "/>
<text text-anchor="start" x="1003" y="-412.8" font-family="Times,serif" font-size="14.00">groupOffset holds the </text>
<text text-anchor="start" x="1003" y="-397.8" font-family="Times,serif" font-size="14.00"> offset of the last row </text>
<text text-anchor="start" x="1003" y="-382.8" font-family="Times,serif" font-size="14.00"> in each group of the current chunk</text>
</g>
<!-- splitIntoGroups&#45;&gt;groupOffset -->
<g id="edge30" class="edge">
<title>splitIntoGroups&#45;&gt;groupOffset</title>
<path fill="none" stroke="#666666" d="M628.06,-446.32C715.79,-443.05 840.2,-437.44 949,-429 960.59,-428.1 972.67,-427.03 984.72,-425.87"/>
<polygon fill="#666666" stroke="#666666" points="985.21,-429.34 994.83,-424.89 984.53,-422.38 985.21,-429.34"/>
</g>
<!-- getNextGroup -->
<g id="node27" class="node">
<title>getNextGroup</title>
<polygon fill="none" stroke="black" points="853.5,-420 759.5,-420 759.5,-384 853.5,-384 853.5,-420"/>
<text text-anchor="middle" x="806.5" y="-398.3" font-family="Times,serif" font-size="14.00">getNextGroup</text>
</g>
<!-- selectNextGroup&#45;&gt;getNextGroup -->
<g id="edge34" class="edge">
<title>selectNextGroup&#45;&gt;getNextGroup</title>
<path fill="none" stroke="#666666" d="M567.69,-349.97C586.74,-353.63 608.36,-357.88 628,-362 668.66,-370.52 714.39,-380.84 749.25,-388.87"/>
<polygon fill="#666666" stroke="#666666" points="748.71,-392.34 759.24,-391.17 750.28,-385.51 748.71,-392.34"/>
</g>
<!-- sameGroup -->
<g id="node25" class="node">
<title>sameGroup</title>
<polygon fill="#95e1d3" stroke="black" points="985,-470 985,-546 1214,-546 1214,-470 985,-470"/>
<text text-anchor="start" x="993" y="-530.8" font-family="Times,serif" font-size="14.00">sameGroup []bool</text>
<polyline fill="none" stroke="black" points="985,-523 1214,-523 "/>
<text text-anchor="start" x="993" y="-507.8" font-family="Times,serif" font-size="14.00">sameGroup is used to check </text>
<text text-anchor="start" x="993" y="-492.8" font-family="Times,serif" font-size="14.00"> whether the current row belongs</text>
<text text-anchor="start" x="993" y="-477.8" font-family="Times,serif" font-size="14.00"> to the same group as the previous row</text>
</g>
<!-- evalGroupItemsAndResolveGroups&#45;&gt;sameGroup -->
<g id="edge31" class="edge">
<title>evalGroupItemsAndResolveGroups&#45;&gt;sameGroup</title>
<path fill="none" stroke="#666666" d="M912.15,-499.67C932.45,-500.58 953.91,-501.54 974.76,-502.47"/>
<polygon fill="#666666" stroke="#666666" points="974.79,-505.98 984.94,-502.93 975.1,-498.98 974.79,-505.98"/>
</g>
<!-- getNextGroup&#45;&gt;groupOffset -->
<g id="edge32" class="edge">
<title>getNextGroup&#45;&gt;groupOffset</title>
<path fill="none" stroke="#666666" d="M853.61,-403.74C888.77,-405.07 938.77,-406.96 984.43,-408.69"/>
<polygon fill="#666666" stroke="#666666" points="984.58,-412.2 994.71,-409.08 984.85,-405.2 984.58,-412.2"/>
</g>
</g>
</svg>
