<?xml version="1.0" encoding="UTF-8" standalone="no"?>
<!DOCTYPE svg PUBLIC "-//W3C//DTD SVG 1.1//EN"
 "http://www.w3.org/Graphics/SVG/1.1/DTD/svg11.dtd">
<!-- Generated by graphviz version 2.44.1 (20200629.0846)
 -->
<!-- Title: ToPB Pages: 1 -->
<svg width="486pt" height="314pt"
 viewBox="0.00 0.00 486.00 314.00" xmlns="http://www.w3.org/2000/svg" xmlns:xlink="http://www.w3.org/1999/xlink">
<g id="graph0" class="graph" transform="scale(1 1) rotate(0) translate(4 310)">
<title>ToPB</title>
<polygon fill="white" stroke="transparent" points="-4,4 -4,-310 482,-310 482,4 -4,4"/>
<!-- constructDAGReq -->
<g id="node1" class="node">
<title>constructDAGReq</title>
<polygon fill="none" stroke="black" points="117,-90 0,-90 0,-54 117,-54 117,-90"/>
<text text-anchor="middle" x="58.5" y="-68.3" font-family="Times,serif" font-size="14.00">constructDAGReq</text>
</g>
<!-- constructDistExecForTiFlash -->
<g id="node2" class="node">
<title>constructDistExecForTiFlash</title>
<polygon fill="none" stroke="black" points="329,-144 153,-144 153,-108 329,-108 329,-144"/>
<text text-anchor="middle" x="241" y="-122.3" font-family="Times,serif" font-size="14.00">constructDistExecForTiFlash</text>
</g>
<!-- constructDAGReq&#45;&gt;constructDistExecForTiFlash -->
<g id="edge1" class="edge">
<title>constructDAGReq&#45;&gt;constructDistExecForTiFlash</title>
<path fill="none" stroke="#666666" d="M117.11,-89.23C134,-94.29 152.65,-99.87 170.21,-105.12"/>
<polygon fill="#666666" stroke="#666666" points="169.25,-108.49 179.83,-108 171.25,-101.78 169.25,-108.49"/>
</g>
<!-- constructDistExec -->
<g id="node3" class="node">
<title>constructDistExec</title>
<polygon fill="none" stroke="black" points="299,-90 183,-90 183,-54 299,-54 299,-90"/>
<text text-anchor="middle" x="241" y="-68.3" font-family="Times,serif" font-size="14.00">constructDistExec</text>
</g>
<!-- constructDAGReq&#45;&gt;constructDistExec -->
<g id="edge2" class="edge">
<title>constructDAGReq&#45;&gt;constructDistExec</title>
<path fill="none" stroke="#666666" d="M117.11,-72C134.87,-72 154.57,-72 172.91,-72"/>
<polygon fill="#666666" stroke="#666666" points="172.94,-75.5 182.94,-72 172.94,-68.5 172.94,-75.5"/>
</g>
<!-- PushDownFlags -->
<g id="node4" class="node">
<title>PushDownFlags</title>
<polygon fill="none" stroke="black" points="293.5,-36 188.5,-36 188.5,0 293.5,0 293.5,-36"/>
<text text-anchor="middle" x="241" y="-14.3" font-family="Times,serif" font-size="14.00">PushDownFlags</text>
</g>
<!-- constructDAGReq&#45;&gt;PushDownFlags -->
<g id="edge3" class="edge">
<title>constructDAGReq&#45;&gt;PushDownFlags</title>
<path fill="none" stroke="#666666" d="M117.11,-54.77C136.79,-48.88 158.87,-42.27 178.82,-36.3"/>
<polygon fill="#666666" stroke="#666666" points="179.85,-39.65 188.43,-33.43 177.85,-32.94 179.85,-39.65"/>
</g>
<!-- ToPB -->
<g id="node5" class="node">
<title>ToPB</title>
<polygon fill="none" stroke="black" points="85.5,-252 31.5,-252 31.5,-216 85.5,-216 85.5,-252"/>
<text text-anchor="middle" x="58.5" y="-230.3" font-family="Times,serif" font-size="14.00">ToPB</text>
</g>
<!-- ExpressionsToPBList -->
<g id="node6" class="node">
<title>ExpressionsToPBList</title>
<polygon fill="none" stroke="black" points="308,-306 174,-306 174,-270 308,-270 308,-306"/>
<text text-anchor="middle" x="241" y="-284.3" font-family="Times,serif" font-size="14.00">ExpressionsToPBList</text>
</g>
<!-- ToPB&#45;&gt;ExpressionsToPBList -->
<g id="edge4" class="edge">
<title>ToPB&#45;&gt;ExpressionsToPBList</title>
<path fill="none" stroke="#666666" d="M85.75,-241.85C107.8,-248.45 140.35,-258.19 169.87,-267.02"/>
<polygon fill="#666666" stroke="#666666" points="169.16,-270.46 179.75,-269.97 171.17,-263.75 169.16,-270.46"/>
</g>
<!-- tipb_Aggregation -->
<g id="node7" class="node">
<title>tipb_Aggregation</title>
<polygon fill="none" stroke="black" points="297,-252 185,-252 185,-216 297,-216 297,-252"/>
<text text-anchor="middle" x="241" y="-230.3" font-family="Times,serif" font-size="14.00">tipb_Aggregation</text>
</g>
<!-- ToPB&#45;&gt;tipb_Aggregation -->
<g id="edge5" class="edge">
<title>ToPB&#45;&gt;tipb_Aggregation</title>
<path fill="none" stroke="#666666" d="M85.75,-234C108.94,-234 143.75,-234 174.43,-234"/>
<polygon fill="#666666" stroke="#666666" points="174.66,-237.5 184.66,-234 174.66,-230.5 174.66,-237.5"/>
</g>
<!-- AggFuncToPBExpr -->
<g id="node8" class="node">
<title>AggFuncToPBExpr</title>
<polygon fill="none" stroke="black" points="303.5,-198 178.5,-198 178.5,-162 303.5,-162 303.5,-198"/>
<text text-anchor="middle" x="241" y="-176.3" font-family="Times,serif" font-size="14.00">AggFuncToPBExpr</text>
</g>
<!-- ToPB&#45;&gt;AggFuncToPBExpr -->
<g id="edge6" class="edge">
<title>ToPB&#45;&gt;AggFuncToPBExpr</title>
<path fill="none" stroke="#666666" d="M85.75,-226.15C107.8,-219.55 140.35,-209.81 169.87,-200.98"/>
<polygon fill="#666666" stroke="#666666" points="171.17,-204.25 179.75,-198.03 169.16,-197.54 171.17,-204.25"/>
</g>
<!-- NewPBConverter -->
<g id="node9" class="node">
<title>NewPBConverter</title>
<polygon fill="none" stroke="black" points="478,-306 365,-306 365,-270 478,-270 478,-306"/>
<text text-anchor="middle" x="421.5" y="-284.3" font-family="Times,serif" font-size="14.00">NewPBConverter</text>
</g>
<!-- AggFuncToPBExpr&#45;&gt;NewPBConverter -->
<g id="edge7" class="edge">
<title>AggFuncToPBExpr&#45;&gt;NewPBConverter</title>
<path fill="none" stroke="#666666" d="M303.54,-193.26C312.58,-196.82 321.4,-201.32 329,-207 352.1,-224.27 343.27,-242.03 365,-261 366.16,-262.01 367.37,-263 368.61,-263.95"/>
<polygon fill="#666666" stroke="#666666" points="367,-267.09 377.23,-269.85 370.95,-261.31 367,-267.09"/>
</g>
<!-- ExprToPB -->
<g id="node10" class="node">
<title>ExprToPB</title>
<polygon fill="none" stroke="black" points="458.5,-252 384.5,-252 384.5,-216 458.5,-216 458.5,-252"/>
<text text-anchor="middle" x="421.5" y="-230.3" font-family="Times,serif" font-size="14.00">ExprToPB</text>
</g>
<!-- AggFuncToPBExpr&#45;&gt;ExprToPB -->
<g id="edge8" class="edge">
<title>AggFuncToPBExpr&#45;&gt;ExprToPB</title>
<path fill="none" stroke="#666666" d="M301.93,-198.13C325.65,-205.31 352.47,-213.42 374.6,-220.11"/>
<polygon fill="#666666" stroke="#666666" points="373.82,-223.53 384.4,-223.08 375.84,-216.83 373.82,-223.53"/>
</g>
<!-- ExprType_SUM -->
<g id="node11" class="node">
<title>ExprType_SUM</title>
<polygon fill="none" stroke="black" points="475,-198 368,-198 368,-162 475,-162 475,-198"/>
<text text-anchor="middle" x="421.5" y="-176.3" font-family="Times,serif" font-size="14.00">ExprType_SUM</text>
</g>
<!-- AggFuncToPBExpr&#45;&gt;ExprType_SUM -->
<g id="edge9" class="edge">
<title>AggFuncToPBExpr&#45;&gt;ExprType_SUM</title>
<path fill="none" stroke="#666666" d="M303.68,-180C321.12,-180 340.11,-180 357.62,-180"/>
<polygon fill="#666666" stroke="#666666" points="357.73,-183.5 367.73,-180 357.73,-176.5 357.73,-183.5"/>
</g>
<!-- ExprType_Count -->
<g id="node12" class="node">
<title>ExprType_Count</title>
<polygon fill="none" stroke="black" points="476.5,-144 366.5,-144 366.5,-108 476.5,-108 476.5,-144"/>
<text text-anchor="middle" x="421.5" y="-122.3" font-family="Times,serif" font-size="14.00">ExprType_Count</text>
</g>
<!-- AggFuncToPBExpr&#45;&gt;ExprType_Count -->
<g id="edge10" class="edge">
<title>AggFuncToPBExpr&#45;&gt;ExprType_Count</title>
<path fill="none" stroke="#666666" d="M301.93,-161.87C319.54,-156.54 338.85,-150.7 356.69,-145.3"/>
<polygon fill="#666666" stroke="#666666" points="357.87,-148.6 366.43,-142.36 355.84,-141.9 357.87,-148.6"/>
</g>
<!-- ExprType_Avg -->
<g id="node13" class="node">
<title>ExprType_Avg</title>
<polygon fill="none" stroke="black" points="472,-90 371,-90 371,-54 472,-54 472,-90"/>
<text text-anchor="middle" x="421.5" y="-68.3" font-family="Times,serif" font-size="14.00">ExprType_Avg</text>
</g>
<!-- AggFuncToPBExpr&#45;&gt;ExprType_Avg -->
<g id="edge11" class="edge">
<title>AggFuncToPBExpr&#45;&gt;ExprType_Avg</title>
<path fill="none" stroke="#666666" d="M303.54,-166.74C312.58,-163.18 321.4,-158.68 329,-153 352.1,-135.73 343.27,-117.97 365,-99 366.16,-97.99 367.37,-97 368.61,-96.05"/>
<polygon fill="#666666" stroke="#666666" points="370.95,-98.69 377.23,-90.15 367,-92.91 370.95,-98.69"/>
</g>
</g>
</svg>
