<?xml version="1.0" encoding="UTF-8" standalone="no"?>
<!DOCTYPE svg PUBLIC "-//W3C//DTD SVG 1.1//EN"
 "http://www.w3.org/Graphics/SVG/1.1/DTD/svg11.dtd">
<!-- Generated by graphviz version 2.44.1 (20200629.0846)
 -->
<!-- Title: physical_join_inherit Pages: 1 -->
<svg width="1565pt" height="798pt"
 viewBox="0.00 0.00 1565.00 797.50" xmlns="http://www.w3.org/2000/svg" xmlns:xlink="http://www.w3.org/1999/xlink">
<g id="graph0" class="graph" transform="scale(1 1) rotate(0) translate(4 793.5)">
<title>physical_join_inherit</title>
<polygon fill="white" stroke="transparent" points="-4,4 -4,-793.5 1561,-793.5 1561,4 -4,4"/>
<!-- basePhysicalPlan -->
<g id="node1" class="node">
<title>basePhysicalPlan</title>
<polygon fill="none" stroke="black" points="185,-329.5 185,-444.5 459,-444.5 459,-329.5 185,-329.5"/>
<text text-anchor="middle" x="322" y="-429.3" font-family="Times,serif" font-size="14.00">basePhysicalPlan</text>
<polyline fill="none" stroke="black" points="185,-421.5 459,-421.5 "/>
<text text-anchor="start" x="193" y="-406.3" font-family="Times,serif" font-size="14.00">basePlan</text>
<polyline fill="none" stroke="black" points="185,-398.5 459,-398.5 "/>
<text text-anchor="start" x="193" y="-383.3" font-family="Times,serif" font-size="14.00">childrenReqProps []*property.PhysicalProperty</text>
<polyline fill="none" stroke="black" points="185,-375.5 459,-375.5 "/>
<text text-anchor="start" x="193" y="-360.3" font-family="Times,serif" font-size="14.00">self PhysicalPlan</text>
<polyline fill="none" stroke="black" points="185,-352.5 459,-352.5 "/>
<text text-anchor="start" x="193" y="-337.3" font-family="Times,serif" font-size="14.00">children []PhysicalPlan</text>
</g>
<!-- physicalSchemaProducer -->
<g id="node2" class="node">
<title>physicalSchemaProducer</title>
<polygon fill="none" stroke="black" points="495,-352.5 495,-421.5 668,-421.5 668,-352.5 495,-352.5"/>
<text text-anchor="middle" x="581.5" y="-406.3" font-family="Times,serif" font-size="14.00">physicalSchemaProducer</text>
<polyline fill="none" stroke="black" points="495,-398.5 668,-398.5 "/>
<text text-anchor="start" x="503" y="-383.3" font-family="Times,serif" font-size="14.00">schema *expression.Schema</text>
<polyline fill="none" stroke="black" points="495,-375.5 668,-375.5 "/>
<text text-anchor="start" x="503" y="-360.3" font-family="Times,serif" font-size="14.00">basePhysicalPlan</text>
</g>
<!-- basePhysicalPlan&#45;&gt;physicalSchemaProducer -->
<g id="edge2" class="edge">
<title>basePhysicalPlan&#45;&gt;physicalSchemaProducer</title>
<path fill="none" stroke="#666666" d="M459.29,-387C467.87,-387 476.4,-387 484.73,-387"/>
<polygon fill="#666666" stroke="#666666" points="484.79,-390.5 494.79,-387 484.79,-383.5 484.79,-390.5"/>
</g>
<!-- basePhysicalJoin -->
<g id="node3" class="node">
<title>basePhysicalJoin</title>
<polygon fill="none" stroke="black" points="704,-237.5 704,-536.5 934,-536.5 934,-237.5 704,-237.5"/>
<text text-anchor="middle" x="819" y="-521.3" font-family="Times,serif" font-size="14.00">basePhysicalJoin</text>
<polyline fill="none" stroke="black" points="704,-513.5 934,-513.5 "/>
<text text-anchor="start" x="712" y="-498.3" font-family="Times,serif" font-size="14.00">physicalSchemaProducer</text>
<polyline fill="none" stroke="black" points="704,-490.5 934,-490.5 "/>
<text text-anchor="start" x="712" y="-475.3" font-family="Times,serif" font-size="14.00">JoinType JoinType</text>
<polyline fill="none" stroke="black" points="704,-467.5 934,-467.5 "/>
<text text-anchor="start" x="712" y="-452.3" font-family="Times,serif" font-size="14.00">LeftConditions expression.CNFExprs</text>
<polyline fill="none" stroke="black" points="704,-444.5 934,-444.5 "/>
<text text-anchor="start" x="712" y="-429.3" font-family="Times,serif" font-size="14.00">RightConditions expression.CNFExprs</text>
<polyline fill="none" stroke="black" points="704,-421.5 934,-421.5 "/>
<text text-anchor="start" x="712" y="-406.3" font-family="Times,serif" font-size="14.00">OtherConditions expression.CNFExprs</text>
<polyline fill="none" stroke="black" points="704,-398.5 934,-398.5 "/>
<text text-anchor="start" x="712" y="-383.3" font-family="Times,serif" font-size="14.00">InnerChildIdx int</text>
<polyline fill="none" stroke="black" points="704,-375.5 934,-375.5 "/>
<text text-anchor="start" x="712" y="-360.3" font-family="Times,serif" font-size="14.00">OuterJoinKeys []*expression.Column</text>
<polyline fill="none" stroke="black" points="704,-352.5 934,-352.5 "/>
<text text-anchor="start" x="712" y="-337.3" font-family="Times,serif" font-size="14.00">InnerJoinKeys []*expression.Column</text>
<polyline fill="none" stroke="black" points="704,-329.5 934,-329.5 "/>
<text text-anchor="start" x="712" y="-314.3" font-family="Times,serif" font-size="14.00">LeftJoinKeys []*expression.Column</text>
<polyline fill="none" stroke="black" points="704,-306.5 934,-306.5 "/>
<text text-anchor="start" x="712" y="-291.3" font-family="Times,serif" font-size="14.00">RightJoinKeys []*expression.Column</text>
<polyline fill="none" stroke="black" points="704,-283.5 934,-283.5 "/>
<text text-anchor="start" x="712" y="-268.3" font-family="Times,serif" font-size="14.00">IsNullEQ []bool</text>
<polyline fill="none" stroke="black" points="704,-260.5 934,-260.5 "/>
<text text-anchor="start" x="712" y="-245.3" font-family="Times,serif" font-size="14.00">DefaultValues []types.Datum</text>
</g>
<!-- physicalSchemaProducer&#45;&gt;basePhysicalJoin -->
<g id="edge3" class="edge">
<title>physicalSchemaProducer&#45;&gt;basePhysicalJoin</title>
<path fill="none" stroke="#666666" d="M668.19,-387C676.51,-387 685.05,-387 693.65,-387"/>
<polygon fill="#666666" stroke="#666666" points="693.75,-390.5 703.75,-387 693.75,-383.5 693.75,-390.5"/>
</g>
<!-- PhysicalBroadCastJoin -->
<g id="node4" class="node">
<title>PhysicalBroadCastJoin</title>
<polygon fill="none" stroke="black" points="973,-464 973,-586 1237,-586 1237,-464 973,-464"/>
<text text-anchor="middle" x="1105" y="-570.8" font-family="Times,serif" font-size="14.00">PhysicalBroadCastJoin</text>
<polyline fill="none" stroke="black" points="973,-563 1237,-563 "/>
<text text-anchor="start" x="981" y="-547.8" font-family="Times,serif" font-size="14.00">basePhysicalJoin</text>
<polyline fill="none" stroke="black" points="973,-540 1237,-540 "/>
<text text-anchor="start" x="981" y="-524.8" font-family="Times,serif" font-size="14.00">globalChildIndex int</text>
<polyline fill="none" stroke="black" points="973,-517 1237,-517 "/>
<text text-anchor="start" x="981" y="-501.8" font-family="Times,serif" font-size="14.00">// PhysicalBroadCastJoin only works for </text>
<text text-anchor="start" x="981" y="-486.8" font-family="Times,serif" font-size="14.00"> TiFlash Engine, which broadcast the small</text>
<text text-anchor="start" x="981" y="-471.8" font-family="Times,serif" font-size="14.00"> table to every replica of probe side of tables.</text>
</g>
<!-- basePhysicalJoin&#45;&gt;PhysicalBroadCastJoin -->
<g id="edge4" class="edge">
<title>basePhysicalJoin&#45;&gt;PhysicalBroadCastJoin</title>
<path fill="none" stroke="#666666" d="M934.29,-442.53C945.72,-448.09 957.4,-453.76 969.02,-459.41"/>
<polygon fill="#666666" stroke="#666666" points="967.79,-462.71 978.32,-463.93 970.85,-456.41 967.79,-462.71"/>
</g>
<!-- JoinType -->
<g id="node5" class="node">
<title>JoinType</title>
<polygon fill="none" stroke="black" points="1026,-605 1026,-789 1184,-789 1184,-605 1026,-605"/>
<text text-anchor="middle" x="1105" y="-773.8" font-family="Times,serif" font-size="14.00">type JoinType int</text>
<polyline fill="none" stroke="black" points="1026,-766 1184,-766 "/>
<text text-anchor="start" x="1034" y="-750.8" font-family="Times,serif" font-size="14.00">InnerJoin JoinType = iota</text>
<polyline fill="none" stroke="black" points="1026,-743 1184,-743 "/>
<text text-anchor="start" x="1034" y="-727.8" font-family="Times,serif" font-size="14.00">LeftOuterJoin</text>
<polyline fill="none" stroke="black" points="1026,-720 1184,-720 "/>
<text text-anchor="start" x="1034" y="-704.8" font-family="Times,serif" font-size="14.00">RightOuterJoin</text>
<polyline fill="none" stroke="black" points="1026,-697 1184,-697 "/>
<text text-anchor="start" x="1034" y="-681.8" font-family="Times,serif" font-size="14.00">SemiJoin</text>
<polyline fill="none" stroke="black" points="1026,-674 1184,-674 "/>
<text text-anchor="start" x="1034" y="-658.8" font-family="Times,serif" font-size="14.00">AntiSemiJoin</text>
<polyline fill="none" stroke="black" points="1026,-651 1184,-651 "/>
<text text-anchor="start" x="1034" y="-635.8" font-family="Times,serif" font-size="14.00">LeftOuterSemiJoin</text>
<polyline fill="none" stroke="black" points="1026,-628 1184,-628 "/>
<text text-anchor="start" x="1034" y="-612.8" font-family="Times,serif" font-size="14.00">AntiLeftOuterSemiJoin</text>
</g>
<!-- basePhysicalJoin&#45;&gt;JoinType -->
<g id="edge8" class="edge">
<title>basePhysicalJoin:JoinType&#45;&gt;JoinType</title>
<path fill="none" stroke="#666666" d="M934,-479C987.98,-479 939.05,-550.77 970,-595 982.79,-613.28 999.86,-629.73 1017.53,-643.81"/>
<polygon fill="#666666" stroke="#666666" points="1015.62,-646.76 1025.67,-650.11 1019.91,-641.22 1015.62,-646.76"/>
</g>
<!-- PhysicalHashJoin -->
<g id="node6" class="node">
<title>PhysicalHashJoin</title>
<polygon fill="none" stroke="black" points="970,-329.5 970,-444.5 1240,-444.5 1240,-329.5 970,-329.5"/>
<text text-anchor="middle" x="1105" y="-429.3" font-family="Times,serif" font-size="14.00">PhysicalHashJoin</text>
<polyline fill="none" stroke="black" points="970,-421.5 1240,-421.5 "/>
<text text-anchor="start" x="978" y="-406.3" font-family="Times,serif" font-size="14.00">basePhysicalJoin</text>
<polyline fill="none" stroke="black" points="970,-398.5 1240,-398.5 "/>
<text text-anchor="start" x="978" y="-383.3" font-family="Times,serif" font-size="14.00">Concurrency uint</text>
<polyline fill="none" stroke="black" points="970,-375.5 1240,-375.5 "/>
<text text-anchor="start" x="978" y="-360.3" font-family="Times,serif" font-size="14.00">EqualConditions []*expression.ScalarFunction</text>
<polyline fill="none" stroke="black" points="970,-352.5 1240,-352.5 "/>
<text text-anchor="start" x="978" y="-337.3" font-family="Times,serif" font-size="14.00">UseOuterToBuild bool</text>
</g>
<!-- basePhysicalJoin&#45;&gt;PhysicalHashJoin -->
<g id="edge5" class="edge">
<title>basePhysicalJoin&#45;&gt;PhysicalHashJoin</title>
<path fill="none" stroke="#666666" d="M934.29,-387C942.71,-387 951.26,-387 959.83,-387"/>
<polygon fill="#666666" stroke="#666666" points="959.88,-390.5 969.88,-387 959.88,-383.5 959.88,-390.5"/>
</g>
<!-- PhysicalMergeJoin -->
<g id="node7" class="node">
<title>PhysicalMergeJoin</title>
<polygon fill="none" stroke="black" points="979.5,-218 979.5,-310 1230.5,-310 1230.5,-218 979.5,-218"/>
<text text-anchor="middle" x="1105" y="-294.8" font-family="Times,serif" font-size="14.00">PhysicalMergeJoin</text>
<polyline fill="none" stroke="black" points="979.5,-287 1230.5,-287 "/>
<text text-anchor="start" x="987.5" y="-271.8" font-family="Times,serif" font-size="14.00">basePhysicalJoin</text>
<polyline fill="none" stroke="black" points="979.5,-264 1230.5,-264 "/>
<text text-anchor="start" x="987.5" y="-248.8" font-family="Times,serif" font-size="14.00">CompareFuncs []expression.CompareFunc</text>
<polyline fill="none" stroke="black" points="979.5,-241 1230.5,-241 "/>
<text text-anchor="start" x="987.5" y="-225.8" font-family="Times,serif" font-size="14.00">Desc bool</text>
</g>
<!-- basePhysicalJoin&#45;&gt;PhysicalMergeJoin -->
<g id="edge6" class="edge">
<title>basePhysicalJoin&#45;&gt;PhysicalMergeJoin</title>
<path fill="none" stroke="#666666" d="M934.12,-335.68C946.22,-330.34 958.35,-325.04 970,-320 974.47,-318.07 979.02,-316.11 983.62,-314.14"/>
<polygon fill="#666666" stroke="#666666" points="985.31,-317.23 993.13,-310.09 982.56,-310.79 985.31,-317.23"/>
</g>
<!-- PhysicalIndexJoin -->
<g id="node8" class="node">
<title>PhysicalIndexJoin</title>
<polygon fill="none" stroke="black" points="974.5,-15 974.5,-199 1235.5,-199 1235.5,-15 974.5,-15"/>
<text text-anchor="middle" x="1105" y="-183.8" font-family="Times,serif" font-size="14.00">PhysicalIndexJoin</text>
<polyline fill="none" stroke="black" points="974.5,-176 1235.5,-176 "/>
<text text-anchor="start" x="982.5" y="-160.8" font-family="Times,serif" font-size="14.00">basePhysicalJoin</text>
<polyline fill="none" stroke="black" points="974.5,-153 1235.5,-153 "/>
<text text-anchor="start" x="982.5" y="-137.8" font-family="Times,serif" font-size="14.00">outerSchema *expression.Schema</text>
<polyline fill="none" stroke="black" points="974.5,-130 1235.5,-130 "/>
<text text-anchor="start" x="982.5" y="-114.8" font-family="Times,serif" font-size="14.00">innerTask task</text>
<polyline fill="none" stroke="black" points="974.5,-107 1235.5,-107 "/>
<text text-anchor="start" x="982.5" y="-91.8" font-family="Times,serif" font-size="14.00">Ranges []*ranger.Range</text>
<polyline fill="none" stroke="black" points="974.5,-84 1235.5,-84 "/>
<text text-anchor="start" x="982.5" y="-68.8" font-family="Times,serif" font-size="14.00">KeyOff2IdxOff []int</text>
<polyline fill="none" stroke="black" points="974.5,-61 1235.5,-61 "/>
<text text-anchor="start" x="982.5" y="-45.8" font-family="Times,serif" font-size="14.00">IdxColLens []int</text>
<polyline fill="none" stroke="black" points="974.5,-38 1235.5,-38 "/>
<text text-anchor="start" x="982.5" y="-22.8" font-family="Times,serif" font-size="14.00">CompareFilters *ColWithCmpFuncManager</text>
</g>
<!-- basePhysicalJoin&#45;&gt;PhysicalIndexJoin -->
<g id="edge7" class="edge">
<title>basePhysicalJoin&#45;&gt;PhysicalIndexJoin</title>
<path fill="none" stroke="#666666" d="M934.18,-244.53C945.91,-231.82 957.95,-219.45 970,-208 970.67,-207.36 971.34,-206.73 972.02,-206.09"/>
<polygon fill="#666666" stroke="#666666" points="974.42,-208.64 979.42,-199.3 969.69,-203.49 974.42,-208.64"/>
</g>
<!-- PhysicalApply -->
<g id="node12" class="node">
<title>PhysicalApply</title>
<polygon fill="none" stroke="black" points="1280,-329.5 1280,-444.5 1553,-444.5 1553,-329.5 1280,-329.5"/>
<text text-anchor="middle" x="1416.5" y="-429.3" font-family="Times,serif" font-size="14.00">PhysicalApply</text>
<polyline fill="none" stroke="black" points="1280,-421.5 1553,-421.5 "/>
<text text-anchor="start" x="1288" y="-406.3" font-family="Times,serif" font-size="14.00">PhysicalHashJoin</text>
<polyline fill="none" stroke="black" points="1280,-398.5 1553,-398.5 "/>
<text text-anchor="start" x="1288" y="-383.3" font-family="Times,serif" font-size="14.00">CanUseCache bool</text>
<polyline fill="none" stroke="black" points="1280,-375.5 1553,-375.5 "/>
<text text-anchor="start" x="1288" y="-360.3" font-family="Times,serif" font-size="14.00">Concurrency int</text>
<polyline fill="none" stroke="black" points="1280,-352.5 1553,-352.5 "/>
<text text-anchor="start" x="1288" y="-337.3" font-family="Times,serif" font-size="14.00">OuterSchema []*expression.CorrelatedColumn</text>
</g>
<!-- PhysicalHashJoin&#45;&gt;PhysicalApply -->
<g id="edge11" class="edge">
<title>PhysicalHashJoin&#45;&gt;PhysicalApply</title>
<path fill="none" stroke="#666666" d="M1240.4,-387C1250.09,-387 1259.88,-387 1269.63,-387"/>
<polygon fill="#666666" stroke="#666666" points="1269.76,-390.5 1279.76,-387 1269.76,-383.5 1269.76,-390.5"/>
</g>
<!-- PhysicalIndexMergeJoin -->
<g id="node9" class="node">
<title>PhysicalIndexMergeJoin</title>
<polygon fill="none" stroke="black" points="1276,-88.5 1276,-249.5 1557,-249.5 1557,-88.5 1276,-88.5"/>
<text text-anchor="middle" x="1416.5" y="-234.3" font-family="Times,serif" font-size="14.00">PhysicalIndexMergeJoin</text>
<polyline fill="none" stroke="black" points="1276,-226.5 1557,-226.5 "/>
<text text-anchor="start" x="1284" y="-211.3" font-family="Times,serif" font-size="14.00">PhysicalIndexJoin</text>
<polyline fill="none" stroke="black" points="1276,-203.5 1557,-203.5 "/>
<text text-anchor="start" x="1284" y="-188.3" font-family="Times,serif" font-size="14.00">KeyOff2KeyOffOrderByIdx []int</text>
<polyline fill="none" stroke="black" points="1276,-180.5 1557,-180.5 "/>
<text text-anchor="start" x="1284" y="-165.3" font-family="Times,serif" font-size="14.00">CompareFuncs []expression.CompareFunc</text>
<polyline fill="none" stroke="black" points="1276,-157.5 1557,-157.5 "/>
<text text-anchor="start" x="1284" y="-142.3" font-family="Times,serif" font-size="14.00">OuterCompareFuncs []expression.CompareFunc</text>
<polyline fill="none" stroke="black" points="1276,-134.5 1557,-134.5 "/>
<text text-anchor="start" x="1284" y="-119.3" font-family="Times,serif" font-size="14.00">NeedOuterSort bool</text>
<polyline fill="none" stroke="black" points="1276,-111.5 1557,-111.5 "/>
<text text-anchor="start" x="1284" y="-96.3" font-family="Times,serif" font-size="14.00">Desc bool</text>
</g>
<!-- PhysicalIndexJoin&#45;&gt;PhysicalIndexMergeJoin -->
<g id="edge9" class="edge">
<title>PhysicalIndexJoin&#45;&gt;PhysicalIndexMergeJoin</title>
<path fill="none" stroke="#666666" d="M1235.91,-133.02C1245.84,-135.01 1255.9,-137.03 1265.94,-139.04"/>
<polygon fill="#666666" stroke="#666666" points="1265.47,-142.51 1275.96,-141.05 1266.84,-135.65 1265.47,-142.51"/>
</g>
<!-- PhysicalIndexHashJoin -->
<g id="node10" class="node">
<title>PhysicalIndexHashJoin</title>
<polygon fill="none" stroke="black" points="1345,-0.5 1345,-69.5 1488,-69.5 1488,-0.5 1345,-0.5"/>
<text text-anchor="middle" x="1416.5" y="-54.3" font-family="Times,serif" font-size="14.00">PhysicalIndexHashJoin</text>
<polyline fill="none" stroke="black" points="1345,-46.5 1488,-46.5 "/>
<text text-anchor="start" x="1353" y="-31.3" font-family="Times,serif" font-size="14.00">PhysicalIndexJoin</text>
<polyline fill="none" stroke="black" points="1345,-23.5 1488,-23.5 "/>
<text text-anchor="middle" x="1416.5" y="-8.3" font-family="Times,serif" font-size="14.00">KeepOuterOrder bool</text>
</g>
<!-- PhysicalIndexJoin&#45;&gt;PhysicalIndexHashJoin -->
<g id="edge10" class="edge">
<title>PhysicalIndexJoin&#45;&gt;PhysicalIndexHashJoin</title>
<path fill="none" stroke="#666666" d="M1235.91,-76.78C1269.5,-68.96 1304.69,-60.78 1334.93,-53.74"/>
<polygon fill="#666666" stroke="#666666" points="1336.04,-57.08 1344.99,-51.4 1334.46,-50.26 1336.04,-57.08"/>
</g>
<!-- basePlan -->
<g id="node11" class="node">
<title>basePlan</title>
<polygon fill="none" stroke="black" points="0,-318 0,-456 149,-456 149,-318 0,-318"/>
<text text-anchor="middle" x="74.5" y="-440.8" font-family="Times,serif" font-size="14.00">basePlan</text>
<polyline fill="none" stroke="black" points="0,-433 149,-433 "/>
<text text-anchor="start" x="8" y="-417.8" font-family="Times,serif" font-size="14.00">tp string</text>
<polyline fill="none" stroke="black" points="0,-410 149,-410 "/>
<text text-anchor="start" x="8" y="-394.8" font-family="Times,serif" font-size="14.00">id int</text>
<polyline fill="none" stroke="black" points="0,-387 149,-387 "/>
<text text-anchor="start" x="8" y="-371.8" font-family="Times,serif" font-size="14.00">ctx sessionctx.Context</text>
<polyline fill="none" stroke="black" points="0,-364 149,-364 "/>
<text text-anchor="start" x="8" y="-348.8" font-family="Times,serif" font-size="14.00">stats *property.StatsInfo</text>
<polyline fill="none" stroke="black" points="0,-341 149,-341 "/>
<text text-anchor="start" x="8" y="-325.8" font-family="Times,serif" font-size="14.00">blockOffset int</text>
</g>
<!-- basePlan&#45;&gt;basePhysicalPlan -->
<g id="edge1" class="edge">
<title>basePlan&#45;&gt;basePhysicalPlan</title>
<path fill="none" stroke="#666666" d="M149.16,-387C157.28,-387 165.74,-387 174.37,-387"/>
<polygon fill="#666666" stroke="#666666" points="174.56,-390.5 184.56,-387 174.56,-383.5 174.56,-390.5"/>
</g>
</g>
</svg>
