<?xml version="1.0" encoding="UTF-8" standalone="no"?>
<!DOCTYPE svg PUBLIC "-//W3C//DTD SVG 1.1//EN"
 "http://www.w3.org/Graphics/SVG/1.1/DTD/svg11.dtd">
<!-- Generated by graphviz version 2.44.1 (20200629.0846)
 -->
<!-- Title: SendReqCtx Pages: 1 -->
<svg width="1206pt" height="798pt"
 viewBox="0.00 0.00 1206.00 798.00" xmlns="http://www.w3.org/2000/svg" xmlns:xlink="http://www.w3.org/1999/xlink">
<g id="graph0" class="graph" transform="scale(1 1) rotate(0) translate(4 794)">
<title>SendReqCtx</title>
<polygon fill="white" stroke="transparent" points="-4,4 -4,-794 1202,-794 1202,4 -4,4"/>
<!-- RpcContext -->
<g id="node1" class="node">
<title>RpcContext</title>
<path fill="#79d8ce" stroke="#60b5ac" d="M501.5,-443C501.5,-443 638.5,-443 638.5,-443 644.5,-443 650.5,-449 650.5,-455 650.5,-455 650.5,-615 650.5,-615 650.5,-621 644.5,-627 638.5,-627 638.5,-627 501.5,-627 501.5,-627 495.5,-627 489.5,-621 489.5,-615 489.5,-615 489.5,-455 489.5,-455 489.5,-449 495.5,-443 501.5,-443"/>
<text text-anchor="middle" x="570" y="-611.8" font-family="Times,serif" font-size="14.00" fill="#5d6179">RpcContext</text>
<polyline fill="none" stroke="#60b5ac" points="489.5,-604 650.5,-604 "/>
<text text-anchor="start" x="497.5" y="-588.8" font-family="Times,serif" font-size="14.00" fill="#5d6179">Region RegionVerID</text>
<polyline fill="none" stroke="#60b5ac" points="489.5,-581 650.5,-581 "/>
<text text-anchor="start" x="497.5" y="-565.8" font-family="Times,serif" font-size="14.00" fill="#5d6179">Meta *metapb.Region</text>
<polyline fill="none" stroke="#60b5ac" points="489.5,-558 650.5,-558 "/>
<text text-anchor="start" x="497.5" y="-542.8" font-family="Times,serif" font-size="14.00" fill="#5d6179">Peer *metapb.Peer</text>
<polyline fill="none" stroke="#60b5ac" points="489.5,-535 650.5,-535 "/>
<text text-anchor="start" x="497.5" y="-519.8" font-family="Times,serif" font-size="14.00" fill="#5d6179">AccessIdx AccessIndex</text>
<polyline fill="none" stroke="#60b5ac" points="489.5,-512 650.5,-512 "/>
<text text-anchor="start" x="497.5" y="-496.8" font-family="Times,serif" font-size="14.00" fill="#5d6179">Store *Store</text>
<polyline fill="none" stroke="#60b5ac" points="489.5,-489 650.5,-489 "/>
<text text-anchor="start" x="497.5" y="-473.8" font-family="Times,serif" font-size="14.00" fill="#5d6179">Addr string</text>
<polyline fill="none" stroke="#60b5ac" points="489.5,-466 650.5,-466 "/>
<text text-anchor="start" x="497.5" y="-450.8" font-family="Times,serif" font-size="14.00" fill="#5d6179">AccessMode AccessMode</text>
</g>
<!-- sendReqToRegion -->
<g id="node4" class="node">
<title>sendReqToRegion</title>
<path fill="none" stroke="#1c2123" d="M851,-708C851,-708 758,-708 758,-708 752,-708 746,-702 746,-696 746,-696 746,-684 746,-684 746,-678 752,-672 758,-672 758,-672 851,-672 851,-672 857,-672 863,-678 863,-684 863,-684 863,-696 863,-696 863,-702 857,-708 851,-708"/>
<text text-anchor="middle" x="804.5" y="-686.3" font-family="Times,serif" font-size="14.00" fill="#2f3638">sendReqToRegion</text>
</g>
<!-- RpcContext&#45;&gt;sendReqToRegion -->
<g id="edge29" class="edge">
<title>RpcContext&#45;&gt;sendReqToRegion</title>
<path fill="none" stroke="green" stroke-dasharray="5,2" d="M650.69,-588.13C690.58,-614.72 736.87,-645.58 767.95,-666.3"/>
<polygon fill="green" stroke="green" points="766.04,-669.23 776.3,-671.87 769.92,-663.41 766.04,-669.23"/>
</g>
<!-- SendReqCtx -->
<g id="node2" class="node">
<title>SendReqCtx</title>
<path fill="none" stroke="#1c2123" d="M73,-747C73,-747 12,-747 12,-747 6,-747 0,-741 0,-735 0,-735 0,-723 0,-723 0,-717 6,-711 12,-711 12,-711 73,-711 73,-711 79,-711 85,-717 85,-723 85,-723 85,-735 85,-735 85,-741 79,-747 73,-747"/>
<text text-anchor="middle" x="42.5" y="-725.3" font-family="Times,serif" font-size="14.00" fill="#2f3638">SendReqCtx</text>
</g>
<!-- getRPCContext -->
<g id="node3" class="node">
<title>getRPCContext</title>
<path fill="none" stroke="#1c2123" d="M210,-424C210,-424 133,-424 133,-424 127,-424 121,-418 121,-412 121,-412 121,-400 121,-400 121,-394 127,-388 133,-388 133,-388 210,-388 210,-388 216,-388 222,-394 222,-400 222,-400 222,-412 222,-412 222,-418 216,-424 210,-424"/>
<text text-anchor="middle" x="171.5" y="-402.3" font-family="Times,serif" font-size="14.00" fill="#2f3638">getRPCContext</text>
</g>
<!-- SendReqCtx&#45;&gt;getRPCContext -->
<g id="edge1" class="edge">
<title>SendReqCtx&#45;&gt;getRPCContext</title>
<path fill="none" stroke="#b83b5e" d="M50.69,-710.71C71.91,-656.74 134.34,-497.96 159.66,-433.58"/>
<polygon fill="#b83b5e" stroke="#b83b5e" points="162.98,-434.68 163.39,-424.09 156.47,-432.12 162.98,-434.68"/>
</g>
<!-- SendReqCtx&#45;&gt;sendReqToRegion -->
<g id="edge2" class="edge">
<title>SendReqCtx&#45;&gt;sendReqToRegion</title>
<path fill="none" stroke="#b83b5e" d="M85.17,-726.86C209.98,-720.46 581.65,-701.38 735.58,-693.49"/>
<polygon fill="#b83b5e" stroke="#b83b5e" points="736.03,-696.97 745.83,-692.96 735.67,-689.98 736.03,-696.97"/>
</g>
<!-- onRegionError -->
<g id="node5" class="node">
<title>onRegionError</title>
<path fill="none" stroke="#1c2123" d="M1186,-785C1186,-785 1112,-785 1112,-785 1106,-785 1100,-779 1100,-773 1100,-773 1100,-761 1100,-761 1100,-755 1106,-749 1112,-749 1112,-749 1186,-749 1186,-749 1192,-749 1198,-755 1198,-761 1198,-761 1198,-773 1198,-773 1198,-779 1192,-785 1186,-785"/>
<text text-anchor="middle" x="1149" y="-763.3" font-family="Times,serif" font-size="14.00" fill="#2f3638">onRegionError</text>
</g>
<!-- SendReqCtx&#45;&gt;onRegionError -->
<g id="edge3" class="edge">
<title>SendReqCtx&#45;&gt;onRegionError</title>
<path fill="none" stroke="#b83b5e" d="M85.38,-744.39C96.82,-748.23 109.3,-752.08 121,-755 212.37,-777.83 235.82,-790 330,-790 330,-790 330,-790 805.5,-790 905.55,-790 1021.67,-780.11 1089.76,-773.3"/>
<polygon fill="#b83b5e" stroke="#b83b5e" points="1090.26,-776.77 1099.86,-772.28 1089.55,-769.8 1090.26,-776.77"/>
</g>
<!-- GetRegionError -->
<g id="node6" class="node">
<title>GetRegionError</title>
<path fill="none" stroke="#1c2123" d="M1026.5,-762C1026.5,-762 946.5,-762 946.5,-762 940.5,-762 934.5,-756 934.5,-750 934.5,-750 934.5,-738 934.5,-738 934.5,-732 940.5,-726 946.5,-726 946.5,-726 1026.5,-726 1026.5,-726 1032.5,-726 1038.5,-732 1038.5,-738 1038.5,-738 1038.5,-750 1038.5,-750 1038.5,-756 1032.5,-762 1026.5,-762"/>
<text text-anchor="middle" x="986.5" y="-740.3" font-family="Times,serif" font-size="14.00" fill="#2f3638">GetRegionError</text>
</g>
<!-- SendReqCtx&#45;&gt;GetRegionError -->
<g id="edge4" class="edge">
<title>SendReqCtx&#45;&gt;GetRegionError</title>
<path fill="none" stroke="#b83b5e" d="M85.2,-733.5C140.91,-739.12 242.76,-748 330,-748 330,-748 330,-748 571,-748 696.6,-748 843.61,-746.14 924.45,-744.96"/>
<polygon fill="#b83b5e" stroke="#b83b5e" points="924.5,-748.46 934.45,-744.81 924.4,-741.46 924.5,-748.46"/>
</g>
<!-- GetTiKVRPCContext -->
<g id="node7" class="node">
<title>GetTiKVRPCContext</title>
<path fill="none" stroke="#1c2123" d="M387,-299C387,-299 275,-299 275,-299 269,-299 263,-293 263,-287 263,-287 263,-275 263,-275 263,-269 269,-263 275,-263 275,-263 387,-263 387,-263 393,-263 399,-269 399,-275 399,-275 399,-287 399,-287 399,-293 393,-299 387,-299"/>
<text text-anchor="middle" x="331" y="-277.3" font-family="Times,serif" font-size="14.00" fill="#2f3638">GetTiKVRPCContext</text>
</g>
<!-- getRPCContext&#45;&gt;GetTiKVRPCContext -->
<g id="edge5" class="edge">
<title>getRPCContext&#45;&gt;GetTiKVRPCContext</title>
<path fill="none" stroke="#666666" d="M195.4,-387.82C222.7,-366.16 268.43,-329.86 298.91,-305.68"/>
<polygon fill="#666666" stroke="#666666" points="301.41,-308.16 307.07,-299.2 297.06,-302.67 301.41,-308.16"/>
</g>
<!-- GetTiFlashRPCContext -->
<g id="node8" class="node">
<title>GetTiFlashRPCContext</title>
<path fill="none" stroke="#1c2123" d="M392,-424C392,-424 270,-424 270,-424 264,-424 258,-418 258,-412 258,-412 258,-400 258,-400 258,-394 264,-388 270,-388 270,-388 392,-388 392,-388 398,-388 404,-394 404,-400 404,-400 404,-412 404,-412 404,-418 398,-424 392,-424"/>
<text text-anchor="middle" x="331" y="-402.3" font-family="Times,serif" font-size="14.00" fill="#2f3638">GetTiFlashRPCContext</text>
</g>
<!-- getRPCContext&#45;&gt;GetTiFlashRPCContext -->
<g id="edge6" class="edge">
<title>getRPCContext&#45;&gt;GetTiFlashRPCContext</title>
<path fill="none" stroke="#666666" d="M222.33,-406C230.43,-406 239,-406 247.63,-406"/>
<polygon fill="#666666" stroke="#666666" points="247.76,-409.5 257.76,-406 247.76,-402.5 247.76,-409.5"/>
</g>
<!-- sendReqToRegion&#45;&gt;GetRegionError -->
<g id="edge30" class="edge">
<title>sendReqToRegion&#45;&gt;GetRegionError</title>
<path fill="none" stroke="green" stroke-dasharray="5,2" d="M863.44,-707.38C882.96,-713.24 904.79,-719.79 924.54,-725.71"/>
<polygon fill="green" stroke="green" points="923.76,-729.13 934.34,-728.65 925.77,-722.43 923.76,-729.13"/>
</g>
<!-- SendRequest -->
<g id="node22" class="node">
<title>SendRequest</title>
<path fill="none" stroke="#1c2123" d="M921,-646.5C921,-646.5 1052,-646.5 1052,-646.5 1058,-646.5 1064,-652.5 1064,-658.5 1064,-658.5 1064,-695.5 1064,-695.5 1064,-701.5 1058,-707.5 1052,-707.5 1052,-707.5 921,-707.5 921,-707.5 915,-707.5 909,-701.5 909,-695.5 909,-695.5 909,-658.5 909,-658.5 909,-652.5 915,-646.5 921,-646.5"/>
<text text-anchor="middle" x="986.5" y="-692.3" font-family="Times,serif" font-size="14.00" fill="#2f3638">SendRequst</text>
<polyline fill="none" stroke="#1c2123" points="909,-684.5 1064,-684.5 "/>
<text text-anchor="start" x="917" y="-669.3" font-family="Times,serif" font-size="14.00" fill="#2f3638">向RpcContext.Addr地址</text>
<text text-anchor="start" x="917" y="-654.3" font-family="Times,serif" font-size="14.00" fill="#2f3638"> 发送GRPC请求</text>
</g>
<!-- sendReqToRegion&#45;&gt;SendRequest -->
<g id="edge32" class="edge">
<title>sendReqToRegion&#45;&gt;SendRequest</title>
<path fill="none" stroke="#666666" d="M863.44,-685.82C874.77,-685 886.86,-684.12 898.88,-683.26"/>
<polygon fill="#666666" stroke="#666666" points="899.22,-686.74 908.94,-682.53 898.72,-679.76 899.22,-686.74"/>
</g>
<!-- GetRegionError&#45;&gt;onRegionError -->
<g id="edge31" class="edge">
<title>GetRegionError&#45;&gt;onRegionError</title>
<path fill="none" stroke="green" stroke-dasharray="5,2" d="M1038.72,-751.34C1054.98,-753.67 1073.08,-756.26 1089.79,-758.66"/>
<polygon fill="green" stroke="green" points="1089.59,-762.17 1099.99,-760.12 1090.59,-755.24 1089.59,-762.17"/>
</g>
<!-- GetTiKVRPCContext&#45;&gt;RpcContext -->
<g id="edge7" class="edge">
<title>GetTiKVRPCContext&#45;&gt;RpcContext</title>
<path fill="none" stroke="#3f72af" d="M345.79,-299.24C360.47,-318.79 384.26,-350.81 404,-379 420.54,-402.63 420.45,-411.79 440,-433 452.41,-446.46 466.7,-459.58 481.14,-471.68"/>
<polygon fill="#3f72af" stroke="#3f72af" points="479.23,-474.64 489.17,-478.29 483.68,-469.23 479.23,-474.64"/>
</g>
<!-- getCachedRegionWithRLock -->
<g id="node9" class="node">
<title>getCachedRegionWithRLock</title>
<path fill="none" stroke="#1c2123" d="M494,-258C494,-258 646,-258 646,-258 652,-258 658,-264 658,-270 658,-270 658,-292 658,-292 658,-298 652,-304 646,-304 646,-304 494,-304 494,-304 488,-304 482,-298 482,-292 482,-292 482,-270 482,-270 482,-264 488,-258 494,-258"/>
<text text-anchor="middle" x="570" y="-288.8" font-family="Times,serif" font-size="14.00" fill="#2f3638">getCachedRegionWithRLock</text>
<polyline fill="none" stroke="#1c2123" points="482,-281 658,-281 "/>
<text text-anchor="middle" x="570" y="-265.8" font-family="Times,serif" font-size="14.00" fill="#2f3638">从cache中获取region</text>
</g>
<!-- GetTiKVRPCContext&#45;&gt;getCachedRegionWithRLock -->
<g id="edge8" class="edge">
<title>GetTiKVRPCContext&#45;&gt;getCachedRegionWithRLock</title>
<path fill="none" stroke="#3f72af" d="M399.28,-281C421.67,-281 447.09,-281 471.3,-281"/>
<polygon fill="#3f72af" stroke="#3f72af" points="471.6,-284.5 481.6,-281 471.6,-277.5 471.6,-284.5"/>
</g>
<!-- checkRegionCacheTTL -->
<g id="node10" class="node">
<title>checkRegionCacheTTL</title>
<path fill="none" stroke="#1c2123" d="M631,-424C631,-424 509,-424 509,-424 503,-424 497,-418 497,-412 497,-412 497,-400 497,-400 497,-394 503,-388 509,-388 509,-388 631,-388 631,-388 637,-388 643,-394 643,-400 643,-400 643,-412 643,-412 643,-418 637,-424 631,-424"/>
<text text-anchor="middle" x="570" y="-402.3" font-family="Times,serif" font-size="14.00" fill="#2f3638">checkRegionCacheTTL</text>
</g>
<!-- GetTiKVRPCContext&#45;&gt;checkRegionCacheTTL -->
<g id="edge9" class="edge">
<title>GetTiKVRPCContext&#45;&gt;checkRegionCacheTTL</title>
<path fill="none" stroke="#3f72af" d="M346.79,-299.1C365.92,-321.26 401.41,-358.26 440,-378 454.45,-385.39 470.77,-390.83 486.83,-394.84"/>
<polygon fill="#3f72af" stroke="#3f72af" points="486.24,-398.3 496.77,-397.16 487.83,-391.48 486.24,-398.3"/>
</g>
<!-- getStore -->
<g id="node11" class="node">
<title>getStore</title>
<path fill="none" stroke="#1c2123" d="M512,-323C512,-323 628,-323 628,-323 634,-323 640,-329 640,-335 640,-335 640,-357 640,-357 640,-363 634,-369 628,-369 628,-369 512,-369 512,-369 506,-369 500,-363 500,-357 500,-357 500,-335 500,-335 500,-329 506,-323 512,-323"/>
<text text-anchor="middle" x="570" y="-353.8" font-family="Times,serif" font-size="14.00" fill="#2f3638">getStore</text>
<polyline fill="none" stroke="#1c2123" points="500,-346 640,-346 "/>
<text text-anchor="middle" x="570" y="-330.8" font-family="Times,serif" font-size="14.00" fill="#2f3638">atomic load store指针</text>
</g>
<!-- GetTiKVRPCContext&#45;&gt;getStore -->
<g id="edge10" class="edge">
<title>GetTiKVRPCContext&#45;&gt;getStore</title>
<path fill="none" stroke="#3f72af" d="M391.3,-299.01C407.09,-303.68 424.17,-308.63 440,-313 456.06,-317.43 473.29,-321.98 489.77,-326.23"/>
<polygon fill="#3f72af" stroke="#3f72af" points="489.36,-329.74 499.92,-328.84 491.1,-322.96 489.36,-329.74"/>
</g>
<!-- FollowerStorePeer -->
<g id="node12" class="node">
<title>FollowerStorePeer</title>
<path fill="none" stroke="#1c2123" d="M617,-90C617,-90 523,-90 523,-90 517,-90 511,-84 511,-78 511,-78 511,-66 511,-66 511,-60 517,-54 523,-54 523,-54 617,-54 617,-54 623,-54 629,-60 629,-66 629,-66 629,-78 629,-78 629,-84 623,-90 617,-90"/>
<text text-anchor="middle" x="570" y="-68.3" font-family="Times,serif" font-size="14.00" fill="#2f3638">FollowerStorePeer</text>
</g>
<!-- GetTiKVRPCContext&#45;&gt;FollowerStorePeer -->
<g id="edge11" class="edge">
<title>GetTiKVRPCContext&#45;&gt;FollowerStorePeer</title>
<path fill="none" stroke="#3f72af" d="M337.27,-262.88C349.07,-225.75 381.27,-141 440,-99 457.67,-86.36 479.99,-79.38 501.06,-75.61"/>
<polygon fill="#3f72af" stroke="#3f72af" points="501.63,-79.06 510.96,-74.04 500.54,-72.15 501.63,-79.06"/>
</g>
<!-- AnyStorePeer -->
<g id="node13" class="node">
<title>AnyStorePeer</title>
<path fill="none" stroke="#1c2123" d="M604,-36C604,-36 536,-36 536,-36 530,-36 524,-30 524,-24 524,-24 524,-12 524,-12 524,-6 530,0 536,0 536,0 604,0 604,0 610,0 616,-6 616,-12 616,-12 616,-24 616,-24 616,-30 610,-36 604,-36"/>
<text text-anchor="middle" x="570" y="-14.3" font-family="Times,serif" font-size="14.00" fill="#2f3638">AnyStorePeer</text>
</g>
<!-- GetTiKVRPCContext&#45;&gt;AnyStorePeer -->
<g id="edge12" class="edge">
<title>GetTiKVRPCContext&#45;&gt;AnyStorePeer</title>
<path fill="none" stroke="#3f72af" d="M334.67,-262.84C342.24,-218.17 368.18,-102.37 440,-45 460.66,-28.5 488.96,-21.39 513.79,-18.56"/>
<polygon fill="#3f72af" stroke="#3f72af" points="514.2,-22.04 523.83,-17.62 513.54,-15.07 514.2,-22.04"/>
</g>
<!-- WorkStorePeer -->
<g id="node14" class="node">
<title>WorkStorePeer</title>
<path fill="none" stroke="#1c2123" d="M608,-144C608,-144 532,-144 532,-144 526,-144 520,-138 520,-132 520,-132 520,-120 520,-120 520,-114 526,-108 532,-108 532,-108 608,-108 608,-108 614,-108 620,-114 620,-120 620,-120 620,-132 620,-132 620,-138 614,-144 608,-144"/>
<text text-anchor="middle" x="570" y="-122.3" font-family="Times,serif" font-size="14.00" fill="#2f3638">WorkStorePeer</text>
</g>
<!-- GetTiKVRPCContext&#45;&gt;WorkStorePeer -->
<g id="edge13" class="edge">
<title>GetTiKVRPCContext&#45;&gt;WorkStorePeer</title>
<path fill="none" stroke="#3f72af" d="M341.92,-262.83C358.37,-234.55 394.06,-180.42 440,-153 460.97,-140.49 486.87,-133.71 509.95,-130.07"/>
<polygon fill="#3f72af" stroke="#3f72af" points="510.57,-133.52 519.98,-128.65 509.59,-126.59 510.57,-133.52"/>
</g>
<!-- getStoreAddr -->
<g id="node15" class="node">
<title>getStoreAddr</title>
<path fill="none" stroke="#1c2123" d="M452,-163C452,-163 688,-163 688,-163 694,-163 700,-169 700,-175 700,-175 700,-227 700,-227 700,-233 694,-239 688,-239 688,-239 452,-239 452,-239 446,-239 440,-233 440,-227 440,-227 440,-175 440,-175 440,-169 446,-163 452,-163"/>
<text text-anchor="middle" x="570" y="-223.8" font-family="Times,serif" font-size="14.00" fill="#2f3638">getStoreAddr</text>
<polyline fill="none" stroke="#1c2123" points="440,-216 700,-216 "/>
<text text-anchor="start" x="448" y="-200.8" font-family="Times,serif" font-size="14.00" fill="#2f3638">获取store状态，</text>
<text text-anchor="start" x="448" y="-185.8" font-family="Times,serif" font-size="14.00" fill="#2f3638"> 如果store被删掉了，change到activeStore</text>
<text text-anchor="start" x="448" y="-170.8" font-family="Times,serif" font-size="14.00" fill="#2f3638"> 如果store没解析调用initResolve</text>
</g>
<!-- GetTiKVRPCContext&#45;&gt;getStoreAddr -->
<g id="edge14" class="edge">
<title>GetTiKVRPCContext&#45;&gt;getStoreAddr</title>
<path fill="none" stroke="#3f72af" d="M385.48,-262.95C403.8,-256.76 425.11,-249.57 446.6,-242.32"/>
<polygon fill="#3f72af" stroke="#3f72af" points="447.79,-245.61 456.14,-239.1 445.55,-238.98 447.79,-245.61"/>
</g>
<!-- GetTiFlashRPCContext&#45;&gt;RpcContext -->
<g id="edge21" class="edge">
<title>GetTiFlashRPCContext&#45;&gt;RpcContext</title>
<path fill="none" stroke="#666666" d="M365.2,-424.07C394.99,-440.29 440.07,-464.82 480.27,-486.7"/>
<polygon fill="#666666" stroke="#666666" points="478.84,-489.91 489.3,-491.62 482.19,-483.76 478.84,-489.91"/>
</g>
<!-- GetTiFlashRPCContext&#45;&gt;getCachedRegionWithRLock -->
<g id="edge22" class="edge">
<title>GetTiFlashRPCContext&#45;&gt;getCachedRegionWithRLock</title>
<path fill="none" stroke="#666666" d="M348.07,-387.73C367.68,-366.58 402.85,-332.2 440,-313 450.07,-307.8 461.02,-303.41 472.15,-299.72"/>
<polygon fill="#666666" stroke="#666666" points="473.45,-302.98 481.95,-296.66 471.36,-296.3 473.45,-302.98"/>
</g>
<!-- GetTiFlashRPCContext&#45;&gt;checkRegionCacheTTL -->
<g id="edge23" class="edge">
<title>GetTiFlashRPCContext&#45;&gt;checkRegionCacheTTL</title>
<path fill="none" stroke="#666666" d="M404.07,-406C430.16,-406 459.81,-406 486.7,-406"/>
<polygon fill="#666666" stroke="#666666" points="486.86,-409.5 496.86,-406 486.86,-402.5 486.86,-409.5"/>
</g>
<!-- GetTiFlashRPCContext&#45;&gt;getStore -->
<g id="edge24" class="edge">
<title>GetTiFlashRPCContext&#45;&gt;getStore</title>
<path fill="none" stroke="#666666" d="M403.11,-388C430.55,-381.05 462.05,-373.08 490.18,-365.95"/>
<polygon fill="#666666" stroke="#666666" points="491.14,-369.32 499.98,-363.47 489.43,-362.53 491.14,-369.32"/>
</g>
<!-- workTiFlashIdx -->
<g id="node18" class="node">
<title>workTiFlashIdx</title>
<path fill="none" stroke="#1c2123" d="M610,-682C610,-682 530,-682 530,-682 524,-682 518,-676 518,-670 518,-670 518,-658 518,-658 518,-652 524,-646 530,-646 530,-646 610,-646 610,-646 616,-646 622,-652 622,-658 622,-658 622,-670 622,-670 622,-676 616,-682 610,-682"/>
<text text-anchor="middle" x="570" y="-660.3" font-family="Times,serif" font-size="14.00" fill="#2f3638">workTiFlashIdx</text>
</g>
<!-- GetTiFlashRPCContext&#45;&gt;workTiFlashIdx -->
<g id="edge25" class="edge">
<title>GetTiFlashRPCContext&#45;&gt;workTiFlashIdx</title>
<path fill="none" stroke="#666666" d="M334.96,-424.32C343.09,-468.27 369.96,-580.2 440,-636 459.05,-651.18 484.51,-658.58 507.78,-662.04"/>
<polygon fill="#666666" stroke="#666666" points="507.58,-665.55 517.94,-663.34 508.46,-658.6 507.58,-665.55"/>
</g>
<!-- Region -->
<g id="node17" class="node">
<title>Region</title>
<path fill="#79d8ce" stroke="#60b5ac" d="M748,-289.5C748,-289.5 861,-289.5 861,-289.5 867,-289.5 873,-295.5 873,-301.5 873,-301.5 873,-392.5 873,-392.5 873,-398.5 867,-404.5 861,-404.5 861,-404.5 748,-404.5 748,-404.5 742,-404.5 736,-398.5 736,-392.5 736,-392.5 736,-301.5 736,-301.5 736,-295.5 742,-289.5 748,-289.5"/>
<text text-anchor="middle" x="804.5" y="-389.3" font-family="Times,serif" font-size="14.00" fill="#5d6179">Region</text>
<polyline fill="none" stroke="#60b5ac" points="736,-381.5 873,-381.5 "/>
<text text-anchor="start" x="744" y="-366.3" font-family="Times,serif" font-size="14.00" fill="#5d6179">meta *metapb.Region</text>
<polyline fill="none" stroke="#60b5ac" points="736,-358.5 873,-358.5 "/>
<text text-anchor="start" x="744" y="-343.3" font-family="Times,serif" font-size="14.00" fill="#5d6179">store unsafe.Pointer</text>
<polyline fill="none" stroke="#60b5ac" points="736,-335.5 873,-335.5 "/>
<text text-anchor="start" x="744" y="-320.3" font-family="Times,serif" font-size="14.00" fill="#5d6179">syncFlag int32</text>
<polyline fill="none" stroke="#60b5ac" points="736,-312.5 873,-312.5 "/>
<text text-anchor="start" x="744" y="-297.3" font-family="Times,serif" font-size="14.00" fill="#5d6179">lastAccess int64</text>
</g>
<!-- getCachedRegionWithRLock&#45;&gt;Region -->
<g id="edge18" class="edge">
<title>getCachedRegionWithRLock&#45;&gt;Region</title>
<path fill="none" stroke="green" stroke-dasharray="5,2" d="M658.32,-301.73C672.31,-305.31 686.58,-309.14 700,-313 708.54,-315.46 717.44,-318.16 726.27,-320.93"/>
<polygon fill="green" stroke="green" points="725.21,-324.27 735.8,-323.96 727.33,-317.6 725.21,-324.27"/>
</g>
<!-- checkRegionCacheTTL&#45;&gt;Region -->
<g id="edge19" class="edge">
<title>checkRegionCacheTTL&#45;&gt;Region</title>
<path fill="none" stroke="green" stroke-dasharray="5,2" d="M643.22,-391.36C661.79,-387.31 681.69,-382.72 700,-378 708.45,-375.82 717.24,-373.41 725.97,-370.93"/>
<polygon fill="green" stroke="green" points="727.15,-374.23 735.79,-368.1 725.21,-367.5 727.15,-374.23"/>
</g>
<!-- getStore&#45;&gt;Region -->
<g id="edge20" class="edge">
<title>getStore&#45;&gt;Region:store</title>
<path fill="none" stroke="#666666" d="M640.04,-346.6C666.48,-346.79 697.19,-346.96 725.93,-346.99"/>
<polygon fill="#666666" stroke="#666666" points="726,-350.49 736,-347 726,-343.49 726,-350.49"/>
</g>
<!-- getKvStorePeer -->
<g id="node16" class="node">
<title>getKvStorePeer</title>
<path fill="none" stroke="#1c2123" d="M843.5,-90C843.5,-90 765.5,-90 765.5,-90 759.5,-90 753.5,-84 753.5,-78 753.5,-78 753.5,-66 753.5,-66 753.5,-60 759.5,-54 765.5,-54 765.5,-54 843.5,-54 843.5,-54 849.5,-54 855.5,-60 855.5,-66 855.5,-66 855.5,-78 855.5,-78 855.5,-84 849.5,-90 843.5,-90"/>
<text text-anchor="middle" x="804.5" y="-68.3" font-family="Times,serif" font-size="14.00" fill="#2f3638">getKvStorePeer</text>
</g>
<!-- FollowerStorePeer&#45;&gt;getKvStorePeer -->
<g id="edge15" class="edge">
<title>FollowerStorePeer&#45;&gt;getKvStorePeer</title>
<path fill="none" stroke="#666666" d="M629.07,-72C663.84,-72 707.96,-72 743.13,-72"/>
<polygon fill="#666666" stroke="#666666" points="743.26,-75.5 753.26,-72 743.26,-68.5 743.26,-75.5"/>
</g>
<!-- AnyStorePeer&#45;&gt;getKvStorePeer -->
<g id="edge16" class="edge">
<title>AnyStorePeer&#45;&gt;getKvStorePeer</title>
<path fill="none" stroke="#666666" d="M616.19,-26.9C641,-31.92 672.27,-38.48 700,-45 714.17,-48.33 729.37,-52.15 743.64,-55.85"/>
<polygon fill="#666666" stroke="#666666" points="742.79,-59.25 753.35,-58.39 744.56,-52.48 742.79,-59.25"/>
</g>
<!-- WorkStorePeer&#45;&gt;getKvStorePeer -->
<g id="edge17" class="edge">
<title>WorkStorePeer&#45;&gt;getKvStorePeer</title>
<path fill="none" stroke="#666666" d="M620.13,-116.3C644.25,-111.39 673.72,-105.18 700,-99 714.17,-95.67 729.37,-91.85 743.64,-88.15"/>
<polygon fill="#666666" stroke="#666666" points="744.56,-91.52 753.35,-85.61 742.79,-84.75 744.56,-91.52"/>
</g>
<!-- initResolve -->
<g id="node19" class="node">
<title>initResolve</title>
<path fill="none" stroke="#1c2123" d="M831.5,-271C831.5,-271 777.5,-271 777.5,-271 771.5,-271 765.5,-265 765.5,-259 765.5,-259 765.5,-247 765.5,-247 765.5,-241 771.5,-235 777.5,-235 777.5,-235 831.5,-235 831.5,-235 837.5,-235 843.5,-241 843.5,-247 843.5,-247 843.5,-259 843.5,-259 843.5,-265 837.5,-271 831.5,-271"/>
<text text-anchor="middle" x="804.5" y="-249.3" font-family="Times,serif" font-size="14.00" fill="#2f3638">initResolve</text>
</g>
<!-- getStoreAddr&#45;&gt;initResolve -->
<g id="edge26" class="edge">
<title>getStoreAddr&#45;&gt;initResolve</title>
<path fill="none" stroke="#666666" d="M700.17,-229.89C719.9,-234.3 739.13,-238.6 755.55,-242.28"/>
<polygon fill="#666666" stroke="#666666" points="754.87,-245.71 765.39,-244.48 756.39,-238.88 754.87,-245.71"/>
</g>
<!-- changeToActiveStore -->
<g id="node20" class="node">
<title>changeToActiveStore</title>
<path fill="none" stroke="#1c2123" d="M859.5,-217C859.5,-217 749.5,-217 749.5,-217 743.5,-217 737.5,-211 737.5,-205 737.5,-205 737.5,-193 737.5,-193 737.5,-187 743.5,-181 749.5,-181 749.5,-181 859.5,-181 859.5,-181 865.5,-181 871.5,-187 871.5,-193 871.5,-193 871.5,-205 871.5,-205 871.5,-211 865.5,-217 859.5,-217"/>
<text text-anchor="middle" x="804.5" y="-195.3" font-family="Times,serif" font-size="14.00" fill="#2f3638">changeToActiveStore</text>
</g>
<!-- getStoreAddr&#45;&gt;changeToActiveStore -->
<g id="edge27" class="edge">
<title>getStoreAddr&#45;&gt;changeToActiveStore</title>
<path fill="none" stroke="#666666" d="M700.17,-199.89C709.41,-199.81 718.54,-199.73 727.32,-199.66"/>
<polygon fill="#666666" stroke="#666666" points="727.49,-203.15 737.46,-199.57 727.43,-196.15 727.49,-203.15"/>
</g>
<!-- getResolveState -->
<g id="node21" class="node">
<title>getResolveState</title>
<path fill="none" stroke="#1c2123" d="M844.5,-163C844.5,-163 764.5,-163 764.5,-163 758.5,-163 752.5,-157 752.5,-151 752.5,-151 752.5,-139 752.5,-139 752.5,-133 758.5,-127 764.5,-127 764.5,-127 844.5,-127 844.5,-127 850.5,-127 856.5,-133 856.5,-139 856.5,-139 856.5,-151 856.5,-151 856.5,-157 850.5,-163 844.5,-163"/>
<text text-anchor="middle" x="804.5" y="-141.3" font-family="Times,serif" font-size="14.00" fill="#2f3638">getResolveState</text>
</g>
<!-- getStoreAddr&#45;&gt;getResolveState -->
<g id="edge28" class="edge">
<title>getStoreAddr&#45;&gt;getResolveState</title>
<path fill="none" stroke="#666666" d="M700.17,-169.89C714.91,-166.34 729.37,-162.85 742.59,-159.67"/>
<polygon fill="#666666" stroke="#666666" points="743.54,-163.04 752.44,-157.3 741.9,-156.24 743.54,-163.04"/>
</g>
</g>
</svg>
