<?xml version="1.0" encoding="UTF-8" standalone="no"?>
<!DOCTYPE svg PUBLIC "-//W3C//DTD SVG 1.1//EN"
 "http://www.w3.org/Graphics/SVG/1.1/DTD/svg11.dtd">
<!-- Generated by graphviz version 2.40.1 (20161225.0304)
 -->
<!-- Title: executor_nodelay_next Pages: 1 -->
<svg width="791pt" height="376pt"
 viewBox="0.00 0.00 791.00 376.00" xmlns="http://www.w3.org/2000/svg" xmlns:xlink="http://www.w3.org/1999/xlink">
<g id="graph0" class="graph" transform="scale(1 1) rotate(0) translate(4 372)">
<title>executor_nodelay_next</title>
<polygon fill="#ffffff" stroke="transparent" points="-4,4 -4,-372 787,-372 787,4 -4,4"/>
<g id="clust1" class="cluster">
<title>cluster_inert</title>
<polygon fill="none" stroke="#000000" points="632,-8 632,-360 776,-360 776,-8 632,-8"/>
<text text-anchor="middle" x="704" y="-340" font-family="Times,serif" font-size="20.00" fill="#000000">executor/xxx.go</text>
</g>
<g id="clust2" class="cluster">
<title>cluster_executor</title>
<polygon fill="none" stroke="#000000" points="429,-143 429,-225 612,-225 612,-143 429,-143"/>
<text text-anchor="middle" x="520.5" y="-205" font-family="Times,serif" font-size="20.00" fill="#000000">executor/executor.go</text>
</g>
<g id="clust4" class="cluster">
<title>cluster_executor_adapter</title>
<polygon fill="none" stroke="#000000" points="8,-81 8,-263 417,-263 417,-81 8,-81"/>
<text text-anchor="middle" x="212.5" y="-243" font-family="Times,serif" font-size="20.00" fill="#000000">executor/adapter.go</text>
</g>
<g id="clust5" class="cluster">
<title>cluster_ExecStmt</title>
<polygon fill="none" stroke="#000000" points="16,-89 16,-225 409,-225 409,-89 16,-89"/>
<text text-anchor="middle" x="212.5" y="-205" font-family="Times,serif" font-size="20.00" fill="#000000">ExecStmt</text>
</g>
<!-- InsertExec_Next -->
<g id="node1" class="node">
<title>InsertExec_Next</title>
<polygon fill="none" stroke="#000000" points="755.5,-322 651.5,-322 651.5,-286 755.5,-286 755.5,-322"/>
<text text-anchor="middle" x="703.5" y="-300.3" font-family="Times,serif" font-size="14.00" fill="#000000">InsertExec.Next</text>
</g>
<!-- DeleteExec_Next -->
<g id="node2" class="node">
<title>DeleteExec_Next</title>
<polygon fill="none" stroke="#000000" points="758,-268 649,-268 649,-232 758,-232 758,-268"/>
<text text-anchor="middle" x="703.5" y="-246.3" font-family="Times,serif" font-size="14.00" fill="#000000">DeleteExec.Next</text>
</g>
<!-- UpdateExec_Next -->
<g id="node3" class="node">
<title>UpdateExec_Next</title>
<polygon fill="none" stroke="#000000" points="760,-214 647,-214 647,-178 760,-178 760,-214"/>
<text text-anchor="middle" x="703.5" y="-192.3" font-family="Times,serif" font-size="14.00" fill="#000000">UpdateExec.Next</text>
</g>
<!-- ReplaceExec_Next -->
<g id="node4" class="node">
<title>ReplaceExec_Next</title>
<polygon fill="none" stroke="#000000" points="762,-160 645,-160 645,-124 762,-124 762,-160"/>
<text text-anchor="middle" x="703.5" y="-138.3" font-family="Times,serif" font-size="14.00" fill="#000000">ReplaceExec.Next</text>
</g>
<!-- LoadDataExec_Next -->
<g id="node5" class="node">
<title>LoadDataExec_Next</title>
<polygon fill="none" stroke="#000000" points="767,-106 640,-106 640,-70 767,-70 767,-106"/>
<text text-anchor="middle" x="703.5" y="-84.3" font-family="Times,serif" font-size="14.00" fill="#000000">LoadDataExec.Next</text>
</g>
<!-- DDLExec_Next -->
<g id="node6" class="node">
<title>DDLExec_Next</title>
<polygon fill="none" stroke="#000000" points="754,-52 653,-52 653,-16 754,-16 754,-52"/>
<text text-anchor="middle" x="703.5" y="-30.3" font-family="Times,serif" font-size="14.00" fill="#000000">DDLExec.Next</text>
</g>
<!-- Next -->
<g id="node7" class="node">
<title>Next</title>
<polygon fill="none" stroke="#000000" points="547,-187 493,-187 493,-151 547,-151 547,-187"/>
<text text-anchor="middle" x="520" y="-165.3" font-family="Times,serif" font-size="14.00" fill="#000000">Next</text>
</g>
<!-- Next&#45;&gt;InsertExec_Next -->
<g id="edge1" class="edge">
<title>Next&#45;&gt;InsertExec_Next</title>
<path fill="none" stroke="#000000" d="M534.545,-187.0033C554.3839,-210.5369 592.0538,-251.7246 632,-277 635.1571,-278.9976 638.4846,-280.8824 641.9069,-282.655"/>
<polygon fill="#000000" stroke="#000000" points="640.6056,-285.9127 651.1353,-287.0859 643.6354,-279.6024 640.6056,-285.9127"/>
</g>
<!-- Next&#45;&gt;DeleteExec_Next -->
<g id="edge2" class="edge">
<title>Next&#45;&gt;DeleteExec_Next</title>
<path fill="none" stroke="#000000" d="M547.3047,-182.9996C569.7927,-194.3264 602.6386,-210.4071 632,-223 636.089,-224.7537 640.3334,-226.5113 644.6225,-228.2415"/>
<polygon fill="#000000" stroke="#000000" points="643.4543,-231.5433 654.0404,-231.9737 646.0332,-225.0357 643.4543,-231.5433"/>
</g>
<!-- Next&#45;&gt;UpdateExec_Next -->
<g id="edge3" class="edge">
<title>Next&#45;&gt;UpdateExec_Next</title>
<path fill="none" stroke="#000000" d="M547.0761,-172.9839C570.6452,-176.4519 605.7995,-181.6245 636.815,-186.188"/>
<polygon fill="#000000" stroke="#000000" points="636.3166,-189.6523 646.7196,-187.6454 637.3357,-182.7269 636.3166,-189.6523"/>
</g>
<!-- Next&#45;&gt;ReplaceExec_Next -->
<g id="edge4" class="edge">
<title>Next&#45;&gt;ReplaceExec_Next</title>
<path fill="none" stroke="#000000" d="M547.0761,-165.0161C570.0954,-161.629 604.1655,-156.616 634.6377,-152.1323"/>
<polygon fill="#000000" stroke="#000000" points="635.4286,-155.5537 644.8126,-150.6352 634.4096,-148.6283 635.4286,-155.5537"/>
</g>
<!-- Next&#45;&gt;LoadDataExec_Next -->
<g id="edge5" class="edge">
<title>Next&#45;&gt;LoadDataExec_Next</title>
<path fill="none" stroke="#000000" d="M547.3047,-155.0004C569.7927,-143.6736 602.6386,-127.5929 632,-115 636.089,-113.2463 640.3334,-111.4887 644.6225,-109.7585"/>
<polygon fill="#000000" stroke="#000000" points="646.0332,-112.9643 654.0404,-106.0263 643.4543,-106.4567 646.0332,-112.9643"/>
</g>
<!-- Next&#45;&gt;DDLExec_Next -->
<g id="edge6" class="edge">
<title>Next&#45;&gt;DDLExec_Next</title>
<path fill="none" stroke="#000000" d="M534.545,-150.9967C554.3839,-127.4631 592.0538,-86.2754 632,-61 635.5951,-58.7253 639.4112,-56.5968 643.3366,-54.6136"/>
<polygon fill="#000000" stroke="#000000" points="645.074,-57.6647 652.6415,-50.2495 642.1016,-51.3271 645.074,-57.6647"/>
</g>
<!-- Exec -->
<g id="node8" class="node">
<title>Exec</title>
<polygon fill="none" stroke="#000000" points="78,-160 24,-160 24,-124 78,-124 78,-160"/>
<text text-anchor="middle" x="51" y="-138.3" font-family="Times,serif" font-size="14.00" fill="#000000">Exec</text>
</g>
<!-- buildExecutor -->
<g id="node9" class="node">
<title>buildExecutor</title>
<polygon fill="none" stroke="#000000" points="211,-133 118,-133 118,-97 211,-97 211,-133"/>
<text text-anchor="middle" x="164.5" y="-111.3" font-family="Times,serif" font-size="14.00" fill="#000000">buildExecutor</text>
</g>
<!-- Exec&#45;&gt;buildExecutor -->
<g id="edge7" class="edge">
<title>Exec&#45;&gt;buildExecutor</title>
<path fill="none" stroke="#000000" d="M78.1861,-135.5328C87.1319,-133.4048 97.4375,-130.9532 107.7434,-128.5016"/>
<polygon fill="#000000" stroke="#000000" points="108.6615,-131.8809 117.58,-126.1616 107.0414,-125.071 108.6615,-131.8809"/>
</g>
<!-- handleNoDelay -->
<g id="node10" class="node">
<title>handleNoDelay</title>
<polygon fill="none" stroke="#000000" points="215,-187 114,-187 114,-151 215,-151 215,-187"/>
<text text-anchor="middle" x="164.5" y="-165.3" font-family="Times,serif" font-size="14.00" fill="#000000">handleNoDelay</text>
</g>
<!-- Exec&#45;&gt;handleNoDelay -->
<g id="edge8" class="edge">
<title>Exec&#45;&gt;handleNoDelay</title>
<path fill="none" stroke="#000000" d="M78.1861,-148.4672C86.0846,-150.3461 95.0432,-152.4772 104.1261,-154.6379"/>
<polygon fill="#000000" stroke="#000000" points="103.448,-158.0742 113.9865,-156.9836 105.068,-151.2642 103.448,-158.0742"/>
</g>
<!-- handleNoDelayExecutor -->
<g id="node11" class="node">
<title>handleNoDelayExecutor</title>
<polygon fill="none" stroke="#000000" points="401,-187 251,-187 251,-151 401,-151 401,-187"/>
<text text-anchor="middle" x="326" y="-165.3" font-family="Times,serif" font-size="14.00" fill="#000000">handleNoDelayExecutor</text>
</g>
<!-- handleNoDelay&#45;&gt;handleNoDelayExecutor -->
<g id="edge9" class="edge">
<title>handleNoDelay&#45;&gt;handleNoDelayExecutor</title>
<path fill="none" stroke="#000000" d="M215.1565,-169C223.3345,-169 231.9931,-169 240.7225,-169"/>
<polygon fill="#000000" stroke="#000000" points="240.978,-172.5001 250.978,-169 240.9779,-165.5001 240.978,-172.5001"/>
</g>
<!-- handleNoDelayExecutor&#45;&gt;Next -->
<g id="edge10" class="edge">
<title>handleNoDelayExecutor&#45;&gt;Next</title>
<path fill="none" stroke="#000000" d="M401.0055,-169C428.9293,-169 459.4202,-169 482.5461,-169"/>
<polygon fill="#000000" stroke="#000000" points="482.6176,-172.5001 492.6176,-169 482.6176,-165.5001 482.6176,-172.5001"/>
</g>
</g>
</svg>
