<?xml version="1.0" encoding="UTF-8" standalone="no"?>
<!DOCTYPE svg PUBLIC "-//W3C//DTD SVG 1.1//EN"
 "http://www.w3.org/Graphics/SVG/1.1/DTD/svg11.dtd">
<!-- Generated by graphviz version 2.44.1 (20200629.0846)
 -->
<!-- Title: vecGroupChecker Pages: 1 -->
<svg width="1362pt" height="556pt"
 viewBox="0.00 0.00 1362.00 556.00" xmlns="http://www.w3.org/2000/svg" xmlns:xlink="http://www.w3.org/1999/xlink">
<g id="graph0" class="graph" transform="scale(1 1) rotate(0) translate(4 552)">
<title>vecGroupChecker</title>
<polygon fill="white" stroke="transparent" points="-4,4 -4,-552 1358,-552 1358,4 -4,4"/>
<!-- groupOffset -->
<g id="node1" class="node">
<title>groupOffset</title>
<polygon fill="#f6d887" stroke="black" points="883.5,-390 883.5,-436 992.5,-436 992.5,-390 883.5,-390"/>
<text text-anchor="middle" x="938" y="-420.8" font-family="Times,serif" font-size="14.00">groupOffset</text>
<polyline fill="none" stroke="black" points="883.5,-413 992.5,-413 "/>
<text text-anchor="start" x="891.5" y="-397.8" font-family="Times,serif" font-size="14.00">groupOffset []int</text>
</g>
<!-- groupCount -->
<g id="node9" class="node">
<title>groupCount</title>
<polygon fill="none" stroke="black" points="1198,-418 1117,-418 1117,-382 1198,-382 1198,-418"/>
<text text-anchor="middle" x="1157.5" y="-396.3" font-family="Times,serif" font-size="14.00">groupCount</text>
</g>
<!-- groupOffset&#45;&gt;groupCount -->
<g id="edge17" class="edge">
<title>groupOffset&#45;&gt;groupCount</title>
<path fill="none" stroke="blue" stroke-dasharray="5,2" d="M992.76,-409.79C1027.54,-407.71 1072.48,-405.02 1106.49,-402.99"/>
<polygon fill="blue" stroke="blue" points="1106.89,-406.47 1116.66,-402.38 1106.47,-399.48 1106.89,-406.47"/>
</g>
<!-- getNextGroup -->
<g id="node17" class="node">
<title>getNextGroup</title>
<polygon fill="none" stroke="black" points="1204.5,-476 1110.5,-476 1110.5,-440 1204.5,-440 1204.5,-476"/>
<text text-anchor="middle" x="1157.5" y="-454.3" font-family="Times,serif" font-size="14.00">getNextGroup</text>
</g>
<!-- groupOffset&#45;&gt;getNextGroup -->
<g id="edge22" class="edge">
<title>groupOffset&#45;&gt;getNextGroup</title>
<path fill="none" stroke="blue" stroke-dasharray="5,2" d="M992.76,-424.12C1025.48,-430.89 1067.21,-439.53 1100.36,-446.38"/>
<polygon fill="blue" stroke="blue" points="1099.85,-449.85 1110.35,-448.45 1101.26,-443 1099.85,-449.85"/>
</g>
<!-- sameGroup -->
<g id="node2" class="node">
<title>sameGroup</title>
<polygon fill="#f6d887" stroke="black" points="708,-410 708,-456 824,-456 824,-410 708,-410"/>
<text text-anchor="middle" x="766" y="-440.8" font-family="Times,serif" font-size="14.00">sameGroup</text>
<polyline fill="none" stroke="black" points="708,-433 824,-433 "/>
<text text-anchor="start" x="716" y="-417.8" font-family="Times,serif" font-size="14.00">sameGroup []bool</text>
</g>
<!-- sameGroup&#45;&gt;groupOffset -->
<g id="edge26" class="edge">
<title>sameGroup&#45;&gt;groupOffset</title>
<path fill="none" stroke="blue" stroke-dasharray="5,2" d="M824.08,-426.28C839.75,-424.44 856.84,-422.43 872.87,-420.54"/>
<polygon fill="blue" stroke="blue" points="873.71,-423.97 883.23,-419.33 872.89,-417.02 873.71,-423.97"/>
</g>
<!-- splitIntoGroups -->
<g id="node3" class="node">
<title>splitIntoGroups</title>
<polygon fill="none" stroke="black" points="101,-325 0,-325 0,-289 101,-289 101,-325"/>
<text text-anchor="middle" x="50.5" y="-303.3" font-family="Times,serif" font-size="14.00">splitIntoGroups</text>
</g>
<!-- splitIntoGroups&#45;&gt;groupOffset -->
<g id="edge1" class="edge">
<title>splitIntoGroups&#45;&gt;groupOffset</title>
<path fill="none" stroke="#b83b5e" d="M79.81,-325.07C91.55,-331.88 105.55,-339.14 119,-344 171.59,-363 186.58,-368 242.5,-368 242.5,-368 242.5,-368 767,-368 803.11,-368 842.13,-377.6 873.68,-387.94"/>
<polygon fill="#b83b5e" stroke="#b83b5e" points="872.62,-391.28 883.22,-391.16 874.86,-384.64 872.62,-391.28"/>
</g>
<!-- splitIntoGroups&#45;&gt;sameGroup -->
<g id="edge2" class="edge">
<title>splitIntoGroups&#45;&gt;sameGroup</title>
<path fill="none" stroke="#b83b5e" d="M58.22,-325.01C78.06,-374.7 141.36,-510 242.5,-510 242.5,-510 242.5,-510 601,-510 647.86,-510 695.73,-483.92 727.56,-462.11"/>
<polygon fill="#b83b5e" stroke="#b83b5e" points="729.93,-464.72 736.09,-456.1 725.9,-459 729.93,-464.72"/>
</g>
<!-- reset -->
<g id="node4" class="node">
<title>reset</title>
<polygon fill="none" stroke="black" points="270.5,-302 216.5,-302 216.5,-266 270.5,-266 270.5,-302"/>
<text text-anchor="middle" x="243.5" y="-280.3" font-family="Times,serif" font-size="14.00">reset</text>
</g>
<!-- splitIntoGroups&#45;&gt;reset -->
<g id="edge3" class="edge">
<title>splitIntoGroups&#45;&gt;reset</title>
<path fill="none" stroke="#b83b5e" d="M101.18,-301.02C134.11,-297.05 176.56,-291.94 206.3,-288.36"/>
<polygon fill="#b83b5e" stroke="#b83b5e" points="206.75,-291.83 216.26,-287.16 205.91,-284.88 206.75,-291.83"/>
</g>
<!-- nextGroupID -->
<g id="node5" class="node">
<title>nextGroupID</title>
<polygon fill="none" stroke="black" points="982.5,-518 893.5,-518 893.5,-482 982.5,-482 982.5,-518"/>
<text text-anchor="middle" x="938" y="-496.3" font-family="Times,serif" font-size="14.00">nextGroupID</text>
</g>
<!-- splitIntoGroups&#45;&gt;nextGroupID -->
<g id="edge4" class="edge">
<title>splitIntoGroups&#45;&gt;nextGroupID</title>
<path fill="none" stroke="#b83b5e" d="M55.3,-325.16C63.9,-362.14 88.08,-447.02 138,-498 174.02,-534.79 191.01,-548 242.5,-548 242.5,-548 242.5,-548 767,-548 808.73,-548 854.13,-534.44 887.5,-521.73"/>
<polygon fill="#b83b5e" stroke="#b83b5e" points="888.98,-524.91 897.02,-518.01 886.43,-518.39 888.98,-524.91"/>
</g>
<!-- getFirstAndLastRowDatum -->
<g id="node6" class="node">
<title>getFirstAndLastRowDatum</title>
<polygon fill="none" stroke="black" points="327,-146 160,-146 160,-110 327,-110 327,-146"/>
<text text-anchor="middle" x="243.5" y="-124.3" font-family="Times,serif" font-size="14.00">getFirstAndLastRowDatum</text>
</g>
<!-- splitIntoGroups&#45;&gt;getFirstAndLastRowDatum -->
<g id="edge5" class="edge">
<title>splitIntoGroups&#45;&gt;getFirstAndLastRowDatum</title>
<path fill="none" stroke="#b83b5e" d="M57.6,-288.71C67.06,-262.82 87.51,-215.37 119,-186 135.23,-170.87 156.11,-159.04 176.08,-150.13"/>
<polygon fill="#b83b5e" stroke="#b83b5e" points="177.65,-153.27 185.47,-146.12 174.9,-146.83 177.65,-153.27"/>
</g>
<!-- EncodeValue -->
<g id="node7" class="node">
<title>EncodeValue</title>
<polygon fill="none" stroke="black" points="644,-118 556,-118 556,-82 644,-82 644,-118"/>
<text text-anchor="middle" x="600" y="-96.3" font-family="Times,serif" font-size="14.00">EncodeValue</text>
</g>
<!-- splitIntoGroups&#45;&gt;EncodeValue -->
<g id="edge6" class="edge">
<title>splitIntoGroups&#45;&gt;EncodeValue</title>
<path fill="none" stroke="#b83b5e" d="M60.64,-288.93C71.61,-269.32 91.96,-238.82 119,-224 265.34,-143.79 337.11,-243.11 492,-181 523.5,-168.37 553.8,-143.89 574.06,-125.13"/>
<polygon fill="#b83b5e" stroke="#b83b5e" points="576.73,-127.42 581.58,-118 571.91,-122.34 576.73,-127.42"/>
</g>
<!-- evalGroupItemsAndResolveGroups -->
<g id="node8" class="node">
<title>evalGroupItemsAndResolveGroups</title>
<polygon fill="none" stroke="black" points="349,-432 138,-432 138,-396 349,-396 349,-432"/>
<text text-anchor="middle" x="243.5" y="-410.3" font-family="Times,serif" font-size="14.00">evalGroupItemsAndResolveGroups</text>
</g>
<!-- splitIntoGroups&#45;&gt;evalGroupItemsAndResolveGroups -->
<g id="edge7" class="edge">
<title>splitIntoGroups&#45;&gt;evalGroupItemsAndResolveGroups</title>
<path fill="none" stroke="#b83b5e" d="M63.2,-325.24C75.18,-342.43 95.34,-367.63 119,-382 125.25,-385.79 131.94,-389.14 138.85,-392.09"/>
<polygon fill="#b83b5e" stroke="#b83b5e" points="137.81,-395.45 148.39,-395.88 140.39,-388.94 137.81,-395.45"/>
</g>
<!-- splitIntoGroups&#45;&gt;groupCount -->
<g id="edge8" class="edge">
<title>splitIntoGroups&#45;&gt;groupCount</title>
<path fill="none" stroke="#b83b5e" d="M101.17,-316.29C139.61,-322.67 194.24,-330 242.5,-330 242.5,-330 242.5,-330 939,-330 1002.2,-330 1070.97,-357.11 1113.9,-377.59"/>
<polygon fill="#b83b5e" stroke="#b83b5e" points="1112.4,-380.75 1122.92,-381.97 1115.46,-374.45 1112.4,-380.75"/>
</g>
<!-- firstGroupKey -->
<g id="node10" class="node">
<title>firstGroupKey</title>
<polygon fill="none" stroke="black" points="813.5,-146 718.5,-146 718.5,-110 813.5,-110 813.5,-146"/>
<text text-anchor="middle" x="766" y="-124.3" font-family="Times,serif" font-size="14.00">firstGroupKey</text>
</g>
<!-- splitIntoGroups&#45;&gt;firstGroupKey -->
<g id="edge9" class="edge">
<title>splitIntoGroups&#45;&gt;firstGroupKey</title>
<path fill="none" stroke="#b83b5e" d="M77.22,-288.97C93.84,-278.14 116.34,-264.95 138,-257 182.31,-240.73 195.29,-238 242.5,-238 242.5,-238 242.5,-238 601,-238 661.05,-238 715.7,-186.51 744.23,-153.98"/>
<polygon fill="#b83b5e" stroke="#b83b5e" points="747.07,-156.04 750.91,-146.16 741.75,-151.49 747.07,-156.04"/>
</g>
<!-- lastGroupKey -->
<g id="node11" class="node">
<title>lastGroupKey</title>
<polygon fill="none" stroke="black" points="812,-92 720,-92 720,-56 812,-56 812,-92"/>
<text text-anchor="middle" x="766" y="-70.3" font-family="Times,serif" font-size="14.00">lastGroupKey</text>
</g>
<!-- splitIntoGroups&#45;&gt;lastGroupKey -->
<g id="edge10" class="edge">
<title>splitIntoGroups&#45;&gt;lastGroupKey</title>
<path fill="none" stroke="#b83b5e" d="M53.83,-288.72C63.37,-222.62 105.66,0 242.5,0 242.5,0 242.5,0 601,0 650.54,0 701.64,-28.4 733.35,-50.01"/>
<polygon fill="#b83b5e" stroke="#b83b5e" points="731.57,-53.03 741.77,-55.9 735.58,-47.3 731.57,-53.03"/>
</g>
<!-- nextGroupID&#45;&gt;getNextGroup -->
<g id="edge23" class="edge">
<title>nextGroupID&#45;&gt;getNextGroup</title>
<path fill="none" stroke="blue" stroke-dasharray="5,2" d="M982.75,-491.55C1016.54,-485.03 1063.56,-475.95 1100.16,-468.88"/>
<polygon fill="blue" stroke="blue" points="1101.03,-472.28 1110.19,-466.94 1099.71,-465.4 1101.03,-472.28"/>
</g>
<!-- isExhausted -->
<g id="node18" class="node">
<title>isExhausted</title>
<polygon fill="none" stroke="black" points="1354,-474 1272,-474 1272,-438 1354,-438 1354,-474"/>
<text text-anchor="middle" x="1313" y="-452.3" font-family="Times,serif" font-size="14.00">isExhausted</text>
</g>
<!-- nextGroupID&#45;&gt;isExhausted -->
<g id="edge24" class="edge">
<title>nextGroupID&#45;&gt;isExhausted</title>
<path fill="none" stroke="blue" stroke-dasharray="5,2" d="M982.67,-501.96C1040.89,-503.63 1146.85,-503.37 1235,-485 1244.04,-483.12 1253.42,-480.34 1262.39,-477.23"/>
<polygon fill="blue" stroke="blue" points="1263.74,-480.47 1271.94,-473.76 1261.35,-473.89 1263.74,-480.47"/>
</g>
<!-- EvalInt -->
<g id="node12" class="node">
<title>EvalInt</title>
<polygon fill="none" stroke="black" points="467,-172 411,-172 411,-136 467,-136 467,-172"/>
<text text-anchor="middle" x="439" y="-150.3" font-family="Times,serif" font-size="14.00">EvalInt</text>
</g>
<!-- getFirstAndLastRowDatum&#45;&gt;EvalInt -->
<g id="edge11" class="edge">
<title>getFirstAndLastRowDatum&#45;&gt;EvalInt</title>
<path fill="none" stroke="#666666" d="M327.12,-139.1C352.78,-142.55 379.8,-146.18 400.74,-148.99"/>
<polygon fill="#666666" stroke="#666666" points="400.41,-152.48 410.79,-150.34 401.35,-145.54 400.41,-152.48"/>
</g>
<!-- firstRowDatums -->
<g id="node13" class="node">
<title>firstRowDatums</title>
<polygon fill="none" stroke="black" points="492,-118 386,-118 386,-82 492,-82 492,-118"/>
<text text-anchor="middle" x="439" y="-96.3" font-family="Times,serif" font-size="14.00">firstRowDatums</text>
</g>
<!-- getFirstAndLastRowDatum&#45;&gt;firstRowDatums -->
<g id="edge12" class="edge">
<title>getFirstAndLastRowDatum&#45;&gt;firstRowDatums</title>
<path fill="none" stroke="#666666" d="M327.12,-116.04C343.47,-113.68 360.37,-111.23 375.89,-108.99"/>
<polygon fill="#666666" stroke="#666666" points="376.48,-112.44 385.88,-107.54 375.48,-105.51 376.48,-112.44"/>
</g>
<!-- lastRowDatums -->
<g id="node14" class="node">
<title>lastRowDatums</title>
<polygon fill="none" stroke="black" points="491,-64 387,-64 387,-28 491,-28 491,-64"/>
<text text-anchor="middle" x="439" y="-42.3" font-family="Times,serif" font-size="14.00">lastRowDatums</text>
</g>
<!-- getFirstAndLastRowDatum&#45;&gt;lastRowDatums -->
<g id="edge13" class="edge">
<title>getFirstAndLastRowDatum&#45;&gt;lastRowDatums</title>
<path fill="none" stroke="#666666" d="M287.44,-109.8C316.6,-97.44 355.33,-81.03 386.2,-67.95"/>
<polygon fill="#666666" stroke="#666666" points="387.67,-71.13 395.51,-64.01 384.94,-64.69 387.67,-71.13"/>
</g>
<!-- EncodeValue&#45;&gt;firstGroupKey -->
<g id="edge20" class="edge">
<title>EncodeValue&#45;&gt;firstGroupKey</title>
<path fill="none" stroke="blue" stroke-dasharray="5,2" d="M644.09,-107.36C663.74,-110.71 687.28,-114.73 708.35,-118.33"/>
<polygon fill="blue" stroke="blue" points="708.01,-121.82 718.46,-120.05 709.19,-114.92 708.01,-121.82"/>
</g>
<!-- EncodeValue&#45;&gt;lastGroupKey -->
<g id="edge21" class="edge">
<title>EncodeValue&#45;&gt;lastGroupKey</title>
<path fill="none" stroke="blue" stroke-dasharray="5,2" d="M644.09,-93.17C664.24,-89.97 688.48,-86.13 709.95,-82.73"/>
<polygon fill="blue" stroke="blue" points="710.58,-86.17 719.91,-81.15 709.48,-79.26 710.58,-86.17"/>
</g>
<!-- evalGroupItemsAndResolveGroups&#45;&gt;sameGroup -->
<g id="edge14" class="edge">
<title>evalGroupItemsAndResolveGroups&#45;&gt;sameGroup</title>
<path fill="none" stroke="#666666" d="M349.28,-415.6C435.65,-417.24 561.33,-420.38 671,-426 679.67,-426.44 688.78,-427.01 697.78,-427.62"/>
<polygon fill="#666666" stroke="#666666" points="697.64,-431.11 707.86,-428.32 698.13,-424.13 697.64,-431.11"/>
</g>
<!-- EvalExpr -->
<g id="node15" class="node">
<title>EvalExpr</title>
<polygon fill="none" stroke="black" points="473,-472 405,-472 405,-436 473,-436 473,-472"/>
<text text-anchor="middle" x="439" y="-450.3" font-family="Times,serif" font-size="14.00">EvalExpr</text>
</g>
<!-- evalGroupItemsAndResolveGroups&#45;&gt;EvalExpr -->
<g id="edge15" class="edge">
<title>evalGroupItemsAndResolveGroups&#45;&gt;EvalExpr</title>
<path fill="none" stroke="#666666" d="M331.63,-432.01C353.46,-436.52 375.96,-441.18 394.61,-445.03"/>
<polygon fill="#666666" stroke="#666666" points="394.04,-448.49 404.55,-447.08 395.46,-441.63 394.04,-448.49"/>
</g>
<!-- groupCount&#45;&gt;isExhausted -->
<g id="edge25" class="edge">
<title>groupCount&#45;&gt;isExhausted</title>
<path fill="none" stroke="blue" stroke-dasharray="5,2" d="M1198.03,-414.42C1217.58,-421.56 1241.39,-430.24 1262.18,-437.83"/>
<polygon fill="blue" stroke="blue" points="1261.21,-441.2 1271.8,-441.34 1263.61,-434.62 1261.21,-441.2"/>
</g>
<!-- isFirstGroupSameAsPrev -->
<g id="node20" class="node">
<title>isFirstGroupSameAsPrev</title>
<polygon fill="none" stroke="black" points="1235,-125 1080,-125 1080,-89 1235,-89 1235,-125"/>
<text text-anchor="middle" x="1157.5" y="-103.3" font-family="Times,serif" font-size="14.00">isFirstGroupSameAsPrev</text>
</g>
<!-- firstGroupKey&#45;&gt;isFirstGroupSameAsPrev -->
<g id="edge27" class="edge">
<title>firstGroupKey&#45;&gt;isFirstGroupSameAsPrev</title>
<path fill="none" stroke="blue" stroke-dasharray="5,2" d="M813.6,-125.49C876.6,-122.09 990.14,-115.97 1069.24,-111.7"/>
<polygon fill="blue" stroke="blue" points="1069.88,-115.18 1079.68,-111.14 1069.51,-108.19 1069.88,-115.18"/>
</g>
<!-- lastGroupKeyOfPrevChk -->
<g id="node19" class="node">
<title>lastGroupKeyOfPrevChk</title>
<polygon fill="none" stroke="black" points="1015,-95 861,-95 861,-59 1015,-59 1015,-95"/>
<text text-anchor="middle" x="938" y="-73.3" font-family="Times,serif" font-size="14.00">lastGroupKeyOfPrevChk</text>
</g>
<!-- lastGroupKey&#45;&gt;lastGroupKeyOfPrevChk -->
<g id="edge29" class="edge">
<title>lastGroupKey&#45;&gt;lastGroupKeyOfPrevChk</title>
<path fill="none" stroke="blue" stroke-dasharray="5,2" d="M812.11,-74.8C824.03,-75.01 837.29,-75.24 850.6,-75.48"/>
<polygon fill="blue" stroke="blue" points="850.71,-78.98 860.77,-75.65 850.84,-71.98 850.71,-78.98"/>
</g>
<!-- firstRowDatums&#45;&gt;EncodeValue -->
<g id="edge18" class="edge">
<title>firstRowDatums&#45;&gt;EncodeValue</title>
<path fill="none" stroke="blue" stroke-dasharray="5,2" d="M492.06,-100C509.16,-100 528.19,-100 545.41,-100"/>
<polygon fill="blue" stroke="blue" points="545.85,-103.5 555.85,-100 545.85,-96.5 545.85,-103.5"/>
</g>
<!-- lastRowDatums&#45;&gt;EncodeValue -->
<g id="edge19" class="edge">
<title>lastRowDatums&#45;&gt;EncodeValue</title>
<path fill="none" stroke="blue" stroke-dasharray="5,2" d="M491.18,-63.38C508.8,-69.37 528.55,-76.07 546.29,-82.1"/>
<polygon fill="blue" stroke="blue" points="545.32,-85.46 555.91,-85.37 547.57,-78.84 545.32,-85.46"/>
</g>
<!-- cols -->
<g id="node16" class="node">
<title>cols</title>
<polygon fill="none" stroke="black" points="529,-435 529,-481 671,-481 671,-435 529,-435"/>
<text text-anchor="middle" x="600" y="-465.8" font-family="Times,serif" font-size="14.00">cols</text>
<polyline fill="none" stroke="black" points="529,-458 671,-458 "/>
<text text-anchor="start" x="537" y="-442.8" font-family="Times,serif" font-size="14.00">result * chunk.Column</text>
</g>
<!-- EvalExpr&#45;&gt;cols -->
<g id="edge30" class="edge">
<title>EvalExpr&#45;&gt;cols</title>
<path fill="none" stroke="blue" stroke-dasharray="5,2" d="M473.33,-454.84C486.55,-455.17 502.38,-455.57 518.28,-455.97"/>
<polygon fill="blue" stroke="blue" points="518.62,-459.48 528.7,-456.23 518.8,-452.48 518.62,-459.48"/>
</g>
<!-- cols&#45;&gt;sameGroup -->
<g id="edge31" class="edge">
<title>cols&#45;&gt;sameGroup</title>
<path fill="none" stroke="blue" stroke-dasharray="5,2" d="M671.03,-447.33C679.95,-445.97 689.06,-444.58 697.93,-443.22"/>
<polygon fill="blue" stroke="blue" points="698.46,-446.68 707.82,-441.72 697.4,-439.76 698.46,-446.68"/>
</g>
<!-- getNextGroup&#45;&gt;nextGroupID -->
<g id="edge16" class="edge">
<title>getNextGroup&#45;&gt;nextGroupID</title>
<path fill="none" stroke="yellow" d="M1110.28,-454.01C1086.88,-453.09 1058.17,-453.64 1033,-459 1015.09,-462.81 996.41,-470.17 980.46,-477.62"/>
<polygon fill="yellow" stroke="yellow" points="978.89,-474.49 971.41,-481.99 981.94,-480.8 978.89,-474.49"/>
<text text-anchor="middle" x="1047.5" y="-462.8" font-family="Times,serif" font-size="14.00">自增</text>
</g>
<!-- lastGroupKeyOfPrevChk&#45;&gt;isFirstGroupSameAsPrev -->
<g id="edge28" class="edge">
<title>lastGroupKeyOfPrevChk&#45;&gt;isFirstGroupSameAsPrev</title>
<path fill="none" stroke="blue" stroke-dasharray="5,2" d="M1015.07,-87.49C1032.75,-89.93 1051.69,-92.54 1069.78,-95.04"/>
<polygon fill="blue" stroke="blue" points="1069.35,-98.51 1079.74,-96.41 1070.31,-91.58 1069.35,-98.51"/>
</g>
</g>
</svg>
