<?xml version="1.0" encoding="UTF-8" standalone="no"?>
<!DOCTYPE svg PUBLIC "-//W3C//DTD SVG 1.1//EN"
 "http://www.w3.org/Graphics/SVG/1.1/DTD/svg11.dtd">
<!-- Generated by graphviz version 2.40.1 (20161225.0304)
 -->
<!-- Title: snapshot Pages: 1 -->
<svg width="674pt" height="158pt"
 viewBox="0.00 0.00 674.27 158.00" xmlns="http://www.w3.org/2000/svg" xmlns:xlink="http://www.w3.org/1999/xlink">
<g id="graph0" class="graph" transform="scale(1 1) rotate(0) translate(4 154)">
<title>snapshot</title>
<polygon fill="#ffffff" stroke="transparent" points="-4,4 -4,-154 670.2666,-154 670.2666,4 -4,4"/>
<g id="clust1" class="cluster">
<title>cluster_snapshot</title>
<polygon fill="none" stroke="#000000" points="8,-8 8,-142 658.2666,-142 658.2666,-8 8,-8"/>
<text text-anchor="middle" x="333.1333" y="-122" font-family="Times,serif" font-size="20.00" fill="#000000">snapshot</text>
</g>
<!-- Client -->
<g id="node1" class="node">
<title>Client</title>
<polygon fill="none" stroke="#000000" points="70,-79 16,-79 16,-43 70,-43 70,-79"/>
<text text-anchor="middle" x="43" y="-56.8" font-family="Times,serif" font-size="14.00" fill="#000000">Client</text>
</g>
<!-- req1 -->
<g id="node2" class="node">
<title>req1</title>
<polygon fill="none" stroke="#000000" points="106,-26.4001 106,-95.5999 281.0176,-95.5999 281.0176,-26.4001 106,-26.4001"/>
<text text-anchor="middle" x="193.5088" y="-80.3999" font-family="Times,serif" font-size="14.00" fill="#000000">snapshot request</text>
<polyline fill="none" stroke="#000000" points="106,-73.5999 281.0176,-73.5999 "/>
<text text-anchor="start" x="114" y="-58.3999" font-family="Times,serif" font-size="14.00" fill="#000000">client发送file或者dir tree的</text>
<text text-anchor="start" x="114" y="-38.8" font-family="Times,serif" font-size="14.00" fill="#000000"> snapshot请求</text>
</g>
<!-- Client&#45;&gt;req1 -->
<g id="edge1" class="edge">
<title>Client&#45;&gt;req1</title>
<path fill="none" stroke="#666666" d="M70.256,-61C77.8457,-61 86.5532,-61 95.755,-61"/>
<polygon fill="#666666" stroke="#666666" points="95.9045,-64.5001 105.9044,-61 95.9044,-57.5001 95.9045,-64.5001"/>
</g>
<!-- Master -->
<g id="node3" class="node">
<title>Master</title>
<polygon fill="none" stroke="#000000" points="317.0176,-16.6001 317.0176,-105.3999 650.2666,-105.3999 650.2666,-16.6001 317.0176,-16.6001"/>
<text text-anchor="middle" x="483.6421" y="-90.1999" font-family="Times,serif" font-size="14.00" fill="#000000">Master</text>
<polyline fill="none" stroke="#000000" points="317.0176,-83.3999 650.2666,-83.3999 "/>
<text text-anchor="start" x="325.0176" y="-68.1999" font-family="Times,serif" font-size="14.00" fill="#000000">1. master收回file或dir tree对应的chunk的primary lease</text>
<text text-anchor="start" x="325.0176" y="-48.6" font-family="Times,serif" font-size="14.00" fill="#000000"> 这样client下次写的时候，必须经过master</text>
<text text-anchor="start" x="325.0176" y="-29" font-family="Times,serif" font-size="14.00" fill="#000000"> 2. 复制file 或者dir tree的metadata 指向相同的chunk</text>
</g>
<!-- req1&#45;&gt;Master -->
<g id="edge2" class="edge">
<title>req1&#45;&gt;Master</title>
<path fill="none" stroke="#666666" d="M281.3457,-61C289.5572,-61 298.0601,-61 306.7224,-61"/>
<polygon fill="#666666" stroke="#666666" points="306.9565,-64.5001 316.9565,-61 306.9565,-57.5001 306.9565,-64.5001"/>
</g>
</g>
</svg>
