<?xml version="1.0" encoding="UTF-8" standalone="no"?>
<!DOCTYPE svg PUBLIC "-//W3C//DTD SVG 1.1//EN"
 "http://www.w3.org/Graphics/SVG/1.1/DTD/svg11.dtd">
<!-- Generated by graphviz version 2.50.0 (20211204.2007)
 -->
<!-- Title: callback Pages: 1 -->
<svg width="378pt" height="169pt"
 viewBox="0.00 0.00 378.00 169.00" xmlns="http://www.w3.org/2000/svg" xmlns:xlink="http://www.w3.org/1999/xlink">
<g id="graph0" class="graph" transform="scale(1 1) rotate(0) translate(4 165)">
<title>callback</title>
<polygon fill="white" stroke="transparent" points="-4,4 -4,-165 374,-165 374,4 -4,4"/>
<!-- enum_Callback -->
<g id="node1" class="node">
<title>enum_Callback</title>
<polygon fill="none" stroke="black" points="102,-71 0,-71 0,-35 102,-35 102,-71"/>
<text text-anchor="middle" x="51" y="-49.3" font-family="Times,serif" font-size="14.00">enum_Callback</text>
</g>
<!-- Callback -->
<g id="node2" class="node">
<title>Callback</title>
<path fill="none" stroke="black" d="M150,-54.5C150,-54.5 268,-54.5 268,-54.5 274,-54.5 280,-60.5 280,-66.5 280,-66.5 280,-111.5 280,-111.5 280,-117.5 274,-123.5 268,-123.5 268,-123.5 150,-123.5 150,-123.5 144,-123.5 138,-117.5 138,-111.5 138,-111.5 138,-66.5 138,-66.5 138,-60.5 144,-54.5 150,-54.5"/>
<text text-anchor="start" x="146" y="-108.3" font-family="Times,serif" font-size="14.00">Callback</text>
<polyline fill="none" stroke="black" points="138,-100.5 280,-100.5 "/>
<text text-anchor="start" x="146" y="-85.3" font-family="Times,serif" font-size="14.00">cb: Rc&lt;dyn Fn(IN)&gt;,</text>
<polyline fill="none" stroke="black" points="138,-77.5 280,-77.5 "/>
<text text-anchor="start" x="146" y="-62.3" font-family="Times,serif" font-size="14.00">passive: Option&lt;bool&gt;</text>
</g>
<!-- enum_Callback&#45;&gt;Callback -->
<g id="edge1" class="edge">
<title>enum_Callback&#45;&gt;Callback</title>
<path fill="none" stroke="#666666" d="M102.22,-64.59C110.5,-66.5 119.27,-68.52 128.06,-70.55"/>
<polygon fill="#666666" stroke="#666666" points="127.45,-74 137.99,-72.84 129.03,-67.18 127.45,-74"/>
</g>
<!-- CallbackOnce -->
<g id="node3" class="node">
<title>CallbackOnce</title>
<polygon fill="none" stroke="black" points="255.5,-36 162.5,-36 162.5,0 255.5,0 255.5,-36"/>
<text text-anchor="middle" x="209" y="-14.3" font-family="Times,serif" font-size="14.00">CallbackOnce</text>
</g>
<!-- enum_Callback&#45;&gt;CallbackOnce -->
<g id="edge2" class="edge">
<title>enum_Callback&#45;&gt;CallbackOnce</title>
<path fill="none" stroke="#666666" d="M102.22,-41.73C118.22,-38.14 136.03,-34.15 152.39,-30.48"/>
<polygon fill="#666666" stroke="#666666" points="153.37,-33.84 162.37,-28.24 151.84,-27.01 153.37,-33.84"/>
</g>
<!-- emit -->
<g id="node4" class="node">
<title>emit</title>
<polygon fill="none" stroke="black" points="370,-161 316,-161 316,-125 370,-125 370,-161"/>
<text text-anchor="middle" x="343" y="-139.3" font-family="Times,serif" font-size="14.00">emit</text>
</g>
<!-- Callback&#45;&gt;emit -->
<g id="edge3" class="edge">
<title>Callback&#45;&gt;emit</title>
<path fill="none" stroke="#666666" d="M280.25,-117.74C289.27,-121.43 298.18,-125.07 306.31,-128.4"/>
<polygon fill="#666666" stroke="#666666" points="305.21,-131.73 315.79,-132.28 307.86,-125.25 305.21,-131.73"/>
</g>
<!-- once -->
<g id="node5" class="node">
<title>once</title>
<polygon fill="none" stroke="black" points="370,-107 316,-107 316,-71 370,-71 370,-107"/>
<text text-anchor="middle" x="343" y="-85.3" font-family="Times,serif" font-size="14.00">once</text>
</g>
<!-- Callback&#45;&gt;once -->
<g id="edge4" class="edge">
<title>Callback&#45;&gt;once</title>
<path fill="none" stroke="#666666" d="M280.25,-89C289.07,-89 297.79,-89 305.77,-89"/>
<polygon fill="#666666" stroke="#666666" points="305.79,-92.5 315.79,-89 305.79,-85.5 305.79,-92.5"/>
</g>
<!-- noop -->
<g id="node6" class="node">
<title>noop</title>
<polygon fill="none" stroke="black" points="370,-53 316,-53 316,-17 370,-17 370,-53"/>
<text text-anchor="middle" x="343" y="-31.3" font-family="Times,serif" font-size="14.00">noop</text>
</g>
<!-- Callback&#45;&gt;noop -->
<g id="edge5" class="edge">
<title>Callback&#45;&gt;noop</title>
<path fill="none" stroke="#666666" d="M280.25,-60.26C289.27,-56.57 298.18,-52.93 306.31,-49.6"/>
<polygon fill="#666666" stroke="#666666" points="307.86,-52.75 315.79,-45.72 305.21,-46.27 307.86,-52.75"/>
</g>
</g>
</svg>
