<?xml version="1.0" encoding="UTF-8" standalone="no"?>
<!DOCTYPE svg PUBLIC "-//W3C//DTD SVG 1.1//EN"
 "http://www.w3.org/Graphics/SVG/1.1/DTD/svg11.dtd">
<!-- Generated by graphviz version 2.50.0 (20211204.2007)
 -->
<!-- Title: yew_context Pages: 1 -->
<svg width="962pt" height="666pt"
 viewBox="0.00 0.00 962.00 665.56" xmlns="http://www.w3.org/2000/svg" xmlns:xlink="http://www.w3.org/1999/xlink">
<g id="graph0" class="graph" transform="scale(1 1) rotate(0) translate(4 661.56)">
<title>yew_context</title>
<polygon fill="white" stroke="transparent" points="-4,4 -4,-661.56 958,-661.56 958,4 -4,4"/>
<!-- Context -->
<g id="node1" class="node">
<title>Context</title>
<polygon fill="none" stroke="black" points="59,-218.56 0,-218.56 0,-182.56 59,-182.56 59,-218.56"/>
<text text-anchor="middle" x="29.5" y="-196.86" font-family="Times,serif" font-size="14.00">Context</text>
</g>
<!-- Scope -->
<g id="node2" class="node">
<title>Scope</title>
<path fill="none" stroke="black" d="M107,-246.56C107,-246.56 286,-246.56 286,-246.56 292,-246.56 298,-252.56 298,-258.56 298,-258.56 298,-326.56 298,-326.56 298,-332.56 292,-338.56 286,-338.56 286,-338.56 107,-338.56 107,-338.56 101,-338.56 95,-332.56 95,-326.56 95,-326.56 95,-258.56 95,-258.56 95,-252.56 101,-246.56 107,-246.56"/>
<text text-anchor="start" x="103" y="-323.36" font-family="Times,serif" font-size="14.00">Scope</text>
<polyline fill="none" stroke="black" points="95,-315.56 298,-315.56 "/>
<text text-anchor="start" x="103" y="-300.36" font-family="Times,serif" font-size="14.00">parent: Option&lt;Rc&lt;AnyScope&gt;&gt;,</text>
<polyline fill="none" stroke="black" points="95,-292.56 298,-292.56 "/>
<text text-anchor="start" x="103" y="-277.36" font-family="Times,serif" font-size="14.00">pub(crate) state: Shared&lt;Option</text>
<polyline fill="none" stroke="black" points="95,-269.56 298,-269.56 "/>
<text text-anchor="start" x="103" y="-254.36" font-family="Times,serif" font-size="14.00">&lt;ComponentState&lt;COMP&gt;&gt;&gt;</text>
</g>
<!-- Context&#45;&gt;Scope -->
<g id="edge1" class="edge">
<title>Context&#45;&gt;Scope</title>
<path fill="none" stroke="#666666" d="M59.24,-216.58C71.94,-223.66 87.65,-232.42 103.83,-241.45"/>
<polygon fill="#666666" stroke="#666666" points="102.42,-244.66 112.86,-246.48 105.83,-238.55 102.42,-244.66"/>
</g>
<!-- COMP__Properties -->
<g id="node3" class="node">
<title>COMP__Properties</title>
<polygon fill="none" stroke="black" points="258.5,-114.56 134.5,-114.56 134.5,-78.56 258.5,-78.56 258.5,-114.56"/>
<text text-anchor="middle" x="196.5" y="-92.86" font-family="Times,serif" font-size="14.00">COMP__Properties</text>
</g>
<!-- Context&#45;&gt;COMP__Properties -->
<g id="edge2" class="edge">
<title>Context&#45;&gt;COMP__Properties</title>
<path fill="none" stroke="#666666" d="M59.24,-182.44C86.72,-165.12 128.29,-138.92 158.29,-120.01"/>
<polygon fill="#666666" stroke="#666666" points="160.22,-122.93 166.81,-114.64 156.49,-117.01 160.22,-122.93"/>
</g>
<!-- COMP -->
<g id="node4" class="node">
<title>COMP</title>
<polygon fill="none" stroke="black" points="463.5,-343.56 407.5,-343.56 407.5,-307.56 463.5,-307.56 463.5,-343.56"/>
<text text-anchor="middle" x="435.5" y="-321.86" font-family="Times,serif" font-size="14.00">COMP</text>
</g>
<!-- Scope&#45;&gt;COMP -->
<g id="edge3" class="edge">
<title>Scope&#45;&gt;COMP</title>
<path fill="none" stroke="#666666" d="M298.01,-306.55C333.2,-311.45 370.57,-316.66 397.29,-320.38"/>
<polygon fill="#666666" stroke="#666666" points="396.95,-323.86 407.33,-321.78 397.91,-316.93 396.95,-323.86"/>
</g>
<!-- ComponentState -->
<g id="node5" class="node">
<title>ComponentState</title>
<polygon fill="none" stroke="black" points="489,-218.56 382,-218.56 382,-182.56 489,-182.56 489,-218.56"/>
<text text-anchor="middle" x="435.5" y="-196.86" font-family="Times,serif" font-size="14.00">ComponentState</text>
</g>
<!-- Scope&#45;&gt;ComponentState -->
<g id="edge4" class="edge">
<title>Scope&#45;&gt;ComponentState</title>
<path fill="none" stroke="#666666" d="M298.01,-253.54C325.63,-242.82 354.59,-231.58 378.69,-222.22"/>
<polygon fill="#666666" stroke="#666666" points="379.96,-225.49 388.01,-218.6 377.42,-218.96 379.96,-225.49"/>
</g>
<!-- AnyScope -->
<g id="node6" class="node">
<title>AnyScope</title>
<path fill="none" stroke="black" d="M346,-500.56C346,-500.56 525,-500.56 525,-500.56 531,-500.56 537,-506.56 537,-512.56 537,-512.56 537,-580.56 537,-580.56 537,-586.56 531,-592.56 525,-592.56 525,-592.56 346,-592.56 346,-592.56 340,-592.56 334,-586.56 334,-580.56 334,-580.56 334,-512.56 334,-512.56 334,-506.56 340,-500.56 346,-500.56"/>
<text text-anchor="start" x="342" y="-577.36" font-family="Times,serif" font-size="14.00">AnyScope</text>
<polyline fill="none" stroke="black" points="334,-569.56 537,-569.56 "/>
<text text-anchor="start" x="342" y="-554.36" font-family="Times,serif" font-size="14.00">type_id: TypeId,</text>
<polyline fill="none" stroke="black" points="334,-546.56 537,-546.56 "/>
<text text-anchor="start" x="342" y="-531.36" font-family="Times,serif" font-size="14.00">parent: Option&lt;Rc&lt;AnyScope&gt;&gt;,</text>
<polyline fill="none" stroke="black" points="334,-523.56 537,-523.56 "/>
<text text-anchor="start" x="342" y="-508.36" font-family="Times,serif" font-size="14.00">state: Rc&lt;dyn Any&gt;,</text>
</g>
<!-- Scope&#45;&gt;AnyScope -->
<g id="edge5" class="edge">
<title>Scope&#45;&gt;AnyScope</title>
<path fill="none" stroke="#666666" d="M240.69,-338.85C281.17,-382.22 341.65,-447.04 384.26,-492.71"/>
<polygon fill="#666666" stroke="#666666" points="381.82,-495.23 391.2,-500.15 386.94,-490.46 381.82,-495.23"/>
</g>
<!-- Properties -->
<g id="node10" class="node">
<title>Properties</title>
<path fill="none" stroke="black" d="M806,-182.56C806,-182.56 942,-182.56 942,-182.56 948,-182.56 954,-188.56 954,-194.56 954,-194.56 954,-216.56 954,-216.56 954,-222.56 948,-228.56 942,-228.56 942,-228.56 806,-228.56 806,-228.56 800,-228.56 794,-222.56 794,-216.56 794,-216.56 794,-194.56 794,-194.56 794,-188.56 800,-182.56 806,-182.56"/>
<text text-anchor="start" x="802" y="-213.36" font-family="Times,serif" font-size="14.00">Properties</text>
<polyline fill="none" stroke="black" points="794,-205.56 954,-205.56 "/>
<text text-anchor="start" x="802" y="-190.36" font-family="Times,serif" font-size="14.00">fn builder &#45;&gt; Self::Builder</text>
</g>
<!-- COMP__Properties&#45;&gt;Properties -->
<g id="edge10" class="edge">
<title>COMP__Properties&#45;&gt;Properties</title>
<path fill="none" stroke="#666666" d="M237,-78.54C332.69,-37.74 582.01,51.3 758,-40.56 811.22,-68.34 844.82,-133.22 861.16,-172.85"/>
<polygon fill="#666666" stroke="#666666" points="857.99,-174.35 864.94,-182.34 864.49,-171.75 857.99,-174.35"/>
</g>
<!-- Component -->
<g id="node7" class="node">
<title>Component</title>
<path fill="none" stroke="black" d="M585,-284.56C585,-284.56 746,-284.56 746,-284.56 752,-284.56 758,-290.56 758,-296.56 758,-296.56 758,-484.56 758,-484.56 758,-490.56 752,-496.56 746,-496.56 746,-496.56 585,-496.56 585,-496.56 579,-496.56 573,-490.56 573,-484.56 573,-484.56 573,-296.56 573,-296.56 573,-290.56 579,-284.56 585,-284.56"/>
<text text-anchor="start" x="581" y="-481.36" font-family="Times,serif" font-size="14.00">Component</text>
<polyline fill="none" stroke="black" points="573,-473.56 758,-473.56 "/>
<text text-anchor="start" x="581" y="-458.36" font-family="Times,serif" font-size="14.00">basic building blocks of the UI</text>
<text text-anchor="start" x="581" y="-443.36" font-family="Times,serif" font-size="14.00"> in a Yew app</text>
<polyline fill="none" stroke="black" points="573,-435.56 758,-435.56 "/>
<text text-anchor="start" x="581" y="-420.36" font-family="Times,serif" font-size="14.00">type Message</text>
<text text-anchor="start" x="581" y="-405.36" font-family="Times,serif" font-size="14.00"> type Properties</text>
<polyline fill="none" stroke="black" points="573,-397.56 758,-397.56 "/>
<text text-anchor="start" x="581" y="-382.36" font-family="Times,serif" font-size="14.00">生命周期函数</text>
<text text-anchor="start" x="581" y="-367.36" font-family="Times,serif" font-size="14.00"> fn create</text>
<text text-anchor="start" x="581" y="-352.36" font-family="Times,serif" font-size="14.00"> fn update</text>
<text text-anchor="start" x="581" y="-337.36" font-family="Times,serif" font-size="14.00"> fn changed</text>
<text text-anchor="start" x="581" y="-322.36" font-family="Times,serif" font-size="14.00"> fn view</text>
<text text-anchor="start" x="581" y="-307.36" font-family="Times,serif" font-size="14.00"> fn rendered</text>
<text text-anchor="start" x="581" y="-292.36" font-family="Times,serif" font-size="14.00"> fn destroy</text>
</g>
<!-- COMP&#45;&gt;Component -->
<g id="edge6" class="edge">
<title>COMP&#45;&gt;Component</title>
<path fill="none" stroke="#666666" d="M463.55,-333.27C488.35,-340.34 526.66,-351.26 563.2,-361.68"/>
<polygon fill="#666666" stroke="#666666" points="562.37,-365.08 572.95,-364.46 564.29,-358.35 562.37,-365.08"/>
</g>
<!-- ComponentState&#45;&gt;Context -->
<g id="edge12" class="edge">
<title>ComponentState&#45;&gt;Context</title>
<path fill="none" stroke="#666666" d="M381.76,-200.56C299.41,-200.56 142.2,-200.56 69.35,-200.56"/>
<polygon fill="#666666" stroke="#666666" points="69.23,-197.06 59.23,-200.56 69.23,-204.06 69.23,-197.06"/>
</g>
<!-- ComponentState&#45;&gt;Component -->
<g id="edge13" class="edge">
<title>ComponentState&#45;&gt;Component</title>
<path fill="none" stroke="#666666" d="M458.36,-218.78C483.13,-239.41 525.22,-274.49 564.93,-307.59"/>
<polygon fill="#666666" stroke="#666666" points="562.92,-310.46 572.84,-314.17 567.4,-305.08 562.92,-310.46"/>
</g>
<!-- VNode -->
<g id="node11" class="node">
<title>VNode</title>
<path fill="none" stroke="black" d="M647.5,-104.06C647.5,-104.06 683.5,-104.06 683.5,-104.06 689.5,-104.06 695.5,-110.06 695.5,-116.06 695.5,-116.06 695.5,-253.06 695.5,-253.06 695.5,-259.06 689.5,-265.06 683.5,-265.06 683.5,-265.06 647.5,-265.06 647.5,-265.06 641.5,-265.06 635.5,-259.06 635.5,-253.06 635.5,-253.06 635.5,-116.06 635.5,-116.06 635.5,-110.06 641.5,-104.06 647.5,-104.06"/>
<text text-anchor="start" x="643.5" y="-249.86" font-family="Times,serif" font-size="14.00">VNode</text>
<polyline fill="none" stroke="black" points="635.5,-242.06 695.5,-242.06 "/>
<text text-anchor="start" x="643.5" y="-226.86" font-family="Times,serif" font-size="14.00">VTag</text>
<polyline fill="none" stroke="black" points="635.5,-219.06 695.5,-219.06 "/>
<text text-anchor="start" x="643.5" y="-203.86" font-family="Times,serif" font-size="14.00">VText</text>
<polyline fill="none" stroke="black" points="635.5,-196.06 695.5,-196.06 "/>
<text text-anchor="start" x="643.5" y="-180.86" font-family="Times,serif" font-size="14.00">VComp</text>
<polyline fill="none" stroke="black" points="635.5,-173.06 695.5,-173.06 "/>
<text text-anchor="start" x="643.5" y="-157.86" font-family="Times,serif" font-size="14.00">VList</text>
<polyline fill="none" stroke="black" points="635.5,-150.06 695.5,-150.06 "/>
<text text-anchor="start" x="643.5" y="-134.86" font-family="Times,serif" font-size="14.00">VPortal</text>
<polyline fill="none" stroke="black" points="635.5,-127.06 695.5,-127.06 "/>
<text text-anchor="start" x="643.5" y="-111.86" font-family="Times,serif" font-size="14.00">VRef</text>
</g>
<!-- ComponentState&#45;&gt;VNode -->
<g id="edge14" class="edge">
<title>ComponentState&#45;&gt;VNode</title>
<path fill="none" stroke="#666666" d="M489.09,-196.87C530.69,-193.95 587.82,-189.94 625.43,-187.3"/>
<polygon fill="#666666" stroke="#666666" points="625.76,-190.78 635.49,-186.59 625.27,-183.8 625.76,-190.78"/>
</g>
<!-- NodeRef -->
<g id="node12" class="node">
<title>NodeRef</title>
<polygon fill="none" stroke="black" points="698,-85.56 633,-85.56 633,-49.56 698,-49.56 698,-85.56"/>
<text text-anchor="middle" x="665.5" y="-63.86" font-family="Times,serif" font-size="14.00">NodeRef</text>
</g>
<!-- ComponentState&#45;&gt;NodeRef -->
<g id="edge15" class="edge">
<title>ComponentState&#45;&gt;NodeRef</title>
<path fill="none" stroke="#666666" d="M455.24,-182.23C480.18,-158.78 526.54,-118.37 573,-94.56 588.62,-86.55 607,-80.54 623.16,-76.26"/>
<polygon fill="#666666" stroke="#666666" points="624.06,-79.64 632.9,-73.81 622.35,-72.85 624.06,-79.64"/>
</g>
<!-- AnyScope&#45;&gt;AnyScope -->
<g id="edge7" class="edge">
<title>AnyScope&#45;&gt;AnyScope</title>
<path fill="none" stroke="#666666" d="M393.33,-592.65C396.96,-603.26 411.02,-611.06 435.5,-611.06 452.71,-611.06 464.77,-607.2 471.68,-601.23"/>
<polygon fill="#666666" stroke="#666666" points="474.82,-602.85 477.67,-592.65 469.08,-598.84 474.82,-602.85"/>
</g>
<!-- TypeId -->
<g id="node8" class="node">
<title>TypeId</title>
<path fill="none" stroke="black" d="M595.5,-596.06C595.5,-596.06 735.5,-596.06 735.5,-596.06 741.5,-596.06 747.5,-602.06 747.5,-608.06 747.5,-608.06 747.5,-645.06 747.5,-645.06 747.5,-651.06 741.5,-657.06 735.5,-657.06 735.5,-657.06 595.5,-657.06 595.5,-657.06 589.5,-657.06 583.5,-651.06 583.5,-645.06 583.5,-645.06 583.5,-608.06 583.5,-608.06 583.5,-602.06 589.5,-596.06 595.5,-596.06"/>
<text text-anchor="start" x="591.5" y="-641.86" font-family="Times,serif" font-size="14.00">TypeId</text>
<polyline fill="none" stroke="black" points="583.5,-634.06 747.5,-634.06 "/>
<text text-anchor="start" x="591.5" y="-618.86" font-family="Times,serif" font-size="14.00">a globally unique identifier</text>
<text text-anchor="start" x="591.5" y="-603.86" font-family="Times,serif" font-size="14.00"> for a type</text>
</g>
<!-- AnyScope&#45;&gt;TypeId -->
<g id="edge8" class="edge">
<title>AnyScope&#45;&gt;TypeId</title>
<path fill="none" stroke="#666666" d="M537.17,-581.88C549.31,-586.14 561.66,-590.47 573.65,-594.68"/>
<polygon fill="#666666" stroke="#666666" points="572.58,-598.02 583.18,-598.02 574.9,-591.41 572.58,-598.02"/>
</g>
<!-- Any -->
<g id="node9" class="node">
<title>Any</title>
<path fill="none" stroke="black" d="M621,-516.06C621,-516.06 710,-516.06 710,-516.06 716,-516.06 722,-522.06 722,-528.06 722,-528.06 722,-565.06 722,-565.06 722,-571.06 716,-577.06 710,-577.06 710,-577.06 621,-577.06 621,-577.06 615,-577.06 609,-571.06 609,-565.06 609,-565.06 609,-528.06 609,-528.06 609,-522.06 615,-516.06 621,-516.06"/>
<text text-anchor="start" x="617" y="-561.86" font-family="Times,serif" font-size="14.00">Any</text>
<polyline fill="none" stroke="black" points="609,-554.06 722,-554.06 "/>
<text text-anchor="start" x="617" y="-538.86" font-family="Times,serif" font-size="14.00">A trait to emulate</text>
<text text-anchor="start" x="617" y="-523.86" font-family="Times,serif" font-size="14.00"> dynamic typing</text>
</g>
<!-- AnyScope&#45;&gt;Any -->
<g id="edge9" class="edge">
<title>AnyScope&#45;&gt;Any</title>
<path fill="none" stroke="#666666" d="M537.17,-546.56C558,-546.56 579.43,-546.56 598.63,-546.56"/>
<polygon fill="#666666" stroke="#666666" points="598.75,-550.06 608.75,-546.56 598.75,-543.06 598.75,-550.06"/>
</g>
<!-- Component&#45;&gt;Properties -->
<g id="edge11" class="edge">
<title>Component&#45;&gt;Properties</title>
<path fill="none" stroke="#666666" d="M758.28,-308.34C787.18,-282.44 817.3,-255.45 839.43,-235.64"/>
<polygon fill="#666666" stroke="#666666" points="841.79,-238.22 846.9,-228.94 837.12,-233 841.79,-238.22"/>
</g>
</g>
</svg>
