<?xml version="1.0" encoding="UTF-8" standalone="no"?>
<!DOCTYPE svg PUBLIC "-//W3C//DTD SVG 1.1//EN"
 "http://www.w3.org/Graphics/SVG/1.1/DTD/svg11.dtd">
<!-- Generated by graphviz version 2.44.1 (20200629.0846)
 -->
<!-- Pages: 1 -->
<svg width="313pt" height="152pt"
 viewBox="0.00 0.00 313.00 152.00" xmlns="http://www.w3.org/2000/svg" xmlns:xlink="http://www.w3.org/1999/xlink">
<g id="graph0" class="graph" transform="scale(1 1) rotate(0) translate(4 148)">
<polygon fill="white" stroke="transparent" points="-4,4 -4,-148 309,-148 309,4 -4,4"/>
<!-- texture_resource_system -->
<g id="node1" class="node">
<title>texture_resource_system</title>
<polygon fill="none" stroke="black" points="152,-90 0,-90 0,-54 152,-54 152,-90"/>
<text text-anchor="middle" x="76" y="-68.3" font-family="Times,serif" font-size="14.00">texture_resource_system</text>
</g>
<!-- create_texture -->
<g id="node2" class="node">
<title>create_texture</title>
<polygon fill="none" stroke="black" points="293,-144 200,-144 200,-108 293,-108 293,-144"/>
<text text-anchor="middle" x="246.5" y="-122.3" font-family="Times,serif" font-size="14.00">create_texture</text>
</g>
<!-- texture_resource_system&#45;&gt;create_texture -->
<g id="edge1" class="edge">
<title>texture_resource_system&#45;&gt;create_texture</title>
<path fill="none" stroke="#666666" d="M133.58,-90.13C151.89,-96 172.17,-102.5 190.38,-108.34"/>
<polygon fill="#666666" stroke="#666666" points="189.38,-111.69 199.97,-111.41 191.52,-105.02 189.38,-111.69"/>
</g>
<!-- create_sampler -->
<g id="node3" class="node">
<title>create_sampler</title>
<polygon fill="none" stroke="black" points="296,-90 197,-90 197,-54 296,-54 296,-90"/>
<text text-anchor="middle" x="246.5" y="-68.3" font-family="Times,serif" font-size="14.00">create_sampler</text>
</g>
<!-- texture_resource_system&#45;&gt;create_sampler -->
<g id="edge2" class="edge">
<title>texture_resource_system&#45;&gt;create_sampler</title>
<path fill="none" stroke="#666666" d="M152.38,-72C163.8,-72 175.44,-72 186.45,-72"/>
<polygon fill="#666666" stroke="#666666" points="186.78,-75.5 196.78,-72 186.78,-68.5 186.78,-75.5"/>
</g>
<!-- set_asset_resource -->
<g id="node4" class="node">
<title>set_asset_resource</title>
<polygon fill="none" stroke="black" points="305,-36 188,-36 188,0 305,0 305,-36"/>
<text text-anchor="middle" x="246.5" y="-14.3" font-family="Times,serif" font-size="14.00">set_asset_resource</text>
</g>
<!-- texture_resource_system&#45;&gt;set_asset_resource -->
<g id="edge3" class="edge">
<title>texture_resource_system&#45;&gt;set_asset_resource</title>
<path fill="none" stroke="#666666" d="M133.58,-53.87C148.24,-49.17 164.17,-44.07 179.28,-39.22"/>
<polygon fill="#666666" stroke="#666666" points="180.62,-42.47 189.07,-36.08 178.48,-35.8 180.62,-42.47"/>
</g>
</g>
</svg>
