<?xml version="1.0" encoding="UTF-8" standalone="no"?>
<!DOCTYPE svg PUBLIC "-//W3C//DTD SVG 1.1//EN"
 "http://www.w3.org/Graphics/SVG/1.1/DTD/svg11.dtd">
<!-- Generated by graphviz version 2.49.3 (20211023.0002)
 -->
<!-- Title: bert Pages: 1 -->
<svg width="996pt" height="1223pt"
 viewBox="0.00 0.00 996.00 1222.50" xmlns="http://www.w3.org/2000/svg" xmlns:xlink="http://www.w3.org/1999/xlink">
<g id="graph0" class="graph" transform="scale(1 1) rotate(0) translate(4 1218.5)">
<title>bert</title>
<polygon fill="white" stroke="transparent" points="-4,4 -4,-1218.5 992,-1218.5 992,4 -4,4"/>
<!-- bert -->
<g id="node1" class="node">
<title>bert</title>
<path fill="none" stroke="black" d="M19.5,-221.5C19.5,-221.5 138.5,-221.5 138.5,-221.5 144.5,-221.5 150.5,-227.5 150.5,-233.5 150.5,-233.5 150.5,-285.5 150.5,-285.5 150.5,-291.5 144.5,-297.5 138.5,-297.5 138.5,-297.5 19.5,-297.5 19.5,-297.5 13.5,-297.5 7.5,-291.5 7.5,-285.5 7.5,-285.5 7.5,-233.5 7.5,-233.5 7.5,-227.5 13.5,-221.5 19.5,-221.5"/>
<text text-anchor="start" x="15.5" y="-282.3" font-family="Times,serif" font-size="14.00">bert</text>
<polyline fill="none" stroke="black" points="7.5,-274.5 150.5,-274.5 "/>
<text text-anchor="start" x="15.5" y="-259.3" font-family="Times,serif" font-size="14.00">Bidirectional Encoder </text>
<text text-anchor="start" x="15.5" y="-244.3" font-family="Times,serif" font-size="14.00"> Representation with</text>
<text text-anchor="start" x="15.5" y="-229.3" font-family="Times,serif" font-size="14.00"> Transformers</text>
</g>
<!-- MaskLanguageModel -->
<g id="node2" class="node">
<title>MaskLanguageModel</title>
<path fill="none" stroke="black" d="M252.5,-353.5C252.5,-353.5 430.5,-353.5 430.5,-353.5 436.5,-353.5 442.5,-359.5 442.5,-365.5 442.5,-365.5 442.5,-425.5 442.5,-425.5 442.5,-431.5 436.5,-437.5 430.5,-437.5 430.5,-437.5 252.5,-437.5 252.5,-437.5 246.5,-437.5 240.5,-431.5 240.5,-425.5 240.5,-425.5 240.5,-365.5 240.5,-365.5 240.5,-359.5 246.5,-353.5 252.5,-353.5"/>
<text text-anchor="start" x="248.5" y="-422.3" font-family="Times,serif" font-size="14.00">MaskLanguageModel</text>
<polyline fill="none" stroke="black" points="240.5,-414.5 442.5,-414.5 "/>
<text text-anchor="start" x="248.5" y="-399.3" font-family="Times,serif" font-size="14.00">the man [MASK] to the store</text>
<text text-anchor="start" x="248.5" y="-384.3" font-family="Times,serif" font-size="14.00"> the man went to the store</text>
<polyline fill="none" stroke="black" points="240.5,-376.5 442.5,-376.5 "/>
<text text-anchor="start" x="248.5" y="-361.3" font-family="Times,serif" font-size="14.00">learn bidirectional representation</text>
</g>
<!-- bert&#45;&gt;MaskLanguageModel -->
<g id="edge1" class="edge">
<title>bert&#45;&gt;MaskLanguageModel</title>
<path fill="none" stroke="#666666" d="M125.09,-297.5C145.26,-313.21 169.9,-330.7 194,-343.5 205.59,-349.65 218.06,-355.34 230.65,-360.52"/>
<polygon fill="#666666" stroke="#666666" points="229.72,-363.92 240.3,-364.39 232.32,-357.42 229.72,-363.92"/>
</g>
<!-- NextStencePrediction -->
<g id="node3" class="node">
<title>NextStencePrediction</title>
<path fill="none" stroke="black" d="M270,-258.5C270,-258.5 413,-258.5 413,-258.5 419,-258.5 425,-264.5 425,-270.5 425,-270.5 425,-322.5 425,-322.5 425,-328.5 419,-334.5 413,-334.5 413,-334.5 270,-334.5 270,-334.5 264,-334.5 258,-328.5 258,-322.5 258,-322.5 258,-270.5 258,-270.5 258,-264.5 264,-258.5 270,-258.5"/>
<text text-anchor="start" x="266" y="-319.3" font-family="Times,serif" font-size="14.00">NextStencePrediction</text>
<polyline fill="none" stroke="black" points="258,-311.5 425,-311.5 "/>
<text text-anchor="start" x="266" y="-296.3" font-family="Times,serif" font-size="14.00">predicts whether the two</text>
<text text-anchor="start" x="266" y="-281.3" font-family="Times,serif" font-size="14.00"> sentences are contextually</text>
<text text-anchor="start" x="266" y="-266.3" font-family="Times,serif" font-size="14.00"> assigned to each other.</text>
</g>
<!-- bert&#45;&gt;NextStencePrediction -->
<g id="edge2" class="edge">
<title>bert&#45;&gt;NextStencePrediction</title>
<path fill="none" stroke="#666666" d="M150.84,-269.56C180.61,-273.79 215.66,-278.77 247.47,-283.29"/>
<polygon fill="#666666" stroke="#666666" points="247.28,-286.79 257.67,-284.74 248.26,-279.86 247.28,-286.79"/>
</g>
<!-- specialTokens -->
<g id="node4" class="node">
<title>specialTokens</title>
<polygon fill="none" stroke="black" points="389.5,-239.5 293.5,-239.5 293.5,-203.5 389.5,-203.5 389.5,-239.5"/>
<text text-anchor="middle" x="341.5" y="-217.8" font-family="Times,serif" font-size="14.00">specialTokens</text>
</g>
<!-- bert&#45;&gt;specialTokens -->
<g id="edge3" class="edge">
<title>bert&#45;&gt;specialTokens</title>
<path fill="none" stroke="#666666" d="M150.84,-249.17C192.33,-243.11 244.06,-235.57 283.01,-229.89"/>
<polygon fill="#666666" stroke="#666666" points="283.73,-233.32 293.12,-228.41 282.72,-226.39 283.73,-233.32"/>
</g>
<!-- Vocabulary -->
<g id="node5" class="node">
<title>Vocabulary</title>
<polygon fill="none" stroke="black" points="381.5,-185.5 301.5,-185.5 301.5,-149.5 381.5,-149.5 381.5,-185.5"/>
<text text-anchor="middle" x="341.5" y="-163.8" font-family="Times,serif" font-size="14.00">Vocabulary</text>
</g>
<!-- bert&#45;&gt;Vocabulary -->
<g id="edge4" class="edge">
<title>bert&#45;&gt;Vocabulary</title>
<path fill="none" stroke="#666666" d="M137.93,-221.49C155.37,-211.43 174.95,-201.46 194,-194.5 225.26,-183.08 262.12,-176.32 291.04,-172.42"/>
<polygon fill="#666666" stroke="#666666" points="291.84,-175.84 301.31,-171.11 290.95,-168.9 291.84,-175.84"/>
</g>
<!-- CLS -->
<g id="node6" class="node">
<title>CLS</title>
<path fill="none" stroke="black" d="M576,-328.5C576,-328.5 651,-328.5 651,-328.5 657,-328.5 663,-334.5 663,-340.5 663,-340.5 663,-362.5 663,-362.5 663,-368.5 657,-374.5 651,-374.5 651,-374.5 576,-374.5 576,-374.5 570,-374.5 564,-368.5 564,-362.5 564,-362.5 564,-340.5 564,-340.5 564,-334.5 570,-328.5 576,-328.5"/>
<text text-anchor="start" x="572" y="-359.3" font-family="Times,serif" font-size="14.00">CLS</text>
<polyline fill="none" stroke="black" points="564,-351.5 663,-351.5 "/>
<text text-anchor="start" x="572" y="-336.3" font-family="Times,serif" font-size="14.00">sentence begin</text>
</g>
<!-- specialTokens&#45;&gt;CLS -->
<g id="edge5" class="edge">
<title>specialTokens&#45;&gt;CLS</title>
<path fill="none" stroke="#666666" d="M389.6,-219.88C420.6,-221.12 460.56,-227.37 489,-248.5 517.08,-269.36 498.89,-295.22 525,-318.5 533.35,-325.95 543.54,-331.77 553.98,-336.32"/>
<polygon fill="#666666" stroke="#666666" points="553.01,-339.7 563.6,-340.14 555.6,-333.19 553.01,-339.7"/>
</g>
<!-- MASK -->
<g id="node7" class="node">
<title>MASK</title>
<path fill="none" stroke="black" d="M573.5,-263.5C573.5,-263.5 653.5,-263.5 653.5,-263.5 659.5,-263.5 665.5,-269.5 665.5,-275.5 665.5,-275.5 665.5,-297.5 665.5,-297.5 665.5,-303.5 659.5,-309.5 653.5,-309.5 653.5,-309.5 573.5,-309.5 573.5,-309.5 567.5,-309.5 561.5,-303.5 561.5,-297.5 561.5,-297.5 561.5,-275.5 561.5,-275.5 561.5,-269.5 567.5,-263.5 573.5,-263.5"/>
<text text-anchor="start" x="569.5" y="-294.3" font-family="Times,serif" font-size="14.00">MASK</text>
<polyline fill="none" stroke="black" points="561.5,-286.5 665.5,-286.5 "/>
<text text-anchor="start" x="569.5" y="-271.3" font-family="Times,serif" font-size="14.00">word is masked</text>
</g>
<!-- specialTokens&#45;&gt;MASK -->
<g id="edge6" class="edge">
<title>specialTokens&#45;&gt;MASK</title>
<path fill="none" stroke="#666666" d="M389.64,-228.76C418.5,-233.55 456.09,-240.43 489,-248.5 509.69,-253.57 532.02,-260.11 551.93,-266.33"/>
<polygon fill="#666666" stroke="#666666" points="550.91,-269.67 561.5,-269.35 553.01,-263 550.91,-269.67"/>
</g>
<!-- SEP -->
<g id="node8" class="node">
<title>SEP</title>
<path fill="none" stroke="black" d="M553.5,-198.5C553.5,-198.5 673.5,-198.5 673.5,-198.5 679.5,-198.5 685.5,-204.5 685.5,-210.5 685.5,-210.5 685.5,-232.5 685.5,-232.5 685.5,-238.5 679.5,-244.5 673.5,-244.5 673.5,-244.5 553.5,-244.5 553.5,-244.5 547.5,-244.5 541.5,-238.5 541.5,-232.5 541.5,-232.5 541.5,-210.5 541.5,-210.5 541.5,-204.5 547.5,-198.5 553.5,-198.5"/>
<text text-anchor="start" x="549.5" y="-229.3" font-family="Times,serif" font-size="14.00">SEP</text>
<polyline fill="none" stroke="black" points="541.5,-221.5 685.5,-221.5 "/>
<text text-anchor="start" x="549.5" y="-206.3" font-family="Times,serif" font-size="14.00">seperates two sentence</text>
</g>
<!-- specialTokens&#45;&gt;SEP -->
<g id="edge7" class="edge">
<title>specialTokens&#45;&gt;SEP</title>
<path fill="none" stroke="#666666" d="M389.53,-221.5C428.59,-221.5 485.05,-221.5 531.39,-221.5"/>
<polygon fill="#666666" stroke="#666666" points="531.41,-225 541.41,-221.5 531.41,-218 531.41,-225"/>
</g>
<!-- END -->
<g id="node9" class="node">
<title>END</title>
<path fill="none" stroke="black" d="M570,-133.5C570,-133.5 657,-133.5 657,-133.5 663,-133.5 669,-139.5 669,-145.5 669,-145.5 669,-167.5 669,-167.5 669,-173.5 663,-179.5 657,-179.5 657,-179.5 570,-179.5 570,-179.5 564,-179.5 558,-173.5 558,-167.5 558,-167.5 558,-145.5 558,-145.5 558,-139.5 564,-133.5 570,-133.5"/>
<text text-anchor="start" x="566" y="-164.3" font-family="Times,serif" font-size="14.00">END</text>
<polyline fill="none" stroke="black" points="558,-156.5 669,-156.5 "/>
<text text-anchor="start" x="566" y="-141.3" font-family="Times,serif" font-size="14.00">End the sentence</text>
</g>
<!-- specialTokens&#45;&gt;END -->
<g id="edge8" class="edge">
<title>specialTokens&#45;&gt;END</title>
<path fill="none" stroke="#666666" d="M389.64,-214.24C418.5,-209.45 456.09,-202.57 489,-194.5 508.39,-189.75 529.22,-183.71 548.15,-177.85"/>
<polygon fill="#666666" stroke="#666666" points="549.36,-181.14 557.86,-174.81 547.27,-174.46 549.36,-181.14"/>
</g>
<!-- PAD -->
<g id="node10" class="node">
<title>PAD</title>
<path fill="none" stroke="black" d="M567,-0.5C567,-0.5 660,-0.5 660,-0.5 666,-0.5 672,-6.5 672,-12.5 672,-12.5 672,-102.5 672,-102.5 672,-108.5 666,-114.5 660,-114.5 660,-114.5 567,-114.5 567,-114.5 561,-114.5 555,-108.5 555,-102.5 555,-102.5 555,-12.5 555,-12.5 555,-6.5 561,-0.5 567,-0.5"/>
<text text-anchor="start" x="563" y="-99.3" font-family="Times,serif" font-size="14.00">PAD</text>
<polyline fill="none" stroke="black" points="555,-91.5 672,-91.5 "/>
<text text-anchor="start" x="563" y="-76.3" font-family="Times,serif" font-size="14.00">Use to truncate </text>
<text text-anchor="start" x="563" y="-61.3" font-family="Times,serif" font-size="14.00"> the sentence with</text>
<text text-anchor="start" x="563" y="-46.3" font-family="Times,serif" font-size="14.00"> equal length</text>
<polyline fill="none" stroke="black" points="555,-38.5 672,-38.5 "/>
<text text-anchor="start" x="563" y="-23.3" font-family="Times,serif" font-size="14.00">保证句子的</text>
<text text-anchor="start" x="563" y="-8.3" font-family="Times,serif" font-size="14.00"> 长度是一样的</text>
</g>
<!-- specialTokens&#45;&gt;PAD -->
<g id="edge9" class="edge">
<title>specialTokens&#45;&gt;PAD</title>
<path fill="none" stroke="#666666" d="M389.64,-223.17C420.66,-221.95 460.62,-215.71 489,-194.5 517.34,-173.32 502.29,-150.63 525,-123.5 531.41,-115.84 538.87,-108.55 546.69,-101.79"/>
<polygon fill="#666666" stroke="#666666" points="549.14,-104.3 554.59,-95.22 544.66,-98.92 549.14,-104.3"/>
</g>
<!-- input_sentence -->
<g id="node11" class="node">
<title>input_sentence</title>
<polygon fill="none" stroke="black" points="129,-615.5 29,-615.5 29,-579.5 129,-579.5 129,-615.5"/>
<text text-anchor="middle" x="79" y="-593.8" font-family="Times,serif" font-size="14.00">input_sentence</text>
</g>
<!-- token_embedding -->
<g id="node12" class="node">
<title>token_embedding</title>
<path fill="none" stroke="black" d="M206,-662.5C206,-662.5 477,-662.5 477,-662.5 483,-662.5 489,-668.5 489,-674.5 489,-674.5 489,-742.5 489,-742.5 489,-748.5 483,-754.5 477,-754.5 477,-754.5 206,-754.5 206,-754.5 200,-754.5 194,-748.5 194,-742.5 194,-742.5 194,-674.5 194,-674.5 194,-668.5 200,-662.5 206,-662.5"/>
<text text-anchor="start" x="202" y="-739.3" font-family="Times,serif" font-size="14.00">token_embedding</text>
<polyline fill="none" stroke="black" points="194,-731.5 489,-731.5 "/>
<text text-anchor="start" x="202" y="-716.3" font-family="Times,serif" font-size="14.00">The cat is walking. The dog is barking</text>
<polyline fill="none" stroke="black" points="194,-708.5 489,-708.5 "/>
<text text-anchor="start" x="202" y="-693.3" font-family="Times,serif" font-size="14.00">[CLS] the cat is walking [SEP] the dog is barking</text>
<polyline fill="none" stroke="black" points="194,-685.5 489,-685.5 "/>
<text text-anchor="start" x="202" y="-670.3" font-family="Times,serif" font-size="14.00">[1, 5, 7, 9, 10, 2, 5, 6, 9, 11]</text>
</g>
<!-- input_sentence&#45;&gt;token_embedding -->
<g id="edge10" class="edge">
<title>input_sentence&#45;&gt;token_embedding</title>
<path fill="none" stroke="#666666" d="M115.58,-615.62C137.89,-626.75 167.37,-641.01 194,-652.5 198.65,-654.5 203.39,-656.51 208.19,-658.52"/>
<polygon fill="#666666" stroke="#666666" points="206.91,-661.77 217.49,-662.35 209.58,-655.3 206.91,-661.77"/>
</g>
<!-- segment_embedding -->
<g id="node13" class="node">
<title>segment_embedding</title>
<path fill="none" stroke="black" d="M255,-552C255,-552 428,-552 428,-552 434,-552 440,-558 440,-564 440,-564 440,-631 440,-631 440,-637 434,-643 428,-643 428,-643 255,-643 255,-643 249,-643 243,-637 243,-631 243,-631 243,-564 243,-564 243,-558 249,-552 255,-552"/>
<text text-anchor="start" x="251" y="-627.8" font-family="Times,serif" font-size="14.00">segment_embedding</text>
<polyline fill="none" stroke="black" points="243,-620 440,-620 "/>
<text text-anchor="start" x="251" y="-604.8" font-family="Times,serif" font-size="14.00">A segment embedding separates</text>
<text text-anchor="start" x="251" y="-589.8" font-family="Times,serif" font-size="14.00"> two sentences from each other</text>
<text text-anchor="start" x="251" y="-574.8" font-family="Times,serif" font-size="14.00"> and they are generally</text>
<text text-anchor="start" x="251" y="-559.8" font-family="Times,serif" font-size="14.00"> defined as 0 and 1.</text>
</g>
<!-- input_sentence&#45;&gt;segment_embedding -->
<g id="edge11" class="edge">
<title>input_sentence&#45;&gt;segment_embedding</title>
<path fill="none" stroke="#666666" d="M129.3,-597.5C158.56,-597.5 196.85,-597.5 232.77,-597.5"/>
<polygon fill="#666666" stroke="#666666" points="232.84,-601 242.84,-597.5 232.84,-594 232.84,-601"/>
</g>
<!-- position_embedding -->
<g id="node14" class="node">
<title>position_embedding</title>
<path fill="none" stroke="black" d="M266.5,-456.5C266.5,-456.5 416.5,-456.5 416.5,-456.5 422.5,-456.5 428.5,-462.5 428.5,-468.5 428.5,-468.5 428.5,-520.5 428.5,-520.5 428.5,-526.5 422.5,-532.5 416.5,-532.5 416.5,-532.5 266.5,-532.5 266.5,-532.5 260.5,-532.5 254.5,-526.5 254.5,-520.5 254.5,-520.5 254.5,-468.5 254.5,-468.5 254.5,-462.5 260.5,-456.5 266.5,-456.5"/>
<text text-anchor="start" x="262.5" y="-517.3" font-family="Times,serif" font-size="14.00">position_embedding</text>
<polyline fill="none" stroke="black" points="254.5,-509.5 428.5,-509.5 "/>
<text text-anchor="start" x="262.5" y="-494.3" font-family="Times,serif" font-size="14.00">A position embedding gives</text>
<text text-anchor="start" x="262.5" y="-479.3" font-family="Times,serif" font-size="14.00"> position to each embedding</text>
<text text-anchor="start" x="262.5" y="-464.3" font-family="Times,serif" font-size="14.00"> in a sequence. </text>
</g>
<!-- input_sentence&#45;&gt;position_embedding -->
<g id="edge12" class="edge">
<title>input_sentence&#45;&gt;position_embedding</title>
<path fill="none" stroke="#666666" d="M114.39,-579.43C136.73,-568.06 166.69,-553.51 194,-542.5 210.08,-536.02 227.41,-529.74 244.32,-523.99"/>
<polygon fill="#666666" stroke="#666666" points="245.85,-527.16 254.21,-520.66 243.62,-520.53 245.85,-527.16"/>
</g>
<!-- vocabulary -->
<g id="node15" class="node">
<title>vocabulary</title>
<polygon fill="none" stroke="black" points="118.5,-726.5 39.5,-726.5 39.5,-690.5 118.5,-690.5 118.5,-726.5"/>
<text text-anchor="middle" x="79" y="-704.8" font-family="Times,serif" font-size="14.00">vocabulary</text>
</g>
<!-- vocabulary&#45;&gt;token_embedding -->
<g id="edge13" class="edge">
<title>vocabulary&#45;&gt;token_embedding</title>
<path fill="none" stroke="#666666" d="M118.72,-708.5C136.84,-708.5 159.75,-708.5 183.92,-708.5"/>
<polygon fill="#666666" stroke="#666666" points="183.97,-712 193.97,-708.5 183.97,-705 183.97,-712"/>
</g>
<!-- input -->
<g id="node16" class="node">
<title>input</title>
<polygon fill="none" stroke="black" points="106,-836.5 52,-836.5 52,-800.5 106,-800.5 106,-836.5"/>
<text text-anchor="middle" x="79" y="-814.8" font-family="Times,serif" font-size="14.00">input</text>
</g>
<!-- embeddings -->
<g id="node17" class="node">
<title>embeddings</title>
<polygon fill="none" stroke="black" points="383.5,-863.5 299.5,-863.5 299.5,-827.5 383.5,-827.5 383.5,-863.5"/>
<text text-anchor="middle" x="341.5" y="-841.8" font-family="Times,serif" font-size="14.00">embeddings</text>
</g>
<!-- input&#45;&gt;embeddings -->
<g id="edge14" class="edge">
<title>input&#45;&gt;embeddings</title>
<path fill="none" stroke="#666666" d="M106.41,-821.24C149.06,-825.66 233.87,-834.45 288.85,-840.15"/>
<polygon fill="#666666" stroke="#666666" points="288.78,-843.66 299.08,-841.21 289.5,-836.7 288.78,-843.66"/>
</g>
<!-- attention_mask -->
<g id="node18" class="node">
<title>attention_mask</title>
<polygon fill="none" stroke="black" points="392.5,-809.5 290.5,-809.5 290.5,-773.5 392.5,-773.5 392.5,-809.5"/>
<text text-anchor="middle" x="341.5" y="-787.8" font-family="Times,serif" font-size="14.00">attention_mask</text>
</g>
<!-- input&#45;&gt;attention_mask -->
<g id="edge15" class="edge">
<title>input&#45;&gt;attention_mask</title>
<path fill="none" stroke="#666666" d="M106.41,-815.76C146.96,-811.56 225.61,-803.41 280.51,-797.72"/>
<polygon fill="#666666" stroke="#666666" points="280.88,-801.2 290.46,-796.69 280.16,-794.24 280.88,-801.2"/>
</g>
<!-- Encoder -->
<g id="node19" class="node">
<title>Encoder</title>
<polygon fill="none" stroke="black" points="645,-836.5 582,-836.5 582,-800.5 645,-800.5 645,-836.5"/>
<text text-anchor="middle" x="613.5" y="-814.8" font-family="Times,serif" font-size="14.00">Encoder</text>
</g>
<!-- embeddings&#45;&gt;Encoder -->
<g id="edge16" class="edge">
<title>embeddings&#45;&gt;Encoder</title>
<path fill="none" stroke="#666666" d="M383.51,-841.4C434.43,-836.31 520.79,-827.67 571.65,-822.59"/>
<polygon fill="#666666" stroke="#666666" points="572.03,-826.06 581.63,-821.59 571.33,-819.1 572.03,-826.06"/>
</g>
<!-- attention_mask&#45;&gt;Encoder -->
<g id="edge17" class="edge">
<title>attention_mask&#45;&gt;Encoder</title>
<path fill="none" stroke="#666666" d="M392.65,-796.52C444.37,-801.69 524.02,-809.65 571.92,-814.44"/>
<polygon fill="#666666" stroke="#666666" points="571.63,-817.93 581.93,-815.44 572.32,-810.96 571.63,-817.93"/>
</g>
<!-- Query -->
<g id="node20" class="node">
<title>Query</title>
<polygon fill="none" stroke="black" points="106,-1052.5 52,-1052.5 52,-1016.5 106,-1016.5 106,-1052.5"/>
<text text-anchor="middle" x="79" y="-1030.8" font-family="Times,serif" font-size="14.00">Query</text>
</g>
<!-- MultiHeadAttention -->
<g id="node24" class="node">
<title>MultiHeadAttention</title>
<polygon fill="none" stroke="black" points="406.5,-971.5 276.5,-971.5 276.5,-935.5 406.5,-935.5 406.5,-971.5"/>
<text text-anchor="middle" x="341.5" y="-949.8" font-family="Times,serif" font-size="14.00">MultiHeadAttention</text>
</g>
<!-- Query&#45;&gt;MultiHeadAttention -->
<g id="edge18" class="edge">
<title>Query&#45;&gt;MultiHeadAttention</title>
<path fill="none" stroke="#666666" d="M106.41,-1026.29C145.15,-1014.24 218.68,-991.38 273.03,-974.48"/>
<polygon fill="#666666" stroke="#666666" points="274.09,-977.81 282.6,-971.5 272.01,-971.13 274.09,-977.81"/>
</g>
<!-- Key -->
<g id="node21" class="node">
<title>Key</title>
<polygon fill="none" stroke="black" points="106,-998.5 52,-998.5 52,-962.5 106,-962.5 106,-998.5"/>
<text text-anchor="middle" x="79" y="-976.8" font-family="Times,serif" font-size="14.00">Key</text>
</g>
<!-- Key&#45;&gt;MultiHeadAttention -->
<g id="edge19" class="edge">
<title>Key&#45;&gt;MultiHeadAttention</title>
<path fill="none" stroke="#666666" d="M106.41,-977.76C143.54,-973.91 212.59,-966.76 266.12,-961.21"/>
<polygon fill="#666666" stroke="#666666" points="266.68,-964.67 276.26,-960.16 265.96,-957.71 266.68,-964.67"/>
</g>
<!-- Value -->
<g id="node22" class="node">
<title>Value</title>
<polygon fill="none" stroke="black" points="106,-944.5 52,-944.5 52,-908.5 106,-908.5 106,-944.5"/>
<text text-anchor="middle" x="79" y="-922.8" font-family="Times,serif" font-size="14.00">Value</text>
</g>
<!-- Value&#45;&gt;MultiHeadAttention -->
<g id="edge20" class="edge">
<title>Value&#45;&gt;MultiHeadAttention</title>
<path fill="none" stroke="#666666" d="M106.41,-929.24C143.54,-933.09 212.59,-940.24 266.12,-945.79"/>
<polygon fill="#666666" stroke="#666666" points="265.96,-949.29 276.26,-946.84 266.68,-942.33 265.96,-949.29"/>
</g>
<!-- AttentionMask -->
<g id="node23" class="node">
<title>AttentionMask</title>
<polygon fill="none" stroke="black" points="129,-890.5 29,-890.5 29,-854.5 129,-854.5 129,-890.5"/>
<text text-anchor="middle" x="79" y="-868.8" font-family="Times,serif" font-size="14.00">AttentionMask</text>
</g>
<!-- AttentionMask&#45;&gt;MultiHeadAttention -->
<g id="edge21" class="edge">
<title>AttentionMask&#45;&gt;MultiHeadAttention</title>
<path fill="none" stroke="#666666" d="M129.3,-887.83C169.84,-900.44 227.71,-918.43 272.63,-932.4"/>
<polygon fill="#666666" stroke="#666666" points="271.71,-935.77 282.3,-935.4 273.79,-929.09 271.71,-935.77"/>
</g>
<!-- x_symbol_representation -->
<g id="node25" class="node">
<title>x_symbol_representation</title>
<polygon fill="none" stroke="black" points="158,-1106.5 0,-1106.5 0,-1070.5 158,-1070.5 158,-1106.5"/>
<text text-anchor="middle" x="79" y="-1084.8" font-family="Times,serif" font-size="14.00">x_symbol_representation</text>
</g>
<!-- encode -->
<g id="node26" class="node">
<title>encode</title>
<polygon fill="none" stroke="black" points="369.5,-1106.5 313.5,-1106.5 313.5,-1070.5 369.5,-1070.5 369.5,-1106.5"/>
<text text-anchor="middle" x="341.5" y="-1084.8" font-family="Times,serif" font-size="14.00">encode</text>
</g>
<!-- x_symbol_representation&#45;&gt;encode -->
<g id="edge22" class="edge">
<title>x_symbol_representation&#45;&gt;encode</title>
<path fill="none" stroke="#666666" d="M158.16,-1088.5C206.24,-1088.5 265.66,-1088.5 303.33,-1088.5"/>
<polygon fill="#666666" stroke="#666666" points="303.35,-1092 313.35,-1088.5 303.35,-1085 303.35,-1092"/>
</g>
<!-- z_continuous_representation -->
<g id="node27" class="node">
<title>z_continuous_representation</title>
<polygon fill="none" stroke="black" points="702,-1106.5 525,-1106.5 525,-1070.5 702,-1070.5 702,-1106.5"/>
<text text-anchor="middle" x="613.5" y="-1084.8" font-family="Times,serif" font-size="14.00">z_continuous_representation</text>
</g>
<!-- encode&#45;&gt;z_continuous_representation -->
<g id="edge23" class="edge">
<title>encode&#45;&gt;z_continuous_representation</title>
<path fill="none" stroke="#666666" d="M369.62,-1088.5C403.41,-1088.5 463,-1088.5 514.69,-1088.5"/>
<polygon fill="#666666" stroke="#666666" points="514.91,-1092 524.91,-1088.5 514.91,-1085 514.91,-1092"/>
</g>
<!-- decode -->
<g id="node28" class="node">
<title>decode</title>
<polygon fill="none" stroke="black" points="794,-1106.5 738,-1106.5 738,-1070.5 794,-1070.5 794,-1106.5"/>
<text text-anchor="middle" x="766" y="-1084.8" font-family="Times,serif" font-size="14.00">decode</text>
</g>
<!-- z_continuous_representation&#45;&gt;decode -->
<g id="edge24" class="edge">
<title>z_continuous_representation&#45;&gt;decode</title>
<path fill="none" stroke="#666666" d="M702.05,-1088.5C710.94,-1088.5 719.59,-1088.5 727.5,-1088.5"/>
<polygon fill="#666666" stroke="#666666" points="727.77,-1092 737.77,-1088.5 727.77,-1085 727.77,-1092"/>
</g>
<!-- y_symbol_representation -->
<g id="node29" class="node">
<title>y_symbol_representation</title>
<polygon fill="none" stroke="black" points="988,-1106.5 830,-1106.5 830,-1070.5 988,-1070.5 988,-1106.5"/>
<text text-anchor="middle" x="909" y="-1084.8" font-family="Times,serif" font-size="14.00">y_symbol_representation</text>
</g>
<!-- decode&#45;&gt;y_symbol_representation -->
<g id="edge25" class="edge">
<title>decode&#45;&gt;y_symbol_representation</title>
<path fill="none" stroke="#666666" d="M794.19,-1088.5C801.83,-1088.5 810.57,-1088.5 819.75,-1088.5"/>
<polygon fill="#666666" stroke="#666666" points="819.85,-1092 829.85,-1088.5 819.85,-1085 819.85,-1092"/>
</g>
<!-- attention -->
<g id="node30" class="node">
<title>attention</title>
<polygon fill="none" stroke="black" points="111.5,-1187.5 46.5,-1187.5 46.5,-1151.5 111.5,-1151.5 111.5,-1187.5"/>
<text text-anchor="middle" x="79" y="-1165.8" font-family="Times,serif" font-size="14.00">attention</text>
</g>
<!-- additive_attention -->
<g id="node31" class="node">
<title>additive_attention</title>
<polygon fill="none" stroke="black" points="400.5,-1214.5 282.5,-1214.5 282.5,-1178.5 400.5,-1178.5 400.5,-1214.5"/>
<text text-anchor="middle" x="341.5" y="-1192.8" font-family="Times,serif" font-size="14.00">additive_attention</text>
</g>
<!-- attention&#45;&gt;additive_attention -->
<g id="edge26" class="edge">
<title>attention&#45;&gt;additive_attention</title>
<path fill="none" stroke="#666666" d="M111.68,-1172.78C151.34,-1176.89 220.37,-1184.05 272.26,-1189.43"/>
<polygon fill="#666666" stroke="#666666" points="272.09,-1192.93 282.4,-1190.48 272.81,-1185.97 272.09,-1192.93"/>
</g>
<!-- dot_product_attention -->
<g id="node32" class="node">
<title>dot_product_attention</title>
<polygon fill="none" stroke="black" points="411.5,-1160.5 271.5,-1160.5 271.5,-1124.5 411.5,-1124.5 411.5,-1160.5"/>
<text text-anchor="middle" x="341.5" y="-1138.8" font-family="Times,serif" font-size="14.00">dot_product_attention</text>
</g>
<!-- attention&#45;&gt;dot_product_attention -->
<g id="edge27" class="edge">
<title>attention&#45;&gt;dot_product_attention</title>
<path fill="none" stroke="#666666" d="M111.68,-1166.22C148.6,-1162.39 210.95,-1155.93 261.25,-1150.71"/>
<polygon fill="#666666" stroke="#666666" points="261.88,-1154.17 271.46,-1149.66 261.15,-1147.21 261.88,-1154.17"/>
</g>
</g>
</svg>
