<?xml version="1.0" encoding="UTF-8" standalone="no"?>
<!DOCTYPE svg PUBLIC "-//W3C//DTD SVG 1.1//EN"
 "http://www.w3.org/Graphics/SVG/1.1/DTD/svg11.dtd">
<!-- Generated by graphviz version 2.40.1 (20161225.0304)
 -->
<!-- Title: async_read Pages: 1 -->
<svg width="1409pt" height="219pt"
 viewBox="0.00 0.00 1408.50 219.00" xmlns="http://www.w3.org/2000/svg" xmlns:xlink="http://www.w3.org/1999/xlink">
<g id="graph0" class="graph" transform="scale(1 1) rotate(0) translate(4 215)">
<title>async_read</title>
<polygon fill="#ffffff" stroke="transparent" points="-4,4 -4,-215 1404.5,-215 1404.5,4 -4,4"/>
<g id="clust1" class="cluster">
<title>cluster_net</title>
<polygon fill="none" stroke="#000000" points="8,-121 8,-203 584,-203 584,-121 8,-121"/>
<text text-anchor="middle" x="296" y="-183" font-family="Times,serif" font-size="20.00" fill="#000000">net</text>
</g>
<g id="clust2" class="cluster">
<title>cluster_io</title>
<polygon fill="none" stroke="#000000" points="592,-121 592,-203 1013,-203 1013,-121 592,-121"/>
<text text-anchor="middle" x="802.5" y="-183" font-family="Times,serif" font-size="20.00" fill="#000000">io</text>
</g>
<g id="clust3" class="cluster">
<title>cluster_fs</title>
<polygon fill="none" stroke="#000000" points="1021,-121 1021,-203 1247,-203 1247,-121 1021,-121"/>
<text text-anchor="middle" x="1134" y="-183" font-family="Times,serif" font-size="20.00" fill="#000000">fs</text>
</g>
<!-- AsyncRead -->
<g id="node1" class="node">
<title>AsyncRead</title>
<polygon fill="none" stroke="#000000" points="778.5,-.5 778.5,-92.5 949.5,-92.5 949.5,-.5 778.5,-.5"/>
<text text-anchor="middle" x="864" y="-77.3" font-family="Times,serif" font-size="14.00" fill="#000000">AsyncRead</text>
<polyline fill="none" stroke="#000000" points="778.5,-69.5 949.5,-69.5 "/>
<text text-anchor="start" x="786.5" y="-54.3" font-family="Times,serif" font-size="14.00" fill="#000000">prepare_uninitialized_buffer</text>
<polyline fill="none" stroke="#000000" points="778.5,-46.5 949.5,-46.5 "/>
<text text-anchor="start" x="786.5" y="-31.3" font-family="Times,serif" font-size="14.00" fill="#000000">poll_read</text>
<polyline fill="none" stroke="#000000" points="778.5,-23.5 949.5,-23.5 "/>
<text text-anchor="start" x="786.5" y="-8.3" font-family="Times,serif" font-size="14.00" fill="#000000">poll_read_buf</text>
</g>
<!-- TcpStream -->
<g id="node2" class="node">
<title>TcpStream</title>
<polygon fill="none" stroke="#000000" points="575.5,-165 498.5,-165 498.5,-129 575.5,-129 575.5,-165"/>
<text text-anchor="middle" x="537" y="-143.3" font-family="Times,serif" font-size="14.00" fill="#000000">TcpStream</text>
</g>
<!-- TcpStream&#45;&gt;AsyncRead -->
<g id="edge4" class="edge">
<title>TcpStream&#45;&gt;AsyncRead</title>
<path fill="none" stroke="#000000" d="M570.0147,-128.9194C575.9089,-126.0533 582.0643,-123.2856 588,-121 646.5368,-98.4604 714.5444,-80.0182 768.4047,-67.1212"/>
<polygon fill="#000000" stroke="#000000" points="769.3683,-70.4899 778.2915,-64.7778 767.7538,-63.6786 769.3683,-70.4899"/>
</g>
<!-- UnixStream -->
<g id="node3" class="node">
<title>UnixStream</title>
<polygon fill="none" stroke="#000000" points="480.5,-165 397.5,-165 397.5,-129 480.5,-129 480.5,-165"/>
<text text-anchor="middle" x="439" y="-143.3" font-family="Times,serif" font-size="14.00" fill="#000000">UnixStream</text>
</g>
<!-- UnixStream&#45;&gt;AsyncRead -->
<g id="edge5" class="edge">
<title>UnixStream&#45;&gt;AsyncRead</title>
<path fill="none" stroke="#000000" d="M471.0622,-128.9804C477.2181,-126.0045 483.7093,-123.1832 490,-121 581.8838,-89.112 691.4709,-69.2888 768.1863,-58.1845"/>
<polygon fill="#000000" stroke="#000000" points="768.9097,-61.6168 778.316,-56.7412 767.9223,-54.6868 768.9097,-61.6168"/>
</g>
<!-- ReadHalf -->
<g id="node4" class="node">
<title>ReadHalf</title>
<polygon fill="none" stroke="#000000" points="379,-165 311,-165 311,-129 379,-129 379,-165"/>
<text text-anchor="middle" x="345" y="-143.3" font-family="Times,serif" font-size="14.00" fill="#000000">ReadHalf</text>
</g>
<!-- ReadHalf&#45;&gt;AsyncRead -->
<g id="edge6" class="edge">
<title>ReadHalf&#45;&gt;AsyncRead</title>
<path fill="none" stroke="#000000" d="M372.148,-128.827C377.5548,-125.8285 383.3212,-123.0385 389,-121 515.3395,-75.6482 670.3842,-57.8762 768.2194,-50.9301"/>
<polygon fill="#000000" stroke="#000000" points="768.6506,-54.4088 778.3876,-50.2325 768.1715,-47.4252 768.6506,-54.4088"/>
</g>
<!-- ChildStdout -->
<g id="node5" class="node">
<title>ChildStdout</title>
<polygon fill="none" stroke="#000000" points="293,-165 211,-165 211,-129 293,-129 293,-165"/>
<text text-anchor="middle" x="252" y="-143.3" font-family="Times,serif" font-size="14.00" fill="#000000">ChildStdout</text>
</g>
<!-- ChildStdout&#45;&gt;AsyncRead -->
<g id="edge7" class="edge">
<title>ChildStdout&#45;&gt;AsyncRead</title>
<path fill="none" stroke="#000000" d="M282.7552,-128.9002C288.962,-125.8567 295.5619,-123.0315 302,-121 386.7018,-94.2728 631.3104,-68.2019 768.2524,-55.1465"/>
<polygon fill="#000000" stroke="#000000" points="768.7021,-58.6196 778.3269,-54.191 768.0411,-51.6509 768.7021,-58.6196"/>
</g>
<!-- ChildStdin -->
<g id="node6" class="node">
<title>ChildStdin</title>
<polygon fill="none" stroke="#000000" points="192.5,-165 117.5,-165 117.5,-129 192.5,-129 192.5,-165"/>
<text text-anchor="middle" x="155" y="-143.3" font-family="Times,serif" font-size="14.00" fill="#000000">ChildStdin</text>
</g>
<!-- ChildStdin&#45;&gt;AsyncRead -->
<g id="edge8" class="edge">
<title>ChildStdin&#45;&gt;AsyncRead</title>
<path fill="none" stroke="#000000" d="M183.5306,-128.9093C189.4489,-125.8256 195.781,-122.9831 202,-121 305.0377,-88.1443 610.8327,-63.5335 768.149,-52.6559"/>
<polygon fill="#000000" stroke="#000000" points="768.556,-56.1363 778.2927,-51.9594 768.0764,-49.1528 768.556,-56.1363"/>
</g>
<!-- PollEvented -->
<g id="node7" class="node">
<title>PollEvented</title>
<polygon fill="none" stroke="#000000" points="99.5,-165 16.5,-165 16.5,-129 99.5,-129 99.5,-165"/>
<text text-anchor="middle" x="58" y="-143.3" font-family="Times,serif" font-size="14.00" fill="#000000">PollEvented</text>
</g>
<!-- PollEvented&#45;&gt;AsyncRead -->
<g id="edge9" class="edge">
<title>PollEvented&#45;&gt;AsyncRead</title>
<path fill="none" stroke="#000000" d="M88.7979,-128.9976C95.2897,-125.8664 102.2282,-122.9833 109,-121 230.2234,-85.4965 593.6189,-61.3731 768.2496,-51.5071"/>
<polygon fill="#000000" stroke="#000000" points="768.6693,-54.9892 778.4576,-50.9345 768.2772,-48.0001 768.6693,-54.9892"/>
</g>
<!-- Take -->
<g id="node8" class="node">
<title>Take</title>
<polygon fill="none" stroke="#000000" points="1005,-165 951,-165 951,-129 1005,-129 1005,-165"/>
<text text-anchor="middle" x="978" y="-143.3" font-family="Times,serif" font-size="14.00" fill="#000000">Take</text>
</g>
<!-- Take&#45;&gt;AsyncRead -->
<g id="edge10" class="edge">
<title>Take&#45;&gt;AsyncRead</title>
<path fill="none" stroke="#000000" d="M957.3555,-128.8002C947.7911,-120.3685 935.8829,-109.8705 923.8063,-99.224"/>
<polygon fill="#000000" stroke="#000000" points="926.1005,-96.5806 916.2847,-92.5931 921.4714,-101.8315 926.1005,-96.5806"/>
</g>
<!-- Chain -->
<g id="node9" class="node">
<title>Chain</title>
<polygon fill="none" stroke="#000000" points="933,-165 879,-165 879,-129 933,-129 933,-165"/>
<text text-anchor="middle" x="906" y="-143.3" font-family="Times,serif" font-size="14.00" fill="#000000">Chain</text>
</g>
<!-- Chain&#45;&gt;AsyncRead -->
<g id="edge11" class="edge">
<title>Chain&#45;&gt;AsyncRead</title>
<path fill="none" stroke="#000000" d="M898.2966,-128.5668C895.135,-121.0017 891.2905,-111.8023 887.3341,-102.3351"/>
<polygon fill="#000000" stroke="#000000" points="890.4468,-100.7064 883.3615,-92.8293 883.9881,-103.4056 890.4468,-100.7064"/>
</g>
<!-- BufReader -->
<g id="node10" class="node">
<title>BufReader</title>
<polygon fill="none" stroke="#000000" points="860.5,-165 785.5,-165 785.5,-129 860.5,-129 860.5,-165"/>
<text text-anchor="middle" x="823" y="-143.3" font-family="Times,serif" font-size="14.00" fill="#000000">BufReader</text>
</g>
<!-- BufReader&#45;&gt;AsyncRead -->
<g id="edge12" class="edge">
<title>BufReader&#45;&gt;AsyncRead</title>
<path fill="none" stroke="#000000" d="M830.52,-128.5668C833.6063,-121.0017 837.3593,-111.8023 841.2215,-102.3351"/>
<polygon fill="#000000" stroke="#000000" points="844.5628,-103.4105 845.0995,-92.8293 838.0814,-100.7663 844.5628,-103.4105"/>
</g>
<!-- BufWriter -->
<g id="node11" class="node">
<title>BufWriter</title>
<polygon fill="none" stroke="#000000" points="767.5,-165 694.5,-165 694.5,-129 767.5,-129 767.5,-165"/>
<text text-anchor="middle" x="731" y="-143.3" font-family="Times,serif" font-size="14.00" fill="#000000">BufWriter</text>
</g>
<!-- BufStream -->
<g id="node12" class="node">
<title>BufStream</title>
<polygon fill="none" stroke="#000000" points="676,-165 600,-165 600,-129 676,-129 676,-165"/>
<text text-anchor="middle" x="638" y="-143.3" font-family="Times,serif" font-size="14.00" fill="#000000">BufStream</text>
</g>
<!-- Blocking -->
<g id="node13" class="node">
<title>Blocking</title>
<polygon fill="none" stroke="#000000" points="1239,-165 1173,-165 1173,-129 1239,-129 1239,-165"/>
<text text-anchor="middle" x="1206" y="-143.3" font-family="Times,serif" font-size="14.00" fill="#000000">Blocking</text>
</g>
<!-- Blocking&#45;&gt;AsyncRead -->
<g id="edge1" class="edge">
<title>Blocking&#45;&gt;AsyncRead</title>
<path fill="none" stroke="#000000" d="M1179.5546,-128.9259C1174.5337,-125.991 1169.2157,-123.1982 1164,-121 1098.1828,-93.2615 1019.7161,-74.2287 959.5416,-62.3469"/>
<polygon fill="#000000" stroke="#000000" points="960.1512,-58.9 949.6672,-60.4288 958.8163,-65.7715 960.1512,-58.9"/>
</g>
<!-- File -->
<g id="node14" class="node">
<title>File</title>
<polygon fill="none" stroke="#000000" points="1155,-165 1101,-165 1101,-129 1155,-129 1155,-165"/>
<text text-anchor="middle" x="1128" y="-143.3" font-family="Times,serif" font-size="14.00" fill="#000000">File</text>
</g>
<!-- File&#45;&gt;AsyncRead -->
<g id="edge2" class="edge">
<title>File&#45;&gt;AsyncRead</title>
<path fill="none" stroke="#000000" d="M1105.0461,-128.8382C1100.8465,-125.9812 1096.3977,-123.2375 1092,-121 1050.25,-99.7582 1001.1687,-82.7996 959.26,-70.4615"/>
<polygon fill="#000000" stroke="#000000" points="960.1831,-67.0851 949.604,-67.6626 958.2342,-73.8083 960.1831,-67.0851"/>
</g>
<!-- Stdin -->
<g id="node15" class="node">
<title>Stdin</title>
<polygon fill="none" stroke="#000000" points="1083,-165 1029,-165 1029,-129 1083,-129 1083,-165"/>
<text text-anchor="middle" x="1056" y="-143.3" font-family="Times,serif" font-size="14.00" fill="#000000">Stdin</text>
</g>
<!-- Stdin&#45;&gt;AsyncRead -->
<g id="edge3" class="edge">
<title>Stdin&#45;&gt;AsyncRead</title>
<path fill="none" stroke="#000000" d="M1029.8716,-128.8857C1025.6283,-126.1468 1021.2358,-123.4284 1017,-121 998.5244,-110.4076 978.3227,-99.8736 958.8318,-90.2049"/>
<polygon fill="#000000" stroke="#000000" points="960.1525,-86.954 949.6345,-85.6795 957.062,-93.2349 960.1525,-86.954"/>
</g>
<!-- u8_array -->
<g id="node16" class="node">
<title>u8_array</title>
<polygon fill="none" stroke="#000000" points="1311,-165 1257,-165 1257,-129 1311,-129 1311,-165"/>
<text text-anchor="middle" x="1284" y="-143.3" font-family="Times,serif" font-size="14.00" fill="#000000">&amp;[u8]</text>
</g>
<!-- u8_array&#45;&gt;AsyncRead -->
<g id="edge13" class="edge">
<title>u8_array&#45;&gt;AsyncRead</title>
<path fill="none" stroke="#000000" d="M1264.0463,-128.8648C1259.9536,-125.8629 1255.5108,-123.0619 1251,-121 1157.6072,-78.3101 1040.7087,-60.0693 959.9636,-52.283"/>
<polygon fill="#000000" stroke="#000000" points="960.087,-48.7795 949.8063,-51.3402 959.44,-55.7496 960.087,-48.7795"/>
</g>
<!-- io_cursor -->
<g id="node17" class="node">
<title>io_cursor</title>
<polygon fill="none" stroke="#000000" points="1400.5,-165 1329.5,-165 1329.5,-129 1400.5,-129 1400.5,-165"/>
<text text-anchor="middle" x="1365" y="-143.3" font-family="Times,serif" font-size="14.00" fill="#000000">io::Curosr</text>
</g>
<!-- io_cursor&#45;&gt;AsyncRead -->
<g id="edge14" class="edge">
<title>io_cursor&#45;&gt;AsyncRead</title>
<path fill="none" stroke="#000000" d="M1337.1871,-128.8667C1331.6618,-125.8646 1325.7782,-123.0631 1320,-121 1200.2789,-78.2547 1054.0364,-59.8823 959.9875,-52.0877"/>
<polygon fill="#000000" stroke="#000000" points="960.1672,-48.5909 949.9186,-51.2771 959.6054,-55.5683 960.1672,-48.5909"/>
</g>
</g>
</svg>
