<?xml version="1.0" encoding="UTF-8" standalone="no"?>
<!DOCTYPE svg PUBLIC "-//W3C//DTD SVG 1.1//EN"
 "http://www.w3.org/Graphics/SVG/1.1/DTD/svg11.dtd">
<!-- Generated by graphviz version 2.40.1 (20161225.0304)
 -->
<!-- Title: task_event_detail Pages: 1 -->
<svg width="833pt" height="1661pt"
 viewBox="0.00 0.00 833.00 1661.00" xmlns="http://www.w3.org/2000/svg" xmlns:xlink="http://www.w3.org/1999/xlink">
<g id="graph0" class="graph" transform="scale(1 1) rotate(0) translate(4 1657)">
<title>task_event_detail</title>
<polygon fill="#ffffff" stroke="transparent" points="-4,4 -4,-1657 829,-1657 829,4 -4,4"/>
<g id="clust1" class="cluster">
<title>cluster_TcpListner</title>
<path fill="none" stroke="#000000" d="M20,-1389C20,-1389 114,-1389 114,-1389 120,-1389 126,-1395 126,-1401 126,-1401 126,-1633 126,-1633 126,-1639 120,-1645 114,-1645 114,-1645 20,-1645 20,-1645 14,-1645 8,-1639 8,-1633 8,-1633 8,-1401 8,-1401 8,-1395 14,-1389 20,-1389"/>
<text text-anchor="middle" x="67" y="-1625" font-family="Times,serif" font-size="20.00" fill="#000000">TcpListner</text>
</g>
<g id="clust2" class="cluster">
<title>cluster_TcpStream</title>
<path fill="none" stroke="#000000" d="M178,-1316C178,-1316 474,-1316 474,-1316 480,-1316 486,-1322 486,-1328 486,-1328 486,-1532 486,-1532 486,-1538 480,-1544 474,-1544 474,-1544 178,-1544 178,-1544 172,-1544 166,-1538 166,-1532 166,-1532 166,-1328 166,-1328 166,-1322 172,-1316 178,-1316"/>
<text text-anchor="middle" x="326" y="-1524" font-family="Times,serif" font-size="20.00" fill="#000000">TcpStream</text>
</g>
<g id="clust3" class="cluster">
<title>cluster_PollEvented</title>
<path fill="none" stroke="#000000" d="M94,-902C94,-902 390,-902 390,-902 396,-902 402,-908 402,-914 402,-914 402,-1285 402,-1285 402,-1291 396,-1297 390,-1297 390,-1297 94,-1297 94,-1297 88,-1297 82,-1291 82,-1285 82,-1285 82,-914 82,-914 82,-908 88,-902 94,-902"/>
<text text-anchor="middle" x="242" y="-1277" font-family="Times,serif" font-size="20.00" fill="#000000">pollEvented</text>
</g>
<g id="clust5" class="cluster">
<title>cluster_Registration</title>
<path fill="none" stroke="#000000" d="M79,-474C79,-474 469,-474 469,-474 475,-474 481,-480 481,-486 481,-486 481,-871 481,-871 481,-877 475,-883 469,-883 469,-883 79,-883 79,-883 73,-883 67,-877 67,-871 67,-871 67,-486 67,-486 67,-480 73,-474 79,-474"/>
<text text-anchor="middle" x="274" y="-863" font-family="Times,serif" font-size="20.00" fill="#000000">Registration</text>
</g>
<g id="clust7" class="cluster">
<title>cluster_inner</title>
<path fill="none" stroke="#000000" d="M124,-482C124,-482 246,-482 246,-482 252,-482 258,-488 258,-494 258,-494 258,-548 258,-548 258,-554 252,-560 246,-560 246,-560 124,-560 124,-560 118,-560 112,-554 112,-548 112,-548 112,-494 112,-494 112,-488 118,-482 124,-482"/>
<text text-anchor="middle" x="185" y="-543.2" font-family="Times,serif" font-size="16.00" fill="#000000">Inner</text>
</g>
<g id="clust8" class="cluster">
<title>cluster_Reactor</title>
<path fill="none" stroke="#000000" d="M501,-208C501,-208 805,-208 805,-208 811,-208 817,-214 817,-220 817,-220 817,-1083 817,-1083 817,-1089 811,-1095 805,-1095 805,-1095 501,-1095 501,-1095 495,-1095 489,-1089 489,-1083 489,-1083 489,-220 489,-220 489,-214 495,-208 501,-208"/>
<text text-anchor="middle" x="653" y="-1075" font-family="Times,serif" font-size="20.00" fill="#000000">Registration</text>
</g>
<g id="clust9" class="cluster">
<title>cluster_Reactor_Inner</title>
<path fill="none" stroke="#000000" d="M509,-216C509,-216 797,-216 797,-216 803,-216 809,-222 809,-228 809,-228 809,-770 809,-770 809,-776 803,-782 797,-782 797,-782 509,-782 509,-782 503,-782 497,-776 497,-770 497,-770 497,-228 497,-228 497,-222 503,-216 509,-216"/>
<text text-anchor="middle" x="653" y="-765.2" font-family="Times,serif" font-size="16.00" fill="#000000">Inner</text>
</g>
<g id="clust12" class="cluster">
<title>cluster_mio</title>
<path fill="none" stroke="#000000" d="M731,-1114C731,-1114 777,-1114 777,-1114 783,-1114 789,-1120 789,-1126 789,-1126 789,-1184 789,-1184 789,-1190 783,-1196 777,-1196 777,-1196 731,-1196 731,-1196 725,-1196 719,-1190 719,-1184 719,-1184 719,-1126 719,-1126 719,-1120 725,-1114 731,-1114"/>
<text text-anchor="middle" x="754" y="-1176" font-family="Times,serif" font-size="20.00" fill="#000000">mio</text>
</g>
<g id="clust13" class="cluster">
<title>cluster_scheduleio</title>
<path fill="none" stroke="#000000" d="M680,-109C680,-109 798,-109 798,-109 804,-109 810,-115 810,-121 810,-121 810,-179 810,-179 810,-185 804,-191 798,-191 798,-191 680,-191 680,-191 674,-191 668,-185 668,-179 668,-179 668,-121 668,-121 668,-115 674,-109 680,-109"/>
<text text-anchor="middle" x="739" y="-171" font-family="Times,serif" font-size="20.00" fill="#000000">scheduleio</text>
</g>
<g id="clust14" class="cluster">
<title>cluster_AtomicWaker</title>
<path fill="none" stroke="#000000" d="M686,-8C686,-8 791,-8 791,-8 797,-8 803,-14 803,-20 803,-20 803,-78 803,-78 803,-84 797,-90 791,-90 791,-90 686,-90 686,-90 680,-90 674,-84 674,-78 674,-78 674,-20 674,-20 674,-14 680,-8 686,-8"/>
<text text-anchor="middle" x="738.5" y="-70" font-family="Times,serif" font-size="20.00" fill="#000000">AtomicWaker</text>
</g>
<!-- poll_accept -->
<g id="node1" class="node">
<title>poll_accept</title>
<polygon fill="none" stroke="#000000" points="115.5,-1607 36.5,-1607 36.5,-1571 115.5,-1571 115.5,-1607"/>
<text text-anchor="middle" x="76" y="-1585.3" font-family="Times,serif" font-size="14.00" fill="#000000">poll_accept</text>
</g>
<!-- poll_accept_std -->
<g id="node2" class="node">
<title>poll_accept_std</title>
<polygon fill="none" stroke="#000000" points="117.5,-1433 16.5,-1433 16.5,-1397 117.5,-1397 117.5,-1433"/>
<text text-anchor="middle" x="67" y="-1411.3" font-family="Times,serif" font-size="14.00" fill="#000000">poll_accept_std</text>
</g>
<!-- poll_accept&#45;&gt;poll_accept_std -->
<g id="edge1" class="edge">
<title>poll_accept&#45;&gt;poll_accept_std</title>
<path fill="none" stroke="#000000" d="M75.0539,-1570.7078C73.4833,-1540.3436 70.327,-1479.3226 68.4662,-1443.3464"/>
<polygon fill="#000000" stroke="#000000" points="71.9454,-1442.8529 67.9335,-1433.0471 64.9548,-1443.2146 71.9454,-1442.8529"/>
</g>
<!-- TcpStream_new -->
<g id="node3" class="node">
<title>TcpStream_new</title>
<polygon fill="none" stroke="#000000" points="228,-1506 174,-1506 174,-1470 228,-1470 228,-1506"/>
<text text-anchor="middle" x="201" y="-1484.3" font-family="Times,serif" font-size="14.00" fill="#000000">new</text>
</g>
<!-- poll_accept&#45;&gt;TcpStream_new -->
<g id="edge28" class="edge">
<title>poll_accept&#45;&gt;TcpStream_new</title>
<path fill="none" stroke="#000000" d="M98.3475,-1570.9432C118.4863,-1554.6711 148.2704,-1530.6055 170.5765,-1512.5822"/>
<polygon fill="#000000" stroke="#000000" points="172.846,-1515.2482 178.4245,-1506.241 168.4466,-1509.8034 172.846,-1515.2482"/>
</g>
<!-- poll_read_ready -->
<g id="node11" class="node">
<title>poll_read_ready</title>
<polygon fill="none" stroke="#000000" points="394,-1259 290,-1259 290,-1223 394,-1223 394,-1259"/>
<text text-anchor="middle" x="342" y="-1237.3" font-family="Times,serif" font-size="14.00" fill="#000000">poll_read_ready</text>
</g>
<!-- poll_accept_std&#45;&gt;poll_read_ready -->
<g id="edge22" class="edge">
<title>poll_accept_std&#45;&gt;poll_read_ready</title>
<path fill="none" stroke="#000000" d="M78.6936,-1396.9507C94.5869,-1374.0481 125.2773,-1335.2197 162,-1316 209.4526,-1291.1646 232.785,-1320.3207 281,-1297 295.9317,-1289.7778 309.7945,-1277.691 320.519,-1266.5913"/>
<polygon fill="#000000" stroke="#000000" points="323.1942,-1268.8535 327.4169,-1259.1365 318.0563,-1264.0994 323.1942,-1268.8535"/>
</g>
<!-- PollEvented_new -->
<g id="node10" class="node">
<title>PollEvented_new</title>
<polygon fill="none" stroke="#000000" points="144,-1259 90,-1259 90,-1223 144,-1223 144,-1259"/>
<text text-anchor="middle" x="117" y="-1237.3" font-family="Times,serif" font-size="14.00" fill="#000000">new</text>
</g>
<!-- TcpStream_new&#45;&gt;PollEvented_new -->
<g id="edge29" class="edge">
<title>TcpStream_new&#45;&gt;PollEvented_new</title>
<path fill="none" stroke="#000000" d="M194.8233,-1469.8375C180.2903,-1427.1037 143.8541,-1319.9637 126.4897,-1268.9042"/>
<polygon fill="#000000" stroke="#000000" points="129.7192,-1267.5297 123.1858,-1259.1891 123.0919,-1269.7835 129.7192,-1267.5297"/>
</g>
<!-- peek -->
<g id="node4" class="node">
<title>peek</title>
<polygon fill="none" stroke="#000000" points="476,-1506 422,-1506 422,-1470 476,-1470 476,-1506"/>
<text text-anchor="middle" x="449" y="-1484.3" font-family="Times,serif" font-size="14.00" fill="#000000">peek</text>
</g>
<!-- poll_peek -->
<g id="node5" class="node">
<title>poll_peek</title>
<polygon fill="none" stroke="#000000" points="478,-1360 408,-1360 408,-1324 478,-1324 478,-1360"/>
<text text-anchor="middle" x="443" y="-1338.3" font-family="Times,serif" font-size="14.00" fill="#000000">poll_peek</text>
</g>
<!-- peek&#45;&gt;poll_peek -->
<g id="edge2" class="edge">
<title>peek&#45;&gt;poll_peek</title>
<path fill="none" stroke="#000000" d="M448.2522,-1469.8042C447.2282,-1444.8868 445.3792,-1399.8938 444.1707,-1370.4877"/>
<polygon fill="#000000" stroke="#000000" points="447.665,-1370.2729 443.7572,-1360.4251 440.6709,-1370.5604 447.665,-1370.2729"/>
</g>
<!-- poll_peek&#45;&gt;poll_read_ready -->
<g id="edge23" class="edge">
<title>poll_peek&#45;&gt;poll_read_ready</title>
<path fill="none" stroke="#000000" d="M424.9432,-1323.9432C408.9566,-1307.9566 385.4475,-1284.4475 367.5363,-1266.5363"/>
<polygon fill="#000000" stroke="#000000" points="369.787,-1263.8372 360.241,-1259.241 364.8372,-1268.787 369.787,-1263.8372"/>
</g>
<!-- poll_read -->
<g id="node6" class="node">
<title>poll_read</title>
<polygon fill="none" stroke="#000000" points="404,-1506 336,-1506 336,-1470 404,-1470 404,-1506"/>
<text text-anchor="middle" x="370" y="-1484.3" font-family="Times,serif" font-size="14.00" fill="#000000">poll_read</text>
</g>
<!-- poll_read_priv -->
<g id="node7" class="node">
<title>poll_read_priv</title>
<polygon fill="none" stroke="#000000" points="390,-1360 294,-1360 294,-1324 390,-1324 390,-1360"/>
<text text-anchor="middle" x="342" y="-1338.3" font-family="Times,serif" font-size="14.00" fill="#000000">poll_read_priv</text>
</g>
<!-- poll_read&#45;&gt;poll_read_priv -->
<g id="edge3" class="edge">
<title>poll_read&#45;&gt;poll_read_priv</title>
<path fill="none" stroke="#000000" d="M366.5104,-1469.8042C361.7317,-1444.8868 353.1029,-1399.8938 347.4634,-1370.4877"/>
<polygon fill="#000000" stroke="#000000" points="350.8545,-1369.5869 345.5336,-1360.4251 343.9798,-1370.9054 350.8545,-1369.5869"/>
</g>
<!-- poll_read_priv&#45;&gt;poll_read_ready -->
<g id="edge24" class="edge">
<title>poll_read_priv&#45;&gt;poll_read_ready</title>
<path fill="none" stroke="#000000" d="M342,-1323.9432C342,-1308.813 342,-1286.9448 342,-1269.461"/>
<polygon fill="#000000" stroke="#000000" points="345.5001,-1269.2409 342,-1259.241 338.5001,-1269.241 345.5001,-1269.2409"/>
</g>
<!-- poll_write -->
<g id="node8" class="node">
<title>poll_write</title>
<polygon fill="none" stroke="#000000" points="318,-1506 246,-1506 246,-1470 318,-1470 318,-1506"/>
<text text-anchor="middle" x="282" y="-1484.3" font-family="Times,serif" font-size="14.00" fill="#000000">poll_write</text>
</g>
<!-- poll_write_priv -->
<g id="node9" class="node">
<title>poll_write_priv</title>
<polygon fill="none" stroke="#000000" points="275.5,-1360 174.5,-1360 174.5,-1324 275.5,-1324 275.5,-1360"/>
<text text-anchor="middle" x="225" y="-1338.3" font-family="Times,serif" font-size="14.00" fill="#000000">poll_write_priv</text>
</g>
<!-- poll_write&#45;&gt;poll_write_priv -->
<g id="edge4" class="edge">
<title>poll_write&#45;&gt;poll_write_priv</title>
<path fill="none" stroke="#000000" d="M274.8962,-1469.8042C265.1255,-1444.7775 247.4481,-1399.4988 235.9712,-1370.1017"/>
<polygon fill="#000000" stroke="#000000" points="239.0905,-1368.4675 232.1934,-1360.4251 232.5699,-1371.0133 239.0905,-1368.4675"/>
</g>
<!-- poll_write_ready -->
<g id="node12" class="node">
<title>poll_write_ready</title>
<polygon fill="none" stroke="#000000" points="271.5,-1259 162.5,-1259 162.5,-1223 271.5,-1223 271.5,-1259"/>
<text text-anchor="middle" x="217" y="-1237.3" font-family="Times,serif" font-size="14.00" fill="#000000">poll_write_ready</text>
</g>
<!-- poll_write_priv&#45;&gt;poll_write_ready -->
<g id="edge26" class="edge">
<title>poll_write_priv&#45;&gt;poll_write_ready</title>
<path fill="none" stroke="#000000" d="M223.5698,-1323.9432C222.3713,-1308.813 220.6392,-1286.9448 219.2543,-1269.461"/>
<polygon fill="#000000" stroke="#000000" points="222.7236,-1268.9334 218.4448,-1259.241 215.7455,-1269.4862 222.7236,-1268.9334"/>
</g>
<!-- Registration_new -->
<g id="node15" class="node">
<title>Registration_new</title>
<polygon fill="none" stroke="#000000" points="223,-845 169,-845 169,-809 223,-809 223,-845"/>
<text text-anchor="middle" x="196" y="-823.3" font-family="Times,serif" font-size="14.00" fill="#000000">new</text>
</g>
<!-- PollEvented_new&#45;&gt;Registration_new -->
<g id="edge30" class="edge">
<title>PollEvented_new&#45;&gt;Registration_new</title>
<path fill="none" stroke="#000000" d="M144.3462,-1227.3416C147.5798,-1225.8322 150.8496,-1224.3535 154,-1223 185.4008,-1209.5097 203.2472,-1221.5012 226,-1196 243.0798,-1176.857 240,-1165.6549 240,-1140 240,-1140 240,-1140 240,-928 240,-901.2514 226.8687,-873.5858 214.9533,-853.9879"/>
<polygon fill="#000000" stroke="#000000" points="217.7602,-851.8794 209.4405,-845.3194 211.8535,-855.6358 217.7602,-851.8794"/>
</g>
<!-- poll_ready -->
<g id="node13" class="node">
<title>poll_ready</title>
<polygon fill="none" stroke="#000000" points="168.5,-1057 89.5,-1057 89.5,-1021 168.5,-1021 168.5,-1057"/>
<text text-anchor="middle" x="129" y="-1035.3" font-family="Times,serif" font-size="14.00" fill="#000000">poll_ready!</text>
</g>
<!-- poll_read_ready&#45;&gt;poll_ready -->
<g id="edge5" class="edge">
<title>poll_read_ready&#45;&gt;poll_ready</title>
<path fill="none" stroke="#000000" d="M322.722,-1222.7176C284.4662,-1186.4374 198.9058,-1105.2956 155.4363,-1064.0711"/>
<polygon fill="#000000" stroke="#000000" points="157.7454,-1061.4372 148.081,-1057.0956 152.9285,-1066.5164 157.7454,-1061.4372"/>
<text text-anchor="middle" x="308.5" y="-1136.3" font-family="Times,serif" font-size="14.00" fill="#000000">注册</text>
</g>
<!-- Registration_poll_read_ready -->
<g id="node16" class="node">
<title>Registration_poll_read_ready</title>
<polygon fill="none" stroke="#000000" points="473,-845 369,-845 369,-809 473,-809 473,-845"/>
<text text-anchor="middle" x="421" y="-823.3" font-family="Times,serif" font-size="14.00" fill="#000000">poll_read_ready</text>
</g>
<!-- poll_read_ready&#45;&gt;Registration_poll_read_ready -->
<g id="edge25" class="edge">
<title>poll_read_ready&#45;&gt;Registration_poll_read_ready</title>
<path fill="none" stroke="#000000" d="M353.7013,-1222.827C365.189,-1203.2072 381,-1170.6384 381,-1140 381,-1140 381,-1140 381,-928 381,-901.4615 393.0854,-873.5821 403.9702,-853.8541"/>
<polygon fill="#000000" stroke="#000000" points="407.0362,-855.5437 408.9987,-845.1322 400.9718,-852.0474 407.0362,-855.5437"/>
</g>
<!-- poll_write_ready&#45;&gt;poll_ready -->
<g id="edge6" class="edge">
<title>poll_write_ready&#45;&gt;poll_ready</title>
<path fill="none" stroke="#000000" d="M162.0785,-1222.8138C150.1983,-1216.2546 139.0866,-1207.5197 132,-1196 107.768,-1156.6094 114.3337,-1100.4825 121.5211,-1067.0974"/>
<polygon fill="#000000" stroke="#000000" points="124.9882,-1067.6394 123.8383,-1057.1071 118.1692,-1066.0577 124.9882,-1067.6394"/>
<text text-anchor="middle" x="146.5" y="-1136.3" font-family="Times,serif" font-size="14.00" fill="#000000">注册</text>
</g>
<!-- Registration_poll_write_ready -->
<g id="node17" class="node">
<title>Registration_poll_write_ready</title>
<polygon fill="none" stroke="#000000" points="350.5,-845 241.5,-845 241.5,-809 350.5,-809 350.5,-845"/>
<text text-anchor="middle" x="296" y="-823.3" font-family="Times,serif" font-size="14.00" fill="#000000">poll_write_ready</text>
</g>
<!-- poll_write_ready&#45;&gt;Registration_poll_write_ready -->
<g id="edge27" class="edge">
<title>poll_write_ready&#45;&gt;Registration_poll_write_ready</title>
<path fill="none" stroke="#000000" d="M240.9029,-1222.9573C262.1928,-1204.6449 290,-1174.1838 290,-1140 290,-1140 290,-1140 290,-928 290,-903.4321 291.7909,-875.5618 293.4159,-855.3308"/>
<polygon fill="#000000" stroke="#000000" points="296.9152,-855.4845 294.2646,-845.2266 289.9398,-854.8985 296.9152,-855.4845"/>
</g>
<!-- register -->
<g id="node14" class="node">
<title>register</title>
<polygon fill="none" stroke="#000000" points="152.5,-946 95.5,-946 95.5,-910 152.5,-910 152.5,-946"/>
<text text-anchor="middle" x="124" y="-924.3" font-family="Times,serif" font-size="14.00" fill="#000000">register</text>
</g>
<!-- poll_ready&#45;&gt;register -->
<g id="edge7" class="edge">
<title>poll_ready&#45;&gt;register</title>
<path fill="none" stroke="#000000" d="M128.1744,-1020.6706C127.3891,-1003.2373 126.1959,-976.7482 125.286,-956.5489"/>
<polygon fill="#000000" stroke="#000000" points="128.7734,-956.189 124.8269,-946.3566 121.7805,-956.504 128.7734,-956.189"/>
</g>
<!-- Registration_register -->
<g id="node18" class="node">
<title>Registration_register</title>
<polygon fill="none" stroke="#000000" points="150.5,-845 93.5,-845 93.5,-809 150.5,-809 150.5,-845"/>
<text text-anchor="middle" x="122" y="-823.3" font-family="Times,serif" font-size="14.00" fill="#000000">register</text>
</g>
<!-- register&#45;&gt;Registration_register -->
<g id="edge31" class="edge">
<title>register&#45;&gt;Registration_register</title>
<path fill="none" stroke="#000000" d="M123.6424,-909.9432C123.3428,-894.813 122.9098,-872.9448 122.5636,-855.461"/>
<polygon fill="#000000" stroke="#000000" points="126.0586,-855.1697 122.3612,-845.241 119.06,-855.3083 126.0586,-855.1697"/>
</g>
<!-- Registration_poll_ready -->
<g id="node20" class="node">
<title>Registration_poll_ready</title>
<polygon fill="none" stroke="#000000" points="403,-675 329,-675 329,-639 403,-639 403,-675"/>
<text text-anchor="middle" x="366" y="-653.3" font-family="Times,serif" font-size="14.00" fill="#000000">poll_ready</text>
</g>
<!-- Registration_poll_read_ready&#45;&gt;Registration_poll_ready -->
<g id="edge9" class="edge">
<title>Registration_poll_read_ready&#45;&gt;Registration_poll_ready</title>
<path fill="none" stroke="#000000" d="M415.114,-808.807C405.4792,-779.0265 386.2819,-719.6896 374.9521,-684.6701"/>
<polygon fill="#000000" stroke="#000000" points="378.252,-683.4992 371.8436,-675.0622 371.5919,-685.654 378.252,-683.4992"/>
</g>
<!-- Registration_poll_write_ready&#45;&gt;Registration_poll_ready -->
<g id="edge10" class="edge">
<title>Registration_poll_write_ready&#45;&gt;Registration_poll_ready</title>
<path fill="none" stroke="#000000" d="M303.4912,-808.807C315.7538,-779.0265 340.1866,-719.6896 354.6064,-684.6701"/>
<polygon fill="#000000" stroke="#000000" points="357.9915,-685.6416 358.5626,-675.0622 351.5187,-682.9763 357.9915,-685.6416"/>
</g>
<!-- Registration_register2 -->
<g id="node19" class="node">
<title>Registration_register2</title>
<polygon fill="none" stroke="#000000" points="192,-675 128,-675 128,-639 192,-639 192,-675"/>
<text text-anchor="middle" x="160" y="-653.3" font-family="Times,serif" font-size="14.00" fill="#000000">register2</text>
</g>
<!-- Registration_register&#45;&gt;Registration_register2 -->
<g id="edge8" class="edge">
<title>Registration_register&#45;&gt;Registration_register2</title>
<path fill="none" stroke="#000000" d="M126.0667,-808.807C132.6949,-779.1543 145.8733,-720.1984 153.7138,-685.1223"/>
<polygon fill="#000000" stroke="#000000" points="157.1967,-685.5849 155.9626,-675.0622 150.3653,-684.0578 157.1967,-685.5849"/>
</g>
<!-- Registration_Node -->
<g id="node21" class="node">
<title>Registration_Node</title>
<polygon fill="none" stroke="#000000" points="406.5,-526 287.5,-526 287.5,-490 406.5,-490 406.5,-526"/>
<text text-anchor="middle" x="347" y="-504.3" font-family="Times,serif" font-size="14.00" fill="#000000">Registration::Node</text>
</g>
<!-- Registration_register2&#45;&gt;Registration_Node -->
<g id="edge12" class="edge">
<title>Registration_register2&#45;&gt;Registration_Node</title>
<path fill="none" stroke="#000000" d="M177.2714,-638.9172C191.6239,-624.2719 212.8787,-603.4455 233,-587 257.4678,-567.002 286.808,-546.7467 309.5952,-531.7531"/>
<polygon fill="#000000" stroke="#000000" points="311.5242,-534.6736 317.9839,-526.2758 307.6972,-528.8124 311.5242,-534.6736"/>
<text text-anchor="middle" x="293" y="-590.8" font-family="Times,serif" font-size="14.00" fill="#000000">从Node中获取waker</text>
</g>
<!-- Registration_inner_new -->
<g id="node22" class="node">
<title>Registration_inner_new</title>
<polygon fill="none" stroke="#000000" points="250,-526 196,-526 196,-490 250,-490 250,-526"/>
<text text-anchor="middle" x="223" y="-504.3" font-family="Times,serif" font-size="14.00" fill="#000000">new</text>
</g>
<!-- Registration_register2&#45;&gt;Registration_inner_new -->
<g id="edge13" class="edge">
<title>Registration_register2&#45;&gt;Registration_inner_new</title>
<path fill="none" stroke="#000000" d="M167.0709,-638.7961C172.6265,-624.6241 180.6306,-604.4898 188,-587 195.2628,-569.7632 203.7537,-550.5761 210.5535,-535.4276"/>
<polygon fill="#000000" stroke="#000000" points="213.8315,-536.6723 214.7478,-526.1172 207.4492,-533.7971 213.8315,-536.6723"/>
</g>
<!-- Registration_inner_register -->
<g id="node23" class="node">
<title>Registration_inner_register</title>
<polygon fill="none" stroke="#000000" points="177.5,-526 120.5,-526 120.5,-490 177.5,-490 177.5,-526"/>
<text text-anchor="middle" x="149" y="-504.3" font-family="Times,serif" font-size="14.00" fill="#000000">register</text>
</g>
<!-- Registration_register2&#45;&gt;Registration_inner_register -->
<g id="edge14" class="edge">
<title>Registration_register2&#45;&gt;Registration_inner_register</title>
<path fill="none" stroke="#000000" d="M135.5041,-638.9342C124.5718,-629.3303 112.8539,-616.5111 107,-602 97.6217,-578.7523 111.1242,-552.7647 125.2522,-534.0165"/>
<polygon fill="#000000" stroke="#000000" points="127.9881,-536.1995 131.4933,-526.2013 122.5182,-531.8313 127.9881,-536.1995"/>
<text text-anchor="middle" x="137.5" y="-590.8" font-family="Times,serif" font-size="14.00" fill="#000000">pass waker</text>
</g>
<!-- Registration_poll_ready&#45;&gt;Registration_Node -->
<g id="edge11" class="edge">
<title>Registration_poll_ready&#45;&gt;Registration_Node</title>
<path fill="none" stroke="#000000" d="M363.6702,-638.7297C360.4225,-613.2604 354.5017,-566.829 350.6609,-536.7094"/>
<polygon fill="#000000" stroke="#000000" points="354.0857,-535.8967 349.3488,-526.4198 347.142,-536.7822 354.0857,-535.8967"/>
<text text-anchor="middle" x="411.5" y="-590.8" font-family="Times,serif" font-size="14.00" fill="#000000">Locked New if null</text>
</g>
<!-- add_source -->
<g id="node25" class="node">
<title>add_source</title>
<polygon fill="none" stroke="#000000" points="583,-447 505,-447 505,-411 583,-411 583,-447"/>
<text text-anchor="middle" x="544" y="-425.3" font-family="Times,serif" font-size="14.00" fill="#000000">add_source</text>
</g>
<!-- Registration_inner_new&#45;&gt;add_source -->
<g id="edge32" class="edge">
<title>Registration_inner_new&#45;&gt;add_source</title>
<path fill="none" stroke="#000000" d="M235.2423,-489.8397C240.3066,-483.773 246.7089,-477.6367 254,-474 270.9776,-465.5317 320.2033,-468.5761 339,-466 392.6238,-458.6508 453.6122,-447.2489 495.0274,-439.0447"/>
<polygon fill="#000000" stroke="#000000" points="495.735,-442.4726 504.8575,-437.0845 494.3661,-435.6077 495.735,-442.4726"/>
</g>
<!-- reactor_inner_register -->
<g id="node24" class="node">
<title>reactor_inner_register</title>
<polygon fill="none" stroke="#000000" points="782.5,-260 725.5,-260 725.5,-224 782.5,-224 782.5,-260"/>
<text text-anchor="middle" x="754" y="-238.3" font-family="Times,serif" font-size="14.00" fill="#000000">register</text>
</g>
<!-- Registration_inner_register&#45;&gt;reactor_inner_register -->
<g id="edge33" class="edge">
<title>Registration_inner_register&#45;&gt;reactor_inner_register</title>
<path fill="none" stroke="#000000" d="M166.3466,-489.7283C172.451,-484.0831 179.6358,-478.2415 187,-474 242.9025,-441.8023 325,-493.5118 325,-429 325,-429 325,-429 325,-297.5 325,-258.3834 609.1465,-246.1764 714.9362,-242.9872"/>
<polygon fill="#000000" stroke="#000000" points="715.2917,-246.4784 725.186,-242.6898 715.0886,-239.4814 715.2917,-246.4784"/>
</g>
<!-- reader -->
<g id="node31" class="node">
<title>reader</title>
<polygon fill="none" stroke="#000000" points="730,-153 676,-153 676,-117 730,-117 730,-153"/>
<text text-anchor="middle" x="703" y="-131.3" font-family="Times,serif" font-size="14.00" fill="#000000">reader</text>
</g>
<!-- reactor_inner_register&#45;&gt;reader -->
<g id="edge34" class="edge">
<title>reactor_inner_register&#45;&gt;reader</title>
<path fill="none" stroke="#000000" d="M745.3485,-223.8489C737.3257,-207.0167 725.2755,-181.7348 716.0781,-162.4384"/>
<polygon fill="#000000" stroke="#000000" points="719.156,-160.7613 711.6939,-153.2401 712.8371,-163.7731 719.156,-160.7613"/>
</g>
<!-- writer -->
<g id="node32" class="node">
<title>writer</title>
<polygon fill="none" stroke="#000000" points="802,-153 748,-153 748,-117 802,-117 802,-153"/>
<text text-anchor="middle" x="775" y="-131.3" font-family="Times,serif" font-size="14.00" fill="#000000">writer</text>
</g>
<!-- reactor_inner_register&#45;&gt;writer -->
<g id="edge35" class="edge">
<title>reactor_inner_register&#45;&gt;writer</title>
<path fill="none" stroke="#000000" d="M757.5624,-223.8489C760.8206,-207.2473 765.6921,-182.4259 769.4586,-163.2347"/>
<polygon fill="#000000" stroke="#000000" points="772.9287,-163.727 771.4202,-153.2401 766.0597,-162.3788 772.9287,-163.727"/>
</g>
<!-- io_dispatch -->
<g id="node26" class="node">
<title>io_dispatch</title>
<polygon fill="none" stroke="#000000" points="793.5,-748 714.5,-748 714.5,-712 793.5,-712 793.5,-748"/>
<text text-anchor="middle" x="754" y="-726.3" font-family="Times,serif" font-size="14.00" fill="#000000">io_dispatch</text>
</g>
<!-- add_source&#45;&gt;io_dispatch -->
<g id="edge15" class="edge">
<title>add_source&#45;&gt;io_dispatch</title>
<path fill="none" stroke="#000000" d="M583.1886,-443.6587C609.3574,-456.2701 639,-477.3256 639,-508 639,-657 639,-657 639,-657 639,-690.075 673.3262,-708.7992 704.4709,-718.981"/>
<polygon fill="#000000" stroke="#000000" points="703.8383,-722.4463 714.4235,-721.9939 705.8666,-715.7465 703.8383,-722.4463"/>
</g>
<!-- token -->
<g id="node27" class="node">
<title>token</title>
<polygon fill="none" stroke="#000000" points="781,-447 727,-447 727,-411 781,-411 781,-447"/>
<text text-anchor="middle" x="754" y="-425.3" font-family="Times,serif" font-size="14.00" fill="#000000">token</text>
</g>
<!-- add_source&#45;&gt;token -->
<g id="edge16" class="edge">
<title>add_source&#45;&gt;token</title>
<path fill="none" stroke="#000000" d="M583.375,-429C627.7826,-429 672.1901,-429 716.5977,-429"/>
<polygon fill="#000000" stroke="#000000" points="716.6734,-432.5001 726.6733,-429 716.6733,-425.5001 716.6734,-432.5001"/>
</g>
<!-- io_dispatch&#45;&gt;reactor_inner_register -->
<g id="edge18" class="edge">
<title>io_dispatch&#45;&gt;reactor_inner_register</title>
<path fill="none" stroke="#000000" d="M773.5081,-711.8283C786.0454,-698.1218 800,-678.1217 800,-657 800,-657 800,-657 800,-297.5 800,-286.1937 794.2711,-275.9554 786.8567,-267.4394"/>
<polygon fill="#000000" stroke="#000000" points="789.1874,-264.817 779.6898,-260.1216 784.1863,-269.715 789.1874,-264.817"/>
</g>
<!-- io_dispatch&#45;&gt;token -->
<g id="edge17" class="edge">
<title>io_dispatch&#45;&gt;token</title>
<path fill="none" stroke="#000000" d="M754,-711.6997C754,-696.9349 754,-675.6302 754,-657 754,-657 754,-657 754,-508 754,-491.2245 754,-472.4452 754,-457.4064"/>
<polygon fill="#000000" stroke="#000000" points="757.5001,-457.199 754,-447.199 750.5001,-457.199 757.5001,-457.199"/>
</g>
<!-- token&#45;&gt;reactor_inner_register -->
<g id="edge19" class="edge">
<title>token&#45;&gt;reactor_inner_register</title>
<path fill="none" stroke="#000000" d="M754,-410.5C754,-399.7083 754,-385.8333 754,-373.5 754,-373.5 754,-373.5 754,-297.5 754,-288.7318 754,-279.1843 754,-270.5196"/>
<polygon fill="#000000" stroke="#000000" points="757.5001,-270.5 754,-260.5 750.5001,-270.5 757.5001,-270.5"/>
</g>
<!-- reactor_poll -->
<g id="node28" class="node">
<title>reactor_poll</title>
<polygon fill="none" stroke="#000000" points="795,-1057 713,-1057 713,-1021 795,-1021 795,-1057"/>
<text text-anchor="middle" x="754" y="-1035.3" font-family="Times,serif" font-size="14.00" fill="#000000">reactor_poll</text>
</g>
<!-- dispatch -->
<g id="node29" class="node">
<title>dispatch</title>
<polygon fill="none" stroke="#000000" points="785,-946 723,-946 723,-910 785,-910 785,-946"/>
<text text-anchor="middle" x="754" y="-924.3" font-family="Times,serif" font-size="14.00" fill="#000000">dispatch</text>
</g>
<!-- reactor_poll&#45;&gt;dispatch -->
<g id="edge20" class="edge">
<title>reactor_poll&#45;&gt;dispatch</title>
<path fill="none" stroke="#000000" d="M754,-1020.6706C754,-1003.2373 754,-976.7482 754,-956.5489"/>
<polygon fill="#000000" stroke="#000000" points="757.5001,-956.3566 754,-946.3566 750.5001,-956.3567 757.5001,-956.3566"/>
</g>
<!-- dispatch&#45;&gt;io_dispatch -->
<g id="edge21" class="edge">
<title>dispatch&#45;&gt;io_dispatch</title>
<path fill="none" stroke="#000000" d="M754,-909.7275C754,-875.1019 754,-799.7101 754,-758.4256"/>
<polygon fill="#000000" stroke="#000000" points="757.5001,-758.2283 754,-748.2283 750.5001,-758.2283 757.5001,-758.2283"/>
</g>
<!-- mio_poll -->
<g id="node30" class="node">
<title>mio_poll</title>
<polygon fill="none" stroke="#000000" points="781,-1158 727,-1158 727,-1122 781,-1122 781,-1158"/>
<text text-anchor="middle" x="754" y="-1136.3" font-family="Times,serif" font-size="14.00" fill="#000000">poll</text>
</g>
<!-- mio_poll&#45;&gt;reactor_poll -->
<g id="edge38" class="edge">
<title>mio_poll&#45;&gt;reactor_poll</title>
<path fill="none" stroke="#000000" d="M754,-1121.9432C754,-1106.813 754,-1084.9448 754,-1067.461"/>
<polygon fill="#000000" stroke="#000000" points="757.5001,-1067.2409 754,-1057.241 750.5001,-1067.241 757.5001,-1067.2409"/>
</g>
<!-- AtomicWaker_register -->
<g id="node33" class="node">
<title>AtomicWaker_register</title>
<polygon fill="none" stroke="#000000" points="766.5,-52 709.5,-52 709.5,-16 766.5,-16 766.5,-52"/>
<text text-anchor="middle" x="738" y="-30.3" font-family="Times,serif" font-size="14.00" fill="#000000">register</text>
</g>
<!-- reader&#45;&gt;AtomicWaker_register -->
<g id="edge36" class="edge">
<title>reader&#45;&gt;AtomicWaker_register</title>
<path fill="none" stroke="#000000" d="M709.2573,-116.9432C714.5499,-101.6703 722.2217,-79.5316 728.3083,-61.9674"/>
<polygon fill="#000000" stroke="#000000" points="731.7115,-62.8358 731.6789,-52.241 725.0974,-60.5437 731.7115,-62.8358"/>
</g>
<!-- writer&#45;&gt;AtomicWaker_register -->
<g id="edge37" class="edge">
<title>writer&#45;&gt;AtomicWaker_register</title>
<path fill="none" stroke="#000000" d="M768.3851,-116.9432C762.7901,-101.6703 754.6799,-79.5316 748.2455,-61.9674"/>
<polygon fill="#000000" stroke="#000000" points="751.4086,-60.4268 744.6823,-52.241 744.8358,-62.8347 751.4086,-60.4268"/>
</g>
</g>
</svg>
