<?xml version="1.0" encoding="UTF-8" standalone="no"?>
<!DOCTYPE svg PUBLIC "-//W3C//DTD SVG 1.1//EN"
 "http://www.w3.org/Graphics/SVG/1.1/DTD/svg11.dtd">
<!-- Generated by graphviz version 2.40.1 (20161225.0304)
 -->
<!-- Title: worksteal Pages: 1 -->
<svg width="1179pt" height="345pt"
 viewBox="0.00 0.00 1179.00 345.00" xmlns="http://www.w3.org/2000/svg" xmlns:xlink="http://www.w3.org/1999/xlink">
<g id="graph0" class="graph" transform="scale(1 1) rotate(0) translate(4 341)">
<title>worksteal</title>
<polygon fill="#ffffff" stroke="transparent" points="-4,4 -4,-341 1175,-341 1175,4 -4,4"/>
<text text-anchor="middle" x="585.5" y="-7.8" font-family="Times,serif" font-size="14.00" fill="#000000">tokio work steal</text>
<g id="clust1" class="cluster">
<title>cluster_pool</title>
<polygon fill="none" stroke="#000000" points="119,-146 119,-329 459,-329 459,-146 119,-146"/>
<text text-anchor="middle" x="289" y="-313.8" font-family="Times,serif" font-size="14.00" fill="#000000">pool</text>
</g>
<g id="clust3" class="cluster">
<title>cluster_worker</title>
<polygon fill="none" stroke="#000000" points="689,-208 689,-283 1072,-283 1072,-208 689,-208"/>
<text text-anchor="middle" x="880.5" y="-267.8" font-family="Times,serif" font-size="14.00" fill="#000000">worker</text>
</g>
<g id="clust4" class="cluster">
<title>cluster_worker2</title>
<polygon fill="none" stroke="#000000" points="539,-114 539,-243 609,-243 609,-114 539,-114"/>
<text text-anchor="middle" x="574" y="-227.8" font-family="Times,serif" font-size="14.00" fill="#000000">worker2</text>
</g>
<g id="clust5" class="cluster">
<title>cluster_entry</title>
<polygon fill="none" stroke="#000000" points="260,-31 260,-106 609,-106 609,-31 260,-31"/>
<text text-anchor="middle" x="434.5" y="-90.8" font-family="Times,serif" font-size="14.00" fill="#000000">entry</text>
</g>
<g id="clust6" class="cluster">
<title>cluster_task</title>
<polygon fill="none" stroke="#000000" points="1093,-208 1093,-283 1163,-283 1163,-208 1093,-208"/>
<text text-anchor="middle" x="1128" y="-267.8" font-family="Times,serif" font-size="14.00" fill="#000000">task</text>
</g>
<!-- sender_spawn -->
<g id="node1" class="node">
<title>sender_spawn</title>
<polygon fill="none" stroke="#000000" points="78,-184 0,-184 0,-160 78,-160 90,-172 78,-184"/>
<text text-anchor="middle" x="45" y="-168.3" font-family="Times,serif" font-size="14.00" fill="#000000">sender.spawn</text>
</g>
<!-- submit_external -->
<g id="node3" class="node">
<title>submit_external</title>
<polygon fill="none" stroke="#000000" points="231,-190 127,-190 127,-154 231,-154 231,-190"/>
<text text-anchor="middle" x="179" y="-168.3" font-family="Times,serif" font-size="14.00" fill="#000000">submit_external</text>
</g>
<!-- sender_spawn&#45;&gt;submit_external -->
<g id="edge7" class="edge">
<title>sender_spawn&#45;&gt;submit_external</title>
<path fill="none" stroke="#000000" d="M90.3663,-172C98.7704,-172 107.6833,-172 116.4921,-172"/>
<polygon fill="#000000" stroke="#000000" points="116.7484,-175.5001 126.7484,-172 116.7484,-168.5001 116.7484,-175.5001"/>
</g>
<!-- pool_queue -->
<g id="node2" class="node">
<title>pool_queue</title>
<polygon fill="#d3d3d3" stroke="#000000" points="432,-190 378,-190 378,-154 432,-154 432,-190"/>
<text text-anchor="middle" x="405" y="-168.3" font-family="Times,serif" font-size="14.00" fill="#000000">queue</text>
</g>
<!-- worker_queue -->
<g id="node7" class="node">
<title>worker_queue</title>
<polygon fill="#d3d3d3" stroke="#000000" points="751,-252 697,-252 697,-216 751,-216 751,-252"/>
<text text-anchor="middle" x="724" y="-230.3" font-family="Times,serif" font-size="14.00" fill="#000000">queue</text>
</g>
<!-- pool_queue&#45;&gt;worker_queue -->
<g id="edge10" class="edge">
<title>pool_queue&#45;&gt;worker_queue</title>
<path fill="none" stroke="#000000" d="M428.5564,-190.1604C454.1237,-208.626 496.951,-236.033 539,-247 588.9783,-260.035 648.9642,-251.629 686.7906,-243.5348"/>
<polygon fill="#000000" stroke="#000000" points="687.8545,-246.8832 696.8453,-241.2782 686.3215,-240.0531 687.8545,-246.8832"/>
<text text-anchor="middle" x="574" y="-256.8" font-family="Times,serif" font-size="14.00" fill="#000000">steal batch</text>
</g>
<!-- worker_queue2 -->
<g id="node10" class="node">
<title>worker_queue2</title>
<polygon fill="#d3d3d3" stroke="#000000" points="601,-158 547,-158 547,-122 601,-122 601,-158"/>
<text text-anchor="middle" x="574" y="-136.3" font-family="Times,serif" font-size="14.00" fill="#000000">queue</text>
</g>
<!-- pool_queue&#45;&gt;worker_queue2 -->
<g id="edge12" class="edge">
<title>pool_queue&#45;&gt;worker_queue2</title>
<path fill="none" stroke="#000000" d="M432.1528,-166.8586C460.487,-161.4936 505.1095,-153.0444 536.7314,-147.0568"/>
<polygon fill="#000000" stroke="#000000" points="537.7404,-150.428 546.9146,-145.1286 536.438,-143.5502 537.7404,-150.428"/>
<text text-anchor="middle" x="498" y="-163.8" font-family="Times,serif" font-size="14.00" fill="#000000">steal batch</text>
</g>
<!-- submit_external&#45;&gt;pool_queue -->
<g id="edge3" class="edge">
<title>submit_external&#45;&gt;pool_queue</title>
<path fill="none" stroke="#000000" d="M231.1327,-172C272.7775,-172 330.1433,-172 367.3986,-172"/>
<polygon fill="#000000" stroke="#000000" points="367.8089,-175.5001 377.8089,-172 367.8089,-168.5001 367.8089,-175.5001"/>
<text text-anchor="middle" x="295" y="-175.8" font-family="Times,serif" font-size="14.00" fill="#000000">push</text>
</g>
<!-- signal_worker -->
<g id="node4" class="node">
<title>signal_worker</title>
<polygon fill="none" stroke="#000000" points="226,-298 132,-298 132,-262 226,-262 226,-298"/>
<text text-anchor="middle" x="179" y="-276.3" font-family="Times,serif" font-size="14.00" fill="#000000">signal_worker</text>
</g>
<!-- submit_external&#45;&gt;signal_worker -->
<g id="edge1" class="edge">
<title>submit_external&#45;&gt;signal_worker</title>
<path fill="none" stroke="#000000" d="M179,-190.1406C179,-210.653 179,-231.1653 179,-251.6776"/>
<polygon fill="#000000" stroke="#000000" points="175.5001,-251.7473 179,-261.7473 182.5001,-251.7473 175.5001,-251.7473"/>
</g>
<!-- spawn_thread -->
<g id="node5" class="node">
<title>spawn_thread</title>
<polygon fill="none" stroke="#000000" points="451,-298 359,-298 359,-262 451,-262 451,-298"/>
<text text-anchor="middle" x="405" y="-276.3" font-family="Times,serif" font-size="14.00" fill="#000000">spawn_thread</text>
</g>
<!-- signal_worker&#45;&gt;spawn_thread -->
<g id="edge2" class="edge">
<title>signal_worker&#45;&gt;spawn_thread</title>
<path fill="none" stroke="#000000" d="M226.1019,-280C261.694,-280 310.6935,-280 348.4132,-280"/>
<polygon fill="#000000" stroke="#000000" points="348.7325,-283.5001 358.7324,-280 348.7324,-276.5001 348.7325,-283.5001"/>
</g>
<!-- notify -->
<g id="node11" class="node">
<title>notify</title>
<polygon fill="none" stroke="#000000" points="322,-75 268,-75 268,-39 322,-39 322,-75"/>
<text text-anchor="middle" x="295" y="-53.3" font-family="Times,serif" font-size="14.00" fill="#000000">notify</text>
</g>
<!-- signal_worker&#45;&gt;notify -->
<g id="edge8" class="edge">
<title>signal_worker&#45;&gt;notify</title>
<path fill="none" stroke="#000000" d="M191.7761,-261.8114C202.8266,-245.696 218.8875,-221.3266 231,-199 251.8779,-160.5164 271.9473,-113.9105 283.8796,-84.8501"/>
<polygon fill="#000000" stroke="#000000" points="287.2203,-85.9266 287.7489,-75.3449 280.7369,-83.2873 287.2203,-85.9266"/>
</g>
<!-- worker_run -->
<g id="node6" class="node">
<title>worker_run</title>
<polygon fill="none" stroke="#000000" points="919,-252 865,-252 865,-216 919,-216 919,-252"/>
<text text-anchor="middle" x="892" y="-230.3" font-family="Times,serif" font-size="14.00" fill="#000000">run</text>
</g>
<!-- spawn_thread&#45;&gt;worker_run -->
<g id="edge9" class="edge">
<title>spawn_thread&#45;&gt;worker_run</title>
<path fill="none" stroke="#000000" d="M451.1812,-293.5709C484.9036,-302.2925 531.8951,-312 574,-312 574,-312 574,-312 827.5,-312 854.4398,-312 872.2455,-284.025 882.1955,-261.5822"/>
<polygon fill="#000000" stroke="#000000" points="885.5324,-262.6704 886.1008,-252.0908 879.0589,-260.0068 885.5324,-262.6704"/>
</g>
<!-- run_task2 -->
<g id="node8" class="node">
<title>run_task2</title>
<polygon fill="none" stroke="#000000" points="1064,-252 994,-252 994,-216 1064,-216 1064,-252"/>
<text text-anchor="middle" x="1029" y="-230.3" font-family="Times,serif" font-size="14.00" fill="#000000">run_task2</text>
</g>
<!-- worker_run&#45;&gt;run_task2 -->
<g id="edge5" class="edge">
<title>worker_run&#45;&gt;run_task2</title>
<path fill="none" stroke="#000000" d="M919.0668,-234C937.4958,-234 962.3337,-234 983.7377,-234"/>
<polygon fill="#000000" stroke="#000000" points="983.9262,-237.5001 993.9262,-234 983.9261,-230.5001 983.9262,-237.5001"/>
</g>
<!-- worker_queue&#45;&gt;worker_run -->
<g id="edge4" class="edge">
<title>worker_queue&#45;&gt;worker_run</title>
<path fill="none" stroke="#000000" d="M751.366,-234C779.5173,-234 823.5535,-234 854.8429,-234"/>
<polygon fill="#000000" stroke="#000000" points="854.9241,-237.5001 864.9241,-234 854.924,-230.5001 854.9241,-237.5001"/>
</g>
<!-- task_run -->
<g id="node13" class="node">
<title>task_run</title>
<polygon fill="none" stroke="#000000" points="1155,-252 1101,-252 1101,-216 1155,-216 1155,-252"/>
<text text-anchor="middle" x="1128" y="-230.3" font-family="Times,serif" font-size="14.00" fill="#000000">run</text>
</g>
<!-- run_task2&#45;&gt;task_run -->
<g id="edge14" class="edge">
<title>run_task2&#45;&gt;task_run</title>
<path fill="none" stroke="#000000" d="M1064.1824,-234C1072.717,-234 1081.8728,-234 1090.5096,-234"/>
<polygon fill="#000000" stroke="#000000" points="1090.7104,-237.5001 1100.7103,-234 1090.7103,-230.5001 1090.7104,-237.5001"/>
</g>
<!-- other -->
<g id="node9" class="node">
<title>other</title>
<polygon fill="none" stroke="#000000" points="601,-212 547,-212 547,-176 601,-176 601,-212"/>
<text text-anchor="middle" x="574" y="-190.3" font-family="Times,serif" font-size="14.00" fill="#000000">...</text>
</g>
<!-- worker_queue2&#45;&gt;worker_queue -->
<g id="edge11" class="edge">
<title>worker_queue2&#45;&gt;worker_queue</title>
<path fill="none" stroke="#000000" d="M601.1639,-157.0227C625.5121,-172.2809 661.4044,-194.7734 688.1105,-211.5092"/>
<polygon fill="#000000" stroke="#000000" points="686.453,-214.601 696.7852,-216.9454 690.1701,-208.6694 686.453,-214.601"/>
<text text-anchor="middle" x="650" y="-206.8" font-family="Times,serif" font-size="14.00" fill="#000000">steal batch</text>
</g>
<!-- unpark -->
<g id="node12" class="node">
<title>unpark</title>
<polygon fill="none" stroke="#000000" points="601,-75 547,-75 547,-39 601,-39 601,-75"/>
<text text-anchor="middle" x="574" y="-53.3" font-family="Times,serif" font-size="14.00" fill="#000000">unpark</text>
</g>
<!-- notify&#45;&gt;unpark -->
<g id="edge6" class="edge">
<title>notify&#45;&gt;unpark</title>
<path fill="none" stroke="#000000" d="M322.0052,-57C372.2144,-57 479.994,-57 536.9598,-57"/>
<polygon fill="#000000" stroke="#000000" points="536.98,-60.5001 546.9799,-57 536.9799,-53.5001 536.98,-60.5001"/>
</g>
<!-- unpark&#45;&gt;worker_run -->
<g id="edge13" class="edge">
<title>unpark&#45;&gt;worker_run</title>
<path fill="none" stroke="#000000" d="M601.1125,-72.0909C658.3754,-103.9637 791.6481,-178.1438 855.9818,-213.9521"/>
<polygon fill="#000000" stroke="#000000" points="854.5162,-217.142 864.9561,-218.9473 857.9206,-211.0256 854.5162,-217.142"/>
<text text-anchor="middle" x="789" y="-189.8" font-family="Times,serif" font-size="14.00" fill="#000000">resume</text>
</g>
</g>
</svg>
