<?xml version="1.0" encoding="UTF-8" standalone="no"?>
<!DOCTYPE svg PUBLIC "-//W3C//DTD SVG 1.1//EN"
 "http://www.w3.org/Graphics/SVG/1.1/DTD/svg11.dtd">
<!-- Generated by graphviz version 2.50.0 (20211204.2007)
 -->
<!-- Title: cookie Pages: 1 -->
<svg width="1294pt" height="515pt"
 viewBox="0.00 0.00 1294.00 514.50" xmlns="http://www.w3.org/2000/svg" xmlns:xlink="http://www.w3.org/1999/xlink">
<g id="graph0" class="graph" transform="scale(1 1) rotate(0) translate(4 510.5)">
<title>cookie</title>
<polygon fill="white" stroke="transparent" points="-4,4 -4,-510.5 1290,-510.5 1290,4 -4,4"/>
<!-- http__header__SET_COOKIE -->
<g id="node1" class="node">
<title>http__header__SET_COOKIE</title>
<path fill="none" stroke="black" d="M24,-0.5C24,-0.5 170,-0.5 170,-0.5 176,-0.5 182,-6.5 182,-12.5 182,-12.5 182,-34.5 182,-34.5 182,-40.5 176,-46.5 170,-46.5 170,-46.5 24,-46.5 24,-46.5 18,-46.5 12,-40.5 12,-34.5 12,-34.5 12,-12.5 12,-12.5 12,-6.5 18,-0.5 24,-0.5"/>
<text text-anchor="start" x="20" y="-31.3" font-family="Times,serif" font-size="14.00">http::header::SET_COOKIE</text>
<polyline fill="none" stroke="black" points="12,-23.5 182,-23.5 "/>
<text text-anchor="start" x="20" y="-8.3" font-family="Times,serif" font-size="14.00">set&#45;cookie</text>
</g>
<!-- trait__FromRequest -->
<g id="node2" class="node">
<title>trait__FromRequest</title>
<polygon fill="none" stroke="black" points="159.5,-281.5 34.5,-281.5 34.5,-245.5 159.5,-245.5 159.5,-281.5"/>
<text text-anchor="middle" x="97" y="-259.8" font-family="Times,serif" font-size="14.00">trait__FromRequest</text>
</g>
<!-- UserIdFromSession__from_request -->
<g id="node4" class="node">
<title>UserIdFromSession__from_request</title>
<polygon fill="none" stroke="black" points="445.5,-278.5 234.5,-278.5 234.5,-242.5 445.5,-242.5 445.5,-278.5"/>
<text text-anchor="middle" x="340" y="-256.8" font-family="Times,serif" font-size="14.00">UserIdFromSession__from_request</text>
</g>
<!-- trait__FromRequest&#45;&gt;UserIdFromSession__from_request -->
<g id="edge10" class="edge">
<title>trait__FromRequest&#45;&gt;UserIdFromSession__from_request</title>
<path fill="none" stroke="green" stroke-dasharray="5,2" d="M159.75,-262.73C179.46,-262.49 201.95,-262.21 224.19,-261.93"/>
<polygon fill="green" stroke="green" points="224.42,-265.43 234.37,-261.8 224.33,-258.43 224.42,-265.43"/>
</g>
<!-- RequestParts -->
<g id="node3" class="node">
<title>RequestParts</title>
<path fill="none" stroke="black" d="M12,-66C12,-66 182,-66 182,-66 188,-66 194,-72 194,-78 194,-78 194,-215 194,-215 194,-221 188,-227 182,-227 182,-227 12,-227 12,-227 6,-227 0,-221 0,-215 0,-215 0,-78 0,-78 0,-72 6,-66 12,-66"/>
<text text-anchor="start" x="8" y="-211.8" font-family="Times,serif" font-size="14.00">RequestParts</text>
<polyline fill="none" stroke="black" points="0,-204 194,-204 "/>
<text text-anchor="start" x="8" y="-188.8" font-family="Times,serif" font-size="14.00">method: Method,</text>
<polyline fill="none" stroke="black" points="0,-181 194,-181 "/>
<text text-anchor="start" x="8" y="-165.8" font-family="Times,serif" font-size="14.00">uri: Uri,</text>
<polyline fill="none" stroke="black" points="0,-158 194,-158 "/>
<text text-anchor="start" x="8" y="-142.8" font-family="Times,serif" font-size="14.00">version: Version,</text>
<polyline fill="none" stroke="black" points="0,-135 194,-135 "/>
<text text-anchor="start" x="8" y="-119.8" font-family="Times,serif" font-size="14.00">headers: Option&lt;HeaderMap&gt;,</text>
<polyline fill="none" stroke="black" points="0,-112 194,-112 "/>
<text text-anchor="start" x="8" y="-96.8" font-family="Times,serif" font-size="14.00">extensions: Option&lt;Extensions&gt;</text>
<polyline fill="none" stroke="black" points="0,-89 194,-89 "/>
<text text-anchor="start" x="8" y="-73.8" font-family="Times,serif" font-size="14.00">body: Option&lt;B&gt;,</text>
</g>
<!-- RequestParts&#45;&gt;UserIdFromSession__from_request -->
<g id="edge1" class="edge">
<title>RequestParts&#45;&gt;UserIdFromSession__from_request</title>
<path fill="none" stroke="#666666" d="M194.25,-211.81C206.34,-218.65 218.77,-225.08 231,-230.5 238.13,-233.66 245.68,-236.57 253.33,-239.22"/>
<polygon fill="#666666" stroke="#666666" points="252.47,-242.62 263.06,-242.45 254.67,-235.98 252.47,-242.62"/>
</g>
<!-- HeaderMap -->
<g id="node19" class="node">
<title>HeaderMap</title>
<path fill="none" stroke="black" d="M243,-82.5C243,-82.5 437,-82.5 437,-82.5 443,-82.5 449,-88.5 449,-94.5 449,-94.5 449,-208.5 449,-208.5 449,-214.5 443,-220.5 437,-220.5 437,-220.5 243,-220.5 243,-220.5 237,-220.5 231,-214.5 231,-208.5 231,-208.5 231,-94.5 231,-94.5 231,-88.5 237,-82.5 243,-82.5"/>
<text text-anchor="start" x="239" y="-205.3" font-family="Times,serif" font-size="14.00">HeaderMap</text>
<polyline fill="none" stroke="black" points="231,-197.5 449,-197.5 "/>
<text text-anchor="start" x="239" y="-182.3" font-family="Times,serif" font-size="14.00">mask: Size,</text>
<polyline fill="none" stroke="black" points="231,-174.5 449,-174.5 "/>
<text text-anchor="start" x="239" y="-159.3" font-family="Times,serif" font-size="14.00">indices: Box&lt;[Pos]&gt;,</text>
<polyline fill="none" stroke="black" points="231,-151.5 449,-151.5 "/>
<text text-anchor="start" x="239" y="-136.3" font-family="Times,serif" font-size="14.00">entries: Vec&lt;Bucket&lt;T&gt; ,</text>
<polyline fill="none" stroke="black" points="231,-128.5 449,-128.5 "/>
<text text-anchor="start" x="239" y="-113.3" font-family="Times,serif" font-size="14.00">extra_values: Vec&lt;ExtraValue&lt;T&gt;&gt;,</text>
<polyline fill="none" stroke="black" points="231,-105.5 449,-105.5 "/>
<text text-anchor="start" x="239" y="-90.3" font-family="Times,serif" font-size="14.00">danger: Danger</text>
</g>
<!-- RequestParts&#45;&gt;HeaderMap -->
<g id="edge17" class="edge">
<title>RequestParts&#45;&gt;HeaderMap</title>
<path fill="none" stroke="#666666" d="M194.29,-148.5C203.05,-148.68 211.99,-148.87 220.92,-149.05"/>
<polygon fill="#666666" stroke="#666666" points="220.91,-152.55 230.98,-149.26 221.05,-145.55 220.91,-152.55"/>
</g>
<!-- Extensions -->
<g id="node20" class="node">
<title>Extensions</title>
<path fill="none" stroke="black" d="M255,-17.5C255,-17.5 425,-17.5 425,-17.5 431,-17.5 437,-23.5 437,-29.5 437,-29.5 437,-51.5 437,-51.5 437,-57.5 431,-63.5 425,-63.5 425,-63.5 255,-63.5 255,-63.5 249,-63.5 243,-57.5 243,-51.5 243,-51.5 243,-29.5 243,-29.5 243,-23.5 249,-17.5 255,-17.5"/>
<text text-anchor="start" x="251" y="-48.3" font-family="Times,serif" font-size="14.00">Extensions</text>
<polyline fill="none" stroke="black" points="243,-40.5 437,-40.5 "/>
<text text-anchor="start" x="251" y="-25.3" font-family="Times,serif" font-size="14.00">map: Option&lt;Box&lt;AnyMap&gt;&gt;,</text>
</g>
<!-- RequestParts&#45;&gt;Extensions -->
<g id="edge18" class="edge">
<title>RequestParts&#45;&gt;Extensions</title>
<path fill="none" stroke="#666666" d="M194.19,-90.71C206.4,-84.52 218.87,-78.62 231,-73.5 236.38,-71.23 241.97,-69.04 247.65,-66.95"/>
<polygon fill="#666666" stroke="#666666" points="249.03,-70.17 257.27,-63.51 246.68,-63.58 249.03,-70.17"/>
</g>
<!-- Extension__MemoryStore__from_request -->
<g id="node5" class="node">
<title>Extension__MemoryStore__from_request</title>
<polygon fill="none" stroke="black" points="762.5,-506.5 515.5,-506.5 515.5,-470.5 762.5,-470.5 762.5,-506.5"/>
<text text-anchor="middle" x="639" y="-484.8" font-family="Times,serif" font-size="14.00">Extension__MemoryStore__from_request</text>
</g>
<!-- UserIdFromSession__from_request&#45;&gt;Extension__MemoryStore__from_request -->
<g id="edge2" class="edge">
<title>UserIdFromSession__from_request&#45;&gt;Extension__MemoryStore__from_request</title>
<path fill="none" stroke="#666666" d="M348.32,-278.58C365.62,-318.79 413.13,-415.73 486,-461.5 492.24,-465.42 498.9,-468.81 505.8,-471.74"/>
<polygon fill="#666666" stroke="#666666" points="504.77,-475.09 515.36,-475.45 507.31,-468.57 504.77,-475.09"/>
</g>
<!-- TypedHeader -->
<g id="node6" class="node">
<title>TypedHeader</title>
<path fill="none" stroke="black" d="M564.5,-405.5C564.5,-405.5 713.5,-405.5 713.5,-405.5 719.5,-405.5 725.5,-411.5 725.5,-417.5 725.5,-417.5 725.5,-439.5 725.5,-439.5 725.5,-445.5 719.5,-451.5 713.5,-451.5 713.5,-451.5 564.5,-451.5 564.5,-451.5 558.5,-451.5 552.5,-445.5 552.5,-439.5 552.5,-439.5 552.5,-417.5 552.5,-417.5 552.5,-411.5 558.5,-405.5 564.5,-405.5"/>
<text text-anchor="start" x="560.5" y="-436.3" font-family="Times,serif" font-size="14.00">TypedHeader</text>
<polyline fill="none" stroke="black" points="552.5,-428.5 725.5,-428.5 "/>
<text text-anchor="start" x="560.5" y="-413.3" font-family="Times,serif" font-size="14.00">pub struct TypedHeader&lt;T&gt;</text>
</g>
<!-- UserIdFromSession__from_request&#45;&gt;TypedHeader -->
<g id="edge3" class="edge">
<title>UserIdFromSession__from_request&#45;&gt;TypedHeader</title>
<path fill="none" stroke="#666666" d="M354.83,-278.79C378.32,-308.48 429.07,-366.83 486,-396.5 503.39,-405.56 523.16,-412.06 542.56,-416.72"/>
<polygon fill="#666666" stroke="#666666" points="541.83,-420.14 552.35,-418.92 543.37,-413.31 541.83,-420.14"/>
</g>
<!-- Cookie -->
<g id="node7" class="node">
<title>Cookie</title>
<path fill="none" stroke="black" d="M530,-340.5C530,-340.5 748,-340.5 748,-340.5 754,-340.5 760,-346.5 760,-352.5 760,-352.5 760,-374.5 760,-374.5 760,-380.5 754,-386.5 748,-386.5 748,-386.5 530,-386.5 530,-386.5 524,-386.5 518,-380.5 518,-374.5 518,-374.5 518,-352.5 518,-352.5 518,-346.5 524,-340.5 530,-340.5"/>
<text text-anchor="start" x="526" y="-371.3" font-family="Times,serif" font-size="14.00">Cookie</text>
<polyline fill="none" stroke="black" points="518,-363.5 760,-363.5 "/>
<text text-anchor="start" x="526" y="-348.3" font-family="Times,serif" font-size="14.00">pub struct Cookie(FlatCsv&lt;SemiColon&gt;)</text>
</g>
<!-- UserIdFromSession__from_request&#45;&gt;Cookie -->
<g id="edge4" class="edge">
<title>UserIdFromSession__from_request&#45;&gt;Cookie</title>
<path fill="none" stroke="#666666" d="M372.27,-278.64C401,-294.61 445.18,-317.45 486,-331.5 493.09,-333.94 500.44,-336.23 507.9,-338.37"/>
<polygon fill="#666666" stroke="#666666" points="507.19,-341.8 517.76,-341.1 509.05,-335.06 507.19,-341.8"/>
</g>
<!-- MemoryStore -->
<g id="node8" class="node">
<title>MemoryStore</title>
<path fill="none" stroke="black" d="M498,-275.5C498,-275.5 780,-275.5 780,-275.5 786,-275.5 792,-281.5 792,-287.5 792,-287.5 792,-309.5 792,-309.5 792,-315.5 786,-321.5 780,-321.5 780,-321.5 498,-321.5 498,-321.5 492,-321.5 486,-315.5 486,-309.5 486,-309.5 486,-287.5 486,-287.5 486,-281.5 492,-275.5 498,-275.5"/>
<text text-anchor="start" x="494" y="-306.3" font-family="Times,serif" font-size="14.00">MemoryStore</text>
<polyline fill="none" stroke="black" points="486,-298.5 792,-298.5 "/>
<text text-anchor="middle" x="639" y="-283.3" font-family="Times,serif" font-size="14.00">inner: Arc&lt;RwLock&lt;HashMap&lt;String, Session&gt;&gt;&gt;,</text>
</g>
<!-- UserIdFromSession__from_request&#45;&gt;MemoryStore -->
<g id="edge5" class="edge">
<title>UserIdFromSession__from_request&#45;&gt;MemoryStore</title>
<path fill="none" stroke="#666666" d="M445.71,-273.9C455.48,-275.15 465.53,-276.43 475.66,-277.73"/>
<polygon fill="#666666" stroke="#666666" points="475.46,-281.23 485.82,-279.03 476.34,-274.29 475.46,-281.23"/>
</g>
<!-- AXUM_SESSION_COOKIE_NAME -->
<g id="node9" class="node">
<title>AXUM_SESSION_COOKIE_NAME</title>
<polygon fill="none" stroke="black" points="751.5,-256.5 526.5,-256.5 526.5,-220.5 751.5,-220.5 751.5,-256.5"/>
<text text-anchor="middle" x="639" y="-234.8" font-family="Times,serif" font-size="14.00">AXUM_SESSION_COOKIE_NAME</text>
</g>
<!-- UserIdFromSession__from_request&#45;&gt;AXUM_SESSION_COOKIE_NAME -->
<g id="edge6" class="edge">
<title>UserIdFromSession__from_request&#45;&gt;AXUM_SESSION_COOKIE_NAME</title>
<path fill="none" stroke="#666666" d="M445.71,-252.74C468.58,-251.05 492.97,-249.24 516.44,-247.5"/>
<polygon fill="#666666" stroke="#666666" points="516.71,-250.99 526.43,-246.76 516.2,-244.01 516.71,-250.99"/>
</g>
<!-- SessionStore__store_session -->
<g id="node10" class="node">
<title>SessionStore__store_session</title>
<polygon fill="none" stroke="black" points="725,-202.5 553,-202.5 553,-166.5 725,-166.5 725,-202.5"/>
<text text-anchor="middle" x="639" y="-180.8" font-family="Times,serif" font-size="14.00">SessionStore__store_session</text>
</g>
<!-- UserIdFromSession__from_request&#45;&gt;SessionStore__store_session -->
<g id="edge7" class="edge">
<title>UserIdFromSession__from_request&#45;&gt;SessionStore__store_session</title>
<path fill="none" stroke="#666666" d="M413.7,-242.5C425.63,-238.92 437.76,-234.89 449,-230.5 466.22,-223.77 468.48,-217.4 486,-211.5 504.06,-205.41 523.81,-200.62 542.93,-196.88"/>
<polygon fill="#666666" stroke="#666666" points="543.67,-200.3 552.85,-195.02 542.38,-193.42 543.67,-200.3"/>
</g>
<!-- CreatedFreshUserId -->
<g id="node11" class="node">
<title>CreatedFreshUserId</title>
<polygon fill="none" stroke="black" points="701.5,-148.5 576.5,-148.5 576.5,-112.5 701.5,-112.5 701.5,-148.5"/>
<text text-anchor="middle" x="639" y="-126.8" font-family="Times,serif" font-size="14.00">CreatedFreshUserId</text>
</g>
<!-- UserIdFromSession__from_request&#45;&gt;CreatedFreshUserId -->
<g id="edge8" class="edge">
<title>UserIdFromSession__from_request&#45;&gt;CreatedFreshUserId</title>
<path fill="none" stroke="#666666" d="M430.12,-242.48C436.88,-239.14 443.28,-235.19 449,-230.5 477.14,-207.45 456.8,-179.19 486,-157.5 508.8,-140.57 538.77,-133.03 566.06,-130"/>
<polygon fill="#666666" stroke="#666666" points="566.73,-133.46 576.37,-129.06 566.09,-126.49 566.73,-133.46"/>
</g>
<!-- SessionStore__load_session -->
<g id="node12" class="node">
<title>SessionStore__load_session</title>
<polygon fill="none" stroke="black" points="723.5,-94.5 554.5,-94.5 554.5,-58.5 723.5,-58.5 723.5,-94.5"/>
<text text-anchor="middle" x="639" y="-72.8" font-family="Times,serif" font-size="14.00">SessionStore__load_session</text>
</g>
<!-- UserIdFromSession__from_request&#45;&gt;SessionStore__load_session -->
<g id="edge9" class="edge">
<title>UserIdFromSession__from_request&#45;&gt;SessionStore__load_session</title>
<path fill="none" stroke="#666666" d="M433.17,-242.44C438.93,-239.09 444.29,-235.15 449,-230.5 469.92,-209.84 464.13,-123.14 486,-103.5 502.01,-89.13 522.93,-81.11 544.1,-76.88"/>
<polygon fill="#666666" stroke="#666666" points="544.9,-80.3 554.16,-75.15 543.71,-73.4 544.9,-80.3"/>
</g>
<!-- SessionStore -->
<g id="node13" class="node">
<title>SessionStore</title>
<polygon fill="none" stroke="black" points="1043.5,-395.5 957.5,-395.5 957.5,-359.5 1043.5,-359.5 1043.5,-395.5"/>
<text text-anchor="middle" x="1000.5" y="-373.8" font-family="Times,serif" font-size="14.00">SessionStore</text>
</g>
<!-- MemoryStore&#45;&gt;SessionStore -->
<g id="edge15" class="edge">
<title>MemoryStore&#45;&gt;SessionStore</title>
<path fill="none" stroke="#666666" d="M751.49,-321.58C765.18,-324.75 778.94,-328.09 792,-331.5 819.88,-338.79 826.01,-343.64 854,-350.5 884.67,-358.02 919.43,-364.54 947.28,-369.29"/>
<polygon fill="#666666" stroke="#666666" points="946.76,-372.75 957.21,-370.96 947.92,-365.85 946.76,-372.75"/>
<text text-anchor="middle" x="823" y="-348.3" font-family="Times,serif" font-size="14.00">impl</text>
</g>
<!-- Session -->
<g id="node18" class="node">
<title>Session</title>
<path fill="none" stroke="black" d="M866,-180C866,-180 1135,-180 1135,-180 1141,-180 1147,-186 1147,-192 1147,-192 1147,-329 1147,-329 1147,-335 1141,-341 1135,-341 1135,-341 866,-341 866,-341 860,-341 854,-335 854,-329 854,-329 854,-192 854,-192 854,-186 860,-180 866,-180"/>
<text text-anchor="start" x="862" y="-325.8" font-family="Times,serif" font-size="14.00">Session</text>
<polyline fill="none" stroke="black" points="854,-318 1147,-318 "/>
<text text-anchor="start" x="862" y="-302.8" font-family="Times,serif" font-size="14.00">id: String,</text>
<polyline fill="none" stroke="black" points="854,-295 1147,-295 "/>
<text text-anchor="start" x="862" y="-279.8" font-family="Times,serif" font-size="14.00">expiry: Option&lt;DateTime&lt;Utc&gt;&gt;,</text>
<polyline fill="none" stroke="black" points="854,-272 1147,-272 "/>
<text text-anchor="start" x="862" y="-256.8" font-family="Times,serif" font-size="14.00">data: Arc&lt;RwLock&lt;HashMap&lt;String, String&gt;&gt;&gt;,</text>
<polyline fill="none" stroke="black" points="854,-249 1147,-249 "/>
<text text-anchor="start" x="862" y="-233.8" font-family="Times,serif" font-size="14.00">cookie_value: Option&lt;String&gt;,</text>
<polyline fill="none" stroke="black" points="854,-226 1147,-226 "/>
<text text-anchor="start" x="862" y="-210.8" font-family="Times,serif" font-size="14.00">data_changed: Arc&lt;AtomicBool&gt;,</text>
<polyline fill="none" stroke="black" points="854,-203 1147,-203 "/>
<text text-anchor="start" x="862" y="-187.8" font-family="Times,serif" font-size="14.00">destroy: Arc&lt;AtomicBool&gt;,</text>
</g>
<!-- MemoryStore&#45;&gt;Session -->
<g id="edge16" class="edge">
<title>MemoryStore&#45;&gt;Session</title>
<path fill="none" stroke="#666666" d="M792.2,-282.41C809.25,-280.61 826.64,-278.77 843.73,-276.97"/>
<polygon fill="#666666" stroke="#666666" points="844.18,-280.44 853.75,-275.91 843.44,-273.48 844.18,-280.44"/>
</g>
<!-- load_session -->
<g id="node14" class="node">
<title>load_session</title>
<polygon fill="none" stroke="black" points="1278,-476.5 1192,-476.5 1192,-440.5 1278,-440.5 1278,-476.5"/>
<text text-anchor="middle" x="1235" y="-454.8" font-family="Times,serif" font-size="14.00">load_session</text>
</g>
<!-- SessionStore&#45;&gt;load_session -->
<g id="edge11" class="edge">
<title>SessionStore&#45;&gt;load_session</title>
<path fill="none" stroke="#666666" d="M1043.6,-392.17C1082.49,-405.72 1140.38,-425.88 1182.11,-440.42"/>
<polygon fill="#666666" stroke="#666666" points="1181.22,-443.82 1191.82,-443.8 1183.53,-437.21 1181.22,-443.82"/>
</g>
<!-- store_session -->
<g id="node15" class="node">
<title>store_session</title>
<polygon fill="none" stroke="black" points="1279.5,-422.5 1190.5,-422.5 1190.5,-386.5 1279.5,-386.5 1279.5,-422.5"/>
<text text-anchor="middle" x="1235" y="-400.8" font-family="Times,serif" font-size="14.00">store_session</text>
</g>
<!-- SessionStore&#45;&gt;store_session -->
<g id="edge12" class="edge">
<title>SessionStore&#45;&gt;store_session</title>
<path fill="none" stroke="#666666" d="M1043.6,-382.39C1081.93,-386.84 1138.7,-393.43 1180.28,-398.26"/>
<polygon fill="#666666" stroke="#666666" points="1179.9,-401.74 1190.24,-399.42 1180.71,-394.79 1179.9,-401.74"/>
</g>
<!-- destroy_session -->
<g id="node16" class="node">
<title>destroy_session</title>
<polygon fill="none" stroke="black" points="1286,-368.5 1184,-368.5 1184,-332.5 1286,-332.5 1286,-368.5"/>
<text text-anchor="middle" x="1235" y="-346.8" font-family="Times,serif" font-size="14.00">destroy_session</text>
</g>
<!-- SessionStore&#45;&gt;destroy_session -->
<g id="edge13" class="edge">
<title>SessionStore&#45;&gt;destroy_session</title>
<path fill="none" stroke="#666666" d="M1043.6,-372.61C1079.92,-368.39 1132.79,-362.25 1173.61,-357.51"/>
<polygon fill="#666666" stroke="#666666" points="1174.18,-360.97 1183.71,-356.34 1173.38,-354.02 1174.18,-360.97"/>
</g>
<!-- clear_store -->
<g id="node17" class="node">
<title>clear_store</title>
<polygon fill="none" stroke="black" points="1273,-314.5 1197,-314.5 1197,-278.5 1273,-278.5 1273,-314.5"/>
<text text-anchor="middle" x="1235" y="-292.8" font-family="Times,serif" font-size="14.00">clear_store</text>
</g>
<!-- SessionStore&#45;&gt;clear_store -->
<g id="edge14" class="edge">
<title>SessionStore&#45;&gt;clear_store</title>
<path fill="none" stroke="#666666" d="M1043.7,-374.66C1073.55,-371.48 1113.97,-364.74 1147,-350.5 1165.69,-342.44 1166.78,-334.36 1184,-323.5 1185.93,-322.28 1187.92,-321.06 1189.95,-319.85"/>
<polygon fill="#666666" stroke="#666666" points="1192.05,-322.68 1198.95,-314.64 1188.55,-316.62 1192.05,-322.68"/>
</g>
</g>
</svg>
