<?xml version="1.0" encoding="UTF-8" standalone="no"?>
<!DOCTYPE svg PUBLIC "-//W3C//DTD SVG 1.1//EN"
 "http://www.w3.org/Graphics/SVG/1.1/DTD/svg11.dtd">
<!-- Generated by graphviz version 2.50.0 (20211204.2007)
 -->
<!-- Title: multi_parts Pages: 1 -->
<svg width="1880pt" height="884pt"
 viewBox="0.00 0.00 1880.00 884.00" xmlns="http://www.w3.org/2000/svg" xmlns:xlink="http://www.w3.org/1999/xlink">
<g id="graph0" class="graph" transform="scale(1 1) rotate(0) translate(4 880)">
<title>multi_parts</title>
<polygon fill="white" stroke="transparent" points="-4,4 -4,-880 1876,-880 1876,4 -4,4"/>
<!-- Multipart__from_request -->
<g id="node1" class="node">
<title>Multipart__from_request</title>
<polygon fill="none" stroke="black" points="448,-485 293,-485 293,-449 448,-449 448,-485"/>
<text text-anchor="middle" x="370.5" y="-463.3" font-family="Times,serif" font-size="14.00">Multipart__from_request</text>
</g>
<!-- BodyStream__from_request -->
<g id="node2" class="node">
<title>BodyStream__from_request</title>
<polygon fill="none" stroke="black" points="655,-712 484,-712 484,-676 655,-676 655,-712"/>
<text text-anchor="middle" x="569.5" y="-690.3" font-family="Times,serif" font-size="14.00">BodyStream__from_request</text>
</g>
<!-- Multipart__from_request&#45;&gt;BodyStream__from_request -->
<g id="edge1" class="edge">
<title>Multipart__from_request&#45;&gt;BodyStream__from_request</title>
<path fill="none" stroke="#666666" d="M387.29,-485.19C422.09,-525.29 505.49,-621.39 545.85,-667.9"/>
<polygon fill="#666666" stroke="#666666" points="543.44,-670.46 552.64,-675.72 548.73,-665.87 543.44,-670.46"/>
</g>
<!-- HeadersAlreadyExtracted -->
<g id="node3" class="node">
<title>HeadersAlreadyExtracted</title>
<polygon fill="none" stroke="black" points="647.5,-539 491.5,-539 491.5,-503 647.5,-503 647.5,-539"/>
<text text-anchor="middle" x="569.5" y="-517.3" font-family="Times,serif" font-size="14.00">HeadersAlreadyExtracted</text>
</g>
<!-- Multipart__from_request&#45;&gt;HeadersAlreadyExtracted -->
<g id="edge2" class="edge">
<title>Multipart__from_request&#45;&gt;HeadersAlreadyExtracted</title>
<path fill="none" stroke="#666666" d="M437.37,-485.06C455.2,-489.94 474.63,-495.27 492.94,-500.29"/>
<polygon fill="#666666" stroke="#666666" points="492.12,-503.69 502.69,-502.96 493.97,-496.94 492.12,-503.69"/>
</g>
<!-- parse_boundary -->
<g id="node4" class="node">
<title>parse_boundary</title>
<polygon fill="none" stroke="black" points="621,-485 518,-485 518,-449 621,-449 621,-485"/>
<text text-anchor="middle" x="569.5" y="-463.3" font-family="Times,serif" font-size="14.00">parse_boundary</text>
</g>
<!-- Multipart__from_request&#45;&gt;parse_boundary -->
<g id="edge3" class="edge">
<title>Multipart__from_request&#45;&gt;parse_boundary</title>
<path fill="none" stroke="#666666" d="M448.23,-467C467.92,-467 488.83,-467 507.6,-467"/>
<polygon fill="#666666" stroke="#666666" points="507.78,-470.5 517.78,-467 507.78,-463.5 507.78,-470.5"/>
</g>
<!-- multer__Multipart__new -->
<g id="node5" class="node">
<title>multer__Multipart__new</title>
<polygon fill="none" stroke="black" points="646.5,-431 492.5,-431 492.5,-395 646.5,-395 646.5,-431"/>
<text text-anchor="middle" x="569.5" y="-409.3" font-family="Times,serif" font-size="14.00">multer__Multipart__new</text>
</g>
<!-- Multipart__from_request&#45;&gt;multer__Multipart__new -->
<g id="edge4" class="edge">
<title>Multipart__from_request&#45;&gt;multer__Multipart__new</title>
<path fill="none" stroke="#666666" d="M437.37,-448.94C455.2,-444.06 474.63,-438.73 492.94,-433.71"/>
<polygon fill="#666666" stroke="#666666" points="493.97,-437.06 502.69,-431.04 492.12,-430.31 493.97,-437.06"/>
</g>
<!-- take_body -->
<g id="node6" class="node">
<title>take_body</title>
<path fill="none" stroke="black" d="M754,-784.5C754,-784.5 833,-784.5 833,-784.5 839,-784.5 845,-790.5 845,-796.5 845,-796.5 845,-863.5 845,-863.5 845,-869.5 839,-875.5 833,-875.5 833,-875.5 754,-875.5 754,-875.5 748,-875.5 742,-869.5 742,-863.5 742,-863.5 742,-796.5 742,-796.5 742,-790.5 748,-784.5 754,-784.5"/>
<text text-anchor="start" x="750" y="-860.3" font-family="Times,serif" font-size="14.00">take_body</text>
<polyline fill="none" stroke="black" points="742,-852.5 845,-852.5 "/>
<text text-anchor="start" x="750" y="-837.3" font-family="Times,serif" font-size="14.00">Takes the body</text>
<text text-anchor="start" x="750" y="-822.3" font-family="Times,serif" font-size="14.00"> out of request</text>
<text text-anchor="start" x="750" y="-807.3" font-family="Times,serif" font-size="14.00"> leaving a None</text>
<text text-anchor="start" x="750" y="-792.3" font-family="Times,serif" font-size="14.00"> in its place</text>
</g>
<!-- BodyStream__from_request&#45;&gt;take_body -->
<g id="edge5" class="edge">
<title>BodyStream__from_request&#45;&gt;take_body</title>
<path fill="none" stroke="#666666" d="M595.9,-712.1C619.97,-729.02 657.36,-754.64 691,-775 704.36,-783.09 719,-791.35 732.89,-798.92"/>
<polygon fill="#666666" stroke="#666666" points="731.43,-802.11 741.89,-803.8 734.76,-795.96 731.43,-802.11"/>
</g>
<!-- map_data -->
<g id="node7" class="node">
<title>map_data</title>
<polygon fill="none" stroke="black" points="828.5,-766 758.5,-766 758.5,-730 828.5,-730 828.5,-766"/>
<text text-anchor="middle" x="793.5" y="-744.3" font-family="Times,serif" font-size="14.00">map_data</text>
</g>
<!-- BodyStream__from_request&#45;&gt;map_data -->
<g id="edge6" class="edge">
<title>BodyStream__from_request&#45;&gt;map_data</title>
<path fill="none" stroke="#666666" d="M644.73,-712.06C679.12,-720.42 718.82,-730.08 748.4,-737.27"/>
<polygon fill="#666666" stroke="#666666" points="747.88,-740.75 758.42,-739.71 749.53,-733.95 747.88,-740.75"/>
</g>
<!-- map_err -->
<g id="node8" class="node">
<title>map_err</title>
<polygon fill="none" stroke="black" points="824.5,-712 762.5,-712 762.5,-676 824.5,-676 824.5,-712"/>
<text text-anchor="middle" x="793.5" y="-690.3" font-family="Times,serif" font-size="14.00">map_err</text>
</g>
<!-- BodyStream__from_request&#45;&gt;map_err -->
<g id="edge7" class="edge">
<title>BodyStream__from_request&#45;&gt;map_err</title>
<path fill="none" stroke="#666666" d="M655.06,-694C688.38,-694 725.07,-694 752.16,-694"/>
<polygon fill="#666666" stroke="#666666" points="752.4,-697.5 762.4,-694 752.4,-690.5 752.4,-697.5"/>
</g>
<!-- BodyStream -->
<g id="node9" class="node">
<title>BodyStream</title>
<path fill="none" stroke="black" d="M1324.5,-687C1324.5,-687 1385.5,-687 1385.5,-687 1391.5,-687 1397.5,-693 1397.5,-699 1397.5,-699 1397.5,-711 1397.5,-711 1397.5,-717 1391.5,-723 1385.5,-723 1385.5,-723 1324.5,-723 1324.5,-723 1318.5,-723 1312.5,-717 1312.5,-711 1312.5,-711 1312.5,-699 1312.5,-699 1312.5,-693 1318.5,-687 1324.5,-687"/>
<text text-anchor="middle" x="1355" y="-701.3" font-family="Times,serif" font-size="14.00">BodyStream</text>
</g>
<!-- BodyStream__from_request&#45;&gt;BodyStream -->
<g id="edge8" class="edge">
<title>BodyStream__from_request&#45;&gt;BodyStream</title>
<path fill="none" stroke="#666666" d="M638.88,-675.94C655.79,-672.23 673.95,-668.89 691,-667 917.97,-641.88 1190.61,-678.38 1302.38,-696.18"/>
<polygon fill="#666666" stroke="#666666" points="1301.94,-699.66 1312.37,-697.79 1303.05,-692.75 1301.94,-699.66"/>
</g>
<!-- multer__parse_boundary -->
<g id="node14" class="node">
<title>multer__parse_boundary</title>
<polygon fill="none" stroke="black" points="869.5,-512 717.5,-512 717.5,-476 869.5,-476 869.5,-512"/>
<text text-anchor="middle" x="793.5" y="-490.3" font-family="Times,serif" font-size="14.00">multer__parse_boundary</text>
</g>
<!-- parse_boundary&#45;&gt;multer__parse_boundary -->
<g id="edge14" class="edge">
<title>parse_boundary&#45;&gt;multer__parse_boundary</title>
<path fill="none" stroke="#666666" d="M621.15,-473.16C646.57,-476.25 678.04,-480.08 707.06,-483.61"/>
<polygon fill="#666666" stroke="#666666" points="706.85,-487.11 717.2,-484.84 707.7,-480.16 706.85,-487.11"/>
</g>
<!-- headers__get__CONTENT_TYPE -->
<g id="node15" class="node">
<title>headers__get__CONTENT_TYPE</title>
<polygon fill="none" stroke="black" points="896,-458 691,-458 691,-422 896,-422 896,-458"/>
<text text-anchor="middle" x="793.5" y="-436.3" font-family="Times,serif" font-size="14.00">headers__get__CONTENT_TYPE</text>
</g>
<!-- parse_boundary&#45;&gt;headers__get__CONTENT_TYPE -->
<g id="edge15" class="edge">
<title>parse_boundary&#45;&gt;headers__get__CONTENT_TYPE</title>
<path fill="none" stroke="#666666" d="M621.15,-460.84C639.05,-458.66 659.95,-456.12 680.89,-453.57"/>
<polygon fill="#666666" stroke="#666666" points="681.32,-457.05 690.82,-452.37 680.47,-450.1 681.32,-457.05"/>
</g>
<!-- body -->
<g id="node10" class="node">
<title>body</title>
<polygon fill="none" stroke="black" points="1090.5,-780 1036.5,-780 1036.5,-744 1090.5,-744 1090.5,-780"/>
<text text-anchor="middle" x="1063.5" y="-758.3" font-family="Times,serif" font-size="14.00">body</text>
</g>
<!-- take_body&#45;&gt;body -->
<g id="edge9" class="edge">
<title>take_body&#45;&gt;body</title>
<path fill="none" stroke="green" stroke-dasharray="5,2" d="M845.22,-817.13C898.13,-803.71 979.73,-783 1026.41,-771.16"/>
<polygon fill="green" stroke="green" points="1027.55,-774.48 1036.38,-768.63 1025.82,-767.69 1027.55,-774.48"/>
</g>
<!-- http_body__Body -->
<g id="node11" class="node">
<title>http_body__Body</title>
<path fill="none" stroke="black" d="M1531.5,-742C1531.5,-742 1641.5,-742 1641.5,-742 1647.5,-742 1653.5,-748 1653.5,-754 1653.5,-754 1653.5,-806 1653.5,-806 1653.5,-812 1647.5,-818 1641.5,-818 1641.5,-818 1531.5,-818 1531.5,-818 1525.5,-818 1519.5,-812 1519.5,-806 1519.5,-806 1519.5,-754 1519.5,-754 1519.5,-748 1525.5,-742 1531.5,-742"/>
<text text-anchor="start" x="1527.5" y="-802.8" font-family="Times,serif" font-size="14.00">trait http_body::Body</text>
<polyline fill="none" stroke="black" points="1519.5,-795 1653.5,-795 "/>
<text text-anchor="start" x="1527.5" y="-779.8" font-family="Times,serif" font-size="14.00">a streaming body</text>
<text text-anchor="start" x="1527.5" y="-764.8" font-family="Times,serif" font-size="14.00"> of a Request or</text>
<text text-anchor="start" x="1527.5" y="-749.8" font-family="Times,serif" font-size="14.00"> Response</text>
</g>
<!-- BodyStream&#45;&gt;http_body__Body -->
<g id="edge11" class="edge">
<title>BodyStream&#45;&gt;http_body__Body</title>
<path fill="none" stroke="#666666" d="M1397.56,-718.58C1428.75,-728.77 1472.31,-743.01 1509.64,-755.21"/>
<polygon fill="#666666" stroke="#666666" points="1508.9,-758.65 1519.49,-758.43 1511.07,-751.99 1508.9,-758.65"/>
</g>
<!-- SyncWrapper -->
<g id="node12" class="node">
<title>SyncWrapper</title>
<polygon fill="none" stroke="black" points="1632,-723 1541,-723 1541,-687 1632,-687 1632,-723"/>
<text text-anchor="middle" x="1586.5" y="-701.3" font-family="Times,serif" font-size="14.00">SyncWrapper</text>
</g>
<!-- BodyStream&#45;&gt;SyncWrapper -->
<g id="edge12" class="edge">
<title>BodyStream&#45;&gt;SyncWrapper</title>
<path fill="none" stroke="#666666" d="M1397.56,-705C1434.83,-705 1489.79,-705 1530.65,-705"/>
<polygon fill="#666666" stroke="#666666" points="1530.72,-708.5 1540.72,-705 1530.72,-701.5 1530.72,-708.5"/>
</g>
<!-- Bytes -->
<g id="node13" class="node">
<title>Bytes</title>
<path fill="none" stroke="black" d="M1527,-553.5C1527,-553.5 1646,-553.5 1646,-553.5 1652,-553.5 1658,-559.5 1658,-565.5 1658,-565.5 1658,-656.5 1658,-656.5 1658,-662.5 1652,-668.5 1646,-668.5 1646,-668.5 1527,-668.5 1527,-668.5 1521,-668.5 1515,-662.5 1515,-656.5 1515,-656.5 1515,-565.5 1515,-565.5 1515,-559.5 1521,-553.5 1527,-553.5"/>
<text text-anchor="start" x="1523" y="-653.3" font-family="Times,serif" font-size="14.00">Bytes</text>
<polyline fill="none" stroke="black" points="1515,-645.5 1658,-645.5 "/>
<text text-anchor="start" x="1523" y="-630.3" font-family="Times,serif" font-size="14.00">ptr: *const u8,</text>
<polyline fill="none" stroke="black" points="1515,-622.5 1658,-622.5 "/>
<text text-anchor="start" x="1523" y="-607.3" font-family="Times,serif" font-size="14.00">len: usize,</text>
<polyline fill="none" stroke="black" points="1515,-599.5 1658,-599.5 "/>
<text text-anchor="start" x="1523" y="-584.3" font-family="Times,serif" font-size="14.00">data: AtomicPtr&lt;()&gt;,</text>
<polyline fill="none" stroke="black" points="1515,-576.5 1658,-576.5 "/>
<text text-anchor="start" x="1523" y="-561.3" font-family="Times,serif" font-size="14.00">vtable: &amp;&#39;static Vtable,</text>
</g>
<!-- BodyStream&#45;&gt;Bytes -->
<g id="edge13" class="edge">
<title>BodyStream&#45;&gt;Bytes</title>
<path fill="none" stroke="#666666" d="M1397.56,-687.98C1427.56,-675.69 1469.01,-658.71 1505.36,-643.83"/>
<polygon fill="#666666" stroke="#666666" points="1507.04,-646.92 1514.97,-639.89 1504.39,-640.44 1507.04,-646.92"/>
</g>
<!-- body&#45;&gt;BodyStream -->
<g id="edge10" class="edge">
<title>body&#45;&gt;BodyStream</title>
<path fill="none" stroke="green" stroke-dasharray="5,2" d="M1090.7,-756.84C1138.43,-747.44 1240.33,-727.38 1302.43,-715.15"/>
<polygon fill="green" stroke="green" points="1303.28,-718.55 1312.42,-713.19 1301.93,-711.68 1303.28,-718.55"/>
</g>
<!-- crate__Error__NoMultipart -->
<g id="node16" class="node">
<title>crate__Error__NoMultipart</title>
<polygon fill="none" stroke="black" points="1147,-620 980,-620 980,-584 1147,-584 1147,-620"/>
<text text-anchor="middle" x="1063.5" y="-598.3" font-family="Times,serif" font-size="14.00">crate__Error__NoMultipart</text>
</g>
<!-- multer__parse_boundary&#45;&gt;crate__Error__NoMultipart -->
<g id="edge16" class="edge">
<title>multer__parse_boundary&#45;&gt;crate__Error__NoMultipart</title>
<path fill="none" stroke="#666666" d="M819.56,-512.21C846.19,-530.7 890.12,-558.85 932,-575 944.04,-579.65 957.03,-583.55 969.98,-586.81"/>
<polygon fill="#666666" stroke="#666666" points="969.32,-590.25 979.86,-589.18 970.96,-583.45 969.32,-590.25"/>
</g>
<!-- crate__Error__NoBoundary -->
<g id="node17" class="node">
<title>crate__Error__NoBoundary</title>
<polygon fill="none" stroke="black" points="1147.5,-566 979.5,-566 979.5,-530 1147.5,-530 1147.5,-566"/>
<text text-anchor="middle" x="1063.5" y="-544.3" font-family="Times,serif" font-size="14.00">crate__Error__NoBoundary</text>
</g>
<!-- multer__parse_boundary&#45;&gt;crate__Error__NoBoundary -->
<g id="edge17" class="edge">
<title>multer__parse_boundary&#45;&gt;crate__Error__NoBoundary</title>
<path fill="none" stroke="#666666" d="M869.51,-509.11C900.38,-515.33 936.48,-522.61 969.04,-529.17"/>
<polygon fill="#666666" stroke="#666666" points="968.53,-532.64 979.03,-531.18 969.91,-525.77 968.53,-532.64"/>
</g>
<!-- mime__BOUNDARY -->
<g id="node18" class="node">
<title>mime__BOUNDARY</title>
<polygon fill="none" stroke="black" points="1133,-512 994,-512 994,-476 1133,-476 1133,-512"/>
<text text-anchor="middle" x="1063.5" y="-490.3" font-family="Times,serif" font-size="14.00">mime__BOUNDARY</text>
</g>
<!-- multer__parse_boundary&#45;&gt;mime__BOUNDARY -->
<g id="edge18" class="edge">
<title>multer__parse_boundary&#45;&gt;mime__BOUNDARY</title>
<path fill="none" stroke="#666666" d="M869.51,-494C905.18,-494 947.81,-494 983.93,-494"/>
<polygon fill="#666666" stroke="#666666" points="983.93,-497.5 993.93,-494 983.93,-490.5 983.93,-497.5"/>
</g>
<!-- mime__FORM_DATA -->
<g id="node19" class="node">
<title>mime__FORM_DATA</title>
<polygon fill="none" stroke="black" points="1135.5,-458 991.5,-458 991.5,-422 1135.5,-422 1135.5,-458"/>
<text text-anchor="middle" x="1063.5" y="-436.3" font-family="Times,serif" font-size="14.00">mime__FORM_DATA</text>
</g>
<!-- multer__parse_boundary&#45;&gt;mime__FORM_DATA -->
<g id="edge19" class="edge">
<title>multer__parse_boundary&#45;&gt;mime__FORM_DATA</title>
<path fill="none" stroke="#666666" d="M869.51,-478.89C904.33,-471.87 945.79,-463.52 981.34,-456.35"/>
<polygon fill="#666666" stroke="#666666" points="982.09,-459.77 991.2,-454.37 980.7,-452.91 982.09,-459.77"/>
</g>
<!-- Mime -->
<g id="node20" class="node">
<title>Mime</title>
<path fill="none" stroke="black" d="M993,-342.5C993,-342.5 1134,-342.5 1134,-342.5 1140,-342.5 1146,-348.5 1146,-354.5 1146,-354.5 1146,-391.5 1146,-391.5 1146,-397.5 1140,-403.5 1134,-403.5 1134,-403.5 993,-403.5 993,-403.5 987,-403.5 981,-397.5 981,-391.5 981,-391.5 981,-354.5 981,-354.5 981,-348.5 987,-342.5 993,-342.5"/>
<text text-anchor="start" x="989" y="-388.3" font-family="Times,serif" font-size="14.00">Mime</text>
<polyline fill="none" stroke="black" points="981,-380.5 1146,-380.5 "/>
<text text-anchor="start" x="989" y="-365.3" font-family="Times,serif" font-size="14.00">mime=multipart/form&#45;data</text>
<text text-anchor="start" x="989" y="-350.3" font-family="Times,serif" font-size="14.00"> boundary=ABCDEFG</text>
</g>
<!-- multer__parse_boundary&#45;&gt;Mime -->
<g id="edge20" class="edge">
<title>multer__parse_boundary&#45;&gt;Mime</title>
<path fill="none" stroke="#666666" d="M869.67,-480.71C879.02,-477.16 888.07,-472.68 896,-467 919.45,-450.21 908.87,-430.23 932,-413 943.66,-404.32 957.22,-397.5 971.11,-392.15"/>
<polygon fill="#666666" stroke="#666666" points="972.53,-395.36 980.76,-388.68 970.16,-388.77 972.53,-395.36"/>
</g>
<!-- accept_form -->
<g id="node21" class="node">
<title>accept_form</title>
<polygon fill="none" stroke="black" points="85,-422 0,-422 0,-386 85,-386 85,-422"/>
<text text-anchor="middle" x="42.5" y="-400.3" font-family="Times,serif" font-size="14.00">accept_form</text>
</g>
<!-- Multipart -->
<g id="node22" class="node">
<title>Multipart</title>
<polygon fill="none" stroke="black" points="223,-449 155,-449 155,-413 223,-413 223,-449"/>
<text text-anchor="middle" x="189" y="-427.3" font-family="Times,serif" font-size="14.00">Multipart</text>
</g>
<!-- accept_form&#45;&gt;Multipart -->
<g id="edge21" class="edge">
<title>accept_form&#45;&gt;Multipart</title>
<path fill="none" stroke="#666666" d="M85.3,-411.81C103.86,-415.28 125.71,-419.36 144.48,-422.87"/>
<polygon fill="#666666" stroke="#666666" points="144.07,-426.35 154.54,-424.75 145.36,-419.47 144.07,-426.35"/>
</g>
<!-- Multipart__next_field -->
<g id="node23" class="node">
<title>Multipart__next_field</title>
<polygon fill="none" stroke="black" points="257,-395 121,-395 121,-359 257,-359 257,-395"/>
<text text-anchor="middle" x="189" y="-373.3" font-family="Times,serif" font-size="14.00">Multipart__next_field</text>
</g>
<!-- accept_form&#45;&gt;Multipart__next_field -->
<g id="edge22" class="edge">
<title>accept_form&#45;&gt;Multipart__next_field</title>
<path fill="none" stroke="#666666" d="M85.3,-396.19C93.41,-394.67 102.15,-393.04 110.99,-391.39"/>
<polygon fill="#666666" stroke="#666666" points="111.79,-394.8 120.98,-389.52 110.51,-387.92 111.79,-394.8"/>
</g>
<!-- Multipart&#45;&gt;Multipart__from_request -->
<g id="edge23" class="edge">
<title>Multipart&#45;&gt;Multipart__from_request</title>
<path fill="none" stroke="green" stroke-dasharray="5,2" d="M223.34,-437.69C240.23,-441.07 261.61,-445.36 282.76,-449.6"/>
<polygon fill="green" stroke="green" points="282.28,-453.08 292.78,-451.61 283.66,-446.21 282.28,-453.08"/>
</g>
<!-- next_field__await -->
<g id="node24" class="node">
<title>next_field__await</title>
<polygon fill="none" stroke="black" points="427,-395 314,-395 314,-359 427,-359 427,-395"/>
<text text-anchor="middle" x="370.5" y="-373.3" font-family="Times,serif" font-size="14.00">next_field__await</text>
</g>
<!-- Multipart__next_field&#45;&gt;next_field__await -->
<g id="edge24" class="edge">
<title>Multipart__next_field&#45;&gt;next_field__await</title>
<path fill="none" stroke="#666666" d="M257.09,-377C272.31,-377 288.44,-377 303.61,-377"/>
<polygon fill="#666666" stroke="#666666" points="303.92,-380.5 313.92,-377 303.92,-373.5 303.92,-380.5"/>
</g>
<!-- Multipart__poll_next_field -->
<g id="node25" class="node">
<title>Multipart__poll_next_field</title>
<polygon fill="none" stroke="black" points="651.5,-332 487.5,-332 487.5,-296 651.5,-296 651.5,-332"/>
<text text-anchor="middle" x="569.5" y="-310.3" font-family="Times,serif" font-size="14.00">Multipart__poll_next_field</text>
</g>
<!-- next_field__await&#45;&gt;Multipart__poll_next_field -->
<g id="edge25" class="edge">
<title>next_field__await&#45;&gt;Multipart__poll_next_field</title>
<path fill="none" stroke="#666666" d="M427.16,-359.2C450.57,-351.71 477.98,-342.95 502.4,-335.14"/>
<polygon fill="#666666" stroke="#666666" points="503.49,-338.46 511.95,-332.08 501.36,-331.8 503.49,-338.46"/>
</g>
<!-- Multipart__state__try_lock -->
<g id="node26" class="node">
<title>Multipart__state__try_lock</title>
<polygon fill="none" stroke="black" points="876,-237 711,-237 711,-201 876,-201 876,-237"/>
<text text-anchor="middle" x="793.5" y="-215.3" font-family="Times,serif" font-size="14.00">Multipart__state__try_lock</text>
</g>
<!-- Multipart__poll_next_field&#45;&gt;Multipart__state__try_lock -->
<g id="edge26" class="edge">
<title>Multipart__poll_next_field&#45;&gt;Multipart__state__try_lock</title>
<path fill="none" stroke="#666666" d="M612.78,-295.91C649.2,-280.32 701.88,-257.78 740.8,-241.12"/>
<polygon fill="#666666" stroke="#666666" points="742.56,-244.18 750.38,-237.03 739.81,-237.74 742.56,-244.18"/>
</g>
<!-- StreamingStage -->
<g id="node27" class="node">
<title>StreamingStage</title>
<path fill="none" stroke="black" d="M1282,-234C1282,-234 1428,-234 1428,-234 1434,-234 1440,-240 1440,-246 1440,-246 1440,-406 1440,-406 1440,-412 1434,-418 1428,-418 1428,-418 1282,-418 1282,-418 1276,-418 1270,-412 1270,-406 1270,-406 1270,-246 1270,-246 1270,-240 1276,-234 1282,-234"/>
<text text-anchor="start" x="1278" y="-402.8" font-family="Times,serif" font-size="14.00">StreamingStage</text>
<polyline fill="none" stroke="black" points="1270,-395 1440,-395 "/>
<text text-anchor="start" x="1278" y="-379.8" font-family="Times,serif" font-size="14.00">FindingFirstBoundary,</text>
<polyline fill="none" stroke="black" points="1270,-372 1440,-372 "/>
<text text-anchor="start" x="1278" y="-356.8" font-family="Times,serif" font-size="14.00">ReadingBoundary,</text>
<polyline fill="none" stroke="black" points="1270,-349 1440,-349 "/>
<text text-anchor="start" x="1278" y="-333.8" font-family="Times,serif" font-size="14.00">DeterminingBoundaryType,</text>
<polyline fill="none" stroke="black" points="1270,-326 1440,-326 "/>
<text text-anchor="start" x="1278" y="-310.8" font-family="Times,serif" font-size="14.00">ReadingTransportPadding,</text>
<polyline fill="none" stroke="black" points="1270,-303 1440,-303 "/>
<text text-anchor="start" x="1278" y="-287.8" font-family="Times,serif" font-size="14.00">ReadingFieldHeaders,</text>
<polyline fill="none" stroke="black" points="1270,-280 1440,-280 "/>
<text text-anchor="start" x="1278" y="-264.8" font-family="Times,serif" font-size="14.00">ReadingFieldData,</text>
<polyline fill="none" stroke="black" points="1270,-257 1440,-257 "/>
<text text-anchor="start" x="1278" y="-241.8" font-family="Times,serif" font-size="14.00">Eof,</text>
</g>
<!-- Multipart__poll_next_field&#45;&gt;StreamingStage -->
<g id="edge27" class="edge">
<title>Multipart__poll_next_field&#45;&gt;StreamingStage</title>
<path fill="none" stroke="#666666" d="M651.76,-315.24C797.85,-317.48 1104.04,-322.17 1259.34,-324.55"/>
<polygon fill="#666666" stroke="#666666" points="1259.75,-328.06 1269.8,-324.71 1259.85,-321.06 1259.75,-328.06"/>
</g>
<!-- MultipartState -->
<g id="node28" class="node">
<title>MultipartState</title>
<path fill="none" stroke="black" d="M944,-43C944,-43 1183,-43 1183,-43 1189,-43 1195,-49 1195,-55 1195,-55 1195,-261 1195,-261 1195,-267 1189,-273 1183,-273 1183,-273 944,-273 944,-273 938,-273 932,-267 932,-261 932,-261 932,-55 932,-55 932,-49 938,-43 944,-43"/>
<text text-anchor="start" x="940" y="-257.8" font-family="Times,serif" font-size="14.00">MultipartState</text>
<polyline fill="none" stroke="black" points="932,-250 1195,-250 "/>
<text text-anchor="start" x="940" y="-234.8" font-family="Times,serif" font-size="14.00">pub(crate) buffer: StreamBuffer&lt;&#39;r&gt;,</text>
<polyline fill="none" stroke="black" points="932,-227 1195,-227 "/>
<text text-anchor="start" x="940" y="-211.8" font-family="Times,serif" font-size="14.00">pub(crate) boundary: String,</text>
<polyline fill="none" stroke="black" points="932,-204 1195,-204 "/>
<text text-anchor="start" x="940" y="-188.8" font-family="Times,serif" font-size="14.00">pub(crate) stage: StreamingStage,</text>
<polyline fill="none" stroke="black" points="932,-181 1195,-181 "/>
<text text-anchor="start" x="940" y="-165.8" font-family="Times,serif" font-size="14.00">pub(crate) next_field_idx: usize,</text>
<polyline fill="none" stroke="black" points="932,-158 1195,-158 "/>
<text text-anchor="start" x="940" y="-142.8" font-family="Times,serif" font-size="14.00">pub(crate) curr_field_name: Option&lt;String&gt;,</text>
<polyline fill="none" stroke="black" points="932,-135 1195,-135 "/>
<text text-anchor="start" x="940" y="-119.8" font-family="Times,serif" font-size="14.00">pub(crate) curr_field_size_limit: u64,</text>
<polyline fill="none" stroke="black" points="932,-112 1195,-112 "/>
<text text-anchor="start" x="940" y="-96.8" font-family="Times,serif" font-size="14.00">pub(crate) curr_field_size_counter: u64,</text>
<polyline fill="none" stroke="black" points="932,-89 1195,-89 "/>
<text text-anchor="start" x="940" y="-73.8" font-family="Times,serif" font-size="14.00">pub(crate) constraints: Constraints,</text>
<polyline fill="none" stroke="black" points="932,-66 1195,-66 "/>
<text text-anchor="middle" x="1063.5" y="-50.8" font-family="Times,serif" font-size="14.00"> </text>
</g>
<!-- Multipart__state__try_lock&#45;&gt;MultipartState -->
<g id="edge28" class="edge">
<title>Multipart__state__try_lock&#45;&gt;MultipartState</title>
<path fill="none" stroke="#666666" d="M873.82,-200.95C889.11,-197.47 905.55,-193.72 922.11,-189.95"/>
<polygon fill="#666666" stroke="#666666" points="922.9,-193.36 931.87,-187.73 921.35,-186.54 922.9,-193.36"/>
</g>
<!-- MultipartState&#45;&gt;StreamingStage -->
<g id="edge29" class="edge">
<title>MultipartState&#45;&gt;StreamingStage</title>
<path fill="none" stroke="#666666" d="M1195.27,-233.89C1217.43,-246.75 1240.03,-259.86 1260.97,-272.01"/>
<polygon fill="#666666" stroke="#666666" points="1259.43,-275.17 1269.83,-277.16 1262.94,-269.11 1259.43,-275.17"/>
</g>
<!-- StreamBuffer -->
<g id="node29" class="node">
<title>StreamBuffer</title>
<path fill="none" stroke="black" d="M1243,-55C1243,-55 1467,-55 1467,-55 1473,-55 1479,-61 1479,-67 1479,-67 1479,-203 1479,-203 1479,-209 1473,-215 1467,-215 1467,-215 1243,-215 1243,-215 1237,-215 1231,-209 1231,-203 1231,-203 1231,-67 1231,-67 1231,-61 1237,-55 1243,-55"/>
<text text-anchor="start" x="1239" y="-199.8" font-family="Times,serif" font-size="14.00">StreamBuffer</text>
<polyline fill="none" stroke="black" points="1231,-192 1479,-192 "/>
<text text-anchor="start" x="1239" y="-176.8" font-family="Times,serif" font-size="14.00">pub(crate) eof: bool,</text>
<polyline fill="none" stroke="black" points="1231,-169 1479,-169 "/>
<text text-anchor="start" x="1239" y="-153.8" font-family="Times,serif" font-size="14.00">pub(crate) buf: BytesMut,</text>
<polyline fill="none" stroke="black" points="1231,-146 1479,-146 "/>
<text text-anchor="start" x="1239" y="-130.8" font-family="Times,serif" font-size="14.00">pub(crate) stream: Pin&lt;Box&lt;dyn Stream</text>
<text text-anchor="start" x="1239" y="-115.8" font-family="Times,serif" font-size="14.00"> &lt;Item = Result&lt;Bytes, crate::Error&gt;&gt;</text>
<text text-anchor="start" x="1239" y="-100.8" font-family="Times,serif" font-size="14.00"> + Send + &#39;r&gt;&gt;,</text>
<text text-anchor="start" x="1239" y="-85.8" font-family="Times,serif" font-size="14.00"> pub(crate) whole_stream_size_limit: u64,</text>
<polyline fill="none" stroke="black" points="1231,-78 1479,-78 "/>
<text text-anchor="start" x="1239" y="-62.8" font-family="Times,serif" font-size="14.00">pub(crate) stream_size_counter: u64,</text>
</g>
<!-- MultipartState&#45;&gt;StreamBuffer -->
<g id="edge30" class="edge">
<title>MultipartState&#45;&gt;StreamBuffer</title>
<path fill="none" stroke="#666666" d="M1195.27,-147.61C1203.78,-146.93 1212.36,-146.25 1220.88,-145.58"/>
<polygon fill="#666666" stroke="#666666" points="1221.15,-149.07 1230.84,-144.78 1220.6,-142.09 1221.15,-149.07"/>
</g>
<!-- Constraints -->
<g id="node30" class="node">
<title>Constraints</title>
<polygon fill="none" stroke="black" points="1394,-36 1316,-36 1316,0 1394,0 1394,-36"/>
<text text-anchor="middle" x="1355" y="-14.3" font-family="Times,serif" font-size="14.00">Constraints</text>
</g>
<!-- MultipartState&#45;&gt;Constraints -->
<g id="edge31" class="edge">
<title>MultipartState&#45;&gt;Constraints</title>
<path fill="none" stroke="#666666" d="M1195.03,-62.88C1206.88,-56.26 1218.97,-50.18 1231,-45 1254.71,-34.8 1282.7,-28.27 1305.99,-24.19"/>
<polygon fill="#666666" stroke="#666666" points="1306.69,-27.62 1315.99,-22.54 1305.55,-20.71 1306.69,-27.62"/>
</g>
<!-- BytesMut -->
<g id="node31" class="node">
<title>BytesMut</title>
<path fill="none" stroke="black" d="M1538.5,-77.5C1538.5,-77.5 1634.5,-77.5 1634.5,-77.5 1640.5,-77.5 1646.5,-83.5 1646.5,-89.5 1646.5,-89.5 1646.5,-180.5 1646.5,-180.5 1646.5,-186.5 1640.5,-192.5 1634.5,-192.5 1634.5,-192.5 1538.5,-192.5 1538.5,-192.5 1532.5,-192.5 1526.5,-186.5 1526.5,-180.5 1526.5,-180.5 1526.5,-89.5 1526.5,-89.5 1526.5,-83.5 1532.5,-77.5 1538.5,-77.5"/>
<text text-anchor="start" x="1534.5" y="-177.3" font-family="Times,serif" font-size="14.00">BytesMut</text>
<polyline fill="none" stroke="black" points="1526.5,-169.5 1646.5,-169.5 "/>
<text text-anchor="start" x="1534.5" y="-154.3" font-family="Times,serif" font-size="14.00">ptr: NonNull&lt;u8&gt;,</text>
<polyline fill="none" stroke="black" points="1526.5,-146.5 1646.5,-146.5 "/>
<text text-anchor="start" x="1534.5" y="-131.3" font-family="Times,serif" font-size="14.00">len: usize,</text>
<polyline fill="none" stroke="black" points="1526.5,-123.5 1646.5,-123.5 "/>
<text text-anchor="start" x="1534.5" y="-108.3" font-family="Times,serif" font-size="14.00">cap: usize,</text>
<polyline fill="none" stroke="black" points="1526.5,-100.5 1646.5,-100.5 "/>
<text text-anchor="start" x="1534.5" y="-85.3" font-family="Times,serif" font-size="14.00">data: *mut Shared,</text>
</g>
<!-- StreamBuffer&#45;&gt;BytesMut -->
<g id="edge32" class="edge">
<title>StreamBuffer&#45;&gt;BytesMut</title>
<path fill="none" stroke="#666666" d="M1479.15,-135C1491.81,-135 1504.34,-135 1516.11,-135"/>
<polygon fill="#666666" stroke="#666666" points="1516.24,-138.5 1526.24,-135 1516.24,-131.5 1516.24,-138.5"/>
</g>
<!-- Shared -->
<g id="node32" class="node">
<title>Shared</title>
<path fill="none" stroke="black" d="M1706,-89C1706,-89 1860,-89 1860,-89 1866,-89 1872,-95 1872,-101 1872,-101 1872,-169 1872,-169 1872,-175 1866,-181 1860,-181 1860,-181 1706,-181 1706,-181 1700,-181 1694,-175 1694,-169 1694,-169 1694,-101 1694,-101 1694,-95 1700,-89 1706,-89"/>
<text text-anchor="start" x="1702" y="-165.8" font-family="Times,serif" font-size="14.00">Shared</text>
<polyline fill="none" stroke="black" points="1694,-158 1872,-158 "/>
<text text-anchor="start" x="1702" y="-142.8" font-family="Times,serif" font-size="14.00">vec: Vec&lt;u8&gt;,</text>
<polyline fill="none" stroke="black" points="1694,-135 1872,-135 "/>
<text text-anchor="start" x="1702" y="-119.8" font-family="Times,serif" font-size="14.00">original_capacity_repr: usize,</text>
<polyline fill="none" stroke="black" points="1694,-112 1872,-112 "/>
<text text-anchor="start" x="1702" y="-96.8" font-family="Times,serif" font-size="14.00">ref_count: AtomicUsize,</text>
</g>
<!-- BytesMut&#45;&gt;Shared -->
<g id="edge33" class="edge">
<title>BytesMut&#45;&gt;Shared</title>
<path fill="none" stroke="#666666" d="M1646.65,-135C1658.38,-135 1670.99,-135 1683.62,-135"/>
<polygon fill="#666666" stroke="#666666" points="1683.74,-138.5 1693.74,-135 1683.74,-131.5 1683.74,-138.5"/>
</g>
</g>
</svg>
