<?xml version="1.0" encoding="UTF-8" standalone="no"?>
<!DOCTYPE svg PUBLIC "-//W3C//DTD SVG 1.1//EN"
 "http://www.w3.org/Graphics/SVG/1.1/DTD/svg11.dtd">
<!-- Generated by graphviz version 2.40.1 (20161225.0304)
 -->
<!-- Title: allpartionsoverview Pages: 1 -->
<svg width="1297pt" height="816pt"
 viewBox="0.00 0.00 1297.02 816.00" xmlns="http://www.w3.org/2000/svg" xmlns:xlink="http://www.w3.org/1999/xlink">
<g id="graph0" class="graph" transform="scale(1 1) rotate(0) translate(4 812)">
<title>allpartionsoverview</title>
<polygon fill="#ffffff" stroke="transparent" points="-4,4 -4,-812 1293.0225,-812 1293.0225,4 -4,4"/>
<g id="clust1" class="cluster">
<title>cluster_zookeeper</title>
<polygon fill="none" stroke="#000000" points="3,-283 3,-525 100.4209,-525 100.4209,-283 3,-283"/>
<text text-anchor="middle" x="51.7104" y="-505" font-family="Times,serif" font-size="20.00" fill="#000000">zookeeper</text>
</g>
<g id="clust3" class="cluster">
<title>cluster_KafkaController</title>
<polygon fill="none" stroke="#000000" points="120.4209,-130 120.4209,-678 1029.3115,-678 1029.3115,-130 120.4209,-130"/>
<text text-anchor="middle" x="574.8662" y="-658" font-family="Times,serif" font-size="20.00" fill="#000000">KafkaController</text>
</g>
<g id="clust5" class="cluster">
<title>cluster_KafkaBroker1</title>
<polygon fill="none" stroke="#000000" points="133.6313,-686 133.6313,-800 1281.0225,-800 1281.0225,-686 133.6313,-686"/>
<text text-anchor="middle" x="707.3269" y="-780" font-family="Times,serif" font-size="20.00" fill="#000000">KafkaBroker1</text>
</g>
<g id="clust6" class="cluster">
<title>cluster_KafkaBroker2</title>
<polygon fill="none" stroke="#000000" points="133.6313,-8 133.6313,-122 1281.0225,-122 1281.0225,-8 133.6313,-8"/>
<text text-anchor="middle" x="707.3269" y="-102" font-family="Times,serif" font-size="20.00" fill="#000000">KafkaBroker2</text>
</g>
<!-- topic -->
<g id="node1" class="node">
<title>topic</title>
<polygon fill="none" stroke="#000000" points="78.2104,-489 24.2104,-489 24.2104,-453 78.2104,-453 78.2104,-489"/>
<text text-anchor="middle" x="51.2104" y="-466.8" font-family="Times,serif" font-size="14.00" fill="#000000">topic</text>
</g>
<!-- zkHandlers -->
<g id="node5" class="node">
<title>zkHandlers</title>
<polygon fill="none" stroke="#000000" points="128.4209,-355.4001 128.4209,-424.5999 326.7627,-424.5999 326.7627,-355.4001 128.4209,-355.4001"/>
<text text-anchor="middle" x="227.5918" y="-409.3999" font-family="Times,serif" font-size="14.00" fill="#000000">zkHandlers</text>
<polyline fill="none" stroke="#000000" points="128.4209,-402.5999 326.7627,-402.5999 "/>
<text text-anchor="start" x="136.4209" y="-387.3999" font-family="Times,serif" font-size="14.00" fill="#000000">server启动时候，注册watch zk</text>
<text text-anchor="start" x="136.4209" y="-367.8" font-family="Times,serif" font-size="14.00" fill="#000000"> 路径的各种handler回调</text>
</g>
<!-- topic&#45;&gt;zkHandlers -->
<g id="edge1" class="edge">
<title>topic&#45;&gt;zkHandlers</title>
<path fill="none" stroke="#000000" d="M78.3835,-458.5213C95.7866,-450.5292 119.4076,-439.6817 142.719,-428.9763"/>
<polygon fill="#000000" stroke="#000000" points="144.3438,-432.0817 151.9707,-424.7277 141.4224,-425.7204 144.3438,-432.0817"/>
</g>
<!-- controller -->
<g id="node2" class="node">
<title>controller</title>
<polygon fill="none" stroke="#000000" points="86.6326,-435 15.7883,-435 15.7883,-399 86.6326,-399 86.6326,-435"/>
<text text-anchor="middle" x="51.2104" y="-412.8" font-family="Times,serif" font-size="14.00" fill="#000000">controller</text>
</g>
<!-- controller&#45;&gt;zkHandlers -->
<g id="edge2" class="edge">
<title>controller&#45;&gt;zkHandlers</title>
<path fill="none" stroke="#000000" d="M86.4799,-411.601C96.0439,-410.137 106.9254,-408.4713 118.3049,-406.7294"/>
<polygon fill="#000000" stroke="#000000" points="119.0573,-410.155 128.4125,-405.1821 117.998,-403.2356 119.0573,-410.155"/>
</g>
<!-- borker1_controllerChangeHandler -->
<g id="node6" class="node">
<title>borker1_controllerChangeHandler</title>
<polygon fill="none" stroke="#000000" points="141.6313,-694.4001 141.6313,-763.5999 313.5522,-763.5999 313.5522,-694.4001 141.6313,-694.4001"/>
<text text-anchor="middle" x="227.5918" y="-748.3999" font-family="Times,serif" font-size="14.00" fill="#000000">controllerChangeHandler</text>
<polyline fill="none" stroke="#000000" points="141.6313,-741.5999 313.5522,-741.5999 "/>
<text text-anchor="start" x="149.6313" y="-726.3999" font-family="Times,serif" font-size="14.00" fill="#000000">如果controller挂了，</text>
<text text-anchor="middle" x="227.5918" y="-706.8" font-family="Times,serif" font-size="14.00" fill="#000000"> 就自己尝试成为controller</text>
</g>
<!-- controller&#45;&gt;borker1_controllerChangeHandler -->
<g id="edge5" class="edge">
<title>controller&#45;&gt;borker1_controllerChangeHandler</title>
<path fill="none" stroke="#000000" d="M86.5021,-430.6303C91.9468,-434.2009 96.9155,-438.6075 100.4209,-444 129.3478,-488.4997 89.5533,-638.8238 120.4209,-682 124.1429,-687.2061 128.5715,-691.8427 133.4766,-695.971"/>
<polygon fill="#000000" stroke="#000000" points="131.4505,-698.8267 141.5435,-702.0487 135.6628,-693.2358 131.4505,-698.8267"/>
</g>
<!-- borker2_controllerChangeHandler -->
<g id="node7" class="node">
<title>borker2_controllerChangeHandler</title>
<polygon fill="none" stroke="#000000" points="141.6313,-16.4001 141.6313,-85.5999 313.5522,-85.5999 313.5522,-16.4001 141.6313,-16.4001"/>
<text text-anchor="middle" x="227.5918" y="-70.3999" font-family="Times,serif" font-size="14.00" fill="#000000">controllerChangeHandler</text>
<polyline fill="none" stroke="#000000" points="141.6313,-63.5999 313.5522,-63.5999 "/>
<text text-anchor="start" x="149.6313" y="-48.3999" font-family="Times,serif" font-size="14.00" fill="#000000">如果controller挂了，</text>
<text text-anchor="middle" x="227.5918" y="-28.8" font-family="Times,serif" font-size="14.00" fill="#000000"> 就自己尝试成为controller</text>
</g>
<!-- controller&#45;&gt;borker2_controllerChangeHandler -->
<g id="edge6" class="edge">
<title>controller&#45;&gt;borker2_controllerChangeHandler</title>
<path fill="none" stroke="#000000" d="M86.5388,-403.3934C91.9797,-399.8204 96.9377,-395.4068 100.4209,-390 132.2837,-340.54 91.2942,-177.1191 120.4209,-126 127.9372,-112.8084 138.8369,-101.3918 150.8402,-91.7228"/>
<polygon fill="#000000" stroke="#000000" points="153.0229,-94.46 158.863,-85.6201 148.7849,-88.8887 153.0229,-94.46"/>
</g>
<!-- broker -->
<g id="node3" class="node">
<title>broker</title>
<polygon fill="none" stroke="#000000" points="78.2104,-381 24.2104,-381 24.2104,-345 78.2104,-345 78.2104,-381"/>
<text text-anchor="middle" x="51.2104" y="-358.8" font-family="Times,serif" font-size="14.00" fill="#000000">broker</text>
</g>
<!-- broker&#45;&gt;zkHandlers -->
<g id="edge3" class="edge">
<title>broker&#45;&gt;zkHandlers</title>
<path fill="none" stroke="#000000" d="M78.3835,-367.1596C89.6111,-368.8783 103.4267,-370.9931 118.0775,-373.2358"/>
<polygon fill="#000000" stroke="#000000" points="117.9178,-376.7521 128.3323,-374.8056 118.9771,-369.8327 117.9178,-376.7521"/>
</g>
<!-- partition -->
<g id="node4" class="node">
<title>partition</title>
<polygon fill="none" stroke="#000000" points="83.1465,-327 19.2744,-327 19.2744,-291 83.1465,-291 83.1465,-327"/>
<text text-anchor="middle" x="51.2104" y="-304.8" font-family="Times,serif" font-size="14.00" fill="#000000">partition</text>
</g>
<!-- partition&#45;&gt;zkHandlers -->
<g id="edge4" class="edge">
<title>partition&#45;&gt;zkHandlers</title>
<path fill="none" stroke="#000000" d="M83.1518,-323.6685C100.0035,-331.4074 121.5581,-341.3059 142.8447,-351.0814"/>
<polygon fill="#000000" stroke="#000000" points="141.3884,-354.264 151.9366,-355.2567 144.3098,-347.9027 141.3884,-354.264"/>
</g>
<!-- PartitionStateMachine -->
<g id="node8" class="node">
<title>PartitionStateMachine</title>
<polygon fill="none" stroke="#000000" points="375.2109,-532.8002 375.2109,-641.1998 516.4043,-641.1998 516.4043,-532.8002 375.2109,-532.8002"/>
<text text-anchor="middle" x="445.8076" y="-625.9998" font-family="Times,serif" font-size="14.00" fill="#000000">PartitionStateMachine</text>
<polyline fill="none" stroke="#000000" points="375.2109,-619.1998 516.4043,-619.1998 "/>
<text text-anchor="start" x="383.2109" y="-603.9998" font-family="Times,serif" font-size="14.00" fill="#000000">管理partion状态机</text>
<text text-anchor="start" x="383.2109" y="-584.3999" font-family="Times,serif" font-size="14.00" fill="#000000"> 并将partition状态的</text>
<text text-anchor="start" x="383.2109" y="-564.8" font-family="Times,serif" font-size="14.00" fill="#000000"> 改变转换为request </text>
<text text-anchor="start" x="383.2109" y="-545.2001" font-family="Times,serif" font-size="14.00" fill="#000000"> 发送给其他broker</text>
</g>
<!-- zkHandlers&#45;&gt;PartitionStateMachine -->
<g id="edge7" class="edge">
<title>zkHandlers&#45;&gt;PartitionStateMachine</title>
<path fill="none" stroke="#000000" d="M258.5123,-424.875C284.9399,-453.8485 324.6339,-495.4432 362.7627,-528 364.1035,-529.1448 365.4658,-530.29 366.8458,-531.4337"/>
<polygon fill="#000000" stroke="#000000" points="364.9405,-534.3939 374.9187,-537.9557 369.3396,-528.9488 364.9405,-534.3939"/>
</g>
<!-- ReplicaStateMachine -->
<g id="node10" class="node">
<title>ReplicaStateMachine</title>
<polygon fill="none" stroke="#000000" points="375.0161,-138.8002 375.0161,-247.1998 516.5991,-247.1998 516.5991,-138.8002 375.0161,-138.8002"/>
<text text-anchor="middle" x="445.8076" y="-231.9998" font-family="Times,serif" font-size="14.00" fill="#000000">ReplicaStateMachine</text>
<polyline fill="none" stroke="#000000" points="375.0161,-225.1998 516.5991,-225.1998 "/>
<text text-anchor="start" x="383.0161" y="-209.9998" font-family="Times,serif" font-size="14.00" fill="#000000">replica状态机</text>
<text text-anchor="start" x="383.0161" y="-190.3999" font-family="Times,serif" font-size="14.00" fill="#000000"> 将replica状态的转变</text>
<text text-anchor="start" x="383.0161" y="-170.8" font-family="Times,serif" font-size="14.00" fill="#000000"> 转换为request</text>
<text text-anchor="start" x="383.0161" y="-151.2001" font-family="Times,serif" font-size="14.00" fill="#000000"> 发送给其他broker</text>
</g>
<!-- zkHandlers&#45;&gt;ReplicaStateMachine -->
<g id="edge9" class="edge">
<title>zkHandlers&#45;&gt;ReplicaStateMachine</title>
<path fill="none" stroke="#000000" d="M266.1021,-355.2338C296.944,-327.3905 340.9751,-287.6403 377.7331,-254.456"/>
<polygon fill="#000000" stroke="#000000" points="380.3818,-256.7802 385.4591,-247.4812 375.6911,-251.5843 380.3818,-256.7802"/>
</g>
<!-- ControllerContext -->
<g id="node11" class="node">
<title>ControllerContext</title>
<polygon fill="#95e1d3" stroke="#000000" points="362.7627,-266.2 362.7627,-513.8 528.8525,-513.8 528.8525,-266.2 362.7627,-266.2"/>
<text text-anchor="middle" x="445.8076" y="-498.6" font-family="Times,serif" font-size="14.00" fill="#000000">ControllerContext</text>
<polyline fill="none" stroke="#000000" points="362.7627,-491.8 528.8525,-491.8 "/>
<text text-anchor="start" x="370.7627" y="-476.6" font-family="Times,serif" font-size="14.00" fill="#000000">对zk中一些状态的缓存</text>
<polyline fill="none" stroke="#000000" points="362.7627,-464.2 528.8525,-464.2 "/>
<text text-anchor="start" x="370.7627" y="-449" font-family="Times,serif" font-size="14.00" fill="#000000">allTopics</text>
<polyline fill="none" stroke="#000000" points="362.7627,-442.2 528.8525,-442.2 "/>
<text text-anchor="start" x="370.7627" y="-427" font-family="Times,serif" font-size="14.00" fill="#000000">partitionAssignments</text>
<polyline fill="none" stroke="#000000" points="362.7627,-420.2 528.8525,-420.2 "/>
<text text-anchor="start" x="370.7627" y="-405" font-family="Times,serif" font-size="14.00" fill="#000000">partitionLeadershipInfo</text>
<polyline fill="none" stroke="#000000" points="362.7627,-398.2 528.8525,-398.2 "/>
<text text-anchor="start" x="370.7627" y="-383" font-family="Times,serif" font-size="14.00" fill="#000000">partitionsBeingReassigned</text>
<polyline fill="none" stroke="#000000" points="362.7627,-376.2 528.8525,-376.2 "/>
<text text-anchor="start" x="370.7627" y="-361" font-family="Times,serif" font-size="14.00" fill="#000000">partitionStates</text>
<polyline fill="none" stroke="#000000" points="362.7627,-354.2 528.8525,-354.2 "/>
<text text-anchor="start" x="370.7627" y="-339" font-family="Times,serif" font-size="14.00" fill="#000000">replicaStates</text>
<polyline fill="none" stroke="#000000" points="362.7627,-332.2 528.8525,-332.2 "/>
<text text-anchor="start" x="370.7627" y="-317" font-family="Times,serif" font-size="14.00" fill="#000000">replicasOnOfflineDirs</text>
<polyline fill="none" stroke="#000000" points="362.7627,-310.2 528.8525,-310.2 "/>
<text text-anchor="start" x="370.7627" y="-295" font-family="Times,serif" font-size="14.00" fill="#000000">topicsToBeDeleted</text>
<polyline fill="none" stroke="#000000" points="362.7627,-288.2 528.8525,-288.2 "/>
<text text-anchor="middle" x="445.8076" y="-273" font-family="Times,serif" font-size="14.00" fill="#000000"> </text>
</g>
<!-- zkHandlers&#45;&gt;ControllerContext -->
<g id="edge10" class="edge">
<title>zkHandlers&#45;&gt;ControllerContext</title>
<path fill="none" stroke="#000000" d="M326.8026,-390C335.2871,-390 343.8522,-390 352.2902,-390"/>
<polygon fill="#000000" stroke="#000000" points="352.5058,-393.5001 362.5058,-390 352.5057,-386.5001 352.5058,-393.5001"/>
</g>
<!-- ControllerChannelManager -->
<g id="node9" class="node">
<title>ControllerChannelManager</title>
<polygon fill="none" stroke="#000000" points="564.8525,-274.4001 564.8525,-343.5999 746.8906,-343.5999 746.8906,-274.4001 564.8525,-274.4001"/>
<text text-anchor="middle" x="655.8716" y="-328.3999" font-family="Times,serif" font-size="14.00" fill="#000000">ControllerChannelManager</text>
<polyline fill="none" stroke="#000000" points="564.8525,-321.5999 746.8906,-321.5999 "/>
<text text-anchor="start" x="572.8525" y="-306.3999" font-family="Times,serif" font-size="14.00" fill="#000000">负责管理Controller和</text>
<text text-anchor="start" x="572.8525" y="-286.8" font-family="Times,serif" font-size="14.00" fill="#000000"> 其他broker之间的通信线程</text>
</g>
<!-- PartitionStateMachine&#45;&gt;ControllerChannelManager -->
<g id="edge8" class="edge">
<title>PartitionStateMachine&#45;&gt;ControllerChannelManager</title>
<path fill="none" stroke="#000000" d="M516.5255,-540.1404C520.8817,-536.2401 525.0392,-532.1819 528.8525,-528 577.339,-474.8273 615.7592,-400.0943 637.1575,-353.1259"/>
<polygon fill="#000000" stroke="#000000" points="640.4284,-354.3858 641.3355,-343.8299 634.0436,-351.5162 640.4284,-354.3858"/>
</g>
<!-- RequestSendThread1 -->
<g id="node12" class="node">
<title>RequestSendThread1</title>
<polygon fill="none" stroke="#000000" points="782.8906,-391.4001 782.8906,-460.5999 1021.3115,-460.5999 1021.3115,-391.4001 782.8906,-391.4001"/>
<text text-anchor="middle" x="902.1011" y="-445.3999" font-family="Times,serif" font-size="14.00" fill="#000000">RequestSendThread</text>
<polyline fill="none" stroke="#000000" points="782.8906,-438.5999 1021.3115,-438.5999 "/>
<text text-anchor="start" x="790.8906" y="-423.3999" font-family="Times,serif" font-size="14.00" fill="#000000">controller和每个broker之间通信</text>
<text text-anchor="middle" x="902.1011" y="-403.8" font-family="Times,serif" font-size="14.00" fill="#000000"> 有个blocing queue和单独的发送线程</text>
</g>
<!-- ControllerChannelManager&#45;&gt;RequestSendThread1 -->
<g id="edge12" class="edge">
<title>ControllerChannelManager&#45;&gt;RequestSendThread1</title>
<path fill="none" stroke="#000000" d="M706.2598,-343.7197C728.9875,-358.3758 756.5876,-374.8271 782.8906,-387 782.9894,-387.0457 783.0883,-387.0914 783.1873,-387.1371"/>
<polygon fill="#000000" stroke="#000000" points="782.0061,-390.442 792.5665,-391.2963 784.8439,-384.043 782.0061,-390.442"/>
</g>
<!-- RequestSendThread2 -->
<g id="node13" class="node">
<title>RequestSendThread2</title>
<polygon fill="none" stroke="#000000" points="969.8464,-192 834.3557,-192 834.3557,-156 969.8464,-156 969.8464,-192"/>
<text text-anchor="middle" x="902.1011" y="-169.8" font-family="Times,serif" font-size="14.00" fill="#000000">RequestSendThread2</text>
</g>
<!-- ControllerChannelManager&#45;&gt;RequestSendThread2 -->
<g id="edge13" class="edge">
<title>ControllerChannelManager&#45;&gt;RequestSendThread2</title>
<path fill="none" stroke="#000000" d="M738.4846,-274.252C741.3354,-272.8466 744.145,-271.4272 746.8906,-270 789.4931,-247.8549 836.0457,-218.288 866.9433,-197.846"/>
<polygon fill="#000000" stroke="#000000" points="869.2301,-200.5285 875.6168,-192.0751 865.3524,-194.7006 869.2301,-200.5285"/>
</g>
<!-- ReplicaStateMachine&#45;&gt;ControllerChannelManager -->
<g id="edge11" class="edge">
<title>ReplicaStateMachine&#45;&gt;ControllerChannelManager</title>
<path fill="none" stroke="#000000" d="M516.7042,-241.6346C530.2669,-250.2503 544.6201,-258.9253 564.1806,-269.499"/>
<polygon fill="#000000" stroke="#000000" points="562.7507,-272.7031 573.2208,-274.3238 566.0466,-266.5275 562.7507,-272.7031"/>
</g>
<!-- borker1_KafkaApi -->
<g id="node14" class="node">
<title>borker1_KafkaApi</title>
<polygon fill="none" stroke="#000000" points="1128.6121,-730 1057.2111,-730 1057.2111,-694 1128.6121,-694 1128.6121,-730"/>
<text text-anchor="middle" x="1092.9116" y="-707.8" font-family="Times,serif" font-size="14.00" fill="#000000">KafkaApi</text>
</g>
<!-- RequestSendThread1&#45;&gt;borker1_KafkaApi -->
<g id="edge16" class="edge">
<title>RequestSendThread1&#45;&gt;borker1_KafkaApi</title>
<path fill="none" stroke="#000000" d="M925.3074,-460.7833C963.8952,-518.6213 1040.4311,-633.3385 1075.1023,-685.3062"/>
<polygon fill="#000000" stroke="#000000" points="1072.2224,-687.2961 1080.6839,-693.6722 1078.0454,-683.4111 1072.2224,-687.2961"/>
</g>
<!-- borker2_KafkaApi -->
<g id="node16" class="node">
<title>borker2_KafkaApi</title>
<polygon fill="none" stroke="#000000" points="1128.6121,-86 1057.2111,-86 1057.2111,-50 1128.6121,-50 1128.6121,-86"/>
<text text-anchor="middle" x="1092.9116" y="-63.8" font-family="Times,serif" font-size="14.00" fill="#000000">KafkaApi</text>
</g>
<!-- RequestSendThread2&#45;&gt;borker2_KafkaApi -->
<g id="edge17" class="edge">
<title>RequestSendThread2&#45;&gt;borker2_KafkaApi</title>
<path fill="none" stroke="#000000" d="M970.1491,-171.6862C990.3177,-168.5826 1011.7002,-162.7249 1029.3115,-152 1051.4644,-138.5095 1068.589,-114.1925 1079.4591,-95.1814"/>
<polygon fill="#000000" stroke="#000000" points="1082.5635,-96.7992 1084.2876,-86.3455 1076.4208,-93.4424 1082.5635,-96.7992"/>
</g>
<!-- borker1_ReplicaManager -->
<g id="node15" class="node">
<title>borker1_ReplicaManager</title>
<polygon fill="none" stroke="#000000" points="1272.7789,-730 1164.7552,-730 1164.7552,-694 1272.7789,-694 1272.7789,-730"/>
<text text-anchor="middle" x="1218.7671" y="-707.8" font-family="Times,serif" font-size="14.00" fill="#000000">ReplicaManager</text>
</g>
<!-- borker1_KafkaApi&#45;&gt;borker1_ReplicaManager -->
<g id="edge14" class="edge">
<title>borker1_KafkaApi&#45;&gt;borker1_ReplicaManager</title>
<path fill="none" stroke="#000000" d="M1128.6401,-712C1136.7715,-712 1145.6532,-712 1154.5689,-712"/>
<polygon fill="#000000" stroke="#000000" points="1154.6113,-715.5001 1164.6112,-712 1154.6112,-708.5001 1154.6113,-715.5001"/>
</g>
<!-- borker2_ReplicaManager -->
<g id="node17" class="node">
<title>borker2_ReplicaManager</title>
<polygon fill="none" stroke="#000000" points="1272.7789,-86 1164.7552,-86 1164.7552,-50 1272.7789,-50 1272.7789,-86"/>
<text text-anchor="middle" x="1218.7671" y="-63.8" font-family="Times,serif" font-size="14.00" fill="#000000">ReplicaManager</text>
</g>
<!-- borker2_KafkaApi&#45;&gt;borker2_ReplicaManager -->
<g id="edge15" class="edge">
<title>borker2_KafkaApi&#45;&gt;borker2_ReplicaManager</title>
<path fill="none" stroke="#000000" d="M1128.6401,-68C1136.7715,-68 1145.6532,-68 1154.5689,-68"/>
<polygon fill="#000000" stroke="#000000" points="1154.6113,-71.5001 1164.6112,-68 1154.6112,-64.5001 1154.6113,-71.5001"/>
</g>
</g>
</svg>
