<?xml version="1.0" encoding="UTF-8" standalone="no"?>
<!DOCTYPE svg PUBLIC "-//W3C//DTD SVG 1.1//EN"
 "http://www.w3.org/Graphics/SVG/1.1/DTD/svg11.dtd">
<!-- Generated by graphviz version 2.40.1 (20161225.0304)
 -->
<!-- Title: broker_modification_handler Pages: 1 -->
<svg width="589pt" height="196pt"
 viewBox="0.00 0.00 588.75 196.00" xmlns="http://www.w3.org/2000/svg" xmlns:xlink="http://www.w3.org/1999/xlink">
<g id="graph0" class="graph" transform="scale(1 1) rotate(0) translate(4 192)">
<title>broker_modification_handler</title>
<polygon fill="#ffffff" stroke="transparent" points="-4,4 -4,-192 584.7461,-192 584.7461,4 -4,4"/>
<g id="clust2" class="cluster">
<title>cluster_ControllerContext</title>
<path fill="none" stroke="#000000" d="M209.1934,-8C209.1934,-8 560.7461,-8 560.7461,-8 566.7461,-8 572.7461,-14 572.7461,-20 572.7461,-20 572.7461,-132 572.7461,-132 572.7461,-138 566.7461,-144 560.7461,-144 560.7461,-144 209.1934,-144 209.1934,-144 203.1934,-144 197.1934,-138 197.1934,-132 197.1934,-132 197.1934,-20 197.1934,-20 197.1934,-14 203.1934,-8 209.1934,-8"/>
<text text-anchor="middle" x="384.9697" y="-124" font-family="Times,serif" font-size="20.00" fill="#000000">ControllerContext</text>
</g>
<!-- processBrokerModification -->
<g id="node1" class="node">
<title>processBrokerModification</title>
<polygon fill="none" stroke="#000000" points="169.2901,-107 -.0968,-107 -.0968,-71 169.2901,-71 169.2901,-107"/>
<text text-anchor="middle" x="84.5967" y="-84.8" font-family="Times,serif" font-size="14.00" fill="#000000">processBrokerModification</text>
</g>
<!-- getBroker -->
<g id="node2" class="node">
<title>getBroker</title>
<polygon fill="none" stroke="#000000" points="313.311,-188 241.352,-188 241.352,-152 313.311,-152 313.311,-188"/>
<text text-anchor="middle" x="277.3315" y="-165.8" font-family="Times,serif" font-size="14.00" fill="#000000">getBroker</text>
</g>
<!-- processBrokerModification&#45;&gt;getBroker -->
<g id="edge1" class="edge">
<title>processBrokerModification&#45;&gt;getBroker</title>
<path fill="none" stroke="#000000" d="M114.8207,-107.1163C137.0247,-119.8543 168.2417,-136.5941 197.1934,-148 208.0947,-152.2947 220.1443,-156.0786 231.5165,-159.2435"/>
<polygon fill="#000000" stroke="#000000" points="230.7249,-162.6548 241.2901,-161.8628 232.5369,-155.8934 230.7249,-162.6548"/>
</g>
<!-- updateBrokerMetadata -->
<g id="node3" class="node">
<title>updateBrokerMetadata</title>
<polygon fill="none" stroke="#000000" points="349.6082,-107 205.0549,-107 205.0549,-71 349.6082,-71 349.6082,-107"/>
<text text-anchor="middle" x="277.3315" y="-84.8" font-family="Times,serif" font-size="14.00" fill="#000000">updateBrokerMetadata</text>
</g>
<!-- processBrokerModification&#45;&gt;updateBrokerMetadata -->
<g id="edge2" class="edge">
<title>processBrokerModification&#45;&gt;updateBrokerMetadata</title>
<path fill="none" stroke="#000000" d="M169.4135,-89C177.8858,-89 186.4791,-89 194.9261,-89"/>
<polygon fill="#000000" stroke="#000000" points="195.1391,-92.5001 205.1391,-89 195.139,-85.5001 195.1391,-92.5001"/>
</g>
<!-- onBrokerUpdate -->
<g id="node4" class="node">
<title>onBrokerUpdate</title>
<polygon fill="none" stroke="#000000" points="332.1357,-52 222.5274,-52 222.5274,-16 332.1357,-16 332.1357,-52"/>
<text text-anchor="middle" x="277.3315" y="-29.8" font-family="Times,serif" font-size="14.00" fill="#000000">onBrokerUpdate</text>
</g>
<!-- processBrokerModification&#45;&gt;onBrokerUpdate -->
<g id="edge3" class="edge">
<title>processBrokerModification&#45;&gt;onBrokerUpdate</title>
<path fill="none" stroke="#000000" d="M147.7053,-70.9909C168.5557,-65.0409 191.7738,-58.4153 212.7341,-52.4339"/>
<polygon fill="#000000" stroke="#000000" points="213.8487,-55.7557 222.5043,-49.6458 211.9278,-49.0244 213.8487,-55.7557"/>
</g>
<!-- liveBrokers -->
<g id="node5" class="node">
<title>liveBrokers</title>
<polygon fill="#95e1d3" stroke="#000000" points="434.4492,-71 434.4492,-107 515.7666,-107 515.7666,-71 434.4492,-71"/>
<text text-anchor="middle" x="475.1079" y="-84.8" font-family="Times,serif" font-size="14.00" fill="#000000">liveBrokers</text>
</g>
<!-- updateBrokerMetadata&#45;&gt;liveBrokers -->
<g id="edge4" class="edge">
<title>updateBrokerMetadata&#45;&gt;liveBrokers</title>
<path fill="none" stroke="#000000" d="M349.5729,-89C374.3569,-89 401.5541,-89 424.2779,-89"/>
<polygon fill="#000000" stroke="#000000" points="424.3791,-92.5001 434.3791,-89 424.3791,-85.5001 424.3791,-92.5001"/>
</g>
<!-- sendUpdateMetadataRequest -->
<g id="node6" class="node">
<title>sendUpdateMetadataRequest</title>
<polygon fill="none" stroke="#000000" points="564.8845,-52 385.3313,-52 385.3313,-16 564.8845,-16 564.8845,-52"/>
<text text-anchor="middle" x="475.1079" y="-29.8" font-family="Times,serif" font-size="14.00" fill="#000000">sendUpdateMetadataRequest</text>
</g>
<!-- onBrokerUpdate&#45;&gt;sendUpdateMetadataRequest -->
<g id="edge5" class="edge">
<title>onBrokerUpdate&#45;&gt;sendUpdateMetadataRequest</title>
<path fill="none" stroke="#000000" d="M332.1606,-34C345.5359,-34 360.2628,-34 375.0253,-34"/>
<polygon fill="#000000" stroke="#000000" points="375.2349,-37.5001 385.2349,-34 375.2349,-30.5001 375.2349,-37.5001"/>
</g>
</g>
</svg>
