<?xml version="1.0" encoding="UTF-8" standalone="no"?>
<!DOCTYPE svg PUBLIC "-//W3C//DTD SVG 1.1//EN"
 "http://www.w3.org/Graphics/SVG/1.1/DTD/svg11.dtd">
<!-- Generated by graphviz version 2.40.1 (20161225.0304)
 -->
<!-- Title: partitionReassignment Pages: 1 -->
<svg width="716pt" height="277pt"
 viewBox="0.00 0.00 716.36 277.00" xmlns="http://www.w3.org/2000/svg" xmlns:xlink="http://www.w3.org/1999/xlink">
<g id="graph0" class="graph" transform="scale(1 1) rotate(0) translate(4 273)">
<title>partitionReassignment</title>
<polygon fill="#ffffff" stroke="transparent" points="-4,4 -4,-273 712.3594,-273 712.3594,4 -4,4"/>
<g id="clust1" class="cluster">
<title>cluster_zkClient</title>
<path fill="none" stroke="#000000" d="M272.5728,-181C272.5728,-181 424.4419,-181 424.4419,-181 430.4419,-181 436.4419,-187 436.4419,-193 436.4419,-193 436.4419,-249 436.4419,-249 436.4419,-255 430.4419,-261 424.4419,-261 424.4419,-261 272.5728,-261 272.5728,-261 266.5728,-261 260.5728,-255 260.5728,-249 260.5728,-249 260.5728,-193 260.5728,-193 260.5728,-187 266.5728,-181 272.5728,-181"/>
<text text-anchor="middle" x="348.5073" y="-241" font-family="Times,serif" font-size="20.00" fill="#000000">zkClient</text>
</g>
<g id="clust2" class="cluster">
<title>cluster_controllerContext</title>
<path fill="none" stroke="#000000" d="M500.7109,-100C500.7109,-100 688.3594,-100 688.3594,-100 694.3594,-100 700.3594,-106 700.3594,-112 700.3594,-112 700.3594,-222 700.3594,-222 700.3594,-228 694.3594,-234 688.3594,-234 688.3594,-234 500.7109,-234 500.7109,-234 494.7109,-234 488.7109,-228 488.7109,-222 488.7109,-222 488.7109,-112 488.7109,-112 488.7109,-106 494.7109,-100 500.7109,-100"/>
<text text-anchor="middle" x="594.5352" y="-214" font-family="Times,serif" font-size="20.00" fill="#000000">controllerContext</text>
</g>
<!-- getPartitionReassignment -->
<g id="node1" class="node">
<title>getPartitionReassignment</title>
<polygon fill="none" stroke="#000000" points="428.3765,-225 268.6381,-225 268.6381,-189 428.3765,-189 428.3765,-225"/>
<text text-anchor="middle" x="348.5073" y="-202.8" font-family="Times,serif" font-size="14.00" fill="#000000">getPartitionReassignment</text>
</g>
<!-- partitionFullReplicaAssignment -->
<g id="node2" class="node">
<title>partitionFullReplicaAssignment</title>
<polygon fill="none" stroke="#000000" points="692.1839,-198 496.8864,-198 496.8864,-162 692.1839,-162 692.1839,-198"/>
<text text-anchor="middle" x="594.5352" y="-175.8" font-family="Times,serif" font-size="14.00" fill="#000000">partitionFullReplicaAssignment</text>
</g>
<!-- partitionReplicaAssignment -->
<g id="node3" class="node">
<title>partitionReplicaAssignment</title>
<polygon fill="none" stroke="#000000" points="681.1182,-144 507.9521,-144 507.9521,-108 681.1182,-108 681.1182,-144"/>
<text text-anchor="middle" x="594.5352" y="-121.8" font-family="Times,serif" font-size="14.00" fill="#000000">partitionReplicaAssignment</text>
</g>
<!-- processZkPartitionReassignment -->
<g id="node4" class="node">
<title>processZkPartitionReassignment</title>
<polygon fill="none" stroke="#000000" points="200.4558,-144 -.1521,-144 -.1521,-108 200.4558,-108 200.4558,-144"/>
<text text-anchor="middle" x="100.1519" y="-121.8" font-family="Times,serif" font-size="14.00" fill="#000000">processZkPartitionReassignment</text>
</g>
<!-- processZkPartitionReassignment&#45;&gt;getPartitionReassignment -->
<g id="edge1" class="edge">
<title>processZkPartitionReassignment&#45;&gt;getPartitionReassignment</title>
<path fill="none" stroke="#000000" d="M141.3131,-144.09C168.0398,-155.3943 203.821,-169.7071 236.3037,-180 243.5557,-182.298 251.1247,-184.5082 258.7572,-186.6062"/>
<polygon fill="#000000" stroke="#000000" points="257.8746,-189.9931 268.4399,-189.2018 259.6871,-183.2319 257.8746,-189.9931"/>
</g>
<!-- maybeBuildReassignment -->
<g id="node5" class="node">
<title>maybeBuildReassignment</title>
<polygon fill="none" stroke="#000000" points="429.9868,-171 267.0278,-171 267.0278,-135 429.9868,-135 429.9868,-171"/>
<text text-anchor="middle" x="348.5073" y="-148.8" font-family="Times,serif" font-size="14.00" fill="#000000">maybeBuildReassignment</text>
</g>
<!-- processZkPartitionReassignment&#45;&gt;maybeBuildReassignment -->
<g id="edge2" class="edge">
<title>processZkPartitionReassignment&#45;&gt;maybeBuildReassignment</title>
<path fill="none" stroke="#000000" d="M200.4517,-136.9041C219.0803,-138.9293 238.4541,-141.0355 256.8094,-143.031"/>
<polygon fill="#000000" stroke="#000000" points="256.5711,-146.5257 266.8909,-144.1271 257.3277,-139.5667 256.5711,-146.5257"/>
</g>
<!-- maybeTriggerPartitionReassignment -->
<g id="node6" class="node">
<title>maybeTriggerPartitionReassignment</title>
<polygon fill="none" stroke="#000000" points="459.0849,-117 237.9298,-117 237.9298,-81 459.0849,-81 459.0849,-117"/>
<text text-anchor="middle" x="348.5073" y="-94.8" font-family="Times,serif" font-size="14.00" fill="#000000">maybeTriggerPartitionReassignment</text>
</g>
<!-- processZkPartitionReassignment&#45;&gt;maybeTriggerPartitionReassignment -->
<g id="edge3" class="edge">
<title>processZkPartitionReassignment&#45;&gt;maybeTriggerPartitionReassignment</title>
<path fill="none" stroke="#000000" d="M200.4517,-115.0959C209.3527,-114.1282 218.4238,-113.1421 227.4726,-112.1583"/>
<polygon fill="#000000" stroke="#000000" points="228.1062,-115.6101 237.6693,-111.0498 227.3496,-108.6511 228.1062,-115.6101"/>
</g>
<!-- maybeRemoveFromZkReassignment -->
<g id="node7" class="node">
<title>maybeRemoveFromZkReassignment</title>
<polygon fill="none" stroke="#000000" points="460.9149,-63 236.0997,-63 236.0997,-27 460.9149,-27 460.9149,-63"/>
<text text-anchor="middle" x="348.5073" y="-40.8" font-family="Times,serif" font-size="14.00" fill="#000000">maybeRemoveFromZkReassignment</text>
</g>
<!-- processZkPartitionReassignment&#45;&gt;maybeRemoveFromZkReassignment -->
<g id="edge4" class="edge">
<title>processZkPartitionReassignment&#45;&gt;maybeRemoveFromZkReassignment</title>
<path fill="none" stroke="#000000" d="M141.3131,-107.91C168.0398,-96.6057 203.821,-82.2929 236.3037,-72 243.1976,-69.8155 250.3779,-67.7103 257.627,-65.7054"/>
<polygon fill="#000000" stroke="#000000" points="258.7892,-69.0171 267.5341,-63.0357 256.9678,-62.2582 258.7892,-69.0171"/>
</g>
<!-- maybeBuildReassignment&#45;&gt;partitionFullReplicaAssignment -->
<g id="edge5" class="edge">
<title>maybeBuildReassignment&#45;&gt;partitionFullReplicaAssignment</title>
<path fill="none" stroke="#000000" d="M430.0893,-161.9531C448.1114,-163.9309 467.4769,-166.0562 486.3683,-168.1294"/>
<polygon fill="#000000" stroke="#000000" points="486.1754,-171.6291 496.4976,-169.241 486.9391,-164.6709 486.1754,-171.6291"/>
</g>
<!-- maybeTriggerPartitionReassignment&#45;&gt;partitionReplicaAssignment -->
<g id="edge6" class="edge">
<title>maybeTriggerPartitionReassignment&#45;&gt;partitionReplicaAssignment</title>
<path fill="none" stroke="#000000" d="M459.2859,-111.1573C472.1678,-112.571 485.2304,-114.0045 497.9012,-115.395"/>
<polygon fill="#000000" stroke="#000000" points="497.6458,-118.8879 507.968,-116.4998 498.4095,-111.9297 497.6458,-118.8879"/>
</g>
<!-- isTopicQueuedUpForDeletion -->
<g id="node8" class="node">
<title>isTopicQueuedUpForDeletion</title>
<polygon fill="none" stroke="#000000" points="687.3548,-90 501.7155,-90 501.7155,-54 687.3548,-54 687.3548,-90"/>
<text text-anchor="middle" x="594.5352" y="-67.8" font-family="Times,serif" font-size="14.00" fill="#000000">isTopicQueuedUpForDeletion</text>
</g>
<!-- maybeTriggerPartitionReassignment&#45;&gt;isTopicQueuedUpForDeletion -->
<g id="edge7" class="edge">
<title>maybeTriggerPartitionReassignment&#45;&gt;isTopicQueuedUpForDeletion</title>
<path fill="none" stroke="#000000" d="M459.2859,-86.8427C470.0145,-85.6654 480.8685,-84.4742 491.517,-83.3056"/>
<polygon fill="#000000" stroke="#000000" points="492.0942,-86.7633 501.6527,-82.1933 491.3305,-79.8051 492.0942,-86.7633"/>
</g>
<!-- onPartitionReassignment -->
<g id="node9" class="node">
<title>onPartitionReassignment</title>
<polygon fill="none" stroke="#000000" points="672.801,-36 516.2694,-36 516.2694,0 672.801,0 672.801,-36"/>
<text text-anchor="middle" x="594.5352" y="-13.8" font-family="Times,serif" font-size="14.00" fill="#000000">onPartitionReassignment</text>
</g>
<!-- maybeTriggerPartitionReassignment&#45;&gt;onPartitionReassignment -->
<g id="edge8" class="edge">
<title>maybeTriggerPartitionReassignment&#45;&gt;onPartitionReassignment</title>
<path fill="none" stroke="#000000" d="M441.2461,-80.9158C447.998,-78.3272 454.5625,-75.3723 460.7109,-72 475.8684,-63.6863 473.6107,-53.417 488.7109,-45 494.3083,-41.88 500.2721,-39.1132 506.4081,-36.6607"/>
<polygon fill="#000000" stroke="#000000" points="507.9946,-39.806 516.1642,-33.06 505.5709,-33.239 507.9946,-39.806"/>
</g>
</g>
</svg>
