<?xml version="1.0" encoding="UTF-8" standalone="no"?>
<!DOCTYPE svg PUBLIC "-//W3C//DTD SVG 1.1//EN"
 "http://www.w3.org/Graphics/SVG/1.1/DTD/svg11.dtd">
<!-- Generated by graphviz version 2.40.1 (20161225.0304)
 -->
<!-- Title: group_coordinator Pages: 1 -->
<svg width="1039pt" height="1152pt"
 viewBox="0.00 0.00 1039.09 1152.00" xmlns="http://www.w3.org/2000/svg" xmlns:xlink="http://www.w3.org/1999/xlink">
<g id="graph0" class="graph" transform="scale(1 1) rotate(0) translate(4 1148)">
<title>group_coordinator</title>
<polygon fill="#ffffff" stroke="transparent" points="-4,4 -4,-1148 1035.0869,-1148 1035.0869,4 -4,4"/>
<g id="clust1" class="cluster">
<title>cluster_GroupMetadataManager</title>
<path fill="none" stroke="#000000" d="M77.5381,-912C77.5381,-912 921.2969,-912 921.2969,-912 927.2969,-912 933.2969,-918 933.2969,-924 933.2969,-924 933.2969,-1088 933.2969,-1088 933.2969,-1094 927.2969,-1100 921.2969,-1100 921.2969,-1100 77.5381,-1100 77.5381,-1100 71.5381,-1100 65.5381,-1094 65.5381,-1088 65.5381,-1088 65.5381,-924 65.5381,-924 65.5381,-918 71.5381,-912 77.5381,-912"/>
<text text-anchor="middle" x="499.4175" y="-1080" font-family="Times,serif" font-size="20.00" fill="#000000">GroupMetadataManager</text>
</g>
<g id="clust3" class="cluster">
<title>cluster_GroupCoordinator</title>
<path fill="none" stroke="#000000" d="M20,-8C20,-8 1011.0869,-8 1011.0869,-8 1017.0869,-8 1023.0869,-14 1023.0869,-20 1023.0869,-20 1023.0869,-892 1023.0869,-892 1023.0869,-898 1017.0869,-904 1011.0869,-904 1011.0869,-904 20,-904 20,-904 14,-904 8,-898 8,-892 8,-892 8,-20 8,-20 8,-14 14,-8 20,-8"/>
<text text-anchor="middle" x="515.5435" y="-884" font-family="Times,serif" font-size="20.00" fill="#000000">GroupCoordinator</text>
</g>
<!-- gm_startup -->
<g id="node1" class="node">
<title>gm_startup</title>
<polygon fill="none" stroke="#000000" points="152.5278,-1064 73.5415,-1064 73.5415,-1028 152.5278,-1028 152.5278,-1064"/>
<text text-anchor="middle" x="113.0347" y="-1041.8" font-family="Times,serif" font-size="14.00" fill="#000000">gm_startup</text>
</g>
<!-- scheduler_startup -->
<g id="node2" class="node">
<title>scheduler_startup</title>
<polygon fill="none" stroke="#000000" points="384.2918,-1064 269.801,-1064 269.801,-1028 384.2918,-1028 384.2918,-1064"/>
<text text-anchor="middle" x="327.0464" y="-1041.8" font-family="Times,serif" font-size="14.00" fill="#000000">scheduler_startup</text>
</g>
<!-- gm_startup&#45;&gt;scheduler_startup -->
<g id="edge1" class="edge">
<title>gm_startup&#45;&gt;scheduler_startup</title>
<path fill="none" stroke="#000000" d="M152.5371,-1046C182.4368,-1046 224.2211,-1046 259.4069,-1046"/>
<polygon fill="#000000" stroke="#000000" points="259.6161,-1049.5001 269.616,-1046 259.616,-1042.5001 259.6161,-1049.5001"/>
</g>
<!-- cleanupGroupMetadata -->
<g id="node3" class="node">
<title>cleanupGroupMetadata</title>
<polygon fill="none" stroke="#000000" points="643.7144,-1064 495.9399,-1064 495.9399,-1028 643.7144,-1028 643.7144,-1064"/>
<text text-anchor="middle" x="569.8271" y="-1041.8" font-family="Times,serif" font-size="14.00" fill="#000000">cleanupGroupMetadata</text>
</g>
<!-- scheduler_startup&#45;&gt;cleanupGroupMetadata -->
<g id="edge2" class="edge">
<title>scheduler_startup&#45;&gt;cleanupGroupMetadata</title>
<path fill="none" stroke="#000000" d="M384.582,-1046C414.8261,-1046 452.463,-1046 485.8968,-1046"/>
<polygon fill="#000000" stroke="#000000" points="486.1251,-1049.5001 496.125,-1046 486.125,-1042.5001 486.1251,-1049.5001"/>
</g>
<!-- gm_addGroup -->
<g id="node4" class="node">
<title>gm_addGroup</title>
<polygon fill="none" stroke="#000000" points="618.2032,-1010 521.4511,-1010 521.4511,-974 618.2032,-974 618.2032,-1010"/>
<text text-anchor="middle" x="569.8271" y="-987.8" font-family="Times,serif" font-size="14.00" fill="#000000">gm_addGroup</text>
</g>
<!-- gm_storeGroup -->
<g id="node5" class="node">
<title>gm_storeGroup</title>
<polygon fill="none" stroke="#000000" points="925.2349,-956 821.4828,-956 821.4828,-920 925.2349,-920 925.2349,-956"/>
<text text-anchor="middle" x="873.3589" y="-933.8" font-family="Times,serif" font-size="14.00" fill="#000000">gm_storeGroup</text>
</g>
<!-- gm_getGroup -->
<g id="node6" class="node">
<title>gm_getGroup</title>
<polygon fill="none" stroke="#000000" points="616.5931,-956 523.0612,-956 523.0612,-920 616.5931,-920 616.5931,-956"/>
<text text-anchor="middle" x="569.8271" y="-933.8" font-family="Times,serif" font-size="14.00" fill="#000000">gm_getGroup</text>
</g>
<!-- handleJoinGroup -->
<g id="node7" class="node">
<title>handleJoinGroup</title>
<polygon fill="none" stroke="#000000" points="383.4749,-706 270.6178,-706 270.6178,-670 383.4749,-670 383.4749,-706"/>
<text text-anchor="middle" x="327.0464" y="-683.8" font-family="Times,serif" font-size="14.00" fill="#000000">handleJoinGroup</text>
</g>
<!-- handleJoinGroup&#45;&gt;gm_addGroup -->
<g id="edge3" class="edge">
<title>handleJoinGroup&#45;&gt;gm_addGroup</title>
<path fill="none" stroke="#000000" d="M340.4141,-706.3C358.2001,-731.4346 389.5449,-778.5892 408.0234,-823 433.0349,-883.1119 397.1443,-919.8186 444.0234,-965 461.8265,-982.1584 487.753,-989.5267 511.45,-992.3631"/>
<polygon fill="#000000" stroke="#000000" points="511.1518,-995.8505 521.4392,-993.3166 511.817,-988.8821 511.1518,-995.8505"/>
</g>
<!-- handleJoinGroup&#45;&gt;gm_getGroup -->
<g id="edge4" class="edge">
<title>handleJoinGroup&#45;&gt;gm_getGroup</title>
<path fill="none" stroke="#000000" d="M339.1567,-706.3147C355.7791,-731.8514 386.0952,-779.8804 408.0234,-823 426.6205,-859.5692 412.7012,-881.5032 444.0234,-908 462.9879,-924.0428 489.0552,-931.8224 512.5449,-935.4847"/>
<polygon fill="#000000" stroke="#000000" points="512.3965,-938.996 522.7724,-936.8535 513.3251,-932.0578 512.3965,-938.996"/>
</g>
<!-- doUnknownJoinGroup -->
<g id="node8" class="node">
<title>doUnknownJoinGroup</title>
<polygon fill="none" stroke="#000000" points="642.1586,-706 497.4957,-706 497.4957,-670 642.1586,-670 642.1586,-706"/>
<text text-anchor="middle" x="569.8271" y="-683.8" font-family="Times,serif" font-size="14.00" fill="#000000">doUnknownJoinGroup</text>
</g>
<!-- handleJoinGroup&#45;&gt;doUnknownJoinGroup -->
<g id="edge5" class="edge">
<title>handleJoinGroup&#45;&gt;doUnknownJoinGroup</title>
<path fill="none" stroke="#000000" d="M383.3554,-688C414.0762,-688 452.6926,-688 486.8037,-688"/>
<polygon fill="#000000" stroke="#000000" points="487.2316,-691.5001 497.2316,-688 487.2316,-684.5001 487.2316,-691.5001"/>
</g>
<!-- responseCallback -->
<g id="node9" class="node">
<title>responseCallback</title>
<polygon fill="none" stroke="#000000" points="930.6043,-274 816.1135,-274 816.1135,-238 930.6043,-238 930.6043,-274"/>
<text text-anchor="middle" x="873.3589" y="-251.8" font-family="Times,serif" font-size="14.00" fill="#000000">responseCallback</text>
</g>
<!-- handleJoinGroup&#45;&gt;responseCallback -->
<g id="edge6" class="edge">
<title>handleJoinGroup&#45;&gt;responseCallback</title>
<path fill="none" stroke="#000000" d="M346.3279,-669.7601C368.135,-650.3801 405.6321,-620.6876 444.0234,-607 496.8552,-588.164 655.2128,-625.8892 695.6309,-587 793.6728,-492.6666 638.8695,-382.5307 731.6309,-283 750.4082,-262.8524 779.2008,-255.0309 805.9415,-252.6641"/>
<polygon fill="#000000" stroke="#000000" points="806.3111,-256.1476 816.0645,-252.0097 805.8595,-249.1622 806.3111,-256.1476"/>
</g>
<!-- groupIsOverCapacity -->
<g id="node10" class="node">
<title>groupIsOverCapacity</title>
<polygon fill="none" stroke="#000000" points="637.8456,-760 501.8087,-760 501.8087,-724 637.8456,-724 637.8456,-760"/>
<text text-anchor="middle" x="569.8271" y="-737.8" font-family="Times,serif" font-size="14.00" fill="#000000">groupIsOverCapacity</text>
</g>
<!-- handleJoinGroup&#45;&gt;groupIsOverCapacity -->
<g id="edge7" class="edge">
<title>handleJoinGroup&#45;&gt;groupIsOverCapacity</title>
<path fill="none" stroke="#000000" d="M383.5299,-701.2225C402.716,-705.6645 424.2897,-710.6052 444.0234,-715 459.3161,-718.4057 475.6722,-721.9719 491.361,-725.3551"/>
<polygon fill="#000000" stroke="#000000" points="491.0442,-728.8669 501.5566,-727.5483 492.5164,-722.0235 491.0442,-728.8669"/>
</g>
<!-- group_remove -->
<g id="node11" class="node">
<title>group_remove</title>
<polygon fill="none" stroke="#000000" points="618.4694,-814 521.1849,-814 521.1849,-778 618.4694,-778 618.4694,-814"/>
<text text-anchor="middle" x="569.8271" y="-791.8" font-family="Times,serif" font-size="14.00" fill="#000000">group_remove</text>
</g>
<!-- handleJoinGroup&#45;&gt;group_remove -->
<g id="edge8" class="edge">
<title>handleJoinGroup&#45;&gt;group_remove</title>
<path fill="none" stroke="#000000" d="M347.9248,-706.3127C370.2105,-724.889 407.2993,-753.1029 444.0234,-769 464.9947,-778.078 489.2944,-784.2123 510.9136,-788.3058"/>
<polygon fill="#000000" stroke="#000000" points="510.4999,-791.7872 520.9596,-790.1007 511.7311,-784.8964 510.4999,-791.7872"/>
</g>
<!-- group_removeStaticMember -->
<g id="node12" class="node">
<title>group_removeStaticMember</title>
<polygon fill="none" stroke="#000000" points="658.2793,-524 481.375,-524 481.375,-488 658.2793,-488 658.2793,-524"/>
<text text-anchor="middle" x="569.8271" y="-501.8" font-family="Times,serif" font-size="14.00" fill="#000000">group_removeStaticMember</text>
</g>
<!-- handleJoinGroup&#45;&gt;group_removeStaticMember -->
<g id="edge9" class="edge">
<title>handleJoinGroup&#45;&gt;group_removeStaticMember</title>
<path fill="none" stroke="#000000" d="M335.3416,-669.7945C351.3404,-636.868 389.7375,-567.6317 444.0234,-533 452.4274,-527.6387 461.7242,-523.3261 471.3471,-519.8595"/>
<polygon fill="#000000" stroke="#000000" points="472.6509,-523.1152 481.0578,-516.6674 470.4649,-516.4653 472.6509,-523.1152"/>
</g>
<!-- doJoinGroup -->
<g id="node13" class="node">
<title>doJoinGroup</title>
<polygon fill="none" stroke="#000000" points="614.4376,-652 525.2167,-652 525.2167,-616 614.4376,-616 614.4376,-652"/>
<text text-anchor="middle" x="569.8271" y="-629.8" font-family="Times,serif" font-size="14.00" fill="#000000">doJoinGroup</text>
</g>
<!-- handleJoinGroup&#45;&gt;doJoinGroup -->
<g id="edge10" class="edge">
<title>handleJoinGroup&#45;&gt;doJoinGroup</title>
<path fill="none" stroke="#000000" d="M383.5299,-674.7775C402.716,-670.3355 424.2897,-665.3948 444.0234,-661 467.3751,-655.7995 493.2062,-650.2248 515.3553,-645.4992"/>
<polygon fill="#000000" stroke="#000000" points="516.1989,-648.8981 525.2506,-643.3921 514.7409,-642.0516 516.1989,-648.8981"/>
</g>
<!-- joinPurgatory_checkAndComplete -->
<g id="node14" class="node">
<title>joinPurgatory_checkAndComplete</title>
<polygon fill="none" stroke="#000000" points="675.2608,-578 464.3935,-578 464.3935,-542 675.2608,-542 675.2608,-578"/>
<text text-anchor="middle" x="569.8271" y="-555.8" font-family="Times,serif" font-size="14.00" fill="#000000">joinPurgatory_checkAndComplete</text>
</g>
<!-- handleJoinGroup&#45;&gt;joinPurgatory_checkAndComplete -->
<g id="edge11" class="edge">
<title>handleJoinGroup&#45;&gt;joinPurgatory_checkAndComplete</title>
<path fill="none" stroke="#000000" d="M343.9113,-669.9822C365.2073,-648.2953 403.9322,-612.2718 444.0234,-592 451.9989,-587.9672 460.5223,-584.416 469.2325,-581.2939"/>
<polygon fill="#000000" stroke="#000000" points="470.3925,-584.5964 478.7402,-578.072 468.1458,-577.9667 470.3925,-584.5964"/>
</g>
<!-- doUnknownJoinGroup&#45;&gt;responseCallback -->
<g id="edge12" class="edge">
<title>doUnknownJoinGroup&#45;&gt;responseCallback</title>
<path fill="none" stroke="#000000" d="M642.0742,-687.7968C662.0976,-684.073 682.0436,-676.2696 695.6309,-661 751.7231,-597.963 674.8124,-345.3832 731.6309,-283 750.1761,-262.6385 778.9359,-254.7869 805.7148,-252.4553"/>
<polygon fill="#000000" stroke="#000000" points="806.0952,-255.9384 815.8557,-251.8174 805.6557,-248.9522 806.0952,-255.9384"/>
</g>
<!-- generateMemberId -->
<g id="node15" class="node">
<title>generateMemberId</title>
<polygon fill="none" stroke="#000000" points="934.857,-706 811.8608,-706 811.8608,-670 934.857,-670 934.857,-706"/>
<text text-anchor="middle" x="873.3589" y="-683.8" font-family="Times,serif" font-size="14.00" fill="#000000">generateMemberId</text>
</g>
<!-- doUnknownJoinGroup&#45;&gt;generateMemberId -->
<g id="edge13" class="edge">
<title>doUnknownJoinGroup&#45;&gt;generateMemberId</title>
<path fill="none" stroke="#000000" d="M642.1449,-688C690.4377,-688 753.6773,-688 801.8102,-688"/>
<polygon fill="#000000" stroke="#000000" points="801.8412,-691.5001 811.8412,-688 801.8411,-684.5001 801.8412,-691.5001"/>
</g>
<!-- hasStaticMember -->
<g id="node16" class="node">
<title>hasStaticMember</title>
<polygon fill="none" stroke="#000000" points="930.3315,-760 816.3862,-760 816.3862,-724 930.3315,-724 930.3315,-760"/>
<text text-anchor="middle" x="873.3589" y="-737.8" font-family="Times,serif" font-size="14.00" fill="#000000">hasStaticMember</text>
</g>
<!-- doUnknownJoinGroup&#45;&gt;hasStaticMember -->
<g id="edge14" class="edge">
<title>doUnknownJoinGroup&#45;&gt;hasStaticMember</title>
<path fill="none" stroke="#000000" d="M642.1449,-700.8657C691.911,-709.7194 757.5499,-721.3969 806.1726,-730.0472"/>
<polygon fill="#000000" stroke="#000000" points="805.8195,-733.5393 816.278,-731.845 807.0457,-726.6475 805.8195,-733.5393"/>
</g>
<!-- completeAndScheduleNextExpiration -->
<g id="node17" class="node">
<title>completeAndScheduleNextExpiration</title>
<polygon fill="none" stroke="#000000" points="987.9077,-814 758.8101,-814 758.8101,-778 987.9077,-778 987.9077,-814"/>
<text text-anchor="middle" x="873.3589" y="-791.8" font-family="Times,serif" font-size="14.00" fill="#000000">completeAndScheduleNextExpiration</text>
</g>
<!-- doUnknownJoinGroup&#45;&gt;completeAndScheduleNextExpiration -->
<g id="edge15" class="edge">
<title>doUnknownJoinGroup&#45;&gt;completeAndScheduleNextExpiration</title>
<path fill="none" stroke="#000000" d="M642.2153,-693.7569C660.7847,-697.7613 679.9288,-704.3243 695.6309,-715 719.4843,-731.2178 707.5912,-753.0596 731.6309,-769 737.2412,-772.7202 743.2355,-775.9568 749.4715,-778.7704"/>
<polygon fill="#000000" stroke="#000000" points="748.1846,-782.0256 758.764,-782.5971 750.8501,-775.5529 748.1846,-782.0256"/>
</g>
<!-- updateMember -->
<g id="node18" class="node">
<title>updateMember</title>
<polygon fill="none" stroke="#000000" points="923.6043,-868 823.1134,-868 823.1134,-832 923.6043,-832 923.6043,-868"/>
<text text-anchor="middle" x="873.3589" y="-845.8" font-family="Times,serif" font-size="14.00" fill="#000000">updateMember</text>
</g>
<!-- doUnknownJoinGroup&#45;&gt;updateMember -->
<g id="edge16" class="edge">
<title>doUnknownJoinGroup&#45;&gt;updateMember</title>
<path fill="none" stroke="#000000" d="M642.0053,-690.6145C661.3222,-694.5168 680.9023,-701.813 695.6309,-715 733.3263,-748.7499 693.5471,-789.6889 731.6309,-823 753.7117,-842.3136 785.2522,-849.6067 812.9755,-851.8355"/>
<polygon fill="#000000" stroke="#000000" points="812.7992,-855.3311 822.9921,-852.4404 813.2213,-848.3439 812.7992,-855.3311"/>
</g>
<!-- maybeInvokeJoinCallback -->
<g id="node19" class="node">
<title>maybeInvokeJoinCallback</title>
<polygon fill="none" stroke="#000000" points="956.1492,-544 790.5686,-544 790.5686,-508 956.1492,-508 956.1492,-544"/>
<text text-anchor="middle" x="873.3589" y="-521.8" font-family="Times,serif" font-size="14.00" fill="#000000">maybeInvokeJoinCallback</text>
</g>
<!-- doUnknownJoinGroup&#45;&gt;maybeInvokeJoinCallback -->
<g id="edge17" class="edge">
<title>doUnknownJoinGroup&#45;&gt;maybeInvokeJoinCallback</title>
<path fill="none" stroke="#000000" d="M642.0053,-685.3855C661.3222,-681.4832 680.9023,-674.187 695.6309,-661 733.3263,-627.2501 693.5471,-586.3111 731.6309,-553 745.391,-540.9643 762.8249,-533.5966 780.7192,-529.2137"/>
<polygon fill="#000000" stroke="#000000" points="781.6442,-532.595 790.6875,-527.0751 780.1758,-525.7507 781.6442,-532.595"/>
</g>
<!-- addPendingMember -->
<g id="node20" class="node">
<title>addPendingMember</title>
<polygon fill="none" stroke="#000000" points="937.891,-598 808.8268,-598 808.8268,-562 937.891,-562 937.891,-598"/>
<text text-anchor="middle" x="873.3589" y="-575.8" font-family="Times,serif" font-size="14.00" fill="#000000">addPendingMember</text>
</g>
<!-- doUnknownJoinGroup&#45;&gt;addPendingMember -->
<g id="edge18" class="edge">
<title>doUnknownJoinGroup&#45;&gt;addPendingMember</title>
<path fill="none" stroke="#000000" d="M642.2153,-682.2431C660.7847,-678.2387 679.9288,-671.6757 695.6309,-661 719.4843,-644.7822 707.5912,-622.9404 731.6309,-607 751.2703,-593.9773 775.6155,-586.8797 798.5555,-583.1111"/>
<polygon fill="#000000" stroke="#000000" points="799.2344,-586.5493 808.6275,-581.6483 798.2283,-579.622 799.2344,-586.5493"/>
</g>
<!-- addPendingMemberExpiration -->
<g id="node21" class="node">
<title>addPendingMemberExpiration</title>
<polygon fill="none" stroke="#000000" points="967.4872,-652 779.2306,-652 779.2306,-616 967.4872,-616 967.4872,-652"/>
<text text-anchor="middle" x="873.3589" y="-629.8" font-family="Times,serif" font-size="14.00" fill="#000000">addPendingMemberExpiration</text>
</g>
<!-- doUnknownJoinGroup&#45;&gt;addPendingMemberExpiration -->
<g id="edge19" class="edge">
<title>doUnknownJoinGroup&#45;&gt;addPendingMemberExpiration</title>
<path fill="none" stroke="#000000" d="M642.1449,-675.1343C680.1312,-668.3763 727.3652,-659.9731 769.2209,-652.5267"/>
<polygon fill="#000000" stroke="#000000" points="769.9439,-655.9531 779.1763,-650.7556 768.7178,-649.0614 769.9439,-655.9531"/>
</g>
<!-- addMemberAndRebalance -->
<g id="node22" class="node">
<title>addMemberAndRebalance</title>
<polygon fill="none" stroke="#000000" points="956.4077,-490 790.3101,-490 790.3101,-454 956.4077,-454 956.4077,-490"/>
<text text-anchor="middle" x="873.3589" y="-467.8" font-family="Times,serif" font-size="14.00" fill="#000000">addMemberAndRebalance</text>
</g>
<!-- doUnknownJoinGroup&#45;&gt;addMemberAndRebalance -->
<g id="edge20" class="edge">
<title>doUnknownJoinGroup&#45;&gt;addMemberAndRebalance</title>
<path fill="none" stroke="#000000" d="M642.2475,-686.4679C661.7985,-682.6224 681.4427,-675.0856 695.6309,-661 747.9733,-609.0359 678.6901,-550.3544 731.6309,-499 744.8286,-486.1978 762.1107,-478.5175 780.0497,-474.0743"/>
<polygon fill="#000000" stroke="#000000" points="781.018,-477.4463 790.0617,-471.927 779.55,-470.602 781.018,-477.4463"/>
</g>
<!-- doJoinGroup&#45;&gt;responseCallback -->
<g id="edge21" class="edge">
<title>doJoinGroup&#45;&gt;responseCallback</title>
<path fill="none" stroke="#000000" d="M614.4809,-634.657C641.9966,-632.5202 675.7113,-624.8473 695.6309,-602 789.3931,-494.4566 634.6415,-387.6422 731.6309,-283 750.3528,-262.8009 779.1375,-254.9722 805.8874,-252.6138"/>
<polygon fill="#000000" stroke="#000000" points="806.2595,-256.0972 816.0146,-251.9634 805.8108,-249.1116 806.2595,-256.0972"/>
</g>
<!-- doJoinGroup&#45;&gt;addMemberAndRebalance -->
<g id="edge22" class="edge">
<title>doJoinGroup&#45;&gt;addMemberAndRebalance</title>
<path fill="none" stroke="#000000" d="M614.6472,-632.863C641.1854,-629.9185 673.7824,-622.0225 695.6309,-602 731.3822,-569.2365 694.8997,-530.6611 731.6309,-499 745.3178,-487.2023 762.5456,-479.9096 780.2316,-475.5199"/>
<polygon fill="#000000" stroke="#000000" points="781.061,-478.9213 790.0848,-473.3696 779.5685,-472.0823 781.061,-478.9213"/>
</g>
<!-- isPendingMember -->
<g id="node23" class="node">
<title>isPendingMember</title>
<polygon fill="none" stroke="#000000" points="932.5147,-382 814.2031,-382 814.2031,-346 932.5147,-346 932.5147,-382"/>
<text text-anchor="middle" x="873.3589" y="-359.8" font-family="Times,serif" font-size="14.00" fill="#000000">isPendingMember</text>
</g>
<!-- doJoinGroup&#45;&gt;isPendingMember -->
<g id="edge23" class="edge">
<title>doJoinGroup&#45;&gt;isPendingMember</title>
<path fill="none" stroke="#000000" d="M614.6602,-634.2178C641.8905,-631.8611 675.2255,-624.1088 695.6309,-602 760.1529,-532.0916 665.0127,-458.9138 731.6309,-391 750.29,-371.9779 777.9148,-364.1026 803.832,-361.3947"/>
<polygon fill="#000000" stroke="#000000" points="804.3499,-364.8645 814.0378,-360.5756 803.7898,-357.887 804.3499,-364.8645"/>
</g>
<!-- isStaticMemberFenced -->
<g id="node24" class="node">
<title>isStaticMemberFenced</title>
<polygon fill="none" stroke="#000000" points="945.9351,-220 800.7827,-220 800.7827,-184 945.9351,-184 945.9351,-220"/>
<text text-anchor="middle" x="873.3589" y="-197.8" font-family="Times,serif" font-size="14.00" fill="#000000">isStaticMemberFenced</text>
</g>
<!-- doJoinGroup&#45;&gt;isStaticMemberFenced -->
<g id="edge24" class="edge">
<title>doJoinGroup&#45;&gt;isStaticMemberFenced</title>
<path fill="none" stroke="#000000" d="M614.3862,-629.194C642.2282,-623.722 676.3426,-612.0207 695.6309,-587 744.4474,-523.6752 677.6353,-287.9709 731.6309,-229 746.7396,-212.4991 768.5587,-204.2259 790.5662,-200.4478"/>
<polygon fill="#000000" stroke="#000000" points="791.2584,-203.8847 800.6677,-199.0147 790.2752,-196.9541 791.2584,-203.8847"/>
</g>
<!-- updateMemberAndRebalance -->
<g id="node25" class="node">
<title>updateMemberAndRebalance</title>
<polygon fill="none" stroke="#000000" points="965.0113,-436 781.7065,-436 781.7065,-400 965.0113,-400 965.0113,-436"/>
<text text-anchor="middle" x="873.3589" y="-413.8" font-family="Times,serif" font-size="14.00" fill="#000000">updateMemberAndRebalance</text>
</g>
<!-- doJoinGroup&#45;&gt;updateMemberAndRebalance -->
<g id="edge25" class="edge">
<title>doJoinGroup&#45;&gt;updateMemberAndRebalance</title>
<path fill="none" stroke="#000000" d="M614.5418,-633.788C641.5509,-631.2434 674.6889,-623.4439 695.6309,-602 745.6488,-550.7834 680.0785,-494.6718 731.6309,-445 742.8022,-434.2362 756.8634,-427.1002 771.7625,-422.4667"/>
<polygon fill="#000000" stroke="#000000" points="772.9251,-425.7776 781.6522,-419.7703 771.0837,-419.0241 772.9251,-425.7776"/>
</g>
<!-- isLeader -->
<g id="node26" class="node">
<title>isLeader</title>
<polygon fill="none" stroke="#000000" points="905.5525,-328 841.1652,-328 841.1652,-292 905.5525,-292 905.5525,-328"/>
<text text-anchor="middle" x="873.3589" y="-305.8" font-family="Times,serif" font-size="14.00" fill="#000000">isLeader</text>
</g>
<!-- doJoinGroup&#45;&gt;isLeader -->
<g id="edge26" class="edge">
<title>doJoinGroup&#45;&gt;isLeader</title>
<path fill="none" stroke="#000000" d="M614.6133,-634.4789C642.0027,-632.2474 675.5289,-624.5362 695.6309,-602 774.7501,-513.2997 649.8507,-423.2532 731.6309,-337 756.6371,-310.626 798.8268,-305.4752 830.6879,-305.9621"/>
<polygon fill="#000000" stroke="#000000" points="830.9423,-309.4729 841.0573,-306.3209 831.1844,-302.4771 830.9423,-309.4729"/>
</g>
<!-- handleSyncGroup -->
<g id="node27" class="node">
<title>handleSyncGroup</title>
<polygon fill="none" stroke="#000000" points="385.6363,-487 268.4565,-487 268.4565,-451 385.6363,-451 385.6363,-487"/>
<text text-anchor="middle" x="327.0464" y="-464.8" font-family="Times,serif" font-size="14.00" fill="#000000">handleSyncGroup</text>
</g>
<!-- handleSyncGroup&#45;&gt;gm_getGroup -->
<g id="edge27" class="edge">
<title>handleSyncGroup&#45;&gt;gm_getGroup</title>
<path fill="none" stroke="#000000" d="M336.6018,-487.2381C353.7109,-520.7108 389.5134,-594.6157 408.0234,-661 422.9216,-714.4307 406.5922,-867.0648 444.0234,-908 461.4022,-927.0056 488.4618,-935.0029 513.0388,-938.041"/>
<polygon fill="#000000" stroke="#000000" points="512.7278,-941.5273 523.0242,-939.0302 513.4179,-934.5614 512.7278,-941.5273"/>
</g>
<!-- handleSyncGroup&#45;&gt;responseCallback -->
<g id="edge28" class="edge">
<title>handleSyncGroup&#45;&gt;responseCallback</title>
<path fill="none" stroke="#000000" d="M385.9788,-471.3382C484.106,-474.6566 672.5516,-478.3638 695.6309,-459 756.7959,-407.6819 674.794,-339.074 731.6309,-283 751.0784,-263.8135 779.6802,-256.0746 806.1062,-253.5117"/>
<polygon fill="#000000" stroke="#000000" points="806.3905,-257.0003 816.104,-252.7698 805.8724,-250.0195 806.3905,-257.0003"/>
</g>
<!-- doSyncGroup -->
<g id="node28" class="node">
<title>doSyncGroup</title>
<polygon fill="none" stroke="#000000" points="616.5999,-450 523.0544,-450 523.0544,-414 616.5999,-414 616.5999,-450"/>
<text text-anchor="middle" x="569.8271" y="-427.8" font-family="Times,serif" font-size="14.00" fill="#000000">doSyncGroup</text>
</g>
<!-- handleSyncGroup&#45;&gt;doSyncGroup -->
<g id="edge29" class="edge">
<title>handleSyncGroup&#45;&gt;doSyncGroup</title>
<path fill="none" stroke="#000000" d="M385.8168,-460.0433C424.4638,-454.1535 474.7719,-446.4865 513.0159,-440.6581"/>
<polygon fill="#000000" stroke="#000000" points="513.6041,-444.1089 522.9626,-439.1422 512.5494,-437.1888 513.6041,-444.1089"/>
</g>
<!-- doSyncGroup&#45;&gt;gm_storeGroup -->
<g id="edge30" class="edge">
<title>doSyncGroup&#45;&gt;gm_storeGroup</title>
<path fill="none" stroke="#000000" d="M616.6979,-437.1341C644.1761,-442.742 677.0425,-454.4713 695.6309,-479 753.4128,-555.2475 668.3359,-836.2631 731.6309,-908 751.1932,-930.1715 782.6775,-938.3061 811.0084,-940.6204"/>
<polygon fill="#000000" stroke="#000000" points="811.0871,-944.131 821.2756,-941.2249 811.4986,-937.1431 811.0871,-944.131"/>
</g>
<!-- doSyncGroup&#45;&gt;responseCallback -->
<g id="edge31" class="edge">
<title>doSyncGroup&#45;&gt;responseCallback</title>
<path fill="none" stroke="#000000" d="M616.6967,-433.1023C642.9669,-431.2431 674.5818,-424.5165 695.6309,-405 737.0869,-366.5624 689.7325,-320.9549 731.6309,-283 751.5426,-264.9623 779.6495,-257.3 805.5886,-254.4852"/>
<polygon fill="#000000" stroke="#000000" points="806.1167,-257.9527 815.7795,-253.6075 805.5161,-250.9785 806.1167,-257.9527"/>
</g>
<!-- groupCompletedRebalanceSensor -->
<g id="node29" class="node">
<title>groupCompletedRebalanceSensor</title>
<polygon fill="none" stroke="#000000" points="976.3634,-166 770.3544,-166 770.3544,-130 976.3634,-130 976.3634,-166"/>
<text text-anchor="middle" x="873.3589" y="-143.8" font-family="Times,serif" font-size="14.00" fill="#000000">groupCompletedRebalanceSensor</text>
</g>
<!-- doSyncGroup&#45;&gt;groupCompletedRebalanceSensor -->
<g id="edge32" class="edge">
<title>doSyncGroup&#45;&gt;groupCompletedRebalanceSensor</title>
<path fill="none" stroke="#000000" d="M616.7565,-434.1526C643.5514,-432.7354 675.6812,-426.1025 695.6309,-405 766.7103,-329.813 659.6854,-249.3588 731.6309,-175 739.7809,-166.5766 749.6866,-160.3305 760.4341,-155.7471"/>
<polygon fill="#000000" stroke="#000000" points="761.9371,-158.9216 770.0724,-152.1344 759.4801,-152.3669 761.9371,-158.9216"/>
</g>
<!-- completeAndScheduleNextHeartbeatExpiration -->
<g id="node30" class="node">
<title>completeAndScheduleNextHeartbeatExpiration</title>
<polygon fill="none" stroke="#000000" points="1015.3153,-106 731.4025,-106 731.4025,-70 1015.3153,-70 1015.3153,-106"/>
<text text-anchor="middle" x="873.3589" y="-83.8" font-family="Times,serif" font-size="14.00" fill="#000000">completeAndScheduleNextHeartbeatExpiration</text>
</g>
<!-- doSyncGroup&#45;&gt;completeAndScheduleNextHeartbeatExpiration -->
<g id="edge33" class="edge">
<title>doSyncGroup&#45;&gt;completeAndScheduleNextHeartbeatExpiration</title>
<path fill="none" stroke="#000000" d="M616.6719,-434.3777C643.6092,-433.0704 675.9156,-426.4736 695.6309,-405 781.6788,-311.278 646.3993,-215.465 731.6309,-121 734.582,-117.7292 737.7886,-114.7509 741.2023,-112.0403"/>
<polygon fill="#000000" stroke="#000000" points="743.3543,-114.8058 749.5205,-106.1902 739.3274,-109.08 743.3543,-114.8058"/>
</g>
<!-- handleLeaveGroup -->
<g id="node31" class="node">
<title>handleLeaveGroup</title>
<polygon fill="none" stroke="#000000" points="388.8299,-342 265.2629,-342 265.2629,-306 388.8299,-306 388.8299,-342"/>
<text text-anchor="middle" x="327.0464" y="-319.8" font-family="Times,serif" font-size="14.00" fill="#000000">handleLeaveGroup</text>
</g>
<!-- handleLeaveGroup&#45;&gt;gm_getGroup -->
<g id="edge34" class="edge">
<title>handleLeaveGroup&#45;&gt;gm_getGroup</title>
<path fill="none" stroke="#000000" d="M344.2493,-342.2905C363.5992,-364.1203 394.1321,-402.6381 408.0234,-442 442.5891,-539.9437 376.5657,-829.024 444.0234,-908 460.8138,-927.6573 487.9484,-935.7011 512.7263,-938.6016"/>
<polygon fill="#000000" stroke="#000000" points="512.5227,-942.0975 522.8003,-939.5244 513.1614,-935.1267 512.5227,-942.0975"/>
</g>
<!-- handleLeaveGroup&#45;&gt;isStaticMemberFenced -->
<g id="edge35" class="edge">
<title>handleLeaveGroup&#45;&gt;isStaticMemberFenced</title>
<path fill="none" stroke="#000000" d="M346.3279,-305.7601C368.135,-286.3801 405.6321,-256.6876 444.0234,-243 496.8552,-224.164 639.8134,-228.514 695.6309,-223 726.7438,-219.9264 760.857,-216.0246 790.8049,-212.4205"/>
<polygon fill="#000000" stroke="#000000" points="791.2844,-215.888 800.7912,-211.2112 790.4429,-208.9388 791.2844,-215.888"/>
</g>
<!-- removePendingMemberAndUpdateGroup -->
<g id="node32" class="node">
<title>removePendingMemberAndUpdateGroup</title>
<polygon fill="none" stroke="#000000" points="695.4349,-288 444.2194,-288 444.2194,-252 695.4349,-252 695.4349,-288"/>
<text text-anchor="middle" x="569.8271" y="-265.8" font-family="Times,serif" font-size="14.00" fill="#000000">removePendingMemberAndUpdateGroup</text>
</g>
<!-- handleLeaveGroup&#45;&gt;removePendingMemberAndUpdateGroup -->
<g id="edge36" class="edge">
<title>handleLeaveGroup&#45;&gt;removePendingMemberAndUpdateGroup</title>
<path fill="none" stroke="#000000" d="M388.9287,-309.5291C406.7036,-305.4234 426.1207,-300.987 444.0234,-297 454.0201,-294.7737 464.4712,-292.4788 474.8932,-290.2114"/>
<polygon fill="#000000" stroke="#000000" points="475.8302,-293.5896 484.8608,-288.0489 474.3461,-286.7487 475.8302,-293.5896"/>
</g>
<!-- checkAndComplete -->
<g id="node33" class="node">
<title>checkAndComplete</title>
<polygon fill="none" stroke="#000000" points="633.5138,-342 506.1405,-342 506.1405,-306 633.5138,-306 633.5138,-342"/>
<text text-anchor="middle" x="569.8271" y="-319.8" font-family="Times,serif" font-size="14.00" fill="#000000">checkAndComplete</text>
</g>
<!-- handleLeaveGroup&#45;&gt;checkAndComplete -->
<g id="edge37" class="edge">
<title>handleLeaveGroup&#45;&gt;checkAndComplete</title>
<path fill="none" stroke="#000000" d="M388.9384,-324C421.4043,-324 461.4138,-324 495.5432,-324"/>
<polygon fill="#000000" stroke="#000000" points="495.9315,-327.5001 505.9315,-324 495.9315,-320.5001 495.9315,-327.5001"/>
</g>
<!-- removeMemberAndUpdateGroup -->
<g id="node34" class="node">
<title>removeMemberAndUpdateGroup</title>
<polygon fill="none" stroke="#000000" points="672.5451,-396 467.1092,-396 467.1092,-360 672.5451,-360 672.5451,-396"/>
<text text-anchor="middle" x="569.8271" y="-373.8" font-family="Times,serif" font-size="14.00" fill="#000000">removeMemberAndUpdateGroup</text>
</g>
<!-- handleLeaveGroup&#45;&gt;removeMemberAndUpdateGroup -->
<g id="edge38" class="edge">
<title>handleLeaveGroup&#45;&gt;removeMemberAndUpdateGroup</title>
<path fill="none" stroke="#000000" d="M388.9287,-338.4709C406.7036,-342.5766 426.1207,-347.013 444.0234,-351 454.0201,-353.2263 464.4712,-355.5212 474.8932,-357.7886"/>
<polygon fill="#000000" stroke="#000000" points="474.3461,-361.2513 484.8608,-359.9511 475.8302,-354.4104 474.3461,-361.2513"/>
</g>
<!-- handleDeleteGroups -->
<g id="node35" class="node">
<title>handleDeleteGroups</title>
<polygon fill="none" stroke="#000000" points="392.6157,-868 261.477,-868 261.477,-832 392.6157,-832 392.6157,-868"/>
<text text-anchor="middle" x="327.0464" y="-845.8" font-family="Times,serif" font-size="14.00" fill="#000000">handleDeleteGroups</text>
</g>
<!-- handleDeleteGroups&#45;&gt;cleanupGroupMetadata -->
<g id="edge39" class="edge">
<title>handleDeleteGroups&#45;&gt;cleanupGroupMetadata</title>
<path fill="none" stroke="#000000" d="M361.7693,-868.0328C377.8324,-877.9195 395.9781,-891.5292 408.0234,-908 438.6383,-949.8629 405.5253,-984.2485 444.0234,-1019 455.7214,-1029.5595 470.5257,-1036.3496 485.8359,-1040.6458"/>
<polygon fill="#000000" stroke="#000000" points="485.3966,-1044.1417 495.9424,-1043.1235 487.0634,-1037.343 485.3966,-1044.1417"/>
</g>
<!-- handleDeleteGroups&#45;&gt;gm_getGroup -->
<g id="edge40" class="edge">
<title>handleDeleteGroups&#45;&gt;gm_getGroup</title>
<path fill="none" stroke="#000000" d="M358.4604,-868.0133C381.5352,-880.6343 413.969,-897.1246 444.0234,-908 466.0863,-915.9836 491.0986,-922.4481 512.9765,-927.3034"/>
<polygon fill="#000000" stroke="#000000" points="512.2728,-930.7321 522.7861,-929.4207 513.7497,-923.8896 512.2728,-930.7321"/>
</g>
<!-- transitionTo_Dead -->
<g id="node36" class="node">
<title>transitionTo_Dead</title>
<polygon fill="none" stroke="#000000" points="629.8223,-868 509.832,-868 509.832,-832 629.8223,-832 629.8223,-868"/>
<text text-anchor="middle" x="569.8271" y="-845.8" font-family="Times,serif" font-size="14.00" fill="#000000">transitionTo_Dead</text>
</g>
<!-- handleDeleteGroups&#45;&gt;transitionTo_Dead -->
<g id="edge41" class="edge">
<title>handleDeleteGroups&#45;&gt;transitionTo_Dead</title>
<path fill="none" stroke="#000000" d="M392.7464,-850C425.7081,-850 465.664,-850 499.274,-850"/>
<polygon fill="#000000" stroke="#000000" points="499.4862,-853.5001 509.4861,-850 499.4861,-846.5001 499.4862,-853.5001"/>
</g>
<!-- handleDeleteOffsets -->
<g id="node37" class="node">
<title>handleDeleteOffsets</title>
<polygon fill="none" stroke="#000000" points="392.0835,-251 262.0093,-251 262.0093,-215 392.0835,-215 392.0835,-251"/>
<text text-anchor="middle" x="327.0464" y="-228.8" font-family="Times,serif" font-size="14.00" fill="#000000">handleDeleteOffsets</text>
</g>
<!-- handleDeleteOffsets&#45;&gt;cleanupGroupMetadata -->
<g id="edge42" class="edge">
<title>handleDeleteOffsets&#45;&gt;cleanupGroupMetadata</title>
<path fill="none" stroke="#000000" d="M361.7297,-251.01C378.8379,-261.8687 397.9259,-277.4084 408.0234,-297 444.8216,-368.3968 391.9965,-957.8052 444.0234,-1019 454.7476,-1031.6139 469.8071,-1039.187 485.7928,-1043.5809"/>
<polygon fill="#000000" stroke="#000000" points="485.3018,-1047.0602 495.8353,-1045.9225 486.8913,-1040.2431 485.3018,-1047.0602"/>
</g>
<!-- handleDeleteOffsets&#45;&gt;gm_getGroup -->
<g id="edge43" class="edge">
<title>handleDeleteOffsets&#45;&gt;gm_getGroup</title>
<path fill="none" stroke="#000000" d="M361.6581,-251.0471C378.746,-261.9163 397.8375,-277.4542 408.0234,-297 470.881,-417.6173 356.6328,-803.7768 444.0234,-908 460.6972,-927.8853 487.9574,-935.9302 512.8467,-938.7726"/>
<polygon fill="#000000" stroke="#000000" points="512.6956,-942.2728 522.9654,-939.6686 513.3131,-935.3001 512.6956,-942.2728"/>
</g>
<!-- isSubscribedToTopic -->
<g id="node38" class="node">
<title>isSubscribedToTopic</title>
<polygon fill="none" stroke="#000000" points="636.631,-160 503.0233,-160 503.0233,-124 636.631,-124 636.631,-160"/>
<text text-anchor="middle" x="569.8271" y="-137.8" font-family="Times,serif" font-size="14.00" fill="#000000">isSubscribedToTopic</text>
</g>
<!-- handleDeleteOffsets&#45;&gt;isSubscribedToTopic -->
<g id="edge44" class="edge">
<title>handleDeleteOffsets&#45;&gt;isSubscribedToTopic</title>
<path fill="none" stroke="#000000" d="M391.1479,-214.8779C397.0299,-212.2584 402.7515,-209.3086 408.0234,-206 427.457,-193.8035 423.9464,-180.1055 444.0234,-169 458.9747,-160.7298 476.2222,-154.9912 493.0591,-151.0098"/>
<polygon fill="#000000" stroke="#000000" points="493.8799,-154.4132 502.9046,-148.8628 492.3884,-147.5739 493.8799,-154.4132"/>
</g>
<!-- removeOffsets -->
<g id="node39" class="node">
<title>removeOffsets</title>
<polygon fill="none" stroke="#000000" points="618.9953,-214 520.659,-214 520.659,-178 618.9953,-178 618.9953,-214"/>
<text text-anchor="middle" x="569.8271" y="-191.8" font-family="Times,serif" font-size="14.00" fill="#000000">removeOffsets</text>
</g>
<!-- handleDeleteOffsets&#45;&gt;removeOffsets -->
<g id="edge45" class="edge">
<title>handleDeleteOffsets&#45;&gt;removeOffsets</title>
<path fill="none" stroke="#000000" d="M392.1072,-223.0847C428.7969,-217.4931 474.3081,-210.5572 510.0896,-205.1041"/>
<polygon fill="#000000" stroke="#000000" points="511.0251,-208.502 520.3836,-203.5352 509.9704,-201.5819 511.0251,-208.502"/>
</g>
<!-- handleHeartbeat -->
<g id="node40" class="node">
<title>handleHeartbeat</title>
<polygon fill="none" stroke="#000000" points="623.5521,-106 516.1022,-106 516.1022,-70 623.5521,-70 623.5521,-106"/>
<text text-anchor="middle" x="569.8271" y="-83.8" font-family="Times,serif" font-size="14.00" fill="#000000">handleHeartbeat</text>
</g>
<!-- handleHeartbeat&#45;&gt;completeAndScheduleNextHeartbeatExpiration -->
<g id="edge46" class="edge">
<title>handleHeartbeat&#45;&gt;completeAndScheduleNextHeartbeatExpiration</title>
<path fill="none" stroke="#000000" d="M623.7428,-88C651.1869,-88 686.073,-88 721.0009,-88"/>
<polygon fill="#000000" stroke="#000000" points="721.3385,-91.5001 731.3384,-88 721.3384,-84.5001 721.3385,-91.5001"/>
</g>
<!-- handleTxnCommitOffsets -->
<g id="node41" class="node">
<title>handleTxnCommitOffsets</title>
<polygon fill="none" stroke="#000000" points="408.0005,-197 246.0923,-197 246.0923,-161 408.0005,-161 408.0005,-197"/>
<text text-anchor="middle" x="327.0464" y="-174.8" font-family="Times,serif" font-size="14.00" fill="#000000">handleTxnCommitOffsets</text>
</g>
<!-- handleTxnCommitOffsets&#45;&gt;gm_getGroup -->
<g id="edge47" class="edge">
<title>handleTxnCommitOffsets&#45;&gt;gm_getGroup</title>
<path fill="none" stroke="#000000" d="M399.3527,-197.2416C402.5811,-199.7935 405.5119,-202.697 408.0234,-206 502.5689,-330.3429 344.1157,-787.9231 444.0234,-908 460.6213,-927.9487 487.8743,-935.9996 512.7783,-938.8298"/>
<polygon fill="#000000" stroke="#000000" points="512.6361,-942.3307 522.9042,-939.7197 513.249,-935.3576 512.6361,-942.3307"/>
</g>
<!-- doCommitOffsets -->
<g id="node42" class="node">
<title>doCommitOffsets</title>
<polygon fill="none" stroke="#000000" points="627.9121,-52 511.7422,-52 511.7422,-16 627.9121,-16 627.9121,-52"/>
<text text-anchor="middle" x="569.8271" y="-29.8" font-family="Times,serif" font-size="14.00" fill="#000000">doCommitOffsets</text>
</g>
<!-- handleTxnCommitOffsets&#45;&gt;doCommitOffsets -->
<g id="edge48" class="edge">
<title>handleTxnCommitOffsets&#45;&gt;doCommitOffsets</title>
<path fill="none" stroke="#000000" d="M396.2487,-160.8833C400.4903,-158.3057 404.4718,-155.3619 408.0234,-152 439.6107,-122.1002 410.8343,-89.1111 444.0234,-61 460.0636,-47.414 481.31,-40.1678 501.7677,-36.4363"/>
<polygon fill="#000000" stroke="#000000" points="502.3845,-39.8824 511.721,-34.8744 501.2993,-32.967 502.3845,-39.8824"/>
</g>
<!-- doCommitOffsets&#45;&gt;completeAndScheduleNextHeartbeatExpiration -->
<g id="edge52" class="edge">
<title>doCommitOffsets&#45;&gt;completeAndScheduleNextHeartbeatExpiration</title>
<path fill="none" stroke="#000000" d="M627.992,-44.3478C665.92,-51.0955 716.644,-60.1195 762.1268,-68.2112"/>
<polygon fill="#000000" stroke="#000000" points="761.5885,-71.6703 772.047,-69.976 762.8147,-64.7785 761.5885,-71.6703"/>
</g>
<!-- gm_storeOffsets -->
<g id="node45" class="node">
<title>gm_storeOffsets</title>
<polygon fill="none" stroke="#000000" points="927.6513,-52 819.0665,-52 819.0665,-16 927.6513,-16 927.6513,-52"/>
<text text-anchor="middle" x="873.3589" y="-29.8" font-family="Times,serif" font-size="14.00" fill="#000000">gm_storeOffsets</text>
</g>
<!-- doCommitOffsets&#45;&gt;gm_storeOffsets -->
<g id="edge53" class="edge">
<title>doCommitOffsets&#45;&gt;gm_storeOffsets</title>
<path fill="none" stroke="#000000" d="M627.992,-34C679.7415,-34 755.3121,-34 808.8894,-34"/>
<polygon fill="#000000" stroke="#000000" points="808.9622,-37.5001 818.9621,-34 808.9621,-30.5001 808.9622,-37.5001"/>
</g>
<!-- handleCommitOffsets -->
<g id="node43" class="node">
<title>handleCommitOffsets</title>
<polygon fill="none" stroke="#000000" points="396.9493,-143 257.1435,-143 257.1435,-107 396.9493,-107 396.9493,-143"/>
<text text-anchor="middle" x="327.0464" y="-120.8" font-family="Times,serif" font-size="14.00" fill="#000000">handleCommitOffsets</text>
</g>
<!-- handleCommitOffsets&#45;&gt;gm_getGroup -->
<g id="edge49" class="edge">
<title>handleCommitOffsets&#45;&gt;gm_getGroup</title>
<path fill="none" stroke="#000000" d="M396.8944,-141.3801C401.1025,-144.3568 404.8916,-147.8655 408.0234,-152 458.8009,-219.0347 390.3549,-843.2568 444.0234,-908 460.5849,-927.979 487.8342,-936.0329 512.7454,-938.8571"/>
<polygon fill="#000000" stroke="#000000" points="512.6075,-942.3584 522.8747,-939.7442 513.2182,-935.3851 512.6075,-942.3584"/>
</g>
<!-- handleCommitOffsets&#45;&gt;doCommitOffsets -->
<g id="edge50" class="edge">
<title>handleCommitOffsets&#45;&gt;doCommitOffsets</title>
<path fill="none" stroke="#000000" d="M354.7922,-106.815C377.8314,-92.4663 411.9108,-72.9416 444.0234,-61 462.2149,-54.2352 482.5493,-48.9522 501.4766,-44.9244"/>
<polygon fill="#000000" stroke="#000000" points="502.427,-48.3027 511.5247,-42.873 501.0267,-41.4441 502.427,-48.3027"/>
</g>
<!-- scheduleHandleTxnCompletion -->
<g id="node44" class="node">
<title>scheduleHandleTxnCompletion</title>
<polygon fill="none" stroke="#000000" points="210.104,-478 15.9653,-478 15.9653,-442 210.104,-442 210.104,-478"/>
<text text-anchor="middle" x="113.0347" y="-455.8" font-family="Times,serif" font-size="14.00" fill="#000000">scheduleHandleTxnCompletion</text>
</g>
<!-- scheduleHandleTxnCompletion&#45;&gt;scheduleHandleTxnCompletion -->
<g id="edge51" class="edge">
<title>scheduleHandleTxnCompletion&#45;&gt;scheduleHandleTxnCompletion</title>
<path fill="none" stroke="#000000" d="M74.3203,-478.1527C68.3643,-487.5391 81.269,-496 113.0347,-496 132.3918,-496 144.7453,-492.8581 150.095,-488.2796"/>
<polygon fill="#000000" stroke="#000000" points="153.5912,-488.5862 151.749,-478.1527 146.6827,-487.4577 153.5912,-488.5862"/>
</g>
<!-- handleFetchOffsets -->
<g id="node46" class="node">
<title>handleFetchOffsets</title>
<polygon fill="none" stroke="#000000" points="175.1447,-52 50.9247,-52 50.9247,-16 175.1447,-16 175.1447,-52"/>
<text text-anchor="middle" x="113.0347" y="-29.8" font-family="Times,serif" font-size="14.00" fill="#000000">handleFetchOffsets</text>
</g>
<!-- gm_getOffsets -->
<g id="node47" class="node">
<title>gm_getOffsets</title>
<polygon fill="none" stroke="#000000" points="376.2282,-52 277.8646,-52 277.8646,-16 376.2282,-16 376.2282,-52"/>
<text text-anchor="middle" x="327.0464" y="-29.8" font-family="Times,serif" font-size="14.00" fill="#000000">gm_getOffsets</text>
</g>
<!-- handleFetchOffsets&#45;&gt;gm_getOffsets -->
<g id="edge54" class="edge">
<title>handleFetchOffsets&#45;&gt;gm_getOffsets</title>
<path fill="none" stroke="#000000" d="M175.2232,-34C204.2407,-34 238.625,-34 267.3274,-34"/>
<polygon fill="#000000" stroke="#000000" points="267.6245,-37.5001 277.6244,-34 267.6244,-30.5001 267.6245,-37.5001"/>
</g>
<!-- startup -->
<g id="node48" class="node">
<title>startup</title>
<polygon fill="none" stroke="#000000" points="140.1383,-1144 85.9311,-1144 85.9311,-1108 140.1383,-1108 140.1383,-1144"/>
<text text-anchor="middle" x="113.0347" y="-1121.8" font-family="Times,serif" font-size="14.00" fill="#000000">startup</text>
</g>
<!-- groupManager_startup -->
<g id="node49" class="node">
<title>groupManager_startup</title>
<polygon fill="none" stroke="#000000" points="398.5648,-1144 255.528,-1144 255.528,-1108 398.5648,-1108 398.5648,-1144"/>
<text text-anchor="middle" x="327.0464" y="-1121.8" font-family="Times,serif" font-size="14.00" fill="#000000">groupManager_startup</text>
</g>
<!-- startup&#45;&gt;groupManager_startup -->
<g id="edge55" class="edge">
<title>startup&#45;&gt;groupManager_startup</title>
<path fill="none" stroke="#000000" d="M140.1394,-1126C166.4587,-1126 207.7612,-1126 244.8538,-1126"/>
<polygon fill="#000000" stroke="#000000" points="245.1883,-1129.5001 255.1882,-1126 245.1882,-1122.5001 245.1883,-1129.5001"/>
</g>
</g>
</svg>
