<?xml version="1.0" encoding="UTF-8" standalone="no"?>
<!DOCTYPE svg PUBLIC "-//W3C//DTD SVG 1.1//EN"
 "http://www.w3.org/Graphics/SVG/1.1/DTD/svg11.dtd">
<!-- Generated by graphviz version 2.40.1 (20161225.0304)
 -->
<!-- Title: log_read_write Pages: 1 -->
<svg width="1928pt" height="1168pt"
 viewBox="0.00 0.00 1928.00 1168.00" xmlns="http://www.w3.org/2000/svg" xmlns:xlink="http://www.w3.org/1999/xlink">
<g id="graph0" class="graph" transform="scale(1 1) rotate(0) translate(4 1164)">
<title>log_read_write</title>
<polygon fill="#ffffff" stroke="transparent" points="-4,4 -4,-1164 1924,-1164 1924,4 -4,4"/>
<g id="clust1" class="cluster">
<title>cluster_log</title>
<polygon fill="none" stroke="#000000" points="196,-8 196,-216 1370,-216 1370,-8 196,-8"/>
<text text-anchor="middle" x="783" y="-196" font-family="Times,serif" font-size="20.00" fill="#000000">log</text>
</g>
<g id="clust2" class="cluster">
<title>cluster_channel</title>
<polygon fill="none" stroke="#000000" points="1237,-530 1237,-666 1419,-666 1419,-530 1237,-530"/>
<text text-anchor="middle" x="1328" y="-646" font-family="Times,serif" font-size="20.00" fill="#000000">nio.files.FileChannel</text>
</g>
<g id="clust3" class="cluster">
<title>cluster_record</title>
<polygon fill="none" stroke="#000000" points="1465,-701 1465,-837 1912,-837 1912,-701 1465,-701"/>
<text text-anchor="middle" x="1688.5" y="-817" font-family="Times,serif" font-size="20.00" fill="#000000">record</text>
</g>
<g id="clust4" class="cluster">
<title>cluster_FileRecords</title>
<polygon fill="none" stroke="#000000" points="822.5,-674 822.5,-864 1379.5,-864 1379.5,-674 822.5,-674"/>
<text text-anchor="middle" x="1101" y="-844" font-family="Times,serif" font-size="20.00" fill="#000000">FileRecords</text>
</g>
<g id="clust5" class="cluster">
<title>cluster_TimeIndex</title>
<polygon fill="none" stroke="#000000" points="802.5,-1070 802.5,-1152 914.5,-1152 914.5,-1070 802.5,-1070"/>
<text text-anchor="middle" x="858.5" y="-1132" font-family="Times,serif" font-size="20.00" fill="#000000">TimeIndex</text>
</g>
<g id="clust7" class="cluster">
<title>cluster_OffsetIndex</title>
<polygon fill="none" stroke="#000000" points="821,-872 821,-1062 1728.5,-1062 1728.5,-872 821,-872"/>
<text text-anchor="middle" x="1274.75" y="-1042" font-family="Times,serif" font-size="20.00" fill="#000000">OffsetIndex</text>
</g>
<g id="clust10" class="cluster">
<title>cluster_Segment</title>
<polygon fill="none" stroke="#000000" points="628.5,-224 628.5,-522 1379,-522 1379,-224 628.5,-224"/>
<text text-anchor="middle" x="1003.75" y="-502" font-family="Times,serif" font-size="20.00" fill="#000000">LogSegment</text>
</g>
<g id="clust22" class="cluster">
<title>cluster_partition</title>
<polygon fill="none" stroke="#000000" points="8,-56 8,-192 176,-192 176,-56 8,-56"/>
<text text-anchor="middle" x="92" y="-172" font-family="Times,serif" font-size="20.00" fill="#000000">partition</text>
</g>
<!-- channel_write -->
<g id="node1" class="node">
<title>channel_write</title>
<polygon fill="none" stroke="#000000" points="1355,-628 1301,-628 1301,-592 1355,-592 1355,-628"/>
<text text-anchor="middle" x="1328" y="-606.3" font-family="Times,serif" font-size="14.00" fill="#000000">write</text>
</g>
<!-- channel_force -->
<g id="node2" class="node">
<title>channel_force</title>
<polygon fill="none" stroke="#000000" points="1355,-574 1301,-574 1301,-538 1355,-538 1355,-574"/>
<text text-anchor="middle" x="1328" y="-552.3" font-family="Times,serif" font-size="14.00" fill="#000000">force</text>
</g>
<!-- batchIterator -->
<g id="node3" class="node">
<title>batchIterator</title>
<polygon fill="none" stroke="#000000" points="1559,-772 1473,-772 1473,-736 1559,-736 1559,-772"/>
<text text-anchor="middle" x="1516" y="-750.3" font-family="Times,serif" font-size="14.00" fill="#000000">batchIterator</text>
</g>
<!-- FileLogInputStream -->
<g id="node4" class="node">
<title>FileLogInputStream</title>
<polygon fill="none" stroke="#000000" points="1740,-745 1613,-745 1613,-709 1740,-709 1740,-745"/>
<text text-anchor="middle" x="1676.5" y="-723.3" font-family="Times,serif" font-size="14.00" fill="#000000">FileLogInputStream</text>
</g>
<!-- batchIterator&#45;&gt;FileLogInputStream -->
<g id="edge1" class="edge">
<title>batchIterator&#45;&gt;FileLogInputStream</title>
<path fill="none" stroke="#000000" d="M1559.0111,-746.7645C1572.4403,-744.5054 1587.6572,-741.9455 1602.5803,-739.4351"/>
<polygon fill="#000000" stroke="#000000" points="1603.5584,-742.8198 1612.8392,-737.7093 1602.3971,-735.9168 1603.5584,-742.8198"/>
</g>
<!-- RecordBatchIterator -->
<g id="node6" class="node">
<title>RecordBatchIterator</title>
<polygon fill="none" stroke="#000000" points="1740,-799 1613,-799 1613,-763 1740,-763 1740,-799"/>
<text text-anchor="middle" x="1676.5" y="-777.3" font-family="Times,serif" font-size="14.00" fill="#000000">RecordBatchIterator</text>
</g>
<!-- batchIterator&#45;&gt;RecordBatchIterator -->
<g id="edge3" class="edge">
<title>batchIterator&#45;&gt;RecordBatchIterator</title>
<path fill="none" stroke="#000000" d="M1559.0111,-761.2355C1572.4403,-763.4946 1587.6572,-766.0545 1602.5803,-768.5649"/>
<polygon fill="#000000" stroke="#000000" points="1602.3971,-772.0832 1612.8392,-770.2907 1603.5584,-765.1802 1602.3971,-772.0832"/>
</g>
<!-- DefaultRecordBatch -->
<g id="node5" class="node">
<title>DefaultRecordBatch</title>
<polygon fill="none" stroke="#000000" points="1904,-745 1776,-745 1776,-709 1904,-709 1904,-745"/>
<text text-anchor="middle" x="1840" y="-723.3" font-family="Times,serif" font-size="14.00" fill="#000000">DefaultRecordBatch</text>
</g>
<!-- FileLogInputStream&#45;&gt;DefaultRecordBatch -->
<g id="edge2" class="edge">
<title>FileLogInputStream&#45;&gt;DefaultRecordBatch</title>
<path fill="none" stroke="#000000" d="M1740.1815,-727C1748.624,-727 1757.3371,-727 1765.9357,-727"/>
<polygon fill="#000000" stroke="#000000" points="1765.9542,-730.5001 1775.9541,-727 1765.9541,-723.5001 1765.9542,-730.5001"/>
</g>
<!-- FileRecords_append -->
<g id="node7" class="node">
<title>FileRecords_append</title>
<polygon fill="none" stroke="#000000" points="886.5,-812 830.5,-812 830.5,-776 886.5,-776 886.5,-812"/>
<text text-anchor="middle" x="858.5" y="-790.3" font-family="Times,serif" font-size="14.00" fill="#000000">append</text>
</g>
<!-- MemoryRecords_writeFullyTo -->
<g id="node10" class="node">
<title>MemoryRecords_writeFullyTo</title>
<polygon fill="none" stroke="#000000" points="1201,-826 1014,-826 1014,-790 1201,-790 1201,-826"/>
<text text-anchor="middle" x="1107.5" y="-804.3" font-family="Times,serif" font-size="14.00" fill="#000000">MemoryRecords_writeFullyTo</text>
</g>
<!-- FileRecords_append&#45;&gt;MemoryRecords_writeFullyTo -->
<g id="edge4" class="edge">
<title>FileRecords_append&#45;&gt;MemoryRecords_writeFullyTo</title>
<path fill="none" stroke="#000000" d="M886.5794,-795.5788C915.1332,-797.1842 961.1217,-799.7699 1003.7655,-802.1675"/>
<polygon fill="#000000" stroke="#000000" points="1003.7657,-805.673 1013.9465,-802.74 1004.1587,-798.684 1003.7657,-805.673"/>
</g>
<!-- FileRecords_slice -->
<g id="node8" class="node">
<title>FileRecords_slice</title>
<polygon fill="none" stroke="#000000" points="885.5,-745 831.5,-745 831.5,-709 885.5,-709 885.5,-745"/>
<text text-anchor="middle" x="858.5" y="-723.3" font-family="Times,serif" font-size="14.00" fill="#000000">slice</text>
</g>
<!-- new_FileRecords -->
<g id="node11" class="node">
<title>new_FileRecords</title>
<polygon fill="none" stroke="#000000" points="1163,-772 1052,-772 1052,-736 1163,-736 1163,-772"/>
<text text-anchor="middle" x="1107.5" y="-750.3" font-family="Times,serif" font-size="14.00" fill="#000000">new_FileRecords</text>
</g>
<!-- FileRecords_slice&#45;&gt;new_FileRecords -->
<g id="edge6" class="edge">
<title>FileRecords_slice&#45;&gt;new_FileRecords</title>
<path fill="none" stroke="#000000" d="M885.6214,-729.9409C922.8442,-733.9771 990.9422,-741.3612 1041.9156,-746.8884"/>
<polygon fill="#000000" stroke="#000000" points="1041.5487,-750.3691 1051.8678,-747.9676 1042.3034,-743.4099 1041.5487,-750.3691"/>
</g>
<!-- fileRecords_flush -->
<g id="node9" class="node">
<title>fileRecords_flush</title>
<polygon fill="none" stroke="#000000" points="1134.5,-718 1080.5,-718 1080.5,-682 1134.5,-682 1134.5,-718"/>
<text text-anchor="middle" x="1107.5" y="-696.3" font-family="Times,serif" font-size="14.00" fill="#000000">flush</text>
</g>
<!-- fileRecords_flush&#45;&gt;channel_force -->
<g id="edge36" class="edge">
<title>fileRecords_flush&#45;&gt;channel_force</title>
<path fill="none" stroke="#000000" d="M1122.764,-681.8191C1145.2371,-656.1746 1189.7075,-609.5517 1237,-583 1253.5407,-573.7135 1273.605,-567.3194 1290.6799,-563.0941"/>
<polygon fill="#000000" stroke="#000000" points="1291.9133,-566.4012 1300.8669,-560.737 1290.3353,-559.5814 1291.9133,-566.4012"/>
</g>
<!-- MemoryRecords_writeFullyTo&#45;&gt;channel_write -->
<g id="edge5" class="edge">
<title>MemoryRecords_writeFullyTo&#45;&gt;channel_write</title>
<path fill="none" stroke="#000000" d="M1189.368,-789.9996C1193.5567,-787.3902 1197.4795,-784.4079 1201,-781 1238.2638,-744.928 1205.5821,-711.2637 1237,-670 1251.2848,-651.2386 1273.2239,-636.5258 1291.9812,-626.3654"/>
<polygon fill="#000000" stroke="#000000" points="1293.6216,-629.4574 1300.8863,-621.7454 1290.3979,-623.2438 1293.6216,-629.4574"/>
</g>
<!-- batchesFrom -->
<g id="node12" class="node">
<title>batchesFrom</title>
<polygon fill="none" stroke="#000000" points="1371.5,-772 1284.5,-772 1284.5,-736 1371.5,-736 1371.5,-772"/>
<text text-anchor="middle" x="1328" y="-750.3" font-family="Times,serif" font-size="14.00" fill="#000000">batchesFrom</text>
</g>
<!-- new_FileRecords&#45;&gt;batchesFrom -->
<g id="edge7" class="edge">
<title>new_FileRecords&#45;&gt;batchesFrom</title>
<path fill="none" stroke="#000000" d="M1163.1415,-754C1197.1337,-754 1240.3917,-754 1274.0668,-754"/>
<polygon fill="#000000" stroke="#000000" points="1274.1892,-757.5001 1284.1892,-754 1274.1891,-750.5001 1274.1892,-757.5001"/>
</g>
<!-- batchesFrom&#45;&gt;batchIterator -->
<g id="edge8" class="edge">
<title>batchesFrom&#45;&gt;batchIterator</title>
<path fill="none" stroke="#000000" d="M1371.6035,-754C1398.7501,-754 1433.8581,-754 1462.6586,-754"/>
<polygon fill="#000000" stroke="#000000" points="1462.9575,-757.5001 1472.9574,-754 1462.9574,-750.5001 1462.9575,-757.5001"/>
</g>
<!-- timeIndex_maybeAppend -->
<g id="node13" class="node">
<title>timeIndex_maybeAppend</title>
<polygon fill="none" stroke="#000000" points="906.5,-1114 810.5,-1114 810.5,-1078 906.5,-1078 906.5,-1114"/>
<text text-anchor="middle" x="858.5" y="-1092.3" font-family="Times,serif" font-size="14.00" fill="#000000">maybeAppend</text>
</g>
<!-- mmap -->
<g id="node14" class="node">
<title>mmap</title>
<polygon fill="none" stroke="#000000" points="1134.5,-1110 1080.5,-1110 1080.5,-1074 1134.5,-1074 1134.5,-1110"/>
<text text-anchor="middle" x="1107.5" y="-1088.3" font-family="Times,serif" font-size="14.00" fill="#000000">mmap</text>
</g>
<!-- timeIndex_maybeAppend&#45;&gt;mmap -->
<g id="edge9" class="edge">
<title>timeIndex_maybeAppend&#45;&gt;mmap</title>
<path fill="none" stroke="#000000" d="M906.5097,-1095.2288C954.2934,-1094.4611 1026.6207,-1093.2993 1070.2354,-1092.5986"/>
<polygon fill="#000000" stroke="#000000" points="1070.4659,-1096.0955 1080.4084,-1092.4352 1070.3534,-1089.0964 1070.4659,-1096.0955"/>
</g>
<!-- offsetIndex_append -->
<g id="node15" class="node">
<title>offsetIndex_append</title>
<polygon fill="none" stroke="#000000" points="888,-970 829,-970 829,-934 888,-934 888,-970"/>
<text text-anchor="middle" x="858.5" y="-948.3" font-family="Times,serif" font-size="14.00" fill="#000000">Append</text>
</g>
<!-- offsetIndex_append&#45;&gt;mmap -->
<g id="edge10" class="edge">
<title>offsetIndex_append&#45;&gt;mmap</title>
<path fill="none" stroke="#000000" d="M878.082,-970.0537C906.158,-995.0298 960.3974,-1039.9802 1014,-1066 1031.7386,-1074.6107 1052.7992,-1080.7823 1070.4372,-1084.9453"/>
<polygon fill="#000000" stroke="#000000" points="1069.853,-1088.401 1080.3758,-1087.1676 1071.3806,-1081.5697 1069.853,-1088.401"/>
</g>
<!-- offsetIndex_lookup -->
<g id="node16" class="node">
<title>offsetIndex_lookup</title>
<polygon fill="none" stroke="#000000" points="1134.5,-970 1080.5,-970 1080.5,-934 1134.5,-934 1134.5,-970"/>
<text text-anchor="middle" x="1107.5" y="-948.3" font-family="Times,serif" font-size="14.00" fill="#000000">lookup</text>
</g>
<!-- largestLowerBoundSlotFor -->
<g id="node17" class="node">
<title>largestLowerBoundSlotFor</title>
<polygon fill="none" stroke="#000000" points="1410,-970 1246,-970 1246,-934 1410,-934 1410,-970"/>
<text text-anchor="middle" x="1328" y="-948.3" font-family="Times,serif" font-size="14.00" fill="#000000">largestLowerBoundSlotFor</text>
</g>
<!-- offsetIndex_lookup&#45;&gt;largestLowerBoundSlotFor -->
<g id="edge11" class="edge">
<title>offsetIndex_lookup&#45;&gt;largestLowerBoundSlotFor</title>
<path fill="none" stroke="#000000" d="M1134.5376,-952C1159.7657,-952 1198.8915,-952 1235.3742,-952"/>
<polygon fill="#000000" stroke="#000000" points="1235.5804,-955.5001 1245.5804,-952 1235.5803,-948.5001 1235.5804,-955.5001"/>
</g>
<!-- parseEntry -->
<g id="node18" class="node">
<title>parseEntry</title>
<polygon fill="none" stroke="#000000" points="1365.5,-1024 1290.5,-1024 1290.5,-988 1365.5,-988 1365.5,-1024"/>
<text text-anchor="middle" x="1328" y="-1002.3" font-family="Times,serif" font-size="14.00" fill="#000000">parseEntry</text>
</g>
<!-- offsetIndex_lookup&#45;&gt;parseEntry -->
<g id="edge12" class="edge">
<title>offsetIndex_lookup&#45;&gt;parseEntry</title>
<path fill="none" stroke="#000000" d="M1134.5376,-958.6215C1170.8883,-967.5237 1236.0928,-983.4921 1280.6692,-994.4088"/>
<polygon fill="#000000" stroke="#000000" points="1279.8622,-997.8145 1290.4078,-996.7937 1281.5274,-991.0154 1279.8622,-997.8145"/>
</g>
<!-- indexSlotRangeFor -->
<g id="node19" class="node">
<title>indexSlotRangeFor</title>
<polygon fill="none" stroke="#000000" points="1577,-970 1455,-970 1455,-934 1577,-934 1577,-970"/>
<text text-anchor="middle" x="1516" y="-948.3" font-family="Times,serif" font-size="14.00" fill="#000000">indexSlotRangeFor</text>
</g>
<!-- largestLowerBoundSlotFor&#45;&gt;indexSlotRangeFor -->
<g id="edge13" class="edge">
<title>largestLowerBoundSlotFor&#45;&gt;indexSlotRangeFor</title>
<path fill="none" stroke="#000000" d="M1410.186,-952C1421.6844,-952 1433.4224,-952 1444.6971,-952"/>
<polygon fill="#000000" stroke="#000000" points="1444.9009,-955.5001 1454.9009,-952 1444.9009,-948.5001 1444.9009,-955.5001"/>
</g>
<!-- binarySearch -->
<g id="node20" class="node">
<title>binarySearch</title>
<polygon fill="none" stroke="#000000" points="1720.5,-970 1632.5,-970 1632.5,-934 1720.5,-934 1720.5,-970"/>
<text text-anchor="middle" x="1676.5" y="-948.3" font-family="Times,serif" font-size="14.00" fill="#000000">binarySearch</text>
</g>
<!-- indexSlotRangeFor&#45;&gt;binarySearch -->
<g id="edge14" class="edge">
<title>indexSlotRangeFor&#45;&gt;binarySearch</title>
<path fill="none" stroke="#000000" d="M1577.136,-952C1591.9635,-952 1607.7153,-952 1622.2026,-952"/>
<polygon fill="#000000" stroke="#000000" points="1622.4968,-955.5001 1632.4968,-952 1622.4967,-948.5001 1622.4968,-955.5001"/>
</g>
<!-- searchForOffsetWithSize -->
<g id="node21" class="node">
<title>searchForOffsetWithSize</title>
<polygon fill="none" stroke="#000000" points="1185,-916 1030,-916 1030,-880 1185,-880 1185,-916"/>
<text text-anchor="middle" x="1107.5" y="-894.3" font-family="Times,serif" font-size="14.00" fill="#000000">searchForOffsetWithSize</text>
</g>
<!-- searchForOffsetWithSize&#45;&gt;batchesFrom -->
<g id="edge15" class="edge">
<title>searchForOffsetWithSize&#45;&gt;batchesFrom</title>
<path fill="none" stroke="#000000" d="M1175.8538,-879.8088C1184.5641,-876.4182 1193.1635,-872.4973 1201,-868 1242.2205,-844.3443 1281.6462,-805.5756 1305.3426,-779.9207"/>
<polygon fill="#000000" stroke="#000000" points="1308.0345,-782.1628 1312.1763,-772.411 1302.8572,-777.4515 1308.0345,-782.1628"/>
</g>
<!-- LogOffsetPosition -->
<g id="node22" class="node">
<title>LogOffsetPosition</title>
<polygon fill="none" stroke="#000000" points="1386,-916 1270,-916 1270,-880 1386,-880 1386,-916"/>
<text text-anchor="middle" x="1328" y="-894.3" font-family="Times,serif" font-size="14.00" fill="#000000">LogOffsetPosition</text>
</g>
<!-- searchForOffsetWithSize&#45;&gt;LogOffsetPosition -->
<g id="edge16" class="edge">
<title>searchForOffsetWithSize&#45;&gt;LogOffsetPosition</title>
<path fill="none" stroke="#000000" d="M1185.2401,-898C1209.4338,-898 1235.9213,-898 1259.4404,-898"/>
<polygon fill="#000000" stroke="#000000" points="1259.6696,-901.5001 1269.6695,-898 1259.6695,-894.5001 1259.6696,-901.5001"/>
</g>
<!-- segment_append -->
<g id="node23" class="node">
<title>segment_append</title>
<polygon fill="none" stroke="#000000" points="636.5,-447 636.5,-483 692.5,-483 692.5,-447 636.5,-447"/>
<text text-anchor="middle" x="664.5" y="-461.3" font-family="Times,serif" font-size="14.00" fill="#000000">append</text>
</g>
<!-- segment_append&#45;&gt;FileRecords_append -->
<g id="edge17" class="edge">
<title>segment_append&#45;&gt;FileRecords_append</title>
<path fill="none" stroke="#000000" d="M666.9158,-483.3047C674.7889,-540.369 701.3843,-713.6257 739,-754 759.9337,-776.4689 793.8379,-786.3237 820.1954,-790.6421"/>
<polygon fill="#000000" stroke="#000000" points="819.8488,-794.1282 830.2449,-792.0858 820.8442,-787.1993 819.8488,-794.1282"/>
</g>
<!-- segment_append&#45;&gt;timeIndex_maybeAppend -->
<g id="edge18" class="edge">
<title>segment_append&#45;&gt;timeIndex_maybeAppend</title>
<path fill="none" stroke="#000000" d="M665.5354,-483.0704C671.1597,-578.4896 699.2565,-1021.0574 739,-1066 754.2986,-1083.2999 777.9478,-1091.3436 800.183,-1094.8616"/>
<polygon fill="#000000" stroke="#000000" points="799.8959,-1098.3537 810.2646,-1096.1764 800.8013,-1091.4125 799.8959,-1098.3537"/>
</g>
<!-- segment_append&#45;&gt;offsetIndex_append -->
<g id="edge19" class="edge">
<title>segment_append&#45;&gt;offsetIndex_append</title>
<path fill="none" stroke="#000000" d="M666.0399,-483.2329C672.205,-552.9842 696.8314,-802.2768 739,-868 758.355,-898.1664 792.763,-920.6273 819.703,-934.696"/>
<polygon fill="#000000" stroke="#000000" points="818.3782,-937.9476 828.8837,-939.3212 821.5277,-931.6962 818.3782,-937.9476"/>
</g>
<!-- segment_read -->
<g id="node24" class="node">
<title>segment_read</title>
<polygon fill="none" stroke="#000000" points="691.5,-428 637.5,-428 637.5,-392 691.5,-392 691.5,-428"/>
<text text-anchor="middle" x="664.5" y="-406.3" font-family="Times,serif" font-size="14.00" fill="#000000">read</text>
</g>
<!-- segment_read&#45;&gt;FileRecords_slice -->
<g id="edge20" class="edge">
<title>segment_read&#45;&gt;FileRecords_slice</title>
<path fill="none" stroke="#000000" d="M691.8706,-426.9224C695.9485,-430.247 699.8374,-433.9682 703,-438 729.0805,-471.2488 720.1509,-488.1795 739,-526 771.2719,-590.7533 816.5237,-662.7593 841.0441,-700.5396"/>
<polygon fill="#000000" stroke="#000000" points="838.1307,-702.4796 846.5244,-708.9447 843.9945,-698.6564 838.1307,-702.4796"/>
</g>
<!-- translateOffset -->
<g id="node25" class="node">
<title>translateOffset</title>
<polygon fill="none" stroke="#000000" points="764,-422.5 764,-483.5 953,-483.5 953,-422.5 764,-422.5"/>
<text text-anchor="middle" x="858.5" y="-468.3" font-family="Times,serif" font-size="14.00" fill="#000000">translateOffset</text>
<polyline fill="none" stroke="#000000" points="764,-460.5 953,-460.5 "/>
<text text-anchor="start" x="772" y="-445.3" font-family="Times,serif" font-size="14.00" fill="#000000">根据index文件，查找消息Ｎ</text>
<text text-anchor="start" x="772" y="-430.3" font-family="Times,serif" font-size="14.00" fill="#000000"> 在segment文件中的offset</text>
</g>
<!-- segment_read&#45;&gt;translateOffset -->
<g id="edge21" class="edge">
<title>segment_read&#45;&gt;translateOffset</title>
<path fill="none" stroke="#000000" d="M691.884,-416.0696C708.517,-419.7563 730.922,-424.7224 753.8993,-429.8153"/>
<polygon fill="#000000" stroke="#000000" points="753.2461,-433.2554 763.7666,-432.0024 754.761,-426.4213 753.2461,-433.2554"/>
</g>
<!-- translateOffset&#45;&gt;offsetIndex_lookup -->
<g id="edge22" class="edge">
<title>translateOffset&#45;&gt;offsetIndex_lookup</title>
<path fill="none" stroke="#000000" d="M880.1423,-483.678C907.631,-524.2716 954.3309,-599.0072 978,-670 1014.2012,-778.5814 938.9632,-838.5713 1014,-925 1027.8961,-941.0058 1050.6267,-947.8083 1070.1958,-950.584"/>
<polygon fill="#000000" stroke="#000000" points="1070.0443,-954.0887 1080.371,-951.7203 1070.8213,-947.1319 1070.0443,-954.0887"/>
</g>
<!-- translateOffset&#45;&gt;searchForOffsetWithSize -->
<g id="edge23" class="edge">
<title>translateOffset&#45;&gt;searchForOffsetWithSize</title>
<path fill="none" stroke="#000000" d="M879.711,-483.8266C906.7334,-524.5808 952.9298,-599.4897 978,-670 1007.964,-754.2743 955.0171,-800.7615 1014,-868 1016.2484,-870.5631 1018.7162,-872.9089 1021.3554,-875.0555"/>
<polygon fill="#000000" stroke="#000000" points="1019.5378,-878.0553 1029.7389,-880.9167 1023.5487,-872.3184 1019.5378,-878.0553"/>
</g>
<!-- shouldRoll -->
<g id="node26" class="node">
<title>shouldRoll</title>
<polygon fill="none" stroke="#000000" points="770.5,-232.5 770.5,-293.5 946.5,-293.5 946.5,-232.5 770.5,-232.5"/>
<text text-anchor="middle" x="858.5" y="-278.3" font-family="Times,serif" font-size="14.00" fill="#000000">shouldRoll</text>
<polyline fill="none" stroke="#000000" points="770.5,-270.5 946.5,-270.5 "/>
<text text-anchor="start" x="778.5" y="-255.3" font-family="Times,serif" font-size="14.00" fill="#000000">根据segment大小时间限制</text>
<text text-anchor="start" x="778.5" y="-240.3" font-family="Times,serif" font-size="14.00" fill="#000000"> 来判断是否要roll</text>
</g>
<!-- maxSegmentBytes -->
<g id="node27" class="node">
<title>maxSegmentBytes</title>
<polygon fill="none" stroke="#000000" points="1167,-268 1048,-268 1048,-232 1167,-232 1167,-268"/>
<text text-anchor="middle" x="1107.5" y="-246.3" font-family="Times,serif" font-size="14.00" fill="#000000">maxSegmentBytes</text>
</g>
<!-- shouldRoll&#45;&gt;maxSegmentBytes -->
<g id="edge24" class="edge">
<title>shouldRoll&#45;&gt;maxSegmentBytes</title>
<path fill="none" stroke="#000000" d="M946.6385,-258.3984C976.5424,-256.8371 1009.5143,-255.1157 1037.7805,-253.64"/>
<polygon fill="#000000" stroke="#000000" points="1038.1632,-257.1249 1047.9671,-253.1081 1037.7982,-250.1344 1038.1632,-257.1249"/>
</g>
<!-- timeWaitedForRoll -->
<g id="node28" class="node">
<title>timeWaitedForRoll</title>
<polygon fill="none" stroke="#000000" points="1169,-322 1046,-322 1046,-286 1169,-286 1169,-322"/>
<text text-anchor="middle" x="1107.5" y="-300.3" font-family="Times,serif" font-size="14.00" fill="#000000">timeWaitedForRoll</text>
</g>
<!-- shouldRoll&#45;&gt;timeWaitedForRoll -->
<g id="edge25" class="edge">
<title>shouldRoll&#45;&gt;timeWaitedForRoll</title>
<path fill="none" stroke="#000000" d="M946.6385,-277.5128C975.7948,-282.3136 1007.8676,-287.5947 1035.6519,-292.1696"/>
<polygon fill="#000000" stroke="#000000" points="1035.245,-295.6496 1045.6808,-293.8209 1036.3823,-288.7426 1035.245,-295.6496"/>
</g>
<!-- segment_flush -->
<g id="node29" class="node">
<title>segment_flush</title>
<polygon fill="none" stroke="#000000" points="885.5,-404 831.5,-404 831.5,-368 885.5,-368 885.5,-404"/>
<text text-anchor="middle" x="858.5" y="-382.3" font-family="Times,serif" font-size="14.00" fill="#000000">flush</text>
</g>
<!-- segment_flush&#45;&gt;fileRecords_flush -->
<g id="edge35" class="edge">
<title>segment_flush&#45;&gt;fileRecords_flush</title>
<path fill="none" stroke="#000000" d="M885.7307,-384.838C912.5116,-385.1998 952.9218,-389.9956 978,-413 1016.8425,-448.6305 993.4376,-477.4669 1014,-526 1036.8674,-579.9733 1070.8817,-639.4432 1090.9628,-673.0074"/>
<polygon fill="#000000" stroke="#000000" points="1088.078,-675.0016 1096.2364,-681.7612 1094.074,-671.3894 1088.078,-675.0016"/>
</g>
<!-- offsetIndex_flush -->
<g id="node30" class="node">
<title>offsetIndex_flush</title>
<polygon fill="none" stroke="#000000" points="1163.5,-430 1051.5,-430 1051.5,-394 1163.5,-394 1163.5,-430"/>
<text text-anchor="middle" x="1107.5" y="-408.3" font-family="Times,serif" font-size="14.00" fill="#000000">offsetIndex_flush</text>
</g>
<!-- segment_flush&#45;&gt;offsetIndex_flush -->
<g id="edge26" class="edge">
<title>segment_flush&#45;&gt;offsetIndex_flush</title>
<path fill="none" stroke="#000000" d="M885.6214,-384.4304C922.726,-385.8785 990.5101,-392.4101 1041.4296,-399.0607"/>
<polygon fill="#000000" stroke="#000000" points="1040.9988,-402.5342 1051.3746,-400.391 1041.9269,-395.596 1040.9988,-402.5342"/>
</g>
<!-- segment_flush&#45;&gt;offsetIndex_flush -->
<g id="edge29" class="edge">
<title>segment_flush&#45;&gt;offsetIndex_flush</title>
<path fill="none" stroke="#000000" d="M885.6214,-393.2335C922.6487,-399.521 990.2278,-407.1265 1041.1112,-411.1165"/>
<polygon fill="#000000" stroke="#000000" points="1041.1403,-414.6285 1051.3746,-411.8881 1041.6651,-407.6482 1041.1403,-414.6285"/>
</g>
<!-- timeIndex_flush -->
<g id="node31" class="node">
<title>timeIndex_flush</title>
<polygon fill="none" stroke="#000000" points="1160.5,-484 1054.5,-484 1054.5,-448 1160.5,-448 1160.5,-484"/>
<text text-anchor="middle" x="1107.5" y="-462.3" font-family="Times,serif" font-size="14.00" fill="#000000">timeIndex_flush</text>
</g>
<!-- segment_flush&#45;&gt;timeIndex_flush -->
<g id="edge27" class="edge">
<title>segment_flush&#45;&gt;timeIndex_flush</title>
<path fill="none" stroke="#000000" d="M885.5926,-381.9581C910.4805,-383.4034 947.9495,-390.4413 978,-404 995.9901,-412.1171 996.2568,-421.3566 1014,-430 1026.1041,-435.8964 1039.7324,-440.7381 1052.7631,-444.8818"/>
<polygon fill="#000000" stroke="#000000" points="1051.9883,-448.3058 1062.5761,-447.9204 1054.0589,-441.619 1051.9883,-448.3058"/>
</g>
<!-- segment_flush&#45;&gt;timeIndex_flush -->
<g id="edge30" class="edge">
<title>segment_flush&#45;&gt;timeIndex_flush</title>
<path fill="none" stroke="#000000" d="M885.5926,-395.9628C910.4805,-401.4034 947.9495,-408.4413 978,-422 995.9901,-430.1171 996.2568,-439.3566 1014,-448 1023.554,-452.6541 1034.0575,-456.6511 1044.4672,-459.8994"/>
<polygon fill="#000000" stroke="#000000" points="1043.8054,-463.3519 1054.3849,-462.7815 1045.7588,-456.6299 1043.8054,-463.3519"/>
</g>
<!-- txnIndex_flush -->
<g id="node32" class="node">
<title>txnIndex_flush</title>
<polygon fill="none" stroke="#000000" points="1156.5,-376 1058.5,-376 1058.5,-340 1156.5,-340 1156.5,-376"/>
<text text-anchor="middle" x="1107.5" y="-354.3" font-family="Times,serif" font-size="14.00" fill="#000000">txnIndex_flush</text>
</g>
<!-- segment_flush&#45;&gt;txnIndex_flush -->
<g id="edge28" class="edge">
<title>segment_flush&#45;&gt;txnIndex_flush</title>
<path fill="none" stroke="#000000" d="M885.6214,-378.5486C924.3804,-371.6558 996.6156,-363.0499 1048.1357,-358.8247"/>
<polygon fill="#000000" stroke="#000000" points="1048.4517,-362.3108 1058.1475,-358.0399 1047.9046,-355.3322 1048.4517,-362.3108"/>
</g>
<!-- segment_flush&#45;&gt;txnIndex_flush -->
<g id="edge31" class="edge">
<title>segment_flush&#45;&gt;txnIndex_flush</title>
<path fill="none" stroke="#000000" d="M885.6214,-387.3518C924.3804,-385.5278 996.6156,-377.888 1048.1357,-370.5263"/>
<polygon fill="#000000" stroke="#000000" points="1048.7606,-373.9722 1058.1475,-369.0594 1047.7458,-367.0461 1048.7606,-373.9722"/>
</g>
<!-- mmap_force -->
<g id="node33" class="node">
<title>mmap_force</title>
<polygon fill="none" stroke="#000000" points="1371,-430 1285,-430 1285,-394 1371,-394 1371,-430"/>
<text text-anchor="middle" x="1328" y="-408.3" font-family="Times,serif" font-size="14.00" fill="#000000">mmap_force</text>
</g>
<!-- offsetIndex_flush&#45;&gt;mmap_force -->
<g id="edge32" class="edge">
<title>offsetIndex_flush&#45;&gt;mmap_force</title>
<path fill="none" stroke="#000000" d="M1163.712,-412C1197.8237,-412 1241.1047,-412 1274.679,-412"/>
<polygon fill="#000000" stroke="#000000" points="1274.7661,-415.5001 1284.7661,-412 1274.7661,-408.5001 1274.7661,-415.5001"/>
</g>
<!-- timeIndex_flush&#45;&gt;mmap_force -->
<g id="edge33" class="edge">
<title>timeIndex_flush&#45;&gt;mmap_force</title>
<path fill="none" stroke="#000000" d="M1160.5958,-452.9969C1195.2751,-444.5041 1240.3825,-433.4573 1275.0354,-424.9709"/>
<polygon fill="#000000" stroke="#000000" points="1276.0913,-428.3159 1284.9717,-422.5376 1274.4261,-421.5168 1276.0913,-428.3159"/>
</g>
<!-- txnIndex_flush&#45;&gt;mmap_force -->
<g id="edge34" class="edge">
<title>txnIndex_flush&#45;&gt;mmap_force</title>
<path fill="none" stroke="#000000" d="M1156.7101,-370.0514C1191.8637,-378.6605 1239.1075,-390.2304 1275.0748,-399.0387"/>
<polygon fill="#000000" stroke="#000000" points="1274.3554,-402.4659 1284.901,-401.4451 1276.0206,-395.6668 1274.3554,-402.4659"/>
</g>
<!-- localLog_read -->
<g id="node34" class="node">
<title>localLog_read</title>
<polygon fill="none" stroke="#000000" points="204,-34 204,-110 395,-110 395,-34 204,-34"/>
<text text-anchor="middle" x="299.5" y="-94.8" font-family="Times,serif" font-size="14.00" fill="#000000">read</text>
<polyline fill="none" stroke="#000000" points="204,-87 395,-87 "/>
<text text-anchor="start" x="212" y="-71.8" font-family="Times,serif" font-size="14.00" fill="#000000">根据startOffset,从segments</text>
<text text-anchor="start" x="212" y="-56.8" font-family="Times,serif" font-size="14.00" fill="#000000"> 中找到segment, 从该segment</text>
<text text-anchor="start" x="212" y="-41.8" font-family="Times,serif" font-size="14.00" fill="#000000"> 中读取消息</text>
</g>
<!-- localLog_read&#45;&gt;segment_read -->
<g id="edge48" class="edge">
<title>localLog_read&#45;&gt;segment_read</title>
<path fill="none" stroke="#000000" d="M383.4172,-110.1232C387.5135,-113.215 391.4092,-116.506 395,-120 419.2273,-143.5745 410.5228,-160.1039 431,-187 492.9516,-268.3712 585.1969,-347.0232 633.0909,-385.5027"/>
<polygon fill="#000000" stroke="#000000" points="630.9443,-388.2676 640.9433,-391.7704 635.3111,-382.7966 630.9443,-388.2676"/>
</g>
<!-- segments -->
<g id="node39" class="node">
<title>segments</title>
<polygon fill="#95e1d3" stroke="#000000" points="1362,-85 1298,-85 1294,-81 1294,-49 1358,-49 1362,-53 1362,-85"/>
<polyline fill="none" stroke="#000000" points="1358,-81 1294,-81 "/>
<polyline fill="none" stroke="#000000" points="1358,-81 1358,-49 "/>
<polyline fill="none" stroke="#000000" points="1358,-81 1362,-85 "/>
<text text-anchor="middle" x="1328" y="-63.3" font-family="Times,serif" font-size="14.00" fill="#000000">segments</text>
</g>
<!-- localLog_read&#45;&gt;segments -->
<g id="edge38" class="edge">
<title>localLog_read&#45;&gt;segments</title>
<path fill="none" stroke="#000000" d="M395.3525,-49.5501C468.6275,-34.342 572.3801,-17 664.5,-17 664.5,-17 664.5,-17 858.5,-17 1011.0651,-17 1049.8909,-18.9726 1201,-40 1228.7404,-43.8602 1259.47,-50.3336 1283.7525,-55.9742"/>
<polygon fill="#000000" stroke="#000000" points="1283.2004,-59.44 1293.737,-58.3305 1284.8083,-52.6271 1283.2004,-59.44"/>
</g>
<!-- roll -->
<g id="node35" class="node">
<title>roll</title>
<polygon fill="none" stroke="#000000" points="739,-36.5 739,-97.5 978,-97.5 978,-36.5 739,-36.5"/>
<text text-anchor="middle" x="858.5" y="-82.3" font-family="Times,serif" font-size="14.00" fill="#000000">roll</text>
<polyline fill="none" stroke="#000000" points="739,-74.5 978,-74.5 "/>
<text text-anchor="start" x="747" y="-59.3" font-family="Times,serif" font-size="14.00" fill="#000000">如果当前activeSegment达到最大限制</text>
<text text-anchor="start" x="747" y="-44.3" font-family="Times,serif" font-size="14.00" fill="#000000"> 新开一个segment</text>
</g>
<!-- addSegment -->
<g id="node42" class="node">
<title>addSegment</title>
<polygon fill="none" stroke="#000000" points="1149.5,-85 1065.5,-85 1065.5,-49 1149.5,-49 1149.5,-85"/>
<text text-anchor="middle" x="1107.5" y="-63.3" font-family="Times,serif" font-size="14.00" fill="#000000">addSegment</text>
</g>
<!-- roll&#45;&gt;addSegment -->
<g id="edge43" class="edge">
<title>roll&#45;&gt;addSegment</title>
<path fill="none" stroke="#000000" d="M978.2593,-67C1005.3778,-67 1032.7966,-67 1055.3593,-67"/>
<polygon fill="#000000" stroke="#000000" points="1055.3657,-70.5001 1065.3657,-67 1055.3656,-63.5001 1055.3657,-70.5001"/>
</g>
<!-- activeSegment -->
<g id="node36" class="node">
<title>activeSegment</title>
<polygon fill="#95e1d3" stroke="#000000" points="789,-116.5 789,-177.5 928,-177.5 928,-116.5 789,-116.5"/>
<text text-anchor="middle" x="858.5" y="-162.3" font-family="Times,serif" font-size="14.00" fill="#000000">activeSegment</text>
<polyline fill="none" stroke="#000000" points="789,-154.5 928,-154.5 "/>
<text text-anchor="start" x="797" y="-139.3" font-family="Times,serif" font-size="14.00" fill="#000000">activeSegment为</text>
<text text-anchor="start" x="797" y="-124.3" font-family="Times,serif" font-size="14.00" fill="#000000">segments中最后一个</text>
</g>
<!-- activeSegment&#45;&gt;segments -->
<g id="edge45" class="edge">
<title>activeSegment&#45;&gt;segments</title>
<path fill="none" stroke="#000000" d="M928.2255,-137.3767C997.5694,-127.5319 1106.902,-111.2691 1201,-94 1228.6446,-88.9266 1259.488,-82.3901 1283.856,-77.0194"/>
<polygon fill="#000000" stroke="#000000" points="1284.8703,-80.3795 1293.8748,-74.7967 1283.3541,-73.5457 1284.8703,-80.3795"/>
</g>
<!-- append -->
<g id="node37" class="node">
<title>append</title>
<polygon fill="none" stroke="#000000" points="431,-116.5 431,-177.5 590,-177.5 590,-116.5 431,-116.5"/>
<text text-anchor="middle" x="510.5" y="-162.3" font-family="Times,serif" font-size="14.00" fill="#000000">append</text>
<polyline fill="none" stroke="#000000" points="431,-154.5 590,-154.5 "/>
<text text-anchor="start" x="439" y="-139.3" font-family="Times,serif" font-size="14.00" fill="#000000">unflushedMessages超过</text>
<text text-anchor="start" x="439" y="-124.3" font-family="Times,serif" font-size="14.00" fill="#000000"> 了flushInterval调用flush</text>
</g>
<!-- append&#45;&gt;segment_append -->
<g id="edge47" class="edge">
<title>append&#45;&gt;segment_append</title>
<path fill="none" stroke="#000000" d="M516.7749,-177.7847C529.4576,-234.0615 562.4949,-355.2607 626,-437 626.919,-438.1829 627.9009,-439.3387 628.9322,-440.4653"/>
<polygon fill="#000000" stroke="#000000" points="626.6438,-443.1186 636.3111,-447.4538 631.4573,-438.0362 626.6438,-443.1186"/>
</g>
<!-- maybeRoll -->
<g id="node40" class="node">
<title>maybeRoll</title>
<polygon fill="none" stroke="#000000" points="703,-124 626,-124 626,-88 703,-88 703,-124"/>
<text text-anchor="middle" x="664.5" y="-102.3" font-family="Times,serif" font-size="14.00" fill="#000000">maybeRoll</text>
</g>
<!-- append&#45;&gt;maybeRoll -->
<g id="edge39" class="edge">
<title>append&#45;&gt;maybeRoll</title>
<path fill="none" stroke="#000000" d="M590.2065,-125.7794C598.9724,-123.4457 607.6914,-121.1244 615.9084,-118.9367"/>
<polygon fill="#000000" stroke="#000000" points="616.8888,-122.2977 625.6517,-116.3427 615.0879,-115.5333 616.8888,-122.2977"/>
</g>
<!-- flush -->
<g id="node41" class="node">
<title>flush</title>
<polygon fill="none" stroke="#000000" points="691.5,-178 637.5,-178 637.5,-142 691.5,-142 691.5,-178"/>
<text text-anchor="middle" x="664.5" y="-156.3" font-family="Times,serif" font-size="14.00" fill="#000000">flush</text>
</g>
<!-- append&#45;&gt;flush -->
<g id="edge40" class="edge">
<title>append&#45;&gt;flush</title>
<path fill="none" stroke="#000000" d="M590.2065,-153.7285C603.1099,-154.8177 615.9117,-155.8984 627.1604,-156.848"/>
<polygon fill="#000000" stroke="#000000" points="627.1628,-160.3605 637.4218,-157.7142 627.7517,-153.3853 627.1628,-160.3605"/>
</g>
<!-- appendAsLeader -->
<g id="node38" class="node">
<title>appendAsLeader</title>
<polygon fill="none" stroke="#000000" points="353.5,-165 245.5,-165 245.5,-129 353.5,-129 353.5,-165"/>
<text text-anchor="middle" x="299.5" y="-143.3" font-family="Times,serif" font-size="14.00" fill="#000000">appendAsLeader</text>
</g>
<!-- appendAsLeader&#45;&gt;append -->
<g id="edge37" class="edge">
<title>appendAsLeader&#45;&gt;append</title>
<path fill="none" stroke="#000000" d="M353.5637,-147C373.9853,-147 397.8113,-147 420.6383,-147"/>
<polygon fill="#000000" stroke="#000000" points="420.6924,-150.5001 430.6924,-147 420.6923,-143.5001 420.6924,-150.5001"/>
</g>
<!-- maybeRoll&#45;&gt;shouldRoll -->
<g id="edge46" class="edge">
<title>maybeRoll&#45;&gt;shouldRoll</title>
<path fill="none" stroke="#000000" d="M694.2079,-124.1257C697.4222,-126.8444 700.4468,-129.8152 703,-133 729.1748,-165.6495 708.7241,-191.1127 739,-220 745.619,-226.3154 753.2316,-231.7132 761.3419,-236.325"/>
<polygon fill="#000000" stroke="#000000" points="759.8321,-239.4853 770.3142,-241.0269 763.0814,-233.285 759.8321,-239.4853"/>
</g>
<!-- maybeRoll&#45;&gt;roll -->
<g id="edge41" class="edge">
<title>maybeRoll&#45;&gt;roll</title>
<path fill="none" stroke="#000000" d="M703.2925,-98.2015C711.088,-96.6344 719.6795,-94.9072 728.6998,-93.0939"/>
<polygon fill="#000000" stroke="#000000" points="729.5248,-96.4981 738.6389,-91.0958 728.1452,-89.6354 729.5248,-96.4981"/>
</g>
<!-- maybeRoll&#45;&gt;activeSegment -->
<g id="edge42" class="edge">
<title>maybeRoll&#45;&gt;activeSegment</title>
<path fill="none" stroke="#000000" d="M703.2925,-114.1984C724.9612,-118.7779 752.7796,-124.657 778.8658,-130.1701"/>
<polygon fill="#000000" stroke="#000000" points="778.2548,-133.6182 788.7624,-132.2616 779.7022,-126.7695 778.2548,-133.6182"/>
</g>
<!-- flush&#45;&gt;segment_flush -->
<g id="edge49" class="edge">
<title>flush&#45;&gt;segment_flush</title>
<path fill="none" stroke="#000000" d="M677.2588,-178.1837C685.1658,-189.8475 695.2549,-205.4749 703,-220 721.9189,-255.4805 713.5143,-271.899 739,-303 761.9147,-330.9636 796.5595,-353.6028 822.6556,-368.1306"/>
<polygon fill="#000000" stroke="#000000" points="821.0375,-371.2346 831.4964,-372.9264 824.3753,-365.0816 821.0375,-371.2346"/>
</g>
<!-- addSegment&#45;&gt;segments -->
<g id="edge44" class="edge">
<title>addSegment&#45;&gt;segments</title>
<path fill="none" stroke="#ff0000" d="M1149.7537,-67C1188.2092,-67 1244.7723,-67 1283.8185,-67"/>
<polygon fill="#ff0000" stroke="#ff0000" points="1283.8412,-70.5001 1293.8412,-67 1283.8411,-63.5001 1283.8412,-70.5001"/>
</g>
<!-- readRecords -->
<g id="node43" class="node">
<title>readRecords</title>
<polygon fill="none" stroke="#000000" points="134,-100 50,-100 50,-64 134,-64 134,-100"/>
<text text-anchor="middle" x="92" y="-78.3" font-family="Times,serif" font-size="14.00" fill="#000000">readRecords</text>
</g>
<!-- readRecords&#45;&gt;localLog_read -->
<g id="edge50" class="edge">
<title>readRecords&#45;&gt;localLog_read</title>
<path fill="none" stroke="#000000" d="M134.2408,-79.9643C151.631,-79.1262 172.6297,-78.1142 193.7393,-77.0969"/>
<polygon fill="#000000" stroke="#000000" points="193.9434,-80.5912 203.7633,-76.6138 193.6064,-73.5993 193.9434,-80.5912"/>
</g>
<!-- appendRecordsToLeader -->
<g id="node44" class="node">
<title>appendRecordsToLeader</title>
<polygon fill="none" stroke="#000000" points="168,-154 16,-154 16,-118 168,-118 168,-154"/>
<text text-anchor="middle" x="92" y="-132.3" font-family="Times,serif" font-size="14.00" fill="#000000">appendRecordsToLeader</text>
</g>
<!-- appendRecordsToLeader&#45;&gt;appendAsLeader -->
<g id="edge51" class="edge">
<title>appendRecordsToLeader&#45;&gt;appendAsLeader</title>
<path fill="none" stroke="#000000" d="M168.0871,-140.0335C190.1538,-141.2033 214.0216,-142.4686 235.2844,-143.5958"/>
<polygon fill="#000000" stroke="#000000" points="235.3226,-147.1026 245.4939,-144.137 235.6932,-140.1125 235.3226,-147.1026"/>
</g>
</g>
</svg>
