<?xml version="1.0" encoding="UTF-8" standalone="no"?>
<!DOCTYPE svg PUBLIC "-//W3C//DTD SVG 1.1//EN"
 "http://www.w3.org/Graphics/SVG/1.1/DTD/svg11.dtd">
<!-- Generated by graphviz version 2.40.1 (20161225.0304)
 -->
<!-- Title: logcompact Pages: 1 -->
<svg width="2496pt" height="494pt"
 viewBox="0.00 0.00 2496.00 494.00" xmlns="http://www.w3.org/2000/svg" xmlns:xlink="http://www.w3.org/1999/xlink">
<g id="graph0" class="graph" transform="scale(1 1) rotate(0) translate(4 490)">
<title>logcompact</title>
<polygon fill="#ffffff" stroke="transparent" points="-4,4 -4,-490 2492,-490 2492,4 -4,4"/>
<g id="clust1" class="cluster">
<title>cluster_log</title>
<polygon fill="none" stroke="#000000" points="1021.5,-8 1021.5,-90 1159.5,-90 1159.5,-8 1021.5,-8"/>
<text text-anchor="middle" x="1090.5" y="-70" font-family="Times,serif" font-size="20.00" fill="#000000">log</text>
</g>
<g id="clust2" class="cluster">
<title>cluster_logSegment</title>
<polygon fill="none" stroke="#000000" points="1850.5,-8 1850.5,-90 1961.5,-90 1961.5,-8 1850.5,-8"/>
<text text-anchor="middle" x="1906" y="-70" font-family="Times,serif" font-size="20.00" fill="#000000">logSegment</text>
</g>
<g id="clust3" class="cluster">
<title>cluster_cleaner</title>
<polygon fill="none" stroke="#000000" points="271,-98 271,-478 2480,-478 2480,-98 271,-98"/>
<text text-anchor="middle" x="1375.5" y="-458" font-family="Times,serif" font-size="20.00" fill="#000000">cleaner</text>
</g>
<g id="clust6" class="cluster">
<title>cluster_cleaner</title>
<polygon fill="none" stroke="#000000" points="1222,-133 1222,-323 2472,-323 2472,-133 1222,-133"/>
<text text-anchor="middle" x="1847" y="-303" font-family="Times,serif" font-size="20.00" fill="#000000">cleaner</text>
</g>
<g id="clust5" class="cluster">
<title>cluster_cleanManager</title>
<polygon fill="none" stroke="#000000" points="1038,-358 1038,-440 1311,-440 1311,-358 1038,-358"/>
<text text-anchor="middle" x="1174.5" y="-420" font-family="Times,serif" font-size="20.00" fill="#000000">cleanManager</text>
</g>
<g id="clust10" class="cluster">
<title>cluster_cleaner_thread</title>
<polygon fill="none" stroke="#000000" points="429.5,-160 429.5,-350 1183,-350 1183,-160 429.5,-160"/>
<text text-anchor="middle" x="806.25" y="-330" font-family="Times,serif" font-size="20.00" fill="#000000">cleaner thread</text>
</g>
<g id="clust13" class="cluster">
<title>cluster_logManager</title>
<polygon fill="none" stroke="#000000" points="138,-145 138,-227 251,-227 251,-145 138,-145"/>
<text text-anchor="middle" x="194.5" y="-207" font-family="Times,serif" font-size="20.00" fill="#000000">logManager</text>
</g>
<g id="clust14" class="cluster">
<title>cluster_KafkaServer</title>
<polygon fill="none" stroke="#000000" points="0,-145 0,-227 118,-227 118,-145 0,-145"/>
<text text-anchor="middle" x="59" y="-207" font-family="Times,serif" font-size="20.00" fill="#000000">KafkaServer</text>
</g>
<!-- deleteOldSegments -->
<g id="node1" class="node">
<title>deleteOldSegments</title>
<polygon fill="none" stroke="#000000" points="1151.5,-52 1029.5,-52 1029.5,-16 1151.5,-16 1151.5,-52"/>
<text text-anchor="middle" x="1090.5" y="-30.3" font-family="Times,serif" font-size="14.00" fill="#000000">deleteOldSegments</text>
</g>
<!-- LogSegment_append -->
<g id="node2" class="node">
<title>LogSegment_append</title>
<polygon fill="none" stroke="#000000" points="1933.5,-52 1877.5,-52 1877.5,-16 1933.5,-16 1933.5,-52"/>
<text text-anchor="middle" x="1905.5" y="-30.3" font-family="Times,serif" font-size="14.00" fill="#000000">append</text>
</g>
<!-- cleaner_startup -->
<g id="node3" class="node">
<title>cleaner_startup</title>
<polygon fill="none" stroke="#000000" points="333,-189 279,-189 279,-153 333,-153 333,-189"/>
<text text-anchor="middle" x="306" y="-167.3" font-family="Times,serif" font-size="14.00" fill="#000000">startup</text>
</g>
<!-- new_CleanerThread -->
<g id="node4" class="node">
<title>new_CleanerThread</title>
<polygon fill="none" stroke="#000000" points="369,-106 369,-152 560,-152 560,-106 369,-106"/>
<text text-anchor="middle" x="464.5" y="-136.8" font-family="Times,serif" font-size="14.00" fill="#000000">new CleanerThread</text>
<polyline fill="none" stroke="#000000" points="369,-129 560,-129 "/>
<text text-anchor="start" x="377" y="-113.8" font-family="Times,serif" font-size="14.00" fill="#000000">根据配置启动n个cleaner线程</text>
</g>
<!-- cleaner_startup&#45;&gt;new_CleanerThread -->
<g id="edge1" class="edge">
<title>cleaner_startup&#45;&gt;new_CleanerThread</title>
<path fill="none" stroke="#000000" d="M333.2471,-163.7799C343.2627,-161.126 355.2622,-157.9463 367.8795,-154.6029"/>
<polygon fill="#000000" stroke="#000000" points="368.856,-157.965 377.6258,-152.0203 367.0629,-151.1986 368.856,-157.965"/>
</g>
<!-- cleaner_start -->
<g id="node5" class="node">
<title>cleaner_start</title>
<polygon fill="none" stroke="#000000" points="491.5,-232 437.5,-232 437.5,-196 491.5,-196 491.5,-232"/>
<text text-anchor="middle" x="464.5" y="-210.3" font-family="Times,serif" font-size="14.00" fill="#000000">start</text>
</g>
<!-- cleaner_startup&#45;&gt;cleaner_start -->
<g id="edge2" class="edge">
<title>cleaner_startup&#45;&gt;cleaner_start</title>
<path fill="none" stroke="#000000" d="M333.1133,-180.6675C344.17,-184.4446 357.1243,-188.661 369,-192 388.0317,-197.3509 409.4612,-202.3767 427.1911,-206.2702"/>
<polygon fill="#000000" stroke="#000000" points="426.6426,-209.7324 437.1566,-208.4256 428.1225,-202.8906 426.6426,-209.7324"/>
</g>
<!-- doWork -->
<g id="node20" class="node">
<title>doWork</title>
<polygon fill="none" stroke="#000000" points="658,-235 596,-235 596,-199 658,-199 658,-235"/>
<text text-anchor="middle" x="627" y="-213.3" font-family="Times,serif" font-size="14.00" fill="#000000">doWork</text>
</g>
<!-- cleaner_start&#45;&gt;doWork -->
<g id="edge16" class="edge">
<title>cleaner_start&#45;&gt;doWork</title>
<path fill="none" stroke="#000000" d="M491.6988,-214.5021C517.4002,-214.9766 556.3073,-215.6949 585.8128,-216.2396"/>
<polygon fill="#000000" stroke="#000000" points="585.7572,-219.7391 595.8201,-216.4244 585.8865,-212.7403 585.7572,-219.7391"/>
</g>
<!-- doneCleaning -->
<g id="node6" class="node">
<title>doneCleaning</title>
<polygon fill="none" stroke="#000000" points="1303,-402 1211,-402 1211,-366 1303,-366 1303,-402"/>
<text text-anchor="middle" x="1257" y="-380.3" font-family="Times,serif" font-size="14.00" fill="#000000">doneCleaning</text>
</g>
<!-- doneDeleting -->
<g id="node7" class="node">
<title>doneDeleting</title>
<polygon fill="none" stroke="#000000" points="1135,-402 1046,-402 1046,-366 1135,-366 1135,-402"/>
<text text-anchor="middle" x="1090.5" y="-380.3" font-family="Times,serif" font-size="14.00" fill="#000000">doneDeleting</text>
</g>
<!-- doClean -->
<g id="node8" class="node">
<title>doClean</title>
<polygon fill="#f38181" stroke="#000000" points="1401,-244 1339,-244 1339,-208 1401,-208 1401,-244"/>
<text text-anchor="middle" x="1370" y="-222.3" font-family="Times,serif" font-size="14.00" fill="#000000">doClean</text>
</g>
<!-- buildOffsetMap -->
<g id="node10" class="node">
<title>buildOffsetMap</title>
<polygon fill="none" stroke="#000000" points="1559,-177 1455,-177 1455,-141 1559,-141 1559,-177"/>
<text text-anchor="middle" x="1507" y="-155.3" font-family="Times,serif" font-size="14.00" fill="#000000">buildOffsetMap</text>
</g>
<!-- doClean&#45;&gt;buildOffsetMap -->
<g id="edge4" class="edge">
<title>doClean&#45;&gt;buildOffsetMap</title>
<path fill="none" stroke="#000000" d="M1397.7719,-207.9747C1409.607,-200.6764 1423.724,-192.4651 1437,-186 1440.3595,-184.364 1443.8451,-182.7556 1447.3863,-181.1892"/>
<polygon fill="#000000" stroke="#000000" points="1449.0203,-184.2972 1456.8418,-177.1506 1446.2707,-177.8598 1449.0203,-184.2972"/>
</g>
<!-- groupSegmentsBySize -->
<g id="node11" class="node">
<title>groupSegmentsBySize</title>
<polygon fill="none" stroke="#000000" points="1577,-231 1437,-231 1437,-195 1577,-195 1577,-231"/>
<text text-anchor="middle" x="1507" y="-209.3" font-family="Times,serif" font-size="14.00" fill="#000000">groupSegmentsBySize</text>
</g>
<!-- doClean&#45;&gt;groupSegmentsBySize -->
<g id="edge5" class="edge">
<title>doClean&#45;&gt;groupSegmentsBySize</title>
<path fill="none" stroke="#000000" d="M1401.0874,-223.0501C1408.9722,-222.3019 1417.811,-221.4632 1426.9316,-220.5977"/>
<polygon fill="#000000" stroke="#000000" points="1427.2826,-224.0802 1436.9072,-219.6511 1426.6213,-217.1115 1427.2826,-224.0802"/>
</g>
<!-- cleanSegments -->
<g id="node12" class="node">
<title>cleanSegments</title>
<polygon fill="none" stroke="#000000" points="1556,-285 1458,-285 1458,-249 1556,-249 1556,-285"/>
<text text-anchor="middle" x="1507" y="-263.3" font-family="Times,serif" font-size="14.00" fill="#000000">cleanSegments</text>
</g>
<!-- doClean&#45;&gt;cleanSegments -->
<g id="edge6" class="edge">
<title>doClean&#45;&gt;cleanSegments</title>
<path fill="none" stroke="#000000" d="M1401.0874,-235.3035C1414.9475,-239.4514 1431.7554,-244.4815 1447.8599,-249.3011"/>
<polygon fill="#000000" stroke="#000000" points="1447.18,-252.751 1457.7636,-252.265 1449.1869,-246.0448 1447.18,-252.751"/>
</g>
<!-- clean -->
<g id="node9" class="node">
<title>clean</title>
<polygon fill="none" stroke="#000000" points="1284,-251 1230,-251 1230,-215 1284,-215 1284,-251"/>
<text text-anchor="middle" x="1257" y="-229.3" font-family="Times,serif" font-size="14.00" fill="#000000">clean</text>
</g>
<!-- clean&#45;&gt;doClean -->
<g id="edge3" class="edge">
<title>clean&#45;&gt;doClean</title>
<path fill="none" stroke="#000000" d="M1284.0663,-231.3233C1297.4351,-230.4952 1313.8541,-229.4781 1328.7458,-228.5556"/>
<polygon fill="#000000" stroke="#000000" points="1328.9908,-232.0472 1338.7552,-227.9355 1328.5579,-225.0606 1328.9908,-232.0472"/>
</g>
<!-- buildOffsetMapForSegment -->
<g id="node19" class="node">
<title>buildOffsetMapForSegment</title>
<polygon fill="none" stroke="#000000" points="2022,-154 2022,-200 2192,-200 2192,-154 2022,-154"/>
<text text-anchor="middle" x="2107" y="-184.8" font-family="Times,serif" font-size="14.00" fill="#000000">buildOffsetMapForSegment</text>
<polyline fill="none" stroke="#000000" points="2022,-177 2192,-177 "/>
<text text-anchor="start" x="2030" y="-161.8" font-family="Times,serif" font-size="14.00" fill="#000000">创建key &#45;&gt; offset的映射</text>
</g>
<!-- buildOffsetMap&#45;&gt;buildOffsetMapForSegment -->
<g id="edge14" class="edge">
<title>buildOffsetMap&#45;&gt;buildOffsetMapForSegment</title>
<path fill="none" stroke="#000000" d="M1559.1214,-159.3183C1647.1368,-160.0284 1830.812,-162.2533 1986,-169 1994.3146,-169.3615 2002.9466,-169.8021 2011.5997,-170.2887"/>
<polygon fill="#000000" stroke="#000000" points="2011.5632,-173.7924 2021.7497,-170.8792 2011.9698,-166.8042 2011.5632,-173.7924"/>
</g>
<!-- cleanInto -->
<g id="node13" class="node">
<title>cleanInto</title>
<polygon fill="none" stroke="#000000" points="1613,-193 1613,-269 1789,-269 1789,-193 1613,-193"/>
<text text-anchor="middle" x="1701" y="-253.8" font-family="Times,serif" font-size="14.00" fill="#000000">cleanInto</text>
<polyline fill="none" stroke="#000000" points="1613,-246 1789,-246 "/>
<text text-anchor="start" x="1621" y="-230.8" font-family="Times,serif" font-size="14.00" fill="#000000">读取src records</text>
<text text-anchor="start" x="1621" y="-215.8" font-family="Times,serif" font-size="14.00" fill="#000000"> 根据offsetMap过滤完毕后</text>
<text text-anchor="start" x="1621" y="-200.8" font-family="Times,serif" font-size="14.00" fill="#000000">　 写入dst segment</text>
</g>
<!-- cleanSegments&#45;&gt;cleanInto -->
<g id="edge7" class="edge">
<title>cleanSegments&#45;&gt;cleanInto</title>
<path fill="none" stroke="#000000" d="M1556.2052,-257.8691C1570.5212,-255.2126 1586.6889,-252.2124 1602.8977,-249.2046"/>
<polygon fill="#000000" stroke="#000000" points="1603.7855,-252.5996 1612.9791,-247.3338 1602.5083,-245.7171 1603.7855,-252.5996"/>
</g>
<!-- cleanInto&#45;&gt;LogSegment_append -->
<g id="edge8" class="edge">
<title>cleanInto&#45;&gt;LogSegment_append</title>
<path fill="none" stroke="#000000" d="M1740.9151,-192.5488C1781.7633,-153.1987 1844.0742,-93.173 1879.1413,-59.392"/>
<polygon fill="#000000" stroke="#000000" points="1881.8354,-61.6565 1886.6091,-52.198 1876.979,-56.6152 1881.8354,-61.6565"/>
</g>
<!-- MemoryRecords_readInto -->
<g id="node14" class="node">
<title>MemoryRecords_readInto</title>
<polygon fill="none" stroke="#000000" points="1986,-214 1825,-214 1825,-178 1986,-178 1986,-214"/>
<text text-anchor="middle" x="1905.5" y="-192.3" font-family="Times,serif" font-size="14.00" fill="#000000">MemoryRecords_readInto</text>
</g>
<!-- cleanInto&#45;&gt;MemoryRecords_readInto -->
<g id="edge9" class="edge">
<title>cleanInto&#45;&gt;MemoryRecords_readInto</title>
<path fill="none" stroke="#000000" d="M1789.2102,-215.9029C1797.7569,-214.4401 1806.4371,-212.9545 1815.0056,-211.488"/>
<polygon fill="#000000" stroke="#000000" points="1815.7322,-214.9147 1824.9984,-209.7778 1814.5512,-208.015 1815.7322,-214.9147"/>
</g>
<!-- MemoryRecords_filterTo -->
<g id="node15" class="node">
<title>MemoryRecords_filterTo</title>
<polygon fill="none" stroke="#000000" points="1984,-268 1827,-268 1827,-232 1984,-232 1984,-268"/>
<text text-anchor="middle" x="1905.5" y="-246.3" font-family="Times,serif" font-size="14.00" fill="#000000">MemoryRecords_filterTo</text>
</g>
<!-- cleanInto&#45;&gt;MemoryRecords_filterTo -->
<g id="edge10" class="edge">
<title>cleanInto&#45;&gt;MemoryRecords_filterTo</title>
<path fill="none" stroke="#000000" d="M1789.2102,-239.1956C1798.3211,-240.0421 1807.5836,-240.9026 1816.7009,-241.7497"/>
<polygon fill="#000000" stroke="#000000" points="1816.6361,-245.2587 1826.9171,-242.6989 1817.2838,-238.2887 1816.6361,-245.2587"/>
</g>
<!-- logCleanerFilter -->
<g id="node16" class="node">
<title>logCleanerFilter</title>
<polygon fill="none" stroke="#000000" points="2159.5,-261 2054.5,-261 2054.5,-225 2159.5,-225 2159.5,-261"/>
<text text-anchor="middle" x="2107" y="-239.3" font-family="Times,serif" font-size="14.00" fill="#000000">logCleanerFilter</text>
</g>
<!-- MemoryRecords_filterTo&#45;&gt;logCleanerFilter -->
<g id="edge11" class="edge">
<title>MemoryRecords_filterTo&#45;&gt;logCleanerFilter</title>
<path fill="none" stroke="#000000" d="M1984.2709,-247.2635C2004.2002,-246.5712 2025.3357,-245.837 2044.3483,-245.1765"/>
<polygon fill="#000000" stroke="#000000" points="2044.5019,-248.6734 2054.3743,-244.8282 2044.2588,-241.6776 2044.5019,-248.6734"/>
</g>
<!-- shouldRetainRecord -->
<g id="node17" class="node">
<title>shouldRetainRecord</title>
<polygon fill="#f38181" stroke="#000000" points="2355,-253 2228,-253 2228,-217 2355,-217 2355,-253"/>
<text text-anchor="middle" x="2291.5" y="-231.3" font-family="Times,serif" font-size="14.00" fill="#000000">shouldRetainRecord</text>
</g>
<!-- logCleanerFilter&#45;&gt;shouldRetainRecord -->
<g id="edge12" class="edge">
<title>logCleanerFilter&#45;&gt;shouldRetainRecord</title>
<path fill="none" stroke="#000000" d="M2159.8703,-240.7075C2177.915,-239.9251 2198.4345,-239.0354 2217.8139,-238.1951"/>
<polygon fill="#000000" stroke="#000000" points="2217.986,-241.691 2227.8249,-237.761 2217.6827,-234.6976 2217.986,-241.691"/>
</g>
<!-- offsetMap -->
<g id="node18" class="node">
<title>offsetMap</title>
<polygon fill="#95e1d3" stroke="#000000" points="2464,-220 2395,-220 2391,-216 2391,-184 2460,-184 2464,-188 2464,-220"/>
<polyline fill="none" stroke="#000000" points="2460,-216 2391,-216 "/>
<polyline fill="none" stroke="#000000" points="2460,-216 2460,-184 "/>
<polyline fill="none" stroke="#000000" points="2460,-216 2464,-220 "/>
<text text-anchor="middle" x="2427.5" y="-198.3" font-family="Times,serif" font-size="14.00" fill="#000000">offsetMap</text>
</g>
<!-- shouldRetainRecord&#45;&gt;offsetMap -->
<g id="edge13" class="edge">
<title>shouldRetainRecord&#45;&gt;offsetMap</title>
<path fill="none" stroke="#000000" d="M2355.1199,-219.5628C2363.8683,-217.44 2372.7138,-215.2937 2381.0739,-213.2651"/>
<polygon fill="#000000" stroke="#000000" points="2382.099,-216.6181 2390.9916,-210.8586 2380.4483,-209.8155 2382.099,-216.6181"/>
</g>
<!-- buildOffsetMapForSegment&#45;&gt;offsetMap -->
<g id="edge15" class="edge">
<title>buildOffsetMapForSegment&#45;&gt;offsetMap</title>
<path fill="none" stroke="#ff0000" d="M2192.0467,-183.6339C2252.4703,-188.3471 2331.3421,-194.4994 2380.7122,-198.3504"/>
<polygon fill="#ff0000" stroke="#ff0000" points="2380.5402,-201.8475 2390.7822,-199.1359 2381.0847,-194.8687 2380.5402,-201.8475"/>
</g>
<!-- tryCleanFilthiestLog -->
<g id="node21" class="node">
<title>tryCleanFilthiestLog</title>
<polygon fill="none" stroke="#000000" points="823,-248 694,-248 694,-212 823,-212 823,-248"/>
<text text-anchor="middle" x="758.5" y="-226.3" font-family="Times,serif" font-size="14.00" fill="#000000">tryCleanFilthiestLog</text>
</g>
<!-- doWork&#45;&gt;tryCleanFilthiestLog -->
<g id="edge17" class="edge">
<title>doWork&#45;&gt;tryCleanFilthiestLog</title>
<path fill="none" stroke="#000000" d="M658.1637,-220.0808C665.9996,-220.8555 674.7516,-221.7207 683.7325,-222.6085"/>
<polygon fill="#000000" stroke="#000000" points="683.6369,-226.1161 693.9328,-223.6169 684.3257,-219.15 683.6369,-226.1161"/>
</g>
<!-- cleanFilthiestLog -->
<g id="node22" class="node">
<title>cleanFilthiestLog</title>
<polygon fill="none" stroke="#000000" points="970,-254 859,-254 859,-218 970,-218 970,-254"/>
<text text-anchor="middle" x="914.5" y="-232.3" font-family="Times,serif" font-size="14.00" fill="#000000">cleanFilthiestLog</text>
</g>
<!-- tryCleanFilthiestLog&#45;&gt;cleanFilthiestLog -->
<g id="edge18" class="edge">
<title>tryCleanFilthiestLog&#45;&gt;cleanFilthiestLog</title>
<path fill="none" stroke="#000000" d="M823.3028,-232.4924C831.6348,-232.8129 840.1737,-233.1413 848.5243,-233.4625"/>
<polygon fill="#000000" stroke="#000000" points="848.4629,-236.9626 858.5901,-233.8496 848.732,-229.9678 848.4629,-236.9626"/>
</g>
<!-- cleanFilthiestLog&#45;&gt;deleteOldSegments -->
<g id="edge19" class="edge">
<title>cleanFilthiestLog&#45;&gt;deleteOldSegments</title>
<path fill="none" stroke="#000000" d="M930.4292,-217.7176C961.8434,-181.6627 1031.8607,-101.3019 1067.9826,-59.8438"/>
<polygon fill="#000000" stroke="#000000" points="1070.8032,-61.9344 1074.7336,-52.0956 1065.5255,-57.336 1070.8032,-61.9344"/>
</g>
<!-- cleanFilthiestLog&#45;&gt;doneDeleting -->
<g id="edge20" class="edge">
<title>cleanFilthiestLog&#45;&gt;doneDeleting</title>
<path fill="none" stroke="#000000" d="M924.1495,-254.2233C938.6469,-279.9496 968.401,-326.8051 1006,-354 1014.9813,-360.4961 1025.5035,-365.6994 1036.0146,-369.8265"/>
<polygon fill="#000000" stroke="#000000" points="1035.026,-373.1912 1045.6201,-373.3203 1037.4188,-366.6128 1035.026,-373.1912"/>
</g>
<!-- grabFilthiestCompactedLog -->
<g id="node23" class="node">
<title>grabFilthiestCompactedLog</title>
<polygon fill="none" stroke="#000000" points="1175,-312 1006,-312 1006,-276 1175,-276 1175,-312"/>
<text text-anchor="middle" x="1090.5" y="-290.3" font-family="Times,serif" font-size="14.00" fill="#000000">grabFilthiestCompactedLog</text>
</g>
<!-- cleanFilthiestLog&#45;&gt;grabFilthiestCompactedLog -->
<g id="edge21" class="edge">
<title>cleanFilthiestLog&#45;&gt;grabFilthiestCompactedLog</title>
<path fill="none" stroke="#000000" d="M967.1873,-254.0248C979.8824,-258.3196 993.414,-262.8575 1006,-267 1011.8561,-268.9274 1017.947,-270.9123 1024.056,-272.8895"/>
<polygon fill="#000000" stroke="#000000" points="1023.048,-276.2419 1033.6396,-275.9808 1025.1969,-269.5799 1023.048,-276.2419"/>
</g>
<!-- deletableLogs -->
<g id="node24" class="node">
<title>deletableLogs</title>
<polygon fill="none" stroke="#000000" points="1136.5,-204 1044.5,-204 1044.5,-168 1136.5,-168 1136.5,-204"/>
<text text-anchor="middle" x="1090.5" y="-182.3" font-family="Times,serif" font-size="14.00" fill="#000000">deletableLogs</text>
</g>
<!-- cleanFilthiestLog&#45;&gt;deletableLogs -->
<g id="edge22" class="edge">
<title>cleanFilthiestLog&#45;&gt;deletableLogs</title>
<path fill="none" stroke="#000000" d="M970.1875,-220.1797C990.6989,-214.3526 1013.9301,-207.7528 1034.4714,-201.9172"/>
<polygon fill="#000000" stroke="#000000" points="1035.6527,-205.2202 1044.3156,-199.1206 1033.7397,-198.4866 1035.6527,-205.2202"/>
</g>
<!-- cleanLog -->
<g id="node25" class="node">
<title>cleanLog</title>
<polygon fill="none" stroke="#000000" points="1124,-258 1057,-258 1057,-222 1124,-222 1124,-258"/>
<text text-anchor="middle" x="1090.5" y="-236.3" font-family="Times,serif" font-size="14.00" fill="#000000">cleanLog</text>
</g>
<!-- cleanFilthiestLog&#45;&gt;cleanLog -->
<g id="edge23" class="edge">
<title>cleanFilthiestLog&#45;&gt;cleanLog</title>
<path fill="none" stroke="#000000" d="M970.1875,-237.2656C994.9027,-237.8273 1023.5667,-238.4788 1046.7156,-239.0049"/>
<polygon fill="#000000" stroke="#000000" points="1046.8526,-242.5088 1056.9296,-239.237 1047.0117,-235.5106 1046.8526,-242.5088"/>
</g>
<!-- cleanLog&#45;&gt;doneCleaning -->
<g id="edge24" class="edge">
<title>cleanLog&#45;&gt;doneCleaning</title>
<path fill="none" stroke="#000000" d="M1124.1151,-242.9668C1143.2614,-246.2019 1166.6212,-252.948 1183,-267 1205.3342,-286.1614 1195.423,-302.0334 1211,-327 1217.6639,-337.6808 1226.053,-348.6251 1233.8365,-358.0318"/>
<polygon fill="#000000" stroke="#000000" points="1231.329,-360.4868 1240.462,-365.8572 1236.6714,-355.9636 1231.329,-360.4868"/>
</g>
<!-- cleanLog&#45;&gt;clean -->
<g id="edge25" class="edge">
<title>cleanLog&#45;&gt;clean</title>
<path fill="none" stroke="#000000" d="M1124.1938,-238.5834C1151.9524,-237.4164 1191.2683,-235.7635 1219.917,-234.559"/>
<polygon fill="#000000" stroke="#000000" points="1220.1038,-238.0544 1229.948,-234.1373 1219.8097,-231.0606 1220.1038,-238.0544"/>
</g>
<!-- logManager_startup -->
<g id="node26" class="node">
<title>logManager_startup</title>
<polygon fill="none" stroke="#000000" points="221,-189 167,-189 167,-153 221,-153 221,-189"/>
<text text-anchor="middle" x="194" y="-167.3" font-family="Times,serif" font-size="14.00" fill="#000000">startup</text>
</g>
<!-- logManager_startup&#45;&gt;cleaner_startup -->
<g id="edge26" class="edge">
<title>logManager_startup&#45;&gt;cleaner_startup</title>
<path fill="none" stroke="#000000" d="M221.1121,-171C235.3143,-171 252.9303,-171 268.4272,-171"/>
<polygon fill="#000000" stroke="#000000" points="268.7494,-174.5001 278.7494,-171 268.7494,-167.5001 268.7494,-174.5001"/>
</g>
<!-- startup -->
<g id="node27" class="node">
<title>startup</title>
<polygon fill="none" stroke="#000000" points="86,-189 32,-189 32,-153 86,-153 86,-189"/>
<text text-anchor="middle" x="59" y="-167.3" font-family="Times,serif" font-size="14.00" fill="#000000">startup</text>
</g>
<!-- startup&#45;&gt;logManager_startup -->
<g id="edge27" class="edge">
<title>startup&#45;&gt;logManager_startup</title>
<path fill="none" stroke="#000000" d="M86.3193,-171C106.5389,-171 134.3216,-171 156.6017,-171"/>
<polygon fill="#000000" stroke="#000000" points="156.7214,-174.5001 166.7214,-171 156.7213,-167.5001 156.7214,-174.5001"/>
</g>
</g>
</svg>
