<?xml version="1.0" encoding="UTF-8" standalone="no"?>
<!DOCTYPE svg PUBLIC "-//W3C//DTD SVG 1.1//EN"
 "http://www.w3.org/Graphics/SVG/1.1/DTD/svg11.dtd">
<!-- Generated by graphviz version 2.40.1 (20161225.0304)
 -->
<!-- Title: partition_replica_assignment Pages: 1 -->
<svg width="1939pt" height="892pt"
 viewBox="0.00 0.00 1939.00 892.00" xmlns="http://www.w3.org/2000/svg" xmlns:xlink="http://www.w3.org/1999/xlink">
<g id="graph0" class="graph" transform="scale(1 1) rotate(0) translate(4 888)">
<title>partition_replica_assignment</title>
<polygon fill="#ffffff" stroke="transparent" points="-4,4 -4,-888 1935,-888 1935,4 -4,4"/>
<g id="clust1" class="cluster">
<title>cluster_zkClient</title>
<polygon fill="none" stroke="#000000" points="972.5,-98 972.5,-180 1437.5,-180 1437.5,-98 972.5,-98"/>
<text text-anchor="middle" x="1205" y="-160" font-family="Times,serif" font-size="20.00" fill="#000000">zkClient</text>
</g>
<g id="clust2" class="cluster">
<title>cluster_Controller</title>
<polygon fill="none" stroke="#000000" points="133,-188 133,-876 1923,-876 1923,-188 133,-188"/>
<text text-anchor="middle" x="1028" y="-856" font-family="Times,serif" font-size="20.00" fill="#000000">Controller</text>
</g>
<g id="clust10" class="cluster">
<title>cluster_memebers</title>
<polygon fill="none" stroke="#000000" points="963.5,-730 963.5,-838 1915,-838 1915,-730 963.5,-730"/>
<text text-anchor="middle" x="1439.25" y="-818" font-family="Times,serif" font-size="20.00" fill="#000000">controller 数据成员</text>
</g>
<g id="clust11" class="cluster">
<title>cluster_partitionStateMachine</title>
<polygon fill="none" stroke="#000000" points="1257,-196 1257,-289 1449,-289 1449,-196 1257,-196"/>
<text text-anchor="middle" x="1353" y="-269" font-family="Times,serif" font-size="20.00" fill="#000000">partitionStateMachine</text>
</g>
<g id="clust12" class="cluster">
<title>cluster_ReplicaStateMachine</title>
<polygon fill="none" stroke="#000000" points="1260,-511 1260,-593 1447,-593 1447,-511 1260,-511"/>
<text text-anchor="middle" x="1353.5" y="-573" font-family="Times,serif" font-size="20.00" fill="#000000">ReplicaStateMachine</text>
</g>
<g id="clust13" class="cluster">
<title>cluster_ControllerChannelManager</title>
<polygon fill="none" stroke="#000000" points="1237.5,-297 1237.5,-405 1668,-405 1668,-297 1237.5,-297"/>
<text text-anchor="middle" x="1452.75" y="-385" font-family="Times,serif" font-size="20.00" fill="#000000">ControllerChannelManager</text>
</g>
<g id="clust15" class="cluster">
<title>cluster_Broker1</title>
<polygon fill="none" stroke="#000000" points="1797.5,-98 1797.5,-180 1883.5,-180 1883.5,-98 1797.5,-98"/>
<text text-anchor="middle" x="1840.5" y="-160" font-family="Times,serif" font-size="20.00" fill="#000000">Broker1</text>
</g>
<g id="clust16" class="cluster">
<title>cluster_Broker2</title>
<polygon fill="none" stroke="#000000" points="1797.5,-8 1797.5,-90 1883.5,-90 1883.5,-8 1797.5,-8"/>
<text text-anchor="middle" x="1840.5" y="-70" font-family="Times,serif" font-size="20.00" fill="#000000">Broker2</text>
</g>
<g id="clust18" class="cluster">
<title>cluster_zkserver</title>
<polygon fill="none" stroke="#000000" points="8,-547 8,-629 113,-629 113,-547 8,-547"/>
<text text-anchor="middle" x="60.5" y="-609" font-family="Times,serif" font-size="20.00" fill="#000000">zkserver</text>
</g>
<!-- setTopicAssignmentRaw -->
<g id="node1" class="node">
<title>setTopicAssignmentRaw</title>
<polygon fill="none" stroke="#000000" points="1429.5,-142 1276.5,-142 1276.5,-106 1429.5,-106 1429.5,-142"/>
<text text-anchor="middle" x="1353" y="-120.3" font-family="Times,serif" font-size="14.00" fill="#000000">setTopicAssignmentRaw</text>
</g>
<!-- getTopicPartitionStates -->
<g id="node2" class="node">
<title>getTopicPartitionStates</title>
<polygon fill="none" stroke="#000000" points="1123.5,-142 980.5,-142 980.5,-106 1123.5,-106 1123.5,-142"/>
<text text-anchor="middle" x="1052" y="-120.3" font-family="Times,serif" font-size="14.00" fill="#000000">getTopicPartitionStates</text>
</g>
<!-- partitionsBeingReassigned -->
<g id="node3" class="node">
<title>partitionsBeingReassigned</title>
<polygon fill="#95e1d3" stroke="#000000" points="971.5,-738.5 971.5,-799.5 1132.5,-799.5 1132.5,-738.5 971.5,-738.5"/>
<text text-anchor="middle" x="1052" y="-784.3" font-family="Times,serif" font-size="14.00" fill="#000000">partitionsBeingReassigned</text>
<polyline fill="none" stroke="#000000" points="971.5,-776.5 1132.5,-776.5 "/>
<text text-anchor="start" x="979.5" y="-761.3" font-family="Times,serif" font-size="14.00" fill="#000000">当前正在迁移的</text>
<text text-anchor="start" x="979.5" y="-746.3" font-family="Times,serif" font-size="14.00" fill="#000000"> partition列表</text>
</g>
<!-- partitionAssignments -->
<g id="node4" class="node">
<title>partitionAssignments</title>
<polygon fill="#95e1d3" stroke="#000000" points="1774,-738.5 1774,-799.5 1907,-799.5 1907,-738.5 1774,-738.5"/>
<text text-anchor="middle" x="1840.5" y="-784.3" font-family="Times,serif" font-size="14.00" fill="#000000">partitionAssignments</text>
<polyline fill="none" stroke="#000000" points="1774,-776.5 1907,-776.5 "/>
<text text-anchor="start" x="1782" y="-761.3" font-family="Times,serif" font-size="14.00" fill="#000000">topic,partition到</text>
<text text-anchor="middle" x="1840.5" y="-746.3" font-family="Times,serif" font-size="14.00" fill="#000000"> assignment的映射</text>
</g>
<!-- markTopicIneligibleForDeletion -->
<g id="node5" class="node">
<title>markTopicIneligibleForDeletion</title>
<polygon fill="none" stroke="#000000" points="633.5,-196.5 633.5,-257.5 827.5,-257.5 827.5,-196.5 633.5,-196.5"/>
<text text-anchor="middle" x="730.5" y="-242.3" font-family="Times,serif" font-size="14.00" fill="#000000">markTopicIneligibleForDeletion</text>
<polyline fill="none" stroke="#000000" points="633.5,-234.5 827.5,-234.5 "/>
<text text-anchor="start" x="641.5" y="-219.3" font-family="Times,serif" font-size="14.00" fill="#000000">将正在partition迁移的topic </text>
<text text-anchor="middle" x="730.5" y="-204.3" font-family="Times,serif" font-size="14.00" fill="#000000"> 标记为不可删除状态</text>
</g>
<!-- sendUpdateMetadataRequest -->
<g id="node6" class="node">
<title>sendUpdateMetadataRequest</title>
<polygon fill="none" stroke="#000000" points="602,-276.5 602,-337.5 859,-337.5 859,-276.5 602,-276.5"/>
<text text-anchor="middle" x="730.5" y="-322.3" font-family="Times,serif" font-size="14.00" fill="#000000">sendUpdateMetadataRequest</text>
<polyline fill="none" stroke="#000000" points="602,-314.5 859,-314.5 "/>
<text text-anchor="start" x="610" y="-299.3" font-family="Times,serif" font-size="14.00" fill="#000000">leader选举之后，</text>
<text text-anchor="start" x="610" y="-284.3" font-family="Times,serif" font-size="14.00" fill="#000000"> 发送metadata给replicaset中所有的broker</text>
</g>
<!-- updateCurrentReassignment -->
<g id="node7" class="node">
<title>updateCurrentReassignment</title>
<polygon fill="none" stroke="#000000" points="621,-442.5 621,-503.5 840,-503.5 840,-442.5 621,-442.5"/>
<text text-anchor="middle" x="730.5" y="-488.3" font-family="Times,serif" font-size="14.00" fill="#000000">updateCurrentReassignment</text>
<polyline fill="none" stroke="#000000" points="621,-480.5 840,-480.5 "/>
<text text-anchor="start" x="629" y="-465.3" font-family="Times,serif" font-size="14.00" fill="#000000">更新zk和mem中的assignment状态</text>
<text text-anchor="middle" x="730.5" y="-450.3" font-family="Times,serif" font-size="14.00" fill="#000000"> 删掉不需要的replica</text>
</g>
<!-- updateCurrentReassignment&#45;&gt;partitionsBeingReassigned -->
<g id="edge15" class="edge">
<title>updateCurrentReassignment&#45;&gt;partitionsBeingReassigned</title>
<path fill="none" stroke="#000000" d="M824.6519,-503.6806C837.7555,-511.4564 849.8441,-521.0947 859,-533 914.3267,-604.9403 832.1922,-668.4895 895,-734 912.3259,-752.0714 936.7704,-761.7782 961.2231,-766.7625"/>
<polygon fill="#000000" stroke="#000000" points="960.8526,-770.2516 971.3121,-768.5633 962.0827,-763.3605 960.8526,-770.2516"/>
</g>
<!-- updateReplicaAssignmentForPartition -->
<g id="node8" class="node">
<title>updateReplicaAssignmentForPartition</title>
<polygon fill="none" stroke="#000000" points="940,-228 940,-274 1164,-274 1164,-228 940,-228"/>
<text text-anchor="middle" x="1052" y="-258.8" font-family="Times,serif" font-size="14.00" fill="#000000">updateReplicaAssignmentForPartition</text>
<polyline fill="none" stroke="#000000" points="940,-251 1164,-251 "/>
<text text-anchor="start" x="948" y="-235.8" font-family="Times,serif" font-size="14.00" fill="#000000">更新RA在zk中的状态</text>
</g>
<!-- updateCurrentReassignment&#45;&gt;updateReplicaAssignmentForPartition -->
<g id="edge16" class="edge">
<title>updateCurrentReassignment&#45;&gt;updateReplicaAssignmentForPartition</title>
<path fill="none" stroke="#000000" d="M840.2853,-443.7633C847.1564,-439.2435 853.5045,-434.0251 859,-428 903.4564,-379.2596 847.479,-329.7576 895,-284 905.0905,-274.2839 917.2758,-267.1118 930.3433,-261.859"/>
<polygon fill="#000000" stroke="#000000" points="931.7855,-265.0593 939.9971,-258.3645 929.4028,-258.4772 931.7855,-265.0593"/>
</g>
<!-- updatePartitionFullReplicaAssignment -->
<g id="node9" class="node">
<title>updatePartitionFullReplicaAssignment</title>
<polygon fill="none" stroke="#000000" points="1504,-627 1504,-673 1731,-673 1731,-627 1504,-627"/>
<text text-anchor="middle" x="1617.5" y="-657.8" font-family="Times,serif" font-size="14.00" fill="#000000">updatePartitionFullReplicaAssignment</text>
<polyline fill="none" stroke="#000000" points="1504,-650 1731,-650 "/>
<text text-anchor="start" x="1512" y="-634.8" font-family="Times,serif" font-size="14.00" fill="#000000">更新RA 在mem中的状态</text>
</g>
<!-- updateCurrentReassignment&#45;&gt;updatePartitionFullReplicaAssignment -->
<g id="edge17" class="edge">
<title>updateCurrentReassignment&#45;&gt;updatePartitionFullReplicaAssignment</title>
<path fill="none" stroke="#000000" d="M835.6943,-442.3781C843.9149,-438.1495 851.8051,-433.3772 859,-428 880.9341,-411.6073 870.6283,-390.484 895,-378 926.0521,-362.094 1182.7863,-354.9766 1209,-378 1282.7479,-442.7724 1168.4135,-527.2771 1237.5,-597 1302.9396,-663.0424 1409.9817,-672.8246 1493.8085,-668.0629"/>
<polygon fill="#000000" stroke="#000000" points="1494.1572,-671.5478 1503.9118,-667.4129 1493.7077,-664.5622 1494.1572,-671.5478"/>
</g>
<!-- stopRemovedReplicasOfReassignedPartition -->
<g id="node11" class="node">
<title>stopRemovedReplicasOfReassignedPartition</title>
<polygon fill="none" stroke="#000000" points="895,-387.5 895,-508.5 1209,-508.5 1209,-387.5 895,-387.5"/>
<text text-anchor="middle" x="1052" y="-493.3" font-family="Times,serif" font-size="14.00" fill="#000000">stopRemovedReplicasOfReassignedPartition</text>
<polyline fill="none" stroke="#000000" points="895,-485.5 1209,-485.5 "/>
<text text-anchor="start" x="903" y="-470.3" font-family="Times,serif" font-size="14.00" fill="#000000">RR中的副本设置为offline状态(强制从ISR中删除)</text>
<text text-anchor="start" x="903" y="-455.3" font-family="Times,serif" font-size="14.00" fill="#000000"> 状态变更如下：</text>
<text text-anchor="start" x="903" y="-440.3" font-family="Times,serif" font-size="14.00" fill="#000000"> OfflineReplica</text>
<text text-anchor="start" x="903" y="-425.3" font-family="Times,serif" font-size="14.00" fill="#000000"> ReplicaDeletionStarted;</text>
<text text-anchor="start" x="903" y="-410.3" font-family="Times,serif" font-size="14.00" fill="#000000"> ReplicaDeletionSuccessful;</text>
<text text-anchor="start" x="903" y="-395.3" font-family="Times,serif" font-size="14.00" fill="#000000"> NonExistentReplica;</text>
</g>
<!-- updateCurrentReassignment&#45;&gt;stopRemovedReplicasOfReassignedPartition -->
<g id="edge18" class="edge">
<title>updateCurrentReassignment&#45;&gt;stopRemovedReplicasOfReassignedPartition</title>
<path fill="none" stroke="#000000" d="M840.2429,-464.4663C854.7172,-463.3408 869.8071,-462.1674 884.9716,-460.9882"/>
<polygon fill="#000000" stroke="#000000" points="885.2433,-464.4777 894.9419,-460.2129 884.7006,-457.4988 885.2433,-464.4777"/>
</g>
<!-- partitionFullReplicaAssignment -->
<g id="node19" class="node">
<title>partitionFullReplicaAssignment</title>
<polygon fill="none" stroke="#000000" points="1713,-555 1522,-555 1522,-519 1713,-519 1713,-555"/>
<text text-anchor="middle" x="1617.5" y="-533.3" font-family="Times,serif" font-size="14.00" fill="#000000">partitionFullReplicaAssignment</text>
</g>
<!-- updateCurrentReassignment&#45;&gt;partitionFullReplicaAssignment -->
<g id="edge19" class="edge">
<title>updateCurrentReassignment&#45;&gt;partitionFullReplicaAssignment</title>
<path fill="none" stroke="#000000" d="M837.9991,-442.4008C845.4816,-438.1879 852.587,-433.4118 859,-428 884.2382,-406.7021 866.5487,-379.7659 895,-363 925.0581,-345.2872 1179.568,-344.2652 1209,-363 1234.2438,-379.0689 1213.0363,-406.7667 1237.5,-424 1278.2824,-452.7289 1416.2897,-422.8744 1461,-445 1482.142,-455.4624 1477.7996,-470.2964 1497,-484 1514.4251,-496.4366 1535.2317,-506.868 1554.6122,-515.0964"/>
<polygon fill="#000000" stroke="#000000" points="1553.4112,-518.387 1563.9906,-518.9581 1556.0764,-511.9142 1553.4112,-518.387"/>
</g>
<!-- registerZNodeChangeHandler -->
<g id="node20" class="node">
<title>registerZNodeChangeHandler</title>
<polygon fill="none" stroke="#000000" points="1141.5,-329 962.5,-329 962.5,-293 1141.5,-293 1141.5,-329"/>
<text text-anchor="middle" x="1052" y="-307.3" font-family="Times,serif" font-size="14.00" fill="#000000">registerZNodeChangeHandler</text>
</g>
<!-- updateCurrentReassignment&#45;&gt;registerZNodeChangeHandler -->
<g id="edge20" class="edge">
<title>updateCurrentReassignment&#45;&gt;registerZNodeChangeHandler</title>
<path fill="none" stroke="#000000" d="M839.8873,-442.3882C846.7611,-438.1884 853.2251,-433.4179 859,-428 888.9202,-399.9297 863.2445,-368.9759 895,-343 911.3571,-329.6199 931.832,-321.363 952.5402,-316.3669"/>
<polygon fill="#000000" stroke="#000000" points="953.351,-319.7725 962.3811,-314.2311 951.8663,-312.9317 953.351,-319.7725"/>
</g>
<!-- updateReplicaAssignmentForPartition&#45;&gt;setTopicAssignmentRaw -->
<g id="edge21" class="edge">
<title>updateReplicaAssignmentForPartition&#45;&gt;setTopicAssignmentRaw</title>
<path fill="none" stroke="#000000" d="M1106.858,-227.8539C1162.0454,-204.5689 1246.5294,-168.9228 1300.7652,-146.0393"/>
<polygon fill="#000000" stroke="#000000" points="1302.3415,-149.1731 1310.1943,-142.0609 1299.6202,-142.7236 1302.3415,-149.1731"/>
</g>
<!-- partitionFullReplicaAssignmentForTopic -->
<g id="node21" class="node">
<title>partitionFullReplicaAssignmentForTopic</title>
<polygon fill="none" stroke="#000000" points="1738,-475 1497,-475 1497,-439 1738,-439 1738,-475"/>
<text text-anchor="middle" x="1617.5" y="-453.3" font-family="Times,serif" font-size="14.00" fill="#000000">partitionFullReplicaAssignmentForTopic</text>
</g>
<!-- updateReplicaAssignmentForPartition&#45;&gt;partitionFullReplicaAssignmentForTopic -->
<g id="edge22" class="edge">
<title>updateReplicaAssignmentForPartition&#45;&gt;partitionFullReplicaAssignmentForTopic</title>
<path fill="none" stroke="#000000" d="M1164.2194,-258.142C1180.8766,-263.5838 1196.5867,-271.7958 1209,-284 1249.6327,-323.948 1194.5838,-371.5158 1237.5,-409 1275.0566,-441.8029 1411.5762,-422.3803 1461,-429 1478.4274,-431.3342 1496.8723,-434.2405 1514.7491,-437.2896"/>
<polygon fill="#000000" stroke="#000000" points="1514.1619,-440.74 1524.6121,-438.9956 1515.355,-433.8424 1514.1619,-440.74"/>
</g>
<!-- updatePartitionFullReplicaAssignment&#45;&gt;partitionAssignments -->
<g id="edge26" class="edge">
<title>updatePartitionFullReplicaAssignment&#45;&gt;partitionAssignments</title>
<path fill="none" stroke="#ff0000" d="M1660.7611,-673.0855C1692.8712,-690.2205 1737.2496,-713.9023 1773.8747,-733.4466"/>
<polygon fill="#ff0000" stroke="#ff0000" points="1772.5366,-736.6997 1783.0069,-738.3198 1775.8322,-730.524 1772.5366,-736.6997"/>
</g>
<!-- moveReassignedPartitionLeaderIfRequired -->
<g id="node10" class="node">
<title>moveReassignedPartitionLeaderIfRequired</title>
<polygon fill="none" stroke="#000000" points="605,-542.5 605,-603.5 856,-603.5 856,-542.5 605,-542.5"/>
<text text-anchor="middle" x="730.5" y="-588.3" font-family="Times,serif" font-size="14.00" fill="#000000">moveReassignedPartitionLeaderIfRequired</text>
<polyline fill="none" stroke="#000000" points="605,-580.5 856,-580.5 "/>
<text text-anchor="start" x="613" y="-565.3" font-family="Times,serif" font-size="14.00" fill="#000000">发送LeaderAndIsr和一个潜在的leader</text>
<text text-anchor="middle" x="730.5" y="-550.3" font-family="Times,serif" font-size="14.00" fill="#000000"> 给在ORS+TRS中的所有的broker</text>
</g>
<!-- updateLeaderEpochAndSendRequest -->
<g id="node15" class="node">
<title>updateLeaderEpochAndSendRequest</title>
<polygon fill="none" stroke="#000000" points="943,-613 943,-659 1161,-659 1161,-613 943,-613"/>
<text text-anchor="middle" x="1052" y="-643.8" font-family="Times,serif" font-size="14.00" fill="#000000">updateLeaderEpochAndSendRequest</text>
<polyline fill="none" stroke="#000000" points="943,-636 1161,-636 "/>
<text text-anchor="middle" x="1052" y="-620.8" font-family="Times,serif" font-size="14.00" fill="#000000">更新partition leader在zk中的任期</text>
</g>
<!-- moveReassignedPartitionLeaderIfRequired&#45;&gt;updateLeaderEpochAndSendRequest -->
<g id="edge28" class="edge">
<title>moveReassignedPartitionLeaderIfRequired&#45;&gt;updateLeaderEpochAndSendRequest</title>
<path fill="none" stroke="#000000" d="M856.1816,-597.6281C881.4467,-602.579 907.9267,-607.7679 932.9573,-612.6728"/>
<polygon fill="#000000" stroke="#000000" points="932.356,-616.1215 942.8424,-614.6099 933.7022,-609.2521 932.356,-616.1215"/>
</g>
<!-- partitionLeadershipInfo -->
<g id="node22" class="node">
<title>partitionLeadershipInfo</title>
<polygon fill="none" stroke="#000000" points="979.5,-548 979.5,-594 1124.5,-594 1124.5,-548 979.5,-548"/>
<text text-anchor="middle" x="1052" y="-578.8" font-family="Times,serif" font-size="14.00" fill="#000000">partitionLeadershipInfo</text>
<polyline fill="none" stroke="#000000" points="979.5,-571 1124.5,-571 "/>
<text text-anchor="middle" x="1052" y="-555.8" font-family="Times,serif" font-size="14.00" fill="#000000">获取leader相关信息</text>
</g>
<!-- moveReassignedPartitionLeaderIfRequired&#45;&gt;partitionLeadershipInfo -->
<g id="edge29" class="edge">
<title>moveReassignedPartitionLeaderIfRequired&#45;&gt;partitionLeadershipInfo</title>
<path fill="none" stroke="#000000" d="M856.1816,-572.2182C894.171,-571.9818 934.9074,-571.7284 969.3331,-571.5143"/>
<polygon fill="#000000" stroke="#000000" points="969.3566,-575.0143 979.3346,-571.452 969.313,-568.0144 969.3566,-575.0143"/>
</g>
<!-- partitionStateMachine_handleStateChange -->
<g id="node23" class="node">
<title>partitionStateMachine_handleStateChange</title>
<polygon fill="none" stroke="#000000" points="1289,-204 1289,-250 1417,-250 1417,-204 1289,-204"/>
<text text-anchor="middle" x="1353" y="-234.8" font-family="Times,serif" font-size="14.00" fill="#000000">handleStateChanges</text>
<polyline fill="none" stroke="#000000" points="1289,-227 1417,-227 "/>
<text text-anchor="middle" x="1353" y="-211.8" font-family="Times,serif" font-size="14.00" fill="#000000">更改partition leader</text>
</g>
<!-- moveReassignedPartitionLeaderIfRequired&#45;&gt;partitionStateMachine_handleStateChange -->
<g id="edge30" class="edge">
<title>moveReassignedPartitionLeaderIfRequired&#45;&gt;partitionStateMachine_handleStateChange</title>
<path fill="none" stroke="#ff0000" d="M856.3822,-545.1485C869.3824,-542.8224 882.4302,-540.7111 895,-539 929.6473,-534.2835 1183.5536,-541.9825 1209,-518 1282.3545,-448.8656 1181.518,-376.824 1237.5,-293 1248.0519,-277.2003 1263.7492,-264.7395 1280.1955,-255.1033"/>
<polygon fill="#ff0000" stroke="#ff0000" points="1282.3151,-257.9314 1289.3814,-250.0372 1278.9345,-251.8018 1282.3151,-257.9314"/>
</g>
<!-- replica_handleStateChanges -->
<g id="node12" class="node">
<title>replica_handleStateChanges</title>
<polygon fill="none" stroke="#000000" points="1416,-555 1290,-555 1290,-519 1416,-519 1416,-555"/>
<text text-anchor="middle" x="1353" y="-533.3" font-family="Times,serif" font-size="14.00" fill="#000000">handleStateChanges</text>
</g>
<!-- stopRemovedReplicasOfReassignedPartition&#45;&gt;replica_handleStateChanges -->
<g id="edge1" class="edge">
<title>stopRemovedReplicasOfReassignedPartition&#45;&gt;replica_handleStateChanges</title>
<path fill="none" stroke="#000000" d="M1209.0701,-506.6634C1218.6415,-509.6362 1228.1707,-512.444 1237.5,-515 1251.0449,-518.711 1265.6516,-522.0163 1279.7712,-524.8659"/>
<polygon fill="#000000" stroke="#000000" points="1279.4577,-528.371 1289.9442,-526.8597 1280.8041,-521.5017 1279.4577,-528.371"/>
</g>
<!-- replica_handleStateChanges&#45;&gt;updatePartitionFullReplicaAssignment -->
<g id="edge36" class="edge">
<title>replica_handleStateChanges&#45;&gt;updatePartitionFullReplicaAssignment</title>
<path fill="none" stroke="#000000" d="M1416.2329,-546.2934C1431.1798,-549.4665 1446.8728,-553.6208 1461,-559 1502.5704,-574.8287 1546.0094,-600.969 1576.5453,-621.1816"/>
<polygon fill="#000000" stroke="#000000" points="1574.9409,-624.3196 1585.1967,-626.9783 1578.8374,-618.5043 1574.9409,-624.3196"/>
</g>
<!-- replica_handleStateChanges&#45;&gt;partitionFullReplicaAssignment -->
<g id="edge37" class="edge">
<title>replica_handleStateChanges&#45;&gt;partitionFullReplicaAssignment</title>
<path fill="none" stroke="#000000" d="M1416.0183,-537C1444.5591,-537 1479.0908,-537 1511.4439,-537"/>
<polygon fill="#000000" stroke="#000000" points="1511.8612,-540.5001 1521.8612,-537 1511.8612,-533.5001 1511.8612,-540.5001"/>
</g>
<!-- channelMananger_sendRequest -->
<g id="node26" class="node">
<title>channelMananger_sendRequest</title>
<polygon fill="none" stroke="#000000" points="1660,-341 1575,-341 1575,-305 1660,-305 1660,-341"/>
<text text-anchor="middle" x="1617.5" y="-319.3" font-family="Times,serif" font-size="14.00" fill="#000000">sendRequest</text>
</g>
<!-- replica_handleStateChanges&#45;&gt;channelMananger_sendRequest -->
<g id="edge34" class="edge">
<title>replica_handleStateChanges&#45;&gt;channelMananger_sendRequest</title>
<path fill="none" stroke="#000000" d="M1416.0456,-536.3356C1432.5503,-533.1669 1449.0472,-526.8608 1461,-515 1515.8212,-460.6008 1441.6276,-398.838 1497,-345 1514.6646,-327.8249 1541.0203,-321.6895 1564.5827,-320.1192"/>
<polygon fill="#000000" stroke="#000000" points="1564.9736,-323.6063 1574.8224,-319.701 1564.6879,-316.6121 1564.9736,-323.6063"/>
</g>
<!-- onPartitionReassignment -->
<g id="node13" class="node">
<title>onPartitionReassignment</title>
<polygon fill="none" stroke="#000000" points="566,-591 413,-591 413,-555 566,-555 566,-591"/>
<text text-anchor="middle" x="489.5" y="-569.3" font-family="Times,serif" font-size="14.00" fill="#000000">onPartitionReassignment</text>
</g>
<!-- onPartitionReassignment&#45;&gt;markTopicIneligibleForDeletion -->
<g id="edge2" class="edge">
<title>onPartitionReassignment&#45;&gt;markTopicIneligibleForDeletion</title>
<path fill="none" stroke="#000000" d="M490.7474,-554.8436C495.3388,-502.3436 515.8545,-348.8988 602,-267 608.653,-260.6749 616.2906,-255.3492 624.4539,-250.8649"/>
<polygon fill="#000000" stroke="#000000" points="626.1321,-253.9387 633.4965,-246.3219 622.9895,-247.6838 626.1321,-253.9387"/>
</g>
<!-- onPartitionReassignment&#45;&gt;sendUpdateMetadataRequest -->
<g id="edge3" class="edge">
<title>onPartitionReassignment&#45;&gt;sendUpdateMetadataRequest</title>
<path fill="none" stroke="#000000" d="M493.4594,-554.8477C503.6824,-512.2928 534.9827,-405.3709 602,-348 603.8067,-346.4534 605.6723,-344.9649 607.5893,-343.5324"/>
<polygon fill="#000000" stroke="#000000" points="610.0026,-346.1237 616.3003,-337.6038 606.064,-340.3368 610.0026,-346.1237"/>
</g>
<!-- onPartitionReassignment&#45;&gt;updateCurrentReassignment -->
<g id="edge4" class="edge">
<title>onPartitionReassignment&#45;&gt;updateCurrentReassignment</title>
<path fill="none" stroke="#000000" d="M523.9789,-554.8307C545.9975,-543.5573 575.3205,-529.1475 602,-518 610.9149,-514.2751 620.2589,-510.5924 629.6677,-507.0335"/>
<polygon fill="#000000" stroke="#000000" points="630.9397,-510.2947 639.0846,-503.5189 628.492,-503.7365 630.9397,-510.2947"/>
</g>
<!-- onPartitionReassignment&#45;&gt;updateReplicaAssignmentForPartition -->
<g id="edge5" class="edge">
<title>onPartitionReassignment&#45;&gt;updateReplicaAssignmentForPartition</title>
<path fill="none" stroke="#000000" d="M497.8752,-554.9049C513.4025,-523.7104 549.8862,-460.5146 602,-433 652.6569,-406.2547 814.753,-449.3818 859,-413 904.9774,-375.1954 851.5653,-324.7006 895,-284 905.1398,-274.4985 917.2903,-267.4471 930.2826,-262.2516"/>
<polygon fill="#000000" stroke="#000000" points="931.6582,-265.4761 939.8752,-258.788 929.2809,-258.8922 931.6582,-265.4761"/>
</g>
<!-- onPartitionReassignment&#45;&gt;updatePartitionFullReplicaAssignment -->
<g id="edge6" class="edge">
<title>onPartitionReassignment&#45;&gt;updatePartitionFullReplicaAssignment</title>
<path fill="none" stroke="#000000" d="M496.9682,-591.24C511.5263,-624.0292 547.1571,-692.0234 602,-719 680.1879,-757.4597 1240.716,-695.6955 1493.9144,-665.3156"/>
<polygon fill="#000000" stroke="#000000" points="1494.3855,-668.7843 1503.896,-664.1152 1493.5495,-661.8344 1494.3855,-668.7843"/>
</g>
<!-- onPartitionReassignment&#45;&gt;moveReassignedPartitionLeaderIfRequired -->
<g id="edge7" class="edge">
<title>onPartitionReassignment&#45;&gt;moveReassignedPartitionLeaderIfRequired</title>
<path fill="none" stroke="#000000" d="M566.085,-573C575.2916,-573 584.8943,-573 594.6332,-573"/>
<polygon fill="#000000" stroke="#000000" points="594.8205,-576.5001 604.8205,-573 594.8204,-569.5001 594.8205,-576.5001"/>
</g>
<!-- onPartitionReassignment&#45;&gt;stopRemovedReplicasOfReassignedPartition -->
<g id="edge8" class="edge">
<title>onPartitionReassignment&#45;&gt;stopRemovedReplicasOfReassignedPartition</title>
<path fill="none" stroke="#000000" d="M531.7367,-554.9955C552.5223,-546.9113 578.1766,-538.0688 602,-533 714.0592,-509.1576 746.7449,-535.9026 859,-513 867.5578,-511.254 876.2611,-509.2397 885.0022,-507.0252"/>
<polygon fill="#000000" stroke="#000000" points="886.0914,-510.3582 894.8815,-504.4435 884.3215,-503.5856 886.0914,-510.3582"/>
</g>
<!-- onPartitionReassignment&#45;&gt;replica_handleStateChanges -->
<g id="edge9" class="edge">
<title>onPartitionReassignment&#45;&gt;replica_handleStateChanges</title>
<path fill="none" stroke="#000000" d="M519.8879,-591.1213C541.9083,-603.357 572.8181,-618.7318 602,-627 712.5011,-658.3087 747.712,-625.6152 859,-654 875.7956,-658.2838 878.0033,-665.6007 895,-669 929.2114,-675.8423 1181.409,-690.3535 1209,-669 1248.9392,-638.09 1200.6422,-593.5264 1237.5,-559 1249.0483,-548.1821 1264.1935,-541.8985 1279.6981,-538.395"/>
<polygon fill="#000000" stroke="#000000" points="1280.7244,-541.7634 1289.9047,-536.4745 1279.4299,-534.8842 1280.7244,-541.7634"/>
</g>
<!-- isReassignmentComplete -->
<g id="node14" class="node">
<title>isReassignmentComplete</title>
<polygon fill="none" stroke="#000000" points="630.5,-357 630.5,-403 830.5,-403 830.5,-357 630.5,-357"/>
<text text-anchor="middle" x="730.5" y="-387.8" font-family="Times,serif" font-size="14.00" fill="#000000">isReassignmentComplete</text>
<polyline fill="none" stroke="#000000" points="630.5,-380 830.5,-380 "/>
<text text-anchor="start" x="638.5" y="-364.8" font-family="Times,serif" font-size="14.00" fill="#000000">查看RAR的副本是否都在isr中</text>
</g>
<!-- onPartitionReassignment&#45;&gt;isReassignmentComplete -->
<g id="edge10" class="edge">
<title>onPartitionReassignment&#45;&gt;isReassignmentComplete</title>
<path fill="none" stroke="#000000" d="M497.6666,-554.9314C513.2337,-522.5382 550.2725,-454.5585 602,-418 607.9429,-413.7999 614.352,-410.0588 621.0248,-406.7273"/>
<polygon fill="#000000" stroke="#000000" points="622.6735,-409.8207 630.2684,-402.4337 619.7245,-403.4722 622.6735,-409.8207"/>
</g>
<!-- onPartitionReassignment&#45;&gt;updateLeaderEpochAndSendRequest -->
<g id="edge11" class="edge">
<title>onPartitionReassignment&#45;&gt;updateLeaderEpochAndSendRequest</title>
<path fill="none" stroke="#000000" d="M531.15,-591.0752C552.0148,-599.2816 577.908,-608.208 602,-613 662.8231,-625.0979 820.9165,-631.0328 932.4635,-633.7981"/>
<polygon fill="#000000" stroke="#000000" points="932.6882,-637.3045 942.7701,-634.0479 932.8578,-630.3065 932.6882,-637.3045"/>
</g>
<!-- startNewReplicasForReassignedPartition -->
<g id="node16" class="node">
<title>startNewReplicasForReassignedPartition</title>
<polygon fill="none" stroke="#000000" points="609.5,-663 609.5,-709 851.5,-709 851.5,-663 609.5,-663"/>
<text text-anchor="middle" x="730.5" y="-693.8" font-family="Times,serif" font-size="14.00" fill="#000000">startNewReplicasForReassignedPartition</text>
<polyline fill="none" stroke="#000000" points="609.5,-686 851.5,-686 "/>
<text text-anchor="middle" x="730.5" y="-670.8" font-family="Times,serif" font-size="14.00" fill="#000000">将AR中的replica 状态改为NewReplica</text>
</g>
<!-- onPartitionReassignment&#45;&gt;startNewReplicasForReassignedPartition -->
<g id="edge12" class="edge">
<title>onPartitionReassignment&#45;&gt;startNewReplicasForReassignedPartition</title>
<path fill="none" stroke="#000000" d="M512.4053,-591.2856C534.3137,-608.0221 568.8342,-632.4767 602,-648 610.9285,-652.179 620.422,-656.0157 630.0489,-659.5089"/>
<polygon fill="#000000" stroke="#000000" points="629.1093,-662.8882 639.7041,-662.8876 631.4214,-656.2811 629.1093,-662.8882"/>
</g>
<!-- removePartitionFromReassigningPartitions -->
<g id="node17" class="node">
<title>removePartitionFromReassigningPartitions</title>
<polygon fill="none" stroke="#000000" points="856.5,-784 604.5,-784 604.5,-748 856.5,-748 856.5,-784"/>
<text text-anchor="middle" x="730.5" y="-762.3" font-family="Times,serif" font-size="14.00" fill="#000000">removePartitionFromReassigningPartitions</text>
</g>
<!-- onPartitionReassignment&#45;&gt;removePartitionFromReassigningPartitions -->
<g id="edge13" class="edge">
<title>onPartitionReassignment&#45;&gt;removePartitionFromReassigningPartitions</title>
<path fill="none" stroke="#000000" d="M496.9638,-591.1997C511.7473,-624.8868 548.057,-696.8986 602,-734 607.2832,-737.6337 612.9404,-740.8555 618.8275,-743.7119"/>
<polygon fill="#000000" stroke="#000000" points="617.6881,-747.0359 628.2471,-747.9067 620.5358,-740.6412 617.6881,-747.0359"/>
</g>
<!-- resumeDeletionForTopics -->
<g id="node18" class="node">
<title>resumeDeletionForTopics</title>
<polygon fill="none" stroke="#000000" points="809.5,-838 651.5,-838 651.5,-802 809.5,-802 809.5,-838"/>
<text text-anchor="middle" x="730.5" y="-816.3" font-family="Times,serif" font-size="14.00" fill="#000000">resumeDeletionForTopics</text>
</g>
<!-- onPartitionReassignment&#45;&gt;resumeDeletionForTopics -->
<g id="edge14" class="edge">
<title>onPartitionReassignment&#45;&gt;resumeDeletionForTopics</title>
<path fill="none" stroke="#000000" d="M493.2151,-591.2126C502.91,-633.8239 533.152,-740.3782 602,-793 613.5519,-801.8293 627.324,-807.935 641.493,-812.1262"/>
<polygon fill="#000000" stroke="#000000" points="640.7807,-815.5581 651.3433,-814.7319 642.5709,-808.7909 640.7807,-815.5581"/>
</g>
<!-- isReassignmentComplete&#45;&gt;getTopicPartitionStates -->
<g id="edge23" class="edge">
<title>isReassignmentComplete&#45;&gt;getTopicPartitionStates</title>
<path fill="none" stroke="#000000" d="M830.6614,-366.3705C841.2171,-361.5855 850.9963,-355.2807 859,-347 910.5609,-293.6551 846.5523,-240.1874 895,-184 914.3462,-161.5631 943.0417,-147.4857 970.6276,-138.6661"/>
<polygon fill="#000000" stroke="#000000" points="971.7475,-141.9844 980.3217,-135.7607 969.7378,-135.2791 971.7475,-141.9844"/>
</g>
<!-- addLeaderAndIsrRequestForBrokers -->
<g id="node24" class="node">
<title>addLeaderAndIsrRequestForBrokers</title>
<polygon fill="none" stroke="#000000" points="1245,-454 1245,-500 1461,-500 1461,-454 1245,-454"/>
<text text-anchor="middle" x="1353" y="-484.8" font-family="Times,serif" font-size="14.00" fill="#000000">addLeaderAndIsrRequestForBrokers</text>
<polyline fill="none" stroke="#000000" points="1245,-477 1461,-477 "/>
<text text-anchor="start" x="1253" y="-461.8" font-family="Times,serif" font-size="14.00" fill="#000000">添加leaderAndIsr请求</text>
</g>
<!-- updateLeaderEpochAndSendRequest&#45;&gt;addLeaderAndIsrRequestForBrokers -->
<g id="edge31" class="edge">
<title>updateLeaderEpochAndSendRequest&#45;&gt;addLeaderAndIsrRequestForBrokers</title>
<path fill="none" stroke="#000000" d="M1161.1359,-629.6901C1178.7529,-624.4404 1195.5823,-616.3267 1209,-604 1242.0895,-573.601 1205.2285,-538.266 1237.5,-507 1237.6627,-506.8423 1237.8262,-506.6855 1237.9904,-506.5294"/>
<polygon fill="#000000" stroke="#000000" points="1240.3637,-509.1081 1245.8256,-500.0297 1235.8944,-503.7206 1240.3637,-509.1081"/>
</g>
<!-- sendRequestsToBrokers -->
<g id="node25" class="node">
<title>sendRequestsToBrokers</title>
<polygon fill="none" stroke="#000000" points="1245.5,-305.5 1245.5,-366.5 1460.5,-366.5 1460.5,-305.5 1245.5,-305.5"/>
<text text-anchor="middle" x="1353" y="-351.3" font-family="Times,serif" font-size="14.00" fill="#000000">sendRequestsToBrokers</text>
<polyline fill="none" stroke="#000000" points="1245.5,-343.5 1460.5,-343.5 "/>
<text text-anchor="start" x="1253.5" y="-328.3" font-family="Times,serif" font-size="14.00" fill="#000000">发送LeaderAndIsr请求给</text>
<text text-anchor="start" x="1253.5" y="-313.3" font-family="Times,serif" font-size="14.00" fill="#000000"> assignment中的所有replica broker</text>
</g>
<!-- updateLeaderEpochAndSendRequest&#45;&gt;sendRequestsToBrokers -->
<g id="edge32" class="edge">
<title>updateLeaderEpochAndSendRequest&#45;&gt;sendRequestsToBrokers</title>
<path fill="none" stroke="#000000" d="M1161.2886,-631.9364C1179.3232,-626.5376 1196.26,-617.7934 1209,-604 1279.7863,-527.3612 1170.3593,-450.8519 1237.5,-371 1237.7275,-370.7294 1237.9571,-370.4608 1238.1887,-370.1943"/>
<polygon fill="#000000" stroke="#000000" points="1240.788,-372.5459 1245.4262,-363.0202 1235.8601,-367.5743 1240.788,-372.5459"/>
</g>
<!-- startNewReplicasForReassignedPartition&#45;&gt;replica_handleStateChanges -->
<g id="edge24" class="edge">
<title>startNewReplicasForReassignedPartition&#45;&gt;replica_handleStateChanges</title>
<path fill="none" stroke="#000000" d="M851.5991,-693.1865C984.2061,-699.8586 1181.7692,-705.8143 1209,-684 1253.4713,-648.3746 1196.4905,-598.5612 1237.5,-559 1248.9486,-547.9557 1264.1301,-541.5968 1279.7108,-538.0941"/>
<polygon fill="#000000" stroke="#000000" points="1280.7813,-541.455 1289.9721,-536.1842 1279.5004,-534.5732 1280.7813,-541.455"/>
</g>
<!-- partitionFullReplicaAssignment&#45;&gt;partitionAssignments -->
<g id="edge27" class="edge">
<title>partitionFullReplicaAssignment&#45;&gt;partitionAssignments</title>
<path fill="none" stroke="#000000" d="M1651.4736,-555.0878C1677.1211,-569.8079 1712.1856,-592.3025 1738,-618 1771.559,-651.407 1800.8681,-697.2707 1819.4522,-729.6616"/>
<polygon fill="#000000" stroke="#000000" points="1816.4351,-731.4368 1824.4041,-738.4187 1822.5284,-727.9912 1816.4351,-731.4368"/>
</g>
<!-- partitionFullReplicaAssignmentForTopic&#45;&gt;partitionAssignments -->
<g id="edge25" class="edge">
<title>partitionFullReplicaAssignmentForTopic&#45;&gt;partitionAssignments</title>
<path fill="none" stroke="#000000" d="M1682.9746,-475.0934C1702.6766,-483.1514 1723.0176,-494.4446 1738,-510 1797.5309,-571.8079 1823.7817,-672.3779 1834.2861,-728.2724"/>
<polygon fill="#000000" stroke="#000000" points="1830.8515,-728.9486 1836.0687,-738.1699 1837.7406,-727.7078 1830.8515,-728.9486"/>
</g>
<!-- partitionStateMachine_handleStateChange&#45;&gt;channelMananger_sendRequest -->
<g id="edge35" class="edge">
<title>partitionStateMachine_handleStateChange&#45;&gt;channelMananger_sendRequest</title>
<path fill="none" stroke="#000000" d="M1416.6909,-250.1166C1462.2136,-266.639 1522.7163,-288.5983 1565.3719,-304.0802"/>
<polygon fill="#000000" stroke="#000000" points="1564.4053,-307.4527 1574.9995,-307.5745 1566.7936,-300.8727 1564.4053,-307.4527"/>
</g>
<!-- sendRequestsToBrokers&#45;&gt;channelMananger_sendRequest -->
<g id="edge33" class="edge">
<title>sendRequestsToBrokers&#45;&gt;channelMananger_sendRequest</title>
<path fill="none" stroke="#000000" d="M1460.5823,-330.7124C1496.4053,-328.9517 1534.7318,-327.068 1564.5395,-325.603"/>
<polygon fill="#000000" stroke="#000000" points="1564.8934,-329.0899 1574.7095,-325.1031 1564.5497,-322.0983 1564.8934,-329.0899"/>
</g>
<!-- broker1_KafkaApi -->
<g id="node28" class="node">
<title>broker1_KafkaApi</title>
<polygon fill="none" stroke="#000000" points="1875.5,-142 1805.5,-142 1805.5,-106 1875.5,-106 1875.5,-142"/>
<text text-anchor="middle" x="1840.5" y="-120.3" font-family="Times,serif" font-size="14.00" fill="#000000">KafkaApi</text>
</g>
<!-- channelMananger_sendRequest&#45;&gt;broker1_KafkaApi -->
<g id="edge39" class="edge">
<title>channelMananger_sendRequest&#45;&gt;broker1_KafkaApi</title>
<path fill="none" stroke="#000000" d="M1637.6831,-304.9891C1677.6338,-269.338 1766.8601,-189.7145 1812.4769,-149.0071"/>
<polygon fill="#000000" stroke="#000000" points="1815.0711,-151.3832 1820.2019,-142.1136 1810.4103,-146.1604 1815.0711,-151.3832"/>
</g>
<!-- broker2_KafkaApi -->
<g id="node29" class="node">
<title>broker2_KafkaApi</title>
<polygon fill="none" stroke="#000000" points="1875.5,-52 1805.5,-52 1805.5,-16 1875.5,-16 1875.5,-52"/>
<text text-anchor="middle" x="1840.5" y="-30.3" font-family="Times,serif" font-size="14.00" fill="#000000">KafkaApi</text>
</g>
<!-- channelMananger_sendRequest&#45;&gt;broker2_KafkaApi -->
<g id="edge40" class="edge">
<title>channelMananger_sendRequest&#45;&gt;broker2_KafkaApi</title>
<path fill="none" stroke="#000000" d="M1627.9434,-304.7295C1651.3553,-264.5109 1710.9488,-166.162 1774,-94 1784.8068,-81.6316 1798.0167,-69.2554 1809.8068,-58.9833"/>
<polygon fill="#000000" stroke="#000000" points="1812.3724,-61.3945 1817.6955,-52.234 1807.8216,-56.0756 1812.3724,-61.3945"/>
</g>
<!-- processPartitionReassignmentIsrChange -->
<g id="node27" class="node">
<title>processPartitionReassignmentIsrChange</title>
<polygon fill="none" stroke="#000000" points="141,-535 141,-611 377,-611 377,-535 141,-535"/>
<text text-anchor="middle" x="259" y="-595.8" font-family="Times,serif" font-size="14.00" fill="#000000">processPartitionReassignmentIsrChange</text>
<polyline fill="none" stroke="#000000" points="141,-588 377,-588 "/>
<text text-anchor="start" x="149" y="-572.8" font-family="Times,serif" font-size="14.00" fill="#000000">zk中的isr发生了变化</text>
<text text-anchor="start" x="149" y="-557.8" font-family="Times,serif" font-size="14.00" fill="#000000"> 如果该partition处于</text>
<text text-anchor="start" x="149" y="-542.8" font-family="Times,serif" font-size="14.00" fill="#000000"> partitionBeingRessigned队列中</text>
</g>
<!-- processPartitionReassignmentIsrChange&#45;&gt;onPartitionReassignment -->
<g id="edge38" class="edge">
<title>processPartitionReassignmentIsrChange&#45;&gt;onPartitionReassignment</title>
<path fill="none" stroke="#000000" d="M377.2885,-573C385.8542,-573 394.3975,-573 402.729,-573"/>
<polygon fill="#000000" stroke="#000000" points="402.7738,-576.5001 412.7737,-573 402.7737,-569.5001 402.7738,-576.5001"/>
</g>
<!-- zk_partitionState -->
<g id="node30" class="node">
<title>zk_partitionState</title>
<polygon fill="none" stroke="#000000" points="105,-591 16,-591 16,-555 105,-555 105,-591"/>
<text text-anchor="middle" x="60.5" y="-569.3" font-family="Times,serif" font-size="14.00" fill="#000000">partitionState</text>
</g>
<!-- zk_partitionState&#45;&gt;processPartitionReassignmentIsrChange -->
<g id="edge41" class="edge">
<title>zk_partitionState&#45;&gt;processPartitionReassignmentIsrChange</title>
<path fill="none" stroke="#000000" d="M105.0473,-573C113.1058,-573 121.864,-573 130.9765,-573"/>
<polygon fill="#000000" stroke="#000000" points="130.9872,-576.5001 140.9872,-573 130.9871,-569.5001 130.9872,-576.5001"/>
</g>
</g>
</svg>
