<?xml version="1.0" encoding="UTF-8" standalone="no"?>
<!DOCTYPE svg PUBLIC "-//W3C//DTD SVG 1.1//EN"
 "http://www.w3.org/Graphics/SVG/1.1/DTD/svg11.dtd">
<!-- Generated by graphviz version 2.40.1 (20161225.0304)
 -->
<!-- Title: partition_target_state Pages: 1 -->
<svg width="1323pt" height="468pt"
 viewBox="0.00 0.00 1323.00 467.50" xmlns="http://www.w3.org/2000/svg" xmlns:xlink="http://www.w3.org/1999/xlink">
<g id="graph0" class="graph" transform="scale(1 1) rotate(0) translate(4 463.5)">
<title>partition_target_state</title>
<polygon fill="#ffffff" stroke="transparent" points="-4,4 -4,-463.5 1319,-463.5 1319,4 -4,4"/>
<g id="clust1" class="cluster">
<title>cluster_PartitionStateMachine</title>
<polygon fill="none" stroke="#000000" points="470.5,-126 470.5,-260 1307,-260 1307,-126 470.5,-126"/>
<text text-anchor="middle" x="888.75" y="-240" font-family="Times,serif" font-size="20.00" fill="#000000">PartitionStateMachine</text>
</g>
<g id="clust4" class="cluster">
<title>cluster_zk</title>
<polygon fill="none" stroke="#000000" points="8,-210 8,-346 207,-346 207,-210 8,-210"/>
<text text-anchor="middle" x="107.5" y="-326" font-family="Times,serif" font-size="20.00" fill="#000000">zk</text>
</g>
<!-- NonExistentPartition -->
<g id="node1" class="node">
<title>NonExistentPartition</title>
<polygon fill="none" stroke="#000000" points="478.5,-145.5 478.5,-206.5 627.5,-206.5 627.5,-145.5 478.5,-145.5"/>
<text text-anchor="middle" x="553" y="-191.3" font-family="Times,serif" font-size="14.00" fill="#000000">NonExistentPartition</text>
<polyline fill="none" stroke="#000000" points="478.5,-183.5 627.5,-183.5 "/>
<text text-anchor="start" x="486.5" y="-168.3" font-family="Times,serif" font-size="14.00" fill="#000000">partition不存在，或者</text>
<text text-anchor="middle" x="553" y="-153.3" font-family="Times,serif" font-size="14.00" fill="#000000"> 创建之后又被删掉了</text>
</g>
<!-- NewPartition -->
<g id="node2" class="node">
<title>NewPartition</title>
<polygon fill="none" stroke="#000000" points="757,-175 757,-221 876,-221 876,-175 757,-175"/>
<text text-anchor="middle" x="816.5" y="-205.8" font-family="Times,serif" font-size="14.00" fill="#000000">NewPartition</text>
<polyline fill="none" stroke="#000000" points="757,-198 876,-198 "/>
<text text-anchor="middle" x="816.5" y="-182.8" font-family="Times,serif" font-size="14.00" fill="#000000">parition 新建状态</text>
</g>
<!-- NonExistentPartition&#45;&gt;NewPartition -->
<g id="edge2" class="edge">
<title>NonExistentPartition&#45;&gt;NewPartition</title>
<path fill="none" stroke="#000000" d="M627.8037,-182.2455C665.2154,-185.369 710.213,-189.1259 746.8822,-192.1875"/>
<polygon fill="#000000" stroke="#000000" points="746.7341,-195.6872 756.9907,-193.0315 747.3166,-188.7115 746.7341,-195.6872"/>
</g>
<!-- OnlinePartition -->
<g id="node3" class="node">
<title>OnlinePartition</title>
<polygon fill="none" stroke="#000000" points="978,-175 978,-221 1082,-221 1082,-175 978,-175"/>
<text text-anchor="middle" x="1030" y="-205.8" font-family="Times,serif" font-size="14.00" fill="#000000">OnlinePartition</text>
<polyline fill="none" stroke="#000000" points="978,-198 1082,-198 "/>
<text text-anchor="middle" x="1030" y="-182.8" font-family="Times,serif" font-size="14.00" fill="#000000">leader is elected</text>
</g>
<!-- NewPartition&#45;&gt;OnlinePartition -->
<g id="edge3" class="edge">
<title>NewPartition&#45;&gt;OnlinePartition</title>
<path fill="none" stroke="#000000" d="M876.2555,-198C904.7115,-198 938.7336,-198 967.5305,-198"/>
<polygon fill="#000000" stroke="#000000" points="967.8836,-201.5001 977.8835,-198 967.8835,-194.5001 967.8836,-201.5001"/>
</g>
<!-- OfflinePartition -->
<g id="node4" class="node">
<title>OfflinePartition</title>
<polygon fill="none" stroke="#000000" points="1118,-175 1118,-221 1299,-221 1299,-175 1118,-175"/>
<text text-anchor="middle" x="1208.5" y="-205.8" font-family="Times,serif" font-size="14.00" fill="#000000">OfflinePartition</text>
<polyline fill="none" stroke="#000000" points="1118,-198 1299,-198 "/>
<text text-anchor="middle" x="1208.5" y="-182.8" font-family="Times,serif" font-size="14.00" fill="#000000">partition选举好的leader挂了</text>
</g>
<!-- NewPartition&#45;&gt;OfflinePartition -->
<g id="edge5" class="edge">
<title>NewPartition&#45;&gt;OfflinePartition</title>
<path fill="none" stroke="#000000" d="M876.094,-182.0022C929.9141,-169.5995 1011.2812,-155.9276 1082,-165 1095.4054,-166.7197 1109.4187,-169.4249 1123.0319,-172.564"/>
<polygon fill="#000000" stroke="#000000" points="1122.319,-175.9922 1132.8593,-174.9186 1123.95,-169.1849 1122.319,-175.9922"/>
</g>
<!-- OnlinePartition&#45;&gt;OfflinePartition -->
<g id="edge6" class="edge">
<title>OnlinePartition&#45;&gt;OfflinePartition</title>
<path fill="none" stroke="#000000" d="M1082.1094,-191.7989C1090.1713,-191.5465 1098.7253,-191.3812 1107.4319,-191.3029"/>
<polygon fill="#000000" stroke="#000000" points="1107.7205,-194.8016 1117.7027,-191.2509 1107.6851,-187.8016 1107.7205,-194.8016"/>
</g>
<!-- OfflinePartition&#45;&gt;NonExistentPartition -->
<g id="edge1" class="edge">
<title>OfflinePartition&#45;&gt;NonExistentPartition</title>
<path fill="none" stroke="#000000" d="M1146.949,-174.9853C1126.5755,-168.4617 1103.5891,-162.2524 1082,-159 926.5763,-135.5852 742.6751,-151.0508 637.7436,-163.8926"/>
<polygon fill="#000000" stroke="#000000" points="637.0183,-160.4558 627.5277,-165.1652 637.8837,-167.4021 637.0183,-160.4558"/>
</g>
<!-- OfflinePartition&#45;&gt;OnlinePartition -->
<g id="edge4" class="edge">
<title>OfflinePartition&#45;&gt;OnlinePartition</title>
<path fill="none" stroke="#000000" d="M1117.7027,-204.7491C1109.1192,-204.7391 1100.5547,-204.6458 1092.3271,-204.4693"/>
<polygon fill="#000000" stroke="#000000" points="1092.1978,-200.9648 1082.1094,-204.2011 1092.0141,-207.9624 1092.1978,-200.9648"/>
</g>
<!-- onPartitionReassignment -->
<g id="node5" class="node">
<title>onPartitionReassignment</title>
<polygon fill="none" stroke="#000000" points="476.5,-54.5 476.5,-115.5 629.5,-115.5 629.5,-54.5 476.5,-54.5"/>
<text text-anchor="middle" x="553" y="-100.3" font-family="Times,serif" font-size="14.00" fill="#000000">onPartitionReassignment</text>
<polyline fill="none" stroke="#000000" points="476.5,-92.5 629.5,-92.5 "/>
<text text-anchor="start" x="484.5" y="-77.3" font-family="Times,serif" font-size="14.00" fill="#000000">parition replica迁移</text>
<text text-anchor="middle" x="553" y="-62.3" font-family="Times,serif" font-size="14.00" fill="#000000"> 可能leader也需要迁移</text>
</g>
<!-- moveReassignedPartitionLeaderIfRequired -->
<g id="node6" class="node">
<title>moveReassignedPartitionLeaderIfRequired</title>
<polygon fill="none" stroke="#000000" points="691,-54.5 691,-115.5 942,-115.5 942,-54.5 691,-54.5"/>
<text text-anchor="start" x="699" y="-100.3" font-family="Times,serif" font-size="14.00" fill="#000000">moveReassignedPartitionLeaderIfRequired</text>
<polyline fill="none" stroke="#000000" points="691,-92.5 942,-92.5 "/>
<text text-anchor="start" x="699" y="-77.3" font-family="Times,serif" font-size="14.00" fill="#000000">可能leader也需要迁移</text>
<text text-anchor="start" x="699" y="-62.3" font-family="Times,serif" font-size="14.00" fill="#000000">重新选举新的leader</text>
</g>
<!-- onPartitionReassignment&#45;&gt;moveReassignedPartitionLeaderIfRequired -->
<g id="edge12" class="edge">
<title>onPartitionReassignment&#45;&gt;moveReassignedPartitionLeaderIfRequired</title>
<path fill="none" stroke="#000000" d="M629.5691,-85C645.5738,-85 662.9046,-85 680.3385,-85"/>
<polygon fill="#000000" stroke="#000000" points="680.606,-88.5001 690.6059,-85 680.6059,-81.5001 680.606,-88.5001"/>
</g>
<!-- moveReassignedPartitionLeaderIfRequired&#45;&gt;OnlinePartition -->
<g id="edge13" class="edge">
<title>moveReassignedPartitionLeaderIfRequired&#45;&gt;OnlinePartition</title>
<path fill="none" stroke="#000000" d="M929.0194,-115.5175C933.4678,-117.5559 937.8127,-119.715 942,-122 963.7763,-133.8831 984.9243,-151.8709 1001.029,-167.364"/>
<polygon fill="#000000" stroke="#000000" points="998.9296,-170.2087 1008.5105,-174.7316 1003.8412,-165.2212 998.9296,-170.2087"/>
</g>
<!-- onBrokerFailure -->
<g id="node7" class="node">
<title>onBrokerFailure</title>
<polygon fill="none" stroke="#000000" points="54.5,-413 54.5,-459 160.5,-459 160.5,-413 54.5,-413"/>
<text text-anchor="middle" x="107.5" y="-443.8" font-family="Times,serif" font-size="14.00" fill="#000000">onBrokerFailure</text>
<polyline fill="none" stroke="#000000" points="54.5,-436 160.5,-436 "/>
<text text-anchor="start" x="62.5" y="-420.8" font-family="Times,serif" font-size="14.00" fill="#000000">broker 故障</text>
</g>
<!-- onReplicaBecomeOffline -->
<g id="node8" class="node">
<title>onReplicaBecomeOffline</title>
<polygon fill="none" stroke="#000000" points="237.5,-413 237.5,-459 412.5,-459 412.5,-413 237.5,-413"/>
<text text-anchor="middle" x="325" y="-443.8" font-family="Times,serif" font-size="14.00" fill="#000000">onReplicaBecomeOffline</text>
<polyline fill="none" stroke="#000000" points="237.5,-436 412.5,-436 "/>
<text text-anchor="start" x="245.5" y="-420.8" font-family="Times,serif" font-size="14.00" fill="#000000">标记给定的replica为offline</text>
</g>
<!-- onBrokerFailure&#45;&gt;onReplicaBecomeOffline -->
<g id="edge19" class="edge">
<title>onBrokerFailure&#45;&gt;onReplicaBecomeOffline</title>
<path fill="none" stroke="#000000" d="M160.7065,-436C180.7544,-436 204.2447,-436 227.0905,-436"/>
<polygon fill="#000000" stroke="#000000" points="227.1773,-439.5001 237.1773,-436 227.1772,-432.5001 227.1773,-439.5001"/>
</g>
<!-- onReplicaBecomeOffline&#45;&gt;OfflinePartition -->
<g id="edge16" class="edge">
<title>onReplicaBecomeOffline&#45;&gt;OfflinePartition</title>
<path fill="none" stroke="#000000" d="M412.5587,-440.1189C533.5053,-443.6422 757.6495,-442.3356 942,-397 1007.5683,-380.8754 1026.9446,-377.0911 1082,-338 1124.7253,-307.6637 1163.447,-260.5777 1186.4869,-229.5184"/>
<polygon fill="#000000" stroke="#000000" points="1189.4842,-231.3489 1192.5598,-221.2103 1183.8329,-227.218 1189.4842,-231.3489"/>
</g>
<!-- triggerOnlinePartitionStateChange -->
<g id="node12" class="node">
<title>triggerOnlinePartitionStateChange</title>
<polygon fill="none" stroke="#000000" points="655,-412 451,-412 451,-376 655,-376 655,-412"/>
<text text-anchor="middle" x="553" y="-390.3" font-family="Times,serif" font-size="14.00" fill="#000000">triggerOnlinePartitionStateChange</text>
</g>
<!-- onReplicaBecomeOffline&#45;&gt;triggerOnlinePartitionStateChange -->
<g id="edge20" class="edge">
<title>onReplicaBecomeOffline&#45;&gt;triggerOnlinePartitionStateChange</title>
<path fill="none" stroke="#000000" d="M412.8246,-419.8218C423.3896,-417.8756 434.2715,-415.871 445.0804,-413.8799"/>
<polygon fill="#000000" stroke="#000000" points="445.7748,-417.311 454.9752,-412.0572 444.5066,-410.4268 445.7748,-417.311"/>
</g>
<!-- TopicChangeHandler -->
<g id="node9" class="node">
<title>TopicChangeHandler</title>
<polygon fill="none" stroke="#000000" points="174,-254 41,-254 41,-218 174,-218 174,-254"/>
<text text-anchor="middle" x="107.5" y="-232.3" font-family="Times,serif" font-size="14.00" fill="#000000">TopicChangeHandler</text>
</g>
<!-- processTopicChange -->
<g id="node14" class="node">
<title>processTopicChange</title>
<polygon fill="none" stroke="#000000" points="390,-254 260,-254 260,-218 390,-218 390,-254"/>
<text text-anchor="middle" x="325" y="-232.3" font-family="Times,serif" font-size="14.00" fill="#000000">processTopicChange</text>
</g>
<!-- TopicChangeHandler&#45;&gt;processTopicChange -->
<g id="edge21" class="edge">
<title>TopicChangeHandler&#45;&gt;processTopicChange</title>
<path fill="none" stroke="#000000" d="M174.2353,-236C198.1612,-236 225.2933,-236 249.8813,-236"/>
<polygon fill="#000000" stroke="#000000" points="249.8845,-239.5001 259.8844,-236 249.8844,-232.5001 249.8845,-239.5001"/>
</g>
<!-- PartitionModificationsHandler -->
<g id="node10" class="node">
<title>PartitionModificationsHandler</title>
<polygon fill="none" stroke="#000000" points="199,-308 16,-308 16,-272 199,-272 199,-308"/>
<text text-anchor="middle" x="107.5" y="-286.3" font-family="Times,serif" font-size="14.00" fill="#000000">PartitionModificationsHandler</text>
</g>
<!-- processPartitionModifications -->
<g id="node15" class="node">
<title>processPartitionModifications</title>
<polygon fill="none" stroke="#000000" points="415,-308 235,-308 235,-272 415,-272 415,-308"/>
<text text-anchor="middle" x="325" y="-286.3" font-family="Times,serif" font-size="14.00" fill="#000000">processPartitionModifications</text>
</g>
<!-- PartitionModificationsHandler&#45;&gt;processPartitionModifications -->
<g id="edge22" class="edge">
<title>PartitionModificationsHandler&#45;&gt;processPartitionModifications</title>
<path fill="none" stroke="#000000" d="M199.1092,-290C207.6205,-290 216.2755,-290 224.8585,-290"/>
<polygon fill="#000000" stroke="#000000" points="224.8883,-293.5001 234.8883,-290 224.8882,-286.5001 224.8883,-293.5001"/>
</g>
<!-- startup -->
<g id="node11" class="node">
<title>startup</title>
<polygon fill="none" stroke="#000000" points="248.5,-341 248.5,-387 401.5,-387 401.5,-341 248.5,-341"/>
<text text-anchor="middle" x="325" y="-371.8" font-family="Times,serif" font-size="14.00" fill="#000000">startup</text>
<polyline fill="none" stroke="#000000" points="248.5,-364 401.5,-364 "/>
<text text-anchor="start" x="256.5" y="-348.8" font-family="Times,serif" font-size="14.00" fill="#000000">partition machine startup</text>
</g>
<!-- startup&#45;&gt;triggerOnlinePartitionStateChange -->
<g id="edge7" class="edge">
<title>startup&#45;&gt;triggerOnlinePartitionStateChange</title>
<path fill="none" stroke="#000000" d="M401.555,-374.073C414.132,-375.7279 427.393,-377.4728 440.6248,-379.2138"/>
<polygon fill="#000000" stroke="#000000" points="440.3546,-382.7083 450.7258,-380.5429 441.2679,-375.7681 440.3546,-382.7083"/>
</g>
<!-- initializePartitionState -->
<g id="node20" class="node">
<title>initializePartitionState</title>
<polygon fill="none" stroke="#000000" points="621.5,-358 484.5,-358 484.5,-322 621.5,-322 621.5,-358"/>
<text text-anchor="middle" x="553" y="-336.3" font-family="Times,serif" font-size="14.00" fill="#000000">initializePartitionState</text>
</g>
<!-- startup&#45;&gt;initializePartitionState -->
<g id="edge24" class="edge">
<title>startup&#45;&gt;initializePartitionState</title>
<path fill="none" stroke="#000000" d="M401.555,-355.9416C424.9867,-353.4751 450.7928,-350.7587 474.3609,-348.2778"/>
<polygon fill="#000000" stroke="#000000" points="474.7325,-351.7581 484.3111,-347.2304 473.9996,-344.7966 474.7325,-351.7581"/>
</g>
<!-- triggerOnlinePartitionStateChange&#45;&gt;OfflinePartition -->
<g id="edge17" class="edge">
<title>triggerOnlinePartitionStateChange&#45;&gt;OfflinePartition</title>
<path fill="none" stroke="#000000" d="M655.1404,-400.4153C735.1625,-402.2616 848.2544,-397.7777 942,-367 1034.0152,-336.7904 1126.0259,-267.719 1174.1637,-227.8602"/>
<polygon fill="#000000" stroke="#000000" points="1176.6434,-230.3491 1182.0692,-221.249 1172.1527,-224.9793 1176.6434,-230.3491"/>
</g>
<!-- triggerOnlineStateChangeForPartitions -->
<g id="node13" class="node">
<title>triggerOnlineStateChangeForPartitions</title>
<polygon fill="none" stroke="#000000" points="930.5,-358 702.5,-358 702.5,-322 930.5,-322 930.5,-358"/>
<text text-anchor="middle" x="816.5" y="-336.3" font-family="Times,serif" font-size="14.00" fill="#000000">triggerOnlineStateChangeForPartitions</text>
</g>
<!-- triggerOnlinePartitionStateChange&#45;&gt;triggerOnlineStateChangeForPartitions -->
<g id="edge8" class="edge">
<title>triggerOnlinePartitionStateChange&#45;&gt;triggerOnlineStateChangeForPartitions</title>
<path fill="none" stroke="#000000" d="M641.108,-375.9437C665.9389,-370.855 693.1015,-365.2885 718.4748,-360.0887"/>
<polygon fill="#000000" stroke="#000000" points="719.3813,-363.4757 728.475,-358.0393 717.9759,-356.6182 719.3813,-363.4757"/>
</g>
<!-- triggerOnlineStateChangeForPartitions&#45;&gt;OnlinePartition -->
<g id="edge14" class="edge">
<title>triggerOnlineStateChangeForPartitions&#45;&gt;OnlinePartition</title>
<path fill="none" stroke="#000000" d="M848.243,-321.9482C873.9452,-307.0545 910.8646,-285.028 942,-264 958.9585,-252.5467 977.1384,-239.1178 992.5459,-227.374"/>
<polygon fill="#000000" stroke="#000000" points="994.9908,-229.9098 1000.7951,-221.0463 990.7303,-224.3556 994.9908,-229.9098"/>
</g>
<!-- onNewPartitionCreation -->
<g id="node16" class="node">
<title>onNewPartitionCreation</title>
<polygon fill="none" stroke="#000000" points="627.5,-304 478.5,-304 478.5,-268 627.5,-268 627.5,-304"/>
<text text-anchor="middle" x="553" y="-282.3" font-family="Times,serif" font-size="14.00" fill="#000000">onNewPartitionCreation</text>
</g>
<!-- processTopicChange&#45;&gt;onNewPartitionCreation -->
<g id="edge9" class="edge">
<title>processTopicChange&#45;&gt;onNewPartitionCreation</title>
<path fill="none" stroke="#000000" d="M390.0545,-250.5378C409.639,-254.8924 431.1895,-259.6625 451,-264 456.6684,-265.2411 462.5151,-266.516 468.4069,-267.7969"/>
<polygon fill="#000000" stroke="#000000" points="467.8263,-271.2523 478.3412,-269.9533 469.3112,-264.4116 467.8263,-271.2523"/>
</g>
<!-- processPartitionModifications&#45;&gt;onNewPartitionCreation -->
<g id="edge10" class="edge">
<title>processPartitionModifications&#45;&gt;onNewPartitionCreation</title>
<path fill="none" stroke="#000000" d="M415.1116,-288.4191C432.5922,-288.1124 450.8575,-287.792 468.1617,-287.4884"/>
<polygon fill="#000000" stroke="#000000" points="468.2889,-290.9868 478.2259,-287.3118 468.166,-283.9879 468.2889,-290.9868"/>
</g>
<!-- onNewPartitionCreation&#45;&gt;NewPartition -->
<g id="edge11" class="edge">
<title>onNewPartitionCreation&#45;&gt;NewPartition</title>
<path fill="none" stroke="#000000" d="M627.7572,-273.8022C637.1323,-271.1385 646.4295,-267.9095 655,-264 673.1962,-255.6996 673.1904,-246.1005 691,-237 708.4744,-228.0708 728.3728,-220.7394 747.0941,-214.94"/>
<polygon fill="#000000" stroke="#000000" points="748.1819,-218.2679 756.7578,-212.0466 746.174,-211.562 748.1819,-218.2679"/>
</g>
<!-- doControlledShutdown -->
<g id="node17" class="node">
<title>doControlledShutdown</title>
<polygon fill="none" stroke="#000000" points="888,-36 745,-36 745,0 888,0 888,-36"/>
<text text-anchor="middle" x="816.5" y="-14.3" font-family="Times,serif" font-size="14.00" fill="#000000">doControlledShutdown</text>
</g>
<!-- doControlledShutdown&#45;&gt;OnlinePartition -->
<g id="edge15" class="edge">
<title>doControlledShutdown&#45;&gt;OnlinePartition</title>
<path fill="none" stroke="#000000" d="M888.2168,-22.8907C907.0497,-26.8698 926.4271,-33.6366 942,-45 982.891,-74.8377 1007.6519,-129.876 1020.073,-165.1675"/>
<polygon fill="#000000" stroke="#000000" points="1016.8776,-166.6445 1023.3943,-174.9982 1023.5093,-164.4039 1016.8776,-166.6445"/>
</g>
<!-- onTopicDeletion -->
<g id="node18" class="node">
<title>onTopicDeletion</title>
<polygon fill="none" stroke="#000000" points="379,-194 271,-194 271,-158 379,-158 379,-194"/>
<text text-anchor="middle" x="325" y="-172.3" font-family="Times,serif" font-size="14.00" fill="#000000">onTopicDeletion</text>
</g>
<!-- onTopicDeletion&#45;&gt;NonExistentPartition -->
<g id="edge18" class="edge">
<title>onTopicDeletion&#45;&gt;NonExistentPartition</title>
<path fill="none" stroke="#000000" d="M379.0328,-176C405.6527,-176 438.3711,-176 468.2227,-176"/>
<polygon fill="#000000" stroke="#000000" points="468.2235,-179.5001 478.2234,-176 468.2234,-172.5001 468.2235,-179.5001"/>
</g>
<!-- processControlledShutdown -->
<g id="node19" class="node">
<title>processControlledShutdown</title>
<polygon fill="none" stroke="#000000" points="638,-36 468,-36 468,0 638,0 638,-36"/>
<text text-anchor="middle" x="553" y="-14.3" font-family="Times,serif" font-size="14.00" fill="#000000">processControlledShutdown</text>
</g>
<!-- processControlledShutdown&#45;&gt;doControlledShutdown -->
<g id="edge23" class="edge">
<title>processControlledShutdown&#45;&gt;doControlledShutdown</title>
<path fill="none" stroke="#000000" d="M638.187,-18C669.1228,-18 703.9893,-18 734.6321,-18"/>
<polygon fill="#000000" stroke="#000000" points="734.8503,-21.5001 744.8503,-18 734.8502,-14.5001 734.8503,-21.5001"/>
</g>
<!-- initializePartitionState&#45;&gt;NewPartition -->
<g id="edge25" class="edge">
<title>initializePartitionState&#45;&gt;NewPartition</title>
<path fill="none" stroke="#000000" d="M621.7359,-330.5873C633.735,-326.6014 645.4216,-320.9635 655,-313 683.7401,-289.1055 662.7745,-261.5001 691,-237 706.7698,-223.3116 727.3046,-214.426 747.1818,-208.6586"/>
<polygon fill="#000000" stroke="#000000" points="748.1063,-212.0344 756.863,-206.0704 746.2983,-205.2719 748.1063,-212.0344"/>
</g>
<!-- initializePartitionState&#45;&gt;OnlinePartition -->
<g id="edge26" class="edge">
<title>initializePartitionState&#45;&gt;OnlinePartition</title>
<path fill="none" stroke="#000000" d="M621.5764,-327.0482C633.1414,-323.421 644.7175,-318.8199 655,-313 674.4204,-302.0081 671.2078,-288.3074 691,-278 791.7353,-225.539 832.5033,-260.17 942,-230 950.5403,-227.6469 959.432,-224.8456 968.1386,-221.8936"/>
<polygon fill="#000000" stroke="#000000" points="969.5659,-225.103 977.8614,-218.5125 967.2666,-218.4913 969.5659,-225.103"/>
</g>
<!-- initializePartitionState&#45;&gt;OfflinePartition -->
<g id="edge27" class="edge">
<title>initializePartitionState&#45;&gt;OfflinePartition</title>
<path fill="none" stroke="#000000" d="M621.7491,-326.327C643.8478,-321.9914 668.445,-317.2281 691,-313 802.3939,-292.1186 831.3269,-292.4154 942,-268 1000.9159,-255.0027 1066.4644,-237.8218 1117.8104,-223.7342"/>
<polygon fill="#000000" stroke="#000000" points="1118.8434,-227.0801 1127.5554,-221.0509 1116.985,-220.3313 1118.8434,-227.0801"/>
</g>
</g>
</svg>
