<?xml version="1.0" encoding="UTF-8" standalone="no"?>
<!DOCTYPE svg PUBLIC "-//W3C//DTD SVG 1.1//EN"
 "http://www.w3.org/Graphics/SVG/1.1/DTD/svg11.dtd">
<!-- Generated by graphviz version 2.40.1 (20161225.0304)
 -->
<!-- Title: txn_message Pages: 1 -->
<svg width="814pt" height="284pt"
 viewBox="0.00 0.00 814.02 283.50" xmlns="http://www.w3.org/2000/svg" xmlns:xlink="http://www.w3.org/1999/xlink">
<g id="graph0" class="graph" transform="scale(1 1) rotate(0) translate(4 279.5)">
<title>txn_message</title>
<polygon fill="#ffffff" stroke="transparent" points="-4,4 -4,-279.5 810.0166,-279.5 810.0166,4 -4,4"/>
<!-- TxnTransitMetadata -->
<g id="node1" class="node">
<title>TxnTransitMetadata</title>
<polygon fill="none" stroke="#000000" points="530.4766,-.5 530.4766,-220.5 806.0166,-220.5 806.0166,-.5 530.4766,-.5"/>
<text text-anchor="middle" x="668.2466" y="-205.3" font-family="Times,serif" font-size="14.00" fill="#000000">TxnTransitMetadata</text>
<polyline fill="none" stroke="#000000" points="530.4766,-198.5 806.0166,-198.5 "/>
<text text-anchor="start" x="538.4766" y="-183.3" font-family="Times,serif" font-size="14.00" fill="#000000">producerId: Long</text>
<polyline fill="none" stroke="#000000" points="530.4766,-176.5 806.0166,-176.5 "/>
<text text-anchor="start" x="538.4766" y="-161.3" font-family="Times,serif" font-size="14.00" fill="#000000">lastProducerId: Long</text>
<polyline fill="none" stroke="#000000" points="530.4766,-154.5 806.0166,-154.5 "/>
<text text-anchor="start" x="538.4766" y="-139.3" font-family="Times,serif" font-size="14.00" fill="#000000">producerEpoch: Short</text>
<polyline fill="none" stroke="#000000" points="530.4766,-132.5 806.0166,-132.5 "/>
<text text-anchor="start" x="538.4766" y="-117.3" font-family="Times,serif" font-size="14.00" fill="#000000">lastProducerEpoch: Short</text>
<polyline fill="none" stroke="#000000" points="530.4766,-110.5 806.0166,-110.5 "/>
<text text-anchor="start" x="538.4766" y="-95.3" font-family="Times,serif" font-size="14.00" fill="#000000">txnTimeoutMs: Int</text>
<polyline fill="none" stroke="#000000" points="530.4766,-88.5 806.0166,-88.5 "/>
<text text-anchor="start" x="538.4766" y="-73.3" font-family="Times,serif" font-size="14.00" fill="#000000">txnState: TransactionState</text>
<polyline fill="none" stroke="#000000" points="530.4766,-66.5 806.0166,-66.5 "/>
<text text-anchor="start" x="538.4766" y="-51.3" font-family="Times,serif" font-size="14.00" fill="#000000">topicPartitions: immutable.Set[TopicPartition]</text>
<polyline fill="none" stroke="#000000" points="530.4766,-44.5 806.0166,-44.5 "/>
<text text-anchor="start" x="538.4766" y="-29.3" font-family="Times,serif" font-size="14.00" fill="#000000">txnStartTimestamp: Long</text>
<polyline fill="none" stroke="#000000" points="530.4766,-22.5 806.0166,-22.5 "/>
<text text-anchor="start" x="538.4766" y="-7.3" font-family="Times,serif" font-size="14.00" fill="#000000">txnLastUpdateTimestamp: Long</text>
</g>
<!-- TransactionLog -->
<g id="node2" class="node">
<title>TransactionLog</title>
<polygon fill="none" stroke="#000000" points="195.1514,-176.5 195.1514,-212.5 404.4766,-212.5 404.4766,-176.5 195.1514,-176.5"/>
<text text-anchor="middle" x="247.2261" y="-190.3" font-family="Times,serif" font-size="14.00" fill="#000000">TransactionLog</text>
<polyline fill="none" stroke="#000000" points="299.3008,-176.5 299.3008,-212.5 "/>
<text text-anchor="middle" x="318.9697" y="-190.3" font-family="Times,serif" font-size="14.00" fill="#000000">msg</text>
<polyline fill="none" stroke="#000000" points="338.6387,-176.5 338.6387,-212.5 "/>
<text text-anchor="middle" x="358.3076" y="-190.3" font-family="Times,serif" font-size="14.00" fill="#000000">msg</text>
<polyline fill="none" stroke="#000000" points="377.9766,-176.5 377.9766,-212.5 "/>
<text text-anchor="middle" x="391.2266" y="-190.3" font-family="Times,serif" font-size="14.00" fill="#000000">...</text>
</g>
<!-- Msg -->
<g id="node3" class="node">
<title>Msg</title>
<polygon fill="none" stroke="#000000" points="440.4766,-161.5 440.4766,-227.5 494.4766,-227.5 494.4766,-161.5 440.4766,-161.5"/>
<text text-anchor="middle" x="467.1353" y="-212.3" font-family="Times,serif" font-size="14.00" fill="#000000">Msg</text>
<polyline fill="none" stroke="#000000" points="440.4766,-205.5 493.7939,-205.5 "/>
<text text-anchor="start" x="448.4766" y="-190.3" font-family="Times,serif" font-size="14.00" fill="#000000">key</text>
<polyline fill="none" stroke="#000000" points="440.4766,-183.5 493.7939,-183.5 "/>
<text text-anchor="middle" x="467.1353" y="-168.3" font-family="Times,serif" font-size="14.00" fill="#000000">value</text>
</g>
<!-- TransactionLog&#45;&gt;Msg -->
<g id="edge1" class="edge">
<title>TransactionLog:msg&#45;&gt;Msg</title>
<path fill="none" stroke="#000000" d="M357.814,-176.5C357.814,-146.1212 399.3001,-159.9219 431.2389,-175.0479"/>
<polygon fill="#000000" stroke="#000000" points="429.8493,-178.2646 440.3689,-179.5248 432.9312,-171.9796 429.8493,-178.2646"/>
</g>
<!-- Msg&#45;&gt;TxnTransitMetadata -->
<g id="edge3" class="edge">
<title>Msg:val&#45;&gt;TxnTransitMetadata</title>
<path fill="none" stroke="#000000" d="M493.4766,-172.5C502.2484,-172.5 511.1327,-171.7977 520.0062,-170.5426"/>
<polygon fill="#000000" stroke="#000000" points="520.7132,-173.9735 530.0135,-168.8986 519.5784,-167.066 520.7132,-173.9735"/>
</g>
<!-- TransactionalId -->
<g id="node4" class="node">
<title>TransactionalId</title>
<polygon fill="none" stroke="#000000" points="720.1105,-275.5 616.3827,-275.5 616.3827,-239.5 720.1105,-239.5 720.1105,-275.5"/>
<text text-anchor="middle" x="668.2466" y="-253.3" font-family="Times,serif" font-size="14.00" fill="#000000">TransactionalId</text>
</g>
<!-- Msg&#45;&gt;TransactionalId -->
<g id="edge2" class="edge">
<title>Msg:key&#45;&gt;TransactionalId</title>
<path fill="none" stroke="#000000" d="M493.4766,-194.5C516.4204,-194.5 510.1533,-219.8519 530.4766,-230.5 553.7212,-242.6787 581.7825,-249.3892 606.4975,-253.0768"/>
<polygon fill="#000000" stroke="#000000" points="606.1211,-256.5577 616.5011,-254.4352 607.0631,-249.6214 606.1211,-256.5577"/>
</g>
<!-- appendTransactionToLog -->
<g id="node5" class="node">
<title>appendTransactionToLog</title>
<polygon fill="none" stroke="#000000" points="159.2271,-212.5 -.0758,-212.5 -.0758,-176.5 159.2271,-176.5 159.2271,-212.5"/>
<text text-anchor="middle" x="79.5757" y="-190.3" font-family="Times,serif" font-size="14.00" fill="#000000">appendTransactionToLog</text>
</g>
<!-- appendTransactionToLog&#45;&gt;TransactionLog -->
<g id="edge4" class="edge">
<title>appendTransactionToLog&#45;&gt;TransactionLog:msg</title>
<path fill="none" stroke="#000000" d="M117.9714,-176.4912C191.3179,-144.0524 345.1724,-86.2445 357.0804,-166.0717"/>
<polygon fill="#000000" stroke="#000000" points="353.6208,-166.7703 357.814,-176.5 360.6035,-166.279 353.6208,-166.7703"/>
</g>
</g>
</svg>
