<?xml version="1.0" encoding="UTF-8" standalone="no"?>
<!DOCTYPE svg PUBLIC "-//W3C//DTD SVG 1.1//EN"
 "http://www.w3.org/Graphics/SVG/1.1/DTD/svg11.dtd">
<!-- Generated by graphviz version 2.40.1 (20161225.0304)
 -->
<!-- Title: colmn_family Pages: 1 -->
<svg width="1556pt" height="300pt"
 viewBox="0.00 0.00 1555.87 300.24" xmlns="http://www.w3.org/2000/svg" xmlns:xlink="http://www.w3.org/1999/xlink">
<g id="graph0" class="graph" transform="scale(1 1) rotate(0) translate(4 296.2384)">
<title>colmn_family</title>
<polygon fill="#ffffff" stroke="transparent" points="-4,4 -4,-296.2384 1551.874,-296.2384 1551.874,4 -4,4"/>
<g id="clust1" class="cluster">
<title>cluster_Cache</title>
<polygon fill="none" stroke="#000000" points="792.6167,-35.2384 792.6167,-115.2384 1539.874,-115.2384 1539.874,-35.2384 792.6167,-35.2384"/>
<text text-anchor="middle" x="1166.2454" y="-95.2384" font-family="Times,serif" font-size="20.00" fill="#000000">Cache</text>
</g>
<g id="clust2" class="cluster">
<title>cluster_on</title>
<polygon fill="none" stroke="#000000" points="656.6235,-150.2384 656.6235,-284.2384 1392.2324,-284.2384 1392.2324,-150.2384 656.6235,-150.2384"/>
<text text-anchor="middle" x="1024.428" y="-264.2384" font-family="Times,serif" font-size="20.00" fill="#000000">Version</text>
</g>
<g id="clust4" class="cluster">
<title>cluster_MemTable</title>
<polygon fill="none" stroke="#000000" points="636.8984,-8.2384 636.8984,-142.2384 751.1211,-142.2384 751.1211,-8.2384 636.8984,-8.2384"/>
<text text-anchor="middle" x="694.0098" y="-122.2384" font-family="Times,serif" font-size="20.00" fill="#000000">MemTable</text>
</g>
<g id="clust5" class="cluster">
<title>cluster_ColumnFamily</title>
<polygon fill="none" stroke="#000000" points="89.8896,-35.2384 89.8896,-115.2384 616.8984,-115.2384 616.8984,-35.2384 89.8896,-35.2384"/>
<text text-anchor="middle" x="353.394" y="-95.2384" font-family="Times,serif" font-size="20.00" fill="#000000">ColumnFamily</text>
</g>
<!-- DBImpl -->
<g id="node1" class="node">
<title>DBImpl</title>
<polygon fill="none" stroke="#000000" points="61.8346,-79.2384 .0551,-79.2384 .0551,-43.2384 61.8346,-43.2384 61.8346,-79.2384"/>
<text text-anchor="middle" x="30.9448" y="-57.0384" font-family="Times,serif" font-size="14.00" fill="#000000">DBImpl</text>
</g>
<!-- ColumnFamilyMemTablesImpl -->
<g id="node2" class="node">
<title>ColumnFamilyMemTablesImpl</title>
<polygon fill="none" stroke="#000000" points="291.0684,-79.2384 97.83,-79.2384 97.83,-43.2384 291.0684,-43.2384 291.0684,-79.2384"/>
<text text-anchor="middle" x="194.4492" y="-57.0384" font-family="Times,serif" font-size="14.00" fill="#000000">ColumnFamilyMemTablesImpl</text>
</g>
<!-- DBImpl&#45;&gt;ColumnFamilyMemTablesImpl -->
<g id="edge1" class="edge">
<title>DBImpl&#45;&gt;ColumnFamilyMemTablesImpl</title>
<path fill="none" stroke="#666666" d="M62.0836,-61.2384C69.7725,-61.2384 78.4462,-61.2384 87.5834,-61.2384"/>
<polygon fill="#666666" stroke="#666666" points="87.6556,-64.7385 97.6556,-61.2384 87.6555,-57.7385 87.6556,-64.7385"/>
</g>
<!-- ColumnFamilySet -->
<g id="node3" class="node">
<title>ColumnFamilySet</title>
<polygon fill="none" stroke="#000000" points="445.5229,-79.2384 327.1705,-79.2384 327.1705,-43.2384 445.5229,-43.2384 445.5229,-79.2384"/>
<text text-anchor="middle" x="386.3467" y="-57.0384" font-family="Times,serif" font-size="14.00" fill="#000000">ColumnFamilySet</text>
</g>
<!-- ColumnFamilyMemTablesImpl&#45;&gt;ColumnFamilySet -->
<g id="edge2" class="edge">
<title>ColumnFamilyMemTablesImpl&#45;&gt;ColumnFamilySet</title>
<path fill="none" stroke="#666666" d="M291.2412,-61.2384C299.9163,-61.2384 308.5823,-61.2384 316.9553,-61.2384"/>
<polygon fill="#666666" stroke="#666666" points="317.0043,-64.7385 327.0042,-61.2384 317.0042,-57.7385 317.0043,-64.7385"/>
</g>
<!-- Cache -->
<g id="node5" class="node">
<title>Cache</title>
<polygon fill="none" stroke="#000000" points="1013.4697,-79.2384 959.4697,-79.2384 959.4697,-43.2384 1013.4697,-43.2384 1013.4697,-79.2384"/>
<text text-anchor="middle" x="986.4697" y="-57.0384" font-family="Times,serif" font-size="14.00" fill="#000000">Cache</text>
</g>
<!-- ColumnFamilySet&#45;&gt;Cache -->
<g id="edge17" class="edge">
<title>ColumnFamilySet&#45;&gt;Cache</title>
<path fill="none" stroke="#666666" d="M445.645,-43.6023C457.5327,-40.3051 469.9694,-37.0241 481.6846,-34.2384 598.9057,-6.3646 631.1967,7.4183 751.1211,-4.2384 820.0311,-10.9365 836.9885,-16.7699 903.9834,-34.2384 919.0015,-38.1542 935.2877,-43.2898 949.3904,-48.0297"/>
<polygon fill="#666666" stroke="#666666" points="948.6295,-51.4683 959.224,-51.3881 950.8919,-44.844 948.6295,-51.4683"/>
</g>
<!-- ColumnFamilyData -->
<g id="node20" class="node">
<title>ColumnFamilyData</title>
<polygon fill="none" stroke="#000000" points="609.0056,-79.2384 481.5775,-79.2384 481.5775,-43.2384 609.0056,-43.2384 609.0056,-79.2384"/>
<text text-anchor="middle" x="545.2915" y="-57.0384" font-family="Times,serif" font-size="14.00" fill="#000000">ColumnFamilyData</text>
</g>
<!-- ColumnFamilySet&#45;&gt;ColumnFamilyData -->
<g id="edge16" class="edge">
<title>ColumnFamilySet&#45;&gt;ColumnFamilyData</title>
<path fill="none" stroke="#666666" d="M445.5319,-61.2384C453.9692,-61.2384 462.7335,-61.2384 471.4085,-61.2384"/>
<polygon fill="#666666" stroke="#666666" points="471.5263,-64.7385 481.5262,-61.2384 471.5262,-57.7385 471.5263,-64.7385"/>
</g>
<!-- TableCache -->
<g id="node4" class="node">
<title>TableCache</title>
<polygon fill="none" stroke="#000000" points="882.4234,-79.2384 800.6811,-79.2384 800.6811,-43.2384 882.4234,-43.2384 882.4234,-79.2384"/>
<text text-anchor="middle" x="841.5522" y="-57.0384" font-family="Times,serif" font-size="14.00" fill="#000000">TableCache</text>
</g>
<!-- TableCache&#45;&gt;Cache -->
<g id="edge3" class="edge">
<title>TableCache&#45;&gt;Cache</title>
<path fill="none" stroke="#666666" d="M882.6921,-61.2384C903.6421,-61.2384 928.9174,-61.2384 949.2788,-61.2384"/>
<polygon fill="#666666" stroke="#666666" points="949.4296,-64.7385 959.4296,-61.2384 949.4296,-57.7385 949.4296,-64.7385"/>
</g>
<!-- ShardedCache -->
<g id="node6" class="node">
<title>ShardedCache</title>
<polygon fill="none" stroke="#000000" points="1177.4117,-79.2384 1080.7006,-79.2384 1080.7006,-43.2384 1177.4117,-43.2384 1177.4117,-79.2384"/>
<text text-anchor="middle" x="1129.0562" y="-57.0384" font-family="Times,serif" font-size="14.00" fill="#000000">ShardedCache</text>
</g>
<!-- Cache&#45;&gt;ShardedCache -->
<g id="edge4" class="edge">
<title>Cache&#45;&gt;ShardedCache</title>
<path fill="none" stroke="#666666" d="M1013.6248,-61.2384C1029.7256,-61.2384 1050.7782,-61.2384 1070.4894,-61.2384"/>
<polygon fill="#666666" stroke="#666666" points="1070.6415,-64.7385 1080.6415,-61.2384 1070.6414,-57.7385 1070.6415,-64.7385"/>
</g>
<!-- LRUCache -->
<g id="node7" class="node">
<title>LRUCache</title>
<polygon fill="none" stroke="#000000" points="1344.1738,-79.2384 1265.2148,-79.2384 1265.2148,-43.2384 1344.1738,-43.2384 1344.1738,-79.2384"/>
<text text-anchor="middle" x="1304.6943" y="-57.0384" font-family="Times,serif" font-size="14.00" fill="#000000">LRUCache</text>
</g>
<!-- ShardedCache&#45;&gt;LRUCache -->
<g id="edge5" class="edge">
<title>ShardedCache&#45;&gt;LRUCache</title>
<path fill="none" stroke="#666666" d="M1177.515,-61.2384C1201.5924,-61.2384 1230.6468,-61.2384 1254.9037,-61.2384"/>
<polygon fill="#666666" stroke="#666666" points="1254.9774,-64.7385 1264.9773,-61.2384 1254.9773,-57.7385 1254.9774,-64.7385"/>
</g>
<!-- LRUCacheShard -->
<g id="node8" class="node">
<title>LRUCacheShard</title>
<polygon fill="none" stroke="#000000" points="1531.6954,-79.2384 1420.411,-79.2384 1420.411,-43.2384 1531.6954,-43.2384 1531.6954,-79.2384"/>
<text text-anchor="middle" x="1476.0532" y="-57.0384" font-family="Times,serif" font-size="14.00" fill="#000000">LRUCacheShard</text>
</g>
<!-- LRUCache&#45;&gt;LRUCacheShard -->
<g id="edge6" class="edge">
<title>LRUCache&#45;&gt;LRUCacheShard</title>
<path fill="none" stroke="#666666" d="M1344.4382,-61.2384C1363.9866,-61.2384 1388.0643,-61.2384 1410.258,-61.2384"/>
<polygon fill="#666666" stroke="#666666" points="1410.2995,-64.7385 1420.2995,-61.2384 1410.2995,-57.7385 1410.2995,-64.7385"/>
</g>
<!-- Version -->
<g id="node9" class="node">
<title>Version</title>
<polygon fill="none" stroke="#000000" points="723.2827,-194.2384 664.7369,-194.2384 664.7369,-158.2384 723.2827,-158.2384 723.2827,-194.2384"/>
<text text-anchor="middle" x="694.0098" y="-172.0384" font-family="Times,serif" font-size="14.00" fill="#000000">Version</text>
</g>
<!-- Version&#45;&gt;TableCache -->
<g id="edge8" class="edge">
<title>Version&#45;&gt;TableCache</title>
<path fill="none" stroke="#666666" d="M723.3749,-162.7415C732.5693,-158.0149 742.5469,-152.3474 751.1211,-146.2384 775.8418,-128.625 800.7398,-104.6568 818.134,-86.6615"/>
<polygon fill="#666666" stroke="#666666" points="820.7376,-89.0028 825.1069,-79.3508 815.6722,-84.1714 820.7376,-89.0028"/>
</g>
<!-- VersionStorageInfo -->
<g id="node10" class="node">
<title>VersionStorageInfo</title>
<polygon fill="none" stroke="#000000" points="903.9146,-194.2384 779.1899,-194.2384 779.1899,-158.2384 903.9146,-158.2384 903.9146,-194.2384"/>
<text text-anchor="middle" x="841.5522" y="-172.0384" font-family="Times,serif" font-size="14.00" fill="#000000">VersionStorageInfo</text>
</g>
<!-- Version&#45;&gt;VersionStorageInfo -->
<g id="edge7" class="edge">
<title>Version&#45;&gt;VersionStorageInfo</title>
<path fill="none" stroke="#666666" d="M723.5126,-176.2384C736.7444,-176.2384 752.9914,-176.2384 769.1507,-176.2384"/>
<polygon fill="#666666" stroke="#666666" points="769.1731,-179.7385 779.1731,-176.2384 769.1731,-172.7385 769.1731,-179.7385"/>
</g>
<!-- VersionSet -->
<g id="node11" class="node">
<title>VersionSet</title>
<polygon fill="none" stroke="#000000" points="879.7151,-248.2384 803.3894,-248.2384 803.3894,-212.2384 879.7151,-212.2384 879.7151,-248.2384"/>
<text text-anchor="middle" x="841.5522" y="-226.0384" font-family="Times,serif" font-size="14.00" fill="#000000">VersionSet</text>
</g>
<!-- Version&#45;&gt;VersionSet -->
<g id="edge9" class="edge">
<title>Version&#45;&gt;VersionSet</title>
<path fill="none" stroke="#666666" d="M723.5126,-187.0363C743.5272,-194.3616 770.4405,-204.2117 793.514,-212.6566"/>
<polygon fill="#666666" stroke="#666666" points="792.5425,-216.028 803.1363,-216.1783 794.9485,-209.4544 792.5425,-216.028"/>
</g>
<!-- FileMetaData -->
<g id="node12" class="node">
<title>FileMetaData</title>
<polygon fill="none" stroke="#000000" points="1032.9424,-194.2384 939.9971,-194.2384 939.9971,-158.2384 1032.9424,-158.2384 1032.9424,-194.2384"/>
<text text-anchor="middle" x="986.4697" y="-172.0384" font-family="Times,serif" font-size="14.00" fill="#000000">FileMetaData</text>
</g>
<!-- VersionStorageInfo&#45;&gt;FileMetaData -->
<g id="edge10" class="edge">
<title>VersionStorageInfo&#45;&gt;FileMetaData</title>
<path fill="none" stroke="#666666" d="M904.2723,-176.2384C912.7561,-176.2384 921.4214,-176.2384 929.7913,-176.2384"/>
<polygon fill="#666666" stroke="#666666" points="929.8224,-179.7385 939.8224,-176.2384 929.8223,-172.7385 929.8224,-179.7385"/>
</g>
<!-- BlobFiles -->
<g id="node13" class="node">
<title>BlobFiles</title>
<polygon fill="none" stroke="#000000" points="1021.9263,-248.2384 951.0132,-248.2384 951.0132,-212.2384 1021.9263,-212.2384 1021.9263,-248.2384"/>
<text text-anchor="middle" x="986.4697" y="-226.0384" font-family="Times,serif" font-size="14.00" fill="#000000">BlobFiles</text>
</g>
<!-- VersionStorageInfo&#45;&gt;BlobFiles -->
<g id="edge11" class="edge">
<title>VersionStorageInfo&#45;&gt;BlobFiles</title>
<path fill="none" stroke="#666666" d="M890.2108,-194.3698C906.6895,-200.5102 925.0158,-207.339 941.2186,-213.3766"/>
<polygon fill="#666666" stroke="#666666" points="940.4045,-216.8083 950.9972,-217.0204 942.8487,-210.2489 940.4045,-216.8083"/>
</g>
<!-- FileDescriptor -->
<g id="node14" class="node">
<title>FileDescriptor</title>
<polygon fill="none" stroke="#000000" points="1177.4254,-194.2384 1080.6869,-194.2384 1080.6869,-158.2384 1177.4254,-158.2384 1177.4254,-194.2384"/>
<text text-anchor="middle" x="1129.0562" y="-172.0384" font-family="Times,serif" font-size="14.00" fill="#000000">FileDescriptor</text>
</g>
<!-- FileMetaData&#45;&gt;FileDescriptor -->
<g id="edge12" class="edge">
<title>FileMetaData&#45;&gt;FileDescriptor</title>
<path fill="none" stroke="#666666" d="M1033.1579,-176.2384C1044.96,-176.2384 1057.7876,-176.2384 1070.1078,-176.2384"/>
<polygon fill="#666666" stroke="#666666" points="1070.3039,-179.7385 1080.3038,-176.2384 1070.3038,-172.7385 1070.3039,-179.7385"/>
</g>
<!-- BlobFileMetaData -->
<g id="node16" class="node">
<title>BlobFileMetaData</title>
<polygon fill="none" stroke="#000000" points="1189.2565,-248.2384 1068.8558,-248.2384 1068.8558,-212.2384 1189.2565,-212.2384 1189.2565,-248.2384"/>
<text text-anchor="middle" x="1129.0562" y="-226.0384" font-family="Times,serif" font-size="14.00" fill="#000000">BlobFileMetaData</text>
</g>
<!-- BlobFiles&#45;&gt;BlobFileMetaData -->
<g id="edge14" class="edge">
<title>BlobFiles&#45;&gt;BlobFileMetaData</title>
<path fill="none" stroke="#666666" d="M1021.7158,-230.2384C1032.9084,-230.2384 1045.7094,-230.2384 1058.4798,-230.2384"/>
<polygon fill="#666666" stroke="#666666" points="1058.6836,-233.7385 1068.6836,-230.2384 1058.6835,-226.7385 1058.6836,-233.7385"/>
</g>
<!-- TableReader -->
<g id="node15" class="node">
<title>TableReader</title>
<polygon fill="none" stroke="#000000" points="1347.7288,-194.2384 1261.6599,-194.2384 1261.6599,-158.2384 1347.7288,-158.2384 1347.7288,-194.2384"/>
<text text-anchor="middle" x="1304.6943" y="-172.0384" font-family="Times,serif" font-size="14.00" fill="#000000">TableReader</text>
</g>
<!-- FileDescriptor&#45;&gt;TableReader -->
<g id="edge13" class="edge">
<title>FileDescriptor&#45;&gt;TableReader</title>
<path fill="none" stroke="#666666" d="M1177.515,-176.2384C1200.4235,-176.2384 1227.8375,-176.2384 1251.3381,-176.2384"/>
<polygon fill="#666666" stroke="#666666" points="1251.4868,-179.7385 1261.4867,-176.2384 1251.4867,-172.7385 1251.4868,-179.7385"/>
</g>
<!-- SharedBlobFileMetaData -->
<g id="node17" class="node">
<title>SharedBlobFileMetaData</title>
<polygon fill="none" stroke="#000000" points="1384.2705,-248.2384 1225.1181,-248.2384 1225.1181,-212.2384 1384.2705,-212.2384 1384.2705,-248.2384"/>
<text text-anchor="middle" x="1304.6943" y="-226.0384" font-family="Times,serif" font-size="14.00" fill="#000000">SharedBlobFileMetaData</text>
</g>
<!-- BlobFileMetaData&#45;&gt;SharedBlobFileMetaData -->
<g id="edge15" class="edge">
<title>BlobFileMetaData&#45;&gt;SharedBlobFileMetaData</title>
<path fill="none" stroke="#666666" d="M1189.5009,-230.2384C1197.7028,-230.2384 1206.2588,-230.2384 1214.8407,-230.2384"/>
<polygon fill="#666666" stroke="#666666" points="1214.9074,-233.7385 1224.9073,-230.2384 1214.9073,-226.7385 1214.9074,-233.7385"/>
</g>
<!-- MemTable -->
<g id="node18" class="node">
<title>MemTable</title>
<polygon fill="none" stroke="#000000" points="732.4544,-106.2384 655.5651,-106.2384 655.5651,-70.2384 732.4544,-70.2384 732.4544,-106.2384"/>
<text text-anchor="middle" x="694.0098" y="-84.0384" font-family="Times,serif" font-size="14.00" fill="#000000">MemTable</text>
</g>
<!-- MemTableList -->
<g id="node19" class="node">
<title>MemTableList</title>
<polygon fill="none" stroke="#000000" points="743.2327,-52.2384 644.7869,-52.2384 644.7869,-16.2384 743.2327,-16.2384 743.2327,-52.2384"/>
<text text-anchor="middle" x="694.0098" y="-30.0384" font-family="Times,serif" font-size="14.00" fill="#000000">MemTableList</text>
</g>
<!-- ColumnFamilyData&#45;&gt;Version -->
<g id="edge18" class="edge">
<title>ColumnFamilyData&#45;&gt;Version</title>
<path fill="none" stroke="#666666" d="M561.9947,-79.3311C579.5038,-97.6437 608.3854,-126.0612 636.8984,-146.2384 642.6724,-150.3243 649.0734,-154.2201 655.4406,-157.7708"/>
<polygon fill="#666666" stroke="#666666" points="654.1998,-161.0764 664.6682,-162.7083 657.5023,-154.9044 654.1998,-161.0764"/>
</g>
<!-- ColumnFamilyData&#45;&gt;MemTable -->
<g id="edge19" class="edge">
<title>ColumnFamilyData&#45;&gt;MemTable</title>
<path fill="none" stroke="#666666" d="M609.2245,-72.8455C621.4025,-75.0564 633.961,-77.3364 645.5586,-79.442"/>
<polygon fill="#666666" stroke="#666666" points="645.0049,-82.8986 655.4693,-81.2413 646.2554,-76.0112 645.0049,-82.8986"/>
</g>
<!-- ColumnFamilyData&#45;&gt;MemTableList -->
<g id="edge20" class="edge">
<title>ColumnFamilyData&#45;&gt;MemTableList</title>
<path fill="none" stroke="#666666" d="M609.2245,-49.6312C617.6199,-48.1071 626.1962,-46.55 634.5138,-45.0399"/>
<polygon fill="#666666" stroke="#666666" points="635.2877,-48.4567 644.5017,-43.2266 634.0373,-41.5693 635.2877,-48.4567"/>
</g>
</g>
</svg>
