<?xml version="1.0" encoding="UTF-8" standalone="no"?>
<!DOCTYPE svg PUBLIC "-//W3C//DTD SVG 1.1//EN"
 "http://www.w3.org/Graphics/SVG/1.1/DTD/svg11.dtd">
<!-- Generated by graphviz version 2.40.1 (20161225.0304)
 -->
<!-- Title: write Pages: 1 -->
<svg width="947pt" height="1710pt"
 viewBox="0.00 0.00 947.22 1710.00" xmlns="http://www.w3.org/2000/svg" xmlns:xlink="http://www.w3.org/1999/xlink">
<g id="graph0" class="graph" transform="scale(1 1) rotate(0) translate(4 1706)">
<title>write</title>
<polygon fill="#ffffff" stroke="transparent" points="-4,4 -4,-1706 943.2168,-1706 943.2168,4 -4,4"/>
<g id="clust7" class="cluster">
<title>cluster_WriteThread</title>
<path fill="none" stroke="#000000" d="M249.9619,-1200C249.9619,-1200 701.5654,-1200 701.5654,-1200 707.5654,-1200 713.5654,-1206 713.5654,-1212 713.5654,-1212 713.5654,-1646 713.5654,-1646 713.5654,-1652 707.5654,-1658 701.5654,-1658 701.5654,-1658 249.9619,-1658 249.9619,-1658 243.9619,-1658 237.9619,-1652 237.9619,-1646 237.9619,-1646 237.9619,-1212 237.9619,-1212 237.9619,-1206 243.9619,-1200 249.9619,-1200"/>
<text text-anchor="middle" x="475.7637" y="-1638" font-family="Times,serif" font-size="20.00" fill="#000000">WriteThread</text>
</g>
<g id="clust8" class="cluster">
<title>cluster_WriteBatchInternal</title>
<path fill="none" stroke="#000000" d="M262.3042,-354C262.3042,-354 712.9473,-354 712.9473,-354 718.9473,-354 724.9473,-360 724.9473,-366 724.9473,-366 724.9473,-476 724.9473,-476 724.9473,-482 718.9473,-488 712.9473,-488 712.9473,-488 262.3042,-488 262.3042,-488 256.3042,-488 250.3042,-482 250.3042,-476 250.3042,-476 250.3042,-366 250.3042,-366 250.3042,-360 256.3042,-354 262.3042,-354"/>
<text text-anchor="middle" x="487.6257" y="-468" font-family="Times,serif" font-size="20.00" fill="#000000">WriteBatchInternal</text>
</g>
<g id="clust9" class="cluster">
<title>cluster_Versions</title>
<path fill="none" stroke="#000000" d="M552.4443,-958C552.4443,-958 911.5269,-958 911.5269,-958 917.5269,-958 923.5269,-964 923.5269,-970 923.5269,-970 923.5269,-1026 923.5269,-1026 923.5269,-1032 917.5269,-1038 911.5269,-1038 911.5269,-1038 552.4443,-1038 552.4443,-1038 546.4443,-1038 540.4443,-1032 540.4443,-1026 540.4443,-1026 540.4443,-970 540.4443,-970 540.4443,-964 546.4443,-958 552.4443,-958"/>
<text text-anchor="middle" x="731.9856" y="-1018" font-family="Times,serif" font-size="20.00" fill="#000000">Versions</text>
</g>
<!-- DBImpl_Write -->
<g id="node1" class="node">
<title>DBImpl_Write</title>
<polygon fill="none" stroke="#000000" points="100.3078,-871 -.1027,-871 -.1027,-835 100.3078,-835 100.3078,-871"/>
<text text-anchor="middle" x="50.1025" y="-848.8" font-family="Times,serif" font-size="14.00" fill="#000000">DBImpl_Write</text>
</g>
<!-- WriteImpl -->
<g id="node2" class="node">
<title>WriteImpl</title>
<polygon fill="none" stroke="#000000" points="209.8407,-871 136.3263,-871 136.3263,-835 209.8407,-835 209.8407,-871"/>
<text text-anchor="middle" x="173.0835" y="-848.8" font-family="Times,serif" font-size="14.00" fill="#000000">WriteImpl</text>
</g>
<!-- DBImpl_Write&#45;&gt;WriteImpl -->
<g id="edge1" class="edge">
<title>DBImpl_Write&#45;&gt;WriteImpl</title>
<path fill="none" stroke="#000000" d="M100.4784,-853C108.9671,-853 117.748,-853 126.1449,-853"/>
<polygon fill="#000000" stroke="#000000" points="126.1513,-856.5001 136.1513,-853 126.1513,-849.5001 126.1513,-856.5001"/>
</g>
<!-- Tracer_Write -->
<g id="node3" class="node">
<title>Tracer_Write</title>
<polygon fill="none" stroke="#000000" points="396.1174,-1702 305.4207,-1702 305.4207,-1666 396.1174,-1666 396.1174,-1702"/>
<text text-anchor="middle" x="350.769" y="-1679.8" font-family="Times,serif" font-size="14.00" fill="#000000">Tracer_Write</text>
</g>
<!-- WriteImpl&#45;&gt;Tracer_Write -->
<g id="edge2" class="edge">
<title>WriteImpl&#45;&gt;Tracer_Write</title>
<path fill="none" stroke="#ff0000" d="M173.2478,-871.0216C174.4502,-984.8238 183.4588,-1600.9876 237.9619,-1662 252.2416,-1677.9852 274.4002,-1684.4288 295.3111,-1686.5238"/>
<polygon fill="#ff0000" stroke="#ff0000" points="295.2181,-1690.0256 305.4362,-1687.2256 295.7022,-1683.0424 295.2181,-1690.0256"/>
</g>
<!-- WriteImplWALOnly -->
<g id="node4" class="node">
<title>WriteImplWALOnly</title>
<polygon fill="none" stroke="#000000" points="416.8501,-694 284.688,-694 284.688,-658 416.8501,-658 416.8501,-694"/>
<text text-anchor="middle" x="350.769" y="-671.8" font-family="Times,serif" font-size="14.00" fill="#000000">WriteImplWALOnly</text>
</g>
<!-- WriteImpl&#45;&gt;WriteImplWALOnly -->
<g id="edge3" class="edge">
<title>WriteImpl&#45;&gt;WriteImplWALOnly</title>
<path fill="none" stroke="#ff0000" d="M186.699,-834.7005C199.2982,-818.2008 218.9054,-793.5921 237.9619,-774 264.0127,-747.2171 296.455,-719.5528 319.8524,-700.4754"/>
<polygon fill="#ff0000" stroke="#ff0000" points="322.156,-703.1138 327.7259,-694.1012 317.7513,-697.6732 322.156,-703.1138"/>
</g>
<!-- ThrottleLowPriWritesIfNeeded -->
<g id="node5" class="node">
<title>ThrottleLowPriWritesIfNeeded</title>
<polygon fill="none" stroke="#000000" points="446.7056,-306 254.8325,-306 254.8325,-270 446.7056,-270 446.7056,-306"/>
<text text-anchor="middle" x="350.769" y="-283.8" font-family="Times,serif" font-size="14.00" fill="#000000">ThrottleLowPriWritesIfNeeded</text>
</g>
<!-- WriteImpl&#45;&gt;ThrottleLowPriWritesIfNeeded -->
<g id="edge4" class="edge">
<title>WriteImpl&#45;&gt;ThrottleLowPriWritesIfNeeded</title>
<path fill="none" stroke="#ff0000" d="M174.1024,-834.9959C179.2655,-746.4812 203.645,-360.1068 237.9619,-320 240.4931,-317.0418 243.2757,-314.3469 246.258,-311.8927"/>
<polygon fill="#ff0000" stroke="#ff0000" points="248.4828,-314.6046 254.5832,-305.9422 244.4124,-308.9097 248.4828,-314.6046"/>
</g>
<!-- PipelinedWriteImpl -->
<g id="node6" class="node">
<title>PipelinedWriteImpl</title>
<polygon fill="none" stroke="#000000" points="413.9092,-1152 287.6289,-1152 287.6289,-1116 413.9092,-1116 413.9092,-1152"/>
<text text-anchor="middle" x="350.769" y="-1129.8" font-family="Times,serif" font-size="14.00" fill="#000000">PipelinedWriteImpl</text>
</g>
<!-- WriteImpl&#45;&gt;PipelinedWriteImpl -->
<g id="edge5" class="edge">
<title>WriteImpl&#45;&gt;PipelinedWriteImpl</title>
<path fill="none" stroke="#ff0000" d="M180.6513,-871.0818C191.8137,-897.0581 213.9765,-946.091 237.9619,-985 266.0101,-1030.4997 304.6737,-1079.1419 328.6755,-1108.0406"/>
<polygon fill="#ff0000" stroke="#ff0000" points="326.2307,-1110.573 335.3305,-1115.9994 331.6008,-1106.0827 326.2307,-1110.573"/>
</g>
<!-- write_sw -->
<g id="node7" class="node">
<title>write_sw</title>
<polygon fill="none" stroke="#000000" points="638.0867,-532 570.4367,-532 570.4367,-496 638.0867,-496 638.0867,-532"/>
<text text-anchor="middle" x="604.2617" y="-509.8" font-family="Times,serif" font-size="14.00" fill="#000000">write_sw</text>
</g>
<!-- WriteImpl&#45;&gt;write_sw -->
<g id="edge6" class="edge">
<title>WriteImpl&#45;&gt;write_sw</title>
<path fill="none" stroke="#ff0000" d="M173.9407,-834.7134C176.7158,-795.7006 188.4491,-703.4369 237.9619,-649 320.395,-558.3689 375.2402,-579.4077 491.5762,-541 513.9029,-533.629 539.3306,-527.3607 560.3742,-522.7246"/>
<polygon fill="#ff0000" stroke="#ff0000" points="561.2811,-526.1096 570.3198,-520.5821 559.8069,-519.2666 561.2811,-526.1096"/>
</g>
<!-- WriteThread_Writer -->
<g id="node8" class="node">
<title>WriteThread_Writer</title>
<polygon fill="none" stroke="#000000" points="669.1963,-1298 539.3271,-1298 539.3271,-1262 669.1963,-1262 669.1963,-1298"/>
<text text-anchor="middle" x="604.2617" y="-1275.8" font-family="Times,serif" font-size="14.00" fill="#000000">WriteThread_Writer</text>
</g>
<!-- WriteImpl&#45;&gt;WriteThread_Writer -->
<g id="edge7" class="edge">
<title>WriteImpl&#45;&gt;WriteThread_Writer</title>
<path fill="none" stroke="#ff0000" d="M174.2915,-871.0297C178.6664,-930.6838 195.7085,-1120.1892 237.9619,-1161 308.5814,-1229.2084 373.3352,-1145.3724 455.5762,-1199 479.7376,-1214.7552 467.9171,-1236.5 491.5762,-1253 502.796,-1260.8248 516.0055,-1266.3977 529.3561,-1270.363"/>
<polygon fill="#ff0000" stroke="#ff0000" points="528.5101,-1273.7598 539.0759,-1272.9754 530.3271,-1266.9997 528.5101,-1273.7598"/>
</g>
<!-- ShouldWriteToMemtable -->
<g id="node9" class="node">
<title>ShouldWriteToMemtable</title>
<polygon fill="none" stroke="#000000" points="683.5863,-1352 524.9372,-1352 524.9372,-1316 683.5863,-1316 683.5863,-1352"/>
<text text-anchor="middle" x="604.2617" y="-1329.8" font-family="Times,serif" font-size="14.00" fill="#000000">ShouldWriteToMemtable</text>
</g>
<!-- WriteImpl&#45;&gt;ShouldWriteToMemtable -->
<g id="edge8" class="edge">
<title>WriteImpl&#45;&gt;ShouldWriteToMemtable</title>
<path fill="none" stroke="#ff0000" d="M174.0094,-871.214C178.6095,-958.1254 200.2995,-1327.8417 237.9619,-1361 278.004,-1396.2534 422.1943,-1373.8865 517.2777,-1354.1625"/>
<polygon fill="#ff0000" stroke="#ff0000" points="518.1149,-1357.5631 527.1812,-1352.081 516.6751,-1350.7127 518.1149,-1357.5631"/>
</g>
<!-- column_family_memtables -->
<g id="node10" class="node">
<title>column_family_memtables</title>
<polygon fill="none" stroke="#000000" points="435.4557,-252 266.0824,-252 266.0824,-216 435.4557,-216 435.4557,-252"/>
<text text-anchor="middle" x="350.769" y="-229.8" font-family="Times,serif" font-size="14.00" fill="#000000">column_family_memtables</text>
</g>
<!-- WriteImpl&#45;&gt;column_family_memtables -->
<g id="edge9" class="edge">
<title>WriteImpl&#45;&gt;column_family_memtables</title>
<path fill="none" stroke="#ff0000" d="M173.8435,-834.8897C177.9745,-740.2528 198.9905,-305.2092 237.9619,-261 243.2989,-254.9457 249.7297,-250.1253 256.781,-246.3009"/>
<polygon fill="#ff0000" stroke="#ff0000" points="258.4424,-249.3875 266.0088,-241.9713 255.4691,-243.0503 258.4424,-249.3875"/>
</g>
<!-- JoinBatchGroup -->
<g id="node11" class="node">
<title>JoinBatchGroup</title>
<polygon fill="none" stroke="#000000" points="658.0276,-1514 550.4958,-1514 550.4958,-1478 658.0276,-1478 658.0276,-1514"/>
<text text-anchor="middle" x="604.2617" y="-1491.8" font-family="Times,serif" font-size="14.00" fill="#000000">JoinBatchGroup</text>
</g>
<!-- WriteImpl&#45;&gt;JoinBatchGroup -->
<g id="edge10" class="edge">
<title>WriteImpl&#45;&gt;JoinBatchGroup</title>
<path fill="none" stroke="#ff0000" d="M173.9772,-871.2362C178.6205,-962.7039 201.1974,-1368.7589 237.9619,-1410 314.0105,-1495.3084 457.1943,-1504.1818 540.2332,-1501.2499"/>
<polygon fill="#ff0000" stroke="#ff0000" points="540.4566,-1504.7437 550.3005,-1500.8261 540.1621,-1497.7499 540.4566,-1504.7437"/>
</g>
<!-- WriteBatchInternal_InsertInto -->
<g id="node12" class="node">
<title>WriteBatchInternal_InsertInto</title>
<polygon fill="none" stroke="#000000" points="443.1987,-452 258.3393,-452 258.3393,-416 443.1987,-416 443.1987,-452"/>
<text text-anchor="middle" x="350.769" y="-429.8" font-family="Times,serif" font-size="14.00" fill="#000000">WriteBatchInternal_InsertInto</text>
</g>
<!-- WriteImpl&#45;&gt;WriteBatchInternal_InsertInto -->
<g id="edge11" class="edge">
<title>WriteImpl&#45;&gt;WriteBatchInternal_InsertInto</title>
<path fill="none" stroke="#ff0000" d="M174.961,-834.8048C181.5367,-773.5642 204.9317,-575.761 237.9619,-522 254.6957,-494.7635 283.1139,-472.6718 307.2395,-457.4354"/>
<polygon fill="#ff0000" stroke="#ff0000" points="309.1998,-460.3392 315.904,-452.1354 305.5471,-454.3678 309.1998,-460.3392"/>
</g>
<!-- CompleteParallelMemTableWriter -->
<g id="node13" class="node">
<title>CompleteParallelMemTableWriter</title>
<polygon fill="none" stroke="#000000" points="455.3837,-1352 246.1544,-1352 246.1544,-1316 455.3837,-1316 455.3837,-1352"/>
<text text-anchor="middle" x="350.769" y="-1329.8" font-family="Times,serif" font-size="14.00" fill="#000000">CompleteParallelMemTableWriter</text>
</g>
<!-- WriteImpl&#45;&gt;CompleteParallelMemTableWriter -->
<g id="edge12" class="edge">
<title>WriteImpl&#45;&gt;CompleteParallelMemTableWriter</title>
<path fill="none" stroke="#ff0000" d="M174.4849,-871.2323C180.8428,-951.8868 207.9668,-1274.0776 237.9619,-1307 238.6146,-1307.7164 239.2826,-1308.4154 239.9651,-1309.0974"/>
<polygon fill="#ff0000" stroke="#ff0000" points="237.9158,-1311.9495 247.7968,-1315.7726 242.4566,-1306.622 237.9158,-1311.9495"/>
</g>
<!-- MemTableInsertStatusCheck -->
<g id="node14" class="node">
<title>MemTableInsertStatusCheck</title>
<polygon fill="none" stroke="#000000" points="440.0818,-198 261.4563,-198 261.4563,-162 440.0818,-162 440.0818,-198"/>
<text text-anchor="middle" x="350.769" y="-175.8" font-family="Times,serif" font-size="14.00" fill="#000000">MemTableInsertStatusCheck</text>
</g>
<!-- WriteImpl&#45;&gt;MemTableInsertStatusCheck -->
<g id="edge13" class="edge">
<title>WriteImpl&#45;&gt;MemTableInsertStatusCheck</title>
<path fill="none" stroke="#ff0000" d="M173.6685,-834.9075C177.0521,-735.2173 195.4631,-255.6532 237.9619,-207 242.222,-202.123 247.1916,-198.0453 252.6255,-194.6429"/>
<polygon fill="#ff0000" stroke="#ff0000" points="254.3822,-197.6719 261.5112,-189.8344 251.0506,-191.5156 254.3822,-197.6719"/>
</g>
<!-- SetLastSequence -->
<g id="node15" class="node">
<title>SetLastSequence</title>
<polygon fill="none" stroke="#000000" points="659.8971,-1002 548.6264,-1002 548.6264,-966 659.8971,-966 659.8971,-1002"/>
<text text-anchor="middle" x="604.2617" y="-979.8" font-family="Times,serif" font-size="14.00" fill="#000000">SetLastSequence</text>
</g>
<!-- WriteImpl&#45;&gt;SetLastSequence -->
<g id="edge14" class="edge">
<title>WriteImpl&#45;&gt;SetLastSequence</title>
<path fill="none" stroke="#ff0000" d="M189.2003,-871.1444C201.3659,-883.6943 219.1354,-899.7422 237.9619,-909 335.4611,-956.9445 462.052,-974.2559 538.0144,-980.4959"/>
<polygon fill="#ff0000" stroke="#ff0000" points="538.1469,-984.0168 548.3888,-981.305 538.6912,-977.038 538.1469,-984.0168"/>
</g>
<!-- ExitAsBatchGroupFollower -->
<g id="node16" class="node">
<title>ExitAsBatchGroupFollower</title>
<polygon fill="none" stroke="#000000" points="691.1309,-1622 517.3925,-1622 517.3925,-1586 691.1309,-1586 691.1309,-1622"/>
<text text-anchor="middle" x="604.2617" y="-1599.8" font-family="Times,serif" font-size="14.00" fill="#000000">ExitAsBatchGroupFollower</text>
</g>
<!-- WriteImpl&#45;&gt;ExitAsBatchGroupFollower -->
<g id="edge15" class="edge">
<title>WriteImpl&#45;&gt;ExitAsBatchGroupFollower</title>
<path fill="none" stroke="#ff0000" d="M173.5782,-871.1616C176.5272,-973.4341 193.2019,-1474.7129 237.9619,-1525 304.3601,-1599.5971 422.8403,-1613.1369 507.0656,-1612.0216"/>
<polygon fill="#ff0000" stroke="#ff0000" points="507.2347,-1615.519 517.1613,-1611.8161 507.0921,-1608.5205 507.2347,-1615.519"/>
</g>
<!-- WriteThread_Writer_FinalStatus -->
<g id="node17" class="node">
<title>WriteThread_Writer_FinalStatus</title>
<polygon fill="none" stroke="#000000" points="450.7105,-1298 250.8276,-1298 250.8276,-1262 450.7105,-1262 450.7105,-1298"/>
<text text-anchor="middle" x="350.769" y="-1275.8" font-family="Times,serif" font-size="14.00" fill="#000000">WriteThread_Writer_FinalStatus</text>
</g>
<!-- WriteImpl&#45;&gt;WriteThread_Writer_FinalStatus -->
<g id="edge16" class="edge">
<title>WriteImpl&#45;&gt;WriteThread_Writer_FinalStatus</title>
<path fill="none" stroke="#ff0000" d="M173.4478,-871.1413C175.2382,-941.6398 185.3063,-1196.2888 237.9619,-1253 239.3492,-1254.4942 240.8033,-1255.9124 242.3166,-1257.2584"/>
<polygon fill="#ff0000" stroke="#ff0000" points="240.2748,-1260.1031 250.3427,-1263.4027 244.5299,-1254.5448 240.2748,-1260.1031"/>
</g>
<!-- PreprocessWrite -->
<g id="node18" class="node">
<title>PreprocessWrite</title>
<polygon fill="none" stroke="#000000" points="658.2256,-802 550.2978,-802 550.2978,-766 658.2256,-766 658.2256,-802"/>
<text text-anchor="middle" x="604.2617" y="-779.8" font-family="Times,serif" font-size="14.00" fill="#000000">PreprocessWrite</text>
</g>
<!-- WriteImpl&#45;&gt;PreprocessWrite -->
<g id="edge17" class="edge">
<title>WriteImpl&#45;&gt;PreprocessWrite</title>
<path fill="none" stroke="#ff0000" d="M198.7247,-834.9657C210.2015,-827.8167 224.2235,-820.2907 237.9619,-816 340.096,-784.102 465.5176,-780.2561 539.9469,-781.4027"/>
<polygon fill="#ff0000" stroke="#ff0000" points="540.0384,-784.905 550.103,-781.5952 540.1712,-777.9062 540.0384,-784.905"/>
</g>
<!-- EnterAsBatchGroupLeader -->
<g id="node19" class="node">
<title>EnterAsBatchGroupLeader</title>
<polygon fill="none" stroke="#000000" points="688.921,-1406 519.6025,-1406 519.6025,-1370 688.921,-1370 688.921,-1406"/>
<text text-anchor="middle" x="604.2617" y="-1383.8" font-family="Times,serif" font-size="14.00" fill="#000000">EnterAsBatchGroupLeader</text>
</g>
<!-- WriteImpl&#45;&gt;EnterAsBatchGroupLeader -->
<g id="edge18" class="edge">
<title>WriteImpl&#45;&gt;EnterAsBatchGroupLeader</title>
<path fill="none" stroke="#ff0000" d="M173.9085,-871.1311C178.1433,-960.2446 198.7761,-1348.9271 237.9619,-1384 276.5401,-1418.5291 414.2158,-1410.7548 509.3308,-1400.5204"/>
<polygon fill="#ff0000" stroke="#ff0000" points="509.9954,-1403.9684 519.5516,-1399.3938 509.2283,-1397.0106 509.9954,-1403.9684"/>
</g>
<!-- WriteBatchInternal_AppendByteSize -->
<g id="node20" class="node">
<title>WriteBatchInternal_AppendByteSize</title>
<polygon fill="none" stroke="#000000" points="717.1331,-452 491.3903,-452 491.3903,-416 717.1331,-416 717.1331,-452"/>
<text text-anchor="middle" x="604.2617" y="-429.8" font-family="Times,serif" font-size="14.00" fill="#000000">WriteBatchInternal_AppendByteSize</text>
</g>
<!-- WriteImpl&#45;&gt;WriteBatchInternal_AppendByteSize -->
<g id="edge19" class="edge">
<title>WriteImpl&#45;&gt;WriteBatchInternal_AppendByteSize</title>
<path fill="none" stroke="#ff0000" d="M174.6237,-834.6492C179.9243,-775.7133 199.2538,-592.604 237.9619,-550 273.7582,-510.6008 407.2951,-475.2408 502.7874,-454.1974"/>
<polygon fill="#ff0000" stroke="#ff0000" points="503.7528,-457.5691 512.7767,-452.0175 502.2603,-450.7301 503.7528,-457.5691"/>
</g>
<!-- AddDBStats -->
<g id="node21" class="node">
<title>AddDBStats</title>
<polygon fill="none" stroke="#000000" points="647.5481,-948 560.9753,-948 560.9753,-912 647.5481,-912 647.5481,-948"/>
<text text-anchor="middle" x="604.2617" y="-925.8" font-family="Times,serif" font-size="14.00" fill="#000000">AddDBStats</text>
</g>
<!-- WriteImpl&#45;&gt;AddDBStats -->
<g id="edge20" class="edge">
<title>WriteImpl&#45;&gt;AddDBStats</title>
<path fill="none" stroke="#ff0000" d="M210.1001,-867.5162C219.1138,-870.6618 228.7996,-873.7236 237.9619,-876 347.3685,-903.1829 478.7816,-918.4645 550.7047,-925.3939"/>
<polygon fill="#ff0000" stroke="#ff0000" points="550.5897,-928.8986 560.875,-926.3561 551.2491,-921.9297 550.5897,-928.8986"/>
</g>
<!-- RecordInHistogram -->
<g id="node22" class="node">
<title>RecordInHistogram</title>
<polygon fill="none" stroke="#000000" points="414.4625,-144 287.0755,-144 287.0755,-108 414.4625,-108 414.4625,-144"/>
<text text-anchor="middle" x="350.769" y="-121.8" font-family="Times,serif" font-size="14.00" fill="#000000">RecordInHistogram</text>
</g>
<!-- WriteImpl&#45;&gt;RecordInHistogram -->
<g id="edge21" class="edge">
<title>WriteImpl&#45;&gt;RecordInHistogram</title>
<path fill="none" stroke="#ff0000" d="M173.524,-834.7893C176.222,-729.9418 191.9474,-206.0879 237.9619,-153 248.0783,-141.3286 262.2588,-134.2272 277.1601,-130.0051"/>
<polygon fill="#ff0000" stroke="#ff0000" points="278.1201,-133.374 287.021,-127.6272 276.4791,-126.569 278.1201,-133.374"/>
</g>
<!-- ConcurrentWriteToWAL -->
<g id="node23" class="node">
<title>ConcurrentWriteToWAL</title>
<polygon fill="none" stroke="#000000" points="428.4625,-90 273.0756,-90 273.0756,-54 428.4625,-54 428.4625,-90"/>
<text text-anchor="middle" x="350.769" y="-67.8" font-family="Times,serif" font-size="14.00" fill="#000000">ConcurrentWriteToWAL</text>
</g>
<!-- WriteImpl&#45;&gt;ConcurrentWriteToWAL -->
<g id="edge22" class="edge">
<title>WriteImpl&#45;&gt;ConcurrentWriteToWAL</title>
<path fill="none" stroke="#ff0000" d="M173.3958,-834.834C175.4389,-725.3847 188.401,-156.5613 237.9619,-99 244.8822,-90.9626 253.7297,-85.0895 263.4186,-80.8304"/>
<polygon fill="#ff0000" stroke="#ff0000" points="264.821,-84.0419 272.9303,-77.2235 262.339,-77.4967 264.821,-84.0419"/>
</g>
<!-- FetchAddLastAllocatedSequence -->
<g id="node24" class="node">
<title>FetchAddLastAllocatedSequence</title>
<polygon fill="none" stroke="#000000" points="452.6493,-36 248.8888,-36 248.8888,0 452.6493,0 452.6493,-36"/>
<text text-anchor="middle" x="350.769" y="-13.8" font-family="Times,serif" font-size="14.00" fill="#000000">FetchAddLastAllocatedSequence</text>
</g>
<!-- WriteImpl&#45;&gt;FetchAddLastAllocatedSequence -->
<g id="edge23" class="edge">
<title>WriteImpl&#45;&gt;FetchAddLastAllocatedSequence</title>
<path fill="none" stroke="#ff0000" d="M173.2877,-834.6618C174.7254,-720.2277 184.8814,-107.0062 237.9619,-45 238.985,-43.8048 240.0508,-42.6575 241.1555,-41.5561"/>
<polygon fill="#ff0000" stroke="#ff0000" points="243.6051,-44.0682 248.9764,-34.9358 239.0825,-38.7254 243.6051,-44.0682"/>
</g>
<!-- pre_release_callback -->
<g id="node25" class="node">
<title>pre_release_callback</title>
<polygon fill="none" stroke="#000000" points="417.6358,-1244 283.9023,-1244 283.9023,-1208 417.6358,-1208 417.6358,-1244"/>
<text text-anchor="middle" x="350.769" y="-1221.8" font-family="Times,serif" font-size="14.00" fill="#000000">pre_release_callback</text>
</g>
<!-- WriteImpl&#45;&gt;pre_release_callback -->
<g id="edge24" class="edge">
<title>WriteImpl&#45;&gt;pre_release_callback</title>
<path fill="none" stroke="#ff0000" d="M174.0948,-871.4129C177.968,-935.2622 193.9169,-1145.8787 237.9619,-1194 247.5843,-1204.5129 260.3801,-1211.669 273.8941,-1216.5181"/>
<polygon fill="#ff0000" stroke="#ff0000" points="273.2363,-1219.9808 283.8261,-1219.6563 275.3453,-1213.306 273.2363,-1219.9808"/>
</g>
<!-- ExitAsBatchGroupLeader -->
<g id="node26" class="node">
<title>ExitAsBatchGroupLeader</title>
<polygon fill="none" stroke="#000000" points="685.4347,-238 523.0888,-238 523.0888,-202 685.4347,-202 685.4347,-238"/>
<text text-anchor="middle" x="604.2617" y="-215.8" font-family="Times,serif" font-size="14.00" fill="#000000">ExitAsBatchGroupLeader</text>
</g>
<!-- WriteImpl&#45;&gt;ExitAsBatchGroupLeader -->
<g id="edge25" class="edge">
<title>WriteImpl&#45;&gt;ExitAsBatchGroupLeader</title>
<path fill="none" stroke="#ff0000" d="M174.1556,-834.7996C179.3898,-748.7773 203.4142,-385.6426 237.9619,-350 306.1416,-279.6596 375.9442,-372.0526 455.5762,-315 483.3743,-295.084 464.5516,-267.9537 491.5762,-247 498.2609,-241.817 505.7896,-237.6082 513.7047,-234.1933"/>
<polygon fill="#ff0000" stroke="#ff0000" points="515.0842,-237.4125 523.1465,-230.5386 512.5573,-230.8845 515.0842,-237.4125"/>
</g>
<!-- WriteBatchInternal_Count -->
<g id="node27" class="node">
<title>WriteBatchInternal_Count</title>
<polygon fill="none" stroke="#000000" points="432.9988,-398 268.5393,-398 268.5393,-362 432.9988,-362 432.9988,-398"/>
<text text-anchor="middle" x="350.769" y="-375.8" font-family="Times,serif" font-size="14.00" fill="#000000">WriteBatchInternal_Count</text>
</g>
<!-- WriteImpl&#45;&gt;WriteBatchInternal_Count -->
<g id="edge26" class="edge">
<title>WriteImpl&#45;&gt;WriteBatchInternal_Count</title>
<path fill="none" stroke="#ff0000" d="M174.5293,-834.8213C181.0245,-755.1423 208.477,-439.2808 237.9619,-407 243.9317,-400.4641 251.1774,-395.3766 259.0847,-391.4329"/>
<polygon fill="#ff0000" stroke="#ff0000" points="260.4811,-394.6424 268.2607,-387.4501 257.6939,-388.2212 260.4811,-394.6424"/>
</g>
<!-- LaunchParallelMemTableWriters -->
<g id="node28" class="node">
<title>LaunchParallelMemTableWriters</title>
<polygon fill="none" stroke="#000000" points="705.3695,-1568 503.1539,-1568 503.1539,-1532 705.3695,-1532 705.3695,-1568"/>
<text text-anchor="middle" x="604.2617" y="-1545.8" font-family="Times,serif" font-size="14.00" fill="#000000">LaunchParallelMemTableWriters</text>
</g>
<!-- WriteImpl&#45;&gt;LaunchParallelMemTableWriters -->
<g id="edge27" class="edge">
<title>WriteImpl&#45;&gt;LaunchParallelMemTableWriters</title>
<path fill="none" stroke="#ff0000" d="M173.7562,-871.1804C177.5077,-968.1942 197.1609,-1422.2091 237.9619,-1468 300.8041,-1538.5278 409.9209,-1555.4763 492.7604,-1556.9096"/>
<polygon fill="#ff0000" stroke="#ff0000" points="492.9493,-1560.4115 502.9834,-1557.0107 493.0186,-1553.4119 492.9493,-1560.4115"/>
</g>
<!-- GetColumnFamilySet -->
<g id="node29" class="node">
<title>GetColumnFamilySet</title>
<polygon fill="none" stroke="#000000" points="915.4717,-1002 776.6923,-1002 776.6923,-966 915.4717,-966 915.4717,-1002"/>
<text text-anchor="middle" x="846.082" y="-979.8" font-family="Times,serif" font-size="14.00" fill="#000000">GetColumnFamilySet</text>
</g>
<!-- WriteImpl&#45;&gt;GetColumnFamilySet -->
<g id="edge28" class="edge">
<title>WriteImpl&#45;&gt;GetColumnFamilySet</title>
<path fill="none" stroke="#ff0000" d="M209.9068,-847.2461C319.8667,-830.8924 643.256,-789.062 724.9473,-849 758.3803,-873.5303 725.9675,-906.5104 752.9473,-938 761.0021,-947.4013 771.4342,-955.0683 782.3894,-961.2551"/>
<polygon fill="#ff0000" stroke="#ff0000" points="780.7705,-964.3582 791.252,-965.9044 784.0224,-958.1594 780.7705,-964.3582"/>
</g>
<!-- MarkLogsSynced -->
<g id="node30" class="node">
<title>MarkLogsSynced</title>
<polygon fill="none" stroke="#000000" points="661.8007,-894 546.7227,-894 546.7227,-858 661.8007,-858 661.8007,-894"/>
<text text-anchor="middle" x="604.2617" y="-871.8" font-family="Times,serif" font-size="14.00" fill="#000000">MarkLogsSynced</text>
</g>
<!-- WriteImpl&#45;&gt;MarkLogsSynced -->
<g id="edge29" class="edge">
<title>WriteImpl&#45;&gt;MarkLogsSynced</title>
<path fill="none" stroke="#ff0000" d="M209.8455,-854.961C282.1804,-858.8195 443.9671,-867.4495 536.2854,-872.374"/>
<polygon fill="#ff0000" stroke="#ff0000" points="536.1942,-875.874 546.3664,-872.9117 536.5671,-868.8839 536.1942,-875.874"/>
</g>
<!-- WriteImplWALOnly&#45;&gt;write_sw -->
<g id="edge53" class="edge">
<title>WriteImplWALOnly&#45;&gt;write_sw</title>
<path fill="none" stroke="#000000" d="M395.3969,-657.9008C415.7414,-647.9183 438.9411,-633.8856 455.5762,-616 480.7574,-588.9258 462.8078,-564.227 491.5762,-541 510.8506,-525.4382 537.6554,-518.6002 560.2863,-515.6941"/>
<polygon fill="#000000" stroke="#000000" points="560.7773,-519.1616 570.3485,-514.6183 560.0331,-512.2013 560.7773,-519.1616"/>
</g>
<!-- WriteImplWALOnly&#45;&gt;WriteThread_Writer -->
<g id="edge54" class="edge">
<title>WriteImplWALOnly&#45;&gt;WriteThread_Writer</title>
<path fill="none" stroke="#000000" d="M355.1935,-694.1993C379.0111,-792.1617 490.9233,-1252.3499 491.5762,-1253 501.8841,-1263.2649 515.3598,-1269.8851 529.3912,-1274.1005"/>
<polygon fill="#000000" stroke="#000000" points="528.6022,-1277.5118 539.162,-1276.65 530.3696,-1270.7385 528.6022,-1277.5118"/>
</g>
<!-- WriteImplWALOnly&#45;&gt;JoinBatchGroup -->
<g id="edge55" class="edge">
<title>WriteImplWALOnly&#45;&gt;JoinBatchGroup</title>
<path fill="none" stroke="#000000" d="M356.1916,-694.2917C373.507,-753.4136 427.9502,-944.9278 455.5762,-1107 469.16,-1186.6918 438.4305,-1408.0833 491.5762,-1469 503.8508,-1483.0695 522.0367,-1490.4861 540.2342,-1494.2246"/>
<polygon fill="#000000" stroke="#000000" points="539.8617,-1497.7115 550.3077,-1495.942 541.0382,-1490.8111 539.8617,-1497.7115"/>
</g>
<!-- WriteImplWALOnly&#45;&gt;EnterAsBatchGroupLeader -->
<g id="edge56" class="edge">
<title>WriteImplWALOnly&#45;&gt;EnterAsBatchGroupLeader</title>
<path fill="none" stroke="#000000" d="M355.9128,-694.3423C372.3878,-753.6163 424.5795,-945.5385 455.5762,-1107 466.3242,-1162.9862 453.2114,-1318.8322 491.5762,-1361 496.9544,-1366.9114 503.3771,-1371.6383 510.3905,-1375.406"/>
<polygon fill="#000000" stroke="#000000" points="509.0139,-1378.6259 519.5559,-1379.6823 511.9737,-1372.2824 509.0139,-1378.6259"/>
</g>
<!-- WriteImplWALOnly&#45;&gt;WriteBatchInternal_AppendByteSize -->
<g id="edge57" class="edge">
<title>WriteImplWALOnly&#45;&gt;WriteBatchInternal_AppendByteSize</title>
<path fill="none" stroke="#000000" d="M367.8285,-657.6085C389.5194,-633.7681 427.5189,-590.4455 455.5762,-550 473.9577,-523.5025 467.8844,-508.8792 491.5762,-487 505.3122,-474.3149 522.628,-464.1518 539.5372,-456.2544"/>
<polygon fill="#000000" stroke="#000000" points="541.1544,-459.3656 548.8641,-452.0984 538.3053,-452.9716 541.1544,-459.3656"/>
</g>
<!-- WriteImplWALOnly&#45;&gt;ExitAsBatchGroupLeader -->
<g id="edge58" class="edge">
<title>WriteImplWALOnly&#45;&gt;ExitAsBatchGroupLeader</title>
<path fill="none" stroke="#000000" d="M364.2591,-657.7811C387.0914,-625.9466 433.0603,-557.3443 455.5762,-492 491.4304,-387.9459 417.3036,-328.218 491.5762,-247 497.8074,-240.1861 505.4265,-234.9476 513.7355,-230.9387"/>
<polygon fill="#000000" stroke="#000000" points="515.1232,-234.1521 522.9894,-227.0547 512.4141,-227.6975 515.1232,-234.1521"/>
</g>
<!-- FinalStatus -->
<g id="node42" class="node">
<title>FinalStatus</title>
<polygon fill="none" stroke="#000000" points="643.7686,-640 564.7549,-640 564.7549,-604 643.7686,-604 643.7686,-640"/>
<text text-anchor="middle" x="604.2617" y="-617.8" font-family="Times,serif" font-size="14.00" fill="#000000">FinalStatus</text>
</g>
<!-- WriteImplWALOnly&#45;&gt;FinalStatus -->
<g id="edge59" class="edge">
<title>WriteImplWALOnly&#45;&gt;FinalStatus</title>
<path fill="none" stroke="#000000" d="M417.0401,-661.8827C460.0884,-652.7124 515.2935,-640.9524 554.5783,-632.5838"/>
<polygon fill="#000000" stroke="#000000" points="555.4056,-635.9861 564.4569,-630.4794 553.9472,-629.1397 555.4056,-635.9861"/>
</g>
<!-- IsDBStopped -->
<g id="node43" class="node">
<title>IsDBStopped</title>
<polygon fill="none" stroke="#000000" points="650.2111,-586 558.3124,-586 558.3124,-550 650.2111,-550 650.2111,-586"/>
<text text-anchor="middle" x="604.2617" y="-563.8" font-family="Times,serif" font-size="14.00" fill="#000000">IsDBStopped</text>
</g>
<!-- WriteImplWALOnly&#45;&gt;IsDBStopped -->
<g id="edge60" class="edge">
<title>WriteImplWALOnly&#45;&gt;IsDBStopped</title>
<path fill="none" stroke="#000000" d="M382.4534,-657.9502C403.2637,-646.0733 431.0694,-630.1623 455.5762,-616 471.614,-606.7318 474.3854,-601.8986 491.5762,-595 509.5344,-587.7934 529.906,-582.1906 548.3422,-578.0038"/>
<polygon fill="#000000" stroke="#000000" points="549.3318,-581.3704 558.3578,-575.8223 547.8419,-574.5308 549.3318,-581.3704"/>
</g>
<!-- FlushWAL -->
<g id="node44" class="node">
<title>FlushWAL</title>
<polygon fill="none" stroke="#000000" points="643.2113,-748 565.3122,-748 565.3122,-712 643.2113,-712 643.2113,-748"/>
<text text-anchor="middle" x="604.2617" y="-725.8" font-family="Times,serif" font-size="14.00" fill="#000000">FlushWAL</text>
</g>
<!-- WriteImplWALOnly&#45;&gt;FlushWAL -->
<g id="edge61" class="edge">
<title>WriteImplWALOnly&#45;&gt;FlushWAL</title>
<path fill="none" stroke="#000000" d="M417.0401,-690.1173C460.3583,-699.3451 515.9862,-711.1952 555.3153,-719.5732"/>
<polygon fill="#000000" stroke="#000000" points="554.6868,-723.0178 565.1966,-721.6782 556.1453,-716.1714 554.6868,-723.0178"/>
</g>
<!-- SyncWAL -->
<g id="node45" class="node">
<title>SyncWAL</title>
<polygon fill="none" stroke="#000000" points="641.5866,-694 566.9368,-694 566.9368,-658 641.5866,-658 641.5866,-694"/>
<text text-anchor="middle" x="604.2617" y="-671.8" font-family="Times,serif" font-size="14.00" fill="#000000">SyncWAL</text>
</g>
<!-- WriteImplWALOnly&#45;&gt;SyncWAL -->
<g id="edge62" class="edge">
<title>WriteImplWALOnly&#45;&gt;SyncWAL</title>
<path fill="none" stroke="#000000" d="M417.0401,-676C460.9396,-676 517.4815,-676 556.8898,-676"/>
<polygon fill="#000000" stroke="#000000" points="557.023,-679.5001 567.0229,-676 557.0229,-672.5001 557.023,-679.5001"/>
</g>
<!-- PipelinedWriteImpl&#45;&gt;write_sw -->
<g id="edge37" class="edge">
<title>PipelinedWriteImpl&#45;&gt;write_sw</title>
<path fill="none" stroke="#000000" d="M355.2909,-1115.9644C370.0838,-1056.8457 418.2304,-863.5075 455.5762,-703 472.2908,-631.1625 439.8547,-593.5822 491.5762,-541 509.3333,-522.9474 536.8713,-516.1199 560.2788,-513.8433"/>
<polygon fill="#000000" stroke="#000000" points="560.6346,-517.3268 570.3541,-513.11 560.1264,-510.3452 560.6346,-517.3268"/>
</g>
<!-- PipelinedWriteImpl&#45;&gt;WriteThread_Writer -->
<g id="edge38" class="edge">
<title>PipelinedWriteImpl&#45;&gt;WriteThread_Writer</title>
<path fill="none" stroke="#000000" d="M413.9279,-1143.6301C428.9433,-1148.3723 443.958,-1155.4469 455.5762,-1166 486.5517,-1194.1358 459.7548,-1225.8244 491.5762,-1253 502.2858,-1262.1461 515.5652,-1268.3091 529.2078,-1272.4365"/>
<polygon fill="#000000" stroke="#000000" points="528.6101,-1275.8994 539.1744,-1275.0957 530.4147,-1269.136 528.6101,-1275.8994"/>
</g>
<!-- PipelinedWriteImpl&#45;&gt;ShouldWriteToMemtable -->
<g id="edge39" class="edge">
<title>PipelinedWriteImpl&#45;&gt;ShouldWriteToMemtable</title>
<path fill="none" stroke="#000000" d="M396.5035,-1152.0391C417.0951,-1162.2061 440.1832,-1176.7734 455.5762,-1196 487.9898,-1236.4862 453.4935,-1271.7936 491.5762,-1307 498.4647,-1313.3683 506.5828,-1318.3124 515.2538,-1322.1399"/>
<polygon fill="#000000" stroke="#000000" points="514.2592,-1325.5083 524.8479,-1325.8694 516.7955,-1318.984 514.2592,-1325.5083"/>
</g>
<!-- PipelinedWriteImpl&#45;&gt;JoinBatchGroup -->
<g id="edge40" class="edge">
<title>PipelinedWriteImpl&#45;&gt;JoinBatchGroup</title>
<path fill="none" stroke="#000000" d="M400.5575,-1152.0299C420.8315,-1161.9078 442.5238,-1176.2445 455.5762,-1196 523.0398,-1298.1099 409.6555,-1378.0782 491.5762,-1469 504.0175,-1482.8083 522.1558,-1490.1665 540.2587,-1493.9317"/>
<polygon fill="#000000" stroke="#000000" points="539.8242,-1497.4086 550.2757,-1495.672 541.0224,-1490.5119 539.8242,-1497.4086"/>
</g>
<!-- PipelinedWriteImpl&#45;&gt;SetLastSequence -->
<g id="edge41" class="edge">
<title>PipelinedWriteImpl&#45;&gt;SetLastSequence</title>
<path fill="none" stroke="#000000" d="M374.4053,-1115.9339C401.7669,-1095.4484 448.5906,-1061.6937 491.5762,-1037 510.9082,-1025.8944 532.9511,-1015.1357 552.3836,-1006.2465"/>
<polygon fill="#000000" stroke="#000000" points="554.0196,-1009.348 561.6902,-1002.0396 551.1362,-1002.9694 554.0196,-1009.348"/>
</g>
<!-- PipelinedWriteImpl&#45;&gt;ExitAsBatchGroupFollower -->
<g id="edge42" class="edge">
<title>PipelinedWriteImpl&#45;&gt;ExitAsBatchGroupFollower</title>
<path fill="none" stroke="#000000" d="M401.4507,-1152.069C421.6299,-1161.8977 443.0038,-1176.1855 455.5762,-1196 501.1391,-1267.8085 435.8253,-1512.7794 491.5762,-1577 496.2723,-1582.4096 501.8423,-1586.8366 507.9522,-1590.4498"/>
<polygon fill="#000000" stroke="#000000" points="506.7513,-1593.7658 517.2512,-1595.1809 509.9255,-1587.5268 506.7513,-1593.7658"/>
</g>
<!-- PipelinedWriteImpl&#45;&gt;PreprocessWrite -->
<g id="edge43" class="edge">
<title>PipelinedWriteImpl&#45;&gt;PreprocessWrite</title>
<path fill="none" stroke="#000000" d="M355.6818,-1115.8324C369.5998,-1067.2418 413.4353,-932.3359 491.5762,-849 507.9868,-831.4984 530.1816,-817.3292 550.5343,-806.7404"/>
<polygon fill="#000000" stroke="#000000" points="552.3596,-809.7406 559.7286,-802.1282 549.2208,-803.4837 552.3596,-809.7406"/>
</g>
<!-- PipelinedWriteImpl&#45;&gt;EnterAsBatchGroupLeader -->
<g id="edge44" class="edge">
<title>PipelinedWriteImpl&#45;&gt;EnterAsBatchGroupLeader</title>
<path fill="none" stroke="#000000" d="M398.707,-1152.0343C419.1336,-1162.0337 441.461,-1176.4651 455.5762,-1196 499.5359,-1256.8385 439.0447,-1307.3882 491.5762,-1361 496.9484,-1366.4827 503.2225,-1370.9308 510.0103,-1374.531"/>
<polygon fill="#000000" stroke="#000000" points="509.002,-1377.9203 519.5484,-1378.9323 511.9349,-1371.5644 509.002,-1377.9203"/>
</g>
<!-- PipelinedWriteImpl&#45;&gt;AddDBStats -->
<g id="edge45" class="edge">
<title>PipelinedWriteImpl&#45;&gt;AddDBStats</title>
<path fill="none" stroke="#000000" d="M359.4791,-1115.7617C378.1227,-1078.8262 425.6243,-995.2022 491.5762,-954 509.2001,-942.9898 531.0781,-936.9633 550.8548,-933.6889"/>
<polygon fill="#000000" stroke="#000000" points="551.5803,-937.1203 560.9715,-932.2157 550.5715,-930.1933 551.5803,-937.1203"/>
</g>
<!-- PipelinedWriteImpl&#45;&gt;LaunchParallelMemTableWriters -->
<g id="edge46" class="edge">
<title>PipelinedWriteImpl&#45;&gt;LaunchParallelMemTableWriters</title>
<path fill="none" stroke="#000000" d="M401.0316,-1152.0303C421.2641,-1161.8798 442.7938,-1176.1944 455.5762,-1196 534.8611,-1318.8482 394.877,-1413.3321 491.5762,-1523 492.6156,-1524.1788 493.6966,-1525.3109 494.8155,-1526.3979"/>
<polygon fill="#000000" stroke="#000000" points="492.7799,-1529.2564 502.7151,-1532.9367 497.2434,-1523.8641 492.7799,-1529.2564"/>
</g>
<!-- PipelinedWriteImpl&#45;&gt;MarkLogsSynced -->
<g id="edge47" class="edge">
<title>PipelinedWriteImpl&#45;&gt;MarkLogsSynced</title>
<path fill="none" stroke="#000000" d="M356.3566,-1115.9368C370.9069,-1072.0419 414.3053,-959.2537 491.5762,-903 504.7753,-893.391 520.9306,-887.1609 536.8412,-883.1331"/>
<polygon fill="#000000" stroke="#000000" points="537.7098,-886.5251 546.6876,-880.8993 536.161,-879.6985 537.7098,-886.5251"/>
</g>
<!-- WaitForMemTableWriters -->
<g id="node37" class="node">
<title>WaitForMemTableWriters</title>
<polygon fill="none" stroke="#000000" points="686.1724,-1190 522.351,-1190 522.351,-1154 686.1724,-1154 686.1724,-1190"/>
<text text-anchor="middle" x="604.2617" y="-1167.8" font-family="Times,serif" font-size="14.00" fill="#000000">WaitForMemTableWriters</text>
</g>
<!-- PipelinedWriteImpl&#45;&gt;WaitForMemTableWriters -->
<g id="edge48" class="edge">
<title>PipelinedWriteImpl&#45;&gt;WaitForMemTableWriters</title>
<path fill="none" stroke="#000000" d="M414.0821,-1143.491C443.7183,-1147.9336 479.5887,-1153.3108 512.1546,-1158.1926"/>
<polygon fill="#000000" stroke="#000000" points="511.7362,-1161.6689 522.1446,-1159.6902 512.774,-1154.7463 511.7362,-1161.6689"/>
</g>
<!-- UpdateLastSequence -->
<g id="node38" class="node">
<title>UpdateLastSequence</title>
<polygon fill="none" stroke="#000000" points="671.4347,-1136 537.0888,-1136 537.0888,-1100 671.4347,-1100 671.4347,-1136"/>
<text text-anchor="middle" x="604.2617" y="-1113.8" font-family="Times,serif" font-size="14.00" fill="#000000">UpdateLastSequence</text>
</g>
<!-- PipelinedWriteImpl&#45;&gt;UpdateLastSequence -->
<g id="edge49" class="edge">
<title>PipelinedWriteImpl&#45;&gt;UpdateLastSequence</title>
<path fill="none" stroke="#000000" d="M414.0821,-1130.0038C448.2632,-1127.8463 490.7372,-1125.1655 526.8695,-1122.8849"/>
<polygon fill="#000000" stroke="#000000" points="527.1207,-1126.3761 536.8803,-1122.253 526.6797,-1119.39 527.1207,-1126.3761"/>
</g>
<!-- AppendedByteSize -->
<g id="node39" class="node">
<title>AppendedByteSize</title>
<polygon fill="none" stroke="#000000" points="666.3448,-1082 542.1787,-1082 542.1787,-1046 666.3448,-1046 666.3448,-1082"/>
<text text-anchor="middle" x="604.2617" y="-1059.8" font-family="Times,serif" font-size="14.00" fill="#000000">AppendedByteSize</text>
</g>
<!-- PipelinedWriteImpl&#45;&gt;AppendedByteSize -->
<g id="edge50" class="edge">
<title>PipelinedWriteImpl&#45;&gt;AppendedByteSize</title>
<path fill="none" stroke="#000000" d="M407.0645,-1115.9455C432.7349,-1107.9356 463.584,-1098.62 491.5762,-1091 504.6967,-1087.4283 518.7446,-1083.8605 532.3154,-1080.5433"/>
<polygon fill="#000000" stroke="#000000" points="533.1973,-1083.931 542.0927,-1078.1758 531.5498,-1077.1277 533.1973,-1083.931"/>
</g>
<!-- EnterAsMemTableWriter -->
<g id="node40" class="node">
<title>EnterAsMemTableWriter</title>
<polygon fill="none" stroke="#000000" points="683.5589,-1244 524.9646,-1244 524.9646,-1208 683.5589,-1208 683.5589,-1244"/>
<text text-anchor="middle" x="604.2617" y="-1221.8" font-family="Times,serif" font-size="14.00" fill="#000000">EnterAsMemTableWriter</text>
</g>
<!-- PipelinedWriteImpl&#45;&gt;EnterAsMemTableWriter -->
<g id="edge51" class="edge">
<title>PipelinedWriteImpl&#45;&gt;EnterAsMemTableWriter</title>
<path fill="none" stroke="#000000" d="M414.1792,-1148.3964C428.3075,-1152.9412 442.8571,-1158.732 455.5762,-1166 474.4215,-1176.7686 472.4104,-1188.8126 491.5762,-1199 499.0452,-1202.9701 507.1007,-1206.3644 515.3483,-1209.265"/>
<polygon fill="#000000" stroke="#000000" points="514.5026,-1212.6707 525.0951,-1212.4482 516.6758,-1206.0165 514.5026,-1212.6707"/>
</g>
<!-- ExitAsMemTableWriter -->
<g id="node41" class="node">
<title>ExitAsMemTableWriter</title>
<polygon fill="none" stroke="#000000" points="680.0726,-1460 528.4509,-1460 528.4509,-1424 680.0726,-1424 680.0726,-1460"/>
<text text-anchor="middle" x="604.2617" y="-1437.8" font-family="Times,serif" font-size="14.00" fill="#000000">ExitAsMemTableWriter</text>
</g>
<!-- PipelinedWriteImpl&#45;&gt;ExitAsMemTableWriter -->
<g id="edge52" class="edge">
<title>PipelinedWriteImpl&#45;&gt;ExitAsMemTableWriter</title>
<path fill="none" stroke="#000000" d="M399.9901,-1152.0968C420.2856,-1162.0165 442.1515,-1176.3673 455.5762,-1196 511.2532,-1277.4239 424.3919,-1342.7778 491.5762,-1415 499.1294,-1423.1196 508.6547,-1428.9943 518.9526,-1433.2145"/>
<polygon fill="#000000" stroke="#000000" points="517.9979,-1436.5896 528.5926,-1436.6419 520.3429,-1429.9941 517.9979,-1436.5896"/>
</g>
<!-- WriteBatchInternal_InsertInto&#45;&gt;ShouldWriteToMemtable -->
<g id="edge63" class="edge">
<title>WriteBatchInternal_InsertInto&#45;&gt;ShouldWriteToMemtable</title>
<path fill="none" stroke="#000000" d="M362.6701,-452.0037C385.5781,-487.7623 435.3244,-571.0282 455.5762,-649 473.9831,-719.869 444.6789,-1250.7694 491.5762,-1307 498.0992,-1314.8212 506.449,-1320.6049 515.6481,-1324.8512"/>
<polygon fill="#000000" stroke="#000000" points="514.5083,-1328.1644 525.094,-1328.6034 517.0926,-1321.6589 514.5083,-1328.1644"/>
</g>
<!-- sequence -->
<g id="node46" class="node">
<title>sequence</title>
<polygon fill="none" stroke="#000000" points="638.0661,-184 570.4573,-184 570.4573,-148 638.0661,-148 638.0661,-184"/>
<text text-anchor="middle" x="604.2617" y="-161.8" font-family="Times,serif" font-size="14.00" fill="#000000">sequence</text>
</g>
<!-- WriteBatchInternal_InsertInto&#45;&gt;sequence -->
<g id="edge64" class="edge">
<title>WriteBatchInternal_InsertInto&#45;&gt;sequence</title>
<path fill="none" stroke="#000000" d="M443.6226,-417.1212C447.9849,-414.2266 452.0183,-410.8757 455.5762,-407 520.799,-335.95 425.7531,-263.4943 491.5762,-193 508.9775,-174.3638 536.7695,-167.5627 560.3981,-165.4459"/>
<polygon fill="#000000" stroke="#000000" points="560.813,-168.9265 570.5673,-164.7907 560.3629,-161.941 560.813,-168.9265"/>
</g>
<!-- MaybeAdvanceSeq -->
<g id="node47" class="node">
<title>MaybeAdvanceSeq</title>
<polygon fill="none" stroke="#000000" points="666.8902,-130 541.6332,-130 541.6332,-94 666.8902,-94 666.8902,-130"/>
<text text-anchor="middle" x="604.2617" y="-107.8" font-family="Times,serif" font-size="14.00" fill="#000000">MaybeAdvanceSeq</text>
</g>
<!-- WriteBatchInternal_InsertInto&#45;&gt;MaybeAdvanceSeq -->
<g id="edge65" class="edge">
<title>WriteBatchInternal_InsertInto&#45;&gt;MaybeAdvanceSeq</title>
<path fill="none" stroke="#000000" d="M443.3121,-417.5722C447.8151,-414.5726 451.9583,-411.0746 455.5762,-407 535.3709,-317.132 411.0221,-228.188 491.5762,-139 502.0289,-127.4269 516.4839,-120.387 531.5588,-116.196"/>
<polygon fill="#000000" stroke="#000000" points="532.5961,-119.5472 541.5188,-113.8344 530.9811,-112.736 532.5961,-119.5472"/>
</g>
<!-- set_log_number_ref -->
<g id="node48" class="node">
<title>set_log_number_ref</title>
<polygon fill="none" stroke="#000000" points="668.5071,-346 540.0163,-346 540.0163,-310 668.5071,-310 668.5071,-346"/>
<text text-anchor="middle" x="604.2617" y="-323.8" font-family="Times,serif" font-size="14.00" fill="#000000">set_log_number_ref</text>
</g>
<!-- WriteBatchInternal_InsertInto&#45;&gt;set_log_number_ref -->
<g id="edge66" class="edge">
<title>WriteBatchInternal_InsertInto&#45;&gt;set_log_number_ref</title>
<path fill="none" stroke="#000000" d="M440.687,-415.9155C445.9293,-413.3298 450.9448,-410.3754 455.5762,-407 479.7905,-389.3522 466.8491,-366.9219 491.5762,-350 502.9598,-342.2096 516.4235,-337.0234 530.0107,-333.6028"/>
<polygon fill="#000000" stroke="#000000" points="530.8921,-336.9925 539.8982,-331.4121 529.3778,-330.1582 530.8921,-336.9925"/>
</g>
<!-- MemTableInserter -->
<g id="node49" class="node">
<title>MemTableInserter</title>
<polygon fill="none" stroke="#000000" points="663.9572,-292 544.5662,-292 544.5662,-256 663.9572,-256 663.9572,-292"/>
<text text-anchor="middle" x="604.2617" y="-269.8" font-family="Times,serif" font-size="14.00" fill="#000000">MemTableInserter</text>
</g>
<!-- WriteBatchInternal_InsertInto&#45;&gt;MemTableInserter -->
<g id="edge67" class="edge">
<title>WriteBatchInternal_InsertInto&#45;&gt;MemTableInserter</title>
<path fill="none" stroke="#000000" d="M443.3951,-416.1191C447.7555,-413.4723 451.8564,-410.4498 455.5762,-407 492.0563,-373.1672 454.8104,-334.5222 491.5762,-301 503.5175,-290.1122 519.0597,-283.3988 534.7674,-279.3121"/>
<polygon fill="#000000" stroke="#000000" points="535.5618,-282.7209 544.5383,-277.0932 534.0115,-275.8947 535.5618,-282.7209"/>
</g>
<!-- PreprocessWrite&#45;&gt;GetColumnFamilySet -->
<g id="edge30" class="edge">
<title>PreprocessWrite&#45;&gt;GetColumnFamilySet</title>
<path fill="none" stroke="#0000ff" d="M658.3025,-786.1686C681.7321,-789.8745 707.6944,-798.1578 724.9473,-816 763.6189,-855.9928 718.4522,-894.3537 752.9473,-938 760.3729,-947.3956 770.2129,-955.012 780.7152,-961.14"/>
<polygon fill="#0000ff" stroke="#0000ff" points="779.1889,-964.2932 789.6544,-965.9439 782.5026,-958.1271 779.1889,-964.2932"/>
</g>
<!-- WaitForPendingWrites -->
<g id="node31" class="node">
<title>WaitForPendingWrites</title>
<polygon fill="none" stroke="#000000" points="918.2765,-767 773.8876,-767 773.8876,-731 918.2765,-731 918.2765,-767"/>
<text text-anchor="middle" x="846.082" y="-744.8" font-family="Times,serif" font-size="14.00" fill="#000000">WaitForPendingWrites</text>
</g>
<!-- PreprocessWrite&#45;&gt;WaitForPendingWrites -->
<g id="edge31" class="edge">
<title>PreprocessWrite&#45;&gt;WaitForPendingWrites</title>
<path fill="none" stroke="#0000ff" d="M658.2299,-776.1889C689.2697,-771.6963 728.9043,-765.9598 763.7597,-760.915"/>
<polygon fill="#0000ff" stroke="#0000ff" points="764.5335,-764.3395 773.929,-759.4431 763.5308,-757.4117 764.5335,-764.3395"/>
</g>
<!-- SwitchWAL -->
<g id="node32" class="node">
<title>SwitchWAL</title>
<polygon fill="none" stroke="#000000" points="888.7962,-713 803.3679,-713 803.3679,-677 888.7962,-677 888.7962,-713"/>
<text text-anchor="middle" x="846.082" y="-690.8" font-family="Times,serif" font-size="14.00" fill="#000000">SwitchWAL</text>
</g>
<!-- PreprocessWrite&#45;&gt;SwitchWAL -->
<g id="edge32" class="edge">
<title>PreprocessWrite&#45;&gt;SwitchWAL</title>
<path fill="none" stroke="#0000ff" d="M658.3044,-779.7751C680.2696,-776.1274 705.0954,-769.393 724.9473,-757 741.8456,-746.4508 736.3844,-733.0685 752.9473,-722 764.9991,-713.9462 779.4795,-708.2556 793.3915,-704.2497"/>
<polygon fill="#0000ff" stroke="#0000ff" points="794.5988,-707.5512 803.3784,-701.6208 792.8168,-700.7818 794.5988,-707.5512"/>
</g>
<!-- HandleWriteBufferFull -->
<g id="node33" class="node">
<title>HandleWriteBufferFull</title>
<polygon fill="none" stroke="#000000" points="919.1832,-659 772.9809,-659 772.9809,-623 919.1832,-623 919.1832,-659"/>
<text text-anchor="middle" x="846.082" y="-636.8" font-family="Times,serif" font-size="14.00" fill="#000000">HandleWriteBufferFull</text>
</g>
<!-- PreprocessWrite&#45;&gt;HandleWriteBufferFull -->
<g id="edge33" class="edge">
<title>PreprocessWrite&#45;&gt;HandleWriteBufferFull</title>
<path fill="none" stroke="#0000ff" d="M658.4387,-783.5023C681.4728,-780.5978 707.0809,-773.4137 724.9473,-757 755.484,-728.9462 723.2957,-696.9878 752.9473,-668 756.2182,-664.8022 759.8441,-661.9791 763.7126,-659.4872"/>
<polygon fill="#0000ff" stroke="#0000ff" points="765.5162,-662.4886 772.5257,-654.5439 762.0917,-656.3834 765.5162,-662.4886"/>
</g>
<!-- ShouldFlush -->
<g id="node34" class="node">
<title>ShouldFlush</title>
<polygon fill="none" stroke="#000000" points="889.3821,-929 802.782,-929 802.782,-893 889.3821,-893 889.3821,-929"/>
<text text-anchor="middle" x="846.082" y="-906.8" font-family="Times,serif" font-size="14.00" fill="#000000">ShouldFlush</text>
</g>
<!-- PreprocessWrite&#45;&gt;ShouldFlush -->
<g id="edge34" class="edge">
<title>PreprocessWrite&#45;&gt;ShouldFlush</title>
<path fill="none" stroke="#0000ff" d="M658.53,-787.7945C681.3082,-791.8721 706.6903,-799.9974 724.9473,-816 749.526,-837.5437 728.6177,-862.1753 752.9473,-884 764.0457,-893.9558 778.6115,-900.2545 792.9174,-904.2351"/>
<polygon fill="#0000ff" stroke="#0000ff" points="792.1888,-907.66 802.7341,-906.6369 793.8525,-900.8605 792.1888,-907.66"/>
</g>
<!-- TrimMemtableHistory -->
<g id="node35" class="node">
<title>TrimMemtableHistory</title>
<polygon fill="none" stroke="#000000" points="917.3489,-875 774.8152,-875 774.8152,-839 917.3489,-839 917.3489,-875"/>
<text text-anchor="middle" x="846.082" y="-852.8" font-family="Times,serif" font-size="14.00" fill="#000000">TrimMemtableHistory</text>
</g>
<!-- PreprocessWrite&#45;&gt;TrimMemtableHistory -->
<g id="edge35" class="edge">
<title>PreprocessWrite&#45;&gt;TrimMemtableHistory</title>
<path fill="none" stroke="#0000ff" d="M658.4725,-795.866C679.5292,-801.1226 703.6575,-807.952 724.9473,-816 737.9617,-820.9198 739.9902,-824.931 752.9473,-830 758.0426,-831.9934 763.3453,-833.9157 768.7205,-835.7531"/>
<polygon fill="#0000ff" stroke="#0000ff" points="767.8519,-839.1521 778.4451,-838.9653 770.0475,-832.5053 767.8519,-839.1521"/>
</g>
<!-- ScheduleFlushes -->
<g id="node36" class="node">
<title>ScheduleFlushes</title>
<polygon fill="none" stroke="#000000" points="901.1856,-821 790.9785,-821 790.9785,-785 901.1856,-785 901.1856,-821"/>
<text text-anchor="middle" x="846.082" y="-798.8" font-family="Times,serif" font-size="14.00" fill="#000000">ScheduleFlushes</text>
</g>
<!-- PreprocessWrite&#45;&gt;ScheduleFlushes -->
<g id="edge36" class="edge">
<title>PreprocessWrite&#45;&gt;ScheduleFlushes</title>
<path fill="none" stroke="#0000ff" d="M658.2299,-788.2403C694.5196,-791.0916 742.5573,-794.866 780.9704,-797.8841"/>
<polygon fill="#0000ff" stroke="#0000ff" points="780.7791,-801.3798 791.0226,-798.6739 781.3275,-794.4013 780.7791,-801.3798"/>
</g>
<!-- concurrent_memtable_writes_ -->
<g id="node50" class="node">
<title>concurrent_memtable_writes_</title>
<polygon fill="none" stroke="#000000" points="939.3518,-265 752.8123,-265 752.8123,-229 939.3518,-229 939.3518,-265"/>
<text text-anchor="middle" x="846.082" y="-242.8" font-family="Times,serif" font-size="14.00" fill="#000000">concurrent_memtable_writes_</text>
</g>
<!-- MemTableInserter&#45;&gt;concurrent_memtable_writes_ -->
<g id="edge68" class="edge">
<title>MemTableInserter&#45;&gt;concurrent_memtable_writes_</title>
<path fill="none" stroke="#000000" d="M664.0375,-267.3258C687.7252,-264.681 715.6611,-261.5619 742.4428,-258.5716"/>
<polygon fill="#000000" stroke="#000000" points="743.0895,-262.0213 752.6393,-257.4332 742.3127,-255.0645 743.0895,-262.0213"/>
</g>
<!-- post_info_created_ -->
<g id="node51" class="node">
<title>post_info_created_</title>
<polygon fill="none" stroke="#000000" points="907.8793,-319 784.2848,-319 784.2848,-283 907.8793,-283 907.8793,-319"/>
<text text-anchor="middle" x="846.082" y="-296.8" font-family="Times,serif" font-size="14.00" fill="#000000">post_info_created_</text>
</g>
<!-- MemTableInserter&#45;&gt;post_info_created_ -->
<g id="edge69" class="edge">
<title>MemTableInserter&#45;&gt;post_info_created_</title>
<path fill="none" stroke="#000000" d="M664.0375,-280.6742C697.2621,-284.3838 738.8443,-289.0266 773.8767,-292.938"/>
<polygon fill="#000000" stroke="#000000" points="773.7187,-296.4421 784.0453,-294.0734 774.4955,-289.4853 773.7187,-296.4421"/>
</g>
<!-- WriteBatch -->
<g id="node52" class="node">
<title>WriteBatch</title>
<polygon fill="none" stroke="#000000" points="90.0732,-925 10.1318,-925 10.1318,-889 90.0732,-889 90.0732,-925"/>
<text text-anchor="middle" x="50.1025" y="-902.8" font-family="Times,serif" font-size="14.00" fill="#000000">WriteBatch</text>
</g>
<!-- DB_Put -->
<g id="node53" class="node">
<title>DB_Put</title>
<polygon fill="none" stroke="#000000" points="80.7267,-979 19.4784,-979 19.4784,-943 80.7267,-943 80.7267,-979"/>
<text text-anchor="middle" x="50.1025" y="-956.8" font-family="Times,serif" font-size="14.00" fill="#000000">DB_Put</text>
</g>
</g>
</svg>
