<?xml version="1.0" encoding="UTF-8" standalone="no"?>
<!DOCTYPE svg PUBLIC "-//W3C//DTD SVG 1.1//EN"
 "http://www.w3.org/Graphics/SVG/1.1/DTD/svg11.dtd">
<!-- Generated by graphviz version 2.40.1 (20161225.0304)
 -->
<!-- Title: gfs_arch Pages: 1 -->
<svg width="1892pt" height="974pt"
 viewBox="0.00 0.00 1892.00 974.00" xmlns="http://www.w3.org/2000/svg" xmlns:xlink="http://www.w3.org/1999/xlink">
<g id="graph0" class="graph" transform="scale(1 1) rotate(0) translate(4 970)">
<title>gfs_arch</title>
<polygon fill="#ffffff" stroke="transparent" points="-4,4 -4,-970 1888,-970 1888,4 -4,4"/>
<g id="clust1" class="cluster">
<title>cluster_Client</title>
<polygon fill="none" stroke="#000000" points="8,-762 8,-958 1031,-958 1031,-762 8,-762"/>
<text text-anchor="middle" x="519.5" y="-938" font-family="Times,serif" font-size="20.00" fill="#000000">Client</text>
</g>
<g id="clust2" class="cluster">
<title>cluster_Server</title>
<polygon fill="none" stroke="#000000" points="791,-8 791,-754 1876,-754 1876,-8 791,-8"/>
<text text-anchor="middle" x="1333.5" y="-734" font-family="Times,serif" font-size="20.00" fill="#000000">Server</text>
</g>
<g id="clust3" class="cluster">
<title>cluster_Master</title>
<polygon fill="none" stroke="#000000" points="799,-434 799,-716 1691,-716 1691,-434 799,-434"/>
<text text-anchor="middle" x="1245" y="-696" font-family="Times,serif" font-size="20.00" fill="#000000">Master</text>
</g>
<g id="clust7" class="cluster">
<title>cluster_ChunkServers</title>
<polygon fill="none" stroke="#000000" points="1330.5,-16 1330.5,-264 1691,-264 1691,-16 1330.5,-16"/>
<text text-anchor="middle" x="1510.75" y="-244" font-family="Times,serif" font-size="20.00" fill="#000000">ChunkServer1</text>
</g>
<g id="clust9" class="cluster">
<title>cluster_Linux_fs</title>
<polygon fill="none" stroke="#000000" points="1534,-24 1534,-226 1683,-226 1683,-24 1534,-24"/>
<text text-anchor="middle" x="1608.5" y="-206" font-family="Times,serif" font-size="20.00" fill="#000000">Linux fs</text>
</g>
<g id="clust10" class="cluster">
<title>cluster_ChunkServer2</title>
<polygon fill="none" stroke="#000000" points="1330.5,-272 1330.5,-426 1868,-426 1868,-272 1330.5,-272"/>
<text text-anchor="middle" x="1599.25" y="-406" font-family="Times,serif" font-size="20.00" fill="#000000">ChunkServer2</text>
</g>
<g id="clust12" class="cluster">
<title>cluster_Linux_fs</title>
<polygon fill="none" stroke="#000000" points="1552,-280 1552,-388 1860,-388 1860,-280 1552,-280"/>
<text text-anchor="middle" x="1706" y="-368" font-family="Times,serif" font-size="20.00" fill="#000000">Linux fs</text>
</g>
<!-- AppCode -->
<g id="node1" class="node">
<title>AppCode</title>
<polygon fill="none" stroke="#000000" points="16,-797 16,-873 171,-873 171,-797 16,-797"/>
<text text-anchor="middle" x="93.5" y="-857.8" font-family="Times,serif" font-size="14.00" fill="#000000">AppCode</text>
<polyline fill="none" stroke="#000000" points="16,-850 171,-850 "/>
<text text-anchor="start" x="24" y="-834.8" font-family="Times,serif" font-size="14.00" fill="#000000">使用封装好的GFS接口</text>
<text text-anchor="start" x="24" y="-819.8" font-family="Times,serif" font-size="14.00" fill="#000000"> create/delete/open/close</text>
<text text-anchor="start" x="24" y="-804.8" font-family="Times,serif" font-size="14.00" fill="#000000"> read/write</text>
</g>
<!-- Client -->
<g id="node2" class="node">
<title>Client</title>
<polygon fill="none" stroke="#000000" points="207,-774.5 207,-895.5 556,-895.5 556,-774.5 207,-774.5"/>
<text text-anchor="middle" x="381.5" y="-880.3" font-family="Times,serif" font-size="14.00" fill="#000000">GFS Client lib</text>
<polyline fill="none" stroke="#000000" points="207,-872.5 556,-872.5 "/>
<text text-anchor="start" x="215" y="-857.3" font-family="Times,serif" font-size="14.00" fill="#000000">封装和master/chunk server通信</text>
<text text-anchor="start" x="215" y="-842.3" font-family="Times,serif" font-size="14.00" fill="#000000"> 1.client和master通信获取Metadata</text>
<text text-anchor="start" x="215" y="-827.3" font-family="Times,serif" font-size="14.00" fill="#000000"> 2.client和chunk server通信读写数据</text>
<text text-anchor="start" x="215" y="-812.3" font-family="Times,serif" font-size="14.00" fill="#000000"> 3.处理chunk边界等问题</text>
<text text-anchor="start" x="215" y="-797.3" font-family="Times,serif" font-size="14.00" fill="#000000"> 4.client会缓存 (filename,chunkindex) &#45;&gt; chunkhandle信息</text>
<text text-anchor="start" x="215" y="-782.3" font-family="Times,serif" font-size="14.00" fill="#000000"> 减小和master的通信负担</text>
</g>
<!-- AppCode&#45;&gt;Client -->
<g id="edge1" class="edge">
<title>AppCode&#45;&gt;Client</title>
<path fill="none" stroke="#666666" d="M171.0576,-835C179.2889,-835 187.8911,-835 196.7161,-835"/>
<polygon fill="#666666" stroke="#666666" points="196.7666,-838.5001 206.7665,-835 196.7665,-831.5001 196.7666,-838.5001"/>
</g>
<!-- Cache -->
<g id="node3" class="node">
<title>Cache</title>
<polygon fill="#a6b1e1" stroke="#000000" points="809,-831.5 809,-892.5 1023,-892.5 1023,-831.5 809,-831.5"/>
<text text-anchor="middle" x="916" y="-877.3" font-family="Times,serif" font-size="14.00" fill="#000000">Cache</text>
<polyline fill="none" stroke="#000000" points="809,-869.5 1023,-869.5 "/>
<text text-anchor="start" x="817" y="-854.3" font-family="Times,serif" font-size="14.00" fill="#000000">缓存Master返回的chunk信息</text>
<text text-anchor="start" x="817" y="-839.3" font-family="Times,serif" font-size="14.00" fill="#000000"> 避免每次都要去master获取信息</text>
</g>
<!-- Client&#45;&gt;Cache -->
<g id="edge2" class="edge">
<title>Client&#45;&gt;Cache</title>
<path fill="none" stroke="#666666" d="M534.826,-895.5575C553.8325,-901.0773 573.1936,-905.7906 592,-909 670.4218,-922.3829 692.4195,-921.4174 771,-909 789.5008,-906.0765 808.8554,-901.1768 827.1775,-895.6171"/>
<polygon fill="#666666" stroke="#666666" points="828.4453,-898.8879 836.9452,-892.5632 826.3564,-892.2068 828.4453,-898.8879"/>
</g>
<!-- client_req -->
<g id="node4" class="node">
<title>client_req</title>
<polygon fill="#95e1d3" stroke="#000000" points="618.5,-770.5 618.5,-899.5 744.5,-899.5 744.5,-770.5 618.5,-770.5"/>
<text text-anchor="middle" x="681.5" y="-884.3" font-family="Times,serif" font-size="14.00" fill="#000000">client和master通信</text>
<polyline fill="none" stroke="#000000" points="618.5,-876.5 744.5,-876.5 "/>
<text text-anchor="start" x="626.5" y="-861.3" font-family="Times,serif" font-size="14.00" fill="#000000">req:</text>
<text text-anchor="start" x="626.5" y="-846.3" font-family="Times,serif" font-size="14.00" fill="#000000"> filename</text>
<text text-anchor="start" x="626.5" y="-831.3" font-family="Times,serif" font-size="14.00" fill="#000000"> chunk index</text>
<polyline fill="none" stroke="#000000" points="618.5,-823.5 744.5,-823.5 "/>
<text text-anchor="start" x="626.5" y="-808.3" font-family="Times,serif" font-size="14.00" fill="#000000">resp:</text>
<text text-anchor="start" x="626.5" y="-793.3" font-family="Times,serif" font-size="14.00" fill="#000000"> chunk handle</text>
<text text-anchor="start" x="626.5" y="-778.3" font-family="Times,serif" font-size="14.00" fill="#000000"> chunk location</text>
</g>
<!-- Client&#45;&gt;client_req -->
<g id="edge21" class="edge">
<title>Client&#45;&gt;client_req</title>
<path fill="none" stroke="#666666" d="M556.0112,-835C574.1985,-835 591.8916,-835 607.9818,-835"/>
<polygon fill="#666666" stroke="#666666" points="608.313,-838.5001 618.3129,-835 608.3129,-831.5001 608.313,-838.5001"/>
</g>
<!-- data -->
<g id="node20" class="node">
<title>data</title>
<polygon fill="#95e1d3" stroke="#000000" points="592,-530.5 592,-599.5 771,-599.5 771,-530.5 592,-530.5"/>
<text text-anchor="middle" x="681.5" y="-584.3" font-family="Times,serif" font-size="14.00" fill="#000000">client 和chunk之间通信</text>
<polyline fill="none" stroke="#000000" points="592,-576.5 771,-576.5 "/>
<text text-anchor="start" x="600" y="-561.3" font-family="Times,serif" font-size="14.00" fill="#000000">req: chunk handle, byte range</text>
<polyline fill="none" stroke="#000000" points="592,-553.5 771,-553.5 "/>
<text text-anchor="start" x="600" y="-538.3" font-family="Times,serif" font-size="14.00" fill="#000000">resp: chunk数据</text>
</g>
<!-- Client&#45;&gt;data -->
<g id="edge23" class="edge">
<title>Client&#45;&gt;data</title>
<path fill="none" stroke="#17b978" d="M448.8259,-774.4067C505.5634,-723.343 585.2506,-651.6245 635.0986,-606.7613"/>
<polygon fill="#17b978" stroke="#17b978" points="637.743,-609.0901 642.8346,-599.7989 633.0602,-603.887 637.743,-609.0901"/>
</g>
<!-- client_req&#45;&gt;Cache -->
<g id="edge3" class="edge">
<title>client_req&#45;&gt;Cache</title>
<path fill="none" stroke="#666666" stroke-dasharray="5,2" d="M744.6502,-842.271C761.4385,-844.204 780.1222,-846.3552 798.804,-848.5062"/>
<polygon fill="#666666" stroke="#666666" points="798.5308,-851.9978 808.8655,-849.6647 799.3315,-845.0437 798.5308,-851.9978"/>
</g>
<!-- Master -->
<g id="node5" class="node">
<title>Master</title>
<polygon fill="none" stroke="#000000" points="807,-506 807,-642 1025,-642 1025,-506 807,-506"/>
<text text-anchor="middle" x="916" y="-626.8" font-family="Times,serif" font-size="14.00" fill="#000000">Master</text>
<polyline fill="none" stroke="#000000" points="807,-619 1025,-619 "/>
<text text-anchor="start" x="815" y="-603.8" font-family="Times,serif" font-size="14.00" fill="#000000">Master Server维护系统的metadata:</text>
<text text-anchor="start" x="815" y="-588.8" font-family="Times,serif" font-size="14.00" fill="#000000"> 1.namespace, access control</text>
<text text-anchor="start" x="815" y="-573.8" font-family="Times,serif" font-size="14.00" fill="#000000"> 2.map from files to chunks</text>
<text text-anchor="start" x="815" y="-558.8" font-family="Times,serif" font-size="14.00" fill="#000000"> 3.locations of chunks</text>
<text text-anchor="start" x="815" y="-543.8" font-family="Times,serif" font-size="14.00" fill="#000000"> 4.chunk lease management</text>
<text text-anchor="start" x="815" y="-528.8" font-family="Times,serif" font-size="14.00" fill="#000000"> 5.gc of orphaned chunks</text>
<text text-anchor="start" x="815" y="-513.8" font-family="Times,serif" font-size="14.00" fill="#000000"> 6.chunk migration</text>
</g>
<!-- client_req&#45;&gt;Master -->
<g id="edge22" class="edge">
<title>client_req&#45;&gt;Master</title>
<path fill="none" stroke="#666666" d="M739.4663,-770.4831C772.2716,-733.9706 813.4793,-688.1062 847.8293,-649.8745"/>
<polygon fill="#666666" stroke="#666666" points="850.5234,-652.1127 854.6033,-642.3349 845.3164,-647.4344 850.5234,-652.1127"/>
</g>
<!-- Namespace -->
<g id="node6" class="node">
<title>Namespace</title>
<polygon fill="#a6b1e1" stroke="#000000" points="1117,-551 1117,-597 1197,-597 1197,-551 1117,-551"/>
<text text-anchor="middle" x="1157" y="-581.8" font-family="Times,serif" font-size="14.00" fill="#000000">Namespace</text>
<polyline fill="none" stroke="#000000" points="1117,-574 1197,-574 "/>
<text text-anchor="middle" x="1157" y="-558.8" font-family="Times,serif" font-size="14.00" fill="#000000">文件树</text>
</g>
<!-- Master&#45;&gt;Namespace -->
<g id="edge4" class="edge">
<title>Master&#45;&gt;Namespace</title>
<path fill="none" stroke="#666666" d="M1025.2178,-574C1053.6417,-574 1082.9101,-574 1106.6225,-574"/>
<polygon fill="#666666" stroke="#666666" points="1106.7638,-577.5001 1116.7638,-574 1106.7638,-570.5001 1106.7638,-577.5001"/>
</g>
<!-- FileToChunkMapping -->
<g id="node7" class="node">
<title>FileToChunkMapping</title>
<polygon fill="#a6b1e1" stroke="#000000" points="1088,-616.5 1088,-677.5 1226,-677.5 1226,-616.5 1088,-616.5"/>
<text text-anchor="middle" x="1157" y="-662.3" font-family="Times,serif" font-size="14.00" fill="#000000">FileToChunkMapping</text>
<polyline fill="none" stroke="#000000" points="1088,-654.5 1226,-654.5 "/>
<text text-anchor="start" x="1096" y="-639.3" font-family="Times,serif" font-size="14.00" fill="#000000">每个文件由哪些</text>
<text text-anchor="start" x="1096" y="-624.3" font-family="Times,serif" font-size="14.00" fill="#000000"> chunkHanle组成</text>
</g>
<!-- Master&#45;&gt;FileToChunkMapping -->
<g id="edge5" class="edge">
<title>Master&#45;&gt;FileToChunkMapping</title>
<path fill="none" stroke="#666666" d="M1025.2178,-607.0826C1043.0205,-612.4751 1061.1546,-617.968 1078.0473,-623.0849"/>
<polygon fill="#666666" stroke="#666666" points="1077.253,-626.5012 1087.8382,-626.0506 1079.2823,-619.8018 1077.253,-626.5012"/>
</g>
<!-- ChunkLocation -->
<g id="node8" class="node">
<title>ChunkLocation</title>
<polygon fill="none" stroke="#000000" points="1289,-448 1289,-524 1498,-524 1498,-448 1289,-448"/>
<text text-anchor="middle" x="1393.5" y="-508.8" font-family="Times,serif" font-size="14.00" fill="#000000">ChunkLocation</text>
<polyline fill="none" stroke="#000000" points="1289,-501 1498,-501 "/>
<text text-anchor="start" x="1297" y="-485.8" font-family="Times,serif" font-size="14.00" fill="#000000">master通过定期询问chunk server</text>
<text text-anchor="start" x="1297" y="-470.8" font-family="Times,serif" font-size="14.00" fill="#000000"> 获取chunk location信息</text>
<text text-anchor="start" x="1297" y="-455.8" font-family="Times,serif" font-size="14.00" fill="#000000"> 并重建文件&#45;chunk映射表</text>
</g>
<!-- Master&#45;&gt;ChunkLocation -->
<g id="edge6" class="edge">
<title>Master&#45;&gt;ChunkLocation</title>
<path fill="none" stroke="#666666" d="M1025.0158,-548.6149C1037.1211,-546.1918 1049.2988,-543.9253 1061,-542 1145.7033,-528.0632 1168.492,-536.0761 1253,-521 1261.4507,-519.4924 1270.147,-517.7642 1278.8728,-515.9012"/>
<polygon fill="#666666" stroke="#666666" points="1279.705,-519.3019 1288.7256,-513.7449 1278.2085,-512.4638 1279.705,-519.3019"/>
</g>
<!-- master_chunk -->
<g id="node10" class="node">
<title>master_chunk</title>
<polygon fill="#95e1d3" stroke="#000000" points="1061,-442.5 1061,-511.5 1253,-511.5 1253,-442.5 1061,-442.5"/>
<text text-anchor="start" x="1069" y="-496.3" font-family="Times,serif" font-size="14.00" fill="#000000">master和chunk之间通信</text>
<polyline fill="none" stroke="#000000" points="1061,-488.5 1253,-488.5 "/>
<text text-anchor="start" x="1069" y="-473.3" font-family="Times,serif" font-size="14.00" fill="#000000">1.master发送心跳信息和指令</text>
<polyline fill="none" stroke="#000000" points="1061,-465.5 1253,-465.5 "/>
<text text-anchor="start" x="1069" y="-450.3" font-family="Times,serif" font-size="14.00" fill="#000000">2.收集chunk server信息</text>
</g>
<!-- Master&#45;&gt;master_chunk -->
<g id="edge18" class="edge">
<title>Master&#45;&gt;master_chunk</title>
<path fill="none" stroke="#666666" d="M1025.2178,-530.041C1037.4035,-525.1363 1049.7444,-520.1693 1061.7362,-515.3427"/>
<polygon fill="#666666" stroke="#666666" points="1063.299,-518.4866 1071.2689,-511.5059 1060.6853,-511.9929 1063.299,-518.4866"/>
</g>
<!-- Persistent -->
<g id="node9" class="node">
<title>Persistent</title>
<polygon fill="none" stroke="#000000" points="1299.5,-545.5 1299.5,-674.5 1487.5,-674.5 1487.5,-545.5 1299.5,-545.5"/>
<text text-anchor="middle" x="1393.5" y="-659.3" font-family="Times,serif" font-size="14.00" fill="#000000">Persistent</text>
<polyline fill="none" stroke="#000000" points="1299.5,-651.5 1487.5,-651.5 "/>
<text text-anchor="start" x="1307.5" y="-636.3" font-family="Times,serif" font-size="14.00" fill="#000000">通过Operationlog</text>
<text text-anchor="start" x="1307.5" y="-621.3" font-family="Times,serif" font-size="14.00" fill="#000000"> 和checkPoint</text>
<text text-anchor="start" x="1307.5" y="-606.3" font-family="Times,serif" font-size="14.00" fill="#000000"> 持久化存储在</text>
<text text-anchor="start" x="1307.5" y="-591.3" font-family="Times,serif" font-size="14.00" fill="#000000"> local disk并复制</text>
<text text-anchor="start" x="1307.5" y="-576.3" font-family="Times,serif" font-size="14.00" fill="#000000"> 到remote server上</text>
<polyline fill="none" stroke="#000000" points="1299.5,-568.5 1487.5,-568.5 "/>
<text text-anchor="start" x="1307.5" y="-553.3" font-family="Times,serif" font-size="14.00" fill="#000000">先持久化，再响应客户请求</text>
</g>
<!-- Namespace&#45;&gt;Persistent -->
<g id="edge7" class="edge">
<title>Namespace&#45;&gt;Persistent</title>
<path fill="none" stroke="#666666" d="M1197.119,-580.1069C1222.4981,-583.9701 1256.5682,-589.1563 1289.201,-594.1236"/>
<polygon fill="#666666" stroke="#666666" points="1288.8582,-597.6117 1299.271,-595.6565 1289.9116,-590.6914 1288.8582,-597.6117"/>
</g>
<!-- FileToChunkMapping&#45;&gt;Persistent -->
<g id="edge8" class="edge">
<title>FileToChunkMapping&#45;&gt;Persistent</title>
<path fill="none" stroke="#666666" d="M1226.0414,-636.1986C1245.815,-633.1051 1267.8229,-629.662 1289.2128,-626.3156"/>
<polygon fill="#666666" stroke="#666666" points="1289.9787,-629.7384 1299.3175,-624.7347 1288.8967,-622.8225 1289.9787,-629.7384"/>
</g>
<!-- OperationLog -->
<g id="node11" class="node">
<title>OperationLog</title>
<polygon fill="#d2c6b2" stroke="#000000" points="1549.5,-517.5 1549.5,-578.5 1667.5,-578.5 1667.5,-517.5 1549.5,-517.5"/>
<text text-anchor="middle" x="1608.5" y="-563.3" font-family="Times,serif" font-size="14.00" fill="#000000">OperationLog</text>
<polyline fill="none" stroke="#000000" points="1549.5,-555.5 1667.5,-555.5 "/>
<text text-anchor="start" x="1557.5" y="-540.3" font-family="Times,serif" font-size="14.00" fill="#000000">记录操作, master</text>
<text text-anchor="start" x="1557.5" y="-525.3" font-family="Times,serif" font-size="14.00" fill="#000000"> 通过replay恢复</text>
</g>
<!-- Persistent&#45;&gt;OperationLog -->
<g id="edge10" class="edge">
<title>Persistent&#45;&gt;OperationLog</title>
<path fill="none" stroke="#666666" d="M1487.8021,-582.8059C1505.0877,-577.8212 1522.8355,-572.7033 1539.2212,-567.9781"/>
<polygon fill="#666666" stroke="#666666" points="1540.5926,-571.2253 1549.2313,-565.0915 1538.653,-564.4994 1540.5926,-571.2253"/>
</g>
<!-- CheckPoint -->
<g id="node12" class="node">
<title>CheckPoint</title>
<polygon fill="#d2c6b2" stroke="#000000" points="1534,-597.5 1534,-658.5 1683,-658.5 1683,-597.5 1534,-597.5"/>
<text text-anchor="middle" x="1608.5" y="-643.3" font-family="Times,serif" font-size="14.00" fill="#000000">CheckPoint</text>
<polyline fill="none" stroke="#000000" points="1534,-635.5 1683,-635.5 "/>
<text text-anchor="start" x="1542" y="-620.3" font-family="Times,serif" font-size="14.00" fill="#000000">降低master starup从</text>
<text text-anchor="start" x="1542" y="-605.3" font-family="Times,serif" font-size="14.00" fill="#000000"> operation log恢复时间</text>
</g>
<!-- Persistent&#45;&gt;CheckPoint -->
<g id="edge11" class="edge">
<title>Persistent&#45;&gt;CheckPoint</title>
<path fill="none" stroke="#666666" d="M1487.8021,-617.8951C1499.7575,-618.896 1511.9339,-619.9154 1523.7279,-620.9028"/>
<polygon fill="#666666" stroke="#666666" points="1523.7215,-624.4144 1533.9786,-621.761 1524.3055,-617.4388 1523.7215,-624.4144"/>
</g>
<!-- master_chunk&#45;&gt;ChunkLocation -->
<g id="edge9" class="edge">
<title>master_chunk&#45;&gt;ChunkLocation</title>
<path fill="none" stroke="#666666" stroke-dasharray="5,2" d="M1253.1936,-480.6606C1261.6499,-480.9824 1270.2622,-481.3102 1278.8492,-481.637"/>
<polygon fill="#666666" stroke="#666666" points="1278.7812,-485.1368 1288.9071,-482.0197 1279.0474,-478.1419 1278.7812,-485.1368"/>
</g>
<!-- ChunkServer1 -->
<g id="node13" class="node">
<title>ChunkServer1</title>
<polygon fill="none" stroke="#000000" points="1338.5,-141 1338.5,-187 1448.5,-187 1448.5,-141 1338.5,-141"/>
<text text-anchor="middle" x="1393.5" y="-171.8" font-family="Times,serif" font-size="14.00" fill="#000000">ChunkServer1</text>
<polyline fill="none" stroke="#000000" points="1338.5,-164 1448.5,-164 "/>
<text text-anchor="middle" x="1393.5" y="-148.8" font-family="Times,serif" font-size="14.00" fill="#000000">存储Chunk数据</text>
</g>
<!-- master_chunk&#45;&gt;ChunkServer1 -->
<g id="edge19" class="edge">
<title>master_chunk&#45;&gt;ChunkServer1</title>
<path fill="none" stroke="#666666" d="M1175.6073,-442.4925C1199.3756,-399.7141 1242.9754,-325.4347 1289,-268 1310.3829,-241.316 1337.9067,-214.16 1359.339,-194.2915"/>
<polygon fill="#666666" stroke="#666666" points="1361.9378,-196.6569 1366.9368,-187.3155 1357.2036,-191.5006 1361.9378,-196.6569"/>
</g>
<!-- ChunkServer2 -->
<g id="node17" class="node">
<title>ChunkServer2</title>
<polygon fill="none" stroke="#000000" points="1338.5,-309 1338.5,-355 1448.5,-355 1448.5,-309 1338.5,-309"/>
<text text-anchor="middle" x="1393.5" y="-339.8" font-family="Times,serif" font-size="14.00" fill="#000000">ChunkServer2</text>
<polyline fill="none" stroke="#000000" points="1338.5,-332 1448.5,-332 "/>
<text text-anchor="middle" x="1393.5" y="-316.8" font-family="Times,serif" font-size="14.00" fill="#000000">存储Chunk数据</text>
</g>
<!-- master_chunk&#45;&gt;ChunkServer2 -->
<g id="edge20" class="edge">
<title>master_chunk&#45;&gt;ChunkServer2</title>
<path fill="none" stroke="#666666" d="M1213.3472,-442.4531C1254.0752,-417.4824 1308.4473,-384.1465 1346.7691,-360.6511"/>
<polygon fill="#666666" stroke="#666666" points="1348.9652,-363.4102 1355.661,-355.1994 1345.3063,-357.4425 1348.9652,-363.4102"/>
</g>
<!-- ChunkFile1 -->
<g id="node14" class="node">
<title>ChunkFile1</title>
<polygon fill="#d2c6b2" stroke="#000000" points="1542,-141 1542,-187 1675,-187 1675,-141 1542,-141"/>
<text text-anchor="middle" x="1608.5" y="-171.8" font-family="Times,serif" font-size="14.00" fill="#000000">ChunkFile1</text>
<polyline fill="none" stroke="#000000" points="1542,-164 1675,-164 "/>
<text text-anchor="start" x="1550" y="-148.8" font-family="Times,serif" font-size="14.00" fill="#000000">每个chunk文件64M</text>
</g>
<!-- ChunkServer1&#45;&gt;ChunkFile1 -->
<g id="edge12" class="edge">
<title>ChunkServer1&#45;&gt;ChunkFile1</title>
<path fill="none" stroke="#666666" d="M1448.5887,-164C1473.7423,-164 1503.9646,-164 1531.3307,-164"/>
<polygon fill="#666666" stroke="#666666" points="1531.6627,-167.5001 1541.6627,-164 1531.6627,-160.5001 1531.6627,-167.5001"/>
</g>
<!-- ChunkFile2 -->
<g id="node15" class="node">
<title>ChunkFile2</title>
<polygon fill="none" stroke="#000000" points="1648.5,-122 1568.5,-122 1568.5,-86 1648.5,-86 1648.5,-122"/>
<text text-anchor="middle" x="1608.5" y="-100.3" font-family="Times,serif" font-size="14.00" fill="#000000">ChunkFile2</text>
</g>
<!-- ChunkServer1&#45;&gt;ChunkFile2 -->
<g id="edge13" class="edge">
<title>ChunkServer1&#45;&gt;ChunkFile2</title>
<path fill="none" stroke="#666666" d="M1448.5887,-148.6264C1482.5273,-139.1552 1525.6934,-127.1088 1558.6211,-117.9197"/>
<polygon fill="#666666" stroke="#666666" points="1559.7987,-121.2249 1568.4899,-115.1656 1557.9171,-114.4825 1559.7987,-121.2249"/>
</g>
<!-- ChunkFileN -->
<g id="node16" class="node">
<title>ChunkFileN</title>
<polygon fill="none" stroke="#000000" points="1650,-68 1567,-68 1567,-32 1650,-32 1650,-68"/>
<text text-anchor="middle" x="1608.5" y="-46.3" font-family="Times,serif" font-size="14.00" fill="#000000">ChunkFileN</text>
</g>
<!-- ChunkServer1&#45;&gt;ChunkFileN -->
<g id="edge14" class="edge">
<title>ChunkServer1&#45;&gt;ChunkFileN</title>
<path fill="none" stroke="#666666" d="M1426.4537,-140.8755C1454.2433,-122.0497 1495.5272,-95.6349 1534,-77 1541.394,-73.4186 1549.3924,-70.0389 1557.3109,-66.9616"/>
<polygon fill="#666666" stroke="#666666" points="1558.754,-70.1583 1566.8841,-63.3647 1556.292,-63.6055 1558.754,-70.1583"/>
</g>
<!-- ChunkFile2_1 -->
<g id="node18" class="node">
<title>ChunkFile2_1</title>
<polygon fill="#d2c6b2" stroke="#000000" points="1719,-288.5 1719,-349.5 1852,-349.5 1852,-288.5 1719,-288.5"/>
<text text-anchor="middle" x="1785.5" y="-334.3" font-family="Times,serif" font-size="14.00" fill="#000000">ChunkFile2_1</text>
<polyline fill="none" stroke="#000000" points="1719,-326.5 1852,-326.5 "/>
<text text-anchor="start" x="1727" y="-311.3" font-family="Times,serif" font-size="14.00" fill="#000000">每个chunk文件64M</text>
<text text-anchor="start" x="1727" y="-296.3" font-family="Times,serif" font-size="14.00" fill="#000000"> chunkfile1副本</text>
</g>
<!-- ChunkFile1&#45;&gt;ChunkFile2_1 -->
<g id="edge17" class="edge">
<title>ChunkFile1&#45;&gt;ChunkFile2_1</title>
<path fill="none" stroke="#666666" stroke-dasharray="5,2" d="M1634.9987,-187.2051C1663.4796,-212.146 1709.1771,-252.1635 1742.7542,-281.5672"/>
<polygon fill="#666666" stroke="#666666" points="1740.7519,-284.4661 1750.5809,-288.4211 1745.3635,-279.1999 1740.7519,-284.4661"/>
</g>
<!-- ChunkServer2&#45;&gt;ChunkFile2_1 -->
<g id="edge15" class="edge">
<title>ChunkServer2&#45;&gt;ChunkFile2_1</title>
<path fill="none" stroke="#666666" d="M1448.5364,-318.9145C1474.3236,-313.431 1505.5641,-307.7075 1534,-305 1603.4636,-298.3861 1621.4108,-299.8732 1691,-305 1696.775,-305.4255 1702.7324,-305.9953 1708.7152,-306.6621"/>
<polygon fill="#666666" stroke="#666666" points="1708.4347,-310.1535 1718.78,-307.8677 1709.2673,-303.2031 1708.4347,-310.1535"/>
</g>
<!-- ChunkFile2_N -->
<g id="node19" class="node">
<title>ChunkFile2_N</title>
<polygon fill="none" stroke="#000000" points="1657,-350 1560,-350 1560,-314 1657,-314 1657,-350"/>
<text text-anchor="middle" x="1608.5" y="-328.3" font-family="Times,serif" font-size="14.00" fill="#000000">ChunkFile2_N</text>
</g>
<!-- ChunkServer2&#45;&gt;ChunkFile2_N -->
<g id="edge16" class="edge">
<title>ChunkServer2&#45;&gt;ChunkFile2_N</title>
<path fill="none" stroke="#666666" d="M1448.5887,-332C1479.4402,-332 1517.9168,-332 1549.3962,-332"/>
<polygon fill="#666666" stroke="#666666" points="1549.7825,-335.5001 1559.7825,-332 1549.7824,-328.5001 1549.7825,-335.5001"/>
</g>
<!-- data&#45;&gt;ChunkServer1 -->
<g id="edge24" class="edge">
<title>data&#45;&gt;ChunkServer1</title>
<path fill="none" stroke="#17b978" d="M702.7919,-530.3463C722.5754,-500.5021 754.4338,-457.9444 791,-430 963.5807,-298.1111 1211.7908,-215.4895 1328.3615,-181.6401"/>
<polygon fill="#17b978" stroke="#17b978" points="1329.5716,-184.934 1338.2135,-178.8047 1327.6356,-178.207 1329.5716,-184.934"/>
</g>
</g>
</svg>
