<?xml version="1.0" encoding="UTF-8" standalone="no"?>
<!DOCTYPE svg PUBLIC "-//W3C//DTD SVG 1.1//EN"
 "http://www.w3.org/Graphics/SVG/1.1/DTD/svg11.dtd">
<!-- Generated by graphviz version 2.40.1 (20161225.0304)
 -->
<!-- Title: gfs_arch Pages: 1 -->
<svg width="1493pt" height="800pt"
 viewBox="0.00 0.00 1493.06 800.00" xmlns="http://www.w3.org/2000/svg" xmlns:xlink="http://www.w3.org/1999/xlink">
<g id="graph0" class="graph" transform="scale(1 1) rotate(0) translate(4 796)">
<title>gfs_arch</title>
<polygon fill="#ffffff" stroke="transparent" points="-4,4 -4,-796 1489.0635,-796 1489.0635,4 -4,4"/>
<g id="clust1" class="cluster">
<title>cluster_Client</title>
<polygon fill="none" stroke="#000000" points="8,-570 8,-784 766.6885,-784 766.6885,-570 8,-570"/>
<text text-anchor="middle" x="387.3442" y="-764" font-family="Times,serif" font-size="20.00" fill="#000000">Client</text>
</g>
<g id="clust2" class="cluster">
<title>cluster_Server</title>
<polygon fill="none" stroke="#000000" points="606.0244,-8 606.0244,-562 1477.0635,-562 1477.0635,-8 606.0244,-8"/>
<text text-anchor="middle" x="1041.5439" y="-542" font-family="Times,serif" font-size="20.00" fill="#000000">Server</text>
</g>
<g id="clust3" class="cluster">
<title>cluster_Master</title>
<polygon fill="none" stroke="#000000" points="614.0244,-270 614.0244,-526 1292.4014,-526 1292.4014,-270 614.0244,-270"/>
<text text-anchor="middle" x="953.2129" y="-506" font-family="Times,serif" font-size="20.00" fill="#000000">Master</text>
</g>
<g id="clust6" class="cluster">
<title>cluster_ChunkServers</title>
<polygon fill="none" stroke="#000000" points="1135.7925,-16 1135.7925,-262 1469.0635,-262 1469.0635,-16 1135.7925,-16"/>
<text text-anchor="middle" x="1302.428" y="-242" font-family="Times,serif" font-size="20.00" fill="#000000">ChunkServers</text>
</g>
<g id="clust8" class="cluster">
<title>cluster_Linux_fs</title>
<polygon fill="none" stroke="#000000" points="1312.4014,-24 1312.4014,-226 1461.0635,-226 1461.0635,-24 1312.4014,-24"/>
<text text-anchor="middle" x="1386.7324" y="-206" font-family="Times,serif" font-size="20.00" fill="#000000">Linux fs</text>
</g>
<!-- Client -->
<g id="node1" class="node">
<title>Client</title>
<polygon fill="none" stroke="#000000" points="16,-578.2003 16,-747.7997 368.0342,-747.7997 368.0342,-578.2003 16,-578.2003"/>
<text text-anchor="middle" x="192.0171" y="-732.5997" font-family="Times,serif" font-size="14.00" fill="#000000">Client</text>
<polyline fill="none" stroke="#000000" points="16,-725.7997 368.0342,-725.7997 "/>
<text text-anchor="start" x="24" y="-710.5997" font-family="Times,serif" font-size="14.00" fill="#000000">App: 使用client 封装好的接口</text>
<polyline fill="none" stroke="#000000" points="16,-698.1998 368.0342,-698.1998 "/>
<text text-anchor="start" x="24" y="-682.9998" font-family="Times,serif" font-size="14.00" fill="#000000">GFS client code</text>
<text text-anchor="start" x="24" y="-668.9998" font-family="Times,serif" font-size="14.00" fill="#000000"> 封装和master/chunk server通信</text>
<text text-anchor="start" x="24" y="-649.3999" font-family="Times,serif" font-size="14.00" fill="#000000"> 1.client和master通信获取Metadata</text>
<text text-anchor="start" x="24" y="-629.8" font-family="Times,serif" font-size="14.00" fill="#000000"> 2.client和chunk server通信读写数据</text>
<text text-anchor="start" x="24" y="-610.2001" font-family="Times,serif" font-size="14.00" fill="#000000"> 3.client会缓存 (filename,chunkindex) &#45;&gt; chunkhandle信息</text>
<text text-anchor="start" x="24" y="-590.6002" font-family="Times,serif" font-size="14.00" fill="#000000"> 减小和master的通信负担</text>
</g>
<!-- Cache -->
<g id="node2" class="node">
<title>Cache</title>
<polygon fill="none" stroke="#000000" points="758.6885,-701 704.6885,-701 704.6885,-665 758.6885,-665 758.6885,-701"/>
<text text-anchor="middle" x="731.6885" y="-678.8" font-family="Times,serif" font-size="14.00" fill="#000000">Cache</text>
</g>
<!-- Client&#45;&gt;Cache -->
<g id="edge1" class="edge">
<title>Client&#45;&gt;Cache</title>
<path fill="none" stroke="#666666" d="M368.1397,-709.5792C380.2294,-711.7303 392.2761,-713.5791 404.0342,-715 484.3346,-724.7036 505.6122,-723.7285 586.0244,-715 623.5566,-710.926 665.5888,-701.1119 694.8193,-693.418"/>
<polygon fill="#666666" stroke="#666666" points="695.8431,-696.7672 704.5962,-690.7979 694.031,-690.0058 695.8431,-696.7672"/>
</g>
<!-- client_req -->
<g id="node3" class="node">
<title>client_req</title>
<polygon fill="#95e1d3" stroke="#000000" points="431.8223,-578.2 431.8223,-705.8 558.2363,-705.8 558.2363,-578.2 431.8223,-578.2"/>
<text text-anchor="middle" x="495.0293" y="-690.6" font-family="Times,serif" font-size="14.00" fill="#000000">client和master通信</text>
<polyline fill="none" stroke="#000000" points="431.8223,-678.2 558.2363,-678.2 "/>
<text text-anchor="start" x="439.8223" y="-663" font-family="Times,serif" font-size="14.00" fill="#000000">req:</text>
<text text-anchor="start" x="439.8223" y="-649" font-family="Times,serif" font-size="14.00" fill="#000000"> filename</text>
<text text-anchor="start" x="439.8223" y="-635" font-family="Times,serif" font-size="14.00" fill="#000000"> chunk index</text>
<polyline fill="none" stroke="#000000" points="431.8223,-628.2 558.2363,-628.2 "/>
<text text-anchor="start" x="439.8223" y="-613" font-family="Times,serif" font-size="14.00" fill="#000000">resp:</text>
<text text-anchor="start" x="439.8223" y="-599" font-family="Times,serif" font-size="14.00" fill="#000000"> chunk handle</text>
<text text-anchor="start" x="439.8223" y="-585" font-family="Times,serif" font-size="14.00" fill="#000000"> chunk location</text>
</g>
<!-- Client&#45;&gt;client_req -->
<g id="edge16" class="edge">
<title>Client&#45;&gt;client_req</title>
<path fill="none" stroke="#666666" d="M368.2805,-650.7842C386.9332,-649.4915 405.0712,-648.2345 421.5223,-647.0943"/>
<polygon fill="#666666" stroke="#666666" points="421.8028,-650.5834 431.5368,-646.4003 421.3188,-643.6001 421.8028,-650.5834"/>
</g>
<!-- ChunkServer1 -->
<g id="node10" class="node">
<title>ChunkServer1</title>
<polygon fill="none" stroke="#000000" points="1242.1617,-118 1145.4096,-118 1145.4096,-82 1242.1617,-82 1242.1617,-118"/>
<text text-anchor="middle" x="1193.7856" y="-95.8" font-family="Times,serif" font-size="14.00" fill="#000000">ChunkServer1</text>
</g>
<!-- Client&#45;&gt;ChunkServer1 -->
<g id="edge18" class="edge">
<title>Client&#45;&gt;ChunkServer1</title>
<path fill="none" stroke="#666666" d="M258.7328,-577.8788C333.8431,-487.6656 464.0677,-347.2497 606.0244,-266 652.7658,-239.2473 995.5055,-150.4061 1134.9864,-114.8749"/>
<polygon fill="#666666" stroke="#666666" points="1136.2403,-118.1674 1145.0682,-112.3093 1134.5139,-111.3836 1136.2403,-118.1674"/>
</g>
<!-- data -->
<g id="node16" class="node">
<title>data</title>
<polygon fill="#95e1d3" stroke="#000000" points="404.0342,-112.4001 404.0342,-189.5999 586.0244,-189.5999 586.0244,-112.4001 404.0342,-112.4001"/>
<text text-anchor="middle" x="495.0293" y="-174.3999" font-family="Times,serif" font-size="14.00" fill="#000000">client 和chunk之间通信</text>
<polyline fill="none" stroke="#000000" points="404.0342,-162 586.0244,-162 "/>
<text text-anchor="start" x="412.0342" y="-146.8" font-family="Times,serif" font-size="14.00" fill="#000000">req: chunk handle, byte range</text>
<polyline fill="none" stroke="#000000" points="404.0342,-140 586.0244,-140 "/>
<text text-anchor="start" x="412.0342" y="-124.8" font-family="Times,serif" font-size="14.00" fill="#000000">resp: chunk数据</text>
</g>
<!-- Client&#45;&gt;data -->
<g id="edge19" class="edge">
<title>Client&#45;&gt;data</title>
<path fill="none" stroke="#17b978" d="M220.3975,-578.1718C254.2709,-485.123 317.4033,-334.4763 404.0342,-225 412.0893,-214.8206 421.7755,-205.1222 431.7808,-196.2963"/>
<polygon fill="#17b978" stroke="#17b978" points="434.1437,-198.8809 439.4724,-189.7237 429.5962,-193.5592 434.1437,-198.8809"/>
</g>
<!-- client_req&#45;&gt;Cache -->
<g id="edge2" class="edge">
<title>client_req&#45;&gt;Cache</title>
<path fill="none" stroke="#666666" stroke-dasharray="5,2" d="M558.4496,-652.9872C601.8158,-660.5002 657.8248,-670.2035 694.2383,-676.512"/>
<polygon fill="#666666" stroke="#666666" points="693.9672,-680.017 704.4179,-678.2755 695.1622,-673.1198 693.9672,-680.017"/>
</g>
<!-- Master -->
<g id="node4" class="node">
<title>Master</title>
<polygon fill="none" stroke="#000000" points="622.0244,-351.2 622.0244,-484.8 841.3525,-484.8 841.3525,-351.2 622.0244,-351.2"/>
<text text-anchor="middle" x="731.6885" y="-469.6" font-family="Times,serif" font-size="14.00" fill="#000000">Master</text>
<polyline fill="none" stroke="#000000" points="622.0244,-462.8 841.3525,-462.8 "/>
<text text-anchor="start" x="630.0244" y="-447.6" font-family="Times,serif" font-size="14.00" fill="#000000">Master Server维护系统的metadata:</text>
<text text-anchor="start" x="630.0244" y="-428" font-family="Times,serif" font-size="14.00" fill="#000000"> 1.namespace, access control</text>
<text text-anchor="start" x="630.0244" y="-414" font-family="Times,serif" font-size="14.00" fill="#000000"> 2.map from files to chunks</text>
<text text-anchor="start" x="630.0244" y="-400" font-family="Times,serif" font-size="14.00" fill="#000000"> 3.locations of chunks</text>
<text text-anchor="start" x="630.0244" y="-386" font-family="Times,serif" font-size="14.00" fill="#000000"> 4.chunk lease management</text>
<text text-anchor="start" x="630.0244" y="-372" font-family="Times,serif" font-size="14.00" fill="#000000"> 5.gc of orphaned chunks</text>
<text text-anchor="start" x="630.0244" y="-358" font-family="Times,serif" font-size="14.00" fill="#000000"> 6.chunk migration</text>
</g>
<!-- client_req&#45;&gt;Master -->
<g id="edge17" class="edge">
<title>client_req&#45;&gt;Master</title>
<path fill="none" stroke="#666666" d="M558.4496,-581.9721C587.73,-554.258 622.7739,-521.0886 653.6584,-491.8562"/>
<polygon fill="#666666" stroke="#666666" points="656.1443,-494.3225 661.001,-484.9063 651.3323,-489.2386 656.1443,-494.3225"/>
</g>
<!-- Namespace -->
<g id="node5" class="node">
<title>Namespace</title>
<polygon fill="none" stroke="#000000" points="1012.2802,-436 932.2422,-436 932.2422,-400 1012.2802,-400 1012.2802,-436"/>
<text text-anchor="middle" x="972.2612" y="-413.8" font-family="Times,serif" font-size="14.00" fill="#000000">Namespace</text>
</g>
<!-- Master&#45;&gt;Namespace -->
<g id="edge3" class="edge">
<title>Master&#45;&gt;Namespace</title>
<path fill="none" stroke="#666666" d="M841.4149,-418C869.5895,-418 898.5428,-418 922.0276,-418"/>
<polygon fill="#666666" stroke="#666666" points="922.0742,-421.5001 932.0741,-418 922.0741,-414.5001 922.0742,-421.5001"/>
</g>
<!-- FileToChunkMapping -->
<g id="node6" class="node">
<title>FileToChunkMapping</title>
<polygon fill="none" stroke="#000000" points="1042.5046,-490 902.0179,-490 902.0179,-454 1042.5046,-454 1042.5046,-490"/>
<text text-anchor="middle" x="972.2612" y="-467.8" font-family="Times,serif" font-size="14.00" fill="#000000">FileToChunkMapping</text>
</g>
<!-- Master&#45;&gt;FileToChunkMapping -->
<g id="edge4" class="edge">
<title>Master&#45;&gt;FileToChunkMapping</title>
<path fill="none" stroke="#666666" d="M841.4149,-442.6297C858.4505,-446.4535 875.7707,-450.3413 891.9947,-453.983"/>
<polygon fill="#666666" stroke="#666666" points="891.4186,-457.4407 901.9424,-456.2159 892.9517,-450.6107 891.4186,-457.4407"/>
</g>
<!-- ChunkLocation -->
<g id="node7" class="node">
<title>ChunkLocation</title>
<polygon fill="none" stroke="#000000" points="1103.1699,-287.4001 1103.1699,-356.5999 1284.4014,-356.5999 1284.4014,-287.4001 1103.1699,-287.4001"/>
<text text-anchor="middle" x="1193.7856" y="-341.3999" font-family="Times,serif" font-size="14.00" fill="#000000">ChunkLocation</text>
<polyline fill="none" stroke="#000000" points="1103.1699,-334.5999 1284.4014,-334.5999 "/>
<text text-anchor="start" x="1111.1699" y="-319.3999" font-family="Times,serif" font-size="14.00" fill="#000000">master通过询问chunk server</text>
<text text-anchor="start" x="1111.1699" y="-299.8" font-family="Times,serif" font-size="14.00" fill="#000000"> 获取chunk location信息</text>
</g>
<!-- Master&#45;&gt;ChunkLocation -->
<g id="edge5" class="edge">
<title>Master&#45;&gt;ChunkLocation</title>
<path fill="none" stroke="#666666" d="M841.6932,-396.6649C853.7056,-394.6171 865.7714,-392.6808 877.3525,-391 961.3033,-378.8159 984.7132,-390.9264 1067.1699,-371 1079.2824,-368.0729 1091.7919,-364.2651 1104.0179,-360.0651"/>
<polygon fill="#666666" stroke="#666666" points="1105.4893,-363.2572 1113.7492,-356.622 1103.1544,-356.658 1105.4893,-363.2572"/>
</g>
<!-- master_chunk -->
<g id="node9" class="node">
<title>master_chunk</title>
<polygon fill="#95e1d3" stroke="#000000" points="877.3525,-278.6001 877.3525,-361.3999 1067.1699,-361.3999 1067.1699,-278.6001 877.3525,-278.6001"/>
<text text-anchor="start" x="885.3525" y="-346.1999" font-family="Times,serif" font-size="14.00" fill="#000000">master和chunk之间通信</text>
<polyline fill="none" stroke="#000000" points="877.3525,-333.8 1067.1699,-333.8 "/>
<text text-anchor="start" x="885.3525" y="-318.6" font-family="Times,serif" font-size="14.00" fill="#000000">1.master发送心跳信息和指令</text>
<polyline fill="none" stroke="#000000" points="877.3525,-306.2 1067.1699,-306.2 "/>
<text text-anchor="start" x="885.3525" y="-291" font-family="Times,serif" font-size="14.00" fill="#000000">2.收集chunk server信息</text>
</g>
<!-- Master&#45;&gt;master_chunk -->
<g id="edge12" class="edge">
<title>Master&#45;&gt;master_chunk</title>
<path fill="none" stroke="#666666" d="M841.4149,-373.3017C850.1515,-369.7428 858.9629,-366.1533 867.663,-362.6093"/>
<polygon fill="#666666" stroke="#666666" points="869.1103,-365.799 877.051,-358.785 866.4694,-359.3163 869.1103,-365.799"/>
</g>
<!-- OperationLog -->
<g id="node8" class="node">
<title>OperationLog</title>
<polygon fill="none" stroke="#000000" points="1131.751,-378.8002 1131.751,-487.1998 1255.8203,-487.1998 1255.8203,-378.8002 1131.751,-378.8002"/>
<text text-anchor="middle" x="1193.7856" y="-471.9998" font-family="Times,serif" font-size="14.00" fill="#000000">OperationLog</text>
<polyline fill="none" stroke="#000000" points="1131.751,-465.1998 1255.8203,-465.1998 "/>
<text text-anchor="start" x="1139.751" y="-449.9998" font-family="Times,serif" font-size="14.00" fill="#000000">通过Operationlog</text>
<text text-anchor="start" x="1139.751" y="-430.3999" font-family="Times,serif" font-size="14.00" fill="#000000"> 持久化存储在</text>
<text text-anchor="start" x="1139.751" y="-410.8" font-family="Times,serif" font-size="14.00" fill="#000000"> local disk并复制</text>
<text text-anchor="start" x="1139.751" y="-391.2001" font-family="Times,serif" font-size="14.00" fill="#000000"> 到remote server上</text>
</g>
<!-- Namespace&#45;&gt;OperationLog -->
<g id="edge6" class="edge">
<title>Namespace&#45;&gt;OperationLog</title>
<path fill="none" stroke="#666666" d="M1012.3776,-420.7164C1042.6929,-422.7691 1085.1259,-425.6424 1121.3311,-428.0939"/>
<polygon fill="#666666" stroke="#666666" points="1121.1487,-431.5895 1131.3624,-428.7732 1121.6217,-424.6055 1121.1487,-431.5895"/>
</g>
<!-- FileToChunkMapping&#45;&gt;OperationLog -->
<g id="edge7" class="edge">
<title>FileToChunkMapping&#45;&gt;OperationLog</title>
<path fill="none" stroke="#666666" d="M1042.6573,-459.6066C1067.8222,-455.1762 1096.2076,-450.1789 1121.5271,-445.7213"/>
<polygon fill="#666666" stroke="#666666" points="1122.1916,-449.1582 1131.4333,-443.9773 1120.9779,-442.2643 1122.1916,-449.1582"/>
</g>
<!-- master_chunk&#45;&gt;ChunkLocation -->
<g id="edge8" class="edge">
<title>master_chunk&#45;&gt;ChunkLocation</title>
<path fill="none" stroke="#666666" stroke-dasharray="5,2" d="M1067.1715,-320.8569C1075.6964,-320.9338 1084.3492,-321.012 1092.9223,-321.0894"/>
<polygon fill="#666666" stroke="#666666" points="1092.906,-324.5893 1102.9372,-321.1798 1092.9693,-317.5896 1092.906,-324.5893"/>
</g>
<!-- master_chunk&#45;&gt;ChunkServer1 -->
<g id="edge13" class="edge">
<title>master_chunk&#45;&gt;ChunkServer1</title>
<path fill="none" stroke="#666666" d="M1043.0881,-278.4813C1052.1205,-270.8975 1060.5163,-262.3754 1067.1699,-253 1100.8769,-205.5043 1062.2204,-168.4143 1103.1699,-127 1112.0039,-118.0658 1123.6556,-112.0604 1135.6504,-108.0311"/>
<polygon fill="#666666" stroke="#666666" points="1136.6838,-111.3755 1145.2963,-105.2051 1134.7156,-104.6579 1136.6838,-111.3755"/>
</g>
<!-- ChunkServer2 -->
<g id="node11" class="node">
<title>ChunkServer2</title>
<polygon fill="none" stroke="#000000" points="1242.1617,-172 1145.4096,-172 1145.4096,-136 1242.1617,-136 1242.1617,-172"/>
<text text-anchor="middle" x="1193.7856" y="-149.8" font-family="Times,serif" font-size="14.00" fill="#000000">ChunkServer2</text>
</g>
<!-- master_chunk&#45;&gt;ChunkServer2 -->
<g id="edge14" class="edge">
<title>master_chunk&#45;&gt;ChunkServer2</title>
<path fill="none" stroke="#666666" d="M1040.1036,-278.4567C1049.8794,-270.7348 1059.2829,-262.1784 1067.1699,-253 1090.4871,-225.865 1075.7685,-204.0035 1103.1699,-181 1112.4028,-173.249 1123.7954,-167.7231 1135.3489,-163.7835"/>
<polygon fill="#666666" stroke="#666666" points="1136.4991,-167.0921 1145.0477,-160.8334 1134.462,-160.395 1136.4991,-167.0921"/>
</g>
<!-- ChunkServerN -->
<g id="node12" class="node">
<title>ChunkServerN</title>
<polygon fill="none" stroke="#000000" points="1243.772,-226 1143.7993,-226 1143.7993,-190 1243.772,-190 1243.772,-226"/>
<text text-anchor="middle" x="1193.7856" y="-203.8" font-family="Times,serif" font-size="14.00" fill="#000000">ChunkServerN</text>
</g>
<!-- master_chunk&#45;&gt;ChunkServerN -->
<g id="edge15" class="edge">
<title>master_chunk&#45;&gt;ChunkServerN</title>
<path fill="none" stroke="#666666" d="M1054.4339,-278.4545C1086.3761,-262.3049 1121.7235,-244.4337 1148.8254,-230.7313"/>
<polygon fill="#666666" stroke="#666666" points="1150.7037,-233.7036 1158.0488,-226.0681 1147.5453,-227.4567 1150.7037,-233.7036"/>
</g>
<!-- ChunkFile1 -->
<g id="node13" class="node">
<title>ChunkFile1</title>
<polygon fill="none" stroke="#000000" points="1320.4014,-140.2 1320.4014,-189.8 1453.0635,-189.8 1453.0635,-140.2 1320.4014,-140.2"/>
<text text-anchor="middle" x="1386.7324" y="-174.6" font-family="Times,serif" font-size="14.00" fill="#000000">ChunkFile1</text>
<polyline fill="none" stroke="#000000" points="1320.4014,-167.8 1453.0635,-167.8 "/>
<text text-anchor="start" x="1328.4014" y="-152.6" font-family="Times,serif" font-size="14.00" fill="#000000">每个chunk文件64M</text>
</g>
<!-- ChunkServer1&#45;&gt;ChunkFile1 -->
<g id="edge9" class="edge">
<title>ChunkServer1&#45;&gt;ChunkFile1</title>
<path fill="none" stroke="#666666" d="M1242.275,-112.0787C1258.3482,-116.3996 1276.2531,-121.5572 1292.4014,-127 1300.9407,-129.8782 1309.8246,-133.1192 1318.5762,-136.464"/>
<polygon fill="#666666" stroke="#666666" points="1317.4094,-139.7654 1327.9982,-140.1218 1319.9428,-133.2399 1317.4094,-139.7654"/>
</g>
<!-- ChunkFile2 -->
<g id="node14" class="node">
<title>ChunkFile2</title>
<polygon fill="none" stroke="#000000" points="1427.8497,-122 1345.6152,-122 1345.6152,-86 1427.8497,-86 1427.8497,-122"/>
<text text-anchor="middle" x="1386.7324" y="-99.8" font-family="Times,serif" font-size="14.00" fill="#000000">ChunkFile2</text>
</g>
<!-- ChunkServer1&#45;&gt;ChunkFile2 -->
<g id="edge10" class="edge">
<title>ChunkServer1&#45;&gt;ChunkFile2</title>
<path fill="none" stroke="#666666" d="M1242.4743,-101.0094C1270.8112,-101.5968 1306.5069,-102.3368 1335.3003,-102.9338"/>
<polygon fill="#666666" stroke="#666666" points="1335.4993,-106.4385 1345.5698,-103.1467 1335.6445,-99.44 1335.4993,-106.4385"/>
</g>
<!-- ChunkFileN -->
<g id="node15" class="node">
<title>ChunkFileN</title>
<polygon fill="none" stroke="#000000" points="1429.4603,-68 1344.0046,-68 1344.0046,-32 1429.4603,-32 1429.4603,-68"/>
<text text-anchor="middle" x="1386.7324" y="-45.8" font-family="Times,serif" font-size="14.00" fill="#000000">ChunkFileN</text>
</g>
<!-- ChunkServer1&#45;&gt;ChunkFileN -->
<g id="edge11" class="edge">
<title>ChunkServer1&#45;&gt;ChunkFileN</title>
<path fill="none" stroke="#666666" d="M1242.4743,-87.3829C1270.4362,-80.1369 1305.5633,-71.0341 1334.1535,-63.6252"/>
<polygon fill="#666666" stroke="#666666" points="1335.1689,-66.9778 1343.9711,-61.0811 1333.4129,-60.2016 1335.1689,-66.9778"/>
</g>
<!-- data&#45;&gt;ChunkServer1 -->
<g id="edge20" class="edge">
<title>data&#45;&gt;ChunkServer1</title>
<path fill="none" stroke="#17b978" d="M586.3795,-144.3326C732.1395,-133.6941 1013.2787,-113.1746 1135.1086,-104.2826"/>
<polygon fill="#17b978" stroke="#17b978" points="1135.6292,-107.7541 1145.3478,-103.5353 1135.1195,-100.7726 1135.6292,-107.7541"/>
</g>
</g>
</svg>
