<?xml version="1.0" encoding="UTF-8" standalone="no"?>
<!DOCTYPE svg PUBLIC "-//W3C//DTD SVG 1.1//EN"
 "http://www.w3.org/Graphics/SVG/1.1/DTD/svg11.dtd">
<!-- Generated by graphviz version 2.47.0 (20210316.0004)
 -->
<!-- Title: sequence Pages: 1 -->
<svg width="1005pt" height="647pt"
 viewBox="0.00 0.00 1005.00 647.00" xmlns="http://www.w3.org/2000/svg" xmlns:xlink="http://www.w3.org/1999/xlink">
<g id="graph0" class="graph" transform="scale(1 1) rotate(0) translate(4 643)">
<title>sequence</title>
<polygon fill="white" stroke="transparent" points="-4,4 -4,-643 1001,-643 1001,4 -4,4"/>
<g id="clust1" class="cluster">
<title>cluster_CoordinatorLog</title>
<path fill="none" stroke="slategrey" stroke-dasharray="5,2" d="M304,-407C304,-407 487,-407 487,-407 493,-407 499,-413 499,-419 499,-419 499,-619 499,-619 499,-625 493,-631 487,-631 487,-631 304,-631 304,-631 298,-631 292,-625 292,-619 292,-619 292,-419 292,-419 292,-413 298,-407 304,-407"/>
<text text-anchor="middle" x="395.5" y="-611" font-family="Times,serif" font-size="20.00">CoordinatorLog</text>
</g>
<g id="clust2" class="cluster">
<title>cluster_Coordinator</title>
<path fill="none" stroke="slategrey" stroke-dasharray="5,2" d="M20,-66C20,-66 259,-66 259,-66 265,-66 271,-72 271,-78 271,-78 271,-398 271,-398 271,-404 265,-410 259,-410 259,-410 20,-410 20,-410 14,-410 8,-404 8,-398 8,-398 8,-78 8,-78 8,-72 14,-66 20,-66"/>
<text text-anchor="middle" x="139.5" y="-390" font-family="Times,serif" font-size="20.00">Coordinator</text>
</g>
<g id="clust4" class="cluster">
<title>cluster_Participant</title>
<path fill="none" stroke="slategrey" stroke-dasharray="5,2" d="M576,-104C576,-104 977,-104 977,-104 983,-104 989,-110 989,-116 989,-116 989,-397 989,-397 989,-403 983,-409 977,-409 977,-409 576,-409 576,-409 570,-409 564,-403 564,-397 564,-397 564,-116 564,-116 564,-110 570,-104 576,-104"/>
<text text-anchor="middle" x="776.5" y="-389" font-family="Times,serif" font-size="20.00">Participant</text>
</g>
<!-- 1 -->
<g id="node1" class="node">
<title>1</title>
<ellipse fill="black" stroke="black" cx="139.5" cy="0" rx="0" ry="0"/>
</g>
<!-- 2 -->
<g id="node2" class="node">
<title>2</title>
<ellipse fill="black" stroke="black" cx="395.5" cy="0" rx="0" ry="0"/>
</g>
<!-- 1&#45;&gt;2 -->
<!-- 3 -->
<g id="node3" class="node">
<title>3</title>
<ellipse fill="black" stroke="black" cx="673" cy="0" rx="0" ry="0"/>
</g>
<!-- 2&#45;&gt;3 -->
<!-- 4 -->
<g id="node4" class="node">
<title>4</title>
<ellipse fill="black" stroke="black" cx="896" cy="0" rx="0" ry="0"/>
</g>
<!-- 3&#45;&gt;4 -->
<!-- write_begin_rollback -->
<g id="node5" class="node">
<title>write_begin_rollback</title>
<path fill="none" stroke="#1c2123" d="M316.5,-546C316.5,-546 474.5,-546 474.5,-546 480.5,-546 486.5,-552 486.5,-558 486.5,-558 486.5,-580 486.5,-580 486.5,-586 480.5,-592 474.5,-592 474.5,-592 316.5,-592 316.5,-592 310.5,-592 304.5,-586 304.5,-580 304.5,-580 304.5,-558 304.5,-558 304.5,-552 310.5,-546 316.5,-546"/>
<text text-anchor="middle" x="395.5" y="-576.8" font-family="Times,serif" font-size="14.00" fill="#2f3638">begin_rollback</text>
<polyline fill="none" stroke="#1c2123" points="304.5,-569 486.5,-569 "/>
<text text-anchor="start" x="312.5" y="-553.8" font-family="Times,serif" font-size="14.00" fill="#2f3638">向日志中写入begin_commit</text>
</g>
<!-- write_rollback -->
<g id="node6" class="node">
<title>write_rollback</title>
<path fill="none" stroke="#1c2123" d="M334.5,-481C334.5,-481 456.5,-481 456.5,-481 462.5,-481 468.5,-487 468.5,-493 468.5,-493 468.5,-515 468.5,-515 468.5,-521 462.5,-527 456.5,-527 456.5,-527 334.5,-527 334.5,-527 328.5,-527 322.5,-521 322.5,-515 322.5,-515 322.5,-493 322.5,-493 322.5,-487 328.5,-481 334.5,-481"/>
<text text-anchor="middle" x="395.5" y="-511.8" font-family="Times,serif" font-size="14.00" fill="#2f3638">write_rollback</text>
<polyline fill="none" stroke="#1c2123" points="322.5,-504 468.5,-504 "/>
<text text-anchor="start" x="330.5" y="-488.8" font-family="Times,serif" font-size="14.00" fill="#2f3638">向日志中写入rollback</text>
</g>
<!-- write_end_of_transaction -->
<g id="node7" class="node">
<title>write_end_of_transaction</title>
<path fill="none" stroke="#1c2123" d="M312,-416C312,-416 479,-416 479,-416 485,-416 491,-422 491,-428 491,-428 491,-450 491,-450 491,-456 485,-462 479,-462 479,-462 312,-462 312,-462 306,-462 300,-456 300,-450 300,-450 300,-428 300,-428 300,-422 306,-416 312,-416"/>
<text text-anchor="middle" x="395.5" y="-446.8" font-family="Times,serif" font-size="14.00" fill="#2f3638">write_end_of_transaction</text>
<polyline fill="none" stroke="#1c2123" points="300,-439 491,-439 "/>
<text text-anchor="start" x="308" y="-423.8" font-family="Times,serif" font-size="14.00" fill="#2f3638">向日志写入end_of_transaction</text>
</g>
<!-- prepare -->
<g id="node8" class="node">
<title>prepare</title>
<path fill="none" stroke="#1c2123" d="M28,-295C28,-295 251,-295 251,-295 257,-295 263,-301 263,-307 263,-307 263,-359 263,-359 263,-365 257,-371 251,-371 251,-371 28,-371 28,-371 22,-371 16,-365 16,-359 16,-359 16,-307 16,-307 16,-301 22,-295 28,-295"/>
<text text-anchor="middle" x="139.5" y="-355.8" font-family="Times,serif" font-size="14.00" fill="#2f3638">prepare phase</text>
<polyline fill="none" stroke="#1c2123" points="16,-348 263,-348 "/>
<text text-anchor="start" x="24" y="-332.8" font-family="Times,serif" font-size="14.00" fill="#2f3638">1.写入begin_rollback日志</text>
<text text-anchor="start" x="24" y="-317.8" font-family="Times,serif" font-size="14.00" fill="#2f3638"> 2.所有的参与者发送prepare</text>
<text text-anchor="start" x="24" y="-302.8" font-family="Times,serif" font-size="14.00" fill="#2f3638"> 3.进入Wait状态,等待participant的回复</text>
</g>
<!-- prepare&#45;&gt;write_begin_rollback -->
<g id="edge4" class="edge">
<title>prepare&#45;&gt;write_begin_rollback</title>
<path fill="none" stroke="#666666" d="M159.17,-371.09C183.55,-416.98 230.49,-493.33 292,-537 293.88,-538.34 295.82,-539.62 297.81,-540.85"/>
<polygon fill="#666666" stroke="#666666" points="296.38,-544.06 306.81,-545.92 299.81,-537.96 296.38,-544.06"/>
</g>
<!-- participant_01_prepare -->
<g id="node11" class="node">
<title>participant_01_prepare</title>
<path fill="none" stroke="#1c2123" d="M606,-241.5C606,-241.5 740,-241.5 740,-241.5 746,-241.5 752,-247.5 752,-253.5 752,-253.5 752,-358.5 752,-358.5 752,-364.5 746,-370.5 740,-370.5 740,-370.5 606,-370.5 606,-370.5 600,-370.5 594,-364.5 594,-358.5 594,-358.5 594,-253.5 594,-253.5 594,-247.5 600,-241.5 606,-241.5"/>
<text text-anchor="middle" x="673" y="-355.3" font-family="Times,serif" font-size="14.00" fill="#2f3638">participant 1</text>
<polyline fill="none" stroke="#1c2123" points="594,-347.5 752,-347.5 "/>
<text text-anchor="start" x="602" y="-332.3" font-family="Times,serif" font-size="14.00" fill="#2f3638">1. 写入ready record日志</text>
<text text-anchor="start" x="602" y="-317.3" font-family="Times,serif" font-size="14.00" fill="#2f3638"> 2. 向coordinator发送yes</text>
<text text-anchor="start" x="602" y="-302.3" font-family="Times,serif" font-size="14.00" fill="#2f3638"> 3. 进入ready状态</text>
<polyline fill="none" stroke="#1c2123" points="594,-294.5 752,-294.5 "/>
<text text-anchor="start" x="602" y="-279.3" font-family="Times,serif" font-size="14.00" fill="#2f3638">会一直block直到收到</text>
<text text-anchor="start" x="602" y="-264.3" font-family="Times,serif" font-size="14.00" fill="#2f3638"> coordinator的rollback</text>
<text text-anchor="start" x="602" y="-249.3" font-family="Times,serif" font-size="14.00" fill="#2f3638"> 或者rollback</text>
</g>
<!-- prepare&#45;&gt;participant_01_prepare -->
<g id="edge9" class="edge">
<title>prepare&#45;&gt;participant_01_prepare</title>
<path fill="none" stroke="green" d="M263.1,-326.77C361.01,-321.8 495.86,-314.95 583.48,-310.5"/>
<polygon fill="green" stroke="green" points="583.85,-313.98 593.66,-309.98 583.5,-306.99 583.85,-313.98"/>
<text text-anchor="middle" x="395.5" y="-328.8" font-family="Times,serif" font-size="14.00">prepare</text>
</g>
<!-- participant_02_prepare -->
<g id="node14" class="node">
<title>participant_02_prepare</title>
<path fill="none" stroke="#1c2123" d="M584,-138C584,-138 762,-138 762,-138 768,-138 774,-144 774,-150 774,-150 774,-210 774,-210 774,-216 768,-222 762,-222 762,-222 584,-222 584,-222 578,-222 572,-216 572,-210 572,-210 572,-150 572,-150 572,-144 578,-138 584,-138"/>
<text text-anchor="middle" x="673" y="-206.8" font-family="Times,serif" font-size="14.00" fill="#2f3638">participant 2</text>
<polyline fill="none" stroke="#1c2123" points="572,-199 774,-199 "/>
<text text-anchor="start" x="580" y="-183.8" font-family="Times,serif" font-size="14.00" fill="#2f3638">1. 写入abort record日志</text>
<text text-anchor="start" x="580" y="-168.8" font-family="Times,serif" font-size="14.00" fill="#2f3638"> 2. 向coordinator发送no</text>
<polyline fill="none" stroke="#1c2123" points="572,-161 774,-161 "/>
<text text-anchor="start" x="580" y="-145.8" font-family="Times,serif" font-size="14.00" fill="#2f3638">然后就可以不用管这个事务了</text>
</g>
<!-- prepare&#45;&gt;participant_02_prepare -->
<g id="edge10" class="edge">
<title>prepare&#45;&gt;participant_02_prepare</title>
<path fill="none" stroke="green" d="M260.55,-294.98C264.23,-292.19 267.73,-289.2 271,-286 289.68,-267.68 271.26,-246.96 292,-231 328.66,-202.79 453.17,-215.27 499,-209 519.45,-206.2 541.19,-202.85 562.11,-199.44"/>
<polygon fill="green" stroke="green" points="562.69,-202.89 571.98,-197.82 561.55,-195.99 562.69,-202.89"/>
<text text-anchor="middle" x="395.5" y="-234.8" font-family="Times,serif" font-size="14.00">prepare</text>
</g>
<!-- rollback -->
<g id="node9" class="node">
<title>rollback</title>
<path fill="none" stroke="#1c2123" d="M60.5,-170C60.5,-170 218.5,-170 218.5,-170 224.5,-170 230.5,-176 230.5,-182 230.5,-182 230.5,-264 230.5,-264 230.5,-270 224.5,-276 218.5,-276 218.5,-276 60.5,-276 60.5,-276 54.5,-276 48.5,-270 48.5,-264 48.5,-264 48.5,-182 48.5,-182 48.5,-176 54.5,-170 60.5,-170"/>
<text text-anchor="middle" x="139.5" y="-260.8" font-family="Times,serif" font-size="14.00" fill="#2f3638">commit phase</text>
<polyline fill="none" stroke="#1c2123" points="48.5,-253 230.5,-253 "/>
<text text-anchor="start" x="56.5" y="-237.8" font-family="Times,serif" font-size="14.00" fill="#2f3638">某参与者reply了no</text>
<text text-anchor="start" x="56.5" y="-222.8" font-family="Times,serif" font-size="14.00" fill="#2f3638"> 1.写入rollback 日志</text>
<text text-anchor="start" x="56.5" y="-207.8" font-family="Times,serif" font-size="14.00" fill="#2f3638"> 2. coordinator向所有参与者</text>
<text text-anchor="start" x="56.5" y="-192.8" font-family="Times,serif" font-size="14.00" fill="#2f3638"> 发送rollback.</text>
<text text-anchor="start" x="56.5" y="-177.8" font-family="Times,serif" font-size="14.00" fill="#2f3638"> 3. 进入abort状态</text>
</g>
<!-- rollback&#45;&gt;write_rollback -->
<g id="edge5" class="edge">
<title>rollback&#45;&gt;write_rollback</title>
<path fill="none" stroke="#666666" d="M230.81,-250.95C246.53,-259.75 261.02,-271.19 271,-286 294.25,-320.49 262.31,-442.87 292,-472 298.12,-478.01 305.35,-482.89 313.1,-486.85"/>
<polygon fill="#666666" stroke="#666666" points="311.84,-490.12 322.39,-491.1 314.75,-483.76 311.84,-490.12"/>
</g>
<!-- participant_01_rollback -->
<g id="node13" class="node">
<title>participant_01_rollback</title>
<path fill="none" stroke="#1c2123" d="M849,-178.5C849,-178.5 943,-178.5 943,-178.5 949,-178.5 955,-184.5 955,-190.5 955,-190.5 955,-227.5 955,-227.5 955,-233.5 949,-239.5 943,-239.5 943,-239.5 849,-239.5 849,-239.5 843,-239.5 837,-233.5 837,-227.5 837,-227.5 837,-190.5 837,-190.5 837,-184.5 843,-178.5 849,-178.5"/>
<text text-anchor="middle" x="896" y="-224.3" font-family="Times,serif" font-size="14.00" fill="#2f3638">participant 1</text>
<polyline fill="none" stroke="#1c2123" points="837,-216.5 955,-216.5 "/>
<text text-anchor="start" x="845" y="-201.3" font-family="Times,serif" font-size="14.00" fill="#2f3638">收到rollback消息</text>
<text text-anchor="start" x="845" y="-186.3" font-family="Times,serif" font-size="14.00" fill="#2f3638"> 完成rollback</text>
</g>
<!-- rollback&#45;&gt;participant_01_rollback -->
<g id="edge13" class="edge">
<title>rollback&#45;&gt;participant_01_rollback</title>
<path fill="none" stroke="red" d="M230.73,-255.04C245.6,-263.36 259.79,-273.58 271,-286 289.37,-306.35 270.64,-326.81 292,-344 333.84,-377.66 731.14,-412.36 774,-380 821.94,-343.8 772.44,-296.06 811,-250 815.8,-244.27 821.59,-239.27 827.86,-234.93"/>
<polygon fill="red" stroke="red" points="830.05,-237.69 836.66,-229.41 826.33,-231.76 830.05,-237.69"/>
<text text-anchor="middle" x="531.5" y="-391.8" font-family="Times,serif" font-size="14.00">rollback</text>
</g>
<!-- participant_02_rollback -->
<g id="node15" class="node">
<title>participant_02_rollback</title>
<path fill="none" stroke="#1c2123" d="M865.5,-113C865.5,-113 926.5,-113 926.5,-113 932.5,-113 938.5,-119 938.5,-125 938.5,-125 938.5,-147 938.5,-147 938.5,-153 932.5,-159 926.5,-159 926.5,-159 865.5,-159 865.5,-159 859.5,-159 853.5,-153 853.5,-147 853.5,-147 853.5,-125 853.5,-125 853.5,-119 859.5,-113 865.5,-113"/>
<text text-anchor="middle" x="896" y="-143.8" font-family="Times,serif" font-size="14.00" fill="#2f3638">participant 2</text>
<polyline fill="none" stroke="#1c2123" points="853.5,-136 938.5,-136 "/>
<text text-anchor="start" x="861.5" y="-120.8" font-family="Times,serif" font-size="14.00" fill="#2f3638">rollback</text>
</g>
<!-- rollback&#45;&gt;participant_02_rollback -->
<g id="edge14" class="edge">
<title>rollback&#45;&gt;participant_02_rollback</title>
<path fill="none" stroke="red" d="M230.84,-181.25C321.08,-140.41 454.05,-82.82 509,-72 579.97,-58.02 620.72,-53.01 793,-95 809.89,-99.12 827.68,-105.5 843.58,-112"/>
<polygon fill="red" stroke="red" points="842.64,-115.41 853.22,-116.06 845.35,-108.95 842.64,-115.41"/>
<text text-anchor="middle" x="531.5" y="-75.8" font-family="Times,serif" font-size="14.00">rollback</text>
</g>
<!-- rollback_done -->
<g id="node10" class="node">
<title>rollback_done</title>
<path fill="none" stroke="#1c2123" d="M56,-75C56,-75 223,-75 223,-75 229,-75 235,-81 235,-87 235,-87 235,-139 235,-139 235,-145 229,-151 223,-151 223,-151 56,-151 56,-151 50,-151 44,-145 44,-139 44,-139 44,-87 44,-87 44,-81 50,-75 56,-75"/>
<text text-anchor="middle" x="139.5" y="-135.8" font-family="Times,serif" font-size="14.00" fill="#2f3638">commit phase</text>
<polyline fill="none" stroke="#1c2123" points="44,-128 235,-128 "/>
<text text-anchor="start" x="52" y="-112.8" font-family="Times,serif" font-size="14.00" fill="#2f3638">1.收到所有参与者的ack</text>
<text text-anchor="start" x="52" y="-97.8" font-family="Times,serif" font-size="14.00" fill="#2f3638"> 2.写入end_of_transaction日志</text>
<text text-anchor="start" x="52" y="-82.8" font-family="Times,serif" font-size="14.00" fill="#2f3638"> 3.事务abort完成</text>
</g>
<!-- rollback_done&#45;&gt;write_end_of_transaction -->
<g id="edge6" class="edge">
<title>rollback_done&#45;&gt;write_end_of_transaction</title>
<path fill="none" stroke="#666666" d="M235.2,-133.29C248.97,-140.03 261.63,-149.02 271,-161 323.62,-228.26 251.94,-276.58 292,-352 304.51,-375.55 326.27,-395.41 346.53,-410.18"/>
<polygon fill="#666666" stroke="#666666" points="344.6,-413.1 354.8,-415.99 348.63,-407.38 344.6,-413.1"/>
</g>
<!-- participant_01_prepare&#45;&gt;rollback -->
<g id="edge11" class="edge">
<title>participant_01_prepare&#45;&gt;rollback</title>
<path fill="none" stroke="blue" d="M593.66,-295.16C516.75,-284.35 396.16,-266.95 292,-250 275.36,-247.29 257.71,-244.28 240.57,-241.27"/>
<polygon fill="blue" stroke="blue" points="241,-237.8 230.55,-239.51 239.79,-244.69 241,-237.8"/>
<text text-anchor="middle" x="395.5" y="-284.8" font-family="Times,serif" font-size="14.00">yes</text>
</g>
<!-- write_ready_log -->
<g id="node12" class="node">
<title>write_ready_log</title>
<path fill="none" stroke="#1c2123" d="M823,-324C823,-324 969,-324 969,-324 975,-324 981,-330 981,-336 981,-336 981,-358 981,-358 981,-364 975,-370 969,-370 969,-370 823,-370 823,-370 817,-370 811,-364 811,-358 811,-358 811,-336 811,-336 811,-330 817,-324 823,-324"/>
<text text-anchor="middle" x="896" y="-354.8" font-family="Times,serif" font-size="14.00" fill="#2f3638">write_ready_log</text>
<polyline fill="none" stroke="#1c2123" points="811,-347 981,-347 "/>
<text text-anchor="start" x="819" y="-331.8" font-family="Times,serif" font-size="14.00" fill="#2f3638">向日志中写入ready record</text>
</g>
<!-- participant_01_prepare&#45;&gt;write_ready_log -->
<g id="edge7" class="edge">
<title>participant_01_prepare&#45;&gt;write_ready_log</title>
<path fill="none" stroke="#666666" d="M752.23,-320.51C767.96,-323.43 784.65,-326.53 800.86,-329.53"/>
<polygon fill="#666666" stroke="#666666" points="800.41,-333.01 810.88,-331.39 801.68,-326.13 800.41,-333.01"/>
</g>
<!-- participant_01_rollback&#45;&gt;rollback_done -->
<g id="edge15" class="edge">
<title>participant_01_rollback&#45;&gt;rollback_done</title>
<path fill="none" stroke="green" d="M836.85,-184.9C827.86,-180.17 818.94,-174.84 811,-169 791.49,-154.65 796.06,-138.98 774,-129 682.66,-87.68 400.3,-97.08 245.2,-105.93"/>
<polygon fill="green" stroke="green" points="244.95,-102.44 235.17,-106.51 245.35,-109.43 244.95,-102.44"/>
<text text-anchor="middle" x="531.5" y="-102.8" font-family="Times,serif" font-size="14.00">done</text>
</g>
<!-- participant_02_prepare&#45;&gt;rollback -->
<g id="edge12" class="edge">
<title>participant_02_prepare&#45;&gt;rollback</title>
<path fill="none" stroke="red" d="M571.68,-179.54C494.89,-180.19 386.46,-183.28 292,-194 275.32,-195.89 257.72,-198.6 240.66,-201.6"/>
<polygon fill="red" stroke="red" points="239.9,-198.18 230.68,-203.4 241.14,-205.07 239.9,-198.18"/>
<text text-anchor="middle" x="395.5" y="-197.8" font-family="Times,serif" font-size="14.00">no</text>
</g>
<!-- write_abort_log -->
<g id="node16" class="node">
<title>write_abort_log</title>
<path fill="none" stroke="#1c2123" d="M824,-259C824,-259 968,-259 968,-259 974,-259 980,-265 980,-271 980,-271 980,-293 980,-293 980,-299 974,-305 968,-305 968,-305 824,-305 824,-305 818,-305 812,-299 812,-293 812,-293 812,-271 812,-271 812,-265 818,-259 824,-259"/>
<text text-anchor="middle" x="896" y="-289.8" font-family="Times,serif" font-size="14.00" fill="#2f3638">write_abort_log</text>
<polyline fill="none" stroke="#1c2123" points="812,-282 980,-282 "/>
<text text-anchor="start" x="820" y="-266.8" font-family="Times,serif" font-size="14.00" fill="#2f3638">向日志中写入abort record</text>
</g>
<!-- participant_02_prepare&#45;&gt;write_abort_log -->
<g id="edge8" class="edge">
<title>participant_02_prepare&#45;&gt;write_abort_log</title>
<path fill="none" stroke="#666666" d="M754.54,-222.11C772.94,-231.3 792.52,-240.74 811,-249 815.42,-250.97 819.99,-252.95 824.62,-254.91"/>
<polygon fill="#666666" stroke="#666666" points="823.58,-258.26 834.16,-258.87 826.27,-251.8 823.58,-258.26"/>
</g>
<!-- participant_02_rollback&#45;&gt;rollback_done -->
<g id="edge16" class="edge">
<title>participant_02_rollback&#45;&gt;rollback_done</title>
<path fill="none" stroke="green" d="M873.08,-112.95C853.88,-94.38 824.23,-69.38 793,-57 693.8,-17.67 660.59,-39.12 554,-34 432.38,-28.16 399.28,-28.07 281,-57 265.69,-60.75 249.83,-65.82 234.52,-71.38"/>
<polygon fill="green" stroke="green" points="233.22,-68.13 225.07,-74.9 235.67,-74.69 233.22,-68.13"/>
<text text-anchor="middle" x="531.5" y="-37.8" font-family="Times,serif" font-size="14.00">done</text>
</g>
</g>
</svg>
