<?xml version="1.0" encoding="UTF-8" standalone="no"?>
<!DOCTYPE svg PUBLIC "-//W3C//DTD SVG 1.1//EN"
 "http://www.w3.org/Graphics/SVG/1.1/DTD/svg11.dtd">
<!-- Generated by graphviz version 2.44.1 (20200629.0846)
 -->
<!-- Title: tikv_raft_log Pages: 1 -->
<svg width="2360pt" height="1188pt"
 viewBox="0.00 0.00 2360.00 1188.00" xmlns="http://www.w3.org/2000/svg" xmlns:xlink="http://www.w3.org/1999/xlink">
<g id="graph0" class="graph" transform="scale(1 1) rotate(0) translate(4 1184)">
<title>tikv_raft_log</title>
<polygon fill="white" stroke="transparent" points="-4,4 -4,-1184 2356,-1184 2356,4 -4,4"/>
<g id="clust1" class="cluster">
<title>cluster_ApplyContext</title>
<path fill="none" stroke="slategrey" stroke-dasharray="5,2" d="M341,-458C341,-458 2332,-458 2332,-458 2338,-458 2344,-464 2344,-470 2344,-470 2344,-1160 2344,-1160 2344,-1166 2338,-1172 2332,-1172 2332,-1172 341,-1172 341,-1172 335,-1172 329,-1166 329,-1160 329,-1160 329,-470 329,-470 329,-464 335,-458 341,-458"/>
<text text-anchor="middle" x="1336.5" y="-1152" font-family="Times,serif" font-size="20.00">ApplyContext</text>
</g>
<g id="clust6" class="cluster">
<title>cluster_WriteBatch</title>
<path fill="none" stroke="slategrey" stroke-dasharray="5,2" d="M1358.5,-726C1358.5,-726 2324,-726 2324,-726 2330,-726 2336,-732 2336,-738 2336,-738 2336,-1038 2336,-1038 2336,-1044 2330,-1050 2324,-1050 2324,-1050 1358.5,-1050 1358.5,-1050 1352.5,-1050 1346.5,-1044 1346.5,-1038 1346.5,-1038 1346.5,-738 1346.5,-738 1346.5,-732 1352.5,-726 1358.5,-726"/>
<text text-anchor="middle" x="1841.25" y="-1030" font-family="Times,serif" font-size="20.00">WriteBatch</text>
</g>
<g id="clust8" class="cluster">
<title>cluster_ApplyDelegate</title>
<path fill="none" stroke="slategrey" stroke-dasharray="5,2" d="M482,-206C482,-206 2143.5,-206 2143.5,-206 2149.5,-206 2155.5,-212 2155.5,-218 2155.5,-218 2155.5,-438 2155.5,-438 2155.5,-444 2149.5,-450 2143.5,-450 2143.5,-450 482,-450 482,-450 476,-450 470,-444 470,-438 470,-438 470,-218 470,-218 470,-212 476,-206 482,-206"/>
<text text-anchor="middle" x="1312.75" y="-430" font-family="Times,serif" font-size="20.00">ApplyDelegate</text>
</g>
<g id="clust17" class="cluster">
<title>cluster_ApplyFsm</title>
<path fill="none" stroke="slategrey" stroke-dasharray="5,2" d="M154,-8C154,-8 950,-8 950,-8 956,-8 962,-14 962,-20 962,-20 962,-186 962,-186 962,-192 956,-198 950,-198 950,-198 154,-198 154,-198 148,-198 142,-192 142,-186 142,-186 142,-20 142,-20 142,-14 148,-8 154,-8"/>
<text text-anchor="middle" x="552" y="-178" font-family="Times,serif" font-size="20.00">ApplyFsm</text>
</g>
<g id="clust21" class="cluster">
<title>cluster_ApplyPoller</title>
<path fill="none" stroke="slategrey" stroke-dasharray="5,2" d="M20,-350C20,-350 110,-350 110,-350 116,-350 122,-356 122,-362 122,-362 122,-474 122,-474 122,-480 116,-486 110,-486 110,-486 20,-486 20,-486 14,-486 8,-480 8,-474 8,-474 8,-362 8,-362 8,-356 14,-350 20,-350"/>
<text text-anchor="middle" x="65" y="-466" font-family="Times,serif" font-size="20.00">ApplyPoller</text>
</g>
<!-- apply_ctx_flush -->
<g id="node1" class="node">
<title>apply_ctx_flush</title>
<path fill="none" stroke="#1c2123" d="M428,-1131C428,-1131 349,-1131 349,-1131 343,-1131 337,-1125 337,-1119 337,-1119 337,-1107 337,-1107 337,-1101 343,-1095 349,-1095 349,-1095 428,-1095 428,-1095 434,-1095 440,-1101 440,-1107 440,-1107 440,-1119 440,-1119 440,-1125 434,-1131 428,-1131"/>
<text text-anchor="middle" x="388.5" y="-1109.3" font-family="Times,serif" font-size="14.00" fill="#2f3638">apply_ctx_flush</text>
</g>
<!-- write_to_db -->
<g id="node2" class="node">
<title>write_to_db</title>
<path fill="none" stroke="#1c2123" d="M1614,-950.5C1614,-950.5 1715,-950.5 1715,-950.5 1721,-950.5 1727,-956.5 1727,-962.5 1727,-962.5 1727,-999.5 1727,-999.5 1727,-1005.5 1721,-1011.5 1715,-1011.5 1715,-1011.5 1614,-1011.5 1614,-1011.5 1608,-1011.5 1602,-1005.5 1602,-999.5 1602,-999.5 1602,-962.5 1602,-962.5 1602,-956.5 1608,-950.5 1614,-950.5"/>
<text text-anchor="middle" x="1664.5" y="-996.3" font-family="Times,serif" font-size="14.00" fill="#2f3638">write_to_db</text>
<polyline fill="none" stroke="#1c2123" points="1602,-988.5 1727,-988.5 "/>
<text text-anchor="start" x="1610" y="-973.3" font-family="Times,serif" font-size="14.00" fill="#2f3638">writes all the</text>
<text text-anchor="start" x="1610" y="-958.3" font-family="Times,serif" font-size="14.00" fill="#2f3638"> changes to rocksdb</text>
</g>
<!-- apply_ctx_flush&#45;&gt;write_to_db -->
<g id="edge1" class="edge">
<title>apply_ctx_flush&#45;&gt;write_to_db</title>
<path fill="none" stroke="#666666" d="M440.19,-1113C529.48,-1113 720.61,-1113 882,-1113 882,-1113 882,-1113 1139.5,-1113 1217.64,-1113 1426.66,-1147.34 1491,-1103 1525.46,-1079.25 1495.39,-1043.43 1527,-1016 1544.95,-1000.43 1568.92,-991.63 1591.77,-986.71"/>
<polygon fill="#666666" stroke="#666666" points="1592.66,-990.11 1601.82,-984.78 1591.34,-983.23 1592.66,-990.11"/>
</g>
<!-- notifier_notify -->
<g id="node3" class="node">
<title>notifier_notify</title>
<path fill="#feed9b" stroke="#f7e495" d="M1850,-1060.5C1850,-1060.5 1969,-1060.5 1969,-1060.5 1975,-1060.5 1981,-1066.5 1981,-1072.5 1981,-1072.5 1981,-1109.5 1981,-1109.5 1981,-1115.5 1975,-1121.5 1969,-1121.5 1969,-1121.5 1850,-1121.5 1850,-1121.5 1844,-1121.5 1838,-1115.5 1838,-1109.5 1838,-1109.5 1838,-1072.5 1838,-1072.5 1838,-1066.5 1844,-1060.5 1850,-1060.5"/>
<text text-anchor="middle" x="1909.5" y="-1106.3" font-family="Times,serif" font-size="14.00" fill="#40575d">notifier_notify</text>
<polyline fill="none" stroke="#f7e495" points="1838,-1098.5 1981,-1098.5 "/>
<text text-anchor="start" x="1846" y="-1083.3" font-family="Times,serif" font-size="14.00" fill="#40575d">发送给RaftPoller线程</text>
<text text-anchor="start" x="1846" y="-1068.3" font-family="Times,serif" font-size="14.00" fill="#40575d"> 消息为apply_res</text>
</g>
<!-- apply_ctx_flush&#45;&gt;notifier_notify -->
<g id="edge2" class="edge">
<title>apply_ctx_flush&#45;&gt;notifier_notify</title>
<path fill="none" stroke="#666666" d="M440.17,-1116.42C529.41,-1122.13 720.48,-1133 882,-1133 882,-1133 882,-1133 1396.5,-1133 1576.8,-1133 1623.78,-1148.31 1802,-1121 1810.55,-1119.69 1819.39,-1117.91 1828.16,-1115.87"/>
<polygon fill="#666666" stroke="#666666" points="1829.11,-1119.24 1838,-1113.46 1827.45,-1112.44 1829.11,-1119.24"/>
</g>
<!-- kv_wb_write_opt -->
<g id="node20" class="node">
<title>kv_wb_write_opt</title>
<path fill="none" stroke="#1c2123" d="M1953.5,-999C1953.5,-999 1865.5,-999 1865.5,-999 1859.5,-999 1853.5,-993 1853.5,-987 1853.5,-987 1853.5,-975 1853.5,-975 1853.5,-969 1859.5,-963 1865.5,-963 1865.5,-963 1953.5,-963 1953.5,-963 1959.5,-963 1965.5,-969 1965.5,-975 1965.5,-975 1965.5,-987 1965.5,-987 1965.5,-993 1959.5,-999 1953.5,-999"/>
<text text-anchor="middle" x="1909.5" y="-977.3" font-family="Times,serif" font-size="14.00" fill="#2f3638">kv_wb_write_opt</text>
</g>
<!-- write_to_db&#45;&gt;kv_wb_write_opt -->
<g id="edge17" class="edge">
<title>write_to_db&#45;&gt;kv_wb_write_opt</title>
<path fill="none" stroke="#666666" d="M1727.13,-981C1762.45,-981 1806.77,-981 1842.76,-981"/>
<polygon fill="#666666" stroke="#666666" points="1843.16,-984.5 1853.16,-981 1843.16,-977.5 1843.16,-984.5"/>
</g>
<!-- apply_res -->
<g id="node4" class="node">
<title>apply_res</title>
<path fill="#feed9b" stroke="#f7e495" d="M1575,-1065C1575,-1065 1754,-1065 1754,-1065 1760,-1065 1766,-1071 1766,-1077 1766,-1077 1766,-1099 1766,-1099 1766,-1105 1760,-1111 1754,-1111 1754,-1111 1575,-1111 1575,-1111 1569,-1111 1563,-1105 1563,-1099 1563,-1099 1563,-1077 1563,-1077 1563,-1071 1569,-1065 1575,-1065"/>
<text text-anchor="middle" x="1664.5" y="-1095.8" font-family="Times,serif" font-size="14.00" fill="#40575d">apply_res</text>
<polyline fill="none" stroke="#f7e495" points="1563,-1088 1766,-1088 "/>
<text text-anchor="start" x="1571" y="-1072.8" font-family="Times,serif" font-size="14.00" fill="#40575d">Vec&lt;ApplyRes&lt;EK::Snapshot&gt;&gt;,</text>
</g>
<!-- apply_res&#45;&gt;notifier_notify -->
<g id="edge4" class="edge">
<title>apply_res&#45;&gt;notifier_notify</title>
<path fill="none" stroke="#666666" d="M1766.09,-1089.24C1786.66,-1089.5 1808.05,-1089.76 1827.82,-1090"/>
<polygon fill="#666666" stroke="#666666" points="1827.95,-1093.51 1837.99,-1090.13 1828.04,-1086.51 1827.95,-1093.51"/>
</g>
<!-- apply_res_push -->
<g id="node5" class="node">
<title>apply_res_push</title>
<path fill="none" stroke="#1c2123" d="M1434,-1094C1434,-1094 1357,-1094 1357,-1094 1351,-1094 1345,-1088 1345,-1082 1345,-1082 1345,-1070 1345,-1070 1345,-1064 1351,-1058 1357,-1058 1357,-1058 1434,-1058 1434,-1058 1440,-1058 1446,-1064 1446,-1070 1446,-1070 1446,-1082 1446,-1082 1446,-1088 1440,-1094 1434,-1094"/>
<text text-anchor="middle" x="1395.5" y="-1072.3" font-family="Times,serif" font-size="14.00" fill="#2f3638">apply_res_push</text>
</g>
<!-- apply_res_push&#45;&gt;apply_res -->
<g id="edge3" class="edge">
<title>apply_res_push&#45;&gt;apply_res</title>
<path fill="none" stroke="#666666" d="M1446.09,-1078.23C1476.01,-1079.57 1515.37,-1081.34 1552.38,-1083.01"/>
<polygon fill="#666666" stroke="#666666" points="1552.59,-1086.52 1562.74,-1083.47 1552.91,-1079.53 1552.59,-1086.52"/>
</g>
<!-- apply_ctx_finish_for -->
<g id="node6" class="node">
<title>apply_ctx_finish_for</title>
<path fill="none" stroke="#1c2123" d="M1191,-718C1191,-718 1086,-718 1086,-718 1080,-718 1074,-712 1074,-706 1074,-706 1074,-694 1074,-694 1074,-688 1080,-682 1086,-682 1086,-682 1191,-682 1191,-682 1197,-682 1203,-688 1203,-694 1203,-694 1203,-706 1203,-706 1203,-712 1197,-718 1191,-718"/>
<text text-anchor="middle" x="1138.5" y="-696.3" font-family="Times,serif" font-size="14.00" fill="#2f3638">apply_ctx_finish_for</text>
</g>
<!-- apply_ctx_finish_for&#45;&gt;apply_res_push -->
<g id="edge5" class="edge">
<title>apply_ctx_finish_for&#45;&gt;apply_res_push</title>
<path fill="none" stroke="#666666" d="M1142.03,-718.06C1151.21,-776.58 1188.34,-962.42 1300,-1054 1309.87,-1062.09 1322.17,-1067.32 1334.6,-1070.67"/>
<polygon fill="#666666" stroke="#666666" points="1334.02,-1074.13 1344.55,-1072.98 1335.6,-1067.31 1334.02,-1074.13"/>
</g>
<!-- delegate_write_apply_state -->
<g id="node7" class="node">
<title>delegate_write_apply_state</title>
<path fill="none" stroke="#1c2123" d="M1465.5,-718C1465.5,-718 1325.5,-718 1325.5,-718 1319.5,-718 1313.5,-712 1313.5,-706 1313.5,-706 1313.5,-694 1313.5,-694 1313.5,-688 1319.5,-682 1325.5,-682 1325.5,-682 1465.5,-682 1465.5,-682 1471.5,-682 1477.5,-688 1477.5,-694 1477.5,-694 1477.5,-706 1477.5,-706 1477.5,-712 1471.5,-718 1465.5,-718"/>
<text text-anchor="middle" x="1395.5" y="-696.3" font-family="Times,serif" font-size="14.00" fill="#2f3638">delegate_write_apply_state</text>
</g>
<!-- apply_ctx_finish_for&#45;&gt;delegate_write_apply_state -->
<g id="edge6" class="edge">
<title>apply_ctx_finish_for&#45;&gt;delegate_write_apply_state</title>
<path fill="none" stroke="#666666" d="M1203.19,-700C1233.4,-700 1270.06,-700 1303.17,-700"/>
<polygon fill="#666666" stroke="#666666" points="1303.32,-703.5 1313.32,-700 1303.32,-696.5 1303.32,-703.5"/>
</g>
<!-- kv_wb_mut -->
<g id="node8" class="node">
<title>kv_wb_mut</title>
<path fill="none" stroke="#1c2123" d="M1424.5,-772C1424.5,-772 1366.5,-772 1366.5,-772 1360.5,-772 1354.5,-766 1354.5,-760 1354.5,-760 1354.5,-748 1354.5,-748 1354.5,-742 1360.5,-736 1366.5,-736 1366.5,-736 1424.5,-736 1424.5,-736 1430.5,-736 1436.5,-742 1436.5,-748 1436.5,-748 1436.5,-760 1436.5,-760 1436.5,-766 1430.5,-772 1424.5,-772"/>
<text text-anchor="middle" x="1395.5" y="-750.3" font-family="Times,serif" font-size="14.00" fill="#2f3638">kv_wb_mut</text>
</g>
<!-- apply_ctx_finish_for&#45;&gt;kv_wb_mut -->
<g id="edge7" class="edge">
<title>apply_ctx_finish_for&#45;&gt;kv_wb_mut</title>
<path fill="none" stroke="#666666" d="M1203.19,-713.49C1246.84,-722.73 1303.94,-734.82 1344.36,-743.38"/>
<polygon fill="#666666" stroke="#666666" points="1343.75,-746.83 1354.26,-745.48 1345.2,-739.98 1343.75,-746.83"/>
</g>
<!-- commit_opt -->
<g id="node9" class="node">
<title>commit_opt</title>
<path fill="none" stroke="#1c2123" d="M1425,-664C1425,-664 1366,-664 1366,-664 1360,-664 1354,-658 1354,-652 1354,-652 1354,-640 1354,-640 1354,-634 1360,-628 1366,-628 1366,-628 1425,-628 1425,-628 1431,-628 1437,-634 1437,-640 1437,-640 1437,-652 1437,-652 1437,-658 1431,-664 1425,-664"/>
<text text-anchor="middle" x="1395.5" y="-642.3" font-family="Times,serif" font-size="14.00" fill="#2f3638">commit_opt</text>
</g>
<!-- apply_ctx_finish_for&#45;&gt;commit_opt -->
<g id="edge8" class="edge">
<title>apply_ctx_finish_for&#45;&gt;commit_opt</title>
<path fill="none" stroke="#666666" d="M1203.19,-686.51C1246.71,-677.3 1303.59,-665.25 1343.99,-656.7"/>
<polygon fill="#666666" stroke="#666666" points="1344.83,-660.1 1353.88,-654.6 1343.37,-653.25 1344.83,-660.1"/>
</g>
<!-- kv_wb_mut_put_msg_cf -->
<g id="node22" class="node">
<title>kv_wb_mut_put_msg_cf</title>
<path fill="none" stroke="#1c2123" d="M1729,-932C1729,-932 1600,-932 1600,-932 1594,-932 1588,-926 1588,-920 1588,-920 1588,-908 1588,-908 1588,-902 1594,-896 1600,-896 1600,-896 1729,-896 1729,-896 1735,-896 1741,-902 1741,-908 1741,-908 1741,-920 1741,-920 1741,-926 1735,-932 1729,-932"/>
<text text-anchor="middle" x="1664.5" y="-910.3" font-family="Times,serif" font-size="14.00" fill="#2f3638">kv_wb_mut_put_msg_cf</text>
</g>
<!-- delegate_write_apply_state&#45;&gt;kv_wb_mut_put_msg_cf -->
<g id="edge50" class="edge">
<title>delegate_write_apply_state&#45;&gt;kv_wb_mut_put_msg_cf</title>
<path fill="none" stroke="#666666" d="M1477.81,-711.99C1482.63,-714.74 1487.1,-718.04 1491,-722 1543.7,-775.44 1473.41,-834.45 1527,-887 1540.73,-900.47 1559.13,-908.17 1577.96,-912.39"/>
<polygon fill="#666666" stroke="#666666" points="1577.34,-915.83 1587.82,-914.29 1578.66,-908.96 1577.34,-915.83"/>
</g>
<!-- commit_opt&#45;&gt;write_to_db -->
<g id="edge11" class="edge">
<title>commit_opt&#45;&gt;write_to_db</title>
<path fill="none" stroke="#666666" d="M1437.31,-647.73C1456.36,-650.73 1477.72,-657.64 1491,-673 1569.61,-763.9 1448.7,-849.83 1527,-941 1543.26,-959.93 1567.96,-970.15 1591.9,-975.59"/>
<polygon fill="#666666" stroke="#666666" points="1591.23,-979.02 1601.73,-977.57 1592.62,-972.16 1591.23,-979.02"/>
</g>
<!-- prepare_for_delegate -->
<g id="node11" class="node">
<title>prepare_for_delegate</title>
<path fill="none" stroke="#1c2123" d="M1718,-608C1718,-608 1611,-608 1611,-608 1605,-608 1599,-602 1599,-596 1599,-596 1599,-584 1599,-584 1599,-578 1605,-572 1611,-572 1611,-572 1718,-572 1718,-572 1724,-572 1730,-578 1730,-584 1730,-584 1730,-596 1730,-596 1730,-602 1724,-608 1718,-608"/>
<text text-anchor="middle" x="1664.5" y="-586.3" font-family="Times,serif" font-size="14.00" fill="#2f3638">prepare_for_delegate</text>
</g>
<!-- commit_opt&#45;&gt;prepare_for_delegate -->
<g id="edge12" class="edge">
<title>commit_opt&#45;&gt;prepare_for_delegate</title>
<path fill="none" stroke="#666666" d="M1437.01,-636.74C1462.75,-630.92 1496.79,-623.34 1527,-617 1547.02,-612.8 1568.74,-608.42 1588.83,-604.44"/>
<polygon fill="#666666" stroke="#666666" points="1589.73,-607.83 1598.86,-602.46 1588.37,-600.97 1589.73,-607.83"/>
</g>
<!-- kv_wb_mut_clear -->
<g id="node12" class="node">
<title>kv_wb_mut_clear</title>
<path fill="none" stroke="#1c2123" d="M1710,-878C1710,-878 1619,-878 1619,-878 1613,-878 1607,-872 1607,-866 1607,-866 1607,-854 1607,-854 1607,-848 1613,-842 1619,-842 1619,-842 1710,-842 1710,-842 1716,-842 1722,-848 1722,-854 1722,-854 1722,-866 1722,-866 1722,-872 1716,-878 1710,-878"/>
<text text-anchor="middle" x="1664.5" y="-856.3" font-family="Times,serif" font-size="14.00" fill="#2f3638">kv_wb_mut_clear</text>
</g>
<!-- commit_opt&#45;&gt;kv_wb_mut_clear -->
<g id="edge13" class="edge">
<title>commit_opt&#45;&gt;kv_wb_mut_clear</title>
<path fill="none" stroke="#666666" d="M1437.22,-648.32C1456.02,-651.48 1477.17,-658.36 1491,-673 1541.05,-725.99 1474.79,-782.13 1527,-833 1545.32,-850.85 1571.85,-858.56 1596.65,-861.45"/>
<polygon fill="#666666" stroke="#666666" points="1596.5,-864.95 1606.78,-862.39 1597.15,-857.98 1596.5,-864.95"/>
</g>
<!-- on_flush_apply -->
<g id="node13" class="node">
<title>on_flush_apply</title>
<path fill="none" stroke="#1c2123" d="M1702.5,-662C1702.5,-662 1626.5,-662 1626.5,-662 1620.5,-662 1614.5,-656 1614.5,-650 1614.5,-650 1614.5,-638 1614.5,-638 1614.5,-632 1620.5,-626 1626.5,-626 1626.5,-626 1702.5,-626 1702.5,-626 1708.5,-626 1714.5,-632 1714.5,-638 1714.5,-638 1714.5,-650 1714.5,-650 1714.5,-656 1708.5,-662 1702.5,-662"/>
<text text-anchor="middle" x="1664.5" y="-640.3" font-family="Times,serif" font-size="14.00" fill="#2f3638">on_flush_apply</text>
</g>
<!-- commit_opt&#45;&gt;on_flush_apply -->
<g id="edge14" class="edge">
<title>commit_opt&#45;&gt;on_flush_apply</title>
<path fill="none" stroke="#666666" d="M1437.05,-645.7C1481.54,-645.36 1553.38,-644.82 1604.2,-644.44"/>
<polygon fill="#666666" stroke="#666666" points="1604.41,-647.94 1614.39,-644.37 1604.36,-640.94 1604.41,-647.94"/>
</g>
<!-- cbs_invoke_all -->
<g id="node14" class="node">
<title>cbs_invoke_all</title>
<path fill="none" stroke="#1c2123" d="M1701.5,-716C1701.5,-716 1627.5,-716 1627.5,-716 1621.5,-716 1615.5,-710 1615.5,-704 1615.5,-704 1615.5,-692 1615.5,-692 1615.5,-686 1621.5,-680 1627.5,-680 1627.5,-680 1701.5,-680 1701.5,-680 1707.5,-680 1713.5,-686 1713.5,-692 1713.5,-692 1713.5,-704 1713.5,-704 1713.5,-710 1707.5,-716 1701.5,-716"/>
<text text-anchor="middle" x="1664.5" y="-694.3" font-family="Times,serif" font-size="14.00" fill="#2f3638">cbs_invoke_all</text>
</g>
<!-- commit_opt&#45;&gt;cbs_invoke_all -->
<g id="edge15" class="edge">
<title>commit_opt&#45;&gt;cbs_invoke_all</title>
<path fill="none" stroke="#666666" d="M1437.05,-653.9C1481.91,-662.63 1554.57,-676.78 1605.45,-686.69"/>
<polygon fill="#666666" stroke="#666666" points="1604.84,-690.14 1615.32,-688.62 1606.18,-683.27 1604.84,-690.14"/>
</g>
<!-- apply_ctx_commit -->
<g id="node10" class="node">
<title>apply_ctx_commit</title>
<path fill="none" stroke="#1c2123" d="M1186,-556C1186,-556 1091,-556 1091,-556 1085,-556 1079,-550 1079,-544 1079,-544 1079,-532 1079,-532 1079,-526 1085,-520 1091,-520 1091,-520 1186,-520 1186,-520 1192,-520 1198,-526 1198,-532 1198,-532 1198,-544 1198,-544 1198,-550 1192,-556 1186,-556"/>
<text text-anchor="middle" x="1138.5" y="-534.3" font-family="Times,serif" font-size="14.00" fill="#2f3638">apply_ctx_commit</text>
</g>
<!-- apply_ctx_commit&#45;&gt;delegate_write_apply_state -->
<g id="edge9" class="edge">
<title>apply_ctx_commit&#45;&gt;delegate_write_apply_state</title>
<path fill="none" stroke="#666666" d="M1198.08,-538.6C1221.05,-541.68 1246.14,-548.97 1264,-565 1301.66,-598.79 1263.45,-638.01 1300,-673 1301.48,-674.42 1303.03,-675.76 1304.63,-677.03"/>
<polygon fill="#666666" stroke="#666666" points="1302.89,-680.08 1313.12,-682.83 1306.84,-674.3 1302.89,-680.08"/>
</g>
<!-- apply_ctx_commit&#45;&gt;commit_opt -->
<g id="edge10" class="edge">
<title>apply_ctx_commit&#45;&gt;commit_opt</title>
<path fill="none" stroke="#666666" d="M1198,-541.4C1220.18,-544.96 1244.72,-551.86 1264,-565 1287.84,-581.24 1276.7,-601.99 1300,-619 1312.77,-628.33 1328.69,-634.44 1343.79,-638.44"/>
<polygon fill="#666666" stroke="#666666" points="1343.02,-641.85 1353.56,-640.78 1344.65,-635.05 1343.02,-641.85"/>
</g>
<!-- apply_ctx_kv_wb_mut_set_save_point -->
<g id="node15" class="node">
<title>apply_ctx_kv_wb_mut_set_save_point</title>
<path fill="none" stroke="#1c2123" d="M1767,-824C1767,-824 1562,-824 1562,-824 1556,-824 1550,-818 1550,-812 1550,-812 1550,-800 1550,-800 1550,-794 1556,-788 1562,-788 1562,-788 1767,-788 1767,-788 1773,-788 1779,-794 1779,-800 1779,-800 1779,-812 1779,-812 1779,-818 1773,-824 1767,-824"/>
<text text-anchor="middle" x="1664.5" y="-802.3" font-family="Times,serif" font-size="14.00" fill="#2f3638">apply_ctx_kv_wb_mut_set_save_point</text>
</g>
<!-- apply_ctx_kv_wb_mut_pop_save_point -->
<g id="node16" class="node">
<title>apply_ctx_kv_wb_mut_pop_save_point</title>
<path fill="none" stroke="#1c2123" d="M1769.5,-770C1769.5,-770 1559.5,-770 1559.5,-770 1553.5,-770 1547.5,-764 1547.5,-758 1547.5,-758 1547.5,-746 1547.5,-746 1547.5,-740 1553.5,-734 1559.5,-734 1559.5,-734 1769.5,-734 1769.5,-734 1775.5,-734 1781.5,-740 1781.5,-746 1781.5,-746 1781.5,-758 1781.5,-758 1781.5,-764 1775.5,-770 1769.5,-770"/>
<text text-anchor="middle" x="1664.5" y="-748.3" font-family="Times,serif" font-size="14.00" fill="#2f3638">apply_ctx_kv_wb_mut_pop_save_point</text>
</g>
<!-- apply_ctx_kv_wb_mut -->
<g id="node17" class="node">
<title>apply_ctx_kv_wb_mut</title>
<path fill="none" stroke="#1c2123" d="M2316,-878C2316,-878 2198,-878 2198,-878 2192,-878 2186,-872 2186,-866 2186,-866 2186,-854 2186,-854 2186,-848 2192,-842 2198,-842 2198,-842 2316,-842 2316,-842 2322,-842 2328,-848 2328,-854 2328,-854 2328,-866 2328,-866 2328,-872 2322,-878 2316,-878"/>
<text text-anchor="middle" x="2257" y="-856.3" font-family="Times,serif" font-size="14.00" fill="#2f3638">apply_ctx_kv_wb_mut</text>
</g>
<!-- WriteBatch_put -->
<g id="node18" class="node">
<title>WriteBatch_put</title>
<path fill="none" stroke="#1c2123" d="M2296.5,-824C2296.5,-824 2217.5,-824 2217.5,-824 2211.5,-824 2205.5,-818 2205.5,-812 2205.5,-812 2205.5,-800 2205.5,-800 2205.5,-794 2211.5,-788 2217.5,-788 2217.5,-788 2296.5,-788 2296.5,-788 2302.5,-788 2308.5,-794 2308.5,-800 2308.5,-800 2308.5,-812 2308.5,-812 2308.5,-818 2302.5,-824 2296.5,-824"/>
<text text-anchor="middle" x="2257" y="-802.3" font-family="Times,serif" font-size="14.00" fill="#2f3638">WriteBatch_put</text>
</g>
<!-- WriteBatch_put_cf -->
<g id="node19" class="node">
<title>WriteBatch_put_cf</title>
<path fill="none" stroke="#1c2123" d="M2305,-770C2305,-770 2209,-770 2209,-770 2203,-770 2197,-764 2197,-758 2197,-758 2197,-746 2197,-746 2197,-740 2203,-734 2209,-734 2209,-734 2305,-734 2305,-734 2311,-734 2317,-740 2317,-746 2317,-746 2317,-758 2317,-758 2317,-764 2311,-770 2305,-770"/>
<text text-anchor="middle" x="2257" y="-748.3" font-family="Times,serif" font-size="14.00" fill="#2f3638">WriteBatch_put_cf</text>
</g>
<!-- RocksWriteBatchVec -->
<g id="node21" class="node">
<title>RocksWriteBatchVec</title>
<path fill="none" stroke="#1c2123" d="M2138,-999C2138,-999 2029,-999 2029,-999 2023,-999 2017,-993 2017,-987 2017,-987 2017,-975 2017,-975 2017,-969 2023,-963 2029,-963 2029,-963 2138,-963 2138,-963 2144,-963 2150,-969 2150,-975 2150,-975 2150,-987 2150,-987 2150,-993 2144,-999 2138,-999"/>
<text text-anchor="middle" x="2083.5" y="-977.3" font-family="Times,serif" font-size="14.00" fill="#2f3638">RocksWriteBatchVec</text>
</g>
<!-- kv_wb_write_opt&#45;&gt;RocksWriteBatchVec -->
<g id="edge16" class="edge">
<title>kv_wb_write_opt&#45;&gt;RocksWriteBatchVec</title>
<path fill="none" stroke="#666666" d="M1965.87,-981C1978.78,-981 1992.75,-981 2006.39,-981"/>
<polygon fill="#666666" stroke="#666666" points="2006.73,-984.5 2016.73,-981 2006.73,-977.5 2006.73,-984.5"/>
</g>
<!-- apply_ctx_kv_wb_should_write_to_engine -->
<g id="node23" class="node">
<title>apply_ctx_kv_wb_should_write_to_engine</title>
<path fill="none" stroke="#1c2123" d="M1252,-610C1252,-610 1025,-610 1025,-610 1019,-610 1013,-604 1013,-598 1013,-598 1013,-586 1013,-586 1013,-580 1019,-574 1025,-574 1025,-574 1252,-574 1252,-574 1258,-574 1264,-580 1264,-586 1264,-586 1264,-598 1264,-598 1264,-604 1258,-610 1252,-610"/>
<text text-anchor="middle" x="1138.5" y="-588.3" font-family="Times,serif" font-size="14.00" fill="#2f3638">apply_ctx_kv_wb_should_write_to_engine</text>
</g>
<!-- apply_ctx_sync_log_hint -->
<g id="node24" class="node">
<title>apply_ctx_sync_log_hint</title>
<path fill="none" stroke="#1c2123" d="M1460,-610C1460,-610 1331,-610 1331,-610 1325,-610 1319,-604 1319,-598 1319,-598 1319,-586 1319,-586 1319,-580 1325,-574 1331,-574 1331,-574 1460,-574 1460,-574 1466,-574 1472,-580 1472,-586 1472,-586 1472,-598 1472,-598 1472,-604 1466,-610 1460,-610"/>
<text text-anchor="middle" x="1395.5" y="-588.3" font-family="Times,serif" font-size="14.00" fill="#2f3638">apply_ctx_sync_log_hint</text>
</g>
<!-- apply_ctx_host_pre_apply -->
<g id="node25" class="node">
<title>apply_ctx_host_pre_apply</title>
<path fill="none" stroke="#1c2123" d="M1463.5,-556C1463.5,-556 1327.5,-556 1327.5,-556 1321.5,-556 1315.5,-550 1315.5,-544 1315.5,-544 1315.5,-532 1315.5,-532 1315.5,-526 1321.5,-520 1327.5,-520 1327.5,-520 1463.5,-520 1463.5,-520 1469.5,-520 1475.5,-526 1475.5,-532 1475.5,-532 1475.5,-544 1475.5,-544 1475.5,-550 1469.5,-556 1463.5,-556"/>
<text text-anchor="middle" x="1395.5" y="-534.3" font-family="Times,serif" font-size="14.00" fill="#2f3638">apply_ctx_host_pre_apply</text>
</g>
<!-- apply_ctx_host_on_apply_cmd -->
<g id="node26" class="node">
<title>apply_ctx_host_on_apply_cmd</title>
<path fill="none" stroke="#1c2123" d="M1477,-502C1477,-502 1314,-502 1314,-502 1308,-502 1302,-496 1302,-490 1302,-490 1302,-478 1302,-478 1302,-472 1308,-466 1314,-466 1314,-466 1477,-466 1477,-466 1483,-466 1489,-472 1489,-478 1489,-478 1489,-490 1489,-490 1489,-496 1483,-502 1477,-502"/>
<text text-anchor="middle" x="1395.5" y="-480.3" font-family="Times,serif" font-size="14.00" fill="#2f3638">apply_ctx_host_on_apply_cmd</text>
</g>
<!-- apply_ctx_exec_ctx -->
<g id="node27" class="node">
<title>apply_ctx_exec_ctx</title>
<path fill="none" stroke="#1c2123" d="M1715,-502C1715,-502 1614,-502 1614,-502 1608,-502 1602,-496 1602,-490 1602,-490 1602,-478 1602,-478 1602,-472 1608,-466 1614,-466 1614,-466 1715,-466 1715,-466 1721,-466 1727,-472 1727,-478 1727,-478 1727,-490 1727,-490 1727,-496 1721,-502 1715,-502"/>
<text text-anchor="middle" x="1664.5" y="-480.3" font-family="Times,serif" font-size="14.00" fill="#2f3638">apply_ctx_exec_ctx</text>
</g>
<!-- ApplyDelegate_handle_raft_committed_entries -->
<g id="node28" class="node">
<title>ApplyDelegate_handle_raft_committed_entries</title>
<path fill="none" stroke="#1c2123" d="M741,-385C741,-385 490,-385 490,-385 484,-385 478,-379 478,-373 478,-373 478,-361 478,-361 478,-355 484,-349 490,-349 490,-349 741,-349 741,-349 747,-349 753,-355 753,-361 753,-361 753,-373 753,-373 753,-379 747,-385 741,-385"/>
<text text-anchor="middle" x="615.5" y="-363.3" font-family="Times,serif" font-size="14.00" fill="#2f3638">ApplyDelegate_handle_raft_committed_entries</text>
</g>
<!-- ApplyDelegate_handle_raft_committed_entries&#45;&gt;apply_ctx_finish_for -->
<g id="edge18" class="edge">
<title>ApplyDelegate_handle_raft_committed_entries&#45;&gt;apply_ctx_finish_for</title>
<path fill="none" stroke="#666666" d="M645.01,-385.15C672.63,-402.74 715.7,-430.18 753,-454 880.52,-535.43 1031.7,-632.23 1100.32,-676.18"/>
<polygon fill="#666666" stroke="#666666" points="1098.74,-679.33 1109.05,-681.78 1102.52,-673.43 1098.74,-679.33"/>
</g>
<!-- handle_raft_entry_normal -->
<g id="node29" class="node">
<title>handle_raft_entry_normal</title>
<path fill="none" stroke="#1c2123" d="M950,-358C950,-358 816,-358 816,-358 810,-358 804,-352 804,-346 804,-346 804,-334 804,-334 804,-328 810,-322 816,-322 816,-322 950,-322 950,-322 956,-322 962,-328 962,-334 962,-334 962,-346 962,-346 962,-352 956,-358 950,-358"/>
<text text-anchor="middle" x="883" y="-336.3" font-family="Times,serif" font-size="14.00" fill="#2f3638">handle_raft_entry_normal</text>
</g>
<!-- ApplyDelegate_handle_raft_committed_entries&#45;&gt;handle_raft_entry_normal -->
<g id="edge19" class="edge">
<title>ApplyDelegate_handle_raft_committed_entries&#45;&gt;handle_raft_entry_normal</title>
<path fill="none" stroke="#666666" d="M753.14,-353.1C766.87,-351.71 780.55,-350.32 793.59,-348.99"/>
<polygon fill="#666666" stroke="#666666" points="794.3,-352.44 803.89,-347.94 793.59,-345.47 794.3,-352.44"/>
</g>
<!-- handle_raft_entry_conf_change -->
<g id="node30" class="node">
<title>handle_raft_entry_conf_change</title>
<path fill="none" stroke="#1c2123" d="M965,-412C965,-412 801,-412 801,-412 795,-412 789,-406 789,-400 789,-400 789,-388 789,-388 789,-382 795,-376 801,-376 801,-376 965,-376 965,-376 971,-376 977,-382 977,-388 977,-388 977,-400 977,-400 977,-406 971,-412 965,-412"/>
<text text-anchor="middle" x="883" y="-390.3" font-family="Times,serif" font-size="14.00" fill="#2f3638">handle_raft_entry_conf_change</text>
</g>
<!-- ApplyDelegate_handle_raft_committed_entries&#45;&gt;handle_raft_entry_conf_change -->
<g id="edge20" class="edge">
<title>ApplyDelegate_handle_raft_committed_entries&#45;&gt;handle_raft_entry_conf_change</title>
<path fill="none" stroke="#666666" d="M753.14,-380.9C761.72,-381.77 770.28,-382.64 778.67,-383.49"/>
<polygon fill="#666666" stroke="#666666" points="778.52,-386.99 788.82,-384.52 779.23,-380.03 778.52,-386.99"/>
</g>
<!-- handle_raft_entry_normal&#45;&gt;apply_ctx_commit -->
<g id="edge21" class="edge">
<title>handle_raft_entry_normal&#45;&gt;apply_ctx_commit</title>
<path fill="none" stroke="#666666" d="M962.01,-356.6C967.41,-359.52 972.49,-362.96 977,-367 1008.17,-394.92 986.53,-421.59 1013,-454 1033.95,-479.65 1064.76,-500.53 1090.49,-515.05"/>
<polygon fill="#666666" stroke="#666666" points="1088.9,-518.18 1099.35,-519.92 1092.28,-512.04 1088.9,-518.18"/>
</g>
<!-- handle_raft_entry_normal&#45;&gt;apply_ctx_kv_wb_should_write_to_engine -->
<g id="edge22" class="edge">
<title>handle_raft_entry_normal&#45;&gt;apply_ctx_kv_wb_should_write_to_engine</title>
<path fill="none" stroke="#666666" d="M962.15,-355.07C967.66,-358.33 972.72,-362.26 977,-367 1036.92,-433.41 950.83,-500.7 1013,-565 1013.81,-565.83 1014.63,-566.65 1015.48,-567.44"/>
<polygon fill="#666666" stroke="#666666" points="1013.56,-570.39 1023.54,-573.96 1017.96,-564.95 1013.56,-570.39"/>
</g>
<!-- should_write_to_engine -->
<g id="node31" class="node">
<title>should_write_to_engine</title>
<path fill="none" stroke="#1c2123" d="M1200,-358C1200,-358 1077,-358 1077,-358 1071,-358 1065,-352 1065,-346 1065,-346 1065,-334 1065,-334 1065,-328 1071,-322 1077,-322 1077,-322 1200,-322 1200,-322 1206,-322 1212,-328 1212,-334 1212,-334 1212,-346 1212,-346 1212,-352 1206,-358 1200,-358"/>
<text text-anchor="middle" x="1138.5" y="-336.3" font-family="Times,serif" font-size="14.00" fill="#2f3638">should_write_to_engine</text>
</g>
<!-- handle_raft_entry_normal&#45;&gt;should_write_to_engine -->
<g id="edge23" class="edge">
<title>handle_raft_entry_normal&#45;&gt;should_write_to_engine</title>
<path fill="none" stroke="#666666" d="M962.13,-340C991.41,-340 1024.77,-340 1054.48,-340"/>
<polygon fill="#666666" stroke="#666666" points="1054.82,-343.5 1064.82,-340 1054.82,-336.5 1054.82,-343.5"/>
</g>
<!-- ApplyResult_Yield -->
<g id="node32" class="node">
<title>ApplyResult_Yield</title>
<path fill="none" stroke="#1c2123" d="M1187.5,-412C1187.5,-412 1089.5,-412 1089.5,-412 1083.5,-412 1077.5,-406 1077.5,-400 1077.5,-400 1077.5,-388 1077.5,-388 1077.5,-382 1083.5,-376 1089.5,-376 1089.5,-376 1187.5,-376 1187.5,-376 1193.5,-376 1199.5,-382 1199.5,-388 1199.5,-388 1199.5,-400 1199.5,-400 1199.5,-406 1193.5,-412 1187.5,-412"/>
<text text-anchor="middle" x="1138.5" y="-390.3" font-family="Times,serif" font-size="14.00" fill="#2f3638">ApplyResult_Yield</text>
</g>
<!-- handle_raft_entry_normal&#45;&gt;ApplyResult_Yield -->
<g id="edge24" class="edge">
<title>handle_raft_entry_normal&#45;&gt;ApplyResult_Yield</title>
<path fill="none" stroke="#666666" d="M962.13,-356.64C995.75,-363.8 1034.74,-372.11 1067.42,-379.07"/>
<polygon fill="#666666" stroke="#666666" points="1066.83,-382.52 1077.34,-381.18 1068.29,-375.68 1066.83,-382.52"/>
</g>
<!-- process_raft_cmd -->
<g id="node33" class="node">
<title>process_raft_cmd</title>
<path fill="none" stroke="#1c2123" d="M1183,-250C1183,-250 1094,-250 1094,-250 1088,-250 1082,-244 1082,-238 1082,-238 1082,-226 1082,-226 1082,-220 1088,-214 1094,-214 1094,-214 1183,-214 1183,-214 1189,-214 1195,-220 1195,-226 1195,-226 1195,-238 1195,-238 1195,-244 1189,-250 1183,-250"/>
<text text-anchor="middle" x="1138.5" y="-228.3" font-family="Times,serif" font-size="14.00" fill="#2f3638">process_raft_cmd</text>
</g>
<!-- handle_raft_entry_normal&#45;&gt;process_raft_cmd -->
<g id="edge25" class="edge">
<title>handle_raft_entry_normal&#45;&gt;process_raft_cmd</title>
<path fill="none" stroke="#666666" d="M907.36,-321.8C932.21,-303.31 973.33,-275.17 1013,-259 1031.49,-251.46 1052.42,-245.88 1071.77,-241.82"/>
<polygon fill="#666666" stroke="#666666" points="1072.6,-245.22 1081.72,-239.83 1071.23,-238.36 1072.6,-245.22"/>
</g>
<!-- set_applied_index -->
<g id="node34" class="node">
<title>set_applied_index</title>
<path fill="none" stroke="#1c2123" d="M1184,-304C1184,-304 1093,-304 1093,-304 1087,-304 1081,-298 1081,-292 1081,-292 1081,-280 1081,-280 1081,-274 1087,-268 1093,-268 1093,-268 1184,-268 1184,-268 1190,-268 1196,-274 1196,-280 1196,-280 1196,-292 1196,-292 1196,-298 1190,-304 1184,-304"/>
<text text-anchor="middle" x="1138.5" y="-282.3" font-family="Times,serif" font-size="14.00" fill="#2f3638">set_applied_index</text>
</g>
<!-- handle_raft_entry_normal&#45;&gt;set_applied_index -->
<g id="edge26" class="edge">
<title>handle_raft_entry_normal&#45;&gt;set_applied_index</title>
<path fill="none" stroke="#666666" d="M962.13,-323.36C996.93,-315.94 1037.5,-307.3 1070.85,-300.2"/>
<polygon fill="#666666" stroke="#666666" points="1071.9,-303.55 1080.95,-298.05 1070.44,-296.71 1071.9,-303.55"/>
</g>
<!-- process_raft_cmd&#45;&gt;apply_ctx_sync_log_hint -->
<g id="edge27" class="edge">
<title>process_raft_cmd&#45;&gt;apply_ctx_sync_log_hint</title>
<path fill="none" stroke="#666666" d="M1195.01,-230.35C1219.57,-232.68 1246.75,-240.01 1264,-259 1356.05,-360.39 1211.28,-460.69 1300,-565 1303,-568.53 1306.43,-571.62 1310.17,-574.31"/>
<polygon fill="#666666" stroke="#666666" points="1308.42,-577.35 1318.78,-579.61 1312.09,-571.39 1308.42,-577.35"/>
</g>
<!-- process_raft_cmd&#45;&gt;apply_ctx_host_pre_apply -->
<g id="edge28" class="edge">
<title>process_raft_cmd&#45;&gt;apply_ctx_host_pre_apply</title>
<path fill="none" stroke="#666666" d="M1195.11,-230.57C1219.55,-232.98 1246.6,-240.3 1264,-259 1341.08,-341.81 1225.64,-425.73 1300,-511 1302.05,-513.35 1304.29,-515.5 1306.68,-517.47"/>
<polygon fill="#666666" stroke="#666666" points="1305.13,-520.66 1315.34,-523.5 1309.13,-514.92 1305.13,-520.66"/>
</g>
<!-- process_raft_cmd&#45;&gt;apply_ctx_host_on_apply_cmd -->
<g id="edge29" class="edge">
<title>process_raft_cmd&#45;&gt;apply_ctx_host_on_apply_cmd</title>
<path fill="none" stroke="#666666" d="M1195.09,-230.93C1219.37,-233.44 1246.3,-240.74 1264,-259 1325.34,-322.28 1241.69,-387.92 1300,-454 1301.79,-456.03 1303.72,-457.93 1305.77,-459.7"/>
<polygon fill="#666666" stroke="#666666" points="1304.04,-462.78 1314.16,-465.91 1308.21,-457.15 1304.04,-462.78"/>
</g>
<!-- should_sync_log -->
<g id="node35" class="node">
<title>should_sync_log</title>
<path fill="none" stroke="#1c2123" d="M1437.5,-250C1437.5,-250 1353.5,-250 1353.5,-250 1347.5,-250 1341.5,-244 1341.5,-238 1341.5,-238 1341.5,-226 1341.5,-226 1341.5,-220 1347.5,-214 1353.5,-214 1353.5,-214 1437.5,-214 1437.5,-214 1443.5,-214 1449.5,-220 1449.5,-226 1449.5,-226 1449.5,-238 1449.5,-238 1449.5,-244 1443.5,-250 1437.5,-250"/>
<text text-anchor="middle" x="1395.5" y="-228.3" font-family="Times,serif" font-size="14.00" fill="#2f3638">should_sync_log</text>
</g>
<!-- process_raft_cmd&#45;&gt;should_sync_log -->
<g id="edge30" class="edge">
<title>process_raft_cmd&#45;&gt;should_sync_log</title>
<path fill="none" stroke="#666666" d="M1195.15,-232C1235.22,-232 1289.35,-232 1331.1,-232"/>
<polygon fill="#666666" stroke="#666666" points="1331.16,-235.5 1341.16,-232 1331.16,-228.5 1331.16,-235.5"/>
</g>
<!-- ApplyResult_WaitMergeSource -->
<g id="node36" class="node">
<title>ApplyResult_WaitMergeSource</title>
<path fill="none" stroke="#1c2123" d="M1479,-304C1479,-304 1312,-304 1312,-304 1306,-304 1300,-298 1300,-292 1300,-292 1300,-280 1300,-280 1300,-274 1306,-268 1312,-268 1312,-268 1479,-268 1479,-268 1485,-268 1491,-274 1491,-280 1491,-280 1491,-292 1491,-292 1491,-298 1485,-304 1479,-304"/>
<text text-anchor="middle" x="1395.5" y="-282.3" font-family="Times,serif" font-size="14.00" fill="#2f3638">ApplyResult_WaitMergeSource</text>
</g>
<!-- process_raft_cmd&#45;&gt;ApplyResult_WaitMergeSource -->
<g id="edge31" class="edge">
<title>process_raft_cmd&#45;&gt;ApplyResult_WaitMergeSource</title>
<path fill="none" stroke="#666666" d="M1195.15,-243.78C1225.69,-250.25 1264.39,-258.45 1299.56,-265.9"/>
<polygon fill="#666666" stroke="#666666" points="1298.87,-269.33 1309.38,-267.97 1300.32,-262.48 1298.87,-269.33"/>
</g>
<!-- apply_raft_cmd -->
<g id="node37" class="node">
<title>apply_raft_cmd</title>
<path fill="none" stroke="#1c2123" d="M1435,-385C1435,-385 1356,-385 1356,-385 1350,-385 1344,-379 1344,-373 1344,-373 1344,-361 1344,-361 1344,-355 1350,-349 1356,-349 1356,-349 1435,-349 1435,-349 1441,-349 1447,-355 1447,-361 1447,-361 1447,-373 1447,-373 1447,-379 1441,-385 1435,-385"/>
<text text-anchor="middle" x="1395.5" y="-363.3" font-family="Times,serif" font-size="14.00" fill="#2f3638">apply_raft_cmd</text>
</g>
<!-- process_raft_cmd&#45;&gt;apply_raft_cmd -->
<g id="edge32" class="edge">
<title>process_raft_cmd&#45;&gt;apply_raft_cmd</title>
<path fill="none" stroke="#666666" d="M1195.18,-234.96C1218.08,-238.39 1243.9,-245.3 1264,-259 1287.84,-275.24 1278.91,-293.32 1300,-313 1313.05,-325.18 1329.33,-335.72 1344.69,-344.18"/>
<polygon fill="#666666" stroke="#666666" points="1343.12,-347.31 1353.59,-348.91 1346.41,-341.13 1343.12,-347.31"/>
</g>
<!-- apply_raft_cmd&#45;&gt;apply_ctx_kv_wb_mut_set_save_point -->
<g id="edge33" class="edge">
<title>apply_raft_cmd&#45;&gt;apply_ctx_kv_wb_mut_set_save_point</title>
<path fill="none" stroke="#666666" d="M1425.71,-385.29C1447.63,-400.74 1476.3,-424.95 1491,-454 1523.81,-518.83 1477.85,-725.48 1527,-779 1531.19,-783.56 1535.9,-787.48 1541,-790.83"/>
<polygon fill="#666666" stroke="#666666" points="1539.5,-794.01 1549.92,-795.97 1543,-787.95 1539.5,-794.01"/>
</g>
<!-- apply_raft_cmd&#45;&gt;apply_ctx_kv_wb_mut_pop_save_point -->
<g id="edge34" class="edge">
<title>apply_raft_cmd&#45;&gt;apply_ctx_kv_wb_mut_pop_save_point</title>
<path fill="none" stroke="#666666" d="M1425.1,-385.06C1446.99,-400.53 1475.91,-424.9 1491,-454 1547.93,-563.83 1440.85,-641.22 1527,-730 1530.52,-733.63 1534.39,-736.81 1538.52,-739.6"/>
<polygon fill="#666666" stroke="#666666" points="1536.96,-742.73 1547.35,-744.76 1540.49,-736.69 1536.96,-742.73"/>
</g>
<!-- apply_raft_cmd&#45;&gt;apply_ctx_exec_ctx -->
<g id="edge35" class="edge">
<title>apply_raft_cmd&#45;&gt;apply_ctx_exec_ctx</title>
<path fill="none" stroke="#666666" d="M1418.12,-385.14C1442.88,-404.98 1485.41,-436.31 1527,-454 1547.34,-462.65 1570.48,-468.94 1591.86,-473.46"/>
<polygon fill="#666666" stroke="#666666" points="1591.37,-476.93 1601.86,-475.47 1592.75,-470.07 1591.37,-476.93"/>
</g>
<!-- new_ctx -->
<g id="node38" class="node">
<title>new_ctx</title>
<path fill="none" stroke="#1c2123" d="M1683.5,-358C1683.5,-358 1645.5,-358 1645.5,-358 1639.5,-358 1633.5,-352 1633.5,-346 1633.5,-346 1633.5,-334 1633.5,-334 1633.5,-328 1639.5,-322 1645.5,-322 1645.5,-322 1683.5,-322 1683.5,-322 1689.5,-322 1695.5,-328 1695.5,-334 1695.5,-334 1695.5,-346 1695.5,-346 1695.5,-352 1689.5,-358 1683.5,-358"/>
<text text-anchor="middle" x="1664.5" y="-336.3" font-family="Times,serif" font-size="14.00" fill="#2f3638">new_ctx</text>
</g>
<!-- apply_raft_cmd&#45;&gt;new_ctx -->
<g id="edge36" class="edge">
<title>apply_raft_cmd&#45;&gt;new_ctx</title>
<path fill="none" stroke="#666666" d="M1447.03,-361.89C1498.2,-356.72 1576.29,-348.82 1623.37,-344.06"/>
<polygon fill="#666666" stroke="#666666" points="1623.89,-347.52 1633.49,-343.03 1623.19,-340.56 1623.89,-347.52"/>
</g>
<!-- exec_raft_cmd -->
<g id="node39" class="node">
<title>exec_raft_cmd</title>
<path fill="none" stroke="#1c2123" d="M1701.5,-412C1701.5,-412 1627.5,-412 1627.5,-412 1621.5,-412 1615.5,-406 1615.5,-400 1615.5,-400 1615.5,-388 1615.5,-388 1615.5,-382 1621.5,-376 1627.5,-376 1627.5,-376 1701.5,-376 1701.5,-376 1707.5,-376 1713.5,-382 1713.5,-388 1713.5,-388 1713.5,-400 1713.5,-400 1713.5,-406 1707.5,-412 1701.5,-412"/>
<text text-anchor="middle" x="1664.5" y="-390.3" font-family="Times,serif" font-size="14.00" fill="#2f3638">exec_raft_cmd</text>
</g>
<!-- apply_raft_cmd&#45;&gt;exec_raft_cmd -->
<g id="edge37" class="edge">
<title>apply_raft_cmd&#45;&gt;exec_raft_cmd</title>
<path fill="none" stroke="#666666" d="M1447.03,-372.11C1492.11,-376.67 1558.08,-383.34 1605.34,-388.12"/>
<polygon fill="#666666" stroke="#666666" points="1605.12,-391.61 1615.42,-389.14 1605.82,-384.65 1605.12,-391.61"/>
</g>
<!-- apply_ctx_kv_wb_mut_rollback_to_save_point -->
<g id="node40" class="node">
<title>apply_ctx_kv_wb_mut_rollback_to_save_point</title>
<path fill="none" stroke="#1c2123" d="M1790,-250C1790,-250 1539,-250 1539,-250 1533,-250 1527,-244 1527,-238 1527,-238 1527,-226 1527,-226 1527,-220 1533,-214 1539,-214 1539,-214 1790,-214 1790,-214 1796,-214 1802,-220 1802,-226 1802,-226 1802,-238 1802,-238 1802,-244 1796,-250 1790,-250"/>
<text text-anchor="middle" x="1664.5" y="-228.3" font-family="Times,serif" font-size="14.00" fill="#2f3638">apply_ctx_kv_wb_mut_rollback_to_save_point</text>
</g>
<!-- apply_raft_cmd&#45;&gt;apply_ctx_kv_wb_mut_rollback_to_save_point -->
<g id="edge38" class="edge">
<title>apply_raft_cmd&#45;&gt;apply_ctx_kv_wb_mut_rollback_to_save_point</title>
<path fill="none" stroke="#666666" d="M1437.41,-348.91C1455.15,-339.8 1475.39,-327.57 1491,-313 1512.09,-293.32 1503.02,-275.02 1527,-259 1529.2,-257.53 1531.46,-256.14 1533.77,-254.82"/>
<polygon fill="#666666" stroke="#666666" points="1535.65,-257.79 1542.92,-250.08 1532.43,-251.57 1535.65,-257.79"/>
</g>
<!-- ApplyResult_Res -->
<g id="node41" class="node">
<title>ApplyResult_Res</title>
<path fill="none" stroke="#1c2123" d="M1708.5,-304C1708.5,-304 1620.5,-304 1620.5,-304 1614.5,-304 1608.5,-298 1608.5,-292 1608.5,-292 1608.5,-280 1608.5,-280 1608.5,-274 1614.5,-268 1620.5,-268 1620.5,-268 1708.5,-268 1708.5,-268 1714.5,-268 1720.5,-274 1720.5,-280 1720.5,-280 1720.5,-292 1720.5,-292 1720.5,-298 1714.5,-304 1708.5,-304"/>
<text text-anchor="middle" x="1664.5" y="-282.3" font-family="Times,serif" font-size="14.00" fill="#2f3638">ApplyResult_Res</text>
</g>
<!-- apply_raft_cmd&#45;&gt;ApplyResult_Res -->
<g id="edge39" class="edge">
<title>apply_raft_cmd&#45;&gt;ApplyResult_Res</title>
<path fill="none" stroke="#666666" d="M1434.6,-348.89C1460.25,-337.29 1495.08,-322.66 1527,-313 1549.96,-306.05 1575.65,-300.43 1598.49,-296.16"/>
<polygon fill="#666666" stroke="#666666" points="1599.22,-299.58 1608.43,-294.34 1597.96,-292.69 1599.22,-299.58"/>
</g>
<!-- exec_write_cmd -->
<g id="node42" class="node">
<title>exec_write_cmd</title>
<path fill="none" stroke="#1c2123" d="M1951,-412C1951,-412 1868,-412 1868,-412 1862,-412 1856,-406 1856,-400 1856,-400 1856,-388 1856,-388 1856,-382 1862,-376 1868,-376 1868,-376 1951,-376 1951,-376 1957,-376 1963,-382 1963,-388 1963,-388 1963,-400 1963,-400 1963,-406 1957,-412 1951,-412"/>
<text text-anchor="middle" x="1909.5" y="-390.3" font-family="Times,serif" font-size="14.00" fill="#2f3638">exec_write_cmd</text>
</g>
<!-- exec_raft_cmd&#45;&gt;exec_write_cmd -->
<g id="edge40" class="edge">
<title>exec_raft_cmd&#45;&gt;exec_write_cmd</title>
<path fill="none" stroke="#666666" d="M1713.51,-394C1751.38,-394 1804.51,-394 1845.75,-394"/>
<polygon fill="#666666" stroke="#666666" points="1845.96,-397.5 1855.96,-394 1845.96,-390.5 1845.96,-397.5"/>
</g>
<!-- exec_admin_cmd -->
<g id="node43" class="node">
<title>exec_admin_cmd</title>
<path fill="none" stroke="#1c2123" d="M1954,-304C1954,-304 1865,-304 1865,-304 1859,-304 1853,-298 1853,-292 1853,-292 1853,-280 1853,-280 1853,-274 1859,-268 1865,-268 1865,-268 1954,-268 1954,-268 1960,-268 1966,-274 1966,-280 1966,-280 1966,-292 1966,-292 1966,-298 1960,-304 1954,-304"/>
<text text-anchor="middle" x="1909.5" y="-282.3" font-family="Times,serif" font-size="14.00" fill="#2f3638">exec_admin_cmd</text>
</g>
<!-- exec_raft_cmd&#45;&gt;exec_admin_cmd -->
<g id="edge41" class="edge">
<title>exec_raft_cmd&#45;&gt;exec_admin_cmd</title>
<path fill="none" stroke="#666666" d="M1713.82,-393.44C1741.63,-391.03 1776.09,-384.31 1802,-367 1825.98,-350.98 1815.47,-331.01 1838,-313 1839.83,-311.54 1841.75,-310.15 1843.73,-308.83"/>
<polygon fill="#666666" stroke="#666666" points="1845.97,-311.57 1852.8,-303.47 1842.41,-305.54 1845.97,-311.57"/>
</g>
<!-- check_region_epoch -->
<g id="node44" class="node">
<title>check_region_epoch</title>
<path fill="none" stroke="#1c2123" d="M1961.5,-358C1961.5,-358 1857.5,-358 1857.5,-358 1851.5,-358 1845.5,-352 1845.5,-346 1845.5,-346 1845.5,-334 1845.5,-334 1845.5,-328 1851.5,-322 1857.5,-322 1857.5,-322 1961.5,-322 1961.5,-322 1967.5,-322 1973.5,-328 1973.5,-334 1973.5,-334 1973.5,-346 1973.5,-346 1973.5,-352 1967.5,-358 1961.5,-358"/>
<text text-anchor="middle" x="1909.5" y="-336.3" font-family="Times,serif" font-size="14.00" fill="#2f3638">check_region_epoch</text>
</g>
<!-- exec_raft_cmd&#45;&gt;check_region_epoch -->
<g id="edge42" class="edge">
<title>exec_raft_cmd&#45;&gt;check_region_epoch</title>
<path fill="none" stroke="#666666" d="M1713.64,-385.12C1739.84,-380.13 1772.78,-373.59 1802,-367 1812.87,-364.55 1824.32,-361.81 1835.52,-359.05"/>
<polygon fill="#666666" stroke="#666666" points="1836.42,-362.43 1845.28,-356.62 1834.73,-355.64 1836.42,-362.43"/>
</g>
<!-- handle_put -->
<g id="node45" class="node">
<title>handle_put</title>
<path fill="none" stroke="#1c2123" d="M2110,-358C2110,-358 2057,-358 2057,-358 2051,-358 2045,-352 2045,-346 2045,-346 2045,-334 2045,-334 2045,-328 2051,-322 2057,-322 2057,-322 2110,-322 2110,-322 2116,-322 2122,-328 2122,-334 2122,-334 2122,-346 2122,-346 2122,-352 2116,-358 2110,-358"/>
<text text-anchor="middle" x="2083.5" y="-336.3" font-family="Times,serif" font-size="14.00" fill="#2f3638">handle_put</text>
</g>
<!-- exec_write_cmd&#45;&gt;handle_put -->
<g id="edge43" class="edge">
<title>exec_write_cmd&#45;&gt;handle_put</title>
<path fill="none" stroke="#666666" d="M1963.04,-377.5C1986.02,-370.29 2012.77,-361.89 2035.13,-354.87"/>
<polygon fill="#666666" stroke="#666666" points="2036.24,-358.19 2044.74,-351.86 2034.15,-351.51 2036.24,-358.19"/>
</g>
<!-- handle_delete -->
<g id="node46" class="node">
<title>handle_delete</title>
<path fill="none" stroke="#1c2123" d="M2117.5,-412C2117.5,-412 2049.5,-412 2049.5,-412 2043.5,-412 2037.5,-406 2037.5,-400 2037.5,-400 2037.5,-388 2037.5,-388 2037.5,-382 2043.5,-376 2049.5,-376 2049.5,-376 2117.5,-376 2117.5,-376 2123.5,-376 2129.5,-382 2129.5,-388 2129.5,-388 2129.5,-400 2129.5,-400 2129.5,-406 2123.5,-412 2117.5,-412"/>
<text text-anchor="middle" x="2083.5" y="-390.3" font-family="Times,serif" font-size="14.00" fill="#2f3638">handle_delete</text>
</g>
<!-- exec_write_cmd&#45;&gt;handle_delete -->
<g id="edge44" class="edge">
<title>exec_write_cmd&#45;&gt;handle_delete</title>
<path fill="none" stroke="#666666" d="M1963.04,-394C1983.32,-394 2006.55,-394 2027.1,-394"/>
<polygon fill="#666666" stroke="#666666" points="2027.25,-397.5 2037.25,-394 2027.25,-390.5 2027.25,-397.5"/>
</g>
<!-- handle_delete_range -->
<g id="node47" class="node">
<title>handle_delete_range</title>
<path fill="none" stroke="#1c2123" d="M2135.5,-250C2135.5,-250 2031.5,-250 2031.5,-250 2025.5,-250 2019.5,-244 2019.5,-238 2019.5,-238 2019.5,-226 2019.5,-226 2019.5,-220 2025.5,-214 2031.5,-214 2031.5,-214 2135.5,-214 2135.5,-214 2141.5,-214 2147.5,-220 2147.5,-226 2147.5,-226 2147.5,-238 2147.5,-238 2147.5,-244 2141.5,-250 2135.5,-250"/>
<text text-anchor="middle" x="2083.5" y="-228.3" font-family="Times,serif" font-size="14.00" fill="#2f3638">handle_delete_range</text>
</g>
<!-- exec_write_cmd&#45;&gt;handle_delete_range -->
<g id="edge45" class="edge">
<title>exec_write_cmd&#45;&gt;handle_delete_range</title>
<path fill="none" stroke="#666666" d="M1963.06,-380.02C1969.7,-376.58 1975.93,-372.3 1981,-367 2015.98,-330.44 1982.48,-295.99 2017,-259 2017.78,-258.17 2018.58,-257.36 2019.41,-256.58"/>
<polygon fill="#666666" stroke="#666666" points="2021.85,-259.11 2027.53,-250.17 2017.51,-253.62 2021.85,-259.11"/>
</g>
<!-- handle_ingest_sst -->
<g id="node48" class="node">
<title>handle_ingest_sst</title>
<path fill="none" stroke="#1c2123" d="M2128,-304C2128,-304 2039,-304 2039,-304 2033,-304 2027,-298 2027,-292 2027,-292 2027,-280 2027,-280 2027,-274 2033,-268 2039,-268 2039,-268 2128,-268 2128,-268 2134,-268 2140,-274 2140,-280 2140,-280 2140,-292 2140,-292 2140,-298 2134,-304 2128,-304"/>
<text text-anchor="middle" x="2083.5" y="-282.3" font-family="Times,serif" font-size="14.00" fill="#2f3638">handle_ingest_sst</text>
</g>
<!-- exec_write_cmd&#45;&gt;handle_ingest_sst -->
<g id="edge46" class="edge">
<title>exec_write_cmd&#45;&gt;handle_ingest_sst</title>
<path fill="none" stroke="#666666" d="M1963.31,-378C1969.61,-374.9 1975.68,-371.26 1981,-367 2003.53,-348.99 1994.7,-331.29 2017,-313 2018.53,-311.74 2020.13,-310.54 2021.79,-309.38"/>
<polygon fill="#666666" stroke="#666666" points="2023.78,-312.26 2030.42,-304.01 2020.08,-306.32 2023.78,-312.26"/>
</g>
<!-- handle_put&#45;&gt;apply_ctx_kv_wb_mut -->
<g id="edge47" class="edge">
<title>handle_put&#45;&gt;apply_ctx_kv_wb_mut</title>
<path fill="none" stroke="#666666" d="M2122.36,-345.93C2134.86,-349.83 2147.58,-356.29 2155.5,-367 2217.17,-450.46 2124.52,-749.39 2186,-833 2186.46,-833.63 2186.94,-834.24 2187.44,-834.85"/>
<polygon fill="#666666" stroke="#666666" points="2185.07,-837.42 2194.68,-841.87 2189.94,-832.4 2185.07,-837.42"/>
</g>
<!-- handle_put&#45;&gt;WriteBatch_put -->
<g id="edge48" class="edge">
<title>handle_put&#45;&gt;WriteBatch_put</title>
<path fill="none" stroke="#666666" d="M2122.31,-345.96C2134.81,-349.87 2147.54,-356.32 2155.5,-367 2210.37,-440.6 2131.3,-705.27 2186,-779 2188.95,-782.98 2192.57,-786.37 2196.58,-789.26"/>
<polygon fill="#666666" stroke="#666666" points="2194.95,-792.36 2205.32,-794.52 2198.56,-786.36 2194.95,-792.36"/>
</g>
<!-- handle_put&#45;&gt;WriteBatch_put_cf -->
<g id="edge49" class="edge">
<title>handle_put&#45;&gt;WriteBatch_put_cf</title>
<path fill="none" stroke="#666666" d="M2122.02,-347.05C2134.19,-351.04 2146.78,-357.28 2155.5,-367 2249.44,-471.68 2257.52,-653.39 2256.9,-723.38"/>
<polygon fill="#666666" stroke="#666666" points="2253.4,-723.57 2256.74,-733.62 2260.39,-723.68 2253.4,-723.57"/>
</g>
<!-- ApplyFsm_handleTasks -->
<g id="node49" class="node">
<title>ApplyFsm_handleTasks</title>
<path fill="none" stroke="#1c2123" d="M287,-160C287,-160 162,-160 162,-160 156,-160 150,-154 150,-148 150,-148 150,-136 150,-136 150,-130 156,-124 162,-124 162,-124 287,-124 287,-124 293,-124 299,-130 299,-136 299,-136 299,-148 299,-148 299,-154 293,-160 287,-160"/>
<text text-anchor="middle" x="224.5" y="-138.3" font-family="Times,serif" font-size="14.00" fill="#2f3638">ApplyFsm_handleTasks</text>
</g>
<!-- handle_apply -->
<g id="node50" class="node">
<title>handle_apply</title>
<path fill="none" stroke="#1c2123" d="M421,-106C421,-106 356,-106 356,-106 350,-106 344,-100 344,-94 344,-94 344,-82 344,-82 344,-76 350,-70 356,-70 356,-70 421,-70 421,-70 427,-70 433,-76 433,-82 433,-82 433,-94 433,-94 433,-100 427,-106 421,-106"/>
<text text-anchor="middle" x="388.5" y="-84.3" font-family="Times,serif" font-size="14.00" fill="#2f3638">handle_apply</text>
</g>
<!-- ApplyFsm_handleTasks&#45;&gt;handle_apply -->
<g id="edge51" class="edge">
<title>ApplyFsm_handleTasks&#45;&gt;handle_apply</title>
<path fill="none" stroke="#666666" d="M279.89,-123.87C297.5,-118 316.99,-111.5 334.49,-105.67"/>
<polygon fill="#666666" stroke="#666666" points="335.61,-108.99 343.99,-102.5 333.4,-102.35 335.61,-108.99"/>
</g>
<!-- handle_snapshot -->
<g id="node51" class="node">
<title>handle_snapshot</title>
<path fill="none" stroke="#1c2123" d="M430,-160C430,-160 347,-160 347,-160 341,-160 335,-154 335,-148 335,-148 335,-136 335,-136 335,-130 341,-124 347,-124 347,-124 430,-124 430,-124 436,-124 442,-130 442,-136 442,-136 442,-148 442,-148 442,-154 436,-160 430,-160"/>
<text text-anchor="middle" x="388.5" y="-138.3" font-family="Times,serif" font-size="14.00" fill="#2f3638">handle_snapshot</text>
</g>
<!-- ApplyFsm_handleTasks&#45;&gt;handle_snapshot -->
<g id="edge52" class="edge">
<title>ApplyFsm_handleTasks&#45;&gt;handle_snapshot</title>
<path fill="none" stroke="#666666" d="M299.39,-142C307.72,-142 316.15,-142 324.33,-142"/>
<polygon fill="#666666" stroke="#666666" points="324.53,-145.5 334.53,-142 324.53,-138.5 324.53,-145.5"/>
</g>
<!-- handle_apply&#45;&gt;ApplyDelegate_handle_raft_committed_entries -->
<g id="edge53" class="edge">
<title>handle_apply&#45;&gt;ApplyDelegate_handle_raft_committed_entries</title>
<path fill="none" stroke="#666666" d="M432.39,-106.18C435.93,-108.79 439.22,-111.72 442,-115 468.28,-145.97 449.98,-166.66 470,-202 501.7,-257.98 554.5,-311.94 586.74,-342.16"/>
<polygon fill="#666666" stroke="#666666" points="584.36,-344.73 594.07,-348.96 589.12,-339.59 584.36,-344.73"/>
</g>
<!-- append_proposal -->
<g id="node52" class="node">
<title>append_proposal</title>
<path fill="none" stroke="#1c2123" d="M658,-106C658,-106 573,-106 573,-106 567,-106 561,-100 561,-94 561,-94 561,-82 561,-82 561,-76 567,-70 573,-70 573,-70 658,-70 658,-70 664,-70 670,-76 670,-82 670,-82 670,-94 670,-94 670,-100 664,-106 658,-106"/>
<text text-anchor="middle" x="615.5" y="-84.3" font-family="Times,serif" font-size="14.00" fill="#2f3638">append_proposal</text>
</g>
<!-- handle_apply&#45;&gt;append_proposal -->
<g id="edge54" class="edge">
<title>handle_apply&#45;&gt;append_proposal</title>
<path fill="none" stroke="#666666" d="M433.15,-88C466.44,-88 512.8,-88 550.32,-88"/>
<polygon fill="#666666" stroke="#666666" points="550.64,-91.5 560.64,-88 550.64,-84.5 550.64,-91.5"/>
</g>
<!-- notify_stale_command -->
<g id="node53" class="node">
<title>notify_stale_command</title>
<path fill="none" stroke="#1c2123" d="M942,-160C942,-160 824,-160 824,-160 818,-160 812,-154 812,-148 812,-148 812,-136 812,-136 812,-130 818,-124 824,-124 824,-124 942,-124 942,-124 948,-124 954,-130 954,-136 954,-136 954,-148 954,-148 954,-154 948,-160 942,-160"/>
<text text-anchor="middle" x="883" y="-138.3" font-family="Times,serif" font-size="14.00" fill="#2f3638">notify_stale_command</text>
</g>
<!-- append_proposal&#45;&gt;notify_stale_command -->
<g id="edge55" class="edge">
<title>append_proposal&#45;&gt;notify_stale_command</title>
<path fill="none" stroke="#666666" d="M670.23,-98.93C707.96,-106.6 759.09,-117 801.66,-125.66"/>
<polygon fill="#666666" stroke="#666666" points="801.22,-129.14 811.72,-127.71 802.61,-122.28 801.22,-129.14"/>
</g>
<!-- set_conf_change -->
<g id="node54" class="node">
<title>set_conf_change</title>
<path fill="none" stroke="#1c2123" d="M924.5,-52C924.5,-52 841.5,-52 841.5,-52 835.5,-52 829.5,-46 829.5,-40 829.5,-40 829.5,-28 829.5,-28 829.5,-22 835.5,-16 841.5,-16 841.5,-16 924.5,-16 924.5,-16 930.5,-16 936.5,-22 936.5,-28 936.5,-28 936.5,-40 936.5,-40 936.5,-46 930.5,-52 924.5,-52"/>
<text text-anchor="middle" x="883" y="-30.3" font-family="Times,serif" font-size="14.00" fill="#2f3638">set_conf_change</text>
</g>
<!-- append_proposal&#45;&gt;set_conf_change -->
<g id="edge56" class="edge">
<title>append_proposal&#45;&gt;set_conf_change</title>
<path fill="none" stroke="#666666" d="M670.23,-77.07C713.33,-68.3 773.92,-55.98 819.25,-46.76"/>
<polygon fill="#666666" stroke="#666666" points="820.16,-50.15 829.26,-44.73 818.76,-43.29 820.16,-50.15"/>
</g>
<!-- append_normal -->
<g id="node55" class="node">
<title>append_normal</title>
<path fill="none" stroke="#1c2123" d="M921.5,-106C921.5,-106 844.5,-106 844.5,-106 838.5,-106 832.5,-100 832.5,-94 832.5,-94 832.5,-82 832.5,-82 832.5,-76 838.5,-70 844.5,-70 844.5,-70 921.5,-70 921.5,-70 927.5,-70 933.5,-76 933.5,-82 933.5,-82 933.5,-94 933.5,-94 933.5,-100 927.5,-106 921.5,-106"/>
<text text-anchor="middle" x="883" y="-84.3" font-family="Times,serif" font-size="14.00" fill="#2f3638">append_normal</text>
</g>
<!-- append_proposal&#45;&gt;append_normal -->
<g id="edge57" class="edge">
<title>append_proposal&#45;&gt;append_normal</title>
<path fill="none" stroke="#666666" d="M670.23,-88C714.32,-88 776.7,-88 822.34,-88"/>
<polygon fill="#666666" stroke="#666666" points="822.39,-91.5 832.39,-88 822.39,-84.5 822.39,-91.5"/>
</g>
<!-- end -->
<g id="node56" class="node">
<title>end</title>
<path fill="none" stroke="#1c2123" d="M80,-448C80,-448 50,-448 50,-448 44,-448 38,-442 38,-436 38,-436 38,-424 38,-424 38,-418 44,-412 50,-412 50,-412 80,-412 80,-412 86,-412 92,-418 92,-424 92,-424 92,-436 92,-436 92,-442 86,-448 80,-448"/>
<text text-anchor="middle" x="65" y="-426.3" font-family="Times,serif" font-size="14.00" fill="#2f3638">end</text>
</g>
<!-- end&#45;&gt;apply_ctx_flush -->
<g id="edge58" class="edge">
<title>end&#45;&gt;apply_ctx_flush</title>
<path fill="none" stroke="#666666" d="M74.6,-448.27C118.9,-542.38 321.33,-972.42 374.61,-1085.63"/>
<polygon fill="#666666" stroke="#666666" points="371.6,-1087.44 379.02,-1094.99 377.93,-1084.45 371.6,-1087.44"/>
</g>
<!-- handle_normal -->
<g id="node57" class="node">
<title>handle_normal</title>
<path fill="none" stroke="#1c2123" d="M102,-394C102,-394 28,-394 28,-394 22,-394 16,-388 16,-382 16,-382 16,-370 16,-370 16,-364 22,-358 28,-358 28,-358 102,-358 102,-358 108,-358 114,-364 114,-370 114,-370 114,-382 114,-382 114,-388 108,-394 102,-394"/>
<text text-anchor="middle" x="65" y="-372.3" font-family="Times,serif" font-size="14.00" fill="#2f3638">handle_normal</text>
</g>
<!-- handle_normal&#45;&gt;ApplyFsm_handleTasks -->
<g id="edge59" class="edge">
<title>handle_normal&#45;&gt;ApplyFsm_handleTasks</title>
<path fill="none" stroke="#666666" d="M78.36,-357.64C106.08,-316.46 173.29,-216.59 205.59,-168.61"/>
<polygon fill="#666666" stroke="#666666" points="208.52,-170.53 211.2,-160.28 202.71,-166.62 208.52,-170.53"/>
</g>
</g>
</svg>
