<?xml version="1.0" encoding="UTF-8" standalone="no"?>
<!DOCTYPE svg PUBLIC "-//W3C//DTD SVG 1.1//EN"
 "http://www.w3.org/Graphics/SVG/1.1/DTD/svg11.dtd">
<!-- Generated by graphviz version 2.47.1 (20210417.1919)
 -->
<!-- Title: agg Pages: 1 -->
<svg width="1766pt" height="552pt"
 viewBox="0.00 0.00 1766.00 552.00" xmlns="http://www.w3.org/2000/svg" xmlns:xlink="http://www.w3.org/1999/xlink">
<g id="graph0" class="graph" transform="scale(1 1) rotate(0) translate(4 548)">
<title>agg</title>
<polygon fill="white" stroke="transparent" points="-4,4 -4,-548 1762,-548 1762,4 -4,4"/>
<!-- BatchExecutor -->
<g id="node1" class="node">
<title>BatchExecutor</title>
<path fill="none" stroke="#1c2123" d="M85,-136C85,-136 12,-136 12,-136 6,-136 0,-130 0,-124 0,-124 0,-112 0,-112 0,-106 6,-100 12,-100 12,-100 85,-100 85,-100 91,-100 97,-106 97,-112 97,-112 97,-124 97,-124 97,-130 91,-136 85,-136"/>
<text text-anchor="middle" x="48.5" y="-114.3" font-family="Times,serif" font-size="14.00" fill="#2f3638">BatchExecutor</text>
</g>
<!-- AggregationExecutor -->
<g id="node2" class="node">
<title>AggregationExecutor</title>
<path fill="none" stroke="#1c2123" d="M510,-136C510,-136 401,-136 401,-136 395,-136 389,-130 389,-124 389,-124 389,-112 389,-112 389,-106 395,-100 401,-100 401,-100 510,-100 510,-100 516,-100 522,-106 522,-112 522,-112 522,-124 522,-124 522,-130 516,-136 510,-136"/>
<text text-anchor="middle" x="455.5" y="-114.3" font-family="Times,serif" font-size="14.00" fill="#2f3638">AggregationExecutor</text>
</g>
<!-- BatchExecutor&#45;&gt;AggregationExecutor -->
<g id="edge1" class="edge">
<title>BatchExecutor&#45;&gt;AggregationExecutor</title>
<path fill="none" stroke="#666666" d="M97.15,-118C166.6,-118 296.33,-118 378.9,-118"/>
<polygon fill="#666666" stroke="#666666" points="378.98,-121.5 388.98,-118 378.98,-114.5 378.98,-121.5"/>
</g>
<!-- BatchStreamAggregationExecutor -->
<g id="node3" class="node">
<title>BatchStreamAggregationExecutor</title>
<path fill="none" stroke="#1c2123" d="M332.5,-182C332.5,-182 153.5,-182 153.5,-182 147.5,-182 141.5,-176 141.5,-170 141.5,-170 141.5,-158 141.5,-158 141.5,-152 147.5,-146 153.5,-146 153.5,-146 332.5,-146 332.5,-146 338.5,-146 344.5,-152 344.5,-158 344.5,-158 344.5,-170 344.5,-170 344.5,-176 338.5,-182 332.5,-182"/>
<text text-anchor="middle" x="243" y="-160.3" font-family="Times,serif" font-size="14.00" fill="#2f3638">BatchStreamAggregationExecutor</text>
</g>
<!-- BatchExecutor&#45;&gt;BatchStreamAggregationExecutor -->
<g id="edge2" class="edge">
<title>BatchExecutor&#45;&gt;BatchStreamAggregationExecutor</title>
<path fill="none" stroke="#666666" d="M97.08,-129.37C115.07,-133.67 136.14,-138.7 156.55,-143.58"/>
<polygon fill="#666666" stroke="#666666" points="155.96,-147.04 166.5,-145.96 157.58,-140.23 155.96,-147.04"/>
</g>
<!-- BatchSlowHashAggregationExecutor -->
<g id="node4" class="node">
<title>BatchSlowHashAggregationExecutor</title>
<path fill="none" stroke="#1c2123" d="M341,-90C341,-90 145,-90 145,-90 139,-90 133,-84 133,-78 133,-78 133,-66 133,-66 133,-60 139,-54 145,-54 145,-54 341,-54 341,-54 347,-54 353,-60 353,-66 353,-66 353,-78 353,-78 353,-84 347,-90 341,-90"/>
<text text-anchor="middle" x="243" y="-68.3" font-family="Times,serif" font-size="14.00" fill="#2f3638">BatchSlowHashAggregationExecutor</text>
</g>
<!-- BatchExecutor&#45;&gt;BatchSlowHashAggregationExecutor -->
<g id="edge3" class="edge">
<title>BatchExecutor&#45;&gt;BatchSlowHashAggregationExecutor</title>
<path fill="none" stroke="#666666" d="M97.08,-106.63C115.07,-102.33 136.14,-97.3 156.55,-92.42"/>
<polygon fill="#666666" stroke="#666666" points="157.58,-95.77 166.5,-90.04 155.96,-88.96 157.58,-95.77"/>
</g>
<!-- BatchFastHashAggregationExecutor -->
<g id="node5" class="node">
<title>BatchFastHashAggregationExecutor</title>
<path fill="none" stroke="#1c2123" d="M338.5,-236C338.5,-236 147.5,-236 147.5,-236 141.5,-236 135.5,-230 135.5,-224 135.5,-224 135.5,-212 135.5,-212 135.5,-206 141.5,-200 147.5,-200 147.5,-200 338.5,-200 338.5,-200 344.5,-200 350.5,-206 350.5,-212 350.5,-212 350.5,-224 350.5,-224 350.5,-230 344.5,-236 338.5,-236"/>
<text text-anchor="middle" x="243" y="-214.3" font-family="Times,serif" font-size="14.00" fill="#2f3638">BatchFastHashAggregationExecutor</text>
</g>
<!-- BatchExecutor&#45;&gt;BatchFastHashAggregationExecutor -->
<g id="edge4" class="edge">
<title>BatchExecutor&#45;&gt;BatchFastHashAggregationExecutor</title>
<path fill="none" stroke="#666666" d="M65.28,-136.04C80.86,-152.73 106.19,-177.02 133,-191 136.55,-192.85 140.22,-194.57 143.99,-196.18"/>
<polygon fill="#666666" stroke="#666666" points="142.91,-199.52 153.5,-199.96 145.49,-193.02 142.91,-199.52"/>
</g>
<!-- BatchSimpleAggregationExecutor -->
<g id="node6" class="node">
<title>BatchSimpleAggregationExecutor</title>
<path fill="none" stroke="#1c2123" d="M332.5,-36C332.5,-36 153.5,-36 153.5,-36 147.5,-36 141.5,-30 141.5,-24 141.5,-24 141.5,-12 141.5,-12 141.5,-6 147.5,0 153.5,0 153.5,0 332.5,0 332.5,0 338.5,0 344.5,-6 344.5,-12 344.5,-12 344.5,-24 344.5,-24 344.5,-30 338.5,-36 332.5,-36"/>
<text text-anchor="middle" x="243" y="-14.3" font-family="Times,serif" font-size="14.00" fill="#2f3638">BatchSimpleAggregationExecutor</text>
</g>
<!-- BatchExecutor&#45;&gt;BatchSimpleAggregationExecutor -->
<g id="edge5" class="edge">
<title>BatchExecutor&#45;&gt;BatchSimpleAggregationExecutor</title>
<path fill="none" stroke="#666666" d="M65.28,-99.96C80.86,-83.27 106.19,-58.98 133,-45 136.55,-43.15 140.22,-41.43 143.99,-39.82"/>
<polygon fill="#666666" stroke="#666666" points="145.49,-42.98 153.5,-36.04 142.91,-36.48 145.49,-42.98"/>
</g>
<!-- AggregationExecutorImpl -->
<g id="node7" class="node">
<title>AggregationExecutorImpl</title>
<path fill="none" stroke="#1c2123" d="M775.5,-136C775.5,-136 640.5,-136 640.5,-136 634.5,-136 628.5,-130 628.5,-124 628.5,-124 628.5,-112 628.5,-112 628.5,-106 634.5,-100 640.5,-100 640.5,-100 775.5,-100 775.5,-100 781.5,-100 787.5,-106 787.5,-112 787.5,-112 787.5,-124 787.5,-124 787.5,-130 781.5,-136 775.5,-136"/>
<text text-anchor="middle" x="708" y="-114.3" font-family="Times,serif" font-size="14.00" fill="#2f3638">AggregationExecutorImpl</text>
</g>
<!-- AggregationExecutor&#45;&gt;AggregationExecutorImpl -->
<g id="edge6" class="edge">
<title>AggregationExecutor&#45;&gt;AggregationExecutorImpl</title>
<path fill="none" stroke="#666666" d="M522.32,-118C551.62,-118 586.56,-118 618.14,-118"/>
<polygon fill="#666666" stroke="#666666" points="618.26,-121.5 628.26,-118 618.26,-114.5 618.26,-121.5"/>
</g>
<!-- Entities -->
<g id="node8" class="node">
<title>Entities</title>
<path fill="none" stroke="#1c2123" d="M570,-192.5C570,-192.5 846,-192.5 846,-192.5 852,-192.5 858,-198.5 858,-204.5 858,-204.5 858,-417.5 858,-417.5 858,-423.5 852,-429.5 846,-429.5 846,-429.5 570,-429.5 570,-429.5 564,-429.5 558,-423.5 558,-417.5 558,-417.5 558,-204.5 558,-204.5 558,-198.5 564,-192.5 570,-192.5"/>
<text text-anchor="middle" x="708" y="-414.3" font-family="Times,serif" font-size="14.00" fill="#2f3638">Entities</text>
<polyline fill="none" stroke="#1c2123" points="558,-406.5 858,-406.5 "/>
<text text-anchor="start" x="566" y="-391.3" font-family="Times,serif" font-size="14.00" fill="#2f3638">AggregationExecutor 和</text>
<text text-anchor="start" x="566" y="-376.3" font-family="Times,serif" font-size="14.00" fill="#2f3638"> AggregationExecutorImpl</text>
<text text-anchor="start" x="566" y="-361.3" font-family="Times,serif" font-size="14.00" fill="#2f3638"> 都用到的公共数据</text>
<polyline fill="none" stroke="#1c2123" points="558,-353.5 858,-353.5 "/>
<text text-anchor="start" x="566" y="-338.3" font-family="Times,serif" font-size="14.00" fill="#2f3638">pub src: Src,</text>
<polyline fill="none" stroke="#1c2123" points="558,-330.5 858,-330.5 "/>
<text text-anchor="start" x="566" y="-315.3" font-family="Times,serif" font-size="14.00" fill="#2f3638">pub context: EvalContext,</text>
<polyline fill="none" stroke="#1c2123" points="558,-307.5 858,-307.5 "/>
<text text-anchor="start" x="566" y="-292.3" font-family="Times,serif" font-size="14.00" fill="#2f3638">pub schema: Vec&lt;FieldType&gt;,</text>
<polyline fill="none" stroke="#1c2123" points="558,-284.5 858,-284.5 "/>
<text text-anchor="start" x="566" y="-269.3" font-family="Times,serif" font-size="14.00" fill="#2f3638">pub each_aggr_fn: Vec&lt;Box&lt;dyn AggrFunction&gt;&gt;,</text>
<polyline fill="none" stroke="#1c2123" points="558,-261.5 858,-261.5 "/>
<text text-anchor="start" x="566" y="-246.3" font-family="Times,serif" font-size="14.00" fill="#2f3638">pub each_aggr_cardinality: Vec&lt;usize&gt;,</text>
<polyline fill="none" stroke="#1c2123" points="558,-238.5 858,-238.5 "/>
<text text-anchor="start" x="566" y="-223.3" font-family="Times,serif" font-size="14.00" fill="#2f3638">pub each_aggr_exprs: Vec&lt;RpnExpression&gt;,</text>
<polyline fill="none" stroke="#1c2123" points="558,-215.5 858,-215.5 "/>
<text text-anchor="start" x="566" y="-200.3" font-family="Times,serif" font-size="14.00" fill="#2f3638">pub all_result_column_types: Vec&lt;EvalType&gt;,</text>
</g>
<!-- AggregationExecutor&#45;&gt;Entities -->
<g id="edge7" class="edge">
<title>AggregationExecutor&#45;&gt;Entities</title>
<path fill="none" stroke="#666666" d="M480.07,-136.16C497.36,-149.48 522.51,-168.86 549.84,-189.91"/>
<polygon fill="#666666" stroke="#666666" points="547.93,-192.86 557.99,-196.19 552.2,-187.32 547.93,-192.86"/>
</g>
<!-- BatchStreamAggregationExecutor&#45;&gt;AggregationExecutor -->
<g id="edge16" class="edge">
<title>BatchStreamAggregationExecutor&#45;&gt;AggregationExecutor</title>
<path fill="none" stroke="#666666" d="M326.59,-145.95C343.83,-142.19 361.91,-138.23 378.88,-134.53"/>
<polygon fill="#666666" stroke="#666666" points="379.7,-137.93 388.73,-132.37 378.21,-131.09 379.7,-137.93"/>
</g>
<!-- BatchStreamAggregationImpl -->
<g id="node9" class="node">
<title>BatchStreamAggregationImpl</title>
<path fill="none" stroke="#1c2123" d="M918.5,-110C918.5,-110 1075.5,-110 1075.5,-110 1081.5,-110 1087.5,-116 1087.5,-122 1087.5,-122 1087.5,-134 1087.5,-134 1087.5,-140 1081.5,-146 1075.5,-146 1075.5,-146 918.5,-146 918.5,-146 912.5,-146 906.5,-140 906.5,-134 906.5,-134 906.5,-122 906.5,-122 906.5,-116 912.5,-110 918.5,-110"/>
<text text-anchor="middle" x="997" y="-124.3" font-family="Times,serif" font-size="14.00" fill="#2f3638">BatchStreamAggregationImpl</text>
</g>
<!-- BatchStreamAggregationExecutor&#45;&gt;BatchStreamAggregationImpl -->
<g id="edge17" class="edge">
<title>BatchStreamAggregationExecutor&#45;&gt;BatchStreamAggregationImpl</title>
<path fill="none" stroke="#666666" d="M344.66,-163.71C466.41,-162.71 677.5,-158.88 858,-145 870.34,-144.05 883.28,-142.8 896.08,-141.41"/>
<polygon fill="#666666" stroke="#666666" points="896.75,-144.85 906.3,-140.26 895.97,-137.9 896.75,-144.85"/>
</g>
<!-- BatchSlowHashAggregationExecutor&#45;&gt;AggregationExecutor -->
<g id="edge18" class="edge">
<title>BatchSlowHashAggregationExecutor&#45;&gt;AggregationExecutor</title>
<path fill="none" stroke="#666666" d="M326.59,-90.05C343.83,-93.81 361.91,-97.77 378.88,-101.47"/>
<polygon fill="#666666" stroke="#666666" points="378.21,-104.91 388.73,-103.63 379.7,-98.07 378.21,-104.91"/>
</g>
<!-- SlowHashAggregationImpl -->
<g id="node11" class="node">
<title>SlowHashAggregationImpl</title>
<path fill="none" stroke="#1c2123" d="M926,-55C926,-55 1068,-55 1068,-55 1074,-55 1080,-61 1080,-67 1080,-67 1080,-79 1080,-79 1080,-85 1074,-91 1068,-91 1068,-91 926,-91 926,-91 920,-91 914,-85 914,-79 914,-79 914,-67 914,-67 914,-61 920,-55 926,-55"/>
<text text-anchor="middle" x="997" y="-69.3" font-family="Times,serif" font-size="14.00" fill="#2f3638">SlowHashAggregationImpl</text>
</g>
<!-- BatchSlowHashAggregationExecutor&#45;&gt;SlowHashAggregationImpl -->
<g id="edge19" class="edge">
<title>BatchSlowHashAggregationExecutor&#45;&gt;SlowHashAggregationImpl</title>
<path fill="none" stroke="#666666" d="M353.35,-72.15C501.78,-72.34 764.44,-72.69 903.56,-72.88"/>
<polygon fill="#666666" stroke="#666666" points="903.76,-76.38 913.76,-72.89 903.77,-69.38 903.76,-76.38"/>
</g>
<!-- BatchFastHashAggregationExecutor&#45;&gt;AggregationExecutor -->
<g id="edge14" class="edge">
<title>BatchFastHashAggregationExecutor&#45;&gt;AggregationExecutor</title>
<path fill="none" stroke="#666666" d="M330.16,-199.96C338.02,-197.33 345.75,-194.36 353,-191 379.89,-178.56 406.96,-158.64 426.38,-142.74"/>
<polygon fill="#666666" stroke="#666666" points="428.77,-145.3 434.21,-136.21 424.28,-139.93 428.77,-145.3"/>
</g>
<!-- FastHashAggregationImpl -->
<g id="node10" class="node">
<title>FastHashAggregationImpl</title>
<path fill="none" stroke="#1c2123" d="M1065.5,-452C1065.5,-452 928.5,-452 928.5,-452 922.5,-452 916.5,-446 916.5,-440 916.5,-440 916.5,-428 916.5,-428 916.5,-422 922.5,-416 928.5,-416 928.5,-416 1065.5,-416 1065.5,-416 1071.5,-416 1077.5,-422 1077.5,-428 1077.5,-428 1077.5,-440 1077.5,-440 1077.5,-446 1071.5,-452 1065.5,-452"/>
<text text-anchor="middle" x="997" y="-430.3" font-family="Times,serif" font-size="14.00" fill="#2f3638">FastHashAggregationImpl</text>
</g>
<!-- BatchFastHashAggregationExecutor&#45;&gt;FastHashAggregationImpl -->
<g id="edge15" class="edge">
<title>BatchFastHashAggregationExecutor&#45;&gt;FastHashAggregationImpl</title>
<path fill="none" stroke="#666666" d="M261.23,-236.24C305.34,-281.42 428.03,-397.85 558,-439 674,-475.73 816.1,-464.59 906.35,-451.08"/>
<polygon fill="#666666" stroke="#666666" points="906.93,-454.53 916.28,-449.55 905.87,-447.61 906.93,-454.53"/>
</g>
<!-- BatchSimpleAggregationExecutor&#45;&gt;AggregationExecutor -->
<g id="edge12" class="edge">
<title>BatchSimpleAggregationExecutor&#45;&gt;AggregationExecutor</title>
<path fill="none" stroke="#666666" d="M330.16,-36.04C338.02,-38.67 345.75,-41.64 353,-45 379.89,-57.44 406.96,-77.36 426.38,-93.26"/>
<polygon fill="#666666" stroke="#666666" points="424.28,-96.07 434.21,-99.79 428.77,-90.7 424.28,-96.07"/>
</g>
<!-- SimpleAggregationImpl -->
<g id="node12" class="node">
<title>SimpleAggregationImpl</title>
<path fill="none" stroke="#1c2123" d="M1059.5,-36C1059.5,-36 934.5,-36 934.5,-36 928.5,-36 922.5,-30 922.5,-24 922.5,-24 922.5,-12 922.5,-12 922.5,-6 928.5,0 934.5,0 934.5,0 1059.5,0 1059.5,0 1065.5,0 1071.5,-6 1071.5,-12 1071.5,-12 1071.5,-24 1071.5,-24 1071.5,-30 1065.5,-36 1059.5,-36"/>
<text text-anchor="middle" x="997" y="-14.3" font-family="Times,serif" font-size="14.00" fill="#2f3638">SimpleAggregationImpl</text>
</g>
<!-- BatchSimpleAggregationExecutor&#45;&gt;SimpleAggregationImpl -->
<g id="edge13" class="edge">
<title>BatchSimpleAggregationExecutor&#45;&gt;SimpleAggregationImpl</title>
<path fill="none" stroke="#666666" d="M344.64,-18C494.28,-18 772.72,-18 912.05,-18"/>
<polygon fill="#666666" stroke="#666666" points="912.25,-21.5 922.25,-18 912.25,-14.5 912.25,-21.5"/>
</g>
<!-- AggregationExecutorImpl&#45;&gt;BatchStreamAggregationImpl -->
<g id="edge8" class="edge">
<title>AggregationExecutorImpl&#45;&gt;BatchStreamAggregationImpl</title>
<path fill="none" stroke="#666666" d="M787.8,-120.75C821.26,-121.91 860.65,-123.28 896.11,-124.52"/>
<polygon fill="#666666" stroke="#666666" points="896.37,-128.03 906.48,-124.88 896.61,-121.03 896.37,-128.03"/>
</g>
<!-- AggregationExecutorImpl&#45;&gt;FastHashAggregationImpl -->
<g id="edge9" class="edge">
<title>AggregationExecutorImpl&#45;&gt;FastHashAggregationImpl</title>
<path fill="none" stroke="#666666" d="M787.52,-135.85C813.66,-145.6 840.54,-160.47 858,-183 919.77,-262.69 826.33,-332.25 894,-407 897.84,-411.24 902.27,-414.85 907.07,-417.92"/>
<polygon fill="#666666" stroke="#666666" points="905.64,-421.13 916.09,-422.88 909.01,-415 905.64,-421.13"/>
</g>
<!-- AggregationExecutorImpl&#45;&gt;SlowHashAggregationImpl -->
<g id="edge10" class="edge">
<title>AggregationExecutorImpl&#45;&gt;SlowHashAggregationImpl</title>
<path fill="none" stroke="#666666" d="M787.8,-105.64C823.75,-100.01 866.56,-93.3 903.97,-87.43"/>
<polygon fill="#666666" stroke="#666666" points="904.53,-90.88 913.87,-85.88 903.45,-83.97 904.53,-90.88"/>
</g>
<!-- AggregationExecutorImpl&#45;&gt;SimpleAggregationImpl -->
<g id="edge11" class="edge">
<title>AggregationExecutorImpl&#45;&gt;SimpleAggregationImpl</title>
<path fill="none" stroke="#666666" d="M750.74,-99.91C787.9,-84.19 843.97,-61.43 894,-45 900.37,-42.91 907.01,-40.86 913.7,-38.89"/>
<polygon fill="#666666" stroke="#666666" points="914.89,-42.19 923.53,-36.06 912.95,-35.46 914.89,-42.19"/>
</g>
<!-- BatchExecutor_Src -->
<g id="node13" class="node">
<title>BatchExecutor_Src</title>
<path fill="#79d8ce" stroke="#60b5ac" d="M940.5,-336.5C940.5,-336.5 1053.5,-336.5 1053.5,-336.5 1059.5,-336.5 1065.5,-342.5 1065.5,-348.5 1065.5,-348.5 1065.5,-385.5 1065.5,-385.5 1065.5,-391.5 1059.5,-397.5 1053.5,-397.5 1053.5,-397.5 940.5,-397.5 940.5,-397.5 934.5,-397.5 928.5,-391.5 928.5,-385.5 928.5,-385.5 928.5,-348.5 928.5,-348.5 928.5,-342.5 934.5,-336.5 940.5,-336.5"/>
<text text-anchor="middle" x="997" y="-382.3" font-family="Times,serif" font-size="14.00" fill="#5d6179">BatchExecutor</text>
<polyline fill="none" stroke="#60b5ac" points="928.5,-374.5 1065.5,-374.5 "/>
<text text-anchor="start" x="936.5" y="-359.3" font-family="Times,serif" font-size="14.00" fill="#5d6179">使用其他的Executor</text>
<text text-anchor="start" x="936.5" y="-344.3" font-family="Times,serif" font-size="14.00" fill="#5d6179"> 作为数据源</text>
</g>
<!-- Entities&#45;&gt;BatchExecutor_Src -->
<g id="edge20" class="edge">
<title>Entities&#45;&gt;BatchExecutor_Src</title>
<path fill="none" stroke="#666666" d="M858.38,-340.15C879.17,-344.2 899.78,-348.23 918.49,-351.88"/>
<polygon fill="#666666" stroke="#666666" points="917.89,-355.33 928.38,-353.81 919.23,-348.45 917.89,-355.33"/>
</g>
<!-- EvalContext -->
<g id="node14" class="node">
<title>EvalContext</title>
<path fill="none" stroke="#1c2123" d="M1027,-544C1027,-544 967,-544 967,-544 961,-544 955,-538 955,-532 955,-532 955,-520 955,-520 955,-514 961,-508 967,-508 967,-508 1027,-508 1027,-508 1033,-508 1039,-514 1039,-520 1039,-520 1039,-532 1039,-532 1039,-538 1033,-544 1027,-544"/>
<text text-anchor="middle" x="997" y="-522.3" font-family="Times,serif" font-size="14.00" fill="#2f3638">EvalContext</text>
</g>
<!-- Entities&#45;&gt;EvalContext -->
<g id="edge21" class="edge">
<title>Entities&#45;&gt;EvalContext</title>
<path fill="none" stroke="#666666" d="M812.14,-429.87C837.08,-453.58 864.97,-476.52 894,-494 909.55,-503.36 928.11,-510.24 945.1,-515.17"/>
<polygon fill="#666666" stroke="#666666" points="944.33,-518.59 954.89,-517.85 946.17,-511.83 944.33,-518.59"/>
</g>
<!-- AggrFunction -->
<g id="node15" class="node">
<title>AggrFunction</title>
<path fill="none" stroke="#1c2123" d="M906,-165C906,-165 1088,-165 1088,-165 1094,-165 1100,-171 1100,-177 1100,-177 1100,-305 1100,-305 1100,-311 1094,-317 1088,-317 1088,-317 906,-317 906,-317 900,-317 894,-311 894,-305 894,-305 894,-177 894,-177 894,-171 900,-165 906,-165"/>
<text text-anchor="middle" x="997" y="-301.8" font-family="Times,serif" font-size="14.00" fill="#2f3638">AggrFunction</text>
<polyline fill="none" stroke="#1c2123" points="894,-294 1100,-294 "/>
<text text-anchor="start" x="902" y="-278.8" font-family="Times,serif" font-size="14.00" fill="#2f3638">for all single parameter</text>
<text text-anchor="start" x="902" y="-263.8" font-family="Times,serif" font-size="14.00" fill="#2f3638"> aggregate functions</text>
<text text-anchor="start" x="902" y="-248.8" font-family="Times,serif" font-size="14.00" fill="#2f3638"> calculates a summary</text>
<text text-anchor="start" x="902" y="-233.8" font-family="Times,serif" font-size="14.00" fill="#2f3638"> value for multiple rows</text>
<polyline fill="none" stroke="#1c2123" points="894,-226 1100,-226 "/>
<text text-anchor="start" x="902" y="-210.8" font-family="Times,serif" font-size="14.00" fill="#2f3638">fn name(&amp;self) &#45;&gt; &amp;&#39;static str;</text>
<polyline fill="none" stroke="#1c2123" points="894,-203 1100,-203 "/>
<text text-anchor="start" x="902" y="-187.8" font-family="Times,serif" font-size="14.00" fill="#2f3638">fn create_state(&amp;self)</text>
<text text-anchor="start" x="902" y="-172.8" font-family="Times,serif" font-size="14.00" fill="#2f3638"> &#45;&gt; Box&lt;dyn AggrFunctionState&gt;;</text>
</g>
<!-- Entities&#45;&gt;AggrFunction -->
<g id="edge22" class="edge">
<title>Entities&#45;&gt;AggrFunction</title>
<path fill="none" stroke="#666666" d="M858.38,-274.56C867,-272.46 875.59,-270.37 884.02,-268.31"/>
<polygon fill="#666666" stroke="#666666" points="884.96,-271.69 893.84,-265.92 883.3,-264.89 884.96,-271.69"/>
</g>
<!-- RpnExpression -->
<g id="node16" class="node">
<title>RpnExpression</title>
<path fill="none" stroke="#1c2123" d="M1158.5,-284.5C1158.5,-284.5 1382.5,-284.5 1382.5,-284.5 1388.5,-284.5 1394.5,-290.5 1394.5,-296.5 1394.5,-296.5 1394.5,-349.5 1394.5,-349.5 1394.5,-355.5 1388.5,-361.5 1382.5,-361.5 1382.5,-361.5 1158.5,-361.5 1158.5,-361.5 1152.5,-361.5 1146.5,-355.5 1146.5,-349.5 1146.5,-349.5 1146.5,-296.5 1146.5,-296.5 1146.5,-290.5 1152.5,-284.5 1158.5,-284.5"/>
<text text-anchor="middle" x="1270.5" y="-346.3" font-family="Times,serif" font-size="14.00" fill="#2f3638">RpnExpression</text>
<polyline fill="none" stroke="#1c2123" points="1146.5,-338.5 1394.5,-338.5 "/>
<text text-anchor="start" x="1154.5" y="-323.3" font-family="Times,serif" font-size="14.00" fill="#2f3638">An expression in Reverse Polish notatioon</text>
<text text-anchor="start" x="1154.5" y="-308.3" font-family="Times,serif" font-size="14.00" fill="#2f3638"> Vec&lt;RpnExpressionNode&gt;</text>
</g>
<!-- Entities&#45;&gt;RpnExpression -->
<g id="edge23" class="edge">
<title>Entities&#45;&gt;RpnExpression</title>
<path fill="none" stroke="#666666" d="M832.94,-429.51C852.18,-442.35 872.76,-453.47 894,-461 980.29,-491.59 1019.28,-504.2 1100,-461 1125.43,-447.39 1115.34,-427.13 1136,-407 1151.09,-392.3 1169.16,-378.86 1187.06,-367.23"/>
<polygon fill="#666666" stroke="#666666" points="1189.25,-369.99 1195.82,-361.68 1185.5,-364.08 1189.25,-369.99"/>
</g>
<!-- BatchStreamAggregationImpl&#45;&gt;RpnExpression -->
<g id="edge27" class="edge">
<title>BatchStreamAggregationImpl&#45;&gt;RpnExpression</title>
<path fill="none" stroke="#666666" d="M1085.91,-146.22C1090.95,-149.03 1095.7,-152.27 1100,-156 1130.37,-182.35 1109.81,-208.49 1136,-239 1148.98,-254.13 1165.38,-267.45 1182.2,-278.76"/>
<polygon fill="#666666" stroke="#666666" points="1180.73,-281.98 1191.02,-284.49 1184.54,-276.11 1180.73,-281.98"/>
</g>
<!-- AggrFunctionState -->
<g id="node17" class="node">
<title>AggrFunctionState</title>
<path fill="none" stroke="#1c2123" d="M1148,-122.5C1148,-122.5 1393,-122.5 1393,-122.5 1399,-122.5 1405,-128.5 1405,-134.5 1405,-134.5 1405,-217.5 1405,-217.5 1405,-223.5 1399,-229.5 1393,-229.5 1393,-229.5 1148,-229.5 1148,-229.5 1142,-229.5 1136,-223.5 1136,-217.5 1136,-217.5 1136,-134.5 1136,-134.5 1136,-128.5 1142,-122.5 1148,-122.5"/>
<text text-anchor="middle" x="1270.5" y="-214.3" font-family="Times,serif" font-size="14.00" fill="#2f3638">AggrFunctionState</text>
<polyline fill="none" stroke="#1c2123" points="1136,-206.5 1405,-206.5 "/>
<text text-anchor="start" x="1144" y="-191.3" font-family="Times,serif" font-size="14.00" fill="#2f3638">for each state it can be updated or aggregated</text>
<polyline fill="none" stroke="#1c2123" points="1136,-183.5 1405,-183.5 "/>
<text text-anchor="start" x="1144" y="-168.3" font-family="Times,serif" font-size="14.00" fill="#2f3638">Aggfunc的状态，可以被更新和聚合</text>
<polyline fill="none" stroke="#1c2123" points="1136,-160.5 1405,-160.5 "/>
<text text-anchor="start" x="1144" y="-145.3" font-family="Times,serif" font-size="14.00" fill="#2f3638">fn push_result(&amp;self, ctx: &amp;mut EvalContext,</text>
<text text-anchor="start" x="1144" y="-130.3" font-family="Times,serif" font-size="14.00" fill="#2f3638"> target: &amp;mut [VectorValue]) &#45;&gt; Result&lt;()&gt;;</text>
</g>
<!-- BatchStreamAggregationImpl&#45;&gt;AggrFunctionState -->
<g id="edge28" class="edge">
<title>BatchStreamAggregationImpl&#45;&gt;AggrFunctionState</title>
<path fill="none" stroke="#666666" d="M1087.65,-143.85C1099.96,-146.03 1112.84,-148.3 1125.82,-150.6"/>
<polygon fill="#666666" stroke="#666666" points="1125.3,-154.06 1135.76,-152.35 1126.52,-147.17 1125.3,-154.06"/>
</g>
<!-- RpnStackNode -->
<g id="node20" class="node">
<title>RpnStackNode</title>
<path fill="none" stroke="#1c2123" d="M1203.5,-42.5C1203.5,-42.5 1337.5,-42.5 1337.5,-42.5 1343.5,-42.5 1349.5,-48.5 1349.5,-54.5 1349.5,-54.5 1349.5,-91.5 1349.5,-91.5 1349.5,-97.5 1343.5,-103.5 1337.5,-103.5 1337.5,-103.5 1203.5,-103.5 1203.5,-103.5 1197.5,-103.5 1191.5,-97.5 1191.5,-91.5 1191.5,-91.5 1191.5,-54.5 1191.5,-54.5 1191.5,-48.5 1197.5,-42.5 1203.5,-42.5"/>
<text text-anchor="middle" x="1270.5" y="-88.3" font-family="Times,serif" font-size="14.00" fill="#2f3638">RpnStackNode</text>
<polyline fill="none" stroke="#1c2123" points="1191.5,-80.5 1349.5,-80.5 "/>
<text text-anchor="start" x="1199.5" y="-65.3" font-family="Times,serif" font-size="14.00" fill="#2f3638">a type for each node in </text>
<text text-anchor="start" x="1199.5" y="-50.3" font-family="Times,serif" font-size="14.00" fill="#2f3638"> the RPN evaluation stack</text>
</g>
<!-- BatchStreamAggregationImpl&#45;&gt;RpnStackNode -->
<g id="edge29" class="edge">
<title>BatchStreamAggregationImpl&#45;&gt;RpnStackNode</title>
<path fill="none" stroke="#666666" d="M1086.9,-109.99C1117.19,-103.85 1151.03,-97 1181.26,-90.87"/>
<polygon fill="#666666" stroke="#666666" points="1182.26,-94.24 1191.37,-88.83 1180.87,-87.38 1182.26,-94.24"/>
</g>
<!-- FastHashAggregationImpl&#45;&gt;RpnExpression -->
<g id="edge33" class="edge">
<title>FastHashAggregationImpl&#45;&gt;RpnExpression</title>
<path fill="none" stroke="#666666" d="M1073.19,-415.95C1082.31,-413.21 1091.43,-410.22 1100,-407 1130.38,-395.59 1162.55,-380.47 1190.62,-366.21"/>
<polygon fill="#666666" stroke="#666666" points="1192.28,-369.29 1199.58,-361.61 1189.08,-363.06 1192.28,-369.29"/>
</g>
<!-- FastHashAggregationImpl&#45;&gt;AggrFunctionState -->
<g id="edge34" class="edge">
<title>FastHashAggregationImpl&#45;&gt;AggrFunctionState</title>
<path fill="none" stroke="#666666" d="M1077.72,-421.99C1085.96,-418.21 1093.63,-413.32 1100,-407 1143.16,-364.16 1101.69,-325.21 1136,-275 1145.73,-260.76 1158.19,-247.77 1171.59,-236.23"/>
<polygon fill="#666666" stroke="#666666" points="1174.11,-238.69 1179.56,-229.6 1169.63,-233.3 1174.11,-238.69"/>
</g>
<!-- Groups -->
<g id="node21" class="node">
<title>Groups</title>
<path fill="none" stroke="#1c2123" d="M1286.5,-452C1286.5,-452 1254.5,-452 1254.5,-452 1248.5,-452 1242.5,-446 1242.5,-440 1242.5,-440 1242.5,-428 1242.5,-428 1242.5,-422 1248.5,-416 1254.5,-416 1254.5,-416 1286.5,-416 1286.5,-416 1292.5,-416 1298.5,-422 1298.5,-428 1298.5,-428 1298.5,-440 1298.5,-440 1298.5,-446 1292.5,-452 1286.5,-452"/>
<text text-anchor="middle" x="1270.5" y="-430.3" font-family="Times,serif" font-size="14.00" fill="#2f3638">Groups</text>
</g>
<!-- FastHashAggregationImpl&#45;&gt;Groups -->
<g id="edge35" class="edge">
<title>FastHashAggregationImpl&#45;&gt;Groups</title>
<path fill="none" stroke="#666666" d="M1077.62,-434C1128.76,-434 1192.79,-434 1232.42,-434"/>
<polygon fill="#666666" stroke="#666666" points="1232.43,-437.5 1242.43,-434 1232.43,-430.5 1232.43,-437.5"/>
</g>
<!-- SlowHashAggregationImpl&#45;&gt;RpnExpression -->
<g id="edge30" class="edge">
<title>SlowHashAggregationImpl&#45;&gt;RpnExpression</title>
<path fill="none" stroke="#666666" d="M1080.3,-86.12C1087.57,-89.74 1094.32,-94.29 1100,-100 1145,-145.25 1098.34,-187.48 1136,-239 1147.29,-254.44 1162.35,-267.7 1178.28,-278.83"/>
<polygon fill="#666666" stroke="#666666" points="1176.43,-281.8 1186.68,-284.46 1180.32,-275.98 1176.43,-281.8"/>
</g>
<!-- SlowHashAggregationImpl&#45;&gt;AggrFunctionState -->
<g id="edge31" class="edge">
<title>SlowHashAggregationImpl&#45;&gt;AggrFunctionState</title>
<path fill="none" stroke="#666666" d="M1071.98,-91.06C1081.48,-93.82 1091.02,-96.82 1100,-100 1115.5,-105.49 1131.55,-111.8 1147.32,-118.4"/>
<polygon fill="#666666" stroke="#666666" points="1145.99,-121.64 1156.57,-122.31 1148.72,-115.19 1145.99,-121.64"/>
</g>
<!-- SlowHashAggregationImpl&#45;&gt;RpnStackNode -->
<g id="edge32" class="edge">
<title>SlowHashAggregationImpl&#45;&gt;RpnStackNode</title>
<path fill="none" stroke="#666666" d="M1080.2,-73C1112.02,-73 1148.53,-73 1180.94,-73"/>
<polygon fill="#666666" stroke="#666666" points="1181.3,-76.5 1191.3,-73 1181.3,-69.5 1181.3,-76.5"/>
</g>
<!-- SimpleAggregationImpl&#45;&gt;AggrFunctionState -->
<g id="edge38" class="edge">
<title>SimpleAggregationImpl&#45;&gt;AggrFunctionState</title>
<path fill="none" stroke="#666666" d="M1071.74,-29.61C1081.9,-33.39 1091.68,-38.39 1100,-45 1126.78,-66.27 1111.27,-89.38 1136,-113 1136.96,-113.92 1137.94,-114.83 1138.94,-115.73"/>
<polygon fill="#666666" stroke="#666666" points="1136.94,-118.62 1146.84,-122.39 1141.46,-113.27 1136.94,-118.62"/>
</g>
<!-- AggrFunction&#45;&gt;AggrFunctionState -->
<g id="edge24" class="edge">
<title>AggrFunction&#45;&gt;AggrFunctionState</title>
<path fill="none" stroke="#666666" d="M1100.26,-216.52C1108.67,-214.51 1117.26,-212.45 1125.89,-210.38"/>
<polygon fill="#666666" stroke="#666666" points="1126.74,-213.78 1135.65,-208.04 1125.11,-206.97 1126.74,-213.78"/>
</g>
<!-- RpnExpressionNode -->
<g id="node18" class="node">
<title>RpnExpressionNode</title>
<path fill="none" stroke="#1c2123" d="M1453,-277C1453,-277 1557,-277 1557,-277 1563,-277 1569,-283 1569,-289 1569,-289 1569,-357 1569,-357 1569,-363 1563,-369 1557,-369 1557,-369 1453,-369 1453,-369 1447,-369 1441,-363 1441,-357 1441,-357 1441,-289 1441,-289 1441,-283 1447,-277 1453,-277"/>
<text text-anchor="middle" x="1505" y="-353.8" font-family="Times,serif" font-size="14.00" fill="#2f3638">RpnExpressionNode</text>
<polyline fill="none" stroke="#1c2123" points="1441,-346 1569,-346 "/>
<text text-anchor="start" x="1449" y="-330.8" font-family="Times,serif" font-size="14.00" fill="#2f3638">FncCall</text>
<polyline fill="none" stroke="#1c2123" points="1441,-323 1569,-323 "/>
<text text-anchor="start" x="1449" y="-307.8" font-family="Times,serif" font-size="14.00" fill="#2f3638">Constant</text>
<polyline fill="none" stroke="#1c2123" points="1441,-300 1569,-300 "/>
<text text-anchor="start" x="1449" y="-284.8" font-family="Times,serif" font-size="14.00" fill="#2f3638">ColumnRef</text>
</g>
<!-- RpnExpression&#45;&gt;RpnExpressionNode -->
<g id="edge25" class="edge">
<title>RpnExpression&#45;&gt;RpnExpressionNode</title>
<path fill="none" stroke="#666666" d="M1394.56,-323C1406.94,-323 1419.22,-323 1430.84,-323"/>
<polygon fill="#666666" stroke="#666666" points="1430.85,-326.5 1440.85,-323 1430.85,-319.5 1430.85,-326.5"/>
</g>
<!-- RpnFnMeta -->
<g id="node19" class="node">
<title>RpnFnMeta</title>
<path fill="none" stroke="#1c2123" d="M1617,-300C1617,-300 1746,-300 1746,-300 1752,-300 1758,-306 1758,-312 1758,-312 1758,-334 1758,-334 1758,-340 1752,-346 1746,-346 1746,-346 1617,-346 1617,-346 1611,-346 1605,-340 1605,-334 1605,-334 1605,-312 1605,-312 1605,-306 1611,-300 1617,-300"/>
<text text-anchor="middle" x="1681.5" y="-330.8" font-family="Times,serif" font-size="14.00" fill="#2f3638">RpnFnMeta</text>
<polyline fill="none" stroke="#1c2123" points="1605,-323 1758,-323 "/>
<text text-anchor="start" x="1613" y="-307.8" font-family="Times,serif" font-size="14.00" fill="#2f3638">包含了fn_ptr 函数指针</text>
</g>
<!-- RpnExpressionNode&#45;&gt;RpnFnMeta -->
<g id="edge26" class="edge">
<title>RpnExpressionNode&#45;&gt;RpnFnMeta</title>
<path fill="none" stroke="#666666" d="M1569.49,-323C1577.76,-323 1586.33,-323 1594.88,-323"/>
<polygon fill="#666666" stroke="#666666" points="1594.89,-326.5 1604.89,-323 1594.89,-319.5 1594.89,-326.5"/>
</g>
<!-- Scalar -->
<g id="node22" class="node">
<title>Scalar</title>
<path fill="none" stroke="#1c2123" d="M1520,-64C1520,-64 1490,-64 1490,-64 1484,-64 1478,-58 1478,-52 1478,-52 1478,-40 1478,-40 1478,-34 1484,-28 1490,-28 1490,-28 1520,-28 1520,-28 1526,-28 1532,-34 1532,-40 1532,-40 1532,-52 1532,-52 1532,-58 1526,-64 1520,-64"/>
<text text-anchor="middle" x="1505" y="-42.3" font-family="Times,serif" font-size="14.00" fill="#2f3638">Scalar</text>
</g>
<!-- RpnStackNode&#45;&gt;Scalar -->
<g id="edge36" class="edge">
<title>RpnStackNode&#45;&gt;Scalar</title>
<path fill="none" stroke="#666666" d="M1349.57,-63.93C1389.51,-59.3 1436.22,-53.87 1467.72,-50.21"/>
<polygon fill="#666666" stroke="#666666" points="1468.26,-53.67 1477.79,-49.04 1467.45,-46.72 1468.26,-53.67"/>
</g>
<!-- Vector -->
<g id="node23" class="node">
<title>Vector</title>
<path fill="none" stroke="#1c2123" d="M1520,-118C1520,-118 1490,-118 1490,-118 1484,-118 1478,-112 1478,-106 1478,-106 1478,-94 1478,-94 1478,-88 1484,-82 1490,-82 1490,-82 1520,-82 1520,-82 1526,-82 1532,-88 1532,-94 1532,-94 1532,-106 1532,-106 1532,-112 1526,-118 1520,-118"/>
<text text-anchor="middle" x="1505" y="-96.3" font-family="Times,serif" font-size="14.00" fill="#2f3638">Vector</text>
</g>
<!-- RpnStackNode&#45;&gt;Vector -->
<g id="edge37" class="edge">
<title>RpnStackNode&#45;&gt;Vector</title>
<path fill="none" stroke="#666666" d="M1349.57,-82.07C1389.51,-86.7 1436.22,-92.13 1467.72,-95.79"/>
<polygon fill="#666666" stroke="#666666" points="1467.45,-99.28 1477.79,-96.96 1468.26,-92.33 1467.45,-99.28"/>
</g>
</g>
</svg>
