<?xml version="1.0" encoding="UTF-8" standalone="no"?>
<!DOCTYPE svg PUBLIC "-//W3C//DTD SVG 1.1//EN"
 "http://www.w3.org/Graphics/SVG/1.1/DTD/svg11.dtd">
<!-- Generated by graphviz version 2.47.1 (20210417.1919)
 -->
<!-- Title: next_batch Pages: 1 -->
<svg width="1810pt" height="501pt"
 viewBox="0.00 0.00 1810.00 500.50" xmlns="http://www.w3.org/2000/svg" xmlns:xlink="http://www.w3.org/1999/xlink">
<g id="graph0" class="graph" transform="scale(1 1) rotate(0) translate(4 496.5)">
<title>next_batch</title>
<polygon fill="white" stroke="transparent" points="-4,4 -4,-496.5 1806,-496.5 1806,4 -4,4"/>
<g id="clust5" class="cluster">
<title>cluster_RpnExpressionNode</title>
<path fill="none" stroke="slategrey" stroke-dasharray="5,2" d="M1225.5,-120.5C1225.5,-120.5 1782,-120.5 1782,-120.5 1788,-120.5 1794,-126.5 1794,-132.5 1794,-132.5 1794,-472.5 1794,-472.5 1794,-478.5 1788,-484.5 1782,-484.5 1782,-484.5 1225.5,-484.5 1225.5,-484.5 1219.5,-484.5 1213.5,-478.5 1213.5,-472.5 1213.5,-472.5 1213.5,-132.5 1213.5,-132.5 1213.5,-126.5 1219.5,-120.5 1225.5,-120.5"/>
<text text-anchor="middle" x="1503.75" y="-464.5" font-family="Times,serif" font-size="20.00">RpnExpressionNode</text>
</g>
<g id="clust7" class="cluster">
<title>cluster_RpnExpression</title>
<path fill="none" stroke="slategrey" stroke-dasharray="5,2" d="M714.5,-179.5C714.5,-179.5 1079.5,-179.5 1079.5,-179.5 1085.5,-179.5 1091.5,-185.5 1091.5,-191.5 1091.5,-191.5 1091.5,-303.5 1091.5,-303.5 1091.5,-309.5 1085.5,-315.5 1079.5,-315.5 1079.5,-315.5 714.5,-315.5 714.5,-315.5 708.5,-315.5 702.5,-309.5 702.5,-303.5 702.5,-303.5 702.5,-191.5 702.5,-191.5 702.5,-185.5 708.5,-179.5 714.5,-179.5"/>
<text text-anchor="middle" x="897" y="-295.5" font-family="Times,serif" font-size="20.00">RpnExpression</text>
</g>
<!-- next_batch -->
<g id="node1" class="node">
<title>next_batch</title>
<path fill="none" stroke="#1c2123" d="M64,-154.5C64,-154.5 12,-154.5 12,-154.5 6,-154.5 0,-148.5 0,-142.5 0,-142.5 0,-130.5 0,-130.5 0,-124.5 6,-118.5 12,-118.5 12,-118.5 64,-118.5 64,-118.5 70,-118.5 76,-124.5 76,-130.5 76,-130.5 76,-142.5 76,-142.5 76,-148.5 70,-154.5 64,-154.5"/>
<text text-anchor="middle" x="38" y="-132.8" font-family="Times,serif" font-size="14.00" fill="#2f3638">next_batch</text>
</g>
<!-- BatchExecutor_next_batch -->
<g id="node2" class="node">
<title>BatchExecutor_next_batch</title>
<path fill="none" stroke="#1c2123" d="M263,-131.5C263,-131.5 124,-131.5 124,-131.5 118,-131.5 112,-125.5 112,-119.5 112,-119.5 112,-107.5 112,-107.5 112,-101.5 118,-95.5 124,-95.5 124,-95.5 263,-95.5 263,-95.5 269,-95.5 275,-101.5 275,-107.5 275,-107.5 275,-119.5 275,-119.5 275,-125.5 269,-131.5 263,-131.5"/>
<text text-anchor="middle" x="193.5" y="-109.8" font-family="Times,serif" font-size="14.00" fill="#2f3638">BatchExecutor_next_batch</text>
</g>
<!-- next_batch&#45;&gt;BatchExecutor_next_batch -->
<g id="edge1" class="edge">
<title>next_batch&#45;&gt;BatchExecutor_next_batch</title>
<path fill="none" stroke="#666666" d="M76.16,-130.93C84.17,-129.73 92.98,-128.41 102.05,-127.05"/>
<polygon fill="#666666" stroke="#666666" points="102.6,-130.51 111.97,-125.57 101.57,-123.59 102.6,-130.51"/>
</g>
<!-- handle_src_result -->
<g id="node3" class="node">
<title>handle_src_result</title>
<path fill="none" stroke="#1c2123" d="M535,-106C535,-106 645,-106 645,-106 651,-106 657,-112 657,-118 657,-118 657,-155 657,-155 657,-161 651,-167 645,-167 645,-167 535,-167 535,-167 529,-167 523,-161 523,-155 523,-155 523,-118 523,-118 523,-112 529,-106 535,-106"/>
<text text-anchor="middle" x="590" y="-151.8" font-family="Times,serif" font-size="14.00" fill="#2f3638">handle_src_result</text>
<polyline fill="none" stroke="#1c2123" points="523,-144 657,-144 "/>
<text text-anchor="start" x="531" y="-128.8" font-family="Times,serif" font-size="14.00" fill="#2f3638">遍历conditions,调用</text>
<text text-anchor="start" x="531" y="-113.8" font-family="Times,serif" font-size="14.00" fill="#2f3638"> 每个conditions.eval</text>
</g>
<!-- next_batch&#45;&gt;handle_src_result -->
<g id="edge2" class="edge">
<title>next_batch&#45;&gt;handle_src_result</title>
<path fill="none" stroke="#666666" d="M76.12,-138.82C87.62,-139.46 100.33,-140.09 112,-140.5 278.57,-146.32 320.43,-149.21 487,-143.5 495.35,-143.21 504.08,-142.8 512.77,-142.3"/>
<polygon fill="#666666" stroke="#666666" points="513.14,-145.79 522.92,-141.7 512.73,-138.8 513.14,-145.79"/>
</g>
<!-- BatchExecuteResult -->
<g id="node9" class="node">
<title>BatchExecuteResult</title>
<path fill="#feed9b" stroke="#f7e495" d="M323,-87.5C323,-87.5 475,-87.5 475,-87.5 481,-87.5 487,-93.5 487,-99.5 487,-99.5 487,-121.5 487,-121.5 487,-127.5 481,-133.5 475,-133.5 475,-133.5 323,-133.5 323,-133.5 317,-133.5 311,-127.5 311,-121.5 311,-121.5 311,-99.5 311,-99.5 311,-93.5 317,-87.5 323,-87.5"/>
<text text-anchor="middle" x="399" y="-118.3" font-family="Times,serif" font-size="14.00" fill="#40575d">BatchExecuteResult</text>
<polyline fill="none" stroke="#f7e495" points="311,-110.5 487,-110.5 "/>
<text text-anchor="start" x="319" y="-95.3" font-family="Times,serif" font-size="14.00" fill="#40575d">Src BatchExecutor执行结果</text>
</g>
<!-- BatchExecutor_next_batch&#45;&gt;BatchExecuteResult -->
<g id="edge12" class="edge">
<title>BatchExecutor_next_batch&#45;&gt;BatchExecuteResult</title>
<path fill="none" stroke="green" stroke-dasharray="5,2" d="M275.22,-112.31C283.5,-112.19 291.98,-112.06 300.42,-111.94"/>
<polygon fill="green" stroke="green" points="300.73,-115.43 310.68,-111.79 300.63,-108.44 300.73,-115.43"/>
</g>
<!-- update_logical_rows_by_vector_value -->
<g id="node4" class="node">
<title>update_logical_rows_by_vector_value</title>
<path fill="none" stroke="#1c2123" d="M1106,-87.5C1106,-87.5 904,-87.5 904,-87.5 898,-87.5 892,-81.5 892,-75.5 892,-75.5 892,-63.5 892,-63.5 892,-57.5 898,-51.5 904,-51.5 904,-51.5 1106,-51.5 1106,-51.5 1112,-51.5 1118,-57.5 1118,-63.5 1118,-63.5 1118,-75.5 1118,-75.5 1118,-81.5 1112,-87.5 1106,-87.5"/>
<text text-anchor="middle" x="1005" y="-65.8" font-family="Times,serif" font-size="14.00" fill="#2f3638">update_logical_rows_by_vector_value</text>
</g>
<!-- handle_src_result&#45;&gt;update_logical_rows_by_vector_value -->
<g id="edge8" class="edge">
<title>handle_src_result&#45;&gt;update_logical_rows_by_vector_value</title>
<path fill="none" stroke="#666666" d="M643.17,-105.95C658.71,-98.24 676.11,-90.91 693,-86.5 753.83,-70.63 823.56,-65.67 881.56,-64.98"/>
<polygon fill="#666666" stroke="#666666" points="881.9,-68.48 891.87,-64.9 881.84,-61.48 881.9,-68.48"/>
</g>
<!-- eval -->
<g id="node6" class="node">
<title>eval</title>
<path fill="none" stroke="#1c2123" d="M722.5,-188C722.5,-188 826.5,-188 826.5,-188 832.5,-188 838.5,-194 838.5,-200 838.5,-200 838.5,-237 838.5,-237 838.5,-243 832.5,-249 826.5,-249 826.5,-249 722.5,-249 722.5,-249 716.5,-249 710.5,-243 710.5,-237 710.5,-237 710.5,-200 710.5,-200 710.5,-194 716.5,-188 722.5,-188"/>
<text text-anchor="middle" x="774.5" y="-233.8" font-family="Times,serif" font-size="14.00" fill="#2f3638">eval</text>
<polyline fill="none" stroke="#1c2123" points="710.5,-226 838.5,-226 "/>
<text text-anchor="start" x="718.5" y="-210.8" font-family="Times,serif" font-size="14.00" fill="#2f3638">执行RpnExpression</text>
<text text-anchor="start" x="718.5" y="-195.8" font-family="Times,serif" font-size="14.00" fill="#2f3638"> 获取执行结果</text>
</g>
<!-- handle_src_result&#45;&gt;eval -->
<g id="edge9" class="edge">
<title>handle_src_result&#45;&gt;eval</title>
<path fill="none" stroke="#666666" d="M657.14,-166.22C671.37,-172.61 686.48,-179.4 700.93,-185.89"/>
<polygon fill="#666666" stroke="#666666" points="699.77,-189.21 710.32,-190.11 702.63,-182.82 699.77,-189.21"/>
</g>
<!-- update_logical_rows_by_scalar_value -->
<g id="node7" class="node">
<title>update_logical_rows_by_scalar_value</title>
<path fill="none" stroke="#1c2123" d="M905,-108C905,-108 1105,-108 1105,-108 1111,-108 1117,-114 1117,-120 1117,-120 1117,-157 1117,-157 1117,-163 1111,-169 1105,-169 1105,-169 905,-169 905,-169 899,-169 893,-163 893,-157 893,-157 893,-120 893,-120 893,-114 899,-108 905,-108"/>
<text text-anchor="middle" x="1005" y="-153.8" font-family="Times,serif" font-size="14.00" fill="#2f3638">update_logical_rows_by_scalar_value</text>
<polyline fill="none" stroke="#1c2123" points="893,-146 1117,-146 "/>
<text text-anchor="start" x="901" y="-130.8" font-family="Times,serif" font-size="14.00" fill="#2f3638">如果eval result为false</text>
<text text-anchor="start" x="901" y="-115.8" font-family="Times,serif" font-size="14.00" fill="#2f3638"> 清空result</text>
</g>
<!-- handle_src_result&#45;&gt;update_logical_rows_by_scalar_value -->
<g id="edge10" class="edge">
<title>handle_src_result&#45;&gt;update_logical_rows_by_scalar_value</title>
<path fill="none" stroke="#666666" d="M657.11,-139.47C669.05,-139.9 681.39,-140.27 693,-140.5 755.51,-141.73 825.1,-141.43 882.58,-140.75"/>
<polygon fill="#666666" stroke="#666666" points="882.84,-144.24 892.8,-140.62 882.75,-137.24 882.84,-144.24"/>
</g>
<!-- match_template_evaluable -->
<g id="node10" class="node">
<title>match_template_evaluable</title>
<path fill="none" stroke="#1c2123" d="M844,-131.5C844,-131.5 705,-131.5 705,-131.5 699,-131.5 693,-125.5 693,-119.5 693,-119.5 693,-107.5 693,-107.5 693,-101.5 699,-95.5 705,-95.5 705,-95.5 844,-95.5 844,-95.5 850,-95.5 856,-101.5 856,-107.5 856,-107.5 856,-119.5 856,-119.5 856,-125.5 850,-131.5 844,-131.5"/>
<text text-anchor="middle" x="774.5" y="-109.8" font-family="Times,serif" font-size="14.00" fill="#2f3638">match_template_evaluable</text>
</g>
<!-- handle_src_result&#45;&gt;match_template_evaluable -->
<g id="edge11" class="edge">
<title>handle_src_result&#45;&gt;match_template_evaluable</title>
<path fill="none" stroke="#666666" d="M657.14,-128.16C665.5,-127.11 674.17,-126.02 682.82,-124.93"/>
<polygon fill="#666666" stroke="#666666" points="683.48,-128.37 692.96,-123.65 682.6,-121.43 683.48,-128.37"/>
</g>
<!-- logical_rows_retain -->
<g id="node5" class="node">
<title>logical_rows_retain</title>
<path fill="none" stroke="#1c2123" d="M1166,-0.5C1166,-0.5 1357,-0.5 1357,-0.5 1363,-0.5 1369,-6.5 1369,-12.5 1369,-12.5 1369,-34.5 1369,-34.5 1369,-40.5 1363,-46.5 1357,-46.5 1357,-46.5 1166,-46.5 1166,-46.5 1160,-46.5 1154,-40.5 1154,-34.5 1154,-34.5 1154,-12.5 1154,-12.5 1154,-6.5 1160,-0.5 1166,-0.5"/>
<text text-anchor="middle" x="1261.5" y="-31.3" font-family="Times,serif" font-size="14.00" fill="#2f3638">logical_rows.retain</text>
<polyline fill="none" stroke="#1c2123" points="1154,-23.5 1369,-23.5 "/>
<text text-anchor="middle" x="1261.5" y="-8.3" font-family="Times,serif" font-size="14.00" fill="#2f3638">只保留condition计算为true的rows</text>
</g>
<!-- update_logical_rows_by_vector_value&#45;&gt;logical_rows_retain -->
<g id="edge3" class="edge">
<title>update_logical_rows_by_vector_value&#45;&gt;logical_rows_retain</title>
<path fill="none" stroke="#666666" d="M1105.85,-51.45C1118.27,-49.21 1131.05,-46.9 1143.7,-44.61"/>
<polygon fill="#666666" stroke="#666666" points="1144.58,-48.01 1153.8,-42.79 1143.33,-41.12 1144.58,-48.01"/>
</g>
<!-- BatchExecuteResult2 -->
<g id="node8" class="node">
<title>BatchExecuteResult2</title>
<path fill="#feed9b" stroke="#f7e495" d="M1204.5,-65.5C1204.5,-65.5 1318.5,-65.5 1318.5,-65.5 1324.5,-65.5 1330.5,-71.5 1330.5,-77.5 1330.5,-77.5 1330.5,-99.5 1330.5,-99.5 1330.5,-105.5 1324.5,-111.5 1318.5,-111.5 1318.5,-111.5 1204.5,-111.5 1204.5,-111.5 1198.5,-111.5 1192.5,-105.5 1192.5,-99.5 1192.5,-99.5 1192.5,-77.5 1192.5,-77.5 1192.5,-71.5 1198.5,-65.5 1204.5,-65.5"/>
<text text-anchor="middle" x="1261.5" y="-96.3" font-family="Times,serif" font-size="14.00" fill="#40575d">BatchExecuteResult</text>
<polyline fill="none" stroke="#f7e495" points="1192.5,-88.5 1330.5,-88.5 "/>
<text text-anchor="middle" x="1261.5" y="-73.3" font-family="Times,serif" font-size="14.00" fill="#40575d">Selection之后的结果</text>
</g>
<!-- update_logical_rows_by_vector_value&#45;&gt;BatchExecuteResult2 -->
<g id="edge6" class="edge">
<title>update_logical_rows_by_vector_value&#45;&gt;BatchExecuteResult2</title>
<path fill="none" stroke="green" stroke-dasharray="5,2" d="M1118.37,-77.89C1139.9,-79.5 1162,-81.15 1182.17,-82.65"/>
<polygon fill="green" stroke="green" points="1181.99,-86.15 1192.22,-83.4 1182.51,-79.17 1181.99,-86.15"/>
</g>
<!-- eval&#45;&gt;update_logical_rows_by_vector_value -->
<g id="edge4" class="edge">
<title>eval&#45;&gt;update_logical_rows_by_vector_value</title>
<path fill="none" stroke="green" stroke-dasharray="5,2" d="M808.69,-187.67C823.48,-173.59 840.93,-156.52 856,-140.5 872.85,-122.59 871.14,-111.51 892,-98.5 896.05,-95.98 900.31,-93.67 904.71,-91.56"/>
<polygon fill="green" stroke="green" points="906.16,-94.75 913.91,-87.52 903.34,-88.34 906.16,-94.75"/>
</g>
<!-- eval&#45;&gt;update_logical_rows_by_scalar_value -->
<g id="edge5" class="edge">
<title>eval&#45;&gt;update_logical_rows_by_scalar_value</title>
<path fill="none" stroke="green" stroke-dasharray="5,2" d="M838.54,-194.78C855.83,-188.4 874.6,-181.58 892,-175.5 894.95,-174.47 897.95,-173.43 900.97,-172.39"/>
<polygon fill="green" stroke="green" points="902.39,-175.6 910.72,-169.05 900.12,-168.98 902.39,-175.6"/>
</g>
<!-- ensure_columns_decoded -->
<g id="node19" class="node">
<title>ensure_columns_decoded</title>
<path fill="none" stroke="#1c2123" d="M1071.5,-223.5C1071.5,-223.5 938.5,-223.5 938.5,-223.5 932.5,-223.5 926.5,-217.5 926.5,-211.5 926.5,-211.5 926.5,-199.5 926.5,-199.5 926.5,-193.5 932.5,-187.5 938.5,-187.5 938.5,-187.5 1071.5,-187.5 1071.5,-187.5 1077.5,-187.5 1083.5,-193.5 1083.5,-199.5 1083.5,-199.5 1083.5,-211.5 1083.5,-211.5 1083.5,-217.5 1077.5,-223.5 1071.5,-223.5"/>
<text text-anchor="middle" x="1005" y="-201.8" font-family="Times,serif" font-size="14.00" fill="#2f3638">ensure_columns_decoded</text>
</g>
<!-- eval&#45;&gt;ensure_columns_decoded -->
<g id="edge22" class="edge">
<title>eval&#45;&gt;ensure_columns_decoded</title>
<path fill="none" stroke="#666666" d="M838.54,-214.91C862.45,-213.55 890.13,-211.98 915.93,-210.51"/>
<polygon fill="#666666" stroke="#666666" points="916.3,-214 926.09,-209.93 915.9,-207.01 916.3,-214"/>
</g>
<!-- eval_decoded -->
<g id="node20" class="node">
<title>eval_decoded</title>
<path fill="none" stroke="#1c2123" d="M1038.5,-277.5C1038.5,-277.5 971.5,-277.5 971.5,-277.5 965.5,-277.5 959.5,-271.5 959.5,-265.5 959.5,-265.5 959.5,-253.5 959.5,-253.5 959.5,-247.5 965.5,-241.5 971.5,-241.5 971.5,-241.5 1038.5,-241.5 1038.5,-241.5 1044.5,-241.5 1050.5,-247.5 1050.5,-253.5 1050.5,-253.5 1050.5,-265.5 1050.5,-265.5 1050.5,-271.5 1044.5,-277.5 1038.5,-277.5"/>
<text text-anchor="middle" x="1005" y="-255.8" font-family="Times,serif" font-size="14.00" fill="#2f3638">eval_decoded</text>
</g>
<!-- eval&#45;&gt;eval_decoded -->
<g id="edge23" class="edge">
<title>eval&#45;&gt;eval_decoded</title>
<path fill="none" stroke="#666666" d="M838.54,-229.81C873.26,-236.04 915.93,-243.7 949.24,-249.68"/>
<polygon fill="#666666" stroke="#666666" points="948.8,-253.15 959.26,-251.47 950.04,-246.26 948.8,-253.15"/>
</g>
<!-- update_logical_rows_by_scalar_value&#45;&gt;BatchExecuteResult2 -->
<g id="edge7" class="edge">
<title>update_logical_rows_by_scalar_value&#45;&gt;BatchExecuteResult2</title>
<path fill="none" stroke="green" stroke-dasharray="5,2" d="M1117.26,-116.64C1139.21,-112.33 1161.81,-107.89 1182.39,-103.85"/>
<polygon fill="green" stroke="green" points="1183.17,-107.26 1192.31,-101.9 1181.83,-100.39 1183.17,-107.26"/>
</g>
<!-- BatchExecuteResult&#45;&gt;handle_src_result -->
<g id="edge13" class="edge">
<title>BatchExecuteResult&#45;&gt;handle_src_result</title>
<path fill="none" stroke="green" stroke-dasharray="5,2" d="M487.03,-122.47C495.57,-123.65 504.2,-124.83 512.62,-125.99"/>
<polygon fill="green" stroke="green" points="512.39,-129.49 522.77,-127.39 513.34,-122.56 512.39,-129.49"/>
</g>
<!-- Constant -->
<g id="node11" class="node">
<title>Constant</title>
<path fill="none" stroke="#1c2123" d="M1282,-324.5C1282,-324.5 1241,-324.5 1241,-324.5 1235,-324.5 1229,-318.5 1229,-312.5 1229,-312.5 1229,-300.5 1229,-300.5 1229,-294.5 1235,-288.5 1241,-288.5 1241,-288.5 1282,-288.5 1282,-288.5 1288,-288.5 1294,-294.5 1294,-300.5 1294,-300.5 1294,-312.5 1294,-312.5 1294,-318.5 1288,-324.5 1282,-324.5"/>
<text text-anchor="middle" x="1261.5" y="-302.8" font-family="Times,serif" font-size="14.00" fill="#2f3638">Constant</text>
</g>
<!-- stack_push_const -->
<g id="node14" class="node">
<title>stack_push_const</title>
<path fill="none" stroke="#1c2123" d="M1417.5,-289C1417.5,-289 1587.5,-289 1587.5,-289 1593.5,-289 1599.5,-295 1599.5,-301 1599.5,-301 1599.5,-338 1599.5,-338 1599.5,-344 1593.5,-350 1587.5,-350 1587.5,-350 1417.5,-350 1417.5,-350 1411.5,-350 1405.5,-344 1405.5,-338 1405.5,-338 1405.5,-301 1405.5,-301 1405.5,-295 1411.5,-289 1417.5,-289"/>
<text text-anchor="middle" x="1502.5" y="-334.8" font-family="Times,serif" font-size="14.00" fill="#2f3638">stack_push</text>
<polyline fill="none" stroke="#1c2123" points="1405.5,-327 1599.5,-327 "/>
<text text-anchor="start" x="1413.5" y="-311.8" font-family="Times,serif" font-size="14.00" fill="#2f3638">push一个RpnStackNode::Scalar</text>
<text text-anchor="start" x="1413.5" y="-296.8" font-family="Times,serif" font-size="14.00" fill="#2f3638"> 到Stack上</text>
</g>
<!-- Constant&#45;&gt;stack_push_const -->
<g id="edge14" class="edge">
<title>Constant&#45;&gt;stack_push_const</title>
<path fill="none" stroke="#666666" d="M1294.24,-308.23C1320.18,-309.64 1358.42,-311.72 1395.01,-313.71"/>
<polygon fill="#666666" stroke="#666666" points="1395.1,-317.22 1405.27,-314.27 1395.48,-310.23 1395.1,-317.22"/>
</g>
<!-- FnCall -->
<g id="node12" class="node">
<title>FnCall</title>
<path fill="none" stroke="#1c2123" d="M1276.5,-257.5C1276.5,-257.5 1246.5,-257.5 1246.5,-257.5 1240.5,-257.5 1234.5,-251.5 1234.5,-245.5 1234.5,-245.5 1234.5,-233.5 1234.5,-233.5 1234.5,-227.5 1240.5,-221.5 1246.5,-221.5 1246.5,-221.5 1276.5,-221.5 1276.5,-221.5 1282.5,-221.5 1288.5,-227.5 1288.5,-233.5 1288.5,-233.5 1288.5,-245.5 1288.5,-245.5 1288.5,-251.5 1282.5,-257.5 1276.5,-257.5"/>
<text text-anchor="middle" x="1261.5" y="-235.8" font-family="Times,serif" font-size="14.00" fill="#2f3638">FnCall</text>
</g>
<!-- stack_slice -->
<g id="node16" class="node">
<title>stack_slice</title>
<path fill="none" stroke="#1c2123" d="M1431.5,-129C1431.5,-129 1573.5,-129 1573.5,-129 1579.5,-129 1585.5,-135 1585.5,-141 1585.5,-141 1585.5,-178 1585.5,-178 1585.5,-184 1579.5,-190 1573.5,-190 1573.5,-190 1431.5,-190 1431.5,-190 1425.5,-190 1419.5,-184 1419.5,-178 1419.5,-178 1419.5,-141 1419.5,-141 1419.5,-135 1425.5,-129 1431.5,-129"/>
<text text-anchor="middle" x="1502.5" y="-174.8" font-family="Times,serif" font-size="14.00" fill="#2f3638">stack_slice</text>
<polyline fill="none" stroke="#1c2123" points="1419.5,-167 1585.5,-167 "/>
<text text-anchor="start" x="1427.5" y="-151.8" font-family="Times,serif" font-size="14.00" fill="#2f3638">取stack上最后的n个value</text>
<text text-anchor="start" x="1427.5" y="-136.8" font-family="Times,serif" font-size="14.00" fill="#2f3638"> 作为args</text>
</g>
<!-- FnCall&#45;&gt;stack_slice -->
<g id="edge16" class="edge">
<title>FnCall&#45;&gt;stack_slice</title>
<path fill="none" stroke="#666666" d="M1288.53,-230.79C1317.55,-221.07 1366.12,-204.82 1409.55,-190.28"/>
<polygon fill="#666666" stroke="#666666" points="1410.94,-193.5 1419.31,-187.01 1408.72,-186.87 1410.94,-193.5"/>
</g>
<!-- stack_push_fn -->
<g id="node17" class="node">
<title>stack_push_fn</title>
<path fill="none" stroke="#1c2123" d="M1443.5,-209C1443.5,-209 1561.5,-209 1561.5,-209 1567.5,-209 1573.5,-215 1573.5,-221 1573.5,-221 1573.5,-258 1573.5,-258 1573.5,-264 1567.5,-270 1561.5,-270 1561.5,-270 1443.5,-270 1443.5,-270 1437.5,-270 1431.5,-264 1431.5,-258 1431.5,-258 1431.5,-221 1431.5,-221 1431.5,-215 1437.5,-209 1443.5,-209"/>
<text text-anchor="middle" x="1502.5" y="-254.8" font-family="Times,serif" font-size="14.00" fill="#2f3638">stack_push</text>
<polyline fill="none" stroke="#1c2123" points="1431.5,-247 1573.5,-247 "/>
<text text-anchor="start" x="1439.5" y="-231.8" font-family="Times,serif" font-size="14.00" fill="#2f3638">将函数执行结果push</text>
<text text-anchor="start" x="1439.5" y="-216.8" font-family="Times,serif" font-size="14.00" fill="#2f3638"> 到stack上</text>
</g>
<!-- FnCall&#45;&gt;stack_push_fn -->
<g id="edge17" class="edge">
<title>FnCall&#45;&gt;stack_push_fn</title>
<path fill="none" stroke="#666666" d="M1288.53,-239.5C1320.2,-239.5 1375.17,-239.5 1421.32,-239.5"/>
<polygon fill="#666666" stroke="#666666" points="1421.33,-243 1431.33,-239.5 1421.33,-236 1421.33,-243"/>
</g>
<!-- ColumnRef -->
<g id="node13" class="node">
<title>ColumnRef</title>
<path fill="none" stroke="#1c2123" d="M1289.5,-401.5C1289.5,-401.5 1233.5,-401.5 1233.5,-401.5 1227.5,-401.5 1221.5,-395.5 1221.5,-389.5 1221.5,-389.5 1221.5,-377.5 1221.5,-377.5 1221.5,-371.5 1227.5,-365.5 1233.5,-365.5 1233.5,-365.5 1289.5,-365.5 1289.5,-365.5 1295.5,-365.5 1301.5,-371.5 1301.5,-377.5 1301.5,-377.5 1301.5,-389.5 1301.5,-389.5 1301.5,-395.5 1295.5,-401.5 1289.5,-401.5"/>
<text text-anchor="middle" x="1261.5" y="-379.8" font-family="Times,serif" font-size="14.00" fill="#2f3638">ColumnRef</text>
</g>
<!-- stack_push_column_ref -->
<g id="node15" class="node">
<title>stack_push_column_ref</title>
<path fill="none" stroke="#1c2123" d="M1417,-369.5C1417,-369.5 1588,-369.5 1588,-369.5 1594,-369.5 1600,-375.5 1600,-381.5 1600,-381.5 1600,-433.5 1600,-433.5 1600,-439.5 1594,-445.5 1588,-445.5 1588,-445.5 1417,-445.5 1417,-445.5 1411,-445.5 1405,-439.5 1405,-433.5 1405,-433.5 1405,-381.5 1405,-381.5 1405,-375.5 1411,-369.5 1417,-369.5"/>
<text text-anchor="middle" x="1502.5" y="-430.3" font-family="Times,serif" font-size="14.00" fill="#2f3638">stack_push</text>
<polyline fill="none" stroke="#1c2123" points="1405,-422.5 1600,-422.5 "/>
<text text-anchor="start" x="1413" y="-407.3" font-family="Times,serif" font-size="14.00" fill="#2f3638">push一个RpnStackNode::Vector</text>
<text text-anchor="start" x="1413" y="-392.3" font-family="Times,serif" font-size="14.00" fill="#2f3638"> RpnStackNodeVectorValue::Ref</text>
<text text-anchor="middle" x="1502.5" y="-377.3" font-family="Times,serif" font-size="14.00" fill="#2f3638"> 到stack上</text>
</g>
<!-- ColumnRef&#45;&gt;stack_push_column_ref -->
<g id="edge15" class="edge">
<title>ColumnRef&#45;&gt;stack_push_column_ref</title>
<path fill="none" stroke="#666666" d="M1301.7,-387.44C1327.08,-389.99 1361.46,-393.44 1394.54,-396.76"/>
<polygon fill="#666666" stroke="#666666" points="1394.46,-400.27 1404.76,-397.79 1395.16,-393.3 1394.46,-400.27"/>
</g>
<!-- stack -->
<g id="node18" class="node">
<title>stack</title>
<path fill="none" stroke="#1c2123" d="M1648,-256.5C1648,-256.5 1774,-256.5 1774,-256.5 1780,-256.5 1786,-262.5 1786,-268.5 1786,-268.5 1786,-290.5 1786,-290.5 1786,-296.5 1780,-302.5 1774,-302.5 1774,-302.5 1648,-302.5 1648,-302.5 1642,-302.5 1636,-296.5 1636,-290.5 1636,-290.5 1636,-268.5 1636,-268.5 1636,-262.5 1642,-256.5 1648,-256.5"/>
<text text-anchor="middle" x="1711" y="-287.3" font-family="Times,serif" font-size="14.00" fill="#2f3638">stack</text>
<polyline fill="none" stroke="#1c2123" points="1636,-279.5 1786,-279.5 "/>
<text text-anchor="middle" x="1711" y="-264.3" font-family="Times,serif" font-size="14.00" fill="#2f3638">Vector&lt;RpnStackNode&gt;</text>
</g>
<!-- stack_push_const&#45;&gt;stack -->
<g id="edge18" class="edge">
<title>stack_push_const&#45;&gt;stack</title>
<path fill="none" stroke="#666666" d="M1599.8,-300.85C1608.49,-299.16 1617.25,-297.47 1625.82,-295.81"/>
<polygon fill="#666666" stroke="#666666" points="1626.64,-299.21 1635.79,-293.88 1625.31,-292.34 1626.64,-299.21"/>
</g>
<!-- stack_push_column_ref&#45;&gt;stack -->
<g id="edge19" class="edge">
<title>stack_push_column_ref&#45;&gt;stack</title>
<path fill="none" stroke="#666666" d="M1582.82,-369.4C1588.7,-366.16 1594.48,-362.85 1600,-359.5 1625.31,-344.15 1652.21,-324.65 1673.07,-308.74"/>
<polygon fill="#666666" stroke="#666666" points="1675.25,-311.49 1681.04,-302.62 1670.98,-305.94 1675.25,-311.49"/>
</g>
<!-- stack_slice&#45;&gt;stack -->
<g id="edge20" class="edge">
<title>stack_slice&#45;&gt;stack</title>
<path fill="none" stroke="#666666" d="M1581.68,-190.03C1587.97,-193.05 1594.15,-196.22 1600,-199.5 1626,-214.08 1653.11,-233.73 1673.91,-249.91"/>
<polygon fill="#666666" stroke="#666666" points="1671.82,-252.72 1681.84,-256.15 1676.15,-247.22 1671.82,-252.72"/>
</g>
<!-- stack_push_fn&#45;&gt;stack -->
<g id="edge21" class="edge">
<title>stack_push_fn&#45;&gt;stack</title>
<path fill="none" stroke="#666666" d="M1573.7,-253.1C1590.41,-256.34 1608.42,-259.82 1625.69,-263.17"/>
<polygon fill="#666666" stroke="#666666" points="1625.28,-266.65 1635.76,-265.12 1626.61,-259.78 1625.28,-266.65"/>
</g>
<!-- eval_decoded&#45;&gt;Constant -->
<g id="edge24" class="edge">
<title>eval_decoded&#45;&gt;Constant</title>
<path fill="none" stroke="#666666" d="M1050.62,-267.74C1098.07,-276.5 1172.52,-290.25 1218.81,-298.8"/>
<polygon fill="#666666" stroke="#666666" points="1218.34,-302.27 1228.81,-300.65 1219.61,-295.39 1218.34,-302.27"/>
</g>
<!-- eval_decoded&#45;&gt;FnCall -->
<g id="edge25" class="edge">
<title>eval_decoded&#45;&gt;FnCall</title>
<path fill="none" stroke="#666666" d="M1050.62,-255.99C1099.95,-252.12 1178.47,-245.95 1224.19,-242.35"/>
<polygon fill="#666666" stroke="#666666" points="1224.55,-245.84 1234.25,-241.56 1224.01,-238.86 1224.55,-245.84"/>
</g>
<!-- eval_decoded&#45;&gt;ColumnRef -->
<g id="edge26" class="edge">
<title>eval_decoded&#45;&gt;ColumnRef</title>
<path fill="none" stroke="#666666" d="M1041.46,-277.54C1071.37,-292.68 1115.35,-314.77 1154,-333.5 1172.94,-342.68 1193.89,-352.57 1212.16,-361.11"/>
<polygon fill="#666666" stroke="#666666" points="1210.9,-364.39 1221.44,-365.44 1213.86,-358.04 1210.9,-364.39"/>
</g>
</g>
</svg>
