<?xml version="1.0" encoding="UTF-8" standalone="no"?>
<!DOCTYPE svg PUBLIC "-//W3C//DTD SVG 1.1//EN"
 "http://www.w3.org/Graphics/SVG/1.1/DTD/svg11.dtd">
<!-- Generated by graphviz version 2.47.1 (20210417.1919)
 -->
<!-- Title: dig Pages: 1 -->
<svg width="2013pt" height="669pt"
 viewBox="0.00 0.00 2013.00 669.00" xmlns="http://www.w3.org/2000/svg" xmlns:xlink="http://www.w3.org/1999/xlink">
<g id="graph0" class="graph" transform="scale(1 1) rotate(0) translate(4 665)">
<title>dig</title>
<polygon fill="white" stroke="transparent" points="-4,4 -4,-665 2009,-665 2009,4 -4,4"/>
<!-- CheckSecondaryLocks__process_write -->
<g id="node1" class="node">
<title>CheckSecondaryLocks__process_write</title>
<path fill="none" stroke="#1c2123" d="M12,-317.5C12,-317.5 179,-317.5 179,-317.5 185,-317.5 191,-323.5 191,-329.5 191,-329.5 191,-450.5 191,-450.5 191,-456.5 185,-462.5 179,-462.5 179,-462.5 12,-462.5 12,-462.5 6,-462.5 0,-456.5 0,-450.5 0,-450.5 0,-329.5 0,-329.5 0,-323.5 6,-317.5 12,-317.5"/>
<text text-anchor="start" x="8" y="-447.3" font-family="Times,serif" font-size="14.00" fill="#2f3638">CheckSecondaryLocks</text>
<text text-anchor="start" x="8" y="-432.3" font-family="Times,serif" font-size="14.00" fill="#2f3638"> process_write</text>
<polyline fill="none" stroke="#1c2123" points="0,-424.5 191,-424.5 "/>
<text text-anchor="start" x="8" y="-409.3" font-family="Times,serif" font-size="14.00" fill="#2f3638">Check locks of an async</text>
<text text-anchor="start" x="8" y="-394.3" font-family="Times,serif" font-size="14.00" fill="#2f3638"> commit transaction</text>
<polyline fill="none" stroke="#1c2123" points="0,-386.5 191,-386.5 "/>
<text text-anchor="start" x="8" y="-371.3" font-family="Times,serif" font-size="14.00" fill="#2f3638">keys: Vec&lt;Key&gt;</text>
<polyline fill="none" stroke="#1c2123" points="0,-363.5 191,-363.5 "/>
<text text-anchor="start" x="8" y="-348.3" font-family="Times,serif" font-size="14.00" fill="#2f3638">start_ts: txn_types::TimeStamp,</text>
<polyline fill="none" stroke="#1c2123" points="0,-340.5 191,-340.5 "/>
<text text-anchor="start" x="8" y="-325.3" font-family="Times,serif" font-size="14.00" fill="#2f3638">遍历每个key</text>
</g>
<!-- SnapshotReader__load_lock -->
<g id="node2" class="node">
<title>SnapshotReader__load_lock</title>
<path fill="none" stroke="#1c2123" d="M240.5,-359.5C240.5,-359.5 347.5,-359.5 347.5,-359.5 353.5,-359.5 359.5,-365.5 359.5,-371.5 359.5,-371.5 359.5,-408.5 359.5,-408.5 359.5,-414.5 353.5,-420.5 347.5,-420.5 347.5,-420.5 240.5,-420.5 240.5,-420.5 234.5,-420.5 228.5,-414.5 228.5,-408.5 228.5,-408.5 228.5,-371.5 228.5,-371.5 228.5,-365.5 234.5,-359.5 240.5,-359.5"/>
<text text-anchor="start" x="236.5" y="-405.3" font-family="Times,serif" font-size="14.00" fill="#2f3638">SnapshotReader</text>
<text text-anchor="start" x="236.5" y="-390.3" font-family="Times,serif" font-size="14.00" fill="#2f3638"> load_lock</text>
<polyline fill="none" stroke="#1c2123" points="228.5,-382.5 359.5,-382.5 "/>
<text text-anchor="start" x="236.5" y="-367.3" font-family="Times,serif" font-size="14.00" fill="#2f3638">读取key对应的lock</text>
</g>
<!-- CheckSecondaryLocks__process_write&#45;&gt;SnapshotReader__load_lock -->
<g id="edge1" class="edge">
<title>CheckSecondaryLocks__process_write&#45;&gt;SnapshotReader__load_lock</title>
<path fill="none" stroke="#666666" d="M191.01,-390C200.12,-390 209.28,-390 218.17,-390"/>
<polygon fill="#666666" stroke="#666666" points="218.46,-393.5 228.46,-390 218.46,-386.5 218.46,-393.5"/>
</g>
<!-- SnapshotReader__get_txn_commit_record -->
<g id="node3" class="node">
<title>SnapshotReader__get_txn_commit_record</title>
<path fill="none" stroke="#1c2123" d="M608,-363C608,-363 736,-363 736,-363 742,-363 748,-369 748,-375 748,-375 748,-389 748,-389 748,-395 742,-401 736,-401 736,-401 608,-401 608,-401 602,-401 596,-395 596,-389 596,-389 596,-375 596,-375 596,-369 602,-363 608,-363"/>
<text text-anchor="start" x="604" y="-385.8" font-family="Times,serif" font-size="14.00" fill="#2f3638">SnapshotReader</text>
<text text-anchor="start" x="604" y="-370.8" font-family="Times,serif" font-size="14.00" fill="#2f3638"> get_txn_commit_record</text>
</g>
<!-- CheckSecondaryLocks__process_write&#45;&gt;SnapshotReader__get_txn_commit_record -->
<g id="edge2" class="edge">
<title>CheckSecondaryLocks__process_write&#45;&gt;SnapshotReader__get_txn_commit_record</title>
<path fill="none" stroke="#666666" d="M191.25,-357.39C203.16,-354.35 215.28,-351.76 227,-350 373.37,-328.07 413.46,-329.3 560,-350 575.31,-352.16 591.47,-355.93 606.58,-360.13"/>
<polygon fill="#666666" stroke="#666666" points="605.75,-363.53 616.33,-362.94 607.69,-356.81 605.75,-363.53"/>
</g>
<!-- SecondaryLockStatus__Committed -->
<g id="node4" class="node">
<title>SecondaryLockStatus__Committed</title>
<path fill="#bcffb9" stroke="#8a8898" d="M979.5,-147C979.5,-147 1089.5,-147 1089.5,-147 1095.5,-147 1101.5,-153 1101.5,-159 1101.5,-159 1101.5,-173 1101.5,-173 1101.5,-179 1095.5,-185 1089.5,-185 1089.5,-185 979.5,-185 979.5,-185 973.5,-185 967.5,-179 967.5,-173 967.5,-173 967.5,-159 967.5,-159 967.5,-153 973.5,-147 979.5,-147"/>
<text text-anchor="start" x="975.5" y="-169.8" font-family="Times,serif" font-size="14.00" fill="#5d6179">SecondaryLockStatus</text>
<text text-anchor="start" x="975.5" y="-154.8" font-family="Times,serif" font-size="14.00" fill="#5d6179"> Committed</text>
</g>
<!-- CheckSecondaryLocks__process_write&#45;&gt;SecondaryLockStatus__Committed -->
<g id="edge3" class="edge">
<title>CheckSecondaryLocks__process_write&#45;&gt;SecondaryLockStatus__Committed</title>
<path fill="none" stroke="#666666" d="M157.55,-317.42C177.8,-297.22 201.69,-277 227,-263 327.26,-207.53 362.91,-202 477.5,-202 477.5,-202 477.5,-202 673,-202 771.52,-202 884.44,-188.52 957.25,-178.06"/>
<polygon fill="#666666" stroke="#666666" points="957.86,-181.51 967.25,-176.61 956.86,-174.58 957.86,-181.51"/>
</g>
<!-- SecondaryLockStatus__RolledBack -->
<g id="node5" class="node">
<title>SecondaryLockStatus__RolledBack</title>
<path fill="#bcffb9" stroke="#8a8898" d="M979.5,-456C979.5,-456 1089.5,-456 1089.5,-456 1095.5,-456 1101.5,-462 1101.5,-468 1101.5,-468 1101.5,-482 1101.5,-482 1101.5,-488 1095.5,-494 1089.5,-494 1089.5,-494 979.5,-494 979.5,-494 973.5,-494 967.5,-488 967.5,-482 967.5,-482 967.5,-468 967.5,-468 967.5,-462 973.5,-456 979.5,-456"/>
<text text-anchor="start" x="975.5" y="-478.8" font-family="Times,serif" font-size="14.00" fill="#5d6179">SecondaryLockStatus</text>
<text text-anchor="start" x="975.5" y="-463.8" font-family="Times,serif" font-size="14.00" fill="#5d6179"> Rollbacked</text>
</g>
<!-- CheckSecondaryLocks__process_write&#45;&gt;SecondaryLockStatus__RolledBack -->
<g id="edge4" class="edge">
<title>CheckSecondaryLocks__process_write&#45;&gt;SecondaryLockStatus__RolledBack</title>
<path fill="none" stroke="#666666" d="M191.1,-428.06C267.18,-455.23 377.51,-487 477.5,-487 477.5,-487 477.5,-487 673,-487 771.24,-487 884.44,-482.49 957.39,-479"/>
<polygon fill="#666666" stroke="#666666" points="957.59,-482.5 967.41,-478.52 957.25,-475.51 957.59,-482.5"/>
</g>
<!-- MvccTxn__mark_rollback_on_mismatching_lock -->
<g id="node6" class="node">
<title>MvccTxn__mark_rollback_on_mismatching_lock</title>
<path fill="#f5b691" stroke="#d69043" d="M1165,-399.5C1165,-399.5 1369,-399.5 1369,-399.5 1375,-399.5 1381,-405.5 1381,-411.5 1381,-411.5 1381,-478.5 1381,-478.5 1381,-484.5 1375,-490.5 1369,-490.5 1369,-490.5 1165,-490.5 1165,-490.5 1159,-490.5 1153,-484.5 1153,-478.5 1153,-478.5 1153,-411.5 1153,-411.5 1153,-405.5 1159,-399.5 1165,-399.5"/>
<text text-anchor="start" x="1161" y="-475.3" font-family="Times,serif" font-size="14.00" fill="#6b6969">MvccTxn</text>
<text text-anchor="start" x="1161" y="-460.3" font-family="Times,serif" font-size="14.00" fill="#6b6969"> mark_rollback_on_mismatching_lock</text>
<polyline fill="none" stroke="#d69043" points="1153,-452.5 1381,-452.5 "/>
<text text-anchor="start" x="1161" y="-437.3" font-family="Times,serif" font-size="14.00" fill="#6b6969">将ts加入mismatch lock</text>
<text text-anchor="start" x="1161" y="-422.3" font-family="Times,serif" font-size="14.00" fill="#6b6969"> 的rollback_t数组中</text>
<text text-anchor="start" x="1161" y="-407.3" font-family="Times,serif" font-size="14.00" fill="#6b6969"> 然后更新locks</text>
</g>
<!-- CheckSecondaryLocks__process_write&#45;&gt;MvccTxn__mark_rollback_on_mismatching_lock -->
<g id="edge5" class="edge">
<title>CheckSecondaryLocks__process_write&#45;&gt;MvccTxn__mark_rollback_on_mismatching_lock</title>
<path fill="none" stroke="#666666" d="M191.09,-421.36C203.09,-424.63 215.27,-427.63 227,-430 544.47,-494.21 628.52,-487.53 952,-504 1025.24,-507.73 1044.97,-517.74 1117,-504 1129.85,-501.55 1143,-498.01 1155.92,-493.86"/>
<polygon fill="#666666" stroke="#666666" points="1157.37,-497.07 1165.74,-490.58 1155.15,-490.43 1157.37,-497.07"/>
</g>
<!-- make_rollback -->
<g id="node7" class="node">
<title>make_rollback</title>
<path fill="none" stroke="#1c2123" d="M1195.5,-280.5C1195.5,-280.5 1338.5,-280.5 1338.5,-280.5 1344.5,-280.5 1350.5,-286.5 1350.5,-292.5 1350.5,-292.5 1350.5,-329.5 1350.5,-329.5 1350.5,-335.5 1344.5,-341.5 1338.5,-341.5 1338.5,-341.5 1195.5,-341.5 1195.5,-341.5 1189.5,-341.5 1183.5,-335.5 1183.5,-329.5 1183.5,-329.5 1183.5,-292.5 1183.5,-292.5 1183.5,-286.5 1189.5,-280.5 1195.5,-280.5"/>
<text text-anchor="start" x="1191.5" y="-326.3" font-family="Times,serif" font-size="14.00" fill="#2f3638">make_rollback</text>
<polyline fill="none" stroke="#1c2123" points="1183.5,-318.5 1350.5,-318.5 "/>
<text text-anchor="start" x="1191.5" y="-303.3" font-family="Times,serif" font-size="14.00" fill="#2f3638">创建WriteType为Rollback</text>
<text text-anchor="start" x="1191.5" y="-288.3" font-family="Times,serif" font-size="14.00" fill="#2f3638"> 类型的Write</text>
</g>
<!-- CheckSecondaryLocks__process_write&#45;&gt;make_rollback -->
<g id="edge6" class="edge">
<title>CheckSecondaryLocks__process_write&#45;&gt;make_rollback</title>
<path fill="none" stroke="#666666" d="M191.02,-343.58C202.97,-338.6 215.16,-333.92 227,-330 335.03,-294.23 363.7,-277 477.5,-277 477.5,-277 477.5,-277 673,-277 850.1,-277 1056.47,-292.3 1173.13,-302.38"/>
<polygon fill="#666666" stroke="#666666" points="1172.83,-305.86 1183.1,-303.24 1173.44,-298.89 1172.83,-305.86"/>
</g>
<!-- MvccTxn__put_write -->
<g id="node8" class="node">
<title>MvccTxn__put_write</title>
<path fill="#a2dbfa" stroke="#8a8898" d="M1855,-124.5C1855,-124.5 1990,-124.5 1990,-124.5 1996,-124.5 2002,-130.5 2002,-136.5 2002,-136.5 2002,-203.5 2002,-203.5 2002,-209.5 1996,-215.5 1990,-215.5 1990,-215.5 1855,-215.5 1855,-215.5 1849,-215.5 1843,-209.5 1843,-203.5 1843,-203.5 1843,-136.5 1843,-136.5 1843,-130.5 1849,-124.5 1855,-124.5"/>
<text text-anchor="start" x="1851" y="-200.3" font-family="Times,serif" font-size="14.00" fill="#5d6179">MvccTxn</text>
<text text-anchor="start" x="1851" y="-185.3" font-family="Times,serif" font-size="14.00" fill="#5d6179"> put_write</text>
<polyline fill="none" stroke="#8a8898" points="1843,-177.5 2002,-177.5 "/>
<text text-anchor="start" x="1851" y="-162.3" font-family="Times,serif" font-size="14.00" fill="#5d6179">写入rollback write record</text>
<text text-anchor="start" x="1851" y="-147.3" font-family="Times,serif" font-size="14.00" fill="#5d6179"> 注意这个地方用的是</text>
<text text-anchor="start" x="1851" y="-132.3" font-family="Times,serif" font-size="14.00" fill="#5d6179"> key, start_ts</text>
</g>
<!-- CheckSecondaryLocks__process_write&#45;&gt;MvccTxn__put_write -->
<g id="edge7" class="edge">
<title>CheckSecondaryLocks__process_write&#45;&gt;MvccTxn__put_write</title>
<path fill="none" stroke="#666666" d="M133.21,-317.46C155.72,-279.35 187.75,-234.55 227,-205 321.15,-134.11 359.64,-118 477.5,-118 477.5,-118 477.5,-118 1586.5,-118 1670.75,-118 1765.53,-134.26 1832.72,-148.59"/>
<polygon fill="#666666" stroke="#666666" points="1832.33,-152.09 1842.84,-150.78 1833.81,-145.25 1832.33,-152.09"/>
</g>
<!-- collapse_prev_rollback -->
<g id="node9" class="node">
<title>collapse_prev_rollback</title>
<path fill="none" stroke="#1c2123" d="M1645,-89C1645,-89 1526,-89 1526,-89 1520,-89 1514,-83 1514,-77 1514,-77 1514,-65 1514,-65 1514,-59 1520,-53 1526,-53 1526,-53 1645,-53 1645,-53 1651,-53 1657,-59 1657,-65 1657,-65 1657,-77 1657,-77 1657,-83 1651,-89 1645,-89"/>
<text text-anchor="middle" x="1585.5" y="-67.3" font-family="Times,serif" font-size="14.00" fill="#2f3638">collapse_prev_rollback</text>
</g>
<!-- CheckSecondaryLocks__process_write&#45;&gt;collapse_prev_rollback -->
<g id="edge8" class="edge">
<title>CheckSecondaryLocks__process_write&#45;&gt;collapse_prev_rollback</title>
<path fill="none" stroke="#666666" d="M108.82,-317.32C124.25,-250.45 157.61,-154.28 227,-104 317.72,-38.27 365.47,-76 477.5,-76 477.5,-76 477.5,-76 1268,-76 1348.2,-76 1439.82,-74.38 1503.78,-72.98"/>
<polygon fill="#666666" stroke="#666666" points="1503.88,-76.48 1513.8,-72.76 1503.72,-69.48 1503.88,-76.48"/>
</g>
<!-- ReleasedLocks__push -->
<g id="node10" class="node">
<title>ReleasedLocks__push</title>
<path fill="none" stroke="#1c2123" d="M535,-623C535,-623 422,-623 422,-623 416,-623 410,-617 410,-611 410,-611 410,-599 410,-599 410,-593 416,-587 422,-587 422,-587 535,-587 535,-587 541,-587 547,-593 547,-599 547,-599 547,-611 547,-611 547,-617 541,-623 535,-623"/>
<text text-anchor="middle" x="478.5" y="-601.3" font-family="Times,serif" font-size="14.00" fill="#2f3638">ReleasedLocks__push</text>
</g>
<!-- CheckSecondaryLocks__process_write&#45;&gt;ReleasedLocks__push -->
<g id="edge9" class="edge">
<title>CheckSecondaryLocks__process_write&#45;&gt;ReleasedLocks__push</title>
<path fill="none" stroke="#666666" d="M129.86,-462.73C151.77,-501.96 184.31,-547.45 227,-573 278.76,-603.97 347.24,-610.89 399.51,-610.67"/>
<polygon fill="#666666" stroke="#666666" points="399.79,-614.17 409.74,-610.54 399.69,-607.17 399.79,-614.17"/>
</g>
<!-- ReleasedLocks__new -->
<g id="node11" class="node">
<title>ReleasedLocks__new</title>
<path fill="none" stroke="#1c2123" d="M349,-661C349,-661 239,-661 239,-661 233,-661 227,-655 227,-649 227,-649 227,-637 227,-637 227,-631 233,-625 239,-625 239,-625 349,-625 349,-625 355,-625 361,-631 361,-637 361,-637 361,-649 361,-649 361,-655 355,-661 349,-661"/>
<text text-anchor="middle" x="294" y="-639.3" font-family="Times,serif" font-size="14.00" fill="#2f3638">ReleasedLocks__new</text>
</g>
<!-- CheckSecondaryLocks__process_write&#45;&gt;ReleasedLocks__new -->
<g id="edge10" class="edge">
<title>CheckSecondaryLocks__process_write&#45;&gt;ReleasedLocks__new</title>
<path fill="none" stroke="#666666" d="M126.02,-462.57C148.14,-509.7 182.27,-569.79 227,-611 230.36,-614.09 234.07,-616.95 237.97,-619.57"/>
<polygon fill="#666666" stroke="#666666" points="236.39,-622.7 246.74,-624.94 240.04,-616.73 236.39,-622.7"/>
</g>
<!-- ReleasedLocks__wake_up -->
<g id="node12" class="node">
<title>ReleasedLocks__wake_up</title>
<path fill="none" stroke="#1c2123" d="M1335.5,-581C1335.5,-581 1198.5,-581 1198.5,-581 1192.5,-581 1186.5,-575 1186.5,-569 1186.5,-569 1186.5,-557 1186.5,-557 1186.5,-551 1192.5,-545 1198.5,-545 1198.5,-545 1335.5,-545 1335.5,-545 1341.5,-545 1347.5,-551 1347.5,-557 1347.5,-557 1347.5,-569 1347.5,-569 1347.5,-575 1341.5,-581 1335.5,-581"/>
<text text-anchor="middle" x="1267" y="-559.3" font-family="Times,serif" font-size="14.00" fill="#2f3638">ReleasedLocks__wake_up</text>
</g>
<!-- CheckSecondaryLocks__process_write&#45;&gt;ReleasedLocks__wake_up -->
<g id="edge11" class="edge">
<title>CheckSecondaryLocks__process_write&#45;&gt;ReleasedLocks__wake_up</title>
<path fill="none" stroke="#666666" d="M191.12,-455.56C202.85,-461.84 214.96,-467.52 227,-472 298.63,-498.67 321.06,-489.37 397,-498 680.7,-530.26 1018.41,-550.28 1176.29,-558.58"/>
<polygon fill="#666666" stroke="#666666" points="1176.26,-562.08 1186.43,-559.11 1176.63,-555.09 1176.26,-562.08"/>
</g>
<!-- lock__mismatch -->
<g id="node13" class="node">
<title>lock__mismatch</title>
<path fill="#a2dbfa" stroke="#8a8898" d="M409,-359.5C409,-359.5 548,-359.5 548,-359.5 554,-359.5 560,-365.5 560,-371.5 560,-371.5 560,-408.5 560,-408.5 560,-414.5 554,-420.5 548,-420.5 548,-420.5 409,-420.5 409,-420.5 403,-420.5 397,-414.5 397,-408.5 397,-408.5 397,-371.5 397,-371.5 397,-365.5 403,-359.5 409,-359.5"/>
<text text-anchor="start" x="405" y="-405.3" font-family="Times,serif" font-size="14.00" fill="#5d6179">lock mismatch</text>
<polyline fill="none" stroke="#8a8898" points="397,-397.5 560,-397.5 "/>
<text text-anchor="start" x="405" y="-382.3" font-family="Times,serif" font-size="14.00" fill="#5d6179">1. lock为None</text>
<text text-anchor="start" x="405" y="-367.3" font-family="Times,serif" font-size="14.00" fill="#5d6179"> 2. 或者Lock.ts != start_ts</text>
</g>
<!-- SnapshotReader__load_lock&#45;&gt;lock__mismatch -->
<g id="edge12" class="edge">
<title>SnapshotReader__load_lock&#45;&gt;lock__mismatch</title>
<path fill="none" stroke="#666666" d="M359.6,-390C368.49,-390 377.74,-390 386.99,-390"/>
<polygon fill="#666666" stroke="#666666" points="387,-393.5 397,-390 387,-386.5 387,-393.5"/>
</g>
<!-- TxnCommitRecord__None -->
<g id="node16" class="node">
<title>TxnCommitRecord__None</title>
<path fill="none" stroke="#1c2123" d="M800.5,-363C800.5,-363 899.5,-363 899.5,-363 905.5,-363 911.5,-369 911.5,-375 911.5,-375 911.5,-389 911.5,-389 911.5,-395 905.5,-401 899.5,-401 899.5,-401 800.5,-401 800.5,-401 794.5,-401 788.5,-395 788.5,-389 788.5,-389 788.5,-375 788.5,-375 788.5,-369 794.5,-363 800.5,-363"/>
<text text-anchor="start" x="796.5" y="-385.8" font-family="Times,serif" font-size="14.00" fill="#2f3638">TxnCommitRecord</text>
<text text-anchor="start" x="796.5" y="-370.8" font-family="Times,serif" font-size="14.00" fill="#2f3638"> None</text>
</g>
<!-- SnapshotReader__get_txn_commit_record&#45;&gt;TxnCommitRecord__None -->
<g id="edge15" class="edge">
<title>SnapshotReader__get_txn_commit_record&#45;&gt;TxnCommitRecord__None</title>
<path fill="none" stroke="green" stroke-dasharray="5,2" d="M748.15,-382C758.14,-382 768.35,-382 778.25,-382"/>
<polygon fill="green" stroke="green" points="778.45,-385.5 788.45,-382 778.45,-378.5 778.45,-385.5"/>
</g>
<!-- TxnCommitRecord__SingleRecord -->
<g id="node17" class="node">
<title>TxnCommitRecord__SingleRecord</title>
<path fill="none" stroke="#1c2123" d="M800.5,-306C800.5,-306 899.5,-306 899.5,-306 905.5,-306 911.5,-312 911.5,-318 911.5,-318 911.5,-332 911.5,-332 911.5,-338 905.5,-344 899.5,-344 899.5,-344 800.5,-344 800.5,-344 794.5,-344 788.5,-338 788.5,-332 788.5,-332 788.5,-318 788.5,-318 788.5,-312 794.5,-306 800.5,-306"/>
<text text-anchor="start" x="796.5" y="-328.8" font-family="Times,serif" font-size="14.00" fill="#2f3638">TxnCommitRecord</text>
<text text-anchor="start" x="796.5" y="-313.8" font-family="Times,serif" font-size="14.00" fill="#2f3638"> SingleRecord</text>
</g>
<!-- SnapshotReader__get_txn_commit_record&#45;&gt;TxnCommitRecord__SingleRecord -->
<g id="edge16" class="edge">
<title>SnapshotReader__get_txn_commit_record&#45;&gt;TxnCommitRecord__SingleRecord</title>
<path fill="none" stroke="green" stroke-dasharray="5,2" d="M732.1,-362.86C747.56,-357.85 764.36,-352.41 780.28,-347.25"/>
<polygon fill="green" stroke="green" points="781.63,-350.5 790.06,-344.09 779.47,-343.84 781.63,-350.5"/>
</g>
<!-- TxnCommitRecord__OverlappedRollback -->
<g id="node18" class="node">
<title>TxnCommitRecord__OverlappedRollback</title>
<path fill="none" stroke="#1c2123" d="M796,-420C796,-420 904,-420 904,-420 910,-420 916,-426 916,-432 916,-432 916,-446 916,-446 916,-452 910,-458 904,-458 904,-458 796,-458 796,-458 790,-458 784,-452 784,-446 784,-446 784,-432 784,-432 784,-426 790,-420 796,-420"/>
<text text-anchor="start" x="792" y="-442.8" font-family="Times,serif" font-size="14.00" fill="#2f3638">TxnCommitRecord</text>
<text text-anchor="start" x="792" y="-427.8" font-family="Times,serif" font-size="14.00" fill="#2f3638"> OverlappedRollback</text>
</g>
<!-- SnapshotReader__get_txn_commit_record&#45;&gt;TxnCommitRecord__OverlappedRollback -->
<g id="edge17" class="edge">
<title>SnapshotReader__get_txn_commit_record&#45;&gt;TxnCommitRecord__OverlappedRollback</title>
<path fill="none" stroke="green" stroke-dasharray="5,2" d="M732.1,-401.14C747.56,-406.15 764.36,-411.59 780.28,-416.75"/>
<polygon fill="green" stroke="green" points="779.47,-420.16 790.06,-419.91 781.63,-413.5 779.47,-420.16"/>
</g>
<!-- SecondaryLockStatus__RolledBack&#45;&gt;ReleasedLocks__wake_up -->
<g id="edge34" class="edge">
<title>SecondaryLockStatus__RolledBack&#45;&gt;ReleasedLocks__wake_up</title>
<path fill="none" stroke="green" stroke-dasharray="5,2" d="M1085.52,-494.09C1122.01,-508.03 1171.52,-526.93 1209.46,-541.41"/>
<polygon fill="green" stroke="green" points="1208.24,-544.7 1218.84,-544.99 1210.74,-538.16 1208.24,-544.7"/>
</g>
<!-- Lock__rollback_ts__push -->
<g id="node23" class="node">
<title>Lock__rollback_ts__push</title>
<path fill="none" stroke="#1c2123" d="M1519,-366C1519,-366 1652,-366 1652,-366 1658,-366 1664,-372 1664,-378 1664,-378 1664,-430 1664,-430 1664,-436 1658,-442 1652,-442 1652,-442 1519,-442 1519,-442 1513,-442 1507,-436 1507,-430 1507,-430 1507,-378 1507,-378 1507,-372 1513,-366 1519,-366"/>
<text text-anchor="start" x="1515" y="-426.8" font-family="Times,serif" font-size="14.00" fill="#2f3638">Lock</text>
<text text-anchor="start" x="1515" y="-411.8" font-family="Times,serif" font-size="14.00" fill="#2f3638"> rollback_ts::push</text>
<polyline fill="none" stroke="#1c2123" points="1507,-404 1664,-404 "/>
<text text-anchor="start" x="1515" y="-388.8" font-family="Times,serif" font-size="14.00" fill="#2f3638">将事务ts加入rollback_ts</text>
<text text-anchor="start" x="1515" y="-373.8" font-family="Times,serif" font-size="14.00" fill="#2f3638"> 数组</text>
</g>
<!-- MvccTxn__mark_rollback_on_mismatching_lock&#45;&gt;Lock__rollback_ts__push -->
<g id="edge35" class="edge">
<title>MvccTxn__mark_rollback_on_mismatching_lock&#45;&gt;Lock__rollback_ts__push</title>
<path fill="none" stroke="#666666" d="M1381.37,-430.31C1419.15,-425.42 1460.64,-420.04 1496.23,-415.43"/>
<polygon fill="#666666" stroke="#666666" points="1497.12,-418.85 1506.58,-414.09 1496.22,-411.91 1497.12,-418.85"/>
</g>
<!-- MvccTxn__put_lock -->
<g id="node24" class="node">
<title>MvccTxn__put_lock</title>
<path fill="#a2dbfa" stroke="#8a8898" d="M1870.5,-407.5C1870.5,-407.5 1974.5,-407.5 1974.5,-407.5 1980.5,-407.5 1986.5,-413.5 1986.5,-419.5 1986.5,-419.5 1986.5,-456.5 1986.5,-456.5 1986.5,-462.5 1980.5,-468.5 1974.5,-468.5 1974.5,-468.5 1870.5,-468.5 1870.5,-468.5 1864.5,-468.5 1858.5,-462.5 1858.5,-456.5 1858.5,-456.5 1858.5,-419.5 1858.5,-419.5 1858.5,-413.5 1864.5,-407.5 1870.5,-407.5"/>
<text text-anchor="start" x="1866.5" y="-453.3" font-family="Times,serif" font-size="14.00" fill="#5d6179">MvccTxn</text>
<text text-anchor="start" x="1866.5" y="-438.3" font-family="Times,serif" font-size="14.00" fill="#5d6179"> put_lock</text>
<polyline fill="none" stroke="#8a8898" points="1858.5,-430.5 1986.5,-430.5 "/>
<text text-anchor="start" x="1866.5" y="-415.3" font-family="Times,serif" font-size="14.00" fill="#5d6179">更新mistached lock</text>
</g>
<!-- MvccTxn__mark_rollback_on_mismatching_lock&#45;&gt;MvccTxn__put_lock -->
<g id="edge36" class="edge">
<title>MvccTxn__mark_rollback_on_mismatching_lock&#45;&gt;MvccTxn__put_lock</title>
<path fill="none" stroke="green" stroke-dasharray="5,2" d="M1381.05,-448.99C1420.86,-450.22 1465.91,-451.4 1507,-452 1576.77,-453.02 1594.25,-453.89 1664,-452 1726.2,-450.31 1796.76,-446.33 1848.27,-443.04"/>
<polygon fill="green" stroke="green" points="1848.56,-446.53 1858.31,-442.39 1848.11,-439.55 1848.56,-446.53"/>
</g>
<!-- Write -->
<g id="node21" class="node">
<title>Write</title>
<path fill="none" stroke="#1c2123" d="M1459,-203C1459,-203 1429,-203 1429,-203 1423,-203 1417,-197 1417,-191 1417,-191 1417,-179 1417,-179 1417,-173 1423,-167 1429,-167 1429,-167 1459,-167 1459,-167 1465,-167 1471,-173 1471,-179 1471,-179 1471,-191 1471,-191 1471,-197 1465,-203 1459,-203"/>
<text text-anchor="middle" x="1444" y="-181.3" font-family="Times,serif" font-size="14.00" fill="#2f3638">Write</text>
</g>
<!-- make_rollback&#45;&gt;Write -->
<g id="edge26" class="edge">
<title>make_rollback&#45;&gt;Write</title>
<path fill="none" stroke="#666666" d="M1350.77,-284.16C1361.44,-278.98 1371.83,-272.95 1381,-266 1400.35,-251.34 1416.76,-229.15 1427.83,-211.7"/>
<polygon fill="#666666" stroke="#666666" points="1430.87,-213.43 1433.11,-203.07 1424.9,-209.77 1430.87,-213.43"/>
</g>
<!-- SnapshotReader__seek_write -->
<g id="node14" class="node">
<title>SnapshotReader__seek_write</title>
<path fill="none" stroke="#1c2123" d="M1712,-51C1712,-51 1792,-51 1792,-51 1798,-51 1804,-57 1804,-63 1804,-63 1804,-77 1804,-77 1804,-83 1798,-89 1792,-89 1792,-89 1712,-89 1712,-89 1706,-89 1700,-83 1700,-77 1700,-77 1700,-63 1700,-63 1700,-57 1706,-51 1712,-51"/>
<text text-anchor="start" x="1708" y="-73.8" font-family="Times,serif" font-size="14.00" fill="#2f3638">SnapshotReader</text>
<text text-anchor="start" x="1708" y="-58.8" font-family="Times,serif" font-size="14.00" fill="#2f3638"> seek_write</text>
</g>
<!-- collapse_prev_rollback&#45;&gt;SnapshotReader__seek_write -->
<g id="edge30" class="edge">
<title>collapse_prev_rollback&#45;&gt;SnapshotReader__seek_write</title>
<path fill="none" stroke="#666666" d="M1657.22,-70.57C1667.93,-70.5 1678.91,-70.44 1689.4,-70.37"/>
<polygon fill="#666666" stroke="#666666" points="1689.73,-73.87 1699.71,-70.31 1689.69,-66.87 1689.73,-73.87"/>
</g>
<!-- MvccTxn__delete_write -->
<g id="node15" class="node">
<title>MvccTxn__delete_write</title>
<path fill="#a2dbfa" stroke="#8a8898" d="M1852,-0.5C1852,-0.5 1993,-0.5 1993,-0.5 1999,-0.5 2005,-6.5 2005,-12.5 2005,-12.5 2005,-79.5 2005,-79.5 2005,-85.5 1999,-91.5 1993,-91.5 1993,-91.5 1852,-91.5 1852,-91.5 1846,-91.5 1840,-85.5 1840,-79.5 1840,-79.5 1840,-12.5 1840,-12.5 1840,-6.5 1846,-0.5 1852,-0.5"/>
<text text-anchor="start" x="1848" y="-76.3" font-family="Times,serif" font-size="14.00" fill="#5d6179">MvccTxn</text>
<text text-anchor="start" x="1848" y="-61.3" font-family="Times,serif" font-size="14.00" fill="#5d6179"> delete_write</text>
<polyline fill="none" stroke="#8a8898" points="1840,-53.5 2005,-53.5 "/>
<text text-anchor="start" x="1848" y="-38.3" font-family="Times,serif" font-size="14.00" fill="#5d6179">删除之前的Rollback类型</text>
<text text-anchor="start" x="1848" y="-23.3" font-family="Times,serif" font-size="14.00" fill="#5d6179"> 并且没被protected</text>
<text text-anchor="start" x="1848" y="-8.3" font-family="Times,serif" font-size="14.00" fill="#5d6179"> 的Write</text>
</g>
<!-- collapse_prev_rollback&#45;&gt;MvccTxn__delete_write -->
<g id="edge31" class="edge">
<title>collapse_prev_rollback&#45;&gt;MvccTxn__delete_write</title>
<path fill="none" stroke="#666666" d="M1643.08,-52.97C1661.08,-48.07 1681.2,-43.44 1700,-41 1742.46,-35.48 1789.88,-35.71 1829.91,-37.73"/>
<polygon fill="#666666" stroke="#666666" points="1829.74,-41.22 1839.92,-38.28 1830.13,-34.23 1829.74,-41.22"/>
</g>
<!-- ReleasedLocks__push&#45;&gt;ReleasedLocks__wake_up -->
<g id="edge33" class="edge">
<title>ReleasedLocks__push&#45;&gt;ReleasedLocks__wake_up</title>
<path fill="none" stroke="green" stroke-dasharray="5,2" d="M547.03,-603.14C663.46,-599.68 909.5,-591.3 1117,-577 1136.2,-575.68 1156.77,-573.95 1176.3,-572.16"/>
<polygon fill="green" stroke="green" points="1176.78,-575.63 1186.41,-571.22 1176.13,-568.66 1176.78,-575.63"/>
</g>
<!-- ReleasedLocks__new&#45;&gt;ReleasedLocks__push -->
<g id="edge32" class="edge">
<title>ReleasedLocks__new&#45;&gt;ReleasedLocks__push</title>
<path fill="none" stroke="green" stroke-dasharray="5,2" d="M361.14,-629.23C373.62,-626.63 386.78,-623.89 399.57,-621.23"/>
<polygon fill="green" stroke="green" points="400.66,-624.57 409.74,-619.11 399.24,-617.72 400.66,-624.57"/>
</g>
<!-- lock__mismatch&#45;&gt;SnapshotReader__get_txn_commit_record -->
<g id="edge14" class="edge">
<title>lock__mismatch&#45;&gt;SnapshotReader__get_txn_commit_record</title>
<path fill="none" stroke="green" stroke-dasharray="5,2" d="M560.16,-386.63C568.59,-386.28 577.18,-385.92 585.66,-385.57"/>
<polygon fill="green" stroke="green" points="586.08,-389.05 595.93,-385.14 585.79,-382.06 586.08,-389.05"/>
</g>
<!-- SnapshotReader__seek_write&#45;&gt;MvccTxn__delete_write -->
<g id="edge13" class="edge">
<title>SnapshotReader__seek_write&#45;&gt;MvccTxn__delete_write</title>
<path fill="none" stroke="green" stroke-dasharray="5,2" d="M1804.01,-62.73C1812.25,-61.56 1820.99,-60.32 1829.83,-59.06"/>
<polygon fill="green" stroke="green" points="1830.44,-62.5 1839.85,-57.63 1829.46,-55.57 1830.44,-62.5"/>
</g>
<!-- TxnCommitRecord__None&#45;&gt;SecondaryLockStatus__RolledBack -->
<g id="edge21" class="edge">
<title>TxnCommitRecord__None&#45;&gt;SecondaryLockStatus__RolledBack</title>
<path fill="none" stroke="#666666" d="M899.3,-401.14C905.1,-404.13 910.81,-407.43 916,-411 934.64,-423.82 932.81,-435.02 952,-447 954.58,-448.61 957.27,-450.14 960.03,-451.6"/>
<polygon fill="#666666" stroke="#666666" points="958.51,-454.76 969.03,-455.99 961.58,-448.46 958.51,-454.76"/>
</g>
<!-- need_rollback -->
<g id="node19" class="node">
<title>need_rollback</title>
<path fill="#feed9b" stroke="#f7e495" d="M966,-331C966,-331 1103,-331 1103,-331 1109,-331 1115,-337 1115,-343 1115,-343 1115,-425 1115,-425 1115,-431 1109,-437 1103,-437 1103,-437 966,-437 966,-437 960,-437 954,-431 954,-425 954,-425 954,-343 954,-343 954,-337 960,-331 966,-331"/>
<text text-anchor="start" x="962" y="-421.8" font-family="Times,serif" font-size="14.00" fill="#40575d">need_rollback</text>
<polyline fill="none" stroke="#f7e495" points="954,-414 1115,-414 "/>
<text text-anchor="start" x="962" y="-398.8" font-family="Times,serif" font-size="14.00" fill="#40575d">to prevent the status</text>
<text text-anchor="start" x="962" y="-383.8" font-family="Times,serif" font-size="14.00" fill="#40575d"> to being changed</text>
<text text-anchor="start" x="962" y="-368.8" font-family="Times,serif" font-size="14.00" fill="#40575d"> a rollback may be written</text>
<text text-anchor="start" x="962" y="-353.8" font-family="Times,serif" font-size="14.00" fill="#40575d"> and this rollback need to</text>
<text text-anchor="start" x="962" y="-338.8" font-family="Times,serif" font-size="14.00" fill="#40575d"> be protected</text>
</g>
<!-- TxnCommitRecord__None&#45;&gt;need_rollback -->
<g id="edge22" class="edge">
<title>TxnCommitRecord__None&#45;&gt;need_rollback</title>
<path fill="none" stroke="#666666" d="M911.52,-382.66C921.92,-382.78 932.93,-382.9 943.91,-383.02"/>
<polygon fill="#666666" stroke="#666666" points="943.93,-386.52 953.97,-383.13 944.01,-379.52 943.93,-386.52"/>
</g>
<!-- overlapped_write -->
<g id="node20" class="node">
<title>overlapped_write</title>
<path fill="none" stroke="#1c2123" d="M964,-204.5C964,-204.5 1105,-204.5 1105,-204.5 1111,-204.5 1117,-210.5 1117,-216.5 1117,-216.5 1117,-261.5 1117,-261.5 1117,-267.5 1111,-273.5 1105,-273.5 1105,-273.5 964,-273.5 964,-273.5 958,-273.5 952,-267.5 952,-261.5 952,-261.5 952,-216.5 952,-216.5 952,-210.5 958,-204.5 964,-204.5"/>
<text text-anchor="start" x="960" y="-258.3" font-family="Times,serif" font-size="14.00" fill="#2f3638">OverlappedWrite</text>
<polyline fill="none" stroke="#1c2123" points="952,-250.5 1117,-250.5 "/>
<text text-anchor="start" x="960" y="-235.3" font-family="Times,serif" font-size="14.00" fill="#2f3638">pub write: Write,</text>
<polyline fill="none" stroke="#1c2123" points="952,-227.5 1117,-227.5 "/>
<text text-anchor="start" x="960" y="-212.3" font-family="Times,serif" font-size="14.00" fill="#2f3638">pub gc_fence: TimeStamp,</text>
</g>
<!-- TxnCommitRecord__None&#45;&gt;overlapped_write -->
<g id="edge23" class="edge">
<title>TxnCommitRecord__None&#45;&gt;overlapped_write</title>
<path fill="none" stroke="#666666" d="M900.64,-362.92C905.98,-360.2 911.2,-357.22 916,-354 924.7,-348.17 962.03,-311.24 992.31,-280.78"/>
<polygon fill="#666666" stroke="#666666" points="994.88,-283.16 999.44,-273.6 989.91,-278.23 994.88,-283.16"/>
</g>
<!-- TxnCommitRecord__SingleRecord&#45;&gt;SecondaryLockStatus__Committed -->
<g id="edge18" class="edge">
<title>TxnCommitRecord__SingleRecord&#45;&gt;SecondaryLockStatus__Committed</title>
<path fill="none" stroke="green" stroke-dasharray="5,2" d="M861.13,-305.87C876.95,-277.75 910.08,-225.31 952,-195 954.48,-193.21 957.07,-191.52 959.76,-189.93"/>
<polygon fill="green" stroke="green" points="961.44,-193 968.58,-185.17 958.11,-186.84 961.44,-193"/>
</g>
<!-- TxnCommitRecord__SingleRecord&#45;&gt;SecondaryLockStatus__RolledBack -->
<g id="edge19" class="edge">
<title>TxnCommitRecord__SingleRecord&#45;&gt;SecondaryLockStatus__RolledBack</title>
<path fill="none" stroke="green" stroke-dasharray="5,2" d="M903.83,-344.03C908.27,-346.93 912.42,-350.24 916,-354 946.54,-386.12 920.06,-416.27 952,-447 954.12,-449.04 956.4,-450.94 958.8,-452.69"/>
<polygon fill="green" stroke="green" points="957.04,-455.72 967.35,-458.15 960.8,-449.82 957.04,-455.72"/>
</g>
<!-- TxnCommitRecord__OverlappedRollback&#45;&gt;SecondaryLockStatus__RolledBack -->
<g id="edge20" class="edge">
<title>TxnCommitRecord__OverlappedRollback&#45;&gt;SecondaryLockStatus__RolledBack</title>
<path fill="none" stroke="green" stroke-dasharray="5,2" d="M916.11,-451.84C929.54,-454.49 943.79,-457.3 957.56,-460.02"/>
<polygon fill="green" stroke="green" points="957,-463.48 967.49,-461.98 958.36,-456.61 957,-463.48"/>
</g>
<!-- need_rollback&#45;&gt;MvccTxn__mark_rollback_on_mismatching_lock -->
<g id="edge24" class="edge">
<title>need_rollback&#45;&gt;MvccTxn__mark_rollback_on_mismatching_lock</title>
<path fill="none" stroke="#666666" d="M1115.15,-405.08C1124.23,-407.48 1133.63,-409.97 1143.11,-412.48"/>
<polygon fill="#666666" stroke="#666666" points="1142.43,-415.92 1152.99,-415.09 1144.22,-409.15 1142.43,-415.92"/>
</g>
<!-- need_rollback&#45;&gt;make_rollback -->
<g id="edge25" class="edge">
<title>need_rollback&#45;&gt;make_rollback</title>
<path fill="none" stroke="#666666" d="M1115.15,-358.78C1133.96,-352.82 1154.18,-346.41 1173.5,-340.29"/>
<polygon fill="#666666" stroke="#666666" points="1174.74,-343.57 1183.21,-337.22 1172.62,-336.9 1174.74,-343.57"/>
</g>
<!-- overlapped_write&#45;&gt;Write -->
<g id="edge39" class="edge">
<title>overlapped_write&#45;&gt;Write</title>
<path fill="none" stroke="#666666" d="M1117.23,-251.26C1188.86,-258.78 1294.72,-261.98 1381,-232 1394.52,-227.3 1407.47,-218.44 1418.01,-209.66"/>
<polygon fill="#666666" stroke="#666666" points="1420.35,-212.26 1425.57,-203.04 1415.74,-207 1420.35,-212.26"/>
</g>
<!-- Write__set_ovelapped_rollback -->
<g id="node22" class="node">
<title>Write__set_ovelapped_rollback</title>
<path fill="none" stroke="#1c2123" d="M1186.5,-147C1186.5,-147 1347.5,-147 1347.5,-147 1353.5,-147 1359.5,-153 1359.5,-159 1359.5,-159 1359.5,-211 1359.5,-211 1359.5,-217 1353.5,-223 1347.5,-223 1347.5,-223 1186.5,-223 1186.5,-223 1180.5,-223 1174.5,-217 1174.5,-211 1174.5,-211 1174.5,-159 1174.5,-159 1174.5,-153 1180.5,-147 1186.5,-147"/>
<text text-anchor="start" x="1182.5" y="-207.8" font-family="Times,serif" font-size="14.00" fill="#2f3638">Write</text>
<text text-anchor="start" x="1182.5" y="-192.8" font-family="Times,serif" font-size="14.00" fill="#2f3638"> set_ovelapped_rollback</text>
<text text-anchor="start" x="1182.5" y="-177.8" font-family="Times,serif" font-size="14.00" fill="#2f3638"> 设置has_overlapped_rollback</text>
<polyline fill="none" stroke="#1c2123" points="1174.5,-170 1359.5,-170 "/>
<text text-anchor="start" x="1182.5" y="-154.8" font-family="Times,serif" font-size="14.00" fill="#2f3638">和gc_fenece</text>
</g>
<!-- overlapped_write&#45;&gt;Write__set_ovelapped_rollback -->
<g id="edge38" class="edge">
<title>overlapped_write&#45;&gt;Write__set_ovelapped_rollback</title>
<path fill="none" stroke="#666666" d="M1117.09,-219.89C1132.43,-216.29 1148.63,-212.5 1164.49,-208.78"/>
<polygon fill="#666666" stroke="#666666" points="1165.37,-212.17 1174.31,-206.48 1163.77,-205.35 1165.37,-212.17"/>
</g>
<!-- Write&#45;&gt;MvccTxn__put_write -->
<g id="edge28" class="edge">
<title>Write&#45;&gt;MvccTxn__put_write</title>
<path fill="none" stroke="green" stroke-dasharray="5,2" d="M1471.3,-184.17C1539.03,-182.04 1721.89,-176.28 1832.62,-172.8"/>
<polygon fill="green" stroke="green" points="1832.88,-176.29 1842.77,-172.48 1832.66,-169.29 1832.88,-176.29"/>
</g>
<!-- Write&#45;&gt;collapse_prev_rollback -->
<g id="edge29" class="edge">
<title>Write&#45;&gt;collapse_prev_rollback</title>
<path fill="none" stroke="green" stroke-dasharray="5,2" d="M1467.1,-166.94C1490.64,-147.71 1528.03,-117.15 1554.28,-95.7"/>
<polygon fill="green" stroke="green" points="1556.51,-98.39 1562.04,-89.36 1552.08,-92.97 1556.51,-98.39"/>
</g>
<!-- Write__set_ovelapped_rollback&#45;&gt;Write -->
<g id="edge27" class="edge">
<title>Write__set_ovelapped_rollback&#45;&gt;Write</title>
<path fill="none" stroke="green" stroke-dasharray="5,2" d="M1359.6,-185C1376.34,-185 1392.88,-185 1406.76,-185"/>
<polygon fill="green" stroke="green" points="1406.81,-188.5 1416.81,-185 1406.81,-181.5 1406.81,-188.5"/>
</g>
<!-- Lock__rollback_ts__push&#45;&gt;MvccTxn__put_lock -->
<g id="edge37" class="edge">
<title>Lock__rollback_ts__push&#45;&gt;MvccTxn__put_lock</title>
<path fill="none" stroke="green" stroke-dasharray="5,2" d="M1664.2,-411.89C1719.58,-417.51 1793.56,-425.02 1847.98,-430.54"/>
<polygon fill="green" stroke="green" points="1847.94,-434.05 1858.24,-431.58 1848.65,-427.09 1847.94,-434.05"/>
</g>
</g>
</svg>
