<?xml version="1.0" encoding="UTF-8" standalone="no"?>
<!DOCTYPE svg PUBLIC "-//W3C//DTD SVG 1.1//EN"
 "http://www.w3.org/Graphics/SVG/1.1/DTD/svg11.dtd">
<!-- Generated by graphviz version 2.47.1 (20210417.1919)
 -->
<!-- Title: dig Pages: 1 -->
<svg width="1803pt" height="537pt"
 viewBox="0.00 0.00 1803.00 537.02" xmlns="http://www.w3.org/2000/svg" xmlns:xlink="http://www.w3.org/1999/xlink">
<g id="graph0" class="graph" transform="scale(1 1) rotate(0) translate(4 533.02)">
<title>dig</title>
<polygon fill="white" stroke="transparent" points="-4,4 -4,-533.02 1799,-533.02 1799,4 -4,4"/>
<!-- twoPhaseCommitter__execute -->
<g id="node1" class="node">
<title>twoPhaseCommitter__execute</title>
<path fill="none" stroke="#1c2123" d="M12,-365.5C12,-365.5 116,-365.5 116,-365.5 122,-365.5 128,-371.5 128,-377.5 128,-377.5 128,-414.5 128,-414.5 128,-420.5 122,-426.5 116,-426.5 116,-426.5 12,-426.5 12,-426.5 6,-426.5 0,-420.5 0,-414.5 0,-414.5 0,-377.5 0,-377.5 0,-371.5 6,-365.5 12,-365.5"/>
<text text-anchor="start" x="8" y="-411.3" font-family="Times,serif" font-size="14.00" fill="#2f3638">twoPhaseCommitter</text>
<text text-anchor="start" x="8" y="-396.3" font-family="Times,serif" font-size="14.00" fill="#2f3638"> execute</text>
<polyline fill="none" stroke="#1c2123" points="0,-388.5 128,-388.5 "/>
<text text-anchor="start" x="8" y="-373.3" font-family="Times,serif" font-size="14.00" fill="#2f3638">执行事务</text>
</g>
<!-- twoPhaseCommitter__checkAsyncCommit -->
<g id="node2" class="node">
<title>twoPhaseCommitter__checkAsyncCommit</title>
<path fill="none" stroke="#1c2123" d="M176,-302C176,-302 284,-302 284,-302 290,-302 296,-308 296,-314 296,-314 296,-366 296,-366 296,-372 290,-378 284,-378 284,-378 176,-378 176,-378 170,-378 164,-372 164,-366 164,-366 164,-314 164,-314 164,-308 170,-302 176,-302"/>
<text text-anchor="start" x="172" y="-362.8" font-family="Times,serif" font-size="14.00" fill="#2f3638">twoPhaseCommitter</text>
<text text-anchor="start" x="172" y="-347.8" font-family="Times,serif" font-size="14.00" fill="#2f3638"> checkAsyncCommit</text>
<polyline fill="none" stroke="#1c2123" points="164,-340 296,-340 "/>
<text text-anchor="start" x="172" y="-324.8" font-family="Times,serif" font-size="14.00" fill="#2f3638">检查是否可以</text>
<text text-anchor="start" x="172" y="-309.8" font-family="Times,serif" font-size="14.00" fill="#2f3638"> 采用asyncCommit</text>
</g>
<!-- twoPhaseCommitter__execute&#45;&gt;twoPhaseCommitter__checkAsyncCommit -->
<g id="edge1" class="edge">
<title>twoPhaseCommitter__execute&#45;&gt;twoPhaseCommitter__checkAsyncCommit</title>
<path fill="none" stroke="#666666" d="M128.41,-374.35C136.85,-371.46 145.58,-368.48 154.2,-365.54"/>
<polygon fill="#666666" stroke="#666666" points="155.53,-368.78 163.87,-362.24 153.27,-362.16 155.53,-368.78"/>
</g>
<!-- twoPhaseCommitter__setAsyncCommit -->
<g id="node3" class="node">
<title>twoPhaseCommitter__setAsyncCommit</title>
<path fill="none" stroke="#1c2123" d="M1249,-341.5C1249,-341.5 1353,-341.5 1353,-341.5 1359,-341.5 1365,-347.5 1365,-353.5 1365,-353.5 1365,-390.5 1365,-390.5 1365,-396.5 1359,-402.5 1353,-402.5 1353,-402.5 1249,-402.5 1249,-402.5 1243,-402.5 1237,-396.5 1237,-390.5 1237,-390.5 1237,-353.5 1237,-353.5 1237,-347.5 1243,-341.5 1249,-341.5"/>
<text text-anchor="start" x="1245" y="-387.3" font-family="Times,serif" font-size="14.00" fill="#2f3638">twoPhaseCommitter</text>
<text text-anchor="start" x="1245" y="-372.3" font-family="Times,serif" font-size="14.00" fill="#2f3638"> setAsyncCommit</text>
<polyline fill="none" stroke="#1c2123" points="1237,-364.5 1365,-364.5 "/>
<text text-anchor="start" x="1245" y="-349.3" font-family="Times,serif" font-size="14.00" fill="#2f3638">设置atomic var</text>
</g>
<!-- twoPhaseCommitter__execute&#45;&gt;twoPhaseCommitter__setAsyncCommit -->
<g id="edge2" class="edge">
<title>twoPhaseCommitter__execute&#45;&gt;twoPhaseCommitter__setAsyncCommit</title>
<path fill="none" stroke="#666666" d="M122.86,-426.65C194.94,-461.9 322.84,-515 439.5,-515 439.5,-515 439.5,-515 804,-515 981.02,-515 1042.5,-561.82 1201,-483 1232.75,-467.21 1258.92,-436.43 1276.36,-411.27"/>
<polygon fill="#666666" stroke="#666666" points="1279.49,-412.9 1282.17,-402.65 1273.68,-408.99 1279.49,-412.9"/>
</g>
<!-- twoPhaseCommitter__mutations -->
<g id="node4" class="node">
<title>twoPhaseCommitter__mutations</title>
<path fill="none" stroke="#1c2123" d="M344,-395.5C344,-395.5 537,-395.5 537,-395.5 543,-395.5 549,-401.5 549,-407.5 549,-407.5 549,-474.5 549,-474.5 549,-480.5 543,-486.5 537,-486.5 537,-486.5 344,-486.5 344,-486.5 338,-486.5 332,-480.5 332,-474.5 332,-474.5 332,-407.5 332,-407.5 332,-401.5 338,-395.5 344,-395.5"/>
<text text-anchor="start" x="340" y="-471.3" font-family="Times,serif" font-size="14.00" fill="#2f3638">twoPhaseCommitter</text>
<text text-anchor="start" x="340" y="-456.3" font-family="Times,serif" font-size="14.00" fill="#2f3638"> mutations</text>
<polyline fill="none" stroke="#1c2123" points="332,-448.5 549,-448.5 "/>
<text text-anchor="start" x="340" y="-433.3" font-family="Times,serif" font-size="14.00" fill="#2f3638">遍历mutations</text>
<text text-anchor="start" x="340" y="-418.3" font-family="Times,serif" font-size="14.00" fill="#2f3638"> 计算事务所有keys大小</text>
<text text-anchor="start" x="340" y="-403.3" font-family="Times,serif" font-size="14.00" fill="#2f3638"> 和配置中的totalKeysLimit做比较</text>
</g>
<!-- twoPhaseCommitter__execute&#45;&gt;twoPhaseCommitter__mutations -->
<g id="edge3" class="edge">
<title>twoPhaseCommitter__execute&#45;&gt;twoPhaseCommitter__mutations</title>
<path fill="none" stroke="#666666" d="M128.11,-403.58C180.84,-409.92 257.48,-419.13 321.53,-426.82"/>
<polygon fill="#666666" stroke="#666666" points="321.35,-430.33 331.69,-428.05 322.18,-423.38 321.35,-430.33"/>
</g>
<!-- AsyncCommit__TotalKeySizeLimit -->
<g id="node5" class="node">
<title>AsyncCommit__TotalKeySizeLimit</title>
<path fill="none" stroke="#1c2123" d="M1000,-0.5C1000,-0.5 1141,-0.5 1141,-0.5 1147,-0.5 1153,-6.5 1153,-12.5 1153,-12.5 1153,-41.5 1153,-41.5 1153,-47.5 1147,-53.5 1141,-53.5 1141,-53.5 1000,-53.5 1000,-53.5 994,-53.5 988,-47.5 988,-41.5 988,-41.5 988,-12.5 988,-12.5 988,-6.5 994,-0.5 1000,-0.5"/>
<text text-anchor="start" x="996" y="-38.3" font-family="Times,serif" font-size="14.00" fill="#2f3638">AsyncCommit</text>
<text text-anchor="start" x="996" y="-23.3" font-family="Times,serif" font-size="14.00" fill="#2f3638"> TotalKeySizeLimit</text>
<text text-anchor="start" x="996" y="-8.3" font-family="Times,serif" font-size="14.00" fill="#2f3638"> 是否超过了keySizeLimit</text>
</g>
<!-- twoPhaseCommitter__execute&#45;&gt;AsyncCommit__TotalKeySizeLimit -->
<g id="edge4" class="edge">
<title>twoPhaseCommitter__execute&#45;&gt;AsyncCommit__TotalKeySizeLimit</title>
<path fill="none" stroke="#666666" d="M78.83,-365.34C120.11,-278.99 251.34,-40 439.5,-40 439.5,-40 439.5,-40 626.5,-40 748,-40 888.17,-35.05 977.75,-31.26"/>
<polygon fill="#666666" stroke="#666666" points="978.03,-34.75 987.87,-30.83 977.73,-27.76 978.03,-34.75"/>
</g>
<!-- twoPhaseCommitter__checkAsyncCommit&#45;&gt;twoPhaseCommitter__mutations -->
<g id="edge7" class="edge">
<title>twoPhaseCommitter__checkAsyncCommit&#45;&gt;twoPhaseCommitter__mutations</title>
<path fill="none" stroke="#666666" d="M296.11,-371.54C308.95,-377.76 322.72,-384.43 336.46,-391.09"/>
<polygon fill="#666666" stroke="#666666" points="334.95,-394.24 345.47,-395.45 338,-387.94 334.95,-394.24"/>
</g>
<!-- Config -->
<g id="node8" class="node">
<title>Config</title>
<path fill="none" stroke="#1c2123" d="M455.5,-247C455.5,-247 425.5,-247 425.5,-247 419.5,-247 413.5,-241 413.5,-235 413.5,-235 413.5,-223 413.5,-223 413.5,-217 419.5,-211 425.5,-211 425.5,-211 455.5,-211 455.5,-211 461.5,-211 467.5,-217 467.5,-223 467.5,-223 467.5,-235 467.5,-235 467.5,-241 461.5,-247 455.5,-247"/>
<text text-anchor="middle" x="440.5" y="-225.3" font-family="Times,serif" font-size="14.00" fill="#2f3638">Config</text>
</g>
<!-- twoPhaseCommitter__checkAsyncCommit&#45;&gt;Config -->
<g id="edge8" class="edge">
<title>twoPhaseCommitter__checkAsyncCommit&#45;&gt;Config</title>
<path fill="none" stroke="#666666" d="M272.31,-301.97C289.72,-287.52 310.83,-271.93 332,-261 354.45,-249.41 381.77,-241.35 403.24,-236.21"/>
<polygon fill="#666666" stroke="#666666" points="404.3,-239.56 413.27,-233.93 402.74,-232.74 404.3,-239.56"/>
</g>
<!-- GlobalTxnScope -->
<g id="node9" class="node">
<title>GlobalTxnScope</title>
<path fill="none" stroke="#1c2123" d="M1003.5,-372C1003.5,-372 1137.5,-372 1137.5,-372 1143.5,-372 1149.5,-378 1149.5,-384 1149.5,-384 1149.5,-436 1149.5,-436 1149.5,-442 1143.5,-448 1137.5,-448 1137.5,-448 1003.5,-448 1003.5,-448 997.5,-448 991.5,-442 991.5,-436 991.5,-436 991.5,-384 991.5,-384 991.5,-378 997.5,-372 1003.5,-372"/>
<text text-anchor="start" x="999.5" y="-432.8" font-family="Times,serif" font-size="14.00" fill="#2f3638">GlobalTxnScope</text>
<polyline fill="none" stroke="#1c2123" points="991.5,-425 1149.5,-425 "/>
<text text-anchor="start" x="999.5" y="-409.8" font-family="Times,serif" font-size="14.00" fill="#2f3638">如果事务的scope不是</text>
<text text-anchor="start" x="999.5" y="-394.8" font-family="Times,serif" font-size="14.00" fill="#2f3638"> GlobalTxnScope</text>
<text text-anchor="start" x="999.5" y="-379.8" font-family="Times,serif" font-size="14.00" fill="#2f3638"> 就不开启AsyncCommit</text>
</g>
<!-- twoPhaseCommitter__checkAsyncCommit&#45;&gt;GlobalTxnScope -->
<g id="edge9" class="edge">
<title>twoPhaseCommitter__checkAsyncCommit&#45;&gt;GlobalTxnScope</title>
<path fill="none" stroke="#666666" d="M296.14,-348.88C308.06,-350.36 320.39,-351.81 332,-353 565.99,-377.08 842.69,-395.88 981.2,-404.63"/>
<polygon fill="#666666" stroke="#666666" points="981.13,-408.14 991.33,-405.27 981.57,-401.15 981.13,-408.14"/>
</g>
<!-- enableAsyncCommit -->
<g id="node10" class="node">
<title>enableAsyncCommit</title>
<path fill="none" stroke="#1c2123" d="M1124.5,-353C1124.5,-353 1016.5,-353 1016.5,-353 1010.5,-353 1004.5,-347 1004.5,-341 1004.5,-341 1004.5,-329 1004.5,-329 1004.5,-323 1010.5,-317 1016.5,-317 1016.5,-317 1124.5,-317 1124.5,-317 1130.5,-317 1136.5,-323 1136.5,-329 1136.5,-329 1136.5,-341 1136.5,-341 1136.5,-347 1130.5,-353 1124.5,-353"/>
<text text-anchor="middle" x="1070.5" y="-331.3" font-family="Times,serif" font-size="14.00" fill="#2f3638">enableAsyncCommit</text>
</g>
<!-- twoPhaseCommitter__checkAsyncCommit&#45;&gt;enableAsyncCommit -->
<g id="edge10" class="edge">
<title>twoPhaseCommitter__checkAsyncCommit&#45;&gt;enableAsyncCommit</title>
<path fill="none" stroke="#666666" d="M296.1,-339.61C449.15,-338.7 831.18,-336.42 994.04,-335.45"/>
<polygon fill="#666666" stroke="#666666" points="994.46,-338.95 1004.44,-335.39 994.42,-331.95 994.46,-338.95"/>
</g>
<!-- twoPhaseCommitter__shouldWriteBinlog -->
<g id="node11" class="node">
<title>twoPhaseCommitter__shouldWriteBinlog</title>
<path fill="none" stroke="#1c2123" d="M981.5,-222C981.5,-222 1159.5,-222 1159.5,-222 1165.5,-222 1171.5,-228 1171.5,-234 1171.5,-234 1171.5,-286 1171.5,-286 1171.5,-292 1165.5,-298 1159.5,-298 1159.5,-298 981.5,-298 981.5,-298 975.5,-298 969.5,-292 969.5,-286 969.5,-286 969.5,-234 969.5,-234 969.5,-228 975.5,-222 981.5,-222"/>
<text text-anchor="start" x="977.5" y="-282.8" font-family="Times,serif" font-size="14.00" fill="#2f3638">twoPhaseCommitter</text>
<text text-anchor="start" x="977.5" y="-267.8" font-family="Times,serif" font-size="14.00" fill="#2f3638"> shouldWriteBinlog</text>
<polyline fill="none" stroke="#1c2123" points="969.5,-260 1171.5,-260 "/>
<text text-anchor="start" x="977.5" y="-244.8" font-family="Times,serif" font-size="14.00" fill="#2f3638">Async Commit和binlog不兼容</text>
<text text-anchor="start" x="977.5" y="-229.8" font-family="Times,serif" font-size="14.00" fill="#2f3638"> 因为non unique timestamp issue</text>
</g>
<!-- twoPhaseCommitter__checkAsyncCommit&#45;&gt;twoPhaseCommitter__shouldWriteBinlog -->
<g id="edge11" class="edge">
<title>twoPhaseCommitter__checkAsyncCommit&#45;&gt;twoPhaseCommitter__shouldWriteBinlog</title>
<path fill="none" stroke="#666666" d="M296.1,-333.79C439.06,-320.15 781.8,-287.45 959.09,-270.53"/>
<polygon fill="#666666" stroke="#666666" points="959.6,-274 969.23,-269.57 958.94,-267.03 959.6,-274"/>
</g>
<!-- twoPhaseCommitter__useAsycnCommit -->
<g id="node6" class="node">
<title>twoPhaseCommitter__useAsycnCommit</title>
<path fill="#feed9b" stroke="#f7e495" d="M1413,-334C1413,-334 1564,-334 1564,-334 1570,-334 1576,-340 1576,-346 1576,-346 1576,-398 1576,-398 1576,-404 1570,-410 1564,-410 1564,-410 1413,-410 1413,-410 1407,-410 1401,-404 1401,-398 1401,-398 1401,-346 1401,-346 1401,-340 1407,-334 1413,-334"/>
<text text-anchor="start" x="1409" y="-394.8" font-family="Times,serif" font-size="14.00" fill="#40575d">twoPhaseCommitter</text>
<text text-anchor="start" x="1409" y="-379.8" font-family="Times,serif" font-size="14.00" fill="#40575d"> useAsycnCommit</text>
<polyline fill="none" stroke="#f7e495" points="1401,-372 1576,-372 "/>
<text text-anchor="start" x="1409" y="-356.8" font-family="Times,serif" font-size="14.00" fill="#40575d">检查结果保存在atomic var</text>
<text text-anchor="start" x="1409" y="-341.8" font-family="Times,serif" font-size="14.00" fill="#40575d"> useAsyncCommit中</text>
</g>
<!-- twoPhaseCommitter__setAsyncCommit&#45;&gt;twoPhaseCommitter__useAsycnCommit -->
<g id="edge6" class="edge">
<title>twoPhaseCommitter__setAsyncCommit&#45;&gt;twoPhaseCommitter__useAsycnCommit</title>
<path fill="none" stroke="#666666" d="M1365.06,-372C1373.36,-372 1382.02,-372 1390.73,-372"/>
<polygon fill="#666666" stroke="#666666" points="1390.95,-375.5 1400.95,-372 1390.95,-368.5 1390.95,-375.5"/>
</g>
<!-- twoPhaseCommitter__mutations&#45;&gt;twoPhaseCommitter__setAsyncCommit -->
<g id="edge19" class="edge">
<title>twoPhaseCommitter__mutations&#45;&gt;twoPhaseCommitter__setAsyncCommit</title>
<path fill="none" stroke="green" stroke-dasharray="5,2" d="M549.21,-453.15C729.7,-471.89 1084.87,-501.4 1201,-458 1226.94,-448.31 1250.58,-428.41 1268.24,-410.2"/>
<polygon fill="green" stroke="green" points="1271.15,-412.22 1275.44,-402.53 1266.05,-407.43 1271.15,-412.22"/>
</g>
<!-- AsyncCommit__TotalKeySizeLimit&#45;&gt;twoPhaseCommitter__setAsyncCommit -->
<g id="edge20" class="edge">
<title>AsyncCommit__TotalKeySizeLimit&#45;&gt;twoPhaseCommitter__setAsyncCommit</title>
<path fill="none" stroke="green" stroke-dasharray="5,2" d="M1153.23,-36.71C1170.74,-42.11 1187.88,-50.38 1201,-63 1276.34,-135.47 1294.48,-265.24 1298.75,-331.16"/>
<polygon fill="green" stroke="green" points="1295.26,-331.39 1299.32,-341.17 1302.25,-330.99 1295.26,-331.39"/>
</g>
<!-- twoPhaseCommitter__isAsyncCommit -->
<g id="node7" class="node">
<title>twoPhaseCommitter__isAsyncCommit</title>
<path fill="#a2dbfa" stroke="#8a8898" d="M1624,-334C1624,-334 1783,-334 1783,-334 1789,-334 1795,-340 1795,-346 1795,-346 1795,-398 1795,-398 1795,-404 1789,-410 1783,-410 1783,-410 1624,-410 1624,-410 1618,-410 1612,-404 1612,-398 1612,-398 1612,-346 1612,-346 1612,-340 1618,-334 1624,-334"/>
<text text-anchor="start" x="1620" y="-394.8" font-family="Times,serif" font-size="14.00" fill="#5d6179">twoPhaseCommitter</text>
<text text-anchor="start" x="1620" y="-379.8" font-family="Times,serif" font-size="14.00" fill="#5d6179"> isAsyncCommit</text>
<polyline fill="none" stroke="#8a8898" points="1612,-372 1795,-372 "/>
<text text-anchor="start" x="1620" y="-356.8" font-family="Times,serif" font-size="14.00" fill="#5d6179">load atomic var</text>
<text text-anchor="start" x="1620" y="-341.8" font-family="Times,serif" font-size="14.00" fill="#5d6179"> 返回是否使用async commit</text>
</g>
<!-- twoPhaseCommitter__useAsycnCommit&#45;&gt;twoPhaseCommitter__isAsyncCommit -->
<g id="edge5" class="edge">
<title>twoPhaseCommitter__useAsycnCommit&#45;&gt;twoPhaseCommitter__isAsyncCommit</title>
<path fill="none" stroke="green" stroke-dasharray="5,2" d="M1576.14,-372C1584.58,-372 1593.2,-372 1601.76,-372"/>
<polygon fill="green" stroke="green" points="1601.78,-375.5 1611.78,-372 1601.78,-368.5 1601.78,-375.5"/>
</g>
<!-- TiKVClient -->
<g id="node12" class="node">
<title>TiKVClient</title>
<path fill="none" stroke="#1c2123" d="M654,-202C654,-202 597,-202 597,-202 591,-202 585,-196 585,-190 585,-190 585,-178 585,-178 585,-172 591,-166 597,-166 597,-166 654,-166 654,-166 660,-166 666,-172 666,-178 666,-178 666,-190 666,-190 666,-196 660,-202 654,-202"/>
<text text-anchor="middle" x="625.5" y="-180.3" font-family="Times,serif" font-size="14.00" fill="#2f3638">TiKVClient</text>
</g>
<!-- Config&#45;&gt;TiKVClient -->
<g id="edge15" class="edge">
<title>Config&#45;&gt;TiKVClient</title>
<path fill="none" stroke="#666666" d="M467.72,-222.55C495.6,-215.7 540.37,-204.69 574.94,-196.19"/>
<polygon fill="#666666" stroke="#666666" points="575.98,-199.54 584.85,-193.75 574.31,-192.74 575.98,-199.54"/>
</g>
<!-- GlobalTxnScope&#45;&gt;twoPhaseCommitter__setAsyncCommit -->
<g id="edge12" class="edge">
<title>GlobalTxnScope&#45;&gt;twoPhaseCommitter__setAsyncCommit</title>
<path fill="none" stroke="green" stroke-dasharray="5,2" d="M1149.82,-396.98C1174.8,-392.82 1202.33,-388.24 1226.92,-384.15"/>
<polygon fill="green" stroke="green" points="1227.62,-387.59 1236.91,-382.49 1226.47,-380.68 1227.62,-387.59"/>
</g>
<!-- enableAsyncCommit&#45;&gt;twoPhaseCommitter__setAsyncCommit -->
<g id="edge13" class="edge">
<title>enableAsyncCommit&#45;&gt;twoPhaseCommitter__setAsyncCommit</title>
<path fill="none" stroke="green" stroke-dasharray="5,2" d="M1136.67,-345.55C1164.76,-350.1 1197.72,-355.44 1226.66,-360.12"/>
<polygon fill="green" stroke="green" points="1226.28,-363.61 1236.71,-361.75 1227.4,-356.7 1226.28,-363.61"/>
</g>
<!-- twoPhaseCommitter__shouldWriteBinlog&#45;&gt;twoPhaseCommitter__setAsyncCommit -->
<g id="edge14" class="edge">
<title>twoPhaseCommitter__shouldWriteBinlog&#45;&gt;twoPhaseCommitter__setAsyncCommit</title>
<path fill="none" stroke="green" stroke-dasharray="5,2" d="M1171.78,-294.66C1181.78,-298.86 1191.67,-303.33 1201,-308 1216.91,-315.97 1233.43,-325.91 1248.31,-335.56"/>
<polygon fill="green" stroke="green" points="1246.59,-338.61 1256.87,-341.19 1250.44,-332.77 1246.59,-338.61"/>
</g>
<!-- AsyncCommit -->
<g id="node13" class="node">
<title>AsyncCommit</title>
<path fill="none" stroke="#1c2123" d="M714,-80.5C714,-80.5 892,-80.5 892,-80.5 898,-80.5 904,-86.5 904,-92.5 904,-92.5 904,-183.5 904,-183.5 904,-189.5 898,-195.5 892,-195.5 892,-195.5 714,-195.5 714,-195.5 708,-195.5 702,-189.5 702,-183.5 702,-183.5 702,-92.5 702,-92.5 702,-86.5 708,-80.5 714,-80.5"/>
<text text-anchor="start" x="710" y="-180.3" font-family="Times,serif" font-size="14.00" fill="#2f3638">AsyncCommit</text>
<polyline fill="none" stroke="#1c2123" points="702,-172.5 904,-172.5 "/>
<text text-anchor="start" x="710" y="-157.3" font-family="Times,serif" font-size="14.00" fill="#2f3638">KeysLimit uint</text>
<polyline fill="none" stroke="#1c2123" points="702,-149.5 904,-149.5 "/>
<text text-anchor="start" x="710" y="-134.3" font-family="Times,serif" font-size="14.00" fill="#2f3638">TotalKeySizeLimit uint64</text>
<polyline fill="none" stroke="#1c2123" points="702,-126.5 904,-126.5 "/>
<text text-anchor="start" x="710" y="-111.3" font-family="Times,serif" font-size="14.00" fill="#2f3638">SafeWindow time.Duration</text>
<polyline fill="none" stroke="#1c2123" points="702,-103.5 904,-103.5 "/>
<text text-anchor="start" x="710" y="-88.3" font-family="Times,serif" font-size="14.00" fill="#2f3638">AllowedClockDrift time.Duration</text>
</g>
<!-- TiKVClient&#45;&gt;AsyncCommit -->
<g id="edge16" class="edge">
<title>TiKVClient&#45;&gt;AsyncCommit</title>
<path fill="none" stroke="#666666" d="M666.32,-173.56C674.27,-171.48 682.97,-169.2 692.01,-166.83"/>
<polygon fill="#666666" stroke="#666666" points="693.15,-170.15 701.94,-164.23 691.38,-163.38 693.15,-170.15"/>
</g>
<!-- AsyncCommit&#45;&gt;AsyncCommit__TotalKeySizeLimit -->
<g id="edge17" class="edge">
<title>AsyncCommit&#45;&gt;AsyncCommit__TotalKeySizeLimit</title>
<path fill="none" stroke="#666666" d="M902.22,-80.36C914.72,-74.06 927.52,-68.1 940,-63 952.05,-58.08 965,-53.6 977.88,-49.59"/>
<polygon fill="#666666" stroke="#666666" points="979.14,-52.86 987.7,-46.62 977.12,-46.16 979.14,-52.86"/>
</g>
<!-- AsyncCommit__Default -->
<g id="node14" class="node">
<title>AsyncCommit__Default</title>
<path fill="#bcffb9" stroke="#8a8898" d="M952,-73C952,-73 1189,-73 1189,-73 1195,-73 1201,-79 1201,-85 1201,-85 1201,-191 1201,-191 1201,-197 1195,-203 1189,-203 1189,-203 952,-203 952,-203 946,-203 940,-197 940,-191 940,-191 940,-85 940,-85 940,-79 946,-73 952,-73"/>
<text text-anchor="start" x="948" y="-187.8" font-family="Times,serif" font-size="14.00" fill="#5d6179">AsyncCommit</text>
<text text-anchor="start" x="948" y="-172.8" font-family="Times,serif" font-size="14.00" fill="#5d6179"> TotalKeySizeLimit</text>
<polyline fill="none" stroke="#8a8898" points="940,-165 1201,-165 "/>
<text text-anchor="start" x="948" y="-149.8" font-family="Times,serif" font-size="14.00" fill="#5d6179">KeysLimit: 256,</text>
<polyline fill="none" stroke="#8a8898" points="940,-142 1201,-142 "/>
<text text-anchor="start" x="948" y="-126.8" font-family="Times,serif" font-size="14.00" fill="#5d6179">TotalKeySizeLimit: 4 * 1024</text>
<polyline fill="none" stroke="#8a8898" points="940,-119 1201,-119 "/>
<text text-anchor="start" x="948" y="-103.8" font-family="Times,serif" font-size="14.00" fill="#5d6179">SafeWindow: 2 * time.Second,</text>
<polyline fill="none" stroke="#8a8898" points="940,-96 1201,-96 "/>
<text text-anchor="start" x="948" y="-80.8" font-family="Times,serif" font-size="14.00" fill="#5d6179">AllowedClockDrift: 500 * time.Millisecond,</text>
</g>
<!-- AsyncCommit&#45;&gt;AsyncCommit__Default -->
<g id="edge18" class="edge">
<title>AsyncCommit&#45;&gt;AsyncCommit__Default</title>
<path fill="none" stroke="#666666" d="M904.37,-138C912.71,-138 921.23,-138 929.79,-138"/>
<polygon fill="#666666" stroke="#666666" points="929.85,-141.5 939.85,-138 929.85,-134.5 929.85,-141.5"/>
</g>
</g>
</svg>
