<?xml version="1.0" encoding="UTF-8" standalone="no"?>
<!DOCTYPE svg PUBLIC "-//W3C//DTD SVG 1.1//EN"
 "http://www.w3.org/Graphics/SVG/1.1/DTD/svg11.dtd">
<!-- Generated by graphviz version 2.44.1 (20200629.0846)
 -->
<!-- Title: CommitProcessWrite Pages: 1 -->
<svg width="761pt" height="333pt"
 viewBox="0.00 0.00 761.00 333.00" xmlns="http://www.w3.org/2000/svg" xmlns:xlink="http://www.w3.org/1999/xlink">
<g id="graph0" class="graph" transform="scale(1 1) rotate(0) translate(4 329)">
<title>CommitProcessWrite</title>
<polygon fill="white" stroke="transparent" points="-4,4 -4,-329 757,-329 757,4 -4,4"/>
<g id="clust1" class="cluster">
<title>cluster_MvccReader</title>
<path fill="none" stroke="slategrey" stroke-dasharray="5,2" d="M365,-46C365,-46 505,-46 505,-46 511,-46 517,-52 517,-58 517,-58 517,-170 517,-170 517,-176 511,-182 505,-182 505,-182 365,-182 365,-182 359,-182 353,-176 353,-170 353,-170 353,-58 353,-58 353,-52 359,-46 365,-46"/>
<text text-anchor="middle" x="435" y="-162" font-family="Times,serif" font-size="20.00">MvccReader</text>
</g>
<g id="clust2" class="cluster">
<title>cluster_ReleaseLocks</title>
<path fill="none" stroke="slategrey" stroke-dasharray="5,2" d="M20,-181C20,-181 133,-181 133,-181 139,-181 145,-187 145,-193 145,-193 145,-305 145,-305 145,-311 139,-317 133,-317 133,-317 20,-317 20,-317 14,-317 8,-311 8,-305 8,-305 8,-193 8,-193 8,-187 14,-181 20,-181"/>
<text text-anchor="middle" x="76.5" y="-297" font-family="Times,serif" font-size="20.00">ReleaseLocks</text>
</g>
<g id="clust3" class="cluster">
<title>cluster_MvccTxn</title>
<path fill="none" stroke="slategrey" stroke-dasharray="5,2" d="M203.5,-208C203.5,-208 733,-208 733,-208 739,-208 745,-214 745,-220 745,-220 745,-278 745,-278 745,-284 739,-290 733,-290 733,-290 203.5,-290 203.5,-290 197.5,-290 191.5,-284 191.5,-278 191.5,-278 191.5,-220 191.5,-220 191.5,-214 197.5,-208 203.5,-208"/>
<text text-anchor="middle" x="468.25" y="-270" font-family="Times,serif" font-size="20.00">MvccTxn</text>
</g>
<!-- load_lock -->
<g id="node1" class="node">
<title>load_lock</title>
<path fill="none" stroke="#1c2123" d="M458,-144C458,-144 412,-144 412,-144 406,-144 400,-138 400,-132 400,-132 400,-120 400,-120 400,-114 406,-108 412,-108 412,-108 458,-108 458,-108 464,-108 470,-114 470,-120 470,-120 470,-132 470,-132 470,-138 464,-144 458,-144"/>
<text text-anchor="middle" x="435" y="-122.3" font-family="Times,serif" font-size="14.00" fill="#2f3638">load_lock</text>
</g>
<!-- get_txn_commit_record -->
<g id="node2" class="node">
<title>get_txn_commit_record</title>
<path fill="none" stroke="#1c2123" d="M497,-90C497,-90 373,-90 373,-90 367,-90 361,-84 361,-78 361,-78 361,-66 361,-66 361,-60 367,-54 373,-54 373,-54 497,-54 497,-54 503,-54 509,-60 509,-66 509,-66 509,-78 509,-78 509,-84 503,-90 497,-90"/>
<text text-anchor="middle" x="435" y="-68.3" font-family="Times,serif" font-size="14.00" fill="#2f3638">get_txn_commit_record</text>
</g>
<!-- ReleaseLocks_new -->
<g id="node3" class="node">
<title>ReleaseLocks_new</title>
<path fill="none" stroke="#1c2123" d="M125,-279C125,-279 28,-279 28,-279 22,-279 16,-273 16,-267 16,-267 16,-255 16,-255 16,-249 22,-243 28,-243 28,-243 125,-243 125,-243 131,-243 137,-249 137,-255 137,-255 137,-267 137,-267 137,-273 131,-279 125,-279"/>
<text text-anchor="middle" x="76.5" y="-257.3" font-family="Times,serif" font-size="14.00" fill="#2f3638">ReleaseLocks_new</text>
</g>
<!-- wake_up -->
<g id="node4" class="node">
<title>wake_up</title>
<path fill="none" stroke="#1c2123" d="M97,-225C97,-225 56,-225 56,-225 50,-225 44,-219 44,-213 44,-213 44,-201 44,-201 44,-195 50,-189 56,-189 56,-189 97,-189 97,-189 103,-189 109,-195 109,-201 109,-201 109,-213 109,-213 109,-219 103,-225 97,-225"/>
<text text-anchor="middle" x="76.5" y="-203.3" font-family="Times,serif" font-size="14.00" fill="#2f3638">wake_up</text>
</g>
<!-- into_modifies -->
<g id="node5" class="node">
<title>into_modifies</title>
<path fill="none" stroke="#1c2123" d="M725,-252C725,-252 657,-252 657,-252 651,-252 645,-246 645,-240 645,-240 645,-228 645,-228 645,-222 651,-216 657,-216 657,-216 725,-216 725,-216 731,-216 737,-222 737,-228 737,-228 737,-240 737,-240 737,-246 731,-252 725,-252"/>
<text text-anchor="middle" x="691" y="-230.3" font-family="Times,serif" font-size="14.00" fill="#2f3638">into_modifies</text>
</g>
<!-- MvccTxn_new -->
<g id="node6" class="node">
<title>MvccTxn_new</title>
<path fill="none" stroke="#1c2123" d="M286.5,-252C286.5,-252 211.5,-252 211.5,-252 205.5,-252 199.5,-246 199.5,-240 199.5,-240 199.5,-228 199.5,-228 199.5,-222 205.5,-216 211.5,-216 211.5,-216 286.5,-216 286.5,-216 292.5,-216 298.5,-222 298.5,-228 298.5,-228 298.5,-240 298.5,-240 298.5,-246 292.5,-252 286.5,-252"/>
<text text-anchor="middle" x="249" y="-230.3" font-family="Times,serif" font-size="14.00" fill="#2f3638">MvccTxn_new</text>
</g>
<!-- put_write -->
<g id="node7" class="node">
<title>put_write</title>
<path fill="none" stroke="#1c2123" d="M457,-252C457,-252 413,-252 413,-252 407,-252 401,-246 401,-240 401,-240 401,-228 401,-228 401,-222 407,-216 413,-216 413,-216 457,-216 457,-216 463,-216 469,-222 469,-228 469,-228 469,-240 469,-240 469,-246 463,-252 457,-252"/>
<text text-anchor="middle" x="435" y="-230.3" font-family="Times,serif" font-size="14.00" fill="#2f3638">put_write</text>
</g>
<!-- modifies -->
<g id="node8" class="node">
<title>modifies</title>
<path fill="none" stroke="#1c2123" d="M597,-252C597,-252 557,-252 557,-252 551,-252 545,-246 545,-240 545,-240 545,-228 545,-228 545,-222 551,-216 557,-216 557,-216 597,-216 597,-216 603,-216 609,-222 609,-228 609,-228 609,-240 609,-240 609,-246 603,-252 597,-252"/>
<text text-anchor="middle" x="577" y="-230.3" font-family="Times,serif" font-size="14.00" fill="#2f3638">modifies</text>
</g>
<!-- put_write&#45;&gt;modifies -->
<g id="edge1" class="edge">
<title>put_write&#45;&gt;modifies</title>
<path fill="none" stroke="green" stroke-dasharray="5,2" d="M469.18,-234C488.82,-234 513.88,-234 534.78,-234"/>
<polygon fill="green" stroke="green" points="534.98,-237.5 544.98,-234 534.98,-230.5 534.98,-237.5"/>
</g>
<!-- modifies&#45;&gt;into_modifies -->
<g id="edge2" class="edge">
<title>modifies&#45;&gt;into_modifies</title>
<path fill="none" stroke="green" stroke-dasharray="5,2" d="M609.2,-234C617.11,-234 625.84,-234 634.56,-234"/>
<polygon fill="green" stroke="green" points="634.74,-237.5 644.74,-234 634.74,-230.5 634.74,-237.5"/>
</g>
<!-- process_write -->
<g id="node9" class="node">
<title>process_write</title>
<path fill="none" stroke="#1c2123" d="M110.5,-171C110.5,-171 42.5,-171 42.5,-171 36.5,-171 30.5,-165 30.5,-159 30.5,-159 30.5,-147 30.5,-147 30.5,-141 36.5,-135 42.5,-135 42.5,-135 110.5,-135 110.5,-135 116.5,-135 122.5,-141 122.5,-147 122.5,-147 122.5,-159 122.5,-159 122.5,-165 116.5,-171 110.5,-171"/>
<text text-anchor="middle" x="76.5" y="-149.3" font-family="Times,serif" font-size="14.00" fill="#2f3638">process_write</text>
</g>
<!-- process_write&#45;&gt;into_modifies -->
<g id="edge3" class="edge">
<title>process_write&#45;&gt;into_modifies</title>
<path fill="none" stroke="#666666" d="M122.62,-162.61C130.87,-166.04 138.82,-170.69 145,-177 172.55,-205.1 141.08,-237.99 173,-261 314.48,-362.97 538.51,-294.85 638.67,-255.9"/>
<polygon fill="#666666" stroke="#666666" points="640.24,-259.04 648.25,-252.11 637.66,-252.53 640.24,-259.04"/>
</g>
<!-- process_write&#45;&gt;MvccTxn_new -->
<g id="edge4" class="edge">
<title>process_write&#45;&gt;MvccTxn_new</title>
<path fill="none" stroke="#666666" d="M122.51,-165.59C130.33,-168.72 138.14,-172.5 145,-177 160.25,-187.01 157.77,-196.96 173,-207 178.23,-210.45 183.96,-213.52 189.84,-216.24"/>
<polygon fill="#666666" stroke="#666666" points="188.6,-219.52 199.17,-220.24 191.36,-213.08 188.6,-219.52"/>
</g>
<!-- ReleasedLocks_new -->
<g id="node10" class="node">
<title>ReleasedLocks_new</title>
<path fill="none" stroke="#1c2123" d="M301,-198C301,-198 197,-198 197,-198 191,-198 185,-192 185,-186 185,-186 185,-174 185,-174 185,-168 191,-162 197,-162 197,-162 301,-162 301,-162 307,-162 313,-168 313,-174 313,-174 313,-186 313,-186 313,-192 307,-198 301,-198"/>
<text text-anchor="middle" x="249" y="-176.3" font-family="Times,serif" font-size="14.00" fill="#2f3638">ReleasedLocks_new</text>
</g>
<!-- process_write&#45;&gt;ReleasedLocks_new -->
<g id="edge5" class="edge">
<title>process_write&#45;&gt;ReleasedLocks_new</title>
<path fill="none" stroke="#666666" d="M122.74,-160.16C138.66,-162.69 156.98,-165.59 174.62,-168.38"/>
<polygon fill="#666666" stroke="#666666" points="174.47,-171.9 184.89,-170.01 175.56,-164.99 174.47,-171.9"/>
</g>
<!-- released_locks_wake_up -->
<g id="node11" class="node">
<title>released_locks_wake_up</title>
<path fill="none" stroke="#1c2123" d="M313,-144C313,-144 185,-144 185,-144 179,-144 173,-138 173,-132 173,-132 173,-120 173,-120 173,-114 179,-108 185,-108 185,-108 313,-108 313,-108 319,-108 325,-114 325,-120 325,-120 325,-132 325,-132 325,-138 319,-144 313,-144"/>
<text text-anchor="middle" x="249" y="-122.3" font-family="Times,serif" font-size="14.00" fill="#2f3638">released_locks_wake_up</text>
</g>
<!-- process_write&#45;&gt;released_locks_wake_up -->
<g id="edge6" class="edge">
<title>process_write&#45;&gt;released_locks_wake_up</title>
<path fill="none" stroke="#666666" d="M122.74,-145.84C135.13,-143.87 148.97,-141.68 162.81,-139.49"/>
<polygon fill="#666666" stroke="#666666" points="163.53,-142.92 172.86,-137.9 162.44,-136.01 163.53,-142.92"/>
</g>
<!-- commit -->
<g id="node12" class="node">
<title>commit</title>
<path fill="none" stroke="#1c2123" d="M266.5,-90C266.5,-90 231.5,-90 231.5,-90 225.5,-90 219.5,-84 219.5,-78 219.5,-78 219.5,-66 219.5,-66 219.5,-60 225.5,-54 231.5,-54 231.5,-54 266.5,-54 266.5,-54 272.5,-54 278.5,-60 278.5,-66 278.5,-66 278.5,-78 278.5,-78 278.5,-84 272.5,-90 266.5,-90"/>
<text text-anchor="middle" x="249" y="-68.3" font-family="Times,serif" font-size="14.00" fill="#2f3638">commit</text>
</g>
<!-- process_write&#45;&gt;commit -->
<g id="edge7" class="edge">
<title>process_write&#45;&gt;commit</title>
<path fill="none" stroke="#666666" d="M106.51,-134.9C125.1,-123.73 149.97,-109.56 173,-99 184.69,-93.64 197.79,-88.61 209.72,-84.38"/>
<polygon fill="#666666" stroke="#666666" points="211.11,-87.6 219.41,-81.02 208.82,-80.98 211.11,-87.6"/>
</g>
<!-- from_modifies -->
<g id="node13" class="node">
<title>from_modifies</title>
<path fill="none" stroke="#1c2123" d="M286,-36C286,-36 212,-36 212,-36 206,-36 200,-30 200,-24 200,-24 200,-12 200,-12 200,-6 206,0 212,0 212,0 286,0 286,0 292,0 298,-6 298,-12 298,-12 298,-24 298,-24 298,-30 292,-36 286,-36"/>
<text text-anchor="middle" x="249" y="-14.3" font-family="Times,serif" font-size="14.00" fill="#2f3638">from_modifies</text>
</g>
<!-- process_write&#45;&gt;from_modifies -->
<g id="edge8" class="edge">
<title>process_write&#45;&gt;from_modifies</title>
<path fill="none" stroke="#666666" d="M89.25,-134.79C105.44,-111.03 136.75,-69.59 173,-45 178.34,-41.38 184.21,-38.18 190.26,-35.38"/>
<polygon fill="#666666" stroke="#666666" points="192.03,-38.43 199.85,-31.28 189.27,-31.99 192.03,-38.43"/>
</g>
<!-- commit&#45;&gt;load_lock -->
<g id="edge9" class="edge">
<title>commit&#45;&gt;load_lock</title>
<path fill="none" stroke="#666666" d="M278.75,-80.44C308.56,-89.18 355.53,-102.97 390.01,-113.09"/>
<polygon fill="#666666" stroke="#666666" points="389.24,-116.51 399.82,-115.97 391.21,-109.8 389.24,-116.51"/>
</g>
<!-- commit&#45;&gt;get_txn_commit_record -->
<g id="edge10" class="edge">
<title>commit&#45;&gt;get_txn_commit_record</title>
<path fill="none" stroke="#666666" d="M278.75,-72C298.11,-72 324.72,-72 350.44,-72"/>
<polygon fill="#666666" stroke="#666666" points="350.62,-75.5 360.62,-72 350.62,-68.5 350.62,-75.5"/>
</g>
<!-- commit&#45;&gt;put_write -->
<g id="edge11" class="edge">
<title>commit&#45;&gt;put_write</title>
<path fill="none" stroke="#666666" d="M278.64,-76.03C294.23,-79.62 312.79,-86.36 325,-99 353.23,-128.21 327.66,-154.25 353,-186 363.2,-198.79 377.81,-208.91 391.82,-216.5"/>
<polygon fill="#666666" stroke="#666666" points="390.38,-219.7 400.88,-221.13 393.56,-213.46 390.38,-219.7"/>
</g>
<!-- Write_new -->
<g id="node14" class="node">
<title>Write_new</title>
<path fill="none" stroke="#1c2123" d="M461.5,-36C461.5,-36 408.5,-36 408.5,-36 402.5,-36 396.5,-30 396.5,-24 396.5,-24 396.5,-12 396.5,-12 396.5,-6 402.5,0 408.5,0 408.5,0 461.5,0 461.5,0 467.5,0 473.5,-6 473.5,-12 473.5,-12 473.5,-24 473.5,-24 473.5,-30 467.5,-36 461.5,-36"/>
<text text-anchor="middle" x="435" y="-14.3" font-family="Times,serif" font-size="14.00" fill="#2f3638">Write_new</text>
</g>
<!-- commit&#45;&gt;Write_new -->
<g id="edge12" class="edge">
<title>commit&#45;&gt;Write_new</title>
<path fill="none" stroke="#666666" d="M278.75,-63.56C307.54,-55.11 352.36,-41.96 386.45,-31.95"/>
<polygon fill="#666666" stroke="#666666" points="387.6,-35.27 396.21,-29.09 385.63,-28.55 387.6,-35.27"/>
</g>
</g>
</svg>
