<?xml version="1.0" encoding="UTF-8" standalone="no"?>
<!DOCTYPE svg PUBLIC "-//W3C//DTD SVG 1.1//EN"
 "http://www.w3.org/Graphics/SVG/1.1/DTD/svg11.dtd">
<!-- Generated by graphviz version 2.44.1 (20200629.0846)
 -->
<!-- Title: process_read Pages: 1 -->
<svg width="1101pt" height="806pt"
 viewBox="0.00 0.00 1101.00 806.00" xmlns="http://www.w3.org/2000/svg" xmlns:xlink="http://www.w3.org/1999/xlink">
<g id="graph0" class="graph" transform="scale(1 1) rotate(0) translate(4 802)">
<title>process_read</title>
<polygon fill="white" stroke="transparent" points="-4,4 -4,-802 1097,-802 1097,4 -4,4"/>
<g id="clust1" class="cluster">
<title>cluster_Cursor</title>
<path fill="none" stroke="slategrey" stroke-dasharray="5,2" d="M720.5,-98C720.5,-98 798.5,-98 798.5,-98 804.5,-98 810.5,-104 810.5,-110 810.5,-110 810.5,-168 810.5,-168 810.5,-174 804.5,-180 798.5,-180 798.5,-180 720.5,-180 720.5,-180 714.5,-180 708.5,-174 708.5,-168 708.5,-168 708.5,-110 708.5,-110 708.5,-104 714.5,-98 720.5,-98"/>
<text text-anchor="middle" x="759.5" y="-160" font-family="Times,serif" font-size="20.00">Cursor</text>
</g>
<g id="clust2" class="cluster">
<title>cluster_WriteRef</title>
<path fill="none" stroke="slategrey" stroke-dasharray="5,2" d="M726.5,-8C726.5,-8 792.5,-8 792.5,-8 798.5,-8 804.5,-14 804.5,-20 804.5,-20 804.5,-78 804.5,-78 804.5,-84 798.5,-90 792.5,-90 792.5,-90 726.5,-90 726.5,-90 720.5,-90 714.5,-84 714.5,-78 714.5,-78 714.5,-20 714.5,-20 714.5,-14 720.5,-8 726.5,-8"/>
<text text-anchor="middle" x="759.5" y="-70" font-family="Times,serif" font-size="20.00">WriteRef</text>
</g>
<g id="clust3" class="cluster">
<title>cluster_MvccReader</title>
<path fill="none" stroke="slategrey" stroke-dasharray="5,2" d="M418,-188C418,-188 1073,-188 1073,-188 1079,-188 1085,-194 1085,-200 1085,-200 1085,-690 1085,-690 1085,-696 1079,-702 1073,-702 1073,-702 418,-702 418,-702 412,-702 406,-696 406,-690 406,-690 406,-200 406,-200 406,-194 412,-188 418,-188"/>
<text text-anchor="middle" x="745.5" y="-682" font-family="Times,serif" font-size="20.00">MvccReader</text>
</g>
<!-- seek_to_first -->
<g id="node1" class="node">
<title>seek_to_first</title>
<path fill="none" stroke="#1c2123" d="M790.5,-142C790.5,-142 728.5,-142 728.5,-142 722.5,-142 716.5,-136 716.5,-130 716.5,-130 716.5,-118 716.5,-118 716.5,-112 722.5,-106 728.5,-106 728.5,-106 790.5,-106 790.5,-106 796.5,-106 802.5,-112 802.5,-118 802.5,-118 802.5,-130 802.5,-130 802.5,-136 796.5,-142 790.5,-142"/>
<text text-anchor="middle" x="759.5" y="-120.3" font-family="Times,serif" font-size="14.00" fill="#2f3638">seek_to_first</text>
</g>
<!-- parse -->
<g id="node2" class="node">
<title>parse</title>
<path fill="none" stroke="#1c2123" d="M774.5,-52C774.5,-52 744.5,-52 744.5,-52 738.5,-52 732.5,-46 732.5,-40 732.5,-40 732.5,-28 732.5,-28 732.5,-22 738.5,-16 744.5,-16 744.5,-16 774.5,-16 774.5,-16 780.5,-16 786.5,-22 786.5,-28 786.5,-28 786.5,-40 786.5,-40 786.5,-46 780.5,-52 774.5,-52"/>
<text text-anchor="middle" x="759.5" y="-30.3" font-family="Times,serif" font-size="14.00" fill="#2f3638">parse</text>
</g>
<!-- seek_ts -->
<g id="node3" class="node">
<title>seek_ts</title>
<path fill="none" stroke="#1c2123" d="M426,-196.5C426,-196.5 601,-196.5 601,-196.5 607,-196.5 613,-202.5 613,-208.5 613,-208.5 613,-245.5 613,-245.5 613,-251.5 607,-257.5 601,-257.5 601,-257.5 426,-257.5 426,-257.5 420,-257.5 414,-251.5 414,-245.5 414,-245.5 414,-208.5 414,-208.5 414,-202.5 420,-196.5 426,-196.5"/>
<text text-anchor="middle" x="513.5" y="-242.3" font-family="Times,serif" font-size="14.00" fill="#2f3638">seek_ts</text>
<polyline fill="none" stroke="#1c2123" points="414,-234.5 613,-234.5 "/>
<text text-anchor="start" x="422" y="-219.3" font-family="Times,serif" font-size="14.00" fill="#2f3638">return the first committed key</text>
<text text-anchor="start" x="422" y="-204.3" font-family="Times,serif" font-size="14.00" fill="#2f3638"> for which `start_ts` equals to `ts`</text>
</g>
<!-- seek_ts&#45;&gt;seek_to_first -->
<g id="edge1" class="edge">
<title>seek_ts&#45;&gt;seek_to_first</title>
<path fill="none" stroke="#666666" d="M587.05,-196.38C625.57,-180.11 672.01,-160.51 706.83,-145.81"/>
<polygon fill="#666666" stroke="#666666" points="708.48,-148.91 716.33,-141.8 705.76,-142.46 708.48,-148.91"/>
</g>
<!-- seek_ts&#45;&gt;parse -->
<g id="edge2" class="edge">
<title>seek_ts&#45;&gt;parse</title>
<path fill="none" stroke="#666666" d="M540.99,-196.26C566.7,-167.58 607.79,-124.71 649,-94 672.12,-76.77 700.77,-61.25 722.97,-50.31"/>
<polygon fill="#666666" stroke="#666666" points="724.57,-53.42 732.05,-45.91 721.52,-47.12 724.57,-53.42"/>
</g>
<!-- load_lock -->
<g id="node4" class="node">
<title>load_lock</title>
<path fill="none" stroke="#1c2123" d="M782.5,-502C782.5,-502 736.5,-502 736.5,-502 730.5,-502 724.5,-496 724.5,-490 724.5,-490 724.5,-478 724.5,-478 724.5,-472 730.5,-466 736.5,-466 736.5,-466 782.5,-466 782.5,-466 788.5,-466 794.5,-472 794.5,-478 794.5,-478 794.5,-490 794.5,-490 794.5,-496 788.5,-502 782.5,-502"/>
<text text-anchor="middle" x="759.5" y="-480.3" font-family="Times,serif" font-size="14.00" fill="#2f3638">load_lock</text>
</g>
<!-- create_lock_cursor -->
<g id="node5" class="node">
<title>create_lock_cursor</title>
<path fill="none" stroke="#1c2123" d="M1039,-556C1039,-556 944,-556 944,-556 938,-556 932,-550 932,-544 932,-544 932,-532 932,-532 932,-526 938,-520 944,-520 944,-520 1039,-520 1039,-520 1045,-520 1051,-526 1051,-532 1051,-532 1051,-544 1051,-544 1051,-550 1045,-556 1039,-556"/>
<text text-anchor="middle" x="991.5" y="-534.3" font-family="Times,serif" font-size="14.00" fill="#2f3638">create_lock_cursor</text>
</g>
<!-- load_lock&#45;&gt;create_lock_cursor -->
<g id="edge3" class="edge">
<title>load_lock&#45;&gt;create_lock_cursor</title>
<path fill="none" stroke="#666666" d="M794.93,-492.08C828.35,-499.93 879.99,-512.05 921.82,-521.88"/>
<polygon fill="#666666" stroke="#666666" points="921.14,-525.31 931.68,-524.19 922.74,-518.5 921.14,-525.31"/>
</g>
<!-- lock_cursor_get -->
<g id="node6" class="node">
<title>lock_cursor_get</title>
<path fill="none" stroke="#1c2123" d="M1031.5,-448C1031.5,-448 951.5,-448 951.5,-448 945.5,-448 939.5,-442 939.5,-436 939.5,-436 939.5,-424 939.5,-424 939.5,-418 945.5,-412 951.5,-412 951.5,-412 1031.5,-412 1031.5,-412 1037.5,-412 1043.5,-418 1043.5,-424 1043.5,-424 1043.5,-436 1043.5,-436 1043.5,-442 1037.5,-448 1031.5,-448"/>
<text text-anchor="middle" x="991.5" y="-426.3" font-family="Times,serif" font-size="14.00" fill="#2f3638">lock_cursor_get</text>
</g>
<!-- load_lock&#45;&gt;lock_cursor_get -->
<g id="edge4" class="edge">
<title>load_lock&#45;&gt;lock_cursor_get</title>
<path fill="none" stroke="#666666" d="M794.93,-475.92C830.39,-467.59 886.39,-454.44 929.39,-444.35"/>
<polygon fill="#666666" stroke="#666666" points="930.26,-447.74 939.19,-442.05 928.66,-440.92 930.26,-447.74"/>
</g>
<!-- snapshot_get_cf_CF_LOCK -->
<g id="node7" class="node">
<title>snapshot_get_cf_CF_LOCK</title>
<path fill="none" stroke="#1c2123" d="M1065,-394C1065,-394 918,-394 918,-394 912,-394 906,-388 906,-382 906,-382 906,-370 906,-370 906,-364 912,-358 918,-358 918,-358 1065,-358 1065,-358 1071,-358 1077,-364 1077,-370 1077,-370 1077,-382 1077,-382 1077,-388 1071,-394 1065,-394"/>
<text text-anchor="middle" x="991.5" y="-372.3" font-family="Times,serif" font-size="14.00" fill="#2f3638">snapshot_get_cf_CF_LOCK</text>
</g>
<!-- load_lock&#45;&gt;snapshot_get_cf_CF_LOCK -->
<g id="edge5" class="edge">
<title>load_lock&#45;&gt;snapshot_get_cf_CF_LOCK</title>
<path fill="none" stroke="#666666" d="M788.9,-465.96C817.62,-448.26 863.68,-421.32 906,-403 910.36,-401.11 914.9,-399.28 919.51,-397.53"/>
<polygon fill="#666666" stroke="#666666" points="920.85,-400.77 929.04,-394.05 918.45,-394.2 920.85,-400.77"/>
</g>
<!-- Lock_parse -->
<g id="node8" class="node">
<title>Lock_parse</title>
<path fill="none" stroke="#1c2123" d="M1019.5,-502C1019.5,-502 963.5,-502 963.5,-502 957.5,-502 951.5,-496 951.5,-490 951.5,-490 951.5,-478 951.5,-478 951.5,-472 957.5,-466 963.5,-466 963.5,-466 1019.5,-466 1019.5,-466 1025.5,-466 1031.5,-472 1031.5,-478 1031.5,-478 1031.5,-490 1031.5,-490 1031.5,-496 1025.5,-502 1019.5,-502"/>
<text text-anchor="middle" x="991.5" y="-480.3" font-family="Times,serif" font-size="14.00" fill="#2f3638">Lock_parse</text>
</g>
<!-- load_lock&#45;&gt;Lock_parse -->
<g id="edge6" class="edge">
<title>load_lock&#45;&gt;Lock_parse</title>
<path fill="none" stroke="#666666" d="M794.93,-484C833.68,-484 896.96,-484 941,-484"/>
<polygon fill="#666666" stroke="#666666" points="941.2,-487.5 951.2,-484 941.2,-480.5 941.2,-487.5"/>
</g>
<!-- scan_values_in_default -->
<g id="node9" class="node">
<title>scan_values_in_default</title>
<path fill="none" stroke="#1c2123" d="M661,-353C661,-353 858,-353 858,-353 864,-353 870,-359 870,-365 870,-365 870,-387 870,-387 870,-393 864,-399 858,-399 858,-399 661,-399 661,-399 655,-399 649,-393 649,-387 649,-387 649,-365 649,-365 649,-359 655,-353 661,-353"/>
<text text-anchor="middle" x="759.5" y="-383.8" font-family="Times,serif" font-size="14.00" fill="#2f3638">scan_values_in_default</text>
<polyline fill="none" stroke="#1c2123" points="649,-376 870,-376 "/>
<text text-anchor="start" x="657" y="-360.8" font-family="Times,serif" font-size="14.00" fill="#2f3638">从CF_DEFAULT中读取key的value</text>
</g>
<!-- create_data_cursor -->
<g id="node10" class="node">
<title>create_data_cursor</title>
<path fill="none" stroke="#1c2123" d="M1039,-340C1039,-340 944,-340 944,-340 938,-340 932,-334 932,-328 932,-328 932,-316 932,-316 932,-310 938,-304 944,-304 944,-304 1039,-304 1039,-304 1045,-304 1051,-310 1051,-316 1051,-316 1051,-328 1051,-328 1051,-334 1045,-340 1039,-340"/>
<text text-anchor="middle" x="991.5" y="-318.3" font-family="Times,serif" font-size="14.00" fill="#2f3638">create_data_cursor</text>
</g>
<!-- scan_values_in_default&#45;&gt;create_data_cursor -->
<g id="edge7" class="edge">
<title>scan_values_in_default&#45;&gt;create_data_cursor</title>
<path fill="none" stroke="#666666" d="M858.71,-352.94C880.02,-347.94 902.11,-342.75 921.98,-338.09"/>
<polygon fill="#666666" stroke="#666666" points="922.91,-341.46 931.84,-335.77 921.31,-334.65 922.91,-341.46"/>
</g>
<!-- seek_write -->
<g id="node11" class="node">
<title>seek_write</title>
<path fill="none" stroke="#1c2123" d="M785,-286C785,-286 734,-286 734,-286 728,-286 722,-280 722,-274 722,-274 722,-262 722,-262 722,-256 728,-250 734,-250 734,-250 785,-250 785,-250 791,-250 797,-256 797,-262 797,-262 797,-274 797,-274 797,-280 791,-286 785,-286"/>
<text text-anchor="middle" x="759.5" y="-264.3" font-family="Times,serif" font-size="14.00" fill="#2f3638">seek_write</text>
</g>
<!-- create_write_cursor -->
<g id="node12" class="node">
<title>create_write_cursor</title>
<path fill="none" stroke="#1c2123" d="M1041.5,-286C1041.5,-286 941.5,-286 941.5,-286 935.5,-286 929.5,-280 929.5,-274 929.5,-274 929.5,-262 929.5,-262 929.5,-256 935.5,-250 941.5,-250 941.5,-250 1041.5,-250 1041.5,-250 1047.5,-250 1053.5,-256 1053.5,-262 1053.5,-262 1053.5,-274 1053.5,-274 1053.5,-280 1047.5,-286 1041.5,-286"/>
<text text-anchor="middle" x="991.5" y="-264.3" font-family="Times,serif" font-size="14.00" fill="#2f3638">create_write_cursor</text>
</g>
<!-- seek_write&#45;&gt;create_write_cursor -->
<g id="edge8" class="edge">
<title>seek_write&#45;&gt;create_write_cursor</title>
<path fill="none" stroke="#666666" d="M797.2,-268C829.94,-268 878.79,-268 919.2,-268"/>
<polygon fill="#666666" stroke="#666666" points="919.27,-271.5 929.27,-268 919.27,-264.5 919.27,-271.5"/>
</g>
<!-- write_cursor_near_seek -->
<g id="node13" class="node">
<title>write_cursor_near_seek</title>
<path fill="none" stroke="#1c2123" d="M1052.5,-232C1052.5,-232 930.5,-232 930.5,-232 924.5,-232 918.5,-226 918.5,-220 918.5,-220 918.5,-208 918.5,-208 918.5,-202 924.5,-196 930.5,-196 930.5,-196 1052.5,-196 1052.5,-196 1058.5,-196 1064.5,-202 1064.5,-208 1064.5,-208 1064.5,-220 1064.5,-220 1064.5,-226 1058.5,-232 1052.5,-232"/>
<text text-anchor="middle" x="991.5" y="-210.3" font-family="Times,serif" font-size="14.00" fill="#2f3638">write_cursor_near_seek</text>
</g>
<!-- seek_write&#45;&gt;write_cursor_near_seek -->
<g id="edge9" class="edge">
<title>seek_write&#45;&gt;write_cursor_near_seek</title>
<path fill="none" stroke="#666666" d="M797.2,-259.38C827,-252.39 870.17,-242.25 908.15,-233.33"/>
<polygon fill="#666666" stroke="#666666" points="909.26,-236.67 918.2,-230.97 907.66,-229.85 909.26,-236.67"/>
</g>
<!-- scan_locks -->
<g id="node14" class="node">
<title>scan_locks</title>
<path fill="none" stroke="#1c2123" d="M785.5,-610C785.5,-610 733.5,-610 733.5,-610 727.5,-610 721.5,-604 721.5,-598 721.5,-598 721.5,-586 721.5,-586 721.5,-580 727.5,-574 733.5,-574 733.5,-574 785.5,-574 785.5,-574 791.5,-574 797.5,-580 797.5,-586 797.5,-586 797.5,-598 797.5,-598 797.5,-604 791.5,-610 785.5,-610"/>
<text text-anchor="middle" x="759.5" y="-588.3" font-family="Times,serif" font-size="14.00" fill="#2f3638">scan_locks</text>
</g>
<!-- scan_locks&#45;&gt;create_lock_cursor -->
<g id="edge10" class="edge">
<title>scan_locks&#45;&gt;create_lock_cursor</title>
<path fill="none" stroke="#666666" d="M797.71,-583.26C831.18,-575.4 881.21,-563.66 921.92,-554.1"/>
<polygon fill="#666666" stroke="#666666" points="922.85,-557.48 931.78,-551.79 921.25,-550.66 922.85,-557.48"/>
</g>
<!-- scan_locks&#45;&gt;Lock_parse -->
<g id="edge11" class="edge">
<title>scan_locks&#45;&gt;Lock_parse</title>
<path fill="none" stroke="#666666" d="M788.9,-573.96C817.62,-556.26 863.68,-529.32 906,-511 917.26,-506.12 929.7,-501.67 941.49,-497.84"/>
<polygon fill="#666666" stroke="#666666" points="942.72,-501.12 951.2,-494.78 940.61,-494.45 942.72,-501.12"/>
</g>
<!-- lock_cursor_seek -->
<g id="node15" class="node">
<title>lock_cursor_seek</title>
<path fill="none" stroke="#1c2123" d="M1035,-664C1035,-664 948,-664 948,-664 942,-664 936,-658 936,-652 936,-652 936,-640 936,-640 936,-634 942,-628 948,-628 948,-628 1035,-628 1035,-628 1041,-628 1047,-634 1047,-640 1047,-640 1047,-652 1047,-652 1047,-658 1041,-664 1035,-664"/>
<text text-anchor="middle" x="991.5" y="-642.3" font-family="Times,serif" font-size="14.00" fill="#2f3638">lock_cursor_seek</text>
</g>
<!-- scan_locks&#45;&gt;lock_cursor_seek -->
<g id="edge12" class="edge">
<title>scan_locks&#45;&gt;lock_cursor_seek</title>
<path fill="none" stroke="#666666" d="M797.71,-600.74C832.24,-608.84 884.39,-621.09 925.75,-630.8"/>
<polygon fill="#666666" stroke="#666666" points="925.2,-634.26 935.74,-633.14 926.8,-627.45 925.2,-634.26"/>
</g>
<!-- lock_cursor_next -->
<g id="node16" class="node">
<title>lock_cursor_next</title>
<path fill="none" stroke="#1c2123" d="M1034.5,-610C1034.5,-610 948.5,-610 948.5,-610 942.5,-610 936.5,-604 936.5,-598 936.5,-598 936.5,-586 936.5,-586 936.5,-580 942.5,-574 948.5,-574 948.5,-574 1034.5,-574 1034.5,-574 1040.5,-574 1046.5,-580 1046.5,-586 1046.5,-586 1046.5,-598 1046.5,-598 1046.5,-604 1040.5,-610 1034.5,-610"/>
<text text-anchor="middle" x="991.5" y="-588.3" font-family="Times,serif" font-size="14.00" fill="#2f3638">lock_cursor_next</text>
</g>
<!-- scan_locks&#45;&gt;lock_cursor_next -->
<g id="edge13" class="edge">
<title>scan_locks&#45;&gt;lock_cursor_next</title>
<path fill="none" stroke="#666666" d="M797.71,-592C832.36,-592 884.74,-592 926.17,-592"/>
<polygon fill="#666666" stroke="#666666" points="926.17,-595.5 936.17,-592 926.17,-588.5 926.17,-595.5"/>
</g>
<!-- cmd_process_read -->
<g id="node17" class="node">
<title>cmd_process_read</title>
<path fill="none" stroke="#1c2123" d="M106,-744C106,-744 12,-744 12,-744 6,-744 0,-738 0,-732 0,-732 0,-720 0,-720 0,-714 6,-708 12,-708 12,-708 106,-708 106,-708 112,-708 118,-714 118,-720 118,-720 118,-732 118,-732 118,-738 112,-744 106,-744"/>
<text text-anchor="middle" x="59" y="-722.3" font-family="Times,serif" font-size="14.00" fill="#2f3638">cmd_process_read</text>
</g>
<!-- MvccByStartTs_process_read -->
<g id="node18" class="node">
<title>MvccByStartTs_process_read</title>
<path fill="none" stroke="#1c2123" d="M344,-690C344,-690 188,-690 188,-690 182,-690 176,-684 176,-678 176,-678 176,-666 176,-666 176,-660 182,-654 188,-654 188,-654 344,-654 344,-654 350,-654 356,-660 356,-666 356,-666 356,-678 356,-678 356,-684 350,-690 344,-690"/>
<text text-anchor="middle" x="266" y="-668.3" font-family="Times,serif" font-size="14.00" fill="#2f3638">MvccByStartTs_process_read</text>
</g>
<!-- cmd_process_read&#45;&gt;MvccByStartTs_process_read -->
<g id="edge14" class="edge">
<title>cmd_process_read&#45;&gt;MvccByStartTs_process_read</title>
<path fill="none" stroke="#666666" d="M118.06,-708.92C129.93,-705.54 142.35,-702.09 154,-699 162.13,-696.84 170.61,-694.66 179.11,-692.52"/>
<polygon fill="#666666" stroke="#666666" points="180.21,-695.85 189.06,-690.03 178.51,-689.06 180.21,-695.85"/>
</g>
<!-- ResolveLockReadPhase_process_read -->
<g id="node19" class="node">
<title>ResolveLockReadPhase_process_read</title>
<path fill="none" stroke="#1c2123" d="M366,-798C366,-798 166,-798 166,-798 160,-798 154,-792 154,-786 154,-786 154,-774 154,-774 154,-768 160,-762 166,-762 166,-762 366,-762 366,-762 372,-762 378,-768 378,-774 378,-774 378,-786 378,-786 378,-792 372,-798 366,-798"/>
<text text-anchor="middle" x="266" y="-776.3" font-family="Times,serif" font-size="14.00" fill="#2f3638">ResolveLockReadPhase_process_read</text>
</g>
<!-- cmd_process_read&#45;&gt;ResolveLockReadPhase_process_read -->
<g id="edge15" class="edge">
<title>cmd_process_read&#45;&gt;ResolveLockReadPhase_process_read</title>
<path fill="none" stroke="#666666" d="M118.06,-743.08C129.93,-746.46 142.35,-749.91 154,-753 162.13,-755.16 170.61,-757.34 179.11,-759.48"/>
<polygon fill="#666666" stroke="#666666" points="178.51,-762.94 189.06,-761.97 180.21,-756.15 178.51,-762.94"/>
</g>
<!-- MvccByKey_process_read -->
<g id="node20" class="node">
<title>MvccByKey_process_read</title>
<path fill="none" stroke="#1c2123" d="M336,-744C336,-744 196,-744 196,-744 190,-744 184,-738 184,-732 184,-732 184,-720 184,-720 184,-714 190,-708 196,-708 196,-708 336,-708 336,-708 342,-708 348,-714 348,-720 348,-720 348,-732 348,-732 348,-738 342,-744 336,-744"/>
<text text-anchor="middle" x="266" y="-722.3" font-family="Times,serif" font-size="14.00" fill="#2f3638">MvccByKey_process_read</text>
</g>
<!-- cmd_process_read&#45;&gt;MvccByKey_process_read -->
<g id="edge16" class="edge">
<title>cmd_process_read&#45;&gt;MvccByKey_process_read</title>
<path fill="none" stroke="#666666" d="M118.2,-726C135.45,-726 154.79,-726 173.62,-726"/>
<polygon fill="#666666" stroke="#666666" points="173.7,-729.5 183.7,-726 173.7,-722.5 173.7,-729.5"/>
</g>
<!-- MvccByStartTs_process_read&#45;&gt;seek_ts -->
<g id="edge17" class="edge">
<title>MvccByStartTs_process_read&#45;&gt;seek_ts</title>
<path fill="none" stroke="#666666" d="M277.08,-653.73C313.63,-587.49 439.67,-359.02 490.75,-266.43"/>
<polygon fill="#666666" stroke="#666666" points="493.83,-268.09 495.59,-257.65 487.7,-264.71 493.83,-268.09"/>
</g>
<!-- find_mvcc_infos_by_key -->
<g id="node21" class="node">
<title>find_mvcc_infos_by_key</title>
<path fill="none" stroke="#1c2123" d="M579,-746C579,-746 448,-746 448,-746 442,-746 436,-740 436,-734 436,-734 436,-722 436,-722 436,-716 442,-710 448,-710 448,-710 579,-710 579,-710 585,-710 591,-716 591,-722 591,-722 591,-734 591,-734 591,-740 585,-746 579,-746"/>
<text text-anchor="middle" x="513.5" y="-724.3" font-family="Times,serif" font-size="14.00" fill="#2f3638">find_mvcc_infos_by_key</text>
</g>
<!-- MvccByStartTs_process_read&#45;&gt;find_mvcc_infos_by_key -->
<g id="edge18" class="edge">
<title>MvccByStartTs_process_read&#45;&gt;find_mvcc_infos_by_key</title>
<path fill="none" stroke="#666666" d="M341.35,-690.02C353.6,-693 366.16,-696.08 378,-699 390.45,-702.07 393.49,-703.15 406,-706 412.49,-707.48 419.22,-708.97 425.99,-710.44"/>
<polygon fill="#666666" stroke="#666666" points="425.41,-713.9 435.92,-712.58 426.88,-707.05 425.41,-713.9"/>
</g>
<!-- ResolveLockReadPhase_process_read&#45;&gt;scan_locks -->
<g id="edge23" class="edge">
<title>ResolveLockReadPhase_process_read&#45;&gt;scan_locks</title>
<path fill="none" stroke="#666666" d="M378.11,-792.63C448.84,-795.82 540.45,-790.68 613,-755 674.03,-724.98 720.95,-657.05 743.58,-619.04"/>
<polygon fill="#666666" stroke="#666666" points="746.8,-620.47 748.81,-610.06 740.75,-616.95 746.8,-620.47"/>
</g>
<!-- MvccByKey_process_read&#45;&gt;find_mvcc_infos_by_key -->
<g id="edge22" class="edge">
<title>MvccByKey_process_read&#45;&gt;find_mvcc_infos_by_key</title>
<path fill="none" stroke="#666666" d="M348.07,-726.66C372.86,-726.86 400.23,-727.09 425.41,-727.29"/>
<polygon fill="#666666" stroke="#666666" points="425.65,-730.79 435.68,-727.37 425.71,-723.79 425.65,-730.79"/>
</g>
<!-- find_mvcc_infos_by_key&#45;&gt;load_lock -->
<g id="edge19" class="edge">
<title>find_mvcc_infos_by_key&#45;&gt;load_lock</title>
<path fill="none" stroke="#666666" d="M591.47,-719.84C599.43,-716.47 606.84,-711.98 613,-706 659.42,-660.96 612.91,-618.67 649,-565 665.66,-540.23 692.51,-520.19 715.46,-506.24"/>
<polygon fill="#666666" stroke="#666666" points="717.51,-509.1 724.36,-501.01 713.96,-503.06 717.51,-509.1"/>
</g>
<!-- find_mvcc_infos_by_key&#45;&gt;scan_values_in_default -->
<g id="edge20" class="edge">
<title>find_mvcc_infos_by_key&#45;&gt;scan_values_in_default</title>
<path fill="none" stroke="#666666" d="M591.15,-720.88C599.36,-717.37 606.93,-712.55 613,-706 689,-623.98 591.63,-552.98 649,-457 661.9,-435.42 682.97,-417.8 703.2,-404.56"/>
<polygon fill="#666666" stroke="#666666" points="705.19,-407.45 711.79,-399.16 701.46,-401.52 705.19,-407.45"/>
</g>
<!-- find_mvcc_infos_by_key&#45;&gt;seek_write -->
<g id="edge21" class="edge">
<title>find_mvcc_infos_by_key&#45;&gt;seek_write</title>
<path fill="none" stroke="#666666" d="M591.43,-721.14C599.6,-717.58 607.07,-712.69 613,-706 666.61,-645.5 608.02,-413.69 649,-344 663.55,-319.26 689.71,-300.65 712.81,-288.04"/>
<polygon fill="#666666" stroke="#666666" points="714.57,-291.07 721.81,-283.34 711.32,-284.87 714.57,-291.07"/>
</g>
</g>
</svg>
