<?xml version="1.0" encoding="UTF-8" standalone="no"?>
<!DOCTYPE svg PUBLIC "-//W3C//DTD SVG 1.1//EN"
 "http://www.w3.org/Graphics/SVG/1.1/DTD/svg11.dtd">
<!-- Generated by graphviz version 2.47.1 (20210417.1919)
 -->
<!-- Title: conf_change_flow Pages: 1 -->
<svg width="1280pt" height="211pt"
 viewBox="0.00 0.00 1280.00 210.50" xmlns="http://www.w3.org/2000/svg" xmlns:xlink="http://www.w3.org/1999/xlink">
<g id="graph0" class="graph" transform="scale(1 1) rotate(0) translate(4 206.5)">
<title>conf_change_flow</title>
<polygon fill="white" stroke="transparent" points="-4,4 -4,-206.5 1276,-206.5 1276,4 -4,4"/>
<!-- app_propose_conf_change -->
<g id="node1" class="node">
<title>app_propose_conf_change</title>
<path fill="none" stroke="#1c2123" d="M12,-103C12,-103 74,-103 74,-103 80,-103 86,-109 86,-115 86,-115 86,-129 86,-129 86,-135 80,-141 74,-141 74,-141 12,-141 12,-141 6,-141 0,-135 0,-129 0,-129 0,-115 0,-115 0,-109 6,-103 12,-103"/>
<text text-anchor="start" x="8" y="-125.8" font-family="Times,serif" font-size="14.00" fill="#2f3638">app propose</text>
<text text-anchor="middle" x="43" y="-110.8" font-family="Times,serif" font-size="14.00" fill="#2f3638"> conf change</text>
</g>
<!-- raft_leader_append_log -->
<g id="node2" class="node">
<title>raft_leader_append_log</title>
<path fill="#a2dbfa" stroke="#8a8898" d="M134,-61.5C134,-61.5 301,-61.5 301,-61.5 307,-61.5 313,-67.5 313,-73.5 313,-73.5 313,-170.5 313,-170.5 313,-176.5 307,-182.5 301,-182.5 301,-182.5 134,-182.5 134,-182.5 128,-182.5 122,-176.5 122,-170.5 122,-170.5 122,-73.5 122,-73.5 122,-67.5 128,-61.5 134,-61.5"/>
<text text-anchor="start" x="130" y="-167.3" font-family="Times,serif" font-size="14.00" fill="#5d6179">leader节点</text>
<text text-anchor="start" x="130" y="-152.3" font-family="Times,serif" font-size="14.00" fill="#5d6179"> 将conf change</text>
<text text-anchor="start" x="130" y="-137.3" font-family="Times,serif" font-size="14.00" fill="#5d6179"> 日志复制到其他节点</text>
<text text-anchor="start" x="130" y="-122.3" font-family="Times,serif" font-size="14.00" fill="#5d6179"> 然后commit</text>
<polyline fill="none" stroke="#8a8898" points="122,-114.5 313,-114.5 "/>
<text text-anchor="start" x="130" y="-99.3" font-family="Times,serif" font-size="14.00" fill="#5d6179">这样可以保证旧配置中的</text>
<text text-anchor="start" x="130" y="-84.3" font-family="Times,serif" font-size="14.00" fill="#5d6179"> 大多数节点收到并持久化了</text>
<text text-anchor="start" x="130" y="-69.3" font-family="Times,serif" font-size="14.00" fill="#5d6179"> 该conf change</text>
</g>
<!-- app_propose_conf_change&#45;&gt;raft_leader_append_log -->
<g id="edge1" class="edge">
<title>app_propose_conf_change&#45;&gt;raft_leader_append_log</title>
<path fill="none" stroke="#666666" d="M86.2,-122C94.17,-122 102.83,-122 111.76,-122"/>
<polygon fill="#666666" stroke="#666666" points="111.95,-125.5 121.95,-122 111.95,-118.5 111.95,-125.5"/>
</g>
<!-- app_apply_conf_change -->
<g id="node3" class="node">
<title>app_apply_conf_change</title>
<path fill="none" stroke="#1c2123" d="M361,-80.5C361,-80.5 531,-80.5 531,-80.5 537,-80.5 543,-86.5 543,-92.5 543,-92.5 543,-151.5 543,-151.5 543,-157.5 537,-163.5 531,-163.5 531,-163.5 361,-163.5 361,-163.5 355,-163.5 349,-157.5 349,-151.5 349,-151.5 349,-92.5 349,-92.5 349,-86.5 355,-80.5 361,-80.5"/>
<text text-anchor="start" x="357" y="-148.3" font-family="Times,serif" font-size="14.00" fill="#2f3638">应用调用ready获取</text>
<text text-anchor="start" x="357" y="-133.3" font-family="Times,serif" font-size="14.00" fill="#2f3638"> committed log entry</text>
<text text-anchor="start" x="357" y="-118.3" font-family="Times,serif" font-size="14.00" fill="#2f3638"> 并调用RawNode</text>
<text text-anchor="start" x="357" y="-103.3" font-family="Times,serif" font-size="14.00" fill="#2f3638"> apply_conf_change</text>
<text text-anchor="start" x="357" y="-88.3" font-family="Times,serif" font-size="14.00" fill="#2f3638"> 来修改自己的ProgressTracker</text>
</g>
<!-- raft_leader_append_log&#45;&gt;app_apply_conf_change -->
<g id="edge2" class="edge">
<title>raft_leader_append_log&#45;&gt;app_apply_conf_change</title>
<path fill="none" stroke="#666666" d="M313.24,-122C321.6,-122 330.1,-122 338.55,-122"/>
<polygon fill="#666666" stroke="#666666" points="338.82,-125.5 348.82,-122 338.82,-118.5 338.82,-125.5"/>
</g>
<!-- enter_joint -->
<g id="node4" class="node">
<title>enter_joint</title>
<path fill="#feed9b" stroke="#f7e495" d="M594.5,-126C594.5,-126 727.5,-126 727.5,-126 733.5,-126 739.5,-132 739.5,-138 739.5,-138 739.5,-190 739.5,-190 739.5,-196 733.5,-202 727.5,-202 727.5,-202 594.5,-202 594.5,-202 588.5,-202 582.5,-196 582.5,-190 582.5,-190 582.5,-138 582.5,-138 582.5,-132 588.5,-126 594.5,-126"/>
<text text-anchor="middle" x="661" y="-186.8" font-family="Times,serif" font-size="14.00" fill="#40575d">enter_joint</text>
<polyline fill="none" stroke="#f7e495" points="582.5,-179 739.5,-179 "/>
<text text-anchor="start" x="590.5" y="-163.8" font-family="Times,serif" font-size="14.00" fill="#40575d">此时进入joint consensus</text>
<text text-anchor="start" x="590.5" y="-148.8" font-family="Times,serif" font-size="14.00" fill="#40575d"> 同时用新老配置</text>
<text text-anchor="start" x="590.5" y="-133.8" font-family="Times,serif" font-size="14.00" fill="#40575d"> 做决策</text>
</g>
<!-- app_apply_conf_change&#45;&gt;enter_joint -->
<g id="edge3" class="edge">
<title>app_apply_conf_change&#45;&gt;enter_joint</title>
<path fill="none" stroke="#666666" d="M543.22,-140.97C552.95,-142.89 562.81,-144.84 572.45,-146.74"/>
<polygon fill="#666666" stroke="#666666" points="571.91,-150.2 582.4,-148.7 573.27,-143.33 571.91,-150.2"/>
</g>
<!-- app_advance -->
<g id="node5" class="node">
<title>app_advance</title>
<path fill="none" stroke="#1c2123" d="M591,-53.5C591,-53.5 731,-53.5 731,-53.5 737,-53.5 743,-59.5 743,-65.5 743,-65.5 743,-94.5 743,-94.5 743,-100.5 737,-106.5 731,-106.5 731,-106.5 591,-106.5 591,-106.5 585,-106.5 579,-100.5 579,-94.5 579,-94.5 579,-65.5 579,-65.5 579,-59.5 585,-53.5 591,-53.5"/>
<text text-anchor="start" x="587" y="-91.3" font-family="Times,serif" font-size="14.00" fill="#2f3638">app调用RawNode</text>
<text text-anchor="start" x="587" y="-76.3" font-family="Times,serif" font-size="14.00" fill="#2f3638"> advanc告诉raft</text>
<text text-anchor="start" x="587" y="-61.3" font-family="Times,serif" font-size="14.00" fill="#2f3638"> ready中内容已处理完毕</text>
</g>
<!-- app_apply_conf_change&#45;&gt;app_advance -->
<g id="edge4" class="edge">
<title>app_apply_conf_change&#45;&gt;app_advance</title>
<path fill="none" stroke="#666666" d="M543.22,-103.03C551.78,-101.34 560.42,-99.63 568.94,-97.96"/>
<polygon fill="#666666" stroke="#666666" points="569.72,-101.37 578.85,-96 568.37,-94.5 569.72,-101.37"/>
</g>
<!-- leader_append_emty_conf_change -->
<g id="node6" class="node">
<title>leader_append_emty_conf_change</title>
<path fill="#a2dbfa" stroke="#8a8898" d="M791,-0.5C791,-0.5 944,-0.5 944,-0.5 950,-0.5 956,-6.5 956,-12.5 956,-12.5 956,-147.5 956,-147.5 956,-153.5 950,-159.5 944,-159.5 944,-159.5 791,-159.5 791,-159.5 785,-159.5 779,-153.5 779,-147.5 779,-147.5 779,-12.5 779,-12.5 779,-6.5 785,-0.5 791,-0.5"/>
<text text-anchor="start" x="787" y="-144.3" font-family="Times,serif" font-size="14.00" fill="#5d6179">leader节点</text>
<text text-anchor="start" x="787" y="-129.3" font-family="Times,serif" font-size="14.00" fill="#5d6179"> append 一个空的</text>
<text text-anchor="start" x="787" y="-114.3" font-family="Times,serif" font-size="14.00" fill="#5d6179"> confChange日志</text>
<text text-anchor="start" x="787" y="-99.3" font-family="Times,serif" font-size="14.00" fill="#5d6179"> 然后复制到其他节点</text>
<text text-anchor="start" x="787" y="-84.3" font-family="Times,serif" font-size="14.00" fill="#5d6179"> 达到commit状态</text>
<polyline fill="none" stroke="#8a8898" points="779,-76.5 956,-76.5 "/>
<text text-anchor="start" x="787" y="-61.3" font-family="Times,serif" font-size="14.00" fill="#5d6179">这里的节点包含新</text>
<text text-anchor="start" x="787" y="-46.3" font-family="Times,serif" font-size="14.00" fill="#5d6179"> 配置中的节点</text>
<polyline fill="none" stroke="#8a8898" points="779,-38.5 956,-38.5 "/>
<text text-anchor="start" x="787" y="-23.3" font-family="Times,serif" font-size="14.00" fill="#5d6179">新配置和旧配置中的</text>
<text text-anchor="start" x="787" y="-8.3" font-family="Times,serif" font-size="14.00" fill="#5d6179"> 大部分节点收到了该消息</text>
</g>
<!-- app_advance&#45;&gt;leader_append_emty_conf_change -->
<g id="edge5" class="edge">
<title>app_advance&#45;&gt;leader_append_emty_conf_change</title>
<path fill="none" stroke="#666666" d="M743.12,-80C751.53,-80 760.15,-80 768.72,-80"/>
<polygon fill="#666666" stroke="#666666" points="768.75,-83.5 778.75,-80 768.75,-76.5 768.75,-83.5"/>
</g>
<!-- app_apply_empty_conf_change -->
<g id="node7" class="node">
<title>app_apply_empty_conf_change</title>
<path fill="none" stroke="#1c2123" d="M1004,-23C1004,-23 1108,-23 1108,-23 1114,-23 1120,-29 1120,-35 1120,-35 1120,-125 1120,-125 1120,-131 1114,-137 1108,-137 1108,-137 1004,-137 1004,-137 998,-137 992,-131 992,-125 992,-125 992,-35 992,-35 992,-29 998,-23 1004,-23"/>
<text text-anchor="start" x="1000" y="-121.8" font-family="Times,serif" font-size="14.00" fill="#2f3638">在空的ConfChange</text>
<text text-anchor="start" x="1000" y="-106.8" font-family="Times,serif" font-size="14.00" fill="#2f3638"> 达到commit状态</text>
<polyline fill="none" stroke="#1c2123" points="992,-99 1120,-99 "/>
<text text-anchor="start" x="1000" y="-83.8" font-family="Times,serif" font-size="14.00" fill="#2f3638">app调用Rawnode</text>
<text text-anchor="start" x="1000" y="-68.8" font-family="Times,serif" font-size="14.00" fill="#2f3638"> apply_conf_change</text>
<text text-anchor="start" x="1000" y="-53.8" font-family="Times,serif" font-size="14.00" fill="#2f3638"> 开始leave joint</text>
<polyline fill="none" stroke="#1c2123" points="992,-46 1120,-46 "/>
<text text-anchor="middle" x="1056" y="-30.8" font-family="Times,serif" font-size="14.00" fill="#2f3638"> </text>
</g>
<!-- leader_append_emty_conf_change&#45;&gt;app_apply_empty_conf_change -->
<g id="edge6" class="edge">
<title>leader_append_emty_conf_change&#45;&gt;app_apply_empty_conf_change</title>
<path fill="none" stroke="#666666" d="M956.02,-80C964.63,-80 973.31,-80 981.75,-80"/>
<polygon fill="#666666" stroke="#666666" points="981.92,-83.5 991.92,-80 981.92,-76.5 981.92,-83.5"/>
</g>
<!-- leave_joint -->
<g id="node8" class="node">
<title>leave_joint</title>
<path fill="#feed9b" stroke="#f7e495" d="M1168,-49.5C1168,-49.5 1260,-49.5 1260,-49.5 1266,-49.5 1272,-55.5 1272,-61.5 1272,-61.5 1272,-98.5 1272,-98.5 1272,-104.5 1266,-110.5 1260,-110.5 1260,-110.5 1168,-110.5 1168,-110.5 1162,-110.5 1156,-104.5 1156,-98.5 1156,-98.5 1156,-61.5 1156,-61.5 1156,-55.5 1162,-49.5 1168,-49.5"/>
<text text-anchor="middle" x="1214" y="-95.3" font-family="Times,serif" font-size="14.00" fill="#40575d">leave_joint</text>
<polyline fill="none" stroke="#f7e495" points="1156,-87.5 1272,-87.5 "/>
<text text-anchor="start" x="1164" y="-72.3" font-family="Times,serif" font-size="14.00" fill="#40575d">开始使用新配置</text>
<text text-anchor="start" x="1164" y="-57.3" font-family="Times,serif" font-size="14.00" fill="#40575d"> 做决策</text>
</g>
<!-- app_apply_empty_conf_change&#45;&gt;leave_joint -->
<g id="edge7" class="edge">
<title>app_apply_empty_conf_change&#45;&gt;leave_joint</title>
<path fill="none" stroke="#666666" d="M1120,-80C1128.42,-80 1137.08,-80 1145.57,-80"/>
<polygon fill="#666666" stroke="#666666" points="1145.81,-83.5 1155.81,-80 1145.81,-76.5 1145.81,-83.5"/>
</g>
</g>
</svg>
