<?xml version="1.0" encoding="UTF-8" standalone="no"?>
<!DOCTYPE svg PUBLIC "-//W3C//DTD SVG 1.1//EN"
 "http://www.w3.org/Graphics/SVG/1.1/DTD/svg11.dtd">
<!-- Generated by graphviz version 2.47.1 (20210417.1919)
 -->
<!-- Title: dig Pages: 1 -->
<svg width="994pt" height="603pt"
 viewBox="0.00 0.00 994.00 603.00" xmlns="http://www.w3.org/2000/svg" xmlns:xlink="http://www.w3.org/1999/xlink">
<g id="graph0" class="graph" transform="scale(1 1) rotate(0) translate(4 599)">
<title>dig</title>
<polygon fill="white" stroke="transparent" points="-4,4 -4,-599 990,-599 990,4 -4,4"/>
<!-- coq__lsp__requests__lsp__lua -->
<g id="node1" class="node">
<title>coq__lsp__requests__lsp__lua</title>
<path fill="none" stroke="#1c2123" d="M198.5,-43C198.5,-43 40.5,-43 40.5,-43 34.5,-43 28.5,-37 28.5,-31 28.5,-31 28.5,-19 28.5,-19 28.5,-13 34.5,-7 40.5,-7 40.5,-7 198.5,-7 198.5,-7 204.5,-7 210.5,-13 210.5,-19 210.5,-19 210.5,-31 210.5,-31 210.5,-37 204.5,-43 198.5,-43"/>
<text text-anchor="middle" x="119.5" y="-21.3" font-family="Times,serif" font-size="14.00" fill="#2f3638">coq__lsp__requests__lsp__lua</text>
</g>
<!-- COQ__lsp_comp -->
<g id="node2" class="node">
<title>COQ__lsp_comp</title>
<path fill="none" stroke="#1c2123" d="M163.5,-205C163.5,-205 75.5,-205 75.5,-205 69.5,-205 63.5,-199 63.5,-193 63.5,-193 63.5,-181 63.5,-181 63.5,-175 69.5,-169 75.5,-169 75.5,-169 163.5,-169 163.5,-169 169.5,-169 175.5,-175 175.5,-181 175.5,-181 175.5,-193 175.5,-193 175.5,-199 169.5,-205 163.5,-205"/>
<text text-anchor="middle" x="119.5" y="-183.3" font-family="Times,serif" font-size="14.00" fill="#2f3638">COQ__lsp_comp</text>
</g>
<!-- req -->
<g id="node3" class="node">
<title>req</title>
<path fill="none" stroke="#1c2123" d="M358.5,-151C358.5,-151 328.5,-151 328.5,-151 322.5,-151 316.5,-145 316.5,-139 316.5,-139 316.5,-127 316.5,-127 316.5,-121 322.5,-115 328.5,-115 328.5,-115 358.5,-115 358.5,-115 364.5,-115 370.5,-121 370.5,-127 370.5,-127 370.5,-139 370.5,-139 370.5,-145 364.5,-151 358.5,-151"/>
<text text-anchor="middle" x="343.5" y="-129.3" font-family="Times,serif" font-size="14.00" fill="#2f3638">req</text>
</g>
<!-- COQ__lsp_comp&#45;&gt;req -->
<g id="edge1" class="edge">
<title>COQ__lsp_comp&#45;&gt;req</title>
<path fill="none" stroke="#666666" d="M175.75,-174.79C195.71,-170.27 218.4,-165.03 239,-160 261.43,-154.52 286.48,-148 306.32,-142.73"/>
<polygon fill="#666666" stroke="#666666" points="307.42,-146.06 316.18,-140.11 305.62,-139.3 307.42,-146.06"/>
</g>
<!-- pcall -->
<g id="node6" class="node">
<title>pcall</title>
<path fill="none" stroke="#1c2123" d="M522,-258C522,-258 492,-258 492,-258 486,-258 480,-252 480,-246 480,-246 480,-234 480,-234 480,-228 486,-222 492,-222 492,-222 522,-222 522,-222 528,-222 534,-228 534,-234 534,-234 534,-246 534,-246 534,-252 528,-258 522,-258"/>
<text text-anchor="middle" x="507" y="-236.3" font-family="Times,serif" font-size="14.00" fill="#2f3638">pcall</text>
</g>
<!-- req&#45;&gt;pcall -->
<g id="edge4" class="edge">
<title>req&#45;&gt;pcall</title>
<path fill="none" stroke="#666666" d="M367.77,-151.13C388.38,-166.87 419.52,-189.92 448,-208 455.33,-212.65 463.38,-217.34 471.08,-221.64"/>
<polygon fill="#666666" stroke="#666666" points="469.46,-224.74 479.91,-226.49 472.83,-218.61 469.46,-224.74"/>
</g>
<!-- on_resp_old -->
<g id="node7" class="node">
<title>on_resp_old</title>
<path fill="none" stroke="#1c2123" d="M820,-147C820,-147 761,-147 761,-147 755,-147 749,-141 749,-135 749,-135 749,-123 749,-123 749,-117 755,-111 761,-111 761,-111 820,-111 820,-111 826,-111 832,-117 832,-123 832,-123 832,-135 832,-135 832,-141 826,-147 820,-147"/>
<text text-anchor="middle" x="790.5" y="-125.3" font-family="Times,serif" font-size="14.00" fill="#2f3638">on_resp_old</text>
</g>
<!-- req&#45;&gt;on_resp_old -->
<g id="edge5" class="edge">
<title>req&#45;&gt;on_resp_old</title>
<path fill="none" stroke="#666666" d="M370.95,-142.78C432.24,-163.98 588.29,-209.61 713,-175 729.17,-170.51 745.35,-161.59 758.63,-152.79"/>
<polygon fill="#666666" stroke="#666666" points="760.68,-155.63 766.92,-147.07 756.7,-149.87 760.68,-155.63"/>
</g>
<!-- on_resp_new -->
<g id="node8" class="node">
<title>on_resp_new</title>
<path fill="none" stroke="#1c2123" d="M690,-166C690,-166 625,-166 625,-166 619,-166 613,-160 613,-154 613,-154 613,-142 613,-142 613,-136 619,-130 625,-130 625,-130 690,-130 690,-130 696,-130 702,-136 702,-142 702,-142 702,-154 702,-154 702,-160 696,-166 690,-166"/>
<text text-anchor="middle" x="657.5" y="-144.3" font-family="Times,serif" font-size="14.00" fill="#2f3638">on_resp_new</text>
</g>
<!-- req&#45;&gt;on_resp_new -->
<g id="edge6" class="edge">
<title>req&#45;&gt;on_resp_new</title>
<path fill="none" stroke="#666666" d="M370.56,-134.25C421.48,-136.7 535.08,-142.16 602.77,-145.42"/>
<polygon fill="#666666" stroke="#666666" points="602.66,-148.92 612.81,-145.9 602.99,-141.92 602.66,-148.92"/>
</g>
<!-- on_resp -->
<g id="node9" class="node">
<title>on_resp</title>
<path fill="none" stroke="#1c2123" d="M524.5,-128C524.5,-128 489.5,-128 489.5,-128 483.5,-128 477.5,-122 477.5,-116 477.5,-116 477.5,-104 477.5,-104 477.5,-98 483.5,-92 489.5,-92 489.5,-92 524.5,-92 524.5,-92 530.5,-92 536.5,-98 536.5,-104 536.5,-104 536.5,-116 536.5,-116 536.5,-122 530.5,-128 524.5,-128"/>
<text text-anchor="middle" x="507" y="-106.3" font-family="Times,serif" font-size="14.00" fill="#2f3638">on_resp</text>
</g>
<!-- req&#45;&gt;on_resp -->
<g id="edge7" class="edge">
<title>req&#45;&gt;on_resp</title>
<path fill="none" stroke="#666666" d="M370.81,-129.25C396.95,-125.53 437.35,-119.78 467.18,-115.53"/>
<polygon fill="#666666" stroke="#666666" points="467.84,-118.97 477.25,-114.09 466.86,-112.04 467.84,-118.97"/>
</g>
<!-- COQ__Lsp_notify -->
<g id="node10" class="node">
<title>COQ__Lsp_notify</title>
<path fill="none" stroke="#1c2123" d="M974,-124C974,-124 880,-124 880,-124 874,-124 868,-118 868,-112 868,-112 868,-100 868,-100 868,-94 874,-88 880,-88 880,-88 974,-88 974,-88 980,-88 986,-94 986,-100 986,-100 986,-112 986,-112 986,-118 980,-124 974,-124"/>
<text text-anchor="middle" x="927" y="-102.3" font-family="Times,serif" font-size="14.00" fill="#2f3638">COQ__Lsp_notify</text>
</g>
<!-- req&#45;&gt;COQ__Lsp_notify -->
<g id="edge8" class="edge">
<title>req&#45;&gt;COQ__Lsp_notify</title>
<path fill="none" stroke="#666666" d="M370.51,-116.34C390.74,-104.43 419.99,-89.41 448,-83 591,-50.27 764.13,-73.63 857.8,-91.28"/>
<polygon fill="#666666" stroke="#666666" points="857.24,-94.73 867.72,-93.18 858.56,-87.86 857.24,-94.73"/>
</g>
<!-- callback__on_resp -->
<g id="node11" class="node">
<title>callback__on_resp</title>
<path fill="none" stroke="#1c2123" d="M554,-36C554,-36 460,-36 460,-36 454,-36 448,-30 448,-24 448,-24 448,-12 448,-12 448,-6 454,0 460,0 460,0 554,0 554,0 560,0 566,-6 566,-12 566,-12 566,-24 566,-24 566,-30 560,-36 554,-36"/>
<text text-anchor="middle" x="507" y="-14.3" font-family="Times,serif" font-size="14.00" fill="#2f3638">callback__on_resp</text>
</g>
<!-- req&#45;&gt;callback__on_resp -->
<g id="edge9" class="edge">
<title>req&#45;&gt;callback__on_resp</title>
<path fill="none" stroke="#666666" d="M365.1,-114.72C385.42,-97.12 417.76,-70.25 448,-50 452.54,-46.96 457.39,-43.95 462.28,-41.06"/>
<polygon fill="#666666" stroke="#666666" points="464.15,-44.02 471.07,-36 460.66,-37.95 464.15,-44.02"/>
</g>
<!-- COQ__lsp_preview -->
<g id="node4" class="node">
<title>COQ__lsp_preview</title>
<path fill="none" stroke="#1c2123" d="M170,-151C170,-151 69,-151 69,-151 63,-151 57,-145 57,-139 57,-139 57,-127 57,-127 57,-121 63,-115 69,-115 69,-115 170,-115 170,-115 176,-115 182,-121 182,-127 182,-127 182,-139 182,-139 182,-145 176,-151 170,-151"/>
<text text-anchor="middle" x="119.5" y="-129.3" font-family="Times,serif" font-size="14.00" fill="#2f3638">COQ__lsp_preview</text>
</g>
<!-- COQ__lsp_preview&#45;&gt;req -->
<g id="edge2" class="edge">
<title>COQ__lsp_preview&#45;&gt;req</title>
<path fill="none" stroke="#666666" d="M182.04,-133C221.88,-133 272.39,-133 305.99,-133"/>
<polygon fill="#666666" stroke="#666666" points="306.27,-136.5 316.27,-133 306.27,-129.5 306.27,-136.5"/>
</g>
<!-- COQ__lsp_third_party -->
<g id="node5" class="node">
<title>COQ__lsp_third_party</title>
<path fill="none" stroke="#1c2123" d="M178,-97C178,-97 61,-97 61,-97 55,-97 49,-91 49,-85 49,-85 49,-73 49,-73 49,-67 55,-61 61,-61 61,-61 178,-61 178,-61 184,-61 190,-67 190,-73 190,-73 190,-85 190,-85 190,-91 184,-97 178,-97"/>
<text text-anchor="middle" x="119.5" y="-75.3" font-family="Times,serif" font-size="14.00" fill="#2f3638">COQ__lsp_third_party</text>
</g>
<!-- COQ__lsp_third_party&#45;&gt;req -->
<g id="edge3" class="edge">
<title>COQ__lsp_third_party&#45;&gt;req</title>
<path fill="none" stroke="#666666" d="M190.14,-94.49C206.21,-98.17 223.22,-102.14 239,-106 261.43,-111.48 286.48,-118 306.32,-123.27"/>
<polygon fill="#666666" stroke="#666666" points="305.62,-126.7 316.18,-125.89 307.42,-119.94 305.62,-126.7"/>
</g>
<!-- on_resp_old&#45;&gt;COQ__Lsp_notify -->
<g id="edge10" class="edge">
<title>on_resp_old&#45;&gt;COQ__Lsp_notify</title>
<path fill="none" stroke="#666666" d="M832.22,-122.04C840.22,-120.67 848.82,-119.2 857.45,-117.72"/>
<polygon fill="#666666" stroke="#666666" points="858.29,-121.13 867.56,-115.99 857.11,-114.23 858.29,-121.13"/>
</g>
<!-- on_resp_new&#45;&gt;on_resp_old -->
<g id="edge11" class="edge">
<title>on_resp_new&#45;&gt;on_resp_old</title>
<path fill="none" stroke="#666666" d="M702.12,-141.67C713.87,-139.97 726.67,-138.11 738.77,-136.36"/>
<polygon fill="#666666" stroke="#666666" points="739.33,-139.81 748.73,-134.91 738.33,-132.89 739.33,-139.81"/>
</g>
<!-- on_resp&#45;&gt;on_resp_old -->
<g id="edge12" class="edge">
<title>on_resp&#45;&gt;on_resp_old</title>
<path fill="none" stroke="#666666" d="M536.55,-111.08C576.19,-112.67 650.11,-116.03 713,-121 721.23,-121.65 729.95,-122.45 738.45,-123.3"/>
<polygon fill="#666666" stroke="#666666" points="738.34,-126.81 748.64,-124.34 739.05,-119.84 738.34,-126.81"/>
</g>
<!-- on_resp&#45;&gt;on_resp_new -->
<g id="edge13" class="edge">
<title>on_resp&#45;&gt;on_resp_new</title>
<path fill="none" stroke="#666666" d="M536.63,-117.33C555.43,-122.14 580.59,-128.57 603.01,-134.31"/>
<polygon fill="#666666" stroke="#666666" points="602.19,-137.72 612.75,-136.8 603.93,-130.93 602.19,-137.72"/>
</g>
<!-- COQ__ts_req -->
<g id="node12" class="node">
<title>COQ__ts_req</title>
<path fill="none" stroke="#1c2123" d="M541,-339C541,-339 473,-339 473,-339 467,-339 461,-333 461,-327 461,-327 461,-315 461,-315 461,-309 467,-303 473,-303 473,-303 541,-303 541,-303 547,-303 553,-309 553,-315 553,-315 553,-327 553,-327 553,-333 547,-339 541,-339"/>
<text text-anchor="middle" x="507" y="-317.3" font-family="Times,serif" font-size="14.00" fill="#2f3638">COQ__ts_req</text>
</g>
<!-- vim__schedule -->
<g id="node13" class="node">
<title>vim__schedule</title>
<path fill="none" stroke="#1c2123" d="M695,-433C695,-433 620,-433 620,-433 614,-433 608,-427 608,-421 608,-421 608,-409 608,-409 608,-403 614,-397 620,-397 620,-397 695,-397 695,-397 701,-397 707,-403 707,-409 707,-409 707,-421 707,-421 707,-427 701,-433 695,-433"/>
<text text-anchor="middle" x="657.5" y="-411.3" font-family="Times,serif" font-size="14.00" fill="#2f3638">vim__schedule</text>
</g>
<!-- COQ__ts_req&#45;&gt;vim__schedule -->
<g id="edge14" class="edge">
<title>COQ__ts_req&#45;&gt;vim__schedule</title>
<path fill="none" stroke="#666666" d="M531.25,-339.15C549.85,-353.29 576.9,-372.97 602,-388 604.3,-389.38 606.68,-390.75 609.1,-392.1"/>
<polygon fill="#666666" stroke="#666666" points="607.51,-395.21 617.97,-396.87 610.83,-389.05 607.51,-395.21"/>
</g>
<!-- COQ__Ts_notify -->
<g id="node14" class="node">
<title>COQ__Ts_notify</title>
<path fill="none" stroke="#1c2123" d="M701,-379C701,-379 614,-379 614,-379 608,-379 602,-373 602,-367 602,-367 602,-355 602,-355 602,-349 608,-343 614,-343 614,-343 701,-343 701,-343 707,-343 713,-349 713,-355 713,-355 713,-367 713,-367 713,-373 707,-379 701,-379"/>
<text text-anchor="middle" x="657.5" y="-357.3" font-family="Times,serif" font-size="14.00" fill="#2f3638">COQ__Ts_notify</text>
</g>
<!-- COQ__ts_req&#45;&gt;COQ__Ts_notify -->
<g id="edge15" class="edge">
<title>COQ__ts_req&#45;&gt;COQ__Ts_notify</title>
<path fill="none" stroke="#666666" d="M553.36,-333.22C565.53,-336.5 578.92,-340.1 591.91,-343.6"/>
<polygon fill="#666666" stroke="#666666" points="591.18,-347.03 601.74,-346.25 593,-340.27 591.18,-347.03"/>
</g>
<!-- iter__nodes -->
<g id="node15" class="node">
<title>iter__nodes</title>
<path fill="none" stroke="#1c2123" d="M685.5,-325C685.5,-325 629.5,-325 629.5,-325 623.5,-325 617.5,-319 617.5,-313 617.5,-313 617.5,-301 617.5,-301 617.5,-295 623.5,-289 629.5,-289 629.5,-289 685.5,-289 685.5,-289 691.5,-289 697.5,-295 697.5,-301 697.5,-301 697.5,-313 697.5,-313 697.5,-319 691.5,-325 685.5,-325"/>
<text text-anchor="middle" x="657.5" y="-303.3" font-family="Times,serif" font-size="14.00" fill="#2f3638">iter__nodes</text>
</g>
<!-- COQ__ts_req&#45;&gt;iter__nodes -->
<g id="edge16" class="edge">
<title>COQ__ts_req&#45;&gt;iter__nodes</title>
<path fill="none" stroke="#666666" d="M553.36,-316.72C570.47,-315.11 590.01,-313.27 607.45,-311.62"/>
<polygon fill="#666666" stroke="#666666" points="607.81,-315.11 617.43,-310.68 607.15,-308.14 607.81,-315.11"/>
</g>
<!-- vim__loop_now -->
<g id="node16" class="node">
<title>vim__loop_now</title>
<path fill="none" stroke="#1c2123" d="M698.5,-271C698.5,-271 616.5,-271 616.5,-271 610.5,-271 604.5,-265 604.5,-259 604.5,-259 604.5,-247 604.5,-247 604.5,-241 610.5,-235 616.5,-235 616.5,-235 698.5,-235 698.5,-235 704.5,-235 710.5,-241 710.5,-247 710.5,-247 710.5,-259 710.5,-259 710.5,-265 704.5,-271 698.5,-271"/>
<text text-anchor="middle" x="657.5" y="-249.3" font-family="Times,serif" font-size="14.00" fill="#2f3638">vim__loop_now</text>
</g>
<!-- COQ__ts_req&#45;&gt;vim__loop_now -->
<g id="edge17" class="edge">
<title>COQ__ts_req&#45;&gt;vim__loop_now</title>
<path fill="none" stroke="#666666" d="M547.41,-302.96C566.02,-294.43 588.42,-284.17 608.07,-275.18"/>
<polygon fill="#666666" stroke="#666666" points="609.53,-278.36 617.17,-271.01 606.62,-271.99 609.53,-278.36"/>
</g>
<!-- coq__treesitter__request__async_request -->
<g id="node17" class="node">
<title>coq__treesitter__request__async_request</title>
<path fill="none" stroke="#1c2123" d="M227,-339C227,-339 12,-339 12,-339 6,-339 0,-333 0,-327 0,-327 0,-315 0,-315 0,-309 6,-303 12,-303 12,-303 227,-303 227,-303 233,-303 239,-309 239,-315 239,-315 239,-327 239,-327 239,-333 233,-339 227,-339"/>
<text text-anchor="middle" x="119.5" y="-317.3" font-family="Times,serif" font-size="14.00" fill="#2f3638">coq__treesitter__request__async_request</text>
</g>
<!-- nvim__api__exec_lua -->
<g id="node18" class="node">
<title>nvim__api__exec_lua</title>
<path fill="none" stroke="#1c2123" d="M400,-339C400,-339 287,-339 287,-339 281,-339 275,-333 275,-327 275,-327 275,-315 275,-315 275,-309 281,-303 287,-303 287,-303 400,-303 400,-303 406,-303 412,-309 412,-315 412,-315 412,-327 412,-327 412,-333 406,-339 400,-339"/>
<text text-anchor="middle" x="343.5" y="-317.3" font-family="Times,serif" font-size="14.00" fill="#2f3638">nvim__api__exec_lua</text>
</g>
<!-- coq__treesitter__request__async_request&#45;&gt;nvim__api__exec_lua -->
<g id="edge18" class="edge">
<title>coq__treesitter__request__async_request&#45;&gt;nvim__api__exec_lua</title>
<path fill="none" stroke="#666666" d="M239.3,-321C247.85,-321 256.34,-321 264.57,-321"/>
<polygon fill="#666666" stroke="#666666" points="264.83,-324.5 274.83,-321 264.83,-317.5 264.83,-324.5"/>
</g>
<!-- nvim__api__exec_lua&#45;&gt;COQ__ts_req -->
<g id="edge19" class="edge">
<title>nvim__api__exec_lua&#45;&gt;COQ__ts_req</title>
<path fill="none" stroke="#666666" d="M412.05,-321C424.89,-321 438.17,-321 450.57,-321"/>
<polygon fill="#666666" stroke="#666666" points="450.75,-324.5 460.75,-321 450.75,-317.5 450.75,-324.5"/>
</g>
<!-- lsp__Worker__request -->
<g id="node19" class="node">
<title>lsp__Worker__request</title>
<path fill="none" stroke="#1c2123" d="M177.5,-568C177.5,-568 61.5,-568 61.5,-568 55.5,-568 49.5,-562 49.5,-556 49.5,-556 49.5,-544 49.5,-544 49.5,-538 55.5,-532 61.5,-532 61.5,-532 177.5,-532 177.5,-532 183.5,-532 189.5,-538 189.5,-544 189.5,-544 189.5,-556 189.5,-556 189.5,-562 183.5,-568 177.5,-568"/>
<text text-anchor="middle" x="119.5" y="-546.3" font-family="Times,serif" font-size="14.00" fill="#2f3638">lsp__Worker__request</text>
</g>
<!-- request_lsp -->
<g id="node20" class="node">
<title>request_lsp</title>
<path fill="none" stroke="#1c2123" d="M370.5,-568C370.5,-568 316.5,-568 316.5,-568 310.5,-568 304.5,-562 304.5,-556 304.5,-556 304.5,-544 304.5,-544 304.5,-538 310.5,-532 316.5,-532 316.5,-532 370.5,-532 370.5,-532 376.5,-532 382.5,-538 382.5,-544 382.5,-544 382.5,-556 382.5,-556 382.5,-562 376.5,-568 370.5,-568"/>
<text text-anchor="middle" x="343.5" y="-546.3" font-family="Times,serif" font-size="14.00" fill="#2f3638">request_lsp</text>
</g>
<!-- lsp__Worker__request&#45;&gt;request_lsp -->
<g id="edge20" class="edge">
<title>lsp__Worker__request&#45;&gt;request_lsp</title>
<path fill="none" stroke="#666666" d="M189.53,-550C223.49,-550 263.6,-550 294.23,-550"/>
<polygon fill="#666666" stroke="#666666" points="294.23,-553.5 304.23,-550 294.23,-546.5 294.23,-553.5"/>
</g>
<!-- async_request -->
<g id="node21" class="node">
<title>async_request</title>
<path fill="none" stroke="#1c2123" d="M541.5,-595C541.5,-595 472.5,-595 472.5,-595 466.5,-595 460.5,-589 460.5,-583 460.5,-583 460.5,-571 460.5,-571 460.5,-565 466.5,-559 472.5,-559 472.5,-559 541.5,-559 541.5,-559 547.5,-559 553.5,-565 553.5,-571 553.5,-571 553.5,-583 553.5,-583 553.5,-589 547.5,-595 541.5,-595"/>
<text text-anchor="middle" x="507" y="-573.3" font-family="Times,serif" font-size="14.00" fill="#2f3638">async_request</text>
</g>
<!-- request_lsp&#45;&gt;async_request -->
<g id="edge21" class="edge">
<title>request_lsp&#45;&gt;async_request</title>
<path fill="none" stroke="#666666" d="M382.77,-556.4C402.91,-559.77 427.98,-563.96 450.24,-567.68"/>
<polygon fill="#666666" stroke="#666666" points="449.8,-571.15 460.25,-569.35 450.96,-564.25 449.8,-571.15"/>
</g>
<!-- parse -->
<g id="node22" class="node">
<title>parse</title>
<path fill="none" stroke="#1c2123" d="M522,-541C522,-541 492,-541 492,-541 486,-541 480,-535 480,-529 480,-529 480,-517 480,-517 480,-511 486,-505 492,-505 492,-505 522,-505 522,-505 528,-505 534,-511 534,-517 534,-517 534,-529 534,-529 534,-535 528,-541 522,-541"/>
<text text-anchor="middle" x="507" y="-519.3" font-family="Times,serif" font-size="14.00" fill="#2f3638">parse</text>
</g>
<!-- request_lsp&#45;&gt;parse -->
<g id="edge22" class="edge">
<title>request_lsp&#45;&gt;parse</title>
<path fill="none" stroke="#666666" d="M382.77,-543.6C409.01,-539.22 443.6,-533.43 469.46,-529.11"/>
<polygon fill="#666666" stroke="#666666" points="470.32,-532.51 479.6,-527.41 469.16,-525.61 470.32,-532.51"/>
</g>
<!-- shuffle -->
<g id="node23" class="node">
<title>shuffle</title>
<path fill="none" stroke="#1c2123" d="M672.5,-595C672.5,-595 642.5,-595 642.5,-595 636.5,-595 630.5,-589 630.5,-583 630.5,-583 630.5,-571 630.5,-571 630.5,-565 636.5,-559 642.5,-559 642.5,-559 672.5,-559 672.5,-559 678.5,-559 684.5,-565 684.5,-571 684.5,-571 684.5,-583 684.5,-583 684.5,-589 678.5,-595 672.5,-595"/>
<text text-anchor="middle" x="657.5" y="-573.3" font-family="Times,serif" font-size="14.00" fill="#2f3638">shuffle</text>
</g>
<!-- parse&#45;&gt;shuffle -->
<g id="edge23" class="edge">
<title>parse&#45;&gt;shuffle</title>
<path fill="none" stroke="#666666" d="M534.21,-532.53C558.13,-541.23 593.71,-554.17 620.33,-563.85"/>
<polygon fill="#666666" stroke="#666666" points="619.46,-567.26 630.06,-567.38 621.85,-560.68 619.46,-567.26"/>
</g>
<!-- parse_item -->
<g id="node24" class="node">
<title>parse_item</title>
<path fill="none" stroke="#1c2123" d="M684,-541C684,-541 631,-541 631,-541 625,-541 619,-535 619,-529 619,-529 619,-517 619,-517 619,-511 625,-505 631,-505 631,-505 684,-505 684,-505 690,-505 696,-511 696,-517 696,-517 696,-529 696,-529 696,-535 690,-541 684,-541"/>
<text text-anchor="middle" x="657.5" y="-519.3" font-family="Times,serif" font-size="14.00" fill="#2f3638">parse_item</text>
</g>
<!-- parse&#45;&gt;parse_item -->
<g id="edge24" class="edge">
<title>parse&#45;&gt;parse_item</title>
<path fill="none" stroke="#666666" d="M534.21,-523C554.75,-523 583.9,-523 608.58,-523"/>
<polygon fill="#666666" stroke="#666666" points="608.85,-526.5 618.85,-523 608.85,-519.5 608.85,-526.5"/>
</g>
<!-- LSPcomp -->
<g id="node25" class="node">
<title>LSPcomp</title>
<path fill="none" stroke="#1c2123" d="M681,-487C681,-487 634,-487 634,-487 628,-487 622,-481 622,-475 622,-475 622,-463 622,-463 622,-457 628,-451 634,-451 634,-451 681,-451 681,-451 687,-451 693,-457 693,-463 693,-463 693,-475 693,-475 693,-481 687,-487 681,-487"/>
<text text-anchor="middle" x="657.5" y="-465.3" font-family="Times,serif" font-size="14.00" fill="#2f3638">LSPcomp</text>
</g>
<!-- parse&#45;&gt;LSPcomp -->
<g id="edge25" class="edge">
<title>parse&#45;&gt;LSPcomp</title>
<path fill="none" stroke="#666666" d="M534.21,-513.47C555.84,-505.6 587.01,-494.27 612.46,-485.01"/>
<polygon fill="#666666" stroke="#666666" points="613.71,-488.29 621.91,-481.58 611.31,-481.71 613.71,-488.29"/>
</g>
<!-- Completion -->
<g id="node26" class="node">
<title>Completion</title>
<path fill="none" stroke="#1c2123" d="M762,-451C762,-451 819,-451 819,-451 825,-451 831,-457 831,-463 831,-463 831,-475 831,-475 831,-481 825,-487 819,-487 819,-487 762,-487 762,-487 756,-487 750,-481 750,-475 750,-475 750,-463 750,-463 750,-457 756,-451 762,-451"/>
<text text-anchor="start" x="758" y="-465.3" font-family="Times,serif" font-size="14.00" fill="#2f3638">Completion</text>
</g>
<!-- LSPcomp&#45;&gt;Completion -->
<g id="edge26" class="edge">
<title>LSPcomp&#45;&gt;Completion</title>
<path fill="none" stroke="#666666" d="M693.26,-469C707.43,-469 724.07,-469 739.5,-469"/>
<polygon fill="#666666" stroke="#666666" points="739.94,-472.5 749.94,-469 739.94,-465.5 739.94,-472.5"/>
</g>
</g>
</svg>
