<?xml version="1.0" encoding="UTF-8" standalone="no"?>
<!DOCTYPE svg PUBLIC "-//W3C//DTD SVG 1.1//EN"
 "http://www.w3.org/Graphics/SVG/1.1/DTD/svg11.dtd">
<!-- Generated by graphviz version 2.47.1 (20210417.1919)
 -->
<!-- Title: send_request_to_leader Pages: 1 -->
<svg width="2327pt" height="371pt"
 viewBox="0.00 0.00 2327.00 371.00" xmlns="http://www.w3.org/2000/svg" xmlns:xlink="http://www.w3.org/1999/xlink">
<g id="graph0" class="graph" transform="scale(1 1) rotate(0) translate(4 367)">
<title>send_request_to_leader</title>
<polygon fill="white" stroke="transparent" points="-4,4 -4,-367 2323,-367 2323,4 -4,4"/>
<!-- send_request_to_leader -->
<g id="node1" class="node">
<title>send_request_to_leader</title>
<path fill="none" stroke="#1c2123" d="M12,-82C12,-82 164,-82 164,-82 170,-82 176,-88 176,-94 176,-94 176,-154 176,-154 176,-160 170,-166 164,-166 164,-166 12,-166 12,-166 6,-166 0,-160 0,-154 0,-154 0,-94 0,-94 0,-88 6,-82 12,-82"/>
<text text-anchor="middle" x="88" y="-150.8" font-family="Times,serif" font-size="14.00" fill="#2f3638">send_request_to_leader</text>
<polyline fill="none" stroke="#1c2123" points="0,-143 176,-143 "/>
<text text-anchor="start" x="8" y="-127.8" font-family="Times,serif" font-size="14.00" fill="#2f3638">1.如果leader_client为None</text>
<text text-anchor="start" x="8" y="-112.8" font-family="Times,serif" font-size="14.00" fill="#2f3638"> 创建和leader的stream连接</text>
<polyline fill="none" stroke="#1c2123" points="0,-105 176,-105 "/>
<text text-anchor="start" x="8" y="-89.8" font-family="Times,serif" font-size="14.00" fill="#2f3638">2.调用detect</text>
</g>
<!-- reconnect_leader -->
<g id="node2" class="node">
<title>reconnect_leader</title>
<path fill="none" stroke="#1c2123" d="M247,-235.5C247,-235.5 351,-235.5 351,-235.5 357,-235.5 363,-241.5 363,-247.5 363,-247.5 363,-284.5 363,-284.5 363,-290.5 357,-296.5 351,-296.5 351,-296.5 247,-296.5 247,-296.5 241,-296.5 235,-290.5 235,-284.5 235,-284.5 235,-247.5 235,-247.5 235,-241.5 241,-235.5 247,-235.5"/>
<text text-anchor="middle" x="299" y="-281.3" font-family="Times,serif" font-size="14.00" fill="#2f3638">reconnect_leader</text>
<polyline fill="none" stroke="#1c2123" points="235,-273.5 363,-273.5 "/>
<text text-anchor="start" x="243" y="-258.3" font-family="Times,serif" font-size="14.00" fill="#2f3638">连接leader 的detect</text>
<text text-anchor="start" x="243" y="-243.3" font-family="Times,serif" font-size="14.00" fill="#2f3638"> grpc stream接口</text>
</g>
<!-- send_request_to_leader&#45;&gt;reconnect_leader -->
<g id="edge1" class="edge">
<title>send_request_to_leader&#45;&gt;reconnect_leader</title>
<path fill="none" stroke="#666666" d="M150.86,-166.03C180.53,-186.19 215.74,-210.11 244.27,-229.5"/>
<polygon fill="#666666" stroke="#666666" points="242.66,-232.63 252.9,-235.36 246.59,-226.84 242.66,-232.63"/>
</g>
<!-- client_detect -->
<g id="node3" class="node">
<title>client_detect</title>
<path fill="none" stroke="#1c2123" d="M224,-7.5C224,-7.5 374,-7.5 374,-7.5 380,-7.5 386,-13.5 386,-19.5 386,-19.5 386,-56.5 386,-56.5 386,-62.5 380,-68.5 374,-68.5 374,-68.5 224,-68.5 224,-68.5 218,-68.5 212,-62.5 212,-56.5 212,-56.5 212,-19.5 212,-19.5 212,-13.5 218,-7.5 224,-7.5"/>
<text text-anchor="middle" x="299" y="-53.3" font-family="Times,serif" font-size="14.00" fill="#2f3638">Client::detect</text>
<polyline fill="none" stroke="#1c2123" points="212,-45.5 386,-45.5 "/>
<text text-anchor="start" x="220" y="-30.3" font-family="Times,serif" font-size="14.00" fill="#2f3638">向UnboundedSender中发送</text>
<text text-anchor="start" x="220" y="-15.3" font-family="Times,serif" font-size="14.00" fill="#2f3638"> DeadlockRequest请求</text>
</g>
<!-- send_request_to_leader&#45;&gt;client_detect -->
<g id="edge2" class="edge">
<title>send_request_to_leader&#45;&gt;client_detect</title>
<path fill="none" stroke="#666666" d="M176.12,-88.15C188.71,-82.97 201.64,-77.65 214.16,-72.5"/>
<polygon fill="#666666" stroke="#666666" points="215.72,-75.64 223.64,-68.6 213.06,-69.17 215.72,-75.64"/>
</g>
<!-- register_detect_handler -->
<g id="node4" class="node">
<title>register_detect_handler</title>
<path fill="none" stroke="#1c2123" d="M553,-239C553,-239 434,-239 434,-239 428,-239 422,-233 422,-227 422,-227 422,-215 422,-215 422,-209 428,-203 434,-203 434,-203 553,-203 553,-203 559,-203 565,-209 565,-215 565,-215 565,-227 565,-227 565,-233 559,-239 553,-239"/>
<text text-anchor="middle" x="493.5" y="-217.3" font-family="Times,serif" font-size="14.00" fill="#2f3638">register_detect_handler</text>
</g>
<!-- reconnect_leader&#45;&gt;register_detect_handler -->
<g id="edge3" class="edge">
<title>reconnect_leader&#45;&gt;register_detect_handler</title>
<path fill="none" stroke="#666666" d="M363.03,-251.27C378.65,-247.61 395.6,-243.65 411.93,-239.83"/>
<polygon fill="#666666" stroke="#666666" points="413.06,-243.17 422,-237.48 411.46,-236.35 413.06,-243.17"/>
</g>
<!-- handler_lambda -->
<g id="node5" class="node">
<title>handler_lambda</title>
<path fill="none" stroke="#1c2123" d="M1927,-240C1927,-240 2084,-240 2084,-240 2090,-240 2096,-246 2096,-252 2096,-252 2096,-266 2096,-266 2096,-272 2090,-278 2084,-278 2084,-278 1927,-278 1927,-278 1921,-278 1915,-272 1915,-266 1915,-266 1915,-252 1915,-252 1915,-246 1921,-240 1927,-240"/>
<text text-anchor="start" x="1923" y="-262.8" font-family="Times,serif" font-size="14.00" fill="#2f3638">注册的闭包回调函数</text>
<text text-anchor="start" x="1923" y="-247.8" font-family="Times,serif" font-size="14.00" fill="#2f3638"> 处理DeadlockRequest的resp</text>
</g>
<!-- reconnect_leader&#45;&gt;handler_lambda -->
<g id="edge4" class="edge">
<title>reconnect_leader&#45;&gt;handler_lambda</title>
<path fill="none" stroke="#666666" d="M363.27,-294.06C433.74,-322.7 551.75,-363 658,-363 658,-363 658,-363 1638,-363 1755.5,-363 1886.41,-312.92 1955.54,-282.26"/>
<polygon fill="#666666" stroke="#666666" points="1957.18,-285.36 1964.87,-278.08 1954.32,-278.98 1957.18,-285.36"/>
</g>
<!-- spawn_local -->
<g id="node6" class="node">
<title>spawn_local</title>
<path fill="none" stroke="#1c2123" d="M999,-288C999,-288 1077,-288 1077,-288 1083,-288 1089,-294 1089,-300 1089,-300 1089,-322 1089,-322 1089,-328 1083,-334 1077,-334 1077,-334 999,-334 999,-334 993,-334 987,-328 987,-322 987,-322 987,-300 987,-300 987,-294 993,-288 999,-288"/>
<text text-anchor="middle" x="1038" y="-318.8" font-family="Times,serif" font-size="14.00" fill="#2f3638">spawn_local</text>
<polyline fill="none" stroke="#1c2123" points="987,-311 1089,-311 "/>
<text text-anchor="start" x="995" y="-295.8" font-family="Times,serif" font-size="14.00" fill="#2f3638">执行异步任务</text>
</g>
<!-- reconnect_leader&#45;&gt;spawn_local -->
<g id="edge5" class="edge">
<title>reconnect_leader&#45;&gt;spawn_local</title>
<path fill="none" stroke="#666666" d="M363.15,-269.86C503.31,-278.41 838.82,-298.9 976.49,-307.31"/>
<polygon fill="#666666" stroke="#666666" points="976.64,-310.82 986.84,-307.94 977.07,-303.83 976.64,-310.82"/>
</g>
<!-- client_detect&#45;&gt;handler_lambda -->
<g id="edge7" class="edge">
<title>client_detect&#45;&gt;handler_lambda</title>
<path fill="none" stroke="green" stroke-dasharray="5,2" d="M386.17,-23.69C458.52,-12.92 564.72,0 658,0 658,0 658,0 1638,0 1797.2,0 1935.74,-164.99 1985.19,-231.6"/>
<polygon fill="green" stroke="green" points="1982.57,-233.95 1991.3,-239.96 1988.22,-229.82 1982.57,-233.95"/>
</g>
<!-- tx -->
<g id="node13" class="node">
<title>tx</title>
<path fill="#feed9b" stroke="#f7e495" d="M765,-93.5C765,-93.5 902,-93.5 902,-93.5 908,-93.5 914,-99.5 914,-105.5 914,-105.5 914,-142.5 914,-142.5 914,-148.5 908,-154.5 902,-154.5 902,-154.5 765,-154.5 765,-154.5 759,-154.5 753,-148.5 753,-142.5 753,-142.5 753,-105.5 753,-105.5 753,-99.5 759,-93.5 765,-93.5"/>
<text text-anchor="middle" x="833.5" y="-139.3" font-family="Times,serif" font-size="14.00" fill="#40575d">tx</text>
<polyline fill="none" stroke="#f7e495" points="753,-131.5 914,-131.5 "/>
<text text-anchor="start" x="761" y="-116.3" font-family="Times,serif" font-size="14.00" fill="#40575d">channel的发送端</text>
<text text-anchor="start" x="761" y="-101.3" font-family="Times,serif" font-size="14.00" fill="#40575d"> 被赋值给了client.sender</text>
</g>
<!-- client_detect&#45;&gt;tx -->
<g id="edge15" class="edge">
<title>client_detect&#45;&gt;tx</title>
<path fill="none" stroke="green" stroke-dasharray="5,2" d="M386.15,-51.91C484.04,-67.72 643.09,-93.41 742.54,-109.47"/>
<polygon fill="green" stroke="green" points="742.14,-112.95 752.57,-111.09 743.26,-106.04 742.14,-112.95"/>
</g>
<!-- send_task -->
<g id="node8" class="node">
<title>send_task</title>
<path fill="none" stroke="#1c2123" d="M1174,-139.5C1174,-139.5 1334,-139.5 1334,-139.5 1340,-139.5 1346,-145.5 1346,-151.5 1346,-151.5 1346,-218.5 1346,-218.5 1346,-224.5 1340,-230.5 1334,-230.5 1334,-230.5 1174,-230.5 1174,-230.5 1168,-230.5 1162,-224.5 1162,-218.5 1162,-218.5 1162,-151.5 1162,-151.5 1162,-145.5 1168,-139.5 1174,-139.5"/>
<text text-anchor="middle" x="1254" y="-215.3" font-family="Times,serif" font-size="14.00" fill="#2f3638">send_task</text>
<polyline fill="none" stroke="#1c2123" points="1162,-207.5 1346,-207.5 "/>
<text text-anchor="start" x="1170" y="-192.3" font-family="Times,serif" font-size="14.00" fill="#2f3638">async 任务</text>
<text text-anchor="start" x="1170" y="-177.3" font-family="Times,serif" font-size="14.00" fill="#2f3638"> 从rx端接收DeadlockRequest</text>
<text text-anchor="start" x="1170" y="-162.3" font-family="Times,serif" font-size="14.00" fill="#2f3638"> 然后使用sink.send_all</text>
<text text-anchor="start" x="1170" y="-147.3" font-family="Times,serif" font-size="14.00" fill="#2f3638"> 请求发给Deadlock Server</text>
</g>
<!-- register_detect_handler&#45;&gt;send_task -->
<g id="edge8" class="edge">
<title>register_detect_handler&#45;&gt;send_task</title>
<path fill="none" stroke="#666666" d="M565.19,-221.24C682.08,-221.11 922.94,-218.6 1126,-202 1134.37,-201.32 1143.03,-200.46 1151.71,-199.51"/>
<polygon fill="#666666" stroke="#666666" points="1152.36,-202.96 1161.9,-198.34 1151.57,-196 1152.36,-202.96"/>
</g>
<!-- recv_task -->
<g id="node9" class="node">
<title>recv_task</title>
<path fill="none" stroke="#1c2123" d="M1758,-221C1758,-221 1867,-221 1867,-221 1873,-221 1879,-227 1879,-233 1879,-233 1879,-285 1879,-285 1879,-291 1873,-297 1867,-297 1867,-297 1758,-297 1758,-297 1752,-297 1746,-291 1746,-285 1746,-285 1746,-233 1746,-233 1746,-227 1752,-221 1758,-221"/>
<text text-anchor="middle" x="1812.5" y="-281.8" font-family="Times,serif" font-size="14.00" fill="#2f3638">recv_task</text>
<polyline fill="none" stroke="#1c2123" points="1746,-274 1879,-274 "/>
<text text-anchor="start" x="1754" y="-258.8" font-family="Times,serif" font-size="14.00" fill="#2f3638">从reciver接收resp</text>
<text text-anchor="start" x="1754" y="-243.8" font-family="Times,serif" font-size="14.00" fill="#2f3638"> 并调用设置好的cb</text>
<text text-anchor="start" x="1754" y="-228.8" font-family="Times,serif" font-size="14.00" fill="#2f3638"> 回调函数</text>
</g>
<!-- register_detect_handler&#45;&gt;recv_task -->
<g id="edge9" class="edge">
<title>register_detect_handler&#45;&gt;recv_task</title>
<path fill="none" stroke="#666666" d="M565.13,-233.6C633.33,-244.66 739.64,-259 832.5,-259 832.5,-259 832.5,-259 1456,-259 1552.47,-259 1663.67,-259 1735.65,-259"/>
<polygon fill="#666666" stroke="#666666" points="1735.98,-262.5 1745.98,-259 1735.98,-255.5 1735.98,-262.5"/>
</g>
<!-- DeadlockClient_detect -->
<g id="node10" class="node">
<title>DeadlockClient_detect</title>
<path fill="none" stroke="#1c2123" d="M1195.5,-59.5C1195.5,-59.5 1312.5,-59.5 1312.5,-59.5 1318.5,-59.5 1324.5,-65.5 1324.5,-71.5 1324.5,-71.5 1324.5,-108.5 1324.5,-108.5 1324.5,-114.5 1318.5,-120.5 1312.5,-120.5 1312.5,-120.5 1195.5,-120.5 1195.5,-120.5 1189.5,-120.5 1183.5,-114.5 1183.5,-108.5 1183.5,-108.5 1183.5,-71.5 1183.5,-71.5 1183.5,-65.5 1189.5,-59.5 1195.5,-59.5"/>
<text text-anchor="middle" x="1254" y="-105.3" font-family="Times,serif" font-size="14.00" fill="#2f3638">DeadlockClient::detect</text>
<polyline fill="none" stroke="#1c2123" points="1183.5,-97.5 1324.5,-97.5 "/>
<text text-anchor="start" x="1191.5" y="-82.3" font-family="Times,serif" font-size="14.00" fill="#2f3638">Grcp client， detect</text>
<text text-anchor="start" x="1191.5" y="-67.3" font-family="Times,serif" font-size="14.00" fill="#2f3638"> 返回sink, recv</text>
</g>
<!-- register_detect_handler&#45;&gt;DeadlockClient_detect -->
<g id="edge10" class="edge">
<title>register_detect_handler&#45;&gt;DeadlockClient_detect</title>
<path fill="none" stroke="#666666" d="M505.68,-202.83C522.74,-176.85 557.87,-129.72 601,-107 786.52,-9.28 1044.79,-44.04 1173.5,-70.75"/>
<polygon fill="#666666" stroke="#666666" points="1172.78,-74.17 1183.29,-72.82 1174.23,-67.32 1172.78,-74.17"/>
</g>
<!-- mpsc_unbounded -->
<g id="node11" class="node">
<title>mpsc_unbounded</title>
<path fill="none" stroke="#1c2123" d="M613,-116C613,-116 705,-116 705,-116 711,-116 717,-122 717,-128 717,-128 717,-180 717,-180 717,-186 711,-192 705,-192 705,-192 613,-192 613,-192 607,-192 601,-186 601,-180 601,-180 601,-128 601,-128 601,-122 607,-116 613,-116"/>
<text text-anchor="middle" x="659" y="-176.8" font-family="Times,serif" font-size="14.00" fill="#2f3638">mpsc::unbounded</text>
<polyline fill="none" stroke="#1c2123" points="601,-169 717,-169 "/>
<text text-anchor="start" x="609" y="-153.8" font-family="Times,serif" font-size="14.00" fill="#2f3638">创建一个channel</text>
<text text-anchor="start" x="609" y="-138.8" font-family="Times,serif" font-size="14.00" fill="#2f3638"> rx为接收端</text>
<text text-anchor="start" x="609" y="-123.8" font-family="Times,serif" font-size="14.00" fill="#2f3638"> tx为发送端</text>
</g>
<!-- register_detect_handler&#45;&gt;mpsc_unbounded -->
<g id="edge11" class="edge">
<title>register_detect_handler&#45;&gt;mpsc_unbounded</title>
<path fill="none" stroke="#666666" d="M538.75,-202.87C554.86,-196.26 573.47,-188.64 591.11,-181.41"/>
<polygon fill="#666666" stroke="#666666" points="592.87,-184.47 600.8,-177.44 590.22,-177.99 592.87,-184.47"/>
</g>
<!-- WaiterMgrScheduler_deadlock -->
<g id="node7" class="node">
<title>WaiterMgrScheduler_deadlock</title>
<path fill="none" stroke="#1c2123" d="M2307,-277C2307,-277 2144,-277 2144,-277 2138,-277 2132,-271 2132,-265 2132,-265 2132,-253 2132,-253 2132,-247 2138,-241 2144,-241 2144,-241 2307,-241 2307,-241 2313,-241 2319,-247 2319,-253 2319,-253 2319,-265 2319,-265 2319,-271 2313,-277 2307,-277"/>
<text text-anchor="middle" x="2225.5" y="-255.3" font-family="Times,serif" font-size="14.00" fill="#2f3638">WaiterMgrScheduler_deadlock</text>
</g>
<!-- handler_lambda&#45;&gt;WaiterMgrScheduler_deadlock -->
<g id="edge6" class="edge">
<title>handler_lambda&#45;&gt;WaiterMgrScheduler_deadlock</title>
<path fill="none" stroke="#666666" d="M2096.11,-259C2104.55,-259 2113.15,-259 2121.7,-259"/>
<polygon fill="#666666" stroke="#666666" points="2121.71,-262.5 2131.71,-259 2121.71,-255.5 2121.71,-262.5"/>
</g>
<!-- spawn_local&#45;&gt;send_task -->
<g id="edge19" class="edge">
<title>spawn_local&#45;&gt;send_task</title>
<path fill="none" stroke="green" stroke-dasharray="5,2" d="M1078.25,-287.89C1102.96,-273.34 1135.86,-253.97 1166.44,-235.96"/>
<polygon fill="green" stroke="green" points="1168.58,-238.77 1175.42,-230.68 1165.03,-232.73 1168.58,-238.77"/>
</g>
<!-- spawn_local&#45;&gt;recv_task -->
<g id="edge20" class="edge">
<title>spawn_local&#45;&gt;recv_task</title>
<path fill="none" stroke="green" stroke-dasharray="5,2" d="M1089.19,-309.54C1200.93,-305.98 1478.6,-295.47 1710,-273 1718.34,-272.19 1727.04,-271.21 1735.69,-270.14"/>
<polygon fill="green" stroke="green" points="1736.32,-273.58 1745.8,-268.85 1735.44,-266.64 1736.32,-273.58"/>
</g>
<!-- sink -->
<g id="node14" class="node">
<title>sink</title>
<path fill="#feed9b" stroke="#f7e495" d="M1394,-140C1394,-140 1516,-140 1516,-140 1522,-140 1528,-146 1528,-152 1528,-152 1528,-204 1528,-204 1528,-210 1522,-216 1516,-216 1516,-216 1394,-216 1394,-216 1388,-216 1382,-210 1382,-204 1382,-204 1382,-152 1382,-152 1382,-146 1388,-140 1394,-140"/>
<text text-anchor="middle" x="1455" y="-200.8" font-family="Times,serif" font-size="14.00" fill="#40575d">sink</text>
<polyline fill="none" stroke="#f7e495" points="1382,-193 1528,-193 "/>
<text text-anchor="start" x="1390" y="-177.8" font-family="Times,serif" font-size="14.00" fill="#40575d">grpc stream detect接口</text>
<text text-anchor="start" x="1390" y="-162.8" font-family="Times,serif" font-size="14.00" fill="#40575d"> 返回的 sink</text>
<text text-anchor="start" x="1390" y="-147.8" font-family="Times,serif" font-size="14.00" fill="#40575d"> 用来写数据</text>
</g>
<!-- send_task&#45;&gt;sink -->
<g id="edge18" class="edge">
<title>send_task&#45;&gt;sink</title>
<path fill="none" stroke="green" stroke-dasharray="5,2" d="M1346.06,-181.8C1354.57,-181.5 1363.16,-181.2 1371.59,-180.9"/>
<polygon fill="green" stroke="green" points="1371.9,-184.39 1381.77,-180.54 1371.65,-177.39 1371.9,-184.39"/>
</g>
<!-- recv_task&#45;&gt;handler_lambda -->
<g id="edge14" class="edge">
<title>recv_task&#45;&gt;handler_lambda</title>
<path fill="none" stroke="#666666" d="M1879.23,-259C1887.45,-259 1896,-259 1904.6,-259"/>
<polygon fill="#666666" stroke="#666666" points="1904.69,-262.5 1914.69,-259 1904.69,-255.5 1904.69,-262.5"/>
</g>
<!-- DeadlockClient_detect&#45;&gt;sink -->
<g id="edge22" class="edge">
<title>DeadlockClient_detect&#45;&gt;sink</title>
<path fill="none" stroke="#666666" d="M1324.57,-120.55C1331.81,-123.73 1339.05,-126.93 1346,-130 1354.64,-133.82 1363.66,-137.81 1372.64,-141.8"/>
<polygon fill="#666666" stroke="#666666" points="1371.42,-145.09 1381.98,-145.94 1374.26,-138.69 1371.42,-145.09"/>
</g>
<!-- receiver -->
<g id="node15" class="node">
<title>receiver</title>
<path fill="#feed9b" stroke="#f7e495" d="M1576,-140C1576,-140 1698,-140 1698,-140 1704,-140 1710,-146 1710,-152 1710,-152 1710,-204 1710,-204 1710,-210 1704,-216 1698,-216 1698,-216 1576,-216 1576,-216 1570,-216 1564,-210 1564,-204 1564,-204 1564,-152 1564,-152 1564,-146 1570,-140 1576,-140"/>
<text text-anchor="middle" x="1637" y="-200.8" font-family="Times,serif" font-size="14.00" fill="#40575d">receiver</text>
<polyline fill="none" stroke="#f7e495" points="1564,-193 1710,-193 "/>
<text text-anchor="start" x="1572" y="-177.8" font-family="Times,serif" font-size="14.00" fill="#40575d">grpc stream detect接口</text>
<text text-anchor="start" x="1572" y="-162.8" font-family="Times,serif" font-size="14.00" fill="#40575d"> 返回的Reciver</text>
<text text-anchor="start" x="1572" y="-147.8" font-family="Times,serif" font-size="14.00" fill="#40575d"> 用来接收数据</text>
</g>
<!-- DeadlockClient_detect&#45;&gt;receiver -->
<g id="edge23" class="edge">
<title>DeadlockClient_detect&#45;&gt;receiver</title>
<path fill="none" stroke="#666666" d="M1324.5,-95.39C1380.32,-100.91 1460.29,-111.55 1528,-131 1536.66,-133.49 1545.54,-136.51 1554.3,-139.81"/>
<polygon fill="#666666" stroke="#666666" points="1553.17,-143.13 1563.75,-143.49 1555.71,-136.6 1553.17,-143.13"/>
</g>
<!-- rx -->
<g id="node12" class="node">
<title>rx</title>
<path fill="none" stroke="#1c2123" d="M962,-131.5C962,-131.5 1114,-131.5 1114,-131.5 1120,-131.5 1126,-137.5 1126,-143.5 1126,-143.5 1126,-180.5 1126,-180.5 1126,-186.5 1120,-192.5 1114,-192.5 1114,-192.5 962,-192.5 962,-192.5 956,-192.5 950,-186.5 950,-180.5 950,-180.5 950,-143.5 950,-143.5 950,-137.5 956,-131.5 962,-131.5"/>
<text text-anchor="middle" x="1038" y="-177.3" font-family="Times,serif" font-size="14.00" fill="#2f3638">rx</text>
<polyline fill="none" stroke="#1c2123" points="950,-169.5 1126,-169.5 "/>
<text text-anchor="start" x="958" y="-154.3" font-family="Times,serif" font-size="14.00" fill="#2f3638">channel的接收端</text>
<text text-anchor="start" x="958" y="-139.3" font-family="Times,serif" font-size="14.00" fill="#2f3638"> 被闭包move到了send_task</text>
</g>
<!-- mpsc_unbounded&#45;&gt;rx -->
<g id="edge12" class="edge">
<title>mpsc_unbounded&#45;&gt;rx</title>
<path fill="none" stroke="#666666" d="M717.47,-161.15C729.21,-162.34 741.49,-163.38 753,-164 815.11,-167.33 884.97,-166.89 939.86,-165.59"/>
<polygon fill="#666666" stroke="#666666" points="940.02,-169.09 949.93,-165.34 939.84,-162.09 940.02,-169.09"/>
</g>
<!-- mpsc_unbounded&#45;&gt;tx -->
<g id="edge13" class="edge">
<title>mpsc_unbounded&#45;&gt;tx</title>
<path fill="none" stroke="#666666" d="M717.44,-144.01C725.61,-142.59 734.17,-141.1 742.78,-139.6"/>
<polygon fill="#666666" stroke="#666666" points="743.63,-143.01 752.89,-137.85 742.43,-136.11 743.63,-143.01"/>
</g>
<!-- rx&#45;&gt;send_task -->
<g id="edge17" class="edge">
<title>rx&#45;&gt;send_task</title>
<path fill="none" stroke="green" stroke-dasharray="5,2" d="M1126.04,-171.35C1134.53,-172.27 1143.18,-173.2 1151.79,-174.12"/>
<polygon fill="green" stroke="green" points="1151.54,-177.62 1161.86,-175.2 1152.29,-170.66 1151.54,-177.62"/>
</g>
<!-- tx&#45;&gt;rx -->
<g id="edge16" class="edge">
<title>tx&#45;&gt;rx</title>
<path fill="none" stroke="green" stroke-dasharray="5,2" d="M914.24,-138.96C922.67,-140.55 931.32,-142.17 939.92,-143.78"/>
<polygon fill="green" stroke="green" points="939.51,-147.27 949.98,-145.67 940.8,-140.39 939.51,-147.27"/>
</g>
<!-- sink&#45;&gt;receiver -->
<g id="edge21" class="edge">
<title>sink&#45;&gt;receiver</title>
<path fill="none" stroke="green" stroke-dasharray="5,2" d="M1528.18,-178C1536.52,-178 1545.08,-178 1553.54,-178"/>
<polygon fill="green" stroke="green" points="1553.81,-181.5 1563.81,-178 1553.81,-174.5 1553.81,-181.5"/>
</g>
<!-- receiver&#45;&gt;recv_task -->
<g id="edge24" class="edge">
<title>receiver&#45;&gt;recv_task</title>
<path fill="none" stroke="#666666" d="M1710.07,-211.65C1718.85,-215.74 1727.83,-219.94 1736.65,-224.05"/>
<polygon fill="#666666" stroke="#666666" points="1735.21,-227.25 1745.76,-228.31 1738.17,-220.9 1735.21,-227.25"/>
</g>
</g>
</svg>
