<?xml version="1.0" encoding="UTF-8" standalone="no"?>
<!DOCTYPE svg PUBLIC "-//W3C//DTD SVG 1.1//EN"
 "http://www.w3.org/Graphics/SVG/1.1/DTD/svg11.dtd">
<!-- Generated by graphviz version 2.47.0 (20210316.0004)
 -->
<!-- Title: exec_change_peer Pages: 1 -->
<svg width="1385pt" height="556pt"
 viewBox="0.00 0.00 1385.00 556.31" xmlns="http://www.w3.org/2000/svg" xmlns:xlink="http://www.w3.org/1999/xlink">
<g id="graph0" class="graph" transform="scale(1 1) rotate(0) translate(4 552.31)">
<title>exec_change_peer</title>
<polygon fill="white" stroke="transparent" points="-4,4 -4,-552.31 1381,-552.31 1381,4 -4,4"/>
<g id="clust1" class="cluster">
<title>cluster_ApplyDelegate</title>
<path fill="none" stroke="slategrey" stroke-dasharray="5,2" d="M20,-19.31C20,-19.31 1357,-19.31 1357,-19.31 1363,-19.31 1369,-25.31 1369,-31.31 1369,-31.31 1369,-528.31 1369,-528.31 1369,-534.31 1363,-540.31 1357,-540.31 1357,-540.31 20,-540.31 20,-540.31 14,-540.31 8,-534.31 8,-528.31 8,-528.31 8,-31.31 8,-31.31 8,-25.31 14,-19.31 20,-19.31"/>
<text text-anchor="middle" x="688.5" y="-520.31" font-family="Times,serif" font-size="20.00">ApplyDelegate</text>
</g>
<!-- exec_change_peer -->
<g id="node1" class="node">
<title>exec_change_peer</title>
<path fill="none" stroke="#1c2123" d="M120,-204.31C120,-204.31 28,-204.31 28,-204.31 22,-204.31 16,-198.31 16,-192.31 16,-192.31 16,-180.31 16,-180.31 16,-174.31 22,-168.31 28,-168.31 28,-168.31 120,-168.31 120,-168.31 126,-168.31 132,-174.31 132,-180.31 132,-180.31 132,-192.31 132,-192.31 132,-198.31 126,-204.31 120,-204.31"/>
<text text-anchor="middle" x="74" y="-182.61" font-family="Times,serif" font-size="14.00" fill="#2f3638">exec_change_peer</text>
</g>
<!-- PeerState_Tombstone -->
<g id="node2" class="node">
<title>PeerState_Tombstone</title>
<path fill="none" stroke="#1c2123" d="M1008,-47.81C1008,-47.81 1207,-47.81 1207,-47.81 1213,-47.81 1219,-53.81 1219,-59.81 1219,-59.81 1219,-96.81 1219,-96.81 1219,-102.81 1213,-108.81 1207,-108.81 1207,-108.81 1008,-108.81 1008,-108.81 1002,-108.81 996,-102.81 996,-96.81 996,-96.81 996,-59.81 996,-59.81 996,-53.81 1002,-47.81 1008,-47.81"/>
<text text-anchor="middle" x="1107.5" y="-93.61" font-family="Times,serif" font-size="14.00" fill="#2f3638">PeerState_Tombstone</text>
<polyline fill="none" stroke="#1c2123" points="996,-85.81 1219,-85.81 "/>
<text text-anchor="start" x="1004" y="-70.61" font-family="Times,serif" font-size="14.00" fill="#2f3638">设置region的PeerState为TombStone</text>
<text text-anchor="start" x="1004" y="-55.61" font-family="Times,serif" font-size="14.00" fill="#2f3638"> 后续会清理该Region的数据</text>
</g>
<!-- exec_change_peer&#45;&gt;PeerState_Tombstone -->
<g id="edge1" class="edge">
<title>exec_change_peer&#45;&gt;PeerState_Tombstone</title>
<path fill="none" stroke="#666666" d="M81.85,-168.04C94.01,-138.57 122.48,-81.51 168,-58.31 191.72,-46.23 561.44,-33.21 960,-59.31 968.37,-59.86 976.99,-60.58 985.66,-61.41"/>
<polygon fill="#666666" stroke="#666666" points="985.56,-64.92 995.86,-62.45 986.26,-57.96 985.56,-64.92"/>
</g>
<!-- PeerState_Normal -->
<g id="node3" class="node">
<title>PeerState_Normal</title>
<path fill="none" stroke="#1c2123" d="M1153.5,-243.31C1153.5,-243.31 1061.5,-243.31 1061.5,-243.31 1055.5,-243.31 1049.5,-237.31 1049.5,-231.31 1049.5,-231.31 1049.5,-219.31 1049.5,-219.31 1049.5,-213.31 1055.5,-207.31 1061.5,-207.31 1061.5,-207.31 1153.5,-207.31 1153.5,-207.31 1159.5,-207.31 1165.5,-213.31 1165.5,-219.31 1165.5,-219.31 1165.5,-231.31 1165.5,-231.31 1165.5,-237.31 1159.5,-243.31 1153.5,-243.31"/>
<text text-anchor="middle" x="1107.5" y="-221.61" font-family="Times,serif" font-size="14.00" fill="#2f3638">PeerState_Normal</text>
</g>
<!-- exec_change_peer&#45;&gt;PeerState_Normal -->
<g id="edge2" class="edge">
<title>exec_change_peer&#45;&gt;PeerState_Normal</title>
<path fill="none" stroke="#666666" d="M132.23,-185.44C198.91,-185.06 312.29,-186.39 409,-197.31 425.2,-199.14 428.8,-202.49 445,-204.31 661.07,-228.59 919.16,-228.45 1039.08,-226.73"/>
<polygon fill="#666666" stroke="#666666" points="1039.26,-230.22 1049.21,-226.57 1039.16,-223.23 1039.26,-230.22"/>
</g>
<!-- write_peer_state -->
<g id="node4" class="node">
<title>write_peer_state</title>
<path fill="none" stroke="#1c2123" d="M1349,-96.31C1349,-96.31 1267,-96.31 1267,-96.31 1261,-96.31 1255,-90.31 1255,-84.31 1255,-84.31 1255,-72.31 1255,-72.31 1255,-66.31 1261,-60.31 1267,-60.31 1267,-60.31 1349,-60.31 1349,-60.31 1355,-60.31 1361,-66.31 1361,-72.31 1361,-72.31 1361,-84.31 1361,-84.31 1361,-90.31 1355,-96.31 1349,-96.31"/>
<text text-anchor="middle" x="1308" y="-74.61" font-family="Times,serif" font-size="14.00" fill="#2f3638">write_peer_state</text>
</g>
<!-- exec_change_peer&#45;&gt;write_peer_state -->
<g id="edge3" class="edge">
<title>exec_change_peer&#45;&gt;write_peer_state</title>
<path fill="none" stroke="#666666" d="M80.22,-168.21C90.69,-135.64 117.71,-67.98 168,-40.31 329.21,48.39 812,-38.53 996,-38.31 1095.11,-38.19 1122.14,-17.33 1219,-38.31 1235.28,-41.84 1252.16,-48.64 1266.74,-55.66"/>
<polygon fill="#666666" stroke="#666666" points="1265.44,-58.92 1275.95,-60.26 1268.57,-52.66 1265.44,-58.92"/>
</g>
<!-- region_mut_peers -->
<g id="node5" class="node">
<title>region_mut_peers</title>
<path fill="none" stroke="#1c2123" d="M334,-502.31C334,-502.31 243,-502.31 243,-502.31 237,-502.31 231,-496.31 231,-490.31 231,-490.31 231,-478.31 231,-478.31 231,-472.31 237,-466.31 243,-466.31 243,-466.31 334,-466.31 334,-466.31 340,-466.31 346,-472.31 346,-478.31 346,-478.31 346,-490.31 346,-490.31 346,-496.31 340,-502.31 334,-502.31"/>
<text text-anchor="middle" x="288.5" y="-480.61" font-family="Times,serif" font-size="14.00" fill="#2f3638">region_mut_peers</text>
</g>
<!-- exec_change_peer&#45;&gt;region_mut_peers -->
<g id="edge4" class="edge">
<title>exec_change_peer&#45;&gt;region_mut_peers</title>
<path fill="none" stroke="#666666" d="M75.48,-204.39C77.79,-253.15 91.17,-388.39 168,-457.31 182.43,-470.26 201.72,-477.4 220.6,-481.25"/>
<polygon fill="#666666" stroke="#666666" points="220.25,-484.74 230.7,-483.01 221.45,-477.84 220.25,-484.74"/>
</g>
<!-- ConfChangeType_RemoveNode -->
<g id="node6" class="node">
<title>ConfChangeType_RemoveNode</title>
<path fill="none" stroke="#1c2123" d="M203.5,-67.81C203.5,-67.81 373.5,-67.81 373.5,-67.81 379.5,-67.81 385.5,-73.81 385.5,-79.81 385.5,-79.81 385.5,-154.81 385.5,-154.81 385.5,-160.81 379.5,-166.81 373.5,-166.81 373.5,-166.81 203.5,-166.81 203.5,-166.81 197.5,-166.81 191.5,-160.81 191.5,-154.81 191.5,-154.81 191.5,-79.81 191.5,-79.81 191.5,-73.81 197.5,-67.81 203.5,-67.81"/>
<text text-anchor="middle" x="288.5" y="-151.61" font-family="Times,serif" font-size="14.00" fill="#2f3638">ConfChangeType_RemoveNode</text>
<polyline fill="none" stroke="#1c2123" points="191.5,-143.81 385.5,-143.81 "/>
<text text-anchor="start" x="199.5" y="-128.61" font-family="Times,serif" font-size="14.00" fill="#2f3638">如果self.id == peer.get_id</text>
<text text-anchor="start" x="199.5" y="-113.61" font-family="Times,serif" font-size="14.00" fill="#2f3638"> self.stopped = true</text>
<text text-anchor="start" x="199.5" y="-98.61" font-family="Times,serif" font-size="14.00" fill="#2f3638"> self.pending_remove = true</text>
<polyline fill="none" stroke="#1c2123" points="191.5,-90.81 385.5,-90.81 "/>
<text text-anchor="middle" x="288.5" y="-75.61" font-family="Times,serif" font-size="14.00" fill="#2f3638">从region peer列表中删除</text>
</g>
<!-- exec_change_peer&#45;&gt;ConfChangeType_RemoveNode -->
<g id="edge5" class="edge">
<title>exec_change_peer&#45;&gt;ConfChangeType_RemoveNode</title>
<path fill="none" stroke="#666666" d="M130.55,-168.27C146.22,-163.19 163.81,-157.48 181.39,-151.77"/>
<polygon fill="#666666" stroke="#666666" points="182.72,-155.02 191.15,-148.6 180.56,-148.36 182.72,-155.02"/>
</g>
<!-- ConfChangeType_AddNode -->
<g id="node7" class="node">
<title>ConfChangeType_AddNode</title>
<path fill="none" stroke="#1c2123" d="M206.5,-363.31C206.5,-363.31 370.5,-363.31 370.5,-363.31 376.5,-363.31 382.5,-369.31 382.5,-375.31 382.5,-375.31 382.5,-435.31 382.5,-435.31 382.5,-441.31 376.5,-447.31 370.5,-447.31 370.5,-447.31 206.5,-447.31 206.5,-447.31 200.5,-447.31 194.5,-441.31 194.5,-435.31 194.5,-435.31 194.5,-375.31 194.5,-375.31 194.5,-369.31 200.5,-363.31 206.5,-363.31"/>
<text text-anchor="middle" x="288.5" y="-432.11" font-family="Times,serif" font-size="14.00" fill="#2f3638">ConfChangeType::AddNode</text>
<polyline fill="none" stroke="#1c2123" points="194.5,-424.31 382.5,-424.31 "/>
<text text-anchor="start" x="202.5" y="-409.11" font-family="Times,serif" font-size="14.00" fill="#2f3638">peer存在且为learner</text>
<text text-anchor="start" x="202.5" y="-394.11" font-family="Times,serif" font-size="14.00" fill="#2f3638"> 将role设置为Voter</text>
<polyline fill="none" stroke="#1c2123" points="194.5,-386.31 382.5,-386.31 "/>
<text text-anchor="start" x="202.5" y="-371.11" font-family="Times,serif" font-size="14.00" fill="#2f3638">不存在则在增加到peers列表</text>
</g>
<!-- exec_change_peer&#45;&gt;ConfChangeType_AddNode -->
<g id="edge6" class="edge">
<title>exec_change_peer&#45;&gt;ConfChangeType_AddNode</title>
<path fill="none" stroke="#666666" d="M80.62,-204.52C91.93,-238.37 120.49,-311.42 168,-354.31 173.41,-359.2 179.36,-363.66 185.62,-367.73"/>
<polygon fill="#666666" stroke="#666666" points="183.98,-370.83 194.34,-373.04 187.62,-364.85 183.98,-370.83"/>
</g>
<!-- ExecResult_ChangePeer -->
<g id="node8" class="node">
<title>ExecResult_ChangePeer</title>
<path fill="#feed9b" stroke="#f7e495" d="M180,-206.31C180,-206.31 397,-206.31 397,-206.31 403,-206.31 409,-212.31 409,-218.31 409,-218.31 409,-332.31 409,-332.31 409,-338.31 403,-344.31 397,-344.31 397,-344.31 180,-344.31 180,-344.31 174,-344.31 168,-338.31 168,-332.31 168,-332.31 168,-218.31 168,-218.31 168,-212.31 174,-206.31 180,-206.31"/>
<text text-anchor="middle" x="288.5" y="-329.11" font-family="Times,serif" font-size="14.00" fill="#40575d">ExecResult::ChangePeer</text>
<polyline fill="none" stroke="#f7e495" points="168,-321.31 409,-321.31 "/>
<text text-anchor="start" x="176" y="-306.11" font-family="Times,serif" font-size="14.00" fill="#40575d">要发给peerFsmDelegate的消息</text>
<polyline fill="none" stroke="#f7e495" points="168,-298.31 409,-298.31 "/>
<text text-anchor="start" x="176" y="-283.11" font-family="Times,serif" font-size="14.00" fill="#40575d">pub index: u64,</text>
<polyline fill="none" stroke="#f7e495" points="168,-275.31 409,-275.31 "/>
<text text-anchor="start" x="176" y="-260.11" font-family="Times,serif" font-size="14.00" fill="#40575d">pub conf_change: ConfChangeV2,</text>
<polyline fill="none" stroke="#f7e495" points="168,-252.31 409,-252.31 "/>
<text text-anchor="start" x="176" y="-237.11" font-family="Times,serif" font-size="14.00" fill="#40575d">pub changes: Vec&lt;ChangePeerRequest&gt;,</text>
<polyline fill="none" stroke="#f7e495" points="168,-229.31 409,-229.31 "/>
<text text-anchor="start" x="176" y="-214.11" font-family="Times,serif" font-size="14.00" fill="#40575d">pub region: Region,</text>
</g>
<!-- exec_change_peer&#45;&gt;ExecResult_ChangePeer -->
<g id="edge7" class="edge">
<title>exec_change_peer&#45;&gt;ExecResult_ChangePeer</title>
<path fill="none" stroke="#666666" d="M118,-204.32C130.04,-209.36 143.78,-215.12 158.11,-221.12"/>
<polygon fill="#666666" stroke="#666666" points="157.03,-224.46 167.6,-225.1 159.73,-218.01 157.03,-224.46"/>
</g>
<!-- PeerState_Tombstone&#45;&gt;write_peer_state -->
<g id="edge13" class="edge">
<title>PeerState_Tombstone&#45;&gt;write_peer_state</title>
<path fill="none" stroke="green" stroke-dasharray="5,2" d="M1219.07,-78.31C1227.83,-78.31 1236.47,-78.31 1244.72,-78.31"/>
<polygon fill="green" stroke="green" points="1244.93,-81.81 1254.93,-78.31 1244.93,-74.81 1244.93,-81.81"/>
</g>
<!-- PeerState_Normal&#45;&gt;write_peer_state -->
<g id="edge14" class="edge">
<title>PeerState_Normal&#45;&gt;write_peer_state</title>
<path fill="none" stroke="green" stroke-dasharray="5,2" d="M1165.56,-219.19C1183.75,-215.27 1203.23,-208.84 1219,-198.31 1253.78,-175.08 1279.77,-133.23 1294.17,-105.61"/>
<polygon fill="green" stroke="green" points="1297.4,-106.99 1298.78,-96.49 1291.15,-103.84 1297.4,-106.99"/>
</g>
<!-- Region -->
<g id="node12" class="node">
<title>Region</title>
<path fill="#feed9b" stroke="#f7e495" d="M457,-298.31C457,-298.31 948,-298.31 948,-298.31 954,-298.31 960,-304.31 960,-310.31 960,-310.31 960,-424.31 960,-424.31 960,-430.31 954,-436.31 948,-436.31 948,-436.31 457,-436.31 457,-436.31 451,-436.31 445,-430.31 445,-424.31 445,-424.31 445,-310.31 445,-310.31 445,-304.31 451,-298.31 457,-298.31"/>
<text text-anchor="middle" x="702.5" y="-421.11" font-family="Times,serif" font-size="14.00" fill="#40575d">Region</text>
<polyline fill="none" stroke="#f7e495" points="445,-413.31 960,-413.31 "/>
<text text-anchor="start" x="453" y="-398.11" font-family="Times,serif" font-size="14.00" fill="#40575d">pub start_key: ::std::vec::Vec&lt;u8&gt;,</text>
<polyline fill="none" stroke="#f7e495" points="445,-390.31 960,-390.31 "/>
<text text-anchor="start" x="453" y="-375.11" font-family="Times,serif" font-size="14.00" fill="#40575d">pub end_key: ::std::vec::Vec&lt;u8&gt;,</text>
<polyline fill="none" stroke="#f7e495" points="445,-367.31 960,-367.31 "/>
<text text-anchor="start" x="453" y="-352.11" font-family="Times,serif" font-size="14.00" fill="#40575d">pub region_epoch: ::protobuf::SingularPtrField&lt;RegionEpoch&gt;,</text>
<polyline fill="none" stroke="#f7e495" points="445,-344.31 960,-344.31 "/>
<text text-anchor="start" x="453" y="-329.11" font-family="Times,serif" font-size="14.00" fill="#40575d">pub peers: ::protobuf::RepeatedField&lt;Peer&gt;,</text>
<polyline fill="none" stroke="#f7e495" points="445,-321.31 960,-321.31 "/>
<text text-anchor="start" x="453" y="-306.11" font-family="Times,serif" font-size="14.00" fill="#40575d">pub encryption_meta: ::protobuf::SingularPtrField&lt;super::encryptionpb::EncryptionMeta&gt;,</text>
</g>
<!-- region_mut_peers&#45;&gt;Region -->
<g id="edge15" class="edge">
<title>region_mut_peers&#45;&gt;Region:peers</title>
<path fill="none" stroke="#666666" d="M346.08,-483.52C368.19,-480.41 392.21,-473.15 409,-457.31 448.26,-420.27 395.2,-343.44 435.03,-333.4"/>
<polygon fill="#666666" stroke="#666666" points="435.44,-336.88 445,-332.31 434.68,-329.92 435.44,-336.88"/>
</g>
<!-- pending_remove -->
<g id="node9" class="node">
<title>pending_remove</title>
<path fill="none" stroke="#1c2123" d="M621.5,-68.31C621.5,-68.31 783.5,-68.31 783.5,-68.31 789.5,-68.31 795.5,-74.31 795.5,-80.31 795.5,-80.31 795.5,-102.31 795.5,-102.31 795.5,-108.31 789.5,-114.31 783.5,-114.31 783.5,-114.31 621.5,-114.31 621.5,-114.31 615.5,-114.31 609.5,-108.31 609.5,-102.31 609.5,-102.31 609.5,-80.31 609.5,-80.31 609.5,-74.31 615.5,-68.31 621.5,-68.31"/>
<text text-anchor="middle" x="702.5" y="-99.11" font-family="Times,serif" font-size="14.00" fill="#2f3638">pending_remove</text>
<polyline fill="none" stroke="#1c2123" points="609.5,-91.31 795.5,-91.31 "/>
<text text-anchor="start" x="617.5" y="-76.11" font-family="Times,serif" font-size="14.00" fill="#2f3638">将pending_remove设置为true</text>
</g>
<!-- ConfChangeType_RemoveNode&#45;&gt;pending_remove -->
<g id="edge8" class="edge">
<title>ConfChangeType_RemoveNode&#45;&gt;pending_remove</title>
<path fill="none" stroke="#666666" d="M385.58,-111.25C449.56,-107.21 533.56,-101.91 598.86,-97.79"/>
<polygon fill="#666666" stroke="#666666" points="599.41,-101.26 609.17,-97.14 598.97,-94.28 599.41,-101.26"/>
</g>
<!-- stopped -->
<g id="node10" class="node">
<title>stopped</title>
<path fill="none" stroke="#1c2123" d="M652,-133.81C652,-133.81 753,-133.81 753,-133.81 759,-133.81 765,-139.81 765,-145.81 765,-145.81 765,-182.81 765,-182.81 765,-188.81 759,-194.81 753,-194.81 753,-194.81 652,-194.81 652,-194.81 646,-194.81 640,-188.81 640,-182.81 640,-182.81 640,-145.81 640,-145.81 640,-139.81 646,-133.81 652,-133.81"/>
<text text-anchor="middle" x="702.5" y="-179.61" font-family="Times,serif" font-size="14.00" fill="#2f3638">stopped</text>
<polyline fill="none" stroke="#1c2123" points="640,-171.81 765,-171.81 "/>
<text text-anchor="start" x="648" y="-156.61" font-family="Times,serif" font-size="14.00" fill="#2f3638">不用再apply log了</text>
<text text-anchor="start" x="648" y="-141.61" font-family="Times,serif" font-size="14.00" fill="#2f3638"> 停止ApplyFsm</text>
</g>
<!-- ConfChangeType_RemoveNode&#45;&gt;stopped -->
<g id="edge9" class="edge">
<title>ConfChangeType_RemoveNode&#45;&gt;stopped</title>
<path fill="none" stroke="#666666" d="M385.58,-128.27C460.21,-136.79 562.07,-148.41 629.73,-156.12"/>
<polygon fill="#666666" stroke="#666666" points="629.53,-159.63 639.87,-157.28 630.33,-152.67 629.53,-159.63"/>
</g>
<!-- ExecResult_ChangePeer&#45;&gt;Region -->
<g id="edge16" class="edge">
<title>ExecResult_ChangePeer&#45;&gt;Region</title>
<path fill="none" stroke="#666666" d="M409.22,-302.05C417.59,-303.92 426.2,-305.84 434.96,-307.79"/>
<polygon fill="#666666" stroke="#666666" points="434.4,-311.25 444.92,-310.02 435.92,-304.42 434.4,-311.25"/>
</g>
<!-- pending_remove&#45;&gt;PeerState_Tombstone -->
<g id="edge11" class="edge">
<title>pending_remove&#45;&gt;PeerState_Tombstone</title>
<path fill="none" stroke="green" stroke-dasharray="5,2" d="M795.7,-88.34C852.05,-86.52 924.74,-84.18 985.65,-82.21"/>
<polygon fill="green" stroke="green" points="985.83,-85.71 995.71,-81.89 985.6,-78.71 985.83,-85.71"/>
</g>
<!-- pending_remove&#45;&gt;PeerState_Normal -->
<g id="edge12" class="edge">
<title>pending_remove&#45;&gt;PeerState_Normal</title>
<path fill="none" stroke="green" stroke-dasharray="5,2" d="M795.52,-82.67C848.2,-82.4 912.96,-90.52 960,-124.31 989.7,-145.65 967.53,-175.35 996,-198.31 1008.36,-208.28 1023.85,-214.65 1039.29,-218.7"/>
<polygon fill="green" stroke="green" points="1038.86,-222.19 1049.4,-221.04 1040.44,-215.37 1038.86,-222.19"/>
</g>
<!-- handle_raft_committed_entries -->
<g id="node11" class="node">
<title>handle_raft_committed_entries</title>
<path fill="none" stroke="#1c2123" d="M1026,-127.81C1026,-127.81 1189,-127.81 1189,-127.81 1195,-127.81 1201,-133.81 1201,-139.81 1201,-139.81 1201,-176.81 1201,-176.81 1201,-182.81 1195,-188.81 1189,-188.81 1189,-188.81 1026,-188.81 1026,-188.81 1020,-188.81 1014,-182.81 1014,-176.81 1014,-176.81 1014,-139.81 1014,-139.81 1014,-133.81 1020,-127.81 1026,-127.81"/>
<text text-anchor="middle" x="1107.5" y="-173.61" font-family="Times,serif" font-size="14.00" fill="#2f3638">handle_raft_committed_entries</text>
<polyline fill="none" stroke="#1c2123" points="1014,-165.81 1201,-165.81 "/>
<text text-anchor="start" x="1022" y="-150.61" font-family="Times,serif" font-size="14.00" fill="#2f3638">如果pending_remove，</text>
<text text-anchor="start" x="1022" y="-135.61" font-family="Times,serif" font-size="14.00" fill="#2f3638"> 就skip掉所有log entry</text>
</g>
<!-- pending_remove&#45;&gt;handle_raft_committed_entries -->
<g id="edge10" class="edge">
<title>pending_remove&#45;&gt;handle_raft_committed_entries</title>
<path fill="none" stroke="green" stroke-dasharray="5,2" d="M795.55,-100.9C844.56,-106.57 905.76,-114.55 960,-124.31 974.2,-126.87 989.09,-129.9 1003.72,-133.09"/>
<polygon fill="green" stroke="green" points="1003.27,-136.58 1013.79,-135.32 1004.78,-129.74 1003.27,-136.58"/>
</g>
</g>
</svg>
