<?xml version="1.0" encoding="UTF-8" standalone="no"?>
<!DOCTYPE svg PUBLIC "-//W3C//DTD SVG 1.1//EN"
 "http://www.w3.org/Graphics/SVG/1.1/DTD/svg11.dtd">
<!-- Generated by graphviz version 2.44.1 (20200629.0846)
 -->
<!-- Title: KeyHandleGuard Pages: 1 -->
<svg width="1125pt" height="559pt"
 viewBox="0.00 0.00 1125.00 559.00" xmlns="http://www.w3.org/2000/svg" xmlns:xlink="http://www.w3.org/1999/xlink">
<g id="graph0" class="graph" transform="scale(1 1) rotate(0) translate(4 555)">
<title>KeyHandleGuard</title>
<polygon fill="white" stroke="transparent" points="-4,4 -4,-555 1121,-555 1121,4 -4,4"/>
<g id="clust1" class="cluster">
<title>cluster_Lock</title>
<path fill="none" stroke="slategrey" stroke-dasharray="5,2" d="M585,-353C585,-353 905.5,-353 905.5,-353 911.5,-353 917.5,-359 917.5,-365 917.5,-365 917.5,-531 917.5,-531 917.5,-537 911.5,-543 905.5,-543 905.5,-543 585,-543 585,-543 579,-543 573,-537 573,-531 573,-531 573,-365 573,-365 573,-359 579,-353 585,-353"/>
<text text-anchor="middle" x="745.25" y="-523" font-family="Times,serif" font-size="20.00">Lock</text>
</g>
<g id="clust3" class="cluster">
<title>cluster_LockTable</title>
<path fill="none" stroke="slategrey" stroke-dasharray="5,2" d="M764,-156C764,-156 1097,-156 1097,-156 1103,-156 1109,-162 1109,-168 1109,-168 1109,-333 1109,-333 1109,-339 1103,-345 1097,-345 1097,-345 764,-345 764,-345 758,-345 752,-339 752,-333 752,-333 752,-168 752,-168 752,-162 758,-156 764,-156"/>
<text text-anchor="middle" x="930.5" y="-325" font-family="Times,serif" font-size="20.00">LockTable</text>
</g>
<g id="clust6" class="cluster">
<title>cluster_ConcurrencyManager</title>
<path fill="none" stroke="slategrey" stroke-dasharray="5,2" d="M553,-188C553,-188 720,-188 720,-188 726,-188 732,-194 732,-200 732,-200 732,-312 732,-312 732,-318 726,-324 720,-324 720,-324 553,-324 553,-324 547,-324 541,-318 541,-312 541,-312 541,-200 541,-200 541,-194 547,-188 553,-188"/>
<text text-anchor="middle" x="636.5" y="-304" font-family="Times,serif" font-size="20.00">ConcurrencyManager</text>
</g>
<g id="clust7" class="cluster">
<title>cluster_Storage</title>
<path fill="none" stroke="slategrey" stroke-dasharray="5,2" d="M76.5,-278C76.5,-278 481,-278 481,-278 487,-278 493,-284 493,-290 493,-290 493,-482 493,-482 493,-488 487,-494 481,-494 481,-494 76.5,-494 76.5,-494 70.5,-494 64.5,-488 64.5,-482 64.5,-482 64.5,-290 64.5,-290 64.5,-284 70.5,-278 76.5,-278"/>
<text text-anchor="middle" x="278.75" y="-474" font-family="Times,serif" font-size="20.00">Storage</text>
</g>
<g id="clust9" class="cluster">
<title>cluster_ReplicaReadLockChecker</title>
<path fill="none" stroke="slategrey" stroke-dasharray="5,2" d="M307.5,-98C307.5,-98 509.5,-98 509.5,-98 515.5,-98 521.5,-104 521.5,-110 521.5,-110 521.5,-168 521.5,-168 521.5,-174 515.5,-180 509.5,-180 509.5,-180 307.5,-180 307.5,-180 301.5,-180 295.5,-174 295.5,-168 295.5,-168 295.5,-110 295.5,-110 295.5,-104 301.5,-98 307.5,-98"/>
<text text-anchor="middle" x="408.5" y="-160" font-family="Times,serif" font-size="20.00">ReplicaReadLockChecker</text>
</g>
<g id="clust10" class="cluster">
<title>cluster_gcworker</title>
<path fill="none" stroke="slategrey" stroke-dasharray="5,2" d="M362,-8C362,-8 454,-8 454,-8 460,-8 466,-14 466,-20 466,-20 466,-78 466,-78 466,-84 460,-90 454,-90 454,-90 362,-90 362,-90 356,-90 350,-84 350,-78 350,-78 350,-20 350,-20 350,-14 356,-8 362,-8"/>
<text text-anchor="middle" x="408" y="-70" font-family="Times,serif" font-size="20.00">gcworker</text>
</g>
<g id="clust11" class="cluster">
<title>cluster_coprocessor</title>
<path fill="none" stroke="slategrey" stroke-dasharray="5,2" d="M20,-188C20,-188 472.5,-188 472.5,-188 478.5,-188 484.5,-194 484.5,-200 484.5,-200 484.5,-258 484.5,-258 484.5,-264 478.5,-270 472.5,-270 472.5,-270 20,-270 20,-270 14,-270 8,-264 8,-258 8,-258 8,-200 8,-200 8,-194 14,-188 20,-188"/>
<text text-anchor="middle" x="246.25" y="-250" font-family="Times,serif" font-size="20.00">coprocessor</text>
</g>
<!-- check_ts_conflict -->
<g id="node1" class="node">
<title>check_ts_conflict</title>
<path fill="none" stroke="#1c2123" d="M680,-443C680,-443 593,-443 593,-443 587,-443 581,-437 581,-431 581,-431 581,-419 581,-419 581,-413 587,-407 593,-407 593,-407 680,-407 680,-407 686,-407 692,-413 692,-419 692,-419 692,-431 692,-431 692,-437 686,-443 680,-443"/>
<text text-anchor="middle" x="636.5" y="-421.3" font-family="Times,serif" font-size="14.00" fill="#2f3638">check_ts_conflict</text>
</g>
<!-- bypass_locks -->
<g id="node2" class="node">
<title>bypass_locks</title>
<path fill="none" stroke="#1c2123" d="M881,-505C881,-505 816,-505 816,-505 810,-505 804,-499 804,-493 804,-493 804,-481 804,-481 804,-475 810,-469 816,-469 816,-469 881,-469 881,-469 887,-469 893,-475 893,-481 893,-481 893,-493 893,-493 893,-499 887,-505 881,-505"/>
<text text-anchor="middle" x="848.5" y="-483.3" font-family="Times,serif" font-size="14.00" fill="#2f3638">bypass_locks</text>
</g>
<!-- check_ts_conflict&#45;&gt;bypass_locks -->
<g id="edge1" class="edge">
<title>check_ts_conflict&#45;&gt;bypass_locks</title>
<path fill="none" stroke="#666666" d="M692.18,-441.97C711.1,-447.77 732.46,-454.25 752,-460 765.57,-463.99 780.25,-468.2 793.94,-472.07"/>
<polygon fill="#666666" stroke="#666666" points="793.13,-475.48 803.71,-474.83 795.03,-468.74 793.13,-475.48"/>
</g>
<!-- use_async_commit -->
<g id="node3" class="node">
<title>use_async_commit</title>
<path fill="none" stroke="#1c2123" d="M897.5,-397C897.5,-397 799.5,-397 799.5,-397 793.5,-397 787.5,-391 787.5,-385 787.5,-385 787.5,-373 787.5,-373 787.5,-367 793.5,-361 799.5,-361 799.5,-361 897.5,-361 897.5,-361 903.5,-361 909.5,-367 909.5,-373 909.5,-373 909.5,-385 909.5,-385 909.5,-391 903.5,-397 897.5,-397"/>
<text text-anchor="middle" x="848.5" y="-375.3" font-family="Times,serif" font-size="14.00" fill="#2f3638">use_async_commit</text>
</g>
<!-- check_ts_conflict&#45;&gt;use_async_commit -->
<g id="edge2" class="edge">
<title>check_ts_conflict&#45;&gt;use_async_commit</title>
<path fill="none" stroke="#666666" d="M692.13,-413.03C718.1,-407.34 749.47,-400.47 777.2,-394.4"/>
<polygon fill="#666666" stroke="#666666" points="778.22,-397.76 787.23,-392.2 776.72,-390.92 778.22,-397.76"/>
</g>
<!-- min_commit_ts -->
<g id="node4" class="node">
<title>min_commit_ts</title>
<path fill="none" stroke="#1c2123" d="M888.5,-451C888.5,-451 808.5,-451 808.5,-451 802.5,-451 796.5,-445 796.5,-439 796.5,-439 796.5,-427 796.5,-427 796.5,-421 802.5,-415 808.5,-415 808.5,-415 888.5,-415 888.5,-415 894.5,-415 900.5,-421 900.5,-427 900.5,-427 900.5,-439 900.5,-439 900.5,-445 894.5,-451 888.5,-451"/>
<text text-anchor="middle" x="848.5" y="-429.3" font-family="Times,serif" font-size="14.00" fill="#2f3638">min_commit_ts</text>
</g>
<!-- check_ts_conflict&#45;&gt;min_commit_ts -->
<g id="edge3" class="edge">
<title>check_ts_conflict&#45;&gt;min_commit_ts</title>
<path fill="none" stroke="#666666" d="M692.13,-427.08C720.93,-428.18 756.37,-429.53 786.13,-430.66"/>
<polygon fill="#666666" stroke="#666666" points="786.27,-434.17 796.39,-431.05 786.53,-427.17 786.27,-434.17"/>
</g>
<!-- check_key -->
<g id="node5" class="node">
<title>check_key</title>
<path fill="none" stroke="#1c2123" d="M772,-230C772,-230 925,-230 925,-230 931,-230 937,-236 937,-242 937,-242 937,-294 937,-294 937,-300 931,-306 925,-306 925,-306 772,-306 772,-306 766,-306 760,-300 760,-294 760,-294 760,-242 760,-242 760,-236 766,-230 772,-230"/>
<text text-anchor="middle" x="848.5" y="-290.8" font-family="Times,serif" font-size="14.00" fill="#2f3638">check_key</text>
<polyline fill="none" stroke="#1c2123" points="760,-283 937,-283 "/>
<text text-anchor="start" x="768" y="-267.8" font-family="Times,serif" font-size="14.00" fill="#2f3638">如果lockTable中包含了key</text>
<text text-anchor="start" x="768" y="-252.8" font-family="Times,serif" font-size="14.00" fill="#2f3638"> 且lock不为None, 则调用</text>
<text text-anchor="start" x="768" y="-237.8" font-family="Times,serif" font-size="14.00" fill="#2f3638"> 传入的check_fn, 检查冲突</text>
</g>
<!-- check_fn -->
<g id="node6" class="node">
<title>check_fn</title>
<path fill="none" stroke="#1c2123" d="M985,-205C985,-205 1089,-205 1089,-205 1095,-205 1101,-211 1101,-217 1101,-217 1101,-239 1101,-239 1101,-245 1095,-251 1089,-251 1089,-251 985,-251 985,-251 979,-251 973,-245 973,-239 973,-239 973,-217 973,-217 973,-211 979,-205 985,-205"/>
<text text-anchor="start" x="981" y="-235.8" font-family="Times,serif" font-size="14.00" fill="#2f3638">check_fn</text>
<polyline fill="none" stroke="#1c2123" points="973,-228 1101,-228 "/>
<text text-anchor="start" x="981" y="-212.8" font-family="Times,serif" font-size="14.00" fill="#2f3638">传入的lambda函数</text>
</g>
<!-- check_key&#45;&gt;check_fn -->
<g id="edge5" class="edge">
<title>check_key&#45;&gt;check_fn</title>
<path fill="none" stroke="#666666" d="M937.02,-249.23C945.72,-247.36 954.5,-245.48 963.03,-243.65"/>
<polygon fill="#666666" stroke="#666666" points="963.88,-247.05 972.92,-241.53 962.41,-240.2 963.88,-247.05"/>
</g>
<!-- check_range -->
<g id="node7" class="node">
<title>check_range</title>
<path fill="none" stroke="#1c2123" d="M802.5,-165C802.5,-165 894.5,-165 894.5,-165 900.5,-165 906.5,-171 906.5,-177 906.5,-177 906.5,-199 906.5,-199 906.5,-205 900.5,-211 894.5,-211 894.5,-211 802.5,-211 802.5,-211 796.5,-211 790.5,-205 790.5,-199 790.5,-199 790.5,-177 790.5,-177 790.5,-171 796.5,-165 802.5,-165"/>
<text text-anchor="middle" x="848.5" y="-195.8" font-family="Times,serif" font-size="14.00" fill="#2f3638">check_range</text>
<polyline fill="none" stroke="#1c2123" points="790.5,-188 906.5,-188 "/>
<text text-anchor="middle" x="848.5" y="-172.8" font-family="Times,serif" font-size="14.00" fill="#2f3638">检查某个区间的</text>
</g>
<!-- check_range&#45;&gt;check_fn -->
<g id="edge4" class="edge">
<title>check_range&#45;&gt;check_fn</title>
<path fill="none" stroke="#666666" d="M906.72,-200.27C924.42,-204.07 944.17,-208.3 962.79,-212.3"/>
<polygon fill="#666666" stroke="#666666" points="962.2,-215.75 972.71,-214.43 963.66,-208.91 962.2,-215.75"/>
</g>
<!-- read_key_check -->
<g id="node8" class="node">
<title>read_key_check</title>
<path fill="none" stroke="#1c2123" d="M676.5,-286C676.5,-286 596.5,-286 596.5,-286 590.5,-286 584.5,-280 584.5,-274 584.5,-274 584.5,-262 584.5,-262 584.5,-256 590.5,-250 596.5,-250 596.5,-250 676.5,-250 676.5,-250 682.5,-250 688.5,-256 688.5,-262 688.5,-262 688.5,-274 688.5,-274 688.5,-280 682.5,-286 676.5,-286"/>
<text text-anchor="middle" x="636.5" y="-264.3" font-family="Times,serif" font-size="14.00" fill="#2f3638">read_key_check</text>
</g>
<!-- read_key_check&#45;&gt;check_key -->
<g id="edge6" class="edge">
<title>read_key_check&#45;&gt;check_key</title>
<path fill="none" stroke="#666666" d="M688.6,-268C706.97,-268 728.35,-268 749.36,-268"/>
<polygon fill="#666666" stroke="#666666" points="749.63,-271.5 759.63,-268 749.63,-264.5 749.63,-271.5"/>
</g>
<!-- read_range_check -->
<g id="node9" class="node">
<title>read_range_check</title>
<path fill="none" stroke="#1c2123" d="M682,-232C682,-232 591,-232 591,-232 585,-232 579,-226 579,-220 579,-220 579,-208 579,-208 579,-202 585,-196 591,-196 591,-196 682,-196 682,-196 688,-196 694,-202 694,-208 694,-208 694,-220 694,-220 694,-226 688,-232 682,-232"/>
<text text-anchor="middle" x="636.5" y="-210.3" font-family="Times,serif" font-size="14.00" fill="#2f3638">read_range_check</text>
</g>
<!-- read_range_check&#45;&gt;check_range -->
<g id="edge7" class="edge">
<title>read_range_check&#45;&gt;check_range</title>
<path fill="none" stroke="#666666" d="M694.05,-207C720.67,-203.7 752.6,-199.75 780.43,-196.3"/>
<polygon fill="#666666" stroke="#666666" points="780.99,-199.76 790.48,-195.06 780.13,-192.81 780.99,-199.76"/>
</g>
<!-- prepare_snap_ctx -->
<g id="node10" class="node">
<title>prepare_snap_ctx</title>
<path fill="none" stroke="#1c2123" d="M343,-394.5C343,-394.5 473,-394.5 473,-394.5 479,-394.5 485,-400.5 485,-406.5 485,-406.5 485,-443.5 485,-443.5 485,-449.5 479,-455.5 473,-455.5 473,-455.5 343,-455.5 343,-455.5 337,-455.5 331,-449.5 331,-443.5 331,-443.5 331,-406.5 331,-406.5 331,-400.5 337,-394.5 343,-394.5"/>
<text text-anchor="middle" x="408" y="-440.3" font-family="Times,serif" font-size="14.00" fill="#2f3638">prepare_snap_ctx</text>
<polyline fill="none" stroke="#1c2123" points="331,-432.5 485,-432.5 "/>
<text text-anchor="start" x="339" y="-417.3" font-family="Times,serif" font-size="14.00" fill="#2f3638">如果isolation_level 为Si</text>
<text text-anchor="start" x="339" y="-402.3" font-family="Times,serif" font-size="14.00" fill="#2f3638"> 检查ts的conflict</text>
</g>
<!-- prepare_snap_ctx&#45;&gt;check_ts_conflict -->
<g id="edge8" class="edge">
<title>prepare_snap_ctx&#45;&gt;check_ts_conflict</title>
<path fill="none" stroke="#666666" d="M485.05,-425C512.86,-425 544.03,-425 570.76,-425"/>
<polygon fill="#666666" stroke="#666666" points="570.77,-428.5 580.77,-425 570.77,-421.5 570.77,-428.5"/>
</g>
<!-- prepare_snap_ctx&#45;&gt;read_key_check -->
<g id="edge9" class="edge">
<title>prepare_snap_ctx&#45;&gt;read_key_check</title>
<path fill="none" stroke="#666666" d="M485.16,-406.55C498.22,-401.08 510.95,-394.03 521.5,-385 535.32,-373.17 529.57,-363.16 541,-349 558.46,-327.38 582.23,-307.03 601.56,-292.14"/>
<polygon fill="#666666" stroke="#666666" points="603.68,-294.93 609.55,-286.11 599.46,-289.35 603.68,-294.93"/>
</g>
<!-- get -->
<g id="node11" class="node">
<title>get</title>
<path fill="none" stroke="#1c2123" d="M153,-348C153,-348 123,-348 123,-348 117,-348 111,-342 111,-336 111,-336 111,-324 111,-324 111,-318 117,-312 123,-312 123,-312 153,-312 153,-312 159,-312 165,-318 165,-324 165,-324 165,-336 165,-336 165,-342 159,-348 153,-348"/>
<text text-anchor="middle" x="138" y="-326.3" font-family="Times,serif" font-size="14.00" fill="#2f3638">get</text>
</g>
<!-- get&#45;&gt;prepare_snap_ctx -->
<g id="edge10" class="edge">
<title>get&#45;&gt;prepare_snap_ctx</title>
<path fill="none" stroke="#666666" d="M165.12,-332.42C190.39,-335.54 229.29,-342.4 260,-357 278.15,-365.63 277.92,-375.26 295.5,-385 303.71,-389.55 312.54,-393.75 321.5,-397.58"/>
<polygon fill="#666666" stroke="#666666" points="320.29,-400.87 330.87,-401.43 322.95,-394.39 320.29,-400.87"/>
</g>
<!-- batch_get_command -->
<g id="node12" class="node">
<title>batch_get_command</title>
<path fill="none" stroke="#1c2123" d="M191.5,-456C191.5,-456 84.5,-456 84.5,-456 78.5,-456 72.5,-450 72.5,-444 72.5,-444 72.5,-432 72.5,-432 72.5,-426 78.5,-420 84.5,-420 84.5,-420 191.5,-420 191.5,-420 197.5,-420 203.5,-426 203.5,-432 203.5,-432 203.5,-444 203.5,-444 203.5,-450 197.5,-456 191.5,-456"/>
<text text-anchor="middle" x="138" y="-434.3" font-family="Times,serif" font-size="14.00" fill="#2f3638">batch_get_command</text>
</g>
<!-- batch_get_command&#45;&gt;prepare_snap_ctx -->
<g id="edge11" class="edge">
<title>batch_get_command&#45;&gt;prepare_snap_ctx</title>
<path fill="none" stroke="#666666" d="M203.53,-434.87C238.65,-433.17 282.57,-431.04 320.6,-429.19"/>
<polygon fill="#666666" stroke="#666666" points="320.83,-432.68 330.65,-428.7 320.49,-425.69 320.83,-432.68"/>
</g>
<!-- batch_get -->
<g id="node13" class="node">
<title>batch_get</title>
<path fill="none" stroke="#1c2123" d="M160.5,-402C160.5,-402 115.5,-402 115.5,-402 109.5,-402 103.5,-396 103.5,-390 103.5,-390 103.5,-378 103.5,-378 103.5,-372 109.5,-366 115.5,-366 115.5,-366 160.5,-366 160.5,-366 166.5,-366 172.5,-372 172.5,-378 172.5,-378 172.5,-390 172.5,-390 172.5,-396 166.5,-402 160.5,-402"/>
<text text-anchor="middle" x="138" y="-380.3" font-family="Times,serif" font-size="14.00" fill="#2f3638">batch_get</text>
</g>
<!-- batch_get&#45;&gt;prepare_snap_ctx -->
<g id="edge12" class="edge">
<title>batch_get&#45;&gt;prepare_snap_ctx</title>
<path fill="none" stroke="#666666" d="M172.67,-389.15C209.64,-394.81 270.45,-404.11 320.86,-411.82"/>
<polygon fill="#666666" stroke="#666666" points="320.37,-415.29 330.79,-413.34 321.43,-408.37 320.37,-415.29"/>
</g>
<!-- scan -->
<g id="node14" class="node">
<title>scan</title>
<path fill="none" stroke="#1c2123" d="M423,-376C423,-376 393,-376 393,-376 387,-376 381,-370 381,-364 381,-364 381,-352 381,-352 381,-346 387,-340 393,-340 393,-340 423,-340 423,-340 429,-340 435,-346 435,-352 435,-352 435,-364 435,-364 435,-370 429,-376 423,-376"/>
<text text-anchor="middle" x="408" y="-354.3" font-family="Times,serif" font-size="14.00" fill="#2f3638">scan</text>
</g>
<!-- scan&#45;&gt;read_range_check -->
<g id="edge13" class="edge">
<title>scan&#45;&gt;read_range_check</title>
<path fill="none" stroke="#666666" d="M435.12,-359.15C460.7,-358.78 499.03,-353.98 521.5,-331 550.12,-301.74 513.01,-270.86 541,-241 548.59,-232.9 558.43,-227.17 568.89,-223.13"/>
<polygon fill="#666666" stroke="#666666" points="570.24,-226.37 578.61,-219.88 568.02,-219.73 570.24,-226.37"/>
</g>
<!-- scan_lock -->
<g id="node15" class="node">
<title>scan_lock</title>
<path fill="none" stroke="#1c2123" d="M431.5,-322C431.5,-322 384.5,-322 384.5,-322 378.5,-322 372.5,-316 372.5,-310 372.5,-310 372.5,-298 372.5,-298 372.5,-292 378.5,-286 384.5,-286 384.5,-286 431.5,-286 431.5,-286 437.5,-286 443.5,-292 443.5,-298 443.5,-298 443.5,-310 443.5,-310 443.5,-316 437.5,-322 431.5,-322"/>
<text text-anchor="middle" x="408" y="-300.3" font-family="Times,serif" font-size="14.00" fill="#2f3638">scan_lock</text>
</g>
<!-- scan_lock&#45;&gt;read_range_check -->
<g id="edge14" class="edge">
<title>scan_lock&#45;&gt;read_range_check</title>
<path fill="none" stroke="#666666" d="M443.73,-301.6C467.65,-298.42 499.03,-291.04 521.5,-274 535.07,-263.71 527.52,-251.41 541,-241 549.29,-234.6 559.04,-229.71 569.07,-225.99"/>
<polygon fill="#666666" stroke="#666666" points="570.35,-229.25 578.73,-222.76 568.14,-222.61 570.35,-229.25"/>
</g>
<!-- on_step -->
<g id="node16" class="node">
<title>on_step</title>
<path fill="none" stroke="#1c2123" d="M425.5,-142C425.5,-142 390.5,-142 390.5,-142 384.5,-142 378.5,-136 378.5,-130 378.5,-130 378.5,-118 378.5,-118 378.5,-112 384.5,-106 390.5,-106 390.5,-106 425.5,-106 425.5,-106 431.5,-106 437.5,-112 437.5,-118 437.5,-118 437.5,-130 437.5,-130 437.5,-136 431.5,-142 425.5,-142"/>
<text text-anchor="middle" x="408" y="-120.3" font-family="Times,serif" font-size="14.00" fill="#2f3638">on_step</text>
</g>
<!-- on_step&#45;&gt;read_range_check -->
<g id="edge15" class="edge">
<title>on_step&#45;&gt;read_range_check</title>
<path fill="none" stroke="#666666" d="M437.69,-135.4C473.47,-149.62 535.43,-174.24 580.49,-192.14"/>
<polygon fill="#666666" stroke="#666666" points="579.24,-195.41 589.83,-195.85 581.83,-188.91 579.24,-195.41"/>
</g>
<!-- start_collecting -->
<g id="node17" class="node">
<title>start_collecting</title>
<path fill="none" stroke="#1c2123" d="M446,-52C446,-52 370,-52 370,-52 364,-52 358,-46 358,-40 358,-40 358,-28 358,-28 358,-22 364,-16 370,-16 370,-16 446,-16 446,-16 452,-16 458,-22 458,-28 458,-28 458,-40 458,-40 458,-46 452,-52 446,-52"/>
<text text-anchor="middle" x="408" y="-30.3" font-family="Times,serif" font-size="14.00" fill="#2f3638">start_collecting</text>
</g>
<!-- start_collecting&#45;&gt;read_range_check -->
<g id="edge16" class="edge">
<title>start_collecting&#45;&gt;read_range_check</title>
<path fill="none" stroke="#666666" d="M450.2,-52.02C472.36,-62.66 499.57,-77.31 521.5,-94 558.23,-121.95 593.75,-162.07 615.11,-188.08"/>
<polygon fill="#666666" stroke="#666666" points="612.52,-190.43 621.54,-195.99 617.95,-186.02 612.52,-190.43"/>
</g>
<!-- parse_request_and_check_memory_locks -->
<g id="node18" class="node">
<title>parse_request_and_check_memory_locks</title>
<path fill="none" stroke="#1c2123" d="M248,-232C248,-232 28,-232 28,-232 22,-232 16,-226 16,-220 16,-220 16,-208 16,-208 16,-202 22,-196 28,-196 28,-196 248,-196 248,-196 254,-196 260,-202 260,-208 260,-208 260,-220 260,-220 260,-226 254,-232 248,-232"/>
<text text-anchor="middle" x="138" y="-210.3" font-family="Times,serif" font-size="14.00" fill="#2f3638">parse_request_and_check_memory_locks</text>
</g>
<!-- check_memory_locks -->
<g id="node19" class="node">
<title>check_memory_locks</title>
<path fill="none" stroke="#1c2123" d="M464.5,-232C464.5,-232 351.5,-232 351.5,-232 345.5,-232 339.5,-226 339.5,-220 339.5,-220 339.5,-208 339.5,-208 339.5,-202 345.5,-196 351.5,-196 351.5,-196 464.5,-196 464.5,-196 470.5,-196 476.5,-202 476.5,-208 476.5,-208 476.5,-220 476.5,-220 476.5,-226 470.5,-232 464.5,-232"/>
<text text-anchor="middle" x="408" y="-210.3" font-family="Times,serif" font-size="14.00" fill="#2f3638">check_memory_locks</text>
</g>
<!-- parse_request_and_check_memory_locks&#45;&gt;check_memory_locks -->
<g id="edge17" class="edge">
<title>parse_request_and_check_memory_locks&#45;&gt;check_memory_locks</title>
<path fill="none" stroke="#666666" d="M260.06,-214C283.53,-214 307.54,-214 329.16,-214"/>
<polygon fill="#666666" stroke="#666666" points="329.25,-217.5 339.25,-214 329.25,-210.5 329.25,-217.5"/>
</g>
<!-- check_memory_locks&#45;&gt;check_ts_conflict -->
<g id="edge19" class="edge">
<title>check_memory_locks&#45;&gt;check_ts_conflict</title>
<path fill="none" stroke="#666666" d="M460.91,-232.06C482.13,-241.68 505.42,-255.43 521.5,-274 538.2,-293.29 527.46,-306.37 541,-328 558.29,-355.62 584.56,-381.76 605.02,-399.94"/>
<polygon fill="#666666" stroke="#666666" points="602.98,-402.81 612.82,-406.74 607.58,-397.53 602.98,-402.81"/>
</g>
<!-- check_memory_locks&#45;&gt;read_range_check -->
<g id="edge18" class="edge">
<title>check_memory_locks&#45;&gt;read_range_check</title>
<path fill="none" stroke="#666666" d="M476.65,-214C505.8,-214 539.79,-214 568.83,-214"/>
<polygon fill="#666666" stroke="#666666" points="568.88,-217.5 578.88,-214 568.88,-210.5 568.88,-217.5"/>
</g>
</g>
</svg>
