<?xml version="1.0" encoding="UTF-8" standalone="no"?>
<!DOCTYPE svg PUBLIC "-//W3C//DTD SVG 1.1//EN"
 "http://www.w3.org/Graphics/SVG/1.1/DTD/svg11.dtd">
<!-- Generated by graphviz version 2.44.1 (20200629.0846)
 -->
<!-- Title: latches_acquire Pages: 1 -->
<svg width="1863pt" height="648pt"
 viewBox="0.00 0.00 1863.00 648.00" xmlns="http://www.w3.org/2000/svg" xmlns:xlink="http://www.w3.org/1999/xlink">
<g id="graph0" class="graph" transform="scale(1 1) rotate(0) translate(4 644)">
<title>latches_acquire</title>
<polygon fill="white" stroke="transparent" points="-4,4 -4,-644 1859,-644 1859,4 -4,4"/>
<g id="clust1" class="cluster">
<title>cluster_Latch</title>
<path fill="none" stroke="slategrey" stroke-dasharray="5,2" d="M492,-444C492,-444 1835,-444 1835,-444 1841,-444 1847,-450 1847,-456 1847,-456 1847,-620 1847,-620 1847,-626 1841,-632 1835,-632 1835,-632 492,-632 492,-632 486,-632 480,-626 480,-620 480,-620 480,-456 480,-456 480,-450 486,-444 492,-444"/>
<text text-anchor="middle" x="1163.5" y="-612" font-family="Times,serif" font-size="20.00">Latch</text>
</g>
<g id="clust2" class="cluster">
<title>cluster_Latches</title>
<path fill="none" stroke="slategrey" stroke-dasharray="5,2" d="M253,-240C253,-240 1585,-240 1585,-240 1591,-240 1597,-246 1597,-252 1597,-252 1597,-424 1597,-424 1597,-430 1591,-436 1585,-436 1585,-436 253,-436 253,-436 247,-436 241,-430 241,-424 241,-424 241,-252 241,-252 241,-246 247,-240 253,-240"/>
<text text-anchor="middle" x="919" y="-416" font-family="Times,serif" font-size="20.00">Latches</text>
</g>
<g id="clust5" class="cluster">
<title>cluster_Scheduler</title>
<path fill="none" stroke="slategrey" stroke-dasharray="5,2" d="M20,-8C20,-8 1083,-8 1083,-8 1089,-8 1095,-14 1095,-20 1095,-20 1095,-220 1095,-220 1095,-226 1089,-232 1083,-232 1083,-232 20,-232 20,-232 14,-232 8,-226 8,-220 8,-220 8,-20 8,-20 8,-14 14,-8 20,-8"/>
<text text-anchor="middle" x="551.5" y="-212" font-family="Times,serif" font-size="20.00">Scheduler</text>
</g>
<!-- Latch -->
<g id="node1" class="node">
<title>Latch</title>
<path fill="#79d8ce" stroke="#60b5ac" d="M1637,-458C1637,-458 1827,-458 1827,-458 1833,-458 1839,-464 1839,-470 1839,-470 1839,-530 1839,-530 1839,-536 1833,-542 1827,-542 1827,-542 1637,-542 1637,-542 1631,-542 1625,-536 1625,-530 1625,-530 1625,-470 1625,-470 1625,-464 1631,-458 1637,-458"/>
<text text-anchor="middle" x="1732" y="-526.8" font-family="Times,serif" font-size="14.00" fill="#5d6179">Latch</text>
<polyline fill="none" stroke="#60b5ac" points="1625,-519 1839,-519 "/>
<text text-anchor="start" x="1633" y="-503.8" font-family="Times,serif" font-size="14.00" fill="#5d6179">存放hash_value和command id pair</text>
<polyline fill="none" stroke="#60b5ac" points="1625,-496 1839,-496 "/>
<text text-anchor="start" x="1633" y="-480.8" font-family="Times,serif" font-size="14.00" fill="#5d6179">pub waiting: VecDeque</text>
<text text-anchor="start" x="1633" y="-465.8" font-family="Times,serif" font-size="14.00" fill="#5d6179"> &lt;Option&lt;(u64, u64)&gt;&gt;,</text>
</g>
<!-- get_first_req_by_hash -->
<g id="node2" class="node">
<title>get_first_req_by_hash</title>
<path fill="none" stroke="#1c2123" d="M1386,-532.5C1386,-532.5 1529,-532.5 1529,-532.5 1535,-532.5 1541,-538.5 1541,-544.5 1541,-544.5 1541,-581.5 1541,-581.5 1541,-587.5 1535,-593.5 1529,-593.5 1529,-593.5 1386,-593.5 1386,-593.5 1380,-593.5 1374,-587.5 1374,-581.5 1374,-581.5 1374,-544.5 1374,-544.5 1374,-538.5 1380,-532.5 1386,-532.5"/>
<text text-anchor="middle" x="1457.5" y="-578.3" font-family="Times,serif" font-size="14.00" fill="#2f3638">get_first_req_by_hash</text>
<polyline fill="none" stroke="#1c2123" points="1374,-570.5 1541,-570.5 "/>
<text text-anchor="start" x="1382" y="-555.3" font-family="Times,serif" font-size="14.00" fill="#2f3638">根据hash遍历waiting队列</text>
<text text-anchor="middle" x="1457.5" y="-540.3" font-family="Times,serif" font-size="14.00" fill="#2f3638"> 返回cid</text>
</g>
<!-- get_first_req_by_hash&#45;&gt;Latch -->
<g id="edge1" class="edge">
<title>get_first_req_by_hash&#45;&gt;Latch:waiting</title>
<path fill="none" stroke="#666666" d="M1541.24,-549.85C1560.87,-543.94 1580.79,-535.39 1597,-523 1612.45,-511.19 1605.48,-488.2 1615.16,-480"/>
<polygon fill="#666666" stroke="#666666" points="1616.45,-483.26 1625,-477 1614.41,-476.57 1616.45,-483.26"/>
</g>
<!-- wait_for_wake -->
<g id="node3" class="node">
<title>wait_for_wake</title>
<path fill="none" stroke="#1c2123" d="M1390.5,-452.5C1390.5,-452.5 1524.5,-452.5 1524.5,-452.5 1530.5,-452.5 1536.5,-458.5 1536.5,-464.5 1536.5,-464.5 1536.5,-501.5 1536.5,-501.5 1536.5,-507.5 1530.5,-513.5 1524.5,-513.5 1524.5,-513.5 1390.5,-513.5 1390.5,-513.5 1384.5,-513.5 1378.5,-507.5 1378.5,-501.5 1378.5,-501.5 1378.5,-464.5 1378.5,-464.5 1378.5,-458.5 1384.5,-452.5 1390.5,-452.5"/>
<text text-anchor="middle" x="1457.5" y="-498.3" font-family="Times,serif" font-size="14.00" fill="#2f3638">wait_for_wake</text>
<polyline fill="none" stroke="#1c2123" points="1378.5,-490.5 1536.5,-490.5 "/>
<text text-anchor="start" x="1386.5" y="-475.3" font-family="Times,serif" font-size="14.00" fill="#2f3638">self.waiting.push_back</text>
<text text-anchor="start" x="1386.5" y="-460.3" font-family="Times,serif" font-size="14.00" fill="#2f3638"> (Some((key_hash, cid)));</text>
</g>
<!-- wait_for_wake&#45;&gt;Latch -->
<g id="edge2" class="edge">
<title>wait_for_wake&#45;&gt;Latch:waiting</title>
<path fill="none" stroke="#666666" d="M1536.83,-479.01C1561.4,-478.04 1588.87,-477.22 1614.78,-477.04"/>
<polygon fill="#666666" stroke="#666666" points="1615.01,-480.54 1625,-477 1614.99,-473.54 1615.01,-480.54"/>
</g>
<!-- pop_front -->
<g id="node4" class="node">
<title>pop_front</title>
<path fill="none" stroke="#1c2123" d="M500,-453C500,-453 655,-453 655,-453 661,-453 667,-459 667,-465 667,-465 667,-517 667,-517 667,-523 661,-529 655,-529 655,-529 500,-529 500,-529 494,-529 488,-523 488,-517 488,-517 488,-465 488,-465 488,-459 494,-453 500,-453"/>
<text text-anchor="middle" x="577.5" y="-513.8" font-family="Times,serif" font-size="14.00" fill="#2f3638">pop_front</text>
<polyline fill="none" stroke="#1c2123" points="488,-506 667,-506 "/>
<text text-anchor="start" x="496" y="-490.8" font-family="Times,serif" font-size="14.00" fill="#2f3638">扫描waiting 队列</text>
<text text-anchor="start" x="496" y="-475.8" font-family="Times,serif" font-size="14.00" fill="#2f3638"> 根据key_hash获取key_hash</text>
<text text-anchor="start" x="496" y="-460.8" font-family="Times,serif" font-size="14.00" fill="#2f3638"> 和command id</text>
</g>
<!-- wakeup_list -->
<g id="node9" class="node">
<title>wakeup_list</title>
<path fill="none" stroke="#1c2123" d="M773,-398C773,-398 715,-398 715,-398 709,-398 703,-392 703,-386 703,-386 703,-374 703,-374 703,-368 709,-362 715,-362 715,-362 773,-362 773,-362 779,-362 785,-368 785,-374 785,-374 785,-386 785,-386 785,-392 779,-398 773,-398"/>
<text text-anchor="middle" x="744" y="-376.3" font-family="Times,serif" font-size="14.00" fill="#2f3638">wakeup_list</text>
</g>
<!-- pop_front&#45;&gt;wakeup_list -->
<g id="edge12" class="edge">
<title>pop_front&#45;&gt;wakeup_list</title>
<path fill="none" stroke="green" stroke-dasharray="5,2" d="M647.24,-452.72C654,-448.56 660.69,-444.28 667,-440 683.05,-429.12 700.07,-415.86 713.93,-404.58"/>
<polygon fill="green" stroke="green" points="716.19,-407.25 721.69,-398.2 711.74,-401.85 716.19,-407.25"/>
</g>
<!-- Latches -->
<g id="node5" class="node">
<title>Latches</title>
<path fill="#79d8ce" stroke="#60b5ac" d="M1338,-328.5C1338,-328.5 1577,-328.5 1577,-328.5 1583,-328.5 1589,-334.5 1589,-340.5 1589,-340.5 1589,-385.5 1589,-385.5 1589,-391.5 1583,-397.5 1577,-397.5 1577,-397.5 1338,-397.5 1338,-397.5 1332,-397.5 1326,-391.5 1326,-385.5 1326,-385.5 1326,-340.5 1326,-340.5 1326,-334.5 1332,-328.5 1338,-328.5"/>
<text text-anchor="middle" x="1457.5" y="-382.3" font-family="Times,serif" font-size="14.00" fill="#5d6179">Latches</text>
<polyline fill="none" stroke="#60b5ac" points="1326,-374.5 1589,-374.5 "/>
<text text-anchor="start" x="1334" y="-359.3" font-family="Times,serif" font-size="14.00" fill="#5d6179">slots: Vec&lt;CachePadded&lt;Mutex&lt;Latch&gt;&gt;&gt;,</text>
<polyline fill="none" stroke="#60b5ac" points="1326,-351.5 1589,-351.5 "/>
<text text-anchor="start" x="1334" y="-336.3" font-family="Times,serif" font-size="14.00" fill="#5d6179">size: usize,</text>
</g>
<!-- Latches&#45;&gt;Latch -->
<g id="edge3" class="edge">
<title>Latches&#45;&gt;Latch</title>
<path fill="none" stroke="#666666" d="M1527.26,-397.57C1560.84,-414.45 1601.73,-435.01 1638.04,-453.27"/>
<polygon fill="#666666" stroke="#666666" points="1636.66,-456.49 1647.17,-457.85 1639.81,-450.23 1636.66,-456.49"/>
</g>
<!-- acquire -->
<g id="node6" class="node">
<title>acquire</title>
<path fill="none" stroke="#1c2123" d="M1135,-248.5C1135,-248.5 1278,-248.5 1278,-248.5 1284,-248.5 1290,-254.5 1290,-260.5 1290,-260.5 1290,-335.5 1290,-335.5 1290,-341.5 1284,-347.5 1278,-347.5 1278,-347.5 1135,-347.5 1135,-347.5 1129,-347.5 1123,-341.5 1123,-335.5 1123,-335.5 1123,-260.5 1123,-260.5 1123,-254.5 1129,-248.5 1135,-248.5"/>
<text text-anchor="middle" x="1206.5" y="-332.3" font-family="Times,serif" font-size="14.00" fill="#2f3638">acquire</text>
<polyline fill="none" stroke="#1c2123" points="1123,-324.5 1290,-324.5 "/>
<text text-anchor="start" x="1131" y="-309.3" font-family="Times,serif" font-size="14.00" fill="#2f3638">Tries to acquire the laches</text>
<text text-anchor="start" x="1131" y="-294.3" font-family="Times,serif" font-size="14.00" fill="#2f3638"> specified by the lock </text>
<text text-anchor="start" x="1131" y="-279.3" font-family="Times,serif" font-size="14.00" fill="#2f3638"> for command with ID who</text>
<polyline fill="none" stroke="#1c2123" points="1123,-271.5 1290,-271.5 "/>
<text text-anchor="start" x="1131" y="-256.3" font-family="Times,serif" font-size="14.00" fill="#2f3638">遍历lock的key hashes</text>
</g>
<!-- acquire&#45;&gt;get_first_req_by_hash -->
<g id="edge4" class="edge">
<title>acquire&#45;&gt;get_first_req_by_hash</title>
<path fill="none" stroke="#666666" d="M1238.36,-347.81C1254.52,-374.69 1274.19,-408.7 1290,-440 1308.13,-475.89 1296.02,-496.2 1326,-523 1336.98,-532.82 1350.32,-540.22 1364.23,-545.81"/>
<polygon fill="#666666" stroke="#666666" points="1363.34,-549.21 1373.93,-549.4 1365.76,-542.65 1363.34,-549.21"/>
</g>
<!-- acquire&#45;&gt;wait_for_wake -->
<g id="edge5" class="edge">
<title>acquire&#45;&gt;wait_for_wake</title>
<path fill="none" stroke="#666666" d="M1238.34,-347.54C1259.61,-378.05 1290.41,-415.82 1326,-440 1338.87,-448.74 1353.65,-455.82 1368.53,-461.52"/>
<polygon fill="#666666" stroke="#666666" points="1367.71,-464.94 1378.31,-465.06 1370.1,-458.36 1367.71,-464.94"/>
</g>
<!-- lock_latch -->
<g id="node7" class="node">
<title>lock_latch</title>
<path fill="none" stroke="#1c2123" d="M1412.5,-248.5C1412.5,-248.5 1502.5,-248.5 1502.5,-248.5 1508.5,-248.5 1514.5,-254.5 1514.5,-260.5 1514.5,-260.5 1514.5,-297.5 1514.5,-297.5 1514.5,-303.5 1508.5,-309.5 1502.5,-309.5 1502.5,-309.5 1412.5,-309.5 1412.5,-309.5 1406.5,-309.5 1400.5,-303.5 1400.5,-297.5 1400.5,-297.5 1400.5,-260.5 1400.5,-260.5 1400.5,-254.5 1406.5,-248.5 1412.5,-248.5"/>
<text text-anchor="middle" x="1457.5" y="-294.3" font-family="Times,serif" font-size="14.00" fill="#2f3638">lock_latch</text>
<polyline fill="none" stroke="#1c2123" points="1400.5,-286.5 1514.5,-286.5 "/>
<text text-anchor="start" x="1408.5" y="-271.3" font-family="Times,serif" font-size="14.00" fill="#2f3638">获取对latch操作</text>
<text text-anchor="start" x="1408.5" y="-256.3" font-family="Times,serif" font-size="14.00" fill="#2f3638"> 的lock guard</text>
</g>
<!-- acquire&#45;&gt;lock_latch -->
<g id="edge6" class="edge">
<title>acquire&#45;&gt;lock_latch</title>
<path fill="none" stroke="#666666" d="M1290.07,-291.7C1322.63,-289.22 1359.52,-286.4 1390.28,-284.05"/>
<polygon fill="#666666" stroke="#666666" points="1390.76,-287.53 1400.46,-283.28 1390.23,-280.55 1390.76,-287.53"/>
</g>
<!-- lock_latch&#45;&gt;Latch -->
<g id="edge7" class="edge">
<title>lock_latch&#45;&gt;Latch</title>
<path fill="none" stroke="#666666" d="M1514.71,-286.65C1541.43,-292.33 1572.75,-302.15 1597,-319 1644.76,-352.19 1682.26,-407.92 1705.3,-448.79"/>
<polygon fill="#666666" stroke="#666666" points="1702.37,-450.73 1710.27,-457.79 1708.5,-447.35 1702.37,-450.73"/>
</g>
<!-- lock_latch&#45;&gt;pop_front -->
<g id="edge11" class="edge">
<title>lock_latch&#45;&gt;pop_front</title>
<path fill="none" stroke="green" stroke-dasharray="5,2" d="M1400.33,-287.54C1375.74,-293.36 1347.64,-303.03 1326,-319 1303.09,-335.91 1312.57,-354.63 1290,-372 1198.54,-442.38 1160.4,-458 1045,-458 892,-458 892,-458 892,-458 819.81,-458 738.78,-466.76 677.19,-475.26"/>
<polygon fill="green" stroke="green" points="676.51,-471.82 667.09,-476.67 677.48,-478.75 676.51,-471.82"/>
</g>
<!-- release -->
<g id="node8" class="node">
<title>release</title>
<path fill="none" stroke="#1c2123" d="M261,-293.5C261,-293.5 440,-293.5 440,-293.5 446,-293.5 452,-299.5 452,-305.5 452,-305.5 452,-380.5 452,-380.5 452,-386.5 446,-392.5 440,-392.5 440,-392.5 261,-392.5 261,-392.5 255,-392.5 249,-386.5 249,-380.5 249,-380.5 249,-305.5 249,-305.5 249,-299.5 255,-293.5 261,-293.5"/>
<text text-anchor="middle" x="350.5" y="-377.3" font-family="Times,serif" font-size="14.00" fill="#2f3638">release</text>
<polyline fill="none" stroke="#1c2123" points="249,-369.5 452,-369.5 "/>
<text text-anchor="start" x="257" y="-354.3" font-family="Times,serif" font-size="14.00" fill="#2f3638">Releases all latches owned</text>
<text text-anchor="start" x="257" y="-339.3" font-family="Times,serif" font-size="14.00" fill="#2f3638"> owned by the `lock` of command</text>
<text text-anchor="start" x="257" y="-324.3" font-family="Times,serif" font-size="14.00" fill="#2f3638"> with ID `who`</text>
<polyline fill="none" stroke="#1c2123" points="249,-316.5 452,-316.5 "/>
<text text-anchor="start" x="257" y="-301.3" font-family="Times,serif" font-size="14.00" fill="#2f3638">return the wakeup list</text>
</g>
<!-- release&#45;&gt;get_first_req_by_hash -->
<g id="edge8" class="edge">
<title>release&#45;&gt;get_first_req_by_hash</title>
<path fill="none" stroke="#666666" d="M369.26,-392.77C388.71,-439.24 424.7,-506.22 480,-539 580.87,-598.79 625.74,-560 743,-560 743,-560 743,-560 1045,-560 1154.39,-560 1280.13,-561.07 1363.53,-561.94"/>
<polygon fill="#666666" stroke="#666666" points="1363.71,-565.44 1373.74,-562.04 1363.78,-558.44 1363.71,-565.44"/>
</g>
<!-- release&#45;&gt;pop_front -->
<g id="edge9" class="edge">
<title>release&#45;&gt;pop_front</title>
<path fill="none" stroke="#666666" d="M413.13,-392.68C433.87,-408.54 457.47,-425.68 480,-440 484.08,-442.6 488.31,-445.18 492.61,-447.73"/>
<polygon fill="#666666" stroke="#666666" points="491.13,-450.92 501.53,-452.91 494.64,-444.86 491.13,-450.92"/>
</g>
<!-- release&#45;&gt;lock_latch -->
<g id="edge10" class="edge">
<title>release&#45;&gt;lock_latch</title>
<path fill="none" stroke="#666666" d="M452.28,-345.41C599.6,-348.8 882.38,-354.82 1123,-357 1197.22,-357.67 1221.82,-386.33 1290,-357 1311.37,-347.81 1306.23,-331.26 1326,-319 1345.56,-306.87 1369.06,-298.19 1390.7,-292.08"/>
<polygon fill="#666666" stroke="#666666" points="1391.74,-295.43 1400.49,-289.46 1389.93,-288.67 1391.74,-295.43"/>
</g>
<!-- try_to_wake_up -->
<g id="node16" class="node">
<title>try_to_wake_up</title>
<path fill="none" stroke="#1c2123" d="M833,-86.5C833,-86.5 953,-86.5 953,-86.5 959,-86.5 965,-92.5 965,-98.5 965,-98.5 965,-135.5 965,-135.5 965,-141.5 959,-147.5 953,-147.5 953,-147.5 833,-147.5 833,-147.5 827,-147.5 821,-141.5 821,-135.5 821,-135.5 821,-98.5 821,-98.5 821,-92.5 827,-86.5 833,-86.5"/>
<text text-anchor="middle" x="893" y="-132.3" font-family="Times,serif" font-size="14.00" fill="#2f3638">try_to_wake_up</text>
<polyline fill="none" stroke="#1c2123" points="821,-124.5 965,-124.5 "/>
<text text-anchor="start" x="829" y="-109.3" font-family="Times,serif" font-size="14.00" fill="#2f3638">重新获取cid的lock</text>
<text text-anchor="start" x="829" y="-94.3" font-family="Times,serif" font-size="14.00" fill="#2f3638"> 然后重新再执行cmd</text>
</g>
<!-- wakeup_list&#45;&gt;try_to_wake_up -->
<g id="edge23" class="edge">
<title>wakeup_list&#45;&gt;try_to_wake_up</title>
<path fill="none" stroke="#666666" d="M755.1,-361.92C778.62,-319.84 837.49,-214.52 869.84,-156.64"/>
<polygon fill="#666666" stroke="#666666" points="872.97,-158.21 874.8,-147.78 866.86,-154.8 872.97,-158.21"/>
</g>
<!-- run_cmd -->
<g id="node10" class="node">
<title>run_cmd</title>
<path fill="none" stroke="#1c2123" d="M135,-52C135,-52 94,-52 94,-52 88,-52 82,-46 82,-40 82,-40 82,-28 82,-28 82,-22 88,-16 94,-16 94,-16 135,-16 135,-16 141,-16 147,-22 147,-28 147,-28 147,-40 147,-40 147,-46 141,-52 135,-52"/>
<text text-anchor="middle" x="114.5" y="-30.3" font-family="Times,serif" font-size="14.00" fill="#2f3638">run_cmd</text>
</g>
<!-- schedule_command -->
<g id="node11" class="node">
<title>schedule_command</title>
<path fill="none" stroke="#1c2123" d="M943.5,-68C943.5,-68 842.5,-68 842.5,-68 836.5,-68 830.5,-62 830.5,-56 830.5,-56 830.5,-44 830.5,-44 830.5,-38 836.5,-32 842.5,-32 842.5,-32 943.5,-32 943.5,-32 949.5,-32 955.5,-38 955.5,-44 955.5,-44 955.5,-56 955.5,-56 955.5,-62 949.5,-68 943.5,-68"/>
<text text-anchor="middle" x="893" y="-46.3" font-family="Times,serif" font-size="14.00" fill="#2f3638">schedule_command</text>
</g>
<!-- run_cmd&#45;&gt;schedule_command -->
<g id="edge13" class="edge">
<title>run_cmd&#45;&gt;schedule_command</title>
<path fill="none" stroke="#666666" d="M147.39,-34.66C262.23,-37.02 656.53,-45.15 820.05,-48.52"/>
<polygon fill="#666666" stroke="#666666" points="820.41,-52.03 830.48,-48.73 820.56,-45.03 820.41,-52.03"/>
</g>
<!-- schedule_command&#45;&gt;acquire -->
<g id="edge16" class="edge">
<title>schedule_command&#45;&gt;acquire</title>
<path fill="none" stroke="#666666" d="M955.75,-45.86C998.61,-46.09 1054.97,-52.94 1095,-82 1146.77,-119.58 1176.01,-188.59 1191.22,-238.52"/>
<polygon fill="#666666" stroke="#666666" points="1187.9,-239.63 1194.08,-248.23 1194.62,-237.65 1187.9,-239.63"/>
</g>
<!-- execute -->
<g id="node14" class="node">
<title>execute</title>
<path fill="none" stroke="#1c2123" d="M1061,-127C1061,-127 1027,-127 1027,-127 1021,-127 1015,-121 1015,-115 1015,-115 1015,-103 1015,-103 1015,-97 1021,-91 1027,-91 1027,-91 1061,-91 1061,-91 1067,-91 1073,-97 1073,-103 1073,-103 1073,-115 1073,-115 1073,-121 1067,-127 1061,-127"/>
<text text-anchor="middle" x="1044" y="-105.3" font-family="Times,serif" font-size="14.00" fill="#2f3638">execute</text>
</g>
<!-- schedule_command&#45;&gt;execute -->
<g id="edge17" class="edge">
<title>schedule_command&#45;&gt;execute</title>
<path fill="none" stroke="#666666" d="M942.19,-68.13C949.83,-71.06 957.64,-74.09 965,-77 978.23,-82.23 992.67,-88.1 1005.48,-93.38"/>
<polygon fill="#666666" stroke="#666666" points="1004.33,-96.69 1014.91,-97.27 1007,-90.22 1004.33,-96.69"/>
</g>
<!-- Lock -->
<g id="node12" class="node">
<title>Lock</title>
<path fill="#79d8ce" stroke="#60b5ac" d="M28,-124.5C28,-124.5 201,-124.5 201,-124.5 207,-124.5 213,-130.5 213,-136.5 213,-136.5 213,-181.5 213,-181.5 213,-187.5 207,-193.5 201,-193.5 201,-193.5 28,-193.5 28,-193.5 22,-193.5 16,-187.5 16,-181.5 16,-181.5 16,-136.5 16,-136.5 16,-130.5 22,-124.5 28,-124.5"/>
<text text-anchor="middle" x="114.5" y="-178.3" font-family="Times,serif" font-size="14.00" fill="#5d6179">Lock</text>
<polyline fill="none" stroke="#60b5ac" points="16,-170.5 213,-170.5 "/>
<text text-anchor="start" x="24" y="-155.3" font-family="Times,serif" font-size="14.00" fill="#5d6179">pub required_hashes: Vec&lt;u64&gt;,</text>
<polyline fill="none" stroke="#60b5ac" points="16,-147.5 213,-147.5 "/>
<text text-anchor="start" x="24" y="-132.3" font-family="Times,serif" font-size="14.00" fill="#5d6179">pub owned_count: usize,</text>
</g>
<!-- Lock&#45;&gt;release -->
<g id="edge15" class="edge">
<title>Lock&#45;&gt;release</title>
<path fill="none" stroke="#666666" d="M159.51,-193.61C192.89,-219.85 239.45,-256.46 278.12,-286.87"/>
<polygon fill="#666666" stroke="#666666" points="276.22,-289.83 286.25,-293.26 280.55,-284.33 276.22,-289.83"/>
</g>
<!-- acquire_lock -->
<g id="node13" class="node">
<title>acquire_lock</title>
<path fill="none" stroke="#1c2123" d="M1075,-185C1075,-185 1013,-185 1013,-185 1007,-185 1001,-179 1001,-173 1001,-173 1001,-161 1001,-161 1001,-155 1007,-149 1013,-149 1013,-149 1075,-149 1075,-149 1081,-149 1087,-155 1087,-161 1087,-161 1087,-173 1087,-173 1087,-179 1081,-185 1075,-185"/>
<text text-anchor="middle" x="1044" y="-163.3" font-family="Times,serif" font-size="14.00" fill="#2f3638">acquire_lock</text>
</g>
<!-- Lock&#45;&gt;acquire_lock -->
<g id="edge14" class="edge">
<title>Lock&#45;&gt;acquire_lock</title>
<path fill="none" stroke="#666666" d="M213.07,-161.68C306.37,-164 451.03,-167 576.5,-167 576.5,-167 576.5,-167 745,-167 830.9,-167 930.72,-167 990.28,-167"/>
<polygon fill="#666666" stroke="#666666" points="990.56,-170.5 1000.56,-167 990.56,-163.5 990.56,-170.5"/>
</g>
<!-- acquire_lock&#45;&gt;acquire -->
<g id="edge22" class="edge">
<title>acquire_lock&#45;&gt;acquire</title>
<path fill="none" stroke="#666666" d="M1067.32,-185.21C1085.35,-199.93 1111.74,-221.47 1136.63,-241.79"/>
<polygon fill="#666666" stroke="#666666" points="1134.69,-244.72 1144.65,-248.33 1139.12,-239.3 1134.69,-244.72"/>
</g>
<!-- release_lock -->
<g id="node15" class="node">
<title>release_lock</title>
<path fill="none" stroke="#1c2123" d="M144.5,-106C144.5,-106 84.5,-106 84.5,-106 78.5,-106 72.5,-100 72.5,-94 72.5,-94 72.5,-82 72.5,-82 72.5,-76 78.5,-70 84.5,-70 84.5,-70 144.5,-70 144.5,-70 150.5,-70 156.5,-76 156.5,-82 156.5,-82 156.5,-94 156.5,-94 156.5,-100 150.5,-106 144.5,-106"/>
<text text-anchor="middle" x="114.5" y="-84.3" font-family="Times,serif" font-size="14.00" fill="#2f3638">release_lock</text>
</g>
<!-- release_lock&#45;&gt;release -->
<g id="edge18" class="edge">
<title>release_lock&#45;&gt;release</title>
<path fill="none" stroke="#666666" d="M156.96,-89.95C176.46,-93.01 198.54,-99.91 213,-115 251.19,-154.86 214.06,-187.82 241,-236 251.15,-254.16 265.31,-271.25 280.04,-286.23"/>
<polygon fill="#666666" stroke="#666666" points="277.74,-288.87 287.31,-293.41 282.65,-283.89 277.74,-288.87"/>
</g>
<!-- release_lock&#45;&gt;try_to_wake_up -->
<g id="edge19" class="edge">
<title>release_lock&#45;&gt;try_to_wake_up</title>
<path fill="none" stroke="#666666" d="M156.7,-89.54C279.77,-94.14 646.32,-107.82 810.68,-113.96"/>
<polygon fill="#666666" stroke="#666666" points="810.61,-117.46 820.74,-114.34 810.87,-110.47 810.61,-117.46"/>
</g>
<!-- try_to_wake_up&#45;&gt;acquire_lock -->
<g id="edge20" class="edge">
<title>try_to_wake_up&#45;&gt;acquire_lock</title>
<path fill="none" stroke="#666666" d="M965.01,-140.83C973.84,-143.79 982.75,-146.78 991.21,-149.62"/>
<polygon fill="#666666" stroke="#666666" points="990.33,-153.02 1000.92,-152.88 992.56,-146.38 990.33,-153.02"/>
</g>
<!-- try_to_wake_up&#45;&gt;execute -->
<g id="edge21" class="edge">
<title>try_to_wake_up&#45;&gt;execute</title>
<path fill="none" stroke="#666666" d="M965.01,-113.19C978.69,-112.45 992.53,-111.71 1004.67,-111.06"/>
<polygon fill="#666666" stroke="#666666" points="1005.07,-114.54 1014.86,-110.51 1004.69,-107.55 1005.07,-114.54"/>
</g>
</g>
</svg>
