<?xml version="1.0" encoding="UTF-8" standalone="no"?>
<!DOCTYPE svg PUBLIC "-//W3C//DTD SVG 1.1//EN"
 "http://www.w3.org/Graphics/SVG/1.1/DTD/svg11.dtd">
<!-- Generated by graphviz version 2.47.1 (20210417.1919)
 -->
<!-- Title: LocalReaderStruct Pages: 1 -->
<svg width="1526pt" height="442pt"
 viewBox="0.00 0.00 1526.00 442.00" xmlns="http://www.w3.org/2000/svg" xmlns:xlink="http://www.w3.org/1999/xlink">
<g id="graph0" class="graph" transform="scale(1 1) rotate(0) translate(4 438)">
<title>LocalReaderStruct</title>
<polygon fill="white" stroke="transparent" points="-4,4 -4,-438 1522,-438 1522,4 -4,4"/>
<!-- ServerRaftStoreRouter -->
<g id="node1" class="node">
<title>ServerRaftStoreRouter</title>
<path fill="none" stroke="#1c2123" d="M351,-64C351,-64 590,-64 590,-64 596,-64 602,-70 602,-76 602,-76 602,-136 602,-136 602,-142 596,-148 590,-148 590,-148 351,-148 351,-148 345,-148 339,-142 339,-136 339,-136 339,-76 339,-76 339,-70 345,-64 351,-64"/>
<text text-anchor="middle" x="470.5" y="-132.8" font-family="Times,serif" font-size="14.00" fill="#2f3638">ServerRaftStoreRouter</text>
<polyline fill="none" stroke="#1c2123" points="339,-125 602,-125 "/>
<text text-anchor="start" x="347" y="-109.8" font-family="Times,serif" font-size="14.00" fill="#2f3638">router: RaftRouter&lt;EK, ER&gt;,</text>
<polyline fill="none" stroke="#1c2123" points="339,-102 602,-102 "/>
<text text-anchor="start" x="347" y="-86.8" font-family="Times,serif" font-size="14.00" fill="#2f3638">local_reader: RefCell&lt;</text>
<text text-anchor="start" x="347" y="-71.8" font-family="Times,serif" font-size="14.00" fill="#2f3638"> LocalReader&lt;RaftRouter&lt;EK, ER&gt;, EK&gt;&gt;,</text>
</g>
<!-- LocalReader -->
<g id="node5" class="node">
<title>LocalReader</title>
<path fill="none" stroke="#1c2123" d="M650,-146C650,-146 872,-146 872,-146 878,-146 884,-152 884,-158 884,-158 884,-264 884,-264 884,-270 878,-276 872,-276 872,-276 650,-276 650,-276 644,-276 638,-270 638,-264 638,-264 638,-158 638,-158 638,-152 644,-146 650,-146"/>
<text text-anchor="middle" x="761" y="-260.8" font-family="Times,serif" font-size="14.00" fill="#2f3638">LocalReader</text>
<polyline fill="none" stroke="#1c2123" points="638,-253 884,-253 "/>
<text text-anchor="start" x="646" y="-237.8" font-family="Times,serif" font-size="14.00" fill="#2f3638">delegates: LruCache&lt;u64,</text>
<text text-anchor="start" x="646" y="-222.8" font-family="Times,serif" font-size="14.00" fill="#2f3638"> Arc&lt;ReadDelegate&gt;&gt;,</text>
<polyline fill="none" stroke="#1c2123" points="638,-215 884,-215 "/>
<text text-anchor="start" x="646" y="-199.8" font-family="Times,serif" font-size="14.00" fill="#2f3638">snap_cache: Option&lt;Arc&lt;E::Snapshot&gt;&gt;,</text>
<polyline fill="none" stroke="#1c2123" points="638,-192 884,-192 "/>
<text text-anchor="start" x="646" y="-176.8" font-family="Times,serif" font-size="14.00" fill="#2f3638">cache_read_id: ThreadReadId,</text>
<polyline fill="none" stroke="#1c2123" points="638,-169 884,-169 "/>
<text text-anchor="start" x="646" y="-153.8" font-family="Times,serif" font-size="14.00" fill="#2f3638">...</text>
</g>
<!-- ServerRaftStoreRouter&#45;&gt;LocalReader -->
<g id="edge4" class="edge">
<title>ServerRaftStoreRouter&#45;&gt;LocalReader</title>
<path fill="none" stroke="#666666" d="M587.18,-148.1C600.68,-153.02 614.53,-158.06 628.23,-163.04"/>
<polygon fill="#666666" stroke="#666666" points="627.09,-166.35 637.68,-166.48 629.48,-159.77 627.09,-166.35"/>
</g>
<!-- RaftRouter -->
<g id="node6" class="node">
<title>RaftRouter</title>
<path fill="none" stroke="#1c2123" d="M787.5,-124C787.5,-124 734.5,-124 734.5,-124 728.5,-124 722.5,-118 722.5,-112 722.5,-112 722.5,-100 722.5,-100 722.5,-94 728.5,-88 734.5,-88 734.5,-88 787.5,-88 787.5,-88 793.5,-88 799.5,-94 799.5,-100 799.5,-100 799.5,-112 799.5,-112 799.5,-118 793.5,-124 787.5,-124"/>
<text text-anchor="middle" x="761" y="-102.3" font-family="Times,serif" font-size="14.00" fill="#2f3638">RaftRouter</text>
</g>
<!-- ServerRaftStoreRouter&#45;&gt;RaftRouter -->
<g id="edge5" class="edge">
<title>ServerRaftStoreRouter&#45;&gt;RaftRouter</title>
<path fill="none" stroke="#666666" d="M602.24,-106C641.45,-106 682.01,-106 712.18,-106"/>
<polygon fill="#666666" stroke="#666666" points="712.39,-109.5 722.39,-106 712.39,-102.5 712.39,-109.5"/>
</g>
<!-- TiKVServer -->
<g id="node2" class="node">
<title>TiKVServer</title>
<path fill="none" stroke="#1c2123" d="M71,-74C71,-74 12,-74 12,-74 6,-74 0,-68 0,-62 0,-62 0,-50 0,-50 0,-44 6,-38 12,-38 12,-38 71,-38 71,-38 77,-38 83,-44 83,-50 83,-50 83,-62 83,-62 83,-68 77,-74 71,-74"/>
<text text-anchor="middle" x="41.5" y="-52.3" font-family="Times,serif" font-size="14.00" fill="#2f3638">TiKVServer</text>
</g>
<!-- TiKVEngines -->
<g id="node3" class="node">
<title>TiKVEngines</title>
<path fill="none" stroke="#1c2123" d="M199,-74C199,-74 131,-74 131,-74 125,-74 119,-68 119,-62 119,-62 119,-50 119,-50 119,-44 125,-38 131,-38 131,-38 199,-38 199,-38 205,-38 211,-44 211,-50 211,-50 211,-62 211,-62 211,-68 205,-74 199,-74"/>
<text text-anchor="middle" x="165" y="-52.3" font-family="Times,serif" font-size="14.00" fill="#2f3638">TiKVEngines</text>
</g>
<!-- TiKVServer&#45;&gt;TiKVEngines -->
<g id="edge1" class="edge">
<title>TiKVServer&#45;&gt;TiKVEngines</title>
<path fill="none" stroke="#666666" d="M83.3,-56C91.52,-56 100.3,-56 108.92,-56"/>
<polygon fill="#666666" stroke="#666666" points="108.92,-59.5 118.92,-56 108.92,-52.5 108.92,-59.5"/>
</g>
<!-- RaftKv -->
<g id="node4" class="node">
<title>RaftKv</title>
<path fill="none" stroke="#1c2123" d="M291,-110C291,-110 259,-110 259,-110 253,-110 247,-104 247,-98 247,-98 247,-86 247,-86 247,-80 253,-74 259,-74 259,-74 291,-74 291,-74 297,-74 303,-80 303,-86 303,-86 303,-98 303,-98 303,-104 297,-110 291,-110"/>
<text text-anchor="middle" x="275" y="-88.3" font-family="Times,serif" font-size="14.00" fill="#2f3638">RaftKv</text>
</g>
<!-- TiKVEngines&#45;&gt;RaftKv -->
<g id="edge2" class="edge">
<title>TiKVEngines&#45;&gt;RaftKv</title>
<path fill="none" stroke="#666666" d="M211.18,-71.06C219.9,-73.97 228.94,-76.98 237.35,-79.78"/>
<polygon fill="#666666" stroke="#666666" points="236.29,-83.12 246.88,-82.96 238.5,-76.48 236.29,-83.12"/>
</g>
<!-- StoreMeta -->
<g id="node7" class="node">
<title>StoreMeta</title>
<path fill="none" stroke="#1c2123" d="M962.5,-0.5C962.5,-0.5 1111.5,-0.5 1111.5,-0.5 1117.5,-0.5 1123.5,-6.5 1123.5,-12.5 1123.5,-12.5 1123.5,-49.5 1123.5,-49.5 1123.5,-55.5 1117.5,-61.5 1111.5,-61.5 1111.5,-61.5 962.5,-61.5 962.5,-61.5 956.5,-61.5 950.5,-55.5 950.5,-49.5 950.5,-49.5 950.5,-12.5 950.5,-12.5 950.5,-6.5 956.5,-0.5 962.5,-0.5"/>
<text text-anchor="middle" x="1037" y="-46.3" font-family="Times,serif" font-size="14.00" fill="#2f3638">StoreMeta</text>
<polyline fill="none" stroke="#1c2123" points="950.5,-38.5 1123.5,-38.5 "/>
<text text-anchor="start" x="958.5" y="-23.3" font-family="Times,serif" font-size="14.00" fill="#2f3638">pub readers: HashMap&lt;u64,</text>
<text text-anchor="start" x="958.5" y="-8.3" font-family="Times,serif" font-size="14.00" fill="#2f3638"> ReadDelegate&gt;,</text>
</g>
<!-- TiKVEngines&#45;&gt;StoreMeta -->
<g id="edge19" class="edge">
<title>TiKVEngines&#45;&gt;StoreMeta</title>
<path fill="none" stroke="#666666" d="M211.25,-54.7C347.13,-50.8 753.73,-39.11 940.4,-33.75"/>
<polygon fill="#666666" stroke="#666666" points="940.58,-37.24 950.48,-33.46 940.38,-30.25 940.58,-37.24"/>
</g>
<!-- RaftKv&#45;&gt;ServerRaftStoreRouter -->
<g id="edge3" class="edge">
<title>RaftKv&#45;&gt;ServerRaftStoreRouter</title>
<path fill="none" stroke="#666666" d="M303.31,-93.98C310.81,-94.52 319.49,-95.15 328.86,-95.82"/>
<polygon fill="#666666" stroke="#666666" points="328.64,-99.32 338.86,-96.55 329.14,-92.34 328.64,-99.32"/>
</g>
<!-- LocalReader&#45;&gt;StoreMeta -->
<g id="edge6" class="edge">
<title>LocalReader&#45;&gt;StoreMeta</title>
<path fill="none" stroke="#666666" d="M870.41,-145.92C875.18,-141.76 879.74,-137.45 884,-133 906.04,-109.99 895.39,-91.24 920,-71 926.5,-65.65 933.76,-61 941.39,-56.96"/>
<polygon fill="#666666" stroke="#666666" points="943.06,-60.04 950.5,-52.49 939.98,-53.75 943.06,-60.04"/>
</g>
<!-- KvEngine -->
<g id="node8" class="node">
<title>KvEngine</title>
<path fill="none" stroke="#1c2123" d="M1060.5,-392C1060.5,-392 1013.5,-392 1013.5,-392 1007.5,-392 1001.5,-386 1001.5,-380 1001.5,-380 1001.5,-368 1001.5,-368 1001.5,-362 1007.5,-356 1013.5,-356 1013.5,-356 1060.5,-356 1060.5,-356 1066.5,-356 1072.5,-362 1072.5,-368 1072.5,-368 1072.5,-380 1072.5,-380 1072.5,-386 1066.5,-392 1060.5,-392"/>
<text text-anchor="middle" x="1037" y="-370.3" font-family="Times,serif" font-size="14.00" fill="#2f3638">KvEngine</text>
</g>
<!-- LocalReader&#45;&gt;KvEngine -->
<g id="edge7" class="edge">
<title>LocalReader&#45;&gt;KvEngine</title>
<path fill="none" stroke="#666666" d="M823.29,-276.02C850.65,-301.59 884.66,-329.06 920,-347 942.15,-358.24 969.04,-364.88 991.36,-368.75"/>
<polygon fill="#666666" stroke="#666666" points="990.83,-372.21 1001.26,-370.35 991.94,-365.3 990.83,-372.21"/>
</g>
<!-- LruCache -->
<g id="node9" class="node">
<title>LruCache</title>
<path fill="none" stroke="#1c2123" d="M1060,-338C1060,-338 1014,-338 1014,-338 1008,-338 1002,-332 1002,-326 1002,-326 1002,-314 1002,-314 1002,-308 1008,-302 1014,-302 1014,-302 1060,-302 1060,-302 1066,-302 1072,-308 1072,-314 1072,-314 1072,-326 1072,-326 1072,-332 1066,-338 1060,-338"/>
<text text-anchor="middle" x="1037" y="-316.3" font-family="Times,serif" font-size="14.00" fill="#2f3638">LruCache</text>
</g>
<!-- LocalReader&#45;&gt;LruCache -->
<g id="edge8" class="edge">
<title>LocalReader&#45;&gt;LruCache</title>
<path fill="none" stroke="#666666" d="M884.38,-273.35C896.29,-278.6 908.3,-283.58 920,-288 943.39,-296.84 970.26,-304.41 992.24,-309.96"/>
<polygon fill="#666666" stroke="#666666" points="991.42,-313.36 1001.97,-312.37 993.11,-306.57 991.42,-313.36"/>
</g>
<!-- ReadDelegate -->
<g id="node10" class="node">
<title>ReadDelegate</title>
<path fill="none" stroke="#1c2123" d="M1270,-292C1270,-292 1202,-292 1202,-292 1196,-292 1190,-286 1190,-280 1190,-280 1190,-268 1190,-268 1190,-262 1196,-256 1202,-256 1202,-256 1270,-256 1270,-256 1276,-256 1282,-262 1282,-268 1282,-268 1282,-280 1282,-280 1282,-286 1276,-292 1270,-292"/>
<text text-anchor="middle" x="1236" y="-270.3" font-family="Times,serif" font-size="14.00" fill="#2f3638">ReadDelegate</text>
</g>
<!-- LocalReader&#45;&gt;ReadDelegate -->
<g id="edge9" class="edge">
<title>LocalReader&#45;&gt;ReadDelegate</title>
<path fill="none" stroke="#666666" d="M884.34,-247.8C896.32,-250.57 908.35,-253.05 920,-255 1010.09,-270.09 1116.43,-273.58 1179.66,-274.18"/>
<polygon fill="#666666" stroke="#666666" points="1179.78,-277.68 1189.8,-274.26 1179.83,-270.68 1179.78,-277.68"/>
</g>
<!-- ThreadReadId -->
<g id="node11" class="node">
<title>ThreadReadId</title>
<path fill="none" stroke="#1c2123" d="M964.5,-176.5C964.5,-176.5 1109.5,-176.5 1109.5,-176.5 1115.5,-176.5 1121.5,-182.5 1121.5,-188.5 1121.5,-188.5 1121.5,-233.5 1121.5,-233.5 1121.5,-239.5 1115.5,-245.5 1109.5,-245.5 1109.5,-245.5 964.5,-245.5 964.5,-245.5 958.5,-245.5 952.5,-239.5 952.5,-233.5 952.5,-233.5 952.5,-188.5 952.5,-188.5 952.5,-182.5 958.5,-176.5 964.5,-176.5"/>
<text text-anchor="middle" x="1037" y="-230.3" font-family="Times,serif" font-size="14.00" fill="#2f3638">ThreadReadId</text>
<polyline fill="none" stroke="#1c2123" points="952.5,-222.5 1121.5,-222.5 "/>
<text text-anchor="start" x="960.5" y="-207.3" font-family="Times,serif" font-size="14.00" fill="#2f3638">sequence: u64,</text>
<polyline fill="none" stroke="#1c2123" points="952.5,-199.5 1121.5,-199.5 "/>
<text text-anchor="start" x="960.5" y="-184.3" font-family="Times,serif" font-size="14.00" fill="#2f3638">pub create_time: Timespec,</text>
</g>
<!-- LocalReader&#45;&gt;ThreadReadId -->
<g id="edge10" class="edge">
<title>LocalReader&#45;&gt;ThreadReadId</title>
<path fill="none" stroke="#666666" d="M884.18,-211C903.56,-211 923.35,-211 941.96,-211"/>
<polygon fill="#666666" stroke="#666666" points="942.17,-214.5 952.17,-211 942.17,-207.5 942.17,-214.5"/>
</g>
<!-- ProposalRouter -->
<g id="node12" class="node">
<title>ProposalRouter</title>
<path fill="none" stroke="#1c2123" d="M932,-81C932,-81 1142,-81 1142,-81 1148,-81 1154,-87 1154,-93 1154,-93 1154,-145 1154,-145 1154,-151 1148,-157 1142,-157 1142,-157 932,-157 932,-157 926,-157 920,-151 920,-145 920,-145 920,-93 920,-93 920,-87 926,-81 932,-81"/>
<text text-anchor="middle" x="1037" y="-141.8" font-family="Times,serif" font-size="14.00" fill="#2f3638">ProposalRouter</text>
<polyline fill="none" stroke="#1c2123" points="920,-134 1154,-134 "/>
<text text-anchor="start" x="928" y="-118.8" font-family="Times,serif" font-size="14.00" fill="#2f3638">在无法直接local read时 使用该router</text>
<text text-anchor="start" x="928" y="-103.8" font-family="Times,serif" font-size="14.00" fill="#2f3638"> 将RaftCmdRequest</text>
<text text-anchor="start" x="928" y="-88.8" font-family="Times,serif" font-size="14.00" fill="#2f3638"> 发送给对应的peer</text>
</g>
<!-- LocalReader&#45;&gt;ProposalRouter -->
<g id="edge11" class="edge">
<title>LocalReader&#45;&gt;ProposalRouter</title>
<path fill="none" stroke="#666666" d="M884.18,-169.98C893.81,-166.74 903.54,-163.48 913.18,-160.24"/>
<polygon fill="#666666" stroke="#666666" points="914.41,-163.52 922.78,-157.02 912.18,-156.88 914.41,-163.52"/>
</g>
<!-- StoreMeta&#45;&gt;ReadDelegate -->
<g id="edge18" class="edge">
<title>StoreMeta&#45;&gt;ReadDelegate</title>
<path fill="none" stroke="#666666" d="M1123.67,-50.88C1134.77,-56.11 1145.29,-62.69 1154,-71 1204.36,-119.02 1224.13,-202.41 1231.3,-245.85"/>
<polygon fill="#666666" stroke="#666666" points="1227.84,-246.39 1232.83,-255.74 1234.76,-245.33 1227.84,-246.39"/>
</g>
<!-- LruCache&#45;&gt;ReadDelegate -->
<g id="edge17" class="edge">
<title>LruCache&#45;&gt;ReadDelegate</title>
<path fill="none" stroke="green" stroke-dasharray="5,2" d="M1072.31,-311.99C1102.01,-305.05 1145.5,-294.9 1180.04,-286.83"/>
<polygon fill="green" stroke="green" points="1181.05,-290.19 1189.99,-284.51 1179.46,-283.38 1181.05,-290.19"/>
</g>
<!-- Region -->
<g id="node13" class="node">
<title>Region</title>
<path fill="none" stroke="#1c2123" d="M1434,-434C1434,-434 1402,-434 1402,-434 1396,-434 1390,-428 1390,-422 1390,-422 1390,-410 1390,-410 1390,-404 1396,-398 1402,-398 1402,-398 1434,-398 1434,-398 1440,-398 1446,-404 1446,-410 1446,-410 1446,-422 1446,-422 1446,-428 1440,-434 1434,-434"/>
<text text-anchor="middle" x="1418" y="-412.3" font-family="Times,serif" font-size="14.00" fill="#2f3638">Region</text>
</g>
<!-- ReadDelegate&#45;&gt;Region -->
<g id="edge12" class="edge">
<title>ReadDelegate&#45;&gt;Region</title>
<path fill="none" stroke="#666666" d="M1244.86,-292.14C1256.87,-317.67 1282.21,-363.9 1318,-389 1336.13,-401.72 1360,-408.45 1379.76,-412.01"/>
<polygon fill="#666666" stroke="#666666" points="1379.24,-415.47 1389.67,-413.6 1380.35,-408.56 1379.24,-415.47"/>
</g>
<!-- RemoteLease -->
<g id="node14" class="node">
<title>RemoteLease</title>
<path fill="none" stroke="#1c2123" d="M1330,-310.5C1330,-310.5 1506,-310.5 1506,-310.5 1512,-310.5 1518,-316.5 1518,-322.5 1518,-322.5 1518,-367.5 1518,-367.5 1518,-373.5 1512,-379.5 1506,-379.5 1506,-379.5 1330,-379.5 1330,-379.5 1324,-379.5 1318,-373.5 1318,-367.5 1318,-367.5 1318,-322.5 1318,-322.5 1318,-316.5 1324,-310.5 1330,-310.5"/>
<text text-anchor="middle" x="1418" y="-364.3" font-family="Times,serif" font-size="14.00" fill="#2f3638">RemoteLease</text>
<polyline fill="none" stroke="#1c2123" points="1318,-356.5 1518,-356.5 "/>
<text text-anchor="start" x="1326" y="-341.3" font-family="Times,serif" font-size="14.00" fill="#2f3638">expired_time: Arc&lt;AtomicU64&gt;,</text>
<polyline fill="none" stroke="#1c2123" points="1318,-333.5 1518,-333.5 "/>
<text text-anchor="start" x="1326" y="-318.3" font-family="Times,serif" font-size="14.00" fill="#2f3638">term: u64,</text>
</g>
<!-- ReadDelegate&#45;&gt;RemoteLease -->
<g id="edge13" class="edge">
<title>ReadDelegate&#45;&gt;RemoteLease</title>
<path fill="none" stroke="#666666" d="M1282.42,-291.92C1293.99,-296.48 1306.87,-301.56 1319.95,-306.72"/>
<polygon fill="#666666" stroke="#666666" points="1318.9,-310.07 1329.49,-310.48 1321.47,-303.56 1318.9,-310.07"/>
</g>
<!-- TxnExtraOp -->
<g id="node15" class="node">
<title>TxnExtraOp</title>
<path fill="none" stroke="#1c2123" d="M1448,-292C1448,-292 1388,-292 1388,-292 1382,-292 1376,-286 1376,-280 1376,-280 1376,-268 1376,-268 1376,-262 1382,-256 1388,-256 1388,-256 1448,-256 1448,-256 1454,-256 1460,-262 1460,-268 1460,-268 1460,-280 1460,-280 1460,-286 1454,-292 1448,-292"/>
<text text-anchor="middle" x="1418" y="-270.3" font-family="Times,serif" font-size="14.00" fill="#2f3638">TxnExtraOp</text>
</g>
<!-- ReadDelegate&#45;&gt;TxnExtraOp -->
<g id="edge14" class="edge">
<title>ReadDelegate&#45;&gt;TxnExtraOp</title>
<path fill="none" stroke="#666666" d="M1282.42,-274C1307.8,-274 1339.5,-274 1365.76,-274"/>
<polygon fill="#666666" stroke="#666666" points="1365.9,-277.5 1375.9,-274 1365.9,-270.5 1365.9,-277.5"/>
</g>
<!-- Timespec -->
<g id="node16" class="node">
<title>Timespec</title>
<path fill="none" stroke="#1c2123" d="M1441,-238C1441,-238 1395,-238 1395,-238 1389,-238 1383,-232 1383,-226 1383,-226 1383,-214 1383,-214 1383,-208 1389,-202 1395,-202 1395,-202 1441,-202 1441,-202 1447,-202 1453,-208 1453,-214 1453,-214 1453,-226 1453,-226 1453,-232 1447,-238 1441,-238"/>
<text text-anchor="middle" x="1418" y="-216.3" font-family="Times,serif" font-size="14.00" fill="#2f3638">Timespec</text>
</g>
<!-- ReadDelegate&#45;&gt;Timespec -->
<g id="edge15" class="edge">
<title>ReadDelegate&#45;&gt;Timespec</title>
<path fill="none" stroke="#666666" d="M1282.27,-258.42C1293.88,-254.56 1306.37,-250.52 1318,-247 1335.96,-241.56 1355.9,-236.03 1373.15,-231.4"/>
<polygon fill="#666666" stroke="#666666" points="1374.2,-234.74 1382.96,-228.78 1372.4,-227.98 1374.2,-234.74"/>
</g>
<!-- TrackVer -->
<g id="node17" class="node">
<title>TrackVer</title>
<path fill="none" stroke="#1c2123" d="M1439.5,-184C1439.5,-184 1396.5,-184 1396.5,-184 1390.5,-184 1384.5,-178 1384.5,-172 1384.5,-172 1384.5,-160 1384.5,-160 1384.5,-154 1390.5,-148 1396.5,-148 1396.5,-148 1439.5,-148 1439.5,-148 1445.5,-148 1451.5,-154 1451.5,-160 1451.5,-160 1451.5,-172 1451.5,-172 1451.5,-178 1445.5,-184 1439.5,-184"/>
<text text-anchor="middle" x="1418" y="-162.3" font-family="Times,serif" font-size="14.00" fill="#2f3638">TrackVer</text>
</g>
<!-- ReadDelegate&#45;&gt;TrackVer -->
<g id="edge16" class="edge">
<title>ReadDelegate&#45;&gt;TrackVer</title>
<path fill="none" stroke="#666666" d="M1250.47,-255.8C1265.1,-237.31 1290.13,-209.17 1318,-193 1335.08,-183.09 1355.93,-176.7 1374.09,-172.64"/>
<polygon fill="#666666" stroke="#666666" points="1375.05,-176.01 1384.14,-170.56 1373.63,-169.16 1375.05,-176.01"/>
</g>
</g>
</svg>
