<?xml version="1.0" encoding="UTF-8" standalone="no"?>
<!DOCTYPE svg PUBLIC "-//W3C//DTD SVG 1.1//EN"
 "http://www.w3.org/Graphics/SVG/1.1/DTD/svg11.dtd">
<!-- Generated by graphviz version 2.47.1 (20210417.1919)
 -->
<!-- Title: conf_change Pages: 1 -->
<svg width="670pt" height="276pt"
 viewBox="0.00 0.00 670.00 275.50" xmlns="http://www.w3.org/2000/svg" xmlns:xlink="http://www.w3.org/1999/xlink">
<g id="graph0" class="graph" transform="scale(1 1) rotate(0) translate(4 271.5)">
<title>conf_change</title>
<polygon fill="white" stroke="transparent" points="-4,4 -4,-271.5 666,-271.5 666,4 -4,4"/>
<!-- ConfChange -->
<g id="node1" class="node">
<title>ConfChange</title>
<path fill="none" stroke="#1c2123" d="M27.5,-152C27.5,-152 214.5,-152 214.5,-152 220.5,-152 226.5,-158 226.5,-164 226.5,-164 226.5,-255 226.5,-255 226.5,-261 220.5,-267 214.5,-267 214.5,-267 27.5,-267 27.5,-267 21.5,-267 15.5,-261 15.5,-255 15.5,-255 15.5,-164 15.5,-164 15.5,-158 21.5,-152 27.5,-152"/>
<text text-anchor="middle" x="121" y="-251.8" font-family="Times,serif" font-size="14.00" fill="#2f3638">ConfChange</text>
<polyline fill="none" stroke="#1c2123" points="15.5,-244 226.5,-244 "/>
<text text-anchor="start" x="23.5" y="-228.8" font-family="Times,serif" font-size="14.00" fill="#2f3638">ConfChangeType change_type = 2;</text>
<polyline fill="none" stroke="#1c2123" points="15.5,-221 226.5,-221 "/>
<text text-anchor="start" x="23.5" y="-205.8" font-family="Times,serif" font-size="14.00" fill="#2f3638">uint64 node_id = 3;</text>
<polyline fill="none" stroke="#1c2123" points="15.5,-198 226.5,-198 "/>
<text text-anchor="start" x="23.5" y="-182.8" font-family="Times,serif" font-size="14.00" fill="#2f3638">bytes context = 4;</text>
<polyline fill="none" stroke="#1c2123" points="15.5,-175 226.5,-175 "/>
<text text-anchor="start" x="23.5" y="-159.8" font-family="Times,serif" font-size="14.00" fill="#2f3638">uint64 id = 1;</text>
</g>
<!-- ConfChangeType -->
<g id="node2" class="node">
<title>ConfChangeType</title>
<path fill="#a2dbfa" stroke="#8a8898" d="M537,-131.5C537,-131.5 650,-131.5 650,-131.5 656,-131.5 662,-137.5 662,-143.5 662,-143.5 662,-211.5 662,-211.5 662,-217.5 656,-223.5 650,-223.5 650,-223.5 537,-223.5 537,-223.5 531,-223.5 525,-217.5 525,-211.5 525,-211.5 525,-143.5 525,-143.5 525,-137.5 531,-131.5 537,-131.5"/>
<text text-anchor="middle" x="593.5" y="-208.3" font-family="Times,serif" font-size="14.00" fill="#5d6179">ConfChangeType</text>
<polyline fill="none" stroke="#8a8898" points="525,-200.5 662,-200.5 "/>
<text text-anchor="start" x="533" y="-185.3" font-family="Times,serif" font-size="14.00" fill="#5d6179">AddNode = 0;</text>
<polyline fill="none" stroke="#8a8898" points="525,-177.5 662,-177.5 "/>
<text text-anchor="start" x="533" y="-162.3" font-family="Times,serif" font-size="14.00" fill="#5d6179">RemoveNode = 1;</text>
<polyline fill="none" stroke="#8a8898" points="525,-154.5 662,-154.5 "/>
<text text-anchor="start" x="533" y="-139.3" font-family="Times,serif" font-size="14.00" fill="#5d6179">AddLearnerNode = 2;</text>
</g>
<!-- ConfChange&#45;&gt;ConfChangeType -->
<g id="edge1" class="edge">
<title>ConfChange&#45;&gt;ConfChangeType</title>
<path fill="none" stroke="#666666" d="M226.55,-206.12C300.06,-203.25 400.66,-198.32 489,-190.5 497.36,-189.76 506.09,-188.86 514.78,-187.89"/>
<polygon fill="#666666" stroke="#666666" points="515.4,-191.34 524.93,-186.71 514.6,-184.38 515.4,-191.34"/>
</g>
<!-- ConfChangeSingle -->
<g id="node3" class="node">
<title>ConfChangeSingle</title>
<path fill="none" stroke="#1c2123" d="M290,-112C290,-112 477,-112 477,-112 483,-112 489,-118 489,-124 489,-124 489,-169 489,-169 489,-175 483,-181 477,-181 477,-181 290,-181 290,-181 284,-181 278,-175 278,-169 278,-169 278,-124 278,-124 278,-118 284,-112 290,-112"/>
<text text-anchor="middle" x="383.5" y="-165.8" font-family="Times,serif" font-size="14.00" fill="#2f3638">ConfChangeSingle</text>
<polyline fill="none" stroke="#1c2123" points="278,-158 489,-158 "/>
<text text-anchor="start" x="286" y="-142.8" font-family="Times,serif" font-size="14.00" fill="#2f3638">ConfChangeType change_type = 1;</text>
<polyline fill="none" stroke="#1c2123" points="278,-135 489,-135 "/>
<text text-anchor="start" x="286" y="-119.8" font-family="Times,serif" font-size="14.00" fill="#2f3638">uint64 node_id = 2;</text>
</g>
<!-- ConfChangeSingle&#45;&gt;ConfChangeType -->
<g id="edge2" class="edge">
<title>ConfChangeSingle&#45;&gt;ConfChangeType</title>
<path fill="none" stroke="#666666" d="M489.11,-162.09C497.74,-163.38 506.36,-164.66 514.75,-165.91"/>
<polygon fill="#666666" stroke="#666666" points="514.43,-169.4 524.83,-167.42 515.46,-162.48 514.43,-169.4"/>
</g>
<!-- ConfChangeV2 -->
<g id="node4" class="node">
<title>ConfChangeV2</title>
<path fill="none" stroke="#1c2123" d="M12,-20.5C12,-20.5 230,-20.5 230,-20.5 236,-20.5 242,-26.5 242,-32.5 242,-32.5 242,-100.5 242,-100.5 242,-106.5 236,-112.5 230,-112.5 230,-112.5 12,-112.5 12,-112.5 6,-112.5 0,-106.5 0,-100.5 0,-100.5 0,-32.5 0,-32.5 0,-26.5 6,-20.5 12,-20.5"/>
<text text-anchor="middle" x="121" y="-97.3" font-family="Times,serif" font-size="14.00" fill="#2f3638">ConfChangeV2</text>
<polyline fill="none" stroke="#1c2123" points="0,-89.5 242,-89.5 "/>
<text text-anchor="start" x="8" y="-74.3" font-family="Times,serif" font-size="14.00" fill="#2f3638">ConfChangeTransition transition = 1;</text>
<polyline fill="none" stroke="#1c2123" points="0,-66.5 242,-66.5 "/>
<text text-anchor="start" x="8" y="-51.3" font-family="Times,serif" font-size="14.00" fill="#2f3638">repeated ConfChangeSingle changes = 2;</text>
<polyline fill="none" stroke="#1c2123" points="0,-43.5 242,-43.5 "/>
<text text-anchor="start" x="8" y="-28.3" font-family="Times,serif" font-size="14.00" fill="#2f3638">bytes context = 3;</text>
</g>
<!-- ConfChangeV2&#45;&gt;ConfChangeSingle -->
<g id="edge3" class="edge">
<title>ConfChangeV2&#45;&gt;ConfChangeSingle</title>
<path fill="none" stroke="#666666" d="M242.34,-103.46C250.96,-106.1 259.64,-108.77 268.22,-111.4"/>
<polygon fill="#666666" stroke="#666666" points="267.28,-114.78 277.87,-114.37 269.33,-108.09 267.28,-114.78"/>
</g>
<!-- ConfChangeTransition -->
<g id="node5" class="node">
<title>ConfChangeTransition</title>
<path fill="#a2dbfa" stroke="#8a8898" d="M325.5,-0.5C325.5,-0.5 441.5,-0.5 441.5,-0.5 447.5,-0.5 453.5,-6.5 453.5,-12.5 453.5,-12.5 453.5,-80.5 453.5,-80.5 453.5,-86.5 447.5,-92.5 441.5,-92.5 441.5,-92.5 325.5,-92.5 325.5,-92.5 319.5,-92.5 313.5,-86.5 313.5,-80.5 313.5,-80.5 313.5,-12.5 313.5,-12.5 313.5,-6.5 319.5,-0.5 325.5,-0.5"/>
<text text-anchor="middle" x="383.5" y="-77.3" font-family="Times,serif" font-size="14.00" fill="#5d6179">ConfChangeTransition</text>
<polyline fill="none" stroke="#8a8898" points="313.5,-69.5 453.5,-69.5 "/>
<text text-anchor="start" x="321.5" y="-54.3" font-family="Times,serif" font-size="14.00" fill="#5d6179">Auto = 0;</text>
<polyline fill="none" stroke="#8a8898" points="313.5,-46.5 453.5,-46.5 "/>
<text text-anchor="start" x="321.5" y="-31.3" font-family="Times,serif" font-size="14.00" fill="#5d6179">Implicit = 1;</text>
<polyline fill="none" stroke="#8a8898" points="313.5,-23.5 453.5,-23.5 "/>
<text text-anchor="start" x="321.5" y="-8.3" font-family="Times,serif" font-size="14.00" fill="#5d6179">Explicit = 2;</text>
</g>
<!-- ConfChangeV2&#45;&gt;ConfChangeTransition -->
<g id="edge4" class="edge">
<title>ConfChangeV2&#45;&gt;ConfChangeTransition</title>
<path fill="none" stroke="#666666" d="M242.34,-57.26C263.02,-55.67 284.03,-54.06 303.28,-52.58"/>
<polygon fill="#666666" stroke="#666666" points="303.77,-56.05 313.47,-51.8 303.24,-49.08 303.77,-56.05"/>
</g>
</g>
</svg>
