<?xml version="1.0" encoding="UTF-8" standalone="no"?>
<!DOCTYPE svg PUBLIC "-//W3C//DTD SVG 1.1//EN"
 "http://www.w3.org/Graphics/SVG/1.1/DTD/svg11.dtd">
<!-- Generated by graphviz version 2.47.0 (20210316.0004)
 -->
<!-- Title: peer_storage_applied_state Pages: 1 -->
<svg width="1802pt" height="564pt"
 viewBox="0.00 0.00 1802.00 564.00" xmlns="http://www.w3.org/2000/svg" xmlns:xlink="http://www.w3.org/1999/xlink">
<g id="graph0" class="graph" transform="scale(1 1) rotate(0) translate(4 560)">
<title>peer_storage_applied_state</title>
<polygon fill="white" stroke="transparent" points="-4,4 -4,-560 1798,-560 1798,4 -4,4"/>
<g id="clust1" class="cluster">
<title>cluster_PeerStorage</title>
<path fill="none" stroke="slategrey" stroke-dasharray="5,2" d="M734,-296C734,-296 1594,-296 1594,-296 1600,-296 1606,-302 1606,-308 1606,-308 1606,-536 1606,-536 1606,-542 1600,-548 1594,-548 1594,-548 734,-548 734,-548 728,-548 722,-542 722,-536 722,-536 722,-308 722,-308 722,-302 728,-296 734,-296"/>
<text text-anchor="middle" x="1164" y="-528" font-family="Times,serif" font-size="20.00">PeerStorage</text>
</g>
<g id="clust3" class="cluster">
<title>cluster_Peer</title>
<path fill="none" stroke="slategrey" stroke-dasharray="5,2" d="M537,-152C537,-152 821.5,-152 821.5,-152 827.5,-152 833.5,-158 833.5,-164 833.5,-164 833.5,-276 833.5,-276 833.5,-282 827.5,-288 821.5,-288 821.5,-288 537,-288 537,-288 531,-288 525,-282 525,-276 525,-276 525,-164 525,-164 525,-158 531,-152 537,-152"/>
<text text-anchor="middle" x="679.25" y="-268" font-family="Times,serif" font-size="20.00">Peer</text>
</g>
<g id="clust5" class="cluster">
<title>cluster_PeerFsmDelegate</title>
<path fill="none" stroke="slategrey" stroke-dasharray="5,2" d="M302,-152C302,-152 436,-152 436,-152 442,-152 448,-158 448,-164 448,-164 448,-276 448,-276 448,-282 442,-288 436,-288 436,-288 302,-288 302,-288 296,-288 290,-282 290,-276 290,-276 290,-164 290,-164 290,-158 296,-152 302,-152"/>
<text text-anchor="middle" x="369" y="-268" font-family="Times,serif" font-size="20.00">PeerFsmDelegate</text>
</g>
<g id="clust6" class="cluster">
<title>cluster_RaftPoller</title>
<path fill="none" stroke="slategrey" stroke-dasharray="5,2" d="M110,-8C110,-8 1774,-8 1774,-8 1780,-8 1786,-14 1786,-20 1786,-20 1786,-132 1786,-132 1786,-138 1780,-144 1774,-144 1774,-144 110,-144 110,-144 104,-144 98,-138 98,-132 98,-132 98,-20 98,-20 98,-14 104,-8 110,-8"/>
<text text-anchor="middle" x="942" y="-124" font-family="Times,serif" font-size="20.00">RaftPoller</text>
</g>
<g id="clust8" class="cluster">
<title>cluster_Poller</title>
<path fill="none" stroke="slategrey" stroke-dasharray="5,2" d="M20,-35C20,-35 66,-35 66,-35 72,-35 78,-41 78,-47 78,-47 78,-105 78,-105 78,-111 72,-117 66,-117 66,-117 20,-117 20,-117 14,-117 8,-111 8,-105 8,-105 8,-47 8,-47 8,-41 14,-35 20,-35"/>
<text text-anchor="middle" x="43" y="-97" font-family="Times,serif" font-size="20.00">Poller</text>
</g>
<!-- set_applied_state -->
<g id="node1" class="node">
<title>set_applied_state</title>
<path fill="none" stroke="#1c2123" d="M1020.5,-510C1020.5,-510 934.5,-510 934.5,-510 928.5,-510 922.5,-504 922.5,-498 922.5,-498 922.5,-486 922.5,-486 922.5,-480 928.5,-474 934.5,-474 934.5,-474 1020.5,-474 1020.5,-474 1026.5,-474 1032.5,-480 1032.5,-486 1032.5,-486 1032.5,-498 1032.5,-498 1032.5,-504 1026.5,-510 1020.5,-510"/>
<text text-anchor="middle" x="977.5" y="-488.3" font-family="Times,serif" font-size="14.00" fill="#2f3638">set_applied_state</text>
</g>
<!-- apply_state -->
<g id="node2" class="node">
<title>apply_state</title>
<path fill="#feed9b" stroke="#f7e495" d="M1196,-459C1196,-459 1250,-459 1250,-459 1256,-459 1262,-465 1262,-471 1262,-471 1262,-483 1262,-483 1262,-489 1256,-495 1250,-495 1250,-495 1196,-495 1196,-495 1190,-495 1184,-489 1184,-483 1184,-483 1184,-471 1184,-471 1184,-465 1190,-459 1196,-459"/>
<text text-anchor="middle" x="1223" y="-473.3" font-family="Times,serif" font-size="14.00" fill="#40575d">apply_state</text>
</g>
<!-- set_applied_state&#45;&gt;apply_state -->
<g id="edge1" class="edge">
<title>set_applied_state&#45;&gt;apply_state</title>
<path fill="none" stroke="#666666" d="M1032.54,-488.67C1074.82,-486.07 1133.06,-482.48 1173.78,-479.97"/>
<polygon fill="#666666" stroke="#666666" points="1174.22,-483.45 1183.99,-479.34 1173.79,-476.46 1174.22,-483.45"/>
</g>
<!-- save_apply_state_to -->
<g id="node5" class="node">
<title>save_apply_state_to</title>
<path fill="none" stroke="#1c2123" d="M1384,-305C1384,-305 1586,-305 1586,-305 1592,-305 1598,-311 1598,-317 1598,-317 1598,-369 1598,-369 1598,-375 1592,-381 1586,-381 1586,-381 1384,-381 1384,-381 1378,-381 1372,-375 1372,-369 1372,-369 1372,-317 1372,-317 1372,-311 1378,-305 1384,-305"/>
<text text-anchor="middle" x="1485" y="-365.8" font-family="Times,serif" font-size="14.00" fill="#2f3638">save_apply_state_to</text>
<polyline fill="none" stroke="#1c2123" points="1372,-358 1598,-358 "/>
<text text-anchor="start" x="1380" y="-342.8" font-family="Times,serif" font-size="14.00" fill="#2f3638">将apply_state写入write batch </text>
<text text-anchor="start" x="1380" y="-327.8" font-family="Times,serif" font-size="14.00" fill="#2f3638"> column faimly为：CF_RAFT</text>
<text text-anchor="start" x="1380" y="-312.8" font-family="Times,serif" font-size="14.00" fill="#2f3638"> key为apply_state_key(self.region_id)</text>
</g>
<!-- apply_state&#45;&gt;save_apply_state_to -->
<g id="edge3" class="edge">
<title>apply_state&#45;&gt;save_apply_state_to</title>
<path fill="none" stroke="green" stroke-dasharray="5,2" d="M1262.02,-471.18C1284.28,-466.88 1312.53,-459.85 1336,-449 1370.31,-433.13 1404.88,-408.94 1431.96,-387.68"/>
<polygon fill="green" stroke="green" points="1434.47,-390.15 1440.12,-381.19 1430.11,-384.68 1434.47,-390.15"/>
</g>
<!-- set_applied_term -->
<g id="node3" class="node">
<title>set_applied_term</title>
<path fill="none" stroke="#1c2123" d="M1020.5,-360C1020.5,-360 934.5,-360 934.5,-360 928.5,-360 922.5,-354 922.5,-348 922.5,-348 922.5,-336 922.5,-336 922.5,-330 928.5,-324 934.5,-324 934.5,-324 1020.5,-324 1020.5,-324 1026.5,-324 1032.5,-330 1032.5,-336 1032.5,-336 1032.5,-348 1032.5,-348 1032.5,-354 1026.5,-360 1020.5,-360"/>
<text text-anchor="middle" x="977.5" y="-338.3" font-family="Times,serif" font-size="14.00" fill="#2f3638">set_applied_term</text>
</g>
<!-- applied_index_term -->
<g id="node4" class="node">
<title>applied_index_term</title>
<path fill="#feed9b" stroke="#f7e495" d="M1122,-324.5C1122,-324.5 1324,-324.5 1324,-324.5 1330,-324.5 1336,-330.5 1336,-336.5 1336,-336.5 1336,-373.5 1336,-373.5 1336,-379.5 1330,-385.5 1324,-385.5 1324,-385.5 1122,-385.5 1122,-385.5 1116,-385.5 1110,-379.5 1110,-373.5 1110,-373.5 1110,-336.5 1110,-336.5 1110,-330.5 1116,-324.5 1122,-324.5"/>
<text text-anchor="middle" x="1223" y="-370.3" font-family="Times,serif" font-size="14.00" fill="#40575d">applied_index_term</text>
<polyline fill="none" stroke="#f7e495" points="1110,-362.5 1336,-362.5 "/>
<text text-anchor="start" x="1118" y="-347.3" font-family="Times,serif" font-size="14.00" fill="#40575d">可以通过apply_state.applied_index</text>
<text text-anchor="start" x="1118" y="-332.3" font-family="Times,serif" font-size="14.00" fill="#40575d"> 和log entry间接的获取，不用保存</text>
</g>
<!-- set_applied_term&#45;&gt;applied_index_term -->
<g id="edge2" class="edge">
<title>set_applied_term&#45;&gt;applied_index_term</title>
<path fill="none" stroke="#666666" d="M1032.54,-344.89C1052.52,-345.95 1076.08,-347.21 1099.66,-348.47"/>
<polygon fill="#666666" stroke="#666666" points="1099.58,-351.97 1109.75,-349.01 1099.96,-344.98 1099.58,-351.97"/>
</g>
<!-- write_opt -->
<g id="node18" class="node">
<title>write_opt</title>
<path fill="none" stroke="#1c2123" d="M1646,-38C1646,-38 1766,-38 1766,-38 1772,-38 1778,-44 1778,-50 1778,-50 1778,-72 1778,-72 1778,-78 1772,-84 1766,-84 1766,-84 1646,-84 1646,-84 1640,-84 1634,-78 1634,-72 1634,-72 1634,-50 1634,-50 1634,-44 1640,-38 1646,-38"/>
<text text-anchor="middle" x="1706" y="-68.8" font-family="Times,serif" font-size="14.00" fill="#2f3638">consume_and_shrink</text>
<polyline fill="none" stroke="#1c2123" points="1634,-61 1778,-61 "/>
<text text-anchor="start" x="1642" y="-45.8" font-family="Times,serif" font-size="14.00" fill="#2f3638">将raft_wb写入rocksdb</text>
</g>
<!-- save_apply_state_to&#45;&gt;write_opt -->
<g id="edge21" class="edge">
<title>save_apply_state_to&#45;&gt;write_opt</title>
<path fill="none" stroke="green" stroke-dasharray="5,2" d="M1515.54,-304.97C1559.22,-248.72 1640.24,-144.39 1680.7,-92.29"/>
<polygon fill="green" stroke="green" points="1683.7,-94.14 1687.07,-84.09 1678.17,-89.85 1683.7,-94.14"/>
</g>
<!-- handle_raft_ready -->
<g id="node6" class="node">
<title>handle_raft_ready</title>
<path fill="none" stroke="#1c2123" d="M833,-340C833,-340 742,-340 742,-340 736,-340 730,-334 730,-328 730,-328 730,-316 730,-316 730,-310 736,-304 742,-304 742,-304 833,-304 833,-304 839,-304 845,-310 845,-316 845,-316 845,-328 845,-328 845,-334 839,-340 833,-340"/>
<text text-anchor="middle" x="787.5" y="-318.3" font-family="Times,serif" font-size="14.00" fill="#2f3638">handle_raft_ready</text>
</g>
<!-- handle_raft_ready&#45;&gt;save_apply_state_to -->
<g id="edge4" class="edge">
<title>handle_raft_ready&#45;&gt;save_apply_state_to</title>
<path fill="none" stroke="#666666" d="M845.01,-317.34C944.51,-310.01 1157.36,-298.25 1336,-315 1344.51,-315.8 1353.26,-316.85 1362.06,-318.08"/>
<polygon fill="#666666" stroke="#666666" points="1361.59,-321.54 1371.99,-319.53 1362.6,-314.62 1361.59,-321.54"/>
</g>
<!-- init_applied_index_term -->
<g id="node7" class="node">
<title>init_applied_index_term</title>
<path fill="none" stroke="#1c2123" d="M893,-379C893,-379 1062,-379 1062,-379 1068,-379 1074,-385 1074,-391 1074,-391 1074,-443 1074,-443 1074,-449 1068,-455 1062,-455 1062,-455 893,-455 893,-455 887,-455 881,-449 881,-443 881,-443 881,-391 881,-391 881,-385 887,-379 893,-379"/>
<text text-anchor="middle" x="977.5" y="-439.8" font-family="Times,serif" font-size="14.00" fill="#2f3638">init_applied_index_term</text>
<polyline fill="none" stroke="#1c2123" points="881,-432 1074,-432 "/>
<text text-anchor="start" x="889" y="-416.8" font-family="Times,serif" font-size="14.00" fill="#2f3638">初始化时，根据applied_index</text>
<text text-anchor="start" x="889" y="-401.8" font-family="Times,serif" font-size="14.00" fill="#2f3638"> 找到对应的log entry</text>
<text text-anchor="start" x="889" y="-386.8" font-family="Times,serif" font-size="14.00" fill="#2f3638"> 然后的得到对应的term</text>
</g>
<!-- init_applied_index_term&#45;&gt;apply_state -->
<g id="edge5" class="edge">
<title>init_applied_index_term&#45;&gt;apply_state</title>
<path fill="none" stroke="#666666" d="M1074.04,-440.54C1108.36,-449 1145.61,-458.18 1174.14,-465.21"/>
<polygon fill="#666666" stroke="#666666" points="1173.31,-468.61 1183.85,-467.6 1174.98,-461.81 1173.31,-468.61"/>
</g>
<!-- init_applied_index_term&#45;&gt;applied_index_term -->
<g id="edge6" class="edge">
<title>init_applied_index_term&#45;&gt;applied_index_term</title>
<path fill="none" stroke="#666666" d="M1074.04,-392.67C1082.56,-390.5 1091.26,-388.29 1099.96,-386.07"/>
<polygon fill="#666666" stroke="#666666" points="1100.94,-389.43 1109.77,-383.58 1099.22,-382.65 1100.94,-389.43"/>
</g>
<!-- get_entry -->
<g id="node8" class="node">
<title>get_entry</title>
<path fill="none" stroke="#1c2123" d="M1245,-440C1245,-440 1201,-440 1201,-440 1195,-440 1189,-434 1189,-428 1189,-428 1189,-416 1189,-416 1189,-410 1195,-404 1201,-404 1201,-404 1245,-404 1245,-404 1251,-404 1257,-410 1257,-416 1257,-416 1257,-428 1257,-428 1257,-434 1251,-440 1245,-440"/>
<text text-anchor="middle" x="1223" y="-418.3" font-family="Times,serif" font-size="14.00" fill="#2f3638">get_entry</text>
</g>
<!-- init_applied_index_term&#45;&gt;get_entry -->
<g id="edge7" class="edge">
<title>init_applied_index_term&#45;&gt;get_entry</title>
<path fill="none" stroke="#666666" d="M1074.04,-418.96C1110.23,-419.7 1149.67,-420.51 1178.72,-421.11"/>
<polygon fill="#666666" stroke="#666666" points="1178.86,-424.61 1188.93,-421.32 1179,-417.62 1178.86,-424.61"/>
</g>
<!-- on_apply_res -->
<g id="node9" class="node">
<title>on_apply_res</title>
<path fill="none" stroke="#1c2123" d="M646,-196C646,-196 581,-196 581,-196 575,-196 569,-190 569,-184 569,-184 569,-172 569,-172 569,-166 575,-160 581,-160 581,-160 646,-160 646,-160 652,-160 658,-166 658,-172 658,-172 658,-184 658,-184 658,-190 652,-196 646,-196"/>
<text text-anchor="middle" x="613.5" y="-174.3" font-family="Times,serif" font-size="14.00" fill="#2f3638">on_apply_res</text>
</g>
<!-- post_apply -->
<g id="node10" class="node">
<title>post_apply</title>
<path fill="none" stroke="#1c2123" d="M813.5,-250C813.5,-250 761.5,-250 761.5,-250 755.5,-250 749.5,-244 749.5,-238 749.5,-238 749.5,-226 749.5,-226 749.5,-220 755.5,-214 761.5,-214 761.5,-214 813.5,-214 813.5,-214 819.5,-214 825.5,-220 825.5,-226 825.5,-226 825.5,-238 825.5,-238 825.5,-244 819.5,-250 813.5,-250"/>
<text text-anchor="middle" x="787.5" y="-228.3" font-family="Times,serif" font-size="14.00" fill="#2f3638">post_apply</text>
</g>
<!-- on_apply_res&#45;&gt;post_apply -->
<g id="edge8" class="edge">
<title>on_apply_res&#45;&gt;post_apply</title>
<path fill="none" stroke="#666666" d="M658.35,-191.77C683.21,-199.57 714.33,-209.34 739.67,-217.3"/>
<polygon fill="#666666" stroke="#666666" points="738.84,-220.7 749.43,-220.36 740.94,-214.03 738.84,-220.7"/>
</g>
<!-- post_apply&#45;&gt;set_applied_state -->
<g id="edge9" class="edge">
<title>post_apply&#45;&gt;set_applied_state</title>
<path fill="none" stroke="#666666" d="M810.69,-250.08C822.63,-260.99 836.6,-275.88 845,-292 881.28,-361.65 827.45,-407.55 881,-465 889.53,-474.15 900.9,-480.28 912.81,-484.37"/>
<polygon fill="#666666" stroke="#666666" points="911.86,-487.74 922.44,-487.23 913.85,-481.03 911.86,-487.74"/>
</g>
<!-- post_apply&#45;&gt;set_applied_term -->
<g id="edge10" class="edge">
<title>post_apply&#45;&gt;set_applied_term</title>
<path fill="none" stroke="#666666" d="M819.54,-250.16C851.62,-268.93 901.78,-298.28 936.74,-318.74"/>
<polygon fill="#666666" stroke="#666666" points="935.32,-321.96 945.72,-323.99 938.86,-315.92 935.32,-321.96"/>
</g>
<!-- handle_raft_ready_append -->
<g id="node11" class="node">
<title>handle_raft_ready_append</title>
<path fill="none" stroke="#1c2123" d="M682,-250C682,-250 545,-250 545,-250 539,-250 533,-244 533,-238 533,-238 533,-226 533,-226 533,-220 539,-214 545,-214 545,-214 682,-214 682,-214 688,-214 694,-220 694,-226 694,-226 694,-238 694,-238 694,-244 688,-250 682,-250"/>
<text text-anchor="middle" x="613.5" y="-228.3" font-family="Times,serif" font-size="14.00" fill="#2f3638">handle_raft_ready_append</text>
</g>
<!-- handle_raft_ready_append&#45;&gt;handle_raft_ready -->
<g id="edge11" class="edge">
<title>handle_raft_ready_append&#45;&gt;handle_raft_ready</title>
<path fill="none" stroke="#666666" d="M645.69,-250.21C666.97,-262.43 695.92,-278.68 722,-292 726.88,-294.49 732.01,-297.02 737.15,-299.5"/>
<polygon fill="#666666" stroke="#666666" points="735.83,-302.75 746.37,-303.89 738.84,-296.43 735.83,-302.75"/>
</g>
<!-- handle_msgs -->
<g id="node12" class="node">
<title>handle_msgs</title>
<path fill="none" stroke="#1c2123" d="M400.5,-196C400.5,-196 336.5,-196 336.5,-196 330.5,-196 324.5,-190 324.5,-184 324.5,-184 324.5,-172 324.5,-172 324.5,-166 330.5,-160 336.5,-160 336.5,-160 400.5,-160 400.5,-160 406.5,-160 412.5,-166 412.5,-172 412.5,-172 412.5,-184 412.5,-184 412.5,-190 406.5,-196 400.5,-196"/>
<text text-anchor="middle" x="368.5" y="-174.3" font-family="Times,serif" font-size="14.00" fill="#2f3638">handle_msgs</text>
</g>
<!-- handle_msgs&#45;&gt;on_apply_res -->
<g id="edge12" class="edge">
<title>handle_msgs&#45;&gt;on_apply_res</title>
<path fill="none" stroke="#666666" d="M412.66,-178C453.45,-178 514.76,-178 558.7,-178"/>
<polygon fill="#666666" stroke="#666666" points="558.92,-181.5 568.92,-178 558.92,-174.5 558.92,-181.5"/>
</g>
<!-- collect_ready -->
<g id="node13" class="node">
<title>collect_ready</title>
<path fill="none" stroke="#1c2123" d="M401,-250C401,-250 336,-250 336,-250 330,-250 324,-244 324,-238 324,-238 324,-226 324,-226 324,-220 330,-214 336,-214 336,-214 401,-214 401,-214 407,-214 413,-220 413,-226 413,-226 413,-238 413,-238 413,-244 407,-250 401,-250"/>
<text text-anchor="middle" x="368.5" y="-228.3" font-family="Times,serif" font-size="14.00" fill="#2f3638">collect_ready</text>
</g>
<!-- collect_ready&#45;&gt;handle_raft_ready_append -->
<g id="edge13" class="edge">
<title>collect_ready&#45;&gt;handle_raft_ready_append</title>
<path fill="none" stroke="#666666" d="M413.22,-232C443.57,-232 485.1,-232 522.38,-232"/>
<polygon fill="#666666" stroke="#666666" points="522.78,-235.5 532.78,-232 522.78,-228.5 522.78,-235.5"/>
</g>
<!-- ApplyRes -->
<g id="node14" class="node">
<title>ApplyRes</title>
<path fill="#79d8ce" stroke="#60b5ac" d="M252,-311C252,-311 485,-311 485,-311 491,-311 497,-317 497,-323 497,-323 497,-437 497,-437 497,-443 491,-449 485,-449 485,-449 252,-449 252,-449 246,-449 240,-443 240,-437 240,-437 240,-323 240,-323 240,-317 246,-311 252,-311"/>
<text text-anchor="middle" x="368.5" y="-433.8" font-family="Times,serif" font-size="14.00" fill="#5d6179">ApplyRes</text>
<polyline fill="none" stroke="#60b5ac" points="240,-426 497,-426 "/>
<text text-anchor="start" x="248" y="-410.8" font-family="Times,serif" font-size="14.00" fill="#5d6179">pub region_id: u64,</text>
<polyline fill="none" stroke="#60b5ac" points="240,-403 497,-403 "/>
<text text-anchor="start" x="248" y="-387.8" font-family="Times,serif" font-size="14.00" fill="#5d6179">pub apply_state: RaftApplyState,</text>
<polyline fill="none" stroke="#60b5ac" points="240,-380 497,-380 "/>
<text text-anchor="start" x="248" y="-364.8" font-family="Times,serif" font-size="14.00" fill="#5d6179">pub applied_index_term: u64,</text>
<polyline fill="none" stroke="#60b5ac" points="240,-357 497,-357 "/>
<text text-anchor="start" x="248" y="-341.8" font-family="Times,serif" font-size="14.00" fill="#5d6179">pub exec_res: VecDeque&lt;ExecResult&lt;S&gt;&gt;,</text>
<polyline fill="none" stroke="#60b5ac" points="240,-334 497,-334 "/>
<text text-anchor="start" x="248" y="-318.8" font-family="Times,serif" font-size="14.00" fill="#5d6179">pub metrics: ApplyMetrics,</text>
</g>
<!-- ApplyRes&#45;&gt;set_applied_state -->
<g id="edge14" class="edge">
<title>ApplyRes:apply_state&#45;&gt;set_applied_state</title>
<path fill="none" stroke="green" stroke-dasharray="5,2" d="M497,-392C577.59,-392 801.67,-446.81 912.61,-475.28"/>
<polygon fill="green" stroke="green" points="911.78,-478.68 922.33,-477.78 913.52,-471.9 911.78,-478.68"/>
</g>
<!-- ApplyRes&#45;&gt;set_applied_term -->
<g id="edge15" class="edge">
<title>ApplyRes:applied_index_term&#45;&gt;set_applied_term</title>
<path fill="none" stroke="green" stroke-dasharray="5,2" d="M497,-368C645.86,-368 820.34,-355.35 912.27,-347.7"/>
<polygon fill="green" stroke="green" points="912.59,-351.18 922.26,-346.86 912,-344.21 912.59,-351.18"/>
</g>
<!-- ApplyRes&#45;&gt;on_apply_res -->
<g id="edge16" class="edge">
<title>ApplyRes&#45;&gt;on_apply_res</title>
<path fill="none" stroke="green" stroke-dasharray="5,2" d="M480.61,-310.78C486.57,-304.85 492.11,-298.58 497,-292 521.23,-259.4 496.1,-233.55 525,-205 534.19,-195.92 546.37,-189.88 558.7,-185.87"/>
<polygon fill="green" stroke="green" points="559.91,-189.17 568.58,-183.07 558,-182.43 559.91,-189.17"/>
</g>
<!-- handle_normal -->
<g id="node15" class="node">
<title>handle_normal</title>
<path fill="none" stroke="#1c2123" d="M192,-106C192,-106 118,-106 118,-106 112,-106 106,-100 106,-94 106,-94 106,-82 106,-82 106,-76 112,-70 118,-70 118,-70 192,-70 192,-70 198,-70 204,-76 204,-82 204,-82 204,-94 204,-94 204,-100 198,-106 192,-106"/>
<text text-anchor="middle" x="155" y="-84.3" font-family="Times,serif" font-size="14.00" fill="#2f3638">handle_normal</text>
</g>
<!-- handle_normal&#45;&gt;handle_msgs -->
<g id="edge17" class="edge">
<title>handle_normal&#45;&gt;handle_msgs</title>
<path fill="none" stroke="#666666" d="M176.33,-106.01C192.53,-119.45 216.33,-137.27 240,-148 263.27,-158.55 290.68,-165.62 314.11,-170.23"/>
<polygon fill="#666666" stroke="#666666" points="313.75,-173.72 324.22,-172.12 315.04,-166.84 313.75,-173.72"/>
</g>
<!-- handle_normal&#45;&gt;collect_ready -->
<g id="edge18" class="edge">
<title>handle_normal&#45;&gt;collect_ready</title>
<path fill="none" stroke="#666666" d="M163.85,-106.31C176.09,-132.55 202.31,-180.39 240,-205 261.72,-219.18 289.55,-226.07 313.66,-229.36"/>
<polygon fill="#666666" stroke="#666666" points="313.4,-232.86 323.74,-230.56 314.23,-225.91 313.4,-232.86"/>
</g>
<!-- end -->
<g id="node16" class="node">
<title>end</title>
<path fill="none" stroke="#1c2123" d="M170,-52C170,-52 140,-52 140,-52 134,-52 128,-46 128,-40 128,-40 128,-28 128,-28 128,-22 134,-16 140,-16 140,-16 170,-16 170,-16 176,-16 182,-22 182,-28 182,-28 182,-40 182,-40 182,-46 176,-52 170,-52"/>
<text text-anchor="middle" x="155" y="-30.3" font-family="Times,serif" font-size="14.00" fill="#2f3638">end</text>
</g>
<!-- r_handle_raft_ready -->
<g id="node17" class="node">
<title>r_handle_raft_ready</title>
<path fill="none" stroke="#1c2123" d="M1439.5,-19C1439.5,-19 1530.5,-19 1530.5,-19 1536.5,-19 1542.5,-25 1542.5,-31 1542.5,-31 1542.5,-43 1542.5,-43 1542.5,-49 1536.5,-55 1530.5,-55 1530.5,-55 1439.5,-55 1439.5,-55 1433.5,-55 1427.5,-49 1427.5,-43 1427.5,-43 1427.5,-31 1427.5,-31 1427.5,-25 1433.5,-19 1439.5,-19"/>
<text text-anchor="middle" x="1485" y="-33.3" font-family="Times,serif" font-size="14.00" fill="#2f3638">handle_raft_ready</text>
</g>
<!-- end&#45;&gt;r_handle_raft_ready -->
<g id="edge19" class="edge">
<title>end&#45;&gt;r_handle_raft_ready</title>
<path fill="none" stroke="#666666" d="M182.25,-34.1C252.18,-34.35 448.84,-35 612.5,-35 612.5,-35 612.5,-35 978.5,-35 1135.57,-35 1320.1,-35.98 1416.92,-36.57"/>
<polygon fill="#666666" stroke="#666666" points="1417.12,-40.07 1427.14,-36.63 1417.17,-33.07 1417.12,-40.07"/>
</g>
<!-- r_handle_raft_ready&#45;&gt;write_opt -->
<g id="edge20" class="edge">
<title>r_handle_raft_ready&#45;&gt;write_opt</title>
<path fill="none" stroke="#666666" d="M1542.68,-43.21C1567.29,-45.91 1596.59,-49.12 1623.47,-52.06"/>
<polygon fill="#666666" stroke="#666666" points="1623.32,-55.57 1633.64,-53.18 1624.08,-48.61 1623.32,-55.57"/>
</g>
<!-- poll -->
<g id="node19" class="node">
<title>poll</title>
<path fill="none" stroke="#1c2123" d="M58,-79C58,-79 28,-79 28,-79 22,-79 16,-73 16,-67 16,-67 16,-55 16,-55 16,-49 22,-43 28,-43 28,-43 58,-43 58,-43 64,-43 70,-49 70,-55 70,-55 70,-67 70,-67 70,-73 64,-79 58,-79"/>
<text text-anchor="middle" x="43" y="-57.3" font-family="Times,serif" font-size="14.00" fill="#2f3638">poll</text>
</g>
<!-- poll&#45;&gt;handle_normal -->
<g id="edge22" class="edge">
<title>poll&#45;&gt;handle_normal</title>
<path fill="none" stroke="#666666" d="M70.07,-67.4C77.91,-69.32 86.84,-71.52 95.89,-73.74"/>
<polygon fill="#666666" stroke="#666666" points="95.16,-77.16 105.7,-76.15 96.83,-70.36 95.16,-77.16"/>
</g>
<!-- poll&#45;&gt;end -->
<g id="edge23" class="edge">
<title>poll&#45;&gt;end</title>
<path fill="none" stroke="#666666" d="M70.07,-54.6C84.35,-51.1 102.27,-46.7 117.87,-42.87"/>
<polygon fill="#666666" stroke="#666666" points="118.86,-46.23 127.74,-40.45 117.19,-39.43 118.86,-46.23"/>
</g>
</g>
</svg>
