<?xml version="1.0" encoding="UTF-8" standalone="no"?>
<!DOCTYPE svg PUBLIC "-//W3C//DTD SVG 1.1//EN"
 "http://www.w3.org/Graphics/SVG/1.1/DTD/svg11.dtd">
<!-- Generated by graphviz version 2.44.1 (20200629.0846)
 -->
<!-- Title: tikv_rawnode_proposal Pages: 1 -->
<svg width="1570pt" height="934pt"
 viewBox="0.00 0.00 1570.00 934.00" xmlns="http://www.w3.org/2000/svg" xmlns:xlink="http://www.w3.org/1999/xlink">
<g id="graph0" class="graph" transform="scale(1 1) rotate(0) translate(4 930)">
<title>tikv_rawnode_proposal</title>
<polygon fill="white" stroke="transparent" points="-4,4 -4,-930 1566,-930 1566,4 -4,4"/>
<g id="clust1" class="cluster">
<title>cluster_RawNode</title>
<path fill="none" stroke="slategrey" stroke-dasharray="5,2" d="M634,-700C634,-700 1542,-700 1542,-700 1548,-700 1554,-706 1554,-712 1554,-712 1554,-906 1554,-906 1554,-912 1548,-918 1542,-918 1542,-918 634,-918 634,-918 628,-918 622,-912 622,-906 622,-906 622,-712 622,-712 622,-706 628,-700 634,-700"/>
<text text-anchor="middle" x="1088" y="-898" font-family="Times,serif" font-size="20.00">RawNode</text>
</g>
<g id="clust2" class="cluster">
<title>cluster_Peer</title>
<path fill="none" stroke="slategrey" stroke-dasharray="5,2" d="M485,-502C485,-502 1447,-502 1447,-502 1453,-502 1459,-508 1459,-514 1459,-514 1459,-680 1459,-680 1459,-686 1453,-692 1447,-692 1447,-692 485,-692 485,-692 479,-692 473,-686 473,-680 473,-680 473,-514 473,-514 473,-508 479,-502 485,-502"/>
<text text-anchor="middle" x="966" y="-672" font-family="Times,serif" font-size="20.00">Peer</text>
</g>
<g id="clust6" class="cluster">
<title>cluster_PeerFsmDelegate</title>
<path fill="none" stroke="slategrey" stroke-dasharray="5,2" d="M20,-8C20,-8 1169,-8 1169,-8 1175,-8 1181,-14 1181,-20 1181,-20 1181,-482 1181,-482 1181,-488 1175,-494 1169,-494 1169,-494 20,-494 20,-494 14,-494 8,-488 8,-482 8,-482 8,-20 8,-20 8,-14 14,-8 20,-8"/>
<text text-anchor="middle" x="594.5" y="-474" font-family="Times,serif" font-size="20.00">PeerFsmDelegate</text>
</g>
<!-- RawNode_propose -->
<g id="node1" class="node">
<title>RawNode_propose</title>
<path fill="none" stroke="#1c2123" d="M1499,-709C1499,-709 1534,-709 1534,-709 1540,-709 1546,-715 1546,-721 1546,-721 1546,-733 1546,-733 1546,-739 1540,-745 1534,-745 1534,-745 1499,-745 1499,-745 1493,-745 1487,-739 1487,-733 1487,-733 1487,-721 1487,-721 1487,-715 1493,-709 1499,-709"/>
<text text-anchor="middle" x="1516.5" y="-723.3" font-family="Times,serif" font-size="14.00" fill="#2f3638">propose</text>
</g>
<!-- RawNode_tick -->
<g id="node2" class="node">
<title>RawNode_tick</title>
<path fill="none" stroke="#1c2123" d="M680.5,-709C680.5,-709 710.5,-709 710.5,-709 716.5,-709 722.5,-715 722.5,-721 722.5,-721 722.5,-733 722.5,-733 722.5,-739 716.5,-745 710.5,-745 710.5,-745 680.5,-745 680.5,-745 674.5,-745 668.5,-739 668.5,-733 668.5,-733 668.5,-721 668.5,-721 668.5,-715 674.5,-709 680.5,-709"/>
<text text-anchor="middle" x="695.5" y="-723.3" font-family="Times,serif" font-size="14.00" fill="#2f3638">tick</text>
</g>
<!-- RawNode_step -->
<g id="node3" class="node">
<title>RawNode_step</title>
<path fill="none" stroke="#1c2123" d="M642,-818.5C642,-818.5 749,-818.5 749,-818.5 755,-818.5 761,-824.5 761,-830.5 761,-830.5 761,-867.5 761,-867.5 761,-873.5 755,-879.5 749,-879.5 749,-879.5 642,-879.5 642,-879.5 636,-879.5 630,-873.5 630,-867.5 630,-867.5 630,-830.5 630,-830.5 630,-824.5 636,-818.5 642,-818.5"/>
<text text-anchor="middle" x="695.5" y="-864.3" font-family="Times,serif" font-size="14.00" fill="#2f3638">step</text>
<polyline fill="none" stroke="#1c2123" points="630,-856.5 761,-856.5 "/>
<text text-anchor="start" x="638" y="-841.3" font-family="Times,serif" font-size="14.00" fill="#2f3638">处理其他节点发过</text>
<text text-anchor="start" x="638" y="-826.3" font-family="Times,serif" font-size="14.00" fill="#2f3638"> 来的raft消息</text>
</g>
<!-- advance_apply_to -->
<g id="node4" class="node">
<title>advance_apply_to</title>
<path fill="none" stroke="#1c2123" d="M741,-800C741,-800 650,-800 650,-800 644,-800 638,-794 638,-788 638,-788 638,-776 638,-776 638,-770 644,-764 650,-764 650,-764 741,-764 741,-764 747,-764 753,-770 753,-776 753,-776 753,-788 753,-788 753,-794 747,-800 741,-800"/>
<text text-anchor="middle" x="695.5" y="-778.3" font-family="Times,serif" font-size="14.00" fill="#2f3638">advance_apply_to</text>
</g>
<!-- Peer_step -->
<g id="node5" class="node">
<title>Peer_step</title>
<path fill="none" stroke="#1c2123" d="M504,-604C504,-604 534,-604 534,-604 540,-604 546,-610 546,-616 546,-616 546,-628 546,-628 546,-634 540,-640 534,-640 534,-640 504,-640 504,-640 498,-640 492,-634 492,-628 492,-628 492,-616 492,-616 492,-610 498,-604 504,-604"/>
<text text-anchor="middle" x="519" y="-618.3" font-family="Times,serif" font-size="14.00" fill="#2f3638">step</text>
</g>
<!-- Peer_step&#45;&gt;RawNode_step -->
<g id="edge1" class="edge">
<title>Peer_step&#45;&gt;RawNode_step</title>
<path fill="none" stroke="#666666" d="M524.82,-640.05C535.58,-677.23 564.9,-763.13 618,-814 619.12,-815.07 620.28,-816.12 621.47,-817.13"/>
<polygon fill="#666666" stroke="#666666" points="619.7,-820.18 629.78,-823.44 623.93,-814.61 619.7,-820.18"/>
</g>
<!-- Peer_propose -->
<g id="node6" class="node">
<title>Peer_propose</title>
<path fill="none" stroke="#1c2123" d="M1221,-537C1221,-537 1256,-537 1256,-537 1262,-537 1268,-543 1268,-549 1268,-549 1268,-561 1268,-561 1268,-567 1262,-573 1256,-573 1256,-573 1221,-573 1221,-573 1215,-573 1209,-567 1209,-561 1209,-561 1209,-549 1209,-549 1209,-543 1215,-537 1221,-537"/>
<text text-anchor="middle" x="1238.5" y="-551.3" font-family="Times,serif" font-size="14.00" fill="#2f3638">propose</text>
</g>
<!-- read_index -->
<g id="node8" class="node">
<title>read_index</title>
<path fill="none" stroke="#1c2123" d="M1404,-600C1404,-600 1351,-600 1351,-600 1345,-600 1339,-594 1339,-588 1339,-588 1339,-576 1339,-576 1339,-570 1345,-564 1351,-564 1351,-564 1404,-564 1404,-564 1410,-564 1416,-570 1416,-576 1416,-576 1416,-588 1416,-588 1416,-594 1410,-600 1404,-600"/>
<text text-anchor="middle" x="1377.5" y="-578.3" font-family="Times,serif" font-size="14.00" fill="#2f3638">read_index</text>
</g>
<!-- Peer_propose&#45;&gt;read_index -->
<g id="edge2" class="edge">
<title>Peer_propose&#45;&gt;read_index</title>
<path fill="none" stroke="#666666" d="M1268.22,-560.66C1285.81,-564.13 1308.74,-568.65 1328.98,-572.63"/>
<polygon fill="#666666" stroke="#666666" points="1328.48,-576.1 1338.97,-574.6 1329.83,-569.24 1328.48,-576.1"/>
</g>
<!-- propose_normal -->
<g id="node9" class="node">
<title>propose_normal</title>
<path fill="none" stroke="#1c2123" d="M1418,-654C1418,-654 1337,-654 1337,-654 1331,-654 1325,-648 1325,-642 1325,-642 1325,-630 1325,-630 1325,-624 1331,-618 1337,-618 1337,-618 1418,-618 1418,-618 1424,-618 1430,-624 1430,-630 1430,-630 1430,-642 1430,-642 1430,-648 1424,-654 1418,-654"/>
<text text-anchor="middle" x="1377.5" y="-632.3" font-family="Times,serif" font-size="14.00" fill="#2f3638">propose_normal</text>
</g>
<!-- Peer_propose&#45;&gt;propose_normal -->
<g id="edge3" class="edge">
<title>Peer_propose&#45;&gt;propose_normal</title>
<path fill="none" stroke="#666666" d="M1257.68,-573.14C1269.95,-584.61 1286.96,-599.09 1304,-609 1307.66,-611.13 1311.51,-613.14 1315.46,-615.03"/>
<polygon fill="#666666" stroke="#666666" points="1314.24,-618.32 1324.8,-619.23 1317.11,-611.94 1314.24,-618.32"/>
</g>
<!-- propose_transfer_leader -->
<g id="node10" class="node">
<title>propose_transfer_leader</title>
<path fill="none" stroke="#1c2123" d="M1439,-546C1439,-546 1316,-546 1316,-546 1310,-546 1304,-540 1304,-534 1304,-534 1304,-522 1304,-522 1304,-516 1310,-510 1316,-510 1316,-510 1439,-510 1439,-510 1445,-510 1451,-516 1451,-522 1451,-522 1451,-534 1451,-534 1451,-540 1445,-546 1439,-546"/>
<text text-anchor="middle" x="1377.5" y="-524.3" font-family="Times,serif" font-size="14.00" fill="#2f3638">propose_transfer_leader</text>
</g>
<!-- Peer_propose&#45;&gt;propose_transfer_leader -->
<g id="edge4" class="edge">
<title>Peer_propose&#45;&gt;propose_transfer_leader</title>
<path fill="none" stroke="#666666" d="M1268.22,-549.34C1275.94,-547.82 1284.69,-546.09 1293.8,-544.3"/>
<polygon fill="#666666" stroke="#666666" points="1294.65,-547.7 1303.78,-542.33 1293.29,-540.83 1294.65,-547.7"/>
</g>
<!-- Peer_post_apply -->
<g id="node7" class="node">
<title>Peer_post_apply</title>
<path fill="none" stroke="#1c2123" d="M493,-536C493,-536 545,-536 545,-536 551,-536 557,-542 557,-548 557,-548 557,-560 557,-560 557,-566 551,-572 545,-572 545,-572 493,-572 493,-572 487,-572 481,-566 481,-560 481,-560 481,-548 481,-548 481,-542 487,-536 493,-536"/>
<text text-anchor="middle" x="519" y="-550.3" font-family="Times,serif" font-size="14.00" fill="#2f3638">post_apply</text>
</g>
<!-- Peer_post_apply&#45;&gt;advance_apply_to -->
<g id="edge6" class="edge">
<title>Peer_post_apply&#45;&gt;advance_apply_to</title>
<path fill="none" stroke="#666666" d="M557.09,-571.9C566.46,-578.04 575.65,-585.74 582,-595 624.42,-656.92 566.68,-705.22 618,-760 621.17,-763.38 624.82,-766.25 628.77,-768.69"/>
<polygon fill="#666666" stroke="#666666" points="627.34,-771.9 637.84,-773.37 630.55,-765.68 627.34,-771.9"/>
</g>
<!-- propose_normal&#45;&gt;RawNode_propose -->
<g id="edge5" class="edge">
<title>propose_normal&#45;&gt;RawNode_propose</title>
<path fill="none" stroke="#666666" d="M1405.89,-654.2C1427.08,-668.27 1456.6,-687.87 1479.66,-703.19"/>
<polygon fill="#666666" stroke="#666666" points="1477.89,-706.22 1488.15,-708.84 1481.76,-700.39 1477.89,-706.22"/>
</g>
<!-- propose_batch_raft_command -->
<g id="node11" class="node">
<title>propose_batch_raft_command</title>
<path fill="none" stroke="#1c2123" d="M979,-170C979,-170 821,-170 821,-170 815,-170 809,-164 809,-158 809,-158 809,-146 809,-146 809,-140 815,-134 821,-134 821,-134 979,-134 979,-134 985,-134 991,-140 991,-146 991,-146 991,-158 991,-158 991,-164 985,-170 979,-170"/>
<text text-anchor="middle" x="900" y="-148.3" font-family="Times,serif" font-size="14.00" fill="#2f3638">propose_batch_raft_command</text>
</g>
<!-- propose_raft_command -->
<g id="node12" class="node">
<title>propose_raft_command</title>
<path fill="none" stroke="#1c2123" d="M1161,-207C1161,-207 1039,-207 1039,-207 1033,-207 1027,-201 1027,-195 1027,-195 1027,-183 1027,-183 1027,-177 1033,-171 1039,-171 1039,-171 1161,-171 1161,-171 1167,-171 1173,-177 1173,-183 1173,-183 1173,-195 1173,-195 1173,-201 1167,-207 1161,-207"/>
<text text-anchor="middle" x="1100" y="-185.3" font-family="Times,serif" font-size="14.00" fill="#2f3638">propose_raft_command</text>
</g>
<!-- propose_batch_raft_command&#45;&gt;propose_raft_command -->
<g id="edge7" class="edge">
<title>propose_batch_raft_command&#45;&gt;propose_raft_command</title>
<path fill="none" stroke="#666666" d="M991.02,-168.82C999.68,-170.44 1008.44,-172.08 1017.02,-173.68"/>
<polygon fill="#666666" stroke="#666666" points="1016.53,-177.15 1027,-175.55 1017.81,-170.27 1016.53,-177.15"/>
</g>
<!-- propose_raft_command&#45;&gt;Peer_propose -->
<g id="edge8" class="edge">
<title>propose_raft_command&#45;&gt;Peer_propose</title>
<path fill="none" stroke="#666666" d="M1107.77,-207.15C1129.92,-266.54 1200.34,-455.37 1227.07,-527.05"/>
<polygon fill="#666666" stroke="#666666" points="1223.92,-528.59 1230.69,-536.74 1230.47,-526.15 1223.92,-528.59"/>
</g>
<!-- PeerFsmDelegate_handle_msgs -->
<g id="node13" class="node">
<title>PeerFsmDelegate_handle_msgs</title>
<path fill="none" stroke="#1c2123" d="M28,-136C28,-136 186,-136 186,-136 192,-136 198,-142 198,-148 198,-148 198,-230 198,-230 198,-236 192,-242 186,-242 186,-242 28,-242 28,-242 22,-242 16,-236 16,-230 16,-230 16,-148 16,-148 16,-142 22,-136 28,-136"/>
<text text-anchor="middle" x="107" y="-226.8" font-family="Times,serif" font-size="14.00" fill="#2f3638">handle_msgs</text>
<polyline fill="none" stroke="#1c2123" points="16,-219 198,-219 "/>
<text text-anchor="start" x="24" y="-203.8" font-family="Times,serif" font-size="14.00" fill="#2f3638">处理PeerMsg::RaftCommand</text>
<text text-anchor="start" x="24" y="-188.8" font-family="Times,serif" font-size="14.00" fill="#2f3638"> PeerMsg::ApplyRes</text>
<text text-anchor="start" x="24" y="-173.8" font-family="Times,serif" font-size="14.00" fill="#2f3638"> PeerMsg::SingificantMsg</text>
<text text-anchor="start" x="24" y="-158.8" font-family="Times,serif" font-size="14.00" fill="#2f3638"> PeerMsg::CasualMessage</text>
<text text-anchor="start" x="24" y="-143.8" font-family="Times,serif" font-size="14.00" fill="#2f3638"> PeerMsg::Start</text>
</g>
<!-- PeerFsmDelegate_handle_msgs&#45;&gt;propose_batch_raft_command -->
<g id="edge9" class="edge">
<title>PeerFsmDelegate_handle_msgs&#45;&gt;propose_batch_raft_command</title>
<path fill="none" stroke="#666666" d="M198.35,-184.77C347.4,-177.8 643.7,-163.94 798.9,-156.68"/>
<polygon fill="#666666" stroke="#666666" points="799.09,-160.18 808.92,-156.21 798.76,-153.19 799.09,-160.18"/>
</g>
<!-- PeerFsmDelegate_handle_msgs&#45;&gt;propose_raft_command -->
<g id="edge10" class="edge">
<title>PeerFsmDelegate_handle_msgs&#45;&gt;propose_raft_command</title>
<path fill="none" stroke="#666666" d="M198.38,-189C281.46,-189 408.03,-189 518,-189 518,-189 518,-189 696.5,-189 807.24,-189 935.11,-189 1016.47,-189"/>
<polygon fill="#666666" stroke="#666666" points="1016.65,-192.5 1026.65,-189 1016.65,-185.5 1016.65,-192.5"/>
</g>
<!-- on_casual_msg -->
<g id="node14" class="node">
<title>on_casual_msg</title>
<path fill="none" stroke="#1c2123" d="M246,-17C246,-17 408,-17 408,-17 414,-17 420,-23 420,-29 420,-29 420,-51 420,-51 420,-57 414,-63 408,-63 408,-63 246,-63 246,-63 240,-63 234,-57 234,-51 234,-51 234,-29 234,-29 234,-23 240,-17 246,-17"/>
<text text-anchor="middle" x="327" y="-47.8" font-family="Times,serif" font-size="14.00" fill="#2f3638">on_casual_msg</text>
<polyline fill="none" stroke="#1c2123" points="234,-40 420,-40 "/>
<text text-anchor="start" x="242" y="-24.8" font-family="Times,serif" font-size="14.00" fill="#2f3638">处理PeerMsg::CasualMessage</text>
</g>
<!-- PeerFsmDelegate_handle_msgs&#45;&gt;on_casual_msg -->
<g id="edge11" class="edge">
<title>PeerFsmDelegate_handle_msgs&#45;&gt;on_casual_msg</title>
<path fill="none" stroke="#666666" d="M160.37,-135.87C181.9,-115.97 207.89,-94.26 234,-78 240.05,-74.23 246.54,-70.69 253.17,-67.4"/>
<polygon fill="#666666" stroke="#666666" points="254.74,-70.53 262.27,-63.08 251.74,-64.21 254.74,-70.53"/>
</g>
<!-- on_significant_msg -->
<g id="node15" class="node">
<title>on_significant_msg</title>
<path fill="none" stroke="#1c2123" d="M275,-209C275,-209 379,-209 379,-209 385,-209 391,-215 391,-221 391,-221 391,-243 391,-243 391,-249 385,-255 379,-255 379,-255 275,-255 275,-255 269,-255 263,-249 263,-243 263,-243 263,-221 263,-221 263,-215 269,-209 275,-209"/>
<text text-anchor="middle" x="327" y="-239.8" font-family="Times,serif" font-size="14.00" fill="#2f3638">on_significant_msg</text>
<polyline fill="none" stroke="#1c2123" points="263,-232 391,-232 "/>
<text text-anchor="start" x="271" y="-216.8" font-family="Times,serif" font-size="14.00" fill="#2f3638">处理SignificantMsg</text>
</g>
<!-- PeerFsmDelegate_handle_msgs&#45;&gt;on_significant_msg -->
<g id="edge12" class="edge">
<title>PeerFsmDelegate_handle_msgs&#45;&gt;on_significant_msg</title>
<path fill="none" stroke="#666666" d="M198.24,-206.8C216.36,-210.37 235.18,-214.09 252.64,-217.53"/>
<polygon fill="#666666" stroke="#666666" points="252.26,-221.02 262.75,-219.52 253.61,-214.15 252.26,-221.02"/>
</g>
<!-- on_apply_res -->
<g id="node16" class="node">
<title>on_apply_res</title>
<path fill="none" stroke="#1c2123" d="M261.5,-274.5C261.5,-274.5 392.5,-274.5 392.5,-274.5 398.5,-274.5 404.5,-280.5 404.5,-286.5 404.5,-286.5 404.5,-323.5 404.5,-323.5 404.5,-329.5 398.5,-335.5 392.5,-335.5 392.5,-335.5 261.5,-335.5 261.5,-335.5 255.5,-335.5 249.5,-329.5 249.5,-323.5 249.5,-323.5 249.5,-286.5 249.5,-286.5 249.5,-280.5 255.5,-274.5 261.5,-274.5"/>
<text text-anchor="middle" x="327" y="-320.3" font-family="Times,serif" font-size="14.00" fill="#2f3638">on_apply_res</text>
<polyline fill="none" stroke="#1c2123" points="249.5,-312.5 404.5,-312.5 "/>
<text text-anchor="start" x="257.5" y="-297.3" font-family="Times,serif" font-size="14.00" fill="#2f3638">处理PeerMsg::ApplyRes</text>
<text text-anchor="middle" x="327" y="-282.3" font-family="Times,serif" font-size="14.00" fill="#2f3638"> ready的处理结果</text>
</g>
<!-- PeerFsmDelegate_handle_msgs&#45;&gt;on_apply_res -->
<g id="edge13" class="edge">
<title>PeerFsmDelegate_handle_msgs&#45;&gt;on_apply_res</title>
<path fill="none" stroke="#666666" d="M194,-242C207.25,-249.64 220.89,-257.21 234,-264 237.95,-266.05 242.02,-268.09 246.16,-270.11"/>
<polygon fill="#666666" stroke="#666666" points="244.75,-273.32 255.27,-274.5 247.78,-267.01 244.75,-273.32"/>
</g>
<!-- start -->
<g id="node17" class="node">
<title>start</title>
<path fill="none" stroke="#1c2123" d="M261.5,-103C261.5,-103 392.5,-103 392.5,-103 398.5,-103 404.5,-109 404.5,-115 404.5,-115 404.5,-137 404.5,-137 404.5,-143 398.5,-149 392.5,-149 392.5,-149 261.5,-149 261.5,-149 255.5,-149 249.5,-143 249.5,-137 249.5,-137 249.5,-115 249.5,-115 249.5,-109 255.5,-103 261.5,-103"/>
<text text-anchor="middle" x="327" y="-133.8" font-family="Times,serif" font-size="14.00" fill="#2f3638">start</text>
<polyline fill="none" stroke="#1c2123" points="249.5,-126 404.5,-126 "/>
<text text-anchor="start" x="257.5" y="-110.8" font-family="Times,serif" font-size="14.00" fill="#2f3638">处理PeerMsg::Start消息</text>
</g>
<!-- PeerFsmDelegate_handle_msgs&#45;&gt;start -->
<g id="edge14" class="edge">
<title>PeerFsmDelegate_handle_msgs&#45;&gt;start</title>
<path fill="none" stroke="#666666" d="M198.24,-162.92C211.91,-158.97 225.98,-154.9 239.57,-150.98"/>
<polygon fill="#666666" stroke="#666666" points="240.72,-154.29 249.36,-148.15 238.78,-147.56 240.72,-154.29"/>
</g>
<!-- on_raft_gc_log_tick -->
<g id="node18" class="node">
<title>on_raft_gc_log_tick</title>
<path fill="none" stroke="#1c2123" d="M570,-96C570,-96 468,-96 468,-96 462,-96 456,-90 456,-84 456,-84 456,-72 456,-72 456,-66 462,-60 468,-60 468,-60 570,-60 570,-60 576,-60 582,-66 582,-72 582,-72 582,-84 582,-84 582,-90 576,-96 570,-96"/>
<text text-anchor="middle" x="519" y="-74.3" font-family="Times,serif" font-size="14.00" fill="#2f3638">on_raft_gc_log_tick</text>
</g>
<!-- PeerFsmDelegate_handle_msgs&#45;&gt;on_raft_gc_log_tick -->
<g id="edge15" class="edge">
<title>PeerFsmDelegate_handle_msgs&#45;&gt;on_raft_gc_log_tick</title>
<path fill="none" stroke="#666666" d="M162.89,-135.81C183.56,-119.03 208.31,-102.43 234,-93 271.38,-79.27 374.42,-76.89 445.53,-77"/>
<polygon fill="#666666" stroke="#666666" points="445.77,-80.51 455.78,-77.04 445.79,-73.51 445.77,-80.51"/>
</g>
<!-- on_tick -->
<g id="node19" class="node">
<title>on_tick</title>
<path fill="none" stroke="#1c2123" d="M343.5,-390C343.5,-390 310.5,-390 310.5,-390 304.5,-390 298.5,-384 298.5,-378 298.5,-378 298.5,-366 298.5,-366 298.5,-360 304.5,-354 310.5,-354 310.5,-354 343.5,-354 343.5,-354 349.5,-354 355.5,-360 355.5,-366 355.5,-366 355.5,-378 355.5,-378 355.5,-384 349.5,-390 343.5,-390"/>
<text text-anchor="middle" x="327" y="-368.3" font-family="Times,serif" font-size="14.00" fill="#2f3638">on_tick</text>
</g>
<!-- PeerFsmDelegate_handle_msgs&#45;&gt;on_tick -->
<g id="edge16" class="edge">
<title>PeerFsmDelegate_handle_msgs&#45;&gt;on_tick</title>
<path fill="none" stroke="#666666" d="M139.14,-242.37C161.52,-276.34 194.62,-318.72 234,-345 250.2,-355.81 270.82,-362.38 288.43,-366.33"/>
<polygon fill="#666666" stroke="#666666" points="287.89,-369.79 298.39,-368.36 289.29,-362.93 287.89,-369.79"/>
</g>
<!-- on_raft_message -->
<g id="node20" class="node">
<title>on_raft_message</title>
<path fill="none" stroke="#1c2123" d="M293,-409C293,-409 361,-409 361,-409 367,-409 373,-415 373,-421 373,-421 373,-443 373,-443 373,-449 367,-455 361,-455 361,-455 293,-455 293,-455 287,-455 281,-449 281,-443 281,-443 281,-421 281,-421 281,-415 287,-409 293,-409"/>
<text text-anchor="middle" x="327" y="-439.8" font-family="Times,serif" font-size="14.00" fill="#2f3638">on_raft_msg</text>
<polyline fill="none" stroke="#1c2123" points="281,-432 373,-432 "/>
<text text-anchor="start" x="289" y="-416.8" font-family="Times,serif" font-size="14.00" fill="#2f3638">处理raft消息</text>
</g>
<!-- PeerFsmDelegate_handle_msgs&#45;&gt;on_raft_message -->
<g id="edge17" class="edge">
<title>PeerFsmDelegate_handle_msgs&#45;&gt;on_raft_message</title>
<path fill="none" stroke="#666666" d="M127.77,-242.2C147.85,-289.46 183.23,-357.32 234,-399 244.76,-407.84 258.08,-414.4 271.21,-419.24"/>
<polygon fill="#666666" stroke="#666666" points="270.11,-422.56 280.7,-422.46 272.36,-415.93 270.11,-422.56"/>
</g>
<!-- on_casual_msg&#45;&gt;on_raft_gc_log_tick -->
<g id="edge20" class="edge">
<title>on_casual_msg&#45;&gt;on_raft_gc_log_tick</title>
<path fill="none" stroke="#666666" d="M420.22,-58.44C428.82,-60.16 437.46,-61.89 445.84,-63.57"/>
<polygon fill="#666666" stroke="#666666" points="445.43,-67.05 455.92,-65.58 446.8,-60.19 445.43,-67.05"/>
</g>
<!-- on_hash_computed -->
<g id="node22" class="node">
<title>on_hash_computed</title>
<path fill="none" stroke="#1c2123" d="M744.5,-63C744.5,-63 646.5,-63 646.5,-63 640.5,-63 634.5,-57 634.5,-51 634.5,-51 634.5,-39 634.5,-39 634.5,-33 640.5,-27 646.5,-27 646.5,-27 744.5,-27 744.5,-27 750.5,-27 756.5,-33 756.5,-39 756.5,-39 756.5,-51 756.5,-51 756.5,-57 750.5,-63 744.5,-63"/>
<text text-anchor="middle" x="695.5" y="-41.3" font-family="Times,serif" font-size="14.00" fill="#2f3638">on_hash_computed</text>
</g>
<!-- on_casual_msg&#45;&gt;on_hash_computed -->
<g id="edge21" class="edge">
<title>on_casual_msg&#45;&gt;on_hash_computed</title>
<path fill="none" stroke="#666666" d="M420.01,-41.26C483.32,-42.12 566.14,-43.25 624.18,-44.04"/>
<polygon fill="#666666" stroke="#666666" points="624.31,-47.54 634.36,-44.18 624.4,-40.54 624.31,-47.54"/>
</g>
<!-- on_capture_change -->
<g id="node24" class="node">
<title>on_capture_change</title>
<path fill="none" stroke="#1c2123" d="M949,-244C949,-244 851,-244 851,-244 845,-244 839,-238 839,-232 839,-232 839,-220 839,-220 839,-214 845,-208 851,-208 851,-208 949,-208 949,-208 955,-208 961,-214 961,-220 961,-220 961,-232 961,-232 961,-238 955,-244 949,-244"/>
<text text-anchor="middle" x="900" y="-222.3" font-family="Times,serif" font-size="14.00" fill="#2f3638">on_capture_change</text>
</g>
<!-- on_significant_msg&#45;&gt;on_capture_change -->
<g id="edge25" class="edge">
<title>on_significant_msg&#45;&gt;on_capture_change</title>
<path fill="none" stroke="#666666" d="M391.01,-231.34C498.45,-230.21 716.34,-227.92 828.61,-226.74"/>
<polygon fill="#666666" stroke="#666666" points="828.85,-230.24 838.81,-226.63 828.78,-223.24 828.85,-230.24"/>
</g>
<!-- on_leader_callback -->
<g id="node25" class="node">
<title>on_leader_callback</title>
<path fill="none" stroke="#1c2123" d="M949,-298C949,-298 851,-298 851,-298 845,-298 839,-292 839,-286 839,-286 839,-274 839,-274 839,-268 845,-262 851,-262 851,-262 949,-262 949,-262 955,-262 961,-268 961,-274 961,-274 961,-286 961,-286 961,-292 955,-298 949,-298"/>
<text text-anchor="middle" x="900" y="-276.3" font-family="Times,serif" font-size="14.00" fill="#2f3638">on_leader_callback</text>
</g>
<!-- on_significant_msg&#45;&gt;on_leader_callback -->
<g id="edge26" class="edge">
<title>on_significant_msg&#45;&gt;on_leader_callback</title>
<path fill="none" stroke="#666666" d="M391.01,-237.3C498.45,-246.33 716.34,-264.64 828.61,-274.08"/>
<polygon fill="#666666" stroke="#666666" points="828.55,-277.59 838.81,-274.94 829.14,-270.61 828.55,-277.59"/>
</g>
<!-- on_apply_res&#45;&gt;Peer_post_apply -->
<g id="edge33" class="edge">
<title>on_apply_res&#45;&gt;Peer_post_apply</title>
<path fill="none" stroke="#666666" d="M404.86,-331.26C410.48,-335.23 415.65,-339.79 420,-345 464.78,-398.61 420.47,-437.86 456,-498 463,-509.84 473.32,-520.59 483.54,-529.44"/>
<polygon fill="#666666" stroke="#666666" points="481.34,-532.16 491.28,-535.82 485.79,-526.76 481.34,-532.16"/>
</g>
<!-- on_ready_result -->
<g id="node26" class="node">
<title>on_ready_result</title>
<path fill="none" stroke="#1c2123" d="M559,-330C559,-330 479,-330 479,-330 473,-330 467,-324 467,-318 467,-318 467,-306 467,-306 467,-300 473,-294 479,-294 479,-294 559,-294 559,-294 565,-294 571,-300 571,-306 571,-306 571,-318 571,-318 571,-324 565,-330 559,-330"/>
<text text-anchor="middle" x="519" y="-308.3" font-family="Times,serif" font-size="14.00" fill="#2f3638">on_ready_result</text>
</g>
<!-- on_apply_res&#45;&gt;on_ready_result -->
<g id="edge30" class="edge">
<title>on_apply_res&#45;&gt;on_ready_result</title>
<path fill="none" stroke="#666666" d="M404.73,-307.83C422.05,-308.46 440.2,-309.13 456.78,-309.74"/>
<polygon fill="#666666" stroke="#666666" points="456.75,-313.25 466.88,-310.12 457.01,-306.25 456.75,-313.25"/>
</g>
<!-- start&#45;&gt;propose_raft_command -->
<g id="edge29" class="edge">
<title>start&#45;&gt;propose_raft_command</title>
<path fill="none" stroke="#666666" d="M404.56,-120.8C554.74,-111.44 882.76,-95.34 991,-125 1019.32,-132.76 1047.75,-150.08 1068.33,-164.75"/>
<polygon fill="#666666" stroke="#666666" points="1066.51,-167.76 1076.64,-170.84 1070.64,-162.11 1066.51,-167.76"/>
</g>
<!-- on_raft_gc_log_tick&#45;&gt;propose_raft_command -->
<g id="edge23" class="edge">
<title>on_raft_gc_log_tick&#45;&gt;propose_raft_command</title>
<path fill="none" stroke="#666666" d="M582.32,-77.96C692.66,-78.59 917.66,-83.25 991,-110 1022.6,-121.52 1053,-145.28 1073.45,-163.75"/>
<polygon fill="#666666" stroke="#666666" points="1071.33,-166.56 1081.05,-170.78 1076.09,-161.42 1071.33,-166.56"/>
</g>
<!-- on_raft_base_tick -->
<g id="node21" class="node">
<title>on_raft_base_tick</title>
<path fill="none" stroke="#1c2123" d="M563.5,-423C563.5,-423 474.5,-423 474.5,-423 468.5,-423 462.5,-417 462.5,-411 462.5,-411 462.5,-399 462.5,-399 462.5,-393 468.5,-387 474.5,-387 474.5,-387 563.5,-387 563.5,-387 569.5,-387 575.5,-393 575.5,-399 575.5,-399 575.5,-411 575.5,-411 575.5,-417 569.5,-423 563.5,-423"/>
<text text-anchor="middle" x="519" y="-401.3" font-family="Times,serif" font-size="14.00" fill="#2f3638">on_raft_base_tick</text>
</g>
<!-- on_tick&#45;&gt;on_raft_base_tick -->
<g id="edge18" class="edge">
<title>on_tick&#45;&gt;on_raft_base_tick</title>
<path fill="none" stroke="#666666" d="M355.63,-376.8C380.9,-381.19 419.29,-387.86 452.4,-393.61"/>
<polygon fill="#666666" stroke="#666666" points="452.03,-397.09 462.48,-395.36 453.23,-390.2 452.03,-397.09"/>
</g>
<!-- on_raft_message&#45;&gt;Peer_step -->
<g id="edge34" class="edge">
<title>on_raft_message&#45;&gt;Peer_step</title>
<path fill="none" stroke="#666666" d="M344.4,-455.17C367.16,-486.31 410.65,-542.33 456,-582 464.26,-589.22 473.93,-596.09 483.14,-602.03"/>
<polygon fill="#666666" stroke="#666666" points="481.44,-605.09 491.77,-607.42 485.15,-599.15 481.44,-605.09"/>
</g>
<!-- on_raft_base_tick&#45;&gt;RawNode_tick -->
<g id="edge19" class="edge">
<title>on_raft_base_tick&#45;&gt;RawNode_tick</title>
<path fill="none" stroke="#666666" d="M535.57,-423.27C549.94,-441.14 570.7,-469.71 582,-498 616.65,-584.72 555.62,-635.51 618,-705 628.18,-716.34 643.77,-721.99 658.24,-724.75"/>
<polygon fill="#666666" stroke="#666666" points="658.07,-728.27 668.48,-726.29 659.11,-721.34 658.07,-728.27"/>
</g>
<!-- on_hash_computed&#45;&gt;propose_raft_command -->
<g id="edge22" class="edge">
<title>on_hash_computed&#45;&gt;propose_raft_command</title>
<path fill="none" stroke="#666666" d="M756.67,-41.52C818.55,-40.39 916.17,-45.59 991,-82 1028.95,-100.47 1061.64,-137.62 1080.82,-162.9"/>
<polygon fill="#666666" stroke="#666666" points="1078.03,-165.02 1086.8,-170.98 1083.66,-160.86 1078.03,-165.02"/>
</g>
<!-- on_check_merge -->
<g id="node23" class="node">
<title>on_check_merge</title>
<path fill="none" stroke="#1c2123" d="M943,-352C943,-352 857,-352 857,-352 851,-352 845,-346 845,-340 845,-340 845,-328 845,-328 845,-322 851,-316 857,-316 857,-316 943,-316 943,-316 949,-316 955,-322 955,-328 955,-328 955,-340 955,-340 955,-346 949,-352 943,-352"/>
<text text-anchor="middle" x="900" y="-330.3" font-family="Times,serif" font-size="14.00" fill="#2f3638">on_check_merge</text>
</g>
<!-- on_check_merge&#45;&gt;propose_raft_command -->
<g id="edge24" class="edge">
<title>on_check_merge&#45;&gt;propose_raft_command</title>
<path fill="none" stroke="#666666" d="M955.4,-322.8C967.66,-318.91 980.22,-313.76 991,-307 1028.83,-283.26 1061.75,-242.78 1081,-215.96"/>
<polygon fill="#666666" stroke="#666666" points="1084.11,-217.63 1086.99,-207.43 1078.38,-213.6 1084.11,-217.63"/>
</g>
<!-- on_capture_change&#45;&gt;propose_raft_command -->
<g id="edge27" class="edge">
<title>on_capture_change&#45;&gt;propose_raft_command</title>
<path fill="none" stroke="#666666" d="M961.21,-214.75C978.77,-211.47 998.25,-207.83 1016.91,-204.34"/>
<polygon fill="#666666" stroke="#666666" points="1017.69,-207.76 1026.87,-202.48 1016.4,-200.87 1017.69,-207.76"/>
</g>
<!-- on_leader_callback&#45;&gt;propose_raft_command -->
<g id="edge28" class="edge">
<title>on_leader_callback&#45;&gt;propose_raft_command</title>
<path fill="none" stroke="#666666" d="M961.28,-264.14C971.36,-260.86 981.59,-257.13 991,-253 1016.5,-241.82 1043.44,-225.86 1064.04,-212.68"/>
<polygon fill="#666666" stroke="#666666" points="1065.97,-215.6 1072.46,-207.22 1062.16,-209.72 1065.97,-215.6"/>
</g>
<!-- on_ready_prepare_merge -->
<g id="node27" class="node">
<title>on_ready_prepare_merge</title>
<path fill="none" stroke="#1c2123" d="M761,-344C761,-344 630,-344 630,-344 624,-344 618,-338 618,-332 618,-332 618,-320 618,-320 618,-314 624,-308 630,-308 630,-308 761,-308 761,-308 767,-308 773,-314 773,-320 773,-320 773,-332 773,-332 773,-338 767,-344 761,-344"/>
<text text-anchor="middle" x="695.5" y="-322.3" font-family="Times,serif" font-size="14.00" fill="#2f3638">on_ready_prepare_merge</text>
</g>
<!-- on_ready_result&#45;&gt;on_ready_prepare_merge -->
<g id="edge31" class="edge">
<title>on_ready_result&#45;&gt;on_ready_prepare_merge</title>
<path fill="none" stroke="#666666" d="M571.41,-316.12C582.91,-317.05 595.42,-318.05 607.91,-319.05"/>
<polygon fill="#666666" stroke="#666666" points="607.66,-322.54 617.91,-319.85 608.22,-315.57 607.66,-322.54"/>
</g>
<!-- on_ready_prepare_merge&#45;&gt;on_check_merge -->
<g id="edge32" class="edge">
<title>on_ready_prepare_merge&#45;&gt;on_check_merge</title>
<path fill="none" stroke="#666666" d="M773.06,-329.02C793.37,-329.83 815.1,-330.69 834.69,-331.46"/>
<polygon fill="#666666" stroke="#666666" points="834.59,-334.96 844.72,-331.86 834.87,-327.96 834.59,-334.96"/>
</g>
</g>
</svg>
