<?xml version="1.0" encoding="UTF-8" standalone="no"?>
<!DOCTYPE svg PUBLIC "-//W3C//DTD SVG 1.1//EN"
 "http://www.w3.org/Graphics/SVG/1.1/DTD/svg11.dtd">
<!-- Generated by graphviz version 2.44.1 (20200629.0846)
 -->
<!-- Title: PointGetterGet Pages: 1 -->
<svg width="1459pt" height="690pt"
 viewBox="0.00 0.00 1459.00 690.00" xmlns="http://www.w3.org/2000/svg" xmlns:xlink="http://www.w3.org/1999/xlink">
<g id="graph0" class="graph" transform="scale(1 1) rotate(0) translate(4 686)">
<title>PointGetterGet</title>
<polygon fill="white" stroke="transparent" points="-4,4 -4,-686 1455,-686 1455,4 -4,4"/>
<g id="clust1" class="cluster">
<title>cluster_lock</title>
<path fill="none" stroke="slategrey" stroke-dasharray="5,2" d="M844,-114C844,-114 1431,-114 1431,-114 1437,-114 1443,-120 1443,-126 1443,-126 1443,-426 1443,-426 1443,-432 1437,-438 1431,-438 1431,-438 844,-438 844,-438 838,-438 832,-432 832,-426 832,-426 832,-126 832,-126 832,-120 838,-114 844,-114"/>
<text text-anchor="middle" x="1137.5" y="-418" font-family="Times,serif" font-size="20.00">lock</text>
</g>
<g id="clust2" class="cluster">
<title>cluster_cursor</title>
<path fill="none" stroke="slategrey" stroke-dasharray="5,2" d="M608,-262C608,-262 671,-262 671,-262 677,-262 683,-268 683,-274 683,-274 683,-332 683,-332 683,-338 677,-344 671,-344 671,-344 608,-344 608,-344 602,-344 596,-338 596,-332 596,-332 596,-274 596,-274 596,-268 602,-262 608,-262"/>
<text text-anchor="middle" x="639.5" y="-324" font-family="Times,serif" font-size="20.00">cursor</text>
</g>
<g id="clust3" class="cluster">
<title>cluster_PointGetter</title>
<path fill="none" stroke="slategrey" stroke-dasharray="5,2" d="M20,-446C20,-446 1244,-446 1244,-446 1250,-446 1256,-452 1256,-458 1256,-458 1256,-662 1256,-662 1256,-668 1250,-674 1244,-674 1244,-674 20,-674 20,-674 14,-674 8,-668 8,-662 8,-662 8,-458 8,-458 8,-452 14,-446 20,-446"/>
<text text-anchor="middle" x="632" y="-654" font-family="Times,serif" font-size="20.00">PointGetter</text>
</g>
<!-- Lock -->
<g id="node1" class="node">
<title>Lock</title>
<path fill="#79d8ce" stroke="#60b5ac" d="M1049,-123C1049,-123 1238,-123 1238,-123 1244,-123 1250,-129 1250,-135 1250,-135 1250,-387 1250,-387 1250,-393 1244,-399 1238,-399 1238,-399 1049,-399 1049,-399 1043,-399 1037,-393 1037,-387 1037,-387 1037,-135 1037,-135 1037,-129 1043,-123 1049,-123"/>
<text text-anchor="middle" x="1143.5" y="-383.8" font-family="Times,serif" font-size="14.00" fill="#5d6179">Lock</text>
<polyline fill="none" stroke="#60b5ac" points="1037,-376 1250,-376 "/>
<text text-anchor="start" x="1045" y="-360.8" font-family="Times,serif" font-size="14.00" fill="#5d6179">pub lock_struct: LockType,</text>
<polyline fill="none" stroke="#60b5ac" points="1037,-353 1250,-353 "/>
<text text-anchor="start" x="1045" y="-337.8" font-family="Times,serif" font-size="14.00" fill="#5d6179">pub primary: Vec&lt;u8&gt;,</text>
<polyline fill="none" stroke="#60b5ac" points="1037,-330 1250,-330 "/>
<text text-anchor="start" x="1045" y="-314.8" font-family="Times,serif" font-size="14.00" fill="#5d6179">pub ts: TimeStamp,</text>
<polyline fill="none" stroke="#60b5ac" points="1037,-307 1250,-307 "/>
<text text-anchor="start" x="1045" y="-291.8" font-family="Times,serif" font-size="14.00" fill="#5d6179">pub ttl: u64,</text>
<polyline fill="none" stroke="#60b5ac" points="1037,-284 1250,-284 "/>
<text text-anchor="start" x="1045" y="-268.8" font-family="Times,serif" font-size="14.00" fill="#5d6179">pub short_value: Option&lt;Value&gt;,</text>
<polyline fill="none" stroke="#60b5ac" points="1037,-261 1250,-261 "/>
<text text-anchor="start" x="1045" y="-245.8" font-family="Times,serif" font-size="14.00" fill="#5d6179">pub for_update_ts: TimeStamp,</text>
<polyline fill="none" stroke="#60b5ac" points="1037,-238 1250,-238 "/>
<text text-anchor="start" x="1045" y="-222.8" font-family="Times,serif" font-size="14.00" fill="#5d6179">pub txn_size: u64,</text>
<polyline fill="none" stroke="#60b5ac" points="1037,-215 1250,-215 "/>
<text text-anchor="start" x="1045" y="-199.8" font-family="Times,serif" font-size="14.00" fill="#5d6179">pub min_commit_ts: TimeStamp,</text>
<polyline fill="none" stroke="#60b5ac" points="1037,-192 1250,-192 "/>
<text text-anchor="start" x="1045" y="-176.8" font-family="Times,serif" font-size="14.00" fill="#5d6179">pub use_async_commit: bool,</text>
<polyline fill="none" stroke="#60b5ac" points="1037,-169 1250,-169 "/>
<text text-anchor="start" x="1045" y="-153.8" font-family="Times,serif" font-size="14.00" fill="#5d6179">pub secondaries: Vec&lt;Vec&lt;u8&gt;&gt;,</text>
<polyline fill="none" stroke="#60b5ac" points="1037,-146 1250,-146 "/>
<text text-anchor="start" x="1045" y="-130.8" font-family="Times,serif" font-size="14.00" fill="#5d6179">pub rollback_ts: Vec&lt;TimeStamp&gt;,</text>
</g>
<!-- check_ts_conflict -->
<g id="node3" class="node">
<title>check_ts_conflict</title>
<path fill="none" stroke="#1c2123" d="M1298,-295C1298,-295 1423,-295 1423,-295 1429,-295 1435,-301 1435,-307 1435,-307 1435,-329 1435,-329 1435,-335 1429,-341 1423,-341 1423,-341 1298,-341 1298,-341 1292,-341 1286,-335 1286,-329 1286,-329 1286,-307 1286,-307 1286,-301 1292,-295 1298,-295"/>
<text text-anchor="middle" x="1360.5" y="-325.8" font-family="Times,serif" font-size="14.00" fill="#2f3638">check_ts_conflict</text>
<polyline fill="none" stroke="#1c2123" points="1286,-318 1435,-318 "/>
<text text-anchor="middle" x="1360.5" y="-302.8" font-family="Times,serif" font-size="14.00" fill="#2f3638">检查lock是否和ts冲突</text>
</g>
<!-- Lock&#45;&gt;check_ts_conflict -->
<g id="edge12" class="edge">
<title>Lock&#45;&gt;check_ts_conflict</title>
<path fill="none" stroke="green" stroke-dasharray="5,2" d="M1250.11,-289C1258.81,-291.31 1267.53,-293.62 1276.04,-295.87"/>
<polygon fill="green" stroke="green" points="1275.35,-299.31 1285.91,-298.49 1277.14,-292.54 1275.35,-299.31"/>
</g>
<!-- parse -->
<g id="node2" class="node">
<title>parse</title>
<path fill="none" stroke="#1c2123" d="M852,-338.5C852,-338.5 938,-338.5 938,-338.5 944,-338.5 950,-344.5 950,-350.5 950,-350.5 950,-387.5 950,-387.5 950,-393.5 944,-399.5 938,-399.5 938,-399.5 852,-399.5 852,-399.5 846,-399.5 840,-393.5 840,-387.5 840,-387.5 840,-350.5 840,-350.5 840,-344.5 846,-338.5 852,-338.5"/>
<text text-anchor="middle" x="895" y="-384.3" font-family="Times,serif" font-size="14.00" fill="#2f3638">parse</text>
<polyline fill="none" stroke="#1c2123" points="840,-376.5 950,-376.5 "/>
<text text-anchor="start" x="848" y="-361.3" font-family="Times,serif" font-size="14.00" fill="#2f3638">从[u8]中解析出</text>
<text text-anchor="start" x="848" y="-346.3" font-family="Times,serif" font-size="14.00" fill="#2f3638"> lock结构体</text>
</g>
<!-- parse&#45;&gt;Lock -->
<g id="edge1" class="edge">
<title>parse&#45;&gt;Lock</title>
<path fill="none" stroke="green" stroke-dasharray="5,2" d="M950.1,-345.3C972.91,-335.3 1000.41,-323.25 1027.38,-311.44"/>
<polygon fill="green" stroke="green" points="1029.14,-314.49 1036.89,-307.27 1026.33,-308.08 1029.14,-314.49"/>
</g>
<!-- near_seek -->
<g id="node4" class="node">
<title>near_seek</title>
<path fill="none" stroke="#1c2123" d="M663,-306C663,-306 616,-306 616,-306 610,-306 604,-300 604,-294 604,-294 604,-282 604,-282 604,-276 610,-270 616,-270 616,-270 663,-270 663,-270 669,-270 675,-276 675,-282 675,-282 675,-294 675,-294 675,-300 669,-306 663,-306"/>
<text text-anchor="middle" x="639.5" y="-284.3" font-family="Times,serif" font-size="14.00" fill="#2f3638">near_seek</text>
</g>
<!-- get -->
<g id="node5" class="node">
<title>get</title>
<path fill="none" stroke="#1c2123" d="M58,-554C58,-554 28,-554 28,-554 22,-554 16,-548 16,-542 16,-542 16,-530 16,-530 16,-524 22,-518 28,-518 28,-518 58,-518 58,-518 64,-518 70,-524 70,-530 70,-530 70,-542 70,-542 70,-548 64,-554 58,-554"/>
<text text-anchor="middle" x="43" y="-532.3" font-family="Times,serif" font-size="14.00" fill="#2f3638">get</text>
</g>
<!-- multi -->
<g id="node6" class="node">
<title>multi</title>
<path fill="none" stroke="#1c2123" d="M215,-490C215,-490 185,-490 185,-490 179,-490 173,-484 173,-478 173,-478 173,-466 173,-466 173,-460 179,-454 185,-454 185,-454 215,-454 215,-454 221,-454 227,-460 227,-466 227,-466 227,-478 227,-478 227,-484 221,-490 215,-490"/>
<text text-anchor="middle" x="200" y="-468.3" font-family="Times,serif" font-size="14.00" fill="#2f3638">multi</text>
</g>
<!-- get&#45;&gt;multi -->
<g id="edge2" class="edge">
<title>get&#45;&gt;multi</title>
<path fill="none" stroke="#666666" d="M70.14,-521.44C81.06,-515.64 93.97,-509.14 106,-504 124.51,-496.09 145.69,-488.68 163.15,-482.99"/>
<polygon fill="#666666" stroke="#666666" points="164.51,-486.23 172.96,-479.84 162.37,-479.56 164.51,-486.23"/>
</g>
<!-- isolation_level -->
<g id="node7" class="node">
<title>isolation_level</title>
<path fill="#feed9b" stroke="#f7e495" d="M118,-528.5C118,-528.5 282,-528.5 282,-528.5 288,-528.5 294,-534.5 294,-540.5 294,-540.5 294,-585.5 294,-585.5 294,-591.5 288,-597.5 282,-597.5 282,-597.5 118,-597.5 118,-597.5 112,-597.5 106,-591.5 106,-585.5 106,-585.5 106,-540.5 106,-540.5 106,-534.5 112,-528.5 118,-528.5"/>
<text text-anchor="middle" x="200" y="-582.3" font-family="Times,serif" font-size="14.00" fill="#40575d">isolation_level</text>
<polyline fill="none" stroke="#f7e495" points="106,-574.5 294,-574.5 "/>
<text text-anchor="start" x="114" y="-559.3" font-family="Times,serif" font-size="14.00" fill="#40575d">Si级别要load_and_check_lock</text>
<polyline fill="none" stroke="#f7e495" points="106,-551.5 294,-551.5 "/>
<text text-anchor="start" x="114" y="-536.3" font-family="Times,serif" font-size="14.00" fill="#40575d">Rc级别直接load_data</text>
</g>
<!-- get&#45;&gt;isolation_level -->
<g id="edge3" class="edge">
<title>get&#45;&gt;isolation_level</title>
<path fill="none" stroke="#666666" d="M70.29,-540.58C77.86,-541.9 86.6,-543.42 95.9,-545.04"/>
<polygon fill="#666666" stroke="#666666" points="95.31,-548.49 105.76,-546.76 96.51,-541.59 95.31,-548.49"/>
</g>
<!-- load_and_check_lock -->
<g id="node8" class="node">
<title>load_and_check_lock</title>
<path fill="none" stroke="#1c2123" d="M342,-508.5C342,-508.5 478,-508.5 478,-508.5 484,-508.5 490,-514.5 490,-520.5 490,-520.5 490,-557.5 490,-557.5 490,-563.5 484,-569.5 478,-569.5 478,-569.5 342,-569.5 342,-569.5 336,-569.5 330,-563.5 330,-557.5 330,-557.5 330,-520.5 330,-520.5 330,-514.5 336,-508.5 342,-508.5"/>
<text text-anchor="middle" x="410" y="-554.3" font-family="Times,serif" font-size="14.00" fill="#2f3638">load_and_check_lock</text>
<polyline fill="none" stroke="#1c2123" points="330,-546.5 490,-546.5 "/>
<text text-anchor="start" x="338" y="-531.3" font-family="Times,serif" font-size="14.00" fill="#2f3638">check for locks that singal</text>
<text text-anchor="start" x="338" y="-516.3" font-family="Times,serif" font-size="14.00" fill="#2f3638"> concurrent writes in Si</text>
</g>
<!-- get&#45;&gt;load_and_check_lock -->
<g id="edge4" class="edge">
<title>get&#45;&gt;load_and_check_lock</title>
<path fill="none" stroke="#666666" d="M53.76,-554.22C64.13,-571.45 82.31,-596.24 106,-607 182.07,-641.56 213.41,-629.05 294,-607 317.58,-600.55 341.24,-587.88 360.91,-575.21"/>
<polygon fill="#666666" stroke="#666666" points="362.97,-578.05 369.37,-569.61 359.1,-572.21 362.97,-578.05"/>
</g>
<!-- load_data -->
<g id="node9" class="node">
<title>load_data</title>
<path fill="none" stroke="#1c2123" d="M432.5,-490C432.5,-490 387.5,-490 387.5,-490 381.5,-490 375.5,-484 375.5,-478 375.5,-478 375.5,-466 375.5,-466 375.5,-460 381.5,-454 387.5,-454 387.5,-454 432.5,-454 432.5,-454 438.5,-454 444.5,-460 444.5,-466 444.5,-466 444.5,-478 444.5,-478 444.5,-484 438.5,-490 432.5,-490"/>
<text text-anchor="middle" x="410" y="-468.3" font-family="Times,serif" font-size="14.00" fill="#2f3638">load_data</text>
</g>
<!-- get&#45;&gt;load_data -->
<g id="edge5" class="edge">
<title>get&#45;&gt;load_data</title>
<path fill="none" stroke="#666666" d="M70.03,-527.86C81.03,-524.68 94.05,-521.26 106,-519 188.57,-503.39 211.16,-513.07 294,-499 317.74,-494.97 343.89,-488.95 365.25,-483.63"/>
<polygon fill="#666666" stroke="#666666" points="366.17,-487 375.01,-481.16 364.46,-480.22 366.17,-487"/>
</g>
<!-- isolation_level&#45;&gt;load_and_check_lock -->
<g id="edge20" class="edge">
<title>isolation_level&#45;&gt;load_and_check_lock</title>
<path fill="none" stroke="green" stroke-dasharray="5,2" d="M294.05,-552.26C302.51,-551.29 311.06,-550.3 319.49,-549.33"/>
<polygon fill="green" stroke="green" points="320.16,-552.77 329.69,-548.15 319.36,-545.82 320.16,-552.77"/>
</g>
<!-- isolation_level&#45;&gt;load_data -->
<g id="edge21" class="edge">
<title>isolation_level&#45;&gt;load_data</title>
<path fill="none" stroke="green" stroke-dasharray="5,2" d="M266.52,-528.42C286.63,-518.37 309,-507.75 330,-499 341.39,-494.25 353.95,-489.67 365.63,-485.68"/>
<polygon fill="green" stroke="green" points="366.83,-488.97 375.19,-482.47 364.6,-482.33 366.83,-488.97"/>
</g>
<!-- load_and_check_lock&#45;&gt;parse -->
<g id="edge8" class="edge">
<title>load_and_check_lock&#45;&gt;parse</title>
<path fill="none" stroke="#666666" d="M490.18,-523.42C560.65,-508.22 665.78,-482.25 753,-447 781.65,-435.42 811.84,-419.31 836.89,-404.73"/>
<polygon fill="#666666" stroke="#666666" points="838.68,-407.74 845.53,-399.65 835.13,-401.71 838.68,-407.74"/>
</g>
<!-- load_and_check_lock&#45;&gt;check_ts_conflict -->
<g id="edge9" class="edge">
<title>load_and_check_lock&#45;&gt;check_ts_conflict</title>
<path fill="none" stroke="#666666" d="M480.41,-508.46C483.89,-505.56 487.13,-502.41 490,-499 525.06,-457.4 484.76,-417.48 526,-382 603.33,-315.47 659.81,-389.5 753,-348 827.7,-314.74 960.03,-141.62 1037,-114 1128.61,-81.12 1173.05,-63.07 1256,-114 1317.04,-151.48 1343.44,-237.41 1353.72,-284.91"/>
<polygon fill="#666666" stroke="#666666" points="1350.35,-285.9 1355.78,-294.99 1357.21,-284.49 1350.35,-285.9"/>
</g>
<!-- get_cf -->
<g id="node12" class="node">
<title>get_cf</title>
<path fill="none" stroke="#1c2123" d="M538,-391C538,-391 741,-391 741,-391 747,-391 753,-397 753,-403 753,-403 753,-425 753,-425 753,-431 747,-437 741,-437 741,-437 538,-437 538,-437 532,-437 526,-431 526,-425 526,-425 526,-403 526,-403 526,-397 532,-391 538,-391"/>
<text text-anchor="middle" x="639.5" y="-421.8" font-family="Times,serif" font-size="14.00" fill="#2f3638">get_cf</text>
<polyline fill="none" stroke="#1c2123" points="526,-414 753,-414 "/>
<text text-anchor="start" x="534" y="-398.8" font-family="Times,serif" font-size="14.00" fill="#2f3638">snapshot.get_cf(CF_LOCK, user_key)</text>
</g>
<!-- load_and_check_lock&#45;&gt;get_cf -->
<g id="edge10" class="edge">
<title>load_and_check_lock&#45;&gt;get_cf</title>
<path fill="none" stroke="#666666" d="M478.25,-508.32C482.4,-505.42 486.36,-502.31 490,-499 510.09,-480.73 503.39,-463.17 525.7,-443.28"/>
<polygon fill="#666666" stroke="#666666" points="527.94,-445.97 533.62,-437.02 523.6,-440.47 527.94,-445.97"/>
</g>
<!-- load_data&#45;&gt;near_seek -->
<g id="edge13" class="edge">
<title>load_data&#45;&gt;near_seek</title>
<path fill="none" stroke="#666666" d="M424.65,-453.8C444.73,-427.92 484.37,-380.08 526,-348 547,-331.82 572.98,-317.64 594.68,-307.14"/>
<polygon fill="#666666" stroke="#666666" points="596.46,-310.17 604,-302.73 593.46,-303.84 596.46,-310.17"/>
</g>
<!-- seek_key_append_ts_self_ts -->
<g id="node13" class="node">
<title>seek_key_append_ts_self_ts</title>
<path fill="none" stroke="#1c2123" d="M712.5,-252C712.5,-252 566.5,-252 566.5,-252 560.5,-252 554.5,-246 554.5,-240 554.5,-240 554.5,-228 554.5,-228 554.5,-222 560.5,-216 566.5,-216 566.5,-216 712.5,-216 712.5,-216 718.5,-216 724.5,-222 724.5,-228 724.5,-228 724.5,-240 724.5,-240 724.5,-246 718.5,-252 712.5,-252"/>
<text text-anchor="middle" x="639.5" y="-230.3" font-family="Times,serif" font-size="14.00" fill="#2f3638">seek_key_append_ts_self_ts</text>
</g>
<!-- load_data&#45;&gt;seek_key_append_ts_self_ts -->
<g id="edge14" class="edge">
<title>load_data&#45;&gt;seek_key_append_ts_self_ts</title>
<path fill="none" stroke="#666666" d="M415.18,-453.97C425.81,-412.31 458.03,-309.02 526,-258 531.82,-253.63 538.26,-250.02 545.03,-247.04"/>
<polygon fill="#666666" stroke="#666666" points="546.4,-250.26 554.44,-243.35 543.85,-243.74 546.4,-250.26"/>
</g>
<!-- check_gc_fence_as_latest_version -->
<g id="node14" class="node">
<title>check_gc_fence_as_latest_version</title>
<path fill="none" stroke="#1c2123" d="M729,-198C729,-198 550,-198 550,-198 544,-198 538,-192 538,-186 538,-186 538,-174 538,-174 538,-168 544,-162 550,-162 550,-162 729,-162 729,-162 735,-162 741,-168 741,-174 741,-174 741,-186 741,-186 741,-192 735,-198 729,-198"/>
<text text-anchor="middle" x="639.5" y="-176.3" font-family="Times,serif" font-size="14.00" fill="#2f3638">check_gc_fence_as_latest_version</text>
</g>
<!-- load_data&#45;&gt;check_gc_fence_as_latest_version -->
<g id="edge15" class="edge">
<title>load_data&#45;&gt;check_gc_fence_as_latest_version</title>
<path fill="none" stroke="#666666" d="M413.29,-453.93C420.37,-405.82 446.49,-273.76 526,-207 527.37,-205.85 528.79,-204.74 530.24,-203.68"/>
<polygon fill="#666666" stroke="#666666" points="532.41,-206.44 538.93,-198.09 528.63,-200.56 532.41,-206.44"/>
</g>
<!-- load_data_from_default_cf -->
<g id="node15" class="node">
<title>load_data_from_default_cf</title>
<path fill="none" stroke="#1c2123" d="M709.5,-144C709.5,-144 569.5,-144 569.5,-144 563.5,-144 557.5,-138 557.5,-132 557.5,-132 557.5,-120 557.5,-120 557.5,-114 563.5,-108 569.5,-108 569.5,-108 709.5,-108 709.5,-108 715.5,-108 721.5,-114 721.5,-120 721.5,-120 721.5,-132 721.5,-132 721.5,-138 715.5,-144 709.5,-144"/>
<text text-anchor="middle" x="639.5" y="-122.3" font-family="Times,serif" font-size="14.00" fill="#2f3638">load_data_from_default_cf</text>
</g>
<!-- load_data&#45;&gt;load_data_from_default_cf -->
<g id="edge16" class="edge">
<title>load_data&#45;&gt;load_data_from_default_cf</title>
<path fill="none" stroke="#666666" d="M411.81,-453.96C415.25,-399.61 433.23,-236.05 526,-153 532.52,-147.16 540.09,-142.53 548.15,-138.86"/>
<polygon fill="#666666" stroke="#666666" points="549.47,-142.1 557.43,-135.11 546.85,-135.61 549.47,-142.1"/>
</g>
<!-- WriteRef_parse -->
<g id="node16" class="node">
<title>WriteRef_parse</title>
<path fill="none" stroke="#1c2123" d="M678.5,-90C678.5,-90 600.5,-90 600.5,-90 594.5,-90 588.5,-84 588.5,-78 588.5,-78 588.5,-66 588.5,-66 588.5,-60 594.5,-54 600.5,-54 600.5,-54 678.5,-54 678.5,-54 684.5,-54 690.5,-60 690.5,-66 690.5,-66 690.5,-78 690.5,-78 690.5,-84 684.5,-90 678.5,-90"/>
<text text-anchor="middle" x="639.5" y="-68.3" font-family="Times,serif" font-size="14.00" fill="#2f3638">WriteRef_parse</text>
</g>
<!-- load_data&#45;&gt;WriteRef_parse -->
<g id="edge17" class="edge">
<title>load_data&#45;&gt;WriteRef_parse</title>
<path fill="none" stroke="#666666" d="M410.73,-453.61C410.9,-393.12 420.01,-198.47 526,-99 540.15,-85.72 559.65,-78.62 578.44,-74.92"/>
<polygon fill="#666666" stroke="#666666" points="579.19,-78.35 588.47,-73.24 578.03,-71.44 579.19,-78.35"/>
</g>
<!-- short_value -->
<g id="node17" class="node">
<title>short_value</title>
<path fill="none" stroke="#1c2123" d="M667.5,-36C667.5,-36 611.5,-36 611.5,-36 605.5,-36 599.5,-30 599.5,-24 599.5,-24 599.5,-12 599.5,-12 599.5,-6 605.5,0 611.5,0 611.5,0 667.5,0 667.5,0 673.5,0 679.5,-6 679.5,-12 679.5,-12 679.5,-24 679.5,-24 679.5,-30 673.5,-36 667.5,-36"/>
<text text-anchor="middle" x="639.5" y="-14.3" font-family="Times,serif" font-size="14.00" fill="#2f3638">short_value</text>
</g>
<!-- load_data&#45;&gt;short_value -->
<g id="edge18" class="edge">
<title>load_data&#45;&gt;short_value</title>
<path fill="none" stroke="#666666" d="M413.42,-453.81C423.57,-380.02 465.12,-104.22 526,-45 542.65,-28.8 567.23,-21.73 589.16,-18.84"/>
<polygon fill="#666666" stroke="#666666" points="589.77,-22.3 599.35,-17.76 589.03,-15.33 589.77,-22.3"/>
</g>
<!-- ts -->
<g id="node10" class="node">
<title>ts</title>
<path fill="#feed9b" stroke="#f7e495" d="M1105,-589C1105,-589 1182,-589 1182,-589 1188,-589 1194,-595 1194,-601 1194,-601 1194,-623 1194,-623 1194,-629 1188,-635 1182,-635 1182,-635 1105,-635 1105,-635 1099,-635 1093,-629 1093,-623 1093,-623 1093,-601 1093,-601 1093,-595 1099,-589 1105,-589"/>
<text text-anchor="middle" x="1143.5" y="-619.8" font-family="Times,serif" font-size="14.00" fill="#40575d">ts</text>
<polyline fill="none" stroke="#f7e495" points="1093,-612 1194,-612 "/>
<text text-anchor="middle" x="1143.5" y="-596.8" font-family="Times,serif" font-size="14.00" fill="#40575d">ts: TimeStamp,</text>
</g>
<!-- ts&#45;&gt;check_ts_conflict -->
<g id="edge6" class="edge">
<title>ts&#45;&gt;check_ts_conflict</title>
<path fill="none" stroke="green" stroke-dasharray="5,2" d="M1194.24,-607.02C1215.46,-602.62 1239.16,-594.39 1256,-579 1323.27,-517.52 1347.48,-406.64 1355.65,-351.3"/>
<polygon fill="green" stroke="green" points="1359.13,-351.71 1357.04,-341.32 1352.2,-350.75 1359.13,-351.71"/>
</g>
<!-- bypass_locks -->
<g id="node11" class="node">
<title>bypass_locks</title>
<path fill="#feed9b" stroke="#f7e495" d="M1051,-454.5C1051,-454.5 1236,-454.5 1236,-454.5 1242,-454.5 1248,-460.5 1248,-466.5 1248,-466.5 1248,-557.5 1248,-557.5 1248,-563.5 1242,-569.5 1236,-569.5 1236,-569.5 1051,-569.5 1051,-569.5 1045,-569.5 1039,-563.5 1039,-557.5 1039,-557.5 1039,-466.5 1039,-466.5 1039,-460.5 1045,-454.5 1051,-454.5"/>
<text text-anchor="middle" x="1143.5" y="-554.3" font-family="Times,serif" font-size="14.00" fill="#40575d">bypass_locks</text>
<polyline fill="none" stroke="#f7e495" points="1039,-546.5 1248,-546.5 "/>
<text text-anchor="start" x="1047" y="-531.3" font-family="Times,serif" font-size="14.00" fill="#40575d">TsSet</text>
<polyline fill="none" stroke="#f7e495" points="1039,-523.5 1248,-523.5 "/>
<text text-anchor="start" x="1047" y="-508.3" font-family="Times,serif" font-size="14.00" fill="#40575d">Empty</text>
<polyline fill="none" stroke="#f7e495" points="1039,-500.5 1248,-500.5 "/>
<text text-anchor="start" x="1047" y="-485.3" font-family="Times,serif" font-size="14.00" fill="#40575d">Vec(Arc&lt;[TimeStamp]&gt;),</text>
<polyline fill="none" stroke="#f7e495" points="1039,-477.5 1248,-477.5 "/>
<text text-anchor="start" x="1047" y="-462.3" font-family="Times,serif" font-size="14.00" fill="#40575d">Set(Arc&lt;HashSet&lt;TimeStamp&gt;&gt;),</text>
</g>
<!-- bypass_locks&#45;&gt;check_ts_conflict -->
<g id="edge7" class="edge">
<title>bypass_locks&#45;&gt;check_ts_conflict</title>
<path fill="none" stroke="green" stroke-dasharray="5,2" d="M1240.82,-454.35C1246.08,-450.34 1251.18,-446.21 1256,-442 1287.83,-414.2 1318.05,-376.17 1337.52,-349.57"/>
<polygon fill="green" stroke="green" points="1340.43,-351.52 1343.46,-341.37 1334.76,-347.42 1340.43,-351.52"/>
</g>
<!-- get_cf&#45;&gt;parse -->
<g id="edge11" class="edge">
<title>get_cf&#45;&gt;parse</title>
<path fill="none" stroke="#666666" d="M753.17,-394C779.43,-389.34 806.51,-384.53 829.82,-380.39"/>
<polygon fill="#666666" stroke="#666666" points="830.67,-383.8 839.9,-378.6 829.45,-376.9 830.67,-383.8"/>
</g>
<!-- get_cf_default -->
<g id="node18" class="node">
<title>get_cf_default</title>
<path fill="none" stroke="#1c2123" d="M801,-59C801,-59 989,-59 989,-59 995,-59 1001,-65 1001,-71 1001,-71 1001,-93 1001,-93 1001,-99 995,-105 989,-105 989,-105 801,-105 801,-105 795,-105 789,-99 789,-93 789,-93 789,-71 789,-71 789,-65 795,-59 801,-59"/>
<text text-anchor="middle" x="895" y="-89.8" font-family="Times,serif" font-size="14.00" fill="#2f3638">get_cf</text>
<polyline fill="none" stroke="#1c2123" points="789,-82 1001,-82 "/>
<text text-anchor="middle" x="895" y="-66.8" font-family="Times,serif" font-size="14.00" fill="#2f3638">snapshot.get_cf(CF_DEFAULT, ...)</text>
</g>
<!-- load_data_from_default_cf&#45;&gt;get_cf_default -->
<g id="edge19" class="edge">
<title>load_data_from_default_cf&#45;&gt;get_cf_default</title>
<path fill="none" stroke="#666666" d="M721.75,-111.9C739.88,-108.75 759.44,-105.35 778.65,-102.02"/>
<polygon fill="#666666" stroke="#666666" points="779.4,-105.44 788.65,-100.28 778.2,-98.55 779.4,-105.44"/>
</g>
</g>
</svg>
