<?xml version="1.0" encoding="UTF-8" standalone="no"?>
<!DOCTYPE svg PUBLIC "-//W3C//DTD SVG 1.1//EN"
 "http://www.w3.org/Graphics/SVG/1.1/DTD/svg11.dtd">
<!-- Generated by graphviz version 2.47.1 (20210417.1919)
 -->
<!-- Title: maximal_committed_index Pages: 1 -->
<svg width="1808pt" height="206pt"
 viewBox="0.00 0.00 1808.00 206.00" xmlns="http://www.w3.org/2000/svg" xmlns:xlink="http://www.w3.org/1999/xlink">
<g id="graph0" class="graph" transform="scale(1 1) rotate(0) translate(4 202)">
<title>maximal_committed_index</title>
<polygon fill="white" stroke="transparent" points="-4,4 -4,-202 1804,-202 1804,4 -4,4"/>
<!-- ProgressTracker__maximal_committed_index -->
<g id="node1" class="node">
<title>ProgressTracker__maximal_committed_index</title>
<path fill="none" stroke="#1c2123" d="M901,-144C901,-144 655,-144 655,-144 649,-144 643,-138 643,-132 643,-132 643,-120 643,-120 643,-114 649,-108 655,-108 655,-108 901,-108 901,-108 907,-108 913,-114 913,-120 913,-120 913,-132 913,-132 913,-138 907,-144 901,-144"/>
<text text-anchor="middle" x="778" y="-122.3" font-family="Times,serif" font-size="14.00" fill="#2f3638">ProgressTracker__maximal_committed_index</text>
</g>
<!-- JointConfig__comitted_index -->
<g id="node2" class="node">
<title>JointConfig__comitted_index</title>
<path fill="none" stroke="#1c2123" d="M1115,-145C1115,-145 961,-145 961,-145 955,-145 949,-139 949,-133 949,-133 949,-121 949,-121 949,-115 955,-109 961,-109 961,-109 1115,-109 1115,-109 1121,-109 1127,-115 1127,-121 1127,-121 1127,-133 1127,-133 1127,-139 1121,-145 1115,-145"/>
<text text-anchor="middle" x="1038" y="-123.3" font-family="Times,serif" font-size="14.00" fill="#2f3638">JointConfig__comitted_index</text>
</g>
<!-- ProgressTracker__maximal_committed_index&#45;&gt;JointConfig__comitted_index -->
<g id="edge1" class="edge">
<title>ProgressTracker__maximal_committed_index&#45;&gt;JointConfig__comitted_index</title>
<path fill="none" stroke="#666666" d="M913.29,-126.52C921.82,-126.55 930.32,-126.59 938.64,-126.62"/>
<polygon fill="#666666" stroke="#666666" points="938.67,-130.12 948.69,-126.66 938.7,-123.12 938.67,-130.12"/>
</g>
<!-- MajorityConfig__committed_index -->
<g id="node3" class="node">
<title>MajorityConfig__committed_index</title>
<path fill="none" stroke="#1c2123" d="M1175,-97.5C1175,-97.5 1362,-97.5 1362,-97.5 1368,-97.5 1374,-103.5 1374,-109.5 1374,-109.5 1374,-146.5 1374,-146.5 1374,-152.5 1368,-158.5 1362,-158.5 1362,-158.5 1175,-158.5 1175,-158.5 1169,-158.5 1163,-152.5 1163,-146.5 1163,-146.5 1163,-109.5 1163,-109.5 1163,-103.5 1169,-97.5 1175,-97.5"/>
<text text-anchor="middle" x="1268.5" y="-143.3" font-family="Times,serif" font-size="14.00" fill="#2f3638">MajorityConfig__committed_index</text>
<polyline fill="none" stroke="#1c2123" points="1163,-135.5 1374,-135.5 "/>
<text text-anchor="start" x="1171" y="-120.3" font-family="Times,serif" font-size="14.00" fill="#2f3638">取votes 最小的matched</text>
<text text-anchor="start" x="1171" y="-105.3" font-family="Times,serif" font-size="14.00" fill="#2f3638"> 为committed index</text>
</g>
<!-- JointConfig__comitted_index&#45;&gt;MajorityConfig__committed_index -->
<g id="edge2" class="edge">
<title>JointConfig__comitted_index&#45;&gt;MajorityConfig__committed_index</title>
<path fill="none" stroke="#666666" d="M1127.02,-127.39C1135.42,-127.42 1144.02,-127.46 1152.63,-127.5"/>
<polygon fill="#666666" stroke="#666666" points="1152.71,-131 1162.73,-127.54 1152.74,-124 1152.71,-131"/>
</g>
<!-- ProgressMap__acked_index -->
<g id="node4" class="node">
<title>ProgressMap__acked_index</title>
<path fill="none" stroke="#1c2123" d="M1422,-97.5C1422,-97.5 1577,-97.5 1577,-97.5 1583,-97.5 1589,-103.5 1589,-109.5 1589,-109.5 1589,-146.5 1589,-146.5 1589,-152.5 1583,-158.5 1577,-158.5 1577,-158.5 1422,-158.5 1422,-158.5 1416,-158.5 1410,-152.5 1410,-146.5 1410,-146.5 1410,-109.5 1410,-109.5 1410,-103.5 1416,-97.5 1422,-97.5"/>
<text text-anchor="middle" x="1499.5" y="-143.3" font-family="Times,serif" font-size="14.00" fill="#2f3638">ProgressMap__acked_index</text>
<polyline fill="none" stroke="#1c2123" points="1410,-135.5 1589,-135.5 "/>
<text text-anchor="start" x="1418" y="-120.3" font-family="Times,serif" font-size="14.00" fill="#2f3638">返回Progress__matched</text>
<text text-anchor="start" x="1418" y="-105.3" font-family="Times,serif" font-size="14.00" fill="#2f3638"> Progress__commit_group_id</text>
</g>
<!-- MajorityConfig__committed_index&#45;&gt;ProgressMap__acked_index -->
<g id="edge3" class="edge">
<title>MajorityConfig__committed_index&#45;&gt;ProgressMap__acked_index</title>
<path fill="none" stroke="#666666" d="M1374.28,-128C1382.74,-128 1391.27,-128 1399.68,-128"/>
<polygon fill="#666666" stroke="#666666" points="1399.87,-131.5 1409.87,-128 1399.87,-124.5 1399.87,-131.5"/>
</g>
<!-- Progress__matched -->
<g id="node5" class="node">
<title>Progress__matched</title>
<path fill="none" stroke="#1c2123" d="M1762,-90C1762,-90 1663,-90 1663,-90 1657,-90 1651,-84 1651,-78 1651,-78 1651,-66 1651,-66 1651,-60 1657,-54 1663,-54 1663,-54 1762,-54 1762,-54 1768,-54 1774,-60 1774,-66 1774,-66 1774,-78 1774,-78 1774,-84 1768,-90 1762,-90"/>
<text text-anchor="middle" x="1712.5" y="-68.3" font-family="Times,serif" font-size="14.00" fill="#2f3638">Progress__matched</text>
</g>
<!-- ProgressMap__acked_index&#45;&gt;Progress__matched -->
<g id="edge4" class="edge">
<title>ProgressMap__acked_index&#45;&gt;Progress__matched</title>
<path fill="none" stroke="#666666" d="M1589.07,-104.49C1606.51,-99.87 1624.58,-95.07 1641.32,-90.63"/>
<polygon fill="#666666" stroke="#666666" points="1642.23,-94.01 1651,-88.06 1640.44,-87.24 1642.23,-94.01"/>
</g>
<!-- Progress__commit_group_id -->
<g id="node6" class="node">
<title>Progress__commit_group_id</title>
<path fill="none" stroke="#1c2123" d="M1788,-146C1788,-146 1637,-146 1637,-146 1631,-146 1625,-140 1625,-134 1625,-134 1625,-122 1625,-122 1625,-116 1631,-110 1637,-110 1637,-110 1788,-110 1788,-110 1794,-110 1800,-116 1800,-122 1800,-122 1800,-134 1800,-134 1800,-140 1794,-146 1788,-146"/>
<text text-anchor="middle" x="1712.5" y="-124.3" font-family="Times,serif" font-size="14.00" fill="#2f3638">Progress__commit_group_id</text>
</g>
<!-- ProgressMap__acked_index&#45;&gt;Progress__commit_group_id -->
<g id="edge5" class="edge">
<title>ProgressMap__acked_index&#45;&gt;Progress__commit_group_id</title>
<path fill="none" stroke="#666666" d="M1589.07,-128C1597.58,-128 1606.24,-128 1614.82,-128"/>
<polygon fill="#666666" stroke="#666666" points="1614.85,-131.5 1624.85,-128 1614.85,-124.5 1614.85,-131.5"/>
</g>
<!-- RaftCore__on_persist_entries -->
<g id="node7" class="node">
<title>RaftCore__on_persist_entries</title>
<path fill="none" stroke="#1c2123" d="M361.5,-90C361.5,-90 207.5,-90 207.5,-90 201.5,-90 195.5,-84 195.5,-78 195.5,-78 195.5,-66 195.5,-66 195.5,-60 201.5,-54 207.5,-54 207.5,-54 361.5,-54 361.5,-54 367.5,-54 373.5,-60 373.5,-66 373.5,-66 373.5,-78 373.5,-78 373.5,-84 367.5,-90 361.5,-90"/>
<text text-anchor="middle" x="284.5" y="-68.3" font-family="Times,serif" font-size="14.00" fill="#2f3638">RaftCore__on_persist_entries</text>
</g>
<!-- Progress__maybe_update -->
<g id="node8" class="node">
<title>Progress__maybe_update</title>
<path fill="none" stroke="#1c2123" d="M583.5,-88C583.5,-88 451.5,-88 451.5,-88 445.5,-88 439.5,-82 439.5,-76 439.5,-76 439.5,-64 439.5,-64 439.5,-58 445.5,-52 451.5,-52 451.5,-52 583.5,-52 583.5,-52 589.5,-52 595.5,-58 595.5,-64 595.5,-64 595.5,-76 595.5,-76 595.5,-82 589.5,-88 583.5,-88"/>
<text text-anchor="middle" x="517.5" y="-66.3" font-family="Times,serif" font-size="14.00" fill="#2f3638">Progress__maybe_update</text>
</g>
<!-- RaftCore__on_persist_entries&#45;&gt;Progress__maybe_update -->
<g id="edge6" class="edge">
<title>RaftCore__on_persist_entries&#45;&gt;Progress__maybe_update</title>
<path fill="none" stroke="#666666" d="M373.82,-71.24C391.9,-71.08 410.92,-70.91 428.97,-70.76"/>
<polygon fill="#666666" stroke="#666666" points="429.21,-74.26 439.17,-70.67 429.14,-67.26 429.21,-74.26"/>
</g>
<!-- RaftCore__maybe_commit -->
<g id="node9" class="node">
<title>RaftCore__maybe_commit</title>
<path fill="none" stroke="#1c2123" d="M588.5,-144C588.5,-144 446.5,-144 446.5,-144 440.5,-144 434.5,-138 434.5,-132 434.5,-132 434.5,-120 434.5,-120 434.5,-114 440.5,-108 446.5,-108 446.5,-108 588.5,-108 588.5,-108 594.5,-108 600.5,-114 600.5,-120 600.5,-120 600.5,-132 600.5,-132 600.5,-138 594.5,-144 588.5,-144"/>
<text text-anchor="middle" x="517.5" y="-122.3" font-family="Times,serif" font-size="14.00" fill="#2f3638">RaftCore__maybe_commit</text>
</g>
<!-- RaftCore__on_persist_entries&#45;&gt;RaftCore__maybe_commit -->
<g id="edge7" class="edge">
<title>RaftCore__on_persist_entries&#45;&gt;RaftCore__maybe_commit</title>
<path fill="none" stroke="#666666" d="M362.74,-90.06C384.12,-95.05 407.48,-100.51 429.38,-105.63"/>
<polygon fill="#666666" stroke="#666666" points="428.8,-109.09 439.33,-107.96 430.39,-102.28 428.8,-109.09"/>
</g>
<!-- Progress__maybe_update&#45;&gt;Progress__matched -->
<g id="edge9" class="edge">
<title>Progress__maybe_update&#45;&gt;Progress__matched</title>
<path fill="none" stroke="#666666" d="M595.8,-69.76C697.12,-69.46 880.37,-69 1037,-69 1037,-69 1037,-69 1269.5,-69 1400.52,-69 1553.39,-70.33 1640.67,-71.22"/>
<polygon fill="#666666" stroke="#666666" points="1640.69,-74.72 1650.73,-71.33 1640.77,-67.72 1640.69,-74.72"/>
</g>
<!-- RaftCore__maybe_commit&#45;&gt;ProgressTracker__maximal_committed_index -->
<g id="edge8" class="edge">
<title>RaftCore__maybe_commit&#45;&gt;ProgressTracker__maximal_committed_index</title>
<path fill="none" stroke="#666666" d="M600.65,-126C610.95,-126 621.71,-126 632.62,-126"/>
<polygon fill="#666666" stroke="#666666" points="632.67,-129.5 642.67,-126 632.67,-122.5 632.67,-129.5"/>
</g>
<!-- RaftCore__step_leader -->
<g id="node10" class="node">
<title>RaftCore__step_leader</title>
<path fill="none" stroke="#1c2123" d="M129,-198C129,-198 12,-198 12,-198 6,-198 0,-192 0,-186 0,-186 0,-174 0,-174 0,-168 6,-162 12,-162 12,-162 129,-162 129,-162 135,-162 141,-168 141,-174 141,-174 141,-186 141,-186 141,-192 135,-198 129,-198"/>
<text text-anchor="middle" x="70.5" y="-176.3" font-family="Times,serif" font-size="14.00" fill="#2f3638">RaftCore__step_leader</text>
</g>
<!-- RaftCore__handle_append_response -->
<g id="node11" class="node">
<title>RaftCore__handle_append_response</title>
<path fill="none" stroke="#1c2123" d="M380,-198C380,-198 189,-198 189,-198 183,-198 177,-192 177,-186 177,-186 177,-174 177,-174 177,-168 183,-162 189,-162 189,-162 380,-162 380,-162 386,-162 392,-168 392,-174 392,-174 392,-186 392,-186 392,-192 386,-198 380,-198"/>
<text text-anchor="middle" x="284.5" y="-176.3" font-family="Times,serif" font-size="14.00" fill="#2f3638">RaftCore__handle_append_response</text>
</g>
<!-- RaftCore__step_leader&#45;&gt;RaftCore__handle_append_response -->
<g id="edge10" class="edge">
<title>RaftCore__step_leader&#45;&gt;RaftCore__handle_append_response</title>
<path fill="none" stroke="#666666" d="M141.21,-180C149.45,-180 158.02,-180 166.69,-180"/>
<polygon fill="#666666" stroke="#666666" points="166.9,-183.5 176.9,-180 166.9,-176.5 166.9,-183.5"/>
</g>
<!-- RaftCore__handle_append_response&#45;&gt;Progress__maybe_update -->
<g id="edge11" class="edge">
<title>RaftCore__handle_append_response&#45;&gt;Progress__maybe_update</title>
<path fill="none" stroke="#666666" d="M376.77,-161.88C382.12,-159.3 387.25,-156.36 392,-153 415.55,-136.35 405.03,-116.45 428,-99 430.94,-96.77 434.06,-94.7 437.31,-92.79"/>
<polygon fill="#666666" stroke="#666666" points="438.96,-95.87 446.15,-88.09 435.68,-89.69 438.96,-95.87"/>
</g>
<!-- RaftCore__handle_append_response&#45;&gt;RaftCore__maybe_commit -->
<g id="edge12" class="edge">
<title>RaftCore__handle_append_response&#45;&gt;RaftCore__maybe_commit</title>
<path fill="none" stroke="#666666" d="M362.74,-161.94C384.12,-156.95 407.48,-151.49 429.38,-146.37"/>
<polygon fill="#666666" stroke="#666666" points="430.39,-149.72 439.33,-144.04 428.8,-142.91 430.39,-149.72"/>
</g>
<!-- Progress__update_committed -->
<g id="node12" class="node">
<title>Progress__update_committed</title>
<path fill="none" stroke="#1c2123" d="M595,-198C595,-198 440,-198 440,-198 434,-198 428,-192 428,-186 428,-186 428,-174 428,-174 428,-168 434,-162 440,-162 440,-162 595,-162 595,-162 601,-162 607,-168 607,-174 607,-174 607,-186 607,-186 607,-192 601,-198 595,-198"/>
<text text-anchor="middle" x="517.5" y="-176.3" font-family="Times,serif" font-size="14.00" fill="#2f3638">Progress__update_committed</text>
</g>
<!-- RaftCore__handle_append_response&#45;&gt;Progress__update_committed -->
<g id="edge13" class="edge">
<title>RaftCore__handle_append_response&#45;&gt;Progress__update_committed</title>
<path fill="none" stroke="#666666" d="M392.21,-180C400.7,-180 409.25,-180 417.68,-180"/>
<polygon fill="#666666" stroke="#666666" points="417.89,-183.5 427.89,-180 417.89,-176.5 417.89,-183.5"/>
</g>
<!-- RaftCore__restore -->
<g id="node13" class="node">
<title>RaftCore__restore</title>
<path fill="none" stroke="#1c2123" d="M330.5,-36C330.5,-36 238.5,-36 238.5,-36 232.5,-36 226.5,-30 226.5,-24 226.5,-24 226.5,-12 226.5,-12 226.5,-6 232.5,0 238.5,0 238.5,0 330.5,0 330.5,0 336.5,0 342.5,-6 342.5,-12 342.5,-12 342.5,-24 342.5,-24 342.5,-30 336.5,-36 330.5,-36"/>
<text text-anchor="middle" x="284.5" y="-14.3" font-family="Times,serif" font-size="14.00" fill="#2f3638">RaftCore__restore</text>
</g>
<!-- RaftCore__restore&#45;&gt;Progress__maybe_update -->
<g id="edge14" class="edge">
<title>RaftCore__restore&#45;&gt;Progress__maybe_update</title>
<path fill="none" stroke="#666666" d="M342.6,-30.85C368.66,-36.72 400.09,-43.79 429.03,-50.31"/>
<polygon fill="#666666" stroke="#666666" points="428.62,-53.8 439.14,-52.59 430.16,-46.98 428.62,-53.8"/>
</g>
<!-- RaftCore__post_conf_change -->
<g id="node14" class="node">
<title>RaftCore__post_conf_change</title>
<path fill="none" stroke="#1c2123" d="M361.5,-144C361.5,-144 207.5,-144 207.5,-144 201.5,-144 195.5,-138 195.5,-132 195.5,-132 195.5,-120 195.5,-120 195.5,-114 201.5,-108 207.5,-108 207.5,-108 361.5,-108 361.5,-108 367.5,-108 373.5,-114 373.5,-120 373.5,-120 373.5,-132 373.5,-132 373.5,-138 367.5,-144 361.5,-144"/>
<text text-anchor="middle" x="284.5" y="-122.3" font-family="Times,serif" font-size="14.00" fill="#2f3638">RaftCore__post_conf_change</text>
</g>
<!-- RaftCore__post_conf_change&#45;&gt;RaftCore__maybe_commit -->
<g id="edge15" class="edge">
<title>RaftCore__post_conf_change&#45;&gt;RaftCore__maybe_commit</title>
<path fill="none" stroke="#666666" d="M373.82,-126C390.27,-126 407.51,-126 424.08,-126"/>
<polygon fill="#666666" stroke="#666666" points="424.3,-129.5 434.3,-126 424.3,-122.5 424.3,-129.5"/>
</g>
</g>
</svg>
