<?xml version="1.0" encoding="UTF-8" standalone="no"?>
<!DOCTYPE svg PUBLIC "-//W3C//DTD SVG 1.1//EN"
 "http://www.w3.org/Graphics/SVG/1.1/DTD/svg11.dtd">
<!-- Generated by graphviz version 2.44.1 (20200629.0846)
 -->
<!-- Title: RaftRouter_send Pages: 1 -->
<svg width="905pt" height="308pt"
 viewBox="0.00 0.00 905.00 308.00" xmlns="http://www.w3.org/2000/svg" xmlns:xlink="http://www.w3.org/1999/xlink">
<g id="graph0" class="graph" transform="scale(1 1) rotate(0) translate(4 304)">
<title>RaftRouter_send</title>
<polygon fill="white" stroke="transparent" points="-4,4 -4,-304 901,-304 901,4 -4,4"/>
<g id="clust1" class="cluster">
<title>cluster_RaftRouter</title>
<path fill="none" stroke="slategrey" stroke-dasharray="5,2" d="M20,-8C20,-8 877,-8 877,-8 883,-8 889,-14 889,-20 889,-20 889,-280 889,-280 889,-286 883,-292 877,-292 877,-292 20,-292 20,-292 14,-292 8,-286 8,-280 8,-280 8,-20 8,-20 8,-14 14,-8 20,-8"/>
<text text-anchor="middle" x="448.5" y="-272" font-family="Times,serif" font-size="20.00">RaftRouter</text>
</g>
<g id="clust5" class="cluster">
<title>cluster_Router</title>
<path fill="none" stroke="slategrey" stroke-dasharray="5,2" d="M331.5,-80C331.5,-80 869,-80 869,-80 875,-80 881,-86 881,-92 881,-92 881,-242 881,-242 881,-248 875,-254 869,-254 869,-254 331.5,-254 331.5,-254 325.5,-254 319.5,-248 319.5,-242 319.5,-242 319.5,-92 319.5,-92 319.5,-86 325.5,-80 331.5,-80"/>
<text text-anchor="middle" x="600.25" y="-234" font-family="Times,serif" font-size="20.00">Router</text>
</g>
<!-- RaftRouter_send -->
<g id="node1" class="node">
<title>RaftRouter_send</title>
<path fill="none" stroke="#1c2123" d="M112,-89C112,-89 28,-89 28,-89 22,-89 16,-83 16,-77 16,-77 16,-65 16,-65 16,-59 22,-53 28,-53 28,-53 112,-53 112,-53 118,-53 124,-59 124,-65 124,-65 124,-77 124,-77 124,-83 118,-89 112,-89"/>
<text text-anchor="middle" x="70" y="-67.3" font-family="Times,serif" font-size="14.00" fill="#2f3638">RaftRouter_send</text>
</g>
<!-- send_raft_command -->
<g id="node2" class="node">
<title>send_raft_command</title>
<path fill="none" stroke="#1c2123" d="M276,-89C276,-89 172,-89 172,-89 166,-89 160,-83 160,-77 160,-77 160,-65 160,-65 160,-59 166,-53 172,-53 172,-53 276,-53 276,-53 282,-53 288,-59 288,-65 288,-65 288,-77 288,-77 288,-83 282,-89 276,-89"/>
<text text-anchor="middle" x="224" y="-67.3" font-family="Times,serif" font-size="14.00" fill="#2f3638">send_raft_command</text>
</g>
<!-- RaftRouter_send&#45;&gt;send_raft_command -->
<g id="edge1" class="edge">
<title>RaftRouter_send&#45;&gt;send_raft_command</title>
<path fill="none" stroke="#666666" d="M124.16,-71C132.47,-71 141.18,-71 149.84,-71"/>
<polygon fill="#666666" stroke="#666666" points="149.95,-74.5 159.95,-71 149.95,-67.5 149.95,-74.5"/>
</g>
<!-- get_region_id -->
<g id="node3" class="node">
<title>get_region_id</title>
<path fill="none" stroke="#1c2123" d="M404,-52C404,-52 336,-52 336,-52 330,-52 324,-46 324,-40 324,-40 324,-28 324,-28 324,-22 330,-16 336,-16 336,-16 404,-16 404,-16 410,-16 416,-22 416,-28 416,-28 416,-40 416,-40 416,-46 410,-52 404,-52"/>
<text text-anchor="middle" x="370" y="-30.3" font-family="Times,serif" font-size="14.00" fill="#2f3638">get_region_id</text>
</g>
<!-- send_raft_command&#45;&gt;get_region_id -->
<g id="edge2" class="edge">
<title>send_raft_command&#45;&gt;get_region_id</title>
<path fill="none" stroke="#666666" d="M288.16,-54.77C296.74,-52.57 305.49,-50.32 313.92,-48.15"/>
<polygon fill="#666666" stroke="#666666" points="314.81,-51.54 323.63,-45.66 313.07,-44.76 314.81,-51.54"/>
</g>
<!-- PeerMsg_RaftCommand -->
<g id="node4" class="node">
<title>PeerMsg_RaftCommand</title>
<path fill="none" stroke="#1c2123" d="M593,-72C593,-72 464,-72 464,-72 458,-72 452,-66 452,-60 452,-60 452,-48 452,-48 452,-42 458,-36 464,-36 464,-36 593,-36 593,-36 599,-36 605,-42 605,-48 605,-48 605,-60 605,-60 605,-66 599,-72 593,-72"/>
<text text-anchor="middle" x="528.5" y="-50.3" font-family="Times,serif" font-size="14.00" fill="#2f3638">PeerMsg_RaftCommand</text>
</g>
<!-- send_raft_command&#45;&gt;PeerMsg_RaftCommand -->
<g id="edge3" class="edge">
<title>send_raft_command&#45;&gt;PeerMsg_RaftCommand</title>
<path fill="none" stroke="#666666" d="M288.24,-67.85C325.44,-65.96 373.4,-63.45 416,-61 424.35,-60.52 433.05,-60 441.75,-59.47"/>
<polygon fill="#666666" stroke="#666666" points="442.17,-62.95 451.93,-58.85 441.74,-55.97 442.17,-62.95"/>
</g>
<!-- Router_send -->
<g id="node5" class="node">
<title>Router_send</title>
<path fill="none" stroke="#1c2123" d="M400.5,-128C400.5,-128 339.5,-128 339.5,-128 333.5,-128 327.5,-122 327.5,-116 327.5,-116 327.5,-104 327.5,-104 327.5,-98 333.5,-92 339.5,-92 339.5,-92 400.5,-92 400.5,-92 406.5,-92 412.5,-98 412.5,-104 412.5,-104 412.5,-116 412.5,-116 412.5,-122 406.5,-128 400.5,-128"/>
<text text-anchor="middle" x="370" y="-106.3" font-family="Times,serif" font-size="14.00" fill="#2f3638">Router_send</text>
</g>
<!-- send_raft_command&#45;&gt;Router_send -->
<g id="edge4" class="edge">
<title>send_raft_command&#45;&gt;Router_send</title>
<path fill="none" stroke="#666666" d="M288.16,-88.11C298.03,-90.78 308.13,-93.51 317.69,-96.1"/>
<polygon fill="#666666" stroke="#666666" points="316.87,-99.51 327.43,-98.74 318.7,-92.75 316.87,-99.51"/>
</g>
<!-- mailbox_try_send -->
<g id="node6" class="node">
<title>mailbox_try_send</title>
<path fill="none" stroke="#1c2123" d="M711.5,-89C711.5,-89 802.5,-89 802.5,-89 808.5,-89 814.5,-95 814.5,-101 814.5,-101 814.5,-123 814.5,-123 814.5,-129 808.5,-135 802.5,-135 802.5,-135 711.5,-135 711.5,-135 705.5,-135 699.5,-129 699.5,-123 699.5,-123 699.5,-101 699.5,-101 699.5,-95 705.5,-89 711.5,-89"/>
<text text-anchor="middle" x="757" y="-119.8" font-family="Times,serif" font-size="14.00" fill="#2f3638">mailbox_try_send</text>
<polyline fill="none" stroke="#1c2123" points="699.5,-112 814.5,-112 "/>
<text text-anchor="middle" x="757" y="-96.8" font-family="Times,serif" font-size="14.00" fill="#2f3638">根据mailbox</text>
</g>
<!-- get_region_id&#45;&gt;mailbox_try_send -->
<g id="edge5" class="edge">
<title>get_region_id&#45;&gt;mailbox_try_send</title>
<path fill="none" stroke="#666666" d="M416.28,-25.18C464.05,-17.59 541.11,-10.25 605,-27 646.45,-37.86 688.52,-62.95 717.69,-83.07"/>
<polygon fill="#666666" stroke="#666666" points="715.74,-85.98 725.94,-88.87 719.77,-80.26 715.74,-85.98"/>
</g>
<!-- PeerMsg_RaftCommand&#45;&gt;mailbox_try_send -->
<g id="edge6" class="edge">
<title>PeerMsg_RaftCommand&#45;&gt;mailbox_try_send</title>
<path fill="none" stroke="#666666" d="M599.92,-72.03C628.5,-79.35 661.34,-87.76 689.51,-94.97"/>
<polygon fill="#666666" stroke="#666666" points="688.7,-98.38 699.26,-97.47 690.44,-91.6 688.7,-98.38"/>
</g>
<!-- try_send -->
<g id="node7" class="node">
<title>try_send</title>
<path fill="none" stroke="#1c2123" d="M548,-130C548,-130 509,-130 509,-130 503,-130 497,-124 497,-118 497,-118 497,-106 497,-106 497,-100 503,-94 509,-94 509,-94 548,-94 548,-94 554,-94 560,-100 560,-106 560,-106 560,-118 560,-118 560,-124 554,-130 548,-130"/>
<text text-anchor="middle" x="528.5" y="-108.3" font-family="Times,serif" font-size="14.00" fill="#2f3638">try_send</text>
</g>
<!-- Router_send&#45;&gt;try_send -->
<g id="edge7" class="edge">
<title>Router_send&#45;&gt;try_send</title>
<path fill="none" stroke="#666666" d="M412.53,-110.53C435.46,-110.82 463.83,-111.19 486.65,-111.48"/>
<polygon fill="#666666" stroke="#666666" points="486.66,-114.98 496.71,-111.61 486.75,-107.98 486.66,-114.98"/>
</g>
<!-- try_send&#45;&gt;mailbox_try_send -->
<g id="edge8" class="edge">
<title>try_send&#45;&gt;mailbox_try_send</title>
<path fill="none" stroke="#666666" d="M560.05,-112C593.02,-112 646.57,-112 689.37,-112"/>
<polygon fill="#666666" stroke="#666666" points="689.44,-115.5 699.44,-112 689.44,-108.5 689.44,-115.5"/>
</g>
<!-- check_do -->
<g id="node8" class="node">
<title>check_do</title>
<path fill="none" stroke="#1c2123" d="M653,-154.5C653,-154.5 861,-154.5 861,-154.5 867,-154.5 873,-160.5 873,-166.5 873,-166.5 873,-203.5 873,-203.5 873,-209.5 867,-215.5 861,-215.5 861,-215.5 653,-215.5 653,-215.5 647,-215.5 641,-209.5 641,-203.5 641,-203.5 641,-166.5 641,-166.5 641,-160.5 647,-154.5 653,-154.5"/>
<text text-anchor="middle" x="757" y="-200.3" font-family="Times,serif" font-size="14.00" fill="#2f3638">check_do</text>
<polyline fill="none" stroke="#1c2123" points="641,-192.5 873,-192.5 "/>
<text text-anchor="start" x="649" y="-177.3" font-family="Times,serif" font-size="14.00" fill="#2f3638">根据region_id</text>
<text text-anchor="start" x="649" y="-162.3" font-family="Times,serif" font-size="14.00" fill="#2f3638"> 从Router.normals 找到要发送的addr</text>
</g>
<!-- try_send&#45;&gt;check_do -->
<g id="edge9" class="edge">
<title>try_send&#45;&gt;check_do</title>
<path fill="none" stroke="#666666" d="M560.05,-121.85C583.73,-129.48 618.03,-140.53 651.33,-151.26"/>
<polygon fill="#666666" stroke="#666666" points="650.56,-154.69 661.15,-154.43 652.7,-148.03 650.56,-154.69"/>
</g>
</g>
</svg>
