<?xml version="1.0" encoding="UTF-8" standalone="no"?>
<!DOCTYPE svg PUBLIC "-//W3C//DTD SVG 1.1//EN"
 "http://www.w3.org/Graphics/SVG/1.1/DTD/svg11.dtd">
<!-- Generated by graphviz version 2.47.1 (20210417.1919)
 -->
<!-- Title: Raft_ProgressTracker Pages: 1 -->
<svg width="1104pt" height="504pt"
 viewBox="0.00 0.00 1104.00 503.50" xmlns="http://www.w3.org/2000/svg" xmlns:xlink="http://www.w3.org/1999/xlink">
<g id="graph0" class="graph" transform="scale(1 1) rotate(0) translate(4 499.5)">
<title>Raft_ProgressTracker</title>
<polygon fill="white" stroke="transparent" points="-4,4 -4,-499.5 1100,-499.5 1100,4 -4,4"/>
<!-- Raft -->
<g id="node1" class="node">
<title>Raft</title>
<path fill="none" stroke="#1c2123" d="M12,-48.5C12,-48.5 153,-48.5 153,-48.5 159,-48.5 165,-54.5 165,-60.5 165,-60.5 165,-128.5 165,-128.5 165,-134.5 159,-140.5 153,-140.5 153,-140.5 12,-140.5 12,-140.5 6,-140.5 0,-134.5 0,-128.5 0,-128.5 0,-60.5 0,-60.5 0,-54.5 6,-48.5 12,-48.5"/>
<text text-anchor="middle" x="82.5" y="-125.3" font-family="Times,serif" font-size="14.00" fill="#2f3638">Raft</text>
<polyline fill="none" stroke="#1c2123" points="0,-117.5 165,-117.5 "/>
<text text-anchor="start" x="8" y="-102.3" font-family="Times,serif" font-size="14.00" fill="#2f3638">prs: ProgressTracker,</text>
<polyline fill="none" stroke="#1c2123" points="0,-94.5 165,-94.5 "/>
<text text-anchor="start" x="8" y="-79.3" font-family="Times,serif" font-size="14.00" fill="#2f3638">pub msgs: Vec&lt;Message&gt;,</text>
<polyline fill="none" stroke="#1c2123" points="0,-71.5 165,-71.5 "/>
<text text-anchor="start" x="8" y="-56.3" font-family="Times,serif" font-size="14.00" fill="#2f3638">pub r: RaftCore&lt;T&gt;,</text>
</g>
<!-- ProgressTracker -->
<g id="node2" class="node">
<title>ProgressTracker</title>
<path fill="none" stroke="#1c2123" d="M213,-73C213,-73 367,-73 367,-73 373,-73 379,-79 379,-85 379,-85 379,-222 379,-222 379,-228 373,-234 367,-234 367,-234 213,-234 213,-234 207,-234 201,-228 201,-222 201,-222 201,-85 201,-85 201,-79 207,-73 213,-73"/>
<text text-anchor="middle" x="290" y="-218.8" font-family="Times,serif" font-size="14.00" fill="#2f3638">ProgressTracker</text>
<polyline fill="none" stroke="#1c2123" points="201,-211 379,-211 "/>
<text text-anchor="start" x="209" y="-195.8" font-family="Times,serif" font-size="14.00" fill="#2f3638">progress: ProgressMap,</text>
<polyline fill="none" stroke="#1c2123" points="201,-188 379,-188 "/>
<text text-anchor="start" x="209" y="-172.8" font-family="Times,serif" font-size="14.00" fill="#2f3638">conf: Configuration,</text>
<polyline fill="none" stroke="#1c2123" points="201,-165 379,-165 "/>
<text text-anchor="start" x="209" y="-149.8" font-family="Times,serif" font-size="14.00" fill="#2f3638">votes: HashMap&lt;u64, bool&gt;,</text>
<polyline fill="none" stroke="#1c2123" points="201,-142 379,-142 "/>
<text text-anchor="start" x="209" y="-126.8" font-family="Times,serif" font-size="14.00" fill="#2f3638">max_inflight: usize,</text>
<polyline fill="none" stroke="#1c2123" points="201,-119 379,-119 "/>
<text text-anchor="start" x="209" y="-103.8" font-family="Times,serif" font-size="14.00" fill="#2f3638">group_commit: bool,</text>
<polyline fill="none" stroke="#1c2123" points="201,-96 379,-96 "/>
<text text-anchor="start" x="209" y="-80.8" font-family="Times,serif" font-size="14.00" fill="#2f3638">pub(crate) logger: Logger,</text>
</g>
<!-- Raft&#45;&gt;ProgressTracker -->
<g id="edge1" class="edge">
<title>Raft&#45;&gt;ProgressTracker</title>
<path fill="none" stroke="#666666" d="M165.01,-117.9C173.56,-120.36 182.32,-122.87 191.03,-125.37"/>
<polygon fill="#666666" stroke="#666666" points="190.25,-128.79 200.82,-128.18 192.18,-122.06 190.25,-128.79"/>
</g>
<!-- RaftCore -->
<g id="node3" class="node">
<title>RaftCore</title>
<path fill="none" stroke="#1c2123" d="M311,-54.5C311,-54.5 269,-54.5 269,-54.5 263,-54.5 257,-48.5 257,-42.5 257,-42.5 257,-30.5 257,-30.5 257,-24.5 263,-18.5 269,-18.5 269,-18.5 311,-18.5 311,-18.5 317,-18.5 323,-24.5 323,-30.5 323,-30.5 323,-42.5 323,-42.5 323,-48.5 317,-54.5 311,-54.5"/>
<text text-anchor="middle" x="290" y="-32.8" font-family="Times,serif" font-size="14.00" fill="#2f3638">RaftCore</text>
</g>
<!-- Raft&#45;&gt;RaftCore -->
<g id="edge2" class="edge">
<title>Raft&#45;&gt;RaftCore</title>
<path fill="none" stroke="#666666" d="M165.01,-71.49C193.16,-63.55 223.52,-54.98 247.15,-48.31"/>
<polygon fill="#666666" stroke="#666666" points="248.17,-51.66 256.85,-45.58 246.27,-44.92 248.17,-51.66"/>
</g>
<!-- ProgressMap -->
<g id="node4" class="node">
<title>ProgressMap</title>
<path fill="none" stroke="#1c2123" d="M466,-260.5C466,-260.5 606,-260.5 606,-260.5 612,-260.5 618,-266.5 618,-272.5 618,-272.5 618,-332.5 618,-332.5 618,-338.5 612,-344.5 606,-344.5 606,-344.5 466,-344.5 466,-344.5 460,-344.5 454,-338.5 454,-332.5 454,-332.5 454,-272.5 454,-272.5 454,-266.5 460,-260.5 466,-260.5"/>
<text text-anchor="middle" x="536" y="-329.3" font-family="Times,serif" font-size="14.00" fill="#2f3638">ProgressMap</text>
<polyline fill="none" stroke="#1c2123" points="454,-321.5 618,-321.5 "/>
<text text-anchor="start" x="462" y="-306.3" font-family="Times,serif" font-size="14.00" fill="#2f3638">HashMap&lt;u64, Progress&gt;;</text>
<polyline fill="none" stroke="#1c2123" points="454,-298.5 618,-298.5 "/>
<text text-anchor="start" x="462" y="-283.3" font-family="Times,serif" font-size="14.00" fill="#2f3638">leader节点用它来跟踪</text>
<text text-anchor="start" x="462" y="-268.3" font-family="Times,serif" font-size="14.00" fill="#2f3638"> 各个follower的进度</text>
</g>
<!-- ProgressTracker&#45;&gt;ProgressMap -->
<g id="edge3" class="edge">
<title>ProgressTracker&#45;&gt;ProgressMap</title>
<path fill="none" stroke="#666666" d="M379.09,-207.29C404.73,-222.95 432.55,-239.94 457.49,-255.17"/>
<polygon fill="#666666" stroke="#666666" points="455.82,-258.25 466.18,-260.47 459.47,-252.28 455.82,-258.25"/>
</g>
<!-- Configuration -->
<g id="node5" class="node">
<title>Configuration</title>
<path fill="none" stroke="#1c2123" d="M427,-96C427,-96 645,-96 645,-96 651,-96 657,-102 657,-108 657,-108 657,-199 657,-199 657,-205 651,-211 645,-211 645,-211 427,-211 427,-211 421,-211 415,-205 415,-199 415,-199 415,-108 415,-108 415,-102 421,-96 427,-96"/>
<text text-anchor="middle" x="536" y="-195.8" font-family="Times,serif" font-size="14.00" fill="#2f3638">Configuration</text>
<polyline fill="none" stroke="#1c2123" points="415,-188 657,-188 "/>
<text text-anchor="start" x="423" y="-172.8" font-family="Times,serif" font-size="14.00" fill="#2f3638">pub(crate) voters: JointConfig,</text>
<polyline fill="none" stroke="#1c2123" points="415,-165 657,-165 "/>
<text text-anchor="start" x="423" y="-149.8" font-family="Times,serif" font-size="14.00" fill="#2f3638">pub(crate) learners: HashSet&lt;u64&gt;,</text>
<polyline fill="none" stroke="#1c2123" points="415,-142 657,-142 "/>
<text text-anchor="start" x="423" y="-126.8" font-family="Times,serif" font-size="14.00" fill="#2f3638">pub(crate) learners_next: HashSet&lt;u64&gt;,</text>
<polyline fill="none" stroke="#1c2123" points="415,-119 657,-119 "/>
<text text-anchor="start" x="423" y="-103.8" font-family="Times,serif" font-size="14.00" fill="#2f3638">pub(crate) auto_leave: bool,</text>
</g>
<!-- ProgressTracker&#45;&gt;Configuration -->
<g id="edge4" class="edge">
<title>ProgressTracker&#45;&gt;Configuration</title>
<path fill="none" stroke="#666666" d="M379.09,-153.5C387.43,-153.5 396,-153.5 404.62,-153.5"/>
<polygon fill="#666666" stroke="#666666" points="404.76,-157 414.76,-153.5 404.76,-150 404.76,-157"/>
</g>
<!-- votes_HashMap -->
<g id="node6" class="node">
<title>votes_HashMap</title>
<path fill="none" stroke="#1c2123" d="M485.5,-0.5C485.5,-0.5 586.5,-0.5 586.5,-0.5 592.5,-0.5 598.5,-6.5 598.5,-12.5 598.5,-12.5 598.5,-64.5 598.5,-64.5 598.5,-70.5 592.5,-76.5 586.5,-76.5 586.5,-76.5 485.5,-76.5 485.5,-76.5 479.5,-76.5 473.5,-70.5 473.5,-64.5 473.5,-64.5 473.5,-12.5 473.5,-12.5 473.5,-6.5 479.5,-0.5 485.5,-0.5"/>
<text text-anchor="start" x="481.5" y="-61.3" font-family="Times,serif" font-size="14.00" fill="#2f3638">votes</text>
<text text-anchor="start" x="481.5" y="-46.3" font-family="Times,serif" font-size="14.00" fill="#2f3638"> HashMap</text>
<polyline fill="none" stroke="#1c2123" points="473.5,-38.5 598.5,-38.5 "/>
<text text-anchor="start" x="481.5" y="-23.3" font-family="Times,serif" font-size="14.00" fill="#2f3638">用来保存其他peer</text>
<text text-anchor="start" x="481.5" y="-8.3" font-family="Times,serif" font-size="14.00" fill="#2f3638"> 对自己的投票</text>
</g>
<!-- ProgressTracker&#45;&gt;votes_HashMap -->
<g id="edge5" class="edge">
<title>ProgressTracker&#45;&gt;votes_HashMap</title>
<path fill="none" stroke="#666666" d="M379.1,-104.3C391.06,-98.09 403.26,-92 415,-86.5 430.63,-79.18 447.7,-71.93 463.93,-65.36"/>
<polygon fill="#666666" stroke="#666666" points="465.39,-68.55 473.37,-61.58 462.79,-62.05 465.39,-68.55"/>
</g>
<!-- Progress -->
<g id="node7" class="node">
<title>Progress</title>
<path fill="none" stroke="#1c2123" d="M709.5,-242C709.5,-242 900.5,-242 900.5,-242 906.5,-242 912.5,-248 912.5,-254 912.5,-254 912.5,-483 912.5,-483 912.5,-489 906.5,-495 900.5,-495 900.5,-495 709.5,-495 709.5,-495 703.5,-495 697.5,-489 697.5,-483 697.5,-483 697.5,-254 697.5,-254 697.5,-248 703.5,-242 709.5,-242"/>
<text text-anchor="middle" x="805" y="-479.8" font-family="Times,serif" font-size="14.00" fill="#2f3638">Progress</text>
<polyline fill="none" stroke="#1c2123" points="697.5,-472 912.5,-472 "/>
<text text-anchor="start" x="705.5" y="-456.8" font-family="Times,serif" font-size="14.00" fill="#2f3638">pub matched: u64,</text>
<polyline fill="none" stroke="#1c2123" points="697.5,-449 912.5,-449 "/>
<text text-anchor="start" x="705.5" y="-433.8" font-family="Times,serif" font-size="14.00" fill="#2f3638">pub next_idx: u64,</text>
<polyline fill="none" stroke="#1c2123" points="697.5,-426 912.5,-426 "/>
<text text-anchor="start" x="705.5" y="-410.8" font-family="Times,serif" font-size="14.00" fill="#2f3638">pub state: ProgressState,</text>
<polyline fill="none" stroke="#1c2123" points="697.5,-403 912.5,-403 "/>
<text text-anchor="start" x="705.5" y="-387.8" font-family="Times,serif" font-size="14.00" fill="#2f3638">pub paused: bool,</text>
<polyline fill="none" stroke="#1c2123" points="697.5,-380 912.5,-380 "/>
<text text-anchor="start" x="705.5" y="-364.8" font-family="Times,serif" font-size="14.00" fill="#2f3638">pub pending_snapshot: u64,</text>
<polyline fill="none" stroke="#1c2123" points="697.5,-357 912.5,-357 "/>
<text text-anchor="start" x="705.5" y="-341.8" font-family="Times,serif" font-size="14.00" fill="#2f3638">pub pending_request_snapshot: u64,</text>
<polyline fill="none" stroke="#1c2123" points="697.5,-334 912.5,-334 "/>
<text text-anchor="start" x="705.5" y="-318.8" font-family="Times,serif" font-size="14.00" fill="#2f3638">pub recent_active: bool,</text>
<polyline fill="none" stroke="#1c2123" points="697.5,-311 912.5,-311 "/>
<text text-anchor="start" x="705.5" y="-295.8" font-family="Times,serif" font-size="14.00" fill="#2f3638">pub ins: Inflights,</text>
<polyline fill="none" stroke="#1c2123" points="697.5,-288 912.5,-288 "/>
<text text-anchor="start" x="705.5" y="-272.8" font-family="Times,serif" font-size="14.00" fill="#2f3638">pub commit_group_id: u64,</text>
<polyline fill="none" stroke="#1c2123" points="697.5,-265 912.5,-265 "/>
<text text-anchor="start" x="705.5" y="-249.8" font-family="Times,serif" font-size="14.00" fill="#2f3638">pub committed_index: u64,</text>
</g>
<!-- ProgressMap&#45;&gt;Progress -->
<g id="edge6" class="edge">
<title>ProgressMap&#45;&gt;Progress</title>
<path fill="none" stroke="#666666" d="M618.2,-322.57C639.94,-327.95 663.89,-333.87 687.15,-339.62"/>
<polygon fill="#666666" stroke="#666666" points="686.53,-343.07 697.07,-342.07 688.2,-336.27 686.53,-343.07"/>
</g>
<!-- JointConfig -->
<g id="node10" class="node">
<title>JointConfig</title>
<path fill="none" stroke="#1c2123" d="M705,-154C705,-154 905,-154 905,-154 911,-154 917,-160 917,-166 917,-166 917,-211 917,-211 917,-217 911,-223 905,-223 905,-223 705,-223 705,-223 699,-223 693,-217 693,-211 693,-211 693,-166 693,-166 693,-160 699,-154 705,-154"/>
<text text-anchor="middle" x="805" y="-207.8" font-family="Times,serif" font-size="14.00" fill="#2f3638">JointConfig</text>
<polyline fill="none" stroke="#1c2123" points="693,-200 917,-200 "/>
<text text-anchor="start" x="701" y="-184.8" font-family="Times,serif" font-size="14.00" fill="#2f3638">pub(crate) incoming: MajorityConfig,</text>
<polyline fill="none" stroke="#1c2123" points="693,-177 917,-177 "/>
<text text-anchor="start" x="701" y="-161.8" font-family="Times,serif" font-size="14.00" fill="#2f3638">pub(crate) outgoing: MajorityConfig,</text>
</g>
<!-- Configuration&#45;&gt;JointConfig -->
<g id="edge9" class="edge">
<title>Configuration&#45;&gt;JointConfig</title>
<path fill="none" stroke="#666666" d="M657.22,-169.26C665.78,-170.38 674.41,-171.51 682.97,-172.63"/>
<polygon fill="#666666" stroke="#666666" points="682.61,-176.12 692.98,-173.95 683.52,-169.18 682.61,-176.12"/>
</g>
<!-- learners_HashSet -->
<g id="node11" class="node">
<title>learners_HashSet</title>
<path fill="none" stroke="#1c2123" d="M848.5,-135.5C848.5,-135.5 761.5,-135.5 761.5,-135.5 755.5,-135.5 749.5,-129.5 749.5,-123.5 749.5,-123.5 749.5,-111.5 749.5,-111.5 749.5,-105.5 755.5,-99.5 761.5,-99.5 761.5,-99.5 848.5,-99.5 848.5,-99.5 854.5,-99.5 860.5,-105.5 860.5,-111.5 860.5,-111.5 860.5,-123.5 860.5,-123.5 860.5,-129.5 854.5,-135.5 848.5,-135.5"/>
<text text-anchor="middle" x="805" y="-113.8" font-family="Times,serif" font-size="14.00" fill="#2f3638">learners_HashSet</text>
</g>
<!-- Configuration&#45;&gt;learners_HashSet -->
<g id="edge10" class="edge">
<title>Configuration&#45;&gt;learners_HashSet</title>
<path fill="none" stroke="#666666" d="M657.22,-137.29C685.57,-133.47 714.72,-129.54 739.5,-126.2"/>
<polygon fill="#666666" stroke="#666666" points="740.03,-129.66 749.48,-124.85 739.1,-122.72 740.03,-129.66"/>
</g>
<!-- learners_next_HashSet -->
<g id="node12" class="node">
<title>learners_next_HashSet</title>
<path fill="none" stroke="#1c2123" d="M863.5,-81.5C863.5,-81.5 746.5,-81.5 746.5,-81.5 740.5,-81.5 734.5,-75.5 734.5,-69.5 734.5,-69.5 734.5,-57.5 734.5,-57.5 734.5,-51.5 740.5,-45.5 746.5,-45.5 746.5,-45.5 863.5,-45.5 863.5,-45.5 869.5,-45.5 875.5,-51.5 875.5,-57.5 875.5,-57.5 875.5,-69.5 875.5,-69.5 875.5,-75.5 869.5,-81.5 863.5,-81.5"/>
<text text-anchor="middle" x="805" y="-59.8" font-family="Times,serif" font-size="14.00" fill="#2f3638">learners_next_HashSet</text>
</g>
<!-- Configuration&#45;&gt;learners_next_HashSet -->
<g id="edge11" class="edge">
<title>Configuration&#45;&gt;learners_next_HashSet</title>
<path fill="none" stroke="#666666" d="M657.3,-102.91C669.28,-98.48 681.32,-94.26 693,-90.5 703.12,-87.25 713.87,-84.17 724.53,-81.34"/>
<polygon fill="#666666" stroke="#666666" points="725.49,-84.71 734.29,-78.82 723.73,-77.93 725.49,-84.71"/>
</g>
<!-- ProgressState -->
<g id="node8" class="node">
<title>ProgressState</title>
<path fill="none" stroke="#1c2123" d="M991.5,-387.5C991.5,-387.5 1057.5,-387.5 1057.5,-387.5 1063.5,-387.5 1069.5,-393.5 1069.5,-399.5 1069.5,-399.5 1069.5,-467.5 1069.5,-467.5 1069.5,-473.5 1063.5,-479.5 1057.5,-479.5 1057.5,-479.5 991.5,-479.5 991.5,-479.5 985.5,-479.5 979.5,-473.5 979.5,-467.5 979.5,-467.5 979.5,-399.5 979.5,-399.5 979.5,-393.5 985.5,-387.5 991.5,-387.5"/>
<text text-anchor="middle" x="1024.5" y="-464.3" font-family="Times,serif" font-size="14.00" fill="#2f3638">ProgressState</text>
<polyline fill="none" stroke="#1c2123" points="979.5,-456.5 1069.5,-456.5 "/>
<text text-anchor="start" x="987.5" y="-441.3" font-family="Times,serif" font-size="14.00" fill="#2f3638">Probe,</text>
<polyline fill="none" stroke="#1c2123" points="979.5,-433.5 1069.5,-433.5 "/>
<text text-anchor="start" x="987.5" y="-418.3" font-family="Times,serif" font-size="14.00" fill="#2f3638">Replicate</text>
<polyline fill="none" stroke="#1c2123" points="979.5,-410.5 1069.5,-410.5 "/>
<text text-anchor="start" x="987.5" y="-395.3" font-family="Times,serif" font-size="14.00" fill="#2f3638">Snapshot,</text>
</g>
<!-- Progress&#45;&gt;ProgressState -->
<g id="edge7" class="edge">
<title>Progress&#45;&gt;ProgressState</title>
<path fill="none" stroke="#666666" d="M912.52,-400.33C932.31,-406.25 952.21,-412.19 969.57,-417.38"/>
<polygon fill="#666666" stroke="#666666" points="968.9,-420.84 979.49,-420.35 970.91,-414.13 968.9,-420.84"/>
</g>
<!-- Inflights -->
<g id="node9" class="node">
<title>Inflights</title>
<path fill="none" stroke="#1c2123" d="M977.5,-276.5C977.5,-276.5 1071.5,-276.5 1071.5,-276.5 1077.5,-276.5 1083.5,-282.5 1083.5,-288.5 1083.5,-288.5 1083.5,-356.5 1083.5,-356.5 1083.5,-362.5 1077.5,-368.5 1071.5,-368.5 1071.5,-368.5 977.5,-368.5 977.5,-368.5 971.5,-368.5 965.5,-362.5 965.5,-356.5 965.5,-356.5 965.5,-288.5 965.5,-288.5 965.5,-282.5 971.5,-276.5 977.5,-276.5"/>
<text text-anchor="middle" x="1024.5" y="-353.3" font-family="Times,serif" font-size="14.00" fill="#2f3638">Inflights</text>
<polyline fill="none" stroke="#1c2123" points="965.5,-345.5 1083.5,-345.5 "/>
<text text-anchor="start" x="973.5" y="-330.3" font-family="Times,serif" font-size="14.00" fill="#2f3638">start: usize,</text>
<polyline fill="none" stroke="#1c2123" points="965.5,-322.5 1083.5,-322.5 "/>
<text text-anchor="start" x="973.5" y="-307.3" font-family="Times,serif" font-size="14.00" fill="#2f3638">count: usize,</text>
<polyline fill="none" stroke="#1c2123" points="965.5,-299.5 1083.5,-299.5 "/>
<text text-anchor="start" x="973.5" y="-284.3" font-family="Times,serif" font-size="14.00" fill="#2f3638">buffer: Vec&lt;u64&gt;,</text>
</g>
<!-- Progress&#45;&gt;Inflights -->
<g id="edge8" class="edge">
<title>Progress&#45;&gt;Inflights</title>
<path fill="none" stroke="#666666" d="M912.52,-345.97C927.02,-342.91 941.56,-339.83 955.13,-336.96"/>
<polygon fill="#666666" stroke="#666666" points="956.24,-340.3 965.3,-334.81 954.79,-333.45 956.24,-340.3"/>
</g>
<!-- MajorityConfig -->
<g id="node13" class="node">
<title>MajorityConfig</title>
<path fill="none" stroke="#1c2123" d="M965,-165.5C965,-165.5 1084,-165.5 1084,-165.5 1090,-165.5 1096,-171.5 1096,-177.5 1096,-177.5 1096,-199.5 1096,-199.5 1096,-205.5 1090,-211.5 1084,-211.5 1084,-211.5 965,-211.5 965,-211.5 959,-211.5 953,-205.5 953,-199.5 953,-199.5 953,-177.5 953,-177.5 953,-171.5 959,-165.5 965,-165.5"/>
<text text-anchor="middle" x="1024.5" y="-196.3" font-family="Times,serif" font-size="14.00" fill="#2f3638">MajorityConfig</text>
<polyline fill="none" stroke="#1c2123" points="953,-188.5 1096,-188.5 "/>
<text text-anchor="start" x="961" y="-173.3" font-family="Times,serif" font-size="14.00" fill="#2f3638">voters: HashSet&lt;u64&gt;,</text>
</g>
<!-- JointConfig&#45;&gt;MajorityConfig -->
<g id="edge12" class="edge">
<title>JointConfig&#45;&gt;MajorityConfig</title>
<path fill="none" stroke="#666666" d="M917.3,-188.5C925.92,-188.5 934.52,-188.5 942.88,-188.5"/>
<polygon fill="#666666" stroke="#666666" points="942.94,-192 952.94,-188.5 942.94,-185 942.94,-192"/>
</g>
</g>
</svg>
