<?xml version="1.0" encoding="UTF-8" standalone="no"?>
<!DOCTYPE svg PUBLIC "-//W3C//DTD SVG 1.1//EN"
 "http://www.w3.org/Graphics/SVG/1.1/DTD/svg11.dtd">
<!-- Generated by graphviz version 2.47.1 (20210417.1919)
 -->
<!-- Title: peer_proposals Pages: 1 -->
<svg width="1283pt" height="467pt"
 viewBox="0.00 0.00 1283.00 466.84" xmlns="http://www.w3.org/2000/svg" xmlns:xlink="http://www.w3.org/1999/xlink">
<g id="graph0" class="graph" transform="scale(1 1) rotate(0) translate(4 462.84)">
<title>peer_proposals</title>
<polygon fill="white" stroke="transparent" points="-4,4 -4,-462.84 1279,-462.84 1279,4 -4,4"/>
<g id="clust1" class="cluster">
<title>cluster_Peer</title>
<path fill="none" stroke="slategrey" stroke-dasharray="5,2" d="M20,-26.84C20,-26.84 1255,-26.84 1255,-26.84 1261,-26.84 1267,-32.84 1267,-38.84 1267,-38.84 1267,-438.84 1267,-438.84 1267,-444.84 1261,-450.84 1255,-450.84 1255,-450.84 20,-450.84 20,-450.84 14,-450.84 8,-444.84 8,-438.84 8,-438.84 8,-38.84 8,-38.84 8,-32.84 14,-26.84 20,-26.84"/>
<text text-anchor="middle" x="637.5" y="-430.84" font-family="Times,serif" font-size="20.00">Peer</text>
</g>
<g id="clust5" class="cluster">
<title>cluster_cb</title>
<path fill="none" stroke="slategrey" stroke-dasharray="5,2" d="M190,-180.84C190,-180.84 761,-180.84 761,-180.84 767,-180.84 773,-186.84 773,-192.84 773,-192.84 773,-250.84 773,-250.84 773,-256.84 767,-262.84 761,-262.84 761,-262.84 190,-262.84 190,-262.84 184,-262.84 178,-256.84 178,-250.84 178,-250.84 178,-192.84 178,-192.84 178,-186.84 184,-180.84 190,-180.84"/>
<text text-anchor="middle" x="475.5" y="-242.84" font-family="Times,serif" font-size="20.00">cb</text>
</g>
<g id="clust8" class="cluster">
<title>cluster_raft</title>
<path fill="none" stroke="slategrey" stroke-dasharray="5,2" d="M435.5,-46.84C435.5,-46.84 746.5,-46.84 746.5,-46.84 752.5,-46.84 758.5,-52.84 758.5,-58.84 758.5,-58.84 758.5,-116.84 758.5,-116.84 758.5,-122.84 752.5,-128.84 746.5,-128.84 746.5,-128.84 435.5,-128.84 435.5,-128.84 429.5,-128.84 423.5,-122.84 423.5,-116.84 423.5,-116.84 423.5,-58.84 423.5,-58.84 423.5,-52.84 429.5,-46.84 435.5,-46.84"/>
<text text-anchor="middle" x="591" y="-108.84" font-family="Times,serif" font-size="20.00">raft</text>
</g>
<!-- propose -->
<g id="node1" class="node">
<title>propose</title>
<path fill="none" stroke="#1c2123" d="M78,-161.84C78,-161.84 43,-161.84 43,-161.84 37,-161.84 31,-155.84 31,-149.84 31,-149.84 31,-137.84 31,-137.84 31,-131.84 37,-125.84 43,-125.84 43,-125.84 78,-125.84 78,-125.84 84,-125.84 90,-131.84 90,-137.84 90,-137.84 90,-149.84 90,-149.84 90,-155.84 84,-161.84 78,-161.84"/>
<text text-anchor="middle" x="60.5" y="-140.14" font-family="Times,serif" font-size="14.00" fill="#2f3638">propose</text>
</g>
<!-- propose_normal -->
<g id="node2" class="node">
<title>propose_normal</title>
<path fill="none" stroke="#1c2123" d="M291,-161.84C291,-161.84 210,-161.84 210,-161.84 204,-161.84 198,-155.84 198,-149.84 198,-149.84 198,-137.84 198,-137.84 198,-131.84 204,-125.84 210,-125.84 210,-125.84 291,-125.84 291,-125.84 297,-125.84 303,-131.84 303,-137.84 303,-137.84 303,-149.84 303,-149.84 303,-155.84 297,-161.84 291,-161.84"/>
<text text-anchor="middle" x="250.5" y="-140.14" font-family="Times,serif" font-size="14.00" fill="#2f3638">propose_normal</text>
</g>
<!-- propose&#45;&gt;propose_normal -->
<g id="edge1" class="edge">
<title>propose&#45;&gt;propose_normal</title>
<path fill="none" stroke="#666666" d="M90.05,-143.84C115.93,-143.84 154.95,-143.84 187.91,-143.84"/>
<polygon fill="#666666" stroke="#666666" points="187.92,-147.34 197.92,-143.84 187.92,-140.34 187.92,-147.34"/>
</g>
<!-- cb_invoke_proposed -->
<g id="node3" class="node">
<title>cb_invoke_proposed</title>
<path fill="none" stroke="#1c2123" d="M303,-224.84C303,-224.84 198,-224.84 198,-224.84 192,-224.84 186,-218.84 186,-212.84 186,-212.84 186,-200.84 186,-200.84 186,-194.84 192,-188.84 198,-188.84 198,-188.84 303,-188.84 303,-188.84 309,-188.84 315,-194.84 315,-200.84 315,-200.84 315,-212.84 315,-212.84 315,-218.84 309,-224.84 303,-224.84"/>
<text text-anchor="middle" x="250.5" y="-203.14" font-family="Times,serif" font-size="14.00" fill="#2f3638">cb_invoke_proposed</text>
</g>
<!-- propose&#45;&gt;cb_invoke_proposed -->
<g id="edge2" class="edge">
<title>propose&#45;&gt;cb_invoke_proposed</title>
<path fill="none" stroke="#666666" d="M90.09,-161.03C104.85,-169.26 123.42,-178.66 141,-184.84 152.12,-188.75 164.14,-192.05 175.99,-194.81"/>
<polygon fill="#666666" stroke="#666666" points="175.36,-198.25 185.88,-197 176.87,-191.42 175.36,-198.25"/>
</g>
<!-- post_propose -->
<g id="node4" class="node">
<title>post_propose</title>
<path fill="none" stroke="#1c2123" d="M153,-52.84C153,-52.84 348,-52.84 348,-52.84 354,-52.84 360,-58.84 360,-64.84 360,-64.84 360,-86.84 360,-86.84 360,-92.84 354,-98.84 348,-98.84 348,-98.84 153,-98.84 153,-98.84 147,-98.84 141,-92.84 141,-86.84 141,-86.84 141,-64.84 141,-64.84 141,-58.84 147,-52.84 153,-52.84"/>
<text text-anchor="middle" x="250.5" y="-83.64" font-family="Times,serif" font-size="14.00" fill="#2f3638">post_propose</text>
<polyline fill="none" stroke="#1c2123" points="141,-75.84 360,-75.84 "/>
<text text-anchor="middle" x="250.5" y="-60.64" font-family="Times,serif" font-size="14.00" fill="#2f3638">将Proposal加入 proposals等待队列</text>
</g>
<!-- propose&#45;&gt;post_propose -->
<g id="edge3" class="edge">
<title>propose&#45;&gt;post_propose</title>
<path fill="none" stroke="#666666" d="M90.05,-133.51C112.85,-125.27 145.86,-113.33 175.93,-102.45"/>
<polygon fill="#666666" stroke="#666666" points="177.36,-105.66 185.57,-98.97 174.97,-99.08 177.36,-105.66"/>
</g>
<!-- pre_propose -->
<g id="node5" class="node">
<title>pre_propose</title>
<path fill="none" stroke="#1c2123" d="M522.5,-172.84C522.5,-172.84 463.5,-172.84 463.5,-172.84 457.5,-172.84 451.5,-166.84 451.5,-160.84 451.5,-160.84 451.5,-148.84 451.5,-148.84 451.5,-142.84 457.5,-136.84 463.5,-136.84 463.5,-136.84 522.5,-136.84 522.5,-136.84 528.5,-136.84 534.5,-142.84 534.5,-148.84 534.5,-148.84 534.5,-160.84 534.5,-160.84 534.5,-166.84 528.5,-172.84 522.5,-172.84"/>
<text text-anchor="middle" x="493" y="-151.14" font-family="Times,serif" font-size="14.00" fill="#2f3638">pre_propose</text>
</g>
<!-- propose_normal&#45;&gt;pre_propose -->
<g id="edge4" class="edge">
<title>propose_normal&#45;&gt;pre_propose</title>
<path fill="none" stroke="#666666" d="M303.09,-146.2C343.85,-148.07 400.43,-150.65 441.03,-152.51"/>
<polygon fill="#666666" stroke="#666666" points="441.09,-156.02 451.24,-152.98 441.41,-149.02 441.09,-156.02"/>
</g>
<!-- raft_group_propose -->
<g id="node6" class="node">
<title>raft_group_propose</title>
<path fill="none" stroke="#1c2123" d="M542.5,-90.84C542.5,-90.84 443.5,-90.84 443.5,-90.84 437.5,-90.84 431.5,-84.84 431.5,-78.84 431.5,-78.84 431.5,-66.84 431.5,-66.84 431.5,-60.84 437.5,-54.84 443.5,-54.84 443.5,-54.84 542.5,-54.84 542.5,-54.84 548.5,-54.84 554.5,-60.84 554.5,-66.84 554.5,-66.84 554.5,-78.84 554.5,-78.84 554.5,-84.84 548.5,-90.84 542.5,-90.84"/>
<text text-anchor="middle" x="493" y="-69.14" font-family="Times,serif" font-size="14.00" fill="#2f3638">raft_group_propose</text>
</g>
<!-- propose_normal&#45;&gt;raft_group_propose -->
<g id="edge5" class="edge">
<title>propose_normal&#45;&gt;raft_group_propose</title>
<path fill="none" stroke="#666666" d="M303.04,-127.9C321.13,-122.12 341.54,-115.4 360,-108.84 376.18,-103.09 379.59,-99.88 396,-94.84 404.25,-92.31 412.99,-89.91 421.69,-87.71"/>
<polygon fill="#666666" stroke="#666666" points="422.6,-91.09 431.47,-85.3 420.92,-84.29 422.6,-91.09"/>
</g>
<!-- proposals -->
<g id="node7" class="node">
<title>proposals</title>
<path fill="#feed9b" stroke="#f7e495" d="M813,-266.84C813,-266.84 1043,-266.84 1043,-266.84 1049,-266.84 1055,-272.84 1055,-278.84 1055,-278.84 1055,-300.84 1055,-300.84 1055,-306.84 1049,-312.84 1043,-312.84 1043,-312.84 813,-312.84 813,-312.84 807,-312.84 801,-306.84 801,-300.84 801,-300.84 801,-278.84 801,-278.84 801,-272.84 807,-266.84 813,-266.84"/>
<text text-anchor="middle" x="928" y="-297.64" font-family="Times,serif" font-size="14.00" fill="#40575d">proposals</text>
<polyline fill="none" stroke="#f7e495" points="801,-289.84 1055,-289.84 "/>
<text text-anchor="start" x="809" y="-274.64" font-family="Times,serif" font-size="14.00" fill="#40575d">proposals: ProposalQueue&lt;EK::Snapshot&gt;,</text>
</g>
<!-- post_propose&#45;&gt;proposals -->
<g id="edge6" class="edge">
<title>post_propose&#45;&gt;proposals</title>
<path fill="none" stroke="#666666" d="M310.37,-52.72C411.97,-16.82 623.67,40.03 773,-42.84 856.19,-89.01 900.32,-200.87 917.84,-256.83"/>
<polygon fill="#666666" stroke="#666666" points="914.55,-258.04 920.8,-266.59 921.25,-256.01 914.55,-258.04"/>
</g>
<!-- raft_group_ready -->
<g id="node15" class="node">
<title>raft_group_ready</title>
<path fill="none" stroke="#1c2123" d="M738.5,-90.84C738.5,-90.84 652.5,-90.84 652.5,-90.84 646.5,-90.84 640.5,-84.84 640.5,-78.84 640.5,-78.84 640.5,-66.84 640.5,-66.84 640.5,-60.84 646.5,-54.84 652.5,-54.84 652.5,-54.84 738.5,-54.84 738.5,-54.84 744.5,-54.84 750.5,-60.84 750.5,-66.84 750.5,-66.84 750.5,-78.84 750.5,-78.84 750.5,-84.84 744.5,-90.84 738.5,-90.84"/>
<text text-anchor="middle" x="695.5" y="-69.14" font-family="Times,serif" font-size="14.00" fill="#2f3638">raft_group_ready</text>
</g>
<!-- raft_group_propose&#45;&gt;raft_group_ready -->
<g id="edge20" class="edge">
<title>raft_group_propose&#45;&gt;raft_group_ready</title>
<path fill="none" stroke="green" stroke-dasharray="5,2" d="M554.7,-72.84C578.6,-72.84 606.08,-72.84 630.31,-72.84"/>
<polygon fill="green" stroke="green" points="630.47,-76.34 640.47,-72.84 630.47,-69.34 630.47,-76.34"/>
</g>
<!-- Proposal -->
<g id="node8" class="node">
<title>Proposal</title>
<path fill="none" stroke="#1c2123" d="M1106.5,-229.34C1106.5,-229.34 1243.5,-229.34 1243.5,-229.34 1249.5,-229.34 1255.5,-235.34 1255.5,-241.34 1255.5,-241.34 1255.5,-332.34 1255.5,-332.34 1255.5,-338.34 1249.5,-344.34 1243.5,-344.34 1243.5,-344.34 1106.5,-344.34 1106.5,-344.34 1100.5,-344.34 1094.5,-338.34 1094.5,-332.34 1094.5,-332.34 1094.5,-241.34 1094.5,-241.34 1094.5,-235.34 1100.5,-229.34 1106.5,-229.34"/>
<text text-anchor="middle" x="1175" y="-329.14" font-family="Times,serif" font-size="14.00" fill="#2f3638">Proposal</text>
<polyline fill="none" stroke="#1c2123" points="1094.5,-321.34 1255.5,-321.34 "/>
<text text-anchor="start" x="1102.5" y="-306.14" font-family="Times,serif" font-size="14.00" fill="#2f3638">pub is_conf_change: bool,</text>
<polyline fill="none" stroke="#1c2123" points="1094.5,-298.34 1255.5,-298.34 "/>
<text text-anchor="start" x="1102.5" y="-283.14" font-family="Times,serif" font-size="14.00" fill="#2f3638">pub index: u64,</text>
<polyline fill="none" stroke="#1c2123" points="1094.5,-275.34 1255.5,-275.34 "/>
<text text-anchor="start" x="1102.5" y="-260.14" font-family="Times,serif" font-size="14.00" fill="#2f3638">pub term: u64,</text>
<polyline fill="none" stroke="#1c2123" points="1094.5,-252.34 1255.5,-252.34 "/>
<text text-anchor="start" x="1102.5" y="-237.14" font-family="Times,serif" font-size="14.00" fill="#2f3638">pub cb: Callback&lt;S&gt;,</text>
</g>
<!-- proposals&#45;&gt;Proposal -->
<g id="edge7" class="edge">
<title>proposals&#45;&gt;Proposal</title>
<path fill="none" stroke="#666666" d="M1055.09,-288.3C1064.9,-288.18 1074.69,-288.06 1084.19,-287.94"/>
<polygon fill="#666666" stroke="#666666" points="1084.42,-291.44 1094.38,-287.82 1084.34,-284.44 1084.42,-291.44"/>
</g>
<!-- handle_raft_committed_entries -->
<g id="node9" class="node">
<title>handle_raft_committed_entries</title>
<path fill="none" stroke="#1c2123" d="M574.5,-392.84C574.5,-392.84 411.5,-392.84 411.5,-392.84 405.5,-392.84 399.5,-386.84 399.5,-380.84 399.5,-380.84 399.5,-368.84 399.5,-368.84 399.5,-362.84 405.5,-356.84 411.5,-356.84 411.5,-356.84 574.5,-356.84 574.5,-356.84 580.5,-356.84 586.5,-362.84 586.5,-368.84 586.5,-368.84 586.5,-380.84 586.5,-380.84 586.5,-386.84 580.5,-392.84 574.5,-392.84"/>
<text text-anchor="middle" x="493" y="-371.14" font-family="Times,serif" font-size="14.00" fill="#2f3638">handle_raft_committed_entries</text>
</g>
<!-- find_propose_time -->
<g id="node10" class="node">
<title>find_propose_time</title>
<path fill="none" stroke="#1c2123" d="M743,-322.84C743,-322.84 648,-322.84 648,-322.84 642,-322.84 636,-316.84 636,-310.84 636,-310.84 636,-298.84 636,-298.84 636,-292.84 642,-286.84 648,-286.84 648,-286.84 743,-286.84 743,-286.84 749,-286.84 755,-292.84 755,-298.84 755,-298.84 755,-310.84 755,-310.84 755,-316.84 749,-322.84 743,-322.84"/>
<text text-anchor="middle" x="695.5" y="-301.14" font-family="Times,serif" font-size="14.00" fill="#2f3638">find_propose_time</text>
</g>
<!-- handle_raft_committed_entries&#45;&gt;find_propose_time -->
<g id="edge8" class="edge">
<title>handle_raft_committed_entries&#45;&gt;find_propose_time</title>
<path fill="none" stroke="#666666" d="M577.55,-356.79C581.78,-355.54 585.95,-354.22 590,-352.84 610.53,-345.85 632.46,-336.15 650.9,-327.3"/>
<polygon fill="#666666" stroke="#666666" points="652.47,-330.43 659.92,-322.9 649.4,-324.14 652.47,-330.43"/>
</g>
<!-- find_proposal -->
<g id="node11" class="node">
<title>find_proposal</title>
<path fill="none" stroke="#1c2123" d="M729,-391.84C729,-391.84 662,-391.84 662,-391.84 656,-391.84 650,-385.84 650,-379.84 650,-379.84 650,-367.84 650,-367.84 650,-361.84 656,-355.84 662,-355.84 662,-355.84 729,-355.84 729,-355.84 735,-355.84 741,-361.84 741,-367.84 741,-367.84 741,-379.84 741,-379.84 741,-385.84 735,-391.84 729,-391.84"/>
<text text-anchor="middle" x="695.5" y="-370.14" font-family="Times,serif" font-size="14.00" fill="#2f3638">find_proposal</text>
</g>
<!-- handle_raft_committed_entries&#45;&gt;find_proposal -->
<g id="edge9" class="edge">
<title>handle_raft_committed_entries&#45;&gt;find_proposal</title>
<path fill="none" stroke="#666666" d="M586.62,-374.38C604.72,-374.29 623.15,-374.2 639.53,-374.12"/>
<polygon fill="#666666" stroke="#666666" points="640,-377.61 649.98,-374.06 639.96,-370.61 640,-377.61"/>
</g>
<!-- cb_invoke_committed -->
<g id="node12" class="node">
<title>cb_invoke_committed</title>
<path fill="none" stroke="#1c2123" d="M753,-224.84C753,-224.84 638,-224.84 638,-224.84 632,-224.84 626,-218.84 626,-212.84 626,-212.84 626,-200.84 626,-200.84 626,-194.84 632,-188.84 638,-188.84 638,-188.84 753,-188.84 753,-188.84 759,-188.84 765,-194.84 765,-200.84 765,-200.84 765,-212.84 765,-212.84 765,-218.84 759,-224.84 753,-224.84"/>
<text text-anchor="middle" x="695.5" y="-203.14" font-family="Times,serif" font-size="14.00" fill="#2f3638">cb_invoke_committed</text>
</g>
<!-- handle_raft_committed_entries&#45;&gt;cb_invoke_committed -->
<g id="edge10" class="edge">
<title>handle_raft_committed_entries&#45;&gt;cb_invoke_committed</title>
<path fill="none" stroke="#666666" d="M585.32,-356.82C586.95,-355.57 588.51,-354.25 590,-352.84 629.36,-315.67 590.9,-274.9 623.48,-232.67"/>
<polygon fill="#666666" stroke="#666666" points="626.2,-234.88 630.15,-225.05 620.93,-230.27 626.2,-234.88"/>
</g>
<!-- find_propose_time&#45;&gt;proposals -->
<g id="edge12" class="edge">
<title>find_propose_time&#45;&gt;proposals</title>
<path fill="none" stroke="#666666" d="M755.26,-301.02C766.42,-300.29 778.51,-299.5 790.94,-298.7"/>
<polygon fill="#666666" stroke="#666666" points="791.22,-302.18 800.97,-298.04 790.76,-295.2 791.22,-302.18"/>
</g>
<!-- find_proposal&#45;&gt;proposals -->
<g id="edge11" class="edge">
<title>find_proposal&#45;&gt;proposals</title>
<path fill="none" stroke="#666666" d="M733.23,-355.84C753.03,-346.51 778.05,-335.33 801,-326.84 811.15,-323.09 821.87,-319.45 832.6,-316.03"/>
<polygon fill="#666666" stroke="#666666" points="833.94,-319.27 842.43,-312.94 831.84,-312.59 833.94,-319.27"/>
</g>
<!-- Apply -->
<g id="node16" class="node">
<title>Apply</title>
<path fill="none" stroke="#1c2123" d="M837,-335.84C837,-335.84 1019,-335.84 1019,-335.84 1025,-335.84 1031,-341.84 1031,-347.84 1031,-347.84 1031,-399.84 1031,-399.84 1031,-405.84 1025,-411.84 1019,-411.84 1019,-411.84 837,-411.84 837,-411.84 831,-411.84 825,-405.84 825,-399.84 825,-399.84 825,-347.84 825,-347.84 825,-341.84 831,-335.84 837,-335.84"/>
<text text-anchor="middle" x="928" y="-396.64" font-family="Times,serif" font-size="14.00" fill="#2f3638">Apply</text>
<polyline fill="none" stroke="#1c2123" points="825,-388.84 1031,-388.84 "/>
<text text-anchor="start" x="833" y="-373.64" font-family="Times,serif" font-size="14.00" fill="#2f3638">将cb放入apply中</text>
<text text-anchor="start" x="833" y="-358.64" font-family="Times,serif" font-size="14.00" fill="#2f3638"> 由ApplyFsm将write保存到下来</text>
<text text-anchor="start" x="833" y="-343.64" font-family="Times,serif" font-size="14.00" fill="#2f3638"> 保存后调用cb</text>
</g>
<!-- find_proposal&#45;&gt;Apply -->
<g id="edge18" class="edge">
<title>find_proposal&#45;&gt;Apply</title>
<path fill="none" stroke="green" stroke-dasharray="5,2" d="M741.22,-373.84C762.25,-373.84 788.38,-373.84 814.33,-373.84"/>
<polygon fill="green" stroke="green" points="814.65,-377.34 824.65,-373.84 814.65,-370.34 814.65,-377.34"/>
</g>
<!-- collect_ready -->
<g id="node13" class="node">
<title>collect_ready</title>
<path fill="none" stroke="#1c2123" d="M93,-362.84C93,-362.84 28,-362.84 28,-362.84 22,-362.84 16,-356.84 16,-350.84 16,-350.84 16,-338.84 16,-338.84 16,-332.84 22,-326.84 28,-326.84 28,-326.84 93,-326.84 93,-326.84 99,-326.84 105,-332.84 105,-338.84 105,-338.84 105,-350.84 105,-350.84 105,-356.84 99,-362.84 93,-362.84"/>
<text text-anchor="middle" x="60.5" y="-341.14" font-family="Times,serif" font-size="14.00" fill="#2f3638">collect_ready</text>
</g>
<!-- handle_raft_ready_append -->
<g id="node14" class="node">
<title>handle_raft_ready_append</title>
<path fill="none" stroke="#1c2123" d="M319,-362.84C319,-362.84 182,-362.84 182,-362.84 176,-362.84 170,-356.84 170,-350.84 170,-350.84 170,-338.84 170,-338.84 170,-332.84 176,-326.84 182,-326.84 182,-326.84 319,-326.84 319,-326.84 325,-326.84 331,-332.84 331,-338.84 331,-338.84 331,-350.84 331,-350.84 331,-356.84 325,-362.84 319,-362.84"/>
<text text-anchor="middle" x="250.5" y="-341.14" font-family="Times,serif" font-size="14.00" fill="#2f3638">handle_raft_ready_append</text>
</g>
<!-- collect_ready&#45;&gt;handle_raft_ready_append -->
<g id="edge13" class="edge">
<title>collect_ready&#45;&gt;handle_raft_ready_append</title>
<path fill="none" stroke="#666666" d="M105.1,-344.84C121.47,-344.84 140.73,-344.84 159.76,-344.84"/>
<polygon fill="#666666" stroke="#666666" points="159.98,-348.34 169.98,-344.84 159.98,-341.34 159.98,-348.34"/>
</g>
<!-- handle_raft_ready_append&#45;&gt;handle_raft_committed_entries -->
<g id="edge14" class="edge">
<title>handle_raft_ready_append&#45;&gt;handle_raft_committed_entries</title>
<path fill="none" stroke="#666666" d="M331.25,-354.79C349.76,-357.1 369.73,-359.59 389.08,-362"/>
<polygon fill="#666666" stroke="#666666" points="388.77,-365.49 399.13,-363.26 389.64,-358.55 388.77,-365.49"/>
</g>
<!-- handle_raft_ready_append&#45;&gt;raft_group_ready -->
<g id="edge15" class="edge">
<title>handle_raft_ready_append&#45;&gt;raft_group_ready</title>
<path fill="none" stroke="#666666" d="M331.24,-346.53C406.37,-343.92 517.87,-328.64 590,-266.84 622.72,-238.81 606.05,-215.02 626,-176.84 640.45,-149.18 660.39,-119.64 675.03,-99.14"/>
<polygon fill="#666666" stroke="#666666" points="677.94,-101.09 680.95,-90.94 672.26,-97 677.94,-101.09"/>
</g>
<!-- handle_raft_ready_append&#45;&gt;Apply -->
<g id="edge16" class="edge">
<title>handle_raft_ready_append&#45;&gt;Apply</title>
<path fill="none" stroke="#666666" d="M283.26,-362.94C311.75,-378.06 355.22,-398.46 396,-406.84 538.35,-436.09 706.3,-416.92 814.61,-397.8"/>
<polygon fill="#666666" stroke="#666666" points="815.36,-401.22 824.58,-396.01 814.12,-394.33 815.36,-401.22"/>
</g>
<!-- apply_router_schedul_task -->
<g id="node17" class="node">
<title>apply_router_schedul_task</title>
<path fill="none" stroke="#1c2123" d="M408,-291.84C408,-291.84 578,-291.84 578,-291.84 584,-291.84 590,-297.84 590,-303.84 590,-303.84 590,-325.84 590,-325.84 590,-331.84 584,-337.84 578,-337.84 578,-337.84 408,-337.84 408,-337.84 402,-337.84 396,-331.84 396,-325.84 396,-325.84 396,-303.84 396,-303.84 396,-297.84 402,-291.84 408,-291.84"/>
<text text-anchor="middle" x="493" y="-322.64" font-family="Times,serif" font-size="14.00" fill="#2f3638">apply_router.schedul_task</text>
<polyline fill="none" stroke="#1c2123" points="396,-314.84 590,-314.84 "/>
<text text-anchor="start" x="404" y="-299.64" font-family="Times,serif" font-size="14.00" fill="#2f3638">将Apply任务转发至ApplyFsm</text>
</g>
<!-- handle_raft_ready_append&#45;&gt;apply_router_schedul_task -->
<g id="edge17" class="edge">
<title>handle_raft_ready_append&#45;&gt;apply_router_schedul_task</title>
<path fill="none" stroke="#666666" d="M331.25,-334.89C348.67,-332.72 367.37,-330.39 385.65,-328.11"/>
<polygon fill="#666666" stroke="#666666" points="386.25,-331.56 395.74,-326.85 385.38,-324.61 386.25,-331.56"/>
</g>
<!-- apply_router_schedule_task -->
<g id="node18" class="node">
<title>apply_router_schedule_task</title>
<path fill="none" stroke="#1c2123" d="M1247,-398.84C1247,-398.84 1103,-398.84 1103,-398.84 1097,-398.84 1091,-392.84 1091,-386.84 1091,-386.84 1091,-374.84 1091,-374.84 1091,-368.84 1097,-362.84 1103,-362.84 1103,-362.84 1247,-362.84 1247,-362.84 1253,-362.84 1259,-368.84 1259,-374.84 1259,-374.84 1259,-386.84 1259,-386.84 1259,-392.84 1253,-398.84 1247,-398.84"/>
<text text-anchor="middle" x="1175" y="-377.14" font-family="Times,serif" font-size="14.00" fill="#2f3638">apply_router_schedule_task</text>
</g>
<!-- Apply&#45;&gt;apply_router_schedule_task -->
<g id="edge19" class="edge">
<title>Apply&#45;&gt;apply_router_schedule_task</title>
<path fill="none" stroke="#666666" d="M1031.13,-376.76C1047.39,-377.22 1064.15,-377.7 1080.21,-378.16"/>
<polygon fill="#666666" stroke="#666666" points="1080.55,-381.67 1090.65,-378.46 1080.75,-374.68 1080.55,-381.67"/>
</g>
</g>
</svg>
