<?xml version="1.0" encoding="UTF-8" standalone="no"?>
<!DOCTYPE svg PUBLIC "-//W3C//DTD SVG 1.1//EN"
 "http://www.w3.org/Graphics/SVG/1.1/DTD/svg11.dtd">
<!-- Generated by graphviz version 2.47.1 (20210417.1919)
 -->
<!-- Title: raft_core_apply_conf_change Pages: 1 -->
<svg width="1635pt" height="740pt"
 viewBox="0.00 0.00 1635.00 739.50" xmlns="http://www.w3.org/2000/svg" xmlns:xlink="http://www.w3.org/1999/xlink">
<g id="graph0" class="graph" transform="scale(1 1) rotate(0) translate(4 735.5)">
<title>raft_core_apply_conf_change</title>
<polygon fill="white" stroke="transparent" points="-4,4 -4,-735.5 1631,-735.5 1631,4 -4,4"/>
<!-- ConfChangeV2__enter_joint -->
<g id="node1" class="node">
<title>ConfChangeV2__enter_joint</title>
<path fill="none" stroke="#1c2123" d="M235.5,-579C235.5,-579 384.5,-579 384.5,-579 390.5,-579 396.5,-585 396.5,-591 396.5,-591 396.5,-719 396.5,-719 396.5,-725 390.5,-731 384.5,-731 384.5,-731 235.5,-731 235.5,-731 229.5,-731 223.5,-725 223.5,-719 223.5,-719 223.5,-591 223.5,-591 223.5,-585 229.5,-579 235.5,-579"/>
<text text-anchor="middle" x="310" y="-715.8" font-family="Times,serif" font-size="14.00" fill="#2f3638">ConfChangeV2__enter_joint</text>
<polyline fill="none" stroke="#1c2123" points="223.5,-708 396.5,-708 "/>
<text text-anchor="start" x="231.5" y="-692.8" font-family="Times,serif" font-size="14.00" fill="#2f3638">返回是否auto leave</text>
<polyline fill="none" stroke="#1c2123" points="223.5,-685 396.5,-685 "/>
<text text-anchor="start" x="231.5" y="-669.8" font-family="Times,serif" font-size="14.00" fill="#2f3638">将会影响cfg.auto_leave</text>
<polyline fill="none" stroke="#1c2123" points="223.5,-662 396.5,-662 "/>
<text text-anchor="start" x="231.5" y="-646.8" font-family="Times,serif" font-size="14.00" fill="#2f3638">如果auto_leave 为True</text>
<text text-anchor="start" x="231.5" y="-631.8" font-family="Times,serif" font-size="14.00" fill="#2f3638"> 后面在commit_apply时</text>
<text text-anchor="start" x="231.5" y="-616.8" font-family="Times,serif" font-size="14.00" fill="#2f3638"> 会自动append一个空的</text>
<text text-anchor="start" x="231.5" y="-601.8" font-family="Times,serif" font-size="14.00" fill="#2f3638"> EntryConfChangeV2消息</text>
<text text-anchor="start" x="231.5" y="-586.8" font-family="Times,serif" font-size="14.00" fill="#2f3638"> 触发leave_joint</text>
</g>
<!-- RaftCore__apply_conf_change -->
<g id="node2" class="node">
<title>RaftCore__apply_conf_change</title>
<path fill="none" stroke="#1c2123" d="M173,-488C173,-488 12,-488 12,-488 6,-488 0,-482 0,-476 0,-476 0,-464 0,-464 0,-458 6,-452 12,-452 12,-452 173,-452 173,-452 179,-452 185,-458 185,-464 185,-464 185,-476 185,-476 185,-482 179,-488 173,-488"/>
<text text-anchor="middle" x="92.5" y="-466.3" font-family="Times,serif" font-size="14.00" fill="#2f3638">RaftCore__apply_conf_change</text>
</g>
<!-- RaftCore__apply_conf_change&#45;&gt;ConfChangeV2__enter_joint -->
<g id="edge1" class="edge">
<title>RaftCore__apply_conf_change&#45;&gt;ConfChangeV2__enter_joint</title>
<path fill="none" stroke="#666666" d="M114.56,-488.08C138.09,-508.28 177.82,-542.38 215.25,-574.52"/>
<polygon fill="#666666" stroke="#666666" points="213.33,-577.48 223.2,-581.34 217.89,-572.17 213.33,-577.48"/>
</g>
<!-- Changer__enter_joint -->
<g id="node3" class="node">
<title>Changer__enter_joint</title>
<path fill="none" stroke="#1c2123" d="M255,-498.5C255,-498.5 365,-498.5 365,-498.5 371,-498.5 377,-504.5 377,-510.5 377,-510.5 377,-547.5 377,-547.5 377,-553.5 371,-559.5 365,-559.5 365,-559.5 255,-559.5 255,-559.5 249,-559.5 243,-553.5 243,-547.5 243,-547.5 243,-510.5 243,-510.5 243,-504.5 249,-498.5 255,-498.5"/>
<text text-anchor="middle" x="310" y="-544.3" font-family="Times,serif" font-size="14.00" fill="#2f3638">Changer__enter_joint</text>
<polyline fill="none" stroke="#1c2123" points="243,-536.5 377,-536.5 "/>
<text text-anchor="start" x="251" y="-521.3" font-family="Times,serif" font-size="14.00" fill="#2f3638">将incoming复制到</text>
<text text-anchor="start" x="251" y="-506.3" font-family="Times,serif" font-size="14.00" fill="#2f3638"> outgoing</text>
</g>
<!-- RaftCore__apply_conf_change&#45;&gt;Changer__enter_joint -->
<g id="edge2" class="edge">
<title>RaftCore__apply_conf_change&#45;&gt;Changer__enter_joint</title>
<path fill="none" stroke="#666666" d="M159.33,-488.02C182.61,-494.4 208.98,-501.62 233.04,-508.2"/>
<polygon fill="#666666" stroke="#666666" points="232.26,-511.62 242.83,-510.88 234.11,-504.87 232.26,-511.62"/>
</g>
<!-- Changer__simple -->
<g id="node4" class="node">
<title>Changer__simple</title>
<path fill="none" stroke="#1c2123" d="M813.5,-492C813.5,-492 724.5,-492 724.5,-492 718.5,-492 712.5,-486 712.5,-480 712.5,-480 712.5,-468 712.5,-468 712.5,-462 718.5,-456 724.5,-456 724.5,-456 813.5,-456 813.5,-456 819.5,-456 825.5,-462 825.5,-468 825.5,-468 825.5,-480 825.5,-480 825.5,-486 819.5,-492 813.5,-492"/>
<text text-anchor="middle" x="769" y="-470.3" font-family="Times,serif" font-size="14.00" fill="#2f3638">Changer__simple</text>
</g>
<!-- RaftCore__apply_conf_change&#45;&gt;Changer__simple -->
<g id="edge3" class="edge">
<title>RaftCore__apply_conf_change&#45;&gt;Changer__simple</title>
<path fill="none" stroke="#666666" d="M185.17,-470.54C323.24,-471.36 581.26,-472.89 702.23,-473.61"/>
<polygon fill="#666666" stroke="#666666" points="702.43,-477.11 712.45,-473.67 702.47,-470.11 702.43,-477.11"/>
</g>
<!-- ProgressTracker__apply_conf -->
<g id="node5" class="node">
<title>ProgressTracker__apply_conf</title>
<path fill="none" stroke="#1c2123" d="M1260,-503C1260,-503 1415,-503 1415,-503 1421,-503 1427,-509 1427,-515 1427,-515 1427,-537 1427,-537 1427,-543 1421,-549 1415,-549 1415,-549 1260,-549 1260,-549 1254,-549 1248,-543 1248,-537 1248,-537 1248,-515 1248,-515 1248,-509 1254,-503 1260,-503"/>
<text text-anchor="middle" x="1337.5" y="-533.8" font-family="Times,serif" font-size="14.00" fill="#2f3638">ProgressTracker__apply_conf</text>
<polyline fill="none" stroke="#1c2123" points="1248,-526 1427,-526 "/>
<text text-anchor="middle" x="1337.5" y="-510.8" font-family="Times,serif" font-size="14.00" fill="#2f3638">修改conf和progress</text>
</g>
<!-- RaftCore__apply_conf_change&#45;&gt;ProgressTracker__apply_conf -->
<g id="edge4" class="edge">
<title>RaftCore__apply_conf_change&#45;&gt;ProgressTracker__apply_conf</title>
<path fill="none" stroke="#666666" d="M185.34,-456.48C276.79,-444.2 421.28,-428 547,-428 547,-428 547,-428 972,-428 1079,-428 1110.51,-413.12 1212,-447 1244.58,-457.88 1277.21,-479.05 1300.89,-496.75"/>
<polygon fill="#666666" stroke="#666666" points="1298.8,-499.56 1308.87,-502.84 1303.04,-493.99 1298.8,-499.56"/>
</g>
<!-- RaftCore__post_conf_change -->
<g id="node6" class="node">
<title>RaftCore__post_conf_change</title>
<path fill="none" stroke="#1c2123" d="M233,-246C233,-246 387,-246 387,-246 393,-246 399,-252 399,-258 399,-258 399,-280 399,-280 399,-286 393,-292 387,-292 387,-292 233,-292 233,-292 227,-292 221,-286 221,-280 221,-280 221,-258 221,-258 221,-252 227,-246 233,-246"/>
<text text-anchor="middle" x="310" y="-276.8" font-family="Times,serif" font-size="14.00" fill="#2f3638">RaftCore__post_conf_change</text>
<polyline fill="none" stroke="#1c2123" points="221,-269 399,-269 "/>
<text text-anchor="start" x="229" y="-253.8" font-family="Times,serif" font-size="14.00" fill="#2f3638">如果是voter且是leader</text>
</g>
<!-- RaftCore__apply_conf_change&#45;&gt;RaftCore__post_conf_change -->
<g id="edge5" class="edge">
<title>RaftCore__apply_conf_change&#45;&gt;RaftCore__post_conf_change</title>
<path fill="none" stroke="#666666" d="M113,-451.81C150.12,-417.19 231.26,-341.5 276.64,-299.18"/>
<polygon fill="#666666" stroke="#666666" points="279.22,-301.56 284.14,-292.18 274.44,-296.45 279.22,-301.56"/>
</g>
<!-- MapChange -->
<g id="node7" class="node">
<title>MapChange</title>
<path fill="#feed9b" stroke="#f7e495" d="M889,-468C889,-468 1053,-468 1053,-468 1059,-468 1065,-474 1065,-480 1065,-480 1065,-502 1065,-502 1065,-508 1059,-514 1053,-514 1053,-514 889,-514 889,-514 883,-514 877,-508 877,-502 877,-502 877,-480 877,-480 877,-474 883,-468 889,-468"/>
<text text-anchor="middle" x="971" y="-498.8" font-family="Times,serif" font-size="14.00" fill="#40575d">MapChange</text>
<polyline fill="none" stroke="#f7e495" points="877,-491 1065,-491 "/>
<text text-anchor="start" x="885" y="-475.8" font-family="Times,serif" font-size="14.00" fill="#40575d">Vec&lt;(u64, MapChangeType)&gt;;</text>
</g>
<!-- Changer__enter_joint&#45;&gt;MapChange -->
<g id="edge6" class="edge">
<title>Changer__enter_joint&#45;&gt;MapChange</title>
<path fill="none" stroke="green" stroke-dasharray="5,2" d="M377.13,-526.03C477.46,-521.4 674.12,-511.87 841,-501 849.3,-500.46 857.89,-499.87 866.52,-499.25"/>
<polygon fill="green" stroke="green" points="866.94,-502.73 876.66,-498.51 866.43,-495.74 866.94,-502.73"/>
</g>
<!-- Changer__check_and_copy -->
<g id="node9" class="node">
<title>Changer__check_and_copy</title>
<path fill="none" stroke="#1c2123" d="M476.5,-548.5C476.5,-548.5 619.5,-548.5 619.5,-548.5 625.5,-548.5 631.5,-554.5 631.5,-560.5 631.5,-560.5 631.5,-597.5 631.5,-597.5 631.5,-603.5 625.5,-609.5 619.5,-609.5 619.5,-609.5 476.5,-609.5 476.5,-609.5 470.5,-609.5 464.5,-603.5 464.5,-597.5 464.5,-597.5 464.5,-560.5 464.5,-560.5 464.5,-554.5 470.5,-548.5 476.5,-548.5"/>
<text text-anchor="middle" x="548" y="-594.3" font-family="Times,serif" font-size="14.00" fill="#2f3638">Changer__check_and_copy</text>
<polyline fill="none" stroke="#1c2123" points="464.5,-586.5 631.5,-586.5 "/>
<text text-anchor="start" x="472.5" y="-571.3" font-family="Times,serif" font-size="14.00" fill="#2f3638">将ProgressTracker</text>
<text text-anchor="start" x="472.5" y="-556.3" font-family="Times,serif" font-size="14.00" fill="#2f3638"> 的conf clone一份</text>
</g>
<!-- Changer__enter_joint&#45;&gt;Changer__check_and_copy -->
<g id="edge10" class="edge">
<title>Changer__enter_joint&#45;&gt;Changer__check_and_copy</title>
<path fill="none" stroke="#666666" d="M377.05,-542.99C400.99,-548.07 428.5,-553.89 454.31,-559.36"/>
<polygon fill="#666666" stroke="#666666" points="453.6,-562.79 464.11,-561.44 455.05,-555.94 453.6,-562.79"/>
</g>
<!-- Changer__apply -->
<g id="node10" class="node">
<title>Changer__apply</title>
<path fill="none" stroke="#1c2123" d="M709,-556C709,-556 829,-556 829,-556 835,-556 841,-562 841,-568 841,-568 841,-620 841,-620 841,-626 835,-632 829,-632 829,-632 709,-632 709,-632 703,-632 697,-626 697,-620 697,-620 697,-568 697,-568 697,-562 703,-556 709,-556"/>
<text text-anchor="middle" x="769" y="-616.8" font-family="Times,serif" font-size="14.00" fill="#2f3638">Changer__apply</text>
<polyline fill="none" stroke="#1c2123" points="697,-609 841,-609 "/>
<text text-anchor="start" x="705" y="-593.8" font-family="Times,serif" font-size="14.00" fill="#2f3638">将修改apply到copy的</text>
<text text-anchor="start" x="705" y="-578.8" font-family="Times,serif" font-size="14.00" fill="#2f3638"> ProgressTracker </text>
<text text-anchor="start" x="705" y="-563.8" font-family="Times,serif" font-size="14.00" fill="#2f3638"> Configuration上</text>
</g>
<!-- Changer__enter_joint&#45;&gt;Changer__apply -->
<g id="edge11" class="edge">
<title>Changer__enter_joint&#45;&gt;Changer__apply</title>
<path fill="none" stroke="#666666" d="M377.18,-554.43C384.91,-558.72 392.38,-563.57 399,-569 420.18,-586.36 410.63,-606.52 435,-619 513.6,-659.26 616.57,-642.76 687.08,-622.79"/>
<polygon fill="#666666" stroke="#666666" points="688.18,-626.11 696.8,-619.95 686.22,-619.39 688.18,-626.11"/>
</g>
<!-- Changer__simple&#45;&gt;MapChange -->
<g id="edge7" class="edge">
<title>Changer__simple&#45;&gt;MapChange</title>
<path fill="none" stroke="green" stroke-dasharray="5,2" d="M825.71,-478.74C838.45,-479.82 852.4,-481 866.44,-482.2"/>
<polygon fill="green" stroke="green" points="866.4,-485.71 876.66,-483.07 866.99,-478.73 866.4,-485.71"/>
</g>
<!-- ProgressTracker__progress -->
<g id="node14" class="node">
<title>ProgressTracker__progress</title>
<path fill="none" stroke="#1c2123" d="M1615,-544C1615,-544 1475,-544 1475,-544 1469,-544 1463,-538 1463,-532 1463,-532 1463,-520 1463,-520 1463,-514 1469,-508 1475,-508 1475,-508 1615,-508 1615,-508 1621,-508 1627,-514 1627,-520 1627,-520 1627,-532 1627,-532 1627,-538 1621,-544 1615,-544"/>
<text text-anchor="middle" x="1545" y="-522.3" font-family="Times,serif" font-size="14.00" fill="#2f3638">ProgressTracker__progress</text>
</g>
<!-- ProgressTracker__apply_conf&#45;&gt;ProgressTracker__progress -->
<g id="edge20" class="edge">
<title>ProgressTracker__apply_conf&#45;&gt;ProgressTracker__progress</title>
<path fill="none" stroke="#666666" d="M1427.14,-526C1435.56,-526 1444.11,-526 1452.55,-526"/>
<polygon fill="#666666" stroke="#666666" points="1452.78,-529.5 1462.78,-526 1452.78,-522.5 1452.78,-529.5"/>
</g>
<!-- ProgressTracker__conf -->
<g id="node15" class="node">
<title>ProgressTracker__conf</title>
<path fill="none" stroke="#1c2123" d="M1604.5,-463C1604.5,-463 1485.5,-463 1485.5,-463 1479.5,-463 1473.5,-457 1473.5,-451 1473.5,-451 1473.5,-439 1473.5,-439 1473.5,-433 1479.5,-427 1485.5,-427 1485.5,-427 1604.5,-427 1604.5,-427 1610.5,-427 1616.5,-433 1616.5,-439 1616.5,-439 1616.5,-451 1616.5,-451 1616.5,-457 1610.5,-463 1604.5,-463"/>
<text text-anchor="middle" x="1545" y="-441.3" font-family="Times,serif" font-size="14.00" fill="#2f3638">ProgressTracker__conf</text>
</g>
<!-- ProgressTracker__apply_conf&#45;&gt;ProgressTracker__conf -->
<g id="edge21" class="edge">
<title>ProgressTracker__apply_conf&#45;&gt;ProgressTracker__conf</title>
<path fill="none" stroke="#666666" d="M1397.11,-502.9C1425.89,-491.55 1460.37,-477.96 1488.69,-466.8"/>
<polygon fill="#666666" stroke="#666666" points="1490.02,-470.04 1498.04,-463.11 1487.46,-463.53 1490.02,-470.04"/>
</g>
<!-- RaftCore__post_conf_change&#45;&gt;ProgressTracker__conf -->
<g id="edge22" class="edge">
<title>RaftCore__post_conf_change&#45;&gt;ProgressTracker__conf</title>
<path fill="none" stroke="#666666" d="M330.63,-292.15C353.03,-316.72 392.16,-354.25 435,-371 573.06,-424.98 619.76,-390 768,-390 768,-390 768,-390 1157.5,-390 1263.88,-390 1385.1,-410.67 1462.97,-426.67"/>
<polygon fill="#666666" stroke="#666666" points="1462.69,-430.19 1473.19,-428.8 1464.12,-423.33 1462.69,-430.19"/>
</g>
<!-- RaftCore__maybe_commit -->
<g id="node16" class="node">
<title>RaftCore__maybe_commit</title>
<path fill="none" stroke="#1c2123" d="M466,-270.5C466,-270.5 630,-270.5 630,-270.5 636,-270.5 642,-276.5 642,-282.5 642,-282.5 642,-349.5 642,-349.5 642,-355.5 636,-361.5 630,-361.5 630,-361.5 466,-361.5 466,-361.5 460,-361.5 454,-355.5 454,-349.5 454,-349.5 454,-282.5 454,-282.5 454,-276.5 460,-270.5 466,-270.5"/>
<text text-anchor="middle" x="548" y="-346.3" font-family="Times,serif" font-size="14.00" fill="#2f3638">RaftCore__maybe_commit</text>
<polyline fill="none" stroke="#1c2123" points="454,-338.5 642,-338.5 "/>
<text text-anchor="start" x="462" y="-323.3" font-family="Times,serif" font-size="14.00" fill="#2f3638">conf change 说明有更多的</text>
<text text-anchor="start" x="462" y="-308.3" font-family="Times,serif" font-size="14.00" fill="#2f3638"> log entries are committed now</text>
<text text-anchor="start" x="462" y="-293.3" font-family="Times,serif" font-size="14.00" fill="#2f3638"> bcast/append to every in the </text>
<text text-anchor="start" x="462" y="-278.3" font-family="Times,serif" font-size="14.00" fill="#2f3638"> updated config</text>
</g>
<!-- RaftCore__post_conf_change&#45;&gt;RaftCore__maybe_commit -->
<g id="edge23" class="edge">
<title>RaftCore__post_conf_change&#45;&gt;RaftCore__maybe_commit</title>
<path fill="none" stroke="#666666" d="M399.21,-286.57C413.68,-289.45 428.79,-292.46 443.58,-295.4"/>
<polygon fill="#666666" stroke="#666666" points="443.27,-298.91 453.76,-297.43 444.64,-292.05 443.27,-298.91"/>
</g>
<!-- RaftCore__bcast_append -->
<g id="node17" class="node">
<title>RaftCore__bcast_append</title>
<path fill="none" stroke="#1c2123" d="M480.5,-190.5C480.5,-190.5 615.5,-190.5 615.5,-190.5 621.5,-190.5 627.5,-196.5 627.5,-202.5 627.5,-202.5 627.5,-239.5 627.5,-239.5 627.5,-245.5 621.5,-251.5 615.5,-251.5 615.5,-251.5 480.5,-251.5 480.5,-251.5 474.5,-251.5 468.5,-245.5 468.5,-239.5 468.5,-239.5 468.5,-202.5 468.5,-202.5 468.5,-196.5 474.5,-190.5 480.5,-190.5"/>
<text text-anchor="middle" x="548" y="-236.3" font-family="Times,serif" font-size="14.00" fill="#2f3638">RaftCore__bcast_append</text>
<polyline fill="none" stroke="#1c2123" points="468.5,-228.5 627.5,-228.5 "/>
<text text-anchor="start" x="476.5" y="-213.3" font-family="Times,serif" font-size="14.00" fill="#2f3638">向新配置中的所有成员</text>
<text text-anchor="start" x="476.5" y="-198.3" font-family="Times,serif" font-size="14.00" fill="#2f3638"> 发送append消息</text>
</g>
<!-- RaftCore__post_conf_change&#45;&gt;RaftCore__bcast_append -->
<g id="edge24" class="edge">
<title>RaftCore__post_conf_change&#45;&gt;RaftCore__bcast_append</title>
<path fill="none" stroke="#666666" d="M399.21,-251.06C418.5,-247.14 438.92,-242.98 458.23,-239.05"/>
<polygon fill="#666666" stroke="#666666" points="459.12,-242.45 468.22,-237.02 457.72,-235.59 459.12,-242.45"/>
</g>
<!-- RaftCore__abort_leader_transfer -->
<g id="node18" class="node">
<title>RaftCore__abort_leader_transfer</title>
<path fill="none" stroke="#1c2123" d="M462.5,-80.5C462.5,-80.5 633.5,-80.5 633.5,-80.5 639.5,-80.5 645.5,-86.5 645.5,-92.5 645.5,-92.5 645.5,-159.5 645.5,-159.5 645.5,-165.5 639.5,-171.5 633.5,-171.5 633.5,-171.5 462.5,-171.5 462.5,-171.5 456.5,-171.5 450.5,-165.5 450.5,-159.5 450.5,-159.5 450.5,-92.5 450.5,-92.5 450.5,-86.5 456.5,-80.5 462.5,-80.5"/>
<text text-anchor="middle" x="548" y="-156.3" font-family="Times,serif" font-size="14.00" fill="#2f3638">RaftCore__abort_leader_transfer</text>
<polyline fill="none" stroke="#1c2123" points="450.5,-148.5 645.5,-148.5 "/>
<text text-anchor="start" x="458.5" y="-133.3" font-family="Times,serif" font-size="14.00" fill="#2f3638">新的配置的voters中</text>
<text text-anchor="start" x="458.5" y="-118.3" font-family="Times,serif" font-size="14.00" fill="#2f3638"> 没有当前leader</text>
<text text-anchor="start" x="458.5" y="-103.3" font-family="Times,serif" font-size="14.00" fill="#2f3638"> leader 准备开始transfer</text>
<text text-anchor="start" x="458.5" y="-88.3" font-family="Times,serif" font-size="14.00" fill="#2f3638"> leader</text>
</g>
<!-- RaftCore__post_conf_change&#45;&gt;RaftCore__abort_leader_transfer -->
<g id="edge25" class="edge">
<title>RaftCore__post_conf_change&#45;&gt;RaftCore__abort_leader_transfer</title>
<path fill="none" stroke="#666666" d="M340.66,-245.9C365.23,-227.27 401.43,-200.98 435,-181 437.49,-179.52 440.02,-178.04 442.59,-176.58"/>
<polygon fill="#666666" stroke="#666666" points="444.41,-179.57 451.42,-171.63 440.99,-173.46 444.41,-179.57"/>
</g>
<!-- RaftCore__handle_ready_ready_index -->
<g id="node19" class="node">
<title>RaftCore__handle_ready_ready_index</title>
<path fill="none" stroke="#1c2123" d="M447,-0.5C447,-0.5 649,-0.5 649,-0.5 655,-0.5 661,-6.5 661,-12.5 661,-12.5 661,-49.5 661,-49.5 661,-55.5 655,-61.5 649,-61.5 649,-61.5 447,-61.5 447,-61.5 441,-61.5 435,-55.5 435,-49.5 435,-49.5 435,-12.5 435,-12.5 435,-6.5 441,-0.5 447,-0.5"/>
<text text-anchor="middle" x="548" y="-46.3" font-family="Times,serif" font-size="14.00" fill="#2f3638">RaftCore__handle_ready_ready_index</text>
<polyline fill="none" stroke="#1c2123" points="435,-38.5 661,-38.5 "/>
<text text-anchor="start" x="443" y="-23.3" font-family="Times,serif" font-size="14.00" fill="#2f3638">检查Prs__has_quorum</text>
<text text-anchor="start" x="443" y="-8.3" font-family="Times,serif" font-size="14.00" fill="#2f3638"> 处理read index</text>
</g>
<!-- RaftCore__post_conf_change&#45;&gt;RaftCore__handle_ready_ready_index -->
<g id="edge26" class="edge">
<title>RaftCore__post_conf_change&#45;&gt;RaftCore__handle_ready_ready_index</title>
<path fill="none" stroke="#666666" d="M319.5,-245.93C335.73,-204.96 374.94,-119.29 435,-71 436.6,-69.71 438.24,-68.47 439.93,-67.26"/>
<polygon fill="#666666" stroke="#666666" points="442.2,-69.95 448.63,-61.54 438.35,-64.1 442.2,-69.95"/>
</g>
<!-- MapChange&#45;&gt;ProgressTracker__apply_conf -->
<g id="edge8" class="edge">
<title>MapChange&#45;&gt;ProgressTracker__apply_conf</title>
<path fill="none" stroke="green" stroke-dasharray="5,2" d="M1026.53,-514.04C1049.14,-522.41 1075.91,-530.84 1101,-535 1145.56,-542.39 1195.49,-541.73 1237.86,-538.59"/>
<polygon fill="green" stroke="green" points="1238.21,-542.08 1247.9,-537.79 1237.65,-535.1 1238.21,-542.08"/>
</g>
<!-- MapChangeType -->
<g id="node8" class="node">
<title>MapChangeType</title>
<path fill="none" stroke="#1c2123" d="M1113,-456.5C1113,-456.5 1200,-456.5 1200,-456.5 1206,-456.5 1212,-462.5 1212,-468.5 1212,-468.5 1212,-513.5 1212,-513.5 1212,-519.5 1206,-525.5 1200,-525.5 1200,-525.5 1113,-525.5 1113,-525.5 1107,-525.5 1101,-519.5 1101,-513.5 1101,-513.5 1101,-468.5 1101,-468.5 1101,-462.5 1107,-456.5 1113,-456.5"/>
<text text-anchor="middle" x="1156.5" y="-510.3" font-family="Times,serif" font-size="14.00" fill="#2f3638">MapChangeType</text>
<polyline fill="none" stroke="#1c2123" points="1101,-502.5 1212,-502.5 "/>
<text text-anchor="start" x="1109" y="-487.3" font-family="Times,serif" font-size="14.00" fill="#2f3638">Add,</text>
<polyline fill="none" stroke="#1c2123" points="1101,-479.5 1212,-479.5 "/>
<text text-anchor="start" x="1109" y="-464.3" font-family="Times,serif" font-size="14.00" fill="#2f3638">Remove</text>
</g>
<!-- MapChange&#45;&gt;MapChangeType -->
<g id="edge9" class="edge">
<title>MapChange&#45;&gt;MapChangeType</title>
<path fill="none" stroke="#666666" d="M1065.09,-491C1073.8,-491 1082.49,-491 1090.84,-491"/>
<polygon fill="#666666" stroke="#666666" points="1090.85,-494.5 1100.85,-491 1090.85,-487.5 1090.85,-494.5"/>
</g>
<!-- Changer__check_and_copy&#45;&gt;Changer__apply -->
<g id="edge16" class="edge">
<title>Changer__check_and_copy&#45;&gt;Changer__apply</title>
<path fill="none" stroke="green" stroke-dasharray="5,2" d="M631.79,-584.67C649.8,-585.9 668.83,-587.21 686.78,-588.44"/>
<polygon fill="green" stroke="green" points="686.69,-591.94 696.91,-589.13 687.17,-584.96 686.69,-591.94"/>
</g>
<!-- Changer__apply&#45;&gt;MapChange -->
<g id="edge19" class="edge">
<title>Changer__apply&#45;&gt;MapChange</title>
<path fill="none" stroke="green" stroke-dasharray="5,2" d="M829.04,-555.85C844.39,-546.57 861.08,-537.02 877,-529 884.39,-525.28 892.23,-521.63 900.11,-518.15"/>
<polygon fill="green" stroke="green" points="901.55,-521.34 909.34,-514.16 898.78,-514.92 901.55,-521.34"/>
</g>
<!-- Changer__make_voter -->
<g id="node11" class="node">
<title>Changer__make_voter</title>
<path fill="none" stroke="#1c2123" d="M908,-651.5C908,-651.5 1034,-651.5 1034,-651.5 1040,-651.5 1046,-657.5 1046,-663.5 1046,-663.5 1046,-700.5 1046,-700.5 1046,-706.5 1040,-712.5 1034,-712.5 1034,-712.5 908,-712.5 908,-712.5 902,-712.5 896,-706.5 896,-700.5 896,-700.5 896,-663.5 896,-663.5 896,-657.5 902,-651.5 908,-651.5"/>
<text text-anchor="middle" x="971" y="-697.3" font-family="Times,serif" font-size="14.00" fill="#2f3638">Changer__make_voter</text>
<polyline fill="none" stroke="#1c2123" points="896,-689.5 1046,-689.5 "/>
<text text-anchor="start" x="904" y="-674.3" font-family="Times,serif" font-size="14.00" fill="#2f3638">向clone的配置的voters</text>
<text text-anchor="start" x="904" y="-659.3" font-family="Times,serif" font-size="14.00" fill="#2f3638"> 插入节点id</text>
</g>
<!-- Changer__apply&#45;&gt;Changer__make_voter -->
<g id="edge12" class="edge">
<title>Changer__apply&#45;&gt;Changer__make_voter</title>
<path fill="none" stroke="#666666" d="M841.01,-626.04C853.01,-631.4 865.35,-636.88 877,-642 881.05,-643.78 885.2,-645.59 889.39,-647.42"/>
<polygon fill="#666666" stroke="#666666" points="888.05,-650.65 898.61,-651.43 890.84,-644.23 888.05,-650.65"/>
</g>
<!-- Changer__make_learner -->
<g id="node12" class="node">
<title>Changer__make_learner</title>
<path fill="none" stroke="#1c2123" d="M908,-571.5C908,-571.5 1034,-571.5 1034,-571.5 1040,-571.5 1046,-577.5 1046,-583.5 1046,-583.5 1046,-620.5 1046,-620.5 1046,-626.5 1040,-632.5 1034,-632.5 1034,-632.5 908,-632.5 908,-632.5 902,-632.5 896,-626.5 896,-620.5 896,-620.5 896,-583.5 896,-583.5 896,-577.5 902,-571.5 908,-571.5"/>
<text text-anchor="middle" x="971" y="-617.3" font-family="Times,serif" font-size="14.00" fill="#2f3638">Changer__make_learner</text>
<polyline fill="none" stroke="#1c2123" points="896,-609.5 1046,-609.5 "/>
<text text-anchor="start" x="904" y="-594.3" font-family="Times,serif" font-size="14.00" fill="#2f3638">向clone的配置learners</text>
<text text-anchor="start" x="904" y="-579.3" font-family="Times,serif" font-size="14.00" fill="#2f3638"> 节点中插入节点id</text>
</g>
<!-- Changer__apply&#45;&gt;Changer__make_learner -->
<g id="edge13" class="edge">
<title>Changer__apply&#45;&gt;Changer__make_learner</title>
<path fill="none" stroke="#666666" d="M841.08,-596.84C855.49,-597.42 870.78,-598.03 885.6,-598.62"/>
<polygon fill="#666666" stroke="#666666" points="885.64,-602.13 895.77,-599.03 885.92,-595.13 885.64,-602.13"/>
</g>
<!-- NewConfig -->
<g id="node13" class="node">
<title>NewConfig</title>
<path fill="none" stroke="#1c2123" d="M1115.5,-583C1115.5,-583 1197.5,-583 1197.5,-583 1203.5,-583 1209.5,-589 1209.5,-595 1209.5,-595 1209.5,-609 1209.5,-609 1209.5,-615 1203.5,-621 1197.5,-621 1197.5,-621 1115.5,-621 1115.5,-621 1109.5,-621 1103.5,-615 1103.5,-609 1103.5,-609 1103.5,-595 1103.5,-595 1103.5,-589 1109.5,-583 1115.5,-583"/>
<text text-anchor="start" x="1111.5" y="-605.8" font-family="Times,serif" font-size="14.00" fill="#2f3638">Clone修改后的</text>
<text text-anchor="start" x="1111.5" y="-590.8" font-family="Times,serif" font-size="14.00" fill="#2f3638"> Configuration</text>
</g>
<!-- Changer__apply&#45;&gt;NewConfig -->
<g id="edge17" class="edge">
<title>Changer__apply&#45;&gt;NewConfig</title>
<path fill="none" stroke="#666666" d="M841.01,-569.64C852.9,-566.47 865.2,-563.73 877,-562 959.68,-549.9 983.25,-544.74 1065,-562 1080.99,-565.38 1097.6,-571.77 1112.16,-578.47"/>
<polygon fill="#666666" stroke="#666666" points="1110.87,-581.73 1121.4,-582.89 1113.89,-575.42 1110.87,-581.73"/>
</g>
<!-- Changer__make_voter&#45;&gt;NewConfig -->
<g id="edge14" class="edge">
<title>Changer__make_voter&#45;&gt;NewConfig</title>
<path fill="none" stroke="#666666" d="M1043.12,-651.5C1050.51,-648.3 1057.91,-645.09 1065,-642 1077.42,-636.58 1090.78,-630.71 1103.32,-625.17"/>
<polygon fill="#666666" stroke="#666666" points="1104.99,-628.26 1112.72,-621.01 1102.16,-621.85 1104.99,-628.26"/>
</g>
<!-- Changer__make_learner&#45;&gt;NewConfig -->
<g id="edge15" class="edge">
<title>Changer__make_learner&#45;&gt;NewConfig</title>
<path fill="none" stroke="#666666" d="M1046.11,-602C1061.71,-602 1078.01,-602 1093.13,-602"/>
<polygon fill="#666666" stroke="#666666" points="1093.38,-605.5 1103.38,-602 1093.38,-598.5 1093.38,-605.5"/>
</g>
<!-- NewConfig&#45;&gt;ProgressTracker__apply_conf -->
<g id="edge18" class="edge">
<title>NewConfig&#45;&gt;ProgressTracker__apply_conf</title>
<path fill="none" stroke="#666666" d="M1202.67,-582.82C1223.88,-573.82 1249.53,-562.93 1272.68,-553.1"/>
<polygon fill="#666666" stroke="#666666" points="1274.25,-556.23 1282.09,-549.1 1271.52,-549.79 1274.25,-556.23"/>
</g>
</g>
</svg>
