<?xml version="1.0" encoding="UTF-8" standalone="no"?>
<!DOCTYPE svg PUBLIC "-//W3C//DTD SVG 1.1//EN"
 "http://www.w3.org/Graphics/SVG/1.1/DTD/svg11.dtd">
<!-- Generated by graphviz version 2.44.1 (20200629.0846)
 -->
<!-- Title: spawn Pages: 1 -->
<svg width="2392pt" height="506pt"
 viewBox="0.00 0.00 2392.00 506.00" xmlns="http://www.w3.org/2000/svg" xmlns:xlink="http://www.w3.org/1999/xlink">
<g id="graph0" class="graph" transform="scale(1 1) rotate(0) translate(4 502)">
<title>spawn</title>
<polygon fill="white" stroke="transparent" points="-4,4 -4,-502 2388,-502 2388,4 -4,4"/>
<g id="clust1" class="cluster">
<title>cluster_PeerFsm</title>
<path fill="none" stroke="slategrey" stroke-dasharray="5,2" d="M291.5,-8C291.5,-8 989,-8 989,-8 995,-8 1001,-14 1001,-20 1001,-20 1001,-170 1001,-170 1001,-176 995,-182 989,-182 989,-182 291.5,-182 291.5,-182 285.5,-182 279.5,-176 279.5,-170 279.5,-170 279.5,-20 279.5,-20 279.5,-14 285.5,-8 291.5,-8"/>
<text text-anchor="middle" x="640.25" y="-162" font-family="Times,serif" font-size="20.00">PeerFsm</text>
</g>
<g id="clust5" class="cluster">
<title>cluster_RaftPollerBuilder</title>
<path fill="none" stroke="slategrey" stroke-dasharray="5,2" d="M110,-190C110,-190 396,-190 396,-190 402,-190 408,-196 408,-202 408,-202 408,-260 408,-260 408,-266 402,-272 396,-272 396,-272 110,-272 110,-272 104,-272 98,-266 98,-260 98,-260 98,-202 98,-202 98,-196 104,-190 110,-190"/>
<text text-anchor="middle" x="253" y="-252" font-family="Times,serif" font-size="20.00">RaftPollerBuilder</text>
</g>
<g id="clust7" class="cluster">
<title>cluster_RaftBatchSystem</title>
<path fill="none" stroke="slategrey" stroke-dasharray="5,2" d="M20,-280C20,-280 2364,-280 2364,-280 2370,-280 2376,-286 2376,-292 2376,-292 2376,-478 2376,-478 2376,-484 2370,-490 2364,-490 2364,-490 20,-490 20,-490 14,-490 8,-484 8,-478 8,-478 8,-292 8,-292 8,-286 14,-280 20,-280"/>
<text text-anchor="middle" x="1192" y="-470" font-family="Times,serif" font-size="20.00">RaftBatchSystem</text>
</g>
<g id="clust11" class="cluster">
<title>cluster_Router</title>
<path fill="none" stroke="slategrey" stroke-dasharray="5,2" d="M1892,-290C1892,-290 2356,-290 2356,-290 2362,-290 2368,-296 2368,-302 2368,-302 2368,-410 2368,-410 2368,-416 2362,-422 2356,-422 2356,-422 1892,-422 1892,-422 1886,-422 1880,-416 1880,-410 1880,-410 1880,-302 1880,-302 1880,-296 1886,-290 1892,-290"/>
<text text-anchor="middle" x="2124" y="-402" font-family="Times,serif" font-size="20.00">Router</text>
</g>
<!-- PeerFsm_create -->
<g id="node1" class="node">
<title>PeerFsm_create</title>
<path fill="none" stroke="#1c2123" d="M379.5,-137C379.5,-137 299.5,-137 299.5,-137 293.5,-137 287.5,-131 287.5,-125 287.5,-125 287.5,-113 287.5,-113 287.5,-107 293.5,-101 299.5,-101 299.5,-101 379.5,-101 379.5,-101 385.5,-101 391.5,-107 391.5,-113 391.5,-113 391.5,-125 391.5,-125 391.5,-131 385.5,-137 379.5,-137"/>
<text text-anchor="middle" x="339.5" y="-115.3" font-family="Times,serif" font-size="14.00" fill="#2f3638">PeerFsm_create</text>
</g>
<!-- loose_bounded -->
<g id="node2" class="node">
<title>loose_bounded</title>
<path fill="none" stroke="#1c2123" d="M522,-131C522,-131 448,-131 448,-131 442,-131 436,-125 436,-119 436,-119 436,-107 436,-107 436,-101 442,-95 448,-95 448,-95 522,-95 522,-95 528,-95 534,-101 534,-107 534,-107 534,-119 534,-119 534,-125 528,-131 522,-131"/>
<text text-anchor="middle" x="485" y="-109.3" font-family="Times,serif" font-size="14.00" fill="#2f3638">loose_bounded</text>
</g>
<!-- PeerFsm_create&#45;&gt;loose_bounded -->
<g id="edge1" class="edge">
<title>PeerFsm_create&#45;&gt;loose_bounded</title>
<path fill="none" stroke="#666666" d="M391.9,-116.85C402.86,-116.39 414.51,-115.91 425.71,-115.44"/>
<polygon fill="#666666" stroke="#666666" points="425.99,-118.93 435.83,-115.01 425.69,-111.93 425.99,-118.93"/>
</g>
<!-- tx -->
<g id="node3" class="node">
<title>tx</title>
<path fill="#feed9b" stroke="#f7e495" d="M833,-16.5C833,-16.5 910,-16.5 910,-16.5 916,-16.5 922,-22.5 922,-28.5 922,-28.5 922,-65.5 922,-65.5 922,-71.5 916,-77.5 910,-77.5 910,-77.5 833,-77.5 833,-77.5 827,-77.5 821,-71.5 821,-65.5 821,-65.5 821,-28.5 821,-28.5 821,-22.5 827,-16.5 833,-16.5"/>
<text text-anchor="middle" x="871.5" y="-62.3" font-family="Times,serif" font-size="14.00" fill="#40575d">tx</text>
<polyline fill="none" stroke="#f7e495" points="821,-54.5 922,-54.5 "/>
<text text-anchor="start" x="829" y="-39.3" font-family="Times,serif" font-size="14.00" fill="#40575d">channel发送端</text>
<text text-anchor="start" x="829" y="-24.3" font-family="Times,serif" font-size="14.00" fill="#40575d"> 返回给上层</text>
</g>
<!-- loose_bounded&#45;&gt;tx -->
<g id="edge2" class="edge">
<title>loose_bounded&#45;&gt;tx</title>
<path fill="none" stroke="#666666" d="M517.27,-94.81C532.65,-86.74 551.76,-77.96 570,-73 651.33,-50.9 749.16,-46.31 810.61,-45.95"/>
<polygon fill="#666666" stroke="#666666" points="810.91,-49.45 820.9,-45.93 810.89,-42.45 810.91,-49.45"/>
</g>
<!-- rx -->
<g id="node4" class="node">
<title>rx</title>
<path fill="#feed9b" stroke="#f7e495" d="M582,-82.5C582,-82.5 702,-82.5 702,-82.5 708,-82.5 714,-88.5 714,-94.5 714,-94.5 714,-131.5 714,-131.5 714,-137.5 708,-143.5 702,-143.5 702,-143.5 582,-143.5 582,-143.5 576,-143.5 570,-137.5 570,-131.5 570,-131.5 570,-94.5 570,-94.5 570,-88.5 576,-82.5 582,-82.5"/>
<text text-anchor="middle" x="642" y="-128.3" font-family="Times,serif" font-size="14.00" fill="#40575d">rx</text>
<polyline fill="none" stroke="#f7e495" points="570,-120.5 714,-120.5 "/>
<text text-anchor="start" x="578" y="-105.3" font-family="Times,serif" font-size="14.00" fill="#40575d">rx channel接收端</text>
<text text-anchor="middle" x="642" y="-90.3" font-family="Times,serif" font-size="14.00" fill="#40575d"> 放到PeerFsm reciever</text>
</g>
<!-- loose_bounded&#45;&gt;rx -->
<g id="edge3" class="edge">
<title>loose_bounded&#45;&gt;rx</title>
<path fill="none" stroke="#666666" d="M534.19,-113C542.31,-113 550.92,-113 559.6,-113"/>
<polygon fill="#666666" stroke="#666666" points="559.79,-116.5 569.79,-113 559.79,-109.5 559.79,-116.5"/>
</g>
<!-- region_peers -->
<g id="node6" class="node">
<title>region_peers</title>
<path fill="#feed9b" stroke="#f7e495" d="M1041,-288.5C1041,-288.5 1188,-288.5 1188,-288.5 1194,-288.5 1200,-294.5 1200,-300.5 1200,-300.5 1200,-337.5 1200,-337.5 1200,-343.5 1194,-349.5 1188,-349.5 1188,-349.5 1041,-349.5 1041,-349.5 1035,-349.5 1029,-343.5 1029,-337.5 1029,-337.5 1029,-300.5 1029,-300.5 1029,-294.5 1035,-288.5 1041,-288.5"/>
<text text-anchor="middle" x="1114.5" y="-334.3" font-family="Times,serif" font-size="14.00" fill="#40575d">region_peers</text>
<polyline fill="none" stroke="#f7e495" points="1029,-326.5 1200,-326.5 "/>
<text text-anchor="start" x="1037" y="-311.3" font-family="Times,serif" font-size="14.00" fill="#40575d">Result&lt;Vec&lt;SenderFsmPair</text>
<text text-anchor="start" x="1037" y="-296.3" font-family="Times,serif" font-size="14.00" fill="#40575d"> &lt;EK, ER&gt;&gt;&gt;</text>
</g>
<!-- tx&#45;&gt;region_peers -->
<g id="edge5" class="edge">
<title>tx&#45;&gt;region_peers</title>
<path fill="none" stroke="green" stroke-dasharray="5,2" d="M922.19,-51.71C948.61,-56.62 979.91,-66.63 1001,-87 1028.1,-113.17 1013.57,-132.63 1029,-167 1046.71,-206.44 1071.04,-249.31 1089.05,-279.44"/>
<polygon fill="green" stroke="green" points="1086.27,-281.6 1094.42,-288.36 1092.26,-277.99 1086.27,-281.6"/>
</g>
<!-- router_register_all -->
<g id="node12" class="node">
<title>router_register_all</title>
<path fill="none" stroke="#1c2123" d="M1900,-303C1900,-303 2086,-303 2086,-303 2092,-303 2098,-309 2098,-315 2098,-315 2098,-367 2098,-367 2098,-373 2092,-379 2086,-379 2086,-379 1900,-379 1900,-379 1894,-379 1888,-373 1888,-367 1888,-367 1888,-315 1888,-315 1888,-309 1894,-303 1900,-303"/>
<text text-anchor="middle" x="1993" y="-363.8" font-family="Times,serif" font-size="14.00" fill="#2f3638">router_register_all</text>
<polyline fill="none" stroke="#1c2123" points="1888,-356 2098,-356 "/>
<text text-anchor="start" x="1896" y="-340.8" font-family="Times,serif" font-size="14.00" fill="#2f3638">填充router.normals hashmap</text>
<text text-anchor="start" x="1896" y="-325.8" font-family="Times,serif" font-size="14.00" fill="#2f3638"> key为region_id</text>
<text text-anchor="start" x="1896" y="-310.8" font-family="Times,serif" font-size="14.00" fill="#2f3638"> value为包装了tx的BasicMailBox</text>
</g>
<!-- tx&#45;&gt;router_register_all -->
<g id="edge21" class="edge">
<title>tx&#45;&gt;router_register_all</title>
<path fill="none" stroke="#666666" d="M922.18,-61.52C1022.29,-90.55 1241.8,-153 1277.5,-153 1277.5,-153 1277.5,-153 1660,-153 1775.61,-153 1887.9,-240.39 1947.66,-296"/>
<polygon fill="#666666" stroke="#666666" points="1945.36,-298.64 1955.03,-302.96 1950.16,-293.55 1945.36,-298.64"/>
</g>
<!-- PeerFsm -->
<g id="node5" class="node">
<title>PeerFsm</title>
<path fill="#79d8ce" stroke="#60b5ac" d="M762,-97C762,-97 981,-97 981,-97 987,-97 993,-103 993,-109 993,-109 993,-131 993,-131 993,-137 987,-143 981,-143 981,-143 762,-143 762,-143 756,-143 750,-137 750,-131 750,-131 750,-109 750,-109 750,-103 756,-97 762,-97"/>
<text text-anchor="middle" x="871.5" y="-127.8" font-family="Times,serif" font-size="14.00" fill="#5d6179">PeerFsm</text>
<polyline fill="none" stroke="#60b5ac" points="750,-120 993,-120 "/>
<text text-anchor="start" x="758" y="-104.8" font-family="Times,serif" font-size="14.00" fill="#5d6179">pub receiver: Receiver&lt;PeerMsg&lt;EK&gt;&gt;,</text>
</g>
<!-- rx&#45;&gt;PeerFsm -->
<g id="edge4" class="edge">
<title>rx&#45;&gt;PeerFsm</title>
<path fill="none" stroke="#666666" d="M714.05,-115.19C722.38,-115.44 731.08,-115.71 739.91,-115.98"/>
<polygon fill="#666666" stroke="#666666" points="739.82,-119.48 749.93,-116.29 740.04,-112.48 739.82,-119.48"/>
</g>
<!-- PeerFsm&#45;&gt;region_peers -->
<g id="edge6" class="edge">
<title>PeerFsm&#45;&gt;region_peers</title>
<path fill="none" stroke="green" stroke-dasharray="5,2" d="M900.62,-143.22C941.9,-177.31 1019.34,-241.25 1068.57,-281.9"/>
<polygon fill="green" stroke="green" points="1066.58,-284.79 1076.52,-288.46 1071.03,-279.4 1066.58,-284.79"/>
</g>
<!-- start_system -->
<g id="node10" class="node">
<title>start_system</title>
<path fill="none" stroke="#1c2123" d="M1309,-382C1309,-382 1248,-382 1248,-382 1242,-382 1236,-376 1236,-370 1236,-370 1236,-358 1236,-358 1236,-352 1242,-346 1248,-346 1248,-346 1309,-346 1309,-346 1315,-346 1321,-352 1321,-358 1321,-358 1321,-370 1321,-370 1321,-376 1315,-382 1309,-382"/>
<text text-anchor="middle" x="1278.5" y="-360.3" font-family="Times,serif" font-size="14.00" fill="#2f3638">start_system</text>
</g>
<!-- region_peers&#45;&gt;start_system -->
<g id="edge12" class="edge">
<title>region_peers&#45;&gt;start_system</title>
<path fill="none" stroke="#666666" d="M1200.3,-342.55C1209.11,-345 1217.87,-347.44 1226.15,-349.74"/>
<polygon fill="#666666" stroke="#666666" points="1225.41,-353.16 1235.98,-352.47 1227.28,-346.42 1225.41,-353.16"/>
</g>
<!-- ApplyBatchSystem_schedule_all -->
<g id="node11" class="node">
<title>ApplyBatchSystem_schedule_all</title>
<path fill="none" stroke="#1c2123" d="M1542,-324C1542,-324 1369,-324 1369,-324 1363,-324 1357,-318 1357,-312 1357,-312 1357,-300 1357,-300 1357,-294 1363,-288 1369,-288 1369,-288 1542,-288 1542,-288 1548,-288 1554,-294 1554,-300 1554,-300 1554,-312 1554,-312 1554,-318 1548,-324 1542,-324"/>
<text text-anchor="middle" x="1455.5" y="-302.3" font-family="Times,serif" font-size="14.00" fill="#2f3638">ApplyBatchSystem_schedule_all</text>
</g>
<!-- region_peers&#45;&gt;ApplyBatchSystem_schedule_all -->
<g id="edge13" class="edge">
<title>region_peers&#45;&gt;ApplyBatchSystem_schedule_all</title>
<path fill="none" stroke="#666666" d="M1200.17,-315.75C1244.57,-314.05 1299.43,-311.95 1346.82,-310.13"/>
<polygon fill="#666666" stroke="#666666" points="1346.96,-313.63 1356.81,-309.75 1346.69,-306.63 1346.96,-313.63"/>
</g>
<!-- RaftPollerBuilder_init -->
<g id="node7" class="node">
<title>RaftPollerBuilder_init</title>
<path fill="none" stroke="#1c2123" d="M231,-234C231,-234 118,-234 118,-234 112,-234 106,-228 106,-222 106,-222 106,-210 106,-210 106,-204 112,-198 118,-198 118,-198 231,-198 231,-198 237,-198 243,-204 243,-210 243,-210 243,-222 243,-222 243,-228 237,-234 231,-234"/>
<text text-anchor="middle" x="174.5" y="-212.3" font-family="Times,serif" font-size="14.00" fill="#2f3638">RaftPollerBuilder_init</text>
</g>
<!-- RaftPollerBuilder_init&#45;&gt;PeerFsm_create -->
<g id="edge7" class="edge">
<title>RaftPollerBuilder_init&#45;&gt;PeerFsm_create</title>
<path fill="none" stroke="#666666" d="M205.78,-197.98C232.11,-182.31 270.45,-159.5 299.15,-142.41"/>
<polygon fill="#666666" stroke="#666666" points="301.31,-145.21 308.11,-137.09 297.73,-139.19 301.31,-145.21"/>
</g>
<!-- RaftPollerBuilder_init&#45;&gt;region_peers -->
<g id="edge11" class="edge">
<title>RaftPollerBuilder_init&#45;&gt;region_peers</title>
<path fill="none" stroke="#666666" d="M220.94,-234.01C280.4,-255.91 388.3,-290 484,-290 484,-290 484,-290 643,-290 773.29,-290 923.48,-301.22 1018.44,-309.7"/>
<polygon fill="#666666" stroke="#666666" points="1018.33,-313.2 1028.6,-310.61 1018.95,-306.23 1018.33,-313.2"/>
</g>
<!-- kv_engine_scan_cf -->
<g id="node8" class="node">
<title>kv_engine_scan_cf</title>
<path fill="none" stroke="#1c2123" d="M388,-234C388,-234 291,-234 291,-234 285,-234 279,-228 279,-222 279,-222 279,-210 279,-210 279,-204 285,-198 291,-198 291,-198 388,-198 388,-198 394,-198 400,-204 400,-210 400,-210 400,-222 400,-222 400,-228 394,-234 388,-234"/>
<text text-anchor="middle" x="339.5" y="-212.3" font-family="Times,serif" font-size="14.00" fill="#2f3638">kv_engine_scan_cf</text>
</g>
<!-- RaftPollerBuilder_init&#45;&gt;kv_engine_scan_cf -->
<g id="edge8" class="edge">
<title>RaftPollerBuilder_init&#45;&gt;kv_engine_scan_cf</title>
<path fill="none" stroke="#666666" d="M243.21,-216C251.61,-216 260.2,-216 268.63,-216"/>
<polygon fill="#666666" stroke="#666666" points="268.8,-219.5 278.8,-216 268.8,-212.5 268.8,-219.5"/>
</g>
<!-- spawn -->
<g id="node9" class="node">
<title>spawn</title>
<path fill="none" stroke="#1c2123" d="M58,-356C58,-356 28,-356 28,-356 22,-356 16,-350 16,-344 16,-344 16,-332 16,-332 16,-326 22,-320 28,-320 28,-320 58,-320 58,-320 64,-320 70,-326 70,-332 70,-332 70,-344 70,-344 70,-350 64,-356 58,-356"/>
<text text-anchor="middle" x="43" y="-334.3" font-family="Times,serif" font-size="14.00" fill="#2f3638">spawn</text>
</g>
<!-- spawn&#45;&gt;RaftPollerBuilder_init -->
<g id="edge9" class="edge">
<title>spawn&#45;&gt;RaftPollerBuilder_init</title>
<path fill="none" stroke="#666666" d="M58.32,-319.85C68.76,-307.06 83.55,-289.81 98,-276 111.13,-263.45 126.69,-250.76 140.26,-240.31"/>
<polygon fill="#666666" stroke="#666666" points="142.57,-242.94 148.42,-234.11 138.34,-237.37 142.57,-242.94"/>
</g>
<!-- spawn&#45;&gt;start_system -->
<g id="edge10" class="edge">
<title>spawn&#45;&gt;start_system</title>
<path fill="none" stroke="#666666" d="M70.3,-342.64C121.67,-351.29 239.02,-369 338.5,-369 338.5,-369 338.5,-369 872.5,-369 999.26,-369 1148.33,-366.52 1225.42,-365.05"/>
<polygon fill="#666666" stroke="#666666" points="1225.88,-368.55 1235.82,-364.85 1225.75,-361.55 1225.88,-368.55"/>
</g>
<!-- start_system&#45;&gt;ApplyBatchSystem_schedule_all -->
<g id="edge14" class="edge">
<title>start_system&#45;&gt;ApplyBatchSystem_schedule_all</title>
<path fill="none" stroke="#666666" d="M1321.02,-346.41C1332.57,-341.79 1345.19,-336.98 1357,-333 1363.06,-330.96 1369.37,-328.95 1375.74,-327"/>
<polygon fill="#666666" stroke="#666666" points="1377.18,-330.23 1385.76,-324.01 1375.18,-323.52 1377.18,-330.23"/>
</g>
<!-- start_system&#45;&gt;router_register_all -->
<g id="edge15" class="edge">
<title>start_system&#45;&gt;router_register_all</title>
<path fill="none" stroke="#666666" d="M1291.19,-382.09C1304.52,-400.88 1328.24,-429.14 1357,-441 1437.94,-474.38 1467,-450.81 1554,-441 1665.69,-428.41 1790.42,-398.31 1878.12,-374.4"/>
<polygon fill="#666666" stroke="#666666" points="1879.1,-377.76 1887.82,-371.74 1877.25,-371.01 1879.1,-377.76"/>
</g>
<!-- system_spawn -->
<g id="node13" class="node">
<title>system_spawn</title>
<path fill="none" stroke="#1c2123" d="M1491.5,-378C1491.5,-378 1419.5,-378 1419.5,-378 1413.5,-378 1407.5,-372 1407.5,-366 1407.5,-366 1407.5,-354 1407.5,-354 1407.5,-348 1413.5,-342 1419.5,-342 1419.5,-342 1491.5,-342 1491.5,-342 1497.5,-342 1503.5,-348 1503.5,-354 1503.5,-354 1503.5,-366 1503.5,-366 1503.5,-372 1497.5,-378 1491.5,-378"/>
<text text-anchor="middle" x="1455.5" y="-356.3" font-family="Times,serif" font-size="14.00" fill="#2f3638">system_spawn</text>
</g>
<!-- start_system&#45;&gt;system_spawn -->
<g id="edge16" class="edge">
<title>start_system&#45;&gt;system_spawn</title>
<path fill="none" stroke="#666666" d="M1321.42,-363.04C1344.07,-362.52 1372.37,-361.88 1397.05,-361.31"/>
<polygon fill="#666666" stroke="#666666" points="1397.46,-364.8 1407.37,-361.08 1397.3,-357.81 1397.46,-364.8"/>
</g>
<!-- apply_system_spawn -->
<g id="node14" class="node">
<title>apply_system_spawn</title>
<path fill="none" stroke="#1c2123" d="M1510,-432C1510,-432 1401,-432 1401,-432 1395,-432 1389,-426 1389,-420 1389,-420 1389,-408 1389,-408 1389,-402 1395,-396 1401,-396 1401,-396 1510,-396 1510,-396 1516,-396 1522,-402 1522,-408 1522,-408 1522,-420 1522,-420 1522,-426 1516,-432 1510,-432"/>
<text text-anchor="middle" x="1455.5" y="-410.3" font-family="Times,serif" font-size="14.00" fill="#2f3638">apply_system_spawn</text>
</g>
<!-- start_system&#45;&gt;apply_system_spawn -->
<g id="edge17" class="edge">
<title>start_system&#45;&gt;apply_system_spawn</title>
<path fill="none" stroke="#666666" d="M1321.29,-376.55C1332.84,-379.98 1345.4,-383.67 1357,-387 1364.16,-389.05 1371.63,-391.17 1379.1,-393.27"/>
<polygon fill="#666666" stroke="#666666" points="1378.32,-396.68 1388.9,-396.01 1380.21,-389.94 1378.32,-396.68"/>
</g>
<!-- ApplyBatchSystem_schedule_all&#45;&gt;router_register_all -->
<g id="edge22" class="edge">
<title>ApplyBatchSystem_schedule_all&#45;&gt;router_register_all</title>
<path fill="none" stroke="#666666" d="M1533.43,-324.01C1551.86,-327.64 1571.55,-330.97 1590,-333 1686.65,-343.65 1797.14,-345.08 1877.79,-344.17"/>
<polygon fill="#666666" stroke="#666666" points="1878.02,-347.66 1887.97,-344.04 1877.93,-340.66 1878.02,-347.66"/>
</g>
<!-- ApplyFsm_from_peer -->
<g id="node15" class="node">
<title>ApplyFsm_from_peer</title>
<path fill="none" stroke="#1c2123" d="M1716,-324C1716,-324 1602,-324 1602,-324 1596,-324 1590,-318 1590,-312 1590,-312 1590,-300 1590,-300 1590,-294 1596,-288 1602,-288 1602,-288 1716,-288 1716,-288 1722,-288 1728,-294 1728,-300 1728,-300 1728,-312 1728,-312 1728,-318 1722,-324 1716,-324"/>
<text text-anchor="middle" x="1659" y="-302.3" font-family="Times,serif" font-size="14.00" fill="#2f3638">ApplyFsm_from_peer</text>
</g>
<!-- ApplyBatchSystem_schedule_all&#45;&gt;ApplyFsm_from_peer -->
<g id="edge18" class="edge">
<title>ApplyBatchSystem_schedule_all&#45;&gt;ApplyFsm_from_peer</title>
<path fill="none" stroke="#666666" d="M1554,-306C1562.65,-306 1571.32,-306 1579.77,-306"/>
<polygon fill="#666666" stroke="#666666" points="1579.95,-309.5 1589.95,-306 1579.95,-302.5 1579.95,-309.5"/>
</g>
<!-- normals -->
<g id="node17" class="node">
<title>normals</title>
<path fill="#feed9b" stroke="#f7e495" d="M2146,-299C2146,-299 2348,-299 2348,-299 2354,-299 2360,-305 2360,-311 2360,-311 2360,-371 2360,-371 2360,-377 2354,-383 2348,-383 2348,-383 2146,-383 2146,-383 2140,-383 2134,-377 2134,-371 2134,-371 2134,-311 2134,-311 2134,-305 2140,-299 2146,-299"/>
<text text-anchor="middle" x="2247" y="-367.8" font-family="Times,serif" font-size="14.00" fill="#40575d">normals</text>
<polyline fill="none" stroke="#f7e495" points="2134,-360 2360,-360 "/>
<text text-anchor="start" x="2142" y="-344.8" font-family="Times,serif" font-size="14.00" fill="#40575d">normals: Arc&lt;Mutex&lt;HashMap&lt;u64,</text>
<text text-anchor="start" x="2142" y="-329.8" font-family="Times,serif" font-size="14.00" fill="#40575d"> BasicMailbox&lt;N&gt;&gt;&gt;&gt;,</text>
<polyline fill="none" stroke="#f7e495" points="2134,-322 2360,-322 "/>
<text text-anchor="middle" x="2247" y="-306.8" font-family="Times,serif" font-size="14.00" fill="#40575d">...</text>
</g>
<!-- router_register_all&#45;&gt;normals -->
<g id="edge23" class="edge">
<title>router_register_all&#45;&gt;normals</title>
<path fill="none" stroke="#666666" d="M2098.32,-341C2106.6,-341 2115,-341 2123.39,-341"/>
<polygon fill="#666666" stroke="#666666" points="2123.6,-344.5 2133.6,-341 2123.6,-337.5 2123.6,-344.5"/>
</g>
<!-- applyFsm_tx -->
<g id="node16" class="node">
<title>applyFsm_tx</title>
<path fill="none" stroke="#1c2123" d="M1840,-324C1840,-324 1776,-324 1776,-324 1770,-324 1764,-318 1764,-312 1764,-312 1764,-300 1764,-300 1764,-294 1770,-288 1776,-288 1776,-288 1840,-288 1840,-288 1846,-288 1852,-294 1852,-300 1852,-300 1852,-312 1852,-312 1852,-318 1846,-324 1840,-324"/>
<text text-anchor="middle" x="1808" y="-302.3" font-family="Times,serif" font-size="14.00" fill="#2f3638">applyFsm_tx</text>
</g>
<!-- ApplyFsm_from_peer&#45;&gt;applyFsm_tx -->
<g id="edge19" class="edge">
<title>ApplyFsm_from_peer&#45;&gt;applyFsm_tx</title>
<path fill="none" stroke="#666666" d="M1728.34,-306C1736.77,-306 1745.3,-306 1753.47,-306"/>
<polygon fill="#666666" stroke="#666666" points="1753.59,-309.5 1763.59,-306 1753.59,-302.5 1753.59,-309.5"/>
</g>
<!-- applyFsm_tx&#45;&gt;router_register_all -->
<g id="edge20" class="edge">
<title>applyFsm_tx&#45;&gt;router_register_all</title>
<path fill="none" stroke="#666666" d="M1852.37,-314.29C1860.36,-315.82 1869.04,-317.48 1878.03,-319.2"/>
<polygon fill="#666666" stroke="#666666" points="1877.41,-322.65 1887.89,-321.09 1878.72,-315.77 1877.41,-322.65"/>
</g>
</g>
</svg>
