<?xml version="1.0" encoding="UTF-8" standalone="no"?>
<!DOCTYPE svg PUBLIC "-//W3C//DTD SVG 1.1//EN"
 "http://www.w3.org/Graphics/SVG/1.1/DTD/svg11.dtd">
<!-- Generated by graphviz version 2.44.1 (20200629.0846)
 -->
<!-- Title: RaftKv_async_write Pages: 1 -->
<svg width="1812pt" height="498pt"
 viewBox="0.00 0.00 1812.00 498.00" xmlns="http://www.w3.org/2000/svg" xmlns:xlink="http://www.w3.org/1999/xlink">
<g id="graph0" class="graph" transform="scale(1 1) rotate(0) translate(4 494)">
<title>RaftKv_async_write</title>
<polygon fill="white" stroke="transparent" points="-4,4 -4,-494 1808,-494 1808,4 -4,4"/>
<g id="clust1" class="cluster">
<title>cluster_RaftStoreRouter</title>
<path fill="none" stroke="slategrey" stroke-dasharray="5,2" d="M971.5,-117C971.5,-117 1127.5,-117 1127.5,-117 1133.5,-117 1139.5,-123 1139.5,-129 1139.5,-129 1139.5,-237 1139.5,-237 1139.5,-243 1133.5,-249 1127.5,-249 1127.5,-249 971.5,-249 971.5,-249 965.5,-249 959.5,-243 959.5,-237 959.5,-237 959.5,-129 959.5,-129 959.5,-123 965.5,-117 971.5,-117"/>
<text text-anchor="middle" x="1049.5" y="-229" font-family="Times,serif" font-size="20.00">RaftStoreRouter</text>
</g>
<g id="clust2" class="cluster">
<title>cluster_CallbackWrite</title>
<path fill="none" stroke="slategrey" stroke-dasharray="5,2" d="M1269,-8C1269,-8 1784,-8 1784,-8 1790,-8 1796,-14 1796,-20 1796,-20 1796,-252 1796,-252 1796,-258 1790,-264 1784,-264 1784,-264 1269,-264 1269,-264 1263,-264 1257,-258 1257,-252 1257,-252 1257,-20 1257,-20 1257,-14 1263,-8 1269,-8"/>
<text text-anchor="middle" x="1526.5" y="-244" font-family="Times,serif" font-size="20.00">CallbackWrite</text>
</g>
<g id="clust4" class="cluster">
<title>cluster_RaftKV</title>
<path fill="none" stroke="slategrey" stroke-dasharray="5,2" d="M20,-272C20,-272 1427,-272 1427,-272 1433,-272 1439,-278 1439,-284 1439,-284 1439,-470 1439,-470 1439,-476 1433,-482 1427,-482 1427,-482 20,-482 20,-482 14,-482 8,-476 8,-470 8,-470 8,-284 8,-284 8,-278 14,-272 20,-272"/>
<text text-anchor="middle" x="723.5" y="-462" font-family="Times,serif" font-size="20.00">RaftKV</text>
</g>
<!-- send_command -->
<g id="node1" class="node">
<title>send_command</title>
<path fill="none" stroke="#1c2123" d="M979.5,-126C979.5,-126 1119.5,-126 1119.5,-126 1125.5,-126 1131.5,-132 1131.5,-138 1131.5,-138 1131.5,-198 1131.5,-198 1131.5,-204 1125.5,-210 1119.5,-210 1119.5,-210 979.5,-210 979.5,-210 973.5,-210 967.5,-204 967.5,-198 967.5,-198 967.5,-138 967.5,-138 967.5,-132 973.5,-126 979.5,-126"/>
<text text-anchor="middle" x="1049.5" y="-194.8" font-family="Times,serif" font-size="14.00" fill="#2f3638">send_command</text>
<polyline fill="none" stroke="#1c2123" points="967.5,-187 1131.5,-187 "/>
<text text-anchor="start" x="975.5" y="-171.8" font-family="Times,serif" font-size="14.00" fill="#2f3638">发送消息给RaftPoller</text>
<polyline fill="none" stroke="#1c2123" points="967.5,-164 1131.5,-164 "/>
<text text-anchor="start" x="975.5" y="-148.8" font-family="Times,serif" font-size="14.00" fill="#2f3638">PeerFsm在处理好消息后</text>
<text text-anchor="start" x="975.5" y="-133.8" font-family="Times,serif" font-size="14.00" fill="#2f3638"> 会调用callback</text>
</g>
<!-- Callback_Write -->
<g id="node3" class="node">
<title>Callback_Write</title>
<path fill="#79d8ce" stroke="#60b5ac" d="M1277,-108C1277,-108 1480,-108 1480,-108 1486,-108 1492,-114 1492,-120 1492,-120 1492,-188 1492,-188 1492,-194 1486,-200 1480,-200 1480,-200 1277,-200 1277,-200 1271,-200 1265,-194 1265,-188 1265,-188 1265,-120 1265,-120 1265,-114 1271,-108 1277,-108"/>
<text text-anchor="middle" x="1378.5" y="-184.8" font-family="Times,serif" font-size="14.00" fill="#5d6179">Callback::Write</text>
<polyline fill="none" stroke="#60b5ac" points="1265,-177 1492,-177 "/>
<text text-anchor="start" x="1273" y="-161.8" font-family="Times,serif" font-size="14.00" fill="#5d6179">cb: WriteCallback,</text>
<polyline fill="none" stroke="#60b5ac" points="1265,-154 1492,-154 "/>
<text text-anchor="start" x="1273" y="-138.8" font-family="Times,serif" font-size="14.00" fill="#5d6179">proposed_cb: Option&lt;ExtCallback&gt;,</text>
<polyline fill="none" stroke="#60b5ac" points="1265,-131 1492,-131 "/>
<text text-anchor="start" x="1273" y="-115.8" font-family="Times,serif" font-size="14.00" fill="#5d6179">committed_cb: Option&lt;ExtCallback&gt;,</text>
</g>
<!-- send_command&#45;&gt;Callback_Write -->
<g id="edge2" class="edge">
<title>send_command&#45;&gt;Callback_Write</title>
<path fill="none" stroke="green" stroke-dasharray="5,2" d="M1131.75,-164.52C1168.88,-162.93 1213.67,-161.01 1254.78,-159.25"/>
<polygon fill="green" stroke="green" points="1255.03,-162.75 1264.87,-158.82 1254.73,-155.75 1255.03,-162.75"/>
</g>
<!-- WriteCallback -->
<g id="node2" class="node">
<title>WriteCallback</title>
<path fill="#79d8ce" stroke="#60b5ac" d="M1540,-17C1540,-17 1776,-17 1776,-17 1782,-17 1788,-23 1788,-29 1788,-29 1788,-51 1788,-51 1788,-57 1782,-63 1776,-63 1776,-63 1540,-63 1540,-63 1534,-63 1528,-57 1528,-51 1528,-51 1528,-29 1528,-29 1528,-23 1534,-17 1540,-17"/>
<text text-anchor="middle" x="1658" y="-47.8" font-family="Times,serif" font-size="14.00" fill="#5d6179">WriteCallback</text>
<polyline fill="none" stroke="#60b5ac" points="1528,-40 1788,-40 "/>
<text text-anchor="start" x="1536" y="-24.8" font-family="Times,serif" font-size="14.00" fill="#5d6179">Box&lt;dyn FnOnce(WriteResponse) + Send&gt;;</text>
</g>
<!-- Callback_Write&#45;&gt;WriteCallback -->
<g id="edge1" class="edge">
<title>Callback_Write&#45;&gt;WriteCallback</title>
<path fill="none" stroke="#666666" d="M1455.2,-107.99C1478.03,-95.42 1503.54,-82.62 1528,-73 1534.14,-70.58 1540.52,-68.29 1547,-66.14"/>
<polygon fill="#666666" stroke="#666666" points="1548.11,-69.46 1556.56,-63.07 1545.97,-62.79 1548.11,-69.46"/>
</g>
<!-- invoke_proposed -->
<g id="node4" class="node">
<title>invoke_proposed</title>
<path fill="none" stroke="#1c2123" d="M1701,-118C1701,-118 1615,-118 1615,-118 1609,-118 1603,-112 1603,-106 1603,-106 1603,-94 1603,-94 1603,-88 1609,-82 1615,-82 1615,-82 1701,-82 1701,-82 1707,-82 1713,-88 1713,-94 1713,-94 1713,-106 1713,-106 1713,-112 1707,-118 1701,-118"/>
<text text-anchor="middle" x="1658" y="-96.3" font-family="Times,serif" font-size="14.00" fill="#2f3638">invoke_proposed</text>
</g>
<!-- Callback_Write&#45;&gt;invoke_proposed -->
<g id="edge3" class="edge">
<title>Callback_Write&#45;&gt;invoke_proposed</title>
<path fill="none" stroke="#666666" d="M1492.37,-132.04C1526.61,-125.37 1563.04,-118.28 1592.89,-112.47"/>
<polygon fill="#666666" stroke="#666666" points="1593.61,-115.9 1602.75,-110.56 1592.27,-109.03 1593.61,-115.9"/>
</g>
<!-- invoke_committed -->
<g id="node5" class="node">
<title>invoke_committed</title>
<path fill="none" stroke="#1c2123" d="M1705.5,-172C1705.5,-172 1610.5,-172 1610.5,-172 1604.5,-172 1598.5,-166 1598.5,-160 1598.5,-160 1598.5,-148 1598.5,-148 1598.5,-142 1604.5,-136 1610.5,-136 1610.5,-136 1705.5,-136 1705.5,-136 1711.5,-136 1717.5,-142 1717.5,-148 1717.5,-148 1717.5,-160 1717.5,-160 1717.5,-166 1711.5,-172 1705.5,-172"/>
<text text-anchor="middle" x="1658" y="-150.3" font-family="Times,serif" font-size="14.00" fill="#2f3638">invoke_committed</text>
</g>
<!-- Callback_Write&#45;&gt;invoke_committed -->
<g id="edge4" class="edge">
<title>Callback_Write&#45;&gt;invoke_committed</title>
<path fill="none" stroke="#666666" d="M1492.37,-154C1524.71,-154 1559,-154 1587.86,-154"/>
<polygon fill="#666666" stroke="#666666" points="1588.23,-157.5 1598.23,-154 1588.23,-150.5 1588.23,-157.5"/>
</g>
<!-- invoke_with_response -->
<g id="node6" class="node">
<title>invoke_with_response</title>
<path fill="none" stroke="#1c2123" d="M1715,-226C1715,-226 1601,-226 1601,-226 1595,-226 1589,-220 1589,-214 1589,-214 1589,-202 1589,-202 1589,-196 1595,-190 1601,-190 1601,-190 1715,-190 1715,-190 1721,-190 1727,-196 1727,-202 1727,-202 1727,-214 1727,-214 1727,-220 1721,-226 1715,-226"/>
<text text-anchor="middle" x="1658" y="-204.3" font-family="Times,serif" font-size="14.00" fill="#2f3638">invoke_with_response</text>
</g>
<!-- Callback_Write&#45;&gt;invoke_with_response -->
<g id="edge5" class="edge">
<title>Callback_Write&#45;&gt;invoke_with_response</title>
<path fill="none" stroke="#666666" d="M1492.37,-175.96C1521.38,-181.61 1551.95,-187.56 1578.77,-192.78"/>
<polygon fill="#666666" stroke="#666666" points="1578.36,-196.26 1588.85,-194.74 1579.7,-189.39 1578.36,-196.26"/>
</g>
<!-- async_write -->
<g id="node7" class="node">
<title>async_write</title>
<path fill="none" stroke="#1c2123" d="M86,-412C86,-412 28,-412 28,-412 22,-412 16,-406 16,-400 16,-400 16,-388 16,-388 16,-382 22,-376 28,-376 28,-376 86,-376 86,-376 92,-376 98,-382 98,-388 98,-388 98,-400 98,-400 98,-406 92,-412 86,-412"/>
<text text-anchor="middle" x="57" y="-390.3" font-family="Times,serif" font-size="14.00" fill="#2f3638">async_write</text>
</g>
<!-- async_write_ext -->
<g id="node8" class="node">
<title>async_write_ext</title>
<path fill="none" stroke="#1c2123" d="M227,-412C227,-412 146,-412 146,-412 140,-412 134,-406 134,-400 134,-400 134,-388 134,-388 134,-382 140,-376 146,-376 146,-376 227,-376 227,-376 233,-376 239,-382 239,-388 239,-388 239,-400 239,-400 239,-406 233,-412 227,-412"/>
<text text-anchor="middle" x="186.5" y="-390.3" font-family="Times,serif" font-size="14.00" fill="#2f3638">async_write_ext</text>
</g>
<!-- async_write&#45;&gt;async_write_ext -->
<g id="edge6" class="edge">
<title>async_write&#45;&gt;async_write_ext</title>
<path fill="none" stroke="#666666" d="M98.34,-394C106.42,-394 115.07,-394 123.68,-394"/>
<polygon fill="#666666" stroke="#666666" points="123.73,-397.5 133.73,-394 123.73,-390.5 123.73,-397.5"/>
</g>
<!-- modifies_to_requests -->
<g id="node9" class="node">
<title>modifies_to_requests</title>
<path fill="none" stroke="#1c2123" d="M289.5,-308.5C289.5,-308.5 428.5,-308.5 428.5,-308.5 434.5,-308.5 440.5,-314.5 440.5,-320.5 440.5,-320.5 440.5,-357.5 440.5,-357.5 440.5,-363.5 434.5,-369.5 428.5,-369.5 428.5,-369.5 289.5,-369.5 289.5,-369.5 283.5,-369.5 277.5,-363.5 277.5,-357.5 277.5,-357.5 277.5,-320.5 277.5,-320.5 277.5,-314.5 283.5,-308.5 289.5,-308.5"/>
<text text-anchor="middle" x="359" y="-354.3" font-family="Times,serif" font-size="14.00" fill="#2f3638">modifies_to_requests</text>
<polyline fill="none" stroke="#1c2123" points="277.5,-346.5 440.5,-346.5 "/>
<text text-anchor="start" x="285.5" y="-331.3" font-family="Times,serif" font-size="14.00" fill="#2f3638">将Txn中的Modifiers改为</text>
<text text-anchor="middle" x="359" y="-316.3" font-family="Times,serif" font-size="14.00" fill="#2f3638"> 发往raft的Request</text>
</g>
<!-- async_write_ext&#45;&gt;modifies_to_requests -->
<g id="edge7" class="edge">
<title>async_write_ext&#45;&gt;modifies_to_requests</title>
<path fill="none" stroke="#666666" d="M239.12,-377.35C248.16,-374.43 257.8,-371.32 267.54,-368.18"/>
<polygon fill="#666666" stroke="#666666" points="268.84,-371.44 277.28,-365.04 266.69,-364.78 268.84,-371.44"/>
</g>
<!-- exec_write_requests -->
<g id="node10" class="node">
<title>exec_write_requests</title>
<path fill="none" stroke="#1c2123" d="M822,-376C822,-376 719,-376 719,-376 713,-376 707,-370 707,-364 707,-364 707,-352 707,-352 707,-346 713,-340 719,-340 719,-340 822,-340 822,-340 828,-340 834,-346 834,-352 834,-352 834,-364 834,-364 834,-370 828,-376 822,-376"/>
<text text-anchor="middle" x="770.5" y="-354.3" font-family="Times,serif" font-size="14.00" fill="#2f3638">exec_write_requests</text>
</g>
<!-- async_write_ext&#45;&gt;exec_write_requests -->
<g id="edge8" class="edge">
<title>async_write_ext&#45;&gt;exec_write_requests</title>
<path fill="none" stroke="#666666" d="M239.18,-390.67C302.98,-387.31 407.43,-384.45 443,-399 463.37,-407.33 458.55,-424.87 479,-433 518.24,-448.6 532.48,-440.69 574,-433 627.88,-423.02 686.08,-398.79 724.84,-380.55"/>
<polygon fill="#666666" stroke="#666666" points="726.75,-383.52 734.26,-376.06 723.73,-377.21 726.75,-383.52"/>
</g>
<!-- get_status_kind_from_error -->
<g id="node11" class="node">
<title>get_status_kind_from_error</title>
<path fill="none" stroke="#1c2123" d="M431,-444C431,-444 287,-444 287,-444 281,-444 275,-438 275,-432 275,-432 275,-420 275,-420 275,-414 281,-408 287,-408 287,-408 431,-408 431,-408 437,-408 443,-414 443,-420 443,-420 443,-432 443,-432 443,-438 437,-444 431,-444"/>
<text text-anchor="middle" x="359" y="-422.3" font-family="Times,serif" font-size="14.00" fill="#2f3638">get_status_kind_from_error</text>
</g>
<!-- async_write_ext&#45;&gt;get_status_kind_from_error -->
<g id="edge9" class="edge">
<title>async_write_ext&#45;&gt;get_status_kind_from_error</title>
<path fill="none" stroke="#666666" d="M239.12,-403.69C247.31,-405.22 255.99,-406.85 264.79,-408.51"/>
<polygon fill="#666666" stroke="#666666" points="264.27,-411.97 274.75,-410.37 265.56,-405.09 264.27,-411.97"/>
</g>
<!-- DeleteRequest -->
<g id="node17" class="node">
<title>DeleteRequest</title>
<path fill="none" stroke="#1c2123" d="M562,-370C562,-370 491,-370 491,-370 485,-370 479,-364 479,-358 479,-358 479,-346 479,-346 479,-340 485,-334 491,-334 491,-334 562,-334 562,-334 568,-334 574,-340 574,-346 574,-346 574,-358 574,-358 574,-364 568,-370 562,-370"/>
<text text-anchor="middle" x="526.5" y="-348.3" font-family="Times,serif" font-size="14.00" fill="#2f3638">DeleteRequest</text>
</g>
<!-- modifies_to_requests&#45;&gt;DeleteRequest -->
<g id="edge15" class="edge">
<title>modifies_to_requests&#45;&gt;DeleteRequest</title>
<path fill="none" stroke="green" stroke-dasharray="5,2" d="M440.81,-345.35C450.13,-346.08 459.48,-346.81 468.39,-347.51"/>
<polygon fill="green" stroke="green" points="468.38,-351.02 478.62,-348.32 468.93,-344.05 468.38,-351.02"/>
</g>
<!-- PutRequest -->
<g id="node18" class="node">
<title>PutRequest</title>
<path fill="none" stroke="#1c2123" d="M553.5,-424C553.5,-424 499.5,-424 499.5,-424 493.5,-424 487.5,-418 487.5,-412 487.5,-412 487.5,-400 487.5,-400 487.5,-394 493.5,-388 499.5,-388 499.5,-388 553.5,-388 553.5,-388 559.5,-388 565.5,-394 565.5,-400 565.5,-400 565.5,-412 565.5,-412 565.5,-418 559.5,-424 553.5,-424"/>
<text text-anchor="middle" x="526.5" y="-402.3" font-family="Times,serif" font-size="14.00" fill="#2f3638">PutRequest</text>
</g>
<!-- modifies_to_requests&#45;&gt;PutRequest -->
<g id="edge16" class="edge">
<title>modifies_to_requests&#45;&gt;PutRequest</title>
<path fill="none" stroke="green" stroke-dasharray="5,2" d="M435.49,-369.56C449.89,-375.39 464.59,-381.34 477.83,-386.7"/>
<polygon fill="green" stroke="green" points="476.6,-389.98 487.18,-390.49 479.22,-383.49 476.6,-389.98"/>
</g>
<!-- DeleteRangen -->
<g id="node19" class="node">
<title>DeleteRangen</title>
<path fill="none" stroke="#1c2123" d="M561,-316C561,-316 492,-316 492,-316 486,-316 480,-310 480,-304 480,-304 480,-292 480,-292 480,-286 486,-280 492,-280 492,-280 561,-280 561,-280 567,-280 573,-286 573,-292 573,-292 573,-304 573,-304 573,-310 567,-316 561,-316"/>
<text text-anchor="middle" x="526.5" y="-294.3" font-family="Times,serif" font-size="14.00" fill="#2f3638">DeleteRangen</text>
</g>
<!-- modifies_to_requests&#45;&gt;DeleteRangen -->
<g id="edge17" class="edge">
<title>modifies_to_requests&#45;&gt;DeleteRangen</title>
<path fill="none" stroke="green" stroke-dasharray="5,2" d="M440.81,-318.98C450.69,-316.53 460.61,-314.07 470,-311.75"/>
<polygon fill="green" stroke="green" points="471.1,-315.08 479.96,-309.28 469.41,-308.29 471.1,-315.08"/>
</g>
<!-- exec_write_requests&#45;&gt;send_command -->
<g id="edge10" class="edge">
<title>exec_write_requests&#45;&gt;send_command</title>
<path fill="none" stroke="#666666" d="M788.93,-339.75C807.83,-320.55 839.39,-290.11 870,-268 897.53,-248.12 929.4,-229.14 958.52,-213.16"/>
<polygon fill="#666666" stroke="#666666" points="960.34,-216.15 967.46,-208.3 957,-210 960.34,-216.15"/>
</g>
<!-- raftkv_early_error_report_fp -->
<g id="node12" class="node">
<title>raftkv_early_error_report_fp</title>
<path fill="none" stroke="#1c2123" d="M1124,-386C1124,-386 975,-386 975,-386 969,-386 963,-380 963,-374 963,-374 963,-362 963,-362 963,-356 969,-350 975,-350 975,-350 1124,-350 1124,-350 1130,-350 1136,-356 1136,-362 1136,-362 1136,-374 1136,-374 1136,-380 1130,-386 1124,-386"/>
<text text-anchor="middle" x="1049.5" y="-364.3" font-family="Times,serif" font-size="14.00" fill="#2f3638">raftkv_early_error_report_fp</text>
</g>
<!-- exec_write_requests&#45;&gt;raftkv_early_error_report_fp -->
<g id="edge11" class="edge">
<title>exec_write_requests&#45;&gt;raftkv_early_error_report_fp</title>
<path fill="none" stroke="#666666" d="M834.01,-360.26C869.02,-361.52 913.41,-363.12 952.71,-364.54"/>
<polygon fill="#666666" stroke="#666666" points="952.73,-368.04 962.85,-364.91 952.99,-361.05 952.73,-368.04"/>
</g>
<!-- new_request_header -->
<g id="node13" class="node">
<title>new_request_header</title>
<path fill="none" stroke="#1c2123" d="M1101.5,-440C1101.5,-440 997.5,-440 997.5,-440 991.5,-440 985.5,-434 985.5,-428 985.5,-428 985.5,-416 985.5,-416 985.5,-410 991.5,-404 997.5,-404 997.5,-404 1101.5,-404 1101.5,-404 1107.5,-404 1113.5,-410 1113.5,-416 1113.5,-416 1113.5,-428 1113.5,-428 1113.5,-434 1107.5,-440 1101.5,-440"/>
<text text-anchor="middle" x="1049.5" y="-418.3" font-family="Times,serif" font-size="14.00" fill="#2f3638">new_request_header</text>
</g>
<!-- exec_write_requests&#45;&gt;new_request_header -->
<g id="edge12" class="edge">
<title>exec_write_requests&#45;&gt;new_request_header</title>
<path fill="none" stroke="#666666" d="M813.54,-376.01C830.77,-382.8 851.08,-390.07 870,-395 904.07,-403.87 942.62,-410.16 975.15,-414.42"/>
<polygon fill="#666666" stroke="#666666" points="975.12,-417.94 985.48,-415.73 976,-411 975.12,-417.94"/>
</g>
<!-- RaftCmdRequest -->
<g id="node14" class="node">
<title>RaftCmdRequest</title>
<path fill="#79d8ce" stroke="#60b5ac" d="M882,-285C882,-285 1217,-285 1217,-285 1223,-285 1229,-291 1229,-297 1229,-297 1229,-319 1229,-319 1229,-325 1223,-331 1217,-331 1217,-331 882,-331 882,-331 876,-331 870,-325 870,-319 870,-319 870,-297 870,-297 870,-291 876,-285 882,-285"/>
<text text-anchor="middle" x="1049.5" y="-315.8" font-family="Times,serif" font-size="14.00" fill="#5d6179">RaftCmdRequest</text>
<polyline fill="none" stroke="#60b5ac" points="870,-308 1229,-308 "/>
<text text-anchor="start" x="878" y="-292.8" font-family="Times,serif" font-size="14.00" fill="#5d6179">header: RaftRequestHeader reqeusts: RepeatedField&lt;Request&gt;</text>
</g>
<!-- exec_write_requests&#45;&gt;RaftCmdRequest -->
<g id="edge13" class="edge">
<title>exec_write_requests&#45;&gt;RaftCmdRequest</title>
<path fill="none" stroke="#666666" d="M834.01,-346.72C857.03,-342.56 884.11,-337.67 911.13,-332.8"/>
<polygon fill="#666666" stroke="#666666" points="911.86,-336.22 921.08,-331 910.62,-329.33 911.86,-336.22"/>
</g>
<!-- RaftStoreRouter -->
<g id="node20" class="node">
<title>RaftStoreRouter</title>
<path fill="none" stroke="#1c2123" d="M1419,-326C1419,-326 1338,-326 1338,-326 1332,-326 1326,-320 1326,-314 1326,-314 1326,-302 1326,-302 1326,-296 1332,-290 1338,-290 1338,-290 1419,-290 1419,-290 1425,-290 1431,-296 1431,-302 1431,-302 1431,-314 1431,-314 1431,-320 1425,-326 1419,-326"/>
<text text-anchor="middle" x="1378.5" y="-304.3" font-family="Times,serif" font-size="14.00" fill="#2f3638">RaftStoreRouter</text>
</g>
<!-- RaftCmdRequest&#45;&gt;RaftStoreRouter -->
<g id="edge23" class="edge">
<title>RaftCmdRequest&#45;&gt;RaftStoreRouter</title>
<path fill="none" stroke="#666666" d="M1229.31,-308C1260.37,-308 1290.68,-308 1315.72,-308"/>
<polygon fill="#666666" stroke="#666666" points="1315.75,-311.5 1325.75,-308 1315.75,-304.5 1315.75,-311.5"/>
</g>
<!-- modifies -->
<g id="node15" class="node">
<title>modifies</title>
<path fill="none" stroke="#1c2123" d="M148,-311C148,-311 225,-311 225,-311 231,-311 237,-317 237,-323 237,-323 237,-345 237,-345 237,-351 231,-357 225,-357 225,-357 148,-357 148,-357 142,-357 136,-351 136,-345 136,-345 136,-323 136,-323 136,-317 142,-311 148,-311"/>
<text text-anchor="middle" x="186.5" y="-341.8" font-family="Times,serif" font-size="14.00" fill="#2f3638">modifies</text>
<polyline fill="none" stroke="#1c2123" points="136,-334 237,-334 "/>
<text text-anchor="start" x="144" y="-318.8" font-family="Times,serif" font-size="14.00" fill="#2f3638">Vec&lt;modifies&gt;</text>
</g>
<!-- modifies&#45;&gt;modifies_to_requests -->
<g id="edge14" class="edge">
<title>modifies&#45;&gt;modifies_to_requests</title>
<path fill="none" stroke="#666666" d="M237.27,-335.46C246.71,-335.74 256.85,-336.03 267.1,-336.33"/>
<polygon fill="#666666" stroke="#666666" points="267.27,-339.84 277.37,-336.64 267.48,-332.84 267.27,-339.84"/>
</g>
<!-- requests -->
<g id="node16" class="node">
<title>requests</title>
<path fill="none" stroke="#1c2123" d="M622,-334C622,-334 659,-334 659,-334 665,-334 671,-340 671,-346 671,-346 671,-358 671,-358 671,-364 665,-370 659,-370 659,-370 622,-370 622,-370 616,-370 610,-364 610,-358 610,-358 610,-346 610,-346 610,-340 616,-334 622,-334"/>
<text text-anchor="middle" x="640.5" y="-348.3" font-family="Times,serif" font-size="14.00" fill="#2f3638">requests</text>
</g>
<!-- requests&#45;&gt;exec_write_requests -->
<g id="edge21" class="edge">
<title>requests&#45;&gt;exec_write_requests</title>
<path fill="none" stroke="#666666" d="M671.19,-353.39C678.97,-353.76 687.71,-354.17 696.69,-354.59"/>
<polygon fill="#666666" stroke="#666666" points="696.73,-358.09 706.88,-355.06 697.06,-351.1 696.73,-358.09"/>
</g>
<!-- requests&#45;&gt;RaftCmdRequest -->
<g id="edge22" class="edge">
<title>requests&#45;&gt;RaftCmdRequest</title>
<path fill="none" stroke="green" stroke-dasharray="5,2" d="M671.1,-340.83C682.21,-337.08 695.04,-333.29 707,-331 756.01,-321.64 809.61,-315.94 859.51,-312.52"/>
<polygon fill="green" stroke="green" points="860.02,-315.99 869.77,-311.84 859.56,-309.01 860.02,-315.99"/>
</g>
<!-- DeleteRequest&#45;&gt;requests -->
<g id="edge18" class="edge">
<title>DeleteRequest&#45;&gt;requests</title>
<path fill="none" stroke="green" stroke-dasharray="5,2" d="M574.03,-352C582.56,-352 591.4,-352 599.72,-352"/>
<polygon fill="green" stroke="green" points="599.91,-355.5 609.91,-352 599.91,-348.5 599.91,-355.5"/>
</g>
<!-- PutRequest&#45;&gt;requests -->
<g id="edge19" class="edge">
<title>PutRequest&#45;&gt;requests</title>
<path fill="none" stroke="green" stroke-dasharray="5,2" d="M565.11,-387.87C576.64,-382.31 589.34,-376.18 600.94,-370.59"/>
<polygon fill="green" stroke="green" points="602.47,-373.74 609.96,-366.24 599.43,-367.43 602.47,-373.74"/>
</g>
<!-- DeleteRangen&#45;&gt;requests -->
<g id="edge20" class="edge">
<title>DeleteRangen&#45;&gt;requests</title>
<path fill="none" stroke="green" stroke-dasharray="5,2" d="M565.11,-316.13C576.64,-321.69 589.34,-327.82 600.94,-333.41"/>
<polygon fill="green" stroke="green" points="599.43,-336.57 609.96,-337.76 602.47,-330.26 599.43,-336.57"/>
</g>
</g>
</svg>
