<?xml version="1.0" encoding="UTF-8" standalone="no"?>
<!DOCTYPE svg PUBLIC "-//W3C//DTD SVG 1.1//EN"
 "http://www.w3.org/Graphics/SVG/1.1/DTD/svg11.dtd">
<!-- Generated by graphviz version 2.44.1 (20200629.0846)
 -->
<!-- Title: router_send Pages: 1 -->
<svg width="424pt" height="98pt"
 viewBox="0.00 0.00 424.00 98.00" xmlns="http://www.w3.org/2000/svg" xmlns:xlink="http://www.w3.org/1999/xlink">
<g id="graph0" class="graph" transform="scale(1 1) rotate(0) translate(4 94)">
<title>router_send</title>
<polygon fill="white" stroke="transparent" points="-4,4 -4,-94 420,-94 420,4 -4,4"/>
<!-- force_send -->
<g id="node1" class="node">
<title>force_send</title>
<path fill="none" stroke="#1c2123" d="M64,-63C64,-63 12,-63 12,-63 6,-63 0,-57 0,-51 0,-51 0,-39 0,-39 0,-33 6,-27 12,-27 12,-27 64,-27 64,-27 70,-27 76,-33 76,-39 76,-39 76,-51 76,-51 76,-57 70,-63 64,-63"/>
<text text-anchor="middle" x="38" y="-41.3" font-family="Times,serif" font-size="14.00" fill="#2f3638">force_send</text>
</g>
<!-- send -->
<g id="node2" class="node">
<title>send</title>
<path fill="none" stroke="#1c2123" d="M154,-63C154,-63 124,-63 124,-63 118,-63 112,-57 112,-51 112,-51 112,-39 112,-39 112,-33 118,-27 124,-27 124,-27 154,-27 154,-27 160,-27 166,-33 166,-39 166,-39 166,-51 166,-51 166,-57 160,-63 154,-63"/>
<text text-anchor="middle" x="139" y="-41.3" font-family="Times,serif" font-size="14.00" fill="#2f3638">send</text>
</g>
<!-- force_send&#45;&gt;send -->
<g id="edge1" class="edge">
<title>force_send&#45;&gt;send</title>
<path fill="none" stroke="#666666" d="M76.15,-45C84.48,-45 93.31,-45 101.61,-45"/>
<polygon fill="#666666" stroke="#666666" points="101.77,-48.5 111.77,-45 101.77,-41.5 101.77,-48.5"/>
</g>
<!-- try_send -->
<g id="node3" class="node">
<title>try_send</title>
<path fill="none" stroke="#1c2123" d="M253,-63C253,-63 214,-63 214,-63 208,-63 202,-57 202,-51 202,-51 202,-39 202,-39 202,-33 208,-27 214,-27 214,-27 253,-27 253,-27 259,-27 265,-33 265,-39 265,-39 265,-51 265,-51 265,-57 259,-63 253,-63"/>
<text text-anchor="middle" x="233.5" y="-41.3" font-family="Times,serif" font-size="14.00" fill="#2f3638">try_send</text>
</g>
<!-- send&#45;&gt;try_send -->
<g id="edge2" class="edge">
<title>send&#45;&gt;try_send</title>
<path fill="none" stroke="#666666" d="M166.26,-45C174.24,-45 183.21,-45 191.91,-45"/>
<polygon fill="#666666" stroke="#666666" points="191.92,-48.5 201.92,-45 191.92,-41.5 191.92,-48.5"/>
</g>
<!-- check_do -->
<g id="node4" class="node">
<title>check_do</title>
<path fill="none" stroke="#1c2123" d="M380.5,-90C380.5,-90 336.5,-90 336.5,-90 330.5,-90 324.5,-84 324.5,-78 324.5,-78 324.5,-66 324.5,-66 324.5,-60 330.5,-54 336.5,-54 336.5,-54 380.5,-54 380.5,-54 386.5,-54 392.5,-60 392.5,-66 392.5,-66 392.5,-78 392.5,-78 392.5,-84 386.5,-90 380.5,-90"/>
<text text-anchor="middle" x="358.5" y="-68.3" font-family="Times,serif" font-size="14.00" fill="#2f3638">check_do</text>
</g>
<!-- try_send&#45;&gt;check_do -->
<g id="edge3" class="edge">
<title>try_send&#45;&gt;check_do</title>
<path fill="none" stroke="#666666" d="M265.22,-51.74C280.07,-55 298.15,-58.97 314.35,-62.53"/>
<polygon fill="#666666" stroke="#666666" points="313.63,-65.95 324.15,-64.68 315.13,-59.12 313.63,-65.95"/>
</g>
<!-- mailbox_try_send -->
<g id="node5" class="node">
<title>mailbox_try_send</title>
<path fill="none" stroke="#1c2123" d="M404,-36C404,-36 313,-36 313,-36 307,-36 301,-30 301,-24 301,-24 301,-12 301,-12 301,-6 307,0 313,0 313,0 404,0 404,0 410,0 416,-6 416,-12 416,-12 416,-24 416,-24 416,-30 410,-36 404,-36"/>
<text text-anchor="middle" x="358.5" y="-14.3" font-family="Times,serif" font-size="14.00" fill="#2f3638">mailbox_try_send</text>
</g>
<!-- try_send&#45;&gt;mailbox_try_send -->
<g id="edge4" class="edge">
<title>try_send&#45;&gt;mailbox_try_send</title>
<path fill="none" stroke="#666666" d="M265.22,-38.26C273.16,-36.51 282.03,-34.57 291.04,-32.59"/>
<polygon fill="#666666" stroke="#666666" points="291.82,-36 300.83,-30.44 290.31,-29.16 291.82,-36"/>
</g>
</g>
</svg>
