<?xml version="1.0" encoding="UTF-8" standalone="no"?>
<!DOCTYPE svg PUBLIC "-//W3C//DTD SVG 1.1//EN"
 "http://www.w3.org/Graphics/SVG/1.1/DTD/svg11.dtd">
<!-- Generated by graphviz version 2.47.1 (20210417.1919)
 -->
<!-- Title: rpn_expression_builder Pages: 1 -->
<svg width="1581pt" height="452pt"
 viewBox="0.00 0.00 1581.00 452.28" xmlns="http://www.w3.org/2000/svg" xmlns:xlink="http://www.w3.org/1999/xlink">
<g id="graph0" class="graph" transform="scale(1 1) rotate(0) translate(4 448.28)">
<title>rpn_expression_builder</title>
<polygon fill="white" stroke="transparent" points="-4,4 -4,-448.28 1577,-448.28 1577,4 -4,4"/>
<g id="clust6" class="cluster">
<title>cluster_RpnExpression</title>
<path fill="none" stroke="slategrey" stroke-dasharray="5,2" d="M965.5,-113C965.5,-113 1553,-113 1553,-113 1559,-113 1565,-119 1565,-125 1565,-125 1565,-209 1565,-209 1565,-215 1559,-221 1553,-221 1553,-221 965.5,-221 965.5,-221 959.5,-221 953.5,-215 953.5,-209 953.5,-209 953.5,-125 953.5,-125 953.5,-119 959.5,-113 965.5,-113"/>
<text text-anchor="middle" x="1259.25" y="-201" font-family="Times,serif" font-size="20.00">RpnExpression</text>
</g>
<!-- RpnExpressionBuilder_build_from_expr_tree -->
<g id="node1" class="node">
<title>RpnExpressionBuilder_build_from_expr_tree</title>
<path fill="none" stroke="#1c2123" d="M12,-266C12,-266 135,-266 135,-266 141,-266 147,-272 147,-278 147,-278 147,-292 147,-292 147,-298 141,-304 135,-304 135,-304 12,-304 12,-304 6,-304 0,-298 0,-292 0,-292 0,-278 0,-278 0,-272 6,-266 12,-266"/>
<text text-anchor="start" x="8" y="-288.8" font-family="Times,serif" font-size="14.00" fill="#2f3638">RpnExpressionBuilder::</text>
<text text-anchor="middle" x="73.5" y="-273.8" font-family="Times,serif" font-size="14.00" fill="#2f3638"> build_from_expr_tree</text>
</g>
<!-- append_rpn_nodes_recursively -->
<g id="node2" class="node">
<title>append_rpn_nodes_recursively</title>
<path fill="none" stroke="#1c2123" d="M195,-174.5C195,-174.5 356,-174.5 356,-174.5 362,-174.5 368,-180.5 368,-186.5 368,-186.5 368,-223.5 368,-223.5 368,-229.5 362,-235.5 356,-235.5 356,-235.5 195,-235.5 195,-235.5 189,-235.5 183,-229.5 183,-223.5 183,-223.5 183,-186.5 183,-186.5 183,-180.5 189,-174.5 195,-174.5"/>
<text text-anchor="middle" x="275.5" y="-220.3" font-family="Times,serif" font-size="14.00" fill="#2f3638">append_rpn_nodes_recursively</text>
<polyline fill="none" stroke="#1c2123" points="183,-212.5 368,-212.5 "/>
<text text-anchor="start" x="191" y="-197.3" font-family="Times,serif" font-size="14.00" fill="#2f3638">后续遍历expr tree</text>
<text text-anchor="start" x="191" y="-182.3" font-family="Times,serif" font-size="14.00" fill="#2f3638"> 转换为RPN nodes</text>
</g>
<!-- RpnExpressionBuilder_build_from_expr_tree&#45;&gt;append_rpn_nodes_recursively -->
<g id="edge1" class="edge">
<title>RpnExpressionBuilder_build_from_expr_tree&#45;&gt;append_rpn_nodes_recursively</title>
<path fill="none" stroke="#666666" d="M122.15,-265.94C142.05,-257.98 165.81,-248.48 188.57,-239.37"/>
<polygon fill="#666666" stroke="#666666" points="189.93,-242.6 197.91,-235.63 187.33,-236.1 189.93,-242.6"/>
</g>
<!-- RpnExpression_from -->
<g id="node3" class="node">
<title>RpnExpression_from</title>
<path fill="none" stroke="#1c2123" d="M1545,-179C1545,-179 1436,-179 1436,-179 1430,-179 1424,-173 1424,-167 1424,-167 1424,-155 1424,-155 1424,-149 1430,-143 1436,-143 1436,-143 1545,-143 1545,-143 1551,-143 1557,-149 1557,-155 1557,-155 1557,-167 1557,-167 1557,-173 1551,-179 1545,-179"/>
<text text-anchor="middle" x="1490.5" y="-157.3" font-family="Times,serif" font-size="14.00" fill="#2f3638">RpnExpression_from</text>
</g>
<!-- RpnExpressionBuilder_build_from_expr_tree&#45;&gt;RpnExpression_from -->
<g id="edge2" class="edge">
<title>RpnExpressionBuilder_build_from_expr_tree&#45;&gt;RpnExpression_from</title>
<path fill="none" stroke="#666666" d="M113.25,-304.05C190.84,-340.38 371.64,-416 532.5,-416 532.5,-416 532.5,-416 1020.5,-416 1184.05,-416 1253.77,-490.44 1388,-397 1458.06,-348.23 1480.09,-240.48 1486.75,-189.19"/>
<polygon fill="#666666" stroke="#666666" points="1490.24,-189.49 1487.95,-179.15 1483.29,-188.66 1490.24,-189.49"/>
</g>
<!-- handle_node_fn_call -->
<g id="node4" class="node">
<title>handle_node_fn_call</title>
<path fill="none" stroke="#1c2123" d="M416,-206.5C416,-206.5 651,-206.5 651,-206.5 657,-206.5 663,-212.5 663,-218.5 663,-218.5 663,-293.5 663,-293.5 663,-299.5 657,-305.5 651,-305.5 651,-305.5 416,-305.5 416,-305.5 410,-305.5 404,-299.5 404,-293.5 404,-293.5 404,-218.5 404,-218.5 404,-212.5 410,-206.5 416,-206.5"/>
<text text-anchor="middle" x="533.5" y="-290.3" font-family="Times,serif" font-size="14.00" fill="#2f3638">handle_node_fn_call</text>
<polyline fill="none" stroke="#1c2123" points="404,-282.5 663,-282.5 "/>
<text text-anchor="start" x="412" y="-267.3" font-family="Times,serif" font-size="14.00" fill="#2f3638">后续遍历</text>
<polyline fill="none" stroke="#1c2123" points="404,-259.5 663,-259.5 "/>
<text text-anchor="start" x="412" y="-244.3" font-family="Times,serif" font-size="14.00" fill="#2f3638">先遍历所有的args children节点</text>
<text text-anchor="start" x="412" y="-229.3" font-family="Times,serif" font-size="14.00" fill="#2f3638"> push到rpn nodes中</text>
<text text-anchor="start" x="412" y="-214.3" font-family="Times,serif" font-size="14.00" fill="#2f3638"> 然再push一个RpnExpressionNode::FnCall</text>
</g>
<!-- append_rpn_nodes_recursively&#45;&gt;handle_node_fn_call -->
<g id="edge3" class="edge">
<title>append_rpn_nodes_recursively&#45;&gt;handle_node_fn_call</title>
<path fill="none" stroke="#666666" d="M368.2,-223.27C376.64,-224.95 385.32,-226.68 394.05,-228.42"/>
<polygon fill="#666666" stroke="#666666" points="393.45,-231.87 403.94,-230.39 394.82,-225 393.45,-231.87"/>
</g>
<!-- handle_node_constant -->
<g id="node5" class="node">
<title>handle_node_constant</title>
<path fill="none" stroke="#1c2123" d="M459,-0.5C459,-0.5 608,-0.5 608,-0.5 614,-0.5 620,-6.5 620,-12.5 620,-12.5 620,-87.5 620,-87.5 620,-93.5 614,-99.5 608,-99.5 608,-99.5 459,-99.5 459,-99.5 453,-99.5 447,-93.5 447,-87.5 447,-87.5 447,-12.5 447,-12.5 447,-6.5 453,-0.5 459,-0.5"/>
<text text-anchor="middle" x="533.5" y="-84.3" font-family="Times,serif" font-size="14.00" fill="#2f3638">handle_node_constant</text>
<polyline fill="none" stroke="#1c2123" points="447,-76.5 620,-76.5 "/>
<text text-anchor="start" x="455" y="-61.3" font-family="Times,serif" font-size="14.00" fill="#2f3638">叶子节点</text>
<polyline fill="none" stroke="#1c2123" points="447,-53.5 620,-53.5 "/>
<text text-anchor="start" x="455" y="-38.3" font-family="Times,serif" font-size="14.00" fill="#2f3638">抽出相关类型信息数据后</text>
<text text-anchor="start" x="455" y="-23.3" font-family="Times,serif" font-size="14.00" fill="#2f3638"> 创建RpnNode</text>
<text text-anchor="start" x="455" y="-8.3" font-family="Times,serif" font-size="14.00" fill="#2f3638"> push 到rpn_node数组</text>
</g>
<!-- append_rpn_nodes_recursively&#45;&gt;handle_node_constant -->
<g id="edge4" class="edge">
<title>append_rpn_nodes_recursively&#45;&gt;handle_node_constant</title>
<path fill="none" stroke="#666666" d="M312.68,-174.44C337.43,-154.38 371.52,-128.38 404,-109 414.65,-102.65 426.09,-96.51 437.61,-90.74"/>
<polygon fill="#666666" stroke="#666666" points="439.42,-93.75 446.85,-86.2 436.33,-87.47 439.42,-93.75"/>
</g>
<!-- handle_node_column_ref -->
<g id="node6" class="node">
<title>handle_node_column_ref</title>
<path fill="none" stroke="#1c2123" d="M468,-118.5C468,-118.5 599,-118.5 599,-118.5 605,-118.5 611,-124.5 611,-130.5 611,-130.5 611,-175.5 611,-175.5 611,-181.5 605,-187.5 599,-187.5 599,-187.5 468,-187.5 468,-187.5 462,-187.5 456,-181.5 456,-175.5 456,-175.5 456,-130.5 456,-130.5 456,-124.5 462,-118.5 468,-118.5"/>
<text text-anchor="middle" x="533.5" y="-172.3" font-family="Times,serif" font-size="14.00" fill="#2f3638">handle_node_column_ref</text>
<polyline fill="none" stroke="#1c2123" points="456,-164.5 611,-164.5 "/>
<text text-anchor="start" x="464" y="-149.3" font-family="Times,serif" font-size="14.00" fill="#2f3638">叶子节点</text>
<polyline fill="none" stroke="#1c2123" points="456,-141.5 611,-141.5 "/>
<text text-anchor="start" x="464" y="-126.3" font-family="Times,serif" font-size="14.00" fill="#2f3638">创建ColumnRef</text>
</g>
<!-- append_rpn_nodes_recursively&#45;&gt;handle_node_column_ref -->
<g id="edge5" class="edge">
<title>append_rpn_nodes_recursively&#45;&gt;handle_node_column_ref</title>
<path fill="none" stroke="#666666" d="M368.2,-186.37C393.53,-181.23 420.93,-175.66 445.96,-170.58"/>
<polygon fill="#666666" stroke="#666666" points="446.69,-174 455.79,-168.58 445.29,-167.14 446.69,-174"/>
</g>
<!-- fn_mapper -->
<g id="node7" class="node">
<title>fn_mapper</title>
<path fill="none" stroke="#1c2123" d="M817.5,-388C817.5,-388 765.5,-388 765.5,-388 759.5,-388 753.5,-382 753.5,-376 753.5,-376 753.5,-364 753.5,-364 753.5,-358 759.5,-352 765.5,-352 765.5,-352 817.5,-352 817.5,-352 823.5,-352 829.5,-358 829.5,-364 829.5,-364 829.5,-376 829.5,-376 829.5,-382 823.5,-388 817.5,-388"/>
<text text-anchor="middle" x="791.5" y="-366.3" font-family="Times,serif" font-size="14.00" fill="#2f3638">fn_mapper</text>
</g>
<!-- handle_node_fn_call&#45;&gt;fn_mapper -->
<g id="edge6" class="edge">
<title>handle_node_fn_call&#45;&gt;fn_mapper</title>
<path fill="none" stroke="#666666" d="M620.46,-305.6C645.32,-318.8 672.82,-332.34 699,-343 713.21,-348.79 729.11,-353.92 743.63,-358.12"/>
<polygon fill="#666666" stroke="#666666" points="742.84,-361.53 753.42,-360.87 744.74,-354.79 742.84,-361.53"/>
</g>
<!-- func_meta_validator_ptr -->
<g id="node8" class="node">
<title>func_meta_validator_ptr</title>
<path fill="none" stroke="#1c2123" d="M855,-334C855,-334 728,-334 728,-334 722,-334 716,-328 716,-322 716,-322 716,-310 716,-310 716,-304 722,-298 728,-298 728,-298 855,-298 855,-298 861,-298 867,-304 867,-310 867,-310 867,-322 867,-322 867,-328 861,-334 855,-334"/>
<text text-anchor="middle" x="791.5" y="-312.3" font-family="Times,serif" font-size="14.00" fill="#2f3638">func_meta_validator_ptr</text>
</g>
<!-- handle_node_fn_call&#45;&gt;func_meta_validator_ptr -->
<g id="edge7" class="edge">
<title>handle_node_fn_call&#45;&gt;func_meta_validator_ptr</title>
<path fill="none" stroke="#666666" d="M663.25,-286.18C677.78,-289.58 692.29,-292.98 706.05,-296.21"/>
<polygon fill="#666666" stroke="#666666" points="705.38,-299.64 715.92,-298.52 706.98,-292.83 705.38,-299.64"/>
</g>
<!-- args_append_rpn_nodes_recursively -->
<g id="node9" class="node">
<title>args_append_rpn_nodes_recursively</title>
<path fill="#a2dbfa" stroke="#8a8898" d="M711,-233C711,-233 872,-233 872,-233 878,-233 884,-239 884,-245 884,-245 884,-267 884,-267 884,-273 878,-279 872,-279 872,-279 711,-279 711,-279 705,-279 699,-273 699,-267 699,-267 699,-245 699,-245 699,-239 705,-233 711,-233"/>
<text text-anchor="start" x="707" y="-263.8" font-family="Times,serif" font-size="14.00" fill="#5d6179">append_rpn_nodes_recursively</text>
<polyline fill="none" stroke="#8a8898" points="699,-256 884,-256 "/>
<text text-anchor="start" x="707" y="-240.8" font-family="Times,serif" font-size="14.00" fill="#5d6179">对于fn的参数, 递归调用</text>
</g>
<!-- handle_node_fn_call&#45;&gt;args_append_rpn_nodes_recursively -->
<g id="edge8" class="edge">
<title>handle_node_fn_call&#45;&gt;args_append_rpn_nodes_recursively</title>
<path fill="none" stroke="#666666" d="M663.25,-256C671.75,-256 680.24,-256 688.58,-256"/>
<polygon fill="#666666" stroke="#666666" points="688.67,-259.5 698.67,-256 688.67,-252.5 688.67,-259.5"/>
</g>
<!-- rpn_nodes_push -->
<g id="node10" class="node">
<title>rpn_nodes_push</title>
<path fill="none" stroke="#1c2123" d="M973.5,-121.5C973.5,-121.5 1065.5,-121.5 1065.5,-121.5 1071.5,-121.5 1077.5,-127.5 1077.5,-133.5 1077.5,-133.5 1077.5,-170.5 1077.5,-170.5 1077.5,-176.5 1071.5,-182.5 1065.5,-182.5 1065.5,-182.5 973.5,-182.5 973.5,-182.5 967.5,-182.5 961.5,-176.5 961.5,-170.5 961.5,-170.5 961.5,-133.5 961.5,-133.5 961.5,-127.5 967.5,-121.5 973.5,-121.5"/>
<text text-anchor="middle" x="1019.5" y="-167.3" font-family="Times,serif" font-size="14.00" fill="#2f3638">rpn_nodes.push</text>
<polyline fill="none" stroke="#1c2123" points="961.5,-159.5 1077.5,-159.5 "/>
<text text-anchor="start" x="969.5" y="-144.3" font-family="Times,serif" font-size="14.00" fill="#2f3638">将解析后的节点</text>
<text text-anchor="middle" x="1019.5" y="-129.3" font-family="Times,serif" font-size="14.00" fill="#2f3638"> 放入nodes列表</text>
</g>
<!-- handle_node_fn_call&#45;&gt;rpn_nodes_push -->
<g id="edge9" class="edge">
<title>handle_node_fn_call&#45;&gt;rpn_nodes_push</title>
<path fill="none" stroke="#666666" d="M663.4,-231.1C729.5,-218.01 811.2,-201.32 884,-185 906.07,-180.05 930.09,-174.28 951.64,-168.97"/>
<polygon fill="#666666" stroke="#666666" points="952.49,-172.36 961.35,-166.56 950.8,-165.57 952.49,-172.36"/>
</g>
<!-- handle_node_constant&#45;&gt;rpn_nodes_push -->
<g id="edge15" class="edge">
<title>handle_node_constant&#45;&gt;rpn_nodes_push</title>
<path fill="none" stroke="#666666" d="M620.25,-24.45C693,-7.36 798.82,6.47 884,-27 927.93,-44.26 966.04,-83.38 990.37,-113.29"/>
<polygon fill="#666666" stroke="#666666" points="987.89,-115.8 996.86,-121.46 993.38,-111.45 987.89,-115.8"/>
</g>
<!-- RpnExpressionNode_Constant -->
<g id="node14" class="node">
<title>RpnExpressionNode_Constant</title>
<path fill="none" stroke="#1c2123" d="M871,-72C871,-72 712,-72 712,-72 706,-72 700,-66 700,-60 700,-60 700,-48 700,-48 700,-42 706,-36 712,-36 712,-36 871,-36 871,-36 877,-36 883,-42 883,-48 883,-48 883,-60 883,-60 883,-66 877,-72 871,-72"/>
<text text-anchor="middle" x="791.5" y="-50.3" font-family="Times,serif" font-size="14.00" fill="#2f3638">RpnExpressionNode_Constant</text>
</g>
<!-- handle_node_constant&#45;&gt;RpnExpressionNode_Constant -->
<g id="edge16" class="edge">
<title>handle_node_constant&#45;&gt;RpnExpressionNode_Constant</title>
<path fill="none" stroke="#666666" d="M620.1,-51.34C642.38,-51.69 666.6,-52.06 689.6,-52.42"/>
<polygon fill="#666666" stroke="#666666" points="689.66,-55.92 699.71,-52.58 689.77,-48.93 689.66,-55.92"/>
</g>
<!-- handle_node_column_ref&#45;&gt;rpn_nodes_push -->
<g id="edge10" class="edge">
<title>handle_node_column_ref&#45;&gt;rpn_nodes_push</title>
<path fill="none" stroke="#666666" d="M611.4,-133.73C638.86,-127.75 670.13,-121.95 699,-119 780.8,-110.64 802.37,-109.13 884,-119 906.25,-121.69 930.14,-126.8 951.51,-132.21"/>
<polygon fill="#666666" stroke="#666666" points="950.91,-135.66 961.46,-134.79 952.67,-128.89 950.91,-135.66"/>
</g>
<!-- RpnExpressionNode_ColumnRef -->
<g id="node11" class="node">
<title>RpnExpressionNode_ColumnRef</title>
<path fill="none" stroke="#1c2123" d="M739.5,-129C739.5,-129 843.5,-129 843.5,-129 849.5,-129 855.5,-135 855.5,-141 855.5,-141 855.5,-163 855.5,-163 855.5,-169 849.5,-175 843.5,-175 843.5,-175 739.5,-175 739.5,-175 733.5,-175 727.5,-169 727.5,-163 727.5,-163 727.5,-141 727.5,-141 727.5,-135 733.5,-129 739.5,-129"/>
<text text-anchor="start" x="735.5" y="-159.8" font-family="Times,serif" font-size="14.00" fill="#2f3638">RpnExpressionNode</text>
<polyline fill="none" stroke="#1c2123" points="727.5,-152 855.5,-152 "/>
<text text-anchor="start" x="735.5" y="-136.8" font-family="Times,serif" font-size="14.00" fill="#2f3638">ColumnRef</text>
</g>
<!-- handle_node_column_ref&#45;&gt;RpnExpressionNode_ColumnRef -->
<g id="edge11" class="edge">
<title>handle_node_column_ref&#45;&gt;RpnExpressionNode_ColumnRef</title>
<path fill="none" stroke="#666666" d="M611.31,-152.7C644.81,-152.57 683.91,-152.42 717.03,-152.29"/>
<polygon fill="#666666" stroke="#666666" points="717.11,-155.79 727.1,-152.25 717.08,-148.79 717.11,-155.79"/>
</g>
<!-- map_expr_node_to_rpn_func -->
<g id="node12" class="node">
<title>map_expr_node_to_rpn_func</title>
<path fill="#de3737" stroke="#000000" d="M932,-337C932,-337 1107,-337 1107,-337 1113,-337 1119,-343 1119,-349 1119,-349 1119,-371 1119,-371 1119,-377 1113,-383 1107,-383 1107,-383 932,-383 932,-383 926,-383 920,-377 920,-371 920,-371 920,-349 920,-349 920,-343 926,-337 932,-337"/>
<text text-anchor="middle" x="1019.5" y="-367.8" font-family="Times,serif" font-size="14.00" fill="#ffffff">map_expr_node_to_rpn_func</text>
<polyline fill="none" stroke="#000000" points="920,-360 1119,-360 "/>
<text text-anchor="middle" x="1019.5" y="-344.8" font-family="Times,serif" font-size="14.00" fill="#ffffff">将expr node映射为具体的函数</text>
</g>
<!-- fn_mapper&#45;&gt;map_expr_node_to_rpn_func -->
<g id="edge12" class="edge">
<title>fn_mapper&#45;&gt;map_expr_node_to_rpn_func</title>
<path fill="none" stroke="#666666" d="M829.57,-368.36C851.63,-367.38 880.89,-366.09 909.78,-364.81"/>
<polygon fill="#666666" stroke="#666666" points="910.13,-368.3 919.97,-364.36 909.82,-361.31 910.13,-368.3"/>
</g>
<!-- args_append_rpn_nodes_recursively&#45;&gt;rpn_nodes_push -->
<g id="edge18" class="edge">
<title>args_append_rpn_nodes_recursively&#45;&gt;rpn_nodes_push</title>
<path fill="none" stroke="#666666" d="M849.84,-232.83C861.22,-228.05 873.03,-222.96 884,-218 906.39,-207.87 930.58,-196.22 952.19,-185.56"/>
<polygon fill="#666666" stroke="#666666" points="953.87,-188.63 961.28,-181.06 950.76,-182.36 953.87,-188.63"/>
</g>
<!-- rpn_nodes -->
<g id="node15" class="node">
<title>rpn_nodes</title>
<path fill="#feed9b" stroke="#f7e495" d="M1247,-137C1247,-137 1296,-137 1296,-137 1302,-137 1308,-143 1308,-149 1308,-149 1308,-161 1308,-161 1308,-167 1302,-173 1296,-173 1296,-173 1247,-173 1247,-173 1241,-173 1235,-167 1235,-161 1235,-161 1235,-149 1235,-149 1235,-143 1241,-137 1247,-137"/>
<text text-anchor="middle" x="1271.5" y="-151.3" font-family="Times,serif" font-size="14.00" fill="#40575d">rpn_nodes</text>
</g>
<!-- rpn_nodes_push&#45;&gt;rpn_nodes -->
<g id="edge19" class="edge">
<title>rpn_nodes_push&#45;&gt;rpn_nodes</title>
<path fill="none" stroke="green" stroke-dasharray="5,2" d="M1077.54,-152.68C1122.18,-153.22 1183.43,-153.96 1224.86,-154.45"/>
<polygon fill="green" stroke="green" points="1224.9,-157.95 1234.94,-154.57 1224.98,-150.95 1224.9,-157.95"/>
</g>
<!-- RpnExpressionNode_ColumnRef&#45;&gt;rpn_nodes_push -->
<g id="edge14" class="edge">
<title>RpnExpressionNode_ColumnRef&#45;&gt;rpn_nodes_push</title>
<path fill="none" stroke="green" stroke-dasharray="5,2" d="M855.75,-152C885.55,-152 921.12,-152 951.39,-152"/>
<polygon fill="green" stroke="green" points="951.44,-155.5 961.44,-152 951.44,-148.5 951.44,-155.5"/>
</g>
<!-- rpn_fn -->
<g id="node13" class="node">
<title>rpn_fn</title>
<path fill="#a2dbfa" stroke="#8a8898" d="M1167,-326.5C1167,-326.5 1376,-326.5 1376,-326.5 1382,-326.5 1388,-332.5 1388,-338.5 1388,-338.5 1388,-375.5 1388,-375.5 1388,-381.5 1382,-387.5 1376,-387.5 1376,-387.5 1167,-387.5 1167,-387.5 1161,-387.5 1155,-381.5 1155,-375.5 1155,-375.5 1155,-338.5 1155,-338.5 1155,-332.5 1161,-326.5 1167,-326.5"/>
<text text-anchor="middle" x="1271.5" y="-372.3" font-family="Times,serif" font-size="14.00" fill="#5d6179">rpn_fn</text>
<polyline fill="none" stroke="#8a8898" points="1155,-364.5 1388,-364.5 "/>
<text text-anchor="start" x="1163" y="-349.3" font-family="Times,serif" font-size="14.00" fill="#5d6179">macro fn 将函数with_context 生成为</text>
<text text-anchor="start" x="1163" y="-334.3" font-family="Times,serif" font-size="14.00" fill="#5d6179"> with_capacity_fn_meta &#45;&gt; RpnFnMeta</text>
</g>
<!-- map_expr_node_to_rpn_func&#45;&gt;rpn_fn -->
<g id="edge13" class="edge">
<title>map_expr_node_to_rpn_func&#45;&gt;rpn_fn</title>
<path fill="none" stroke="green" stroke-dasharray="5,2" d="M1119.31,-358.81C1127.55,-358.72 1135.96,-358.61 1144.37,-358.51"/>
<polygon fill="green" stroke="green" points="1144.67,-362.01 1154.63,-358.39 1144.59,-355.01 1144.67,-362.01"/>
</g>
<!-- RpnExpressionNode_Constant&#45;&gt;rpn_nodes_push -->
<g id="edge17" class="edge">
<title>RpnExpressionNode_Constant&#45;&gt;rpn_nodes_push</title>
<path fill="none" stroke="#666666" d="M847.58,-72.06C859.68,-76.36 872.36,-81.13 884,-86 906.57,-95.44 930.71,-106.86 952.22,-117.52"/>
<polygon fill="#666666" stroke="#666666" points="950.76,-120.7 961.27,-122.04 953.89,-114.44 950.76,-120.7"/>
</g>
<!-- rpn_nodes&#45;&gt;RpnExpression_from -->
<g id="edge20" class="edge">
<title>rpn_nodes&#45;&gt;RpnExpression_from</title>
<path fill="none" stroke="green" stroke-dasharray="5,2" d="M1308.33,-155.99C1336.82,-156.78 1377.67,-157.91 1413.38,-158.9"/>
<polygon fill="green" stroke="green" points="1413.69,-162.41 1423.79,-159.18 1413.89,-155.41 1413.69,-162.41"/>
</g>
</g>
</svg>
