<?xml version="1.0" encoding="UTF-8" standalone="no"?>
<!DOCTYPE svg PUBLIC "-//W3C//DTD SVG 1.1//EN"
 "http://www.w3.org/Graphics/SVG/1.1/DTD/svg11.dtd">
<!-- Generated by graphviz version 2.44.1 (20200629.0846)
 -->
<!-- Title: sched_txn_command Pages: 1 -->
<svg width="1967pt" height="552pt"
 viewBox="0.00 0.00 1967.00 552.00" xmlns="http://www.w3.org/2000/svg" xmlns:xlink="http://www.w3.org/1999/xlink">
<g id="graph0" class="graph" transform="scale(1 1) rotate(0) translate(4 548)">
<title>sched_txn_command</title>
<polygon fill="white" stroke="transparent" points="-4,4 -4,-548 1963,-548 1963,4 -4,4"/>
<g id="clust1" class="cluster">
<title>cluster_Latches</title>
<path fill="none" stroke="slategrey" stroke-dasharray="5,2" d="M1283,-8C1283,-8 1337,-8 1337,-8 1343,-8 1349,-14 1349,-20 1349,-20 1349,-78 1349,-78 1349,-84 1343,-90 1337,-90 1337,-90 1283,-90 1283,-90 1277,-90 1271,-84 1271,-78 1271,-78 1271,-20 1271,-20 1271,-14 1277,-8 1283,-8"/>
<text text-anchor="middle" x="1310" y="-70" font-family="Times,serif" font-size="20.00">Latches</text>
</g>
<g id="clust2" class="cluster">
<title>cluster_Scheduler</title>
<path fill="none" stroke="slategrey" stroke-dasharray="5,2" d="M207.5,-98C207.5,-98 1939,-98 1939,-98 1945,-98 1951,-104 1951,-110 1951,-110 1951,-434 1951,-434 1951,-440 1945,-446 1939,-446 1939,-446 207.5,-446 207.5,-446 201.5,-446 195.5,-440 195.5,-434 195.5,-434 195.5,-110 195.5,-110 195.5,-104 201.5,-98 207.5,-98"/>
<text text-anchor="middle" x="1073.25" y="-426" font-family="Times,serif" font-size="20.00">Scheduler</text>
</g>
<g id="clust3" class="cluster">
<title>cluster_SchedulerInner</title>
<path fill="none" stroke="slategrey" stroke-dasharray="5,2" d="M356.5,-230C356.5,-230 1931,-230 1931,-230 1937,-230 1943,-236 1943,-242 1943,-242 1943,-386 1943,-386 1943,-392 1937,-398 1931,-398 1931,-398 356.5,-398 356.5,-398 350.5,-398 344.5,-392 344.5,-386 344.5,-386 344.5,-242 344.5,-242 344.5,-236 350.5,-230 356.5,-230"/>
<text text-anchor="middle" x="1143.75" y="-378" font-family="Times,serif" font-size="20.00">SchedulerInner</text>
</g>
<g id="clust9" class="cluster">
<title>cluster_Storage</title>
<path fill="none" stroke="slategrey" stroke-dasharray="5,2" d="M20,-454C20,-454 283,-454 283,-454 289,-454 295,-460 295,-466 295,-466 295,-524 295,-524 295,-530 289,-536 283,-536 283,-536 20,-536 20,-536 14,-536 8,-530 8,-524 8,-524 8,-466 8,-466 8,-460 14,-454 20,-454"/>
<text text-anchor="middle" x="151.5" y="-516" font-family="Times,serif" font-size="20.00">Storage</text>
</g>
<!-- acquire -->
<g id="node1" class="node">
<title>acquire</title>
<path fill="none" stroke="#1c2123" d="M1326,-52C1326,-52 1294,-52 1294,-52 1288,-52 1282,-46 1282,-40 1282,-40 1282,-28 1282,-28 1282,-22 1288,-16 1294,-16 1294,-16 1326,-16 1326,-16 1332,-16 1338,-22 1338,-28 1338,-28 1338,-40 1338,-40 1338,-46 1332,-52 1326,-52"/>
<text text-anchor="middle" x="1310" y="-30.3" font-family="Times,serif" font-size="14.00" fill="#2f3638">acquire</text>
</g>
<!-- on_schedule -->
<g id="node13" class="node">
<title>on_schedule</title>
<path fill="none" stroke="#1c2123" d="M1449,-215C1449,-215 1389,-215 1389,-215 1383,-215 1377,-209 1377,-203 1377,-203 1377,-191 1377,-191 1377,-185 1383,-179 1389,-179 1389,-179 1449,-179 1449,-179 1455,-179 1461,-185 1461,-191 1461,-191 1461,-203 1461,-203 1461,-209 1455,-215 1449,-215"/>
<text text-anchor="middle" x="1419" y="-193.3" font-family="Times,serif" font-size="14.00" fill="#2f3638">on_schedule</text>
</g>
<!-- acquire&#45;&gt;on_schedule -->
<g id="edge16" class="edge">
<title>acquire&#45;&gt;on_schedule</title>
<path fill="none" stroke="green" stroke-dasharray="5,2" d="M1323.86,-52.06C1331.76,-63.68 1341.74,-79.3 1349,-94 1364.94,-126.27 1354.63,-141.8 1377,-170 1377.48,-170.6 1377.97,-171.19 1378.48,-171.78"/>
<polygon fill="green" stroke="green" points="1376.19,-174.43 1385.82,-178.84 1381.04,-169.38 1376.19,-174.43"/>
</g>
<!-- execute -->
<g id="node14" class="node">
<title>execute</title>
<path fill="none" stroke="#1c2123" d="M1436,-161C1436,-161 1402,-161 1402,-161 1396,-161 1390,-155 1390,-149 1390,-149 1390,-137 1390,-137 1390,-131 1396,-125 1402,-125 1402,-125 1436,-125 1436,-125 1442,-125 1448,-131 1448,-137 1448,-137 1448,-149 1448,-149 1448,-155 1442,-161 1436,-161"/>
<text text-anchor="middle" x="1419" y="-139.3" font-family="Times,serif" font-size="14.00" fill="#2f3638">execute</text>
</g>
<!-- acquire&#45;&gt;execute -->
<g id="edge17" class="edge">
<title>acquire&#45;&gt;execute</title>
<path fill="none" stroke="green" stroke-dasharray="5,2" d="M1329.15,-52.49C1346.7,-70.37 1373.45,-97.61 1393.01,-117.54"/>
<polygon fill="green" stroke="green" points="1390.61,-120.1 1400.12,-124.78 1395.61,-115.19 1390.61,-120.1"/>
</g>
<!-- too_busy -->
<g id="node2" class="node">
<title>too_busy</title>
<path fill="none" stroke="#1c2123" d="M406.5,-276C406.5,-276 364.5,-276 364.5,-276 358.5,-276 352.5,-270 352.5,-264 352.5,-264 352.5,-252 352.5,-252 352.5,-246 358.5,-240 364.5,-240 364.5,-240 406.5,-240 406.5,-240 412.5,-240 418.5,-246 418.5,-252 418.5,-252 418.5,-264 418.5,-264 418.5,-270 412.5,-276 406.5,-276"/>
<text text-anchor="middle" x="385.5" y="-254.3" font-family="Times,serif" font-size="14.00" fill="#2f3638">too_busy</text>
</g>
<!-- get_task_slot -->
<g id="node3" class="node">
<title>get_task_slot</title>
<path fill="none" stroke="#1c2123" d="M866,-274C866,-274 802,-274 802,-274 796,-274 790,-268 790,-262 790,-262 790,-250 790,-250 790,-244 796,-238 802,-238 802,-238 866,-238 866,-238 872,-238 878,-244 878,-250 878,-250 878,-262 878,-262 878,-268 872,-274 866,-274"/>
<text text-anchor="middle" x="834" y="-252.3" font-family="Times,serif" font-size="14.00" fill="#2f3638">get_task_slot</text>
</g>
<!-- task_slots -->
<g id="node7" class="node">
<title>task_slots</title>
<path fill="#feed9b" stroke="#f7e495" d="M995,-238.5C995,-238.5 1231,-238.5 1231,-238.5 1237,-238.5 1243,-244.5 1243,-250.5 1243,-250.5 1243,-287.5 1243,-287.5 1243,-293.5 1237,-299.5 1231,-299.5 1231,-299.5 995,-299.5 995,-299.5 989,-299.5 983,-293.5 983,-287.5 983,-287.5 983,-250.5 983,-250.5 983,-244.5 989,-238.5 995,-238.5"/>
<text text-anchor="middle" x="1113" y="-284.3" font-family="Times,serif" font-size="14.00" fill="#40575d">task_slots</text>
<polyline fill="none" stroke="#f7e495" points="983,-276.5 1243,-276.5 "/>
<text text-anchor="start" x="991" y="-261.3" font-family="Times,serif" font-size="14.00" fill="#40575d">Vec&lt;CachePadded&lt;</text>
<text text-anchor="start" x="991" y="-246.3" font-family="Times,serif" font-size="14.00" fill="#40575d"> Mutex&lt;HashMap&lt;u64, TaskContext&gt;&gt;&gt;&gt;,</text>
</g>
<!-- get_task_slot&#45;&gt;task_slots -->
<g id="edge3" class="edge">
<title>get_task_slot&#45;&gt;task_slots</title>
<path fill="none" stroke="#666666" d="M878.28,-258.03C904.04,-259.24 938.32,-260.85 972.66,-262.46"/>
<polygon fill="#666666" stroke="#666666" points="972.67,-265.96 982.83,-262.94 973,-258.97 972.67,-265.96"/>
</g>
<!-- tctx -->
<g id="node8" class="node">
<title>tctx</title>
<path fill="none" stroke="#1c2123" d="M1128,-354C1128,-354 1098,-354 1098,-354 1092,-354 1086,-348 1086,-342 1086,-342 1086,-330 1086,-330 1086,-324 1092,-318 1098,-318 1098,-318 1128,-318 1128,-318 1134,-318 1140,-324 1140,-330 1140,-330 1140,-342 1140,-342 1140,-348 1134,-354 1128,-354"/>
<text text-anchor="middle" x="1113" y="-332.3" font-family="Times,serif" font-size="14.00" fill="#2f3638">tctx</text>
</g>
<!-- get_task_slot&#45;&gt;tctx -->
<g id="edge4" class="edge">
<title>get_task_slot&#45;&gt;tctx</title>
<path fill="none" stroke="green" stroke-dasharray="5,2" d="M878.24,-263.01C899.55,-267.4 925.28,-274.14 947,-284 964.74,-292.05 965.11,-301.3 983,-309 1012.87,-321.86 1049.34,-328.77 1075.87,-332.36"/>
<polygon fill="green" stroke="green" points="1075.51,-335.84 1085.87,-333.62 1076.39,-328.9 1075.51,-335.84"/>
</g>
<!-- new_task_context -->
<g id="node4" class="node">
<title>new_task_context</title>
<path fill="none" stroke="#1c2123" d="M629.5,-358C629.5,-358 539.5,-358 539.5,-358 533.5,-358 527.5,-352 527.5,-346 527.5,-346 527.5,-334 527.5,-334 527.5,-328 533.5,-322 539.5,-322 539.5,-322 629.5,-322 629.5,-322 635.5,-322 641.5,-328 641.5,-334 641.5,-334 641.5,-346 641.5,-346 641.5,-352 635.5,-358 629.5,-358"/>
<text text-anchor="middle" x="584.5" y="-336.3" font-family="Times,serif" font-size="14.00" fill="#2f3638">new_task_context</text>
</g>
<!-- new_task_context&#45;&gt;tctx -->
<g id="edge5" class="edge">
<title>new_task_context&#45;&gt;tctx</title>
<path fill="none" stroke="green" stroke-dasharray="5,2" d="M641.82,-344.58C666.16,-346.34 694.96,-348.14 721,-349 821.39,-352.33 846.63,-352.95 947,-349 991.3,-347.26 1042.14,-342.89 1075.55,-339.7"/>
<polygon fill="green" stroke="green" points="1076.13,-343.16 1085.75,-338.71 1075.46,-336.19 1076.13,-343.16"/>
</g>
<!-- gen_id -->
<g id="node5" class="node">
<title>gen_id</title>
<path fill="none" stroke="#1c2123" d="M496,-240.5C496,-240.5 673,-240.5 673,-240.5 679,-240.5 685,-246.5 685,-252.5 685,-252.5 685,-289.5 685,-289.5 685,-295.5 679,-301.5 673,-301.5 673,-301.5 496,-301.5 496,-301.5 490,-301.5 484,-295.5 484,-289.5 484,-289.5 484,-252.5 484,-252.5 484,-246.5 490,-240.5 496,-240.5"/>
<text text-anchor="middle" x="584.5" y="-286.3" font-family="Times,serif" font-size="14.00" fill="#2f3638">gen_id</text>
<polyline fill="none" stroke="#1c2123" points="484,-278.5 685,-278.5 "/>
<text text-anchor="start" x="492" y="-263.3" font-family="Times,serif" font-size="14.00" fill="#2f3638">let id = self.id_alloc.</text>
<text text-anchor="start" x="492" y="-248.3" font-family="Times,serif" font-size="14.00" fill="#2f3638"> fetch_add(1, Ordering::Relaxed);</text>
</g>
<!-- gen_id&#45;&gt;get_task_slot -->
<g id="edge2" class="edge">
<title>gen_id&#45;&gt;get_task_slot</title>
<path fill="none" stroke="green" stroke-dasharray="5,2" d="M685.1,-264.96C717.38,-263.01 751.93,-260.91 779.52,-259.24"/>
<polygon fill="green" stroke="green" points="779.97,-262.72 789.74,-258.62 779.54,-255.73 779.97,-262.72"/>
</g>
<!-- id_alloc -->
<g id="node6" class="node">
<title>id_alloc</title>
<path fill="#feed9b" stroke="#f7e495" d="M733,-293C733,-293 935,-293 935,-293 941,-293 947,-299 947,-305 947,-305 947,-327 947,-327 947,-333 941,-339 935,-339 935,-339 733,-339 733,-339 727,-339 721,-333 721,-327 721,-327 721,-305 721,-305 721,-299 727,-293 733,-293"/>
<text text-anchor="middle" x="834" y="-323.8" font-family="Times,serif" font-size="14.00" fill="#40575d">id_alloc</text>
<polyline fill="none" stroke="#f7e495" points="721,-316 947,-316 "/>
<text text-anchor="start" x="729" y="-300.8" font-family="Times,serif" font-size="14.00" fill="#40575d">id_alloc: CachePadded&lt;AtomicU64&gt;,</text>
</g>
<!-- gen_id&#45;&gt;id_alloc -->
<g id="edge1" class="edge">
<title>gen_id&#45;&gt;id_alloc</title>
<path fill="none" stroke="#666666" d="M685.1,-289.11C693.5,-290.64 702.05,-292.19 710.6,-293.74"/>
<polygon fill="#666666" stroke="#666666" points="710.15,-297.22 720.61,-295.57 711.4,-290.33 710.15,-297.22"/>
</g>
<!-- tctx&#45;&gt;acquire -->
<g id="edge6" class="edge">
<title>tctx&#45;&gt;acquire</title>
<path fill="none" stroke="green" stroke-dasharray="5,2" d="M1140.26,-338.63C1169.77,-340 1216.96,-337.12 1243,-309 1275.74,-273.65 1254.61,-139.31 1271,-94 1275.25,-82.25 1282.09,-70.4 1288.8,-60.38"/>
<polygon fill="green" stroke="green" points="1291.74,-62.28 1294.6,-52.08 1286,-58.27 1291.74,-62.28"/>
</g>
<!-- process_by_worker -->
<g id="node9" class="node">
<title>process_by_worker</title>
<path fill="none" stroke="#1c2123" d="M1756,-238.5C1756,-238.5 1923,-238.5 1923,-238.5 1929,-238.5 1935,-244.5 1935,-250.5 1935,-250.5 1935,-325.5 1935,-325.5 1935,-331.5 1929,-337.5 1923,-337.5 1923,-337.5 1756,-337.5 1756,-337.5 1750,-337.5 1744,-331.5 1744,-325.5 1744,-325.5 1744,-250.5 1744,-250.5 1744,-244.5 1750,-238.5 1756,-238.5"/>
<text text-anchor="middle" x="1839.5" y="-322.3" font-family="Times,serif" font-size="14.00" fill="#2f3638">process_by_worker</text>
<polyline fill="none" stroke="#1c2123" points="1744,-314.5 1935,-314.5 "/>
<text text-anchor="start" x="1752" y="-299.3" font-family="Times,serif" font-size="14.00" fill="#2f3638">Delivers a command </text>
<text text-anchor="start" x="1752" y="-284.3" font-family="Times,serif" font-size="14.00" fill="#2f3638"> to worker thread for processing</text>
<polyline fill="none" stroke="#1c2123" points="1744,-276.5 1935,-276.5 "/>
<text text-anchor="start" x="1752" y="-261.3" font-family="Times,serif" font-size="14.00" fill="#2f3638">在线程池执行cmd</text>
<text text-anchor="start" x="1752" y="-246.3" font-family="Times,serif" font-size="14.00" fill="#2f3638"> cmd会使用snapshot</text>
</g>
<!-- run_cmd -->
<g id="node10" class="node">
<title>run_cmd</title>
<path fill="none" stroke="#1c2123" d="M256.5,-249C256.5,-249 215.5,-249 215.5,-249 209.5,-249 203.5,-243 203.5,-237 203.5,-237 203.5,-225 203.5,-225 203.5,-219 209.5,-213 215.5,-213 215.5,-213 256.5,-213 256.5,-213 262.5,-213 268.5,-219 268.5,-225 268.5,-225 268.5,-237 268.5,-237 268.5,-243 262.5,-249 256.5,-249"/>
<text text-anchor="middle" x="236" y="-227.3" font-family="Times,serif" font-size="14.00" fill="#2f3638">run_cmd</text>
</g>
<!-- run_cmd&#45;&gt;too_busy -->
<g id="edge7" class="edge">
<title>run_cmd&#45;&gt;too_busy</title>
<path fill="none" stroke="#666666" d="M268.64,-236.79C290.17,-240.73 318.91,-245.99 342.37,-250.29"/>
<polygon fill="#666666" stroke="#666666" points="341.93,-253.77 352.4,-252.12 343.19,-246.88 341.93,-253.77"/>
</g>
<!-- need_flow_control -->
<g id="node11" class="node">
<title>need_flow_control</title>
<path fill="none" stroke="#1c2123" d="M432.5,-222C432.5,-222 338.5,-222 338.5,-222 332.5,-222 326.5,-216 326.5,-210 326.5,-210 326.5,-198 326.5,-198 326.5,-192 332.5,-186 338.5,-186 338.5,-186 432.5,-186 432.5,-186 438.5,-186 444.5,-192 444.5,-198 444.5,-198 444.5,-210 444.5,-210 444.5,-216 438.5,-222 432.5,-222"/>
<text text-anchor="middle" x="385.5" y="-200.3" font-family="Times,serif" font-size="14.00" fill="#2f3638">need_flow_control</text>
</g>
<!-- run_cmd&#45;&gt;need_flow_control -->
<g id="edge8" class="edge">
<title>run_cmd&#45;&gt;need_flow_control</title>
<path fill="none" stroke="#666666" d="M268.64,-225.21C282.59,-222.65 299.56,-219.55 316.17,-216.51"/>
<polygon fill="#666666" stroke="#666666" points="317.22,-219.87 326.43,-214.63 315.96,-212.99 317.22,-219.87"/>
</g>
<!-- schedule_command -->
<g id="node12" class="node">
<title>schedule_command</title>
<path fill="none" stroke="#1c2123" d="M436,-168C436,-168 335,-168 335,-168 329,-168 323,-162 323,-156 323,-156 323,-144 323,-144 323,-138 329,-132 335,-132 335,-132 436,-132 436,-132 442,-132 448,-138 448,-144 448,-144 448,-156 448,-156 448,-162 442,-168 436,-168"/>
<text text-anchor="middle" x="385.5" y="-146.3" font-family="Times,serif" font-size="14.00" fill="#2f3638">schedule_command</text>
</g>
<!-- run_cmd&#45;&gt;schedule_command -->
<g id="edge9" class="edge">
<title>run_cmd&#45;&gt;schedule_command</title>
<path fill="none" stroke="#666666" d="M263.51,-212.93C280.21,-201.91 302.44,-187.89 323,-177 325.89,-175.47 328.87,-173.95 331.91,-172.46"/>
<polygon fill="#666666" stroke="#666666" points="333.58,-175.55 341.11,-168.09 330.57,-169.23 333.58,-175.55"/>
</g>
<!-- schedule_command&#45;&gt;acquire -->
<g id="edge10" class="edge">
<title>schedule_command&#45;&gt;acquire</title>
<path fill="none" stroke="#666666" d="M448.1,-142.25C624.91,-120.02 1130.39,-56.46 1271.83,-38.67"/>
<polygon fill="#666666" stroke="#666666" points="1272.26,-42.15 1281.75,-37.43 1271.39,-35.2 1272.26,-42.15"/>
</g>
<!-- schedule_command&#45;&gt;get_task_slot -->
<g id="edge11" class="edge">
<title>schedule_command&#45;&gt;get_task_slot</title>
<path fill="none" stroke="#666666" d="M448.04,-159.06C509.27,-169.12 605.33,-187.76 685,-216 701.86,-221.98 704.07,-228.22 721,-234 739.76,-240.4 760.96,-245.16 779.82,-248.58"/>
<polygon fill="#666666" stroke="#666666" points="779.29,-252.04 789.74,-250.3 780.49,-245.14 779.29,-252.04"/>
</g>
<!-- schedule_command&#45;&gt;new_task_context -->
<g id="edge12" class="edge">
<title>schedule_command&#45;&gt;new_task_context</title>
<path fill="none" stroke="#666666" d="M438.06,-168.08C441.73,-170.68 445.11,-173.64 448,-177 488.19,-223.77 440.86,-266.94 484,-311 493.18,-320.37 505.2,-326.76 517.7,-331.1"/>
<polygon fill="#666666" stroke="#666666" points="516.73,-334.46 527.31,-334.04 518.77,-327.77 516.73,-334.46"/>
</g>
<!-- schedule_command&#45;&gt;gen_id -->
<g id="edge13" class="edge">
<title>schedule_command&#45;&gt;gen_id</title>
<path fill="none" stroke="#666666" d="M435.54,-168.12C439.98,-170.75 444.22,-173.7 448,-177 468.87,-195.24 461.95,-212.86 482.16,-233.5"/>
<polygon fill="#666666" stroke="#666666" points="479.97,-236.23 489.74,-240.31 484.64,-231.03 479.97,-236.23"/>
</g>
<!-- schedule_command&#45;&gt;on_schedule -->
<g id="edge14" class="edge">
<title>schedule_command&#45;&gt;on_schedule</title>
<path fill="none" stroke="#666666" d="M428.31,-168.02C434.92,-170.97 441.67,-174.03 448,-177 464.19,-184.6 466.96,-189.57 484,-195 570.13,-222.43 619.55,-163.66 685,-226 742.82,-281.06 659.14,-351.52 721,-402 937.23,-578.48 1122.33,-564.87 1349,-402 1405.75,-361.22 1416.45,-271.41 1418.07,-225.4"/>
<polygon fill="#666666" stroke="#666666" points="1421.57,-225.3 1418.3,-215.22 1414.57,-225.14 1421.57,-225.3"/>
</g>
<!-- schedule_command&#45;&gt;execute -->
<g id="edge15" class="edge">
<title>schedule_command&#45;&gt;execute</title>
<path fill="none" stroke="#666666" d="M448.25,-149.77C534.42,-149.48 695.6,-149 833,-149 833,-149 833,-149 1114,-149 1209.66,-149 1322.23,-145.99 1379.82,-144.24"/>
<polygon fill="#666666" stroke="#666666" points="1380.04,-147.73 1389.92,-143.92 1379.82,-140.74 1380.04,-147.73"/>
</g>
<!-- with_tls_engine -->
<g id="node15" class="node">
<title>with_tls_engine</title>
<path fill="none" stroke="#1c2123" d="M1597,-222C1597,-222 1518,-222 1518,-222 1512,-222 1506,-216 1506,-210 1506,-210 1506,-198 1506,-198 1506,-192 1512,-186 1518,-186 1518,-186 1597,-186 1597,-186 1603,-186 1609,-192 1609,-198 1609,-198 1609,-210 1609,-210 1609,-216 1603,-222 1597,-222"/>
<text text-anchor="middle" x="1557.5" y="-200.3" font-family="Times,serif" font-size="14.00" fill="#2f3638">with_tls_engine</text>
</g>
<!-- execute&#45;&gt;with_tls_engine -->
<g id="edge18" class="edge">
<title>execute&#45;&gt;with_tls_engine</title>
<path fill="none" stroke="#666666" d="M1448.28,-155.64C1465.2,-163.2 1487.18,-173.02 1506.91,-181.84"/>
<polygon fill="#666666" stroke="#666666" points="1505.53,-185.06 1516.09,-185.94 1508.38,-178.66 1505.53,-185.06"/>
</g>
<!-- async_snapshot -->
<g id="node16" class="node">
<title>async_snapshot</title>
<path fill="none" stroke="#1c2123" d="M1509,-106.5C1509,-106.5 1606,-106.5 1606,-106.5 1612,-106.5 1618,-112.5 1618,-118.5 1618,-118.5 1618,-155.5 1618,-155.5 1618,-161.5 1612,-167.5 1606,-167.5 1606,-167.5 1509,-167.5 1509,-167.5 1503,-167.5 1497,-161.5 1497,-155.5 1497,-155.5 1497,-118.5 1497,-118.5 1497,-112.5 1503,-106.5 1509,-106.5"/>
<text text-anchor="middle" x="1557.5" y="-152.3" font-family="Times,serif" font-size="14.00" fill="#2f3638">async_snapshot</text>
<polyline fill="none" stroke="#1c2123" points="1497,-144.5 1618,-144.5 "/>
<text text-anchor="start" x="1505" y="-129.3" font-family="Times,serif" font-size="14.00" fill="#2f3638">异步获取snapshot</text>
<text text-anchor="start" x="1505" y="-114.3" font-family="Times,serif" font-size="14.00" fill="#2f3638"> 然后回调</text>
</g>
<!-- execute&#45;&gt;async_snapshot -->
<g id="edge19" class="edge">
<title>execute&#45;&gt;async_snapshot</title>
<path fill="none" stroke="#666666" d="M1448.28,-141.76C1459.48,-141.26 1472.9,-140.67 1486.42,-140.08"/>
<polygon fill="#666666" stroke="#666666" points="1486.9,-143.56 1496.73,-139.63 1486.59,-136.57 1486.9,-143.56"/>
</g>
<!-- cb -->
<g id="node17" class="node">
<title>cb</title>
<path fill="none" stroke="#1c2123" d="M1696,-188C1696,-188 1666,-188 1666,-188 1660,-188 1654,-182 1654,-176 1654,-176 1654,-164 1654,-164 1654,-158 1660,-152 1666,-152 1666,-152 1696,-152 1696,-152 1702,-152 1708,-158 1708,-164 1708,-164 1708,-176 1708,-176 1708,-182 1702,-188 1696,-188"/>
<text text-anchor="middle" x="1681" y="-166.3" font-family="Times,serif" font-size="14.00" fill="#2f3638">cb</text>
</g>
<!-- async_snapshot&#45;&gt;cb -->
<g id="edge20" class="edge">
<title>async_snapshot&#45;&gt;cb</title>
<path fill="none" stroke="green" stroke-dasharray="5,2" d="M1618.18,-153.21C1626.96,-155.59 1635.77,-157.99 1643.87,-160.19"/>
<polygon fill="green" stroke="green" points="1643.13,-163.61 1653.7,-162.86 1644.97,-156.86 1643.13,-163.61"/>
</g>
<!-- cb&#45;&gt;process_by_worker -->
<g id="edge21" class="edge">
<title>cb&#45;&gt;process_by_worker</title>
<path fill="none" stroke="#666666" d="M1706.11,-188.18C1721.92,-200.1 1743.52,-216.39 1764.69,-232.35"/>
<polygon fill="#666666" stroke="#666666" points="1762.68,-235.21 1772.77,-238.44 1766.89,-229.62 1762.68,-235.21"/>
</g>
<!-- sched_txn_command -->
<g id="node18" class="node">
<title>sched_txn_command</title>
<path fill="none" stroke="#1c2123" d="M137,-498C137,-498 28,-498 28,-498 22,-498 16,-492 16,-486 16,-486 16,-474 16,-474 16,-468 22,-462 28,-462 28,-462 137,-462 137,-462 143,-462 149,-468 149,-474 149,-474 149,-486 149,-486 149,-492 143,-498 137,-498"/>
<text text-anchor="middle" x="82.5" y="-476.3" font-family="Times,serif" font-size="14.00" fill="#2f3638">sched_txn_command</text>
</g>
<!-- sched_txn_command&#45;&gt;run_cmd -->
<g id="edge22" class="edge">
<title>sched_txn_command&#45;&gt;run_cmd</title>
<path fill="none" stroke="#666666" d="M94.64,-461.69C121.08,-418.24 187.72,-308.72 218.7,-257.8"/>
<polygon fill="#666666" stroke="#666666" points="221.84,-259.36 224.05,-249 215.86,-255.72 221.84,-259.36"/>
</g>
<!-- check_key_size -->
<g id="node19" class="node">
<title>check_key_size</title>
<path fill="none" stroke="#1c2123" d="M275,-498C275,-498 197,-498 197,-498 191,-498 185,-492 185,-486 185,-486 185,-474 185,-474 185,-468 191,-462 197,-462 197,-462 275,-462 275,-462 281,-462 287,-468 287,-474 287,-474 287,-486 287,-486 287,-492 281,-498 275,-498"/>
<text text-anchor="middle" x="236" y="-476.3" font-family="Times,serif" font-size="14.00" fill="#2f3638">check_key_size</text>
</g>
<!-- sched_txn_command&#45;&gt;check_key_size -->
<g id="edge23" class="edge">
<title>sched_txn_command&#45;&gt;check_key_size</title>
<path fill="none" stroke="#666666" d="M149.07,-480C157.6,-480 166.3,-480 174.74,-480"/>
<polygon fill="#666666" stroke="#666666" points="174.86,-483.5 184.86,-480 174.86,-476.5 174.86,-483.5"/>
</g>
</g>
</svg>
