<?xml version="1.0" encoding="UTF-8" standalone="no"?>
<!DOCTYPE svg PUBLIC "-//W3C//DTD SVG 1.1//EN"
 "http://www.w3.org/Graphics/SVG/1.1/DTD/svg11.dtd">
<!-- Generated by graphviz version 2.47.1 (20210417.1919)
 -->
<!-- Title: simple_agg Pages: 1 -->
<svg width="1955pt" height="386pt"
 viewBox="0.00 0.00 1955.00 386.39" xmlns="http://www.w3.org/2000/svg" xmlns:xlink="http://www.w3.org/1999/xlink">
<g id="graph0" class="graph" transform="scale(1 1) rotate(0) translate(4 382.39)">
<title>simple_agg</title>
<polygon fill="white" stroke="transparent" points="-4,4 -4,-382.39 1951,-382.39 1951,4 -4,4"/>
<g id="clust2" class="cluster">
<title>cluster_for_loop</title>
<path fill="none" stroke="slategrey" stroke-dasharray="5,2" d="M403,-227.39C403,-227.39 1513,-227.39 1513,-227.39 1519,-227.39 1525,-233.39 1525,-239.39 1525,-239.39 1525,-358.39 1525,-358.39 1525,-364.39 1519,-370.39 1513,-370.39 1513,-370.39 403,-370.39 403,-370.39 397,-370.39 391,-364.39 391,-358.39 391,-358.39 391,-239.39 391,-239.39 391,-233.39 397,-227.39 403,-227.39"/>
<text text-anchor="middle" x="958" y="-350.39" font-family="Times,serif" font-size="20.00">for idx in 0...self.states.len()</text>
</g>
<!-- process_batch_input -->
<g id="node1" class="node">
<title>process_batch_input</title>
<path fill="#79d8ce" stroke="#60b5ac" d="M193.5,-175.89C193.5,-175.89 345.5,-175.89 345.5,-175.89 351.5,-175.89 357.5,-181.89 357.5,-187.89 357.5,-187.89 357.5,-254.89 357.5,-254.89 357.5,-260.89 351.5,-266.89 345.5,-266.89 345.5,-266.89 193.5,-266.89 193.5,-266.89 187.5,-266.89 181.5,-260.89 181.5,-254.89 181.5,-254.89 181.5,-187.89 181.5,-187.89 181.5,-181.89 187.5,-175.89 193.5,-175.89"/>
<text text-anchor="start" x="189.5" y="-251.69" font-family="Times,serif" font-size="14.00" fill="#5d6179">SimpleAggregationImpl::</text>
<text text-anchor="start" x="189.5" y="-236.69" font-family="Times,serif" font-size="14.00" fill="#5d6179">process_batch_input</text>
<polyline fill="none" stroke="#60b5ac" points="181.5,-228.89 357.5,-228.89 "/>
<text text-anchor="start" x="189.5" y="-213.69" font-family="Times,serif" font-size="14.00" fill="#5d6179">遍历self.states</text>
<text text-anchor="start" x="189.5" y="-198.69" font-family="Times,serif" font-size="14.00" fill="#5d6179"> 调用each_aggr_exprs[idx]</text>
<text text-anchor="start" x="189.5" y="-183.69" font-family="Times,serif" font-size="14.00" fill="#5d6179"> 将结果保存在states[idx]上</text>
</g>
<!-- entities_each_aggr_exprs -->
<g id="node2" class="node">
<title>entities_each_aggr_exprs</title>
<path fill="#feed9b" stroke="#f7e495" d="M411,-285.39C411,-285.39 544,-285.39 544,-285.39 550,-285.39 556,-291.39 556,-297.39 556,-297.39 556,-319.39 556,-319.39 556,-325.39 550,-331.39 544,-331.39 544,-331.39 411,-331.39 411,-331.39 405,-331.39 399,-325.39 399,-319.39 399,-319.39 399,-297.39 399,-297.39 399,-291.39 405,-285.39 411,-285.39"/>
<text text-anchor="start" x="407" y="-316.19" font-family="Times,serif" font-size="14.00" fill="#40575d">Entities::each_aggr_exprs</text>
<polyline fill="none" stroke="#f7e495" points="399,-308.39 556,-308.39 "/>
<text text-anchor="start" x="407" y="-293.19" font-family="Times,serif" font-size="14.00" fill="#40575d">Vec&lt;RpnExpression&gt;</text>
</g>
<!-- process_batch_input&#45;&gt;entities_each_aggr_exprs -->
<g id="edge1" class="edge">
<title>process_batch_input&#45;&gt;entities_each_aggr_exprs</title>
<path fill="none" stroke="#666666" d="M357.56,-258.16C376,-265.94 395.14,-274.02 412.53,-281.37"/>
<polygon fill="#666666" stroke="#666666" points="411.42,-284.7 422,-285.37 414.15,-278.25 411.42,-284.7"/>
</g>
<!-- aggr_expr_eval -->
<g id="node3" class="node">
<title>aggr_expr_eval</title>
<path fill="none" stroke="#1c2123" d="M604,-246.89C604,-246.89 709,-246.89 709,-246.89 715,-246.89 721,-252.89 721,-258.89 721,-258.89 721,-303.89 721,-303.89 721,-309.89 715,-315.89 709,-315.89 709,-315.89 604,-315.89 604,-315.89 598,-315.89 592,-309.89 592,-303.89 592,-303.89 592,-258.89 592,-258.89 592,-252.89 598,-246.89 604,-246.89"/>
<text text-anchor="middle" x="656.5" y="-300.69" font-family="Times,serif" font-size="14.00" fill="#2f3638">aggr_expr_eval</text>
<polyline fill="none" stroke="#1c2123" points="592,-292.89 721,-292.89 "/>
<text text-anchor="start" x="600" y="-277.69" font-family="Times,serif" font-size="14.00" fill="#2f3638">RpnExpression::eval</text>
<polyline fill="none" stroke="#1c2123" points="592,-269.89 721,-269.89 "/>
<text text-anchor="start" x="600" y="-254.69" font-family="Times,serif" font-size="14.00" fill="#2f3638">RpnExpression求值</text>
</g>
<!-- process_batch_input&#45;&gt;aggr_expr_eval -->
<g id="edge2" class="edge">
<title>process_batch_input&#45;&gt;aggr_expr_eval</title>
<path fill="none" stroke="#666666" d="M357.86,-235C425.46,-245.54 518.01,-259.96 581.88,-269.91"/>
<polygon fill="#666666" stroke="#666666" points="581.45,-273.39 591.87,-271.47 582.53,-266.47 581.45,-273.39"/>
</g>
<!-- macro_match_template_evaluable -->
<g id="node4" class="node">
<title>macro_match_template_evaluable</title>
<path fill="none" stroke="#1c2123" d="M769,-250.39C769,-250.39 912,-250.39 912,-250.39 918,-250.39 924,-256.39 924,-262.39 924,-262.39 924,-274.39 924,-274.39 924,-280.39 918,-286.39 912,-286.39 912,-286.39 769,-286.39 769,-286.39 763,-286.39 757,-280.39 757,-274.39 757,-274.39 757,-262.39 757,-262.39 757,-256.39 763,-250.39 769,-250.39"/>
<text text-anchor="middle" x="840.5" y="-264.69" font-family="Times,serif" font-size="14.00" fill="#2f3638">match_template_evaluable!</text>
</g>
<!-- process_batch_input&#45;&gt;macro_match_template_evaluable -->
<g id="edge3" class="edge">
<title>process_batch_input&#45;&gt;macro_match_template_evaluable</title>
<path fill="none" stroke="#666666" d="M357.8,-218.82C448.93,-217.47 595.75,-219.01 721,-237.39 737.38,-239.79 754.75,-243.6 771,-247.73"/>
<polygon fill="#666666" stroke="#666666" points="770.4,-251.19 780.96,-250.34 772.17,-244.42 770.4,-251.19"/>
</g>
<!-- macro_update_repeat -->
<g id="node5" class="node">
<title>macro_update_repeat</title>
<path fill="none" stroke="#1c2123" d="M972.5,-291.39C972.5,-291.39 1045.5,-291.39 1045.5,-291.39 1051.5,-291.39 1057.5,-297.39 1057.5,-303.39 1057.5,-303.39 1057.5,-315.39 1057.5,-315.39 1057.5,-321.39 1051.5,-327.39 1045.5,-327.39 1045.5,-327.39 972.5,-327.39 972.5,-327.39 966.5,-327.39 960.5,-321.39 960.5,-315.39 960.5,-315.39 960.5,-303.39 960.5,-303.39 960.5,-297.39 966.5,-291.39 972.5,-291.39"/>
<text text-anchor="middle" x="1009" y="-305.69" font-family="Times,serif" font-size="14.00" fill="#2f3638">update_repeat!</text>
</g>
<!-- process_batch_input&#45;&gt;macro_update_repeat -->
<g id="edge4" class="edge">
<title>process_batch_input&#45;&gt;macro_update_repeat</title>
<path fill="none" stroke="#666666" d="M357.54,-201.52C488.62,-176.36 740.82,-146.8 924,-241.39 945.55,-252.51 941.16,-267.11 960,-282.39 961.33,-283.46 962.7,-284.52 964.12,-285.56"/>
<polygon fill="#666666" stroke="#666666" points="962.25,-288.52 972.49,-291.24 966.18,-282.73 962.25,-288.52"/>
</g>
<!-- macro_update_vector -->
<g id="node6" class="node">
<title>macro_update_vector</title>
<path fill="none" stroke="#1c2123" d="M972,-236.39C972,-236.39 1046,-236.39 1046,-236.39 1052,-236.39 1058,-242.39 1058,-248.39 1058,-248.39 1058,-260.39 1058,-260.39 1058,-266.39 1052,-272.39 1046,-272.39 1046,-272.39 972,-272.39 972,-272.39 966,-272.39 960,-266.39 960,-260.39 960,-260.39 960,-248.39 960,-248.39 960,-242.39 966,-236.39 972,-236.39"/>
<text text-anchor="middle" x="1009" y="-250.69" font-family="Times,serif" font-size="14.00" fill="#2f3638">update_vector!</text>
</g>
<!-- process_batch_input&#45;&gt;macro_update_vector -->
<g id="edge5" class="edge">
<title>process_batch_input&#45;&gt;macro_update_vector</title>
<path fill="none" stroke="#666666" d="M357.51,-176.48C368.55,-172.34 379.88,-168.8 391,-166.39 506.74,-141.22 815.11,-119.79 924,-166.39 952.88,-178.75 976.56,-206.45 991.33,-227.5"/>
<polygon fill="#666666" stroke="#666666" points="988.61,-229.72 997.11,-236.05 994.41,-225.8 988.61,-229.72"/>
</g>
<!-- entities_each_aggr_exprs&#45;&gt;aggr_expr_eval -->
<g id="edge6" class="edge">
<title>entities_each_aggr_exprs&#45;&gt;aggr_expr_eval</title>
<path fill="none" stroke="#666666" d="M556.13,-296.54C564.75,-295.23 573.5,-293.89 582.06,-292.59"/>
<polygon fill="#666666" stroke="#666666" points="582.64,-296.04 591.99,-291.07 581.58,-289.12 582.64,-296.04"/>
</g>
<!-- aggr_expr_eval&#45;&gt;macro_match_template_evaluable -->
<g id="edge7" class="edge">
<title>aggr_expr_eval&#45;&gt;macro_match_template_evaluable</title>
<path fill="none" stroke="#666666" d="M721.15,-276.84C729.41,-276.25 737.99,-275.64 746.59,-275.02"/>
<polygon fill="#666666" stroke="#666666" points="746.96,-278.5 756.69,-274.3 746.46,-271.52 746.96,-278.5"/>
</g>
<!-- macro_match_template_evaluable&#45;&gt;macro_update_repeat -->
<g id="edge8" class="edge">
<title>macro_match_template_evaluable&#45;&gt;macro_update_repeat</title>
<path fill="none" stroke="#666666" d="M915.01,-286.49C926.87,-289.41 939,-292.39 950.41,-295.2"/>
<polygon fill="#666666" stroke="#666666" points="949.69,-298.63 960.23,-297.62 951.36,-291.83 949.69,-298.63"/>
</g>
<!-- macro_match_template_evaluable&#45;&gt;macro_update_vector -->
<g id="edge9" class="edge">
<title>macro_match_template_evaluable&#45;&gt;macro_update_vector</title>
<path fill="none" stroke="#666666" d="M924.26,-261.43C932.87,-260.7 941.48,-259.98 949.74,-259.28"/>
<polygon fill="#666666" stroke="#666666" points="950.3,-262.75 959.97,-258.42 949.71,-255.77 950.3,-262.75"/>
</g>
<!-- update_repeat -->
<g id="node7" class="node">
<title>update_repeat</title>
<path fill="none" stroke="#1c2123" d="M1106,-293.39C1106,-293.39 1209,-293.39 1209,-293.39 1215,-293.39 1221,-299.39 1221,-305.39 1221,-305.39 1221,-319.39 1221,-319.39 1221,-325.39 1215,-331.39 1209,-331.39 1209,-331.39 1106,-331.39 1106,-331.39 1100,-331.39 1094,-325.39 1094,-319.39 1094,-319.39 1094,-305.39 1094,-305.39 1094,-299.39 1100,-293.39 1106,-293.39"/>
<text text-anchor="start" x="1102" y="-316.19" font-family="Times,serif" font-size="14.00" fill="#2f3638">AggrFunctionState::</text>
<text text-anchor="start" x="1102" y="-301.19" font-family="Times,serif" font-size="14.00" fill="#2f3638"> update_repeat</text>
</g>
<!-- macro_update_repeat&#45;&gt;update_repeat -->
<g id="edge10" class="edge">
<title>macro_update_repeat&#45;&gt;update_repeat</title>
<path fill="none" stroke="green" stroke-dasharray="5,2" d="M1057.56,-310.36C1066,-310.53 1074.96,-310.72 1083.91,-310.9"/>
<polygon fill="green" stroke="green" points="1083.9,-314.4 1093.97,-311.11 1084.05,-307.4 1083.9,-314.4"/>
</g>
<!-- update_vector -->
<g id="node9" class="node">
<title>update_vector</title>
<path fill="none" stroke="#1c2123" d="M1106,-236.39C1106,-236.39 1209,-236.39 1209,-236.39 1215,-236.39 1221,-242.39 1221,-248.39 1221,-248.39 1221,-262.39 1221,-262.39 1221,-268.39 1215,-274.39 1209,-274.39 1209,-274.39 1106,-274.39 1106,-274.39 1100,-274.39 1094,-268.39 1094,-262.39 1094,-262.39 1094,-248.39 1094,-248.39 1094,-242.39 1100,-236.39 1106,-236.39"/>
<text text-anchor="start" x="1102" y="-259.19" font-family="Times,serif" font-size="14.00" fill="#2f3638">AggrFunctionState::</text>
<text text-anchor="start" x="1102" y="-244.19" font-family="Times,serif" font-size="14.00" fill="#2f3638">update_vector</text>
</g>
<!-- macro_update_vector&#45;&gt;update_vector -->
<g id="edge12" class="edge">
<title>macro_update_vector&#45;&gt;update_vector</title>
<path fill="none" stroke="green" stroke-dasharray="5,2" d="M1058.38,-254.72C1066.52,-254.77 1075.14,-254.83 1083.74,-254.89"/>
<polygon fill="green" stroke="green" points="1083.78,-258.39 1093.81,-254.96 1083.83,-251.39 1083.78,-258.39"/>
</g>
<!-- states -->
<g id="node8" class="node">
<title>states</title>
<path fill="#feed9b" stroke="#f7e495" d="M1269,-236.39C1269,-236.39 1505,-236.39 1505,-236.39 1511,-236.39 1517,-242.39 1517,-248.39 1517,-248.39 1517,-270.39 1517,-270.39 1517,-276.39 1511,-282.39 1505,-282.39 1505,-282.39 1269,-282.39 1269,-282.39 1263,-282.39 1257,-276.39 1257,-270.39 1257,-270.39 1257,-248.39 1257,-248.39 1257,-242.39 1263,-236.39 1269,-236.39"/>
<text text-anchor="middle" x="1387" y="-267.19" font-family="Times,serif" font-size="14.00" fill="#40575d">SimpleAggregationImpl::states</text>
<polyline fill="none" stroke="#f7e495" points="1257,-259.39 1517,-259.39 "/>
<text text-anchor="start" x="1265" y="-244.19" font-family="Times,serif" font-size="14.00" fill="#40575d">states: Vec&lt;Box&lt;dyn AggrFunctionState&gt;&gt;,</text>
</g>
<!-- update_repeat&#45;&gt;states -->
<g id="edge11" class="edge">
<title>update_repeat&#45;&gt;states</title>
<path fill="none" stroke="green" stroke-dasharray="5,2" d="M1221.27,-297.76C1238.63,-293.72 1257.98,-289.21 1277.16,-284.74"/>
<polygon fill="green" stroke="green" points="1278.21,-288.09 1287.15,-282.41 1276.62,-281.27 1278.21,-288.09"/>
</g>
<!-- iterate_available_groups -->
<g id="node13" class="node">
<title>iterate_available_groups</title>
<path fill="#79d8ce" stroke="#60b5ac" d="M1565,-141.39C1565,-141.39 1704,-141.39 1704,-141.39 1710,-141.39 1716,-147.39 1716,-153.39 1716,-153.39 1716,-197.39 1716,-197.39 1716,-203.39 1710,-209.39 1704,-209.39 1704,-209.39 1565,-209.39 1565,-209.39 1559,-209.39 1553,-203.39 1553,-197.39 1553,-197.39 1553,-153.39 1553,-153.39 1553,-147.39 1559,-141.39 1565,-141.39"/>
<text text-anchor="start" x="1561" y="-194.19" font-family="Times,serif" font-size="14.00" fill="#5d6179">SimpleAggregationImpl</text>
<text text-anchor="start" x="1561" y="-179.19" font-family="Times,serif" font-size="14.00" fill="#5d6179">iterate_available_groups</text>
<text text-anchor="start" x="1561" y="-164.19" font-family="Times,serif" font-size="14.00" fill="#5d6179"> 遍历每个state</text>
<text text-anchor="start" x="1561" y="-149.19" font-family="Times,serif" font-size="14.00" fill="#5d6179"> 调用传进来的闭包函数</text>
</g>
<!-- states&#45;&gt;iterate_available_groups -->
<g id="edge17" class="edge">
<title>states&#45;&gt;iterate_available_groups</title>
<path fill="none" stroke="green" stroke-dasharray="5,2" d="M1455.41,-236.32C1482.45,-227.07 1514.01,-216.27 1543,-206.35"/>
<polygon fill="green" stroke="green" points="1544.39,-209.57 1552.72,-203.03 1542.12,-202.95 1544.39,-209.57"/>
</g>
<!-- update_vector&#45;&gt;states -->
<g id="edge13" class="edge">
<title>update_vector&#45;&gt;states</title>
<path fill="none" stroke="green" stroke-dasharray="5,2" d="M1221.27,-256.49C1229.3,-256.63 1237.77,-256.78 1246.44,-256.93"/>
<polygon fill="green" stroke="green" points="1246.65,-260.44 1256.71,-257.11 1246.77,-253.44 1246.65,-260.44"/>
</g>
<!-- AggregationExecutor_handle_next_batch -->
<g id="node10" class="node">
<title>AggregationExecutor_handle_next_batch</title>
<path fill="none" stroke="#1c2123" d="M12,-73.39C12,-73.39 128,-73.39 128,-73.39 134,-73.39 140,-79.39 140,-85.39 140,-85.39 140,-99.39 140,-99.39 140,-105.39 134,-111.39 128,-111.39 128,-111.39 12,-111.39 12,-111.39 6,-111.39 0,-105.39 0,-99.39 0,-99.39 0,-85.39 0,-85.39 0,-79.39 6,-73.39 12,-73.39"/>
<text text-anchor="start" x="8" y="-96.19" font-family="Times,serif" font-size="14.00" fill="#2f3638">AggregationExecutor::</text>
<text text-anchor="start" x="8" y="-81.19" font-family="Times,serif" font-size="14.00" fill="#2f3638">handle_next_batch</text>
</g>
<!-- AggregationExecutor_handle_next_batch&#45;&gt;process_batch_input -->
<g id="edge14" class="edge">
<title>AggregationExecutor_handle_next_batch&#45;&gt;process_batch_input</title>
<path fill="none" stroke="#666666" d="M96.94,-111.51C117.95,-126.8 148.49,-148.55 176,-166.39 177.91,-167.62 179.85,-168.87 181.81,-170.12"/>
<polygon fill="#666666" stroke="#666666" points="180.18,-173.23 190.51,-175.6 183.92,-167.31 180.18,-173.23"/>
</g>
<!-- is_partial_results_ready -->
<g id="node11" class="node">
<title>is_partial_results_ready</title>
<path fill="#79d8ce" stroke="#60b5ac" d="M188,-27.89C188,-27.89 351,-27.89 351,-27.89 357,-27.89 363,-33.89 363,-39.89 363,-39.89 363,-144.89 363,-144.89 363,-150.89 357,-156.89 351,-156.89 351,-156.89 188,-156.89 188,-156.89 182,-156.89 176,-150.89 176,-144.89 176,-144.89 176,-39.89 176,-39.89 176,-33.89 182,-27.89 188,-27.89"/>
<text text-anchor="start" x="184" y="-141.69" font-family="Times,serif" font-size="14.00" fill="#5d6179">SimpleAggregationImpl::</text>
<text text-anchor="start" x="184" y="-126.69" font-family="Times,serif" font-size="14.00" fill="#5d6179">is_partial_results_ready</text>
<polyline fill="none" stroke="#60b5ac" points="176,-118.89 363,-118.89 "/>
<text text-anchor="start" x="184" y="-103.69" font-family="Times,serif" font-size="14.00" fill="#5d6179">false</text>
<text text-anchor="start" x="184" y="-88.69" font-family="Times,serif" font-size="14.00" fill="#5d6179"> 需要等到src_is_drained</text>
<polyline fill="none" stroke="#60b5ac" points="176,-80.89 363,-80.89 "/>
<text text-anchor="start" x="184" y="-65.69" font-family="Times,serif" font-size="14.00" fill="#5d6179">Simple Aggregation can output</text>
<text text-anchor="start" x="184" y="-50.69" font-family="Times,serif" font-size="14.00" fill="#5d6179"> aggregate results</text>
<text text-anchor="start" x="184" y="-35.69" font-family="Times,serif" font-size="14.00" fill="#5d6179"> only if the soure is drained</text>
</g>
<!-- AggregationExecutor_handle_next_batch&#45;&gt;is_partial_results_ready -->
<g id="edge15" class="edge">
<title>AggregationExecutor_handle_next_batch&#45;&gt;is_partial_results_ready</title>
<path fill="none" stroke="#666666" d="M140.08,-92.39C148.39,-92.39 157.02,-92.39 165.68,-92.39"/>
<polygon fill="#666666" stroke="#666666" points="165.86,-95.89 175.86,-92.39 165.86,-88.89 165.86,-95.89"/>
</g>
<!-- aggregate_partial_results -->
<g id="node12" class="node">
<title>aggregate_partial_results</title>
<path fill="none" stroke="#1c2123" d="M413.5,-73.39C413.5,-73.39 541.5,-73.39 541.5,-73.39 547.5,-73.39 553.5,-79.39 553.5,-85.39 553.5,-85.39 553.5,-99.39 553.5,-99.39 553.5,-105.39 547.5,-111.39 541.5,-111.39 541.5,-111.39 413.5,-111.39 413.5,-111.39 407.5,-111.39 401.5,-105.39 401.5,-99.39 401.5,-99.39 401.5,-85.39 401.5,-85.39 401.5,-79.39 407.5,-73.39 413.5,-73.39"/>
<text text-anchor="start" x="409.5" y="-96.19" font-family="Times,serif" font-size="14.00" fill="#2f3638">AggregationExecutor::</text>
<text text-anchor="middle" x="477.5" y="-81.19" font-family="Times,serif" font-size="14.00" fill="#2f3638">aggregate_partial_results</text>
</g>
<!-- AggregationExecutor_handle_next_batch&#45;&gt;aggregate_partial_results -->
<g id="edge18" class="edge">
<title>AggregationExecutor_handle_next_batch&#45;&gt;aggregate_partial_results</title>
<path fill="none" stroke="#666666" d="M90.24,-73.18C109.88,-55.05 142.2,-29.1 176,-18.39 255.23,6.73 283.33,5.29 363,-18.39 394.79,-27.83 425.99,-49.32 447.61,-66.72"/>
<polygon fill="#666666" stroke="#666666" points="445.46,-69.49 455.4,-73.15 449.92,-64.09 445.46,-69.49"/>
</g>
<!-- is_partial_results_ready&#45;&gt;aggregate_partial_results -->
<g id="edge19" class="edge">
<title>is_partial_results_ready&#45;&gt;aggregate_partial_results</title>
<path fill="none" stroke="green" stroke-dasharray="5,2" d="M363.26,-92.39C372.49,-92.39 381.83,-92.39 390.99,-92.39"/>
<polygon fill="green" stroke="green" points="391.23,-95.89 401.23,-92.39 391.23,-88.89 391.23,-95.89"/>
</g>
<!-- aggregate_partial_results&#45;&gt;iterate_available_groups -->
<g id="edge16" class="edge">
<title>aggregate_partial_results&#45;&gt;iterate_available_groups</title>
<path fill="none" stroke="#666666" d="M553.51,-94.36C626.52,-96.11 740.62,-98.39 839.5,-98.39 839.5,-98.39 839.5,-98.39 1158.5,-98.39 1293.65,-98.39 1447.67,-129.14 1542.75,-151.77"/>
<polygon fill="#666666" stroke="#666666" points="1542.08,-155.21 1552.62,-154.14 1543.71,-148.4 1542.08,-155.21"/>
</g>
<!-- closure -->
<g id="node14" class="node">
<title>closure</title>
<path fill="none" stroke="#1c2123" d="M1764,-148.89C1764,-148.89 1935,-148.89 1935,-148.89 1941,-148.89 1947,-154.89 1947,-160.89 1947,-160.89 1947,-189.89 1947,-189.89 1947,-195.89 1941,-201.89 1935,-201.89 1935,-201.89 1764,-201.89 1764,-201.89 1758,-201.89 1752,-195.89 1752,-189.89 1752,-189.89 1752,-160.89 1752,-160.89 1752,-154.89 1758,-148.89 1764,-148.89"/>
<text text-anchor="start" x="1760" y="-186.69" font-family="Times,serif" font-size="14.00" fill="#2f3638">回调闭包</text>
<text text-anchor="start" x="1760" y="-171.69" font-family="Times,serif" font-size="14.00" fill="#2f3638"> 调用state.push_result</text>
<text text-anchor="start" x="1760" y="-156.69" font-family="Times,serif" font-size="14.00" fill="#2f3638"> 将结果放入all_result_columns</text>
</g>
<!-- iterate_available_groups&#45;&gt;closure -->
<g id="edge20" class="edge">
<title>iterate_available_groups&#45;&gt;closure</title>
<path fill="none" stroke="#666666" d="M1716.03,-175.39C1724.41,-175.39 1733.02,-175.39 1741.64,-175.39"/>
<polygon fill="#666666" stroke="#666666" points="1741.74,-178.89 1751.74,-175.39 1741.74,-171.89 1741.74,-178.89"/>
</g>
</g>
</svg>
