<?xml version="1.0" encoding="UTF-8" standalone="no"?>
<!DOCTYPE svg PUBLIC "-//W3C//DTD SVG 1.1//EN"
 "http://www.w3.org/Graphics/SVG/1.1/DTD/svg11.dtd">
<!-- Generated by graphviz version 2.47.1 (20210417.1919)
 -->
<!-- Title: table_scan_io Pages: 1 -->
<svg width="829pt" height="574pt"
 viewBox="0.00 0.00 829.00 574.00" xmlns="http://www.w3.org/2000/svg" xmlns:xlink="http://www.w3.org/1999/xlink">
<g id="graph0" class="graph" transform="scale(1 1) rotate(0) translate(4 570)">
<title>table_scan_io</title>
<polygon fill="white" stroke="transparent" points="-4,4 -4,-570 825,-570 825,4 -4,4"/>
<g id="clust2" class="cluster">
<title>cluster_Key</title>
<path fill="none" stroke="slategrey" stroke-dasharray="5,2" d="M20,-350C20,-350 573.5,-350 573.5,-350 579.5,-350 585.5,-356 585.5,-362 585.5,-362 585.5,-546 585.5,-546 585.5,-552 579.5,-558 573.5,-558 573.5,-558 20,-558 20,-558 14,-558 8,-552 8,-546 8,-546 8,-362 8,-362 8,-356 14,-350 20,-350"/>
<text text-anchor="middle" x="296.75" y="-538" font-family="Times,serif" font-size="20.00">Key</text>
</g>
<!-- columns -->
<g id="node1" class="node">
<title>columns</title>
<path fill="none" stroke="#1c2123" d="M639,-289.5C639,-289.5 809,-289.5 809,-289.5 815,-289.5 821,-295.5 821,-301.5 821,-301.5 821,-530.5 821,-530.5 821,-536.5 815,-542.5 809,-542.5 809,-542.5 639,-542.5 639,-542.5 633,-542.5 627,-536.5 627,-530.5 627,-530.5 627,-301.5 627,-301.5 627,-295.5 633,-289.5 639,-289.5"/>
<text text-anchor="middle" x="724" y="-527.3" font-family="Times,serif" font-size="14.00" fill="#2f3638">columns: LazyBatchColumnVec</text>
<polyline fill="none" stroke="#1c2123" points="627,-519.5 821,-519.5 "/>
<text text-anchor="middle" x="724" y="-504.3" font-family="Times,serif" font-size="14.00" fill="#2f3638">0 non&#45;pk</text>
<polyline fill="none" stroke="#1c2123" points="627,-496.5 821,-496.5 "/>
<text text-anchor="middle" x="724" y="-481.3" font-family="Times,serif" font-size="14.00" fill="#2f3638">1 non&#45;pk</text>
<polyline fill="none" stroke="#1c2123" points="627,-473.5 821,-473.5 "/>
<text text-anchor="middle" x="724" y="-458.3" font-family="Times,serif" font-size="14.00" fill="#2f3638">2 non&#45;pk</text>
<polyline fill="none" stroke="#1c2123" points="627,-450.5 821,-450.5 "/>
<text text-anchor="middle" x="724" y="-435.3" font-family="Times,serif" font-size="14.00" fill="#2f3638">3 pk Int</text>
<polyline fill="none" stroke="#1c2123" points="627,-427.5 821,-427.5 "/>
<text text-anchor="middle" x="724" y="-412.3" font-family="Times,serif" font-size="14.00" fill="#2f3638">4 non&#45;pk</text>
<polyline fill="none" stroke="#1c2123" points="627,-404.5 821,-404.5 "/>
<text text-anchor="middle" x="724" y="-389.3" font-family="Times,serif" font-size="14.00" fill="#2f3638">5 non&#45;pk</text>
<polyline fill="none" stroke="#1c2123" points="627,-381.5 821,-381.5 "/>
<text text-anchor="middle" x="724" y="-366.3" font-family="Times,serif" font-size="14.00" fill="#2f3638">6 pk Int</text>
<polyline fill="none" stroke="#1c2123" points="627,-358.5 821,-358.5 "/>
<text text-anchor="middle" x="724" y="-343.3" font-family="Times,serif" font-size="14.00" fill="#2f3638">7 pk Int</text>
<polyline fill="none" stroke="#1c2123" points="627,-335.5 821,-335.5 "/>
<text text-anchor="middle" x="724" y="-320.3" font-family="Times,serif" font-size="14.00" fill="#2f3638">8 no&#45;pk</text>
<polyline fill="none" stroke="#1c2123" points="627,-312.5 821,-312.5 "/>
<text text-anchor="middle" x="724" y="-297.3" font-family="Times,serif" font-size="14.00" fill="#2f3638">...</text>
</g>
<!-- key -->
<g id="node2" class="node">
<title>key</title>
<path fill="#feed9b" stroke="#f7e495" d="M28,-358.5C28,-358.5 120,-358.5 120,-358.5 126,-358.5 132,-364.5 132,-370.5 132,-370.5 132,-507.5 132,-507.5 132,-513.5 126,-519.5 120,-519.5 120,-519.5 28,-519.5 28,-519.5 22,-519.5 16,-513.5 16,-507.5 16,-507.5 16,-370.5 16,-370.5 16,-364.5 22,-358.5 28,-358.5"/>
<text text-anchor="start" x="24" y="-504.3" font-family="Times,serif" font-size="14.00" fill="#40575d">key 编码如下</text>
<polyline fill="none" stroke="#f7e495" points="16,-496.5 132,-496.5 "/>
<text text-anchor="start" x="24" y="-481.3" font-family="Times,serif" font-size="14.00" fill="#40575d">table_prefix</text>
<polyline fill="none" stroke="#f7e495" points="16,-473.5 132,-473.5 "/>
<text text-anchor="start" x="24" y="-458.3" font-family="Times,serif" font-size="14.00" fill="#40575d">table_id</text>
<polyline fill="none" stroke="#f7e495" points="16,-450.5 132,-450.5 "/>
<text text-anchor="start" x="24" y="-435.3" font-family="Times,serif" font-size="14.00" fill="#40575d">sep</text>
<polyline fill="none" stroke="#f7e495" points="16,-427.5 132,-427.5 "/>
<text text-anchor="start" x="24" y="-412.3" font-family="Times,serif" font-size="14.00" fill="#40575d">[IntHandle]</text>
<polyline fill="none" stroke="#f7e495" points="16,-404.5 132,-404.5 "/>
<text text-anchor="start" x="24" y="-389.3" font-family="Times,serif" font-size="14.00" fill="#40575d">[CommonHandle]</text>
<polyline fill="none" stroke="#f7e495" points="16,-381.5 132,-381.5 "/>
<text text-anchor="middle" x="74" y="-366.3" font-family="Times,serif" font-size="14.00" fill="#40575d"> </text>
</g>
<!-- handle_indices -->
<g id="node3" class="node">
<title>handle_indices</title>
<path fill="none" stroke="#1c2123" d="M491.5,-358.5C491.5,-358.5 565.5,-358.5 565.5,-358.5 571.5,-358.5 577.5,-364.5 577.5,-370.5 577.5,-370.5 577.5,-461.5 577.5,-461.5 577.5,-467.5 571.5,-473.5 565.5,-473.5 565.5,-473.5 491.5,-473.5 491.5,-473.5 485.5,-473.5 479.5,-467.5 479.5,-461.5 479.5,-461.5 479.5,-370.5 479.5,-370.5 479.5,-364.5 485.5,-358.5 491.5,-358.5"/>
<text text-anchor="middle" x="528.5" y="-458.3" font-family="Times,serif" font-size="14.00" fill="#2f3638">handle_indices</text>
<polyline fill="none" stroke="#1c2123" points="479.5,-450.5 577.5,-450.5 "/>
<text text-anchor="middle" x="528.5" y="-435.3" font-family="Times,serif" font-size="14.00" fill="#2f3638">3</text>
<polyline fill="none" stroke="#1c2123" points="479.5,-427.5 577.5,-427.5 "/>
<text text-anchor="middle" x="528.5" y="-412.3" font-family="Times,serif" font-size="14.00" fill="#2f3638">6</text>
<polyline fill="none" stroke="#1c2123" points="479.5,-404.5 577.5,-404.5 "/>
<text text-anchor="middle" x="528.5" y="-389.3" font-family="Times,serif" font-size="14.00" fill="#2f3638">7</text>
<polyline fill="none" stroke="#1c2123" points="479.5,-381.5 577.5,-381.5 "/>
<text text-anchor="middle" x="528.5" y="-366.3" font-family="Times,serif" font-size="14.00" fill="#2f3638">..</text>
</g>
<!-- key&#45;&gt;handle_indices -->
<g id="edge1" class="edge">
<title>key:IntHandle&#45;&gt;handle_indices</title>
<path fill="none" stroke="#666666" d="M132,-416C251.68,-416 391.73,-416 468.94,-416"/>
<polygon fill="#666666" stroke="#666666" points="469.4,-419.5 479.4,-416 469.4,-412.5 469.4,-419.5"/>
</g>
<!-- primary_column_ids -->
<g id="node7" class="node">
<title>primary_column_ids</title>
<path fill="none" stroke="#1c2123" d="M352.5,-397C352.5,-397 245.5,-397 245.5,-397 239.5,-397 233.5,-391 233.5,-385 233.5,-385 233.5,-373 233.5,-373 233.5,-367 239.5,-361 245.5,-361 245.5,-361 352.5,-361 352.5,-361 358.5,-361 364.5,-367 364.5,-373 364.5,-373 364.5,-385 364.5,-385 364.5,-391 358.5,-397 352.5,-397"/>
<text text-anchor="middle" x="299" y="-375.3" font-family="Times,serif" font-size="14.00" fill="#2f3638">primary_column_ids</text>
</g>
<!-- key&#45;&gt;primary_column_ids -->
<g id="edge8" class="edge">
<title>key:CommonHandle&#45;&gt;primary_column_ids</title>
<path fill="none" stroke="#666666" d="M132,-393C161.88,-393 194.68,-390.72 223.17,-388"/>
<polygon fill="#666666" stroke="#666666" points="223.86,-391.45 233.46,-386.98 223.17,-384.48 223.86,-391.45"/>
</g>
<!-- handle_indices&#45;&gt;columns -->
<g id="edge2" class="edge">
<title>handle_indices:3&#45;&gt;columns:3</title>
<path fill="none" stroke="#666666" d="M578.5,-439C596.18,-439 602.99,-439 616.76,-439"/>
<polygon fill="#666666" stroke="#666666" points="617,-442.5 627,-439 617,-435.5 617,-442.5"/>
</g>
<!-- handle_indices&#45;&gt;columns -->
<g id="edge3" class="edge">
<title>handle_indices:6&#45;&gt;columns:6</title>
<path fill="none" stroke="#666666" d="M578.5,-416C604.26,-416 599.47,-381.41 617.12,-372.22"/>
<polygon fill="#666666" stroke="#666666" points="618.01,-375.61 627,-370 616.48,-368.78 618.01,-375.61"/>
</g>
<!-- handle_indices&#45;&gt;columns -->
<g id="edge4" class="edge">
<title>handle_indices:7&#45;&gt;columns:7</title>
<path fill="none" stroke="#666666" d="M578.5,-393C604.26,-393 599.47,-358.41 617.12,-349.22"/>
<polygon fill="#666666" stroke="#666666" points="618.01,-352.61 627,-347 616.48,-345.78 618.01,-352.61"/>
</g>
<!-- value -->
<g id="node4" class="node">
<title>value</title>
<path fill="#feed9b" stroke="#f7e495" d="M222.5,-134.5C222.5,-134.5 375.5,-134.5 375.5,-134.5 381.5,-134.5 387.5,-140.5 387.5,-146.5 387.5,-146.5 387.5,-329.5 387.5,-329.5 387.5,-335.5 381.5,-341.5 375.5,-341.5 375.5,-341.5 222.5,-341.5 222.5,-341.5 216.5,-341.5 210.5,-335.5 210.5,-329.5 210.5,-329.5 210.5,-146.5 210.5,-146.5 210.5,-140.5 216.5,-134.5 222.5,-134.5"/>
<text text-anchor="middle" x="299" y="-326.3" font-family="Times,serif" font-size="14.00" fill="#40575d">value</text>
<polyline fill="none" stroke="#f7e495" points="210.5,-318.5 387.5,-318.5 "/>
<text text-anchor="start" x="218.5" y="-303.3" font-family="Times,serif" font-size="14.00" fill="#40575d">CODEC_VERSION: u8=128</text>
<polyline fill="none" stroke="#f7e495" points="210.5,-295.5 387.5,-295.5 "/>
<text text-anchor="start" x="218.5" y="-280.3" font-family="Times,serif" font-size="14.00" fill="#40575d">FLAGS: value 大小端？</text>
<polyline fill="none" stroke="#f7e495" points="210.5,-272.5 387.5,-272.5 "/>
<text text-anchor="start" x="218.5" y="-257.3" font-family="Times,serif" font-size="14.00" fill="#40575d">non_null_cnt: read_u16_le</text>
<polyline fill="none" stroke="#f7e495" points="210.5,-249.5 387.5,-249.5 "/>
<text text-anchor="start" x="218.5" y="-234.3" font-family="Times,serif" font-size="14.00" fill="#40575d">null_cnt: read_u16_le</text>
<polyline fill="none" stroke="#f7e495" points="210.5,-226.5 387.5,-226.5 "/>
<text text-anchor="start" x="218.5" y="-211.3" font-family="Times,serif" font-size="14.00" fill="#40575d">non_null_ids: read_le_bytes</text>
<polyline fill="none" stroke="#f7e495" points="210.5,-203.5 387.5,-203.5 "/>
<text text-anchor="start" x="218.5" y="-188.3" font-family="Times,serif" font-size="14.00" fill="#40575d">null_ids: read_le_bytes</text>
<polyline fill="none" stroke="#f7e495" points="210.5,-180.5 387.5,-180.5 "/>
<text text-anchor="start" x="218.5" y="-165.3" font-family="Times,serif" font-size="14.00" fill="#40575d">offsets: read_le_bytes</text>
<polyline fill="none" stroke="#f7e495" points="210.5,-157.5 387.5,-157.5 "/>
<text text-anchor="start" x="218.5" y="-142.3" font-family="Times,serif" font-size="14.00" fill="#40575d">values: LEBytes::new(data)</text>
</g>
<!-- column_id_index -->
<g id="node6" class="node">
<title>column_id_index</title>
<path fill="none" stroke="#1c2123" d="M478,-270.5C478,-270.5 579,-270.5 579,-270.5 585,-270.5 591,-276.5 591,-282.5 591,-282.5 591,-327.5 591,-327.5 591,-333.5 585,-339.5 579,-339.5 579,-339.5 478,-339.5 478,-339.5 472,-339.5 466,-333.5 466,-327.5 466,-327.5 466,-282.5 466,-282.5 466,-276.5 472,-270.5 478,-270.5"/>
<text text-anchor="middle" x="528.5" y="-324.3" font-family="Times,serif" font-size="14.00" fill="#2f3638">column_id_index</text>
<polyline fill="none" stroke="#1c2123" points="466,-316.5 591,-316.5 "/>
<text text-anchor="middle" x="528.5" y="-301.3" font-family="Times,serif" font-size="14.00" fill="#2f3638">column_id &#45;&gt; index</text>
<polyline fill="none" stroke="#1c2123" points="466,-293.5 591,-293.5 "/>
<text text-anchor="middle" x="507.5" y="-278.3" font-family="Times,serif" font-size="14.00" fill="#2f3638">col_id_1</text>
<polyline fill="none" stroke="#1c2123" points="549,-270.5 549,-293.5 "/>
<text text-anchor="middle" x="570" y="-278.3" font-family="Times,serif" font-size="14.00" fill="#2f3638">4</text>
</g>
<!-- value&#45;&gt;column_id_index -->
<g id="edge7" class="edge">
<title>value&#45;&gt;column_id_index:col_id_1</title>
<path fill="none" stroke="#666666" d="M387.6,-270.21C409.36,-276.05 433.02,-280.66 455.9,-281.75"/>
<polygon fill="#666666" stroke="#666666" points="455.92,-285.26 466,-282 456.09,-278.26 455.92,-285.26"/>
</g>
<!-- value_v1 -->
<g id="node5" class="node">
<title>value_v1</title>
<path fill="#feed9b" stroke="#f7e495" d="M180,-0.5C180,-0.5 418,-0.5 418,-0.5 424,-0.5 430,-6.5 430,-12.5 430,-12.5 430,-103.5 430,-103.5 430,-109.5 424,-115.5 418,-115.5 418,-115.5 180,-115.5 180,-115.5 174,-115.5 168,-109.5 168,-103.5 168,-103.5 168,-12.5 168,-12.5 168,-6.5 174,-0.5 180,-0.5"/>
<text text-anchor="middle" x="299" y="-100.3" font-family="Times,serif" font-size="14.00" fill="#40575d">value_v1</text>
<polyline fill="none" stroke="#f7e495" points="168,-92.5 430,-92.5 "/>
<text text-anchor="start" x="176" y="-77.3" font-family="Times,serif" font-size="14.00" fill="#40575d">数据layout如下:</text>
<polyline fill="none" stroke="#f7e495" points="168,-69.5 430,-69.5 "/>
<text text-anchor="middle" x="200" y="-54.3" font-family="Times,serif" font-size="14.00" fill="#40575d">col_id_1</text>
<polyline fill="none" stroke="#f7e495" points="232,-46.5 232,-69.5 "/>
<text text-anchor="middle" x="258.5" y="-54.3" font-family="Times,serif" font-size="14.00" fill="#40575d">value1</text>
<polyline fill="none" stroke="#f7e495" points="285,-46.5 285,-69.5 "/>
<text text-anchor="middle" x="317" y="-54.3" font-family="Times,serif" font-size="14.00" fill="#40575d">col_id_2</text>
<polyline fill="none" stroke="#f7e495" points="349,-46.5 349,-69.5 "/>
<text text-anchor="middle" x="375.5" y="-54.3" font-family="Times,serif" font-size="14.00" fill="#40575d">value2</text>
<polyline fill="none" stroke="#f7e495" points="402,-46.5 402,-69.5 "/>
<text text-anchor="middle" x="416" y="-54.3" font-family="Times,serif" font-size="14.00" fill="#40575d">...</text>
<polyline fill="none" stroke="#f7e495" points="168,-46.5 430,-46.5 "/>
<text text-anchor="start" x="176" y="-31.3" font-family="Times,serif" font-size="14.00" fill="#40575d">每个element是datum encoded</text>
<polyline fill="none" stroke="#f7e495" points="168,-23.5 430,-23.5 "/>
<text text-anchor="start" x="176" y="-8.3" font-family="Times,serif" font-size="14.00" fill="#40575d">columnId是var i64 datum</text>
</g>
<!-- value_v1&#45;&gt;column_id_index -->
<g id="edge6" class="edge">
<title>value_v1:col_id_1&#45;&gt;column_id_index:col_id_1</title>
<path fill="none" stroke="#666666" d="M167,-58C141.22,-58 149.96,-97.58 168,-116 188.38,-136.81 407.55,-107.43 430,-126 481.83,-168.87 404.25,-270.09 455.72,-281.04"/>
<polygon fill="#666666" stroke="#666666" points="455.72,-284.55 466,-282 456.37,-277.58 455.72,-284.55"/>
</g>
<!-- column_id_index&#45;&gt;columns -->
<g id="edge5" class="edge">
<title>column_id_index:4&#45;&gt;columns:4</title>
<path fill="none" stroke="#666666" d="M591,-282C648.81,-282 575.67,-399.77 617.11,-414.5"/>
<polygon fill="#666666" stroke="#666666" points="616.59,-417.96 627,-416 617.64,-411.04 616.59,-417.96"/>
</g>
<!-- column_id_index&#45;&gt;columns -->
<g id="edge10" class="edge">
<title>column_id_index&#45;&gt;columns</title>
<path fill="none" stroke="#666666" d="M589.66,-339.51C598.75,-344.73 608.35,-350.23 618.05,-355.8"/>
<polygon fill="#666666" stroke="#666666" points="616.57,-358.98 626.98,-360.92 620.05,-352.91 616.57,-358.98"/>
</g>
<!-- primary_column_ids&#45;&gt;column_id_index -->
<g id="edge9" class="edge">
<title>primary_column_ids&#45;&gt;column_id_index</title>
<path fill="none" stroke="#666666" d="M364.6,-368.12C385.72,-363.76 409.12,-358.07 430,-351 438.82,-348.02 447.88,-344.45 456.78,-340.65"/>
<polygon fill="#666666" stroke="#666666" points="458.21,-343.85 465.96,-336.62 455.4,-337.44 458.21,-343.85"/>
</g>
</g>
</svg>
