<?xml version="1.0" encoding="UTF-8" standalone="no"?>
<!DOCTYPE svg PUBLIC "-//W3C//DTD SVG 1.1//EN"
 "http://www.w3.org/Graphics/SVG/1.1/DTD/svg11.dtd">
<!-- Generated by graphviz version 2.47.1 (20210417.1919)
 -->
<!-- Title: dig Pages: 1 -->
<svg width="1857pt" height="399pt"
 viewBox="0.00 0.00 1857.00 398.50" xmlns="http://www.w3.org/2000/svg" xmlns:xlink="http://www.w3.org/1999/xlink">
<g id="graph0" class="graph" transform="scale(1 1) rotate(0) translate(4 394.5)">
<title>dig</title>
<polygon fill="white" stroke="transparent" points="-4,4 -4,-394.5 1853,-394.5 1853,4 -4,4"/>
<!-- LockResolver__resolveLockAsync -->
<g id="node1" class="node">
<title>LockResolver__resolveLockAsync</title>
<path fill="none" stroke="#1c2123" d="M12,-62C12,-62 164,-62 164,-62 170,-62 176,-68 176,-74 176,-74 176,-156 176,-156 176,-162 170,-168 164,-168 164,-168 12,-168 12,-168 6,-168 0,-162 0,-156 0,-156 0,-74 0,-74 0,-68 6,-62 12,-62"/>
<text text-anchor="start" x="8" y="-152.8" font-family="Times,serif" font-size="14.00" fill="#2f3638">LockResolver</text>
<text text-anchor="start" x="8" y="-137.8" font-family="Times,serif" font-size="14.00" fill="#2f3638"> resolveLockAsync</text>
<polyline fill="none" stroke="#1c2123" points="0,-130 176,-130 "/>
<text text-anchor="start" x="8" y="-114.8" font-family="Times,serif" font-size="14.00" fill="#2f3638">resolve async commit</text>
<text text-anchor="start" x="8" y="-99.8" font-family="Times,serif" font-size="14.00" fill="#2f3638"> 事务的lock</text>
<text text-anchor="start" x="8" y="-84.8" font-family="Times,serif" font-size="14.00" fill="#2f3638"> 需要根据所有的seconaries</text>
<text text-anchor="start" x="8" y="-69.8" font-family="Times,serif" font-size="14.00" fill="#2f3638"> keys来判断txn的状态</text>
</g>
<!-- LockResover__checkAllSecondaries -->
<g id="node2" class="node">
<title>LockResover__checkAllSecondaries</title>
<path fill="#a2dbfa" stroke="#8a8898" d="M687,-29C687,-29 855,-29 855,-29 861,-29 867,-35 867,-41 867,-41 867,-161 867,-161 867,-167 861,-173 855,-173 855,-173 687,-173 687,-173 681,-173 675,-167 675,-161 675,-161 675,-41 675,-41 675,-35 681,-29 687,-29"/>
<text text-anchor="start" x="683" y="-157.8" font-family="Times,serif" font-size="14.00" fill="#5d6179">LockResover</text>
<text text-anchor="start" x="683" y="-142.8" font-family="Times,serif" font-size="14.00" fill="#5d6179"> checkAllSecondaries</text>
<polyline fill="none" stroke="#8a8898" points="675,-135 867,-135 "/>
<text text-anchor="start" x="683" y="-119.8" font-family="Times,serif" font-size="14.00" fill="#5d6179">cheks the secondary locks</text>
<text text-anchor="start" x="683" y="-104.8" font-family="Times,serif" font-size="14.00" fill="#5d6179"> of an async commit transaction</text>
<text text-anchor="start" x="683" y="-89.8" font-family="Times,serif" font-size="14.00" fill="#5d6179"> to find out the final status </text>
<text text-anchor="start" x="683" y="-74.8" font-family="Times,serif" font-size="14.00" fill="#5d6179"> of the transaction</text>
<polyline fill="none" stroke="#8a8898" points="675,-67 867,-67 "/>
<text text-anchor="start" x="683" y="-51.8" font-family="Times,serif" font-size="14.00" fill="#5d6179">根据所有的secondary locks</text>
<text text-anchor="start" x="683" y="-36.8" font-family="Times,serif" font-size="14.00" fill="#5d6179"> 判断txn状态</text>
</g>
<!-- LockResolver__resolveLockAsync&#45;&gt;LockResover__checkAllSecondaries -->
<g id="edge1" class="edge">
<title>LockResolver__resolveLockAsync&#45;&gt;LockResover__checkAllSecondaries</title>
<path fill="none" stroke="#666666" d="M176.09,-91.53C284.88,-65.49 476.49,-30.44 639,-57 647.52,-58.39 656.22,-60.26 664.9,-62.45"/>
<polygon fill="#666666" stroke="#666666" points="664.11,-65.86 674.68,-65.04 665.91,-59.09 664.11,-65.86"/>
</g>
<!-- LockResolver__resolveRegionLocks -->
<g id="node3" class="node">
<title>LockResolver__resolveRegionLocks</title>
<path fill="none" stroke="#1c2123" d="M1472,-276C1472,-276 1585,-276 1585,-276 1591,-276 1597,-282 1597,-288 1597,-288 1597,-378 1597,-378 1597,-384 1591,-390 1585,-390 1585,-390 1472,-390 1472,-390 1466,-390 1460,-384 1460,-378 1460,-378 1460,-288 1460,-288 1460,-282 1466,-276 1472,-276"/>
<text text-anchor="start" x="1468" y="-374.8" font-family="Times,serif" font-size="14.00" fill="#2f3638">LockResolver</text>
<text text-anchor="start" x="1468" y="-359.8" font-family="Times,serif" font-size="14.00" fill="#2f3638"> resolveRegionLocks</text>
<polyline fill="none" stroke="#1c2123" points="1460,-352 1597,-352 "/>
<text text-anchor="start" x="1468" y="-336.8" font-family="Times,serif" font-size="14.00" fill="#2f3638">对于每个region启动</text>
<text text-anchor="start" x="1468" y="-321.8" font-family="Times,serif" font-size="14.00" fill="#2f3638"> 一个go routine</text>
<polyline fill="none" stroke="#1c2123" points="1460,-314 1597,-314 "/>
<text text-anchor="start" x="1468" y="-298.8" font-family="Times,serif" font-size="14.00" fill="#2f3638">resolve这个region</text>
<text text-anchor="start" x="1468" y="-283.8" font-family="Times,serif" font-size="14.00" fill="#2f3638"> keys</text>
</g>
<!-- LockResolver__resolveLockAsync&#45;&gt;LockResolver__resolveRegionLocks -->
<g id="edge2" class="edge">
<title>LockResolver__resolveLockAsync&#45;&gt;LockResolver__resolveRegionLocks</title>
<path fill="none" stroke="#666666" d="M126.18,-168.03C148.49,-196.92 178.91,-231.63 212,-256 338.59,-349.24 383.78,-386 541,-386 541,-386 541,-386 1141,-386 1267.48,-386 1299.18,-376.42 1424,-356 1432.45,-354.62 1441.24,-352.98 1449.98,-351.22"/>
<polygon fill="#666666" stroke="#666666" points="1450.7,-354.65 1459.79,-349.2 1449.29,-347.79 1450.7,-354.65"/>
</g>
<!-- RegionCache__GroupKeysByRegion -->
<g id="node4" class="node">
<title>RegionCache__GroupKeysByRegion</title>
<path fill="none" stroke="#1c2123" d="M1074,-81.5C1074,-81.5 1206,-81.5 1206,-81.5 1212,-81.5 1218,-87.5 1218,-93.5 1218,-93.5 1218,-130.5 1218,-130.5 1218,-136.5 1212,-142.5 1206,-142.5 1206,-142.5 1074,-142.5 1074,-142.5 1068,-142.5 1062,-136.5 1062,-130.5 1062,-130.5 1062,-93.5 1062,-93.5 1062,-87.5 1068,-81.5 1074,-81.5"/>
<text text-anchor="start" x="1070" y="-127.3" font-family="Times,serif" font-size="14.00" fill="#2f3638">RegionCache</text>
<text text-anchor="start" x="1070" y="-112.3" font-family="Times,serif" font-size="14.00" fill="#2f3638"> GroupKeysByRegion</text>
<polyline fill="none" stroke="#1c2123" points="1062,-104.5 1218,-104.5 "/>
<text text-anchor="start" x="1070" y="-89.3" font-family="Times,serif" font-size="14.00" fill="#2f3638">把key根据region来分组</text>
</g>
<!-- LockResolver__resolveLockAsync&#45;&gt;RegionCache__GroupKeysByRegion -->
<g id="edge3" class="edge">
<title>LockResolver__resolveLockAsync&#45;&gt;RegionCache__GroupKeysByRegion</title>
<path fill="none" stroke="#666666" d="M176.11,-64.45C187.92,-58.95 200.07,-53.93 212,-50 352.46,-3.69 393.1,0 541,0 541,0 541,0 772,0 879.11,0 996.44,-44.18 1068.9,-77.04"/>
<polygon fill="#666666" stroke="#666666" points="1067.84,-80.4 1078.39,-81.4 1070.76,-74.04 1067.84,-80.4"/>
</g>
<!-- TxnStatus -->
<g id="node5" class="node">
<title>TxnStatus</title>
<path fill="none" stroke="#1c2123" d="M224,-139.5C224,-139.5 397,-139.5 397,-139.5 403,-139.5 409,-145.5 409,-151.5 409,-151.5 409,-234.5 409,-234.5 409,-240.5 403,-246.5 397,-246.5 397,-246.5 224,-246.5 224,-246.5 218,-246.5 212,-240.5 212,-234.5 212,-234.5 212,-151.5 212,-151.5 212,-145.5 218,-139.5 224,-139.5"/>
<text text-anchor="start" x="220" y="-231.3" font-family="Times,serif" font-size="14.00" fill="#2f3638">TxnStatus</text>
<text text-anchor="start" x="220" y="-216.3" font-family="Times,serif" font-size="14.00" fill="#2f3638"> ttl uint64</text>
<polyline fill="none" stroke="#1c2123" points="212,-208.5 409,-208.5 "/>
<text text-anchor="start" x="220" y="-193.3" font-family="Times,serif" font-size="14.00" fill="#2f3638">commitTS uint64</text>
<polyline fill="none" stroke="#1c2123" points="212,-185.5 409,-185.5 "/>
<text text-anchor="start" x="220" y="-170.3" font-family="Times,serif" font-size="14.00" fill="#2f3638">action kvrpcpb.Action</text>
<polyline fill="none" stroke="#1c2123" points="212,-162.5 409,-162.5 "/>
<text text-anchor="start" x="220" y="-147.3" font-family="Times,serif" font-size="14.00" fill="#2f3638">primaryLock *kvrpcpb.LockInfo</text>
</g>
<!-- LockResolver__resolveLockAsync&#45;&gt;TxnStatus -->
<g id="edge4" class="edge">
<title>LockResolver__resolveLockAsync&#45;&gt;TxnStatus</title>
<path fill="none" stroke="#666666" d="M176.15,-145.83C184.72,-148.86 193.49,-151.96 202.24,-155.06"/>
<polygon fill="#666666" stroke="#666666" points="201.11,-158.37 211.71,-158.41 203.45,-151.77 201.11,-158.37"/>
</g>
<!-- asyncResolveData -->
<g id="node6" class="node">
<title>asyncResolveData</title>
<path fill="#bcffb9" stroke="#8a8898" d="M915,-77.5C915,-77.5 1014,-77.5 1014,-77.5 1020,-77.5 1026,-83.5 1026,-89.5 1026,-89.5 1026,-172.5 1026,-172.5 1026,-178.5 1020,-184.5 1014,-184.5 1014,-184.5 915,-184.5 915,-184.5 909,-184.5 903,-178.5 903,-172.5 903,-172.5 903,-89.5 903,-89.5 903,-83.5 909,-77.5 915,-77.5"/>
<text text-anchor="start" x="911" y="-169.3" font-family="Times,serif" font-size="14.00" fill="#5d6179">asyncResolveData</text>
<text text-anchor="start" x="911" y="-154.3" font-family="Times,serif" font-size="14.00" fill="#5d6179"> mutex sync.Mutex</text>
<polyline fill="none" stroke="#8a8898" points="903,-146.5 1026,-146.5 "/>
<text text-anchor="start" x="911" y="-131.3" font-family="Times,serif" font-size="14.00" fill="#5d6179">commitTs uint64</text>
<polyline fill="none" stroke="#8a8898" points="903,-123.5 1026,-123.5 "/>
<text text-anchor="start" x="911" y="-108.3" font-family="Times,serif" font-size="14.00" fill="#5d6179">keys [][]byte</text>
<polyline fill="none" stroke="#8a8898" points="903,-100.5 1026,-100.5 "/>
<text text-anchor="start" x="911" y="-85.3" font-family="Times,serif" font-size="14.00" fill="#5d6179">missingLock bool</text>
</g>
<!-- LockResover__checkAllSecondaries&#45;&gt;asyncResolveData -->
<g id="edge5" class="edge">
<title>LockResover__checkAllSecondaries&#45;&gt;asyncResolveData</title>
<path fill="none" stroke="#666666" d="M867.19,-115.91C875.8,-117.26 884.41,-118.61 892.76,-119.92"/>
<polygon fill="#666666" stroke="#666666" points="892.36,-123.4 902.78,-121.49 893.44,-116.48 892.36,-123.4"/>
</g>
<!-- CmdResolveLock -->
<g id="node8" class="node">
<title>CmdResolveLock</title>
<path fill="none" stroke="#1c2123" d="M1786.5,-351C1786.5,-351 1695.5,-351 1695.5,-351 1689.5,-351 1683.5,-345 1683.5,-339 1683.5,-339 1683.5,-327 1683.5,-327 1683.5,-321 1689.5,-315 1695.5,-315 1695.5,-315 1786.5,-315 1786.5,-315 1792.5,-315 1798.5,-321 1798.5,-327 1798.5,-327 1798.5,-339 1798.5,-339 1798.5,-345 1792.5,-351 1786.5,-351"/>
<text text-anchor="middle" x="1741" y="-329.3" font-family="Times,serif" font-size="14.00" fill="#2f3638">CmdResolveLock</text>
</g>
<!-- LockResolver__resolveRegionLocks&#45;&gt;CmdResolveLock -->
<g id="edge9" class="edge">
<title>LockResolver__resolveRegionLocks&#45;&gt;CmdResolveLock</title>
<path fill="none" stroke="#666666" d="M1597.26,-333C1621.56,-333 1648.91,-333 1673.13,-333"/>
<polygon fill="#666666" stroke="#666666" points="1673.3,-336.5 1683.3,-333 1673.3,-329.5 1673.3,-336.5"/>
</g>
<!-- ResolveLockRequest -->
<g id="node9" class="node">
<title>ResolveLockRequest</title>
<path fill="none" stroke="#1c2123" d="M1645,-152C1645,-152 1837,-152 1837,-152 1843,-152 1849,-158 1849,-164 1849,-164 1849,-224 1849,-224 1849,-230 1843,-236 1837,-236 1837,-236 1645,-236 1645,-236 1639,-236 1633,-230 1633,-224 1633,-224 1633,-164 1633,-164 1633,-158 1639,-152 1645,-152"/>
<text text-anchor="start" x="1641" y="-220.8" font-family="Times,serif" font-size="14.00" fill="#2f3638">ResolveLockRequest</text>
<text text-anchor="start" x="1641" y="-205.8" font-family="Times,serif" font-size="14.00" fill="#2f3638">StartVersion: l.TxnID,</text>
<polyline fill="none" stroke="#1c2123" points="1633,-198 1849,-198 "/>
<text text-anchor="start" x="1641" y="-182.8" font-family="Times,serif" font-size="14.00" fill="#2f3638">CommitVersion: status.CommitTS()</text>
<polyline fill="none" stroke="#1c2123" points="1633,-175 1849,-175 "/>
<text text-anchor="start" x="1641" y="-159.8" font-family="Times,serif" font-size="14.00" fill="#2f3638">Keys</text>
</g>
<!-- LockResolver__resolveRegionLocks&#45;&gt;ResolveLockRequest -->
<g id="edge10" class="edge">
<title>LockResolver__resolveRegionLocks&#45;&gt;ResolveLockRequest</title>
<path fill="none" stroke="#666666" d="M1597.26,-288.25C1619.75,-273.41 1644.86,-256.82 1667.68,-241.76"/>
<polygon fill="#666666" stroke="#666666" points="1669.88,-244.49 1676.3,-236.06 1666.03,-238.65 1669.88,-244.49"/>
</g>
<!-- regions -->
<g id="node10" class="node">
<title>regions</title>
<path fill="none" stroke="#1c2123" d="M1266,-96.5C1266,-96.5 1412,-96.5 1412,-96.5 1418,-96.5 1424,-102.5 1424,-108.5 1424,-108.5 1424,-145.5 1424,-145.5 1424,-151.5 1418,-157.5 1412,-157.5 1412,-157.5 1266,-157.5 1266,-157.5 1260,-157.5 1254,-151.5 1254,-145.5 1254,-145.5 1254,-108.5 1254,-108.5 1254,-102.5 1260,-96.5 1266,-96.5"/>
<text text-anchor="start" x="1262" y="-142.3" font-family="Times,serif" font-size="14.00" fill="#2f3638">regions</text>
<polyline fill="none" stroke="#1c2123" points="1254,-134.5 1424,-134.5 "/>
<text text-anchor="start" x="1262" y="-119.3" font-family="Times,serif" font-size="14.00" fill="#2f3638">map[RegionVersID][][]byes</text>
<text text-anchor="start" x="1262" y="-104.3" font-family="Times,serif" font-size="14.00" fill="#2f3638"> regionVerID到keys的映射</text>
</g>
<!-- RegionCache__GroupKeysByRegion&#45;&gt;regions -->
<g id="edge12" class="edge">
<title>RegionCache__GroupKeysByRegion&#45;&gt;regions</title>
<path fill="none" stroke="#666666" d="M1218.01,-117.86C1226.47,-118.51 1235.14,-119.17 1243.78,-119.83"/>
<polygon fill="#666666" stroke="#666666" points="1243.64,-123.33 1253.87,-120.59 1244.17,-116.35 1243.64,-123.33"/>
</g>
<!-- TxnStatus&#45;&gt;LockResolver__resolveRegionLocks -->
<g id="edge6" class="edge">
<title>TxnStatus&#45;&gt;LockResolver__resolveRegionLocks</title>
<path fill="none" stroke="#666666" d="M348.5,-246.82C372.29,-276.68 405.99,-311.27 445,-329 576.73,-388.86 625.31,-348 770,-348 770,-348 770,-348 1141,-348 1248,-348 1371.54,-342.19 1449.58,-337.8"/>
<polygon fill="#666666" stroke="#666666" points="1450.02,-341.28 1459.81,-337.22 1449.62,-334.29 1450.02,-341.28"/>
</g>
<!-- LockInfo -->
<g id="node7" class="node">
<title>LockInfo</title>
<path fill="none" stroke="#1c2123" d="M457,-66.5C457,-66.5 627,-66.5 627,-66.5 633,-66.5 639,-72.5 639,-78.5 639,-78.5 639,-307.5 639,-307.5 639,-313.5 633,-319.5 627,-319.5 627,-319.5 457,-319.5 457,-319.5 451,-319.5 445,-313.5 445,-307.5 445,-307.5 445,-78.5 445,-78.5 445,-72.5 451,-66.5 457,-66.5"/>
<text text-anchor="start" x="453" y="-304.3" font-family="Times,serif" font-size="14.00" fill="#2f3638">LockInfo</text>
<polyline fill="none" stroke="#1c2123" points="445,-296.5 639,-296.5 "/>
<text text-anchor="start" x="453" y="-281.3" font-family="Times,serif" font-size="14.00" fill="#2f3638">bytes primary_lock = 1;</text>
<polyline fill="none" stroke="#1c2123" points="445,-273.5 639,-273.5 "/>
<text text-anchor="start" x="453" y="-258.3" font-family="Times,serif" font-size="14.00" fill="#2f3638">uint64 lock_version = 2;</text>
<polyline fill="none" stroke="#1c2123" points="445,-250.5 639,-250.5 "/>
<text text-anchor="start" x="453" y="-235.3" font-family="Times,serif" font-size="14.00" fill="#2f3638">bytes key = 3;</text>
<polyline fill="none" stroke="#1c2123" points="445,-227.5 639,-227.5 "/>
<text text-anchor="start" x="453" y="-212.3" font-family="Times,serif" font-size="14.00" fill="#2f3638">uint64 lock_ttl = 4;</text>
<polyline fill="none" stroke="#1c2123" points="445,-204.5 639,-204.5 "/>
<text text-anchor="start" x="453" y="-189.3" font-family="Times,serif" font-size="14.00" fill="#2f3638">uint64 txn_size = 5;</text>
<polyline fill="none" stroke="#1c2123" points="445,-181.5 639,-181.5 "/>
<text text-anchor="start" x="453" y="-166.3" font-family="Times,serif" font-size="14.00" fill="#2f3638">Op lock_type = 6;</text>
<polyline fill="none" stroke="#1c2123" points="445,-158.5 639,-158.5 "/>
<text text-anchor="start" x="453" y="-143.3" font-family="Times,serif" font-size="14.00" fill="#2f3638">uint64 lock_for_update_ts = 7;</text>
<polyline fill="none" stroke="#1c2123" points="445,-135.5 639,-135.5 "/>
<text text-anchor="start" x="453" y="-120.3" font-family="Times,serif" font-size="14.00" fill="#2f3638">bool use_async_commit = 8;</text>
<polyline fill="none" stroke="#1c2123" points="445,-112.5 639,-112.5 "/>
<text text-anchor="start" x="453" y="-97.3" font-family="Times,serif" font-size="14.00" fill="#2f3638">uint64 min_commit_ts = 9;</text>
<polyline fill="none" stroke="#1c2123" points="445,-89.5 639,-89.5 "/>
<text text-anchor="start" x="453" y="-74.3" font-family="Times,serif" font-size="14.00" fill="#2f3638">repeated bytes secondaries = 10;</text>
</g>
<!-- TxnStatus&#45;&gt;LockInfo -->
<g id="edge7" class="edge">
<title>TxnStatus&#45;&gt;LockInfo</title>
<path fill="none" stroke="#666666" d="M409.16,-193C417.67,-193 426.3,-193 434.87,-193"/>
<polygon fill="#666666" stroke="#666666" points="434.89,-196.5 444.89,-193 434.89,-189.5 434.89,-196.5"/>
</g>
<!-- asyncResolveData&#45;&gt;RegionCache__GroupKeysByRegion -->
<g id="edge15" class="edge">
<title>asyncResolveData:keys&#45;&gt;RegionCache__GroupKeysByRegion</title>
<path fill="none" stroke="#666666" d="M1026,-112C1034.32,-112 1042.98,-112 1051.65,-112"/>
<polygon fill="#666666" stroke="#666666" points="1051.8,-115.5 1061.8,-112 1051.8,-108.5 1051.8,-115.5"/>
</g>
<!-- asyncResolveData&#45;&gt;ResolveLockRequest -->
<g id="edge14" class="edge">
<title>asyncResolveData:commitTs&#45;&gt;ResolveLockRequest:CommitVersion</title>
<path fill="none" stroke="#666666" d="M1026,-135C1043.69,-135 1044.9,-147.46 1062,-152 1144.73,-173.97 1168.58,-161.52 1254,-167 1418.86,-177.57 1462.57,-185.66 1622.78,-185.99"/>
<polygon fill="#666666" stroke="#666666" points="1623,-189.49 1633,-186 1623,-182.49 1623,-189.49"/>
</g>
<!-- LockInfo&#45;&gt;LockResover__checkAllSecondaries -->
<g id="edge8" class="edge">
<title>LockInfo:secondaries&#45;&gt;LockResover__checkAllSecondaries</title>
<path fill="none" stroke="green" stroke-dasharray="5,2" d="M639,-78C647.38,-78 656.02,-78.46 664.67,-79.26"/>
<polygon fill="green" stroke="green" points="664.51,-82.76 674.82,-80.33 665.25,-75.8 664.51,-82.76"/>
</g>
<!-- regions&#45;&gt;LockResolver__resolveRegionLocks -->
<g id="edge13" class="edge">
<title>regions&#45;&gt;LockResolver__resolveRegionLocks</title>
<path fill="none" stroke="#666666" d="M1368.07,-157.84C1394.49,-186.87 1434.89,-231.26 1468.42,-268.09"/>
<polygon fill="#666666" stroke="#666666" points="1466.14,-270.78 1475.46,-275.82 1471.31,-266.07 1466.14,-270.78"/>
</g>
<!-- regions&#45;&gt;ResolveLockRequest -->
<g id="edge11" class="edge">
<title>regions&#45;&gt;ResolveLockRequest:keys</title>
<path fill="none" stroke="#666666" d="M1424.29,-142.89C1479.92,-152.09 1554.86,-162.02 1623,-162.93"/>
<polygon fill="#666666" stroke="#666666" points="1622.98,-166.43 1633,-163 1623.02,-159.43 1622.98,-166.43"/>
</g>
</g>
</svg>
