<?xml version="1.0" encoding="UTF-8" standalone="no"?>
<!DOCTYPE svg PUBLIC "-//W3C//DTD SVG 1.1//EN"
 "http://www.w3.org/Graphics/SVG/1.1/DTD/svg11.dtd">
<!-- Generated by graphviz version 2.44.1 (20200629.0846)
 -->
<!-- Title: tikv_apply_read_states Pages: 1 -->
<svg width="636pt" height="44pt"
 viewBox="0.00 0.00 636.00 44.00" xmlns="http://www.w3.org/2000/svg" xmlns:xlink="http://www.w3.org/1999/xlink">
<g id="graph0" class="graph" transform="scale(1 1) rotate(0) translate(4 40)">
<title>tikv_apply_read_states</title>
<polygon fill="white" stroke="transparent" points="-4,4 -4,-40 632,-40 632,4 -4,4"/>
<!-- poll -->
<g id="node1" class="node">
<title>poll</title>
<path fill="none" stroke="#1c2123" d="M42,-36C42,-36 12,-36 12,-36 6,-36 0,-30 0,-24 0,-24 0,-12 0,-12 0,-6 6,0 12,0 12,0 42,0 42,0 48,0 54,-6 54,-12 54,-12 54,-24 54,-24 54,-30 48,-36 42,-36"/>
<text text-anchor="middle" x="27" y="-14.3" font-family="Times,serif" font-size="14.00" fill="#2f3638">poll</text>
</g>
<!-- handle_normal -->
<g id="node2" class="node">
<title>handle_normal</title>
<path fill="none" stroke="#1c2123" d="M176,-36C176,-36 102,-36 102,-36 96,-36 90,-30 90,-24 90,-24 90,-12 90,-12 90,-6 96,0 102,0 102,0 176,0 176,0 182,0 188,-6 188,-12 188,-12 188,-24 188,-24 188,-30 182,-36 176,-36"/>
<text text-anchor="middle" x="139" y="-14.3" font-family="Times,serif" font-size="14.00" fill="#2f3638">handle_normal</text>
</g>
<!-- poll&#45;&gt;handle_normal -->
<g id="edge1" class="edge">
<title>poll&#45;&gt;handle_normal</title>
<path fill="none" stroke="#666666" d="M54.07,-18C61.82,-18 70.65,-18 79.6,-18"/>
<polygon fill="#666666" stroke="#666666" points="79.7,-21.5 89.7,-18 79.7,-14.5 79.7,-21.5"/>
</g>
<!-- collect_ready -->
<g id="node3" class="node">
<title>collect_ready</title>
<path fill="none" stroke="#1c2123" d="M301,-36C301,-36 236,-36 236,-36 230,-36 224,-30 224,-24 224,-24 224,-12 224,-12 224,-6 230,0 236,0 236,0 301,0 301,0 307,0 313,-6 313,-12 313,-12 313,-24 313,-24 313,-30 307,-36 301,-36"/>
<text text-anchor="middle" x="268.5" y="-14.3" font-family="Times,serif" font-size="14.00" fill="#2f3638">collect_ready</text>
</g>
<!-- handle_normal&#45;&gt;collect_ready -->
<g id="edge2" class="edge">
<title>handle_normal&#45;&gt;collect_ready</title>
<path fill="none" stroke="#666666" d="M188.2,-18C196.52,-18 205.22,-18 213.68,-18"/>
<polygon fill="#666666" stroke="#666666" points="213.84,-21.5 223.84,-18 213.84,-14.5 213.84,-21.5"/>
</g>
<!-- handle_raft_ready_append -->
<g id="node4" class="node">
<title>handle_raft_ready_append</title>
<path fill="none" stroke="#1c2123" d="M498,-36C498,-36 361,-36 361,-36 355,-36 349,-30 349,-24 349,-24 349,-12 349,-12 349,-6 355,0 361,0 361,0 498,0 498,0 504,0 510,-6 510,-12 510,-12 510,-24 510,-24 510,-30 504,-36 498,-36"/>
<text text-anchor="middle" x="429.5" y="-14.3" font-family="Times,serif" font-size="14.00" fill="#2f3638">handle_raft_ready_append</text>
</g>
<!-- collect_ready&#45;&gt;handle_raft_ready_append -->
<g id="edge3" class="edge">
<title>collect_ready&#45;&gt;handle_raft_ready_append</title>
<path fill="none" stroke="#666666" d="M313.37,-18C321.3,-18 329.82,-18 338.52,-18"/>
<polygon fill="#666666" stroke="#666666" points="338.77,-21.5 348.77,-18 338.77,-14.5 338.77,-21.5"/>
</g>
<!-- apply_reads -->
<g id="node5" class="node">
<title>apply_reads</title>
<path fill="none" stroke="#1c2123" d="M616,-36C616,-36 558,-36 558,-36 552,-36 546,-30 546,-24 546,-24 546,-12 546,-12 546,-6 552,0 558,0 558,0 616,0 616,0 622,0 628,-6 628,-12 628,-12 628,-24 628,-24 628,-30 622,-36 616,-36"/>
<text text-anchor="middle" x="587" y="-14.3" font-family="Times,serif" font-size="14.00" fill="#2f3638">apply_reads</text>
</g>
<!-- handle_raft_ready_append&#45;&gt;apply_reads -->
<g id="edge4" class="edge">
<title>handle_raft_ready_append&#45;&gt;apply_reads</title>
<path fill="none" stroke="#666666" d="M510.07,-18C518.79,-18 527.48,-18 535.71,-18"/>
<polygon fill="#666666" stroke="#666666" points="535.83,-21.5 545.83,-18 535.83,-14.5 535.83,-21.5"/>
</g>
</g>
</svg>
