<?xml version="1.0" encoding="UTF-8" standalone="no"?>
<!DOCTYPE svg PUBLIC "-//W3C//DTD SVG 1.1//EN"
 "http://www.w3.org/Graphics/SVG/1.1/DTD/svg11.dtd">
<!-- Generated by graphviz version 2.44.1 (20200629.0846)
 -->
<!-- Title: raftCommand Pages: 1 -->
<svg width="1484pt" height="521pt"
 viewBox="0.00 0.00 1484.00 521.00" xmlns="http://www.w3.org/2000/svg" xmlns:xlink="http://www.w3.org/1999/xlink">
<g id="graph0" class="graph" transform="scale(1 1) rotate(0) translate(4 517)">
<title>raftCommand</title>
<polygon fill="white" stroke="transparent" points="-4,4 -4,-517 1480,-517 1480,4 -4,4"/>
<g id="clust12" class="cluster">
<title>cluster_service_kv</title>
<path fill="none" stroke="slategrey" stroke-dasharray="5,2" d="M20,-260C20,-260 885,-260 885,-260 891,-260 897,-266 897,-272 897,-272 897,-384 897,-384 897,-390 891,-396 885,-396 885,-396 20,-396 20,-396 14,-396 8,-390 8,-384 8,-384 8,-272 8,-272 8,-266 14,-260 20,-260"/>
<text text-anchor="middle" x="452.5" y="-376" font-family="Times,serif" font-size="20.00">service_kv</text>
</g>
<!-- LocalReader_redirect -->
<g id="node1" class="node">
<title>LocalReader_redirect</title>
<path fill="none" stroke="#1c2123" d="M507,-494C507,-494 397,-494 397,-494 391,-494 385,-488 385,-482 385,-482 385,-470 385,-470 385,-464 391,-458 397,-458 397,-458 507,-458 507,-458 513,-458 519,-464 519,-470 519,-470 519,-482 519,-482 519,-488 513,-494 507,-494"/>
<text text-anchor="middle" x="452" y="-472.3" font-family="Times,serif" font-size="14.00" fill="#2f3638">LocalReader_redirect</text>
</g>
<!-- ProposalRouter_send -->
<g id="node2" class="node">
<title>ProposalRouter_send</title>
<path fill="none" stroke="#1c2123" d="M685,-453C685,-453 577,-453 577,-453 571,-453 565,-447 565,-441 565,-441 565,-429 565,-429 565,-423 571,-417 577,-417 577,-417 685,-417 685,-417 691,-417 697,-423 697,-429 697,-429 697,-441 697,-441 697,-447 691,-453 685,-453"/>
<text text-anchor="middle" x="631" y="-431.3" font-family="Times,serif" font-size="14.00" fill="#2f3638">ProposalRouter_send</text>
</g>
<!-- LocalReader_redirect&#45;&gt;ProposalRouter_send -->
<g id="edge1" class="edge">
<title>LocalReader_redirect&#45;&gt;ProposalRouter_send</title>
<path fill="none" stroke="#666666" d="M519.16,-460.67C530.82,-457.97 543.03,-455.14 554.92,-452.39"/>
<polygon fill="#666666" stroke="#666666" points="555.85,-455.77 564.8,-450.1 554.27,-448.95 555.85,-455.77"/>
</g>
<!-- ProposalRouter -->
<g id="node4" class="node">
<title>ProposalRouter</title>
<path fill="none" stroke="#1c2123" d="M879,-453C879,-453 802,-453 802,-453 796,-453 790,-447 790,-441 790,-441 790,-429 790,-429 790,-423 796,-417 802,-417 802,-417 879,-417 879,-417 885,-417 891,-423 891,-429 891,-429 891,-441 891,-441 891,-447 885,-453 879,-453"/>
<text text-anchor="middle" x="840.5" y="-431.3" font-family="Times,serif" font-size="14.00" fill="#2f3638">ProposalRouter</text>
</g>
<!-- ProposalRouter_send&#45;&gt;ProposalRouter -->
<g id="edge17" class="edge">
<title>ProposalRouter_send&#45;&gt;ProposalRouter</title>
<path fill="none" stroke="#666666" d="M697.08,-435C723.53,-435 753.88,-435 779.75,-435"/>
<polygon fill="#666666" stroke="#666666" points="779.79,-438.5 789.79,-435 779.79,-431.5 779.79,-438.5"/>
</g>
<!-- sst_service_ingest -->
<g id="node3" class="node">
<title>sst_service_ingest</title>
<path fill="none" stroke="#1c2123" d="M497.5,-440C497.5,-440 406.5,-440 406.5,-440 400.5,-440 394.5,-434 394.5,-428 394.5,-428 394.5,-416 394.5,-416 394.5,-410 400.5,-404 406.5,-404 406.5,-404 497.5,-404 497.5,-404 503.5,-404 509.5,-410 509.5,-416 509.5,-416 509.5,-428 509.5,-428 509.5,-434 503.5,-440 497.5,-440"/>
<text text-anchor="middle" x="452" y="-418.3" font-family="Times,serif" font-size="14.00" fill="#2f3638">sst_service_ingest</text>
</g>
<!-- sst_service_ingest&#45;&gt;ProposalRouter_send -->
<g id="edge2" class="edge">
<title>sst_service_ingest&#45;&gt;ProposalRouter_send</title>
<path fill="none" stroke="#666666" d="M509.98,-426.18C524.18,-427.23 539.64,-428.36 554.58,-429.46"/>
<polygon fill="#666666" stroke="#666666" points="554.59,-432.97 564.82,-430.21 555.1,-425.99 554.59,-432.97"/>
</g>
<!-- RaftRouter -->
<g id="node5" class="node">
<title>RaftRouter</title>
<path fill="none" stroke="#1c2123" d="M1097.5,-513C1097.5,-513 1044.5,-513 1044.5,-513 1038.5,-513 1032.5,-507 1032.5,-501 1032.5,-501 1032.5,-489 1032.5,-489 1032.5,-483 1038.5,-477 1044.5,-477 1044.5,-477 1097.5,-477 1097.5,-477 1103.5,-477 1109.5,-483 1109.5,-489 1109.5,-489 1109.5,-501 1109.5,-501 1109.5,-507 1103.5,-513 1097.5,-513"/>
<text text-anchor="middle" x="1071" y="-491.3" font-family="Times,serif" font-size="14.00" fill="#2f3638">RaftRouter</text>
</g>
<!-- ProposalRouter&#45;&gt;RaftRouter -->
<g id="edge3" class="edge">
<title>ProposalRouter&#45;&gt;RaftRouter</title>
<path fill="none" stroke="#666666" d="M891.08,-448.02C930,-458.24 983.85,-472.38 1022.28,-482.47"/>
<polygon fill="#666666" stroke="#666666" points="1021.63,-485.92 1032.19,-485.07 1023.41,-479.15 1021.63,-485.92"/>
</g>
<!-- ServerRaftStoreRouter -->
<g id="node6" class="node">
<title>ServerRaftStoreRouter</title>
<path fill="none" stroke="#1c2123" d="M1129,-459C1129,-459 1013,-459 1013,-459 1007,-459 1001,-453 1001,-447 1001,-447 1001,-435 1001,-435 1001,-429 1007,-423 1013,-423 1013,-423 1129,-423 1129,-423 1135,-423 1141,-429 1141,-435 1141,-435 1141,-447 1141,-447 1141,-453 1135,-459 1129,-459"/>
<text text-anchor="middle" x="1071" y="-437.3" font-family="Times,serif" font-size="14.00" fill="#2f3638">ServerRaftStoreRouter</text>
</g>
<!-- ProposalRouter&#45;&gt;ServerRaftStoreRouter -->
<g id="edge4" class="edge">
<title>ProposalRouter&#45;&gt;ServerRaftStoreRouter</title>
<path fill="none" stroke="#666666" d="M891.08,-436.3C920.11,-437.06 957.43,-438.04 990.48,-438.91"/>
<polygon fill="#666666" stroke="#666666" points="990.49,-442.41 1000.58,-439.18 990.68,-435.42 990.49,-442.41"/>
</g>
<!-- RaftStoreBlackHole -->
<g id="node7" class="node">
<title>RaftStoreBlackHole</title>
<path fill="none" stroke="#1c2123" d="M1122,-405C1122,-405 1020,-405 1020,-405 1014,-405 1008,-399 1008,-393 1008,-393 1008,-381 1008,-381 1008,-375 1014,-369 1020,-369 1020,-369 1122,-369 1122,-369 1128,-369 1134,-375 1134,-381 1134,-381 1134,-393 1134,-393 1134,-399 1128,-405 1122,-405"/>
<text text-anchor="middle" x="1071" y="-383.3" font-family="Times,serif" font-size="14.00" fill="#2f3638">RaftStoreBlackHole</text>
</g>
<!-- ProposalRouter&#45;&gt;RaftStoreBlackHole -->
<g id="edge5" class="edge">
<title>ProposalRouter&#45;&gt;RaftStoreBlackHole</title>
<path fill="none" stroke="#666666" d="M891.08,-424.58C922.26,-418.03 963.02,-409.47 997.76,-402.17"/>
<polygon fill="#666666" stroke="#666666" points="998.79,-405.53 1007.86,-400.05 997.35,-398.68 998.79,-405.53"/>
</g>
<!-- SyncSender -->
<g id="node8" class="node">
<title>SyncSender</title>
<path fill="none" stroke="#1c2123" d="M1099.5,-351C1099.5,-351 1042.5,-351 1042.5,-351 1036.5,-351 1030.5,-345 1030.5,-339 1030.5,-339 1030.5,-327 1030.5,-327 1030.5,-321 1036.5,-315 1042.5,-315 1042.5,-315 1099.5,-315 1099.5,-315 1105.5,-315 1111.5,-321 1111.5,-327 1111.5,-327 1111.5,-339 1111.5,-339 1111.5,-345 1105.5,-351 1099.5,-351"/>
<text text-anchor="middle" x="1071" y="-329.3" font-family="Times,serif" font-size="14.00" fill="#2f3638">SyncSender</text>
</g>
<!-- ProposalRouter&#45;&gt;SyncSender -->
<g id="edge6" class="edge">
<title>ProposalRouter&#45;&gt;SyncSender</title>
<path fill="none" stroke="#666666" d="M891.34,-422.11C907.05,-416.72 923.96,-409.46 938,-400 957.83,-386.63 953.69,-372.63 974,-360 987.87,-351.38 1004.56,-345.44 1020.1,-341.39"/>
<polygon fill="#666666" stroke="#666666" points="1021.2,-344.72 1030.1,-338.98 1019.56,-337.92 1021.2,-344.72"/>
</g>
<!-- RaftRouter_send -->
<g id="node9" class="node">
<title>RaftRouter_send</title>
<path fill="none" stroke="#1c2123" d="M1300,-341C1300,-341 1216,-341 1216,-341 1210,-341 1204,-335 1204,-329 1204,-329 1204,-317 1204,-317 1204,-311 1210,-305 1216,-305 1216,-305 1300,-305 1300,-305 1306,-305 1312,-311 1312,-317 1312,-317 1312,-329 1312,-329 1312,-335 1306,-341 1300,-341"/>
<text text-anchor="middle" x="1258" y="-319.3" font-family="Times,serif" font-size="14.00" fill="#2f3638">RaftRouter_send</text>
</g>
<!-- ServerRaftStoreRouter&#45;&gt;RaftRouter_send -->
<g id="edge7" class="edge">
<title>ServerRaftStoreRouter&#45;&gt;RaftRouter_send</title>
<path fill="none" stroke="#666666" d="M1141.21,-426.28C1150.54,-422.95 1159.74,-418.9 1168,-414 1196.06,-397.35 1221.36,-369.64 1237.75,-349.16"/>
<polygon fill="#666666" stroke="#666666" points="1240.6,-351.19 1244,-341.15 1235.09,-346.88 1240.6,-351.19"/>
</g>
<!-- send_raft_command -->
<g id="node10" class="node">
<title>send_raft_command</title>
<path fill="none" stroke="#1c2123" d="M1464,-341C1464,-341 1360,-341 1360,-341 1354,-341 1348,-335 1348,-329 1348,-329 1348,-317 1348,-317 1348,-311 1354,-305 1360,-305 1360,-305 1464,-305 1464,-305 1470,-305 1476,-311 1476,-317 1476,-317 1476,-329 1476,-329 1476,-335 1470,-341 1464,-341"/>
<text text-anchor="middle" x="1412" y="-319.3" font-family="Times,serif" font-size="14.00" fill="#2f3638">send_raft_command</text>
</g>
<!-- RaftRouter_send&#45;&gt;send_raft_command -->
<g id="edge8" class="edge">
<title>RaftRouter_send&#45;&gt;send_raft_command</title>
<path fill="none" stroke="#666666" d="M1312.16,-323C1320.47,-323 1329.18,-323 1337.84,-323"/>
<polygon fill="#666666" stroke="#666666" points="1337.95,-326.5 1347.95,-323 1337.95,-319.5 1337.95,-326.5"/>
</g>
<!-- RaftRouter_send_command -->
<g id="node11" class="node">
<title>RaftRouter_send_command</title>
<path fill="none" stroke="#1c2123" d="M1144,-223C1144,-223 998,-223 998,-223 992,-223 986,-217 986,-211 986,-211 986,-199 986,-199 986,-193 992,-187 998,-187 998,-187 1144,-187 1144,-187 1150,-187 1156,-193 1156,-199 1156,-199 1156,-211 1156,-211 1156,-217 1150,-223 1144,-223"/>
<text text-anchor="middle" x="1071" y="-201.3" font-family="Times,serif" font-size="14.00" fill="#2f3638">RaftRouter_send_command</text>
</g>
<!-- RaftRouter_send_command&#45;&gt;RaftRouter_send -->
<g id="edge9" class="edge">
<title>RaftRouter_send_command&#45;&gt;RaftRouter_send</title>
<path fill="none" stroke="#666666" d="M1114.18,-223.22C1131.33,-231.24 1151.07,-241.28 1168,-252 1189.53,-265.63 1211.94,-283.53 1228.89,-297.95"/>
<polygon fill="#666666" stroke="#666666" points="1226.88,-300.84 1236.74,-304.72 1231.45,-295.54 1226.88,-300.84"/>
</g>
<!-- kv_read_index -->
<g id="node12" class="node">
<title>kv_read_index</title>
<path fill="none" stroke="#1c2123" d="M877,-304C877,-304 804,-304 804,-304 798,-304 792,-298 792,-292 792,-292 792,-280 792,-280 792,-274 798,-268 804,-268 804,-268 877,-268 877,-268 883,-268 889,-274 889,-280 889,-280 889,-292 889,-292 889,-298 883,-304 877,-304"/>
<text text-anchor="middle" x="840.5" y="-282.3" font-family="Times,serif" font-size="14.00" fill="#2f3638">kv_read_index</text>
</g>
<!-- kv_read_index&#45;&gt;RaftRouter_send_command -->
<g id="edge10" class="edge">
<title>kv_read_index&#45;&gt;RaftRouter_send_command</title>
<path fill="none" stroke="#666666" d="M889.45,-273.76C905.05,-269.47 922.37,-264.36 938,-259 965.5,-249.56 995.54,-237.42 1020.01,-227.05"/>
<polygon fill="#666666" stroke="#666666" points="1021.62,-230.16 1029.44,-223.02 1018.87,-223.73 1021.62,-230.16"/>
</g>
<!-- CmdType_ReadIndex -->
<g id="node13" class="node">
<title>CmdType_ReadIndex</title>
<path fill="none" stroke="#1c2123" d="M1127.5,-297C1127.5,-297 1014.5,-297 1014.5,-297 1008.5,-297 1002.5,-291 1002.5,-285 1002.5,-285 1002.5,-273 1002.5,-273 1002.5,-267 1008.5,-261 1014.5,-261 1014.5,-261 1127.5,-261 1127.5,-261 1133.5,-261 1139.5,-267 1139.5,-273 1139.5,-273 1139.5,-285 1139.5,-285 1139.5,-291 1133.5,-297 1127.5,-297"/>
<text text-anchor="middle" x="1071" y="-275.3" font-family="Times,serif" font-size="14.00" fill="#2f3638">CmdType_ReadIndex</text>
</g>
<!-- kv_read_index&#45;&gt;CmdType_ReadIndex -->
<g id="edge11" class="edge">
<title>kv_read_index&#45;&gt;CmdType_ReadIndex</title>
<path fill="none" stroke="#666666" d="M889.12,-284.54C918.76,-283.63 957.58,-282.44 991.66,-281.4"/>
<polygon fill="#666666" stroke="#666666" points="992.18,-284.89 1002.07,-281.08 991.97,-277.89 992.18,-284.89"/>
</g>
<!-- node_async_command_on_node -->
<g id="node14" class="node">
<title>node_async_command_on_node</title>
<path fill="none" stroke="#1c2123" d="M926,-250C926,-250 755,-250 755,-250 749,-250 743,-244 743,-238 743,-238 743,-226 743,-226 743,-220 749,-214 755,-214 755,-214 926,-214 926,-214 932,-214 938,-220 938,-226 938,-226 938,-238 938,-238 938,-244 932,-250 926,-250"/>
<text text-anchor="middle" x="840.5" y="-228.3" font-family="Times,serif" font-size="14.00" fill="#2f3638">node_async_command_on_node</text>
</g>
<!-- node_async_command_on_node&#45;&gt;RaftRouter_send_command -->
<g id="edge12" class="edge">
<title>node_async_command_on_node&#45;&gt;RaftRouter_send_command</title>
<path fill="none" stroke="#666666" d="M938.07,-220.59C950.44,-219.13 963.1,-217.63 975.44,-216.17"/>
<polygon fill="#666666" stroke="#666666" points="976.19,-219.61 985.71,-214.96 975.37,-212.66 976.19,-219.61"/>
</g>
<!-- debug_region_detail -->
<g id="node15" class="node">
<title>debug_region_detail</title>
<path fill="none" stroke="#1c2123" d="M892.5,-142C892.5,-142 788.5,-142 788.5,-142 782.5,-142 776.5,-136 776.5,-130 776.5,-130 776.5,-118 776.5,-118 776.5,-112 782.5,-106 788.5,-106 788.5,-106 892.5,-106 892.5,-106 898.5,-106 904.5,-112 904.5,-118 904.5,-118 904.5,-130 904.5,-130 904.5,-136 898.5,-142 892.5,-142"/>
<text text-anchor="middle" x="840.5" y="-120.3" font-family="Times,serif" font-size="14.00" fill="#2f3638">debug_region_detail</text>
</g>
<!-- debug_region_detail&#45;&gt;RaftRouter_send_command -->
<g id="edge13" class="edge">
<title>debug_region_detail&#45;&gt;RaftRouter_send_command</title>
<path fill="none" stroke="#666666" d="M904.63,-140.53C915.82,-143.78 927.3,-147.33 938,-151 965.5,-160.44 995.54,-172.58 1020.01,-182.95"/>
<polygon fill="#666666" stroke="#666666" points="1018.87,-186.27 1029.44,-186.98 1021.62,-179.84 1018.87,-186.27"/>
</g>
<!-- CmdType_RegionDetail -->
<g id="node16" class="node">
<title>CmdType_RegionDetail</title>
<path fill="none" stroke="#1c2123" d="M1134,-142C1134,-142 1008,-142 1008,-142 1002,-142 996,-136 996,-130 996,-130 996,-118 996,-118 996,-112 1002,-106 1008,-106 1008,-106 1134,-106 1134,-106 1140,-106 1146,-112 1146,-118 1146,-118 1146,-130 1146,-130 1146,-136 1140,-142 1134,-142"/>
<text text-anchor="middle" x="1071" y="-120.3" font-family="Times,serif" font-size="14.00" fill="#2f3638">CmdType_RegionDetail</text>
</g>
<!-- debug_region_detail&#45;&gt;CmdType_RegionDetail -->
<g id="edge14" class="edge">
<title>debug_region_detail&#45;&gt;CmdType_RegionDetail</title>
<path fill="none" stroke="#666666" d="M904.54,-124C929.61,-124 958.82,-124 985.67,-124"/>
<polygon fill="#666666" stroke="#666666" points="985.82,-127.5 995.82,-124 985.82,-120.5 985.82,-127.5"/>
</g>
<!-- debug_consistency_check -->
<g id="node17" class="node">
<title>debug_consistency_check</title>
<path fill="none" stroke="#1c2123" d="M907.5,-88C907.5,-88 773.5,-88 773.5,-88 767.5,-88 761.5,-82 761.5,-76 761.5,-76 761.5,-64 761.5,-64 761.5,-58 767.5,-52 773.5,-52 773.5,-52 907.5,-52 907.5,-52 913.5,-52 919.5,-58 919.5,-64 919.5,-64 919.5,-76 919.5,-76 919.5,-82 913.5,-88 907.5,-88"/>
<text text-anchor="middle" x="840.5" y="-66.3" font-family="Times,serif" font-size="14.00" fill="#2f3638">debug_consistency_check</text>
</g>
<!-- debug_consistency_check&#45;&gt;RaftRouter_send_command -->
<g id="edge15" class="edge">
<title>debug_consistency_check&#45;&gt;RaftRouter_send_command</title>
<path fill="none" stroke="#666666" d="M919.64,-86.5C926.14,-89.44 932.37,-92.91 938,-97 961.34,-113.94 952.85,-131.39 974,-151 987.13,-163.17 1003.5,-173.66 1018.97,-182.08"/>
<polygon fill="#666666" stroke="#666666" points="1017.47,-185.24 1027.96,-186.79 1020.72,-179.04 1017.47,-185.24"/>
</g>
<!-- AdminCmdType_ComputeHash -->
<g id="node18" class="node">
<title>AdminCmdType_ComputeHash</title>
<path fill="none" stroke="#1c2123" d="M1156,-88C1156,-88 986,-88 986,-88 980,-88 974,-82 974,-76 974,-76 974,-64 974,-64 974,-58 980,-52 986,-52 986,-52 1156,-52 1156,-52 1162,-52 1168,-58 1168,-64 1168,-64 1168,-76 1168,-76 1168,-82 1162,-88 1156,-88"/>
<text text-anchor="middle" x="1071" y="-66.3" font-family="Times,serif" font-size="14.00" fill="#2f3638">AdminCmdType_ComputeHash</text>
</g>
<!-- debug_consistency_check&#45;&gt;AdminCmdType_ComputeHash -->
<g id="edge16" class="edge">
<title>debug_consistency_check&#45;&gt;AdminCmdType_ComputeHash</title>
<path fill="none" stroke="#666666" d="M919.82,-70C933.88,-70 948.76,-70 963.46,-70"/>
<polygon fill="#666666" stroke="#666666" points="963.6,-73.5 973.6,-70 963.6,-66.5 963.6,-73.5"/>
</g>
<!-- RaftKv_exec_write_requests -->
<g id="node19" class="node">
<title>RaftKv_exec_write_requests</title>
<path fill="none" stroke="#1c2123" d="M915,-196C915,-196 766,-196 766,-196 760,-196 754,-190 754,-184 754,-184 754,-172 754,-172 754,-166 760,-160 766,-160 766,-160 915,-160 915,-160 921,-160 927,-166 927,-172 927,-172 927,-184 927,-184 927,-190 921,-196 915,-196"/>
<text text-anchor="middle" x="840.5" y="-174.3" font-family="Times,serif" font-size="14.00" fill="#2f3638">RaftKv_exec_write_requests</text>
</g>
<!-- RaftKv_exec_write_requests&#45;&gt;RaftRouter_send_command -->
<g id="edge18" class="edge">
<title>RaftKv_exec_write_requests&#45;&gt;RaftRouter_send_command</title>
<path fill="none" stroke="#666666" d="M927.24,-188.13C942.92,-189.98 959.37,-191.93 975.3,-193.81"/>
<polygon fill="#666666" stroke="#666666" points="975.34,-197.34 985.68,-195.04 976.16,-190.39 975.34,-197.34"/>
</g>
<!-- RaftKv_async_write -->
<g id="node20" class="node">
<title>RaftKv_async_write</title>
<path fill="none" stroke="#1c2123" d="M504,-157C504,-157 400,-157 400,-157 394,-157 388,-151 388,-145 388,-145 388,-133 388,-133 388,-127 394,-121 400,-121 400,-121 504,-121 504,-121 510,-121 516,-127 516,-133 516,-133 516,-145 516,-145 516,-151 510,-157 504,-157"/>
<text text-anchor="middle" x="452" y="-135.3" font-family="Times,serif" font-size="14.00" fill="#2f3638">RaftKv_async_write</text>
</g>
<!-- RaftKv_async_write_ext -->
<g id="node21" class="node">
<title>RaftKv_async_write_ext</title>
<path fill="none" stroke="#1c2123" d="M695,-183C695,-183 567,-183 567,-183 561,-183 555,-177 555,-171 555,-171 555,-159 555,-159 555,-153 561,-147 567,-147 567,-147 695,-147 695,-147 701,-147 707,-153 707,-159 707,-159 707,-171 707,-171 707,-177 701,-183 695,-183"/>
<text text-anchor="middle" x="631" y="-161.3" font-family="Times,serif" font-size="14.00" fill="#2f3638">RaftKv_async_write_ext</text>
</g>
<!-- RaftKv_async_write&#45;&gt;RaftKv_async_write_ext -->
<g id="edge19" class="edge">
<title>RaftKv_async_write&#45;&gt;RaftKv_async_write_ext</title>
<path fill="none" stroke="#666666" d="M516.4,-148.31C525.68,-149.68 535.35,-151.1 544.98,-152.51"/>
<polygon fill="#666666" stroke="#666666" points="544.56,-155.99 554.97,-153.98 545.58,-149.06 544.56,-155.99"/>
</g>
<!-- RaftKv_async_write_ext&#45;&gt;RaftKv_exec_write_requests -->
<g id="edge20" class="edge">
<title>RaftKv_async_write_ext&#45;&gt;RaftKv_exec_write_requests</title>
<path fill="none" stroke="#666666" d="M707.21,-169.71C719.08,-170.46 731.49,-171.23 743.75,-172"/>
<polygon fill="#666666" stroke="#666666" points="743.8,-175.51 754,-172.64 744.23,-168.52 743.8,-175.51"/>
</g>
<!-- Engine -->
<g id="node22" class="node">
<title>Engine</title>
<path fill="none" stroke="#1c2123" d="M100,-440C100,-440 69,-440 69,-440 63,-440 57,-434 57,-428 57,-428 57,-416 57,-416 57,-410 63,-404 69,-404 69,-404 100,-404 100,-404 106,-404 112,-410 112,-416 112,-416 112,-428 112,-428 112,-434 106,-440 100,-440"/>
<text text-anchor="middle" x="84.5" y="-418.3" font-family="Times,serif" font-size="14.00" fill="#2f3638">Engine</text>
</g>
<!-- RaftKv -->
<g id="node23" class="node">
<title>RaftKv</title>
<path fill="none" stroke="#1c2123" d="M285,-440C285,-440 253,-440 253,-440 247,-440 241,-434 241,-428 241,-428 241,-416 241,-416 241,-410 247,-404 253,-404 253,-404 285,-404 285,-404 291,-404 297,-410 297,-416 297,-416 297,-428 297,-428 297,-434 291,-440 285,-440"/>
<text text-anchor="middle" x="269" y="-418.3" font-family="Times,serif" font-size="14.00" fill="#2f3638">RaftKv</text>
</g>
<!-- Engine&#45;&gt;RaftKv -->
<g id="edge21" class="edge">
<title>Engine&#45;&gt;RaftKv</title>
<path fill="none" stroke="#666666" d="M112.04,-422C143.21,-422 195.16,-422 230.46,-422"/>
<polygon fill="#666666" stroke="#666666" points="230.84,-425.5 240.83,-422 230.83,-418.5 230.84,-425.5"/>
</g>
<!-- Storage_delete_region -->
<g id="node24" class="node">
<title>Storage_delete_region</title>
<path fill="none" stroke="#1c2123" d="M326,-144C326,-144 212,-144 212,-144 206,-144 200,-138 200,-132 200,-132 200,-120 200,-120 200,-114 206,-108 212,-108 212,-108 326,-108 326,-108 332,-108 338,-114 338,-120 338,-120 338,-132 338,-132 338,-138 332,-144 326,-144"/>
<text text-anchor="middle" x="269" y="-122.3" font-family="Times,serif" font-size="14.00" fill="#2f3638">Storage_delete_region</text>
</g>
<!-- Storage_delete_region&#45;&gt;RaftKv_async_write -->
<g id="edge22" class="edge">
<title>Storage_delete_region&#45;&gt;RaftKv_async_write</title>
<path fill="none" stroke="#666666" d="M338.17,-130.9C351.06,-131.82 364.59,-132.79 377.63,-133.73"/>
<polygon fill="#666666" stroke="#666666" points="377.74,-137.25 387.96,-134.47 378.24,-130.27 377.74,-137.25"/>
</g>
<!-- Storage_raw_put -->
<g id="node25" class="node">
<title>Storage_raw_put</title>
<path fill="none" stroke="#1c2123" d="M311.5,-90C311.5,-90 226.5,-90 226.5,-90 220.5,-90 214.5,-84 214.5,-78 214.5,-78 214.5,-66 214.5,-66 214.5,-60 220.5,-54 226.5,-54 226.5,-54 311.5,-54 311.5,-54 317.5,-54 323.5,-60 323.5,-66 323.5,-66 323.5,-78 323.5,-78 323.5,-84 317.5,-90 311.5,-90"/>
<text text-anchor="middle" x="269" y="-68.3" font-family="Times,serif" font-size="14.00" fill="#2f3638">Storage_raw_put</text>
</g>
<!-- Storage_raw_put&#45;&gt;RaftKv_async_write -->
<g id="edge23" class="edge">
<title>Storage_raw_put&#45;&gt;RaftKv_async_write</title>
<path fill="none" stroke="#666666" d="M323.66,-89.98C332.16,-92.93 340.84,-96.01 349,-99 364.6,-104.72 381.43,-111.2 396.84,-117.25"/>
<polygon fill="#666666" stroke="#666666" points="395.64,-120.53 406.23,-120.95 398.21,-114.02 395.64,-120.53"/>
</g>
<!-- Storage_raw_batch_put -->
<g id="node26" class="node">
<title>Storage_raw_batch_put</title>
<path fill="none" stroke="#1c2123" d="M329.5,-36C329.5,-36 208.5,-36 208.5,-36 202.5,-36 196.5,-30 196.5,-24 196.5,-24 196.5,-12 196.5,-12 196.5,-6 202.5,0 208.5,0 208.5,0 329.5,0 329.5,0 335.5,0 341.5,-6 341.5,-12 341.5,-12 341.5,-24 341.5,-24 341.5,-30 335.5,-36 329.5,-36"/>
<text text-anchor="middle" x="269" y="-14.3" font-family="Times,serif" font-size="14.00" fill="#2f3638">Storage_raw_batch_put</text>
</g>
<!-- Storage_raw_batch_put&#45;&gt;RaftKv_async_write -->
<g id="edge24" class="edge">
<title>Storage_raw_batch_put&#45;&gt;RaftKv_async_write</title>
<path fill="none" stroke="#666666" d="M331.53,-36.17C337.59,-38.8 343.52,-41.74 349,-45 379.82,-63.35 409.31,-92.17 428.58,-113.07"/>
<polygon fill="#666666" stroke="#666666" points="426.14,-115.59 435.45,-120.65 431.33,-110.89 426.14,-115.59"/>
</g>
<!-- Storage_raw_delete -->
<g id="node27" class="node">
<title>Storage_raw_delete</title>
<path fill="none" stroke="#1c2123" d="M319,-252C319,-252 219,-252 219,-252 213,-252 207,-246 207,-240 207,-240 207,-228 207,-228 207,-222 213,-216 219,-216 219,-216 319,-216 319,-216 325,-216 331,-222 331,-228 331,-228 331,-240 331,-240 331,-246 325,-252 319,-252"/>
<text text-anchor="middle" x="269" y="-230.3" font-family="Times,serif" font-size="14.00" fill="#2f3638">Storage_raw_delete</text>
</g>
<!-- Storage_raw_delete&#45;&gt;RaftKv_async_write -->
<g id="edge25" class="edge">
<title>Storage_raw_delete&#45;&gt;RaftKv_async_write</title>
<path fill="none" stroke="#666666" d="M328.51,-215.92C335.53,-213.19 342.5,-210.21 349,-207 373.93,-194.69 399.99,-177.23 419.52,-163.08"/>
<polygon fill="#666666" stroke="#666666" points="421.75,-165.79 427.74,-157.05 417.61,-160.15 421.75,-165.79"/>
</g>
<!-- Storage_raw_batch_delete -->
<g id="node28" class="node">
<title>Storage_raw_batch_delete</title>
<path fill="none" stroke="#1c2123" d="M337,-198C337,-198 201,-198 201,-198 195,-198 189,-192 189,-186 189,-186 189,-174 189,-174 189,-168 195,-162 201,-162 201,-162 337,-162 337,-162 343,-162 349,-168 349,-174 349,-174 349,-186 349,-186 349,-192 343,-198 337,-198"/>
<text text-anchor="middle" x="269" y="-176.3" font-family="Times,serif" font-size="14.00" fill="#2f3638">Storage_raw_batch_delete</text>
</g>
<!-- Storage_raw_batch_delete&#45;&gt;RaftKv_async_write -->
<g id="edge26" class="edge">
<title>Storage_raw_batch_delete&#45;&gt;RaftKv_async_write</title>
<path fill="none" stroke="#666666" d="M349.13,-162.08C358.73,-159.9 368.5,-157.69 378.01,-155.53"/>
<polygon fill="#666666" stroke="#666666" points="378.82,-158.94 387.8,-153.32 377.28,-152.11 378.82,-158.94"/>
</g>
<!-- kv_future_raw_put -->
<g id="node29" class="node">
<title>kv_future_raw_put</title>
<path fill="none" stroke="#1c2123" d="M132.5,-304C132.5,-304 36.5,-304 36.5,-304 30.5,-304 24.5,-298 24.5,-292 24.5,-292 24.5,-280 24.5,-280 24.5,-274 30.5,-268 36.5,-268 36.5,-268 132.5,-268 132.5,-268 138.5,-268 144.5,-274 144.5,-280 144.5,-280 144.5,-292 144.5,-292 144.5,-298 138.5,-304 132.5,-304"/>
<text text-anchor="middle" x="84.5" y="-282.3" font-family="Times,serif" font-size="14.00" fill="#2f3638">kv_future_raw_put</text>
</g>
<!-- kv_future_raw_put&#45;&gt;Storage_raw_put -->
<g id="edge27" class="edge">
<title>kv_future_raw_put&#45;&gt;Storage_raw_put</title>
<path fill="none" stroke="#666666" d="M90.62,-267.98C102.04,-230.94 133.11,-145.82 189,-99 193.81,-94.97 199.26,-91.53 204.98,-88.6"/>
<polygon fill="#666666" stroke="#666666" points="206.53,-91.74 214.16,-84.39 203.61,-85.37 206.53,-91.74"/>
</g>
<!-- kv_futre_batch_delete -->
<g id="node30" class="node">
<title>kv_futre_batch_delete</title>
<path fill="none" stroke="#1c2123" d="M141,-358C141,-358 28,-358 28,-358 22,-358 16,-352 16,-346 16,-346 16,-334 16,-334 16,-328 22,-322 28,-322 28,-322 141,-322 141,-322 147,-322 153,-328 153,-334 153,-334 153,-346 153,-346 153,-352 147,-358 141,-358"/>
<text text-anchor="middle" x="84.5" y="-336.3" font-family="Times,serif" font-size="14.00" fill="#2f3638">kv_futre_batch_delete</text>
</g>
<!-- kv_futre_batch_delete&#45;&gt;Storage_raw_batch_delete -->
<g id="edge28" class="edge">
<title>kv_futre_batch_delete&#45;&gt;Storage_raw_batch_delete</title>
<path fill="none" stroke="#666666" d="M142.12,-321.97C146.09,-319.36 149.79,-316.39 153,-313 187.23,-276.9 153.85,-242.22 189,-207 189.95,-206.05 190.94,-205.13 191.95,-204.24"/>
<polygon fill="#666666" stroke="#666666" points="194.34,-206.83 200.29,-198.06 190.17,-201.2 194.34,-206.83"/>
</g>
</g>
</svg>
