<?xml version="1.0" encoding="UTF-8" standalone="no"?>
<!DOCTYPE svg PUBLIC "-//W3C//DTD SVG 1.1//EN"
 "http://www.w3.org/Graphics/SVG/1.1/DTD/svg11.dtd">
<!-- Generated by graphviz version 2.47.0 (20210316.0004)
 -->
<!-- Title: txn_put_lock Pages: 1 -->
<svg width="1551pt" height="314pt"
 viewBox="0.00 0.00 1551.00 314.00" xmlns="http://www.w3.org/2000/svg" xmlns:xlink="http://www.w3.org/1999/xlink">
<g id="graph0" class="graph" transform="scale(1 1) rotate(0) translate(4 310)">
<title>txn_put_lock</title>
<polygon fill="white" stroke="transparent" points="-4,4 -4,-310 1547,-310 1547,4 -4,4"/>
<!-- put_lock -->
<g id="node1" class="node">
<title>put_lock</title>
<path fill="none" stroke="#1c2123" d="M1504,-192C1504,-192 1464,-192 1464,-192 1458,-192 1452,-186 1452,-180 1452,-180 1452,-168 1452,-168 1452,-162 1458,-156 1464,-156 1464,-156 1504,-156 1504,-156 1510,-156 1516,-162 1516,-168 1516,-168 1516,-180 1516,-180 1516,-186 1510,-192 1504,-192"/>
<text text-anchor="middle" x="1484" y="-170.3" font-family="Times,serif" font-size="14.00" fill="#2f3638">put_lock</text>
</g>
<!-- PrewriteMutation_write_lock -->
<g id="node2" class="node">
<title>PrewriteMutation_write_lock</title>
<path fill="none" stroke="#1c2123" d="M1332.5,-295C1332.5,-295 1179.5,-295 1179.5,-295 1173.5,-295 1167.5,-289 1167.5,-283 1167.5,-283 1167.5,-271 1167.5,-271 1167.5,-265 1173.5,-259 1179.5,-259 1179.5,-259 1332.5,-259 1332.5,-259 1338.5,-259 1344.5,-265 1344.5,-271 1344.5,-271 1344.5,-283 1344.5,-283 1344.5,-289 1338.5,-295 1332.5,-295"/>
<text text-anchor="middle" x="1256" y="-273.3" font-family="Times,serif" font-size="14.00" fill="#2f3638">PrewriteMutation_write_lock</text>
</g>
<!-- PrewriteMutation_write_lock&#45;&gt;put_lock -->
<g id="edge1" class="edge">
<title>PrewriteMutation_write_lock&#45;&gt;put_lock</title>
<path fill="none" stroke="#666666" d="M1323.39,-258.98C1344.78,-252.23 1368.3,-243.78 1389,-234 1410.17,-224 1432.31,-210.06 1449.78,-198.13"/>
<polygon fill="#666666" stroke="#666666" points="1452.24,-200.68 1458.47,-192.11 1448.26,-194.93 1452.24,-200.68"/>
</g>
<!-- put_locks_for_1pc -->
<g id="node3" class="node">
<title>put_locks_for_1pc</title>
<path fill="none" stroke="#1c2123" d="M1531,-295C1531,-295 1437,-295 1437,-295 1431,-295 1425,-289 1425,-283 1425,-283 1425,-271 1425,-271 1425,-265 1431,-259 1437,-259 1437,-259 1531,-259 1531,-259 1537,-259 1543,-265 1543,-271 1543,-271 1543,-283 1543,-283 1543,-289 1537,-295 1531,-295"/>
<text text-anchor="middle" x="1484" y="-273.3" font-family="Times,serif" font-size="14.00" fill="#2f3638">put_locks_for_1pc</text>
</g>
<!-- PrewriteMutation_write_lock&#45;&gt;put_locks_for_1pc -->
<g id="edge2" class="edge">
<title>PrewriteMutation_write_lock&#45;&gt;put_locks_for_1pc</title>
<path fill="none" stroke="#666666" d="M1344.7,-277C1367.94,-277 1392.69,-277 1414.73,-277"/>
<polygon fill="#666666" stroke="#666666" points="1414.99,-280.5 1424.99,-277 1414.99,-273.5 1414.99,-280.5"/>
</g>
<!-- TxnHeartBeat_process_write -->
<g id="node4" class="node">
<title>TxnHeartBeat_process_write</title>
<path fill="none" stroke="#1c2123" d="M894.5,-190.5C894.5,-190.5 1055.5,-190.5 1055.5,-190.5 1061.5,-190.5 1067.5,-196.5 1067.5,-202.5 1067.5,-202.5 1067.5,-239.5 1067.5,-239.5 1067.5,-245.5 1061.5,-251.5 1055.5,-251.5 1055.5,-251.5 894.5,-251.5 894.5,-251.5 888.5,-251.5 882.5,-245.5 882.5,-239.5 882.5,-239.5 882.5,-202.5 882.5,-202.5 882.5,-196.5 888.5,-190.5 894.5,-190.5"/>
<text text-anchor="middle" x="975" y="-236.3" font-family="Times,serif" font-size="14.00" fill="#2f3638">TxnHeartBeat::process_write</text>
<polyline fill="none" stroke="#1c2123" points="882.5,-228.5 1067.5,-228.5 "/>
<text text-anchor="start" x="890.5" y="-213.3" font-family="Times,serif" font-size="14.00" fill="#2f3638">更新lock.ttl = self.advise_ttl</text>
<text text-anchor="start" x="890.5" y="-198.3" font-family="Times,serif" font-size="14.00" fill="#2f3638"> 更新的是primary key 的lock</text>
</g>
<!-- TxnHeartBeat_process_write&#45;&gt;put_lock -->
<g id="edge3" class="edge">
<title>TxnHeartBeat_process_write&#45;&gt;put_lock</title>
<path fill="none" stroke="#666666" d="M1067.69,-222.6C1151.81,-222.65 1279.58,-219.11 1389,-201 1406.62,-198.08 1425.62,-193.01 1441.91,-188.04"/>
<polygon fill="#666666" stroke="#666666" points="1443.16,-191.31 1451.66,-184.98 1441.07,-184.63 1443.16,-191.31"/>
</g>
<!-- acquire_pessimistic_lock -->
<g id="node5" class="node">
<title>acquire_pessimistic_lock</title>
<path fill="none" stroke="#1c2123" d="M1321,-192C1321,-192 1191,-192 1191,-192 1185,-192 1179,-186 1179,-180 1179,-180 1179,-168 1179,-168 1179,-162 1185,-156 1191,-156 1191,-156 1321,-156 1321,-156 1327,-156 1333,-162 1333,-168 1333,-168 1333,-180 1333,-180 1333,-186 1327,-192 1321,-192"/>
<text text-anchor="middle" x="1256" y="-170.3" font-family="Times,serif" font-size="14.00" fill="#2f3638">acquire_pessimistic_lock</text>
</g>
<!-- acquire_pessimistic_lock&#45;&gt;put_lock -->
<g id="edge4" class="edge">
<title>acquire_pessimistic_lock&#45;&gt;put_lock</title>
<path fill="none" stroke="#666666" d="M1333.2,-174C1369.42,-174 1411.31,-174 1441.56,-174"/>
<polygon fill="#666666" stroke="#666666" points="1441.75,-177.5 1451.75,-174 1441.75,-170.5 1441.75,-177.5"/>
</g>
<!-- check_txn_status_lock_exists -->
<g id="node6" class="node">
<title>check_txn_status_lock_exists</title>
<path fill="none" stroke="#1c2123" d="M1135,-0.5C1135,-0.5 1377,-0.5 1377,-0.5 1383,-0.5 1389,-6.5 1389,-12.5 1389,-12.5 1389,-79.5 1389,-79.5 1389,-85.5 1383,-91.5 1377,-91.5 1377,-91.5 1135,-91.5 1135,-91.5 1129,-91.5 1123,-85.5 1123,-79.5 1123,-79.5 1123,-12.5 1123,-12.5 1123,-6.5 1129,-0.5 1135,-0.5"/>
<text text-anchor="middle" x="1256" y="-76.3" font-family="Times,serif" font-size="14.00" fill="#2f3638">check_txn_status_lock_exists</text>
<polyline fill="none" stroke="#1c2123" points="1123,-68.5 1389,-68.5 "/>
<text text-anchor="start" x="1131" y="-53.3" font-family="Times,serif" font-size="14.00" fill="#2f3638">更新lock.min_comit_ts</text>
<text text-anchor="start" x="1131" y="-38.3" font-family="Times,serif" font-size="14.00" fill="#2f3638"> 更新的是primary lock</text>
<text text-anchor="start" x="1131" y="-23.3" font-family="Times,serif" font-size="14.00" fill="#2f3638"> lock.min_commit_ts = caller_start_ts.next();</text>
<text text-anchor="start" x="1131" y="-8.3" font-family="Times,serif" font-size="14.00" fill="#2f3638"> lock.min_commit_ts = current_ts</text>
</g>
<!-- check_txn_status_lock_exists&#45;&gt;put_lock -->
<g id="edge5" class="edge">
<title>check_txn_status_lock_exists&#45;&gt;put_lock</title>
<path fill="none" stroke="#666666" d="M1349.98,-91.63C1363.2,-98.57 1376.53,-105.82 1389,-113 1408.95,-124.5 1430.55,-138.4 1448.01,-150.03"/>
<polygon fill="#666666" stroke="#666666" points="1446.47,-153.22 1456.73,-155.88 1450.37,-147.4 1446.47,-153.22"/>
</g>
<!-- mark_rollback_on_mismatching_lock -->
<g id="node7" class="node">
<title>mark_rollback_on_mismatching_lock</title>
<path fill="none" stroke="#1c2123" d="M875,-80.5C875,-80.5 1075,-80.5 1075,-80.5 1081,-80.5 1087,-86.5 1087,-92.5 1087,-92.5 1087,-159.5 1087,-159.5 1087,-165.5 1081,-171.5 1075,-171.5 1075,-171.5 875,-171.5 875,-171.5 869,-171.5 863,-165.5 863,-159.5 863,-159.5 863,-92.5 863,-92.5 863,-86.5 869,-80.5 875,-80.5"/>
<text text-anchor="middle" x="975" y="-156.3" font-family="Times,serif" font-size="14.00" fill="#2f3638">mark_rollback_on_mismatching_lock</text>
<polyline fill="none" stroke="#1c2123" points="863,-148.5 1087,-148.5 "/>
<text text-anchor="start" x="871" y="-133.3" font-family="Times,serif" font-size="14.00" fill="#2f3638">lock.rollback_ts.push(self.start_ts);</text>
<text text-anchor="start" x="871" y="-118.3" font-family="Times,serif" font-size="14.00" fill="#2f3638"> Add the timestamp of the current </text>
<text text-anchor="start" x="871" y="-103.3" font-family="Times,serif" font-size="14.00" fill="#2f3638"> rollback operation to another</text>
<text text-anchor="start" x="871" y="-88.3" font-family="Times,serif" font-size="14.00" fill="#2f3638"> transaction&#39;s lock if necessary.</text>
</g>
<!-- mark_rollback_on_mismatching_lock&#45;&gt;put_lock -->
<g id="edge6" class="edge">
<title>mark_rollback_on_mismatching_lock&#45;&gt;put_lock</title>
<path fill="none" stroke="#666666" d="M1087.18,-124.79C1170.73,-125.54 1287.73,-130.11 1389,-147 1406.61,-149.94 1425.62,-155.02 1441.9,-159.99"/>
<polygon fill="#666666" stroke="#666666" points="1441.06,-163.39 1451.65,-163.04 1443.16,-156.71 1441.06,-163.39"/>
</g>
<!-- check_txn_status_missing_lock -->
<g id="node8" class="node">
<title>check_txn_status_missing_lock</title>
<path fill="none" stroke="#1c2123" d="M798,-144C798,-144 633,-144 633,-144 627,-144 621,-138 621,-132 621,-132 621,-120 621,-120 621,-114 627,-108 633,-108 633,-108 798,-108 798,-108 804,-108 810,-114 810,-120 810,-120 810,-132 810,-132 810,-138 804,-144 798,-144"/>
<text text-anchor="middle" x="715.5" y="-122.3" font-family="Times,serif" font-size="14.00" fill="#2f3638">check_txn_status_missing_lock</text>
</g>
<!-- check_txn_status_missing_lock&#45;&gt;mark_rollback_on_mismatching_lock -->
<g id="edge7" class="edge">
<title>check_txn_status_missing_lock&#45;&gt;mark_rollback_on_mismatching_lock</title>
<path fill="none" stroke="#666666" d="M810.19,-126C823.96,-126 838.31,-126 852.54,-126"/>
<polygon fill="#666666" stroke="#666666" points="852.87,-129.5 862.87,-126 852.87,-122.5 852.87,-129.5"/>
</g>
<!-- CheckSecondaryLocks_process_write -->
<g id="node9" class="node">
<title>CheckSecondaryLocks_process_write</title>
<path fill="none" stroke="#1c2123" d="M815,-202C815,-202 616,-202 616,-202 610,-202 604,-196 604,-190 604,-190 604,-178 604,-178 604,-172 610,-166 616,-166 616,-166 815,-166 815,-166 821,-166 827,-172 827,-178 827,-178 827,-190 827,-190 827,-196 821,-202 815,-202"/>
<text text-anchor="middle" x="715.5" y="-180.3" font-family="Times,serif" font-size="14.00" fill="#2f3638">CheckSecondaryLocks_process_write</text>
</g>
<!-- CheckSecondaryLocks_process_write&#45;&gt;mark_rollback_on_mismatching_lock -->
<g id="edge8" class="edge">
<title>CheckSecondaryLocks_process_write&#45;&gt;mark_rollback_on_mismatching_lock</title>
<path fill="none" stroke="#666666" d="M796.56,-165.97C814.42,-161.95 833.73,-157.59 852.83,-153.29"/>
<polygon fill="#666666" stroke="#666666" points="853.8,-156.66 862.78,-151.05 852.26,-149.83 853.8,-156.66"/>
</g>
<!-- PreWrite_process_write -->
<g id="node10" class="node">
<title>PreWrite_process_write</title>
<path fill="none" stroke="#1c2123" d="M347.5,-304C347.5,-304 224.5,-304 224.5,-304 218.5,-304 212.5,-298 212.5,-292 212.5,-292 212.5,-280 212.5,-280 212.5,-274 218.5,-268 224.5,-268 224.5,-268 347.5,-268 347.5,-268 353.5,-268 359.5,-274 359.5,-280 359.5,-280 359.5,-292 359.5,-292 359.5,-298 353.5,-304 347.5,-304"/>
<text text-anchor="middle" x="286" y="-282.3" font-family="Times,serif" font-size="14.00" fill="#2f3638">PreWrite_process_write</text>
</g>
<!-- PreWriter_process_write -->
<g id="node11" class="node">
<title>PreWriter_process_write</title>
<path fill="none" stroke="#1c2123" d="M556,-304C556,-304 428,-304 428,-304 422,-304 416,-298 416,-292 416,-292 416,-280 416,-280 416,-274 422,-268 428,-268 428,-268 556,-268 556,-268 562,-268 568,-274 568,-280 568,-280 568,-292 568,-292 568,-298 562,-304 556,-304"/>
<text text-anchor="middle" x="492" y="-282.3" font-family="Times,serif" font-size="14.00" fill="#2f3638">PreWriter_process_write</text>
</g>
<!-- PreWrite_process_write&#45;&gt;PreWriter_process_write -->
<g id="edge9" class="edge">
<title>PreWrite_process_write&#45;&gt;PreWriter_process_write</title>
<path fill="none" stroke="#666666" d="M359.78,-286C374.57,-286 390.24,-286 405.42,-286"/>
<polygon fill="#666666" stroke="#666666" points="405.83,-289.5 415.83,-286 405.83,-282.5 405.83,-289.5"/>
</g>
<!-- PreWriter_prewrite -->
<g id="node12" class="node">
<title>PreWriter_prewrite</title>
<path fill="none" stroke="#1c2123" d="M764.5,-305C764.5,-305 666.5,-305 666.5,-305 660.5,-305 654.5,-299 654.5,-293 654.5,-293 654.5,-281 654.5,-281 654.5,-275 660.5,-269 666.5,-269 666.5,-269 764.5,-269 764.5,-269 770.5,-269 776.5,-275 776.5,-281 776.5,-281 776.5,-293 776.5,-293 776.5,-299 770.5,-305 764.5,-305"/>
<text text-anchor="middle" x="715.5" y="-283.3" font-family="Times,serif" font-size="14.00" fill="#2f3638">PreWriter_prewrite</text>
</g>
<!-- PreWriter_process_write&#45;&gt;PreWriter_prewrite -->
<g id="edge10" class="edge">
<title>PreWriter_process_write&#45;&gt;PreWriter_prewrite</title>
<path fill="none" stroke="#666666" d="M568.3,-286.34C592.88,-286.45 620.07,-286.57 644.26,-286.68"/>
<polygon fill="#666666" stroke="#666666" points="644.42,-290.18 654.43,-286.73 644.45,-283.18 644.42,-290.18"/>
</g>
<!-- prewrite -->
<g id="node13" class="node">
<title>prewrite</title>
<path fill="none" stroke="#1c2123" d="M994,-306C994,-306 956,-306 956,-306 950,-306 944,-300 944,-294 944,-294 944,-282 944,-282 944,-276 950,-270 956,-270 956,-270 994,-270 994,-270 1000,-270 1006,-276 1006,-282 1006,-282 1006,-294 1006,-294 1006,-300 1000,-306 994,-306"/>
<text text-anchor="middle" x="975" y="-284.3" font-family="Times,serif" font-size="14.00" fill="#2f3638">prewrite</text>
</g>
<!-- PreWriter_prewrite&#45;&gt;prewrite -->
<g id="edge11" class="edge">
<title>PreWriter_prewrite&#45;&gt;prewrite</title>
<path fill="none" stroke="#666666" d="M776.55,-287.23C824.91,-287.42 891.56,-287.68 933.71,-287.84"/>
<polygon fill="#666666" stroke="#666666" points="933.86,-291.34 943.88,-287.88 933.89,-284.34 933.86,-291.34"/>
</g>
<!-- prewrite&#45;&gt;PrewriteMutation_write_lock -->
<g id="edge12" class="edge">
<title>prewrite&#45;&gt;PrewriteMutation_write_lock</title>
<path fill="none" stroke="#666666" d="M1006.12,-286.81C1042.13,-285.39 1104.19,-282.95 1157.32,-280.85"/>
<polygon fill="#666666" stroke="#666666" points="1157.62,-284.34 1167.48,-280.45 1157.35,-277.35 1157.62,-284.34"/>
</g>
<!-- Command_process_write -->
<g id="node14" class="node">
<title>Command_process_write</title>
<path fill="none" stroke="#1c2123" d="M144,-189C144,-189 12,-189 12,-189 6,-189 0,-183 0,-177 0,-177 0,-165 0,-165 0,-159 6,-153 12,-153 12,-153 144,-153 144,-153 150,-153 156,-159 156,-165 156,-165 156,-177 156,-177 156,-183 150,-189 144,-189"/>
<text text-anchor="middle" x="78" y="-167.3" font-family="Times,serif" font-size="14.00" fill="#2f3638">Command_process_write</text>
</g>
<!-- Command_process_write&#45;&gt;TxnHeartBeat_process_write -->
<g id="edge13" class="edge">
<title>Command_process_write&#45;&gt;TxnHeartBeat_process_write</title>
<path fill="none" stroke="#666666" d="M156.01,-185.97C168.02,-187.92 180.32,-189.69 192,-191 435.01,-218.29 722.87,-222.04 872.39,-221.85"/>
<polygon fill="#666666" stroke="#666666" points="872.48,-225.35 882.47,-221.84 872.47,-218.35 872.48,-225.35"/>
</g>
<!-- Command_process_write&#45;&gt;CheckSecondaryLocks_process_write -->
<g id="edge14" class="edge">
<title>Command_process_write&#45;&gt;CheckSecondaryLocks_process_write</title>
<path fill="none" stroke="#666666" d="M156.19,-173.92C168.18,-174.32 180.42,-174.7 192,-175 329.72,-178.62 487.9,-181.11 593.81,-182.54"/>
<polygon fill="#666666" stroke="#666666" points="593.85,-186.04 603.89,-182.68 593.94,-179.04 593.85,-186.04"/>
</g>
<!-- Command_process_write&#45;&gt;PreWrite_process_write -->
<g id="edge15" class="edge">
<title>Command_process_write&#45;&gt;PreWrite_process_write</title>
<path fill="none" stroke="#666666" d="M103.33,-189.01C125.7,-205.11 160.11,-228.74 192,-246 203.7,-252.33 216.62,-258.42 229,-263.85"/>
<polygon fill="#666666" stroke="#666666" points="227.77,-267.13 238.34,-267.87 230.54,-260.7 227.77,-267.13"/>
</g>
<!-- CheckTxnStatus_process_write -->
<g id="node15" class="node">
<title>CheckTxnStatus_process_write</title>
<path fill="none" stroke="#1c2123" d="M368,-58C368,-58 204,-58 204,-58 198,-58 192,-52 192,-46 192,-46 192,-34 192,-34 192,-28 198,-22 204,-22 204,-22 368,-22 368,-22 374,-22 380,-28 380,-34 380,-34 380,-46 380,-46 380,-52 374,-58 368,-58"/>
<text text-anchor="middle" x="286" y="-36.3" font-family="Times,serif" font-size="14.00" fill="#2f3638">CheckTxnStatus_process_write</text>
</g>
<!-- Command_process_write&#45;&gt;CheckTxnStatus_process_write -->
<g id="edge16" class="edge">
<title>Command_process_write&#45;&gt;CheckTxnStatus_process_write</title>
<path fill="none" stroke="#666666" d="M93.91,-152.84C113.91,-129.64 151.59,-89.78 192,-67 195.02,-65.3 198.16,-63.69 201.37,-62.18"/>
<polygon fill="#666666" stroke="#666666" points="202.83,-65.37 210.61,-58.18 200.05,-58.95 202.83,-65.37"/>
</g>
<!-- ResolveLock_process_write -->
<g id="node16" class="node">
<title>ResolveLock_process_write</title>
<path fill="none" stroke="#1c2123" d="M359,-166C359,-166 213,-166 213,-166 207,-166 201,-160 201,-154 201,-154 201,-142 201,-142 201,-136 207,-130 213,-130 213,-130 359,-130 359,-130 365,-130 371,-136 371,-142 371,-142 371,-154 371,-154 371,-160 365,-166 359,-166"/>
<text text-anchor="middle" x="286" y="-144.3" font-family="Times,serif" font-size="14.00" fill="#2f3638">ResolveLock_process_write</text>
</g>
<!-- Command_process_write&#45;&gt;ResolveLock_process_write -->
<g id="edge17" class="edge">
<title>Command_process_write&#45;&gt;ResolveLock_process_write</title>
<path fill="none" stroke="#666666" d="M156.29,-162.37C167.51,-161.12 179.16,-159.82 190.66,-158.53"/>
<polygon fill="#666666" stroke="#666666" points="191.17,-162 200.72,-157.41 190.39,-155.04 191.17,-162"/>
</g>
<!-- Rollback_process_write -->
<g id="node17" class="node">
<title>Rollback_process_write</title>
<path fill="none" stroke="#1c2123" d="M347.5,-112C347.5,-112 224.5,-112 224.5,-112 218.5,-112 212.5,-106 212.5,-100 212.5,-100 212.5,-88 212.5,-88 212.5,-82 218.5,-76 224.5,-76 224.5,-76 347.5,-76 347.5,-76 353.5,-76 359.5,-82 359.5,-88 359.5,-88 359.5,-100 359.5,-100 359.5,-106 353.5,-112 347.5,-112"/>
<text text-anchor="middle" x="286" y="-90.3" font-family="Times,serif" font-size="14.00" fill="#2f3638">Rollback_process_write</text>
</g>
<!-- Command_process_write&#45;&gt;Rollback_process_write -->
<g id="edge18" class="edge">
<title>Command_process_write&#45;&gt;Rollback_process_write</title>
<path fill="none" stroke="#666666" d="M116.41,-152.93C138.17,-142.81 166.3,-130.37 192,-121 197.51,-118.99 203.26,-117.03 209.06,-115.13"/>
<polygon fill="#666666" stroke="#666666" points="210.38,-118.38 218.85,-112.02 208.26,-111.71 210.38,-118.38"/>
</g>
<!-- CheckTxnStatus_process_write&#45;&gt;check_txn_status_lock_exists -->
<g id="edge19" class="edge">
<title>CheckTxnStatus_process_write&#45;&gt;check_txn_status_lock_exists</title>
<path fill="none" stroke="#666666" d="M380.26,-40.58C550.34,-41.63 911.86,-43.87 1112.82,-45.12"/>
<polygon fill="#666666" stroke="#666666" points="1112.83,-48.62 1122.86,-45.18 1112.88,-41.62 1112.83,-48.62"/>
</g>
<!-- cleanup -->
<g id="node18" class="node">
<title>cleanup</title>
<path fill="none" stroke="#1c2123" d="M509.5,-144C509.5,-144 474.5,-144 474.5,-144 468.5,-144 462.5,-138 462.5,-132 462.5,-132 462.5,-120 462.5,-120 462.5,-114 468.5,-108 474.5,-108 474.5,-108 509.5,-108 509.5,-108 515.5,-108 521.5,-114 521.5,-120 521.5,-120 521.5,-132 521.5,-132 521.5,-138 515.5,-144 509.5,-144"/>
<text text-anchor="middle" x="492" y="-122.3" font-family="Times,serif" font-size="14.00" fill="#2f3638">cleanup</text>
</g>
<!-- ResolveLock_process_write&#45;&gt;cleanup -->
<g id="edge21" class="edge">
<title>ResolveLock_process_write&#45;&gt;cleanup</title>
<path fill="none" stroke="#666666" d="M371.15,-138.92C399.32,-135.89 429.37,-132.65 452.33,-130.17"/>
<polygon fill="#666666" stroke="#666666" points="452.79,-133.64 462.35,-129.09 452.03,-126.68 452.79,-133.64"/>
</g>
<!-- Rollback_process_write&#45;&gt;cleanup -->
<g id="edge22" class="edge">
<title>Rollback_process_write&#45;&gt;cleanup</title>
<path fill="none" stroke="#666666" d="M359.78,-105.42C390.96,-110.31 426.11,-115.82 452.18,-119.91"/>
<polygon fill="#666666" stroke="#666666" points="451.99,-123.42 462.41,-121.51 453.07,-116.51 451.99,-123.42"/>
</g>
<!-- cleanup&#45;&gt;check_txn_status_missing_lock -->
<g id="edge20" class="edge">
<title>cleanup&#45;&gt;check_txn_status_missing_lock</title>
<path fill="none" stroke="#666666" d="M521.5,-126C544.38,-126 577.97,-126 610.74,-126"/>
<polygon fill="#666666" stroke="#666666" points="610.88,-129.5 620.88,-126 610.88,-122.5 610.88,-129.5"/>
</g>
</g>
</svg>
