<?xml version="1.0" encoding="UTF-8" standalone="no"?>
<!DOCTYPE svg PUBLIC "-//W3C//DTD SVG 1.1//EN"
 "http://www.w3.org/Graphics/SVG/1.1/DTD/svg11.dtd">
<!-- Generated by graphviz version 2.44.1 (20200629.0846)
 -->
<!-- Title: write_result Pages: 1 -->
<svg width="1361pt" height="1060pt"
 viewBox="0.00 0.00 1361.00 1060.00" xmlns="http://www.w3.org/2000/svg" xmlns:xlink="http://www.w3.org/1999/xlink">
<g id="graph0" class="graph" transform="scale(1 1) rotate(0) translate(4 1056)">
<title>write_result</title>
<polygon fill="white" stroke="transparent" points="-4,4 -4,-1056 1357,-1056 1357,4 -4,4"/>
<!-- WriteResult -->
<g id="node1" class="node">
<title>WriteResult</title>
<path fill="#79d8ce" stroke="#60b5ac" d="M12,-345C12,-345 433,-345 433,-345 439,-345 445,-351 445,-357 445,-357 445,-517 445,-517 445,-523 439,-529 433,-529 433,-529 12,-529 12,-529 6,-529 0,-523 0,-517 0,-517 0,-357 0,-357 0,-351 6,-345 12,-345"/>
<text text-anchor="middle" x="222.5" y="-513.8" font-family="Times,serif" font-size="14.00" fill="#5d6179">WriteResult</text>
<polyline fill="none" stroke="#60b5ac" points="0,-506 445,-506 "/>
<text text-anchor="start" x="8" y="-490.8" font-family="Times,serif" font-size="14.00" fill="#5d6179">pub ctx: Context,</text>
<polyline fill="none" stroke="#60b5ac" points="0,-483 445,-483 "/>
<text text-anchor="start" x="8" y="-467.8" font-family="Times,serif" font-size="14.00" fill="#5d6179">pub to_be_write: WriteData,</text>
<polyline fill="none" stroke="#60b5ac" points="0,-460 445,-460 "/>
<text text-anchor="start" x="8" y="-444.8" font-family="Times,serif" font-size="14.00" fill="#5d6179">pub rows: usize,</text>
<polyline fill="none" stroke="#60b5ac" points="0,-437 445,-437 "/>
<text text-anchor="start" x="8" y="-421.8" font-family="Times,serif" font-size="14.00" fill="#5d6179">pub pr: ProcessResult,</text>
<polyline fill="none" stroke="#60b5ac" points="0,-414 445,-414 "/>
<text text-anchor="start" x="8" y="-398.8" font-family="Times,serif" font-size="14.00" fill="#5d6179">pub lock_info: Option&lt;(lock_manager::Lock, bool, Option&lt;WaitTimeout&gt;)&gt;,</text>
<polyline fill="none" stroke="#60b5ac" points="0,-391 445,-391 "/>
<text text-anchor="start" x="8" y="-375.8" font-family="Times,serif" font-size="14.00" fill="#5d6179">pub lock_guards: Vec&lt;KeyHandleGuard&gt;,</text>
<polyline fill="none" stroke="#60b5ac" points="0,-368 445,-368 "/>
<text text-anchor="start" x="8" y="-352.8" font-family="Times,serif" font-size="14.00" fill="#5d6179">pub response_policy: ResponsePolicy,</text>
</g>
<!-- Context -->
<g id="node2" class="node">
<title>Context</title>
<path fill="none" stroke="#1c2123" d="M635.5,-917C635.5,-917 600.5,-917 600.5,-917 594.5,-917 588.5,-911 588.5,-905 588.5,-905 588.5,-893 588.5,-893 588.5,-887 594.5,-881 600.5,-881 600.5,-881 635.5,-881 635.5,-881 641.5,-881 647.5,-887 647.5,-893 647.5,-893 647.5,-905 647.5,-905 647.5,-911 641.5,-917 635.5,-917"/>
<text text-anchor="middle" x="618" y="-895.3" font-family="Times,serif" font-size="14.00" fill="#2f3638">Context</text>
</g>
<!-- WriteResult&#45;&gt;Context -->
<g id="edge1" class="edge">
<title>WriteResult&#45;&gt;Context</title>
<path fill="none" stroke="#666666" d="M252.52,-529.27C289.13,-629.9 362.11,-787.81 481,-872 509.34,-892.07 548.94,-898.09 578.1,-899.53"/>
<polygon fill="#666666" stroke="#666666" points="578.22,-903.04 588.33,-899.87 578.45,-896.04 578.22,-903.04"/>
</g>
<!-- WriteData -->
<g id="node3" class="node">
<title>WriteData</title>
<path fill="#79d8ce" stroke="#60b5ac" d="M541.5,-793.5C541.5,-793.5 694.5,-793.5 694.5,-793.5 700.5,-793.5 706.5,-799.5 706.5,-805.5 706.5,-805.5 706.5,-850.5 706.5,-850.5 706.5,-856.5 700.5,-862.5 694.5,-862.5 694.5,-862.5 541.5,-862.5 541.5,-862.5 535.5,-862.5 529.5,-856.5 529.5,-850.5 529.5,-850.5 529.5,-805.5 529.5,-805.5 529.5,-799.5 535.5,-793.5 541.5,-793.5"/>
<text text-anchor="middle" x="618" y="-847.3" font-family="Times,serif" font-size="14.00" fill="#5d6179">WriteData</text>
<polyline fill="none" stroke="#60b5ac" points="529.5,-839.5 706.5,-839.5 "/>
<text text-anchor="start" x="537.5" y="-824.3" font-family="Times,serif" font-size="14.00" fill="#5d6179">pub modifies: Vec&lt;Modify&gt;,</text>
<polyline fill="none" stroke="#60b5ac" points="529.5,-816.5 706.5,-816.5 "/>
<text text-anchor="start" x="537.5" y="-801.3" font-family="Times,serif" font-size="14.00" fill="#5d6179">pub extra: TxnExtra,</text>
</g>
<!-- WriteResult&#45;&gt;WriteData -->
<g id="edge2" class="edge">
<title>WriteResult&#45;&gt;WriteData</title>
<path fill="none" stroke="#666666" d="M316.26,-529.17C398.13,-610.52 513.73,-725.39 575.03,-786.29"/>
<polygon fill="#666666" stroke="#666666" points="572.67,-788.88 582.23,-793.45 577.6,-783.92 572.67,-788.88"/>
</g>
<!-- ProcessResult -->
<g id="node4" class="node">
<title>ProcessResult</title>
<path fill="none" stroke="#1c2123" d="M652,-613C652,-613 584,-613 584,-613 578,-613 572,-607 572,-601 572,-601 572,-589 572,-589 572,-583 578,-577 584,-577 584,-577 652,-577 652,-577 658,-577 664,-583 664,-589 664,-589 664,-601 664,-601 664,-607 658,-613 652,-613"/>
<text text-anchor="middle" x="618" y="-591.3" font-family="Times,serif" font-size="14.00" fill="#2f3638">ProcessResult</text>
</g>
<!-- WriteResult&#45;&gt;ProcessResult -->
<g id="edge3" class="edge">
<title>WriteResult&#45;&gt;ProcessResult</title>
<path fill="none" stroke="#666666" d="M445.26,-526.04C488.92,-543.57 530.91,-560.43 562.44,-573.09"/>
<polygon fill="#666666" stroke="#666666" points="561.3,-576.41 571.88,-576.88 563.9,-569.91 561.3,-576.41"/>
</g>
<!-- Lock -->
<g id="node5" class="node">
<title>Lock</title>
<path fill="#79d8ce" stroke="#60b5ac" d="M1161.5,-266.5C1161.5,-266.5 1262.5,-266.5 1262.5,-266.5 1268.5,-266.5 1274.5,-272.5 1274.5,-278.5 1274.5,-278.5 1274.5,-323.5 1274.5,-323.5 1274.5,-329.5 1268.5,-335.5 1262.5,-335.5 1262.5,-335.5 1161.5,-335.5 1161.5,-335.5 1155.5,-335.5 1149.5,-329.5 1149.5,-323.5 1149.5,-323.5 1149.5,-278.5 1149.5,-278.5 1149.5,-272.5 1155.5,-266.5 1161.5,-266.5"/>
<text text-anchor="middle" x="1212" y="-320.3" font-family="Times,serif" font-size="14.00" fill="#5d6179">Lock</text>
<polyline fill="none" stroke="#60b5ac" points="1149.5,-312.5 1274.5,-312.5 "/>
<text text-anchor="start" x="1157.5" y="-297.3" font-family="Times,serif" font-size="14.00" fill="#5d6179">pub ts: TimeStamp,</text>
<polyline fill="none" stroke="#60b5ac" points="1149.5,-289.5 1274.5,-289.5 "/>
<text text-anchor="start" x="1157.5" y="-274.3" font-family="Times,serif" font-size="14.00" fill="#5d6179">pub hash: u64,</text>
</g>
<!-- WriteResult&#45;&gt;Lock -->
<g id="edge4" class="edge">
<title>WriteResult&#45;&gt;Lock</title>
<path fill="none" stroke="#666666" d="M445.04,-385.92C549.45,-363.74 676.05,-339.56 791,-325 912.55,-309.61 1055.15,-304.08 1139.01,-302.1"/>
<polygon fill="#666666" stroke="#666666" points="1139.28,-305.6 1149.2,-301.87 1139.12,-298.6 1139.28,-305.6"/>
</g>
<!-- KeyHandleGuard -->
<g id="node6" class="node">
<title>KeyHandleGuard</title>
<path fill="#79d8ce" stroke="#60b5ac" d="M493,-196.5C493,-196.5 743,-196.5 743,-196.5 749,-196.5 755,-202.5 755,-208.5 755,-208.5 755,-253.5 755,-253.5 755,-259.5 749,-265.5 743,-265.5 743,-265.5 493,-265.5 493,-265.5 487,-265.5 481,-259.5 481,-253.5 481,-253.5 481,-208.5 481,-208.5 481,-202.5 487,-196.5 493,-196.5"/>
<text text-anchor="middle" x="618" y="-250.3" font-family="Times,serif" font-size="14.00" fill="#5d6179">KeyHandleGuard</text>
<polyline fill="none" stroke="#60b5ac" points="481,-242.5 755,-242.5 "/>
<text text-anchor="start" x="489" y="-227.3" font-family="Times,serif" font-size="14.00" fill="#5d6179">_mutex_guard: AsyncMutexGuard&lt;&#39;static, ()&gt;,</text>
<polyline fill="none" stroke="#60b5ac" points="481,-219.5 755,-219.5 "/>
<text text-anchor="start" x="489" y="-204.3" font-family="Times,serif" font-size="14.00" fill="#5d6179">handle: Arc&lt;KeyHandle&gt;,</text>
</g>
<!-- WriteResult&#45;&gt;KeyHandleGuard -->
<g id="edge5" class="edge">
<title>WriteResult&#45;&gt;KeyHandleGuard</title>
<path fill="none" stroke="#666666" d="M381.61,-344.98C414.19,-326.87 448.48,-308.41 481,-292 495.87,-284.5 511.86,-276.91 527.47,-269.76"/>
<polygon fill="#666666" stroke="#666666" points="528.95,-272.93 536.6,-265.6 526.05,-266.56 528.95,-272.93"/>
</g>
<!-- ResponsePolicy -->
<g id="node7" class="node">
<title>ResponsePolicy</title>
<path fill="none" stroke="#1c2123" d="M657.5,-117C657.5,-117 578.5,-117 578.5,-117 572.5,-117 566.5,-111 566.5,-105 566.5,-105 566.5,-93 566.5,-93 566.5,-87 572.5,-81 578.5,-81 578.5,-81 657.5,-81 657.5,-81 663.5,-81 669.5,-87 669.5,-93 669.5,-93 669.5,-105 669.5,-105 669.5,-111 663.5,-117 657.5,-117"/>
<text text-anchor="middle" x="618" y="-95.3" font-family="Times,serif" font-size="14.00" fill="#2f3638">ResponsePolicy</text>
</g>
<!-- WriteResult&#45;&gt;ResponsePolicy -->
<g id="edge6" class="edge">
<title>WriteResult&#45;&gt;ResponsePolicy</title>
<path fill="none" stroke="#666666" d="M309.78,-344.83C358,-295.53 420.44,-235.22 481,-187 511.47,-162.74 548.78,-138.97 576.61,-122.26"/>
<polygon fill="#666666" stroke="#666666" points="578.49,-125.22 585.29,-117.09 574.91,-119.2 578.49,-125.22"/>
</g>
<!-- Modify -->
<g id="node8" class="node">
<title>Modify</title>
<path fill="none" stroke="#1c2123" d="M930,-1052C930,-1052 896,-1052 896,-1052 890,-1052 884,-1046 884,-1040 884,-1040 884,-1028 884,-1028 884,-1022 890,-1016 896,-1016 896,-1016 930,-1016 930,-1016 936,-1016 942,-1022 942,-1028 942,-1028 942,-1040 942,-1040 942,-1046 936,-1052 930,-1052"/>
<text text-anchor="middle" x="913" y="-1030.3" font-family="Times,serif" font-size="14.00" fill="#2f3638">Modify</text>
</g>
<!-- WriteData&#45;&gt;Modify -->
<g id="edge7" class="edge">
<title>WriteData&#45;&gt;Modify</title>
<path fill="none" stroke="#666666" d="M706.55,-842.25C724.53,-848.76 741.93,-858.23 755,-872 797.75,-917.04 746.2,-964 791,-1007 812.87,-1027.99 847.28,-1034.05 873.83,-1035.27"/>
<polygon fill="#666666" stroke="#666666" points="873.86,-1038.77 883.94,-1035.52 874.03,-1031.77 873.86,-1038.77"/>
</g>
<!-- TxnExtra -->
<g id="node9" class="node">
<title>TxnExtra</title>
<path fill="#79d8ce" stroke="#60b5ac" d="M841.5,-928.5C841.5,-928.5 984.5,-928.5 984.5,-928.5 990.5,-928.5 996.5,-934.5 996.5,-940.5 996.5,-940.5 996.5,-985.5 996.5,-985.5 996.5,-991.5 990.5,-997.5 984.5,-997.5 984.5,-997.5 841.5,-997.5 841.5,-997.5 835.5,-997.5 829.5,-991.5 829.5,-985.5 829.5,-985.5 829.5,-940.5 829.5,-940.5 829.5,-934.5 835.5,-928.5 841.5,-928.5"/>
<text text-anchor="middle" x="913" y="-982.3" font-family="Times,serif" font-size="14.00" fill="#5d6179">TxnExtra</text>
<polyline fill="none" stroke="#60b5ac" points="829.5,-974.5 996.5,-974.5 "/>
<text text-anchor="start" x="837.5" y="-959.3" font-family="Times,serif" font-size="14.00" fill="#5d6179">pub old_values: OldValues,</text>
<polyline fill="none" stroke="#60b5ac" points="829.5,-951.5 996.5,-951.5 "/>
<text text-anchor="start" x="837.5" y="-936.3" font-family="Times,serif" font-size="14.00" fill="#5d6179">pub one_pc: bool,</text>
</g>
<!-- WriteData&#45;&gt;TxnExtra -->
<g id="edge8" class="edge">
<title>WriteData&#45;&gt;TxnExtra</title>
<path fill="none" stroke="#666666" d="M706.52,-847.67C723.5,-853.81 740.51,-861.76 755,-872 776.49,-887.18 769.78,-903.44 791,-919 799.92,-925.55 809.92,-931.2 820.24,-936.08"/>
<polygon fill="#666666" stroke="#666666" points="818.81,-939.27 829.37,-940.16 821.67,-932.88 818.81,-939.27"/>
</g>
<!-- Res -->
<g id="node10" class="node">
<title>Res</title>
<path fill="none" stroke="#1c2123" d="M928,-910C928,-910 898,-910 898,-910 892,-910 886,-904 886,-898 886,-898 886,-886 886,-886 886,-880 892,-874 898,-874 898,-874 928,-874 928,-874 934,-874 940,-880 940,-886 940,-886 940,-898 940,-898 940,-904 934,-910 928,-910"/>
<text text-anchor="middle" x="913" y="-888.3" font-family="Times,serif" font-size="14.00" fill="#2f3638">Res</text>
</g>
<!-- ProcessResult&#45;&gt;Res -->
<g id="edge9" class="edge">
<title>ProcessResult&#45;&gt;Res</title>
<path fill="none" stroke="#666666" d="M634.04,-613.18C660.67,-645.92 716.87,-717.56 755,-784 774.61,-818.17 760.52,-840.04 791,-865 814.71,-884.41 849.48,-890.58 875.67,-892.24"/>
<polygon fill="#666666" stroke="#666666" points="875.81,-895.75 885.95,-892.69 876.11,-888.75 875.81,-895.75"/>
</g>
<!-- MultiRes -->
<g id="node11" class="node">
<title>MultiRes</title>
<path fill="none" stroke="#1c2123" d="M935,-856C935,-856 891,-856 891,-856 885,-856 879,-850 879,-844 879,-844 879,-832 879,-832 879,-826 885,-820 891,-820 891,-820 935,-820 935,-820 941,-820 947,-826 947,-832 947,-832 947,-844 947,-844 947,-850 941,-856 935,-856"/>
<text text-anchor="middle" x="913" y="-834.3" font-family="Times,serif" font-size="14.00" fill="#2f3638">MultiRes</text>
</g>
<!-- ProcessResult&#45;&gt;MultiRes -->
<g id="edge10" class="edge">
<title>ProcessResult&#45;&gt;MultiRes</title>
<path fill="none" stroke="#666666" d="M631.1,-613.16C662.86,-660.31 749.04,-784.75 791,-811 814.31,-825.58 844.49,-832.33 868.88,-835.44"/>
<polygon fill="#666666" stroke="#666666" points="868.61,-838.93 878.93,-836.56 869.38,-831.97 868.61,-838.93"/>
</g>
<!-- PrewriteResult -->
<g id="node12" class="node">
<title>PrewriteResult</title>
<path fill="none" stroke="#1c2123" d="M949.5,-802C949.5,-802 876.5,-802 876.5,-802 870.5,-802 864.5,-796 864.5,-790 864.5,-790 864.5,-778 864.5,-778 864.5,-772 870.5,-766 876.5,-766 876.5,-766 949.5,-766 949.5,-766 955.5,-766 961.5,-772 961.5,-778 961.5,-778 961.5,-790 961.5,-790 961.5,-796 955.5,-802 949.5,-802"/>
<text text-anchor="middle" x="913" y="-780.3" font-family="Times,serif" font-size="14.00" fill="#2f3638">PrewriteResult</text>
</g>
<!-- ProcessResult&#45;&gt;PrewriteResult -->
<g id="edge11" class="edge">
<title>ProcessResult&#45;&gt;PrewriteResult</title>
<path fill="none" stroke="#666666" d="M632.62,-613.13C659.14,-647.05 721.23,-720.01 791,-757 810.37,-767.27 833.47,-773.64 854.28,-777.59"/>
<polygon fill="#666666" stroke="#666666" points="853.83,-781.06 864.28,-779.34 855.03,-774.17 853.83,-781.06"/>
</g>
<!-- MvccKey -->
<g id="node13" class="node">
<title>MvccKey</title>
<path fill="none" stroke="#1c2123" d="M936.5,-748C936.5,-748 889.5,-748 889.5,-748 883.5,-748 877.5,-742 877.5,-736 877.5,-736 877.5,-724 877.5,-724 877.5,-718 883.5,-712 889.5,-712 889.5,-712 936.5,-712 936.5,-712 942.5,-712 948.5,-718 948.5,-724 948.5,-724 948.5,-736 948.5,-736 948.5,-742 942.5,-748 936.5,-748"/>
<text text-anchor="middle" x="913" y="-726.3" font-family="Times,serif" font-size="14.00" fill="#2f3638">MvccKey</text>
</g>
<!-- ProcessResult&#45;&gt;MvccKey -->
<g id="edge12" class="edge">
<title>ProcessResult&#45;&gt;MvccKey</title>
<path fill="none" stroke="#666666" d="M642.08,-613.13C673.83,-637.2 733.61,-679.4 791,-703 815.36,-713.02 844.09,-719.63 867.43,-723.8"/>
<polygon fill="#666666" stroke="#666666" points="866.97,-727.27 877.41,-725.49 868.14,-720.37 866.97,-727.27"/>
</g>
<!-- MvccStartTs -->
<g id="node14" class="node">
<title>MvccStartTs</title>
<path fill="none" stroke="#1c2123" d="M944.5,-694C944.5,-694 881.5,-694 881.5,-694 875.5,-694 869.5,-688 869.5,-682 869.5,-682 869.5,-670 869.5,-670 869.5,-664 875.5,-658 881.5,-658 881.5,-658 944.5,-658 944.5,-658 950.5,-658 956.5,-664 956.5,-670 956.5,-670 956.5,-682 956.5,-682 956.5,-688 950.5,-694 944.5,-694"/>
<text text-anchor="middle" x="913" y="-672.3" font-family="Times,serif" font-size="14.00" fill="#2f3638">MvccStartTs</text>
</g>
<!-- ProcessResult&#45;&gt;MvccStartTs -->
<g id="edge13" class="edge">
<title>ProcessResult&#45;&gt;MvccStartTs</title>
<path fill="none" stroke="#666666" d="M664.32,-610.38C698.83,-621.81 747.62,-637.37 791,-649 813.25,-654.96 838.05,-660.66 859.38,-665.27"/>
<polygon fill="#666666" stroke="#666666" points="858.72,-668.71 869.23,-667.38 860.18,-661.86 858.72,-668.71"/>
</g>
<!-- Locks -->
<g id="node15" class="node">
<title>Locks</title>
<path fill="none" stroke="#1c2123" d="M928,-640C928,-640 898,-640 898,-640 892,-640 886,-634 886,-628 886,-628 886,-616 886,-616 886,-610 892,-604 898,-604 898,-604 928,-604 928,-604 934,-604 940,-610 940,-616 940,-616 940,-628 940,-628 940,-634 934,-640 928,-640"/>
<text text-anchor="middle" x="913" y="-618.3" font-family="Times,serif" font-size="14.00" fill="#2f3638">Locks</text>
</g>
<!-- ProcessResult&#45;&gt;Locks -->
<g id="edge14" class="edge">
<title>ProcessResult&#45;&gt;Locks</title>
<path fill="none" stroke="#666666" d="M664.14,-599.16C722.23,-604.51 822.02,-613.71 875.55,-618.64"/>
<polygon fill="#666666" stroke="#666666" points="875.33,-622.14 885.61,-619.57 875.98,-615.17 875.33,-622.14"/>
</g>
<!-- TxnStatus -->
<g id="node16" class="node">
<title>TxnStatus</title>
<path fill="none" stroke="#1c2123" d="M936.5,-586C936.5,-586 889.5,-586 889.5,-586 883.5,-586 877.5,-580 877.5,-574 877.5,-574 877.5,-562 877.5,-562 877.5,-556 883.5,-550 889.5,-550 889.5,-550 936.5,-550 936.5,-550 942.5,-550 948.5,-556 948.5,-562 948.5,-562 948.5,-574 948.5,-574 948.5,-580 942.5,-586 936.5,-586"/>
<text text-anchor="middle" x="913" y="-564.3" font-family="Times,serif" font-size="14.00" fill="#2f3638">TxnStatus</text>
</g>
<!-- ProcessResult&#45;&gt;TxnStatus -->
<g id="edge15" class="edge">
<title>ProcessResult&#45;&gt;TxnStatus</title>
<path fill="none" stroke="#666666" d="M664.14,-590.84C719.33,-585.75 812.18,-577.2 867.21,-572.13"/>
<polygon fill="#666666" stroke="#666666" points="867.73,-575.59 877.36,-571.19 867.08,-568.62 867.73,-575.59"/>
</g>
<!-- NextCommand -->
<g id="node17" class="node">
<title>NextCommand</title>
<path fill="none" stroke="#1c2123" d="M951.5,-532C951.5,-532 874.5,-532 874.5,-532 868.5,-532 862.5,-526 862.5,-520 862.5,-520 862.5,-508 862.5,-508 862.5,-502 868.5,-496 874.5,-496 874.5,-496 951.5,-496 951.5,-496 957.5,-496 963.5,-502 963.5,-508 963.5,-508 963.5,-520 963.5,-520 963.5,-526 957.5,-532 951.5,-532"/>
<text text-anchor="middle" x="913" y="-510.3" font-family="Times,serif" font-size="14.00" fill="#2f3638">NextCommand</text>
</g>
<!-- ProcessResult&#45;&gt;NextCommand -->
<g id="edge16" class="edge">
<title>ProcessResult&#45;&gt;NextCommand</title>
<path fill="none" stroke="#666666" d="M664.32,-579.62C698.83,-568.19 747.62,-552.63 791,-541 810.83,-535.69 832.68,-530.58 852.29,-526.27"/>
<polygon fill="#666666" stroke="#666666" points="853.29,-529.64 862.32,-524.09 851.8,-522.8 853.29,-529.64"/>
</g>
<!-- Failed -->
<g id="node18" class="node">
<title>Failed</title>
<path fill="none" stroke="#1c2123" d="M928,-478C928,-478 898,-478 898,-478 892,-478 886,-472 886,-466 886,-466 886,-454 886,-454 886,-448 892,-442 898,-442 898,-442 928,-442 928,-442 934,-442 940,-448 940,-454 940,-454 940,-466 940,-466 940,-472 934,-478 928,-478"/>
<text text-anchor="middle" x="913" y="-456.3" font-family="Times,serif" font-size="14.00" fill="#2f3638">Failed</text>
</g>
<!-- ProcessResult&#45;&gt;Failed -->
<g id="edge17" class="edge">
<title>ProcessResult&#45;&gt;Failed</title>
<path fill="none" stroke="#666666" d="M642.08,-576.87C673.83,-552.8 733.61,-510.6 791,-487 818.35,-475.76 851.19,-468.8 875.75,-464.78"/>
<polygon fill="#666666" stroke="#666666" points="876.39,-468.22 885.73,-463.22 875.31,-461.3 876.39,-468.22"/>
</g>
<!-- PessimisticLockRes -->
<g id="node19" class="node">
<title>PessimisticLockRes</title>
<path fill="none" stroke="#1c2123" d="M964,-424C964,-424 862,-424 862,-424 856,-424 850,-418 850,-412 850,-412 850,-400 850,-400 850,-394 856,-388 862,-388 862,-388 964,-388 964,-388 970,-388 976,-394 976,-400 976,-400 976,-412 976,-412 976,-418 970,-424 964,-424"/>
<text text-anchor="middle" x="913" y="-402.3" font-family="Times,serif" font-size="14.00" fill="#2f3638">PessimisticLockRes</text>
</g>
<!-- ProcessResult&#45;&gt;PessimisticLockRes -->
<g id="edge18" class="edge">
<title>ProcessResult&#45;&gt;PessimisticLockRes</title>
<path fill="none" stroke="#666666" d="M632.62,-576.87C659.14,-542.95 721.23,-469.99 791,-433 805.88,-425.11 822.97,-419.52 839.53,-415.56"/>
<polygon fill="#666666" stroke="#666666" points="840.74,-418.88 849.75,-413.3 839.23,-412.05 840.74,-418.88"/>
</g>
<!-- SecondaryLocksStatus -->
<g id="node20" class="node">
<title>SecondaryLocksStatus</title>
<path fill="none" stroke="#1c2123" d="M971,-370C971,-370 855,-370 855,-370 849,-370 843,-364 843,-358 843,-358 843,-346 843,-346 843,-340 849,-334 855,-334 855,-334 971,-334 971,-334 977,-334 983,-340 983,-346 983,-346 983,-358 983,-358 983,-364 977,-370 971,-370"/>
<text text-anchor="middle" x="913" y="-348.3" font-family="Times,serif" font-size="14.00" fill="#2f3638">SecondaryLocksStatus</text>
</g>
<!-- ProcessResult&#45;&gt;SecondaryLocksStatus -->
<g id="edge19" class="edge">
<title>ProcessResult&#45;&gt;SecondaryLocksStatus</title>
<path fill="none" stroke="#666666" d="M627.93,-576.76C649.57,-534.63 709.11,-430.22 791,-379 803.6,-371.12 818.21,-365.52 832.83,-361.56"/>
<polygon fill="#666666" stroke="#666666" points="834.05,-364.86 842.92,-359.06 832.37,-358.06 834.05,-364.86"/>
</g>
<!-- KeyHandle -->
<g id="node24" class="node">
<title>KeyHandle</title>
<path fill="#79d8ce" stroke="#60b5ac" d="M803,-162.5C803,-162.5 1023,-162.5 1023,-162.5 1029,-162.5 1035,-168.5 1035,-174.5 1035,-174.5 1035,-265.5 1035,-265.5 1035,-271.5 1029,-277.5 1023,-277.5 1023,-277.5 803,-277.5 803,-277.5 797,-277.5 791,-271.5 791,-265.5 791,-265.5 791,-174.5 791,-174.5 791,-168.5 797,-162.5 803,-162.5"/>
<text text-anchor="middle" x="913" y="-262.3" font-family="Times,serif" font-size="14.00" fill="#5d6179">KeyHandle</text>
<polyline fill="none" stroke="#60b5ac" points="791,-254.5 1035,-254.5 "/>
<text text-anchor="start" x="799" y="-239.3" font-family="Times,serif" font-size="14.00" fill="#5d6179">pub key: Key,</text>
<polyline fill="none" stroke="#60b5ac" points="791,-231.5 1035,-231.5 "/>
<text text-anchor="start" x="799" y="-216.3" font-family="Times,serif" font-size="14.00" fill="#5d6179">table: UnsafeCell&lt;Option&lt;LockTable&gt;&gt;,</text>
<polyline fill="none" stroke="#60b5ac" points="791,-208.5 1035,-208.5 "/>
<text text-anchor="start" x="799" y="-193.3" font-family="Times,serif" font-size="14.00" fill="#5d6179">mutex: AsyncMutex&lt;()&gt;,</text>
<polyline fill="none" stroke="#60b5ac" points="791,-185.5 1035,-185.5 "/>
<text text-anchor="start" x="799" y="-170.3" font-family="Times,serif" font-size="14.00" fill="#5d6179">lock_store: Mutex&lt;Option&lt;Lock&gt;&gt;,</text>
</g>
<!-- KeyHandleGuard&#45;&gt;KeyHandle -->
<g id="edge23" class="edge">
<title>KeyHandleGuard&#45;&gt;KeyHandle</title>
<path fill="none" stroke="#666666" d="M755.21,-225.89C763.6,-225.57 772.04,-225.25 780.41,-224.94"/>
<polygon fill="#666666" stroke="#666666" points="780.72,-228.43 790.58,-224.56 780.46,-221.44 780.72,-228.43"/>
</g>
<!-- OnApplied -->
<g id="node21" class="node">
<title>OnApplied</title>
<path fill="none" stroke="#1c2123" d="M939.5,-144C939.5,-144 886.5,-144 886.5,-144 880.5,-144 874.5,-138 874.5,-132 874.5,-132 874.5,-120 874.5,-120 874.5,-114 880.5,-108 886.5,-108 886.5,-108 939.5,-108 939.5,-108 945.5,-108 951.5,-114 951.5,-120 951.5,-120 951.5,-132 951.5,-132 951.5,-138 945.5,-144 939.5,-144"/>
<text text-anchor="middle" x="913" y="-122.3" font-family="Times,serif" font-size="14.00" fill="#2f3638">OnApplied</text>
</g>
<!-- ResponsePolicy&#45;&gt;OnApplied -->
<g id="edge20" class="edge">
<title>ResponsePolicy&#45;&gt;OnApplied</title>
<path fill="none" stroke="#666666" d="M669.7,-103.67C724.37,-108.71 810.72,-116.67 864.22,-121.6"/>
<polygon fill="#666666" stroke="#666666" points="864.19,-125.11 874.47,-122.54 864.83,-118.14 864.19,-125.11"/>
</g>
<!-- OnCommitted -->
<g id="node22" class="node">
<title>OnCommitted</title>
<path fill="none" stroke="#1c2123" d="M948.5,-90C948.5,-90 877.5,-90 877.5,-90 871.5,-90 865.5,-84 865.5,-78 865.5,-78 865.5,-66 865.5,-66 865.5,-60 871.5,-54 877.5,-54 877.5,-54 948.5,-54 948.5,-54 954.5,-54 960.5,-60 960.5,-66 960.5,-66 960.5,-78 960.5,-78 960.5,-84 954.5,-90 948.5,-90"/>
<text text-anchor="middle" x="913" y="-68.3" font-family="Times,serif" font-size="14.00" fill="#2f3638">OnCommitted</text>
</g>
<!-- ResponsePolicy&#45;&gt;OnCommitted -->
<g id="edge21" class="edge">
<title>ResponsePolicy&#45;&gt;OnCommitted</title>
<path fill="none" stroke="#666666" d="M669.7,-94.33C721.4,-89.56 801.45,-82.19 855.24,-77.23"/>
<polygon fill="#666666" stroke="#666666" points="855.66,-80.71 865.3,-76.3 855.02,-73.74 855.66,-80.71"/>
</g>
<!-- OnProposed -->
<g id="node23" class="node">
<title>OnProposed</title>
<path fill="none" stroke="#1c2123" d="M942.5,-36C942.5,-36 883.5,-36 883.5,-36 877.5,-36 871.5,-30 871.5,-24 871.5,-24 871.5,-12 871.5,-12 871.5,-6 877.5,0 883.5,0 883.5,0 942.5,0 942.5,0 948.5,0 954.5,-6 954.5,-12 954.5,-12 954.5,-24 954.5,-24 954.5,-30 948.5,-36 942.5,-36"/>
<text text-anchor="middle" x="913" y="-14.3" font-family="Times,serif" font-size="14.00" fill="#2f3638">OnProposed</text>
</g>
<!-- ResponsePolicy&#45;&gt;OnProposed -->
<g id="edge22" class="edge">
<title>ResponsePolicy&#45;&gt;OnProposed</title>
<path fill="none" stroke="#666666" d="M669.85,-81.79C703.91,-70.57 749.89,-56.02 791,-45 813.97,-38.84 839.66,-32.97 861.43,-28.28"/>
<polygon fill="#666666" stroke="#666666" points="862.41,-31.66 871.46,-26.15 860.95,-24.81 862.41,-31.66"/>
</g>
<!-- KeyHandle&#45;&gt;Lock -->
<g id="edge24" class="edge">
<title>KeyHandle&#45;&gt;Lock</title>
<path fill="none" stroke="#666666" d="M1035.23,-253.06C1070.54,-262.69 1107.99,-272.91 1139.2,-281.42"/>
<polygon fill="#666666" stroke="#666666" points="1138.54,-284.87 1149.11,-284.12 1140.38,-278.11 1138.54,-284.87"/>
</g>
<!-- LockTable -->
<g id="node25" class="node">
<title>LockTable</title>
<path fill="#79d8ce" stroke="#60b5ac" d="M1083,-197C1083,-197 1341,-197 1341,-197 1347,-197 1353,-203 1353,-209 1353,-209 1353,-231 1353,-231 1353,-237 1347,-243 1341,-243 1341,-243 1083,-243 1083,-243 1077,-243 1071,-237 1071,-231 1071,-231 1071,-209 1071,-209 1071,-203 1077,-197 1083,-197"/>
<text text-anchor="middle" x="1212" y="-227.8" font-family="Times,serif" font-size="14.00" fill="#5d6179">LockTable</text>
<polyline fill="none" stroke="#60b5ac" points="1071,-220 1353,-220 "/>
<text text-anchor="start" x="1079" y="-204.8" font-family="Times,serif" font-size="14.00" fill="#5d6179">pub Arc&lt;SkipMap&lt;Key, Weak&lt;KeyHandle&gt;&gt;&gt;</text>
</g>
<!-- KeyHandle&#45;&gt;LockTable -->
<g id="edge25" class="edge">
<title>KeyHandle&#45;&gt;LockTable</title>
<path fill="none" stroke="#666666" d="M1035.23,-220C1043.65,-220 1052.18,-220 1060.73,-220"/>
<polygon fill="#666666" stroke="#666666" points="1060.75,-223.5 1070.75,-220 1060.75,-216.5 1060.75,-223.5"/>
</g>
</g>
</svg>
